<svg id="Gafi" xmlns="http://www.w3.org/2000/svg" xmlns:xlink="http://www.w3.org/1999/xlink" width="74.224" height="129.78" viewBox="0 0 74.224 129.78">
  <defs>
    <clipPath id="clip-path">
      <rect id="Rectángulo_101" data-name="Rectángulo 101" width="74.224" height="129.78" fill="none"/>
    </clipPath>
  </defs>
  <g id="Grupo_61" data-name="Grupo 61" clip-path="url(#clip-path)">
    <path id="Trazado_266" data-name="Trazado 266" d="M74.171,48.062c0,14.791.14,29.582-.037,44.371C73.926,110,62.919,123.669,47.39,128.273A36.907,36.907,0,0,1,1.448,102.355,43.674,43.674,0,0,1,0,91.151Q.029,46.716.011,2.283C.011.166.175,0,2.266,0H71.952C74,0,74.17.171,74.171,2.194V48.062" transform="translate(0 0)" fill="#bc2c27"/>
    <path id="Trazado_267" data-name="Trazado 267" d="M65.179,90.724c-.461-.581-.737-.971-1.055-1.323a29.482,29.482,0,0,0-39.4-4.329c-.615.436-.838.789-.266,1.481,1.374,1.664,2.584,3.473,4.035,5.063a7.68,7.68,0,0,0,3.065,2.208,23.9,23.9,0,0,0,6.075,1.14c6.778.321,13.393-.96,19.974-2.393,2.454-.534,4.883-1.187,7.569-1.846" transform="translate(-4.954 -16.309)"/>
    <path id="Trazado_268" data-name="Trazado 268" d="M18.488,138.962c10.07,13.031,29.824,13.432,40.023,4.522-1.336-1.731-2.7-3.451-4.01-5.212a7.176,7.176,0,0,0-4.419-2.808,28.739,28.739,0,0,0-5.789-.738c-7.336.025-14.495,1.456-21.618,3.051-1.4.313-2.759.777-4.186,1.186" transform="translate(-3.796 -27.659)"/>
    <path id="Trazado_269" data-name="Trazado 269" d="M48.156,118.009c1.736,2.21,3.524,4.382,5.2,6.639,2.437,3.285,5.774,4.306,9.648,3.952a29.954,29.954,0,0,0,11.709-3.931,1.939,1.939,0,0,0,.912-1.187c.365-2.329.627-4.675.893-7.018a3.256,3.256,0,0,0-.2-.947c-.4.126-.683.2-.951.3a60.957,60.957,0,0,1-14.13,3.828c-4.439.572-8.879.829-13.081-1.635" transform="translate(-9.886 -23.715)"/>
    <path id="Trazado_270" data-name="Trazado 270" d="M37,111.324c-1.925-2.4-3.573-4.568-5.345-6.63a8.416,8.416,0,0,0-6.39-2.828c-4.838-.211-9.1,1.519-13.31,3.559a2.232,2.232,0,0,0-1.361,1.919c-.189,1.814-.464,3.62-.681,5.431a7.813,7.813,0,0,0-.007,1.078c4.415-1.165,8.665-2.423,12.98-3.388,4.615-1.032,9.265-1.25,14.114.858" transform="translate(-2.03 -20.909)"/>
    <path id="Trazado_271" data-name="Trazado 271" d="M65.179,90.724c-2.686.659-5.115,1.312-7.569,1.846-6.581,1.433-13.2,2.714-19.974,2.393a23.9,23.9,0,0,1-6.075-1.14A7.68,7.68,0,0,1,28.5,91.616c-1.451-1.59-2.661-3.4-4.035-5.063-.571-.691-.349-1.044.266-1.481a29.482,29.482,0,0,1,39.4,4.329c.319.352.594.742,1.055,1.323" transform="translate(-4.954 -16.309)" fill="#fff"/>
    <path id="Trazado_272" data-name="Trazado 272" d="M18.488,138.962c1.427-.408,2.79-.873,4.186-1.186,7.124-1.595,14.282-3.025,21.618-3.051a28.739,28.739,0,0,1,5.789.738,7.176,7.176,0,0,1,4.419,2.808c1.31,1.761,2.674,3.481,4.01,5.212-10.2,8.91-29.953,8.509-40.023-4.522" transform="translate(-3.796 -27.659)" fill="#d88368"/>
    <path id="Trazado_273" data-name="Trazado 273" d="M48.156,118.009c4.2,2.464,8.642,2.207,13.081,1.635a60.957,60.957,0,0,0,14.13-3.828c.268-.1.548-.173.951-.3a3.256,3.256,0,0,1,.2.947c-.266,2.343-.528,4.689-.893,7.018a1.939,1.939,0,0,1-.912,1.187A29.954,29.954,0,0,1,63,128.6c-3.873.354-7.211-.668-9.648-3.952-1.674-2.257-3.461-4.429-5.2-6.639" transform="translate(-9.886 -23.715)" fill="#fff"/>
    <path id="Trazado_274" data-name="Trazado 274" d="M37,111.324c-4.849-2.108-9.5-1.89-14.114-.858-4.315.965-8.565,2.223-12.98,3.388a7.813,7.813,0,0,1,.007-1.078c.217-1.811.492-3.617.681-5.431a2.232,2.232,0,0,1,1.361-1.919c4.207-2.041,8.472-3.77,13.31-3.559a8.416,8.416,0,0,1,6.39,2.828c1.772,2.062,3.42,4.231,5.345,6.63" transform="translate(-2.03 -20.909)" fill="#d88368"/>
    <path id="Trazado_275" data-name="Trazado 275" d="M13.81,38.167V32.331a6.739,6.739,0,0,1,2.026-5.25,7.784,7.784,0,0,1,5.45-1.845,8.074,8.074,0,0,1,4.137,1.03,5.847,5.847,0,0,1,2.54,2.918l-.086.172-1.911.8-.2-.057A4.235,4.235,0,0,0,24,28.211a5.353,5.353,0,0,0-2.711-.687,5.094,5.094,0,0,0-3.638,1.3,4.84,4.84,0,0,0-1.384,3.7v5.378a4.8,4.8,0,0,0,1.369,3.719,5.186,5.186,0,0,0,3.652,1.258,5.282,5.282,0,0,0,3.7-1.258,4.775,4.775,0,0,0,1.384-3.719v-.658H23.083l-.171-.143-.285-2,.114-.143h5.878l.142.143v3.061a6.678,6.678,0,0,1-1.983,5.206,7.868,7.868,0,0,1-5.493,1.8,7.847,7.847,0,0,1-5.464-1.817,6.636,6.636,0,0,1-2.011-5.192" transform="translate(-2.835 -5.181)" fill="#fff"/>
    <path id="Trazado_276" data-name="Trazado 276" d="M35.138,44.718l6.648-18.881.172-.143,2.4-.315.172.114,6.762,19.224-.085.143H48.92l-.171-.143-1.57-4.605H39.218l-1.54,4.605-.143.143H35.224Zm4.822-6.78h6.505L43.5,29.128l-.285-1.23-.285,1.23Z" transform="translate(-7.214 -5.21)" fill="#fff"/>
    <path id="Trazado_277" data-name="Trazado 277" d="M59.23,44.763V25.739l.143-.143h9.615l.143.143v2l-.143.143H61.627v6.007h6.934l.114.143-.513,2-.171.143H61.627v8.582l-.142.143H59.373Z" transform="translate(-12.16 -5.255)" fill="#fff"/>
    <path id="Trazado_278" data-name="Trazado 278" d="M76.572,44.719V25.838l.143-.172,2.112-.286.142.114V44.719l-.142.143H76.715Z" transform="translate(-15.72 -5.211)" fill="#fff"/>
  </g>
</svg>
