<svg id="Mazo" xmlns="http://www.w3.org/2000/svg" xmlns:xlink="http://www.w3.org/1999/xlink" width="104.084" height="100.805" viewBox="0 0 104.084 100.805">
  <defs>
    <clipPath id="clip-path">
      <rect id="Rectángulo_117" data-name="Rectángulo 117" width="104.084" height="100.805" transform="translate(0 0)" fill="none"/>
    </clipPath>
  </defs>
  <rect id="Rectángulo_111" data-name="Rectángulo 111" width="69.106" height="8.068" transform="translate(11.533 74.787) rotate(-45)" fill="#fcb82e"/>
  <rect id="Rectángulo_112" data-name="Rectángulo 112" width="10.867" height="8.068" transform="translate(39.072 47.248) rotate(-44.995)" fill="#f58a28"/>
  <rect id="Rectángulo_113" data-name="Rectángulo 113" width="28.412" height="47.708" transform="matrix(0.707, -0.707, 0.707, 0.707, 32.741, 25.548)" fill="#fcb82e"/>
  <rect id="Rectángulo_114" data-name="Rectángulo 114" width="38.605" height="11.853" transform="matrix(0.707, -0.707, 0.707, 0.707, 0.002, 83.211)" fill="#315160"/>
  <g id="Grupo_77" data-name="Grupo 77">
    <g id="Grupo_76" data-name="Grupo 76" clip-path="url(#clip-path)">
      <path id="Trazado_298" data-name="Trazado 298" d="M63.378,16a21.67,21.67,0,0,0,15.18,36.156L89.047,41.674Z" fill="#f6ca10"/>
      <path id="Trazado_299" data-name="Trazado 299" d="M33.271,25.019a3.508,3.508,0,0,1-4.961-4.96L47.341,1.027A3.508,3.508,0,0,1,52.3,5.988Z" fill="#315160"/>
      <path id="Trazado_300" data-name="Trazado 300" d="M71.966,63.714a3.507,3.507,0,0,1-4.959-4.961L86.036,39.722A3.508,3.508,0,0,1,91,44.682Z" fill="#315160"/>
      <path id="Trazado_301" data-name="Trazado 301" d="M94.847,86a3.63,3.63,0,0,1-3.63,3.629H49.643a3.629,3.629,0,1,1,0-7.258H91.217A3.629,3.629,0,0,1,94.847,86" fill="#315160"/>
      <rect id="Rectángulo_115" data-name="Rectángulo 115" width="61.639" height="4.41" transform="translate(39.61 89.626)" fill="#a0d3a9"/>
      <rect id="Rectángulo_116" data-name="Rectángulo 116" width="67.311" height="6.769" transform="translate(36.773 94.036)" fill="#315160"/>
    </g>
  </g>
</svg>
