<svg xmlns="http://www.w3.org/2000/svg" width="89.184" height="106" viewBox="0 0 89.184 106">
  <g id="Pergamino" transform="translate(-1494.001 -807.827)">
    <path id="Trazado_302" data-name="Trazado 302" d="M10.4,88.427a9.681,9.681,0,1,0,9.681-9.681A9.681,9.681,0,0,0,10.4,88.427" transform="translate(1495.042 815.718)" fill="#dbeccc"/>
    <path id="Trazado_303" data-name="Trazado 303" d="M78.4,0h-68V96.317H83.137V9.68C83.137,4.334,81.015,0,78.4,0" transform="translate(1495.042 807.827)" fill="#dbeccc"/>
    <path id="Trazado_304" data-name="Trazado 304" d="M4.745,0C2.124,0,0,4.334,0,9.68v4.263H11.442V0Z" transform="translate(1494 807.827)" fill="#652d90"/>
    <path id="Trazado_305" data-name="Trazado 305" d="M75.084,0H43.456V96.317H79.824V9.68C79.824,4.334,77.7,0,75.084,0" transform="translate(1498.354 807.827)" fill="#a0d3a9"/>
    <rect id="Rectángulo_118" data-name="Rectángulo 118" width="62.012" height="73.794" transform="translate(1510.806 818.157)" fill="#fff"/>
    <rect id="Rectángulo_119" data-name="Rectángulo 119" width="31.007" height="73.794" transform="translate(1541.81 818.157)" fill="#e6e7e8"/>
    <rect id="Rectángulo_120" data-name="Rectángulo 120" width="47.569" height="3.487" transform="translate(1518.026 829.555)" fill="#315160"/>
    <rect id="Rectángulo_121" data-name="Rectángulo 121" width="47.569" height="3.488" transform="translate(1518.026 839.392)" fill="#315160"/>
    <rect id="Rectángulo_122" data-name="Rectángulo 122" width="47.569" height="3.484" transform="translate(1518.026 849.365)" fill="#315160"/>
    <rect id="Rectángulo_123" data-name="Rectángulo 123" width="47.569" height="3.488" transform="translate(1518.026 858.905)" fill="#315160"/>
    <rect id="Rectángulo_124" data-name="Rectángulo 124" width="47.569" height="3.485" transform="translate(1518.026 869.466)" fill="#315160"/>
    <rect id="Rectángulo_125" data-name="Rectángulo 125" width="34.802" height="3.485" transform="translate(1524.411 878.527)" fill="#315160"/>
    <path id="Trazado_306" data-name="Trazado 306" d="M86.77,83.672H23.452a18.268,18.268,0,0,1,.491,4.261c0,5.347-2.124,9.683-4.744,9.683H82.516c2.62,0,4.745-4.336,4.745-9.683V83.672Z" transform="translate(1495.924 816.211)" fill="#652d90"/>
  </g>
</svg>
