<svg xmlns="http://www.w3.org/2000/svg" width="106.724" height="106.578" viewBox="0 0 106.724 106.578">
  <path id="Trazado_385" data-name="Trazado 385" d="M0,84.849V82.333q0-16.451,0-32.9C.02,34.79,10.169,24.5,24.81,24.393c11.036-.078,22.072-.016,33.108-.017h2.429V.011h6.538c2.915,0,5.831-.03,8.746.008,5.564.074,9.7,4.023,9.762,9.268.059,5.321-4.1,9.375-9.77,9.468-2.9.047-5.8.008-8.829.008v5.492c.732.04,1.462.11,2.193.117,5.135.047,10.28-.106,15.4.159,11.65.6,21.677,10.17,22.1,21.828.457,12.681.1,25.391.1,38.369H73.131v21.849H37.74V84.849ZM40.191,30.735c5.686,5.587,7.883,12.037,7.76,19.487-.139,8.394-.032,16.792-.032,25.188v2.982h52.3a3.949,3.949,0,0,0,.162-.722c0-10.061.148-20.126-.059-30.183a17.352,17.352,0,0,0-16.3-16.723c-3.388-.212-6.8-.1-10.2-.117-2.331-.014-4.662,0-7.165,0,0,6.383-.027,12.476.051,18.568.006.489.646,1.124,1.151,1.427,4.061,2.444,5.849,6.5,4.667,10.774a9.317,9.317,0,0,1-17.99.045c-1.2-4.274.6-8.349,4.605-10.815a2.879,2.879,0,0,0,1.2-2.011c.124-3.4.056-6.8.056-10.2,0-2.546,0-5.091,0-7.7ZM6.26,78.354H41.6c0-10.646.3-21.123-.093-31.575-.332-8.8-7.839-15.622-16.711-16.075A17.478,17.478,0,0,0,6.632,45.139a44.593,44.593,0,0,0-.357,7.253C6.237,60.986,6.26,69.58,6.26,78.354M56.6,100.3h10.1V84.956H56.6ZM50.028,84.959H44.1v15.335h5.926ZM66.758,12.493c3.284,0,6.33.072,9.37-.028A2.871,2.871,0,0,0,79.1,9.582a2.752,2.752,0,0,0-2.588-3.2c-3.217-.2-6.456-.058-9.756-.058Zm-3.173,43.37a3.1,3.1,0,1,0,3.049,3.251,3.139,3.139,0,0,0-3.049-3.251" transform="translate(0 0)" fill="#002f87"/>
</svg>
