<svg id="Grupo_68" data-name="Grupo 68" xmlns="http://www.w3.org/2000/svg" xmlns:xlink="http://www.w3.org/1999/xlink" width="50" height="87.707" viewBox="0 0 50 87.707">
  <defs>
    <clipPath id="clip-path">
      <rect id="Rectángulo_92" data-name="Rectángulo 92" width="50" height="87.707" fill="#002f87"/>
    </clipPath>
  </defs>
  <g id="Grupo_67" data-name="Grupo 67" clip-path="url(#clip-path)">
    <path id="Trazado_348" data-name="Trazado 348" d="M35.071,43.855c-.486-.516-.894-.975-1.328-1.409Q18.13,26.824,2.5,11.214C.65,9.364-.486,7.327.217,4.632a6.065,6.065,0,0,1,9.661-3.32A14.49,14.49,0,0,1,11.267,2.58Q29.308,20.619,47.341,38.663c3.54,3.543,3.545,6.824.014,10.358Q29.263,67.128,11.17,85.234C9.217,87.192,7.052,88.3,4.255,87.378a6.071,6.071,0,0,1-2.912-9.6,18.59,18.59,0,0,1,1.514-1.628Q18.288,60.707,33.724,45.271c.436-.436.85-.893,1.347-1.416" transform="translate(0 0)" fill="#002f87"/>
  </g>
</svg>
