<svg id="Grupo_78" data-name="Grupo 78" xmlns="http://www.w3.org/2000/svg" xmlns:xlink="http://www.w3.org/1999/xlink" width="257.381" height="195.705" viewBox="0 0 257.381 195.705">
  <defs>
    <clipPath id="clip-path">
      <rect id="Rectángulo_98" data-name="Rectángulo 98" width="257.381" height="195.705" fill="none"/>
    </clipPath>
    <clipPath id="clip-path-3">
      <rect id="Rectángulo_94" data-name="Rectángulo 94" width="105.552" height="38.117" fill="none"/>
    </clipPath>
    <clipPath id="clip-path-4">
      <rect id="Rectángulo_96" data-name="Rectángulo 96" width="32.743" height="10.864" fill="none"/>
    </clipPath>
  </defs>
  <g id="Grupo_77" data-name="Grupo 77" clip-path="url(#clip-path)">
    <g id="Grupo_76" data-name="Grupo 76">
      <g id="Grupo_75" data-name="Grupo 75" clip-path="url(#clip-path)">
        <path id="Trazado_349" data-name="Trazado 349" d="M125.751,188.531c1.686,7.588,2.85,24.919,3.593,36.805h11.687c1.01-7.646,2.383-17.845,3-21.518,5.434-32.271-18.5-67.948-18.5-67.948l-10.943-1.81-9.441-7.8,4.17,11.649s13.712,38.363,16.436,50.619" transform="translate(-24.675 -29.631)" fill="#0c8f5a"/>
        <path id="Trazado_350" data-name="Trazado 350" d="M303.812,117.41l-9.675-34.055H209.564L198.544,117.3a3.177,3.177,0,0,0,2.987,4.176h38.628l1.564-1.564h18.245l1.564,1.564h39.258a3.175,3.175,0,0,0,3.022-4.062" transform="translate(-46.556 -19.561)" fill="#e1e1e1"/>
        <g id="Grupo_71" data-name="Grupo 71" transform="translate(151.829 63.794)" opacity="0.3">
          <g id="Grupo_70" data-name="Grupo 70">
            <g id="Grupo_69" data-name="Grupo 69" clip-path="url(#clip-path-3)">
              <path id="Trazado_351" data-name="Trazado 351" d="M303.812,117.41l-9.675-34.055H209.564L198.544,117.3a3.177,3.177,0,0,0,2.987,4.176h38.628l1.564-1.564h18.245l1.564,1.564h39.258a3.175,3.175,0,0,0,3.022-4.062" transform="translate(-198.385 -83.355)"/>
            </g>
          </g>
        </g>
        <path id="Trazado_352" data-name="Trazado 352" d="M212.944,65.788V15.819a3.576,3.576,0,0,1,3.566-3.586h77.717a3.576,3.576,0,0,1,3.566,3.586V65.788Z" transform="translate(-49.973 -2.871)" fill="#e1e1e1"/>
        <rect id="Rectángulo_95" data-name="Rectángulo 95" width="74.588" height="44.433" transform="translate(168.101 14.306)" fill="#375a64"/>
        <path id="Trazado_353" data-name="Trazado 353" d="M303.812,115.765,294.137,81.71H209.564l-11.02,33.941a3.176,3.176,0,0,0,2.987,4.175h38.628l1.564-1.564h18.245l1.564,1.564h39.258a3.174,3.174,0,0,0,3.022-4.061" transform="translate(-46.556 -19.175)" fill="#e1e1e1"/>
        <path id="Trazado_354" data-name="Trazado 354" d="M290.714,84.488l-73.707-.249a1.716,1.716,0,0,0-1.665,1.027l-5.908,16.761c-.321.911.507,1.822,1.658,1.822h85.291c1.146,0,1.974-.9,1.661-1.813l-5.676-16.513a1.711,1.711,0,0,0-1.654-1.035" transform="translate(-49.133 -19.769)" fill="#ececec"/>
        <g id="Grupo_74" data-name="Grupo 74" transform="translate(187.771 86.016)" opacity="0.1">
          <g id="Grupo_73" data-name="Grupo 73">
            <g id="Grupo_72" data-name="Grupo 72" clip-path="url(#clip-path-4)">
              <path id="Trazado_355" data-name="Trazado 355" d="M276.266,123.256H247.173a1.96,1.96,0,0,1-1.765-2.5l1.643-6.88a1.861,1.861,0,0,1,1.766-1.489h25.988a1.866,1.866,0,0,1,1.777,1.542l1.461,6.88a1.956,1.956,0,0,1-1.777,2.443" transform="translate(-245.348 -112.392)"/>
            </g>
          </g>
        </g>
        <path id="Trazado_356" data-name="Trazado 356" d="M283.677,90.289l-.758-3.507a.523.523,0,0,0-.511-.413h-4.538a.523.523,0,0,0-.518.6l.5,3.514a.525.525,0,0,0,.519.449l4.794-.007a.523.523,0,0,0,.51-.634" transform="translate(-65.086 -20.269)" fill="#1a2e35"/>
        <path id="Trazado_357" data-name="Trazado 357" d="M265.91,90.371l-.323-3.527a.524.524,0,0,0-.521-.475h-4.637a.524.524,0,0,0-.523.543l.13,3.533a.523.523,0,0,0,.523.5l4.83-.007a.523.523,0,0,0,.52-.571" transform="translate(-60.993 -20.269)" fill="#1a2e35"/>
        <path id="Trazado_358" data-name="Trazado 358" d="M275.042,90.334l-.5-3.517a.525.525,0,0,0-.518-.449h-5.336a.523.523,0,0,0-.521.572l.323,3.524a.523.523,0,0,0,.522.475l5.514-.008a.523.523,0,0,0,.517-.6" transform="translate(-62.931 -20.268)" fill="#1a2e35"/>
        <path id="Trazado_359" data-name="Trazado 359" d="M231.1,90.429l.717-3.2a.7.7,0,0,0-.687-.857h-4.395a.7.7,0,0,0-.677.51l-.917,3.209a.7.7,0,0,0,.678.9l4.6-.006a.7.7,0,0,0,.686-.55" transform="translate(-52.828 -20.269)" fill="#1a2e35"/>
        <path id="Trazado_360" data-name="Trazado 360" d="M313.233,90.179,311.9,86.7a.523.523,0,0,0-.488-.335h-8.625a.523.523,0,0,0-.49.706l1.3,3.486a.525.525,0,0,0,.491.341l8.662-.012a.523.523,0,0,0,.487-.711" transform="translate(-70.933 -20.269)" fill="#1a2e35"/>
        <path id="Trazado_361" data-name="Trazado 361" d="M256.648,86.369h-5.015a.523.523,0,0,0-.523.5l-.171,3.543a.522.522,0,0,0,.523.548l5.317-.007a.523.523,0,0,0,.522-.543l-.13-3.535a.523.523,0,0,0-.523-.5" transform="translate(-58.889 -20.269)" fill="#1a2e35"/>
        <path id="Trazado_362" data-name="Trazado 362" d="M222.821,86.369h-3.5a.7.7,0,0,0-.663.466l-1.154,3.217a.7.7,0,0,0,.664.941l3.733-.005a.7.7,0,0,0,.676-.51l.918-3.212a.7.7,0,0,0-.677-.9" transform="translate(-51.034 -20.269)" fill="#1a2e35"/>
        <path id="Trazado_363" data-name="Trazado 363" d="M239.622,90.514l.465-3.554a.524.524,0,0,0-.519-.592h-4.462a.523.523,0,0,0-.51.409l-.8,3.561a.524.524,0,0,0,.512.638l4.794-.007a.523.523,0,0,0,.518-.455" transform="translate(-54.863 -20.268)" fill="#1a2e35"/>
        <path id="Trazado_364" data-name="Trazado 364" d="M242.727,86.824l-.464,3.552a.522.522,0,0,0,.519.591l4.965-.007a.523.523,0,0,0,.522-.5l.171-3.546a.523.523,0,0,0-.523-.548h-4.672a.523.523,0,0,0-.519.455" transform="translate(-56.852 -20.269)" fill="#1a2e35"/>
        <path id="Trazado_365" data-name="Trazado 365" d="M292.415,90.241l-1.037-3.5a.523.523,0,0,0-.5-.375h-4.837a.523.523,0,0,0-.512.634l.758,3.505a.523.523,0,0,0,.512.413l5.117-.007a.523.523,0,0,0,.5-.672" transform="translate(-67.003 -20.268)" fill="#1a2e35"/>
        <path id="Trazado_366" data-name="Trazado 366" d="M300.875,90.2l-1.3-3.489a.523.523,0,0,0-.49-.341h-4.443a.523.523,0,0,0-.5.672l1.036,3.5a.524.524,0,0,0,.5.375l4.7-.007a.523.523,0,0,0,.49-.706" transform="translate(-69.023 -20.268)" fill="#1a2e35"/>
        <path id="Trazado_367" data-name="Trazado 367" d="M256.764,93.4h-5.473a.524.524,0,0,0-.523.5l-.176,3.655a.523.523,0,0,0,.523.549l5.783-.008a.523.523,0,0,0,.522-.543l-.134-3.647a.523.523,0,0,0-.523-.5" transform="translate(-58.808 -21.918)" fill="#1a2e35"/>
        <path id="Trazado_368" data-name="Trazado 368" d="M303.408,97.341l-1.339-3.6a.525.525,0,0,0-.491-.341h-4.849a.523.523,0,0,0-.5.672l1.069,3.6a.524.524,0,0,0,.5.374l5.119-.007a.523.523,0,0,0,.49-.706" transform="translate(-69.512 -21.919)" fill="#1a2e35"/>
        <path id="Trazado_369" data-name="Trazado 369" d="M294.4,97.383l-1.069-3.606a.524.524,0,0,0-.5-.375h-5.271a.523.523,0,0,0-.511.634l.781,3.614a.524.524,0,0,0,.512.413l5.559-.008a.523.523,0,0,0,.5-.672" transform="translate(-67.36 -21.919)" fill="#1a2e35"/>
        <path id="Trazado_370" data-name="Trazado 370" d="M241.845,98.107l5.418-.007a.524.524,0,0,0,.522-.5l.176-3.658a.523.523,0,0,0-.523-.548h-5.115a.523.523,0,0,0-.519.455l-.479,3.666a.523.523,0,0,0,.52.591" transform="translate(-56.632 -21.917)" fill="#1a2e35"/>
        <path id="Trazado_371" data-name="Trazado 371" d="M260.822,98.089l5.132-.007a.523.523,0,0,0,.52-.571l-.334-3.638a.522.522,0,0,0-.52-.475h-4.933a.523.523,0,0,0-.523.543l.134,3.644a.523.523,0,0,0,.523.5" transform="translate(-61.054 -21.918)" fill="#1a2e35"/>
        <path id="Trazado_372" data-name="Trazado 372" d="M268.81,93.97l.333,3.635a.523.523,0,0,0,.522.475l5.794-.008a.523.523,0,0,0,.517-.6l-.517-3.627a.523.523,0,0,0-.517-.449h-5.611a.523.523,0,0,0-.521.571" transform="translate(-63.082 -21.918)" fill="#1a2e35"/>
        <path id="Trazado_373" data-name="Trazado 373" d="M285.1,97.43l-.781-3.617a.523.523,0,0,0-.511-.413h-4.932a.523.523,0,0,0-.518.6l.517,3.625a.523.523,0,0,0,.519.449l5.2-.007a.523.523,0,0,0,.51-.634" transform="translate(-65.322 -21.919)" fill="#1a2e35"/>
        <path id="Trazado_374" data-name="Trazado 374" d="M227.748,93.394l-10.927,0a.524.524,0,0,0-.488.335l-1.423,3.695a.523.523,0,0,0,.489.711l11.527-.015a.523.523,0,0,0,.51-.409l.823-3.678a.523.523,0,0,0-.51-.638" transform="translate(-50.426 -21.917)" fill="#1a2e35"/>
        <path id="Trazado_375" data-name="Trazado 375" d="M232.7,98.116l5.306-.007a.523.523,0,0,0,.518-.455l.479-3.668a.524.524,0,0,0-.519-.592h-4.962a.522.522,0,0,0-.51.409l-.823,3.676a.523.523,0,0,0,.511.638" transform="translate(-54.487 -21.917)" fill="#1a2e35"/>
        <path id="Trazado_376" data-name="Trazado 376" d="M313.622,98.038l3.416,0a.523.523,0,0,0,.485-.718l-1.439-3.582a.523.523,0,0,0-.485-.328h-3.14a.523.523,0,0,0-.5.684l1.163,3.586a.523.523,0,0,0,.5.362" transform="translate(-73.203 -21.92)" fill="#1a2e35"/>
        <path id="Trazado_377" data-name="Trazado 377" d="M310.7,97.355l-1.163-3.589a.524.524,0,0,0-.5-.362H305.4a.524.524,0,0,0-.491.706L306.25,97.7a.523.523,0,0,0,.491.341l3.464,0a.524.524,0,0,0,.5-.685" transform="translate(-71.547 -21.92)" fill="#1a2e35"/>
        <path id="Trazado_378" data-name="Trazado 378" d="M241.1,105.952l5.371.008a.788.788,0,0,0,.788-.75l.184-3.817a.788.788,0,0,0-.787-.826H241.6a.788.788,0,0,0-.781.686l-.5,3.809a.787.787,0,0,0,.78.89" transform="translate(-56.397 -23.601)" fill="#1a2e35"/>
        <path id="Trazado_379" data-name="Trazado 379" d="M316.732,100.567h-8.247a.788.788,0,0,0-.739,1.063l1.45,3.895a.786.786,0,0,0,.737.513l8.321.014a.788.788,0,0,0,.735-1.074l-1.524-3.909a.787.787,0,0,0-.734-.5" transform="translate(-72.208 -23.601)" fill="#1a2e35"/>
        <path id="Trazado_380" data-name="Trazado 380" d="M231.34,101.182l-.85,3.8a.787.787,0,0,0,.768.96l5.313.009a.787.787,0,0,0,.782-.687l.5-3.805a.788.788,0,0,0-.781-.89h-4.96a.788.788,0,0,0-.769.616" transform="translate(-54.086 -23.6)" fill="#1a2e35"/>
        <path id="Trazado_381" data-name="Trazado 381" d="M221.831,101.143l-1.12,3.922a.68.68,0,0,0,.652.866l5.426.008a.68.68,0,0,0,.664-.531l.895-4a.68.68,0,0,0-.672-.828l-5.2.069a.68.68,0,0,0-.644.493" transform="translate(-51.789 -23.604)" fill="#1a2e35"/>
        <path id="Trazado_382" data-name="Trazado 382" d="M288.682,101.521l.836,3.87a.789.789,0,0,0,.769.621l5.5.009a.788.788,0,0,0,.757-1.012l-1.15-3.879a.788.788,0,0,0-.755-.564h-5.187a.788.788,0,0,0-.77.954" transform="translate(-67.742 -23.601)" fill="#1a2e35"/>
        <path id="Trazado_383" data-name="Trazado 383" d="M250.405,101.317l-.184,3.821a.788.788,0,0,0,.786.826l28,.045a.787.787,0,0,0,.771-.954l-.835-3.867a.789.789,0,0,0-.771-.621H251.192a.788.788,0,0,0-.787.75" transform="translate(-58.72 -23.601)" fill="#1a2e35"/>
        <path id="Trazado_384" data-name="Trazado 384" d="M213.711,100.975l-1.508,4.1a.624.624,0,0,0,.585.84l4.55.008a.624.624,0,0,0,.6-.453l1.173-4.107a.625.625,0,0,0-.6-.8H214.3a.625.625,0,0,0-.586.409" transform="translate(-49.789 -23.6)" fill="#1a2e35"/>
        <path id="Trazado_385" data-name="Trazado 385" d="M298.481,101.579l1.152,3.883a.787.787,0,0,0,.754.563l5.022.008a.787.787,0,0,0,.739-1.062L304.7,101.08a.788.788,0,0,0-.739-.513h-4.725a.788.788,0,0,0-.755,1.012" transform="translate(-70.038 -23.601)" fill="#1a2e35"/>
        <path id="Trazado_386" data-name="Trazado 386" d="M297.924,81.817c0,.106-18.96.193-42.342.193s-42.347-.086-42.347-.193,18.956-.193,42.347-.193,42.342.086,42.342.193" transform="translate(-50.041 -19.155)" fill="#1a2e35"/>
        <path id="Trazado_387" data-name="Trazado 387" d="M64.818,17.855c-3.5-2.15-4.41-7.242-2.585-10.92S68.012.982,72.055.269A18.9,18.9,0,0,1,88.414,5.425c2.271,2.271,4.127,5.249,7.175,6.26,2.679.889,5.617.008,8.422.33,3.76.432,7.015,3.052,8.987,6.283a27.416,27.416,0,0,1,3.321,10.77c.458,3.442.783,7.224,3.213,9.706,2.369,2.421,6.062,2.886,8.989,4.59,5.508,3.205,7.4,11.317,3.871,16.625-1.124,1.692-2.751,3.253-2.854,5.282-.095,1.853,1.125,3.483,1.712,5.243,1.508,4.531-2.139,9.994-6.9,10.338-2.4.174-5-.727-7.139.38s-2.888,3.7-4.229,5.68a10.307,10.307,0,0,1-12.518,3.429c-1.783-.843-3.476-2.252-5.441-2.09s-3.483,1.86-5.409,2.262c-2.523.526-4.951-1.3-6.485-3.371s-2.618-4.518-4.568-6.2c-2.552-2.2-6.1-2.707-9.306-3.759A26.095,26.095,0,0,1,53.982,40.849" transform="translate(-12.045 0)" fill="#1a2e35"/>
        <path id="Trazado_388" data-name="Trazado 388" d="M117.333,81.2a7.081,7.081,0,0,1,2.786-1.892l-.215-.01a4.137,4.137,0,0,1,.6-.111,2.8,2.8,0,0,1,2.2.24h-.021a5.2,5.2,0,0,1,2.882,2.435,6.16,6.16,0,0,1-.633,6.357,4.707,4.707,0,0,1-8.661-1.491,5.844,5.844,0,0,1,1.058-5.527" transform="translate(-27.223 -18.555)" fill="#375a64"/>
        <path id="Trazado_389" data-name="Trazado 389" d="M57.37,106.966,52.7,39.406a5.741,5.741,0,0,1,4.881-6.038l30.1-9c9.7-1.451,16.7,10.271,17.737,20.027,1.153,10.839,2.132,24.116,1.194,32.28-1.887,16.417-15.275,19.094-15.275,19.094-.007-.055.145,16.687.331,22.615l3.994,18.326Z" transform="translate(-12.364 -5.689)" fill="#ffc09d"/>
        <path id="Trazado_390" data-name="Trazado 390" d="M112.579,68.362a2.093,2.093,0,0,1-1.926,2.2,2,2,0,0,1-2.237-1.793,2.1,2.1,0,0,1,1.923-2.2,2,2,0,0,1,2.239,1.794" transform="translate(-25.441 -15.619)" fill="#1a2e35"/>
        <path id="Trazado_391" data-name="Trazado 391" d="M115.55,57.707c-.247.284-1.882-.82-4.132-.717-2.249.07-3.85,1.3-4.107,1.034-.125-.117.118-.621.814-1.175a5.748,5.748,0,0,1,3.273-1.166,5.518,5.518,0,0,1,3.3.912c.715.5.97.984.848,1.111" transform="translate(-25.176 -13.067)" fill="#1a2e35"/>
        <path id="Trazado_392" data-name="Trazado 392" d="M86.106,69.26a2.093,2.093,0,0,1-1.926,2.2,2,2,0,0,1-2.236-1.792,2.094,2.094,0,0,1,1.923-2.2,2,2,0,0,1,2.239,1.794" transform="translate(-19.229 -15.83)" fill="#1a2e35"/>
        <path id="Trazado_393" data-name="Trazado 393" d="M86.674,59.5c-.248.284-1.885-.82-4.134-.717-2.249.07-3.85,1.3-4.106,1.034-.125-.117.116-.62.814-1.175a5.747,5.747,0,0,1,3.273-1.166,5.521,5.521,0,0,1,3.3.911c.713.5.97.984.849,1.112" transform="translate(-18.399 -13.487)" fill="#1a2e35"/>
        <path id="Trazado_394" data-name="Trazado 394" d="M100.248,75.732a14.88,14.88,0,0,1,3.626-.817c.572-.084,1.111-.222,1.191-.618a2.925,2.925,0,0,0-.456-1.686q-.9-2.051-1.888-4.3c-2.627-6.128-4.557-11.176-4.309-11.28s2.579,4.779,5.207,10.907q.951,2.267,1.818,4.331a3.327,3.327,0,0,1,.395,2.242,1.445,1.445,0,0,1-.908.881,3.885,3.885,0,0,1-.97.178,14.621,14.621,0,0,1-3.7.165" transform="translate(-23.09 -13.383)" fill="#1a2e35"/>
        <path id="Trazado_395" data-name="Trazado 395" d="M96.595,114.739a39.178,39.178,0,0,1-21.107-4.949s4.9,12.064,21.153,9.836Z" transform="translate(-17.715 -25.765)" fill="#ff9b6c"/>
        <path id="Trazado_396" data-name="Trazado 396" d="M98.241,87.791a5.54,5.54,0,0,0-4.662-2.222,3.61,3.61,0,0,0-2.891,1.738A3.307,3.307,0,0,0,94.606,92.1a8.217,8.217,0,0,0,3.225-2.192,2.556,2.556,0,0,0,.676-.872,1.148,1.148,0,0,0-.138-1.138" transform="translate(-21.185 -20.078)" fill="#ff9b6c"/>
        <path id="Trazado_397" data-name="Trazado 397" d="M92.156,83.874c.365-.038.475,2.405,2.64,4.049s4.753,1.264,4.787,1.6c.041.152-.559.5-1.657.577a6.088,6.088,0,0,1-3.99-1.2,5.3,5.3,0,0,1-2.057-3.4c-.137-1.017.109-1.634.277-1.627" transform="translate(-21.552 -19.683)" fill="#1a2e35"/>
        <path id="Trazado_398" data-name="Trazado 398" d="M86.851,47.5c-.2.621-2.454.428-5.08.86-2.636.379-4.731,1.243-5.105.709-.167-.256.179-.847,1.014-1.477a8.96,8.96,0,0,1,7.76-1.2c.986.348,1.494.808,1.411,1.1" transform="translate(-17.982 -10.793)" fill="#1a2e35"/>
        <path id="Trazado_399" data-name="Trazado 399" d="M114.26,47.591c-.373.528-1.947.065-3.811.119-1.867-.01-3.428.492-3.814-.027-.171-.253.056-.775.725-1.289a5.52,5.52,0,0,1,6.145-.074c.681.5.92,1.013.756,1.27" transform="translate(-25.012 -10.66)" fill="#1a2e35"/>
        <path id="Trazado_400" data-name="Trazado 400" d="M120.254,36.883a11.205,11.205,0,0,0-4.393-6.11,41.4,41.4,0,0,1-3.662-2.059c-2.386-1.869-2.98-5.173-4.474-7.809a12.322,12.322,0,0,0-9.476-6.089c-3.238-.283-6.554.735-9.717-.013-2.337-.553-4.394-2.035-6.76-2.449-4.608-.806-8.831,2.554-12.114,5.886.036,3.289,2.689,5.451,5.242,7.525a11.407,11.407,0,0,0,9.272,2.3c2.5-.5,5.236-1.8,7.429-.5,2.306,1.374,2.451,4.817,4.5,6.547,2.933,2.471,7.5.045,11.2,1.082,2.852.8,4.666,3.488,6.586,5.745s4.777,4.385,7.6,3.5a33.356,33.356,0,0,0-1.238-7.56" transform="translate(-16.347 -2.871)" fill="#1a2e35"/>
        <path id="Trazado_401" data-name="Trazado 401" d="M73.755,23.944c-2.069-.559-6.3-1.831-7.434-3.6C63.864,16.5,59.6,13.909,55.276,14.208a10.392,10.392,0,0,0-9.236,8.351,14.944,14.944,0,0,0-12.723,8.455,15.673,15.673,0,0,0-.788,1.929,11.369,11.369,0,0,0-.621,9.556c.74,1.85,1.984,3.9,1.053,5.663-.948,1.792-3.41,1.884-5.317,2.573a7.549,7.549,0,0,0-4.632,8.5c.284,1.234.894,2.461.654,3.7-.249,1.294-1.341,2.221-2.174,3.242a9.4,9.4,0,0,0,5.732,15.211c1.469.245,3.057.16,4.337.922,1.468.874,2.13,2.614,3.176,3.964A8.1,8.1,0,0,0,43.561,88.9a7.425,7.425,0,0,0,1.752-.913c1,1.347,2.555,2.246,5.19,2.207L49.394,55.809a2.848,2.848,0,0,0,2.108,1.6c5.538,1.168,6.179-10.219,4.9-13.285a32.087,32.087,0,0,0,5.454-5.905c1.491-2.275,2.743-8.437,2.377-11.2,1.992.087,10.427-2.836,9.518-3.081" transform="translate(-4.552 -3.329)" fill="#1a2e35"/>
        <path id="Trazado_402" data-name="Trazado 402" d="M57.495,71.175c-.226-3.493-4.515-4.179-7.519-2.382-1.649.986-2.894,2.938-2.686,6.647.552,9.892,10.369,7.3,10.37,7.013,0-.177.1-7.186-.165-11.277" transform="translate(-11.092 -15.919)" fill="#ffc09d"/>
        <path id="Trazado_403" data-name="Trazado 403" d="M55.2,79.889c-.045-.029-.166.13-.449.28a1.726,1.726,0,0,1-1.287.1c-1.067-.325-2.04-1.936-2.187-3.716a5.692,5.692,0,0,1,.344-2.493,1.992,1.992,0,0,1,1.222-1.4.877.877,0,0,1,1.043.415c.148.269.1.471.15.484.029.023.2-.178.1-.582a1.1,1.1,0,0,0-.424-.6,1.3,1.3,0,0,0-.967-.2,2.426,2.426,0,0,0-1.714,1.634,5.856,5.856,0,0,0-.444,2.79c.174,1.99,1.3,3.8,2.753,4.131a1.847,1.847,0,0,0,1.561-.349c.293-.262.333-.486.3-.5" transform="translate(-11.868 -16.935)" fill="#ff9b6c"/>
        <path id="Trazado_404" data-name="Trazado 404" d="M65.515,23.7a5.9,5.9,0,0,0-1.95,1.682c-.96,1.363-1.291,3.953-.628,6.855l.057.249-.243.064a9.569,9.569,0,0,0-6.294,5.711,7.437,7.437,0,0,0-.478,2.421,14.553,14.553,0,0,0,.348,2.611,19.641,19.641,0,0,1,.418,2.811A4.651,4.651,0,0,1,56,49.041c-1.2,1.891-3.168,2.842-4.856,3.761A16.645,16.645,0,0,0,46.6,55.88a12.372,12.372,0,0,0-3.576,8.347,12.914,12.914,0,0,0,1.394,6.1c.677,1.342,1.239,1.978,1.184,2.02-.019.015-.165-.135-.43-.439a10.545,10.545,0,0,1-.993-1.453,12.564,12.564,0,0,1-1.649-6.232,12.734,12.734,0,0,1,3.609-8.791A17.051,17.051,0,0,1,50.827,52.2c1.687-.918,3.538-1.859,4.585-3.528,1.075-1.518.556-3.473.241-5.242a15.041,15.041,0,0,1-.345-2.742,8.045,8.045,0,0,1,.54-2.65,10.032,10.032,0,0,1,6.773-5.983l-.186.314c-.631-3.043-.206-5.726.894-7.147a4.166,4.166,0,0,1,1.53-1.285,2.428,2.428,0,0,1,.656-.232" transform="translate(-9.98 -5.562)" fill="#375a64"/>
        <path id="Trazado_405" data-name="Trazado 405" d="M51.458,86.517a7.078,7.078,0,0,1,2.787-1.892l-.216-.01a4.138,4.138,0,0,1,.6-.111,2.793,2.793,0,0,1,2.2.24h-.021a5.2,5.2,0,0,1,2.881,2.435,6.158,6.158,0,0,1-.632,6.357,5.181,5.181,0,0,1-5.081,2.182,5.21,5.21,0,0,1-3.58-3.673,5.844,5.844,0,0,1,1.058-5.527" transform="translate(-11.764 -19.803)" fill="#375a64"/>
        <path id="Trazado_406" data-name="Trazado 406" d="M239.295,176.462l6.743-2.585s1.838-5.882,3.063-7.608,7.734-7.013,8.116-7.157,4.659-9.736,6.608-9.423,3.293,1.68,2.748,4.284-4.864,7.795-3.667,8.658a8.748,8.748,0,0,0,3.144,1.176s.53-2.99,2.171-3.958,3.511.638,3.511.638l.05,1.29,1.621-1.483s1.7-6.006,4.288-5.976a10.51,10.51,0,0,1,2.549-3.426,2.223,2.223,0,0,1,3.426,1L279.028,165.5l-12.756,14.051s-5.979,2.3-7.5,3-8.438,5.491-11.5,6.514-6.615,2.581-6.615,2.581Z" transform="translate(-56.156 -35.126)" fill="#ffc09d"/>
        <path id="Trazado_407" data-name="Trazado 407" d="M258.9,179.124a7.747,7.747,0,0,0-2.421-.248,11.2,11.2,0,0,0-5.774,1.269,7.017,7.017,0,0,0-2.392,2.305,10.964,10.964,0,0,0-1.141,2.421,7.215,7.215,0,0,0-.555,2.372,11.938,11.938,0,0,0,.987-2.2,8.632,8.632,0,0,1,3.432-4.327,12.393,12.393,0,0,1,5.456-1.371,10.741,10.741,0,0,0,2.409-.215" transform="translate(-57.87 -41.977)" fill="#ff9b6c"/>
        <path id="Trazado_408" data-name="Trazado 408" d="M269.238,166.654c.1-.144-.6-.775-1.68-1.1s-2.011-.183-2.006-.008.837.335,1.818.634,1.767.627,1.867.47" transform="translate(-62.318 -38.806)" fill="#ff9b6c"/>
        <path id="Trazado_409" data-name="Trazado 409" d="M287.662,166.886a13.8,13.8,0,0,1,.3-2.952c.266-1.835.68-4.4,1.191-7.35l.191.384a15.3,15.3,0,0,0-1.4-.657,1.783,1.783,0,0,0-1.36.174,3.928,3.928,0,0,0-1.577,1.906,14.149,14.149,0,0,0-.836,2.353c-.369,1.573-.615,3.035-.841,4.249a24.32,24.32,0,0,1-.826,3.934,19.559,19.559,0,0,1,.308-4.013c.162-1.233.352-2.7.694-4.325a13.865,13.865,0,0,1,.842-2.5,4.557,4.557,0,0,1,1.894-2.259,2.512,2.512,0,0,1,1.9-.222,13.569,13.569,0,0,1,1.515.722l.243.113-.051.272c-.55,2.94-1.055,5.491-1.446,7.3a13.812,13.812,0,0,1-.749,2.871" transform="translate(-66.288 -36.494)" fill="#ff9b6c"/>
        <path id="Trazado_410" data-name="Trazado 410" d="M267.359,180.1c-.031-.007-.011-.207.058-.585a8.057,8.057,0,0,1,.549-1.561,19.917,19.917,0,0,1,3.347-4.879l-.072.122c.882-2.613.08-6.394,2.447-9.772a3.1,3.1,0,0,1,2.457-1.093,4.548,4.548,0,0,1,2.381.834l.171.116-.026.211c-.475,3.823-.913,7.125-1.254,9.467a6.149,6.149,0,0,1-.858,2.664c-.331.566-.571.833-.6.811a4.893,4.893,0,0,1,.387-.921,6.692,6.692,0,0,0,.629-2.631c.216-2.356.56-5.659.99-9.469l.144.327a3.9,3.9,0,0,0-1.981-.677,2.368,2.368,0,0,0-1.884.853,5.6,5.6,0,0,0-1.1,2.288,21.644,21.644,0,0,0-.533,2.5c-.142.831-.18,1.6-.277,2.419a14.534,14.534,0,0,1-.5,2.255l-.021.069-.051.054a22.824,22.824,0,0,0-3.473,4.61c-.686,1.215-.841,2.007-.925,1.988" transform="translate(-62.739 -38.094)" fill="#ff9b6c"/>
        <path id="Trazado_411" data-name="Trazado 411" d="M218.784,168.944,175.331,193.1l-30.113-42.971q-.122-.166-.259-.348c-3.426-4.535-6.794-9.528-12.339-10.775l-.84-.189,1.612,51.437s21.412,23.6,33.416,33.362c3.574,2.906,12.635,1.091,16.951-1.291,17.295-9.544,46.833-34.016,46.833-34.016Z" transform="translate(-30.925 -32.577)" fill="#0c8f5a"/>
        <path id="Trazado_412" data-name="Trazado 412" d="M140.7,209.589a4.487,4.487,0,0,1,.008-.8q.046-.856.124-2.279.046-.748.1-1.645,0-.908,0-1.96c0-1.406.034-3.007-.1-4.773a99.463,99.463,0,0,0-5.375-27.026,93.429,93.429,0,0,0-4.36-10.729l-.006-.011,0-.009a92.155,92.155,0,0,0-5.033-9.807c-1.662-2.888-3.194-5.4-4.477-7.483l-3.033-4.854-.807-1.3a2.519,2.519,0,0,1-.256-.463,2.345,2.345,0,0,1,.329.415l.877,1.254c.755,1.1,1.836,2.719,3.159,4.778s2.889,4.557,4.582,7.436a88.368,88.368,0,0,1,5.127,9.831l-.009-.02a90.644,90.644,0,0,1,4.412,10.79,95.544,95.544,0,0,1,5.248,27.181c.114,1.775.057,3.383.026,4.795-.018.7-.034,1.358-.048,1.966q-.081.9-.148,1.647c-.093.949-.168,1.706-.223,2.276a4.472,4.472,0,0,1-.114.789" transform="translate(-27.57 -32.021)" fill="#1a2e35"/>
        <path id="Trazado_413" data-name="Trazado 413" d="M141.313,160.2a61.636,61.636,0,0,1,4.5,8.568c.647,1.353,1.182,2.906,1.838,4.541.551,1.671,1.213,3.438,1.712,5.356.575,1.9,1.016,3.929,1.494,6.031q.292,1.59.592,3.233c.2,1.094.319,2.219.485,3.35a108.162,108.162,0,0,1,.31,23.354l-.45,4.013c-.126,1.182-.315,2.189-.432,3.017q-.192,1.2-.3,1.9a4.2,4.2,0,0,1-.133.658,4.238,4.238,0,0,1,.054-.67q.085-.707.23-1.911c.093-.83.26-1.84.365-3.022s.246-2.53.39-4.012a113.811,113.811,0,0,0-.424-23.279c-.166-1.125-.28-2.245-.481-3.335l-.583-3.22c-.471-2.093-.9-4.118-1.466-6.009-.487-1.912-1.134-3.674-1.67-5.344-.64-1.632-1.158-3.186-1.786-4.541q-.444-1.025-.846-1.953c-.272-.615-.568-1.176-.824-1.711-.519-1.066-.957-1.989-1.374-2.714q-.572-1.069-.909-1.7a4.3,4.3,0,0,1-.294-.605" transform="translate(-33.162 -37.595)" fill="#1a2e35"/>
        <path id="Trazado_414" data-name="Trazado 414" d="M188.724,223.087a7.2,7.2,0,0,1-.8-1.886,18.883,18.883,0,0,1-.433-9.8,7.182,7.182,0,0,1,.629-1.949,18.872,18.872,0,0,1-.353,2,22.614,22.614,0,0,0,.428,9.667,18.769,18.769,0,0,1,.528,1.965" transform="translate(-43.894 -49.153)" fill="#1a2e35"/>
        <path id="Trazado_415" data-name="Trazado 415" d="M264.548,34.914q5.177,0,10.355,0a2.472,2.472,0,0,1,2.718,2.724q0,7.093,0,14.188a2.467,2.467,0,0,1-2.7,2.692q-10.355,0-20.71,0a2.475,2.475,0,0,1-2.718-2.725q0-7.095,0-14.188a2.467,2.467,0,0,1,2.7-2.692q5.177,0,10.355,0M253.129,38.37v.525q0,6.433,0,12.865c0,.871.251,1.124,1.12,1.124h20.612c.871,0,1.123-.252,1.123-1.122q0-6.432,0-12.864v-.53c-.219.178-.362.288-.5.406l-10.141,8.791c-.664.575-.916.575-1.58,0q-5.089-4.412-10.18-8.824c-.122-.107-.254-.2-.459-.368m.645-1.789c-.017.036-.034.072-.05.109l10.835,9.4,10.844-9.4-.06-.1Z" transform="translate(-59.019 -8.193)" fill="#fff"/>
        <path id="Trazado_416" data-name="Trazado 416" d="M78.92,224.47h44.327l.04-7.4L125.6,202.8s-10.735-35.2-10.735-35.6-17.345-34.414-17.345-34.414L92,124.441,89.038,135.47l-2.4,12.124c0,.815-15.046-11.788-15.046-11.788L56.24,122.574s-2.705,5.227-3.113,5.813l20.152,62.862Z" transform="translate(-12.468 -28.765)" fill="#fff"/>
        <path id="Trazado_417" data-name="Trazado 417" d="M90.177,153.987a2.364,2.364,0,0,1-.611-.268l-1.657-.875-5.842-3.233.342-.173c-.285,2.627-.768,5.695-1.252,8.964-.194,1.332-.378,2.63-.529,3.871l-.057.479-.367-.311c-3.126-2.659-5.843-5-7.77-6.687q-1.348-1.2-2.246-2a4.882,4.882,0,0,1-.772-.771,4.97,4.97,0,0,1,.889.633L72.65,155.5c1.984,1.618,4.744,3.908,7.888,6.547l-.425.168c.143-1.251.322-2.554.519-3.887.484-3.276.991-6.335,1.319-8.941l.044-.349.3.177,5.75,3.4,1.593.985a2.386,2.386,0,0,1,.54.391" transform="translate(-16.29 -34.975)" fill="#1a2e35"/>
        <path id="Trazado_418" data-name="Trazado 418" d="M29.277,230.73l3.6-32.783-14.833-48.7a24.635,24.635,0,0,0-3.813,2.933,25.977,25.977,0,0,0-6.64,10.46c-1.55,4.428-3.087,9.877-3.978,13.307L0,230.73Z" transform="translate(0 -35.024)" fill="#0c8f5a"/>
        <path id="Trazado_419" data-name="Trazado 419" d="M84.1,225.855c-.691-14.651-2-30.69-5.972-40.891-6.354-16.341-31.867-56.49-31.867-56.49l-6.263,9.736-16.419,6.162,20.1,81.483Z" transform="translate(-5.532 -30.15)" fill="#0c8f5a"/>
        <path id="Trazado_420" data-name="Trazado 420" d="M45.91,139.825l6.1,18.307h6.5l-4.22,2.686L87.667,224.6" transform="translate(-10.774 -32.813)" fill="#045b36"/>
        <path id="Trazado_421" data-name="Trazado 421" d="M87.666,224.595a.958.958,0,0,1-.147-.223l-.385-.677-1.433-2.63-5.181-9.719c-4.346-8.265-10.318-19.618-16.914-32.16-3.4-6.507-6.625-12.694-9.527-18.255l-.1-.2.19-.12,4.227-2.675.124.426-6.5-.024h-.151l-.047-.142c-1.825-5.592-3.317-10.167-4.368-13.39-.5-1.563-.888-2.8-1.169-3.68l-.29-.965a1.483,1.483,0,0,1-.08-.337,1.478,1.478,0,0,1,.139.317l.347.947,1.274,3.645c1.093,3.208,2.643,7.763,4.54,13.332l-.2-.142,6.5-.023.794,0-.67.429-4.213,2.7.086-.32,9.566,18.235L80.855,211.17l5.031,9.8c.569,1.133,1.017,2.027,1.344,2.676l.338.7a1.013,1.013,0,0,1,.1.248" transform="translate(-10.773 -32.813)" fill="#1a2e35"/>
        <path id="Trazado_422" data-name="Trazado 422" d="M29.825,160.907a40.7,40.7,0,0,1,9,34.635" transform="translate(-6.999 -37.761)" fill="#045b36"/>
        <path id="Trazado_423" data-name="Trazado 423" d="M38.829,195.54c-.108-.02.349-2.053.541-5.386a42.364,42.364,0,0,0-.086-5.851,46.251,46.251,0,0,0-1.2-7.056,46.244,46.244,0,0,0-2.385-6.751,42.453,42.453,0,0,0-2.775-5.152c-1.791-2.817-3.18-4.369-3.1-4.44a7.579,7.579,0,0,1,1,1.061A15.686,15.686,0,0,1,31.91,163.3c.4.537.88,1.13,1.326,1.845a38.4,38.4,0,0,1,2.906,5.153,43.281,43.281,0,0,1,2.454,6.821,43.272,43.272,0,0,1,1.179,7.15,38.326,38.326,0,0,1-.028,5.915c-.041.842-.174,1.594-.259,2.257a15.836,15.836,0,0,1-.3,1.688,7.624,7.624,0,0,1-.36,1.416" transform="translate(-6.998 -37.76)" fill="#1a2e35"/>
        <path id="Trazado_424" data-name="Trazado 424" d="M105.557,135.912a7,7,0,0,1,.047,1.384c-.018.993-.041,2.256-.067,3.765-.081,3.178-.229,7.568-.424,12.415-.005.119-.009.238-.015.354l-.034.847-.453-.715-5.81-9.157.364-.044c-.64,1.763-1.176,3.236-1.59,4.374a9.4,9.4,0,0,1-.665,1.588,9.858,9.858,0,0,1,.448-1.662c.37-1.154.848-2.646,1.421-4.432l.129-.4.235.36,5.913,9.091-.487.132c0-.116.008-.234.014-.354.2-4.847.4-9.234.578-12.409.095-1.507.174-2.767.237-3.759a6.776,6.776,0,0,1,.158-1.375" transform="translate(-22.741 -31.895)" fill="#1a2e35"/>
      </g>
    </g>
  </g>
</svg>
