<svg id="Grupo_100" data-name="Grupo 100" xmlns="http://www.w3.org/2000/svg" xmlns:xlink="http://www.w3.org/1999/xlink" width="231.444" height="456.215" viewBox="0 0 231.444 456.215">
  <defs>
    <clipPath id="clip-path">
      <rect id="Rect치ngulo_138" data-name="Rect치ngulo 138" width="231.444" height="456.215" fill="none"/>
    </clipPath>
    <clipPath id="clip-path-3">
      <rect id="Rect치ngulo_136" data-name="Rect치ngulo 136" width="98.752" height="40.835" fill="none"/>
    </clipPath>
  </defs>
  <g id="Grupo_99" data-name="Grupo 99" clip-path="url(#clip-path)">
    <g id="Grupo_98" data-name="Grupo 98">
      <g id="Grupo_97" data-name="Grupo 97" clip-path="url(#clip-path)">
        <path id="Trazado_336" data-name="Trazado 336" d="M93.5,368.015l-2.774-125.78,97.721-8.146s5.206,50.342,5.082,57.079c-.058,3.209-14.734,34.526-14.734,34.526l.153,42.322Z" transform="translate(34.184 88.201)" fill="#1a2e35"/>
        <path id="Trazado_337" data-name="Trazado 337" d="M116.845,250.882a10.078,10.078,0,0,0,.815,1.82c.573,1.147,1.442,2.788,2.61,4.764a54,54,0,0,0,11.345,13.857,32.3,32.3,0,0,0,16.209,7.435,22.8,22.8,0,0,0,5.453.089,13.686,13.686,0,0,0,1.464-.224c.332-.066.5-.112.5-.136a36.249,36.249,0,0,1-7.344-.231,33.219,33.219,0,0,1-15.821-7.481A58.056,58.056,0,0,1,120.7,257.2c-1.217-1.93-2.152-3.527-2.8-4.632a11.155,11.155,0,0,0-1.06-1.687" transform="translate(44.024 94.528)" fill="#375a64"/>
        <path id="Trazado_338" data-name="Trazado 338" d="M161.243,131.427l-44.119,11.486-1.5-38.429S97,102.4,95.981,83.9s.377-61.118.377-61.118a64.369,64.369,0,0,1,64.964,5.367l2.832,1.994Z" transform="translate(36.024 6.186)" fill="#b78876"/>
        <path id="Trazado_339" data-name="Trazado 339" d="M110.12,82.349s11.734.453,23.829-7.885c0,0-5.134,13.56-23.668,12.68Z" transform="translate(41.491 28.057)" fill="#aa6550"/>
        <path id="Trazado_340" data-name="Trazado 340" d="M144.333,40.59c.31-.15,12.554-4.3,12.688,8.364s-12.61,10.191-12.636,9.827-.052-18.191-.052-18.191" transform="translate(54.382 15.004)" fill="#b78876"/>
        <path id="Trazado_341" data-name="Trazado 341" d="M147.148,52.828c.055-.041.223.153.6.319a2.2,2.2,0,0,0,1.649.015c1.333-.505,2.437-2.641,2.474-4.925a7.29,7.29,0,0,0-.651-3.153,2.553,2.553,0,0,0-1.678-1.677,1.124,1.124,0,0,0-1.3.62c-.167.355-.083.607-.15.631-.034.032-.274-.209-.178-.734a1.4,1.4,0,0,1,.49-.8,1.667,1.667,0,0,1,1.217-.336,3.1,3.1,0,0,1,2.325,1.939,7.5,7.5,0,0,1,.8,3.523c-.054,2.553-1.334,4.956-3.16,5.5a2.359,2.359,0,0,1-2.022-.314c-.4-.308-.465-.591-.421-.614" transform="translate(55.439 16.119)" fill="#aa6550"/>
        <path id="Trazado_342" data-name="Trazado 342" d="M100.005,42.429a2.643,2.643,0,0,0,2.661,2.557,2.529,2.529,0,0,0,2.623-2.5,2.646,2.646,0,0,0-2.659-2.558,2.532,2.532,0,0,0-2.626,2.5" transform="translate(37.68 15.045)" fill="#1a2e35"/>
        <path id="Trazado_343" data-name="Trazado 343" d="M99.517,40.663c.343.33,2.281-1.236,5.124-1.351,2.839-.154,4.988,1.22,5.283.859.145-.161-.216-.768-1.152-1.392a7.248,7.248,0,0,0-4.247-1.112,6.96,6.96,0,0,0-4.06,1.5c-.845.708-1.115,1.344-.947,1.491" transform="translate(37.479 14.189)" fill="#1a2e35"/>
        <path id="Trazado_344" data-name="Trazado 344" d="M120.261,42.287a2.643,2.643,0,0,0,2.661,2.557,2.529,2.529,0,0,0,2.623-2.5,2.647,2.647,0,0,0-2.66-2.559,2.531,2.531,0,0,0-2.624,2.5" transform="translate(45.312 14.991)" fill="#1a2e35"/>
        <path id="Trazado_345" data-name="Trazado 345" d="M119.834,40.182c.343.33,2.284-1.236,5.126-1.349,2.839-.156,4.988,1.218,5.281.856.145-.16-.212-.767-1.152-1.391a7.257,7.257,0,0,0-4.246-1.112,6.96,6.96,0,0,0-4.06,1.5c-.844.708-1.115,1.344-.949,1.491" transform="translate(45.134 14.008)" fill="#1a2e35"/>
        <path id="Trazado_346" data-name="Trazado 346" d="M114.986,61.5c.007-.162-1.775-.392-4.654-.636-.73-.044-1.422-.16-1.567-.65a3.7,3.7,0,0,1,.394-2.173q.911-2.679,1.911-5.62c2.646-8,4.528-14.564,4.2-14.668s-2.73,6.3-5.375,14.3q-.952,2.957-1.82,5.65a4.2,4.2,0,0,0-.255,2.865,1.819,1.819,0,0,0,1.239,1.011,4.946,4.946,0,0,0,1.24.12c2.888.032,4.677-.032,4.681-.194" transform="translate(40.561 14.223)" fill="#1a2e35"/>
        <path id="Trazado_347" data-name="Trazado 347" d="M118.947,31.939c.314.761,3.138.274,6.49.533,3.358.193,6.09,1.055,6.5.343.183-.34-.317-1.048-1.436-1.75a11.322,11.322,0,0,0-9.9-.668c-1.2.547-1.794,1.18-1.658,1.542" transform="translate(44.81 11.139)" fill="#1a2e35"/>
        <path id="Trazado_348" data-name="Trazado 348" d="M100.031,34.7c.527.624,2.458-.129,4.812-.262,2.35-.215,4.369.248,4.8-.446.187-.337-.154-.971-1.053-1.545a6.977,6.977,0,0,0-7.743.571c-.8.7-1.049,1.375-.815,1.681" transform="translate(37.658 11.881)" fill="#1a2e35"/>
        <path id="Trazado_349" data-name="Trazado 349" d="M89.261,17.675a6.837,6.837,0,0,1,2.262-6.211,4.85,4.85,0,0,1,6.3.2A5.659,5.659,0,0,1,102.387,4.6c3.01-.321,5.681,1.849,8.631,2.525,2.88.659,5.905-.147,8.6-1.366S124.8,2.911,127.53,1.78a23.683,23.683,0,0,1,30.855,12.6c3.991-1.437,8.678.421,11.32,3.743s3.474,7.8,3.156,12.026a38.449,38.449,0,0,1-1.761,8.394c.011.237.044.469.05.708.242,10.183-.4,22.181-4.735,22.432-7.561.439-6.365-13.892-6.365-13.892-9.441-3.191-6.574-17.25-8.986-19.261s-7.477-6.708-26.492,4.056c-7.384,4.18-17.426,4.488-22.958,3.479-.162-.028-.326-.045-.487-.077-.034-.008-.08-.011-.114-.019-.061-.012-.1-.043-.164-.058a17.517,17.517,0,0,1-5.075-1.9,9.869,9.869,0,0,1-4.3-4.393,5.4,5.4,0,0,1,.814-5.838,11.865,11.865,0,0,1-3.022-6.106" transform="translate(33.609 0)" fill="#1a2e35"/>
        <path id="Trazado_350" data-name="Trazado 350" d="M112.009,62.361a12.7,12.7,0,0,0,1.787,3.161,4.294,4.294,0,0,0,3.127,1.641,3.854,3.854,0,0,0,3.183-1.915,6.164,6.164,0,0,0,.75-3.743c-.1-1.166-.7-2.537-1.864-2.626a2.914,2.914,0,0,0-1.4.372l-6,2.736" transform="translate(42.048 22.183)" fill="#aa6550"/>
        <path id="Trazado_351" data-name="Trazado 351" d="M114.968,67.456c.023-.193,1.386.295,3.238-.541a4.656,4.656,0,0,0,2.365-2.341,4.9,4.9,0,0,0-.091-4,4.414,4.414,0,0,0-.57-.891c-.253-.242-.208-.233-.469-.183-.246.077-.64.284-.962.425l-.984.452c-1.285.584-2.447,1.1-3.43,1.512-1.967.832-3.216,1.279-3.281,1.143s1.066-.829,2.948-1.838c.94-.505,2.069-1.089,3.329-1.724l.969-.485a11.041,11.041,0,0,1,1.095-.507,1.432,1.432,0,0,1,.907-.012,1.683,1.683,0,0,1,.7.5,5.189,5.189,0,0,1,.735,1.128,5.726,5.726,0,0,1,.022,4.892,5.229,5.229,0,0,1-2.99,2.637,4.917,4.917,0,0,1-2.641.215c-.613-.134-.906-.328-.885-.39" transform="translate(41.741 22.005)" fill="#1a2e35"/>
        <path id="Trazado_352" data-name="Trazado 352" d="M148.667,22.237A11.092,11.092,0,0,0,148.58,20a8.74,8.74,0,0,0-3.114-5.073,11.782,11.782,0,0,0-8.447-2.4c-3.423.175-7.013,1.455-10.721,2.883a58.362,58.362,0,0,1-5.532,1.864,29.124,29.124,0,0,1-5.383.889,29.408,29.408,0,0,1-9.167-.811,28.254,28.254,0,0,1-5.809-2.175,16.8,16.8,0,0,1-1.47-.823,2.463,2.463,0,0,1-.486-.332c.029-.05.724.365,2.05.964a31.265,31.265,0,0,0,5.806,1.992,29.985,29.985,0,0,0,9.039.684,29.269,29.269,0,0,0,5.281-.9c1.8-.486,3.617-1.155,5.48-1.859,3.7-1.425,7.367-2.722,10.885-2.873a12.069,12.069,0,0,1,8.725,2.6,8.761,8.761,0,0,1,3.074,5.334,5.1,5.1,0,0,1-.124,2.273" transform="translate(37.095 4.521)" fill="#375a64"/>
        <path id="Trazado_353" data-name="Trazado 353" d="M149.9,51.493c-.017.01-.106-.121-.26-.379s-.369-.644-.625-1.155a23.706,23.706,0,0,1-1.67-4.537,25.355,25.355,0,0,1-.782-7.132,63.491,63.491,0,0,1,1.285-8.667,16.853,16.853,0,0,0-.347-8.5,8.613,8.613,0,0,0-1.91-3.147,6.493,6.493,0,0,0-2.733-1.63,6.08,6.08,0,0,0-4.561.311,8.746,8.746,0,0,0-1.378,1.056,3.517,3.517,0,0,1,1.272-1.239,6.148,6.148,0,0,1,4.775-.5,6.8,6.8,0,0,1,2.946,1.682,8.957,8.957,0,0,1,2.061,3.295,17.044,17.044,0,0,1,.413,8.763,68.3,68.3,0,0,0-1.32,8.6,26.166,26.166,0,0,0,.654,7.022,27.647,27.647,0,0,0,1.488,4.539,16.848,16.848,0,0,1,.693,1.622" transform="translate(51.587 5.921)" fill="#375a64"/>
        <path id="Trazado_354" data-name="Trazado 354" d="M151.058,23.464a3.782,3.782,0,0,1-.023-.743c0-.54-.007-1.246-.012-2.124a24.636,24.636,0,0,0-1.181-7.649,13.605,13.605,0,0,0-2.672-4.561,9.562,9.562,0,0,0-5.1-3.066,12.545,12.545,0,0,0-6.61.553,30.672,30.672,0,0,0-6.494,3.284,54.646,54.646,0,0,1-6.421,3.658,20.088,20.088,0,0,1-6.709,1.648,21.415,21.415,0,0,1-6.23-.5,23.918,23.918,0,0,1-5.115-1.857A20.5,20.5,0,0,1,98.32,7.282a12.784,12.784,0,0,1-1.283-1.707,3.9,3.9,0,0,1-.385-.635,3.684,3.684,0,0,1,.476.571,15.963,15.963,0,0,0,1.351,1.63,21.31,21.31,0,0,0,6.183,4.623,24.1,24.1,0,0,0,5.042,1.761,21.165,21.165,0,0,0,6.1.436,19.756,19.756,0,0,0,6.525-1.634,55.51,55.51,0,0,0,6.352-3.633,30.75,30.75,0,0,1,6.614-3.328,12.973,12.973,0,0,1,6.887-.537,9.993,9.993,0,0,1,5.33,3.255,13.872,13.872,0,0,1,2.7,4.738,23.5,23.5,0,0,1,1.03,7.773c-.014.927-.056,1.644-.091,2.13a3.83,3.83,0,0,1-.085.739" transform="translate(36.416 1.724)" fill="#375a64"/>
        <path id="Trazado_355" data-name="Trazado 355" d="M104.119,164.382,48.43,101.852l-7.9-11.047S21.262,66.967,19.7,64.442c-1.8-2.919-3.642-2.752-4.671-2.014-1.607,1.148-1.516,3.947-.047,6.5.508.883,9.077,14.477,9.077,14.477a37.912,37.912,0,0,0-4.93-2.049c-3.6-1.307-9.253.171-14.025,3.343S-.723,89.179.423,91.09a2.836,2.836,0,0,0,2.094,1.246A8.086,8.086,0,0,0,7.1,91.246c9.435-5.632,11.707-1.9,11.707-1.9l1.261,1.4S13,90.345,10.113,94.112a5.4,5.4,0,0,0-.931,1.863,7.178,7.178,0,0,0,.35,12.379c1.063.585,2.515.841,3.4.011a3.816,3.816,0,0,0,.86-1.692,5.769,5.769,0,0,1,.376-.944l3.464,3.643s8.218,7.769,11.412,11.554l49.173,61.438c6.39,9.273,16.063,16.948,25.221,10.395,9.962-7.128,9.139-19.515.682-28.376" transform="translate(0 23.35)" fill="#b78876"/>
        <path id="Trazado_356" data-name="Trazado 356" d="M39.989,94.129c-1.19,1.279-3.307,1.14-4.866.351s-2.8-2.083-4.3-2.981c-4.476-2.689-10.559-1.528-14.9-4.428-.606-.4-1.225-1.093-.96-1.769.246-.628,1.063-.757,1.736-.79l17.275-.847" transform="translate(5.615 31.524)" fill="#b78876"/>
        <path id="Trazado_357" data-name="Trazado 357" d="M34.109,83.693a6.949,6.949,0,0,0-1.878-.1c-1.206,0-2.948.033-5.1.094l-7.56.264-2.185.091a3.424,3.424,0,0,0-2.493.71,1.458,1.458,0,0,0-.164,1.627,2.983,2.983,0,0,0,.947,1.052,11.39,11.39,0,0,0,2.262,1.176c3.215,1.21,6.413,1.24,9.121,1.9a13.03,13.03,0,0,1,3.657,1.352c1.052.607,1.951,1.375,2.853,2a6.091,6.091,0,0,0,4.973,1.36c1.257-.34,1.623-1.062,1.581-1.062a5.058,5.058,0,0,1-1.658.684,5.9,5.9,0,0,1-4.486-1.548c-.847-.633-1.721-1.441-2.844-2.137a13.458,13.458,0,0,0-3.863-1.532c-2.81-.726-6.007-.805-8.974-1.937a10.634,10.634,0,0,1-2.049-1.053c-.592-.409-.91-1-.621-1.254.271-.329,1.064-.369,1.8-.4l2.182-.124,7.55-.475c2.148-.15,3.887-.289,5.086-.406a6.9,6.9,0,0,0,1.859-.284" transform="translate(5.484 31.496)" fill="#aa6550"/>
        <path id="Trazado_358" data-name="Trazado 358" d="M20.063,83.706a7.147,7.147,0,0,0-2.524-2.075,5.514,5.514,0,0,0-3.443-.252,14.124,14.124,0,0,0-4.019,1.754,22.538,22.538,0,0,1-4.066,2.051,7.259,7.259,0,0,1-3.754.344A2.829,2.829,0,0,1,.236,83.985a1.675,1.675,0,0,1-.207-.909c.061-.017.136.307.425.792a2.662,2.662,0,0,0,1.892,1.218,7.172,7.172,0,0,0,3.472-.457,24.8,24.8,0,0,0,3.939-2.047,13.7,13.7,0,0,1,4.22-1.777,5.767,5.767,0,0,1,3.75.419,5.129,5.129,0,0,1,1.933,1.647c.34.5.435.821.4.836" transform="translate(0.007 30.395)" fill="#aa6550"/>
        <path id="Trazado_359" data-name="Trazado 359" d="M10.485,66.3a18.076,18.076,0,0,1,1.722,2.692c1.133,1.875,2.484,4.111,3.978,6.581,1.53,2.448,2.915,4.663,4.075,6.522a17.779,17.779,0,0,1,1.625,2.751,14.381,14.381,0,0,1-2-2.5c-1.152-1.6-2.667-3.873-4.245-6.439s-2.917-4.943-3.829-6.694A14.42,14.42,0,0,1,10.485,66.3" transform="translate(3.948 24.981)" fill="#aa6550"/>
        <path id="Trazado_360" data-name="Trazado 360" d="M16.471,86.516a3.925,3.925,0,0,1-.984.183,2.966,2.966,0,0,0-2.16,1.2,1.587,1.587,0,0,0,0,1.572,8.377,8.377,0,0,0,1.221,1.687,3.585,3.585,0,0,1,1,2.339,3.047,3.047,0,0,1-1.411,2.368,3.456,3.456,0,0,1-2.711.4,4.321,4.321,0,0,1-2.185-1.274A14.035,14.035,0,0,1,7.126,91.46a8.266,8.266,0,0,1-.7-2.678,1.855,1.855,0,0,1,.145-1.009c.056.011.006.363.1.983a9.79,9.79,0,0,0,.862,2.52A15.031,15.031,0,0,0,9.67,94.594a3.426,3.426,0,0,0,4.115.738,2.453,2.453,0,0,0,1.136-1.86,3.059,3.059,0,0,0-.837-1.95,8.465,8.465,0,0,1-1.246-1.841,2.062,2.062,0,0,1,.107-2.022,3.1,3.1,0,0,1,2.515-1.206,2.6,2.6,0,0,1,1.011.063" transform="translate(2.421 32.572)" fill="#aa6550"/>
        <path id="Trazado_361" data-name="Trazado 361" d="M12.371,95.533c.023-.021.278.223.4.818a2.783,2.783,0,0,1-.717,2.385,3.711,3.711,0,0,1-3.562.928A6.07,6.07,0,0,1,4.932,96.9a7.35,7.35,0,0,1-1.09-4.37,7.028,7.028,0,0,1,1.227-3.464,6.661,6.661,0,0,1,1.74-1.744c.486-.321.792-.428.81-.4a11.561,11.561,0,0,0-2.173,2.386,6.832,6.832,0,0,0,.028,7.252,5.639,5.639,0,0,0,3.164,2.536,3.291,3.291,0,0,0,3.1-.677,2.634,2.634,0,0,0,.79-2.034c-.037-.544-.205-.826-.156-.851" transform="translate(1.44 32.749)" fill="#aa6550"/>
        <path id="Trazado_362" data-name="Trazado 362" d="M20.97,98.276c-.034-.047.4-.45,1.316-.79a6.032,6.032,0,0,1,3.909-.04l-.376.419a17.749,17.749,0,0,1-.826-2.007c-1.385-4.008-.867-7.494-.715-7.444.2,0-.022,3.384,1.318,7.238.237.7.5,1.356.774,1.954l.3.661-.675-.244a6.318,6.318,0,0,0-3.6-.168c-.892.218-1.384.5-1.426.423" transform="translate(7.9 33.312)" fill="#aa6550"/>
        <path id="Trazado_363" data-name="Trazado 363" d="M11.094,78.807c.168-.017.248,1.29-.635,2.547S8.336,83,8.293,82.836c-.081-.167.891-.739,1.643-1.845.774-1.089.973-2.2,1.158-2.184" transform="translate(3.123 29.693)" fill="#aa6550"/>
        <path id="Trazado_364" data-name="Trazado 364" d="M151.009,95.462,99.331,146.581,61.5,107.655,54.3,104.5l-9.529-9.571L22.72,119.77l46.706,61.069a43.73,43.73,0,0,0,65.342,4.662l39.762-38.967" transform="translate(8.561 35.768)" fill="#f9c931"/>
        <path id="Trazado_365" data-name="Trazado 365" d="M74.861,162.135a35.236,35.236,0,0,0,.116-4.454,75.374,75.374,0,0,1,.84-10.658,62.867,62.867,0,0,1,2.61-10.356,40.572,40.572,0,0,0,1.417-4.221,3.923,3.923,0,0,0-.593,1.048c-.344.691-.792,1.715-1.3,3a50.493,50.493,0,0,0-2.843,10.417,58.035,58.035,0,0,0-.637,10.775c.051,1.38.117,2.493.2,3.262a3.936,3.936,0,0,0,.191,1.188" transform="translate(28.048 49.903)" fill="#1a2e35"/>
        <path id="Trazado_366" data-name="Trazado 366" d="M113.916,107.494c-8.173,7.8-10.21,17.905-14.767,28.243C93.782,147.912,84.115,159.743,80.4,172.52c-1.111,3.816-1.494,7.988-.145,11.727s5.273,8.215,9.238,8.5l8.312-2.185Z" transform="translate(29.913 40.502)" fill="#ce9c20"/>
        <path id="Trazado_367" data-name="Trazado 367" d="M30.328,130.005c.156.123,4.933-5.69,10.669-12.982S51.258,103.721,51.1,103.6s-4.932,5.689-10.669,12.982-10.261,13.3-10.106,13.425" transform="translate(11.426 39.034)" fill="#1a2e35"/>
        <path id="Trazado_368" data-name="Trazado 368" d="M55.429,193.3l22.363,46.082-58.18-18.4L.437,178.839Z" transform="translate(0.164 67.384)" fill="#faaf40"/>
        <path id="Trazado_369" data-name="Trazado 369" d="M165,75.959l5.828,14.1s7.557,16.051,16,27.025c9.172,11.923,11.361,50.489,11.361,50.489L189.481,285.9l2.977,5.774c1.36,2.639.658,12.273-2.306,12.417l-98.068,4.554c-2.369.114-3.942-8.186-3.811-10.554l7.9-142.913,15.9-38.995,5.109-7.647.118-9.624,34.122-10.564A21.614,21.614,0,0,0,165,75.959" transform="translate(33.257 28.62)" fill="#f9c931"/>
        <g id="Grupo_96" data-name="Grupo 96" transform="translate(122.135 277.426)" opacity="0.3">
          <g id="Grupo_95" data-name="Grupo 95">
            <g id="Grupo_94" data-name="Grupo 94" clip-path="url(#clip-path-3)">
              <path id="Trazado_370" data-name="Trazado 370" d="M187.463,210.784c-14.9,9.5-29.931,19.063-46.48,25.243s-35.261,8.548-52.272,3.783l.54-12.3,93.712-26Z" transform="translate(-88.71 -201.503)"/>
            </g>
          </g>
        </g>
        <path id="Trazado_371" data-name="Trazado 371" d="M170.069,108.185s26.835-2.317,32.375,31.187-3.384,106.19-5.972,106.8c0,0-47.988,20.481-97.916,25.353L63.52,265.1l4.169-33.3,25.784,1.36s1.136-6.435,10.846-9.146c14.012-3.911,42.2-10.4,42.2-10.4S145.264,180.2,145,170.4s-3.664-52.36,18.715-60.324" transform="translate(23.933 40.75)" fill="#f9c931"/>
        <path id="Trazado_372" data-name="Trazado 372" d="M111,105.172a6.338,6.338,0,0,0-.49,1l-1.276,2.919c-1.107,2.613-2.66,6.28-4.568,10.782-1.912,4.583-4.177,10.008-6.69,16.026q-.94,2.263-1.925,4.636a25.3,25.3,0,0,0-1.654,5.025A31.982,31.982,0,0,0,93.83,151q-.153,2.751-.308,5.576c-.876,15.062-1.678,28.7-2.061,38.584-.2,4.941-.307,8.941-.341,11.707q-.008,1.995-.012,3.185a6.467,6.467,0,0,0,.047,1.111,6.45,6.45,0,0,0,.1-1.108q.054-1.19.147-3.179c.138-2.835.332-6.81.569-11.692.585-9.933,1.385-23.536,2.269-38.568q.155-2.825.306-5.579a31.639,31.639,0,0,1,.54-5.335,24.783,24.783,0,0,1,1.6-4.908q.973-2.373,1.9-4.645c2.459-6.039,4.676-11.484,6.548-16.084,1.819-4.538,3.3-8.233,4.358-10.868q.721-1.861,1.151-2.97a6.376,6.376,0,0,0,.357-1.053" transform="translate(34.328 39.627)" fill="#1a2e35"/>
        <path id="Trazado_373" data-name="Trazado 373" d="M109.51,95.161a7.632,7.632,0,0,0,.3,1.425c.234.917.61,2.254,1.17,3.924a69.119,69.119,0,0,0,6.069,13.191l.19.321.288-.241c3.838-3.215,9.03-5.912,14.738-8.232,4.725-1.944,9.325-3.6,13.359-5.509a50.389,50.389,0,0,0,10.141-6.084,28.35,28.35,0,0,0,5.551-5.725A16.177,16.177,0,0,0,162.48,86.4a3,3,0,0,0,.34-.676c-.073-.045-.567.876-1.731,2.336a30.581,30.581,0,0,1-5.639,5.493,52.345,52.345,0,0,1-10.108,5.884c-4.012,1.855-8.608,3.492-13.355,5.444-5.733,2.331-11,5.091-14.873,8.408l.476.08a75.714,75.714,0,0,1-6.259-12.989c-.609-1.644-1.039-2.957-1.334-3.855a8.363,8.363,0,0,0-.487-1.369" transform="translate(41.259 32.3)" fill="#1a2e35"/>
        <path id="Trazado_374" data-name="Trazado 374" d="M163.82,110.089s-.633.233-1.855.727c-.6.275-1.311.682-2.16,1.155A23.112,23.112,0,0,0,157.1,114a27.027,27.027,0,0,0-5.785,7.414,48.9,48.9,0,0,0-4.355,12.026c-2.222,9.381-2.8,21.193-2.177,34.666.458,13.486.978,28.761,1.548,45.525l.226-.3c-8.546,1.981-17.583,4.121-27.01,6.447-4.711,1.169-9.522,2.38-14.4,3.708a18.185,18.185,0,0,0-11.871,9.54l.322-.2-25.783-1.373-.322-.017-.041.321c-1.331,10.612-2.74,21.836-4.177,33.295l-.041.335.33.061,32.6,5.981c.816.15,1.633.3,2.436.446l.051.01.05,0c8.985-.965,17.824-2.25,26.449-3.943,8.616-1.729,17.057-3.661,25.25-5.9a400.6,400.6,0,0,0,46.308-15.563l-.054.018a1.062,1.062,0,0,0,.262-.151,1.1,1.1,0,0,0,.124-.149,1.452,1.452,0,0,0,.167-.281,5.02,5.02,0,0,0,.227-.536c.125-.352.23-.7.328-1.056.19-.7.355-1.407.505-2.109.3-1.407.558-2.811.8-4.212.475-2.8.878-5.579,1.25-8.334.734-5.507,1.335-10.912,1.85-16.2,1.024-10.57,1.71-20.661,2.1-30.186s.45-18.486.109-26.785c-.373-8.288-1.034-15.96-2.824-22.7a38.526,38.526,0,0,0-8.593-16.309,28.8,28.8,0,0,0-11.427-7.559,30.184,30.184,0,0,0-8.391-1.75,20.976,20.976,0,0,0-2.208-.045,6.446,6.446,0,0,0-.746.054s.252,0,.748,0,1.232.019,2.2.1a31.018,31.018,0,0,1,8.325,1.841,28.711,28.711,0,0,1,11.274,7.571,38.314,38.314,0,0,1,8.434,16.2c1.749,6.684,2.385,14.342,2.73,22.612.315,8.283.218,17.23-.18,26.743s-1.111,19.593-2.152,30.15c-.525,5.279-1.133,10.676-1.875,16.173-.374,2.748-.781,5.521-1.257,8.309-.24,1.393-.5,2.791-.8,4.183-.15.7-.314,1.389-.5,2.073-.1.341-.2.679-.314,1.005a4.438,4.438,0,0,1-.2.46.839.839,0,0,1-.106.184c-.015.018-.044.062-.044.062s0-.017.015-.007a.371.371,0,0,1,.058.171l-.094-.151a402.063,402.063,0,0,1-46.234,15.49c-8.181,2.234-16.605,4.159-25.2,5.882-8.608,1.687-17.423,2.967-26.383,3.928l.1,0-2.436-.446-32.6-5.975.289.394c1.43-11.46,2.833-22.685,4.159-33.3l-.362.3L93.563,233.5l.216.011.106-.206a17.539,17.539,0,0,1,11.434-9.19c4.87-1.33,9.676-2.547,14.383-3.721,9.419-2.341,18.45-4.5,26.989-6.493l.234-.054-.008-.241c-.611-16.764-1.169-32.038-1.66-45.522-.668-13.455-.132-25.223,2.031-34.571a48.951,48.951,0,0,1,4.256-11.981,27.083,27.083,0,0,1,5.675-7.4,23.439,23.439,0,0,1,2.657-2.049c.837-.482,1.541-.9,2.129-1.185,1.2-.519,1.816-.808,1.816-.808" transform="translate(23.826 40.741)" fill="#1a2e35"/>
        <path id="Trazado_375" data-name="Trazado 375" d="M87.212,232.784c.2-.014-.136-7.023-.745-15.654s-1.263-15.618-1.459-15.6.135,7.022.745,15.655,1.263,15.617,1.459,15.6" transform="translate(32.008 75.931)" fill="#1a2e35"/>
        <path id="Trazado_376" data-name="Trazado 376" d="M145.514,202.8a3.264,3.264,0,0,0-.324-1.1,17.455,17.455,0,0,0-1.419-2.787,27.265,27.265,0,0,0-7.1-7.433,53.577,53.577,0,0,0-8.905-5.119,22.858,22.858,0,0,0-3.925-1.62,27.116,27.116,0,0,0,3.7,2.075,70.151,70.151,0,0,1,8.707,5.241,30.349,30.349,0,0,1,7.1,7.134c1.47,2.137,2.051,3.661,2.168,3.611" transform="translate(46.66 69.603)" fill="#1a2e35"/>
        <path id="Trazado_377" data-name="Trazado 377" d="M111.024,234.72a2.459,2.459,0,0,0,.668.158l1.937.314c1.684.273,4.136.555,7.176.8s6.672.384,10.706.361c4.033-.061,8.467-.3,13.095-.815,4.627-.547,9-1.323,12.942-2.181,3.935-.892,7.443-1.845,10.345-2.782s5.23-1.757,6.807-2.4c.724-.3,1.323-.545,1.815-.746a2.576,2.576,0,0,0,.615-.306,2.451,2.451,0,0,0-.666.171l-1.86.618c-1.6.567-3.944,1.322-6.858,2.182s-6.416,1.769-10.338,2.621c-3.929.818-8.281,1.571-12.883,2.113-4.6.516-9.011.771-13.023.867-4.013.061-7.632-.017-10.663-.205s-5.485-.38-7.174-.567l-1.951-.18a2.462,2.462,0,0,0-.688-.015" transform="translate(41.832 85.571)" fill="#1a2e35"/>
        <path id="Trazado_378" data-name="Trazado 378" d="M159,89.38c-3.778,6.295-9.492,11.075-15.552,15.218a146.2,146.2,0,0,1-19.3,10.561c-3.039,1.462-6.262,2.953-9.622,2.682a4.4,4.4,0,0,1-2.554-.9,5.545,5.545,0,0,1-1.451-3.475,112.783,112.783,0,0,1-.99-19.684,70.9,70.9,0,0,0,7.89,18.52s5.313-4.612,21.727-11.25C155.818,94.312,159,89.38,159,89.38" transform="translate(41.241 33.677)" fill="#ce9c20"/>
        <path id="Trazado_379" data-name="Trazado 379" d="M130.827,312.835c.2,0,.458-9.987.581-22.308s.061-22.315-.138-22.316-.457,9.984-.58,22.309-.062,22.312.136,22.315" transform="translate(49.218 101.058)" fill="#375a64"/>
        <path id="Trazado_380" data-name="Trazado 380" d="M32.929,207.763l-.328-.281C18.386,195.344,1.175,180.46.81,179.66l-.363-.8,1.83.456c.821,1.039,18.761,16.483,30.89,26.839l24.556-10.809.553,1.261Z" transform="translate(0.168 67.392)" fill="#d68922"/>
        <path id="Trazado_381" data-name="Trazado 381" d="M23.636,195.741c1.033-1.475,2.755-1.243,4.213-.187l4.87,3.24a20.609,20.609,0,0,0,4.315,1.8l2.068.372a15.821,15.821,0,0,0,11.685-2.485l.832-.566s-13.334-3.025-15.358-4.758l-.061-.052c-2.02-1.8-.278-5.157,2.4-4.749L55.4,190.936a34.408,34.408,0,0,1,15.234,6.34c4.229,3.124,11.4,7.809,11.84,7.757l-2.92,25.454-4.768-1.18-8.712.761a31.139,31.139,0,0,1-17-3.363c-3.244-1.674-6.27-3.346-6.588-3.9a48.185,48.185,0,0,1-2-6.341s-3.3-2.058-3.425-3.463a22.469,22.469,0,0,1,.26-3.944s-8.442-5.013-10.64-6.752c-3.931-3.112-3.98-5.225-3.045-6.559" transform="translate(8.717 70.958)" fill="#b78876"/>
        <path id="Trazado_382" data-name="Trazado 382" d="M43.444,208.394a17.91,17.91,0,0,1-5.436-1.95,17.885,17.885,0,0,1-4.845-3.146c.092-.134,2.257,1.256,5.089,2.652s5.243,2.29,5.192,2.444" transform="translate(12.495 76.596)" fill="#aa6550"/>
        <path id="Trazado_383" data-name="Trazado 383" d="M40.814,211.3a5.65,5.65,0,0,1-2.983-.843,5.642,5.642,0,0,1-2.448-1.9,20.485,20.485,0,0,1,2.7,1.413,20.39,20.39,0,0,1,2.736,1.334" transform="translate(13.329 78.576)" fill="#aa6550"/>
        <path id="Trazado_384" data-name="Trazado 384" d="M50.009,194.2a9.683,9.683,0,0,1-2.029,1.435,27.385,27.385,0,0,1-5.423,2.587,19.058,19.058,0,0,1-5.937.991,7.981,7.981,0,0,1-2.478-.237c-.01-.206,3.845.224,8.241-1.276a37.462,37.462,0,0,0,5.405-2.4,12.961,12.961,0,0,1,2.221-1.1" transform="translate(12.864 73.17)" fill="#aa6550"/>
      </g>
    </g>
  </g>
</svg>
