<svg id="Grupo_185" data-name="Grupo 185" xmlns="http://www.w3.org/2000/svg" xmlns:xlink="http://www.w3.org/1999/xlink" width="367.456" height="396" viewBox="0 0 367.456 396">
  <defs>
    <clipPath id="clip-path">
      <rect id="Rectángulo_152" data-name="Rectángulo 152" width="367.456" height="396" fill="none"/>
    </clipPath>
  </defs>
  <g id="Grupo_184" data-name="Grupo 184" clip-path="url(#clip-path)">
    <path id="Trazado_547" data-name="Trazado 547" d="M238.191,378.758h75.085c10.757-46.909,12.281-155.742,13.356-189.472l-38.405-3.35L268.24,326.187l-12.75-32.952-35.809-92.523c-22.383-22.332-44.437,6.675-7.766,118.336,8.54,26,17.441,45.456,26.276,59.71" transform="translate(17.836 17.242)" fill="#292841"/>
    <path id="Trazado_548" data-name="Trazado 548" d="M249.9,379.87C245.646,301,237.459,201.933,233.051,196.636c-7.345-8.827-37.374-25.548-145.536-22.269,0,0-70.645,17.855-81.139,45.216-6.407,16.7-.3,95.9,5.194,160.286Z" transform="translate(0.337 16.13)" fill="#ff9a78"/>
    <rect id="Rectángulo_146" data-name="Rectángulo 146" width="17.161" height="86.042" transform="translate(311.551 143.657)" fill="#1b75bb"/>
    <path id="Trazado_549" data-name="Trazado 549" d="M313.413,197.893c-3.007,1.36-6.545,1.35-9.785,2.157-3.432.85-6.492,2.592-9.861,3.613s-7.437,1.168-10.147-.893c1.052-1.944-2.7-3.315-3.208-5.43-.49-1.987,2.1-3.772,1.689-5.77-.351-1.636-2.55-2.529-3.029-4.144-.616-2.135,2.125-4.175,1.605-6.343-.468-2.018-3.549-3.113-3.475-5.174.074-1.966,3.124-3.581,2.423-5.3a1.4,1.4,0,0,0-.128-.256,5.4,5.4,0,0,0-1.136-1.051c-9.457-8.309,22.621-17.808,26.966-19,2.306-.627,5.664-.7,6.226,1.392.276.988-.3,2.083.107,3.028.372.861,1.391,1.3,2.124,1.966a2.2,2.2,0,0,1,.351.362c1.3,1.647-.106,4.069.9,5.865.392.7,1.116,1.211,1.551,1.892a6.2,6.2,0,0,1,.67,2.762c.542,5.451,2.784,10.7,3.209,16.16s-1.574,11.688-7.056,14.164" transform="translate(25.652 13.902)" fill="#ffc09d"/>
    <path id="Trazado_550" data-name="Trazado 550" d="M313.364,197.319c-3.007,1.36-6.545,1.35-9.785,2.157-3.432.85-6.492,2.592-9.861,3.613s-7.437,1.168-10.147-.893c1.052-1.944-2.7-3.315-3.208-5.43-.49-1.987,2.1-3.772,1.689-5.77-.351-1.636-2.55-2.529-3.029-4.144-.616-2.135,2.125-4.175,1.605-6.343-.468-2.018-3.549-3.113-3.475-5.174.074-1.966,3.124-3.581,2.423-5.3a3.4,3.4,0,0,1,1.806.86,1.948,1.948,0,0,1,.5,1.244c.308,2.4-.2,5.111,1.286,7.023.637.829,1.593,1.4,2.072,2.328a7.853,7.853,0,0,1,.509,2.783c.341,3.146,2.253,5.877,4.113,8.448a6.117,6.117,0,0,0,1.922,1.944c1.318.691,2.933.308,4.368-.106q4.781-1.418,9.456-3.188a17.948,17.948,0,0,0,4.909-2.529c3.379-2.721,4.526-7.481,4.038-11.795-.372-3.187-1.509-6.46-.563-9.531a5.934,5.934,0,0,0,.457-2.061,7.015,7.015,0,0,0-1.318-2.582c-1.168-2.114-.574-4.526.605-6.757a2.2,2.2,0,0,1,.351.362c1.3,1.647-.106,4.069.9,5.865.392.7,1.116,1.211,1.551,1.892a6.2,6.2,0,0,1,.67,2.762c.542,5.451,2.784,10.7,3.209,16.16s-1.574,11.688-7.056,14.164" transform="translate(25.7 14.476)" fill="#ff9b6c"/>
    <path id="Trazado_551" data-name="Trazado 551" d="M103.3,137.652l8.04-1.64,14.4,64.8-28.944-7.7s-44.945-49.356,6.508-55.463" transform="translate(7.29 12.612)" fill="#151528"/>
    <path id="Trazado_552" data-name="Trazado 552" d="M178.766,187.094l11.915-13.933s-33.617-26.325-51.92-27.352-.465,29.554-.465,29.554,29.638,5.558,40.47,11.732" transform="translate(12.102 13.518)" fill="#292841"/>
    <path id="Trazado_553" data-name="Trazado 553" d="M209.506,84.777H89.464a11.88,11.88,0,0,1-11.6-14.438l7.788-35.277,2.3-10.424L91.34,9.319A11.879,11.879,0,0,1,102.939,0h93.092a11.868,11.868,0,0,1,11.59,9.319l3.386,15.32,2.3,10.424L221.1,70.339a11.873,11.873,0,0,1-11.59,14.438" transform="translate(7.194)" fill="#292841"/>
    <path id="Trazado_554" data-name="Trazado 554" d="M212.624,32.972H84.966l2.3-10.424H210.322Z" transform="translate(7.879 2.091)" fill="#343451"/>
    <path id="Trazado_555" data-name="Trazado 555" d="M262.5,66.3c0,9.192-50.507,16.643-112.809,16.643S36.883,75.493,36.883,66.3,87.39,49.658,149.691,49.658,262.5,57.109,262.5,66.3" transform="translate(3.42 4.605)" fill="#1c1b29"/>
    <path id="Trazado_556" data-name="Trazado 556" d="M95.082,96.768A158.973,158.973,0,0,1,77.67,124.887a55.188,55.188,0,0,0,10.228,4.8c2.828-9.1,5.625-18.119,8.453-27.217a8.083,8.083,0,0,0,.52-2.816,4.113,4.113,0,0,0-1.79-2.888" transform="translate(7.202 8.973)" fill="#1c1b29"/>
    <path id="Trazado_557" data-name="Trazado 557" d="M97.608,97.754a101.058,101.058,0,0,1-25.8,27.914l-8.315-9.112C72.457,109.285,81.682,102,91.721,96.3a6.821,6.821,0,0,1,3.3-1.155,3.1,3.1,0,0,1,2.586,2.609" transform="translate(5.888 8.823)"/>
    <path id="Trazado_558" data-name="Trazado 558" d="M209.654,60.928a46.53,46.53,0,0,1-3.092,8.948,58.681,58.681,0,0,1-9.911,14.887c-2.526,1.707-5.417-.675-6.886-3.346s-2.332-5.94-4.91-7.57c-2.4-1.521-5.6-1.057-8.17.177s-4.732,3.16-7.174,4.614a22.924,22.924,0,0,1-20,1.5c-5.567-2.265-11.068-6.861-16.823-5.129-3.144.946-5.492,3.692-6.76,6.726a33.593,33.593,0,0,0-1.977,9.616c-1.606,14.912-3.279,30.046-14.213,40.312A160.142,160.142,0,0,1,91.344,97.016c-2.932-7.655-5.29-15.657-5.535-23.852-.034-1.073-.025-2.146.034-3.228a38.688,38.688,0,0,1,1.478-9.218c16.917-.482,36.7-.761,57.837-.761,23.98,0,46.219.355,64.5.971" transform="translate(7.955 5.56)" fill="#343451"/>
    <path id="Trazado_559" data-name="Trazado 559" d="M148.5,154.524v32.1s-2.214,13.612-14.88,11.72-32.615-20.591-32.293-26.921c.279-5.315,2.585-44.52,3.32-57.051.127-2.07.2-3.414.221-3.76a.755.755,0,0,0,.008-.084c5.451,27.774,43.625,44,43.625,44" transform="translate(9.396 10.249)" fill="#ffc09d"/>
    <path id="Trazado_560" data-name="Trazado 560" d="M148.219,154.524v6.7c-9.3,13.055-27.064-1.978-35.826-16.2-7.308-11.846-8.136-24.487-8.027-30.655a37.651,37.651,0,0,1,.221-3.76.755.755,0,0,0,.008-.084c5.451,27.774,43.625,44,43.625,44" transform="translate(9.677 10.249)" fill="#ff9b6c"/>
    <path id="Trazado_561" data-name="Trazado 561" d="M108.8,104.346l3.491,1.164c.388-13.188,6.206-13.576,5.818-18.618s-3.1-15.9,10.473-21.592,31.03,13.446,42.667,4.137,24.049,0,24.049,0,3.1,50.813,0,66.328-23.273,28.316-42.667,28.316-36.073-18.231-39.951-22.109-6.983-27.152-6.983-27.152c-4.01-.558-8.293-1.784-10.618-5.1a14.994,14.994,0,0,1-2.364-11.572c.641-3.027,2.605-6.1,5.638-6.7,2.974-.6,5.974,1.442,7.472,4.08a23.23,23.23,0,0,1,2.974,8.822" transform="translate(8.569 5.955)" fill="#ffc09d"/>
    <rect id="Rectángulo_147" data-name="Rectángulo 147" width="23.492" height="8.87" transform="translate(146.618 105.077)" fill="#fff"/>
    <rect id="Rectángulo_148" data-name="Rectángulo 148" width="22.592" height="8.87" transform="translate(180.19 105.077)" fill="#fff"/>
    <path id="Trazado_562" data-name="Trazado 562" d="M104.69,92.868l2.5,6.177s6.277.743,24.983,10.522,34.735-4.641,34.735-4.641c17.089,15.979,28.39,0,28.39,0V92.868Zm34.1,6.177h19.988s-10.3,14.154-19.988,0m33.739,0h19.989s-10.306,14.154-19.989,0" transform="translate(9.708 8.612)" fill="#292841"/>
    <path id="Trazado_563" data-name="Trazado 563" d="M234.955,105.248c-1.673-3.9-3.373-7.926-3.531-12.188s1.59-8.88,5.269-10.814c3.4-1.788,7.58-.95,11.19-2.234,4.452-1.584,7.264-6.073,9.24-10.484s-.77-6.02,2.569-9.443c4.431-4.542,7.314-5.2,12.924-2.42,4.035-2.86,18.054-8.039,22.1-8.164,6-.184,12.826.294,17.014,4.593,3.25,3.336,5.313,7.578,9.3,9.981,5.487,3.306,12.48.494,18.881.729,1.306.048,2.826.38,3.365,1.57.465,1.029-.027,2.217-.516,3.236q-2.473,5.162-4.946,10.324a9.835,9.835,0,0,0,8.566-.209,29.1,29.1,0,0,1-7.6,18.309c1.136-.8,2.845.026,3.411,1.3a6.188,6.188,0,0,1-.058,4.091,29.951,29.951,0,0,1-40.683,19.725l-35.28,2.659a9,9,0,0,1-6.083,5.651c-3.951-2.924-4.583-4.565-4.583-4.565-2.431,1.808-.521.9-2.431,1.808-4.374,2.086-10.844-.389-11.83-5.263a10.311,10.311,0,0,0-2.346-5.378c-1.4-1.418-3.392-1.964-5.153-2.852a14.5,14.5,0,0,1-6.461-6.618,10.47,10.47,0,0,0,7.676-3.342" transform="translate(21.076 4.587)" fill="#1a2e35"/>
    <path id="Trazado_564" data-name="Trazado 564" d="M257.717,89.644c-18.836,7.115,4.285,63.737,42.591,62.712,0,0,18.56-1.513,20.127-19.845.756-8.86.83-27.234.7-43.857a34.27,34.27,0,0,0-31.785-33.9l-1.77-.129c-19.171-.279-30.118,15.848-29.867,35.02" transform="translate(23.278 5.065)" fill="#ffc09d"/>
    <path id="Trazado_565" data-name="Trazado 565" d="M287.466,92.916c-.364.37-2.483-1.333-5.553-1.415-3.066-.129-5.365,1.424-5.687,1.028-.16-.176.219-.853,1.221-1.556a7.686,7.686,0,0,1,4.565-1.3,7.422,7.422,0,0,1,4.408,1.6c.922.771,1.224,1.471,1.046,1.636" transform="translate(25.611 8.315)" fill="#1a2e35"/>
    <path id="Trazado_566" data-name="Trazado 566" d="M287.437,99.1a2.485,2.485,0,0,1-2.572,2.326A2.377,2.377,0,0,1,282.473,99a2.485,2.485,0,0,1,2.57-2.328,2.378,2.378,0,0,1,2.394,2.423" transform="translate(26.194 8.964)" fill="#1a2e35"/>
    <path id="Trazado_567" data-name="Trazado 567" d="M161.54,125.392c0-.162,1.774-.337,4.64-.492.726-.021,1.417-.115,1.575-.6a3.678,3.678,0,0,0-.325-2.169q-.826-2.688-1.73-5.638c-2.387-8.021-4.058-14.6-3.734-14.69s2.521,6.332,4.909,14.354q.856,2.967,1.637,5.665a4.189,4.189,0,0,1,.167,2.854,1.81,1.81,0,0,1-1.261.965,4.819,4.819,0,0,1-1.236.081c-2.869-.054-4.643-.17-4.642-.332" transform="translate(14.98 9.44)" fill="#1a2e35"/>
    <path id="Trazado_568" data-name="Trazado 568" d="M295.3,115.828c0-.162,1.774-.337,4.64-.492.726-.021,1.417-.115,1.575-.6a3.679,3.679,0,0,0-.325-2.169q-.826-2.688-1.73-5.637c-2.387-8.022-4.058-14.6-3.734-14.691s2.521,6.332,4.909,14.356q.856,2.965,1.637,5.663a4.189,4.189,0,0,1,.167,2.854,1.811,1.811,0,0,1-1.261.966,4.813,4.813,0,0,1-1.236.08c-2.87-.054-4.643-.169-4.642-.332" transform="translate(27.383 8.553)" fill="#1a2e35"/>
    <path id="Trazado_569" data-name="Trazado 569" d="M286.283,82.268c-.3.682-2.756.168-5.7.319-2.947.09-5.365.8-5.706.146-.151-.314.307-.941,1.308-1.548a9.64,9.64,0,0,1,8.689-.354c1.039.525,1.539,1.112,1.409,1.437" transform="translate(25.487 7.415)" fill="#1a2e35"/>
    <path id="Trazado_570" data-name="Trazado 570" d="M312.963,87.484c-.322.555-2.719-.061-5.623-.151-2.9-.142-5.315.282-5.622-.3-.134-.276.344-.775,1.357-1.215a10.138,10.138,0,0,1,4.3-.71,10.457,10.457,0,0,1,4.271,1.052c1,.521,1.463,1.057,1.321,1.322" transform="translate(27.976 7.891)" fill="#1a2e35"/>
    <path id="Trazado_571" data-name="Trazado 571" d="M258.706,99.282c-.3-.158-12.336-4.65-12.85,7.924s12.215,10.5,12.251,10.137.6-18.062.6-18.062" transform="translate(22.797 9.122)" fill="#ffc09d"/>
    <path id="Trazado_572" data-name="Trazado 572" d="M254.19,112.083c-.054-.043-.225.144-.6.3a2.2,2.2,0,0,1-1.639-.034c-1.308-.542-2.341-2.7-2.309-4.965a7.244,7.244,0,0,1,.742-3.111,2.534,2.534,0,0,1,1.717-1.614,1.116,1.116,0,0,1,1.268.653c.154.358.064.606.13.631.034.033.279-.2.2-.723a1.392,1.392,0,0,0-.462-.808,1.652,1.652,0,0,0-1.2-.369,3.077,3.077,0,0,0-2.368,1.855,7.451,7.451,0,0,0-.9,3.473c-.023,2.537,1.177,4.961,2.973,5.561a2.347,2.347,0,0,0,2.017-.25c.4-.3.48-.574.437-.6" transform="translate(23.068 9.462)" fill="#ff9b6c"/>
    <path id="Trazado_573" data-name="Trazado 573" d="M101.775,103.382c-.054-.043-.225.144-.6.3a2.2,2.2,0,0,1-1.639-.034c-1.308-.542-2.341-2.7-2.309-4.965a7.244,7.244,0,0,1,.742-3.111,2.534,2.534,0,0,1,1.717-1.614,1.116,1.116,0,0,1,1.268.653c.154.358.064.606.13.631.034.033.279-.2.2-.723a1.392,1.392,0,0,0-.462-.808,1.651,1.651,0,0,0-1.2-.369A3.077,3.077,0,0,0,97.251,95.2a7.451,7.451,0,0,0-.9,3.473c-.023,2.537,1.177,4.961,2.973,5.561a2.347,2.347,0,0,0,2.017-.25c.4-.3.48-.574.437-.6" transform="translate(8.934 8.655)" fill="#ff9b6c"/>
    <path id="Trazado_574" data-name="Trazado 574" d="M300.948,120.241c-.153-.31-2.309,1.093-5.192.921a14.1,14.1,0,0,1-3.63-.794c-.933-.309-1.551-.468-1.606-.337s.44.5,1.329.986a9.27,9.27,0,0,0,3.852,1.142,7.516,7.516,0,0,0,3.952-.862c.918-.481,1.356-.961,1.295-1.056" transform="translate(26.94 11.126)" fill="#1a2e35"/>
    <path id="Trazado_575" data-name="Trazado 575" d="M170.825,129.823c-.388-.539-4.029,2.8-9.543,3.375a27.082,27.082,0,0,1-7.126-.363c-1.865-.294-3.084-.4-3.147-.134-.06.249.989.806,2.825,1.45a17.821,17.821,0,0,0,7.656.953,14.448,14.448,0,0,0,7.214-2.874c1.587-1.2,2.266-2.247,2.121-2.407" transform="translate(14.003 12.033)" fill="#1a2e35"/>
    <path id="Trazado_576" data-name="Trazado 576" d="M242.389,83.92c2.62-4.434,3.231-9.726,4.663-14.674s4.188-10.074,9.04-11.8l.109.048c4.357-1.752,9.727-1.777,13.3,1.247.887-6.535,6.615-11.71,12.994-13.383s16.61-.676,22.728,1.787c4.729,1.9,9.3,5.8,14.859,11.534a61.73,61.73,0,0,1,6.415,7.775l5.547,17.127a7.336,7.336,0,0,1,1.559,1.567c2.205,3.008-1.916,6.781-4.713,4.313l-.049-.044a32.368,32.368,0,0,0-1.452,2.937v.023l-.1.186c-.284.611-.578,1.222-.933,1.826l0-.04-4.285,18.927c-.271-5.162.1-23.117-.166-28.279a28.789,28.789,0,0,1-20.515-9.475c-2.819-3.123-5.035-7.035-8.805-8.9-4.862-2.405-10.657-.655-15.78,1.124l.216-.195a22.971,22.971,0,0,0-7.1,5.125,71.559,71.559,0,0,1-3.1,30.286c-.481,1.464-1.792,4.479-3.229,5.034-2.825,1.092-3.584-1.783-5.283-3.311-1.251-1.124-3.108-1.27-5.136-1.264a112.263,112.263,0,0,1-3.451-13.047,11.473,11.473,0,0,1-5.279.352q.813-1.944,1.624-3.887a5.981,5.981,0,0,1-2.259,1.022,2.044,2.044,0,0,1-2.142-.932c-.479-.965.173-2.076.72-3" transform="translate(22.395 4.129)" fill="#1a2e35"/>
    <path id="Trazado_577" data-name="Trazado 577" d="M274.694,59.458a15.763,15.763,0,0,0-1.839,1.682,13.148,13.148,0,0,0-2.815,6.089,23.137,23.137,0,0,0-.469,4.662c-.008,1.688.128,3.5.257,5.4a48.238,48.238,0,0,1,.139,6.014,21.333,21.333,0,0,1-.414,3.172,6.6,6.6,0,0,1-1.294,3.077,2.767,2.767,0,0,1-2.589.87,4.112,4.112,0,0,1-2.328-1.316,9.491,9.491,0,0,1-1.768-4.663l.385.047a15.377,15.377,0,0,1-2.23,3.842,5.464,5.464,0,0,1-3.568,1.942,3.512,3.512,0,0,1-1.89-.331,3.047,3.047,0,0,1-1.285-1.264,3.148,3.148,0,0,1-.389-1.626,2.269,2.269,0,0,1,.589-1.426l.195.173a11.842,11.842,0,0,1-3.94,2.956,10.472,10.472,0,0,1-1.221.474,2.071,2.071,0,0,1-.437.108,2.254,2.254,0,0,1,.413-.176c.273-.113.679-.275,1.185-.532a12.2,12.2,0,0,0,3.8-3l.194.174a2.353,2.353,0,0,0-.121,2.725,2.748,2.748,0,0,0,1.162,1.119,3.188,3.188,0,0,0,1.713.28,5.118,5.118,0,0,0,3.311-1.847,15.158,15.158,0,0,0,2.149-3.759l.263-.588.121.635a9.194,9.194,0,0,0,1.683,4.455,3.706,3.706,0,0,0,2.084,1.177,2.334,2.334,0,0,0,2.2-.738,6.254,6.254,0,0,0,1.2-2.879,21,21,0,0,0,.411-3.107,49.193,49.193,0,0,0-.113-5.963c-.118-1.906-.243-3.722-.219-5.433a22.916,22.916,0,0,1,.528-4.721,12.973,12.973,0,0,1,2.986-6.137,7.45,7.45,0,0,1,1.964-1.57" transform="translate(22.977 5.514)" fill="#375a64"/>
    <path id="Trazado_578" data-name="Trazado 578" d="M329.088,78.175c0,.005-.046.048-.148.126l-.458.334a6.039,6.039,0,0,1-.777.5,9.679,9.679,0,0,1-1.116.588,16.272,16.272,0,0,1-7.849,1.412,20.785,20.785,0,0,1-11.068-4.087,36,36,0,0,1-9.508-10.959c-1.334-2.22-2.42-4.5-3.619-6.6a24.349,24.349,0,0,0-4.1-5.583,12.523,12.523,0,0,0-5.284-3.207,8.959,8.959,0,0,0-2.786-.32,9.83,9.83,0,0,0-2.552.49,10.623,10.623,0,0,0-5.893,4.986,12.74,12.74,0,0,0-.946,2.75.634.634,0,0,1,.015-.193c.023-.152.051-.335.086-.561a9.207,9.207,0,0,1,.7-2.071,10.443,10.443,0,0,1,2.053-2.784,10.722,10.722,0,0,1,3.89-2.414,10.122,10.122,0,0,1,2.632-.534,9.264,9.264,0,0,1,2.9.309,12.808,12.808,0,0,1,5.464,3.266,24.463,24.463,0,0,1,4.188,5.658c1.213,2.118,2.3,4.388,3.622,6.588a36.008,36.008,0,0,0,9.372,10.858,20.644,20.644,0,0,0,10.854,4.1,16.517,16.517,0,0,0,7.762-1.261,25.907,25.907,0,0,0,2.567-1.393" transform="translate(25.314 4.64)" fill="#375a64"/>
    <path id="Trazado_579" data-name="Trazado 579" d="M327.5,68.412a2.862,2.862,0,0,1-.658.458,14.119,14.119,0,0,1-1.947.989,18.931,18.931,0,0,1-3.084,1.013,19.99,19.99,0,0,1-7.912.254,19.044,19.044,0,0,1-3.142-.813,14.254,14.254,0,0,1-2.006-.862,2.93,2.93,0,0,1-.686-.415c.036-.073,1.049.448,2.788.989a21.608,21.608,0,0,0,3.109.711,21.4,21.4,0,0,0,7.764-.249,21.5,21.5,0,0,0,3.056-.908c1.7-.651,2.678-1.236,2.719-1.166" transform="translate(28.567 6.343)" fill="#375a64"/>
    <path id="Trazado_580" data-name="Trazado 580" d="M313.09,93.975c-.365.37-2.482-1.333-5.553-1.416-3.066-.128-5.364,1.425-5.687,1.029-.16-.176.22-.853,1.221-1.556a7.7,7.7,0,0,1,4.567-1.3,7.421,7.421,0,0,1,4.407,1.6c.923.771,1.224,1.471,1.046,1.636" transform="translate(27.987 8.414)" fill="#1a2e35"/>
    <path id="Trazado_581" data-name="Trazado 581" d="M148.563,86.179c-.364.37-2.482-1.333-5.553-1.415-3.066-.129-5.364,1.424-5.687,1.028-.16-.176.22-.853,1.221-1.556a7.692,7.692,0,0,1,4.567-1.3,7.422,7.422,0,0,1,4.407,1.6c.923.77,1.225,1.471,1.046,1.636" transform="translate(12.731 7.691)" fill="#1a2e35"/>
    <path id="Trazado_582" data-name="Trazado 582" d="M174.188,87.238c-.365.37-2.482-1.333-5.553-1.416-3.066-.128-5.364,1.425-5.687,1.029-.16-.176.22-.853,1.221-1.556a7.7,7.7,0,0,1,4.567-1.3,7.422,7.422,0,0,1,4.407,1.6c.923.771,1.224,1.471,1.046,1.636" transform="translate(15.107 7.789)" fill="#1a2e35"/>
    <path id="Trazado_583" data-name="Trazado 583" d="M310.967,99.477A2.485,2.485,0,0,1,308.4,101.8,2.377,2.377,0,0,1,306,99.382a2.487,2.487,0,0,1,2.57-2.329,2.379,2.379,0,0,1,2.394,2.424" transform="translate(28.376 9)" fill="#1a2e35"/>
    <path id="Trazado_584" data-name="Trazado 584" d="M235.134,379.643c-3.963-69.515-8.712-142.351-12.708-173.618a19.575,19.575,0,0,0-8.306-13.612c-6.692-4.63-20.709-11.187-39.451-16.021V379.643Z" transform="translate(16.197 16.357)" fill="#292841"/>
    <path id="Trazado_585" data-name="Trazado 585" d="M112.222,383.248c-.732-27.935-3.779-143.362-4.567-173.449l17.288-16.578c-50.659-35.442-35.293-54.539-14.356-55.708-32.209,1.541-37.8,29.339-34.254,36.41a.026.026,0,0,0,.009.016.008.008,0,0,1,.008.009c.36.761-.2,2.443-9.37,6.8-10.723,5.011-36.992,14.238-52.463,29.05-24,37.055-10.864,83.459-11.465,173.449Z" transform="translate(0 12.752)" fill="#292841"/>
    <path id="Trazado_586" data-name="Trazado 586" d="M249.9,379.87C245.646,301,237.459,201.933,233.051,196.636c-7.345-8.827-37.374-25.548-145.536-22.269,0,0-70.645,17.855-81.139,45.216-6.407,16.7-.3,95.9,5.194,160.286Z" transform="translate(0.337 16.13)" fill="#ff9a78"/>
    <rect id="Rectángulo_149" data-name="Rectángulo 149" width="17.161" height="86.042" transform="translate(311.551 143.657)" fill="#1b75bb"/>
    <path id="Trazado_587" data-name="Trazado 587" d="M313.413,197.893c-3.007,1.36-6.545,1.35-9.785,2.157-3.432.85-6.492,2.592-9.861,3.613s-7.437,1.168-10.147-.893c1.052-1.944-2.7-3.315-3.208-5.43-.49-1.987,2.1-3.772,1.689-5.77-.351-1.636-2.55-2.529-3.029-4.144-.616-2.135,2.125-4.175,1.605-6.343-.468-2.018-3.549-3.113-3.475-5.174.074-1.966,3.124-3.581,2.423-5.3a1.4,1.4,0,0,0-.128-.256,5.4,5.4,0,0,0-1.136-1.051c-9.457-8.309,22.621-17.808,26.966-19,2.306-.627,5.664-.7,6.226,1.392.276.988-.3,2.083.107,3.028.372.861,1.391,1.3,2.124,1.966a2.2,2.2,0,0,1,.351.362c1.3,1.647-.106,4.069.9,5.865.392.7,1.116,1.211,1.551,1.892a6.2,6.2,0,0,1,.67,2.762c.542,5.451,2.784,10.7,3.209,16.16s-1.574,11.688-7.056,14.164" transform="translate(25.652 13.902)" fill="#ffc09d"/>
    <path id="Trazado_588" data-name="Trazado 588" d="M313.364,197.319c-3.007,1.36-6.545,1.35-9.785,2.157-3.432.85-6.492,2.592-9.861,3.613s-7.437,1.168-10.147-.893c1.052-1.944-2.7-3.315-3.208-5.43-.49-1.987,2.1-3.772,1.689-5.77-.351-1.636-2.55-2.529-3.029-4.144-.616-2.135,2.125-4.175,1.605-6.343-.468-2.018-3.549-3.113-3.475-5.174.074-1.966,3.124-3.581,2.423-5.3a3.4,3.4,0,0,1,1.806.86,1.948,1.948,0,0,1,.5,1.244c.308,2.4-.2,5.111,1.286,7.023.637.829,1.593,1.4,2.072,2.328a7.853,7.853,0,0,1,.509,2.783c.341,3.146,2.253,5.877,4.113,8.448a6.117,6.117,0,0,0,1.922,1.944c1.318.691,2.933.308,4.368-.106q4.781-1.418,9.456-3.188a17.948,17.948,0,0,0,4.909-2.529c3.379-2.721,4.526-7.481,4.038-11.795-.372-3.187-1.509-6.46-.563-9.531a5.934,5.934,0,0,0,.457-2.061,7.015,7.015,0,0,0-1.318-2.582c-1.168-2.114-.574-4.526.605-6.757a2.2,2.2,0,0,1,.351.362c1.3,1.647-.106,4.069.9,5.865.392.7,1.116,1.211,1.551,1.892a6.2,6.2,0,0,1,.67,2.762c.542,5.451,2.784,10.7,3.209,16.16s-1.574,11.688-7.056,14.164" transform="translate(25.7 14.476)" fill="#ff9b6c"/>
    <path id="Trazado_589" data-name="Trazado 589" d="M103.3,137.652l8.04-1.64,14.4,64.8-28.944-7.7s-44.945-49.356,6.508-55.463" transform="translate(7.29 12.612)" fill="#151528"/>
    <path id="Trazado_590" data-name="Trazado 590" d="M178.766,187.094l11.915-13.933s-33.617-26.325-51.92-27.352-.465,29.554-.465,29.554,29.638,5.558,40.47,11.732" transform="translate(12.102 13.518)" fill="#292841"/>
    <path id="Trazado_591" data-name="Trazado 591" d="M209.506,84.777H89.464a11.88,11.88,0,0,1-11.6-14.438l7.788-35.277,2.3-10.424L91.34,9.319A11.879,11.879,0,0,1,102.939,0h93.092a11.868,11.868,0,0,1,11.59,9.319l3.386,15.32,2.3,10.424L221.1,70.339a11.873,11.873,0,0,1-11.59,14.438" transform="translate(7.194)" fill="#292841"/>
    <path id="Trazado_592" data-name="Trazado 592" d="M212.624,32.972H84.966l2.3-10.424H210.322Z" transform="translate(7.879 2.091)" fill="#343451"/>
    <path id="Trazado_593" data-name="Trazado 593" d="M262.5,66.3c0,9.192-50.507,16.643-112.809,16.643S36.883,75.493,36.883,66.3,87.39,49.658,149.691,49.658,262.5,57.109,262.5,66.3" transform="translate(3.42 4.605)" fill="#1c1b29"/>
    <path id="Trazado_594" data-name="Trazado 594" d="M95.082,96.768A158.973,158.973,0,0,1,77.67,124.887a55.188,55.188,0,0,0,10.228,4.8c2.828-9.1,5.625-18.119,8.453-27.217a8.083,8.083,0,0,0,.52-2.816,4.113,4.113,0,0,0-1.79-2.888" transform="translate(7.202 8.973)"/>
    <path id="Trazado_595" data-name="Trazado 595" d="M209.654,60.928a46.53,46.53,0,0,1-3.092,8.948,58.681,58.681,0,0,1-9.911,14.887c-2.526,1.707-5.417-.675-6.886-3.346s-2.332-5.94-4.91-7.57c-2.4-1.521-5.6-1.057-8.17.177s-4.732,3.16-7.174,4.614a22.924,22.924,0,0,1-20,1.5c-5.567-2.265-11.068-6.861-16.823-5.129-3.144.946-5.492,3.692-6.76,6.726a33.593,33.593,0,0,0-1.977,9.616c-1.606,14.912-3.279,30.046-14.213,40.312A160.142,160.142,0,0,1,91.344,97.016c-2.932-7.655-5.29-15.657-5.535-23.852-.034-1.073-.025-2.146.034-3.228a38.688,38.688,0,0,1,1.478-9.218c16.917-.482,36.7-.761,57.837-.761,23.98,0,46.219.355,64.5.971" transform="translate(7.955 5.56)" fill="#1a2e35"/>
    <path id="Trazado_596" data-name="Trazado 596" d="M148.5,154.524v32.1s-2.214,13.612-14.88,11.72-32.615-20.591-32.293-26.921c.279-5.315,2.585-44.52,3.32-57.051.127-2.07.2-3.414.221-3.76a.755.755,0,0,0,.008-.084c5.451,27.774,43.625,44,43.625,44" transform="translate(9.396 10.249)" fill="#ffc09d"/>
    <path id="Trazado_597" data-name="Trazado 597" d="M148.219,154.524v6.7c-9.3,13.055-27.064-1.978-35.826-16.2-7.308-11.846-8.136-24.487-8.027-30.655a37.651,37.651,0,0,1,.221-3.76.755.755,0,0,0,.008-.084c5.451,27.774,43.625,44,43.625,44" transform="translate(9.677 10.249)" fill="#ff9b6c"/>
    <path id="Trazado_598" data-name="Trazado 598" d="M108.8,104.346l3.491,1.164c.388-13.188,6.206-13.576,5.818-18.618s-3.1-15.9,10.473-21.592,31.03,13.446,42.667,4.137,24.049,0,24.049,0,3.1,50.813,0,66.328-23.273,28.316-42.667,28.316-36.073-18.231-39.951-22.109-6.983-27.152-6.983-27.152c-4.01-.558-8.293-1.784-10.618-5.1a14.994,14.994,0,0,1-2.364-11.572c.641-3.027,2.605-6.1,5.638-6.7,2.974-.6,5.974,1.442,7.472,4.08a23.23,23.23,0,0,1,2.974,8.822" transform="translate(8.569 5.955)" fill="#ffc09d"/>
    <rect id="Rectángulo_150" data-name="Rectángulo 150" width="23.492" height="8.87" transform="translate(146.618 105.077)" fill="#fff"/>
    <rect id="Rectángulo_151" data-name="Rectángulo 151" width="22.592" height="8.87" transform="translate(180.19 105.077)" fill="#fff"/>
    <path id="Trazado_599" data-name="Trazado 599" d="M104.69,92.868l2.5,6.177s6.277.743,24.983,10.522,34.735-4.641,34.735-4.641c17.089,15.979,28.39,0,28.39,0V92.868Zm34.1,6.177h19.988s-10.3,14.154-19.988,0m33.739,0h19.989s-10.306,14.154-19.989,0" transform="translate(9.708 8.612)"/>
    <path id="Trazado_600" data-name="Trazado 600" d="M234.955,105.248c-1.673-3.9-3.373-7.926-3.531-12.188s1.59-8.88,5.269-10.814c3.4-1.788,7.58-.95,11.19-2.234,4.452-1.584,7.264-6.073,9.24-10.484s-.77-6.02,2.569-9.443c4.431-4.542,7.314-5.2,12.924-2.42,4.035-2.86,18.054-8.039,22.1-8.164,6-.184,12.826.294,17.014,4.593,3.25,3.336,5.313,7.578,9.3,9.981,5.487,3.306,12.48.494,18.881.729,1.306.048,2.826.38,3.365,1.57.465,1.029-.027,2.217-.516,3.236q-2.473,5.162-4.946,10.324a9.835,9.835,0,0,0,8.566-.209,29.1,29.1,0,0,1-7.6,18.309c1.136-.8,2.845.026,3.411,1.3a6.188,6.188,0,0,1-.058,4.091,29.951,29.951,0,0,1-40.683,19.725l-35.28,2.659a9,9,0,0,1-6.083,5.651c-3.951-2.924-4.583-4.565-4.583-4.565-2.431,1.808-.521.9-2.431,1.808-4.374,2.086-10.844-.389-11.83-5.263a10.311,10.311,0,0,0-2.346-5.378c-1.4-1.418-3.392-1.964-5.153-2.852a14.5,14.5,0,0,1-6.461-6.618,10.47,10.47,0,0,0,7.676-3.342" transform="translate(21.076 4.587)" fill="#1a2e35"/>
    <path id="Trazado_601" data-name="Trazado 601" d="M257.717,89.644c-18.836,7.115,4.285,63.737,42.591,62.712,0,0,18.56-1.513,20.127-19.845.756-8.86.83-27.234.7-43.857a34.27,34.27,0,0,0-31.785-33.9l-1.77-.129c-19.171-.279-30.118,15.848-29.867,35.02" transform="translate(23.278 5.065)" fill="#ffc09d"/>
    <path id="Trazado_602" data-name="Trazado 602" d="M287.466,92.916c-.364.37-2.483-1.333-5.553-1.415-3.066-.129-5.365,1.424-5.687,1.028-.16-.176.219-.853,1.221-1.556a7.686,7.686,0,0,1,4.565-1.3,7.422,7.422,0,0,1,4.408,1.6c.922.771,1.224,1.471,1.046,1.636" transform="translate(25.611 8.315)" fill="#1a2e35"/>
    <path id="Trazado_603" data-name="Trazado 603" d="M287.437,99.1a2.485,2.485,0,0,1-2.572,2.326A2.377,2.377,0,0,1,282.473,99a2.485,2.485,0,0,1,2.57-2.328,2.378,2.378,0,0,1,2.394,2.423" transform="translate(26.194 8.964)" fill="#1a2e35"/>
    <path id="Trazado_604" data-name="Trazado 604" d="M161.54,125.392c0-.162,1.774-.337,4.64-.492.726-.021,1.417-.115,1.575-.6a3.678,3.678,0,0,0-.325-2.169q-.826-2.688-1.73-5.638c-2.387-8.021-4.058-14.6-3.734-14.69s2.521,6.332,4.909,14.354q.856,2.967,1.637,5.665a4.189,4.189,0,0,1,.167,2.854,1.81,1.81,0,0,1-1.261.965,4.819,4.819,0,0,1-1.236.081c-2.869-.054-4.643-.17-4.642-.332" transform="translate(14.98 9.44)" fill="#1a2e35"/>
    <path id="Trazado_605" data-name="Trazado 605" d="M295.3,115.828c0-.162,1.774-.337,4.64-.492.726-.021,1.417-.115,1.575-.6a3.679,3.679,0,0,0-.325-2.169q-.826-2.688-1.73-5.637c-2.387-8.022-4.058-14.6-3.734-14.691s2.521,6.332,4.909,14.356q.856,2.965,1.637,5.663a4.189,4.189,0,0,1,.167,2.854,1.811,1.811,0,0,1-1.261.966,4.813,4.813,0,0,1-1.236.08c-2.87-.054-4.643-.169-4.642-.332" transform="translate(27.383 8.553)" fill="#1a2e35"/>
    <path id="Trazado_606" data-name="Trazado 606" d="M286.283,82.268c-.3.682-2.756.168-5.7.319-2.947.09-5.365.8-5.706.146-.151-.314.307-.941,1.308-1.548a9.64,9.64,0,0,1,8.689-.354c1.039.525,1.539,1.112,1.409,1.437" transform="translate(25.487 7.415)" fill="#1a2e35"/>
    <path id="Trazado_607" data-name="Trazado 607" d="M312.963,87.484c-.322.555-2.719-.061-5.623-.151-2.9-.142-5.315.282-5.622-.3-.134-.276.344-.775,1.357-1.215a10.138,10.138,0,0,1,4.3-.71,10.457,10.457,0,0,1,4.271,1.052c1,.521,1.463,1.057,1.321,1.322" transform="translate(27.976 7.891)" fill="#1a2e35"/>
    <path id="Trazado_608" data-name="Trazado 608" d="M258.706,99.282c-.3-.158-12.336-4.65-12.85,7.924s12.215,10.5,12.251,10.137.6-18.062.6-18.062" transform="translate(22.797 9.122)" fill="#ffc09d"/>
    <path id="Trazado_609" data-name="Trazado 609" d="M254.19,112.083c-.054-.043-.225.144-.6.3a2.2,2.2,0,0,1-1.639-.034c-1.308-.542-2.341-2.7-2.309-4.965a7.244,7.244,0,0,1,.742-3.111,2.534,2.534,0,0,1,1.717-1.614,1.116,1.116,0,0,1,1.268.653c.154.358.064.606.13.631.034.033.279-.2.2-.723a1.392,1.392,0,0,0-.462-.808,1.652,1.652,0,0,0-1.2-.369,3.077,3.077,0,0,0-2.368,1.855,7.451,7.451,0,0,0-.9,3.473c-.023,2.537,1.177,4.961,2.973,5.561a2.347,2.347,0,0,0,2.017-.25c.4-.3.48-.574.437-.6" transform="translate(23.068 9.462)" fill="#ff9b6c"/>
    <path id="Trazado_610" data-name="Trazado 610" d="M101.775,103.382c-.054-.043-.225.144-.6.3a2.2,2.2,0,0,1-1.639-.034c-1.308-.542-2.341-2.7-2.309-4.965a7.244,7.244,0,0,1,.742-3.111,2.534,2.534,0,0,1,1.717-1.614,1.116,1.116,0,0,1,1.268.653c.154.358.064.606.13.631.034.033.279-.2.2-.723a1.392,1.392,0,0,0-.462-.808,1.651,1.651,0,0,0-1.2-.369A3.077,3.077,0,0,0,97.251,95.2a7.451,7.451,0,0,0-.9,3.473c-.023,2.537,1.177,4.961,2.973,5.561a2.347,2.347,0,0,0,2.017-.25c.4-.3.48-.574.437-.6" transform="translate(8.934 8.655)" fill="#ff9b6c"/>
    <path id="Trazado_611" data-name="Trazado 611" d="M300.948,120.241c-.153-.31-2.309,1.093-5.192.921a14.1,14.1,0,0,1-3.63-.794c-.933-.309-1.551-.468-1.606-.337s.44.5,1.329.986a9.27,9.27,0,0,0,3.852,1.142,7.516,7.516,0,0,0,3.952-.862c.918-.481,1.356-.961,1.295-1.056" transform="translate(26.94 11.126)" fill="#1a2e35"/>
    <path id="Trazado_612" data-name="Trazado 612" d="M170.825,129.823c-.388-.539-4.029,2.8-9.543,3.375a27.082,27.082,0,0,1-7.126-.363c-1.865-.294-3.084-.4-3.147-.134-.06.249.989.806,2.825,1.45a17.821,17.821,0,0,0,7.656.953,14.448,14.448,0,0,0,7.214-2.874c1.587-1.2,2.266-2.247,2.121-2.407" transform="translate(14.003 12.033)" fill="#1a2e35"/>
    <path id="Trazado_613" data-name="Trazado 613" d="M242.389,83.92c2.62-4.434,3.231-9.726,4.663-14.674s4.188-10.074,9.04-11.8l.109.048c4.357-1.752,9.727-1.777,13.3,1.247.887-6.535,6.615-11.71,12.994-13.383s16.61-.676,22.728,1.787c4.729,1.9,9.3,5.8,14.859,11.534a61.73,61.73,0,0,1,6.415,7.775l5.547,17.127a7.336,7.336,0,0,1,1.559,1.567c2.205,3.008-1.916,6.781-4.713,4.313l-.049-.044a32.368,32.368,0,0,0-1.452,2.937v.023l-.1.186c-.284.611-.578,1.222-.933,1.826l0-.04-4.285,18.927c-.271-5.162.1-23.117-.166-28.279a28.789,28.789,0,0,1-20.515-9.475c-2.819-3.123-5.035-7.035-8.805-8.9-4.862-2.405-10.657-.655-15.78,1.124l.216-.195a22.971,22.971,0,0,0-7.1,5.125,71.559,71.559,0,0,1-3.1,30.286c-.481,1.464-1.792,4.479-3.229,5.034-2.825,1.092-3.584-1.783-5.283-3.311-1.251-1.124-3.108-1.27-5.136-1.264a112.263,112.263,0,0,1-3.451-13.047,11.473,11.473,0,0,1-5.279.352q.813-1.944,1.624-3.887a5.981,5.981,0,0,1-2.259,1.022,2.044,2.044,0,0,1-2.142-.932c-.479-.965.173-2.076.72-3" transform="translate(22.395 4.129)" fill="#1a2e35"/>
    <path id="Trazado_614" data-name="Trazado 614" d="M274.694,59.458a15.763,15.763,0,0,0-1.839,1.682,13.148,13.148,0,0,0-2.815,6.089,23.137,23.137,0,0,0-.469,4.662c-.008,1.688.128,3.5.257,5.4a48.238,48.238,0,0,1,.139,6.014,21.333,21.333,0,0,1-.414,3.172,6.6,6.6,0,0,1-1.294,3.077,2.767,2.767,0,0,1-2.589.87,4.112,4.112,0,0,1-2.328-1.316,9.491,9.491,0,0,1-1.768-4.663l.385.047a15.377,15.377,0,0,1-2.23,3.842,5.464,5.464,0,0,1-3.568,1.942,3.512,3.512,0,0,1-1.89-.331,3.047,3.047,0,0,1-1.285-1.264,3.148,3.148,0,0,1-.389-1.626,2.269,2.269,0,0,1,.589-1.426l.195.173a11.842,11.842,0,0,1-3.94,2.956,10.472,10.472,0,0,1-1.221.474,2.071,2.071,0,0,1-.437.108,2.254,2.254,0,0,1,.413-.176c.273-.113.679-.275,1.185-.532a12.2,12.2,0,0,0,3.8-3l.194.174a2.353,2.353,0,0,0-.121,2.725,2.748,2.748,0,0,0,1.162,1.119,3.188,3.188,0,0,0,1.713.28,5.118,5.118,0,0,0,3.311-1.847,15.158,15.158,0,0,0,2.149-3.759l.263-.588.121.635a9.194,9.194,0,0,0,1.683,4.455,3.706,3.706,0,0,0,2.084,1.177,2.334,2.334,0,0,0,2.2-.738,6.254,6.254,0,0,0,1.2-2.879,21,21,0,0,0,.411-3.107,49.193,49.193,0,0,0-.113-5.963c-.118-1.906-.243-3.722-.219-5.433a22.916,22.916,0,0,1,.528-4.721,12.973,12.973,0,0,1,2.986-6.137,7.45,7.45,0,0,1,1.964-1.57" transform="translate(22.977 5.514)" fill="#375a64"/>
    <path id="Trazado_615" data-name="Trazado 615" d="M329.088,78.175c0,.005-.046.048-.148.126l-.458.334a6.039,6.039,0,0,1-.777.5,9.679,9.679,0,0,1-1.116.588,16.272,16.272,0,0,1-7.849,1.412,20.785,20.785,0,0,1-11.068-4.087,36,36,0,0,1-9.508-10.959c-1.334-2.22-2.42-4.5-3.619-6.6a24.349,24.349,0,0,0-4.1-5.583,12.523,12.523,0,0,0-5.284-3.207,8.959,8.959,0,0,0-2.786-.32,9.83,9.83,0,0,0-2.552.49,10.623,10.623,0,0,0-5.893,4.986,12.74,12.74,0,0,0-.946,2.75.634.634,0,0,1,.015-.193c.023-.152.051-.335.086-.561a9.207,9.207,0,0,1,.7-2.071,10.443,10.443,0,0,1,2.053-2.784,10.722,10.722,0,0,1,3.89-2.414,10.122,10.122,0,0,1,2.632-.534,9.264,9.264,0,0,1,2.9.309,12.808,12.808,0,0,1,5.464,3.266,24.463,24.463,0,0,1,4.188,5.658c1.213,2.118,2.3,4.388,3.622,6.588a36.008,36.008,0,0,0,9.372,10.858,20.644,20.644,0,0,0,10.854,4.1,16.517,16.517,0,0,0,7.762-1.261,25.907,25.907,0,0,0,2.567-1.393" transform="translate(25.314 4.64)" fill="#375a64"/>
    <path id="Trazado_616" data-name="Trazado 616" d="M327.5,68.412a2.862,2.862,0,0,1-.658.458,14.119,14.119,0,0,1-1.947.989,18.931,18.931,0,0,1-3.084,1.013,19.99,19.99,0,0,1-7.912.254,19.044,19.044,0,0,1-3.142-.813,14.254,14.254,0,0,1-2.006-.862,2.93,2.93,0,0,1-.686-.415c.036-.073,1.049.448,2.788.989a21.608,21.608,0,0,0,3.109.711,21.4,21.4,0,0,0,7.764-.249,21.5,21.5,0,0,0,3.056-.908c1.7-.651,2.678-1.236,2.719-1.166" transform="translate(28.567 6.343)" fill="#375a64"/>
    <path id="Trazado_617" data-name="Trazado 617" d="M313.09,93.975c-.365.37-2.482-1.333-5.553-1.416-3.066-.128-5.364,1.425-5.687,1.029-.16-.176.22-.853,1.221-1.556a7.7,7.7,0,0,1,4.567-1.3,7.421,7.421,0,0,1,4.407,1.6c.923.771,1.224,1.471,1.046,1.636" transform="translate(27.987 8.414)" fill="#1a2e35"/>
    <path id="Trazado_618" data-name="Trazado 618" d="M148.563,86.179c-.364.37-2.482-1.333-5.553-1.415-3.066-.129-5.364,1.424-5.687,1.028-.16-.176.22-.853,1.221-1.556a7.692,7.692,0,0,1,4.567-1.3,7.422,7.422,0,0,1,4.407,1.6c.923.77,1.225,1.471,1.046,1.636" transform="translate(12.731 7.691)" fill="#1a2e35"/>
    <path id="Trazado_619" data-name="Trazado 619" d="M174.188,87.238c-.365.37-2.482-1.333-5.553-1.416-3.066-.128-5.364,1.425-5.687,1.029-.16-.176.22-.853,1.221-1.556a7.7,7.7,0,0,1,4.567-1.3,7.422,7.422,0,0,1,4.407,1.6c.923.771,1.224,1.471,1.046,1.636" transform="translate(15.107 7.789)" fill="#1a2e35"/>
    <path id="Trazado_620" data-name="Trazado 620" d="M310.967,99.477A2.485,2.485,0,0,1,308.4,101.8,2.377,2.377,0,0,1,306,99.382a2.487,2.487,0,0,1,2.57-2.329,2.379,2.379,0,0,1,2.394,2.424" transform="translate(28.376 9)" fill="#1a2e35"/>
    <path id="Trazado_621" data-name="Trazado 621" d="M235.134,379.643c-3.963-69.515-8.712-142.351-12.708-173.618a19.575,19.575,0,0,0-8.306-13.612c-6.692-4.63-20.709-11.187-39.451-16.021V379.643Z" transform="translate(16.197 16.357)" fill="#292841"/>
    <path id="Trazado_622" data-name="Trazado 622" d="M112.222,383.248c-.732-27.935-3.779-143.362-4.567-173.449l17.288-16.578c-50.659-35.442-35.293-54.539-14.356-55.708-32.209,1.541-37.8,29.339-34.254,36.41a.026.026,0,0,0,.009.016.008.008,0,0,1,.008.009c.36.761-.2,2.443-9.37,6.8-10.723,5.011-36.992,14.238-52.463,29.05-24,37.055-10.864,83.459-11.465,173.449Z" transform="translate(0 12.752)" fill="#292841"/>
    <path id="Trazado_623" data-name="Trazado 623" d="M239.821,378.316H268q-1.7-5.471-3.179-11.008a277.85,277.85,0,0,1-9.328-77.084L219.68,197.7c-22.382-22.332-44.436,6.674-7.765,118.335,9.064,27.606,18.538,47.824,27.906,62.28" transform="translate(17.836 17.684)" fill="#151528"/>
  </g>
</svg>
