<svg id="Grupo_182" data-name="Grupo 182" xmlns="http://www.w3.org/2000/svg" xmlns:xlink="http://www.w3.org/1999/xlink" width="392.118" height="349.416" viewBox="0 0 392.118 349.416">
  <defs>
    <clipPath id="clip-path">
      <rect id="Rectángulo_143" data-name="Rectángulo 143" width="392.118" height="349.416" fill="none"/>
    </clipPath>
    <clipPath id="clip-path-3">
      <rect id="Rectángulo_130" data-name="Rectángulo 130" width="136.62" height="133.05" fill="none"/>
    </clipPath>
    <clipPath id="clip-path-4">
      <rect id="Rectángulo_131" data-name="Rectángulo 131" width="37.457" height="20.164" fill="none"/>
    </clipPath>
    <clipPath id="clip-path-5">
      <rect id="Rectángulo_132" data-name="Rectángulo 132" width="61.848" height="68.09" fill="none"/>
    </clipPath>
    <clipPath id="clip-path-6">
      <rect id="Rectángulo_133" data-name="Rectángulo 133" width="8.831" height="17.385" fill="none"/>
    </clipPath>
    <clipPath id="clip-path-7">
      <rect id="Rectángulo_134" data-name="Rectángulo 134" width="110.667" height="100.533" fill="none"/>
    </clipPath>
    <clipPath id="clip-path-8">
      <rect id="Rectángulo_135" data-name="Rectángulo 135" width="5.803" height="83.445" fill="none"/>
    </clipPath>
    <clipPath id="clip-path-9">
      <rect id="Rectángulo_136" data-name="Rectángulo 136" width="23.175" height="46.847" fill="none"/>
    </clipPath>
    <clipPath id="clip-path-10">
      <rect id="Rectángulo_137" data-name="Rectángulo 137" width="30.602" height="9.506" fill="none"/>
    </clipPath>
    <clipPath id="clip-path-11">
      <rect id="Rectángulo_138" data-name="Rectángulo 138" width="37.714" height="12.159" fill="none"/>
    </clipPath>
    <clipPath id="clip-path-12">
      <rect id="Rectángulo_139" data-name="Rectángulo 139" width="35.295" height="11.896" fill="none"/>
    </clipPath>
    <clipPath id="clip-path-13">
      <rect id="Rectángulo_140" data-name="Rectángulo 140" width="97.676" height="21.839" fill="none"/>
    </clipPath>
    <clipPath id="clip-path-14">
      <rect id="Rectángulo_141" data-name="Rectángulo 141" width="85.175" height="11.318" fill="none"/>
    </clipPath>
  </defs>
  <g id="Grupo_181" data-name="Grupo 181" clip-path="url(#clip-path)">
    <g id="Grupo_180" data-name="Grupo 180">
      <g id="Grupo_179" data-name="Grupo 179" clip-path="url(#clip-path)">
        <path id="Trazado_489" data-name="Trazado 489" d="M290.078,131.379c7.891,4.306,18.26-.239,23.426-7.6s6.445-16.67,7.576-25.589l4.379-34.519c1.281-10.1,3.585-18.4.286-30.4-3.821-13.909-21.5-17.837-21.5-17.837s-7.809-7.192-12.319-10.169C284.494.357,276.878-.72,268.9.409a80.463,80.463,0,0,0-34.222,13.718,35.053,35.053,0,0,1-20.557,6.394,21.707,21.707,0,0,1-2.613-.173c-4.964-.7-14.347-3.917-16.829,2.4s5.416,17.6,5.416,17.6-8.8-2.247-9.252,4.969,9.445,24.616,26.725,24.83" transform="translate(-19.409 0)" fill="#ff4f5b"/>
        <g id="Grupo_145" data-name="Grupo 145" transform="translate(171.414)" opacity="0.3">
          <g id="Grupo_144" data-name="Grupo 144">
            <g id="Grupo_143" data-name="Grupo 143" clip-path="url(#clip-path-3)">
              <path id="Trazado_490" data-name="Trazado 490" d="M290.078,131.379c7.891,4.306,18.26-.239,23.426-7.6s6.445-16.67,7.576-25.589l4.379-34.519c1.281-10.1,3.585-18.4.286-30.4-3.821-13.909-21.5-17.837-21.5-17.837s-7.809-7.192-12.319-10.169C284.494.357,276.878-.72,268.9.409a80.463,80.463,0,0,0-34.222,13.718,35.053,35.053,0,0,1-20.557,6.394,21.707,21.707,0,0,1-2.613-.173c-4.964-.7-14.347-3.917-16.829,2.4s5.416,17.6,5.416,17.6-8.8-2.247-9.252,4.969,9.445,24.616,26.725,24.83" transform="translate(-190.823 0)"/>
            </g>
          </g>
        </g>
        <path id="Trazado_491" data-name="Trazado 491" d="M378.639,211.463c-6.187-23.507-27.691-29.855-27.691-29.855l-.008.065c-19.616-7.812-30.763-8.5-58.568-16.358L294.2,70.1c1.356-30.281-15.136-56.31-45.443-56.826l-2.8.116a54.177,54.177,0,0,0-51.916,51.978c-1.029,26.26-1.832,55.3-1.078,69.333,1.559,29.044,30.812,32.363,30.812,32.363.02.444,0,2.462-.05,5.445-1.31,0-17.005,2.117-33.778,5.531-10.6-3.223-41.962-11.673-62.016-5.634h0c-17.612.883-62.867,4.12-93.228,14.88C17.928,193.229-.03,207.149,0,227.713c.029,19.354,23.411,24.634,47.044,26.142,16.733,1.069,45.93-1.284,61.554-2.749l57.812,30.12,4.39,22.306,3.625,46.28,163.024-.229,54.668-.011s-7.291-114.6-13.478-138.11" transform="translate(0 -1.35)" fill="#ff4f5b"/>
        <g id="Grupo_148" data-name="Grupo 148" transform="translate(223.685 152.965)" opacity="0.3">
          <g id="Grupo_147" data-name="Grupo 147">
            <g id="Grupo_146" data-name="Grupo 146" clip-path="url(#clip-path-4)">
              <path id="Trazado_492" data-name="Trazado 492" d="M249.095,183.034s18.362.318,37.375-12.749c0,0-8.351,21.516-37.457,20.1Z" transform="translate(-249.013 -170.285)"/>
            </g>
          </g>
        </g>
        <g id="Grupo_151" data-name="Grupo 151" transform="translate(200.666 61.357)" opacity="0.3">
          <g id="Grupo_150" data-name="Grupo 150">
            <g id="Grupo_149" data-name="Grupo 149" clip-path="url(#clip-path-5)">
              <path id="Trazado_493" data-name="Trazado 493" d="M227.936,95.849a4.153,4.153,0,0,0,4.174,4.022,3.973,3.973,0,0,0,4.123-3.918,4.156,4.156,0,0,0-4.17-4.025,3.977,3.977,0,0,0-4.128,3.922" transform="translate(-223.851 -70.708)"/>
              <path id="Trazado_494" data-name="Trazado 494" d="M223.463,86.017c.537.519,3.584-1.937,8.051-2.109,4.458-.237,7.831,1.925,8.292,1.358.228-.252-.336-1.207-1.806-2.187a11.4,11.4,0,0,0-6.667-1.757,10.943,10.943,0,0,0-6.381,2.354c-1.329,1.111-1.754,2.108-1.49,2.341" transform="translate(-223.388 -69.628)"/>
              <path id="Trazado_495" data-name="Trazado 495" d="M272.1,95.849a4.154,4.154,0,0,0,4.174,4.022,3.973,3.973,0,0,0,4.124-3.918,4.157,4.157,0,0,0-4.172-4.024,3.975,3.975,0,0,0-4.127,3.921" transform="translate(-228.342 -70.708)"/>
              <path id="Trazado_496" data-name="Trazado 496" d="M271.333,85.231c.538.52,3.59-1.936,8.053-2.109,4.457-.236,7.83,1.926,8.292,1.359.227-.252-.331-1.207-1.807-2.187a11.393,11.393,0,0,0-6.665-1.758,10.958,10.958,0,0,0-6.381,2.355C271.5,84,271.071,85,271.333,85.231" transform="translate(-228.257 -69.548)"/>
              <path id="Trazado_497" data-name="Trazado 497" d="M254.691,119.155c.011-.255-2.785-.62-7.307-1.01-1.145-.07-2.234-.252-2.459-1.022-.3-.813.124-2.062.622-3.412q1.438-4.205,3.014-8.822c4.173-12.557,7.142-22.862,6.636-23.027s-4.3,9.881-8.474,22.438q-1.5,4.643-2.869,8.869c-.377,1.313-1.059,2.814-.407,4.5a2.864,2.864,0,0,0,1.944,1.59,7.749,7.749,0,0,0,1.948.19c4.536.056,7.345-.04,7.352-.294" transform="translate(-225.401 -69.684)"/>
              <path id="Trazado_498" data-name="Trazado 498" d="M261,142.7c.725.071.928-4.776,5.215-8.05s9.426-2.535,9.491-3.211c.079-.3-1.114-.987-3.292-1.135a12.084,12.084,0,0,0-7.912,2.406,10.526,10.526,0,0,0-4.061,6.763c-.266,2.019.226,3.241.56,3.227" transform="translate(-227.149 -74.608)"/>
              <path id="Trazado_499" data-name="Trazado 499" d="M289.881,68.513c-.9-.925-4.731,1.438-9.769,3.024-5.007,1.687-9.492,2.03-9.677,3.309-.067.6,1.075,1.341,3.118,1.709a17.773,17.773,0,0,0,14.815-4.825c1.435-1.5,1.924-2.769,1.514-3.217" transform="translate(-228.173 -68.305)"/>
              <path id="Trazado_500" data-name="Trazado 500" d="M239.056,73.752c-.406-1.218-3.661-1.241-7.172-2.418-3.551-1.055-6.227-2.905-7.259-2.141-.469.382-.34,1.5.636,2.864a10.958,10.958,0,0,0,11.627,3.674c1.58-.552,2.331-1.4,2.168-1.979" transform="translate(-223.487 -68.377)"/>
            </g>
          </g>
        </g>
        <path id="Trazado_501" data-name="Trazado 501" d="M325.858,100.461c.487-.235,19.724-6.731,19.91,13.163S325.942,129.6,325.9,129.031s-.045-28.57-.045-28.57" transform="translate(-33.144 -10.097)" fill="#ff4f5b"/>
        <g id="Grupo_154" data-name="Grupo 154" transform="translate(298.746 95.567)" opacity="0.3">
          <g id="Grupo_153" data-name="Grupo 153">
            <g id="Grupo_152" data-name="Grupo 152" clip-path="url(#clip-path-6)">
              <path id="Trazado_502" data-name="Trazado 502" d="M332.592,122.163c.087-.065.349.239.938.5a3.464,3.464,0,0,0,2.591.029c2.094-.79,3.832-4.144,3.9-7.731A11.452,11.452,0,0,0,339,110.011a4,4,0,0,0-2.632-2.636,1.765,1.765,0,0,0-2.036.969c-.261.558-.131.954-.236.989-.055.051-.429-.329-.278-1.152a2.211,2.211,0,0,1,.772-1.253,2.613,2.613,0,0,1,1.912-.525c1.535.092,2.929,1.49,3.649,3.051a11.77,11.77,0,0,1,1.253,5.533c-.09,4.01-2.106,7.78-4.975,8.638a3.71,3.71,0,0,1-3.175-.5c-.621-.486-.729-.929-.661-.966" transform="translate(-332.574 -106.388)"/>
            </g>
          </g>
        </g>
        <path id="Trazado_503" data-name="Trazado 503" d="M213.327,53.654c9.158,7.48,26.664.872,37.854-2.952s19.35-12.04,30.353-16.373a24.8,24.8,0,0,1,9.126-2.123,10.505,10.505,0,0,1,8.32,3.694c2.1,2.747,2.2,6.566,1.415,9.931s-2.347,6.5-3.319,9.816c-1.786,6.095-1.524,12.576-1.248,18.921.389,8.927.881,18.23,5.259,26.02,1.73,3.079,5.176,6.151,8.4,4.7,3.673-1.655,2.972-6.982,4.314-10.78,1.373-3.881,5.167-6.345,7.364-9.825,2.246-3.561,2.681-7.947,2.8-12.156.38-13.793-2.133-27.87-8.8-39.949s-17.754-22-31.03-25.753c-13.817-3.91-29.136-.85-41.248,6.865s-21.125,19.76-26.569,33.049" transform="translate(-21.698 -0.521)" fill="#ff4f5b"/>
        <g id="Grupo_157" data-name="Grupo 157" transform="translate(191.629 4.603)" opacity="0.3">
          <g id="Grupo_156" data-name="Grupo 156">
            <g id="Grupo_155" data-name="Grupo 155" clip-path="url(#clip-path-7)">
              <path id="Trazado_504" data-name="Trazado 504" d="M213.327,53.654c9.158,7.48,26.664.872,37.854-2.952s19.35-12.04,30.353-16.373a24.8,24.8,0,0,1,9.126-2.123,10.505,10.505,0,0,1,8.32,3.694c2.1,2.747,2.2,6.566,1.415,9.931s-2.347,6.5-3.319,9.816c-1.786,6.095-1.524,12.576-1.248,18.921.389,8.927.881,18.23,5.259,26.02,1.73,3.079,5.176,6.151,8.4,4.7,3.673-1.655,2.972-6.982,4.314-10.78,1.373-3.881,5.167-6.345,7.364-9.825,2.246-3.561,2.681-7.947,2.8-12.156.38-13.793-2.133-27.87-8.8-39.949s-17.754-22-31.03-25.753c-13.817-3.91-29.136-.85-41.248,6.865s-21.125,19.76-26.569,33.049" transform="translate(-213.327 -5.124)"/>
            </g>
          </g>
        </g>
        <g id="Grupo_160" data-name="Grupo 160" transform="translate(322.665 265.566)" opacity="0.3">
          <g id="Grupo_159" data-name="Grupo 159">
            <g id="Grupo_158" data-name="Grupo 158" clip-path="url(#clip-path-8)">
              <path id="Trazado_505" data-name="Trazado 505" d="M364.994,379.081c-.128.009-1.528-18.665-3.125-41.7s-2.787-41.732-2.659-41.741,1.528,18.661,3.125,41.708,2.787,41.727,2.659,41.736" transform="translate(-359.201 -295.636)"/>
            </g>
          </g>
        </g>
        <g id="Grupo_163" data-name="Grupo 163" transform="translate(323.606 192.373)" opacity="0.3">
          <g id="Grupo_162" data-name="Grupo 162">
            <g id="Grupo_161" data-name="Grupo 161" clip-path="url(#clip-path-9)">
              <path id="Trazado_506" data-name="Trazado 506" d="M383.423,214.157a2.545,2.545,0,0,1-.453.336l-1.341.882-.975.627c-.348.241-.706.531-1.1.827a31.916,31.916,0,0,0-2.618,2.095l-1.462,1.291c-.5.454-.973.984-1.489,1.5a45.84,45.84,0,0,0-3.085,3.493,47.853,47.853,0,0,0-9.167,19.108,46.045,46.045,0,0,0-.794,4.593c-.079.726-.2,1.424-.237,2.1s-.063,1.327-.092,1.948a32.435,32.435,0,0,0,0,3.354c.018.494.015.955.046,1.377s.084.8.12,1.152c.062.654.112,1.183.152,1.6a2.625,2.625,0,0,1,.022.563,2.506,2.506,0,0,1-.115-.549l-.239-1.592-.162-1.153c-.044-.424-.054-.887-.084-1.383a30.308,30.308,0,0,1-.075-3.377q.03-.94.063-1.965c.029-.683.141-1.387.213-2.12a44.615,44.615,0,0,1,.758-4.642,46.87,46.87,0,0,1,9.251-19.282,44.456,44.456,0,0,1,3.145-3.5c.526-.516,1.006-1.044,1.521-1.494l1.493-1.28a30.355,30.355,0,0,1,2.68-2.054c.406-.287.773-.569,1.131-.8l1-.6,1.391-.81a2.488,2.488,0,0,1,.5-.254" transform="translate(-360.248 -214.156)"/>
            </g>
          </g>
        </g>
        <path id="Trazado_507" data-name="Trazado 507" d="M127.65,124.04c-10.267,6.533-14.364,20.222-12.407,28.312.987,4.077,2.839,8.181,2.03,12.3-.7,3.557-3.255,6.4-5.17,9.481A28.572,28.572,0,0,0,147.808,215.4" transform="translate(-10.983 -12.617)" fill="#1a2e35"/>
        <path id="Trazado_508" data-name="Trazado 508" d="M122.437,175.012c-24.973-54.928,34.43-82.524,66.846-73.368,30.463,8.6,43.456,23.764,48.469,44.139s4.774,42.459-3.213,61.872c-3.94,9.572-11.034,19.3-21.315,20.493" transform="translate(-11.846 -10.163)" fill="#1a2e35"/>
        <path id="Trazado_509" data-name="Trazado 509" d="M71.264,345.654c-8.384-5.173-14.2-17.243-12.865-25.889s5.713-17.261,13.319-21.584c5.128-2.914,11.74-4.019,14.988-8.942,2.87-4.349,2.031-10.213,4.177-14.961,1.733-3.835,5.3-6.6,9.17-8.246s8.08-2.3,12.238-2.949l26.768-4.15c2.959-.459,6.289-.831,8.672.982s2.916,5.156,3.226,8.149a507.688,507.688,0,0,1,2.581,62.77" transform="translate(-5.921 -26.299)" fill="#1a2e35"/>
        <path id="Trazado_510" data-name="Trazado 510" d="M152.1,290.969c-.431-26.243-.49-41.859-.5-41.71,0,0-22.559-3.746-27.232-33.178-2.324-14.637-1.588-38.636-.353-58.253,1.113-17.658,12.811-39.322,30.405-37.46l54.938,13.885a10.354,10.354,0,0,1,9.262,10.5l-3.415,130.041" transform="translate(-12.496 -12.232)" fill="#ffc09d"/>
        <path id="Trazado_511" data-name="Trazado 511" d="M156.809,206.525c.019-.231-2.506-.667-6.6-1.19-1.038-.107-2.019-.313-2.195-1.02-.244-.75.19-1.868.693-3.075q1.463-3.765,3.068-7.9c4.26-11.245,7.343-20.492,6.888-20.659s-4.276,8.811-8.535,20.056q-1.537,4.16-2.938,7.945c-.393,1.179-1.068,2.515-.538,4.07a2.605,2.605,0,0,0,1.7,1.517,7.062,7.062,0,0,0,1.762.244c4.117.222,6.672.241,6.687.009" transform="translate(-14.897 -17.564)" fill="#1a2e35"/>
        <path id="Trazado_512" data-name="Trazado 512" d="M154.857,262.675a74.881,74.881,0,0,0,39.418-10.514s-9.96,20.475-39.418,17.721Z" transform="translate(-15.751 -25.648)" fill="#ff9b6c"/>
        <path id="Trazado_513" data-name="Trazado 513" d="M159.847,220.942a7.319,7.319,0,0,1,6.561-2.718,6.679,6.679,0,0,1,4.614,2.476,4.233,4.233,0,0,1,.322,4.841c-1.1,1.541-3.387,1.9-5.325,1.347a15.377,15.377,0,0,1-5.191-3.1,4.5,4.5,0,0,1-1.16-1.2,1.358,1.358,0,0,1,.005-1.512" transform="translate(-16.217 -22.192)" fill="#ff9b6c"/>
        <path id="Trazado_514" data-name="Trazado 514" d="M161.007,228.567c.631.2,1.739-4.065,6.175-6.153s8.858-.447,9.046-1.036c.128-.252-.8-1.09-2.707-1.638a10.971,10.971,0,0,0-7.489.623,9.556,9.556,0,0,0-4.9,5.23c-.623,1.743-.419,2.923-.121,2.973" transform="translate(-16.348 -22.311)" fill="#1a2e35"/>
        <path id="Trazado_515" data-name="Trazado 515" d="M172.355,168.562c.4,1.1,4.456.58,9.221,1.155,4.779.479,8.621,1.874,9.253.883.282-.474-.388-1.513-1.942-2.582a16.156,16.156,0,0,0-14.074-1.554c-1.749.705-2.629,1.573-2.458,2.1" transform="translate(-17.529 -16.835)" fill="#1a2e35"/>
        <path id="Trazado_516" data-name="Trazado 516" d="M223.66,190.3c.431-.208,15.754-6.984,15.934,10.637S222.045,215.1,222.01,214.594s1.65-24.3,1.65-24.3" transform="translate(-22.582 -19.208)" fill="#ffc09d"/>
        <path id="Trazado_517" data-name="Trazado 517" d="M227.924,208.435c.076-.057.309.211.83.444a3.066,3.066,0,0,0,2.3.024c1.855-.7,3.392-3.674,3.445-6.85a10.134,10.134,0,0,0-.9-4.387,3.547,3.547,0,0,0-2.333-2.332,1.563,1.563,0,0,0-1.8.86c-.231.495-.115.846-.208.877-.049.045-.381-.291-.246-1.02a1.957,1.957,0,0,1,.682-1.111,2.317,2.317,0,0,1,1.693-.466,4.314,4.314,0,0,1,3.234,2.7,10.425,10.425,0,0,1,1.115,4.9c-.077,3.552-1.861,6.893-4.4,7.655a3.288,3.288,0,0,1-2.813-.438c-.55-.428-.647-.822-.586-.854" transform="translate(-23.182 -19.779)" fill="#ff9b6c"/>
        <path id="Trazado_518" data-name="Trazado 518" d="M150.179,110.5c-9.8,5.066-13.839,25.123-9.782,35.385s14.987,15.275,25.766,17.637,21.348,2.641,31.979-.316c.74,7.149,5.026,14.488,11.962,16.374,9.183,2.5,18.439-5.912,20.483-15.206s-1.019-18.868-4.044-27.891" transform="translate(-14.121 -11.24)" fill="#1a2e35"/>
        <path id="Trazado_519" data-name="Trazado 519" d="M234.446,180.241c.042.056-.44.513-1.358,1.285a47.769,47.769,0,0,1-4.065,3.066,24.877,24.877,0,0,1-6.851,3.316,14.831,14.831,0,0,1-9.351-.137,14.5,14.5,0,0,1-7.078-6.118,19.622,19.622,0,0,1-2.536-7.194,26.071,26.071,0,0,1-.278-5.1,5.781,5.781,0,0,1,.23-1.859c.194,0-.016,2.679.755,6.836a20.076,20.076,0,0,0,2.624,6.824,13.915,13.915,0,0,0,6.643,5.663,14.252,14.252,0,0,0,8.739.185,26.126,26.126,0,0,0,6.716-3.019c3.6-2.251,5.705-3.888,5.809-3.743" transform="translate(-20.638 -17.037)" fill="#1a2e35"/>
        <path id="Trazado_520" data-name="Trazado 520" d="M301.048,290.994c-.293-6.359-4.647-11.972-9.994-15.427s-11.627-5.111-17.793-6.693c4.233-8.2,1.33-19.37-6.36-24.471-4.161-2.76-9.461-3.926-12.764-7.67-2.61-2.958-3.512-7.1-3.412-11.043s1.1-7.8,1.853-11.671a95.773,95.773,0,0,0-1.088-41.362l-1.923,7.786-4.491,11.983-7.054,24.556L227.258,222.5c-.573,9.916-.23,20.645-.8,30.561l19.447,9.62.21.419Z" transform="translate(-23.034 -17.562)" fill="#1a2e35"/>
        <path id="Trazado_521" data-name="Trazado 521" d="M231.593,184.654a1.669,1.669,0,0,1,.037-.326l.155-.947a35.34,35.34,0,0,0,.366-3.664,33.2,33.2,0,0,0-2.115-13.265,32.056,32.056,0,0,0-4.527-8.112A33.049,33.049,0,0,0,217.7,151.1a32,32,0,0,0-10.8-4.6,54.928,54.928,0,0,0-12.644-1.011c-4.367.057-8.645.261-12.784.075a37.483,37.483,0,0,1-11.711-2.2,31.167,31.167,0,0,1-9.212-5.6,32.785,32.785,0,0,1-6.142-7.11A31.842,31.842,0,0,1,149.627,118q-.121-1.194-.216-2.126c-.049-.616-.021-1.142-.031-1.564,0-.4,0-.72,0-.961a1.692,1.692,0,0,1,.017-.326,1.648,1.648,0,0,1,.031.327c.011.24.025.557.043.958.026.42.012.943.075,1.556s.161,1.32.257,2.109a32.289,32.289,0,0,0,4.875,12.505,32.7,32.7,0,0,0,6.119,7,30.906,30.906,0,0,0,9.111,5.487,37.223,37.223,0,0,0,11.578,2.14c4.11.179,8.377-.027,12.757-.085A55.035,55.035,0,0,1,207,146.05a32.3,32.3,0,0,1,10.943,4.688,33.257,33.257,0,0,1,7.874,7.364,32.149,32.149,0,0,1,4.53,8.234,32.728,32.728,0,0,1,1.987,13.39,24.243,24.243,0,0,1-.739,4.928" transform="translate(-15.194 -11.496)" fill="#375a64"/>
        <path id="Trazado_522" data-name="Trazado 522" d="M243.32,166.262a1.483,1.483,0,0,1,0-.3c.013-.223.03-.514.05-.88a30.144,30.144,0,0,0-.627-8.673,31.3,31.3,0,0,0-2.19-6.708,32.1,32.1,0,0,0-11.727-13.815,37.808,37.808,0,0,0-9.9-4.366,71.031,71.031,0,0,0-11.461-2.205c-7.961-.923-15.652-1.188-22.5-2.608a48.019,48.019,0,0,1-9.481-2.874,33.311,33.311,0,0,1-7.418-4.412,27.165,27.165,0,0,1-5-5.076,22.52,22.52,0,0,1-2.669-4.668,15.967,15.967,0,0,1-.658-1.849,11.114,11.114,0,0,1-.362-1.391c-.068-.361-.122-.648-.163-.868a1.378,1.378,0,0,1-.04-.3,1.438,1.438,0,0,1,.087.289c.053.216.121.5.208.855a12.643,12.643,0,0,0,.4,1.37,16.8,16.8,0,0,0,.693,1.82,22.942,22.942,0,0,0,2.71,4.581,27.15,27.15,0,0,0,4.991,4.974,33.214,33.214,0,0,0,7.367,4.316,48,48,0,0,0,9.413,2.807c6.812,1.389,14.481,1.641,22.474,2.566a70.645,70.645,0,0,1,11.534,2.23,37.991,37.991,0,0,1,10,4.442,32.23,32.23,0,0,1,11.8,14.043A31.035,31.035,0,0,1,243,156.354a31.848,31.848,0,0,1,.609,5.341,28.218,28.218,0,0,1-.144,3.393c-.04.366-.072.655-.1.878a1.432,1.432,0,0,1-.048.3" transform="translate(-16.19 -10.707)" fill="#375a64"/>
        <path id="Trazado_523" data-name="Trazado 523" d="M250,266.693a2.662,2.662,0,0,1-.492-.3c-.308-.214-.784-.5-1.348-.941a36.155,36.155,0,0,1-4.532-4.005,38.658,38.658,0,0,1-9.534-37.075,36.1,36.1,0,0,1,2.037-5.7c.281-.656.561-1.138.727-1.474a2.64,2.64,0,0,1,.288-.5,2.642,2.642,0,0,1-.2.537c-.139.349-.391.841-.645,1.506a41.046,41.046,0,0,0-1.885,5.705,39.26,39.26,0,0,0,9.455,36.765,41.061,41.061,0,0,0,4.4,4.089c.543.459,1,.769,1.292,1.007a2.69,2.69,0,0,1,.437.373" transform="translate(-23.675 -22.043)" fill="#375a64"/>
        <path id="Trazado_524" data-name="Trazado 524" d="M51.228,316.454a1.633,1.633,0,0,1-.107-.3,2.909,2.909,0,0,1-.122-.915,4.5,4.5,0,0,1,3.859-4.207,4.784,4.784,0,0,1,2.975.693,5.826,5.826,0,0,1,2.672,6.537,7.554,7.554,0,0,1-2.253,3.705,7.125,7.125,0,0,1-4.29,1.9,9.238,9.238,0,0,1-8.59-5.036,12.145,12.145,0,0,1,.446-11.133,19.113,19.113,0,0,1,9.149-7.972,49.93,49.93,0,0,1,11.791-3.239c3.855-.7,7.632-1.5,10.682-3.414a13.117,13.117,0,0,0,3.82-3.491,10.5,10.5,0,0,0,1.788-4.517c.269-1.572.341-3.13.552-4.621a17.329,17.329,0,0,1,.431-2.176,8.378,8.378,0,0,1,.35-1.02,7.511,7.511,0,0,1,.42-.967,11.842,11.842,0,0,1,2.3-3.2,16.852,16.852,0,0,1,2.706-2.23,29.488,29.488,0,0,1,4.935-2.635c1.409-.609,2.533-1.005,3.29-1.282l.87-.295a1.43,1.43,0,0,1,.3-.085,1.647,1.647,0,0,1-.286.13l-.852.338c-.746.305-1.858.728-3.25,1.361a30.314,30.314,0,0,0-4.862,2.683,16.771,16.771,0,0,0-2.639,2.221,11.606,11.606,0,0,0-2.214,3.138,7.361,7.361,0,0,0-.4.941,8.045,8.045,0,0,0-.333.993,16.757,16.757,0,0,0-.407,2.133c-.2,1.471-.262,3.03-.528,4.637a10.872,10.872,0,0,1-1.835,4.688,13.48,13.48,0,0,1-3.927,3.619c-3.132,1.979-6.97,2.787-10.826,3.5a49.813,49.813,0,0,0-11.682,3.216,18.7,18.7,0,0,0-8.938,7.764,11.727,11.727,0,0,0-.465,10.719,8.85,8.85,0,0,0,8.177,4.845,6.769,6.769,0,0,0,4.077-1.783,7.231,7.231,0,0,0,2.175-3.52,5.541,5.541,0,0,0-2.486-6.231,4.561,4.561,0,0,0-2.818-.7,4.073,4.073,0,0,0-2.238.99,4.234,4.234,0,0,0-1.55,3,5.135,5.135,0,0,0,.135,1.208" transform="translate(-4.498 -27.113)" fill="#1a2e35"/>
        <path id="Trazado_525" data-name="Trazado 525" d="M269.868,264.639c.025-.023.3.34.929.895a8,8,0,0,0,3.219,1.716,10.6,10.6,0,0,0,2.619.384,11.19,11.19,0,0,0,3.11-.442,9.5,9.5,0,0,0,3.2-1.626,9.774,9.774,0,0,0,2.547-3.106,12.716,12.716,0,0,0,.958-9.033,14.618,14.618,0,0,0-6.24-8.358,19.612,19.612,0,0,0-5.231-2.42,38.956,38.956,0,0,0-5.972-1.039,15.2,15.2,0,0,1-6.1-1.85,9.3,9.3,0,0,1-3.843-5.282,15.091,15.091,0,0,1-.432-6.547,39.936,39.936,0,0,1,1.487-6.178,49.3,49.3,0,0,0,2.428-11.627,46.112,46.112,0,0,0-.445-10.733,44.819,44.819,0,0,0-2.379-9.066l-.363-1q-.209-.482-.411-.952l-.8-1.828c-.61-1.14-1.1-2.263-1.709-3.228-.586-.98-1.107-1.907-1.683-2.7-.557-.8-1.038-1.559-1.555-2.176l-1.32-1.682-1.042-1.17-.634-.727a1.812,1.812,0,0,1-.206-.259,1.623,1.623,0,0,1,.24.225l.669.7,1.078,1.144,1.359,1.66c.529.612,1.024,1.362,1.594,2.162.591.788,1.126,1.713,1.725,2.692.624.966,1.128,2.089,1.753,3.232l.821,1.832.421.956q.185.5.374,1a44.771,44.771,0,0,1,2.452,9.119,46.182,46.182,0,0,1,.49,10.828,49.416,49.416,0,0,1-2.419,11.726,39.769,39.769,0,0,0-1.464,6.107,14.655,14.655,0,0,0,.419,6.346,8.845,8.845,0,0,0,3.643,5.027,14.812,14.812,0,0,0,5.912,1.789,39.124,39.124,0,0,1,6.036,1.064,20,20,0,0,1,5.344,2.49,14.988,14.988,0,0,1,6.376,8.621,13.035,13.035,0,0,1-1.042,9.286,10.062,10.062,0,0,1-2.655,3.184,9.761,9.761,0,0,1-3.312,1.643,11.319,11.319,0,0,1-3.188.413,10.622,10.622,0,0,1-2.666-.433,7.848,7.848,0,0,1-3.231-1.82,5.212,5.212,0,0,1-.663-.705,1.663,1.663,0,0,1-.2-.26" transform="translate(-25.429 -17.76)" fill="#1a2e35"/>
        <path id="Trazado_526" data-name="Trazado 526" d="M313,375.571s-16.676-69.083-31.493-76.6-71.669-35.6-71.669-35.6-3.478,26.291-31.072,26.427c-28.2.139-33.157-14.387-33.157-14.387S78.43,302.657,72.194,309.705c-9.251,10.458-15.317,65.866-15.317,65.866Z" transform="translate(-5.785 -26.789)" fill="#375a64"/>
        <path id="Trazado_527" data-name="Trazado 527" d="M278.862,383.013c-.129,0-.578-9.852-1-22.013s-.663-22.028-.534-22.032.578,9.851,1,22.015.664,22.026.535,22.03" transform="translate(-28.204 -34.478)" fill="#1a2e35"/>
        <path id="Trazado_528" data-name="Trazado 528" d="M92.75,385.209c-.128.014-1.061-7.431-2.082-16.628s-1.745-16.667-1.617-16.681,1.061,7.43,2.082,16.63,1.745,16.665,1.617,16.679" transform="translate(-9.056 -35.793)" fill="#1a2e35"/>
        <path id="Trazado_529" data-name="Trazado 529" d="M289.953,304.829c.04.082-1.162.617-2.89,1.813a23.535,23.535,0,0,0-2.845,2.332,23.46,23.46,0,0,0-5.152,7.326,23.513,23.513,0,0,0-1.233,3.466c-.541,2.03-.639,3.342-.729,3.332a3.472,3.472,0,0,1,.016-.923,8.569,8.569,0,0,1,.124-1.076,14.055,14.055,0,0,1,.268-1.412,20.828,20.828,0,0,1,1.16-3.559,22.063,22.063,0,0,1,5.25-7.465,20.954,20.954,0,0,1,2.957-2.3,14.272,14.272,0,0,1,1.239-.728,8.622,8.622,0,0,1,.971-.481,3.476,3.476,0,0,1,.864-.328" transform="translate(-28.183 -31.005)" fill="#1a2e35"/>
        <path id="Trazado_530" data-name="Trazado 530" d="M190.821,302.129a19.8,19.8,0,0,1,0-9.675c.137.022-.139,2.174-.133,4.837s.269,4.816.133,4.837" transform="translate(-19.348 -29.747)" fill="#1a2e35"/>
        <path id="Trazado_531" data-name="Trazado 531" d="M205.043,299.539a35.03,35.03,0,0,1-1.791-7.882,35.033,35.033,0,0,1,1.791,7.882" transform="translate(-20.671 -29.666)" fill="#1a2e35"/>
        <path id="Trazado_532" data-name="Trazado 532" d="M220.8,289.371c-.132.041-.667-1.456-1.657-3.125s-2.027-2.871-1.927-2.966a10.308,10.308,0,0,1,3.584,6.091" transform="translate(-22.093 -28.813)" fill="#1a2e35"/>
        <path id="Trazado_533" data-name="Trazado 533" d="M229.686,281.625a38.606,38.606,0,0,0-2.333-4.179,38.553,38.553,0,0,0-3.2-3.557,11.785,11.785,0,0,1,5.534,7.736" transform="translate(-22.799 -27.858)" fill="#1a2e35"/>
        <path id="Trazado_534" data-name="Trazado 534" d="M169.761,298.38a11.638,11.638,0,0,1,4.229-7.584c.1.1-1.28,1.509-2.44,3.611-1.179,2.09-1.651,4.007-1.789,3.973" transform="translate(-17.265 -29.578)" fill="#1a2e35"/>
        <path id="Trazado_535" data-name="Trazado 535" d="M155.78,292.229a37.781,37.781,0,0,1,6.413-5.418,19.026,19.026,0,0,1-3.056,2.888,19.015,19.015,0,0,1-3.357,2.53" transform="translate(-15.845 -29.172)" fill="#1a2e35"/>
        <path id="Trazado_536" data-name="Trazado 536" d="M114,285.772c.574,6.884-3.325,13.33-7.7,18.674s-9.477,10.319-12.1,16.706c-2.312,5.623-2.5,11.909-1.867,17.955.734,6.99,2.614,14.051,6.831,19.672,2.071,2.76,4.853,5.211,8.239,5.871,5.065.986,10.24-2.459,12.563-7.067s2.287-10.063,1.415-15.149c-.517-3.011-1.31-6.019-1.153-9.071s1.481-6.262,4.172-7.71c1.925-1.035,4.23-1.024,6.319-1.67,4.736-1.465,7.748-6.044,9.925-10.5a78.122,78.122,0,0,0,7.723-39.242,3.576,3.576,0,0,0-.752-2.353c-.766-.77-2.01-.7-3.088-.563a160.59,160.59,0,0,0-25.765,5.415" transform="translate(-9.36 -27.589)" fill="#1a2e35"/>
        <path id="Trazado_537" data-name="Trazado 537" d="M174.927,233.85c7.45-6.878,4.838-9.129,3.769-10.567-1.182-1.589-4.95-.5-4.95-.5s1.45-1.969,2.655-3.9a5.7,5.7,0,0,0-1.187-7.816c-3.131-2.522-8.458,3.534-7.874,2.445s3.24-4.989.168-8.77-9.191,3.644-14.49,4.949c-3.6.887-17.978,1.584-28.455.932-6.554-.408-9.068-2.98-10.816-8.522l4.407-8.662c2.29-7.227-4.182-7.336-4.407-7.131l-10.438,7.076a5.225,5.225,0,0,0-2.23,3.52,48.36,48.36,0,0,0,.663,19.933L25.13,217.3A22.767,22.767,0,0,0,2.5,240.07a19.721,19.721,0,0,0,.146,2.351c-.192,8.51,5.348,16.557,12.64,21.072,7.614,4.714,16.811,6.156,25.761,6.459a126.531,126.531,0,0,0,56.276-11.115l20.785-.195,32.5-1.606a40.992,40.992,0,0,0,22.907-13.113,22.24,22.24,0,0,0,2.244-2.953c3-4.952-.831-7.12-.831-7.12" transform="translate(-0.254 -18.945)" fill="#ff4f5b"/>
        <g id="Grupo_166" data-name="Grupo 166" transform="translate(136.486 194.566)" opacity="0.3">
          <g id="Grupo_165" data-name="Grupo 165">
            <g id="Grupo_164" data-name="Grupo 164" clip-path="url(#clip-path-10)">
              <path id="Trazado_538" data-name="Trazado 538" d="M182.541,216.6a6.947,6.947,0,0,1-.853.992,11.846,11.846,0,0,1-1.091,1.081A19.332,19.332,0,0,1,179.048,220a21.177,21.177,0,0,1-2.016,1.429,26.653,26.653,0,0,1-2.46,1.414,31.367,31.367,0,0,1-6.095,2.239,38.194,38.194,0,0,1-11.715.921c-1.5-.115-2.713-.259-3.541-.409a7.041,7.041,0,0,1-1.281-.263,6.956,6.956,0,0,1,1.3.083c.833.094,2.043.187,3.537.259a41.346,41.346,0,0,0,11.583-1.044,32.9,32.9,0,0,0,6.018-2.172c.872-.456,1.713-.872,2.445-1.356a22.655,22.655,0,0,0,2.021-1.364c2.389-1.793,3.617-3.207,3.693-3.131" transform="translate(-151.94 -216.597)"/>
            </g>
          </g>
        </g>
        <g id="Grupo_169" data-name="Grupo 169" transform="translate(135.56 203.648)" opacity="0.3">
          <g id="Grupo_168" data-name="Grupo 168">
            <g id="Grupo_167" data-name="Grupo 167" clip-path="url(#clip-path-11)">
              <path id="Trazado_539" data-name="Trazado 539" d="M188.623,226.708a10.4,10.4,0,0,1-1.141,1.125,16.615,16.615,0,0,1-1.425,1.226c-.576.455-1.214,1-1.985,1.506l-1.192.827c-.42.278-.877.538-1.339.824-.916.588-1.959,1.1-3.039,1.674a50.387,50.387,0,0,1-7.4,2.9,53.835,53.835,0,0,1-7.773,1.646c-1.214.136-2.366.282-3.453.325-1.083.085-2.095.1-3.018.1-.923.027-1.757-.033-2.489-.06s-1.362-.076-1.874-.137a10.6,10.6,0,0,1-1.587-.211,10.48,10.48,0,0,1,1.6.03c.513.031,1.14.061,1.87.057s1.559.039,2.477-.009c.917-.024,1.921-.055,2.995-.156,1.077-.059,2.219-.219,3.422-.366a56.929,56.929,0,0,0,7.7-1.666,53.286,53.286,0,0,0,7.341-2.838c1.074-.557,2.115-1.053,3.031-1.621.463-.276.92-.526,1.342-.794l1.2-.795c.779-.487,1.425-1.008,2.012-1.44s1.079-.822,1.468-1.158a10.431,10.431,0,0,1,1.259-.987" transform="translate(-150.91 -226.707)"/>
            </g>
          </g>
        </g>
        <g id="Grupo_172" data-name="Grupo 172" transform="translate(139.377 214.903)" opacity="0.3">
          <g id="Grupo_171" data-name="Grupo 171">
            <g id="Grupo_170" data-name="Grupo 170" clip-path="url(#clip-path-12)">
              <path id="Trazado_540" data-name="Trazado 540" d="M190.454,239.239a9.12,9.12,0,0,1-1.173.924c-.768.578-1.919,1.361-3.371,2.283a62.575,62.575,0,0,1-12.051,5.918,53.382,53.382,0,0,1-7.136,1.991,41.582,41.582,0,0,1-6.005.731c-.86.064-1.639.047-2.323.037a15.488,15.488,0,0,1-1.752-.078,9.013,9.013,0,0,1-1.484-.173,9.275,9.275,0,0,1,1.492-.008c.479.023,1.064.027,1.743,0s1.453-.022,2.3-.105a45.906,45.906,0,0,0,5.939-.824,57.178,57.178,0,0,0,7.064-2.01,69.759,69.759,0,0,0,12.036-5.759c1.468-.881,2.643-1.62,3.44-2.15a9.193,9.193,0,0,1,1.276-.775" transform="translate(-155.159 -239.237)"/>
            </g>
          </g>
        </g>
        <g id="Grupo_175" data-name="Grupo 175" transform="translate(3.955 189.792)" opacity="0.3">
          <g id="Grupo_174" data-name="Grupo 174">
            <g id="Grupo_173" data-name="Grupo 173" clip-path="url(#clip-path-13)">
              <path id="Trazado_541" data-name="Trazado 541" d="M100.6,211.283a3.478,3.478,0,0,1,.12.53c.071.381.166.9.289,1.561.245,1.406.6,3.421,1.044,5.992l.024.137-.142,0c-9.537.247-27.038.622-47.016,1l-23.79.425h-.012l-.021,0a34.832,34.832,0,0,0-12.589,1.009,23.391,23.391,0,0,0-8.749,4.411,20.068,20.068,0,0,0-4.2,4.8c-.411.621-.667,1.133-.854,1.47L4.486,233a.52.52,0,0,1-.084.125.488.488,0,0,1,.052-.139c.051-.109.111-.237.186-.4a14.321,14.321,0,0,1,.8-1.508A19.422,19.422,0,0,1,9.6,226.153a23.4,23.4,0,0,1,8.818-4.554,34.864,34.864,0,0,1,12.739-1.091l-.031,0,23.789-.471c19.978-.375,37.481-.66,47.021-.773l-.118.142c-.4-2.579-.712-4.6-.931-6.01-.1-.667-.172-1.189-.227-1.572a3.419,3.419,0,0,1-.056-.541" transform="translate(-4.402 -211.283)"/>
            </g>
          </g>
        </g>
        <g id="Grupo_178" data-name="Grupo 178" transform="translate(9.993 240.538)" opacity="0.3">
          <g id="Grupo_177" data-name="Grupo 177">
            <g id="Grupo_176" data-name="Grupo 176" clip-path="url(#clip-path-14)">
              <path id="Trazado_542" data-name="Trazado 542" d="M96.3,267.776a.845.845,0,0,1-.2.116l-.609.3c-.542.248-1.328.646-2.371,1.084-2.072.914-5.121,2.126-8.964,3.41a127.712,127.712,0,0,1-30.979,6.164,92.118,92.118,0,0,1-17.42-.359,54.167,54.167,0,0,1-13.8-3.42,32.083,32.083,0,0,1-8.283-4.816c-.431-.369-.832-.676-1.145-.981l-.778-.785L11.273,268a.905.905,0,0,1-.148-.178.88.88,0,0,1,.183.145l.5.455.8.748c.321.292.729.587,1.166.942a33.253,33.253,0,0,0,8.293,4.65,55,55,0,0,0,13.732,3.3,93.889,93.889,0,0,0,17.336.32,132.589,132.589,0,0,0,30.909-6.011c3.846-1.24,6.905-2.4,9-3.263,1.054-.411,1.85-.782,2.4-1l.628-.254a.852.852,0,0,1,.221-.073" transform="translate(-11.125 -267.775)"/>
            </g>
          </g>
        </g>
        <path id="Trazado_543" data-name="Trazado 543" d="M172.275,190.932a4.337,4.337,0,0,0,3.347,5.046,4.149,4.149,0,0,0,5.091-3.062,4.342,4.342,0,0,0-3.343-5.048,4.152,4.152,0,0,0-5.1,3.065" transform="translate(-17.514 -19.097)" fill="#1a2e35"/>
        <path id="Trazado_544" data-name="Trazado 544" d="M174.912,179.981c.331.708,4.225-.554,8.645.937,4.44,1.427,6.928,4.792,7.59,4.411.315-.161.125-1.3-.951-2.806a11.9,11.9,0,0,0-5.853-4.2,11.438,11.438,0,0,0-7.1-.075c-1.707.591-2.5,1.406-2.327,1.729" transform="translate(-17.789 -18.077)" fill="#1a2e35"/>
        <path id="Trazado_545" data-name="Trazado 545" d="M145.008,188.09a4.338,4.338,0,0,1-4.785,3.71,4.15,4.15,0,0,1-3.845-4.531,4.342,4.342,0,0,1,4.782-3.714,4.152,4.152,0,0,1,3.847,4.535" transform="translate(-13.869 -18.668)" fill="#1a2e35"/>
        <path id="Trazado_546" data-name="Trazado 546" d="M143.469,176.154c-.617.481-3.512-2.412-8.129-3.09-4.6-.745-8.349,1.124-8.765.484-.208-.287.48-1.217,2.122-2.069a11.892,11.892,0,0,1,7.12-1.081,11.433,11.433,0,0,1,6.364,3.159c1.252,1.3,1.585,2.386,1.287,2.6" transform="translate(-12.871 -17.318)" fill="#1a2e35"/>
      </g>
    </g>
  </g>
</svg>
