<svg xmlns="http://www.w3.org/2000/svg" xmlns:xlink="http://www.w3.org/1999/xlink" width="360.635" height="356.534" viewBox="0 0 360.635 356.534">
  <defs>
    <clipPath id="clip-path">
      <rect id="Rectángulo_162" data-name="Rectángulo 162" width="356.534" height="360.635" fill="none"/>
    </clipPath>
    <clipPath id="clip-path-3">
      <rect id="Rectángulo_157" data-name="Rectángulo 157" width="25.772" height="72.401" fill="none"/>
    </clipPath>
  </defs>
  <g id="Grupo_192" data-name="Grupo 192" transform="translate(360.635) rotate(90)">
    <g id="Grupo_191" data-name="Grupo 191" clip-path="url(#clip-path)">
      <g id="Grupo_190" data-name="Grupo 190">
        <g id="Grupo_189" data-name="Grupo 189" clip-path="url(#clip-path)">
          <path id="Trazado_624" data-name="Trazado 624" d="M53.757,146.732S53.268,34.748,18.581,5.1c108.652-1.606,128.8,15.022,128.8,15.022s11.187,58.508-36.669,130.747l-53.4-3.829" transform="translate(39.595 10.631)" fill="#00cabc"/>
          <path id="Trazado_625" data-name="Trazado 625" d="M124.193,18.731s1.3,70.511-42.349,123.521l-33.182-2.379S54.02,69.333,26.383,8.866c49.675-2.095,97.81,9.866,97.81,9.866" transform="translate(56.22 18.367)" fill="#007e76"/>
          <path id="Trazado_626" data-name="Trazado 626" d="M29.511,11.09s54.979,2.411,80.3,8.992c-7.267,56.109-20.98,83.928-35.051,106.242L49.449,123.54S51.315,50.515,29.511,11.09" transform="translate(62.886 23.632)" fill="#00cabc"/>
          <path id="Trazado_627" data-name="Trazado 627" d="M33.275,35.823a22.311,22.311,0,0,1-2.43-.138l.742-6.76a10.158,10.158,0,0,0,8.372-2.311c4.665-4.145,5.748-12.893,5.77-15.911l6.8.053c-.006.567-.2,13.958-8.053,20.94a16.323,16.323,0,0,1-11.2,4.127" transform="translate(65.728 22.809)" fill="#007e76"/>
          <path id="Trazado_628" data-name="Trazado 628" d="M68.242,47.256c-19.011-11.913-20.1-34.058-20.144-35l6.794-.279c.009.194,1.046,19.543,16.96,29.515Z" transform="translate(102.493 25.528)" fill="#007e76"/>
          <path id="Trazado_629" data-name="Trazado 629" d="M37.72,47.093c-1.669,12.874,4.192,24.722,13.087,26.463S68.269,66.27,69.934,53.4,65.742,28.674,56.847,26.933,39.389,34.219,37.72,47.093" transform="translate(79.774 56.935)" fill="#007e76" fill-rule="evenodd"/>
          <path id="Trazado_630" data-name="Trazado 630" d="M35.992,79.462s-6.284-41.936-6.938-53.514,11.675,36.729,6.938,53.514" transform="translate(61.858 51.52)" fill="#007e76" fill-rule="evenodd"/>
          <g id="Grupo_188" data-name="Grupo 188" transform="translate(135.851 73.012)" style="mix-blend-mode: multiply;isolation: isolate">
            <g id="Grupo_187" data-name="Grupo 187">
              <g id="Grupo_186" data-name="Grupo 186" clip-path="url(#clip-path-3)">
                <path id="Trazado_631" data-name="Trazado 631" d="M43.39,95.722s31.676-60.43,24.794-71.4-24.794,71.4-24.794,71.4" transform="translate(-43.39 -23.321)" fill="#007e76" fill-rule="evenodd"/>
              </g>
            </g>
          </g>
          <path id="Trazado_632" data-name="Trazado 632" d="M147.38,20.117s11.19,58.511-36.669,130.75l-12.239-.88-33.182-2.38h0l-7.978-.573-3.55-.307S53.271,34.745,18.58,5.1c108.656-1.606,128.8,15.019,128.8,15.019" transform="translate(39.593 10.631)" fill="#002c28" fill-rule="evenodd"/>
          <path id="Trazado_633" data-name="Trazado 633" d="M64.96,146.593S46.767,36.093,0,13.516C131.627-9.061,158.691,3.466,158.691,3.466s22.777,55.621-23.952,136.211l-65.421,6.531" transform="translate(0 0)" fill="#00cabc"/>
          <path id="Trazado_634" data-name="Trazado 634" d="M130.313,3.669s12.668,69.384-31.982,130.168L57.682,137.9S53.1,67.2,10.048,12.821C70.011,1.158,130.313,3.669,130.313,3.669" transform="translate(21.412 7.333)" fill="#007e76"/>
          <path id="Trazado_635" data-name="Trazado 635" d="M14.221,12.851S81.332,4.611,113.1,6.22c0,56.811-12.27,86.933-25.846,111.689L56.1,120.054s-9.214-72.481-41.876-107.2" transform="translate(30.304 12.81)" fill="#00cabc"/>
          <path id="Trazado_636" data-name="Trazado 636" d="M17.445,35.346l-.52-7.52c5.144-.354,8.867-2.044,11.375-5.169,4.75-5.908,3.519-15.191,3.507-15.285L39.261,6.26c.075.51,1.781,12.571-5.088,21.118-3.845,4.787-9.474,7.467-16.729,7.968" transform="translate(36.066 13.34)" fill="#007e76"/>
          <path id="Trazado_637" data-name="Trazado 637" d="M67.182,37.708C42.151,29.589,37.263,7.563,37.066,6.63l7.376-1.562c.166.761,4.305,18.735,25.066,25.473Z" transform="translate(78.985 10.8)" fill="#007e76"/>
          <path id="Trazado_638" data-name="Trazado 638" d="M27.43,44.575c0,13.037,8.976,23.607,20.047,23.607s20.044-10.57,20.044-23.607S58.548,20.968,47.477,20.968,27.43,31.538,27.43,44.575" transform="translate(58.451 44.681)" fill="#007e76" fill-rule="evenodd"/>
          <path id="Trazado_639" data-name="Trazado 639" d="M32.77,74.495s-14.221-40.2-16.835-51.507S35.882,57.005,32.77,74.495" transform="translate(33.506 45.175)" fill="#007e76" fill-rule="evenodd"/>
          <path id="Trazado_640" data-name="Trazado 640" d="M337.529,82.864,209.653,89.107,137.194,39.729a50.211,50.211,0,0,0-48.6-4.424L51.116,51.9A28.516,28.516,0,0,0,34.149,78.65l0,.194S.58,83.49,10.883,112.119c6.093,13.328,19.553,9.158,19.553,9.158S5.958,147.846,40.84,157.6c-8.979,27.164,6.638,36.416,19.142,36.118-2.383,21.231,18.275,39.988,78.874,38.548s100.077-24.515,100.077-24.515l98.6,3.939Z" transform="translate(19.004 66.08)" fill="#ff7e6e"/>
          <path id="Trazado_641" data-name="Trazado 641" d="M88.939,155.89S100,130.636,117.017,120.6C98.9,120.551,58.381,77.661,52.072,50.979c-7.514,2.038-19.124,5.266-19.124,5.266l-.679,12.32s32.668-7.7,33.708,36.068c24.362-1.672,29.377,17.361,16.885,31.2,6.869,5.485,8.72,11.259,6.077,20.054" transform="translate(68.763 108.632)" fill="#b0493d"/>
          <path id="Trazado_642" data-name="Trazado 642" d="M54.281,126.324l-.47-1.869,12.038-3.037c28.792-4.969,36.015-17.339,37.765-24.274,1.828-7.254-1.018-13.45-4.437-16.131C91.7,75.155,43.652,90.368,25.771,96.727l-.645-1.816C31.807,92.535,90.691,71.9,100.365,79.5c4.026,3.156,7.167,9.981,5.116,18.119-1.866,7.383-9.44,20.542-39.234,25.683Z" transform="translate(53.542 165.841)" fill="#952019"/>
          <path id="Trazado_643" data-name="Trazado 643" d="M111.748,100.7,110.3,99.437c5.836-6.691,7.877-14.44,5.457-20.736-1.894-4.931-6.337-8.165-12.195-8.87-14.12-1.688-83.427,12.114-84.125,12.254L19.054,80.2c2.865-.576,70.314-14.02,84.732-12.279,6.587.792,11.6,4.471,13.764,10.091,2.68,6.973.51,15.454-5.8,22.687" transform="translate(40.603 144.403)" fill="#952019"/>
          <rect id="Rectángulo_158" data-name="Rectángulo 158" width="11.824" height="1.924" transform="translate(49.193 188.294) rotate(-14.986)" fill="#952019"/>
          <path id="Trazado_644" data-name="Trazado 644" d="M65.159,93.7C64.94,79.171,61.1,68.9,53.766,63.153c-9.258-7.248-21.015-4.634-21.131-4.6L32.2,56.675c.523-.119,12.78-2.84,22.749,4.959,7.821,6.124,11.907,16.9,12.135,32.029Z" transform="translate(68.616 119.589)" fill="#952019"/>
          <path id="Trazado_645" data-name="Trazado 645" d="M217.938,53.04,90.384,61.985l-25.5-17.373c.013.006,23.482,18.125,24.966,34.111s9.183,15.808,7.336,7.592S117.72,69.738,134.17,66.929c8.9-1.518,46.785-8.065,84.093-11.481-.078-.811-.185-1.616-.326-2.408" transform="translate(138.273 95.065)" fill="#ffc7ae"/>
          <path id="Trazado_646" data-name="Trazado 646" d="M42.556,68.693C42.528,68.524,39.444,51.861,27.315,47l.717-1.788c13.131,5.26,16.29,22.414,16.419,23.141Z" transform="translate(58.206 96.354)" fill="#952019"/>
          <path id="Trazado_647" data-name="Trazado 647" d="M86.975,53.5c-24.687,1.221-58.8,7.555-53.9,25.364,7.58,27.53-5.686,58.836-5.686,58.836l-1.2-5.921-9.18-55.424A28.505,28.505,0,0,1,33.881,52.49L71.364,35.9a50.21,50.21,0,0,1,48.6,4.424l25.67,17.492c-16.29-3.491-38.886-5.294-58.655-4.318" transform="translate(36.243 67.346)" fill="#ffc7ae"/>
          <path id="Trazado_648" data-name="Trazado 648" d="M20.048,48.488c-1.669,11.005-2.458,32.571,16.1,35.883-5.683,15.651-8.244,32,12.746,36.278-2.586,16.772,5.739,34.29,24.218,33.275-.157,18.4,4.981,34.165,12.508,36.622-19.844-7.066-27.1-19.168-25.636-32.211-12.5.3-28.122-8.954-19.142-36.115C5.958,112.462,30.436,85.9,30.436,85.9s-13.46,4.167-19.553-9.161C5.4,61.5,12.349,53.053,20.048,48.488" transform="translate(19.004 103.324)" fill="#ffc7ae"/>
          <path id="Trazado_649" data-name="Trazado 649" d="M33.538,93.9a5.011,5.011,0,0,1,.535.194c-.185-.063-.354-.132-.535-.194" transform="translate(71.467 200.104)" fill="#ffc7ae"/>
          <path id="Trazado_650" data-name="Trazado 650" d="M21.549,77.653a37.572,37.572,0,0,1,8.71-8.037c4.746-2.871-1.271-15.72-11.631-14.991a98.336,98.336,0,0,1,2.921,23.028" transform="translate(39.695 116.339)" fill="#ffc9d4"/>
          <rect id="Rectángulo_159" data-name="Rectángulo 159" width="69.479" height="1.923" transform="translate(259.644 195.802) rotate(-1.307)" fill="#952019"/>
          <rect id="Rectángulo_160" data-name="Rectángulo 160" width="1.923" height="41.632" transform="translate(272.172 214.476) rotate(-85.077)" fill="#952019"/>
          <path id="Trazado_651" data-name="Trazado 651" d="M165.448,132.461c-51.4.009-77.612-63.242-80.743-71.31l-17.577,4.84c-.238,28.166-8.867,41.735-28.783,45.333a10.414,10.414,0,0,1-12.258-9.593c-1.224-19.637-9.33-54.193-9.408-54.538l1.872-.445c.081.351,8.225,35.063,9.459,54.86a8.483,8.483,0,0,0,10,7.818c19.23-3.469,27.111-16.265,27.2-44.171v-.733l20.689-5.7.3.839c.3.833,30.448,83.063,93.176,69.325l.413,1.882a67.134,67.134,0,0,1-14.34,1.587" transform="translate(35.542 99.618)" fill="#952019"/>
          <path id="Trazado_652" data-name="Trazado 652" d="M143.1,43.446l-41.234.98s-1.093,13.538-1.7,34.747c0,0,4.737-8.989,42.934-6.531Z" transform="translate(213.437 92.58)" fill="#023358"/>
          <path id="Trazado_653" data-name="Trazado 653" d="M143.366,43.446l-41.234.98s-6.672,82.525,3.792,159.367c13.14.344,25.583.67,37.443.983Z" transform="translate(213.168 92.58)" fill="#e02b3b"/>
          <path id="Trazado_654" data-name="Trazado 654" d="M275.037,129.21c-21.153.7-42.681,1.058-58.971.488-47.925-1.064-52.183-64.281-52.183-64.281s.551,23.112,1.218,51.178-5.739,13.35-11.058-1.941-3.222-42.869-6.7-27.22.755,31.766-8.823,45.758S38.38,158.38,38.245,158.4c10.4,1.875,23.019,2.771,38.119,2.414,60.6-1.443,100.077-24.515,100.077-24.515l98.6,3.939Z" transform="translate(81.497 139.399)" fill="#b0493d"/>
          <path id="Trazado_655" data-name="Trazado 655" d="M143.366,43.446l-41.234.98s-6.672,82.525,3.792,159.367c13.128.344,25.583.67,37.443.983Z" transform="translate(213.168 92.58)" fill="#001d35"/>
          <path id="Trazado_656" data-name="Trazado 656" d="M47.692,96.043s-4.8,40.27-20.219,60.749c53.016,20.58,85.405,15.31,85.405,15.31L91.491,88.191s-9.969,10.16-43.8,7.852" transform="translate(58.543 187.928)" fill="#00cabc" fill-rule="evenodd"/>
          <path id="Trazado_657" data-name="Trazado 657" d="M77.3,89.233l17.827,73.351s-27.887,2.5-63.486-10.623C39.98,133.539,44.322,94.1,44.322,94.1s22.831-.085,32.975-4.862" transform="translate(67.42 190.149)" fill="#007e76" fill-rule="evenodd"/>
          <path id="Trazado_658" data-name="Trazado 658" d="M34.077,147.224C41.234,127.277,43.229,92.9,43.229,92.9h0c5.814-.222,16.625-.927,24.431-3.153h0c.548,1.234,14.816,65.3,14.816,65.3s-28.4,1.371-48.4-7.824" transform="translate(72.615 191.244)" fill="#00cabc" fill-rule="evenodd"/>
          <path id="Trazado_659" data-name="Trazado 659" d="M41.826,90.664s5.5,33.911-1.785,42.44,1.785-42.44,1.785-42.44" transform="translate(79.29 193.198)" fill="#007e76" fill-rule="evenodd"/>
          <path id="Trazado_660" data-name="Trazado 660" d="M50.732,126.185l-7.37-1.578c3.785-17.677,18.018-19.512,18.62-19.584l.9,7.483c-.391.053-9.534,1.44-12.154,13.679" transform="translate(92.401 223.796)" fill="#007e76"/>
          <path id="Trazado_661" data-name="Trazado 661" d="M50.226,128.223l-7.414-1.371c2.232-12.051-8.579-18.278-8.688-18.341l3.691-6.572c5.41,3.043,14.969,12.452,12.411,26.284" transform="translate(72.716 217.224)" fill="#007e76"/>
          <path id="Trazado_662" data-name="Trazado 662" d="M47.692,96.043c1.938.132,3.788.219,5.573.272.182,0,1.688-.013,4.036-.1.657-.028,1.393-.059,2.167-.1.163-.006.335-.016.507-.025.654-.034,1.343-.075,2.054-.122.232-.016.457-.028.692-.047.792-.053,1.612-.116,2.452-.188l.435-.034c1.014-.088,2.057-.188,3.112-.3.1-.009.2-.022.294-.034.92-.1,1.85-.216,2.78-.341.282-.038.564-.081.845-.122.767-.11,1.534-.229,2.289-.354l.924-.16c.77-.138,1.525-.288,2.273-.448.254-.053.51-.1.761-.16.983-.219,1.941-.454,2.849-.714a29.524,29.524,0,0,0,4.44-1.609,19.141,19.141,0,0,0,5.316-3.262L112.878,172.1s-32.389,5.269-85.405-15.31c15.42-20.479,20.219-60.749,20.219-60.749" transform="translate(58.543 187.928)" fill="#002c28" fill-rule="evenodd"/>
          <path id="Trazado_663" data-name="Trazado 663" d="M40.453,104.621s3.936,40.361-6.744,63.667c56.2,8.754,86.7-3.328,86.7-3.328L81.556,87.573s-7.564,12.06-41.1,17.048" transform="translate(71.831 186.611)" fill="#00cabc" fill-rule="evenodd"/>
          <path id="Trazado_664" data-name="Trazado 664" d="M68.768,88.955l33.119,67.835s-26.7,8.407-64.287,3.215c4.2-19.781,0-59.24,0-59.24s22.283-4.972,31.168-11.81" transform="translate(80.123 189.556)" fill="#007e76" fill-rule="evenodd"/>
          <path id="Trazado_665" data-name="Trazado 665" d="M41.562,153.1c2.721-21.018-2.689-55.026-2.689-55.026,5.633-1.462,16.043-4.462,23.191-8.309h0c.8,1.086,28.454,60.615,28.454,60.615s-27.446,7.417-48.958,2.721" transform="translate(82.835 191.272)" fill="#00cabc" fill-rule="evenodd"/>
          <path id="Trazado_666" data-name="Trazado 666" d="M40.5,91.967s12.633,31.948,7.342,41.839S40.5,91.967,40.5,91.967" transform="translate(86.298 195.975)" fill="#007e76" fill-rule="evenodd"/>
          <path id="Trazado_667" data-name="Trazado 667" d="M49.481,126.833c-.088-18.072,13.422-22.918,14-23.116l2.445,7.126L64.7,107.28l1.262,3.554c-.369.135-9,3.45-8.942,15.965Z" transform="translate(105.44 221.013)" fill="#007e76"/>
          <path id="Trazado_668" data-name="Trazado 668" d="M51.335,126.965c-.4-12.12-11.941-15.9-12.433-16.059l2.217-7.2c5.939,1.81,17.289,8.951,17.752,23.012Z" transform="translate(82.897 220.987)" fill="#007e76"/>
        </g>
      </g>
    </g>
  </g>
</svg>
