<svg id="Grupo_214" data-name="Grupo 214" xmlns="http://www.w3.org/2000/svg" xmlns:xlink="http://www.w3.org/1999/xlink" width="530.568" height="265.714" viewBox="0 0 530.568 265.714">
  <defs>
    <clipPath id="clip-path">
      <rect id="Rectángulo_211" data-name="Rectángulo 211" width="530.568" height="265.715" fill="none"/>
    </clipPath>
    <clipPath id="clip-path-2">
      <rect id="Rectángulo_210" data-name="Rectángulo 210" width="530.568" height="265.716" fill="none"/>
    </clipPath>
    <clipPath id="clip-path-3">
      <rect id="Rectángulo_167" data-name="Rectángulo 167" width="152.777" height="94.562" fill="none"/>
    </clipPath>
    <clipPath id="clip-path-4">
      <rect id="Rectángulo_172" data-name="Rectángulo 172" width="127.626" height="120.13" fill="none"/>
    </clipPath>
    <clipPath id="clip-path-5">
      <rect id="Rectángulo_177" data-name="Rectángulo 177" width="114.082" height="55.008" fill="none"/>
    </clipPath>
    <clipPath id="clip-path-7">
      <rect id="Rectángulo_193" data-name="Rectángulo 193" width="127.624" height="120.13" fill="none"/>
    </clipPath>
    <clipPath id="clip-path-8">
      <rect id="Rectángulo_198" data-name="Rectángulo 198" width="114.081" height="55.008" fill="none"/>
    </clipPath>
  </defs>
  <g id="Grupo_213" data-name="Grupo 213" clip-path="url(#clip-path)">
    <rect id="Rectángulo_163" data-name="Rectángulo 163" width="66.785" height="142.083" transform="translate(377.793 142.588) rotate(-78.139)" fill="#39c9bb"/>
    <rect id="Rectángulo_164" data-name="Rectángulo 164" width="58.057" height="132.698" transform="translate(383.281 139.281) rotate(-78.14)" fill="#237d76"/>
    <rect id="Rectángulo_165" data-name="Rectángulo 165" width="47.582" height="118.295" transform="translate(391.406 135.636) rotate(-78.14)" fill="#39c9bb"/>
    <g id="Grupo_212" data-name="Grupo 212" transform="translate(0 -0.002)">
      <g id="Grupo_211" data-name="Grupo 211" clip-path="url(#clip-path-2)">
        <path id="Trazado_669" data-name="Trazado 669" d="M100.468,26.666A6.22,6.22,0,1,1,95.66,19.3a6.221,6.221,0,0,1,4.808,7.366" transform="translate(306.841 66.706)" fill="#39c9bb"/>
        <path id="Trazado_670" data-name="Trazado 670" d="M100.468,26.666A6.22,6.22,0,1,1,95.66,19.3,6.221,6.221,0,0,1,100.468,26.666Z" transform="translate(306.841 66.706)" fill="none" stroke="#237d76" stroke-miterlimit="10" stroke-width="0.75"/>
        <path id="Trazado_671" data-name="Trazado 671" d="M98.568,35.711a6.22,6.22,0,1,1-4.808-7.366,6.221,6.221,0,0,1,4.808,7.366" transform="translate(300.228 98.187)" fill="#39c9bb"/>
        <path id="Trazado_672" data-name="Trazado 672" d="M98.568,35.711a6.22,6.22,0,1,1-4.808-7.366A6.221,6.221,0,0,1,98.568,35.711Z" transform="translate(300.228 98.187)" fill="none" stroke="#237d76" stroke-miterlimit="10" stroke-width="0.75"/>
        <path id="Trazado_673" data-name="Trazado 673" d="M125.906,32.006a6.22,6.22,0,1,1-4.808-7.366,6.221,6.221,0,0,1,4.808,7.366" transform="translate(395.378 85.299)" fill="#39c9bb"/>
        <path id="Trazado_674" data-name="Trazado 674" d="M125.906,32.006a6.22,6.22,0,1,1-4.808-7.366A6.221,6.221,0,0,1,125.906,32.006Z" transform="translate(395.378 85.299)" fill="none" stroke="#237d76" stroke-miterlimit="10" stroke-width="0.75"/>
        <path id="Trazado_675" data-name="Trazado 675" d="M124.006,41.053a6.22,6.22,0,1,1-4.808-7.366,6.221,6.221,0,0,1,4.808,7.366" transform="translate(388.765 116.783)" fill="#39c9bb"/>
        <path id="Trazado_676" data-name="Trazado 676" d="M124.006,41.053a6.22,6.22,0,1,1-4.808-7.366A6.221,6.221,0,0,1,124.006,41.053Z" transform="translate(388.765 116.783)" fill="none" stroke="#237d76" stroke-miterlimit="10" stroke-width="0.75"/>
        <path id="Trazado_677" data-name="Trazado 677" d="M133.949,45.961a18.551,18.551,0,1,1-14.342-21.968,18.55,18.55,0,0,1,14.342,21.968" transform="translate(338.44 82.117)" fill="#2a968b"/>
        <path id="Trazado_678" data-name="Trazado 678" d="M114.071,32.107s1.479-5.13-4.61-6.407-11,4.418-5.9,7.348,10.552,5.654,9.055,10.063S104.912,47.076,102,44.6s-2.294-6.64-2.294-6.64" transform="translate(346.821 88.81)" fill="none" stroke="#237d76" stroke-miterlimit="10" stroke-width="0.75"/>
        <line id="Línea_1" data-name="Línea 1" x1="6.116" y2="29.123" transform="translate(450.911 110.167)" fill="none" stroke="#237d76" stroke-miterlimit="10" stroke-width="0.75"/>
        <path id="Trazado_679" data-name="Trazado 679" d="M104.533,32.509a6.7,6.7,0,1,1-5.18-7.935,6.7,6.7,0,0,1,5.18,7.935" transform="translate(317.669 85.03)" fill="#2a968b"/>
        <path id="Trazado_680" data-name="Trazado 680" d="M121.783,36.132A6.7,6.7,0,1,1,116.6,28.2a6.7,6.7,0,0,1,5.179,7.935" transform="translate(377.708 97.639)" fill="#2a968b"/>
        <path id="Trazado_681" data-name="Trazado 681" d="M97.353,27.507a1.842,1.842,0,0,0-1.667-2.316c-2.2-.461-3.974,1.6-2.128,2.657s3.813,2.043,3.271,3.634-2.782,1.434-3.835.538a2.849,2.849,0,0,1-.833-2.4" transform="translate(320.696 87.447)" fill="none" stroke="#237d76" stroke-miterlimit="10" stroke-width="0.271"/>
        <line id="Línea_2" data-name="Línea 2" x1="2.209" y2="10.52" transform="translate(414.445 111.069)" fill="none" stroke="#237d76" stroke-miterlimit="10" stroke-width="0.271"/>
        <path id="Trazado_682" data-name="Trazado 682" d="M114.6,31.129a1.842,1.842,0,0,0-1.667-2.316c-2.2-.461-3.974,1.6-2.128,2.657s3.813,2.043,3.271,3.634-2.782,1.434-3.835.538a2.833,2.833,0,0,1-.833-2.4" transform="translate(380.734 100.053)" fill="none" stroke="#237d76" stroke-miterlimit="10" stroke-width="0.271"/>
        <line id="Línea_3" data-name="Línea 3" x1="2.209" y2="10.52" transform="translate(491.734 127.301)" fill="none" stroke="#237d76" stroke-miterlimit="10" stroke-width="0.271"/>
        <path id="Trazado_683" data-name="Trazado 683" d="M93.785,21.3l24.06,5.054-4.4,3.562L92.885,25.593Z" transform="translate(323.286 74.123)" fill="#237d76"/>
        <path id="Trazado_684" data-name="Trazado 684" d="M130.253,29.1l-24.06-5.054,2.594,5.027,20.565,4.319Z" transform="translate(369.603 83.703)" fill="#237d76"/>
        <path id="Trazado_685" data-name="Trazado 685" d="M91.2,33.627l24.06,5.054-2.594-5.032L92.1,29.334Z" transform="translate(317.41 102.1)" fill="#237d76"/>
        <path id="Trazado_686" data-name="Trazado 686" d="M128.363,40.862,104.3,35.808l4.4-3.558,20.566,4.319Z" transform="translate(363.027 112.25)" fill="#237d76"/>
        <g id="Grupo_195" data-name="Grupo 195" transform="translate(377.791 77.23)" style="mix-blend-mode: multiply;isolation: isolate">
          <g id="Grupo_194" data-name="Grupo 194">
            <g id="Grupo_193" data-name="Grupo 193" clip-path="url(#clip-path-3)">
              <rect id="Rectángulo_166" data-name="Rectángulo 166" width="66.785" height="142.083" transform="translate(-0.001 65.358) rotate(-78.138)" fill="#237d76"/>
            </g>
          </g>
        </g>
        <rect id="Rectángulo_168" data-name="Rectángulo 168" width="119.59" height="56.214" transform="matrix(0.764, -0.646, 0.646, 0.764, 378.366, 81.001)" fill="#39c9bb"/>
        <rect id="Rectángulo_169" data-name="Rectángulo 169" width="111.691" height="48.865" transform="matrix(0.764, -0.645, 0.645, 0.764, 383.755, 81.256)" fill="#237d76"/>
        <rect id="Rectángulo_170" data-name="Rectángulo 170" width="99.567" height="40.05" transform="translate(391.23 80.711) rotate(-40.205)" fill="#39c9bb"/>
        <path id="Trazado_687" data-name="Trazado 687" d="M95.837,19.044a5.236,5.236,0,1,1-7.379-.618,5.235,5.235,0,0,1,7.379.618" transform="translate(301.414 59.823)" fill="#39c9bb"/>
        <path id="Trazado_688" data-name="Trazado 688" d="M95.837,19.044a5.236,5.236,0,1,1-7.379-.618A5.235,5.235,0,0,1,95.837,19.044Z" transform="translate(301.414 59.823)" fill="none" stroke="#237d76" stroke-miterlimit="10" stroke-width="0.632"/>
        <path id="Trazado_689" data-name="Trazado 689" d="M100.859,24.986a5.236,5.236,0,1,1-7.379-.618,5.235,5.235,0,0,1,7.379.618" transform="translate(318.893 80.505)" fill="#39c9bb"/>
        <path id="Trazado_690" data-name="Trazado 690" d="M100.859,24.986a5.236,5.236,0,1,1-7.379-.618A5.235,5.235,0,0,1,100.859,24.986Z" transform="translate(318.893 80.505)" fill="none" stroke="#237d76" stroke-miterlimit="10" stroke-width="0.632"/>
        <path id="Trazado_691" data-name="Trazado 691" d="M112.547,4.922a5.236,5.236,0,1,1-7.379-.618,5.235,5.235,0,0,1,7.379.618" transform="translate(359.573 10.672)" fill="#39c9bb"/>
        <path id="Trazado_692" data-name="Trazado 692" d="M112.547,4.922a5.236,5.236,0,1,1-7.379-.618A5.235,5.235,0,0,1,112.547,4.922Z" transform="translate(359.573 10.672)" fill="none" stroke="#237d76" stroke-miterlimit="10" stroke-width="0.632"/>
        <path id="Trazado_693" data-name="Trazado 693" d="M117.567,10.864a5.235,5.235,0,1,1-7.379-.618,5.235,5.235,0,0,1,7.379.618" transform="translate(377.054 31.353)" fill="#39c9bb"/>
        <path id="Trazado_694" data-name="Trazado 694" d="M117.567,10.864a5.235,5.235,0,1,1-7.379-.618A5.235,5.235,0,0,1,117.567,10.864Z" transform="translate(377.054 31.353)" fill="none" stroke="#237d76" stroke-miterlimit="10" stroke-width="0.632"/>
        <path id="Trazado_695" data-name="Trazado 695" d="M122.714,16.268a15.614,15.614,0,1,1-22-1.846,15.611,15.611,0,0,1,22,1.846" transform="translate(331.255 37.361)" fill="#2a968b"/>
        <path id="Trazado_696" data-name="Trazado 696" d="M105.96,14.16s-2.643-3.634-6.64-.255-2.76,9.593,1.828,7.715,9.212-4.077,11.367-.8-1.358,7.164-4.507,7.823-5.6-1.909-5.6-1.909" transform="translate(337.306 43.393)" fill="none" stroke="#237d76" stroke-miterlimit="10" stroke-width="0.632"/>
        <line id="Línea_4" data-name="Línea 4" x2="16.17" y2="19.132" transform="translate(434.129 54.556)" fill="none" stroke="#237d76" stroke-miterlimit="10" stroke-width="0.632"/>
        <path id="Trazado_697" data-name="Trazado 697" d="M101.691,19.741a5.64,5.64,0,1,1-7.948-.668,5.639,5.639,0,0,1,7.948.668" transform="translate(319.31 61.748)" fill="#2a968b"/>
        <path id="Trazado_698" data-name="Trazado 698" d="M113.022,10.164a5.64,5.64,0,1,1-7.948-.668,5.639,5.639,0,0,1,7.948.668" transform="translate(358.748 28.415)" fill="#2a968b"/>
        <path id="Trazado_699" data-name="Trazado 699" d="M95.639,18.979a1.549,1.549,0,0,0-2.4-.094c-1.447,1.223-1,3.468.659,2.791S97.23,20.2,98,21.385s-.488,2.59-1.626,2.823a2.392,2.392,0,0,1-2.021-.686" transform="translate(321.496 63.926)" fill="none" stroke="#237d76" stroke-miterlimit="10" stroke-width="0.228"/>
        <line id="Línea_5" data-name="Línea 5" x2="5.843" y2="6.909" transform="translate(413.837 81.824)" fill="none" stroke="#237d76" stroke-miterlimit="10" stroke-width="0.228"/>
        <path id="Trazado_700" data-name="Trazado 700" d="M106.97,9.4a1.549,1.549,0,0,0-2.4-.094c-1.447,1.223-1,3.468.659,2.791s3.329-1.474,4.1-.291-.488,2.59-1.626,2.823a2.392,2.392,0,0,1-2.021-.686" transform="translate(360.934 30.597)" fill="none" stroke="#237d76" stroke-miterlimit="10" stroke-width="0.228"/>
        <line id="Línea_6" data-name="Línea 6" x2="5.843" y2="6.909" transform="translate(464.606 38.916)" fill="none" stroke="#237d76" stroke-miterlimit="10" stroke-width="0.228"/>
        <path id="Trazado_701" data-name="Trazado 701" d="M90.093,26.771,105.9,13.411l.085,4.763L92.477,29.594Z" transform="translate(313.571 46.677)" fill="#237d76"/>
        <path id="Trazado_702" data-name="Trazado 702" d="M114.509,6.135,98.7,19.5l4.682.878L116.893,8.958Z" transform="translate(343.533 21.355)" fill="#237d76"/>
        <path id="Trazado_703" data-name="Trazado 703" d="M96.94,33.363l15.807-13.356-4.682-.883L94.556,30.54Z" transform="translate(329.102 66.562)" fill="#237d76"/>
        <path id="Trazado_704" data-name="Trazado 704" d="M119.57,14.237,103.763,27.593l-.085-4.758,13.509-11.421Z" transform="translate(360.85 39.729)" fill="#237d76"/>
        <g id="Grupo_198" data-name="Grupo 198" transform="translate(378.366 3.804)" style="mix-blend-mode: multiply;isolation: isolate">
          <g id="Grupo_197" data-name="Grupo 197">
            <g id="Grupo_196" data-name="Grupo 196" clip-path="url(#clip-path-4)">
              <rect id="Rectángulo_171" data-name="Rectángulo 171" width="119.589" height="56.212" transform="translate(0.002 77.199) rotate(-40.206)" fill="#237d76"/>
            </g>
          </g>
        </g>
        <rect id="Rectángulo_173" data-name="Rectángulo 173" width="113.261" height="53.239" transform="matrix(1, -0.016, 0.016, 1, 397.407, 190.245)" fill="#39c9bb"/>
        <rect id="Rectángulo_174" data-name="Rectángulo 174" width="105.78" height="46.276" transform="translate(401.202 193.666) rotate(-0.898)" fill="#237d76"/>
        <rect id="Rectángulo_175" data-name="Rectángulo 175" width="94.295" height="37.928" transform="translate(407.01 197.749) rotate(-0.898)" fill="#39c9bb"/>
        <path id="Trazado_705" data-name="Trazado 705" d="M99.774,48.431a4.958,4.958,0,1,1-5.036-4.879,4.959,4.959,0,0,1,5.036,4.879" transform="translate(312.751 151.581)" fill="#39c9bb"/>
        <path id="Trazado_706" data-name="Trazado 706" d="M99.774,48.431a4.958,4.958,0,1,1-5.036-4.879A4.959,4.959,0,0,1,99.774,48.431Z" transform="translate(312.751 151.581)" fill="none" stroke="#237d76" stroke-miterlimit="10" stroke-width="0.598"/>
        <path id="Trazado_707" data-name="Trazado 707" d="M99.89,55.8a4.958,4.958,0,1,1-5.036-4.879A4.959,4.959,0,0,1,99.89,55.8" transform="translate(313.154 177.222)" fill="#39c9bb"/>
        <path id="Trazado_708" data-name="Trazado 708" d="M99.89,55.8a4.958,4.958,0,1,1-5.036-4.879A4.959,4.959,0,0,1,99.89,55.8Z" transform="translate(313.154 177.222)" fill="none" stroke="#237d76" stroke-miterlimit="10" stroke-width="0.598"/>
        <path id="Trazado_709" data-name="Trazado 709" d="M120.492,48.106a4.958,4.958,0,1,1-5.036-4.879,4.959,4.959,0,0,1,5.036,4.879" transform="translate(384.86 150.45)" fill="#39c9bb"/>
        <path id="Trazado_710" data-name="Trazado 710" d="M120.492,48.106a4.958,4.958,0,1,1-5.036-4.879A4.959,4.959,0,0,1,120.492,48.106Z" transform="translate(384.86 150.45)" fill="none" stroke="#237d76" stroke-miterlimit="10" stroke-width="0.598"/>
        <path id="Trazado_711" data-name="Trazado 711" d="M120.607,55.473a4.958,4.958,0,1,1-5.036-4.879,4.959,4.959,0,0,1,5.036,4.879" transform="translate(385.26 176.09)" fill="#39c9bb"/>
        <path id="Trazado_712" data-name="Trazado 712" d="M120.607,55.473a4.958,4.958,0,1,1-5.036-4.879A4.959,4.959,0,0,1,120.607,55.473Z" transform="translate(385.26 176.09)" fill="none" stroke="#237d76" stroke-miterlimit="10" stroke-width="0.598"/>
        <path id="Trazado_713" data-name="Trazado 713" d="M127.7,59.412a14.787,14.787,0,1,1-15.019-14.553A14.788,14.788,0,0,1,127.7,59.412" transform="translate(341.53 156.129)" fill="#2a968b"/>
        <path id="Trazado_714" data-name="Trazado 714" d="M110.414,50.556s.246-4.248-4.713-4.171-7.778,5.372-3.289,6.752,9.2,2.54,8.809,6.228-5.291,4.44-7.993,3.033-2.953-4.758-2.953-4.758" transform="translate(348.618 161.441)" fill="none" stroke="#237d76" stroke-miterlimit="10" stroke-width="0.598"/>
        <line id="Línea_7" data-name="Línea 7" x2="0.372" y2="23.72" transform="translate(454.136 204.319)" fill="none" stroke="#237d76" stroke-miterlimit="10" stroke-width="0.598"/>
        <path id="Trazado_715" data-name="Trazado 715" d="M103.9,52.336a5.341,5.341,0,1,1-5.426-5.26,5.346,5.346,0,0,1,5.426,5.26" transform="translate(324.456 163.846)" fill="#2a968b"/>
        <path id="Trazado_716" data-name="Trazado 716" d="M117.952,52.111a5.341,5.341,0,1,1-5.426-5.256,5.344,5.344,0,0,1,5.426,5.256" transform="translate(373.353 163.08)" fill="#2a968b"/>
        <path id="Trazado_717" data-name="Trazado 717" d="M97.66,49.133a1.465,1.465,0,0,0-1.7-1.505c-1.792.027-2.809,1.94-1.187,2.437s3.32.918,3.181,2.249-1.909,1.6-2.885,1.1a2.278,2.278,0,0,1-1.071-1.721" transform="translate(327.016 165.767)" fill="none" stroke="#237d76" stroke-miterlimit="10" stroke-width="0.216"/>
        <line id="Línea_8" data-name="Línea 8" x2="0.134" y2="8.567" transform="translate(422.908 212.128)" fill="none" stroke="#237d76" stroke-miterlimit="10" stroke-width="0.216"/>
        <path id="Trazado_718" data-name="Trazado 718" d="M111.709,48.913a1.467,1.467,0,0,0-1.7-1.505c-1.792.027-2.809,1.94-1.187,2.437s3.32.918,3.181,2.249-1.913,1.6-2.885,1.1a2.278,2.278,0,0,1-1.071-1.721" transform="translate(375.914 165.002)" fill="none" stroke="#237d76" stroke-miterlimit="10" stroke-width="0.216"/>
        <line id="Línea_9" data-name="Línea 9" x2="0.134" y2="8.567" transform="translate(485.853 211.14)" fill="none" stroke="#237d76" stroke-miterlimit="10" stroke-width="0.216"/>
        <path id="Trazado_719" data-name="Trazado 719" d="M93.846,44.853l19.6-.309-2.791,3.544L93.9,48.352Z" transform="translate(326.631 155.035)" fill="#237d76"/>
        <path id="Trazado_720" data-name="Trazado 720" d="M124.117,44.376l-19.6.309,2.9,3.45,16.748-.26Z" transform="translate(363.781 154.454)" fill="#237d76"/>
        <path id="Trazado_721" data-name="Trazado 721" d="M94,54.859l19.6-.309-2.9-3.45-16.748.26Z" transform="translate(326.99 177.856)" fill="#237d76"/>
        <path id="Trazado_722" data-name="Trazado 722" d="M124.232,54.421l-19.6.309,2.791-3.544,16.753-.264Z" transform="translate(364.181 177.236)" fill="#237d76"/>
        <g id="Grupo_201" data-name="Grupo 201" transform="translate(397.408 188.468)" style="mix-blend-mode: multiply;isolation: isolate">
          <g id="Grupo_200" data-name="Grupo 200">
            <g id="Grupo_199" data-name="Grupo 199" clip-path="url(#clip-path-5)">
              <rect id="Rectángulo_176" data-name="Rectángulo 176" width="113.259" height="53.239" transform="matrix(1, -0.016, 0.016, 1, 0, 1.779)" fill="#237d76"/>
            </g>
          </g>
        </g>
        <rect id="Rectángulo_178" data-name="Rectángulo 178" width="142.086" height="66.786" transform="matrix(0.981, -0.196, 0.196, 0.981, 377.977, 62.441)" fill="#39c9bb"/>
        <rect id="Rectángulo_179" data-name="Rectángulo 179" width="132.701" height="58.056" transform="translate(383.432 65.803) rotate(-11.283)" fill="#237d76"/>
        <rect id="Rectángulo_180" data-name="Rectángulo 180" width="118.294" height="47.579" transform="matrix(0.981, -0.196, 0.196, 0.981, 391.521, 69.531)" fill="#39c9bb"/>
        <path id="Trazado_723" data-name="Trazado 723" d="M98.589,19.75a6.22,6.22,0,1,1-7.317-4.884,6.22,6.22,0,0,1,7.317,4.884" transform="translate(300.252 51.322)" fill="#39c9bb"/>
        <path id="Trazado_724" data-name="Trazado 724" d="M98.589,19.75a6.22,6.22,0,1,1-7.317-4.884A6.22,6.22,0,0,1,98.589,19.75Z" transform="translate(300.252 51.322)" fill="none" stroke="#237d76" stroke-miterlimit="10" stroke-width="0.75"/>
        <path id="Trazado_725" data-name="Trazado 725" d="M100.4,28.815a6.22,6.22,0,1,1-7.317-4.884,6.22,6.22,0,0,1,7.317,4.884" transform="translate(306.545 82.872)" fill="#39c9bb"/>
        <path id="Trazado_726" data-name="Trazado 726" d="M100.4,28.815a6.22,6.22,0,1,1-7.317-4.884A6.22,6.22,0,0,1,100.4,28.815Z" transform="translate(306.545 82.872)" fill="none" stroke="#237d76" stroke-miterlimit="10" stroke-width="0.75"/>
        <path id="Trazado_727" data-name="Trazado 727" d="M124.079,14.665a6.22,6.22,0,1,1-7.317-4.884,6.22,6.22,0,0,1,7.317,4.884" transform="translate(388.97 33.623)" fill="#39c9bb"/>
        <path id="Trazado_728" data-name="Trazado 728" d="M124.079,14.665a6.22,6.22,0,1,1-7.317-4.884A6.22,6.22,0,0,1,124.079,14.665Z" transform="translate(388.97 33.623)" fill="none" stroke="#237d76" stroke-miterlimit="10" stroke-width="0.75"/>
        <path id="Trazado_729" data-name="Trazado 729" d="M125.888,23.729a6.22,6.22,0,1,1-7.317-4.884,6.22,6.22,0,0,1,7.317,4.884" transform="translate(395.267 65.17)" fill="#39c9bb"/>
        <path id="Trazado_730" data-name="Trazado 730" d="M125.888,23.729a6.22,6.22,0,1,1-7.317-4.884A6.22,6.22,0,0,1,125.888,23.729Z" transform="translate(395.267 65.17)" fill="none" stroke="#237d76" stroke-miterlimit="10" stroke-width="0.75"/>
        <path id="Trazado_731" data-name="Trazado 731" d="M133.964,28.871a18.552,18.552,0,1,1-21.825-14.562,18.556,18.556,0,0,1,21.825,14.562" transform="translate(338.362 48.541)" fill="#2a968b"/>
        <path id="Trazado_732" data-name="Trazado 732" d="M112.282,20.127s-.659-5.3-6.757-4.082-8.383,8.388-2.531,9.078,11.923,1.048,12.277,5.695-5.524,6.671-9.176,5.542-4.722-5.2-4.722-5.2" transform="translate(346.656 55.219)" fill="none" stroke="#237d76" stroke-miterlimit="10" stroke-width="0.75"/>
        <line id="Línea_10" data-name="Línea 10" x2="5.825" y2="29.186" transform="translate(451.16 66.978)" fill="none" stroke="#237d76" stroke-miterlimit="10" stroke-width="0.75"/>
        <path id="Trazado_733" data-name="Trazado 733" d="M104.507,23.7a6.7,6.7,0,1,1-7.881-5.26,6.7,6.7,0,0,1,7.881,5.26" transform="translate(317.53 63.739)" fill="#2a968b"/>
        <path id="Trazado_734" data-name="Trazado 734" d="M121.792,20.256A6.7,6.7,0,1,1,113.91,15a6.7,6.7,0,0,1,7.881,5.26" transform="translate(377.691 51.738)" fill="#2a968b"/>
        <path id="Trazado_735" data-name="Trazado 735" d="M96.675,20.546a1.841,1.841,0,0,0-2.442-1.474c-2.2.439-3.029,3.029-.914,3.28s4.306.376,4.436,2.057-1.994,2.411-3.316,2a2.84,2.84,0,0,1-1.707-1.877" transform="translate(320.527 66.154)" fill="none" stroke="#237d76" stroke-miterlimit="10" stroke-width="0.271"/>
        <line id="Línea_11" data-name="Línea 11" x2="2.101" y2="10.543" transform="translate(414.391 83.676)" fill="none" stroke="#237d76" stroke-miterlimit="10" stroke-width="0.271"/>
        <path id="Trazado_736" data-name="Trazado 736" d="M113.96,17.1a1.841,1.841,0,0,0-2.442-1.474c-2.2.439-3.029,3.029-.914,3.28s4.306.376,4.436,2.057-2,2.411-3.316,2a2.84,2.84,0,0,1-1.707-1.877" transform="translate(380.688 54.149)" fill="none" stroke="#237d76" stroke-miterlimit="10" stroke-width="0.271"/>
        <line id="Línea_12" data-name="Línea 12" x2="2.101" y2="10.543" transform="translate(491.839 68.224)" fill="none" stroke="#237d76" stroke-miterlimit="10" stroke-width="0.271"/>
        <path id="Trazado_737" data-name="Trazado 737" d="M91.2,19.165l24.114-4.812-2.648,5L92.061,23.466Z" transform="translate(317.424 49.957)" fill="#237d76"/>
        <path id="Trazado_738" data-name="Trazado 738" d="M128.447,11.733l-24.114,4.812,4.364,3.6,20.61-4.113Z" transform="translate(363.132 40.839)" fill="#237d76"/>
        <path id="Trazado_739" data-name="Trazado 739" d="M93.667,30.978l24.114-4.812-4.364-3.6-20.61,4.109Z" transform="translate(323.016 78.534)" fill="#237d76"/>
        <path id="Trazado_740" data-name="Trazado 740" d="M130.246,24.089,106.132,28.9l2.648-5,20.606-4.109Z" transform="translate(369.392 68.873)" fill="#237d76"/>
        <rect id="Rectángulo_181" data-name="Rectángulo 181" width="66.785" height="142.082" transform="translate(345.409 182.22) rotate(-81.307)" fill="#39c9bb"/>
        <rect id="Rectángulo_182" data-name="Rectángulo 182" width="58.058" height="132.698" transform="translate(350.706 178.616) rotate(-81.308)" fill="#237d76"/>
        <rect id="Rectángulo_183" data-name="Rectángulo 183" width="47.581" height="118.296" transform="translate(358.616 174.528) rotate(-81.308)" fill="#39c9bb"/>
        <path id="Trazado_741" data-name="Trazado 741" d="M92.671,34.9a6.221,6.221,0,1,1-5.206-7.088A6.224,6.224,0,0,1,92.671,34.9" transform="translate(279.488 96.547)" fill="#39c9bb"/>
        <path id="Trazado_742" data-name="Trazado 742" d="M92.671,34.9a6.221,6.221,0,1,1-5.206-7.088A6.224,6.224,0,0,1,92.671,34.9Z" transform="translate(279.488 96.547)" fill="none" stroke="#237d76" stroke-miterlimit="10" stroke-width="0.75"/>
        <path id="Trazado_743" data-name="Trazado 743" d="M91.275,44.036a6.221,6.221,0,1,1-5.211-7.088,6.224,6.224,0,0,1,5.211,7.088" transform="translate(274.625 128.348)" fill="#39c9bb"/>
        <path id="Trazado_744" data-name="Trazado 744" d="M91.275,44.036a6.221,6.221,0,1,1-5.211-7.088A6.224,6.224,0,0,1,91.275,44.036Z" transform="translate(274.625 128.348)" fill="none" stroke="#237d76" stroke-miterlimit="10" stroke-width="0.75"/>
        <path id="Trazado_745" data-name="Trazado 745" d="M118.366,38.827a6.221,6.221,0,1,1-5.211-7.088,6.217,6.217,0,0,1,5.211,7.088" transform="translate(368.916 110.218)" fill="#39c9bb"/>
        <path id="Trazado_746" data-name="Trazado 746" d="M118.366,38.827a6.221,6.221,0,1,1-5.211-7.088A6.217,6.217,0,0,1,118.366,38.827Z" transform="translate(368.916 110.218)" fill="none" stroke="#237d76" stroke-miterlimit="10" stroke-width="0.75"/>
        <path id="Trazado_747" data-name="Trazado 747" d="M116.968,47.964a6.221,6.221,0,1,1-5.206-7.088,6.217,6.217,0,0,1,5.206,7.088" transform="translate(364.054 142.02)" fill="#39c9bb"/>
        <path id="Trazado_748" data-name="Trazado 748" d="M116.968,47.964a6.221,6.221,0,1,1-5.206-7.088A6.217,6.217,0,0,1,116.968,47.964Z" transform="translate(364.054 142.02)" fill="none" stroke="#237d76" stroke-miterlimit="10" stroke-width="0.75"/>
        <path id="Trazado_749" data-name="Trazado 749" d="M126.652,52.861a18.552,18.552,0,1,1-15.534-21.144,18.549,18.549,0,0,1,15.534,21.144" transform="translate(312.406 109.645)" fill="#2a968b"/>
        <path id="Trazado_750" data-name="Trazado 750" d="M106.249,39.664s1.192-5.2-4.955-6.143-10.744,5.018-5.48,7.666,10.847,5.059,9.593,9.543-7.473,4.386-10.52,2.079-2.661-6.5-2.661-6.5" transform="translate(320.932 116.326)" fill="none" stroke="#237d76" stroke-miterlimit="10" stroke-width="0.75"/>
        <line id="Línea_13" data-name="Línea 13" x1="4.498" y2="29.419" transform="translate(418.231 145.469)" fill="none" stroke="#237d76" stroke-miterlimit="10" stroke-width="0.75"/>
        <path id="Trazado_751" data-name="Trazado 751" d="M97.031,40.533a6.7,6.7,0,1,1-5.614-7.639,6.706,6.706,0,0,1,5.614,7.639" transform="translate(291.334 114.221)" fill="#2a968b"/>
        <path id="Trazado_752" data-name="Trazado 752" d="M114.455,43.2a6.7,6.7,0,1,1-5.614-7.639,6.706,6.706,0,0,1,5.614,7.639" transform="translate(351.979 123.493)" fill="#2a968b"/>
        <path id="Trazado_753" data-name="Trazado 753" d="M89.663,35.765a1.84,1.84,0,0,0-1.792-2.218c-2.218-.341-3.88,1.81-1.98,2.769s3.92,1.828,3.468,3.445-2.7,1.586-3.8.753a2.842,2.842,0,0,1-.963-2.348" transform="translate(294.415 116.637)" fill="none" stroke="#237d76" stroke-miterlimit="10" stroke-width="0.271"/>
        <line id="Línea_14" data-name="Línea 14" x1="1.626" y2="10.628" transform="translate(380.842 148.602)" fill="none" stroke="#237d76" stroke-miterlimit="10" stroke-width="0.271"/>
        <path id="Trazado_754" data-name="Trazado 754" d="M107.087,38.429a1.839,1.839,0,0,0-1.792-2.218c-2.218-.341-3.88,1.81-1.976,2.769s3.916,1.828,3.463,3.446-2.7,1.586-3.8.753a2.842,2.842,0,0,1-.963-2.348" transform="translate(355.059 125.909)" fill="none" stroke="#237d76" stroke-miterlimit="10" stroke-width="0.271"/>
        <line id="Línea_15" data-name="Línea 15" x1="1.626" y2="10.628" transform="translate(458.91 160.537)" fill="none" stroke="#237d76" stroke-miterlimit="10" stroke-width="0.271"/>
        <path id="Trazado_755" data-name="Trazado 755" d="M85.778,29.673l24.307,3.714-4.2,3.8L85.115,34.01Z" transform="translate(296.243 103.28)" fill="#237d76"/>
        <path id="Trazado_756" data-name="Trazado 756" d="M122.807,35.412,98.5,31.7l2.872,4.875,20.772,3.177Z" transform="translate(342.832 110.325)" fill="#237d76"/>
        <path id="Trazado_757" data-name="Trazado 757" d="M83.874,42.129l24.3,3.714-2.868-4.875L84.537,37.792Z" transform="translate(291.923 131.537)" fill="#237d76"/>
        <path id="Trazado_758" data-name="Trazado 758" d="M121.415,47.45l-24.3-3.714,4.194-3.8,20.772,3.177Z" transform="translate(338 139.001)" fill="#237d76"/>
        <rect id="Rectángulo_184" data-name="Rectángulo 184" width="142.086" height="66.786" transform="translate(-0.001 106.432) rotate(-11.861)" fill="#39c9bb"/>
        <rect id="Rectángulo_185" data-name="Rectángulo 185" width="132.698" height="58.057" transform="translate(5.49 109.738) rotate(-11.86)" fill="#237d76"/>
        <rect id="Rectángulo_186" data-name="Rectángulo 186" width="118.295" height="47.582" transform="translate(13.614 113.383) rotate(-11.86)" fill="#39c9bb"/>
        <path id="Trazado_759" data-name="Trazado 759" d="M27.615,26.666A6.22,6.22,0,1,0,32.422,19.3a6.221,6.221,0,0,0-4.808,7.366" transform="translate(95.644 66.706)" fill="#39c9bb"/>
        <path id="Trazado_760" data-name="Trazado 760" d="M27.615,26.666A6.22,6.22,0,1,0,32.422,19.3,6.221,6.221,0,0,0,27.615,26.666Z" transform="translate(95.644 66.706)" fill="none" stroke="#237d76" stroke-miterlimit="10" stroke-width="0.75"/>
        <path id="Trazado_761" data-name="Trazado 761" d="M29.515,35.711a6.22,6.22,0,1,0,4.808-7.366,6.221,6.221,0,0,0-4.808,7.366" transform="translate(102.257 98.187)" fill="#39c9bb"/>
        <path id="Trazado_762" data-name="Trazado 762" d="M29.515,35.711a6.22,6.22,0,1,0,4.808-7.366A6.221,6.221,0,0,0,29.515,35.711Z" transform="translate(102.257 98.187)" fill="none" stroke="#237d76" stroke-miterlimit="10" stroke-width="0.75"/>
        <path id="Trazado_763" data-name="Trazado 763" d="M2.177,32.006a6.22,6.22,0,1,0,4.808-7.366,6.221,6.221,0,0,0-4.808,7.366" transform="translate(7.107 85.299)" fill="#39c9bb"/>
        <path id="Trazado_764" data-name="Trazado 764" d="M2.177,32.006a6.22,6.22,0,1,0,4.808-7.366A6.221,6.221,0,0,0,2.177,32.006Z" transform="translate(7.107 85.299)" fill="none" stroke="#237d76" stroke-miterlimit="10" stroke-width="0.75"/>
        <path id="Trazado_765" data-name="Trazado 765" d="M4.077,41.053a6.22,6.22,0,1,0,4.808-7.366,6.221,6.221,0,0,0-4.808,7.366" transform="translate(13.72 116.783)" fill="#39c9bb"/>
        <path id="Trazado_766" data-name="Trazado 766" d="M4.077,41.053a6.22,6.22,0,1,0,4.808-7.366A6.221,6.221,0,0,0,4.077,41.053Z" transform="translate(13.72 116.783)" fill="none" stroke="#237d76" stroke-miterlimit="10" stroke-width="0.75"/>
        <path id="Trazado_767" data-name="Trazado 767" d="M13.3,45.961A18.551,18.551,0,1,0,27.638,23.993,18.55,18.55,0,0,0,13.3,45.961" transform="translate(44.884 82.117)" fill="#2a968b"/>
        <path id="Trazado_768" data-name="Trazado 768" d="M15.674,32.107s-1.479-5.13,4.61-6.407,11,4.418,5.9,7.348S15.629,38.7,17.125,43.111s7.706,3.965,10.619,1.492,2.3-6.64,2.3-6.64" transform="translate(54.003 88.81)" fill="none" stroke="#237d76" stroke-miterlimit="10" stroke-width="0.75"/>
        <line id="Línea_16" data-name="Línea 16" x2="6.116" y2="29.123" transform="translate(73.542 110.167)" fill="none" stroke="#237d76" stroke-miterlimit="10" stroke-width="0.75"/>
        <path id="Trazado_769" data-name="Trazado 769" d="M24.3,32.509a6.7,6.7,0,1,0,5.179-7.935A6.7,6.7,0,0,0,24.3,32.509" transform="translate(84.067 85.03)" fill="#2a968b"/>
        <path id="Trazado_770" data-name="Trazado 770" d="M7.048,36.132A6.7,6.7,0,1,0,12.228,28.2a6.7,6.7,0,0,0-5.179,7.935" transform="translate(24.028 97.639)" fill="#2a968b"/>
        <path id="Trazado_771" data-name="Trazado 771" d="M25.157,27.507a1.842,1.842,0,0,1,1.667-2.316c2.2-.461,3.974,1.6,2.128,2.657s-3.813,2.043-3.271,3.634,2.782,1.434,3.835.538a2.839,2.839,0,0,0,.829-2.4" transform="translate(87.362 87.447)" fill="none" stroke="#237d76" stroke-miterlimit="10" stroke-width="0.271"/>
        <line id="Línea_17" data-name="Línea 17" x2="2.209" y2="10.52" transform="translate(113.914 111.069)" fill="none" stroke="#237d76" stroke-miterlimit="10" stroke-width="0.271"/>
        <path id="Trazado_772" data-name="Trazado 772" d="M7.907,31.129a1.842,1.842,0,0,1,1.667-2.316c2.2-.461,3.974,1.6,2.128,2.657S7.889,33.513,8.431,35.1s2.782,1.434,3.835.538a2.849,2.849,0,0,0,.833-2.4" transform="translate(27.323 100.053)" fill="none" stroke="#237d76" stroke-miterlimit="10" stroke-width="0.271"/>
        <line id="Línea_18" data-name="Línea 18" x2="2.209" y2="10.52" transform="translate(36.626 127.301)" fill="none" stroke="#237d76" stroke-miterlimit="10" stroke-width="0.271"/>
        <path id="Trazado_773" data-name="Trazado 773" d="M44.021,21.3,19.961,26.35l4.4,3.562,20.566-4.319Z" transform="translate(69.475 74.123)" fill="#237d76"/>
        <path id="Trazado_774" data-name="Trazado 774" d="M6.855,29.1l24.06-5.054-2.594,5.027L7.755,33.395Z" transform="translate(23.858 83.703)" fill="#237d76"/>
        <path id="Trazado_775" data-name="Trazado 775" d="M45.911,33.627,21.85,38.681l2.594-5.032L45.01,29.334Z" transform="translate(76.05 102.1)" fill="#237d76"/>
        <path id="Trazado_776" data-name="Trazado 776" d="M9.444,40.862,33.5,35.808l-4.4-3.558L8.543,36.57Z" transform="translate(29.734 112.25)" fill="#237d76"/>
        <g id="Grupo_204" data-name="Grupo 204" transform="translate(0 77.23)" style="mix-blend-mode: multiply;isolation: isolate">
          <g id="Grupo_203" data-name="Grupo 203">
            <g id="Grupo_202" data-name="Grupo 202" clip-path="url(#clip-path-3)">
              <rect id="Rectángulo_187" data-name="Rectángulo 187" width="142.086" height="66.786" transform="translate(-0.002 29.205) rotate(-11.862)" fill="#237d76"/>
            </g>
          </g>
        </g>
        <rect id="Rectángulo_189" data-name="Rectángulo 189" width="56.214" height="119.59" transform="translate(24.578 46.737) rotate(-49.796)" fill="#39c9bb"/>
        <rect id="Rectángulo_190" data-name="Rectángulo 190" width="48.865" height="111.691" transform="translate(29.966 46.48) rotate(-49.797)" fill="#237d76"/>
        <rect id="Rectángulo_191" data-name="Rectángulo 191" width="40.05" height="99.567" transform="translate(37.442 47.026) rotate(-49.795)" fill="#39c9bb"/>
        <path id="Trazado_777" data-name="Trazado 777" d="M30.717,19.044a5.236,5.236,0,1,0,7.379-.618,5.235,5.235,0,0,0-7.379.618" transform="translate(102.601 59.823)" fill="#39c9bb"/>
        <path id="Trazado_778" data-name="Trazado 778" d="M30.717,19.044a5.236,5.236,0,1,0,7.379-.618A5.235,5.235,0,0,0,30.717,19.044Z" transform="translate(102.601 59.823)" fill="none" stroke="#237d76" stroke-miterlimit="10" stroke-width="0.632"/>
        <path id="Trazado_779" data-name="Trazado 779" d="M25.695,24.986a5.236,5.236,0,1,0,7.379-.618,5.235,5.235,0,0,0-7.379.618" transform="translate(85.121 80.505)" fill="#39c9bb"/>
        <path id="Trazado_780" data-name="Trazado 780" d="M25.695,24.986a5.236,5.236,0,1,0,7.379-.618A5.235,5.235,0,0,0,25.695,24.986Z" transform="translate(85.121 80.505)" fill="none" stroke="#237d76" stroke-miterlimit="10" stroke-width="0.632"/>
        <path id="Trazado_781" data-name="Trazado 781" d="M14.007,4.922A5.236,5.236,0,1,0,21.386,4.3a5.235,5.235,0,0,0-7.379.618" transform="translate(44.441 10.672)" fill="#39c9bb"/>
        <path id="Trazado_782" data-name="Trazado 782" d="M14.007,4.922A5.236,5.236,0,1,0,21.386,4.3,5.235,5.235,0,0,0,14.007,4.922Z" transform="translate(44.441 10.672)" fill="none" stroke="#237d76" stroke-miterlimit="10" stroke-width="0.632"/>
        <path id="Trazado_783" data-name="Trazado 783" d="M8.986,10.864a5.235,5.235,0,1,0,7.375-.618,5.238,5.238,0,0,0-7.375.618" transform="translate(26.965 31.353)" fill="#39c9bb"/>
        <path id="Trazado_784" data-name="Trazado 784" d="M8.986,10.864a5.235,5.235,0,1,0,7.375-.618A5.238,5.238,0,0,0,8.986,10.864Z" transform="translate(26.965 31.353)" fill="none" stroke="#237d76" stroke-miterlimit="10" stroke-width="0.632"/>
        <path id="Trazado_785" data-name="Trazado 785" d="M19.961,16.268a15.615,15.615,0,1,0,22-1.846,15.615,15.615,0,0,0-22,1.846" transform="translate(56.637 37.361)" fill="#2a968b"/>
        <path id="Trazado_786" data-name="Trazado 786" d="M25.092,14.16s2.639-3.634,6.64-.255S34.492,23.5,29.9,21.62s-9.212-4.077-11.367-.8,1.353,7.164,4.507,7.823,5.6-1.909,5.6-1.909" transform="translate(62.211 43.393)" fill="none" stroke="#237d76" stroke-miterlimit="10" stroke-width="0.632"/>
        <line id="Línea_19" data-name="Línea 19" x1="16.17" y2="19.132" transform="translate(80.269 54.556)" fill="none" stroke="#237d76" stroke-miterlimit="10" stroke-width="0.632"/>
        <path id="Trazado_787" data-name="Trazado 787" d="M25.489,19.741a5.64,5.64,0,1,0,7.948-.668,5.639,5.639,0,0,0-7.948.668" transform="translate(84.077 61.748)" fill="#2a968b"/>
        <path id="Trazado_788" data-name="Trazado 788" d="M14.158,10.164A5.64,5.64,0,1,0,22.107,9.5a5.639,5.639,0,0,0-7.948.668" transform="translate(44.639 28.415)" fill="#2a968b"/>
        <path id="Trazado_789" data-name="Trazado 789" d="M27.342,18.979a1.549,1.549,0,0,1,2.4-.094c1.447,1.223,1,3.468-.659,2.791s-3.329-1.474-4.1-.291.488,2.59,1.626,2.823a2.392,2.392,0,0,0,2.021-.686" transform="translate(86.091 63.926)" fill="none" stroke="#237d76" stroke-miterlimit="10" stroke-width="0.228"/>
        <line id="Línea_20" data-name="Línea 20" x1="5.843" y2="6.909" transform="translate(110.889 81.824)" fill="none" stroke="#237d76" stroke-miterlimit="10" stroke-width="0.228"/>
        <path id="Trazado_790" data-name="Trazado 790" d="M16.011,9.4a1.549,1.549,0,0,1,2.4-.094c1.447,1.223,1,3.468-.659,2.791s-3.329-1.474-4.1-.291.488,2.59,1.626,2.823a2.392,2.392,0,0,0,2.021-.686" transform="translate(46.654 30.597)" fill="none" stroke="#237d76" stroke-miterlimit="10" stroke-width="0.228"/>
        <line id="Línea_21" data-name="Línea 21" x1="5.843" y2="6.909" transform="translate(60.12 38.916)" fill="none" stroke="#237d76" stroke-miterlimit="10" stroke-width="0.228"/>
        <path id="Trazado_791" data-name="Trazado 791" d="M40.669,26.771,24.862,13.411l-.085,4.763L38.285,29.594Z" transform="translate(86.235 46.677)" fill="#237d76"/>
        <path id="Trazado_792" data-name="Trazado 792" d="M18.039,6.135,33.846,19.5l-4.682.878L15.655,8.958Z" transform="translate(54.487 21.355)" fill="#237d76"/>
        <path id="Trazado_793" data-name="Trazado 793" d="M35.608,33.363,19.8,20.006l4.682-.883L37.992,30.54Z" transform="translate(68.918 66.562)" fill="#237d76"/>
        <path id="Trazado_794" data-name="Trazado 794" d="M11.192,14.237,27,27.593l.085-4.758L13.576,11.414Z" transform="translate(38.956 39.729)" fill="#237d76"/>
        <g id="Grupo_207" data-name="Grupo 207" transform="translate(24.578 3.804)" style="mix-blend-mode: multiply;isolation: isolate">
          <g id="Grupo_206" data-name="Grupo 206">
            <g id="Grupo_205" data-name="Grupo 205" clip-path="url(#clip-path-7)">
              <rect id="Rectángulo_192" data-name="Rectángulo 192" width="56.212" height="119.589" transform="matrix(0.646, -0.764, 0.764, 0.646, 0.002, 42.932)" fill="#237d76"/>
            </g>
          </g>
        </g>
        <rect id="Rectángulo_194" data-name="Rectángulo 194" width="53.239" height="113.259" transform="matrix(0.016, -1, 1, 0.016, 19.08, 241.699)" fill="#39c9bb"/>
        <rect id="Rectángulo_195" data-name="Rectángulo 195" width="46.276" height="105.78" transform="translate(22.874 238.278) rotate(-89.102)" fill="#237d76"/>
        <rect id="Rectángulo_196" data-name="Rectángulo 196" width="37.928" height="94.295" transform="translate(28.68 234.193) rotate(-89.102)" fill="#39c9bb"/>
        <path id="Trazado_795" data-name="Trazado 795" d="M26.347,48.431a4.958,4.958,0,1,0,5.036-4.879,4.959,4.959,0,0,0-5.036,4.879" transform="translate(91.697 151.581)" fill="#39c9bb"/>
        <path id="Trazado_796" data-name="Trazado 796" d="M26.347,48.431a4.958,4.958,0,1,0,5.036-4.879A4.959,4.959,0,0,0,26.347,48.431Z" transform="translate(91.697 151.581)" fill="none" stroke="#237d76" stroke-miterlimit="10" stroke-width="0.598"/>
        <path id="Trazado_797" data-name="Trazado 797" d="M26.231,55.8a4.958,4.958,0,1,0,5.036-4.879A4.959,4.959,0,0,0,26.231,55.8" transform="translate(91.293 177.222)" fill="#39c9bb"/>
        <path id="Trazado_798" data-name="Trazado 798" d="M26.231,55.8a4.958,4.958,0,1,0,5.036-4.879A4.959,4.959,0,0,0,26.231,55.8Z" transform="translate(91.293 177.222)" fill="none" stroke="#237d76" stroke-miterlimit="10" stroke-width="0.598"/>
        <path id="Trazado_799" data-name="Trazado 799" d="M5.628,48.106a4.958,4.958,0,1,0,5.036-4.879,4.962,4.962,0,0,0-5.036,4.879" transform="translate(19.588 150.45)" fill="#39c9bb"/>
        <path id="Trazado_800" data-name="Trazado 800" d="M5.628,48.106a4.958,4.958,0,1,0,5.036-4.879A4.962,4.962,0,0,0,5.628,48.106Z" transform="translate(19.588 150.45)" fill="none" stroke="#237d76" stroke-miterlimit="10" stroke-width="0.598"/>
        <path id="Trazado_801" data-name="Trazado 801" d="M5.514,55.473a4.958,4.958,0,1,0,5.036-4.879,4.959,4.959,0,0,0-5.036,4.879" transform="translate(19.187 176.09)" fill="#39c9bb"/>
        <path id="Trazado_802" data-name="Trazado 802" d="M5.514,55.473a4.958,4.958,0,1,0,5.036-4.879A4.959,4.959,0,0,0,5.514,55.473Z" transform="translate(19.187 176.09)" fill="none" stroke="#237d76" stroke-miterlimit="10" stroke-width="0.598"/>
        <path id="Trazado_803" data-name="Trazado 803" d="M13.691,59.412A14.788,14.788,0,1,0,28.71,44.859,14.788,14.788,0,0,0,13.691,59.412" transform="translate(47.647 156.129)" fill="#2a968b"/>
        <path id="Trazado_804" data-name="Trazado 804" d="M16.61,50.556s-.246-4.248,4.713-4.171,7.778,5.372,3.289,6.752-9.2,2.54-8.809,6.228S21.1,63.8,23.8,62.4s2.953-4.758,2.953-4.758" transform="translate(54.926 161.441)" fill="none" stroke="#237d76" stroke-miterlimit="10" stroke-width="0.598"/>
        <line id="Línea_22" data-name="Línea 22" x1="0.372" y2="23.72" transform="translate(76.06 204.319)" fill="none" stroke="#237d76" stroke-miterlimit="10" stroke-width="0.598"/>
        <path id="Trazado_805" data-name="Trazado 805" d="M22.812,52.336a5.341,5.341,0,1,0,5.426-5.26,5.347,5.347,0,0,0-5.426,5.26" transform="translate(79.397 163.846)" fill="#2a968b"/>
        <path id="Trazado_806" data-name="Trazado 806" d="M8.763,52.111a5.341,5.341,0,1,0,5.426-5.256,5.343,5.343,0,0,0-5.426,5.256" transform="translate(30.499 163.08)" fill="#2a968b"/>
        <path id="Trazado_807" data-name="Trazado 807" d="M23.867,49.133a1.465,1.465,0,0,1,1.7-1.505c1.792.027,2.809,1.94,1.187,2.437s-3.325.918-3.181,2.249,1.909,1.6,2.885,1.1a2.278,2.278,0,0,0,1.071-1.721" transform="translate(82.025 165.767)" fill="none" stroke="#237d76" stroke-miterlimit="10" stroke-width="0.216"/>
        <line id="Línea_23" data-name="Línea 23" x1="0.134" y2="8.567" transform="translate(107.526 212.128)" fill="none" stroke="#237d76" stroke-miterlimit="10" stroke-width="0.216"/>
        <path id="Trazado_808" data-name="Trazado 808" d="M9.818,48.913a1.467,1.467,0,0,1,1.7-1.505c1.792.027,2.809,1.94,1.187,2.437s-3.325.918-3.181,2.249,1.909,1.6,2.885,1.1a2.278,2.278,0,0,0,1.071-1.721" transform="translate(33.128 165.002)" fill="none" stroke="#237d76" stroke-miterlimit="10" stroke-width="0.216"/>
        <line id="Línea_24" data-name="Línea 24" x1="0.134" y2="8.567" transform="translate(44.581 211.14)" fill="none" stroke="#237d76" stroke-miterlimit="10" stroke-width="0.216"/>
        <path id="Trazado_809" data-name="Trazado 809" d="M39.795,44.853l-19.6-.309,2.791,3.544,16.753.264Z" transform="translate(70.296 155.035)" fill="#237d76"/>
        <path id="Trazado_810" data-name="Trazado 810" d="M9.565,44.376l19.6.309-2.9,3.45-16.748-.26Z" transform="translate(33.104 154.454)" fill="#237d76"/>
        <path id="Trazado_811" data-name="Trazado 811" d="M39.68,54.859l-19.6-.309,2.9-3.45,16.748.26Z" transform="translate(69.896 177.856)" fill="#237d76"/>
        <path id="Trazado_812" data-name="Trazado 812" d="M9.409,54.421l19.6.309-2.791-3.544L9.462,50.922Z" transform="translate(32.746 177.236)" fill="#237d76"/>
        <g id="Grupo_210" data-name="Grupo 210" transform="translate(19.079 188.468)" style="mix-blend-mode: multiply;isolation: isolate">
          <g id="Grupo_209" data-name="Grupo 209">
            <g id="Grupo_208" data-name="Grupo 208" clip-path="url(#clip-path-8)">
              <rect id="Rectángulo_197" data-name="Rectángulo 197" width="53.239" height="113.261" transform="matrix(0.016, -1, 1, 0.016, 0.001, 53.234)" fill="#237d76"/>
            </g>
          </g>
        </g>
        <rect id="Rectángulo_199" data-name="Rectángulo 199" width="66.786" height="142.086" transform="translate(0.185 100.135) rotate(-78.716)" fill="#39c9bb"/>
        <rect id="Rectángulo_200" data-name="Rectángulo 200" width="58.056" height="132.699" transform="translate(5.641 96.772) rotate(-78.716)" fill="#237d76"/>
        <rect id="Rectángulo_201" data-name="Rectángulo 201" width="47.579" height="118.294" transform="matrix(0.196, -0.981, 0.981, 0.196, 13.73, 93.044)" fill="#39c9bb"/>
        <path id="Trazado_813" data-name="Trazado 813" d="M29.494,19.75a6.22,6.22,0,1,0,7.317-4.884,6.22,6.22,0,0,0-7.317,4.884" transform="translate(102.233 51.322)" fill="#39c9bb"/>
        <path id="Trazado_814" data-name="Trazado 814" d="M29.494,19.75a6.22,6.22,0,1,0,7.317-4.884A6.22,6.22,0,0,0,29.494,19.75Z" transform="translate(102.233 51.322)" fill="none" stroke="#237d76" stroke-miterlimit="10" stroke-width="0.75"/>
        <path id="Trazado_815" data-name="Trazado 815" d="M27.686,28.815A6.22,6.22,0,1,0,35,23.931a6.22,6.22,0,0,0-7.317,4.884" transform="translate(95.94 82.872)" fill="#39c9bb"/>
        <path id="Trazado_816" data-name="Trazado 816" d="M27.686,28.815A6.22,6.22,0,1,0,35,23.931,6.22,6.22,0,0,0,27.686,28.815Z" transform="translate(95.94 82.872)" fill="none" stroke="#237d76" stroke-miterlimit="10" stroke-width="0.75"/>
        <path id="Trazado_817" data-name="Trazado 817" d="M4,14.665A6.22,6.22,0,1,0,11.32,9.781,6.22,6.22,0,0,0,4,14.665" transform="translate(13.511 33.623)" fill="#39c9bb"/>
        <path id="Trazado_818" data-name="Trazado 818" d="M4,14.665A6.22,6.22,0,1,0,11.32,9.781,6.22,6.22,0,0,0,4,14.665Z" transform="translate(13.511 33.623)" fill="none" stroke="#237d76" stroke-miterlimit="10" stroke-width="0.75"/>
        <path id="Trazado_819" data-name="Trazado 819" d="M2.2,23.729a6.22,6.22,0,1,0,7.317-4.884A6.22,6.22,0,0,0,2.2,23.729" transform="translate(7.218 65.17)" fill="#39c9bb"/>
        <path id="Trazado_820" data-name="Trazado 820" d="M2.2,23.729a6.22,6.22,0,1,0,7.317-4.884A6.22,6.22,0,0,0,2.2,23.729Z" transform="translate(7.218 65.17)" fill="none" stroke="#237d76" stroke-miterlimit="10" stroke-width="0.75"/>
        <path id="Trazado_821" data-name="Trazado 821" d="M13.282,28.871A18.552,18.552,0,1,0,35.1,14.309a18.549,18.549,0,0,0-21.82,14.562" transform="translate(44.965 48.541)" fill="#2a968b"/>
        <path id="Trazado_822" data-name="Trazado 822" d="M18.321,20.127s.659-5.3,6.757-4.082,8.383,8.388,2.531,9.078-11.923,1.048-12.277,5.695,5.524,6.671,9.181,5.542,4.718-5.2,4.718-5.2" transform="translate(53.309 55.219)" fill="none" stroke="#237d76" stroke-miterlimit="10" stroke-width="0.75"/>
        <line id="Línea_25" data-name="Línea 25" x1="5.825" y2="29.186" transform="translate(73.584 66.978)" fill="none" stroke="#237d76" stroke-miterlimit="10" stroke-width="0.75"/>
        <path id="Trazado_823" data-name="Trazado 823" d="M24.325,23.7a6.7,6.7,0,1,0,7.886-5.26,6.7,6.7,0,0,0-7.886,5.26" transform="translate(84.206 63.739)" fill="#2a968b"/>
        <path id="Trazado_824" data-name="Trazado 824" d="M7.04,20.256A6.7,6.7,0,1,0,14.921,15a6.7,6.7,0,0,0-7.881,5.26" transform="translate(24.046 51.738)" fill="#2a968b"/>
        <path id="Trazado_825" data-name="Trazado 825" d="M26.145,20.546a1.841,1.841,0,0,1,2.442-1.474c2.2.439,3.029,3.029.914,3.28s-4.306.376-4.436,2.057,2,2.411,3.316,2a2.84,2.84,0,0,0,1.707-1.877" transform="translate(87.221 66.154)" fill="none" stroke="#237d76" stroke-miterlimit="10" stroke-width="0.271"/>
        <line id="Línea_26" data-name="Línea 26" x1="2.101" y2="10.543" transform="translate(114.076 83.676)" fill="none" stroke="#237d76" stroke-miterlimit="10" stroke-width="0.271"/>
        <path id="Trazado_826" data-name="Trazado 826" d="M8.86,17.1A1.841,1.841,0,0,1,11.3,15.623c2.2.439,3.029,3.029.914,3.28s-4.31.376-4.436,2.057,1.994,2.411,3.316,2A2.84,2.84,0,0,0,12.8,21.085" transform="translate(27.06 54.149)" fill="none" stroke="#237d76" stroke-miterlimit="10" stroke-width="0.271"/>
        <line id="Línea_27" data-name="Línea 27" x1="2.101" y2="10.543" transform="translate(36.628 68.224)" fill="none" stroke="#237d76" stroke-miterlimit="10" stroke-width="0.271"/>
        <path id="Trazado_827" data-name="Trazado 827" d="M45.949,19.165,21.834,14.353l2.648,5,20.606,4.109Z" transform="translate(75.995 49.957)" fill="#237d76"/>
        <path id="Trazado_828" data-name="Trazado 828" d="M9.37,11.733l24.114,4.812-4.364,3.6L8.51,16.034Z" transform="translate(29.619 40.839)" fill="#237d76"/>
        <path id="Trazado_829" data-name="Trazado 829" d="M44.15,30.978,20.036,26.166l4.364-3.6,20.61,4.109Z" transform="translate(69.735 78.534)" fill="#237d76"/>
        <path id="Trazado_830" data-name="Trazado 830" d="M6.9,24.089,31.017,28.9l-2.648-5L7.764,19.788Z" transform="translate(24.027 68.873)" fill="#237d76"/>
        <rect id="Rectángulo_202" data-name="Rectángulo 202" width="142.082" height="66.785" transform="translate(34.614 137.677) rotate(-8.693)" fill="#39c9bb"/>
        <rect id="Rectángulo_203" data-name="Rectángulo 203" width="132.698" height="58.058" transform="translate(39.914 141.28) rotate(-8.692)" fill="#237d76"/>
        <rect id="Rectángulo_204" data-name="Rectángulo 204" width="118.296" height="47.581" transform="matrix(0.989, -0.151, 0.151, 0.989, 47.825, 145.371)" fill="#39c9bb"/>
        <path id="Trazado_831" data-name="Trazado 831" d="M35.411,34.9a6.221,6.221,0,1,0,5.211-7.088A6.224,6.224,0,0,0,35.411,34.9" transform="translate(122.997 96.547)" fill="#39c9bb"/>
        <path id="Trazado_832" data-name="Trazado 832" d="M35.411,34.9a6.221,6.221,0,1,0,5.211-7.088A6.224,6.224,0,0,0,35.411,34.9Z" transform="translate(122.997 96.547)" fill="none" stroke="#237d76" stroke-miterlimit="10" stroke-width="0.75"/>
        <path id="Trazado_833" data-name="Trazado 833" d="M36.808,44.036a6.221,6.221,0,1,0,5.211-7.088,6.224,6.224,0,0,0-5.211,7.088" transform="translate(127.859 128.348)" fill="#39c9bb"/>
        <path id="Trazado_834" data-name="Trazado 834" d="M36.808,44.036a6.221,6.221,0,1,0,5.211-7.088A6.224,6.224,0,0,0,36.808,44.036Z" transform="translate(127.859 128.348)" fill="none" stroke="#237d76" stroke-miterlimit="10" stroke-width="0.75"/>
        <path id="Trazado_835" data-name="Trazado 835" d="M9.717,38.827a6.221,6.221,0,1,0,5.206-7.088,6.217,6.217,0,0,0-5.206,7.088" transform="translate(33.569 110.218)" fill="#39c9bb"/>
        <path id="Trazado_836" data-name="Trazado 836" d="M9.717,38.827a6.221,6.221,0,1,0,5.206-7.088A6.217,6.217,0,0,0,9.717,38.827Z" transform="translate(33.569 110.218)" fill="none" stroke="#237d76" stroke-miterlimit="10" stroke-width="0.75"/>
        <path id="Trazado_837" data-name="Trazado 837" d="M11.114,47.964a6.221,6.221,0,1,0,5.206-7.088,6.217,6.217,0,0,0-5.206,7.088" transform="translate(38.431 142.02)" fill="#39c9bb"/>
        <path id="Trazado_838" data-name="Trazado 838" d="M11.114,47.964a6.221,6.221,0,1,0,5.206-7.088A6.217,6.217,0,0,0,11.114,47.964Z" transform="translate(38.431 142.02)" fill="none" stroke="#237d76" stroke-miterlimit="10" stroke-width="0.75"/>
        <path id="Trazado_839" data-name="Trazado 839" d="M20.592,52.861A18.552,18.552,0,1,0,36.126,31.717,18.549,18.549,0,0,0,20.592,52.861" transform="translate(70.918 109.645)" fill="#2a968b"/>
        <path id="Trazado_840" data-name="Trazado 840" d="M23.147,39.664s-1.192-5.2,4.955-6.143,10.744,5.018,5.48,7.666-10.847,5.059-9.593,9.543,7.473,4.386,10.52,2.079,2.661-6.5,2.661-6.5" transform="translate(80.24 116.326)" fill="none" stroke="#237d76" stroke-miterlimit="10" stroke-width="0.75"/>
        <line id="Línea_28" data-name="Línea 28" x2="4.498" y2="29.419" transform="translate(107.838 145.469)" fill="none" stroke="#237d76" stroke-miterlimit="10" stroke-width="0.75"/>
        <path id="Trazado_841" data-name="Trazado 841" d="M31.8,40.533a6.7,6.7,0,1,0,5.614-7.639A6.706,6.706,0,0,0,31.8,40.533" transform="translate(110.404 114.221)" fill="#2a968b"/>
        <path id="Trazado_842" data-name="Trazado 842" d="M14.375,43.2a6.7,6.7,0,1,0,5.61-7.639,6.7,6.7,0,0,0-5.61,7.639" transform="translate(49.759 123.493)" fill="#2a968b"/>
        <path id="Trazado_843" data-name="Trazado 843" d="M32.721,35.765a1.84,1.84,0,0,1,1.792-2.218c2.218-.341,3.88,1.81,1.976,2.769s-3.916,1.828-3.463,3.445,2.7,1.586,3.8.753a2.842,2.842,0,0,0,.963-2.348" transform="translate(113.769 116.637)" fill="none" stroke="#237d76" stroke-miterlimit="10" stroke-width="0.271"/>
        <line id="Línea_29" data-name="Línea 29" x2="1.626" y2="10.628" transform="translate(148.099 148.602)" fill="none" stroke="#237d76" stroke-miterlimit="10" stroke-width="0.271"/>
        <path id="Trazado_844" data-name="Trazado 844" d="M15.3,38.429a1.839,1.839,0,0,1,1.792-2.218c2.218-.341,3.88,1.81,1.976,2.769s-3.916,1.828-3.463,3.446,2.7,1.586,3.8.753a2.842,2.842,0,0,0,.963-2.348" transform="translate(53.125 125.909)" fill="none" stroke="#237d76" stroke-miterlimit="10" stroke-width="0.271"/>
        <line id="Línea_30" data-name="Línea 30" x2="1.626" y2="10.628" transform="translate(70.032 160.537)" fill="none" stroke="#237d76" stroke-miterlimit="10" stroke-width="0.271"/>
        <path id="Trazado_845" data-name="Trazado 845" d="M52.032,29.673l-24.3,3.714,4.194,3.8L52.7,34.01Z" transform="translate(96.514 103.28)" fill="#237d76"/>
        <path id="Trazado_846" data-name="Trazado 846" d="M14.491,35.412,38.8,31.7l-2.872,4.875L15.155,39.749Z" transform="translate(50.437 110.325)" fill="#237d76"/>
        <path id="Trazado_847" data-name="Trazado 847" d="M53.425,42.129,29.118,45.843l2.872-4.875,20.772-3.177Z" transform="translate(101.346 131.537)" fill="#237d76"/>
        <path id="Trazado_848" data-name="Trazado 848" d="M16.4,47.45l24.3-3.714-4.194-3.8L15.733,43.113Z" transform="translate(54.758 139.001)" fill="#237d76"/>
        <path id="Trazado_849" data-name="Trazado 849" d="M344.427,238.809H42.069A21.375,21.375,0,0,1,20.7,217.432V29.107A21.375,21.375,0,0,1,42.069,7.731H344.427A21.372,21.372,0,0,1,365.8,29.107V217.432a21.372,21.372,0,0,1-21.372,21.376" transform="translate(72.036 26.91)" fill="#122237"/>
        <path id="Trazado_850" data-name="Trazado 850" d="M181.156,42.308a40.705,40.705,0,0,1-40.705,40.705H84.184a40.705,40.705,0,0,1,0-81.411h56.266A40.705,40.705,0,0,1,181.156,42.308Z" transform="translate(151.329 5.581)" fill="none" stroke="#122237" stroke-miterlimit="10" stroke-width="3.206"/>
        <rect id="Rectángulo_205" data-name="Rectángulo 205" width="25.14" height="231.078" transform="translate(352.835 34.639)" fill="#2a3c51"/>
        <rect id="Rectángulo_206" data-name="Rectángulo 206" width="25.14" height="231.078" transform="translate(151.71 34.639)" fill="#2a3c51"/>
        <rect id="Rectángulo_207" data-name="Rectángulo 207" width="25.14" height="43.098" transform="translate(352.84 119.719)" fill="none" stroke="#fff" stroke-miterlimit="10" stroke-width="1.069"/>
        <line id="Línea_31" data-name="Línea 31" x2="25.14" transform="translate(352.837 141.269)" fill="none" stroke="#fff" stroke-miterlimit="10" stroke-width="1.069"/>
        <rect id="Rectángulo_208" data-name="Rectángulo 208" width="25.14" height="43.098" transform="translate(151.71 119.719)" fill="none" stroke="#fff" stroke-miterlimit="10" stroke-width="1.069"/>
        <line id="Línea_32" data-name="Línea 32" x2="25.14" transform="translate(151.71 141.269)" fill="none" stroke="#fff" stroke-miterlimit="10" stroke-width="1.069"/>
        <rect id="Rectángulo_209" data-name="Rectángulo 209" width="112.362" height="18.388" transform="translate(211.923 88.593)" fill="#364f68"/>
      </g>
    </g>
  </g>
</svg>
