<svg id="mujer" xmlns="http://www.w3.org/2000/svg" xmlns:xlink="http://www.w3.org/1999/xlink" width="286.422" height="302.219" viewBox="0 0 286.422 302.219">
  <defs>
    <clipPath id="clip-path">
      <rect id="Rectángulo_87" data-name="Rectángulo 87" width="286.422" height="302.219" fill="none"/>
    </clipPath>
  </defs>
  <g id="Grupo_56" data-name="Grupo 56" clip-path="url(#clip-path)">
    <path id="Trazado_217" data-name="Trazado 217" d="M173.557,33.142a49.941,49.941,0,0,1,16.457,43.177c-.981,7.729-3.554,16.479,1.2,22.649,4.708,6.106,14.528,6.418,19.021,12.686,5.29,7.378.052,17.717,1.636,26.656,1.488,8.393,9.942,14.936,18.439,14.273a70.126,70.126,0,0,1-35.47,13.371q-4.555-6.477-9.108-12.953c3.47,4.549,2.151,11.463-1.636,15.75s-9.413,6.451-14.943,7.911a89,89,0,0,1-77.287-16.476" transform="translate(33.182 11.971)" fill="#1a2e35"/>
    <path id="Trazado_218" data-name="Trazado 218" d="M42.677,106.521c2.234-5.853,5.766-11.205,7.374-17.26C53.5,76.247,47.823,61.13,54.782,49.6,59.736,41.4,69.614,37.746,78.9,35.377s19.221-4.278,26.372-10.66c5.245-4.68,8.423-11.322,13.651-16.02C126.374,2,136.984.132,147,.008c10.285-.128,20.84,1.376,29.841,6.354s16.244,13.85,17.392,24.073c.558,4.983-.3,10.135,1.024,14.973,1.458,5.318,5.37,9.592,7.665,14.607,4.851,10.6,1.267,24.371-8.133,31.26l-74.853,87.489c-15.063,4.862-50.566-3.648-61.462-15.13s-21.437-42.325-15.794-57.113" transform="translate(14.847 0)" fill="#1a2e35"/>
    <path id="Trazado_219" data-name="Trazado 219" d="M182.78,70.015c-1.892-20.788-16.4-45.955-37.087-43.184L81.356,45.01A12.215,12.215,0,0,0,70.776,57.7L82.053,213.743l-.445.109s15.886,43.69,58.365,29.132c8.423-2.887,12.062-12.274,13.5-21.87l.108-24.691c-.2-12.617-.348-17.789-.336-17.672,0,0,26.482-5.158,31.028-40.022,2.262-17.339.607-45.619-1.493-68.714" transform="translate(25.559 9.615)" fill="#ffc09d"/>
    <path id="Trazado_220" data-name="Trazado 220" d="M113.687,82.992a4.454,4.454,0,0,1-4.168,4.61,4.259,4.259,0,0,1-4.7-3.886,4.455,4.455,0,0,1,4.163-4.613,4.263,4.263,0,0,1,4.706,3.889" transform="translate(37.857 28.566)" fill="#1a2e35"/>
    <path id="Trazado_221" data-name="Trazado 221" d="M147.547,81.88a4.454,4.454,0,0,1-4.168,4.61,4.259,4.259,0,0,1-4.7-3.886,4.455,4.455,0,0,1,4.163-4.613,4.264,4.264,0,0,1,4.706,3.889" transform="translate(50.087 28.164)" fill="#1a2e35"/>
    <path id="Trazado_222" data-name="Trazado 222" d="M155.272,71.189c-.521.789-4.52-2.023-9.723-1.522-5.205.411-8.691,3.881-9.335,3.192-.313-.3.158-1.684,1.669-3.245a11.931,11.931,0,0,1,7.376-3.462A11.811,11.811,0,0,1,153.1,68.28c1.753,1.278,2.437,2.555,2.177,2.909" transform="translate(49.166 23.878)" fill="#1a2e35"/>
    <path id="Trazado_223" data-name="Trazado 223" d="M120.2,73.753c-.647.717-4.563-2.428-10.13-2.462-5.563-.121-9.662,2.912-10.263,2.175-.294-.327.355-1.625,2.147-3a13.49,13.49,0,0,1,8.219-2.639,13.141,13.141,0,0,1,8.058,2.865c1.7,1.424,2.284,2.737,1.97,3.059" transform="translate(36.026 24.499)" fill="#1a2e35"/>
    <path id="Trazado_224" data-name="Trazado 224" d="M128.656,107.38c-.029-.272,2.933-.867,7.741-1.618,1.221-.162,2.371-.436,2.554-1.278.264-.89-.283-2.2-.916-3.6q-1.85-4.392-3.877-9.214c-5.392-13.122-9.332-23.926-8.8-24.138S130.689,77.781,136.08,90.9q1.95,4.853,3.726,9.272c.5,1.379,1.342,2.933.768,4.783a3.069,3.069,0,0,1-1.961,1.846,8.217,8.217,0,0,1-2.069.346c-4.849.4-7.861.5-7.887.23" transform="translate(45.261 24.39)" fill="#1a2e35"/>
    <path id="Trazado_225" data-name="Trazado 225" d="M143.784,141.331a88.343,88.343,0,0,1-46.833-11.109s12.362,24.037,47.014,19.823Z" transform="translate(35.018 47.035)" fill="#ff9b6c"/>
    <path id="Trazado_226" data-name="Trazado 226" d="M130.286,106.143a8.637,8.637,0,0,0-7.828-2.991,7.882,7.882,0,0,0-5.36,3.071,5,5,0,0,0-.221,5.72c1.344,1.783,4.056,2.128,6.324,1.413a18.119,18.119,0,0,0,6.021-3.824,5.249,5.249,0,0,0,1.329-1.455,1.6,1.6,0,0,0-.056-1.782" transform="translate(41.926 37.229)" fill="#ff735d"/>
    <path id="Trazado_227" data-name="Trazado 227" d="M117.667,99.528c.777-.067.932,5.133,5.486,8.7s10.073,2.841,10.133,3.568c.082.324-1.206,1.044-3.543,1.173a12.957,12.957,0,0,1-8.45-2.684,11.274,11.274,0,0,1-4.266-7.3c-.259-2.167.285-3.472.641-3.452" transform="translate(42.245 35.949)" fill="#1a2e35"/>
    <path id="Trazado_228" data-name="Trazado 228" d="M120.808,63.576c-.436,1.315-5.236.832-10.836,1.665-5.62.721-10.105,2.492-10.884,1.345-.348-.55.408-1.8,2.205-3.109a19.067,19.067,0,0,1,16.548-2.294c2.087.775,3.153,1.77,2.967,2.393" transform="translate(35.76 21.756)" fill="#1a2e35"/>
    <path id="Trazado_229" data-name="Trazado 229" d="M152.209,56.8c-.932,1.115-4.736.09-9.272.163-4.538-.067-8.355.964-9.271-.15-.4-.542.173-1.648,1.821-2.725a14.21,14.21,0,0,1,7.487-1.993,14.053,14.053,0,0,1,7.455,1.982c1.633,1.074,2.19,2.179,1.78,2.722" transform="translate(48.234 18.816)" fill="#1a2e35"/>
    <path id="Trazado_230" data-name="Trazado 230" d="M69.057,49.63c3.433-4.759,9.3-7.006,14.867-8.849A319.083,319.083,0,0,1,158.148,25.7c2.869,5.3-.359,12.158-5.253,15.673s-11.017,4.7-16.758,6.53-11.676,4.8-14.269,10.235c-2.758,5.784-1.017,12.878-3.481,18.793-4.239,10.176-18.861,12.81-23.041,23.01-3.162,7.715.975,16.295,1.708,24.6a29.789,29.789,0,0,1-30.883,32.445q-.39-44.713-.781-89.429c-.054-6.208.034-12.89,3.666-17.926" transform="translate(23.616 9.282)" fill="#1a2e35"/>
    <path id="Trazado_231" data-name="Trazado 231" d="M23.29,117.024c4.9-3.977,10.964-7.329,13.131-13.257,3.154-8.635-3.384-19.284,1.542-27.047,4.492-7.081,16.66-6.116,20.868-13.368,3.287-5.664.091-10.975,1.482-16.023s8.853-9.169,14.016-8.3l37.716,60.824c2.8,19.921,6.082,30.613,1.28,41.952-2.634,6.219-5.967,12.244-7.2,18.884s.1,14.3,5.371,18.519c-24.365.715-46.49-13.1-66.909-26.415L22.971,138.7c-2.249-1.466-4.589-3.029-5.863-5.392-3-5.555,1.281-12.307,6.181-16.284" transform="translate(5.821 14.054)" fill="#1a2e35"/>
    <path id="Trazado_232" data-name="Trazado 232" d="M36.8,157.521a11.514,11.514,0,0,0,2.57.625,22.115,22.115,0,0,0,7.586-.166,23.424,23.424,0,0,0,10.823-5.16,23.049,23.049,0,0,0,7.638-13.849,23.765,23.765,0,0,0-.34-9.347,37.957,37.957,0,0,0-4.065-9.241c-1.648-3.012-3.459-6.108-4.192-9.588-.727-3.417-.538-7.429,1.8-10.228,2.354-2.85,6.49-3.373,10.37-4.721a11.114,11.114,0,0,0,5.363-3.58,10.872,10.872,0,0,0,1.982-6.282c.165-4.448-1.529-8.6-2.141-12.779a13.8,13.8,0,0,1,.264-6.2A8.654,8.654,0,0,1,78.2,62.252c3.626-2.332,8.117-2.511,12.439-2.68,4.345-.1,8.917-.853,12.69-3.068a23.6,23.6,0,0,0,9.017-8.863c2.066-3.675,2.946-7.689,3.728-11.478a54.387,54.387,0,0,1,2.914-10.8,24.277,24.277,0,0,1,6.129-8.325,27.289,27.289,0,0,1,32.045-2.914,33.291,33.291,0,0,1,9,7.579c4.137,5.062,5.186,8.672,5.374,8.563a2.467,2.467,0,0,0-.2-.641c-.169-.41-.368-1.045-.753-1.821a31.85,31.85,0,0,0-3.994-6.449,33.067,33.067,0,0,0-9.027-7.914,28.508,28.508,0,0,0-15.309-4.184,28.964,28.964,0,0,0-17.906,6.9,25.427,25.427,0,0,0-6.5,8.712A55.277,55.277,0,0,0,114.8,35.9c-.792,3.773-1.677,7.643-3.625,11.075a22.277,22.277,0,0,1-8.514,8.318c-3.584,2.076-7.747,2.769-12.082,2.875-4.277.174-9.081.3-13.141,2.9a10.094,10.094,0,0,0-4.326,5.514,15.163,15.163,0,0,0-.31,6.835c.677,4.424,2.311,8.445,2.148,12.532a9.52,9.52,0,0,1-1.689,5.5,9.79,9.79,0,0,1-4.727,3.132c-1.851.677-3.826,1.105-5.744,1.812a11.542,11.542,0,0,0-5.166,3.343c-2.709,3.31-2.8,7.7-2.023,11.328.824,3.746,2.722,6.9,4.384,9.9a37.169,37.169,0,0,1,4.032,8.935,22.854,22.854,0,0,1,.41,8.927,22.315,22.315,0,0,1-7.167,13.406,23.179,23.179,0,0,1-10.414,5.217c-6.423,1.3-10.05-.173-10.046.082" transform="translate(13.291 3.342)" fill="#375a64"/>
    <path id="Trazado_233" data-name="Trazado 233" d="M14.818,114.455a5.112,5.112,0,0,0-.9,1.945,8.719,8.719,0,0,0,.747,6.07,9.237,9.237,0,0,0,2.946,3.418,9.68,9.68,0,0,0,5.118,1.635,12.135,12.135,0,0,0,10.962-6.23,16.27,16.27,0,0,0,2.092-7.315,22.667,22.667,0,0,0-1.315-8.1C32.8,100.526,29.557,95.237,29.781,89.1c.079-2.977.935-6.176,3.226-8.208,2.27-2.085,5.638-2.457,8.959-2.324,3.329.05,6.934.653,10.561-.574a9.149,9.149,0,0,0,4.5-3.427,13.077,13.077,0,0,0,2.039-5.269c.633-3.764-.076-7.387-.348-10.835a23.7,23.7,0,0,1,1.049-9.973A25.284,25.284,0,0,1,71.79,34.212c5.416-2.914,11.52-2.958,17.019-3.019,5.536-.022,10.885-.106,15.484-1.67a32.039,32.039,0,0,0,11.211-6.31,31.823,31.823,0,0,0,6.332-7.357A23.061,23.061,0,0,0,125.1,8.293a44.572,44.572,0,0,1-3.728,7.262,32.4,32.4,0,0,1-6.38,7.052,31.692,31.692,0,0,1-11,5.959c-4.448,1.448-9.633,1.481-15.19,1.452-5.5.018-11.825-.023-17.619,3.037A26.508,26.508,0,0,0,58.451,48.047a25.086,25.086,0,0,0-1.141,10.527c.286,3.534.945,7.065.357,10.481-.515,3.4-2.442,6.577-5.615,7.608-3.125,1.09-6.634.58-10.051.515-3.369-.128-7.221.234-9.9,2.706-2.677,2.42-3.551,6-3.622,9.177a23.842,23.842,0,0,0,1.778,9.151c1.044,2.81,2.23,5.427,3.1,8.03a21.644,21.644,0,0,1,1.338,7.691,15.28,15.28,0,0,1-1.869,6.862,11.3,11.3,0,0,1-10.069,5.938,9.016,9.016,0,0,1-4.766-1.4,8.763,8.763,0,0,1-2.834-3.112,8.662,8.662,0,0,1-.957-5.751c.276-1.343.69-1.975.618-2.009" transform="translate(4.938 2.995)" fill="#1a2e35"/>
    <path id="Trazado_234" data-name="Trazado 234" d="M219.853,132.856a9.616,9.616,0,0,1-.391,6.343,8.374,8.374,0,0,1-5.3,4.87,8.785,8.785,0,0,1-8.791-2.871,8.07,8.07,0,0,1-1.838-5.186,16.787,16.787,0,0,1,1.229-6.1c1.492-4.047,4.338-8.389,4.2-13.766a19.611,19.611,0,0,0-6.7-14.391,22.977,22.977,0,0,0-7.37-4.353,33.731,33.731,0,0,0-8.584-1.666,45.51,45.51,0,0,1-8.35-1.288,11.173,11.173,0,0,1-6.334-4.38,13.743,13.743,0,0,1-2.009-7.3,27.343,27.343,0,0,1,1-7.455c1.231-4.8,2.914-9.445,2.871-14.1a21.542,21.542,0,0,0-3.758-12.006,27.811,27.811,0,0,0-7.583-7.07,52.371,52.371,0,0,1-6.11-4.678,16.28,16.28,0,0,1-3.727-5.3c-.023.007,0,.152.083.43a6.832,6.832,0,0,0,.427,1.213,12.976,12.976,0,0,0,2.829,4.054,48.317,48.317,0,0,0,6.036,4.929,27.536,27.536,0,0,1,7.216,6.986,20.661,20.661,0,0,1,3.415,11.444c0,4.379-1.661,8.883-2.961,13.775a28.478,28.478,0,0,0-1.084,7.8,15.038,15.038,0,0,0,2.2,8.038A12.548,12.548,0,0,0,177.56,95.8a46.135,46.135,0,0,0,8.615,1.349,32.65,32.65,0,0,1,8.245,1.582,21.7,21.7,0,0,1,6.93,4.067,18.34,18.34,0,0,1,6.312,13.37c.189,4.919-2.456,9.09-4,13.342a17.718,17.718,0,0,0-1.22,6.534,9.084,9.084,0,0,0,2.168,5.805,9.609,9.609,0,0,0,9.772,2.981,9.269,9.269,0,0,0,6.061-10.352,5.085,5.085,0,0,0-.6-1.621" transform="translate(55.01 11.617)" fill="#1a2e35"/>
    <path id="Trazado_235" data-name="Trazado 235" d="M68.95,35.575c-2.328,7.707-9.144,13.072-13.615,19.769-6.3,9.443-7.752,21.284-7.889,32.636.323-5.348-1.821-10.5-2.868-15.752a38.858,38.858,0,0,1,26.1-44.549" transform="translate(15.837 9.997)" fill="#1a2e35"/>
    <path id="Trazado_236" data-name="Trazado 236" d="M79.356,159.712c4.565-1.28-22.577,9.094-23.132,9.272L80.461,208.46l93.975,19.995,35.356-57.441L138.338,149.7Z" transform="translate(20.308 54.071)" fill="#ffc09d"/>
    <path id="Trazado_237" data-name="Trazado 237" d="M286.423,245.788c-6.879-23-17.69-57.889-21.48-63.195-5.727-8.016-64.827-26.358-64.827-26.358s-20.433,34.076-55.361,36.367-48.174-1.335-55.045-31.685c0,0-58.5,13.5-63.078,18.655C23.644,182.935,9.48,220.257,0,245.788Z" transform="translate(0 56.431)" fill="#375a64"/>
    <path id="Trazado_238" data-name="Trazado 238" d="M29.817,215.305c.947,3.6,2.123,7.989,3.445,12.861h.809c-1.383-4.941-2.643-9.385-3.687-13.009-.894-3.041-1.632-5.55-2.186-7.435a18.881,18.881,0,0,0-.911-2.7,18.552,18.552,0,0,0,.6,2.78c.49,1.9,1.141,4.435,1.932,7.5" transform="translate(9.852 74.053)" fill="#1a2e35"/>
    <path id="Trazado_239" data-name="Trazado 239" d="M176.654,215.305c-.949,3.6-2.125,7.989-3.447,12.861H172.4c1.382-4.941,2.642-9.385,3.687-13.009.894-3.041,1.631-5.55,2.185-7.435a18.891,18.891,0,0,1,.911-2.7,18.32,18.32,0,0,1-.6,2.78c-.49,1.9-1.141,4.435-1.93,7.5" transform="translate(62.27 74.053)" fill="#1a2e35"/>
  </g>
</svg>
