<svg id="mujer-bien" xmlns="http://www.w3.org/2000/svg" xmlns:xlink="http://www.w3.org/1999/xlink" width="376.297" height="629.019" viewBox="0 0 376.297 629.019">
  <defs>
    <clipPath id="clip-path">
      <rect id="Rectángulo_154" data-name="Rectángulo 154" width="376.297" height="629.019" fill="none"/>
    </clipPath>
    <clipPath id="clip-path-3">
      <rect id="Rectángulo_150" data-name="Rectángulo 150" width="220.707" height="137.801" fill="none"/>
    </clipPath>
    <clipPath id="clip-path-4">
      <rect id="Rectángulo_151" data-name="Rectángulo 151" width="82.78" height="50.825" fill="none"/>
    </clipPath>
    <clipPath id="clip-path-5">
      <rect id="Rectángulo_152" data-name="Rectángulo 152" width="20.452" height="68.897" fill="none"/>
    </clipPath>
  </defs>
  <g id="Grupo_90" data-name="Grupo 90" clip-path="url(#clip-path)">
    <g id="Grupo_89" data-name="Grupo 89">
      <g id="Grupo_88" data-name="Grupo 88" clip-path="url(#clip-path)">
        <path id="Trazado_241" data-name="Trazado 241" d="M197.814,33.142a60.628,60.628,0,0,1,19.98,52.421c-1.19,9.383-4.313,20.006,1.461,27.5,5.716,7.414,17.638,7.792,23.094,15.4,6.422,8.957.063,21.51,1.986,32.363,1.806,10.188,12.071,18.134,22.386,17.329a85.14,85.14,0,0,1-43.064,16.234q-5.53-7.863-11.058-15.726c4.212,5.523,2.611,13.917-1.986,19.122s-11.428,7.832-18.142,9.6a108.048,108.048,0,0,1-93.833-20" transform="translate(64.372 21.629)" fill="#1a2e35"/>
        <path id="Trazado_242" data-name="Trazado 242" d="M49.782,129.326c2.712-7.106,7-13.6,8.952-20.955,4.193-15.8-2.705-34.154,5.744-48.149,6.014-9.962,18.007-14.4,29.281-17.271s23.336-5.194,32.018-12.942c6.367-5.682,10.226-13.746,16.574-19.45C151.4,2.434,164.278.16,176.436.01c12.487-.155,25.3,1.671,36.23,7.714s19.722,16.815,21.115,29.226c.678,6.05-.367,12.305,1.243,18.179,1.77,6.457,6.52,11.646,9.306,17.734,5.89,12.866,1.539,29.588-9.874,37.952l-90.878,106.22c-18.288,5.9-61.391-4.429-74.62-18.369S42.93,147.28,49.782,129.326" transform="translate(31.242 0)" fill="#1a2e35"/>
        <path id="Trazado_243" data-name="Trazado 243" d="M213.53,79.306c-2.3-25.239-19.909-55.794-45.027-52.429L90.392,48.947a14.83,14.83,0,0,0-12.846,15.4L91.239,253.8l-.54.132s19.288,53.044,70.86,35.369c10.226-3.505,14.644-14.9,16.391-26.552l.131-29.977c-.246-15.318-.423-21.6-.41-21.456,0,0,32.153-6.262,37.673-48.59,2.747-21.051.737-55.385-1.813-83.425" transform="translate(50.596 17.373)" fill="#ffc09d"/>
        <path id="Trazado_244" data-name="Trazado 244" d="M122.357,83.828a5.4,5.4,0,0,1-5.06,5.6,5.17,5.17,0,0,1-5.706-4.718,5.409,5.409,0,0,1,5.054-5.6,5.176,5.176,0,0,1,5.713,4.722" transform="translate(72.818 51.613)" fill="#1a2e35"/>
        <path id="Trazado_245" data-name="Trazado 245" d="M156.216,82.716a5.406,5.406,0,0,1-5.06,5.6,5.17,5.17,0,0,1-5.706-4.718,5.409,5.409,0,0,1,5.054-5.6,5.176,5.176,0,0,1,5.713,4.722" transform="translate(94.914 50.887)" fill="#1a2e35"/>
        <path id="Trazado_246" data-name="Trazado 246" d="M166.14,72.278c-.633.958-5.488-2.456-11.8-1.849-6.32.5-10.552,4.712-11.334,3.875-.38-.367.192-2.043,2.026-3.94a14.5,14.5,0,0,1,8.955-4.2,14.349,14.349,0,0,1,9.514,2.583c2.129,1.552,2.958,3.1,2.643,3.533" transform="translate(93.251 43.143)" fill="#1a2e35"/>
        <path id="Trazado_247" data-name="Trazado 247" d="M131.352,75.022c-.785.871-5.54-2.948-12.3-2.99-6.754-.147-11.73,3.535-12.461,2.641-.357-.4.431-1.973,2.606-3.639a16.378,16.378,0,0,1,9.978-3.2,15.954,15.954,0,0,1,9.783,3.479c2.069,1.729,2.773,3.323,2.391,3.713" transform="translate(69.509 44.265)" fill="#1a2e35"/>
        <path id="Trazado_248" data-name="Trazado 248" d="M136.141,115.914c-.035-.331,3.561-1.054,9.4-1.967,1.482-.195,2.879-.529,3.1-1.55.319-1.082-.345-2.666-1.114-4.374q-2.246-5.332-4.707-11.186c-6.546-15.931-11.33-29.048-10.686-29.306s6.473,12.446,13.019,28.377q2.367,5.895,4.523,11.259c.61,1.672,1.629,3.56.934,5.807a3.736,3.736,0,0,1-2.383,2.241,10.129,10.129,0,0,1-2.512.42c-5.887.481-9.544.61-9.575.279" transform="translate(86.194 44.068)" fill="#1a2e35"/>
        <path id="Trazado_249" data-name="Trazado 249" d="M160.58,143.709s-28.3,2.616-56.86-13.487c0,0,15.007,29.183,57.078,24.067Z" transform="translate(67.688 84.984)" fill="#ff9b6c"/>
        <path id="Trazado_250" data-name="Trazado 250" d="M140.1,106.8a10.486,10.486,0,0,0-9.5-3.631,9.57,9.57,0,0,0-6.508,3.728c-1.476,2.1-1.715,5.024-.268,6.944,1.631,2.163,4.925,2.583,7.678,1.715s5.092-2.758,7.309-4.642a6.373,6.373,0,0,0,1.613-1.767,1.94,1.94,0,0,0-.068-2.163" transform="translate(80.17 67.266)" fill="#ff735d"/>
        <path id="Trazado_251" data-name="Trazado 251" d="M124.587,99.528c.944-.081,1.132,6.232,6.66,10.562,5.518,4.346,12.229,3.449,12.3,4.331.1.393-1.464,1.268-4.3,1.425a15.732,15.732,0,0,1-10.259-3.259,13.687,13.687,0,0,1-5.179-8.868c-.314-2.631.345-4.216.778-4.191" transform="translate(80.745 64.952)" fill="#1a2e35"/>
        <path id="Trazado_252" data-name="Trazado 252" d="M132.244,64.291c-.529,1.6-6.358,1.01-13.156,2.021-6.824.876-12.269,3.026-13.214,1.633-.423-.668.5-2.181,2.677-3.775a23.148,23.148,0,0,1,20.091-2.785c2.533.94,3.827,2.148,3.6,2.905" transform="translate(69.028 39.309)" fill="#1a2e35"/>
        <path id="Trazado_253" data-name="Trazado 253" d="M162.974,57.8c-1.132,1.353-5.749.109-11.258.2-5.51-.081-10.144,1.17-11.256-.182-.489-.658.21-2,2.211-3.309a17.253,17.253,0,0,1,9.089-2.418,17.047,17.047,0,0,1,9.051,2.4c1.983,1.3,2.659,2.646,2.162,3.305" transform="translate(91.567 33.998)" fill="#1a2e35"/>
        <path id="Trazado_254" data-name="Trazado 254" d="M76.612,54.753C80.78,48.976,87.9,46.248,94.661,44.01A387.4,387.4,0,0,1,184.776,25.7c3.484,6.432-.436,14.761-6.377,19.028s-13.376,5.7-20.345,7.928-14.176,5.824-17.324,12.426C137.381,72.1,139.5,80.716,136.5,87.9c-5.148,12.355-22.9,15.553-27.975,27.936-3.837,9.367,1.185,19.783,2.076,29.868A36.167,36.167,0,0,1,73.11,185.091q-.473-54.286-.949-108.575c-.066-7.538.041-15.65,4.45-21.763" transform="translate(47.086 16.771)" fill="#1a2e35"/>
        <path id="Trazado_255" data-name="Trazado 255" d="M31.6,133.747c5.949-4.829,13.312-8.9,15.943-16.095,3.829-10.484-4.108-23.412,1.872-32.839,5.454-8.6,20.226-7.424,25.338-16.23,3.989-6.875.109-13.323,1.8-19.451S87.294,38,93.563,39.049l45.79,73.845c3.4,24.186,7.384,37.167,1.553,50.933-3.2,7.551-7.245,14.865-8.747,22.927s.119,17.359,6.521,22.484c-29.582.868-56.443-15.908-81.234-32.07l-26.238-17.1c-2.73-1.78-5.571-3.677-7.118-6.546-3.637-6.744,1.555-14.941,7.5-19.77" transform="translate(14.934 25.393)" fill="#1a2e35"/>
        <path id="Trazado_256" data-name="Trazado 256" d="M43.565,189.263a14.134,14.134,0,0,0,3.12.759,26.849,26.849,0,0,0,9.21-.2,28.467,28.467,0,0,0,13.142-6.265,27.99,27.99,0,0,0,9.271-16.814,28.852,28.852,0,0,0-.413-11.348,46.122,46.122,0,0,0-4.935-11.221c-2-3.656-4.2-7.414-5.09-11.639-.882-4.15-.653-9.02,2.19-12.418,2.857-3.461,7.88-4.1,12.59-5.731a13.493,13.493,0,0,0,6.511-4.346,13.2,13.2,0,0,0,2.406-7.628c.2-5.4-1.856-10.444-2.6-15.513a16.778,16.778,0,0,1,.321-7.529A10.515,10.515,0,0,1,93.834,73.6c4.4-2.829,9.854-3.049,15.1-3.252,5.275-.121,10.826-1.036,15.407-3.725A28.657,28.657,0,0,0,135.29,55.86c2.509-4.462,3.576-9.336,4.526-13.935.94-4.616,1.8-9.106,3.538-13.107A29.5,29.5,0,0,1,150.8,18.711,33.132,33.132,0,0,1,189.7,15.172a40.418,40.418,0,0,1,10.927,9.2c5.022,6.146,6.3,10.527,6.524,10.4a2.993,2.993,0,0,0-.245-.778c-.2-.5-.446-1.269-.914-2.211a38.722,38.722,0,0,0-4.847-7.83,40.181,40.181,0,0,0-10.962-9.608A34.612,34.612,0,0,0,171.6,9.263a35.164,35.164,0,0,0-21.74,8.374,30.891,30.891,0,0,0-7.891,10.577c-1.851,4.2-2.742,8.8-3.7,13.388s-2.036,9.279-4.4,13.446a27.046,27.046,0,0,1-10.337,10.1c-4.351,2.52-9.4,3.361-14.669,3.49-5.192.212-11.025.367-15.954,3.515a12.255,12.255,0,0,0-5.252,6.695,18.433,18.433,0,0,0-.377,8.3c.821,5.369,2.806,10.253,2.608,15.216a11.549,11.549,0,0,1-2.051,6.675,11.877,11.877,0,0,1-5.74,3.8c-2.248.821-4.645,1.342-6.974,2.2a14.013,14.013,0,0,0-6.272,4.059c-3.289,4.019-3.4,9.352-2.456,13.751,1,4.55,3.305,8.379,5.323,12.019a45.127,45.127,0,0,1,4.9,10.848,27.748,27.748,0,0,1,.5,10.838,27.093,27.093,0,0,1-8.7,16.277,28.142,28.142,0,0,1-12.644,6.334c-7.8,1.582-12.2-.21-12.2.1" transform="translate(28.431 6.039)" fill="#375a64"/>
        <path id="Trazado_257" data-name="Trazado 257" d="M21.833,137.184a6.206,6.206,0,0,0-1.089,2.362,10.586,10.586,0,0,0,.907,7.369,11.23,11.23,0,0,0,3.576,4.15,11.753,11.753,0,0,0,6.214,1.985,14.735,14.735,0,0,0,13.308-7.564,19.753,19.753,0,0,0,2.54-8.881,27.52,27.52,0,0,0-1.6-9.84c-2.026-6.491-5.966-12.913-5.695-20.37.1-3.616,1.135-7.5,3.917-9.965,2.757-2.532,6.845-2.983,10.876-2.821,4.044.061,8.42.793,12.824-.7a11.107,11.107,0,0,0,5.462-4.161,15.85,15.85,0,0,0,2.474-6.4c.768-4.569-.093-8.969-.423-13.155A28.8,28.8,0,0,1,76.4,57.088,30.7,30.7,0,0,1,91,39.761c6.576-3.538,13.988-3.591,20.664-3.665,6.719-.026,13.216-.129,18.8-2.028a38.9,38.9,0,0,0,13.611-7.661,38.6,38.6,0,0,0,7.688-8.932c3.4-5.556,3.965-9.18,3.965-9.18-.2-.088-1.01,3.472-4.526,8.817a39.342,39.342,0,0,1-7.746,8.562A38.477,38.477,0,0,1,130.1,32.908c-5.4,1.758-11.7,1.8-18.441,1.763-6.673.021-14.356-.028-21.391,3.685a32.2,32.2,0,0,0-15.462,18.2,30.493,30.493,0,0,0-1.383,12.783c.347,4.29,1.147,8.577.433,12.725-.625,4.132-2.965,7.985-6.817,9.236-3.794,1.324-8.055.7-12.2.623-4.09-.154-8.765.286-12.021,3.287-3.251,2.938-4.313,7.281-4.4,11.142a28.984,28.984,0,0,0,2.16,11.11c1.266,3.411,2.707,6.589,3.765,9.749a26.278,26.278,0,0,1,1.625,9.337A18.573,18.573,0,0,1,43.7,144.88a13.715,13.715,0,0,1-12.224,7.209,10.946,10.946,0,0,1-5.786-1.705,10.639,10.639,0,0,1-3.441-3.778,10.517,10.517,0,0,1-1.162-6.982c.335-1.631.838-2.4.75-2.439" transform="translate(13.339 5.411)" fill="#1a2e35"/>
        <path id="Trazado_258" data-name="Trazado 258" d="M241.082,154.414c-.273-.031,1.456,2.905-.474,7.7a10.16,10.16,0,0,1-6.43,5.911,10.659,10.659,0,0,1-10.671-3.484,9.8,9.8,0,0,1-2.231-6.3,20.38,20.38,0,0,1,1.492-7.4c1.81-4.913,5.267-10.185,5.1-16.713a23.806,23.806,0,0,0-8.131-17.471,27.9,27.9,0,0,0-8.947-5.285,40.9,40.9,0,0,0-10.421-2.023,55.111,55.111,0,0,1-10.137-1.565,13.562,13.562,0,0,1-7.69-5.316,16.67,16.67,0,0,1-2.439-8.86,33.2,33.2,0,0,1,1.208-9.051c1.494-5.83,3.538-11.467,3.485-17.113a26.166,26.166,0,0,0-4.563-14.576c-2.664-3.963-6.235-6.483-9.207-8.584a63.586,63.586,0,0,1-7.419-5.68c-3.775-3.518-4.307-6.566-4.525-6.44-.028.008,0,.183.1.522a8.29,8.29,0,0,0,.519,1.472,15.753,15.753,0,0,0,3.434,4.921,58.541,58.541,0,0,0,7.328,5.984c2.927,2.178,6.3,4.675,8.76,8.481a25.084,25.084,0,0,1,4.146,13.893c0,5.316-2.016,10.783-3.6,16.724a34.636,34.636,0,0,0-1.314,9.474,18.258,18.258,0,0,0,2.676,9.759,15.235,15.235,0,0,0,8.6,6.025,56.014,56.014,0,0,0,10.459,1.638,39.639,39.639,0,0,1,10.01,1.92,26.345,26.345,0,0,1,8.413,4.938,22.267,22.267,0,0,1,7.663,16.232c.23,5.973-2.981,11.036-4.85,16.2a21.5,21.5,0,0,0-1.481,7.932,11.029,11.029,0,0,0,2.633,7.048,11.666,11.666,0,0,0,11.864,3.619,11.254,11.254,0,0,0,7.359-12.568,6.172,6.172,0,0,0-.724-1.968" transform="translate(103.81 20.989)" fill="#1a2e35"/>
        <path id="Trazado_259" data-name="Trazado 259" d="M81.093,37.266c-2.828,9.357-11.1,15.87-16.529,24-7.653,11.464-9.412,25.84-9.578,39.623.392-6.493-2.211-12.743-3.482-19.124A47.178,47.178,0,0,1,83.195,27.679" transform="translate(33.031 18.064)" fill="#1a2e35"/>
        <path id="Trazado_260" data-name="Trazado 260" d="M91.076,161.855c5.543-1.553-27.41,11.039-28.084,11.258L92.418,221.04l114.094,24.275,42.925-69.738L162.686,149.7Z" transform="translate(41.109 97.695)" fill="#ffc09d"/>
        <path id="Trazado_261" data-name="Trazado 261" d="M296.488,319.633l69.52-29.894s-26.417-91.769-33.369-101.5-78.709-32-78.709-32-24.8,41.371-67.212,44.153-58.489-1.621-66.83-38.468c0,0-71.017,16.392-76.58,22.649S.326,293.91.326,293.91,74.017,314.766,76.8,316.156,84.445,426.7,84.445,426.7,51.532,511.764,50.2,527.059l269.986-.692L292.315,365.518Z" transform="translate(0.213 101.96)" fill="#375a64"/>
        <path id="Trazado_262" data-name="Trazado 262" d="M34.056,205.023a22.661,22.661,0,0,1,1.106,3.277c.674,2.289,1.57,5.335,2.654,9.027,2.2,7.632,5.168,18.19,8.389,29.869,1.595,5.837,3.114,11.4,4.5,16.48.666,2.535,1.365,4.935,1.934,7.217s1,4.413,1.382,6.364c.755,3.905,1.279,7.076,1.636,9.269a23.539,23.539,0,0,1,.456,3.424,3.038,3.038,0,0,1-.269-.856c-.157-.686-.345-1.509-.572-2.5-.494-2.332-1.15-5.435-1.947-9.2-.425-1.937-.907-4.054-1.5-6.3-.633-2.251-1.307-4.647-2.015-7.161C48.4,258.86,46.859,253.3,45.236,247.47c-3.221-11.686-6.085-22.282-8.108-29.963-.959-3.725-1.75-6.8-2.345-9.109a22.523,22.523,0,0,1-.727-3.375" transform="translate(22.218 133.799)" fill="#1a2e35"/>
        <path id="Trazado_263" data-name="Trazado 263" d="M170.736,291.735a4.608,4.608,0,0,1-.793.77l-2.4,2.061c-2.091,1.785-5.194,4.27-9.1,7.255a318.328,318.328,0,0,1-31.9,21.347,318.551,318.551,0,0,1-34.262,17.324c-4.517,1.937-8.205,3.421-10.785,4.366l-2.973,1.081a4.738,4.738,0,0,1-1.061.314,4.5,4.5,0,0,1,.987-.5l2.9-1.256c2.532-1.056,6.174-2.638,10.643-4.654A371.573,371.573,0,0,0,126.032,322.3a371.148,371.148,0,0,0,31.986-21.048c3.95-2.905,7.114-5.3,9.279-6.991,1.02-.775,1.853-1.406,2.517-1.91a4.624,4.624,0,0,1,.922-.615" transform="translate(50.549 190.387)" fill="#1a2e35"/>
        <g id="Grupo_81" data-name="Grupo 81" transform="translate(83.918 401.079)" opacity="0.2">
          <g id="Grupo_80" data-name="Grupo 80">
            <g id="Grupo_79" data-name="Grupo 79" clip-path="url(#clip-path-3)">
              <path id="Trazado_264" data-name="Trazado 264" d="M242.765,287.25c-13.137-15.625-31.487-26.007-50.365-33.769-19.157-7.878-40.181-13.451-60.509-9.463-18.749,3.675-34.941,15.05-50.395,26.285-5.064,3.68-10.193,7.453-13.95,12.461-4.06,5.412-6.282,11.952-8.319,18.4-5.278,16.719-4.8,36.177-8.448,53.325l.145,3.051c3.538,1.076,5.118-.565,8.367-2.33,19.375-10.514,27.227-38,48.615-43.336,3.884-.972,7.921-1.087,11.894-1.59a67.56,67.56,0,0,0,28.879-11.058c3.5-2.345,7.062-5.083,11.264-5.383,4.437-.316,8.526,2.162,12.4,4.35a127.355,127.355,0,0,0,36.012,13.642,11.594,11.594,0,0,1,4.8,1.767c1.717,1.329,2.487,3.51,3.2,5.561,4.72,13.586,10.72,26.924,19.739,38.129s21.322,20.195,35.387,23.2c-2.813-32.948-7.443-67.934-28.722-93.245" transform="translate(-50.779 -242.695)"/>
            </g>
          </g>
        </g>
        <g id="Grupo_84" data-name="Grupo 84" transform="translate(144.447 496.923)" opacity="0.2">
          <g id="Grupo_83" data-name="Grupo 83">
            <g id="Grupo_82" data-name="Grupo 82" clip-path="url(#clip-path-4)">
              <path id="Trazado_265" data-name="Trazado 265" d="M87.4,349.7c14.923,5.181,39.762-1.6,53.559-9.294s25.781-24.3,29.221-39.715C146.934,315.8,112.746,338.439,87.4,349.7" transform="translate(-87.405 -300.691)"/>
            </g>
          </g>
        </g>
        <g id="Grupo_87" data-name="Grupo 87" transform="translate(56.565 347.948)" opacity="0.2">
          <g id="Grupo_86" data-name="Grupo 86">
            <g id="Grupo_85" data-name="Grupo 85" clip-path="url(#clip-path-5)">
              <path id="Trazado_266" data-name="Trazado 266" d="M45.112,241.31C41.9,231.285,39.5,220.57,36.29,210.545h-.369a99.8,99.8,0,0,0,.1,37.124c2.34,12.229,9.382,23.472,18.663,31.771a287.547,287.547,0,0,0-9.569-38.131" transform="translate(-34.228 -210.545)"/>
            </g>
          </g>
        </g>
        <path id="Trazado_267" data-name="Trazado 267" d="M36.1,197.88c-.241.106-2.618-4.913-4.6-11.456-2-6.538-2.814-12.031-2.555-12.077.288-.056,1.539,5.3,3.518,11.785,1.96,6.485,3.9,11.636,3.634,11.748" transform="translate(18.862 113.78)" fill="#1a2e35"/>
        <path id="Trazado_268" data-name="Trazado 268" d="M197.269,188.1c.274.041-3.142,23.786-7.63,53.027s-8.351,52.921-8.625,52.878,3.14-23.781,7.63-53.032,8.351-52.915,8.625-52.874" transform="translate(118.121 122.753)" fill="#1a2e35"/>
        <path id="Trazado_269" data-name="Trazado 269" d="M15.559,242.124C15.515,242.111,2.153,319.7.418,332.89s1.833,43.227,12.593,52.254,19.813,11.3,27.45,9.911,31.59-26.382,40.614-36.448,54.339-91.592,54.339-91.592L93.572,248.409,69.109,278.078l5.52-18.8Z" transform="translate(0 158.012)" fill="#ffc09d"/>
        <path id="Trazado_270" data-name="Trazado 270" d="M63.106,263.314a16.248,16.248,0,0,1-1.629,2.38l-4.7,6.292c-2.01,2.639-4.426,5.766-7.233,9.146A108.71,108.71,0,0,1,39.8,291.615a68.046,68.046,0,0,1-11.73,8.228c-3.768,2.244-7.143,4.267-9.8,6.215-5.388,3.839-7.723,7.3-7.881,7.164-.028-.021.1-.243.382-.646a17.058,17.058,0,0,1,1.306-1.7,35.887,35.887,0,0,1,5.769-5.384,111.191,111.191,0,0,1,9.744-6.439,71.018,71.018,0,0,0,11.534-8.179,117.987,117.987,0,0,0,9.712-10.339c2.833-3.332,5.3-6.406,7.382-8.985,2-2.462,3.667-4.512,4.953-6.095a15.455,15.455,0,0,1,1.939-2.138" transform="translate(6.776 171.839)" fill="#ff9b6c"/>
        <path id="Trazado_271" data-name="Trazado 271" d="M72.432,250.737s13.054-10.97,17.164-7.779,4.355,6.139,2.638,8.349-11.586,14.745-11.586,14.745l7.293,6.888,12.978-4.236,5.566-1.329s13.345.314,10.507,9.279c0,0,13.8-4.4,16.3-4.606,3.814-.316,13.422-1.274,12.054,3.7-1.385,5.034-6.71,6.744-6.71,6.744s6.144,1.963,2.461,7.366a16.135,16.135,0,0,1-8.752,6.577L110.6,305.149a11.755,11.755,0,0,1-8.308.164l-6.865-2.441L81.92,308.765s-27.256-7.857-31.185-31.676l3.548-7.381,2.322-4.36s-3.214-20.324-3.252-23.074c-.025-1.92-3.905-10.714-6.242-15.84a3.118,3.118,0,0,1,3.323-4.371c2.452.38,5.744,1.682,9.76,5.08,9.374,7.933,10.534,16.058,10.534,16.058l1.981,7.992" transform="translate(30.558 144.895)" fill="#ffc09d"/>
        <path id="Trazado_272" data-name="Trazado 272" d="M57.923,251.889c-.046-.066.912-.739,2.469-2.158,1.582-1.4,3.649-3.634,6.334-6.321,1.34-1.35,2.937-2.705,4.655-4.118a28.489,28.489,0,0,1,5.979-3.988,10.631,10.631,0,0,1,3.849-1.015,7.464,7.464,0,0,1,2.091.175,4.234,4.234,0,0,1,1.063.335,7.643,7.643,0,0,1,.925.565,5.873,5.873,0,0,1,1.585,1.573,3.481,3.481,0,0,1,.388,1.1l.294,1a4.149,4.149,0,0,1,.2,2.342,17.4,17.4,0,0,1-.735,2.081,32.038,32.038,0,0,1-4.6,7.179,61,61,0,0,1-5.307,5.852c-3.644,3.441-7.2,6.394-10.823,7.827a10.74,10.74,0,0,1-8.9-.132,6.784,6.784,0,0,1-1.972-1.487,2.219,2.219,0,0,1-.5-.7,9.538,9.538,0,0,0,11.127,1.7c3.426-1.433,6.9-4.4,10.464-7.83a62.669,62.669,0,0,0,5.191-5.8,31.875,31.875,0,0,0,4.452-6.974,16.989,16.989,0,0,0,.7-1.973,3.35,3.35,0,0,0-.2-1.82l-.3-1.016a2.517,2.517,0,0,0-.281-.858,5.029,5.029,0,0,0-1.324-1.306,6.663,6.663,0,0,0-.8-.5,3.406,3.406,0,0,0-.851-.264,6.5,6.5,0,0,0-1.846-.165,9.832,9.832,0,0,0-3.537.906,28.446,28.446,0,0,0-5.844,3.8c-1.737,1.387-3.327,2.685-4.684,3.989-2.722,2.6-4.888,4.8-6.558,6.118-.823.674-1.5,1.154-1.962,1.463a2.949,2.949,0,0,1-.747.418" transform="translate(35.838 152.892)" fill="#ff9b6c"/>
        <path id="Trazado_273" data-name="Trazado 273" d="M66.77,239.863c0,.261-2.428.473-5.421.471s-5.421-.212-5.421-.473,2.426-.471,5.421-.471,5.421.212,5.421.473" transform="translate(36.5 156.228)" fill="#ff9b6c"/>
        <path id="Trazado_274" data-name="Trazado 274" d="M70.848,259.026a4.676,4.676,0,0,1,.968-.479l2.842-1.2,10.522-4.257c2.224-.878,4.652-1.909,7.394-2.7a20.673,20.673,0,0,1,9.068-.772,13.148,13.148,0,0,1,4.71,1.687,6.055,6.055,0,0,1,3.219,4.209,5.8,5.8,0,0,1-2.347,4.963,18.36,18.36,0,0,1-4.938,2.5c-6.807,2.661-13.285,5.194-19.2,7.508a56.53,56.53,0,0,1-8.6,2.834,17.493,17.493,0,0,1-7.933.064,8.136,8.136,0,0,1-5.25-3.859,11.983,11.983,0,0,1-1.377-4.745,22.877,22.877,0,0,1-.081-3.1,4.292,4.292,0,0,1,.106-1.076c.1,0,.008,1.494.34,4.131a11.994,11.994,0,0,0,1.468,4.523,7.6,7.6,0,0,0,4.958,3.477,17.021,17.021,0,0,0,7.6-.182,57.475,57.475,0,0,0,8.445-2.879l19.172-7.577a17.733,17.733,0,0,0,4.693-2.35,4.9,4.9,0,0,0,2.018-4.13c-.159-1.529-1.438-2.727-2.771-3.542a12.324,12.324,0,0,0-4.383-1.6,20.082,20.082,0,0,0-8.714.668c-2.687.74-5.118,1.727-7.362,2.566l-10.63,3.978-2.909,1.038a4.709,4.709,0,0,1-1.036.3" transform="translate(39.047 162.761)" fill="#ff9b6c"/>
        <path id="Trazado_275" data-name="Trazado 275" d="M102.4,257.314a4.168,4.168,0,0,1,.924-.443l2.719-1.091a66.272,66.272,0,0,1,10.311-3.2,32.8,32.8,0,0,1,7.463-.7,21.994,21.994,0,0,1,4.206.458,3.873,3.873,0,0,1,2.044,1.225,3.74,3.74,0,0,1,.808,2.328,5.686,5.686,0,0,1-2.138,4.333,27.762,27.762,0,0,1-4.042,2.761,70.071,70.071,0,0,1-9.132,4.49,181.479,181.479,0,0,1-18.613,6.1l-8.2,2.355a73.384,73.384,0,0,1-7.232,1.856,13.834,13.834,0,0,1-6.21-.183A9.037,9.037,0,0,1,71.3,275.16a6.163,6.163,0,0,1-1.482-2.563,2.958,2.958,0,0,1-.144-1.021,7.367,7.367,0,0,0,1.891,3.33,8.865,8.865,0,0,0,3.887,2.195,13.535,13.535,0,0,0,5.948.033c2.2-.41,4.564-1.2,7.129-1.95s5.3-1.582,8.175-2.438c5.753-1.724,12.11-3.527,18.5-6.144a70.866,70.866,0,0,0,9.022-4.412,27.37,27.37,0,0,0,3.908-2.636,4.8,4.8,0,0,0,1.871-3.647,2.735,2.735,0,0,0-2.2-2.768,21.884,21.884,0,0,0-4.008-.474,32.831,32.831,0,0,0-7.311.573,76.786,76.786,0,0,0-10.312,2.89c-1.125.374-2.044.678-2.778.922a4.223,4.223,0,0,1-.99.264" transform="translate(45.469 164.37)" fill="#ff9b6c"/>
        <path id="Trazado_276" data-name="Trazado 276" d="M265.064,238.589c.045-.013,13.956,83.344,15.693,96.535s-1.833,43.227-12.595,52.254-19.811,11.3-27.45,9.911-31.588-26.381-40.613-36.448-54.341-91.592-54.341-91.592L187.6,250.643l24.464,29.671L207.13,263.5Z" transform="translate(95.123 155.705)" fill="#ffc09d"/>
        <path id="Trazado_277" data-name="Trazado 277" d="M185.415,263.27a16.259,16.259,0,0,0,1.629,2.38l4.7,6.291c2.01,2.639,4.426,5.766,7.233,9.144a108.553,108.553,0,0,0,9.744,10.486,68.049,68.049,0,0,0,11.73,8.228c3.768,2.244,7.143,4.267,9.8,6.215,5.387,3.839,7.723,7.3,7.881,7.164.028-.021-.1-.243-.382-.646a17.058,17.058,0,0,0-1.306-1.7,35.885,35.885,0,0,0-5.769-5.384,111.182,111.182,0,0,0-9.744-6.439,71.02,71.02,0,0,1-11.534-8.179,118,118,0,0,1-9.712-10.339c-2.833-3.332-5.3-6.405-7.382-8.985-2-2.462-3.667-4.512-4.953-6.095a15.449,15.449,0,0,0-1.939-2.138" transform="translate(121.001 171.81)" fill="#ff9b6c"/>
        <path id="Trazado_278" data-name="Trazado 278" d="M194.224,250.693s-13.054-10.97-17.164-7.779-4.355,6.139-2.638,8.349,11.586,14.745,11.586,14.745l-7.293,6.888-12.978-4.236-5.566-1.329s-13.345.314-10.507,9.279c0,0-13.8-4.4-16.3-4.606-3.814-.316-13.422-1.274-12.054,3.7,1.385,5.034,6.71,6.744,6.71,6.744s-6.144,1.963-2.461,7.366a16.135,16.135,0,0,0,8.752,6.577l21.747,8.713a11.754,11.754,0,0,0,8.308.164l6.865-2.441,13.505,5.893s27.256-7.857,31.185-31.676l-3.548-7.381-2.322-4.36s3.214-20.324,3.252-23.074c.025-1.92,3.905-10.714,6.242-15.84a3.118,3.118,0,0,0-3.323-4.371c-2.452.38-5.744,1.682-9.76,5.08-9.374,7.933-10.534,16.058-10.534,16.058l-1.981,7.992" transform="translate(79.082 144.867)" fill="#ffc09d"/>
        <path id="Trazado_279" data-name="Trazado 279" d="M182.787,251.845c.046-.066-.912-.739-2.469-2.158-1.582-1.4-3.649-3.634-6.334-6.321-1.34-1.35-2.937-2.705-4.655-4.118a28.491,28.491,0,0,0-5.979-3.988,10.622,10.622,0,0,0-3.849-1.015,7.463,7.463,0,0,0-2.091.175,4.234,4.234,0,0,0-1.063.335,7.637,7.637,0,0,0-.925.565,5.845,5.845,0,0,0-1.583,1.573,3.45,3.45,0,0,0-.39,1.1l-.294,1a4.149,4.149,0,0,0-.2,2.342,17.275,17.275,0,0,0,.735,2.079,32.069,32.069,0,0,0,4.6,7.181,61.213,61.213,0,0,0,5.307,5.852c3.646,3.441,7.2,6.394,10.825,7.827a10.736,10.736,0,0,0,8.9-.132,6.782,6.782,0,0,0,1.972-1.487,2.219,2.219,0,0,0,.5-.7,9.538,9.538,0,0,1-11.127,1.7c-3.426-1.433-6.9-4.4-10.464-7.83a62.67,62.67,0,0,1-5.189-5.8,31.82,31.82,0,0,1-4.454-6.974,16.983,16.983,0,0,1-.7-1.973,3.35,3.35,0,0,1,.2-1.82l.3-1.016a2.553,2.553,0,0,1,.281-.858,5.03,5.03,0,0,1,1.324-1.306,6.549,6.549,0,0,1,.8-.5,3.371,3.371,0,0,1,.849-.264,6.507,6.507,0,0,1,1.846-.165,9.823,9.823,0,0,1,3.537.906,28.445,28.445,0,0,1,5.844,3.8c1.737,1.387,3.328,2.685,4.683,3.989,2.722,2.6,4.888,4.8,6.558,6.118a24.216,24.216,0,0,0,1.963,1.463,2.927,2.927,0,0,0,.745.418" transform="translate(99.75 152.863)" fill="#ff9b6c"/>
        <path id="Trazado_280" data-name="Trazado 280" d="M165.211,239.819c0,.261,2.428.473,5.421.471s5.421-.212,5.421-.473-2.426-.471-5.421-.471-5.421.212-5.421.473" transform="translate(107.818 156.199)" fill="#ff9b6c"/>
        <path id="Trazado_281" data-name="Trazado 281" d="M176.5,258.982a4.681,4.681,0,0,0-.968-.479l-2.842-1.2-10.522-4.257c-2.224-.878-4.652-1.909-7.394-2.7a20.671,20.671,0,0,0-9.068-.772A13.166,13.166,0,0,0,141,251.261a6.063,6.063,0,0,0-3.219,4.209,5.8,5.8,0,0,0,2.348,4.963,18.338,18.338,0,0,0,4.938,2.5c6.807,2.661,13.285,5.194,19.2,7.508a56.538,56.538,0,0,0,8.6,2.834,17.5,17.5,0,0,0,7.933.064,8.148,8.148,0,0,0,5.25-3.857,12.026,12.026,0,0,0,1.377-4.746,22.874,22.874,0,0,0,.081-3.1,4.292,4.292,0,0,0-.106-1.076c-.1,0-.008,1.494-.34,4.132a12.024,12.024,0,0,1-1.468,4.523,7.6,7.6,0,0,1-4.958,3.477,17.022,17.022,0,0,1-7.6-.182,57.465,57.465,0,0,1-8.445-2.879l-19.172-7.577a17.734,17.734,0,0,1-4.693-2.35,4.9,4.9,0,0,1-2.018-4.13c.159-1.529,1.438-2.727,2.77-3.542a12.374,12.374,0,0,1,4.384-1.6,20.082,20.082,0,0,1,8.714.668c2.687.74,5.118,1.727,7.362,2.567l10.63,3.978c1.183.421,2.147.765,2.907,1.038a4.613,4.613,0,0,0,1.038.3" transform="translate(89.899 162.732)" fill="#ff9b6c"/>
        <path id="Trazado_282" data-name="Trazado 282" d="M149.467,257.27a4.166,4.166,0,0,0-.924-.443l-2.719-1.091a66.274,66.274,0,0,0-10.311-3.2,32.81,32.81,0,0,0-7.463-.7,21.994,21.994,0,0,0-4.206.458,3.873,3.873,0,0,0-2.044,1.225,3.74,3.74,0,0,0-.808,2.328,5.686,5.686,0,0,0,2.138,4.333,27.76,27.76,0,0,0,4.042,2.762,70.068,70.068,0,0,0,9.132,4.49,181.47,181.47,0,0,0,18.613,6.1l8.2,2.355a73.352,73.352,0,0,0,7.232,1.856,13.833,13.833,0,0,0,6.211-.183,9.036,9.036,0,0,0,4.006-2.447,6.162,6.162,0,0,0,1.482-2.563,2.958,2.958,0,0,0,.144-1.021,7.367,7.367,0,0,1-1.891,3.33,8.865,8.865,0,0,1-3.887,2.195,13.536,13.536,0,0,1-5.948.033c-2.2-.41-4.564-1.2-7.129-1.95s-5.3-1.582-8.175-2.438c-5.753-1.724-12.11-3.527-18.5-6.144a70.851,70.851,0,0,1-9.022-4.412,27.36,27.36,0,0,1-3.908-2.636,4.8,4.8,0,0,1-1.871-3.647,2.734,2.734,0,0,1,2.2-2.768,21.889,21.889,0,0,1,4.008-.474,32.832,32.832,0,0,1,7.311.573,76.854,76.854,0,0,1,10.312,2.89l2.778.922a4.223,4.223,0,0,0,.99.264" transform="translate(78.958 164.342)" fill="#ff9b6c"/>
        <path id="Trazado_283" data-name="Trazado 283" d="M211.187,234.832a69.069,69.069,0,1,1-69.069-69.069,69.069,69.069,0,0,1,69.069,69.069" transform="translate(47.672 108.178)" fill="#29b473"/>
        <path id="Trazado_284" data-name="Trazado 284" d="M166.411,181.378l-39.324,67.165-33.012-20.1-5.449,8.534,41.631,26.584,44.686-76.734Z" transform="translate(57.838 118.368)" fill="#fff"/>
      </g>
    </g>
  </g>
</svg>
