<svg id="preso" xmlns="http://www.w3.org/2000/svg" xmlns:xlink="http://www.w3.org/1999/xlink" width="130.435" height="168.711" viewBox="0 0 130.435 168.711">
  <defs>
    <clipPath id="clip-path">
      <rect id="Rectángulo_102" data-name="Rectángulo 102" width="130.435" height="168.711" fill="none"/>
    </clipPath>
  </defs>
  <g id="Grupo_58" data-name="Grupo 58" clip-path="url(#clip-path)">
    <path id="Trazado_256" data-name="Trazado 256" d="M112.983,35.98c.086-1.134,3.285-8.816-.7-11.4-3.037-1.965-10.522-2.949-14.738-2.783a37.955,37.955,0,0,0-8.039,1.216c-5.916,1.563-6.487,7.507-7.143,12.088l-.275,9.174c.076.923.183,1.843.332,2.756a11.086,11.086,0,0,0,3.819,7.238c4.189,3.378,11.608,4.332,17.047,2.745a9.823,9.823,0,0,0,6.572-5.7,37.3,37.3,0,0,0,1.76-5.576c.028-.091.052-.18.078-.27Z" transform="translate(-32.327 -8.346)"/>
    <path id="Trazado_257" data-name="Trazado 257" d="M83.669,56.141a.983.983,0,0,0-.685-.7c-.03-.006-.055,0-.084-.006a.8.8,0,0,0-.792-.408c-3.994.287-5.936,6.087-3.178,9.02,1.152,1.225,3.233,1.419,3.93-.328.786-1.973,1.48-5.524.809-7.583" transform="translate(-30.575 -21.082)" fill="#fdb186"/>
    <path id="Trazado_258" data-name="Trazado 258" d="M124.733,65.95a.982.982,0,0,0,.724.655c.03,0,.055,0,.084,0a.8.8,0,0,0,.815.36c3.971-.526,5.575-6.432,2.652-9.195-1.221-1.154-3.309-1.223-3.9.562-.672,2.016-1.159,5.6-.371,7.618" transform="translate(-48.961 -21.815)" fill="#fdb186"/>
    <path id="Trazado_259" data-name="Trazado 259" d="M94.862,123.594c4.688-.908,7.37-4.989,9.412-9.024a89.054,89.054,0,0,0,7.159-19.937,91.933,91.933,0,0,0,1.814-10.61c.086-.77.32-1.8.475-2.829A127.265,127.265,0,0,0,89.5,79.744c-5.855.286-11.6.851-16.8,1.521.251,6.945,3.858,32.7,8.016,37.187,3.29,3.55,9.358,6.07,14.148,5.142" transform="translate(-28.629 -30.51)" fill="#ef9b6f"/>
    <path id="Trazado_260" data-name="Trazado 260" d="M111.754,50.518c.076-1.154.939-9.311-2.6-11.936-2.7-2-4.994.4-11.107.16-4.074-.16-5.933-1.709-8.11-1.049-5.252,1.591-4.784,7.272-5.366,11.935l-.244,9.34c.067.94.162,1.876.3,2.806a11.881,11.881,0,0,0,3.39,7.368c3.718,3.438,10.3,4.409,15.132,2.8a9.223,9.223,0,0,0,5.834-5.8,42.16,42.16,0,0,0,1.562-5.677c.024-.092.046-.183.069-.275Z" transform="translate(-33.209 -14.378)" fill="#fdb186"/>
    <path id="Trazado_261" data-name="Trazado 261" d="M95.483,57.412a1.354,1.354,0,0,1,0,2.7,1.354,1.354,0,0,1,0-2.7" transform="translate(-37.097 -21.996)"/>
    <path id="Trazado_262" data-name="Trazado 262" d="M118.211,57.412a1.354,1.354,0,0,1,0,2.7,1.354,1.354,0,0,1,0-2.7" transform="translate(-46.047 -21.996)"/>
    <path id="Trazado_263" data-name="Trazado 263" d="M105.165,65.822c.9.112,2.542.675,2.855-.6.18-.736-.623-2.532-.808-3.285l-1.616-6.57a.635.635,0,0,1,1.223-.343q.707,2.874,1.414,5.749a31.5,31.5,0,0,1,1.223,5.013c.15,2.191-2.967,1.492-4.291,1.328-.8-.1-.809-1.39,0-1.29" transform="translate(-41.177 -20.904)"/>
    <path id="Trazado_264" data-name="Trazado 264" d="M90.369,53.725c.187.441.787.426,1.446.389.66-.052,1.4-.132,1.828-.138s1.13.017,1.749.012,1.177-.063,1.329-.516-.337-.869-1.04-1.117a5.97,5.97,0,0,0-2.092-.275,6.151,6.151,0,0,0-2.171.423c-.737.3-1.234.793-1.05,1.221" transform="translate(-35.573 -19.951)"/>
    <path id="Trazado_265" data-name="Trazado 265" d="M101.281,83.409c.187.44.787.426,1.446.388s1.4-.132,1.828-.138,1.13.017,1.749.012,1.177-.063,1.329-.515-.337-.869-1.04-1.118a5.97,5.97,0,0,0-2.092-.275,6.165,6.165,0,0,0-2.171.423c-.737.3-1.234.793-1.05,1.221" transform="translate(-39.87 -31.324)"/>
    <path id="Trazado_266" data-name="Trazado 266" d="M115.219,51.915c.084.473.626.6,1.216.737.593.117,1.261.235,1.636.344s.978.318,1.52.485,1.052.278,1.345-.1,0-.916-.566-1.361a5.178,5.178,0,0,0-1.822-.861,5.269,5.269,0,0,0-2.1-.17c-.752.1-1.314.463-1.23.922" transform="translate(-45.371 -19.519)"/>
    <path id="Trazado_267" data-name="Trazado 267" d="M191.426,158.167c1.346-18.618-10.208-68.181-28.187-69.949-5.976-.588-3.553,33.506-3.553,33.506s12.665,22.165,12.394,28.1,17.98,17.937,19.345,8.339" transform="translate(-62.695 -33.795)" fill="#eceeef"/>
    <path id="Trazado_268" data-name="Trazado 268" d="M21.714,148.114c-.242-5.94,7.847-26.391,7.847-26.391s2.163-34.094-3.172-33.506c-16.053,1.769-28.619,51.7-25.161,69.949,1.428,7.534,20.728-4.113,20.486-10.053" transform="translate(-0.257 -33.795)" fill="#eceeef"/>
    <path id="Trazado_269" data-name="Trazado 269" d="M159.2,109.841q8.231-5.063,16.6-9.869a30.279,30.279,0,0,0-5.379-6.253q-5.471,3.163-10.887,6.427c-.253,3.036-.339,6.435-.333,9.7" transform="translate(-62.695 -35.905)"/>
    <path id="Trazado_270" data-name="Trazado 270" d="M161.637,135.054q10.569-6.678,21.306-13.061c-1.007-2.627-2.094-5.14-3.253-7.49q-10.145,6.018-20.135,12.311c.13,2.994.27,4.983.27,4.983s.721,1.265,1.812,3.257" transform="translate(-62.834 -43.868)"/>
    <path id="Trazado_271" data-name="Trazado 271" d="M202.872,198.177a5.411,5.411,0,0,0,.4-1.433,58.626,58.626,0,0,0-.062-7.841q-6.962,3.532-13.929,7.054c2.945,2.313,6.558,4.141,9.389,4.354q2.1-1.064,4.2-2.134" transform="translate(-74.541 -72.372)"/>
    <path id="Trazado_272" data-name="Trazado 272" d="M168.744,151.385c1.2,2.343,2.438,4.868,3.543,7.309l19.274-10.709c-.653-2.694-1.388-5.4-2.2-8.057l-20.62,11.457" transform="translate(-66.453 -53.609)"/>
    <path id="Trazado_273" data-name="Trazado 273" d="M197.042,164.448q-9.13,4.945-18.269,9.873a14.552,14.552,0,0,1,1.015,4.715,5.792,5.792,0,0,0,1.216,3.3q8.708-4.693,17.41-9.4c-.35-2.712-.809-5.561-1.372-8.484" transform="translate(-70.403 -63.003)"/>
    <path id="Trazado_274" data-name="Trazado 274" d="M.826,195.244a32.65,32.65,0,0,0,.471,3.929c.584,3.084,4.163,2.952,8.17,1.316q-4.32-2.623-8.641-5.245" transform="translate(-0.325 -74.802)"/>
    <path id="Trazado_275" data-name="Trazado 275" d="M4.859,150.221,24.687,161.4c.688-2.521,1.569-5.289,2.462-7.921L6.856,142.039c-.75,2.713-1.419,5.456-2,8.182" transform="translate(-1.914 -54.418)"/>
    <path id="Trazado_276" data-name="Trazado 276" d="M.962,176.266q7.985,4.58,15.983,9.14c2.705-2.188,4.708-4.625,4.87-6.556q-9.938-5.677-19.872-11.363c-.467,3.057-.794,6.005-.982,8.779" transform="translate(-0.379 -64.167)"/>
    <path id="Trazado_277" data-name="Trazado 277" d="M38.87,110.694c.013-3.223-.048-6.609-.256-9.662q-5.235-3.2-10.522-6.309a34.579,34.579,0,0,0-4.9,6.536q7.9,4.608,15.674,9.436" transform="translate(-9.135 -36.29)"/>
    <path id="Trazado_278" data-name="Trazado 278" d="M12.658,123.288q10.354,5.739,20.572,11.728c.64-1.7,1.059-2.755,1.059-2.755s.15-2.377.273-5.852Q25.2,120.94,15.71,115.715c-1.088,2.385-2.108,4.926-3.052,7.573" transform="translate(-4.985 -44.333)"/>
    <path id="Trazado_279" data-name="Trazado 279" d="M112.218,199.647H43.778s-.486-63.6-.486-74.687-6-38.872-6-38.872c-.045-.608,21.465-6.027,26.755-5.018-.479,21.347,27.9,26.253,29.531-.246,9.491-.763,23.956,4.447,23.916,4.983,0,0-5.432,25.147-5.432,39.152,0,6.619.159,74.687.159,74.687" transform="translate(-14.684 -30.936)" fill="#eceeef"/>
    <path id="Trazado_280" data-name="Trazado 280" d="M47.372,187.283c.017,2.624.035,5.357.053,8.145q34.33.883,68.665,1.53c-.006-2.78-.012-5.516-.018-8.144q-34.353-.652-68.7-1.53" transform="translate(-18.656 -71.752)"/>
    <path id="Trazado_281" data-name="Trazado 281" d="M47.556,213.854c.019,2.748.038,5.476.058,8.143q34.294.118,68.581-.732c-.006-2.674-.012-5.405-.018-8.142q-34.3.837-68.621.73" transform="translate(-18.728 -81.652)"/>
    <path id="Trazado_282" data-name="Trazado 282" d="M116.3,246.906c-.005-2.49-.012-5.239-.019-8.143-22.832.431-45.7-.244-68.55-.308.021,2.906.041,5.644.059,8.143,22.841.066,45.692.739,68.51.308" transform="translate(-18.797 -91.357)"/>
    <path id="Trazado_283" data-name="Trazado 283" d="M47.909,262.262c.032,4.274.052,6.926.052,6.926H116.4s-.006-2.616-.016-6.839q-34.236.464-68.475-.087" transform="translate(-18.867 -100.477)"/>
    <path id="Trazado_284" data-name="Trazado 284" d="M115.486,119.622c.4-2.8.834-5.551,1.271-8.123q-37.3-.874-74.575,1.357c.47,2.6.94,5.341,1.367,8.053q35.937-2.088,71.937-1.286" transform="translate(-16.612 -42.623)"/>
    <path id="Trazado_285" data-name="Trazado 285" d="M64.229,86.681c-8.31.12-16.618.451-24.924.9a5.906,5.906,0,0,0-2.016.781s.646,2.991,1.512,7.39q14.236-.781,28.478-.935a18.011,18.011,0,0,1-3.05-8.137" transform="translate(-14.685 -33.209)"/>
    <path id="Trazado_286" data-name="Trazado 286" d="M116.08,138.484l-69.8.881a70.852,70.852,0,0,1,.555,7.715v.421l68.77-.867c.019-2.46.2-5.235.476-8.15" transform="translate(-18.225 -53.056)"/>
    <path id="Trazado_287" data-name="Trazado 287" d="M124.3,95.2c8.619.229,17.234.6,25.843,1.186.812-4.35,1.464-7.434,1.589-8.019q-12.179-.855-24.371-1.234A21.549,21.549,0,0,1,124.3,95.2" transform="translate(-48.951 -33.381)"/>
    <path id="Trazado_288" data-name="Trazado 288" d="M47.28,172.2q34.361-.036,68.721-.3c-.006-3.058-.012-5.825-.016-8.143q-34.375.256-68.751.3c.012,2.379.027,5.129.045,8.143" transform="translate(-18.602 -62.738)"/>
    <path id="Trazado_289" data-name="Trazado 289" d="M35.463,159.159a.863.863,0,0,0-.455-.624.975.975,0,0,0-1.415-.637A171.76,171.76,0,0,0,5.7,177c-2.558,2.158-5.5,4.078-4.994,7.816a8.051,8.051,0,0,0,5.225,6.132c7.816,3.193,15.973-3.761,21.459-8.674,2.977-2.666,6.537-5.794,8.147-9.593,1.835-4.331.878-9.1-.075-13.522" transform="translate(-0.256 -60.445)" fill="#fdb186"/>
    <path id="Trazado_290" data-name="Trazado 290" d="M154.225,172.68c1.609,3.8,5.17,6.928,8.147,9.593,5.485,4.913,13.643,11.867,21.459,8.674a8.051,8.051,0,0,0,5.226-6.131c.5-3.738-2.436-5.657-4.994-7.816a171.809,171.809,0,0,0-27.892-19.1.975.975,0,0,0-1.415.637.863.863,0,0,0-.455.624c-.953,4.421-1.91,9.192-.075,13.522" transform="translate(-60.325 -60.444)" fill="#fdb186"/>
    <rect id="Rectángulo_94" data-name="Rectángulo 94" width="3.295" height="168.711" transform="translate(72.651)" fill="#818084"/>
    <rect id="Rectángulo_95" data-name="Rectángulo 95" width="3.295" height="168.711" transform="translate(90.815)" fill="#818084"/>
    <rect id="Rectángulo_96" data-name="Rectángulo 96" width="3.295" height="168.711" transform="translate(108.977)" fill="#818084"/>
    <rect id="Rectángulo_97" data-name="Rectángulo 97" width="3.295" height="168.711" transform="translate(127.14)" fill="#818084"/>
    <rect id="Rectángulo_98" data-name="Rectángulo 98" width="3.295" height="168.711" transform="translate(18.163)" fill="#818084"/>
    <rect id="Rectángulo_99" data-name="Rectángulo 99" width="3.295" height="168.711" fill="#818084"/>
    <rect id="Rectángulo_100" data-name="Rectángulo 100" width="3.295" height="168.711" transform="translate(36.326)" fill="#818084"/>
    <rect id="Rectángulo_101" data-name="Rectángulo 101" width="3.295" height="168.711" transform="translate(54.489)" fill="#818084"/>
    <path id="Trazado_291" data-name="Trazado 291" d="M64.068,153.687c0-1.945-6.575-5.743-7.7-5.7-2.512.108-3,1.571-5.627,4.1-1.034.861-2.077,5.625-1.809,10.555.212,3.889,1.652,6.354,3.978,7.11,5.677-.2,5.677-3.654,6.454-4.1a4.487,4.487,0,0,0,2.085-3.187c.562-3.6.406-6.289.783-6.337,1.208-.153,1.834-.7,1.833-2.451" transform="translate(-19.254 -56.698)" fill="#fdb186"/>
    <path id="Trazado_292" data-name="Trazado 292" d="M138.276,153.687c0-1.945,6.575-5.743,7.7-5.7,2.512.108,3,1.571,5.627,4.1,1.034.861,2.077,5.625,1.809,10.555-.212,3.889-1.652,6.354-3.978,7.11-5.677-.2-5.677-3.654-6.453-4.1a4.484,4.484,0,0,1-2.086-3.187c-.562-3.6-.406-6.289-.783-6.337-1.208-.153-1.834-.7-1.833-2.451" transform="translate(-54.454 -56.698)" fill="#fdb186"/>
  </g>
</svg>
