<svg xmlns="http://www.w3.org/2000/svg" xmlns:xlink="http://www.w3.org/1999/xlink" width="427.955" height="289.064" viewBox="0 0 427.955 289.064">
  <defs>
    <clipPath id="clip-path">
      <rect id="Rectángulo_77" data-name="Rectángulo 77" width="207.719" height="289.064" fill="none"/>
    </clipPath>
    <clipPath id="clip-path-2">
      <rect id="Rectángulo_75" data-name="Rectángulo 75" width="323.485" height="53.797" fill="none"/>
    </clipPath>
    <clipPath id="clip-path-3">
      <rect id="Rectángulo_76" data-name="Rectángulo 76" width="63.468" height="197.485" fill="none"/>
    </clipPath>
    <clipPath id="clip-path-4">
      <rect id="Rectángulo_91" data-name="Rectángulo 91" width="251.722" height="267.518" fill="none"/>
    </clipPath>
    <clipPath id="clip-path-5">
      <rect id="Rectángulo_78" data-name="Rectángulo 78" width="17.545" height="49.29" fill="none"/>
    </clipPath>
    <clipPath id="clip-path-6">
      <rect id="Rectángulo_79" data-name="Rectángulo 79" width="88.459" height="99.314" fill="none"/>
    </clipPath>
    <clipPath id="clip-path-7">
      <rect id="Rectángulo_80" data-name="Rectángulo 80" width="14.297" height="51.77" fill="none"/>
    </clipPath>
    <clipPath id="clip-path-8">
      <rect id="Rectángulo_81" data-name="Rectángulo 81" width="65.498" height="35.861" fill="none"/>
    </clipPath>
    <clipPath id="clip-path-9">
      <rect id="Rectángulo_82" data-name="Rectángulo 82" width="57.694" height="71.426" fill="none"/>
    </clipPath>
    <clipPath id="clip-path-10">
      <rect id="Rectángulo_83" data-name="Rectángulo 83" width="207.148" height="64.996" fill="none"/>
    </clipPath>
    <clipPath id="clip-path-11">
      <rect id="Rectángulo_84" data-name="Rectángulo 84" width="148.176" height="32.136" fill="none"/>
    </clipPath>
    <clipPath id="clip-path-12">
      <rect id="Rectángulo_85" data-name="Rectángulo 85" width="87.565" height="72.228" fill="none"/>
    </clipPath>
    <clipPath id="clip-path-13">
      <rect id="Rectángulo_86" data-name="Rectángulo 86" width="52.838" height="96.941" fill="none"/>
    </clipPath>
    <clipPath id="clip-path-14">
      <rect id="Rectángulo_87" data-name="Rectángulo 87" width="9.038" height="15.699" fill="none"/>
    </clipPath>
    <clipPath id="clip-path-15">
      <rect id="Rectángulo_88" data-name="Rectángulo 88" width="182.111" height="38.104" fill="none"/>
    </clipPath>
    <clipPath id="clip-path-16">
      <rect id="Rectángulo_89" data-name="Rectángulo 89" width="58.144" height="57.541" fill="none"/>
    </clipPath>
    <clipPath id="clip-path-17">
      <rect id="Rectángulo_90" data-name="Rectángulo 90" width="28.972" height="18.301" fill="none"/>
    </clipPath>
  </defs>
  <g id="soborno" transform="translate(-511 -138.745)">
    <g id="Grupo_62" data-name="Grupo 62" transform="translate(511 138.745)">
      <g id="Grupo_61" data-name="Grupo 61" clip-path="url(#clip-path)">
        <path id="Trazado_177" data-name="Trazado 177" d="M406.054,45.907c0-10.234-9.859-25.505-19.719-18.11-2.464-12.323-20.949-19.719-23.413-8.626,0,18.485-7.4,57.922-7.4,57.922V61.428a10.313,10.313,0,0,0-10.312-10.312h-.2a10.288,10.288,0,0,0-10.24,9.088c-1.627,13.963-5.253,43.588-11.293,85.813-24.647,9.772-187.32,21.036-187.32,21.036S50.861,157.082,0,147.566V254.731c47.017,8.313,98.012,15.765,118.914,13.376,43.132-4.928,279.745-22.183,287.14-55.455s12.323-156.512,0-166.746" transform="translate(-238.175 14.223)" fill="#ff7e6e"/>
        <path id="Trazado_178" data-name="Trazado 178" d="M113.842,34.021V56.263s22.995,22.585,20.69,58.54" transform="translate(3.51 57.292)" fill="none" stroke="#863627" stroke-miterlimit="10" stroke-width="0.576"/>
        <path id="Trazado_179" data-name="Trazado 179" d="M123.707,18.237a635.041,635.041,0,0,1,0,63.7" transform="translate(24.454 23.783)" fill="none" stroke="#863627" stroke-miterlimit="10" stroke-width="0.576"/>
        <path id="Trazado_180" data-name="Trazado 180" d="M130.021,24.036s2.183,37.754,0,53.887" transform="translate(37.858 36.094)" fill="none" stroke="#863627" stroke-miterlimit="10" stroke-width="0.576"/>
        <g id="Grupo_57" data-name="Grupo 57" transform="translate(-238.175 160.24)" opacity="0.44" style="mix-blend-mode: overlay;isolation: isolate">
          <g id="Grupo_56" data-name="Grupo 56">
            <g id="Grupo_55" data-name="Grupo 55" clip-path="url(#clip-path-2)">
              <path id="Trazado_181" data-name="Trazado 181" d="M136.168,77.128S50.864,67.157,0,57.641v45.024c52.254,7.985,124.826,7.2,144.66,7.2,27.773,0,176.236-35.387,178.825-53.778-24.647,9.772-187.317,21.036-187.317,21.036" transform="translate(0 -56.092)" fill="#863627"/>
            </g>
          </g>
        </g>
        <path id="Trazado_182" data-name="Trazado 182" d="M117.18,36.025s37.479,13.985,47.6,21.268" transform="translate(10.597 61.547)" fill="none" stroke="#863627" stroke-miterlimit="10" stroke-width="0.576"/>
        <path id="Trazado_183" data-name="Trazado 183" d="M119.169,41.291s23.816,13.785,34.862,23.863" transform="translate(14.82 72.726)" fill="none" stroke="#863627" stroke-miterlimit="10" stroke-width="0.576"/>
        <path id="Trazado_184" data-name="Trazado 184" d="M106.713,43.429h0l7.551-5.175s-.7-9.553-5.09-10.662a10.193,10.193,0,0,0-.946,3.192c-.387,3.329-.893,7.576-1.515,12.645" transform="translate(-11.624 43.643)" fill="#ff5677"/>
        <g id="Grupo_60" data-name="Grupo 60" transform="translate(111.918 30.068)" opacity="0.32" style="mix-blend-mode: overlay;isolation: isolate">
          <g id="Grupo_59" data-name="Grupo 59">
            <g id="Grupo_58" data-name="Grupo 58" clip-path="url(#clip-path-3)">
              <path id="Trazado_185" data-name="Trazado 185" d="M168.063,44.472c0-10.234-9.859-25.505-19.719-18.11-1.043-5.219-4.966-9.531-9.322-11.952-1.715,21.4-4.966,43.809-11.062,61.245-7.689,22-10.425,32.748-10.425,32.748s-12.226,41.964,0,76.095,50.527,26.72,50.527,26.72c7.4-33.275,12.323-156.512,0-166.746" transform="translate(-112.102 -14.41)" fill="#fefefe"/>
            </g>
          </g>
        </g>
        <line id="Línea_1" data-name="Línea 1" x1="39.746" y2="10.637" transform="translate(62.894 221.85)" fill="none" stroke="#863627" stroke-miterlimit="10" stroke-width="0.576"/>
      </g>
    </g>
    <g id="Grupo_103" data-name="Grupo 103" transform="translate(687.233 149.519)">
      <g id="Grupo_102" data-name="Grupo 102" clip-path="url(#clip-path-4)">
        <path id="Trazado_186" data-name="Trazado 186" d="M172.205,110.866s-.331-76.238-23.947-96.422c73.971-1.093,87.684,10.225,87.684,10.225s7.617,39.834-24.962,89.014l-36.358-2.608" transform="translate(-99.658 4.797)" fill="#39c9bb"/>
        <path id="Trazado_187" data-name="Trazado 187" d="M220.171,23.731s.887,48-28.831,84.093L168.751,106.2s3.645-48.022-15.168-89.189c33.819-1.424,66.588,6.718,66.588,6.718" transform="translate(-88.353 10.056)" fill="#237d76"/>
        <path id="Trazado_188" data-name="Trazado 188" d="M155.718,18.533s37.429,1.643,54.671,6.121c-4.947,38.2-14.285,57.138-23.866,72.328L169.29,95.09s1.271-49.718-13.572-76.557" transform="translate(-83.821 13.637)" fill="#39c9bb"/>
        <path id="Trazado_189" data-name="Trazado 189" d="M168.9,18.276s-.125,16.015-12.2,14.687" transform="translate(-81.717 13.091)" fill="none" stroke="#237d76" stroke-miterlimit="10" stroke-width="1.482"/>
        <path id="Trazado_190" data-name="Trazado 190" d="M169.145,19.172s.572,14.4,12.629,21.958" transform="translate(-55.315 14.993)" fill="none" stroke="#237d76" stroke-miterlimit="10" stroke-width="1.482"/>
        <path id="Trazado_191" data-name="Trazado 191" d="M161.32,43.071c-1.137,8.766,2.854,16.833,8.91,18.017s11.886-4.959,13.023-13.726-2.854-16.83-8.913-18.017S162.454,34.3,161.32,43.071" transform="translate(-72.337 36.281)" fill="#237d76" fill-rule="evenodd"/>
        <path id="Trazado_192" data-name="Trazado 192" d="M160.131,65.1s-4.279-28.55-4.725-36.433,7.951,25.006,4.725,36.433" transform="translate(-84.52 32.599)" fill="#237d76" fill-rule="evenodd"/>
        <g id="Grupo_65" data-name="Grupo 65" transform="translate(101.481 58.237)" style="mix-blend-mode: multiply;isolation: isolate">
          <g id="Grupo_64" data-name="Grupo 64">
            <g id="Grupo_63" data-name="Grupo 63" clip-path="url(#clip-path-5)">
              <path id="Trazado_193" data-name="Trazado 193" d="M165.191,76.171s21.564-41.142,16.88-48.606-16.88,48.606-16.88,48.606" transform="translate(-165.191 -26.88)" fill="#237d76" fill-rule="evenodd"/>
            </g>
          </g>
        </g>
        <g id="Grupo_68" data-name="Grupo 68" transform="translate(48.6 19.166)" style="mix-blend-mode: multiply;isolation: isolate">
          <g id="Grupo_67" data-name="Grupo 67">
            <g id="Grupo_66" data-name="Grupo 66" clip-path="url(#clip-path-6)">
              <path id="Trazado_194" data-name="Trazado 194" d="M235.944,24.668s7.617,39.834-24.965,89.014c-3.029-.219-5.787-.415-8.332-.6-21.852-1.568-22.567-1.618-22.589-1.621l-5.434-.387-2.417-.209s-.334-76.238-23.95-96.422c73.971-1.093,87.687,10.225,87.687,10.225" transform="translate(-148.26 -14.369)" fill="#237d76" fill-rule="evenodd"/>
            </g>
          </g>
        </g>
        <path id="Trazado_195" data-name="Trazado 195" d="M179.8,110.763s-12.386-75.227-44.225-90.6c89.611-15.371,108.037-6.842,108.037-6.842s15.506,37.866-16.308,92.731L182.767,110.5" transform="translate(-126.582 -2.433)" fill="#39c9bb"/>
        <path id="Trazado_196" data-name="Trazado 196" d="M224.312,13.467s8.623,47.235-21.773,88.618l-27.673,2.764S171.743,56.72,142.434,19.7c40.827-7.942,81.878-6.233,81.878-6.233" transform="translate(-112.022 2.554)" fill="#237d76"/>
        <path id="Trazado_197" data-name="Trazado 197" d="M145.282,19.724s45.689-5.609,67.319-4.516c0,38.678-8.357,59.187-17.595,76.038L173.792,92.7s-6.274-49.343-28.51-72.981" transform="translate(-105.976 6.278)" fill="#39c9bb"/>
        <path id="Trazado_198" data-name="Trazado 198" d="M159.676,15.358s2.364,15.84-12.492,16.861" transform="translate(-101.938 6.896)" fill="none" stroke="#237d76" stroke-miterlimit="10" stroke-width="1.643"/>
        <path id="Trazado_199" data-name="Trazado 199" d="M161.679,14.6a27.889,27.889,0,0,0,18.782,19.244" transform="translate(-71.166 5.277)" fill="none" stroke="#237d76" stroke-miterlimit="10" stroke-width="1.643"/>
        <path id="Trazado_200" data-name="Trazado 200" d="M154.3,41.346c0,8.876,6.109,16.071,13.647,16.071s13.647-7.2,13.647-16.071-6.112-16.071-13.647-16.071S154.3,32.47,154.3,41.346" transform="translate(-86.835 27.95)" fill="#237d76" fill-rule="evenodd"/>
        <path id="Trazado_201" data-name="Trazado 201" d="M157.913,61.716s-9.681-27.37-11.461-35.065,13.579,23.157,11.461,35.065" transform="translate(-103.798 28.286)" fill="#237d76" fill-rule="evenodd"/>
        <g id="Grupo_71" data-name="Grupo 71" transform="translate(87.059 42.938)" style="mix-blend-mode: multiply;isolation: isolate">
          <g id="Grupo_70" data-name="Grupo 70">
            <g id="Grupo_69" data-name="Grupo 69" clip-path="url(#clip-path-7)">
              <path id="Trazado_202" data-name="Trazado 202" d="M160.573,73.75s19.706-44.8,12.848-51.264S160.573,73.75,160.573,73.75" transform="translate(-160.573 -21.981)" fill="#237d76" fill-rule="evenodd"/>
            </g>
          </g>
        </g>
        <g id="Grupo_74" data-name="Grupo 74" transform="translate(49.627 69.658)" style="mix-blend-mode: multiply;isolation: isolate">
          <g id="Grupo_73" data-name="Grupo 73">
            <g id="Grupo_72" data-name="Grupo 72" clip-path="url(#clip-path-8)">
              <path id="Trazado_203" data-name="Trazado 203" d="M150.867,62.359c-.565-2.723-1.321-6.143-2.28-10.04a213.19,213.19,0,0,1,27.051-15.543c18.373-9.085,33.585-5.974,38.45-4.569a154.994,154.994,0,0,1-11.021,26.161L154.836,66.4Z" transform="translate(-148.587 -30.536)" fill="#237d76" fill-rule="evenodd"/>
            </g>
          </g>
        </g>
        <path id="Trazado_204" data-name="Trazado 204" d="M409.139,65.7,278.32,72.087,228.993,38.471a34.181,34.181,0,0,0-33.085-3.011L170.393,46.753A19.411,19.411,0,0,0,158.841,64.97l0,.128S135.987,68.265,143,87.752c4.147,9.075,13.31,6.237,13.31,6.237s-16.664,18.088,7.083,24.731c-6.112,18.491,4.519,24.79,13.032,24.587-1.621,14.453,12.442,27.223,53.7,26.242s68.131-16.689,68.131-16.689l113.065,4.519Z" transform="translate(-113.658 43.364)" fill="#ef7d6e"/>
        <g id="Grupo_77" data-name="Grupo 77" transform="translate(77.778 117.193)" opacity="0.55" style="mix-blend-mode: multiply;isolation: isolate">
          <g id="Grupo_76" data-name="Grupo 76">
            <g id="Grupo_75" data-name="Grupo 75" clip-path="url(#clip-path-9)">
              <path id="Trazado_205" data-name="Trazado 205" d="M196.179,117.182s7.53-17.192,19.116-24.028c-12.336-.028-39.918-29.231-44.215-47.394-5.115,1.387-13.017,3.585-13.017,3.585l-.462,8.388s22.239-5.24,22.945,24.556c16.586-1.14,20,11.817,11.5,21.243,4.678,3.732,5.937,7.664,4.138,13.651" transform="translate(-157.601 -45.756)" fill="#6b413d"/>
            </g>
          </g>
        </g>
        <path id="Trazado_206" data-name="Trazado 206" d="M152.8,75.9s44.106-15.687,50.6-10.6,7.3,23.441-22.932,28.66l-8.2,2.067" transform="translate(-90.026 110.771)" fill="none" stroke="#80251f" stroke-miterlimit="10" stroke-width="0.419"/>
        <path id="Trazado_207" data-name="Trazado 207" d="M148.622,65.877s47.635-9.534,57.479-8.351,13.032,12.036,5,21.236" transform="translate(-98.885 96.203)" fill="none" stroke="#80251f" stroke-miterlimit="10" stroke-width="0.419"/>
        <line id="Línea_2" data-name="Línea 2" y1="2.077" x2="7.776" transform="translate(42.654 135.274)" fill="none" stroke="#80251f" stroke-miterlimit="10" stroke-width="0.419"/>
        <path id="Trazado_208" data-name="Trazado 208" d="M157.6,49.831s22.492-5.209,22.948,24.556" transform="translate(-79.823 79.339)" fill="none" stroke="#80251f" stroke-miterlimit="10" stroke-width="0.419"/>
        <g id="Grupo_80" data-name="Grupo 80" transform="translate(90.514 147.97)" opacity="0.55" style="mix-blend-mode: multiply;isolation: isolate">
          <g id="Grupo_79" data-name="Grupo 79">
            <g id="Grupo_78" data-name="Grupo 78" clip-path="url(#clip-path-10)">
              <path id="Trazado_209" data-name="Trazado 209" d="M161.679,118.913c.091-.013,61.748-7.639,68.265-17.158s3.635-20.5,6.006-31.155.943,8.123,4.563,18.535,7.982,20.424,7.529,1.318-.828-34.84-.828-34.84,2.9,43.038,35.524,43.762c25.112.878,68.5-1.468,85.813-2.5l.275,11.514-113.065-4.519s-26.876,15.709-68.131,16.689a130.342,130.342,0,0,1-25.952-1.643" transform="translate(-161.679 -55.613)" fill="#6b413d"/>
            </g>
          </g>
        </g>
        <g id="Grupo_83" data-name="Grupo 83" transform="translate(147.305 103.621)" opacity="0.59" style="mix-blend-mode: overlay;isolation: isolate">
          <g id="Grupo_82" data-name="Grupo 82">
            <g id="Grupo_81" data-name="Grupo 81" clip-path="url(#clip-path-11)">
              <path id="Trazado_210" data-name="Trazado 210" d="M227.03,56.605c-11.2,1.911-26.433,7.6-25.174,13.2s-3.988,5.718-5-5.169-16.986-23.216-17-23.223l17.358,11.827L328.04,46.852s-89.811,7.842-101.01,9.753" transform="translate(-179.864 -41.412)" fill="#fff"/>
            </g>
          </g>
        </g>
        <path id="Trazado_211" data-name="Trazado 211" d="M165.075,57.279S163,45.508,154.3,42.02" transform="translate(-86.835 63.499)" fill="none" stroke="#80251f" stroke-miterlimit="10" stroke-width="0.419"/>
        <g id="Grupo_86" data-name="Grupo 86" transform="translate(45.246 75.898)" opacity="0.59" style="mix-blend-mode: overlay;isolation: isolate">
          <g id="Grupo_85" data-name="Grupo 85">
            <g id="Grupo_84" data-name="Grupo 84" clip-path="url(#clip-path-12)">
              <path id="Trazado_212" data-name="Trazado 212" d="M194.817,47.439c-16.808.831-40.034,5.144-36.7,17.267,5.162,18.741-3.869,40.055-3.869,40.055l-.818-4.029L147.185,63a19.4,19.4,0,0,1,11.486-16.249L184.189,35.46a34.175,34.175,0,0,1,33.082,3.011l17.476,11.911a166.774,166.774,0,0,0-39.931-2.942" transform="translate(-147.182 -32.537)" fill="#fff"/>
            </g>
          </g>
        </g>
        <g id="Grupo_89" data-name="Grupo 89" transform="translate(28.007 111.884)" opacity="0.59" style="mix-blend-mode: overlay;isolation: isolate">
          <g id="Grupo_88" data-name="Grupo 88">
            <g id="Grupo_87" data-name="Grupo 87" clip-path="url(#clip-path-13)">
              <path id="Trazado_213" data-name="Trazado 213" d="M149.238,44.058C148.1,51.55,147.564,66.231,160.2,68.486c-3.869,10.656-5.615,21.789,8.676,24.7-1.761,11.418,3.91,23.344,16.486,22.651-.106,12.526,3.392,23.26,8.516,24.934-13.51-4.813-18.447-13.048-17.451-21.926-8.513.2-19.147-6.1-13.035-24.59-23.744-6.643-7.08-24.728-7.08-24.728s-9.166,2.839-13.31-6.237c-3.735-10.375,1-16.124,6.237-19.231" transform="translate(-141.665 -44.058)" fill="#fff"/>
              <path id="Trazado_214" data-name="Trazado 214" d="M158.467,75.056c.159.053.281.1.362.131-.122-.041-.237-.087-.362-.131" transform="translate(-105.991 21.75)" fill="#fff"/>
            </g>
          </g>
        </g>
        <g id="Grupo_92" data-name="Grupo 92" transform="translate(48.7 124.901)" opacity="0.59" style="mix-blend-mode: overlay;isolation: isolate">
          <g id="Grupo_91" data-name="Grupo 91">
            <g id="Grupo_90" data-name="Grupo 90" clip-path="url(#clip-path-14)">
              <path id="Trazado_215" data-name="Trazado 215" d="M150.279,63.924a25.6,25.6,0,0,1,5.931-5.471c3.229-1.955-.865-10.7-7.92-10.206a66.913,66.913,0,0,1,1.989,15.677" transform="translate(-148.29 -48.225)" fill="#fff"/>
            </g>
          </g>
        </g>
        <line id="Línea_3" data-name="Línea 3" y1="1.124" x2="47.288" transform="translate(185.774 141.385)" fill="none" stroke="#80251f" stroke-miterlimit="10" stroke-width="0.419"/>
        <line id="Línea_4" data-name="Línea 4" x2="28.238" y2="2.433" transform="translate(194.344 153.893)" fill="none" stroke="#80251f" stroke-miterlimit="10" stroke-width="0.419"/>
        <path id="Trazado_216" data-name="Trazado 216" d="M147.164,42.92s5.575,23.66,6.424,37.239a6.432,6.432,0,0,0,7.573,5.927c12.589-2.274,18.994-10.293,19.06-30.718l13.02-3.585s20.431,57.173,64.19,47.616" transform="translate(-101.981 65.41)" fill="none" stroke="#80251f" stroke-miterlimit="10" stroke-width="0.419"/>
        <path id="Trazado_217" data-name="Trazado 217" d="M205.281,43.742s-4.544,56.183,2.58,108.5l180.293,4.725-2.8-117.5Z" transform="translate(18.369 58.065)" fill="#122237"/>
        <path id="Trazado_218" data-name="Trazado 218" d="M255.389,40.449c-.99,20.04-2.064,69.065,7.773,111.138l-55.3-1.449c-7.124-52.313-2.58-108.5-2.58-108.5Z" transform="translate(18.369 60.164)" fill="#c12f3d"/>
        <g id="Grupo_95" data-name="Grupo 95" transform="translate(222.491 97.525)" opacity="0.59" style="mix-blend-mode: overlay;isolation: isolate">
          <g id="Grupo_94" data-name="Grupo 94">
            <g id="Grupo_93" data-name="Grupo 93" clip-path="url(#clip-path-15)">
              <path id="Trazado_219" data-name="Trazado 219" d="M273.432,68.932C210.02,55.765,203.942,67.4,203.939,67.4c.415-14.438,1.159-23.653,1.159-23.653L385.178,39.46l.871,36.67c-26.861,2.9-69.1,1.836-112.618-7.2" transform="translate(-203.939 -39.46)" fill="#fff"/>
            </g>
          </g>
        </g>
        <path id="Trazado_220" data-name="Trazado 220" d="M218.275,82.41a8.589,8.589,0,1,0-8.791-8.382,8.587,8.587,0,0,0,8.791,8.382" transform="translate(30.318 112.783)" fill="#122237"/>
        <path id="Trazado_221" data-name="Trazado 221" d="M168.09,76.5s-3.267,27.417-13.763,41.358c36.092,14.01,58.144,10.421,58.144,10.421L197.908,71.156s-6.789,6.917-29.818,5.347" transform="translate(-86.774 125.355)" fill="#39c9bb" fill-rule="evenodd"/>
        <path id="Trazado_222" data-name="Trazado 222" d="M188.254,71.868,200.39,121.8s-18.985,1.7-43.219-7.233c5.678-12.542,8.632-39.393,8.632-39.393s15.546-.059,22.451-3.31" transform="translate(-80.736 126.866)" fill="#237d76" fill-rule="evenodd"/>
        <path id="Trazado_223" data-name="Trazado 223" d="M158.835,111.349c4.872-13.582,6.23-36.986,6.23-36.986,3.96-.15,11.321-.628,16.636-2.145.375.84,10.087,44.459,10.087,44.459s-19.334.931-32.954-5.328" transform="translate(-77.203 127.609)" fill="#39c9bb" fill-rule="evenodd"/>
        <path id="Trazado_224" data-name="Trazado 224" d="M164.116,72.845s3.744,23.088-1.215,28.894,1.215-28.894,1.215-28.894" transform="translate(-72.665 128.941)" fill="#237d76" fill-rule="evenodd"/>
        <path id="Trazado_225" data-name="Trazado 225" d="M176.437,83.461s-8.245.949-10.462,11.321" transform="translate(-62.045 151.478)" fill="none" stroke="#237d76" stroke-miterlimit="10" stroke-width="1.643"/>
        <path id="Trazado_226" data-name="Trazado 226" d="M159.269,81.257s9.054,5.087,7.183,15.187" transform="translate(-76.282 146.799)" fill="none" stroke="#237d76" stroke-miterlimit="10" stroke-width="1.643"/>
        <g id="Grupo_98" data-name="Grupo 98" transform="translate(67.553 196.511)" style="mix-blend-mode: multiply;isolation: isolate">
          <g id="Grupo_97" data-name="Grupo 97" transform="translate(0 0)">
            <g id="Grupo_96" data-name="Grupo 96" clip-path="url(#clip-path-16)">
              <path id="Trazado_227" data-name="Trazado 227" d="M168.09,76.5c1.321.091,2.58.15,3.8.187.122,0,1.146-.009,2.748-.072.443-.016.946-.041,1.471-.066l.347-.019c.443-.022.915-.05,1.4-.081.156-.012.312-.022.472-.031.537-.037,1.1-.081,1.668-.128l.3-.025c.69-.059,1.4-.128,2.12-.206.066-.006.131-.016.2-.025.625-.069,1.259-.147,1.893-.231l.575-.084c.521-.075,1.043-.153,1.558-.24.209-.034.422-.072.631-.109.522-.094,1.037-.2,1.546-.3.172-.037.347-.072.518-.109.665-.15,1.318-.309,1.939-.487a19.794,19.794,0,0,0,3.02-1.093,13.072,13.072,0,0,0,3.62-2.224l14.563,57.126s-22.051,3.588-58.144-10.421C164.823,103.916,168.09,76.5,168.09,76.5" transform="translate(-154.327 -71.156)" fill="#237d76" fill-rule="evenodd"/>
            </g>
          </g>
        </g>
        <path id="Trazado_228" data-name="Trazado 228" d="M163.174,82.342s2.68,27.479-4.591,43.344c38.257,5.959,59.028-2.267,59.028-2.267L191.156,70.734s-5.15,8.213-27.982,11.608" transform="translate(-77.738 124.459)" fill="#39c9bb" fill-rule="evenodd"/>
        <path id="Trazado_229" data-name="Trazado 229" d="M182.46,71.678l22.548,46.183s-18.182,5.721-43.769,2.186c2.864-13.466,0-40.327,0-40.327s15.171-3.388,21.221-8.042" transform="translate(-72.1 126.463)" fill="#237d76" fill-rule="evenodd"/>
        <path id="Trazado_230" data-name="Trazado 230" d="M163.94,115.346c1.852-14.309-1.833-37.46-1.833-37.46h0c3.835-1,10.921-3.039,15.787-5.659h0c.543.74,19.369,41.267,19.369,41.267s-18.685,5.05-33.328,1.852" transform="translate(-70.257 127.629)" fill="#39c9bb" fill-rule="evenodd"/>
        <path id="Trazado_231" data-name="Trazado 231" d="M163.217,73.733s8.6,21.752,5,28.485-5-28.485-5-28.485" transform="translate(-67.9 130.826)" fill="#237d76" fill-rule="evenodd"/>
        <path id="Trazado_232" data-name="Trazado 232" d="M177.965,82.531s-7.848,2.692-7.8,13.3" transform="translate(-53.139 149.504)" fill="none" stroke="#237d76" stroke-miterlimit="10" stroke-width="1.643"/>
        <path id="Trazado_233" data-name="Trazado 233" d="M162.371,82.531s9.931,3.029,10.268,13.3" transform="translate(-69.696 149.504)" fill="none" stroke="#237d76" stroke-miterlimit="10" stroke-width="1.643"/>
        <g id="Grupo_101" data-name="Grupo 101" transform="translate(85.436 195.193)" style="mix-blend-mode: multiply;isolation: isolate">
          <g id="Grupo_100" data-name="Grupo 100">
            <g id="Grupo_99" data-name="Grupo 99" clip-path="url(#clip-path-17)">
              <path id="Trazado_234" data-name="Trazado 234" d="M188.035,70.734l.99,1.971c-3.054,4.091-11.677,13.379-28.578,16.33-.141-4.079-.394-6.693-.394-6.693,22.832-3.4,27.982-11.608,27.982-11.608" transform="translate(-160.053 -70.734)" fill="#237d76" fill-rule="evenodd"/>
            </g>
          </g>
        </g>
      </g>
    </g>
  </g>
</svg>
