<svg id="terrorista" xmlns="http://www.w3.org/2000/svg" xmlns:xlink="http://www.w3.org/1999/xlink" width="332" height="409.369" viewBox="0 0 332 409.369">
  <defs>
    <clipPath id="clip-path">
      <rect id="Rectángulo_122" data-name="Rectángulo 122" width="332" height="409.369" fill="none"/>
    </clipPath>
  </defs>
  <g id="Grupo_104" data-name="Grupo 104" clip-path="url(#clip-path)">
    <path id="Trazado_236" data-name="Trazado 236" d="M22.8,299.235c.423,3.35.838,6.347,1.232,8.97A12.624,12.624,0,0,0,49,304.482q-.575-3.846-1.2-8.9c-2.441-19.948-5.066-53.689-2.907-97.711,3.926-80.063,41.429-94.784,41.814-94.916L78.717,79.031c-2.21.737-54.195,19.2-59.017,117.608-2.28,46.345.464,81.547,3.1,102.6" transform="translate(15.699 65.818)" fill="#f0a77a"/>
    <path id="Trazado_237" data-name="Trazado 237" d="M92.064,103.367c1.342.576,9.8,4.52,18.728,16.831,9.131,12.56,20.32,36.414,21.8,78.661,1.523,43.478-1.472,76.865-4.166,96.874-.495,3.682-.99,6.921-1.433,9.675a12.632,12.632,0,0,0,24.932,4.078c.434-2.645.9-5.671,1.373-9.061,2.905-21.017,6.134-56.15,4.511-102.443-3.462-98.468-55.182-117.648-57.382-118.426L92.1,103.378Z" transform="translate(76.672 66.255)" fill="#f0a77a"/>
    <path id="Trazado_238" data-name="Trazado 238" d="M44.222,315.789H156.194l5.929-205.746a32.5,32.5,0,0,0-32.5-32.5H72.764a32.5,32.5,0,0,0-32.494,32.5Z" transform="translate(33.538 64.582)" fill="#b1ac4c"/>
    <path id="Trazado_239" data-name="Trazado 239" d="M13.564,210.576H56.619c.038-.63.059-1.283.1-1.937,3.459-70.536,34.1-86.1,36.1-87.035l8.061-2.766L87.284,78.115l-8.438,2.828c-2.447.81-59.966,21.162-65.083,125.6-.059,1.365-.139,2.709-.2,4.03" transform="translate(11.296 65.055)" fill="#b1ac4c"/>
    <path id="Trazado_240" data-name="Trazado 240" d="M95.174,113.195l-2.885,8.4c.3.117,7.291,3.2,15.016,13.869,8.418,11.56,18.711,33.729,20.133,73.76,0,.216.02.434.02.632h43.014c0-.711-.04-1.424-.059-2.135-3.6-102.467-57.2-124.34-63.307-126.494l-8.416-2.982L87.429,110.488Z" transform="translate(72.812 65.162)" fill="#b1ac4c"/>
    <path id="Trazado_241" data-name="Trazado 241" d="M56.24,85.427c0,7.548,14.465,13.665,32.309,13.665s32.309-6.118,32.309-13.665S106.391,71.762,88.549,71.762,56.24,77.88,56.24,85.427" transform="translate(46.838 59.765)" fill="#3c2415"/>
    <path id="Trazado_242" data-name="Trazado 242" d="M79.55,100.241H91.474a18.668,18.668,0,0,0,18.669-18.669V66.119H60.881V81.571A18.669,18.669,0,0,0,79.55,100.241" transform="translate(50.703 55.065)" fill="#3c2415"/>
    <path id="Trazado_243" data-name="Trazado 243" d="M46.334,45.113c0,8.176,6.226,14.8,13.907,14.8s13.907-6.627,13.907-14.8-6.226-14.8-13.907-14.8-13.907,6.627-13.907,14.8" transform="translate(38.588 25.242)" fill="#3c2415"/>
    <path id="Trazado_244" data-name="Trazado 244" d="M93.5,129.7H94.87c19.728,0,37.034-12.524,38.561-28.959l5.3-57.035C140.879,20.617,121.33,0,95.1,0H93.268C67.035,0,47.488,20.617,49.634,43.711l5.3,57.035C56.463,117.181,73.767,129.7,93.5,129.7" transform="translate(41.202)" fill="#3c2415"/>
    <path id="Trazado_245" data-name="Trazado 245" d="M86.225,45.113c0,8.176,6.226,14.8,13.907,14.8s13.907-6.627,13.907-14.8-6.226-14.8-13.907-14.8-13.907,6.627-13.907,14.8" transform="translate(71.81 25.242)" fill="#3c2415"/>
    <path id="Trazado_246" data-name="Trazado 246" d="M66.26,53.928h46.812a11.361,11.361,0,0,0,0-22.721H66.26a11.361,11.361,0,1,0,0,22.721" transform="translate(45.72 25.99)" fill="#f0a77a"/>
    <path id="Trazado_247" data-name="Trazado 247" d="M99.646,128.643h6.012a6.5,6.5,0,0,0,6.5-6.5V81.924a6.5,6.5,0,0,0-6.5-6.5H99.646a6.5,6.5,0,0,0-6.5,6.5v40.221a6.5,6.5,0,0,0,6.5,6.5" transform="translate(77.576 62.817)" fill="#d9b47b"/>
    <path id="Trazado_248" data-name="Trazado 248" d="M50.922,128.643h6.012a6.5,6.5,0,0,0,6.5-6.5V81.924a6.5,6.5,0,0,0-6.5-6.5H50.922a6.5,6.5,0,0,0-6.5,6.5v40.221a6.5,6.5,0,0,0,6.5,6.5" transform="translate(36.998 62.817)" fill="#d9b47b"/>
    <path id="Trazado_249" data-name="Trazado 249" d="M52.475,261.319h99.232a13.874,13.874,0,0,0,13.874-13.874V112.192a13.874,13.874,0,0,0-13.874-13.873H52.475A13.874,13.874,0,0,0,38.6,112.192V247.444a13.874,13.874,0,0,0,13.874,13.874" transform="translate(32.148 81.882)" fill="#ebc386"/>
    <rect id="Rectángulo_98" data-name="Rectángulo 98" width="23.849" height="14.105" transform="translate(78.556 154.633)" fill="#fcd8a1"/>
    <rect id="Rectángulo_99" data-name="Rectángulo 99" width="23.849" height="14.105" transform="translate(168.304 154.633)" fill="#fcd8a1"/>
    <rect id="Rectángulo_100" data-name="Rectángulo 100" width="26.033" height="64.259" transform="translate(167.945 224.676)" fill="#fcd290"/>
    <rect id="Rectángulo_101" data-name="Rectángulo 101" width="26.033" height="14.49" transform="translate(167.945 210.187)" fill="#d9b47c"/>
    <path id="Trazado_250" data-name="Trazado 250" d="M99.42,148.279h6.411a6.129,6.129,0,0,0,6.129-6.129V114.68H93.291v27.47a6.129,6.129,0,0,0,6.129,6.129" transform="translate(77.694 95.507)" fill="#ffe2b5"/>
    <rect id="Rectángulo_102" data-name="Rectángulo 102" width="26.033" height="64.259" transform="translate(136.312 224.676)" fill="#fcd290"/>
    <rect id="Rectángulo_103" data-name="Rectángulo 103" width="26.033" height="14.49" transform="translate(136.312 210.187)" fill="#d9b47c"/>
    <path id="Trazado_251" data-name="Trazado 251" d="M82.161,148.279h6.411A6.129,6.129,0,0,0,94.7,142.15V114.68H76.032v27.47a6.129,6.129,0,0,0,6.129,6.129" transform="translate(63.321 95.507)" fill="#ffe2b5"/>
    <rect id="Rectángulo_104" data-name="Rectángulo 104" width="26.033" height="64.259" transform="translate(105.183 224.676)" fill="#fcd290"/>
    <rect id="Rectángulo_105" data-name="Rectángulo 105" width="26.033" height="14.49" transform="translate(105.183 210.187)" fill="#d9b47c"/>
    <path id="Trazado_252" data-name="Trazado 252" d="M65.177,148.279h6.409a6.13,6.13,0,0,0,6.131-6.129V114.68H59.048v27.47a6.129,6.129,0,0,0,6.129,6.129" transform="translate(49.176 95.507)" fill="#ffe2b5"/>
    <rect id="Rectángulo_106" data-name="Rectángulo 106" width="26.033" height="64.259" transform="translate(74.605 224.676)" fill="#fcd290"/>
    <rect id="Rectángulo_107" data-name="Rectángulo 107" width="26.033" height="14.49" transform="translate(74.605 210.187)" fill="#d9b47c"/>
    <path id="Trazado_253" data-name="Trazado 253" d="M48.494,148.279H54.9a6.13,6.13,0,0,0,6.131-6.129V114.68H42.365v27.47a6.129,6.129,0,0,0,6.129,6.129" transform="translate(35.282 95.507)" fill="#ffe2b5"/>
    <rect id="Rectángulo_108" data-name="Rectángulo 108" width="117.548" height="13.72" transform="translate(75.466 355.004)" fill="#8b5e3c"/>
    <rect id="Rectángulo_109" data-name="Rectángulo 109" width="31.129" height="13.728" transform="translate(118.2 354.996)" fill="#fcd290"/>
    <rect id="Rectángulo_110" data-name="Rectángulo 110" width="20.801" height="24.741" transform="translate(153.31 361.622)" fill="#c49a6c"/>
    <rect id="Rectángulo_111" data-name="Rectángulo 111" width="20.801" height="10.539" transform="translate(153.31 351.083)" fill="#a97c50"/>
    <path id="Trazado_254" data-name="Trazado 254" d="M90.451,217.25H94.41a5.478,5.478,0,0,0,5.478-5.478V191.554H84.973v20.218a5.478,5.478,0,0,0,5.478,5.478" transform="translate(70.767 159.529)" fill="#deae7a"/>
    <rect id="Rectángulo_112" data-name="Rectángulo 112" width="18.37" height="24.741" transform="translate(177.288 361.622)" fill="#c49a6c"/>
    <rect id="Rectángulo_113" data-name="Rectángulo 113" width="18.37" height="10.539" transform="translate(177.288 351.083)" fill="#a97c50"/>
    <path id="Trazado_255" data-name="Trazado 255" d="M103.049,217.25h2.876a5.15,5.15,0,0,0,5.15-5.148V191.554H97.9V212.1a5.148,5.148,0,0,0,5.148,5.148" transform="translate(81.534 159.529)" fill="#deae7a"/>
    <rect id="Rectángulo_114" data-name="Rectángulo 114" width="116.688" height="6.45" transform="translate(75.466 296.315)" fill="#d9b47c"/>
    <rect id="Rectángulo_115" data-name="Rectángulo 115" width="116.688" height="6.45" transform="translate(75.402 307.184)" fill="#d9b47c"/>
    <rect id="Rectángulo_116" data-name="Rectángulo 116" width="116.688" height="6.45" transform="translate(76.39 318.298)" fill="#d9b47c"/>
    <path id="Trazado_256" data-name="Trazado 256" d="M18.591,213.906a18.338,18.338,0,1,0,18.337-18.337,18.338,18.338,0,0,0-18.337,18.337" transform="translate(15.483 162.873)" fill="#f0a77a"/>
    <path id="Trazado_257" data-name="Trazado 257" d="M108.909,213.906a18.338,18.338,0,1,0,18.337-18.337,18.336,18.336,0,0,0-18.337,18.337" transform="translate(90.701 162.873)" fill="#f0a77a"/>
    <path id="Trazado_258" data-name="Trazado 258" d="M59.249,177.127l18.169-3.5a16.9,16.9,0,0,0,13.008-11.715l2.456-8.081-3.666-1.116L86.76,160.8a13.086,13.086,0,0,1-10.068,9.063l-18.167,3.5Z" transform="translate(48.741 127.184)" fill="#21363b"/>
    <path id="Trazado_259" data-name="Trazado 259" d="M142.132,224.257l6.578-26.231c-49.656-12.452-46.629-42.122-46.121-45.463l-26.631-4.7c-3.634,19.771,5.515,61.181,66.174,76.392" transform="translate(62.685 123.144)" fill="#231f20"/>
    <path id="Trazado_260" data-name="Trazado 260" d="M1.822,161.107,0,187.391a13.114,13.114,0,0,0,18.048,9.584l75.01-36.182-2.834-14.717s-34.279,5.007-37.056,2.722l-.488-.4a11.022,11.022,0,0,0-7.674-2.493L9.5,148.636c-7.714.706-9.14,4.859-7.674,12.47" transform="translate(0 121.495)" fill="#cf5b4d"/>
    <path id="Trazado_261" data-name="Trazado 261" d="M49.957,182.7l118.715-22.866-5.436-28.214-107.487,20.7a11.431,11.431,0,0,0-9.063,13.389Z" transform="translate(38.707 109.614)" fill="#21363b"/>
    <rect id="Rectángulo_117" data-name="Rectángulo 117" width="112.399" height="8.545" transform="translate(220.014 247.172) rotate(-10.902)" fill="#21363b"/>
    <path id="Trazado_262" data-name="Trazado 262" d="M177.269,134.172l2.32-3.048-8.75-6.662L117.692,134.7l.724,3.763,51.467-9.914Z" transform="translate(98.015 103.654)" fill="#21363b"/>
    <rect id="Rectángulo_118" data-name="Rectángulo 118" width="112.399" height="3.991" transform="translate(210.385 260.167) rotate(-10.902)" fill="#21363b"/>
    <path id="Trazado_263" data-name="Trazado 263" d="M145.005,159.423l-49.163,9.47-4.963-25.764a4.657,4.657,0,0,1,3.693-5.453l44.352-8.543a4.655,4.655,0,0,1,5.453,3.691l4.128,21.429a4.413,4.413,0,0,1-3.5,5.169" transform="translate(75.615 107.474)" fill="#cf5b4d"/>
    <path id="Trazado_264" data-name="Trazado 264" d="M112.122,156.246l-11.083,2.135a6.312,6.312,0,0,1-7.388-5l-.1-.537,23.471-4.522.1.537a6.309,6.309,0,0,1-5,7.388" transform="translate(77.908 123.524)" fill="#cf5b4d"/>
    <path id="Trazado_265" data-name="Trazado 265" d="M59.942,155.438l58.5-11.266-1.014-5.257L64.185,149.17a5.353,5.353,0,0,0-4.243,6.268" transform="translate(49.84 115.691)" fill="#2f4d54"/>
    <path id="Trazado_266" data-name="Trazado 266" d="M177.553,142.861l3.319-.64a3.8,3.8,0,0,0,3.015-4.454l-2.139-11.111-10.79,2.078,2.141,11.111a3.8,3.8,0,0,0,4.454,3.015" transform="translate(142.377 105.482)" fill="#21363b"/>
    <rect id="Rectángulo_119" data-name="Rectángulo 119" width="10.423" height="18.546" transform="translate(269.121 234.031) rotate(-10.907)" fill="#21363b"/>
    <rect id="Rectángulo_120" data-name="Rectángulo 120" width="1.691" height="11.174" transform="translate(319.237 219.406) rotate(-10.871)" fill="#21363b"/>
    <rect id="Rectángulo_121" data-name="Rectángulo 121" width="1.691" height="11.174" transform="translate(311.769 220.844) rotate(-10.871)" fill="#21363b"/>
    <path id="Trazado_267" data-name="Trazado 267" d="M169.914,113.623l6.915-1.332,2.557,13.279-9.127,1.758Z" transform="translate(141.507 93.518)" fill="#21363b"/>
    <path id="Trazado_268" data-name="Trazado 268" d="M93.5,132.413l16.228-3.125,1.03,5.346-21.576,4.157a5.447,5.447,0,0,1,4.318-6.378" transform="translate(74.186 107.673)" fill="#21363b"/>
    <path id="Trazado_269" data-name="Trazado 269" d="M128.049,195.234l.411-2.216A63.943,63.943,0,0,1,102.8,180.507C90.813,170.7,89.046,155.22,89.03,155.064l-2.24.236c.071.673,1.888,16.559,14.582,26.95a64.984,64.984,0,0,0,26.677,12.984" transform="translate(72.28 129.14)" fill="#2b464d"/>
    <path id="Trazado_270" data-name="Trazado 270" d="M129.5,201.639l.64-2.161a107.021,107.021,0,0,1-25.859-12.6c-15.042-10.069-18.55-30.993-18.583-31.2l-2.225.354c.143.9,3.68,22.1,19.554,32.723a109.582,109.582,0,0,0,26.473,12.89" transform="translate(69.516 129.646)" fill="#2b464d"/>
    <path id="Trazado_271" data-name="Trazado 271" d="M129.883,207.381l.641-2.161c-.165-.048-16.448-4.952-29.041-14.384-12.793-9.58-19.316-34.288-19.378-34.536l-2.181.565c.271,1.047,6.792,25.727,20.209,35.775,12.923,9.679,29.582,14.692,29.75,14.741" transform="translate(66.562 130.169)" fill="#2b464d"/>
    <path id="Trazado_272" data-name="Trazado 272" d="M62.005,200.148,50.341,202.4a5.917,5.917,0,0,1-6.928-4.69l9.1-36.178,23.28-4.485L66.7,193.22a5.915,5.915,0,0,1-4.69,6.928" transform="translate(36.155 130.787)" fill="#21363b"/>
    <path id="Trazado_273" data-name="Trazado 273" d="M50.217,207.447,75.792,72.84,43.413,208.331Z" transform="translate(36.155 60.662)" fill="#754c29"/>
    <path id="Trazado_274" data-name="Trazado 274" d="M137.5,171.8,91.341,78.243l37.578,95.043Z" transform="translate(76.07 65.162)" fill="#754c29"/>
    <path id="Trazado_275" data-name="Trazado 275" d="M91.7,236.531v-8.649h12.355v8.649h48.053l2.291-29H42.427l2.056,29Z" transform="translate(35.334 172.838)" fill="#626b52"/>
  </g>
</svg>
