<svg id="conversacion" xmlns="http://www.w3.org/2000/svg" xmlns:xlink="http://www.w3.org/1999/xlink" width="528.14" height="401.839" viewBox="0 0 528.14 401.839">
  <defs>
    <clipPath id="clip-path">
      <rect id="Rectángulo_89" data-name="Rectángulo 89" width="528.14" height="401.839" fill="none"/>
    </clipPath>
    <clipPath id="clip-path-3">
      <rect id="Rectángulo_85" data-name="Rectángulo 85" width="49.564" height="37.872" fill="none"/>
    </clipPath>
    <clipPath id="clip-path-4">
      <rect id="Rectángulo_86" data-name="Rectángulo 86" width="6.003" height="121.657" fill="none"/>
    </clipPath>
    <clipPath id="clip-path-5">
      <rect id="Rectángulo_87" data-name="Rectángulo 87" width="132.055" height="100.241" fill="none"/>
    </clipPath>
  </defs>
  <g id="Grupo_64" data-name="Grupo 64" clip-path="url(#clip-path)">
    <g id="Grupo_63" data-name="Grupo 63">
      <g id="Grupo_62" data-name="Grupo 62" clip-path="url(#clip-path)">
        <path id="Trazado_217" data-name="Trazado 217" d="M354,8.675a10.711,10.711,0,0,0-10.977-5.6,14.716,14.716,0,0,0-17.976-.027,13.366,13.366,0,0,0-12.8-.506,13.1,13.1,0,0,0-7.007,10.607,11.185,11.185,0,0,0-11.45,5.429,10.941,10.941,0,0,0,1.6,12.465A10.677,10.677,0,0,0,288.173,42.9a10.786,10.786,0,0,0,11.192,8.3L351.8,20.7A10.484,10.484,0,0,0,354,8.675" transform="translate(56.192 0)" fill="#1a2e35"/>
        <path id="Trazado_218" data-name="Trazado 218" d="M296.932,50.45A44.081,44.081,0,0,1,341.862,11.1l2.291.047c24.668,1.931,36.793,23.742,34.159,48.091l-5.272,81.315-3.6,10.167-42.5,52.7-10.712-47.473-.2-22.041s-23.668-4.137-23.472-27.635c.1-11.349,2.211-34.7,4.375-55.815" transform="translate(57.081 2.163)" fill="#ffc09d"/>
        <path id="Trazado_219" data-name="Trazado 219" d="M312.22,115.258s14.916,1.14,31.068-8.447c0,0-7.625,16.8-31.043,14.276Z" transform="translate(60.918 20.84)" fill="#ff9b6c"/>
        <path id="Trazado_220" data-name="Trazado 220" d="M300.86,62.148a3.37,3.37,0,0,0,3.2,3.451,3.234,3.234,0,0,0,3.558-2.953,3.371,3.371,0,0,0-3.195-3.454,3.236,3.236,0,0,0-3.561,2.956" transform="translate(58.7 11.547)" fill="#1a2e35"/>
        <path id="Trazado_221" data-name="Trazado 221" d="M300.052,55.277c.411.446,3.018-1.383,6.666-1.3,3.645.032,6.284,1.944,6.688,1.511.2-.192-.213-.991-1.361-1.854a9.361,9.361,0,0,0-5.343-1.751,9.005,9.005,0,0,0-5.317,1.58c-1.14.829-1.536,1.613-1.333,1.813" transform="translate(58.534 10.123)" fill="#1a2e35"/>
        <path id="Trazado_222" data-name="Trazado 222" d="M328.19,63.665a3.369,3.369,0,0,0,3.2,3.45,3.232,3.232,0,0,0,3.558-2.953,3.372,3.372,0,0,0-3.2-3.454,3.236,3.236,0,0,0-3.56,2.957" transform="translate(64.033 11.843)" fill="#1a2e35"/>
        <path id="Trazado_223" data-name="Trazado 223" d="M329.262,55.451c.412.448,3.022-1.38,6.668-1.3,3.644.033,6.284,1.946,6.689,1.509.2-.19-.209-.988-1.362-1.854a9.381,9.381,0,0,0-5.342-1.748,8.99,8.99,0,0,0-5.318,1.58c-1.137.827-1.536,1.611-1.334,1.811" transform="translate(64.233 10.157)" fill="#1a2e35"/>
        <path id="Trazado_224" data-name="Trazado 224" d="M320.244,81.985c.022-.206-2.238-.639-5.9-1.18-.93-.114-1.807-.314-1.952-.948a4.663,4.663,0,0,1,.679-2.72q1.384-3.316,2.9-6.963c4.035-9.916,6.975-18.077,6.57-18.234s-4,7.751-8.036,17.669q-1.459,3.668-2.787,7.007c-.373,1.041-1.005,2.217-.558,3.608a2.327,2.327,0,0,0,1.5,1.379,6.351,6.351,0,0,0,1.578.25c3.694.272,5.986.336,6.005.131" transform="translate(60.68 10.134)" fill="#1a2e35"/>
        <path id="Trazado_225" data-name="Trazado 225" d="M329.4,46.817c.415.945,3.573.169,7.391.308,3.818.054,6.978.992,7.391.067.18-.442-.44-1.309-1.763-2.134a11.48,11.48,0,0,0-5.633-1.593,11.06,11.06,0,0,0-5.629,1.307c-1.321.759-1.94,1.594-1.757,2.045" transform="translate(64.264 8.48)" fill="#1a2e35"/>
        <path id="Trazado_226" data-name="Trazado 226" d="M300.918,46.963c.553.881,3.142.289,6.152.556,3.02.163,5.5,1.115,6.17.321.3-.388-.016-1.247-1.047-2.132a9.023,9.023,0,0,0-9.93-.706c-1.15.73-1.586,1.535-1.346,1.961" transform="translate(58.7 8.553)" fill="#1a2e35"/>
        <path id="Trazado_227" data-name="Trazado 227" d="M298.317,40.2s6.567-14.583,13.807-17.869c8.765-3.98,12.3,5.523,20.623,3.4s16.686-5.94,25.007.561c9.107,7.113,4.672,11.883,5.025,22.316,1.438,42.308,8.987,54.417,11.62,34.558.288-2.176,6.44-3.786,7.539-12.98,1.425-11.924,2.189-26.422-.327-34.956-2.122-7.192-6.138-12.214-13.408-17.808C356.726,8.6,340.72,8.084,329.824,8.945S297.71,21.758,298.317,40.2" transform="translate(58.202 1.687)" fill="#1a2e35"/>
        <path id="Trazado_228" data-name="Trazado 228" d="M360.9,71.429a6.423,6.423,0,0,1,7.085-6c4.42.507,9.294,3.1,8.813,12.144C375.94,93.618,359.833,89.461,359.829,89c0-.313.649-10.856,1.066-17.569" transform="translate(70.207 12.757)" fill="#ffc09d"/>
        <path id="Trazado_229" data-name="Trazado 229" d="M363.053,82.292c.074-.048.273.21.739.452a2.848,2.848,0,0,0,2.109.153c1.747-.533,3.332-3.15,3.565-6.039a9.168,9.168,0,0,0-.578-4.043,3.248,3.248,0,0,0-2.011-2.258,1.445,1.445,0,0,0-1.708.68c-.241.437-.155.762-.243.786-.048.038-.333-.288-.168-.944a1.8,1.8,0,0,1,.692-.972,2.157,2.157,0,0,1,1.585-.327,3.963,3.963,0,0,1,2.819,2.642,9.425,9.425,0,0,1,.741,4.523c-.276,3.229-2.109,6.168-4.49,6.717a3.055,3.055,0,0,1-2.561-.558c-.482-.423-.547-.786-.49-.813" transform="translate(70.832 13.609)" fill="#ff9b6c"/>
        <path id="Trazado_230" data-name="Trazado 230" d="M371.364,52.272c-2.138,1.38-4.394,2.8-6.94,3s-5.419-1.306-5.8-3.805c-.17-1.121.134-2.413-.592-3.291-.864-1.049-2.506-.76-3.869-.645a10.351,10.351,0,0,1-10.6-7.569c-1.241,1.759-4.048,1.624-5.845.425s-2.929-3.124-4.322-4.768-3.362-3.13-5.513-2.872c-1.2.145-2.341.828-3.546.7-2.128-.231-3.117-2.722-3.4-4.822s-.479-4.547-2.261-5.722c-1.65-1.089-3.832-.523-5.8-.277s-4.492-.261-4.955-2.169a3.789,3.789,0,0,1,.788-2.9A10.578,10.578,0,0,1,321.21,13.87a14.306,14.306,0,0,1,26.233-2.2,14.824,14.824,0,0,1,13-3.089,14.662,14.662,0,0,1,10,8.777,10.8,10.8,0,0,1,10.872,3.9,10.537,10.537,0,0,1,.63,11.426c2.883,1.709,5.321,4.629,5.312,7.955s-3.351,6.571-6.574,5.629a5.925,5.925,0,0,1-2.446,7.5,6.058,6.058,0,0,1-7.711-1.977" transform="translate(60.068 0.791)" fill="#1a2e35"/>
        <path id="Trazado_231" data-name="Trazado 231" d="M373.692,39.369c.057-.042.271,1.355-1.076,3.067a5.228,5.228,0,0,1-3.293,1.852,5.658,5.658,0,0,1-4.6-1.425l.688-.088a16.071,16.071,0,0,1-3.322,3.939,9.356,9.356,0,0,1-3,1.759,7.258,7.258,0,0,1-7.9-2.519,9.222,9.222,0,0,1-1.244-3.369,3.117,3.117,0,0,1-.1-1.3c.071-.013.2.43.452,1.214a10.752,10.752,0,0,0,1.435,3.086c1.49,2.334,6.478,3.613,9.749.424a16.159,16.159,0,0,0,3.167-3.691l.3-.467.393.38a4.968,4.968,0,0,0,3.888,1.313,4.8,4.8,0,0,0,2.97-1.472,7.779,7.779,0,0,0,1.492-2.7" transform="translate(68.254 7.681)" fill="#375a64"/>
        <path id="Trazado_232" data-name="Trazado 232" d="M351.886,9.2c.007.056-.427.1-1.158.393a5.57,5.57,0,0,0-2.565,2.069l-.2.3-.219-.3a20.133,20.133,0,0,0-7.716-6.448A15.913,15.913,0,0,0,333.666,3.7a13.488,13.488,0,0,0-11.085,5.558,10.8,10.8,0,0,0-1.886,4.806l-.062.507-.489-.143a9.19,9.19,0,0,0-6.761.675,8.831,8.831,0,0,0-3.773,3.838,11.889,11.889,0,0,0-1.11,4.736,3.236,3.236,0,0,1-.17-1.317,8.863,8.863,0,0,1,.809-3.642,9.156,9.156,0,0,1,3.9-4.244,9.839,9.839,0,0,1,7.351-.864l-.551.363a11.52,11.52,0,0,1,1.99-5.231A14.208,14.208,0,0,1,333.688,2.8a16.426,16.426,0,0,1,6.7,1.683,19.668,19.668,0,0,1,7.78,6.9h-.418a5.524,5.524,0,0,1,2.895-2.038,2.482,2.482,0,0,1,1.246-.142" transform="translate(60.159 0.545)" fill="#375a64"/>
        <path id="Trazado_233" data-name="Trazado 233" d="M328.827,81.81s4.682,9.676-5.345,12a4.89,4.89,0,0,1-5.778-3.493l-1.383-5.267c.471.127,12.506-3.239,12.506-3.239" transform="translate(61.718 15.962)" fill="#ff9b6c"/>
        <path id="Trazado_234" data-name="Trazado 234" d="M320.03,93.844c.014-.054.47.066,1.3.121a8.687,8.687,0,0,0,3.437-.514,7.519,7.519,0,0,0,4.776-9.164,7.285,7.285,0,0,0-1.025-2.266l.336.122c-3.875.982-7.3,1.823-9.752,2.4l-2.9.649a3.947,3.947,0,0,1-1.068.16,4.038,4.038,0,0,1,1.017-.375L319,84.145c2.426-.679,5.823-1.591,9.683-2.595l.214-.055.122.177a7.744,7.744,0,0,1,1.121,2.457,8.272,8.272,0,0,1-.957,6.483,8.2,8.2,0,0,1-7.881,3.593,3.415,3.415,0,0,1-1.275-.361" transform="translate(61.486 15.901)" fill="#1a2e35"/>
        <path id="Trazado_235" data-name="Trazado 235" d="M268.947,142.437s-16.984,9.1-20.442,32.913c-2.97,20.459-20.854,130.148-20.854,130.148L211.7,373.015h41.332L275.51,253.189Z" transform="translate(41.305 27.791)" fill="#4d73aa"/>
        <path id="Trazado_236" data-name="Trazado 236" d="M269.745,378.323,292.979,167.93l20.267-46.385,6.781-4.7,4.9,20.65,6.556,23.354,17.928-22.527,28.309-21.943.653,10.829,13.594,39.741L380.7,270.664V378.1Z" transform="translate(52.63 22.707)" fill="#fff"/>
        <path id="Trazado_237" data-name="Trazado 237" d="M312.229,370.678a2.9,2.9,0,0,0,.056-.558c.02-.411.047-.954.081-1.64.055-1.492.133-3.607.232-6.307.189-5.526.458-13.438.79-23.194.687-19.584,1.775-46.632,3.332-76.49s3.306-56.884,4.666-76.433c.687-9.737,1.244-17.633,1.633-23.149.183-2.695.326-4.807.427-6.3.038-.685.068-1.227.091-1.639a2.81,2.81,0,0,0,0-.561,2.739,2.739,0,0,0-.087.553c-.043.41-.1.95-.172,1.633-.137,1.487-.331,3.594-.581,6.284-.491,5.459-1.143,13.363-1.894,23.134-1.509,19.541-3.342,46.559-4.907,76.432s-2.554,56.922-3.092,76.513c-.27,9.8-.447,17.723-.527,23.2-.033,2.7-.06,4.818-.078,6.31v1.641a2.8,2.8,0,0,0,.029.561" transform="translate(60.914 30.128)" fill="#1a2e35"/>
        <path id="Trazado_238" data-name="Trazado 238" d="M399.6,263.848l32.549-100.757-57.591-30.955-12.031-13.024s-2.559,54.052-2.96,68.369-6.707,68.585-9.52,101.592c-1.5,17.634-.537,47.089.344,63.691,1.012,19.044.8,25.339.8,25.339l56.345-.312L388.9,303.6Z" transform="translate(68.144 23.24)" fill="#4d73aa"/>
        <path id="Trazado_239" data-name="Trazado 239" d="M302.333,131.989l-39.263,15.1-6.09,145.995-15.162,84.807,43.3.809c.4-10.339,11.419-96.475,11.419-96.475l14.467-134.807,11.294-28.8Z" transform="translate(47.181 23.143)" fill="#4d73aa"/>
        <path id="Trazado_240" data-name="Trazado 240" d="M294.894,129.134a6.508,6.508,0,0,0-.721.8q-.735.889-1.985,2.408c-1.756,2.174-4.246,5.262-7.373,9.137l-.158.195.2.154,6.247,4.693.087-.51-7.332,2.3-.231.072,0,.243c.14,12.932.314,29.214.506,46.864.317,21.544.6,41.043.814,55.234.142,7.017.259,12.717.342,16.736.056,1.925.1,3.446.134,4.55.023.48.041.869.056,1.183a1.482,1.482,0,0,0,.047.4,1.442,1.442,0,0,0,.037-.4c.007-.314.016-.7.026-1.183,0-1.105.012-2.627.02-4.552-.019-4.02-.045-9.722-.079-16.74-.147-14.193-.349-33.693-.572-55.237-.253-17.649-.486-33.93-.672-46.863l-.228.314,7.31-2.359.545-.176-.458-.337-6.3-4.62.047.348,7.191-9.278,1.883-2.488a6.44,6.44,0,0,0,.613-.884" transform="translate(55.34 25.195)" fill="#1a2e35"/>
        <path id="Trazado_241" data-name="Trazado 241" d="M352.857,271.246a1.679,1.679,0,0,0,.154-.388c.1-.306.227-.687.382-1.159l1.462-4.457c1.284-3.865,3.187-9.444,5.63-16.306,1.241-3.431,2.6-7.181,4.051-11.205a133.9,133.9,0,0,0,4.12-13.07,292.682,292.682,0,0,0,5.758-30.81c1.989-14.335,3.275-27.851,4.059-39.479l.011-.165-.12-.114-6.317-6.028-.031.494,5.99-4.51.234-.176-.173-.232c-4.537-6.088-8.222-11.032-10.816-14.511-1.262-1.662-2.256-2.973-2.976-3.92l-.79-1.007a1.687,1.687,0,0,0-.294-.326,1.771,1.771,0,0,0,.224.376l.723,1.055,2.848,4.013,10.6,14.665.062-.406-6.029,4.458-.307.228.276.267,6.277,6.071-.108-.277c-.851,11.6-2.175,25.1-4.16,39.412a304.3,304.3,0,0,1-5.678,30.738q-1.805,6.984-4.026,13.026l-3.958,11.245c-2.375,6.891-4.2,12.5-5.386,16.4-.6,1.949-1.033,3.471-1.315,4.506-.123.482-.223.87-.3,1.183a1.464,1.464,0,0,0-.073.411" transform="translate(68.845 24.17)" fill="#1a2e35"/>
        <g id="Grupo_55" data-name="Grupo 55" transform="translate(418.178 350.264)" opacity="0.3">
          <g id="Grupo_54" data-name="Grupo 54">
            <g id="Grupo_53" data-name="Grupo 53" clip-path="url(#clip-path-3)">
              <path id="Trazado_242" data-name="Trazado 242" d="M399.471,312.974l-31.188,12.1L366.2,318.2l-15.448,12.752-.849-19.021,13.578-18.852,33.7,10.805Z" transform="translate(-349.907 -293.08)"/>
            </g>
          </g>
        </g>
        <path id="Trazado_243" data-name="Trazado 243" d="M453.782,306.771a11.731,11.731,0,0,0,5.582-9.562,105.9,105.9,0,0,0-.95-16.293c-2.228-18.365-26.86-125-26.86-125l-36.3,83.1,10.49,36.181-53.457,25.329,14.883,41.565s71.03-25.721,86.609-35.32" transform="translate(68.736 30.42)" fill="#4d73aa"/>
        <path id="Trazado_244" data-name="Trazado 244" d="M410.466,176.478a4.517,4.517,0,0,0-.339.932l-.817,2.713c-.706,2.467-1.679,5.863-2.869,10.017-2.385,8.469-5.658,20.175-8.982,33.183s-5.955,24.891-7.61,33.531c-.831,4.32-1.456,7.826-1.832,10.256-.174,1.147-.314,2.075-.424,2.8a4.352,4.352,0,0,0-.092.986,4.571,4.571,0,0,0,.256-.958c.149-.718.341-1.637.576-2.773.514-2.51,1.223-5.968,2.088-10.2,1.8-8.6,4.521-20.441,7.84-33.445s6.5-24.726,8.746-33.232c1.084-4.182,1.972-7.6,2.615-10.084l.668-2.754a4.451,4.451,0,0,0,.179-.975" transform="translate(75.603 34.433)" fill="#1a2e35"/>
        <path id="Trazado_245" data-name="Trazado 245" d="M436.163,296.091a1.454,1.454,0,0,0-.348.1l-1,.353-3.851,1.428L416.6,303.43l-49.487,19.078.516.234c-3.11-8.7-6.478-18.126-9.967-27.889l-4.9-13.68-.208.5,52.837-25.243-.037.014a31.62,31.62,0,0,1,12.478-1.413,31.289,31.289,0,0,1,9.235,2.322,39.249,39.249,0,0,1,5.361,2.789l1.321.859a2.622,2.622,0,0,0,.466.273,2.682,2.682,0,0,0-.417-.339l-1.278-.93a35.459,35.459,0,0,0-5.324-2.945,31.04,31.04,0,0,0-9.318-2.485,31.841,31.841,0,0,0-12.7,1.317l-.019.006-.02.01L352.2,280.943l-.331.157.123.343c1.589,4.446,3.228,9.026,4.894,13.683,3.5,9.759,6.88,19.18,10,27.877l.136.382.38-.148,49.381-19.349,14.28-5.673,3.8-1.546.975-.415a1.433,1.433,0,0,0,.323-.163" transform="translate(68.653 49.638)" fill="#1a2e35"/>
        <path id="Trazado_246" data-name="Trazado 246" d="M321.961,157.356a11.077,11.077,0,0,0,1.5-1.348l3.986-3.921,13.459-13.606-.584-.019a16.347,16.347,0,0,1,3.472,7.308,16.139,16.139,0,0,1,.332,4.274l-.054.92.716-.575c6.809-5.46,12.323-10.817,16.45-14.474,2.047-1.845,3.706-3.312,4.859-4.308a15.557,15.557,0,0,0,1.748-1.594,12.988,12.988,0,0,0-1.938,1.367c-1.215.929-2.934,2.335-5.033,4.13-4.227,3.552-9.825,8.849-16.593,14.243l.661.345a16.681,16.681,0,0,0-.341-4.494,16.939,16.939,0,0,0-3.677-7.665l-.287-.33-.3.31L327.09,151.729l-3.818,4.086a11.146,11.146,0,0,0-1.31,1.542" transform="translate(62.818 25.366)" fill="#1a2e35"/>
        <path id="Trazado_247" data-name="Trazado 247" d="M306.9,127.992a4.552,4.552,0,0,0-.066,1.254c.007.814.049,2,.165,3.493A72.583,72.583,0,0,0,309,144.749l.25.986.471-.907a29.339,29.339,0,0,1,5.215-7.123c.6-.6,1.212-1.165,1.811-1.677l-.667-.22a110.38,110.38,0,0,0,4.868,15.907c.771,1.959,1.448,3.511,1.946,4.569a7.854,7.854,0,0,0,.85,1.6,8.486,8.486,0,0,0-.57-1.717l-1.7-4.643a136.753,136.753,0,0,1-4.588-15.894l-.147-.662-.521.441c-.618.523-1.252,1.105-1.866,1.722a29.048,29.048,0,0,0-5.318,7.349l.721.078a88.11,88.11,0,0,1-2.271-11.866c-.361-2.956-.474-4.705-.574-4.7" transform="translate(59.867 24.973)" fill="#1a2e35"/>
        <g id="Grupo_58" data-name="Grupo 58" transform="translate(334.831 173.815)" opacity="0.3">
          <g id="Grupo_57" data-name="Grupo 57">
            <g id="Grupo_56" data-name="Grupo 56" clip-path="url(#clip-path-4)">
              <path id="Trazado_248" data-name="Trazado 248" d="M284.642,145.438l-4.474,6.1s1.249,92.567,6,115.552Z" transform="translate(-280.167 -145.438)"/>
            </g>
          </g>
        </g>
        <path id="Trazado_249" data-name="Trazado 249" d="M241.817,367.435a2.655,2.655,0,0,1,.055-.442c.055-.319.128-.746.221-1.292.213-1.164.516-2.83.9-4.966.82-4.348,2-10.6,3.46-18.364l11.821-61.583-.006.062c-.037-3.265-.075-6.726-.115-10.231-.264-27.172-.5-51.767-.676-69.607-.056-8.882-.1-16.08-.133-21.093,0-2.466,0-4.392,0-5.735.006-.632.011-1.126.014-1.492a3.122,3.122,0,0,1,.026-.508,3.168,3.168,0,0,1,.037.509c.012.365.027.859.048,1.492.027,1.343.069,3.269.121,5.734.079,5.012.192,12.21.332,21.093.22,17.837.523,42.43.858,69.6.038,3.5.075,6.965.111,10.229v.032l-.006.031c-4.752,24.336-8.975,45.965-12.018,61.545-1.542,7.748-2.782,13.99-3.645,18.328-.436,2.127-.777,3.786-1.015,4.945-.117.541-.209.964-.277,1.28a2.608,2.608,0,0,1-.114.431" transform="translate(47.181 33.595)" fill="#1a2e35"/>
        <path id="Trazado_250" data-name="Trazado 250" d="M248.335,260.269c-.019.185-3.11-.081-6.9.19-3.8.25-6.819.936-6.865.755-.048-.149,2.958-1.121,6.822-1.377,3.861-.274,6.972.276,6.945.431" transform="translate(45.767 50.682)" fill="#1a2e35"/>
        <path id="Trazado_251" data-name="Trazado 251" d="M365.055,279.239s-30.14,6.29-34.619,7.27-22.172,14.262-23.925,15.244-6.865,4.226-6.865,4.226,3.294,5.4,9.138,3.44a31.413,31.413,0,0,0,9.7-5.309l-12.465,11.37-14.188,8.668a4.187,4.187,0,0,0-1.775,5.134,2.461,2.461,0,0,0,2.972,1.573c4.034-.717,17.116-5.82,17.116-5.82s.614,7.9,7.821,8.877c0,0,1.55,6.783,7.82,5.337,0,0,6.167,5.048,11.627,2.164s19.636-8.681,22.558-14.562a87.244,87.244,0,0,1,6.622-10.979l10.917-1.894Z" transform="translate(56.533 54.483)" fill="#ffc09d"/>
        <path id="Trazado_252" data-name="Trazado 252" d="M306.811,319.04c.1.212,3.871-1.306,8.27-3.741,4.42-2.424,7.538-5.131,7.37-5.328s-3.455,2.121-7.82,4.514c-4.353,2.408-7.943,4.3-7.821,4.555" transform="translate(59.862 60.477)" fill="#ff9b6c"/>
        <path id="Trazado_253" data-name="Trazado 253" d="M328.636,316.587c-.137-.241-3.87,1.854-8.153,4.864s-7.791,5.353-7.673,5.568c.13.235,3.9-1.787,8.2-4.8s7.746-5.426,7.63-5.633" transform="translate(61.032 61.766)" fill="#ff9b6c"/>
        <path id="Trazado_254" data-name="Trazado 254" d="M332.887,321.654c-.172-.169-2.9,2.128-6.572,4.608-3.653,2.5-6.572,4.648-6.415,4.875.134.2,3.258-1.586,6.941-4.109,3.708-2.506,6.246-5.186,6.046-5.374" transform="translate(62.415 62.757)" fill="#ff9b6c"/>
        <path id="Trazado_255" data-name="Trazado 255" d="M330.526,289.587a7.935,7.935,0,0,0-3.16.686,24.143,24.143,0,0,0-6.815,3.833,32.035,32.035,0,0,0-5.474,5.58,9.35,9.35,0,0,0-1.721,2.745c.247.2,3.086-3.871,7.765-7.591,4.665-3.793,9.493-4.984,9.4-5.253" transform="translate(61.137 56.495)" fill="#ff9b6c"/>
        <path id="Trazado_256" data-name="Trazado 256" d="M166.671,236.885l16.536-4.766,20.515-7.75L220,215.541s1.422-1.407-.574-3.162-10.852,3.147-10.852,3.147l-7.011,2.614s-5.911.488-5.581-.068,9.5-4.987,9.5-4.987l15.648-8.515s4.415-2.285,3.045-5.209c-.653-1.392-2.279-2.218-5.282-1.065s-7.735,4.122-9.428,4.816-11.36,5.036-11.36,5.036l20.022-13.72s6.526-3.89,4.435-6.642-6.066.282-8.351,1.165-14.854,8.911-19.75,11.141c-4.2,1.911-3.189.323-3.189.323l11.889-7.344c5.242-3.238,9.221-6.452,5.807-8.582-2.226-1.389-12.279,3.975-12.279,3.975l-14.844,8.293-7.074,3.129,5.9-5.28a20.05,20.05,0,0,0,6.448-8.03C189.183,181.467,185,181.3,185,181.3L160.78,197.861c-3.768,3.293-8.209,19.14-8.209,19.14l-46.716,18.683,19.387,28.366Z" transform="translate(20.653 35.373)" fill="#ffc09d"/>
        <path id="Trazado_257" data-name="Trazado 257" d="M163.576,196.361a3.456,3.456,0,0,1,.727.845,15.531,15.531,0,0,1,1.515,2.633,17.791,17.791,0,0,1-2.6,18.947,15.688,15.688,0,0,1-2.163,2.132,3.47,3.47,0,0,1-.925.621c-.077-.088,1.2-1.04,2.745-3.03a18.407,18.407,0,0,0,2.536-18.5c-.956-2.33-1.935-3.587-1.838-3.652" transform="translate(31.243 38.312)" fill="#ff9b6c"/>
        <path id="Trazado_258" data-name="Trazado 258" d="M185.551,164.746c.367-1.7,2.1-2.7,3.539-3.73a17.237,17.237,0,0,0,6.921-16.427,17.623,17.623,0,0,0-11.8-13.56,13.538,13.538,0,0,1-4.339-1.764c-3.057-2.4-2.074-7.1-3.236-10.755-2.46-7.742-13.786-9.267-17.844-16.343-2.474-4.316-1.647-9.609-1.427-14.546s-.731-10.7-5.127-13.164c-2.365-1.327-5.316-1.413-7.625-2.831-4.764-2.926-4.562-9.581-6.322-14.794-2.773-8.212-12.222-13.71-20.943-12.188,0,0,3.471-7.441-5.72-11.246-11.1-4.593-11.8,3.18-16.914-1.662a17.07,17.07,0,0,0-20.839-1.45c-1.9,1.354-3.514,3.119-5.6,4.189-2.546,1.306-5.526,1.445-8.336,2.051C49.23,38.837,40.89,49,40.928,59.706l70.087,119.289c2.428,11.346-4.67,16.43,5.266,22.8,2.085,1.336,17.011,5.28,19.47,5.7,3.067.519,10.438.782,13.282-.447,6.176-2.667,15.487-6.713,17.957-12.844a17.623,17.623,0,0,0,19.8-4.446,16.565,16.565,0,0,0,.972-19.795c-1.122-1.6-2.618-3.316-2.21-5.213" transform="translate(7.985 5.348)" fill="#1a2e35"/>
        <path id="Trazado_259" data-name="Trazado 259" d="M42.17,73.065,41.2,64.894l49.5-14c15.387-3.034,33.691,10.611,36.171,25.736,2.755,16.8,5.438,37.424,4.625,50.225-1.635,25.741-21.249,30.805-21.249,30.805l4.534,43.777L114,212.7,65.017,169.872Z" transform="translate(8.038 9.848)" fill="#ffc09d"/>
        <path id="Trazado_260" data-name="Trazado 260" d="M109.749,90.417a3.28,3.28,0,0,1-2.893,3.577,3.2,3.2,0,0,1-3.725-2.615,3.279,3.279,0,0,1,2.889-3.579,3.2,3.2,0,0,1,3.73,2.617" transform="translate(20.117 17.123)" fill="#1a2e35"/>
        <path id="Trazado_261" data-name="Trazado 261" d="M111.32,82.267c-.372.461-3.079-1.129-6.665-.79-3.589.29-6.046,2.333-6.478,1.94-.21-.171.136-.975,1.2-1.9a9.306,9.306,0,0,1,5.134-2.077,9.015,9.015,0,0,1,5.356,1.158c1.186.724,1.635,1.457,1.45,1.666" transform="translate(19.144 15.493)" fill="#1a2e35"/>
        <path id="Trazado_262" data-name="Trazado 262" d="M82.293,93.04A3.279,3.279,0,0,1,79.4,96.617,3.2,3.2,0,0,1,75.674,94a3.28,3.28,0,0,1,2.889-3.579,3.2,3.2,0,0,1,3.73,2.617" transform="translate(14.76 17.635)" fill="#1a2e35"/>
        <path id="Trazado_263" data-name="Trazado 263" d="M81.856,85.532c-.373.461-3.081-1.128-6.666-.789-3.589.289-6.046,2.332-6.478,1.94-.209-.172.133-.976,1.2-1.9a9.284,9.284,0,0,1,5.133-2.077,9.013,9.013,0,0,1,5.358,1.157c1.182.724,1.634,1.458,1.45,1.666" transform="translate(13.395 16.13)" fill="#1a2e35"/>
        <path id="Trazado_264" data-name="Trazado 264" d="M93.477,110.517c-.037-.2,2.158-.778,5.728-1.562.907-.177,1.758-.435,1.852-1.059a4.5,4.5,0,0,0-.874-2.593q-1.61-3.125-3.379-6.555c-4.717-9.343-8.225-17.059-7.838-17.241s4.525,7.244,9.241,16.588q1.712,3.458,3.27,6.607c.447.984,1.157,2.081.821,3.463a2.275,2.275,0,0,1-1.379,1.446,6.4,6.4,0,0,1-1.536.354c-3.619.526-5.874.749-5.907.552" transform="translate(17.353 15.902)" fill="#1a2e35"/>
        <path id="Trazado_265" data-name="Trazado 265" d="M104.943,141.169a70.815,70.815,0,0,1-36.611-5.821s10.681,17.818,37.368,13.017Z" transform="translate(13.332 26.408)" fill="#ff9b6c"/>
        <path id="Trazado_266" data-name="Trazado 266" d="M82,73.852c-.261.984-3.888.863-8.05,1.745-4.179.8-7.456,2.316-8.1,1.514-.289-.385.214-1.334,1.5-2.383A13.865,13.865,0,0,1,73.2,72.1a14.073,14.073,0,0,1,6.448.143c1.605.465,2.457,1.141,2.35,1.607" transform="translate(12.832 14.009)" fill="#1a2e35"/>
        <path id="Trazado_267" data-name="Trazado 267" d="M109.234,73.93c-.553.852-3.107.256-6.083.49-2.985.134-5.438,1.04-6.1.262-.293-.38.025-1.213,1.052-2.066a9.022,9.022,0,0,1,9.815-.607c1.131.721,1.556,1.508,1.316,1.922" transform="translate(18.915 13.822)" fill="#1a2e35"/>
        <path id="Trazado_268" data-name="Trazado 268" d="M135.878,58.808a44.879,44.879,0,0,0-24.556-13.533l-41.9,6.632L58.24,58.787c-.924-2.422-1.517-3.931-1.517-3.931-4.114-2.645-15.307-7.977-24.377,1.658-3.272,3.475-5.679,12.465-5.511,17.083.063,1.747.357,3.866-1.171,4.89a5.7,5.7,0,0,1-1.838.653C13.218,81.75,6.193,93.067,9.092,102.879a4.9,4.9,0,0,1,.337,1.973,5.314,5.314,0,0,1-1.74,2.659,16.155,16.155,0,0,0-1.927,19.265c1.147,1.844,2.7,3.548,3.177,5.627.852,3.722-1.93,7.185-4.056,10.427-6.374,9.723-7.114,23.5,1.423,31.761,2.075,2.009,4.705,3.769,5.585,6.421a14.847,14.847,0,0,1,.448,4.03c.317,6.86,4.641,14.372,11.973,15.521,4.069.637,8.9-.613,11.914,2,1.312,1.14,1.929,2.783,2.8,4.238,3.338,5.549,11.269,8.318,17.712,6.186s10.625-8.912,9.339-15.14c7.783-2.987,12.949-10.934,12.16-18.7,0,0-4.6-23.961-2.605-30.584s-3.459-20.323-6.5-26.958-.692-22.474-.31-28.746a21.07,21.07,0,0,0-.846-5.319l0,0-.007-.018c-.375-1.506-.852-3.2-1.4-5.013a44.588,44.588,0,0,1-.421-5.025c-.215-5.906,5.979-10.4,12.135-8.766a16.906,16.906,0,0,0,4.582.569,16.514,16.514,0,0,0,12.716-6.238,24.793,24.793,0,0,0,23.29,4.864c3.483,4.067,7.02,8.185,11.529,11.272s10.182,5.074,15.707,4.273a38.927,38.927,0,0,0-10.231-24.653" transform="translate(0 8.834)" fill="#1a2e35"/>
        <path id="Trazado_269" data-name="Trazado 269" d="M120.984,67.231c-.076,0,0-.927-.221-2.583a16.194,16.194,0,0,0-2.486-6.608,15.442,15.442,0,0,0-8.4-6.393A16.647,16.647,0,0,0,96.8,53.032l-.3.172-.234-.252a24.067,24.067,0,0,0-5.985-4.643,24.986,24.986,0,0,0-15.842-2.762,24.157,24.157,0,0,0-11.894,5.668,25.048,25.048,0,0,0-5.555,6.956c-.978,1.872-1.333,2.995-1.416,2.966a3.169,3.169,0,0,1,.213-.827,17.964,17.964,0,0,1,.9-2.283,23.79,23.79,0,0,1,5.445-7.25A24.374,24.374,0,0,1,74.3,44.787a25.538,25.538,0,0,1,16.4,2.792A24.638,24.638,0,0,1,96.9,52.4l-.531-.08A17.31,17.31,0,0,1,110.1,50.96a15.835,15.835,0,0,1,8.644,6.8,15.6,15.6,0,0,1,2.314,6.858,11.058,11.058,0,0,1,.02,1.947,2.238,2.238,0,0,1-.1.668" transform="translate(10.842 8.668)" fill="#375a64"/>
        <path id="Trazado_270" data-name="Trazado 270" d="M9.719,102.766c-.023-.2,3.987.012,10.058-1.717A39.991,39.991,0,0,0,39.8,87.866l.892-1.137.124-.158.194-.016a22.7,22.7,0,0,0,11.83-4.546,23.91,23.91,0,0,0,6.744-7.767c2.81-5.226,2.5-9.076,2.745-9.014a1.986,1.986,0,0,1,.033.662,13.391,13.391,0,0,1-.123,1.9,20.215,20.215,0,0,1-2.126,6.715,23.823,23.823,0,0,1-6.794,8.1A23.133,23.133,0,0,1,41.075,87.39l.318-.173c-.288.368-.6.765-.911,1.164a38.028,38.028,0,0,1-10.249,8.9,39.289,39.289,0,0,1-10.29,4.338,36.557,36.557,0,0,1-7.456,1.184c-.889.063-1.585.02-2.053.022a2.3,2.3,0,0,1-.715-.059" transform="translate(1.896 12.727)" fill="#375a64"/>
        <path id="Trazado_271" data-name="Trazado 271" d="M14.7,174.54a12.85,12.85,0,0,0,1.543,1.1,8.778,8.778,0,0,0,2.126.834,9.5,9.5,0,0,0,3.094.19,8.5,8.5,0,0,0,3.637-1.218,7.473,7.473,0,0,0,1.67-1.4,7.388,7.388,0,0,0,1.218-2,8.637,8.637,0,0,0,.388-5.085,8.025,8.025,0,0,0-3.065-4.747l-.459-.326.565,0a17.455,17.455,0,0,0,8.735-2.515,23.29,23.29,0,0,0,7.224-7.075c.52-.719.926-1.519,1.384-2.3.384-.815.826-1.613,1.139-2.476a25.029,25.029,0,0,0,1.538-5.359,40.5,40.5,0,0,0,.244-11.619,113.868,113.868,0,0,0-3.65-17.015l-.041-.151.13-.091A42.732,42.732,0,0,0,55.662,97.957a45.249,45.249,0,0,0,3.345-8.114c.335-1.324.759-2.577.955-3.823q.179-.929.353-1.817c.115-.592.153-1.18.231-1.747a42.335,42.335,0,0,0-.032-10.74c-.131-1.251-.388-2.194-.483-2.847q-.081-.459-.129-.736a1.36,1.36,0,0,1-.031-.253s.376,1.324.8,3.816a41.039,41.039,0,0,1,.164,10.793c-.074.572-.108,1.165-.218,1.762s-.226,1.207-.342,1.831c-.189,1.257-.607,2.52-.936,3.857a45.088,45.088,0,0,1-3.33,8.2,42.919,42.919,0,0,1-13.634,15.521l.091-.241A112.986,112.986,0,0,1,46.139,130.5a40.8,40.8,0,0,1-.255,11.747,25.484,25.484,0,0,1-1.572,5.445c-.32.876-.771,1.689-1.163,2.516-.466.789-.882,1.6-1.411,2.332a23.672,23.672,0,0,1-7.379,7.18,17.8,17.8,0,0,1-8.947,2.532l.106-.329a8.362,8.362,0,0,1,3.178,4.973,8.911,8.911,0,0,1-.442,5.266,7.266,7.266,0,0,1-3.026,3.5,8.656,8.656,0,0,1-3.749,1.209,9.5,9.5,0,0,1-3.153-.241,8.518,8.518,0,0,1-2.142-.894,6.388,6.388,0,0,1-1.144-.852c-.235-.22-.345-.342-.345-.342" transform="translate(2.868 13.244)" fill="#375a64"/>
        <path id="Trazado_272" data-name="Trazado 272" d="M139.306,189.582a1.652,1.652,0,0,1,.252-.176c.188-.12.439-.28.76-.483a13.277,13.277,0,0,0,1.214-.821,19.459,19.459,0,0,0,1.59-1.223,28.55,28.55,0,0,0,10.148-18.7,25.768,25.768,0,0,0-.955-10.234,28.366,28.366,0,0,0-5.487-10.112,27.68,27.68,0,0,0-9.99-7.56l-.3-.135.232-.231a25.5,25.5,0,0,0,6.963-13.039,24.288,24.288,0,0,0,.509-4.88,22.828,22.828,0,0,0-.441-4.8,22.4,22.4,0,0,0-1.361-4.522,24.337,24.337,0,0,0-2.151-4.094,25.978,25.978,0,0,0-13.34-10.463l-.218-.073.1-.2a22.973,22.973,0,0,0,1.5-15.72,22.459,22.459,0,0,0-6.345-10.592,23.676,23.676,0,0,0-6.728-4.475c-.862-.376-1.538-.632-2-.782l-.522-.18a.849.849,0,0,1-.173-.072,17,17,0,0,1,2.749.919,23.163,23.163,0,0,1,6.842,4.417,22.564,22.564,0,0,1,6.5,10.681,23.242,23.242,0,0,1-1.46,15.979l-.118-.278a26.338,26.338,0,0,1,13.587,10.6,24.746,24.746,0,0,1,2.2,4.164,22.946,22.946,0,0,1,1.392,4.607,23.349,23.349,0,0,1,.452,4.887,24.809,24.809,0,0,1-.517,4.968,25.915,25.915,0,0,1-7.1,13.268l-.068-.367a28.051,28.051,0,0,1,10.141,7.7,28.665,28.665,0,0,1,5.535,10.276,26.038,26.038,0,0,1,.924,10.382A28.509,28.509,0,0,1,143.224,187a18.637,18.637,0,0,1-1.621,1.2,12.147,12.147,0,0,1-1.242.792l-.783.449a1.774,1.774,0,0,1-.272.14" transform="translate(21.962 12.88)" fill="#375a64"/>
        <path id="Trazado_273" data-name="Trazado 273" d="M84.785,110.862a42.235,42.235,0,0,1,9.751,2.648l.031.084c-.293,2.256-.865,4.743-2.773,6.014a4.885,4.885,0,0,1-4.88.164,5.382,5.382,0,0,1-2.847-3.757,11.117,11.117,0,0,1,.717-5.152" transform="translate(16.383 21.63)" fill="#ff9b6c"/>
        <path id="Trazado_274" data-name="Trazado 274" d="M89.89,120.14c.023.059-.265.267-.89.37a4.168,4.168,0,0,1-2.591-.516,5.326,5.326,0,0,1-2.519-3.006,8.193,8.193,0,0,1-.042-4.729A6.381,6.381,0,0,1,84.29,111a1.036,1.036,0,0,1,1.059-.479c.292.06.408.106.611.158l2.107.592,3.549,1.065c2.013.638,3.236,1.107,3.2,1.254s-1.337-.051-3.4-.5l-3.612-.835c-.7-.173-1.4-.35-2.124-.529l-.5-.124c-.032.084-.03-.213-.044-.179-.037-.008.182.174.117.146a8.735,8.735,0,0,0-.372,5.109,4.755,4.755,0,0,0,1.943,2.646,5.954,5.954,0,0,0,3.073.817" transform="translate(16.296 21.558)" fill="#1a2e35"/>
        <path id="Trazado_275" data-name="Trazado 275" d="M29.351,373.45H171.86L168.5,316.711l-5.045-68.036a69.87,69.87,0,0,0-12.951-35.6l-10.834-15.082-13.4-17.959-8.252-16.165L66.855,142.962l-6.319,13.043s-7.444,5.351-12.22,9.427c-9.273,7.918-14.7,18.346-17.788,30.075l-.09.344c-2.99,11.514-.66,28.145-.66,28.145l17.012,81.8a153.072,153.072,0,0,0-12.9,37.678c-.727,3.63-3.016,18.118-4.541,29.972" transform="translate(5.642 27.893)" fill="#0c8f5a"/>
        <path id="Trazado_276" data-name="Trazado 276" d="M113.141,169.207a9.662,9.662,0,0,1-1.171-2.025q-1.162-2.343-2.855-5.758l.718-.013c-1.543,3.8-3.462,8.519-5.607,13.8l-.207.507-.517-.21-8.091-3.279c-8.324-3.4-15.834-6.534-21.249-8.856l-6.388-2.8a11.055,11.055,0,0,1-2.283-1.172,11.1,11.1,0,0,1,2.454.762l6.528,2.469c5.494,2.131,13.053,5.149,21.377,8.546l8.075,3.32-.723.3c2.261-5.233,4.282-9.912,5.907-13.676l.363-.843.356.829q1.5,3.5,2.531,5.9a9.5,9.5,0,0,1,.782,2.2" transform="translate(12.778 31.098)" fill="#1a2e35"/>
        <path id="Trazado_277" data-name="Trazado 277" d="M111.715,310.283a10.581,10.581,0,0,1-2.458-.445c-1.567-.35-3.81-.948-6.56-1.765a162.793,162.793,0,0,1-40.611-18.626c-2.408-1.549-4.319-2.857-5.6-3.814a10.348,10.348,0,0,1-1.931-1.568,10.489,10.489,0,0,1,2.182,1.2q2.365,1.429,5.781,3.5a206.764,206.764,0,0,0,40.429,18.542l6.432,2.1a10.54,10.54,0,0,1,2.338.872" transform="translate(10.643 55.423)" fill="#1a2e35"/>
        <g id="Grupo_61" data-name="Grupo 61" transform="translate(41.099 252.979)" opacity="0.3">
          <g id="Grupo_60" data-name="Grupo 60">
            <g id="Grupo_59" data-name="Grupo 59" clip-path="url(#clip-path-5)">
              <path id="Trazado_278" data-name="Trazado 278" d="M34.389,211.678s26.261,72.068,34.9,85.122,12.914,16.758,26.1,14.5,71.059-21.279,71.059-21.279l-.846-11.8-53.58,11.327L81.1,283.19,52.87,239.722Z" transform="translate(-34.389 -211.678)"/>
            </g>
          </g>
        </g>
        <path id="Trazado_279" data-name="Trazado 279" d="M147.826,249.461,144.91,244.7l-14.151,3.364-21.4,4.78s-12.424-72.4-30.37-84.014-31.061-9.563-42.1,10.928-5.1,32.432-5.1,32.432,28.564,79.8,47.2,96.087,80.068-14.45,80.068-14.45L171.511,283.5Z" transform="translate(5.89 31.562)" fill="#087c4a"/>
        <path id="Trazado_280" data-name="Trazado 280" d="M147.917,249.548a4.061,4.061,0,0,1,.437.55c.3.41.7.962,1.219,1.676l4.68,6.578L171.87,283.4l.169.24-.227.19L159.392,294.2l-.035.029-.038.019a257.263,257.263,0,0,1-32.917,13.38,141.743,141.743,0,0,1-19.793,4.975,72.938,72.938,0,0,1-10.78,1.009A33.334,33.334,0,0,1,84.7,312.074a17.6,17.6,0,0,1-2.666-1.139l-1.29-.693c-.408-.27-.792-.578-1.19-.866a12.866,12.866,0,0,1-2.138-1.983l-2.023-2.111c-1.255-1.484-2.362-3.092-3.56-4.649-1.176-1.573-2.149-3.285-3.242-4.938a226.772,226.772,0,0,1-11.532-21.339c-7.21-14.856-13.8-30.723-20.182-47.14-1.925-4.976-3.8-9.923-5.538-14.745l.026.061c-1.83-4.482-1.857-9.177-1.39-13.7a50.443,50.443,0,0,1,3.544-12.986,65.275,65.275,0,0,1,6.229-11.633,34.037,34.037,0,0,1,8.935-9.406,19.835,19.835,0,0,1,12.227-3.46,32.346,32.346,0,0,1,11.915,3.407c1.8.942,3.589,1.873,5.264,2.953a20.019,20.019,0,0,1,4.687,3.744,46.876,46.876,0,0,1,6.374,9.621,140.928,140.928,0,0,1,8.094,20.085c2.145,6.579,3.939,12.948,5.49,19.032,3.1,12.172,5.362,23.173,7.039,32.689l-.393-.261,21.853-4.791c5.918-1.361,10.518-2.418,13.739-3.157l.09-.02.044.075,2.139,3.6c.466.8.672,1.217.672,1.217s-.275-.369-.778-1.15c-.52-.822-1.261-1.993-2.243-3.545l.134.056-13.692,3.363-21.813,4.979-.332.075-.062-.337c-1.74-9.476-4.062-20.459-7.214-32.588-1.576-6.064-3.392-12.41-5.554-18.956a140.833,140.833,0,0,0-8.1-19.918,45.95,45.95,0,0,0-6.247-9.388,18.892,18.892,0,0,0-4.478-3.554c-1.655-1.062-3.411-1.97-5.177-2.89a31.33,31.33,0,0,0-11.508-3.279A18.737,18.737,0,0,0,49.3,165.712a32.976,32.976,0,0,0-8.623,9.12,64.249,64.249,0,0,0-6.111,11.441,49.367,49.367,0,0,0-3.457,12.693c-.471,4.348-.369,9.025,1.286,13.064l.026.062c1.735,4.8,3.609,9.75,5.53,14.717,6.376,16.4,12.948,32.245,20.121,47.067a226.893,226.893,0,0,0,11.444,21.251c1.08,1.636,2.045,3.344,3.2,4.894,1.176,1.531,2.267,3.125,3.49,4.577l1.956,2.047a12.114,12.114,0,0,0,2.036,1.9c.372.27.728.559,1.108.814l1.213.653a16.554,16.554,0,0,0,2.524,1.085,32.344,32.344,0,0,0,10.778,1.513,72.3,72.3,0,0,0,10.626-.966,141.606,141.606,0,0,0,19.67-4.877,260.075,260.075,0,0,0,32.861-13.182l-.072.048,12.485-10.3-.059.429-17.37-25.226c-1.968-2.891-3.486-5.122-4.54-6.671l-1.145-1.722a4.143,4.143,0,0,1-.362-.6" transform="translate(5.799 31.475)" fill="#1a2e35"/>
        <path id="Trazado_281" data-name="Trazado 281" d="M88.014,274.444c-.136.006-.405-2.131-.326-5.607a59.577,59.577,0,0,1,6.9-26.077c1.652-3.069,2.945-4.8,3.059-4.729.155.092-.884,1.964-2.329,5.084A75.042,75.042,0,0,0,88.5,268.881c-.286,3.42-.3,5.558-.486,5.563" transform="translate(17.106 46.442)" fill="#1a2e35"/>
        <path id="Trazado_282" data-name="Trazado 282" d="M142.456,279.692a7.612,7.612,0,0,1-1.573-1.425c-.958-.964-2.3-2.4-3.908-4.228a125.837,125.837,0,0,1-11.48-15.131,79.053,79.053,0,0,1-8.345-17.043,45.7,45.7,0,0,1-1.543-5.539,7.519,7.519,0,0,1-.307-2.088c.2-.047.9,2.863,2.617,7.356a93.837,93.837,0,0,0,8.552,16.708A170.06,170.06,0,0,0,137.6,273.523c3.046,3.761,4.984,6.056,4.855,6.169" transform="translate(22.492 45.702)" fill="#1a2e35"/>
        <path id="Trazado_283" data-name="Trazado 283" d="M189.437,245.224l16.536-4.766,20.515-7.75,16.282-8.828s1.422-1.407-.574-3.162-10.852,3.148-10.852,3.148l-7.011,2.613s-5.911.488-5.581-.068,9.5-4.987,9.5-4.987l15.648-8.515s4.415-2.285,3.045-5.208c-.653-1.393-2.279-2.219-5.282-1.066s-7.735,4.122-9.428,4.816-11.36,5.036-11.36,5.036l20.022-13.72s6.526-3.89,4.435-6.642-6.066.282-8.351,1.165-14.854,8.911-19.75,11.141c-4.2,1.911-3.189.324-3.189.324l11.889-7.345c5.242-3.238,9.221-6.452,5.807-8.581-2.227-1.389-12.279,3.974-12.279,3.974l-14.843,8.293-7.075,3.129,5.9-5.28a20.05,20.05,0,0,0,6.448-8.03c2.068-5.107-2.118-5.276-2.118-5.276L183.546,206.2c-3.768,3.293-8.209,19.14-8.209,19.14l-46.716,18,19.871,28.736Z" transform="translate(25.095 37)" fill="#ffc09d"/>
        <path id="Trazado_284" data-name="Trazado 284" d="M189.5,245.275s-.229.171-.69.483l-2.056,1.378-8,5.3c-7.007,4.619-17.219,11.351-30.1,19.838l-.151.1-.1-.149-19.909-28.709-.169-.243.276-.108,46.7-18.037-.167.183c.913-3.175,1.968-6.437,3.2-9.735.631-1.643,1.294-3.3,2.075-4.929a16.481,16.481,0,0,1,3.007-4.617l.008-.008.018-.013,24.212-16.575.088-.061.093.008a3.536,3.536,0,0,1,2.066.843,2.912,2.912,0,0,1,.9,2.083,9.039,9.039,0,0,1-1.266,4.218,20.567,20.567,0,0,1-5.869,6.717l.03-.024L197.8,208.5l-.33-.51,7.074-3.129-.026.012,12.55-7.012a67.216,67.216,0,0,1,6.608-3.367c1.143-.5,2.3-.979,3.494-1.383a11.624,11.624,0,0,1,3.771-.77,2.187,2.187,0,0,1,.97.246,5,5,0,0,1,.743.576,2.114,2.114,0,0,1,.691,1.8,3.459,3.459,0,0,1-.755,1.7,9.2,9.2,0,0,1-1.2,1.305,38.5,38.5,0,0,1-5.621,3.992l-11.508,7.109.1-.1c-.439.268.638.114,1.258-.142a19.706,19.706,0,0,0,2.051-.875c1.343-.654,2.66-1.376,3.962-2.111,2.607-1.471,5.164-3,7.711-4.506l3.816-2.248A40.685,40.685,0,0,1,237.067,197c1.3-.553,2.566-1.34,3.973-1.835a6,6,0,0,1,2.236-.405,3,3,0,0,1,2.112.97,2.371,2.371,0,0,1,.63,2.248,4.888,4.888,0,0,1-1.113,1.972,15.934,15.934,0,0,1-3.3,2.81c-2.365,1.573-4.662,3.179-6.965,4.746l-13.541,9.269-.28-.5,8.839-3.914c1.459-.668,2.912-1.225,4.27-1.99q2.067-1.128,4.108-2.242a28.647,28.647,0,0,1,4.244-1.925,6.391,6.391,0,0,1,2.35-.319,3.015,3.015,0,0,1,2.878,3.345,3.9,3.9,0,0,1-1.048,2.109,8.714,8.714,0,0,1-1.742,1.472c-.645.417-1.3.729-1.94,1.088-5.145,2.78-10.1,5.517-14.936,8.077-2.454,1.2-4.864,2.383-7.178,3.621a14.5,14.5,0,0,0-1.606.958c-.026.006-.038.063-.017-.059a.148.148,0,0,0-.044-.108c0-.006-.01-.008-.01-.008a.885.885,0,0,0,.17.044,3.849,3.849,0,0,0,.457.048c.314.018.635.02.954.018,1.28-.016,2.558-.1,3.812-.191l-.061.014,7.013-2.605-.029.013a39.711,39.711,0,0,1,7.262-3.136,10.758,10.758,0,0,1,1.887-.381,2.683,2.683,0,0,1,1.934.4,3.274,3.274,0,0,1,1.08,1.6,2.043,2.043,0,0,1-.491,1.868l-.017.019-.029.014-16.3,8.8-.011,0-.01,0-20.534,7.7h-.008l-12.353,3.5-3.147.877c-.705.194-1.067.277-1.067.277s.345-.12,1.043-.331l3.126-.931L206,240.4l-.008,0,20.495-7.8-.02.008,16.267-8.857-.044.033a1.648,1.648,0,0,0,.379-1.488,2.888,2.888,0,0,0-.956-1.384,2.321,2.321,0,0,0-1.628-.3,10.369,10.369,0,0,0-1.811.372,39.263,39.263,0,0,0-7.163,3.118l-.016.008-.014,0-7.007,2.622-.03.011-.031,0c-1.267.1-2.543.182-3.846.2-.326,0-.653,0-.986-.017a4.389,4.389,0,0,1-.513-.053,1.292,1.292,0,0,1-.3-.087.627.627,0,0,1-.111-.079.339.339,0,0,1-.094-.214.3.3,0,0,1,.121-.249,11.259,11.259,0,0,1,1.746-1.082c2.327-1.251,4.734-2.439,7.189-3.645,4.816-2.56,9.774-5.312,14.908-8.1.636-.36,1.305-.682,1.9-1.067a8.2,8.2,0,0,0,1.633-1.382,3.389,3.389,0,0,0,.917-1.824,2.48,2.48,0,0,0-2.393-2.743,5.9,5.9,0,0,0-2.145.3,28.075,28.075,0,0,0-4.147,1.892l-4.1,2.246c-1.38.779-2.887,1.36-4.317,2.019l-8.822,3.918-.278-.5,13.542-9.29c2.3-1.568,4.61-3.185,6.959-4.751a15.345,15.345,0,0,0,3.175-2.7,4.33,4.33,0,0,0,.986-1.725,1.754,1.754,0,0,0-.484-1.7c-.882-1.029-2.417-.9-3.706-.406-1.336.467-2.564,1.236-3.946,1.826-2.584,1.207-5.091,2.829-7.643,4.3-2.546,1.509-5.1,3.038-7.72,4.516-1.307.739-2.628,1.464-4,2.131a20.02,20.02,0,0,1-2.114.9,5.686,5.686,0,0,1-1.164.3,1.026,1.026,0,0,1-.784-.159.567.567,0,0,1-.18-.533,1.014,1.014,0,0,1,.145-.385l.033-.057.066-.041,11.507-7.11a38.225,38.225,0,0,0,5.525-3.92,8.605,8.605,0,0,0,1.122-1.218,2.85,2.85,0,0,0,.638-1.395,1.482,1.482,0,0,0-.512-1.291,4.418,4.418,0,0,0-.615-.478,1.608,1.608,0,0,0-.691-.164,11.156,11.156,0,0,0-3.539.737c-1.168.4-2.313.868-3.443,1.364a66.678,66.678,0,0,0-6.56,3.342l-12.546,7.007-.013.007-.013.006-7.075,3.126-1.777.786,1.447-1.3,5.9-5.279.007-.007.023-.017a19.979,19.979,0,0,0,5.68-6.5,8.5,8.5,0,0,0,1.2-3.907,2.29,2.29,0,0,0-.7-1.662,2.958,2.958,0,0,0-1.684-.688l.182-.051L183.767,206.49l.026-.022a16.125,16.125,0,0,0-2.871,4.43c-.772,1.605-1.433,3.25-2.06,4.882-1.232,3.275-2.291,6.531-3.2,9.684l-.038.134-.128.049L128.765,243.6l.108-.349L148.7,272.017l-.255-.049,30.21-19.706,8.047-5.218,2.078-1.333c.467-.3.711-.436.711-.436" transform="translate(25.037 36.95)" fill="#ff9b6c"/>
        <path id="Trazado_285" data-name="Trazado 285" d="M175.094,110.188l16.115-3.523a43.735,43.735,0,0,0,21.836,9.363c23.936,3.177,45.94-13.451,49.15-37.137a43.357,43.357,0,0,0-37.529-48.637c-23.934-3.175-45.94,13.451-49.149,37.137a42.69,42.69,0,0,0,5.519,27.451l-.017-.017Z" transform="translate(34.163 5.827)" fill="#e96247"/>
      </g>
    </g>
  </g>
</svg>
