<svg id="personaje" xmlns="http://www.w3.org/2000/svg" xmlns:xlink="http://www.w3.org/1999/xlink" width="338.865" height="343.433" viewBox="0 0 338.865 343.433">
  <defs>
    <clipPath id="clip-path">
      <rect id="Rectángulo_92" data-name="Rectángulo 92" width="48.558" height="111.067" fill="none"/>
    </clipPath>
    <clipPath id="clip-path-2">
      <rect id="Rectángulo_93" data-name="Rectángulo 93" width="19.133" height="17.205" fill="none"/>
    </clipPath>
    <clipPath id="clip-path-3">
      <rect id="Rectángulo_94" data-name="Rectángulo 94" width="12.353" height="31.808" fill="none"/>
    </clipPath>
    <clipPath id="clip-path-4">
      <rect id="Rectángulo_95" data-name="Rectángulo 95" width="10.674" height="56.883" fill="none"/>
    </clipPath>
    <clipPath id="clip-path-5">
      <rect id="Rectángulo_96" data-name="Rectángulo 96" width="22.672" height="100.921" fill="none"/>
    </clipPath>
    <clipPath id="clip-path-6">
      <rect id="Rectángulo_97" data-name="Rectángulo 97" width="17.761" height="1.023" fill="none"/>
    </clipPath>
  </defs>
  <path id="Trazado_286" data-name="Trazado 286" d="M338.865,169.433A169.432,169.432,0,1,1,169.433,0,169.431,169.431,0,0,1,338.865,169.433" transform="translate(0 0)" fill="#e96247"/>
  <path id="Trazado_287" data-name="Trazado 287" d="M120.068,153.671l10.19,37.274,37.22-50.258-8.763,131.784H105.577l-15.494.746s2.3-20.772,3.242-32.5c.181-2.232.949-15.3,4.721-27.611,7.926-25.875,22.022-59.435,22.022-59.435" transform="translate(37.003 69.187)" fill="#fafafa"/>
  <path id="Trazado_288" data-name="Trazado 288" d="M141.106,188.487c.131.17-5.872,5.008-13.405,10.8s-13.748,10.36-13.88,10.19,5.87-5.008,13.407-10.806,13.747-10.359,13.878-10.189" transform="translate(27.963 92.691)" fill="#1a2e35"/>
  <path id="Trazado_289" data-name="Trazado 289" d="M150.727,146.249l-28.94-13.924-11.349-13.49-16.056,16.69L51.812,282.858h73l9.362-25.277,16.551-97.625Z" transform="translate(110.845 58.44)" fill="#c1b49a"/>
  <path id="Trazado_290" data-name="Trazado 290" d="M48.332,275.953l-1.956-31.269,88.189-14.94s15.067-72.775,24.347-84.7c8.566-11,19.735-7.187,19.735-7.187s10.064,6.894,7.657,33.288c-1.259,13.82-6.313,61.743-8.145,79.055a27.64,27.64,0,0,1-27.485,24.723Z" transform="translate(83.006 67.48)" fill="#c1b49a"/>
  <path id="Trazado_291" data-name="Trazado 291" d="M86.71,217.326c-.13.013-.252-1.389-.894-3.528A20.915,20.915,0,0,0,74.94,200.9c-2-.994-3.359-1.352-3.325-1.477a9.437,9.437,0,0,1,3.556.979,19.305,19.305,0,0,1,11.175,13.251,9.423,9.423,0,0,1,.364,3.671" transform="translate(145.263 98.064)" fill="#1a2e35"/>
  <g id="Grupo_68" data-name="Grupo 68" transform="translate(181.807 192.888)" opacity="0.2">
    <g id="Grupo_67" data-name="Grupo 67" transform="translate(0)">
      <g id="Grupo_66" data-name="Grupo 66" clip-path="url(#clip-path)">
        <path id="Trazado_292" data-name="Trazado 292" d="M121.289,129.3a137.921,137.921,0,0,1-5.257,27.167l-6.634-1.947c2.724,3.9,3.058,9.076,1.98,13.708s-3.418,8.857-5.731,13.013L72.732,240.368l33.18-75.333-.864-13.926,6.388-1.366Z" transform="translate(-72.732 -129.301)"/>
      </g>
    </g>
  </g>
  <g id="Grupo_71" data-name="Grupo 71" transform="translate(216.448 296.321)" opacity="0.2">
    <g id="Grupo_70" data-name="Grupo 70" transform="translate(0)">
      <g id="Grupo_69" data-name="Grupo 69" clip-path="url(#clip-path-2)">
        <path id="Trazado_293" data-name="Trazado 293" d="M70.071,198.666A17.6,17.6,0,0,1,88.108,211.72a4.542,4.542,0,0,1,.052,2.834,1.879,1.879,0,0,1-2.3,1.177,2.982,2.982,0,0,1-1.29-1.708,26.744,26.744,0,0,0-15.331-14.285" transform="translate(-69.236 -198.636)"/>
      </g>
    </g>
  </g>
  <path id="Trazado_294" data-name="Trazado 294" d="M72.136,240.214a7.821,7.821,0,0,1,.448-1.208l1.423-3.406,5.369-12.467c4.626-10.556,10.971-25.026,17.976-41.01,2.569-5.808,5.051-11.414,7.381-16.678l-.031.173c-.294-4.948-.57-9.616-.826-13.927l-.018-.289.282-.058,6.394-1.34-.212.166c3.31-6.7,6.027-12.192,7.954-16.089.938-1.856,1.683-3.328,2.227-4.4.242-.461.442-.835.6-1.14a1.5,1.5,0,0,1,.234-.377,1.642,1.642,0,0,1-.151.418c-.14.313-.312.7-.525,1.179-.506,1.092-1.2,2.588-2.077,4.475-1.869,3.925-4.5,9.461-7.714,16.205l-.064.134-.148.031L104.28,152l.261-.348c.28,4.31.583,8.976.9,13.923l.006.089-.039.084c-2.318,5.269-4.789,10.88-7.348,16.693-7.087,15.949-13.505,30.386-18.186,40.918-2.338,5.171-4.241,9.377-5.593,12.367q-.98,2.106-1.557,3.346a8.133,8.133,0,0,1-.591,1.146" transform="translate(109.916 63.027)" fill="#1a2e35"/>
  <path id="Trazado_295" data-name="Trazado 295" d="M71.964,267.036a2.494,2.494,0,0,1-.072-.519c-.034-.386-.078-.891-.133-1.528-.1-1.4-.246-3.367-.43-5.881-.342-5.16-.828-12.537-1.429-21.628l-.016-.249.246-.046,63.794-11.718,23.522-4.268-.294.274c5.17-19.647,9.659-36.7,12.868-48.89,1.619-6.028,2.913-10.854,3.817-14.226q.674-2.43,1.055-3.8c.118-.4.213-.721.288-.977a1.383,1.383,0,0,1,.119-.325,1.374,1.374,0,0,1-.055.342c-.058.261-.133.588-.224,1-.224.919-.536,2.2-.934,3.831-.853,3.386-2.077,8.23-3.6,14.282l-12.6,48.959-.06.231-.236.043-23.518,4.293L70.233,237.74l.23-.294c.5,9.1.9,16.48,1.178,21.643.119,2.518.213,4.492.279,5.89.022.638.04,1.146.054,1.534a2.654,2.654,0,0,1-.01.524" transform="translate(59.31 75.367)" fill="#1a2e35"/>
  <path id="Trazado_296" data-name="Trazado 296" d="M73.3,135.583c.022.14-1.475.361-3.729,1.2a23.888,23.888,0,0,0-13.319,12.474c-.983,2.194-1.3,3.674-1.441,3.643-.052-.01-.01-.385.113-1.064a15.145,15.145,0,0,1,.822-2.791,21.959,21.959,0,0,1,13.645-12.782,15.129,15.129,0,0,1,2.84-.637c.683-.081,1.061-.1,1.068-.045" transform="translate(183.827 66.662)" fill="#1a2e35"/>
  <path id="Trazado_297" data-name="Trazado 297" d="M150.343,121.5c2.614-4.817,1.456-24.271,5.484-23.584,5.136.877.392,21.325.069,23.187-.315,1.81,2.369,2.324,2.57.63.289-2.436,3.286-26.227,8.343-24.887,2.8.741,1.514,5.86,1.514,5.86s-4.35,23.06-1.939,23.612c2.447.561,4.253-12.746,5.329-17.582,1.032-4.638,4.05-6.632,5.2-4.187,1.681,3.585-1.546,15.2-2.506,19.859s-3.364,18.149,3.178,12.877,13.511-6.923,15.68-6.079,1.7,4.175-.819,4.836c-2.032.534-5.165,2.458-7.462,4a30.019,30.019,0,0,0-4.948,4.65,26.153,26.153,0,0,0-4.678,7.284,16.28,16.28,0,0,1-9.944,8.9l-3.817,18.171-24.734-5.3,5.515-19.226c2.006-12.626.9-29.6.914-37.326.028-12.313,1.632-12.4,3.051-12.079,3.131.719,1.453,21.085,4,16.384" transform="translate(-59.94 47.597)" fill="#ffd2bd"/>
  <path id="Trazado_298" data-name="Trazado 298" d="M154.16,124.435a27.241,27.241,0,0,1,3.289,1.532,13.584,13.584,0,0,1,6.325,9.194l.082.421.351-.206a20.46,20.46,0,0,1,6.407-2.423c1.689-.331,2.733-.364,2.73-.452a8.22,8.22,0,0,0-2.793.067,18.416,18.416,0,0,0-6.634,2.279l.433.215a13.762,13.762,0,0,0-.767-2.734,13.932,13.932,0,0,0-2.718-4.246,13.257,13.257,0,0,0-3.21-2.5,11.217,11.217,0,0,0-2.517-1.011,2.957,2.957,0,0,0-.979-.14" transform="translate(-64.45 61.187)" fill="#e09074"/>
  <path id="Trazado_299" data-name="Trazado 299" d="M161.111,136.03a21.773,21.773,0,0,0,12.107,3.771c.019-.179-2.819-.506-6.155-1.556-3.342-1.029-5.864-2.373-5.952-2.215" transform="translate(-74.692 66.89)" fill="#e09074"/>
  <path id="Trazado_300" data-name="Trazado 300" d="M97.811,125.1l-18.9,37.834,10.192,37.274,27.131-28.674,26.749-49.687Z" transform="translate(78.156 59.923)" fill="#ffd2bd"/>
  <path id="Trazado_301" data-name="Trazado 301" d="M217.824,129.722s-26.859,9.549-26.859,11.324v.01c-4.742,3.723-20.542,41.914-25.568,49.136L151.03,211.359h0l12.051-47.036-26.513-7.8s-22.641,54.712-25.392,66.882a44.7,44.7,0,0,0,.428,21.825l.146-.125a25.181,25.181,0,0,0,9.931,13.357c11.242,7.208,21.735,8.564,32.476.63,6.089-4.5,13.038-9.92,19.407-14.992l1.669,39.495h14.642c0-2.218-.445-29.282-.445-29.282a152.775,152.775,0,0,0,4.437-19.521c1.331-9.316,23.142-70.451,23.142-70.451l16.935-32.606.394-12.066Z" transform="translate(-59.648 58.851)" fill="#c1b49a"/>
  <path id="Trazado_302" data-name="Trazado 302" d="M145.416,273.026a7.7,7.7,0,0,1-.127-1.229q-.081-1.311-.219-3.543c-.163-3.152-.391-7.6-.673-13.1-.5-11.16-1.2-26.549-1.974-43.787l0-.045.009-.051c.315-1.632.652-3.371.991-5.129,3.55-18.118,6.762-34.514,9.1-46.464,1.19-5.885,2.16-10.671,2.845-14.062q.515-2.408.813-3.814c.092-.4.169-.721.23-.989a1.221,1.221,0,0,1,.1-.331,1.137,1.137,0,0,1-.027.348c-.042.272-.092.6-.154,1q-.248,1.416-.67,3.844c-.628,3.4-1.514,8.206-2.6,14.112-2.284,11.963-5.418,28.375-8.881,46.511-.34,1.757-.677,3.5-.993,5.129l.009-.1c.679,17.242,1.286,32.634,1.727,43.8.182,5.5.328,9.952.433,13.107q.051,2.235.081,3.547a7.7,7.7,0,0,1-.022,1.237" transform="translate(-30.121 69.087)" fill="#1a2e35"/>
  <path id="Trazado_303" data-name="Trazado 303" d="M121.129,244.891a7.449,7.449,0,0,1,.134-1.238q.2-1.314.536-3.527c.51-3.133,1.228-7.533,2.109-12.941,1.866-10.982,4.423-26.029,7.247-42.65,1.9-10.881,3.677-21.085,5.193-29.774l.007-.042.016-.036,9.054-20.534c1.092-2.418,1.96-4.344,2.59-5.737.288-.615.521-1.108.706-1.5a2.343,2.343,0,0,1,.276-.5,2.367,2.367,0,0,1-.178.543c-.161.4-.363.913-.613,1.542-.588,1.411-1.4,3.362-2.418,5.812-2.154,5.057-5.181,12.158-8.8,20.646l.022-.076-5.091,29.791c-2.913,16.606-5.549,31.639-7.474,42.611-.983,5.39-1.783,9.779-2.353,12.9q-.425,2.2-.677,3.5a7.432,7.432,0,0,1-.289,1.211" transform="translate(9.18 62.165)" fill="#1a2e35"/>
  <path id="Trazado_304" data-name="Trazado 304" d="M165.606,213.8c-.1-.076,1.047-1.722,2.655-4.522a82.194,82.194,0,0,0,5.388-11.391,96.327,96.327,0,0,0,3.7-12.06c.744-3.146,1.09-5.123,1.213-5.1a5.024,5.024,0,0,1-.075,1.414c-.094.906-.294,2.208-.6,3.807a74.028,74.028,0,0,1-3.509,12.221,65.509,65.509,0,0,1-5.642,11.4,38.473,38.473,0,0,1-2.193,3.172c-.561.718-.891,1.1-.934,1.067" transform="translate(-86.758 88.874)" fill="#1a2e35"/>
  <g id="Grupo_74" data-name="Grupo 74" transform="translate(79.589 272.189)" opacity="0.2">
    <g id="Grupo_73" data-name="Grupo 73" transform="translate(0)">
      <g id="Grupo_72" data-name="Grupo 72" clip-path="url(#clip-path-3)">
        <path id="Trazado_305" data-name="Trazado 305" d="M166.8,210.757a1.641,1.641,0,0,0-1.134,2.306,2.456,2.456,0,0,0,2.566,1.176,5.1,5.1,0,0,0,2.609-1.425,17.861,17.861,0,0,0,4.563-7.965c2.269-7.187,2.378-14.854,2.467-22.39a91.73,91.73,0,0,1-11,27.871" transform="translate(-165.521 -182.46)"/>
      </g>
    </g>
  </g>
  <g id="Grupo_77" data-name="Grupo 77" transform="translate(107.951 247.114)" opacity="0.2">
    <g id="Grupo_76" data-name="Grupo 76" transform="translate(0)">
      <g id="Grupo_75" data-name="Grupo 75" clip-path="url(#clip-path-4)">
        <path id="Trazado_306" data-name="Trazado 306" d="M153.176,222.533c-4.544-7.225-6.01-15.662-5.415-24.176.8-11.481,6.383-21.978,10.548-32.707-2.4,11.282-3.764,22.48-5.937,33.326,0,0,1.161,16.117,1.187,23.275" transform="translate(-147.634 -165.651)"/>
      </g>
    </g>
  </g>
  <g id="Grupo_80" data-name="Grupo 80" transform="translate(132.016 195.88)" opacity="0.2">
    <g id="Grupo_79" data-name="Grupo 79" transform="translate(0)">
      <g id="Grupo_78" data-name="Grupo 78" clip-path="url(#clip-path-5)">
        <path id="Trazado_307" data-name="Trazado 307" d="M123.46,232.228c1.165-17.181,2.336-34.4,5.375-51.351a163.881,163.881,0,0,1,17.3-49.57c-2.163,6.807-8.83,21.1-8.83,21.1s-9.631,50.749-13.8,76.31" transform="translate(-123.46 -131.307)" fill="#c1b49a"/>
      </g>
    </g>
  </g>
  <path id="Trazado_308" data-name="Trazado 308" d="M186.376,215l2.406,26.64-12.58-.048c-.334,0-5.47-.085-11.132-.18a78.128,78.128,0,0,1-12.773.342c-.355-.037-.565-.082-.592-.134a10.1,10.1,0,0,1-1.939-.468h-.057l.006-.018c-1.14-.416-2.309-1.15-2.129-2.4.552-3.819,2.821-4.126,2.821-4.126s.431-.031,1.14-.079l.092-.333c-1.729,0-3.18-.043-3.95-.124-.355-.037-.565-.082-.592-.133,0,0-4.459-.53-4.119-2.89.552-3.819,2.822-4.126,2.822-4.126s1.541-.11,3.671-.248c-1.784.006-3.294-.039-4.082-.122-.355-.037-.565-.084-.592-.133,0,0-4.46-.53-4.119-2.89.55-3.82,2.821-4.126,2.821-4.126s1.244-.088,3.039-.206c-1.444-.007-2.639-.052-3.31-.124-.355-.037-.567-.082-.592-.133,0,0-4.46-.53-4.12-2.89.552-3.819,2.822-4.126,2.822-4.126s7.019-.5,11.837-.7c0,0,5.466-4.929,7.619-4.7,3.218.34,21.926,7.247,21.926,7.247Z" transform="translate(-56.525 101.558)" fill="#ffd2bd"/>
  <path id="Trazado_309" data-name="Trazado 309" d="M168.341,224.9c-.018.221-2.811.489-6.236.6s-6.188.021-6.17-.2,2.809-.489,6.236-.6,6.188-.022,6.17.2" transform="translate(-62.096 110.478)" fill="#e09074"/>
  <path id="Trazado_310" data-name="Trazado 310" d="M173.668,219.817c.007.222-3.962.544-8.866.718s-8.887.134-8.9-.088,3.962-.543,8.867-.718,8.887-.134,8.894.088" transform="translate(-67.382 108.004)" fill="#e09074"/>
  <g id="Grupo_83" data-name="Grupo 83" transform="translate(87.89 319.951)" opacity="0.78">
    <g id="Grupo_82" data-name="Grupo 82" transform="translate(0)">
      <g id="Grupo_81" data-name="Grupo 81" clip-path="url(#clip-path-6)">
        <path id="Trazado_311" data-name="Trazado 311" d="M174.094,214.673c.007.222-3.962.545-8.866.718s-8.887.134-8.9-.088,3.961-.543,8.867-.718,8.887-.134,8.894.088" transform="translate(-156.333 -214.476)" fill="#e09074"/>
      </g>
    </g>
  </g>
  <path id="Trazado_312" data-name="Trazado 312" d="M150.781,209.864a12.755,12.755,0,0,0,2.827.222l6.814.222,6.814.245a12.752,12.752,0,0,0,2.836-.028,11.708,11.708,0,0,0-2.806-.434c-1.741-.175-4.153-.346-6.822-.437s-5.087-.087-6.835-.031a11.7,11.7,0,0,0-2.828.242" transform="translate(-56.14 103.068)" fill="#e09074"/>
  <path id="Trazado_313" data-name="Trazado 313" d="M50.231,67.369C53.39,59.682,63.4,56.183,71.2,59.04S84.221,69.911,85.159,78.169c.461,4.061-.049,8.4-2.384,11.755-2.455,3.53-6.668,5.546-10.927,6.145A21.77,21.77,0,0,1,48.834,65.887" transform="translate(183.265 28.548)" fill="#1a2e35"/>
  <path id="Trazado_314" data-name="Trazado 314" d="M75.214,64.982c.04.028-.146.4-.561,1.019a18.594,18.594,0,0,1-2.006,2.449,22.27,22.27,0,0,1-19.153,6.574,18.5,18.5,0,0,1-3.086-.7,3.109,3.109,0,0,1-1.07-.459c.037-.128,1.61.371,4.22.615a23.782,23.782,0,0,0,18.7-6.422c1.911-1.795,2.845-3.155,2.954-3.076" transform="translate(190.045 31.955)" fill="#375a64"/>
  <path id="Trazado_315" data-name="Trazado 315" d="M74.855,70.862c.033.043-.273.327-.855.807a27.255,27.255,0,0,1-2.593,1.871,29.484,29.484,0,0,1-9.728,4.086,24.155,24.155,0,0,1-5.831.462,21.534,21.534,0,0,1-4.708-.779,17.774,17.774,0,0,1-3-1.122c-.68-.331-1.043-.536-1.02-.585.058-.136,1.577.567,4.159,1.174a24.165,24.165,0,0,0,4.6.6,25.8,25.8,0,0,0,5.646-.507,33.446,33.446,0,0,0,9.6-3.8c2.308-1.335,3.655-2.312,3.732-2.208" transform="translate(193.723 34.844)" fill="#375a64"/>
  <path id="Trazado_316" data-name="Trazado 316" d="M70.3,97.994c-18.467-40.615,25.459-61.02,49.427-54.251,22.526,6.362,32.133,17.573,35.84,32.639s3.531,31.4-2.376,45.75c-2.912,7.078-8.159,14.269-15.761,15.153" transform="translate(82.522 20.883)" fill="#1a2e35"/>
  <path id="Trazado_317" data-name="Trazado 317" d="M98.88,193.572c-.319-19.405-.545-46.062-.552-45.951,0,0-16.68-2.77-20.136-24.532-1.719-10.823-1.174-28.569-.261-43.075.823-13.056,9.474-29.075,22.483-27.7l40.623,10.266a7.655,7.655,0,0,1,6.849,7.763l-2.646,84.024" transform="translate(76.004 25.687)" fill="#ffd2bd"/>
  <path id="Trazado_318" data-name="Trazado 318" d="M113.58,82.038a2.774,2.774,0,0,0,2.642,2.83,2.653,2.653,0,0,0,2.89-2.467,2.776,2.776,0,0,0-2.639-2.831,2.656,2.656,0,0,0-2.893,2.469" transform="translate(50.319 39.127)" fill="#1a2e35"/>
  <path id="Trazado_319" data-name="Trazado 319" d="M93.4,82.038a2.774,2.774,0,0,0,2.642,2.83,2.653,2.653,0,0,0,2.89-2.467,2.776,2.776,0,0,0-2.639-2.831A2.656,2.656,0,0,0,93.4,82.038" transform="translate(100.598 39.127)" fill="#1a2e35"/>
  <path id="Trazado_320" data-name="Trazado 320" d="M115.895,99.8c.013-.17-1.853-.491-4.878-.88-.767-.078-1.493-.231-1.623-.755a3.9,3.9,0,0,1,.513-2.273q1.081-2.784,2.268-5.839c3.149-8.314,5.43-15.152,5.094-15.274s-3.163,6.513-6.312,14.828q-1.137,3.075-2.174,5.876a4.435,4.435,0,0,0-.4,3.009,1.914,1.914,0,0,0,1.261,1.12,5.159,5.159,0,0,0,1.3.182c3.045.164,4.933.178,4.945.006" transform="translate(60.09 36.773)" fill="#1a2e35"/>
  <path id="Trazado_321" data-name="Trazado 321" d="M90.78,118.8a55.36,55.36,0,0,0,29.146-7.775s-7.365,15.142-29.146,13.1Z" transform="translate(83.515 54.598)" fill="#e09074"/>
  <path id="Trazado_322" data-name="Trazado 322" d="M73.18,83.134C73.5,82.98,84.829,77.969,84.962,91s-12.977,10.475-13,10.1,1.22-17.967,1.22-17.967" transform="translate(146.554 40.356)" fill="#ffd2bd"/>
  <path id="Trazado_323" data-name="Trazado 323" d="M74.188,94.895c.057-.043.228.157.615.328a2.269,2.269,0,0,0,1.7.018c1.371-.519,2.508-2.717,2.548-5.066a7.5,7.5,0,0,0-.668-3.243,2.628,2.628,0,0,0-1.726-1.724,1.157,1.157,0,0,0-1.334.635c-.17.365-.085.625-.154.649-.036.033-.282-.216-.182-.755a1.442,1.442,0,0,1,.5-.822,1.715,1.715,0,0,1,1.252-.345,3.191,3.191,0,0,1,2.391,2,7.682,7.682,0,0,1,.823,3.624c-.057,2.627-1.375,5.1-3.254,5.661a2.432,2.432,0,0,1-2.08-.324c-.406-.318-.477-.609-.433-.633" transform="translate(148.256 41.585)" fill="#e09074"/>
  <path id="Trazado_324" data-name="Trazado 324" d="M103.135,98.192a12.513,12.513,0,0,0,1.619,3.173,4.222,4.222,0,0,0,3,1.739,3.783,3.783,0,0,0,3.2-1.745,6.033,6.033,0,0,0,.892-3.637c-.052-1.147-.577-2.515-1.717-2.651a2.857,2.857,0,0,0-1.384.307q-3,1.213-5.991,2.43" transform="translate(73.738 46.749)" fill="#e09074"/>
  <path id="Trazado_325" data-name="Trazado 325" d="M106.13,103.344c.03-.188,1.346.346,3.2-.4a4.564,4.564,0,0,0,2.415-2.194,4.811,4.811,0,0,0,.079-3.92,4.293,4.293,0,0,0-.522-.9c-.237-.249-.194-.237-.452-.2-.245.066-.638.252-.961.377s-.661.27-.983.4c-1.283.519-2.444.973-3.425,1.34-1.962.732-3.2,1.119-3.263.982s1.08-.767,2.966-1.678c.943-.455,2.074-.98,3.334-1.548l.97-.434a10.546,10.546,0,0,1,1.095-.451,1.386,1.386,0,0,1,.889.025,1.653,1.653,0,0,1,.661.522,5.142,5.142,0,0,1,.673,1.137,5.612,5.612,0,0,1-.182,4.793,5.124,5.124,0,0,1-3.042,2.458,4.821,4.821,0,0,1-2.6.1c-.6-.157-.876-.36-.852-.419" transform="translate(73.136 46.554)" fill="#1a2e35"/>
  <path id="Trazado_326" data-name="Trazado 326" d="M76,110.982a1.165,1.165,0,0,1-.377-.11,5.977,5.977,0,0,1-1-.516,8.766,8.766,0,0,1-2.819-3.009,14.459,14.459,0,0,1-1.732-5.867A42.748,42.748,0,0,1,70.061,94,45.516,45.516,0,0,1,71.3,86.633a21.168,21.168,0,0,1,2.153-5.722,8.807,8.807,0,0,1,2.837-2.992,5.914,5.914,0,0,1,1-.507,1.085,1.085,0,0,1,.379-.1c.019.043-.494.224-1.275.774a9.22,9.22,0,0,0-2.639,3.009,21.92,21.92,0,0,0-2.009,5.655,48.165,48.165,0,0,0-1.186,7.3,45.036,45.036,0,0,0-.031,7.389,14.545,14.545,0,0,0,1.578,5.736,9.142,9.142,0,0,0,2.621,3.022c.776.562,1.289.743,1.268.789" transform="translate(156.915 38.016)" fill="#1a2e35"/>
  <path id="Trazado_327" data-name="Trazado 327" d="M106.465,77.891c-.351.55-3.483-1.156-7.368-.455-3.9.646-6.273,3.306-6.788,2.906-.248-.172.009-1.138,1.05-2.315A9.518,9.518,0,0,1,104.7,76.065c1.377.758,1.944,1.581,1.768,1.826" transform="translate(94.794 36.883)" fill="#e09074"/>
  <path id="Trazado_328" data-name="Trazado 328" d="M106.187,77.784a15.671,15.671,0,0,1-2.141-.539,11.482,11.482,0,0,0-9.8,2.2c-1.058.826-1.607,1.48-1.7,1.4-.075-.051.325-.838,1.346-1.818a10.343,10.343,0,0,1,10.3-2.317c1.341.449,2.041.989,1.994,1.068" transform="translate(94.63 37.479)" fill="#1a2e35"/>
  <path id="Trazado_329" data-name="Trazado 329" d="M106.482,72.3c-.318,1.044-3.643.967-7.6,1.156-3.959.124-7.293.425-7.674-.6-.169-.5.513-1.261,1.868-1.945a14.19,14.19,0,0,1,5.658-1.337,13.965,13.965,0,0,1,5.748.911c1.405.588,2.136,1.307,2,1.814" transform="translate(96.343 34.211)" fill="#1a2e35"/>
  <path id="Trazado_330" data-name="Trazado 330" d="M125.392,80.138c-.3.169-.889-.389-1.829-1.038a9.5,9.5,0,0,0-3.964-1.6c-3.371-.556-6.079,1.005-6.47.455-.179-.234.279-1,1.472-1.753a8.093,8.093,0,0,1,5.355-1,7.352,7.352,0,0,1,4.768,2.736c.844,1.164.925,2.074.667,2.206" transform="translate(44.635 36.931)" fill="#e09074"/>
  <path id="Trazado_331" data-name="Trazado 331" d="M126.952,81.227c-.1.069-.606-.679-1.662-1.613A10.474,10.474,0,0,0,115.111,77.4c-1.349.41-2.117.879-2.182.773-.054-.07.621-.718,2-1.29a9.756,9.756,0,0,1,10.745,2.335c1.014,1.093,1.356,1.966,1.278,2.006" transform="translate(43.442 37.462)" fill="#1a2e35"/>
  <path id="Trazado_332" data-name="Trazado 332" d="M126.332,73.088c-.194,1.07-3.371,1.377-7.14,1.419-3.771.016-6.952-.239-7.162-1.305-.216-1.035,2.952-2.554,7.131-2.579s7.369,1.428,7.171,2.466" transform="translate(45.415 34.73)" fill="#1a2e35"/>
  <path id="Trazado_333" data-name="Trazado 333" d="M81.6,51.709c-2.354,3.543-4.741,7.152-5.958,11.227S74.52,71.7,76.913,75.212c2.291,3.367,6.225,5.132,9.8,7.086s7.241,4.636,8.129,8.612c.277,1.244-.254,5.587.68,6.453,1.283,1.19,3.533.458,4.505-1s1.6-6.228,1.629-7.977q.114-8.134.228-16.266c.064-4.593,0-9.352-1.987-13.492-2.782-5.788-8.549-7.641-16.963-7.229" transform="translate(125.276 25.253)" fill="#1a2e35"/>
  <path id="Trazado_334" data-name="Trazado 334" d="M89.777,86.138a30.7,30.7,0,0,1,6.174-15.2,22.5,22.5,0,0,1,13.918-8.336c5.49-.826,11.033.7,16.575,1.011s11.854-1.043,14.746-5.781c.9-1.477,1.329-3.544.176-4.835a4.9,4.9,0,0,0-1.628-1.07A41.747,41.747,0,0,0,116.018,48.1,32.753,32.753,0,0,0,95.237,59.72a27,27,0,0,0-5.269,22.938" transform="translate(63.667 23.458)" fill="#1a2e35"/>
  <path id="Trazado_335" data-name="Trazado 335" d="M90.137,76.836a2.773,2.773,0,0,1-.258-.709,12.7,12.7,0,0,1-.44-2.12,18.314,18.314,0,0,1,.746-7.9,21.022,21.022,0,0,1,6.54-9.764,27.239,27.239,0,0,1,13.126-5.9,37.04,37.04,0,0,1,14.409.649,50.481,50.481,0,0,1,6.039,1.821c1.859.68,3.521,1.435,5.108,1.86,3.206.661,5.946,1.064,7.736.689a5.664,5.664,0,0,0,2.524-1.243,1.951,1.951,0,0,1-.5.57,4.607,4.607,0,0,1-1.957.967c-1.892.48-4.623.161-7.941-.452-1.654-.407-3.349-1.143-5.187-1.786a52.164,52.164,0,0,0-5.981-1.729,37.134,37.134,0,0,0-14.121-.582,26.93,26.93,0,0,0-12.793,5.684,20.824,20.824,0,0,0-6.479,9.386,19.069,19.069,0,0,0-.968,7.7c.166,1.847.476,2.842.4,2.861" transform="translate(59.992 24.59)" fill="#375a64"/>
  <path id="Trazado_336" data-name="Trazado 336" d="M88.9,45.165a4.271,4.271,0,0,1,1.371-.264A18.957,18.957,0,0,1,94.08,44.9a22.168,22.168,0,0,1,11.576,4.63c1.929,1.538,3.539,3.2,5.247,4.357a13.787,13.787,0,0,0,5.032,2.027,11.4,11.4,0,0,0,3.671.249c.865-.1,1.3-.337,1.337-.274a2.432,2.432,0,0,1-1.283.573,10.149,10.149,0,0,1-3.826-.007,13.568,13.568,0,0,1-5.33-1.974c-1.808-1.181-3.456-2.854-5.329-4.341a23.169,23.169,0,0,0-11.159-4.695c-3.127-.421-5.1-.13-5.112-.276" transform="translate(85.297 22.034)" fill="#375a64"/>
  <path id="Trazado_337" data-name="Trazado 337" d="M105.1,74.587c-.07.031-.3-.518-.931-1.352a9.341,9.341,0,0,0-3.459-2.661A14.75,14.75,0,0,0,94.351,69.3a49.33,49.33,0,0,0-8.041,1.113,29.553,29.553,0,0,1-8.241.624A22.73,22.73,0,0,1,71.5,69.45a20.575,20.575,0,0,1-4-2.154,5.458,5.458,0,0,1-1.284-1.061,42.854,42.854,0,0,0,5.487,2.7,23.733,23.733,0,0,0,6.428,1.384,30.461,30.461,0,0,0,8.045-.676,45.721,45.721,0,0,1,8.175-1.064,14.743,14.743,0,0,1,6.609,1.5,8.925,8.925,0,0,1,3.464,2.979,6.183,6.183,0,0,1,.567,1.108c.1.266.143.409.118.419" transform="translate(134.981 32.569)" fill="#375a64"/>
  <path id="Trazado_338" data-name="Trazado 338" d="M103.023,68.728c-.063.03-.289-.51-.929-1.307a8.677,8.677,0,0,0-3.476-2.454A13,13,0,0,0,92.33,64.3c-2.417.237-5.017.97-7.836,1.495a16.806,16.806,0,0,1-8.109-.127,13.228,13.228,0,0,1-5.637-3.494,12.175,12.175,0,0,1-2.479-3.712,7.33,7.33,0,0,1-.4-1.146c-.069-.269-.094-.412-.067-.421a16.983,16.983,0,0,0,3.331,4.89,13.136,13.136,0,0,0,5.454,3.2,16.6,16.6,0,0,0,7.763.049c2.766-.515,5.408-1.235,7.908-1.444a13.093,13.093,0,0,1,6.57.876,8.339,8.339,0,0,1,3.5,2.778,3.475,3.475,0,0,1,.688,1.489" transform="translate(134.702 27.978)" fill="#375a64"/>
  <rect id="Rectángulo_98" data-name="Rectángulo 98" width="338.865" height="343.433" transform="translate(0 0)" fill="none"/>
</svg>
