<svg xmlns="http://www.w3.org/2000/svg" width="99.671" height="89.972" viewBox="0 0 99.671 89.972">
  <g id="Grupo_60" data-name="Grupo 60" transform="translate(-1319.165 -336)">
    <path id="Trazado_346" data-name="Trazado 346" d="M44.844,38.844c0-3.451-.037-6.729.053-10,.01-.363.706-.79,1.165-1.044C48,26.722,50.1,25.872,51.913,24.616a7.78,7.78,0,0,0,3.507-6.928c-.065-2.4-.013-4.813-.013-7.368H19.378v4.374c0,3.236-.083,6.474.036,9.705a4.97,4.97,0,0,1-1.683,4.162c-2.93,2.774-5.708,5.71-8.831,8.866-.065-.918-.131-1.41-.131-1.9-.006-7.941-.028-15.883.02-23.824a17.076,17.076,0,0,1,.534-4.178C10.61,2.607,13.844.13,19.5.081q18.173-.154,36.35,0c6.309.058,9.874,3.866,9.795,10.192-.054,4.222.2,8.539-.584,12.64C63.425,31.47,56.972,37.032,48,38.436c-.974.152-1.956.255-3.155.409" transform="translate(1322.878 336)" fill="#293273"/>
    <path id="Trazado_347" data-name="Trazado 347" d="M40.738,8.863c0,3.469.037,6.746-.053,10.021-.01.35-.72.739-1.168,1.007a77.1,77.1,0,0,0-6.872,4.141A6.642,6.642,0,0,0,30.17,29.8c.08,2.512.019,5.028.019,7.638h35.88a4.766,4.766,0,0,0,.124-1.3c-.441-2.485.7-4.156,2.468-5.778,2.661-2.443,5.1-5.129,7.635-7.712l.449.2c0,1.5.024,2.993,0,4.488-.075,3.931.165,7.907-.342,11.782-.715,5.451-4.3,8.446-9.771,8.486q-18.695.132-37.393-.006c-5.681-.05-9.318-3.9-9.269-9.584.037-4.4-.211-8.888.567-13.172C22.061,16.378,28.692,10.7,37.746,9.255c.913-.145,1.833-.242,2.992-.392" transform="translate(1327.624 339.757)" fill="#293273"/>
    <path id="Trazado_348" data-name="Trazado 348" d="M36.7,59.471V45.732H42.24V69.978c-2.616.278-4.882.461-6.8-2.315-2.786-4.035-6.178-7.652-9.614-11.811V70.006H20c-.053-.545-.131-1-.132-1.451-.007-7.055.03-14.11-.034-21.164-.013-1.4.436-1.706,1.8-1.824a5.44,5.44,0,0,1,5.312,2.5C29.9,52,33.122,55.74,36.233,59.558l.471-.087" transform="translate(1327.573 355.301)" fill="#939391"/>
    <path id="Trazado_349" data-name="Trazado 349" d="M40.963,63.831c2.419.718,4.606,1.524,6.864,1.975a8.225,8.225,0,0,0,3.951-.245A3.078,3.078,0,0,0,53.6,63.528c.09-.585-.861-1.677-1.582-1.969-1.774-.719-3.689-1.086-5.535-1.636a25.8,25.8,0,0,1-2.8-.99,6,6,0,0,1-4.055-5.794,6.523,6.523,0,0,1,3.846-6.407c4.635-2.2,9.346-1.724,13.991.137a1.118,1.118,0,0,1,.654,1.8c-.5.977-.869,2.026-1.35,3.174a19.714,19.714,0,0,0-3.144-1.155,25.315,25.315,0,0,0-5.193-.551,2.779,2.779,0,0,0-2.974,2.492c-.083,1.432,1.263,2,2.478,2.351,2.244.648,4.546,1.116,6.753,1.868,3.353,1.142,4.777,3.03,4.8,5.955a6.9,6.9,0,0,1-4.693,6.924c-4.955,1.771-9.775,1.138-14.464-1.081a1.341,1.341,0,0,1-.718-2.109c.5-.977.982-1.962,1.354-2.705" transform="translate(1335.845 355.188)" fill="#939391"/>
    <path id="Trazado_350" data-name="Trazado 350" d="M19.753,62.839c.93.819,1.764,1.647,2.694,2.349,1.1.83.814,1.528-.053,2.257-4.31,3.624-9.2,4.114-14.32,2.325A11.47,11.47,0,0,1,.118,59.735c-.6-5.075,1.075-9.366,5.468-12.335,4.629-3.131,12.289-2.715,16.493.814,1.131.95,1.472,1.71.128,2.731-.833.632-1.562,1.4-2.312,2.083-5.94-3.527-9.712-3.429-12.5.263a8.152,8.152,0,0,0,.824,10.332c3.158,2.984,7.33,2.749,11.53-.785" transform="translate(1319.166 355.195)" fill="#939391"/>
    <path id="Trazado_351" data-name="Trazado 351" d="M57.139,45.678H75.452v4.511H63.02v6.329H74.006v4.636H62.916v8.73H57.139Z" transform="translate(1343.385 355.361)" fill="#939391"/>
  </g>
</svg>
