<svg xmlns="http://www.w3.org/2000/svg" xmlns:xlink="http://www.w3.org/1999/xlink" width="69.957" height="122.32" viewBox="0 0 69.957 122.32">
  <defs>
    <clipPath id="clip-path">
      <rect id="Rectángulo_79" data-name="Rectángulo 79" width="69.957" height="122.32" fill="none"/>
    </clipPath>
  </defs>
  <g id="Grupo_56" data-name="Grupo 56" transform="translate(0 0)">
    <g id="Grupo_55" data-name="Grupo 55" transform="translate(0 0)" clip-path="url(#clip-path)">
      <path id="Trazado_175" data-name="Trazado 175" d="M69.907,45.3c0,13.94.132,27.883-.034,41.821-.2,16.554-10.571,29.44-25.207,33.779a34.785,34.785,0,0,1-43.3-24.428A41.1,41.1,0,0,1,0,85.911Q.025,44.03.01,2.151C.01.157.164,0,2.136,0h65.68c1.927,0,2.092.161,2.092,2.067V45.3" transform="translate(0 0)" fill="#bc2c27"/>
      <path id="Trazado_176" data-name="Trazado 176" d="M10.351,31.1V25.6a6.35,6.35,0,0,1,1.909-4.947,7.337,7.337,0,0,1,5.136-1.74,7.6,7.6,0,0,1,3.9.971,5.51,5.51,0,0,1,2.395,2.75l-.08.161-1.8.756-.189-.054a3.994,3.994,0,0,0-1.666-1.78,5.062,5.062,0,0,0-2.556-.647A4.8,4.8,0,0,0,13.967,22.3a4.563,4.563,0,0,0-1.3,3.492v5.069a4.522,4.522,0,0,0,1.292,3.5A4.882,4.882,0,0,0,17.4,35.55a4.973,4.973,0,0,0,3.483-1.186,4.5,4.5,0,0,0,1.305-3.5v-.62H19.092l-.163-.135-.269-1.888.109-.135h5.539l.135.135V31.1a6.3,6.3,0,0,1-1.869,4.907,7.416,7.416,0,0,1-5.178,1.7A7.4,7.4,0,0,1,12.246,36,6.258,6.258,0,0,1,10.351,31.1" transform="translate(-0.006 -0.012)" fill="#fff"/>
      <path id="Trazado_177" data-name="Trazado 177" d="M26.335,37.249l6.266-17.8.162-.135,2.259-.3.162.108,6.373,18.119-.08.135H39.325l-.161-.135-1.48-4.341h-7.5l-1.452,4.341-.134.135H26.416Zm4.545-6.39h6.131l-2.8-8.3-.269-1.159-.269,1.159Z" transform="translate(-0.016 -0.012)" fill="#fff"/>
      <path id="Trazado_178" data-name="Trazado 178" d="M44.392,37.249V19.319l.135-.135h9.062l.135.135v1.888l-.135.134H46.651V27h6.535l.108.135-.484,1.887-.162.135h-6v8.089l-.134.135h-1.99Z" transform="translate(-0.027 -0.012)" fill="#fff"/>
      <path id="Trazado_179" data-name="Trazado 179" d="M57.389,37.249v-17.8l.135-.162,1.99-.27.134.108V37.249l-.134.135h-1.99Z" transform="translate(-0.035 -0.012)" fill="#fff"/>
      <path id="Trazado_180" data-name="Trazado 180" d="M56.774,70.174c-2.531.622-4.821,1.236-7.134,1.74-6.2,1.351-12.437,2.558-18.825,2.256A22.478,22.478,0,0,1,25.089,73.1,7.235,7.235,0,0,1,22.2,71.015c-1.368-1.5-2.507-3.2-3.8-4.772-.539-.652-.329-.984.251-1.4A27.787,27.787,0,0,1,55.78,68.927c.3.332.56.7.994,1.247" transform="translate(-0.011 -0.037)" fill="#fff"/>
      <path id="Trazado_181" data-name="Trazado 181" d="M13.856,104.967c1.345-.385,2.629-.822,3.946-1.117,6.715-1.5,13.462-2.851,20.375-2.875a27.034,27.034,0,0,1,5.457.7,6.757,6.757,0,0,1,4.164,2.647c1.235,1.659,2.52,3.28,3.78,4.912-9.613,8.4-28.231,8.019-37.722-4.262" transform="translate(-0.009 -0.062)" fill="#d88368"/>
      <path id="Trazado_182" data-name="Trazado 182" d="M36.092,88.928c3.96,2.322,8.145,2.081,12.329,1.541a57.513,57.513,0,0,0,13.317-3.608c.253-.1.517-.164.9-.283a3.052,3.052,0,0,1,.186.892c-.251,2.209-.5,4.419-.841,6.615A1.825,1.825,0,0,1,61.12,95.2a28.218,28.218,0,0,1-11.036,3.706c-3.651.334-6.8-.63-9.092-3.725-1.578-2.127-3.262-4.174-4.9-6.257" transform="translate(-0.022 -0.053)" fill="#fff"/>
      <path id="Trazado_183" data-name="Trazado 183" d="M32.964,85.265c-4.57-1.988-8.952-1.781-13.3-.809-4.066.908-8.072,2.095-12.233,3.193a7.406,7.406,0,0,1,.007-1.016c.2-1.708.464-3.409.642-5.119A2.1,2.1,0,0,1,9.359,79.7c3.966-1.924,7.984-3.554,12.544-3.355a7.932,7.932,0,0,1,6.023,2.665C29.6,80.959,31.15,83,32.964,85.265" transform="translate(-0.005 -0.047)" fill="#d88368"/>
    </g>
  </g>
</svg>
