<svg id="Grupo_71" data-name="Grupo 71" xmlns="http://www.w3.org/2000/svg" width="384.069" height="323.197" viewBox="0 0 384.069 323.197">
  <path id="Trazado_298" data-name="Trazado 298" d="M125.48,5.413l-1.785-.1a34.519,34.519,0,0,0-36.17,29.72C85.226,51.6,82.9,69.927,82.5,78.862c-.836,18.5,17.493,22.444,17.493,22.444l-.658,7.523a22.5,22.5,0,0,0,44.809,4.106l6.57-68.656c2.761-19.106-6.058-36.635-25.231-38.866" transform="translate(82.977 4.296)" fill="#ffc09d"/>
  <path id="Trazado_299" data-name="Trazado 299" d="M97.358,60.645A44.922,44.922,0,0,0,122,54.947S115.531,67.928,97.176,65.2Z" transform="translate(85.456 44.921)" fill="#ff9b6c"/>
  <path id="Trazado_300" data-name="Trazado 300" d="M111.774,32.1a2.642,2.642,0,0,0,2.392,2.81,2.529,2.529,0,0,0,2.859-2.223,2.645,2.645,0,0,0-2.388-2.813,2.533,2.533,0,0,0-2.863,2.226" transform="translate(63.904 24.408)" fill="#1a2e35"/>
  <path id="Trazado_301" data-name="Trazado 301" d="M109.894,27.854c.307.364,2.392-1,5.234-.831,2.841.129,4.842,1.712,5.169,1.381.162-.145-.136-.787-1.007-1.5a7.249,7.249,0,0,0-4.113-1.532,6.971,6.971,0,0,0-4.193,1.091c-.911.622-1.243,1.227-1.091,1.39" transform="translate(64.063 20.737)" fill="#1a2e35"/>
  <path id="Trazado_302" data-name="Trazado 302" d="M98.252,33.058a2.644,2.644,0,0,0,2.394,2.81,2.529,2.529,0,0,0,2.859-2.225,2.648,2.648,0,0,0-2.39-2.812,2.532,2.532,0,0,0-2.863,2.226" transform="translate(102.001 25.193)" fill="#1a2e35"/>
  <path id="Trazado_303" data-name="Trazado 303" d="M94.54,29.029c.307.364,2.4-1,5.236-.831,2.839.131,4.84,1.712,5.169,1.381.16-.145-.134-.785-1.009-1.5a7.243,7.243,0,0,0-4.113-1.532,6.965,6.965,0,0,0-4.191,1.092c-.911.62-1.243,1.225-1.092,1.389" transform="translate(107.319 21.697)" fill="#1a2e35"/>
  <path id="Trazado_304" data-name="Trazado 304" d="M112.241,49.794c.024-.16-1.727-.567-4.567-1.1-.722-.116-1.4-.3-1.494-.8a3.71,3.71,0,0,1,.609-2.123q1.175-2.576,2.463-5.4c3.433-7.7,5.963-14.038,5.651-14.175s-3.344,5.992-6.777,13.688q-1.243,2.849-2.375,5.44a4.206,4.206,0,0,0-.54,2.824,1.822,1.822,0,0,0,1.132,1.132,4.9,4.9,0,0,0,1.221.242c2.872.318,4.658.436,4.678.274" transform="translate(78.094 21.414)" fill="#1a2e35"/>
  <path id="Trazado_305" data-name="Trazado 305" d="M93.218,22.584c.236.789,3.1.585,6.4,1.18,3.322.527,5.956,1.658,6.438.991.216-.322-.211-1.074-1.256-1.885a11.32,11.32,0,0,0-9.782-1.654c-1.254.423-1.9.994-1.8,1.369" transform="translate(108.549 16.965)" fill="#1a2e35"/>
  <path id="Trazado_306" data-name="Trazado 306" d="M109.488,23.443c.463.674,2.459.116,4.815.222,2.359.02,4.322.683,4.82.035.22-.316-.056-.981-.892-1.643a6.985,6.985,0,0,0-7.764-.205c-.869.616-1.18,1.265-.978,1.592" transform="translate(65.986 16.984)" fill="#1a2e35"/>
  <path id="Trazado_307" data-name="Trazado 307" d="M79.96,27.719s5.543-11.3,11.283-13.68c6.948-2.883,9.431,4.7,15.976,3.275s13.181-4.2,19.478,1.16c6.892,5.865,3.3,9.495,3.27,17.726-.109,33.368,5.425,43.124,8.053,27.555.289-1.707,5.131-2.8,6.254-10.009,1.458-9.351,2.475-20.75.76-27.544-1.445-5.727-4.429-9.8-9.934-14.415C126.41,4.5,113.947,3.639,105.429,4S80.022,13.175,79.96,27.719" transform="translate(92.81 3.219)" fill="#1a2e35"/>
  <path id="Trazado_308" data-name="Trazado 308" d="M79.526,38.594a5.028,5.028,0,0,1,5.7-4.526c3.43.527,7.154,2.706,6.518,9.818C90.609,56.506,78.174,52.769,78.185,52.4c.007-.247.822-8.533,1.341-13.809" transform="translate(150.156 27.807)" fill="#ffc09d"/>
  <path id="Trazado_309" data-name="Trazado 309" d="M80.606,46.053c.06-.035.207.174.562.378a2.211,2.211,0,0,0,1.641.18c1.378-.369,2.69-2.385,2.953-4.655a7.276,7.276,0,0,0-.333-3.2,2.546,2.546,0,0,0-1.5-1.834,1.123,1.123,0,0,0-1.352.485c-.2.338-.144.6-.213.613-.038.029-.251-.236-.1-.749a1.409,1.409,0,0,1,.567-.745,1.663,1.663,0,0,1,1.245-.213,3.1,3.1,0,0,1,2.121,2.163,7.507,7.507,0,0,1,.447,3.584c-.309,2.537-1.825,4.8-3.695,5.164a2.367,2.367,0,0,1-1.981-.514c-.364-.347-.4-.636-.358-.654" transform="translate(150.904 29.657)" fill="#ff9b6c"/>
  <path id="Trazado_310" data-name="Trazado 310" d="M81.322,17.253c1.943-1.461,4.615-1.67,6.545-3.148,3.511-2.69,3.66-8.809,7.783-10.411,2.446-.949,5.194.22,7.8-.051C107.671,3.205,109.3.017,115.711,0c8.326-.022,11,6.183,11,6.183a9.6,9.6,0,0,1,9.586.9c3.769,2.546,4.015,7.654,4.015,7.654s1.319-.663,5.316,2.494c2.543,2.008,4.618,6.339,5.542,9.444,1.376,4.627-.634,9.511-2.6,13.917-1.067,2.385-2.388,5.011-4.864,5.843-3.019,1.018-6.339-1.343-7.519-4.3s-3.044-5.936-4.478-8.78c-2.486-4.94-5.031-9.546-2.941-12.708a14.407,14.407,0,0,0-8.893-.053c-2.9.96-5.427,2.819-8.3,3.837s-6.527.958-8.486-1.383c-1.45,3.511-6.712,4.653-9.487,2.057-2.257,3.726-7.6,5.447-11.325,3.2s-4.424-8.428-.943-11.047" transform="translate(88.765 0.001)" fill="#1a2e35"/>
  <path id="Trazado_311" data-name="Trazado 311" d="M95.873,20.945a15.449,15.449,0,0,0-1.463,2.892,6.215,6.215,0,0,1-2.083,2.555,5.523,5.523,0,0,1-3.915.453,9.485,9.485,0,0,1-3.788-1.6,15.1,15.1,0,0,1-2.47-2.379,19.3,19.3,0,0,0-2.112-2.459,10.984,10.984,0,0,0,1.7,2.79A13.506,13.506,0,0,0,84.21,25.8a9.608,9.608,0,0,0,4.064,1.783,6.021,6.021,0,0,0,4.427-.607,6.371,6.371,0,0,0,2.19-2.915,12.772,12.772,0,0,0,.981-3.117" transform="translate(142.72 16.681)" fill="#375a64"/>
  <path id="Trazado_312" data-name="Trazado 312" d="M95.774,29.252a10.445,10.445,0,0,1-2.5,1.385,7.067,7.067,0,0,1-3.017.258,8.632,8.632,0,0,1-3.473-1.321,17.351,17.351,0,0,1-4.753-5.007,13.853,13.853,0,0,0-1.721-2.394,9.953,9.953,0,0,0,1.27,2.677,15.345,15.345,0,0,0,4.8,5.358,8.754,8.754,0,0,0,3.8,1.378,7.056,7.056,0,0,0,3.277-.449c1.788-.732,2.39-1.867,2.317-1.885" transform="translate(142.343 18.127)" fill="#375a64"/>
  <path id="Trazado_313" data-name="Trazado 313" d="M112.871,41.737a16.067,16.067,0,0,1,.716,4.251,4.836,4.836,0,0,1-1.379,3.728,5.312,5.312,0,0,1-4.095,1.89h-.045a5.9,5.9,0,0,1-5.823-5.024l-.5-3.133c2.968-.8,10.907-1.507,11.127-1.712" transform="translate(85.531 34.122)" fill="#ff9b6c"/>
  <path id="Trazado_314" data-name="Trazado 314" d="M103.526,50.883c.018-.06.373.016,1.011.105a8.737,8.737,0,0,0,2.67.02,5.2,5.2,0,0,0,3.252-1.9,6.539,6.539,0,0,0,1.28-4.44,6.472,6.472,0,0,0-.68-2.565l.391.194c-2.841.427-5.325.769-7.1.981a12.034,12.034,0,0,1-2.863.2,12.245,12.245,0,0,1,2.788-.683c1.756-.344,4.226-.782,7.061-1.247l.265-.044.125.24a7.36,7.36,0,0,1-.718,7.813,5.61,5.61,0,0,1-3.724,1.985,7.408,7.408,0,0,1-2.808-.267c-.636-.184-.96-.358-.947-.4" transform="translate(87.101 33.938)" fill="#1a2e35"/>
  <path id="Trazado_315" data-name="Trazado 315" d="M44.912,75.439c1.1,0,16.748,6.258,20.867,21.641s15.376,71.7,15.376,71.7L93.085,185.3S89.222,215.5,67.256,209.76c0,0-14.656,2.559-19.324-12.3S34.2,138.274,34.2,138.274Z" transform="translate(228.682 63.749)" fill="#f9c931"/>
  <path id="Sustracción_1" data-name="Sustracción 1" d="M142.031,0H6.975A15.111,15.111,0,0,0,6.7,4l4,61.688L0,183.388l37.406,14.363L45.7,211.369l26.855-16.908L91.7,210.266l6.59-11.032,42.557-18.673-9.06-52.624c.136-3.256,3.267-82.325,3.419-91.795l6.066-23.11a31.836,31.836,0,0,0,.94-11.666C142.164.9,142.1.438,142.031,0Z" transform="translate(273.733 322.696) rotate(180)" fill="#f9c931" stroke="rgba(0,0,0,0)" stroke-miterlimit="10" stroke-width="1"/>
  <path id="Trazado_317" data-name="Trazado 317" d="M196.29,76.874s-8.564,7.517-10,13.246-32.2,72.42-32.2,72.42L138.8,166.666l-4.077,8.468a23.578,23.578,0,0,0,6.663,29,17.957,17.957,0,0,0,1.638,1.114c8.262,4.911,23.113,4.718,31.77-5.493,8.2-9.667,32.179-44.449,32.179-44.449V112.757Z" transform="translate(-62.371 64.517)" fill="#f9c931"/>
  <path id="Trazado_318" data-name="Trazado 318" d="M195.779,133.549l-21.99-12.981-10.594,12.981,2.192,6.283,28.346,21.041a18.854,18.854,0,0,0,6.576-11.4c1.325-7.884-4.529-15.927-4.529-15.927" transform="translate(-113.041 98.567)" fill="#ffc09d"/>
  <path id="Trazado_319" data-name="Trazado 319" d="M150.021,124.129c0,.205,1.865.047,4.624.931a20.5,20.5,0,0,1,9.135,6.33,41.768,41.768,0,0,1,5.812,9.758c1.209,2.683,1.927,4.373,2.085,4.315.136-.049-.313-1.83-1.343-4.622a34.644,34.644,0,0,0-5.689-10.185,19.319,19.319,0,0,0-9.78-6.369c-2.975-.725-4.873-.26-4.844-.158" transform="translate(-60.295 101.281)" fill="#1a2e35"/>
  <path id="Trazado_320" data-name="Trazado 320" d="M238.644,139.307c.2-.405,1.828-9.749-5.28-15.841s-13.506-8.224-17.364-9.951-11.881-8.43-13.3-6.8-2.032,4.062,0,7.006,13.662,7.37,12.039,11.1c-.663,1.53-4.322,1.8-4.322,1.8s-14.013.914-19.9.407-11.17.609-10.865,2.639,1.421,3.148,6.3,3.555,12.8.1,13.2,1.218-1.218,1.828-4.062,1.625-16.247-.2-17.161,1.321a3.021,3.021,0,0,0,1.625,4.366l3.148,1.118s-1.828,2.537-.305,3.96,4.976.912,4.976.912l17.772-.507s1.014,1.071.507,1.8-14.42-.282-14.522,1.241-1.32,2.234,2.844,3.25,14.622,1.016,18.379,0,19.5-1.727,19.5-1.727Z" transform="translate(-177.521 87.032)" fill="#ffc09d"/>
  <path id="Trazado_321" data-name="Trazado 321" d="M30.563,136.663,51.119,119.6l11.806,13.268-1.445,6.5-25.7,24.2a17.857,17.857,0,0,1-8.073-9.858c-2.555-7.285,2.857-17.041,2.857-17.041" transform="translate(272.035 97.773)" fill="#ffc09d"/>
  <path id="Trazado_322" data-name="Trazado 322" d="M.783,140.973c-.249-.38-2.952-9.469,3.4-16.348s12.454-9.744,16.085-11.908,10.818-9.755,12.419-8.308,2.49,3.8.818,6.959-9.667,6.863-9.382,10.921a3,3,0,0,0,3.219,2.786s14.026-.725,19.814-1.916,11.167-.7,11.1,1.356-1.045,3.292-5.838,4.264-12.7,1.592-12.97,2.748,1.423,1.674,4.224,1.141,16.112-2.1,17.2-.691a3.025,3.025,0,0,1-1.105,4.527l-3,1.476s2.112,2.308.765,3.9-4.836,1.487-4.836,1.487l-17.708,1.567s-.883,1.183-.294,1.852,14.289-1.961,14.567-.46,1.572,2.065-2.446,3.559-14.4,2.714-18.253,2.143S9,152.585,9,152.585Z" transform="translate(322.609 85.208)" fill="#ffc09d"/>
  <path id="Trazado_323" data-name="Trazado 323" d="M100.745,69.113c-.105.122,1.35,1.545,3.693,3.842s5.549,5.5,8.946,9.164c.716.78,1.416,1.545,2.092,2.283l.451.493.405-.52C118.964,81,121.24,78,122.83,75.82s2.5-3.533,2.385-3.62-1.216,1.11-2.963,3.166-4.131,4.969-6.8,8.317l.856-.025-2.092-2.31a121.134,121.134,0,0,0-9.235-8.98c-2.492-2.157-4.138-3.368-4.237-3.253" transform="translate(75.751 56.496)" fill="#1a2e35"/>
  <path id="Trazado_324" data-name="Trazado 324" d="M68.632,91.263a9.559,9.559,0,0,0-.607,2.3c-.324,1.492-.716,3.664-1.149,6.358-.869,5.387-1.788,12.87-2.554,21.15S63,136.855,62.575,142.284q-.273,3.781-.463,6.432a9.715,9.715,0,0,0-.033,2.375,9.565,9.565,0,0,0,.473-2.328c.233-1.507.513-3.7.823-6.4.625-5.416,1.314-12.913,2.079-21.187s1.554-15.743,2.217-21.143q.463-3.76.791-6.4a9.636,9.636,0,0,0,.171-2.37" transform="translate(202.666 74.61)" fill="#1a2e35"/>
  <path id="Trazado_325" data-name="Trazado 325" d="M135.12,89.182a14.279,14.279,0,0,0-.4,2.888c-.189,1.867-.387,4.573-.563,7.919-.371,6.694-.565,15.952-.589,26.168,0,10.1,0,19.236,0,26.159,0,3.173-.005,5.831-.007,7.926a14.385,14.385,0,0,0,.127,2.913,14.432,14.432,0,0,0,.314-2.9c.133-1.87.256-4.578.367-7.926.225-6.7.309-15.952.331-26.17s.091-19.455.256-26.141c.08-3.172.149-5.829.2-7.922a14.426,14.426,0,0,0-.038-2.915" transform="translate(6.135 72.909)" fill="#1a2e35"/>
  <path id="Trazado_326" data-name="Trazado 326" d="M41.5,155.835c.173.018.471-2.212,1.147-5.758a45.078,45.078,0,0,1,4.438-13.215,24.577,24.577,0,0,1,9.609-9.749c3.153-1.679,5.443-1.887,5.4-2.1a3.788,3.788,0,0,0-1.6.069A15.71,15.71,0,0,0,56.34,126.4,23.448,23.448,0,0,0,46.1,136.312a39.353,39.353,0,0,0-4.237,13.635c-.482,3.62-.494,5.876-.356,5.889" transform="translate(246.674 102.161)" fill="#1a2e35"/>
  <path id="Trazado_327" data-name="Trazado 327" d="M45.261,132.792c.234.267,3.548-3.141,8.924-4.931,5.347-1.876,10.053-1.21,10.074-1.563.122-.258-4.775-1.483-10.442.491-5.689,1.908-8.811,5.876-8.557,6" transform="translate(237.571 102.751)" fill="#1a2e35"/>
  <path id="Trazado_328" data-name="Trazado 328" d="M100.657,254.348a11.3,11.3,0,0,0,.122-1.858q.046-1.979.125-5.329c.095-4.736.227-11.4.389-19.593.391-16.639.925-39.445,1.516-64.64.578-25.252.921-48.118.892-64.672,0-8.275-.085-14.973-.193-19.6q-.1-3.351-.158-5.329a11.3,11.3,0,0,0-.133-1.856,11.626,11.626,0,0,0-.1,1.859q-.019,1.979-.055,5.329c-.04,4.736-.1,11.4-.169,19.593-.174,16.545-.645,39.4-1.223,64.65s-1.054,48.1-1.183,64.654c-.08,8.275-.075,14.973-.029,19.6q.055,3.351.087,5.331a11.35,11.35,0,0,0,.107,1.858" transform="translate(97.834 58.431)" fill="#1a2e35"/>
  <path id="Trazado_329" data-name="Trazado 329" d="M46.411,128.6c-.089-.118-1.621,1.123-3,3.871a19.463,19.463,0,0,0-1.75,5.074,21.294,21.294,0,0,0-.089,6.583,17.913,17.913,0,0,0,1.927,6.318,12.483,12.483,0,0,0,3.6,4.048c2.577,1.808,4.64,1.774,4.616,1.667.06-.2-1.863-.46-4.131-2.3a12.679,12.679,0,0,1-3.164-3.908,18.3,18.3,0,0,1-1.721-5.969,22.355,22.355,0,0,1-.007-6.252,21.632,21.632,0,0,1,1.449-4.916,46.564,46.564,0,0,1,2.276-4.211" transform="translate(257.188 105.125)" fill="#1a2e35"/>
  <path id="Trazado_330" data-name="Trazado 330" d="M162.736,157.479c.027.065.525-.053,1.374-.411a15.265,15.265,0,0,0,3.344-2.012,18.02,18.02,0,0,0,4.524-23.439,15.325,15.325,0,0,0-2.356-3.113c-.654-.647-1.072-.941-1.121-.891-.153.138,1.332,1.543,2.772,4.387a18.3,18.3,0,0,1-4.329,22.437c-2.4,2.1-4.3,2.855-4.208,3.041" transform="translate(-86.163 104.322)" fill="#1a2e35"/>
  <path id="Trazado_331" data-name="Trazado 331" d="M80.62,116.64a18.319,18.319,0,0,0,2.843,1.665c1.863,1.011,4.587,2.414,7.979,4.1,6.781,3.375,16.261,7.819,26.9,12.328s20.441,8.219,27.584,10.738c3.57,1.261,6.474,2.243,8.5,2.875a18.147,18.147,0,0,0,3.175.883,18.344,18.344,0,0,0-3.028-1.3l-8.366-3.212c-7.063-2.708-16.786-6.532-27.417-11.029s-20.14-8.822-27-12.008l-8.128-3.771a18.461,18.461,0,0,0-3.041-1.269" transform="translate(79.944 95.35)" fill="#1a2e35"/>
  <path id="Trazado_332" data-name="Trazado 332" d="M186.183,113.881c-.133.131.823,1.051,2.045,2.663a7.614,7.614,0,0,1,1.4,3.119c.267,1.28.249,2.781.467,4.417a10.756,10.756,0,0,0,4.24,7.152c1.772,1.274,3.144,1.472,3.17,1.356.073-.178-1.154-.643-2.666-1.981a11.057,11.057,0,0,1-3.62-6.685,43.993,43.993,0,0,0-.569-4.486,7.7,7.7,0,0,0-1.8-3.393c-1.469-1.583-2.583-2.25-2.67-2.161" transform="translate(-151.805 93.093)" fill="#ff9b6c"/>
  <path id="Trazado_333" data-name="Trazado 333" d="M2.495,124.08c0,.305,5.54.6,12.366.267s12.319-1.134,12.286-1.438-5.545-.013-12.341.305-12.31.545-12.312.865" transform="translate(352.387 100.371)" fill="#ff9b6c"/>
  <path id="Trazado_334" data-name="Trazado 334" d="M19.677,131.471c.027.116,1.32-.1,2.883-1.425a9.074,9.074,0,0,0,3.128-7.1,22.333,22.333,0,0,0-.769-4.188,12.031,12.031,0,0,1-.42-3.235,10.806,10.806,0,0,1,.691-2.924c-.067-.127-1.216.765-1.489,2.855a10.656,10.656,0,0,0,.194,3.52,28.3,28.3,0,0,1,.658,4.015,9.126,9.126,0,0,1-2.546,6.47c-1.283,1.354-2.41,1.834-2.33,2.007" transform="translate(322.621 92.046)" fill="#ff9b6c"/>
  <path id="Trazado_335" data-name="Trazado 335" d="M220.409,125.2c-.025-.313-5.927-.076-13.179.529s-13.113,1.345-13.086,1.658,5.925.076,13.179-.527,13.111-1.347,13.086-1.659" transform="translate(-189.197 102.242)" fill="#ff9b6c"/>
  <path id="Trazado_336" data-name="Trazado 336" d="M81.767,71.646c-.142.065.827,2.521,2.508,6.438q.657,1.513,1.387,3.2a35.863,35.863,0,0,0,1.748,3.7,2.379,2.379,0,0,0,2.341,1.138,5.885,5.885,0,0,0,2.2-1.129q1.9-1.306,3.913-2.684c5.354-3.691,10.163-7.086,13.613-9.589s5.54-4.117,5.451-4.246-2.339,1.25-5.905,3.584-8.45,5.625-13.8,9.317l-3.9,2.7a5.154,5.154,0,0,1-1.748.974,1.309,1.309,0,0,1-1.314-.672C87,82.082,85.951,79.608,85,77.749c-1.868-3.831-3.1-6.169-3.237-6.1" transform="translate(120.548 55.97)" fill="#1a2e35"/>
</svg>
