<svg xmlns="http://www.w3.org/2000/svg" xmlns:xlink="http://www.w3.org/1999/xlink" width="241.976" height="125.862" viewBox="0 0 241.976 125.862">
  <defs>
    <clipPath id="clip-path">
      <rect id="Rectángulo_116" data-name="Rectángulo 116" width="58.166" height="49.798" fill="none"/>
    </clipPath>
  </defs>
  <g id="Grupo_111" data-name="Grupo 111" transform="translate(-1203 -317.312)">
    <g id="Grupo_68" data-name="Grupo 68" transform="translate(5 44)">
      <g id="Grupo_61" data-name="Grupo 61" transform="translate(-1 -33.344)">
        <path id="Trazado_275" data-name="Trazado 275" d="M8.935,48.933q-.249.606-.493,1.313A16.916,16.916,0,0,1,5.3,50.58a7.086,7.086,0,0,1-2.324-.372A4.106,4.106,0,0,1,1.2,49.059a3.536,3.536,0,0,1-.858-1.831A6.149,6.149,0,0,1,.432,44.97a8.485,8.485,0,0,1,.963-2.483A6.99,6.99,0,0,1,3.144,40.46a7.36,7.36,0,0,1,2.395-1.246,9.078,9.078,0,0,1,2.7-.414,13.481,13.481,0,0,1,2.859.3q-.082.424-.183,1.3a10.1,10.1,0,0,0-1.529-.381,8.565,8.565,0,0,0-1.241-.1,6.78,6.78,0,0,0-2.007.306,5.717,5.717,0,0,0-1.852.974,5.94,5.94,0,0,0-1.445,1.642,6.564,6.564,0,0,0-.812,2.028,5.455,5.455,0,0,0-.093,1.856,2.891,2.891,0,0,0,.613,1.484,3.187,3.187,0,0,0,1.289.928A4.931,4.931,0,0,0,5.7,49.46a12.253,12.253,0,0,0,3.231-.527" transform="translate(1199 306.656)" fill="#009374"/>
        <path id="Trazado_276" data-name="Trazado 276" d="M19.466,38.8a7.173,7.173,0,0,1,2.318.359,3.82,3.82,0,0,1,1.745,1.187,3.671,3.671,0,0,1,.836,1.856,6.366,6.366,0,0,1-.109,2.232,8.862,8.862,0,0,1-.936,2.476,6.8,6.8,0,0,1-1.691,2.014,7.06,7.06,0,0,1-2.36,1.242,9.064,9.064,0,0,1-2.7.414,7.565,7.565,0,0,1-2.421-.376,4,4,0,0,1-1.794-1.158,3.5,3.5,0,0,1-.827-1.84,6.427,6.427,0,0,1,.1-2.245,8.294,8.294,0,0,1,.985-2.5A7.119,7.119,0,0,1,16.769,39.2a9.3,9.3,0,0,1,2.7-.4m-.332,1.12a6.371,6.371,0,0,0-2,.322,5.314,5.314,0,0,0-1.809,1.031,6.044,6.044,0,0,0-1.361,1.671,7.207,7.207,0,0,0-.755,2.005,5.144,5.144,0,0,0-.072,1.858,2.9,2.9,0,0,0,.638,1.483,3,3,0,0,0,1.329.881,5.389,5.389,0,0,0,1.788.288,6.366,6.366,0,0,0,1.953-.309,5.13,5.13,0,0,0,1.76-.981,5.614,5.614,0,0,0,1.313-1.625,7.4,7.4,0,0,0,.741-2,6.021,6.021,0,0,0,.116-1.883,2.948,2.948,0,0,0-.586-1.533,2.782,2.782,0,0,0-1.29-.923,5.165,5.165,0,0,0-1.762-.288" transform="translate(1199 306.656)" fill="#009374"/>
        <path id="Trazado_277" data-name="Trazado 277" d="M23.351,50.4l.666-2.324,1.737-6.789.316-1.321c.094-.418.167-.744.217-.978q.636.007,1.062.008.348,0,.98-.008l.616,1.471L32.8,48.791l2.445-9.807.758.008.752-.008-.81,2.926-1.328,5.159L33.808,50.4q-.5-.017-.984-.017-.443,0-1.033.017l-.523-1.229L27.3,40.681q-.134.468-.382,1.471l-1.5,5.912L24.878,50.4q-.552-.017-.739-.017-.136,0-.788.017" transform="translate(1199 306.656)" fill="#009374"/>
        <path id="Trazado_278" data-name="Trazado 278" d="M43.243,46.721a2.039,2.039,0,0,0-.076-.506,2.617,2.617,0,0,0-.237-.551,4.2,4.2,0,0,0-.417-.611,5.614,5.614,0,0,0-.478-.526l-.514-.477q-.551-.5-.8-.756a3.248,3.248,0,0,1-.4-.469,1.1,1.1,0,0,1-.177-.372.762.762,0,0,1,0-.326.935.935,0,0,1,.569-.6,2.614,2.614,0,0,1,1.158-.242,5.808,5.808,0,0,1,1.094.121,6.7,6.7,0,0,1,1.345.431q.127-1.2.2-1.685c.045-.32.1-.673.166-1.056a15.619,15.619,0,0,0-3.076-.327,9.343,9.343,0,0,0-1.452.112,5.3,5.3,0,0,0-1.389.423,4.234,4.234,0,0,0-1.131.735,4.1,4.1,0,0,0-.747.916,3.319,3.319,0,0,0-.4,1,2.683,2.683,0,0,0-.057.807,2.209,2.209,0,0,0,.209.748,3.749,3.749,0,0,0,.538.794q.178.208.644.677l1.318,1.371a1.65,1.65,0,0,1,.267.355.877.877,0,0,1,.1.293.843.843,0,0,1-.015.272.9.9,0,0,1-.576.631,3.079,3.079,0,0,1-1.231.213,5.8,5.8,0,0,1-1.28-.163,7.652,7.652,0,0,1-1.584-.581q-.083,1.071-.351,2.851a18.561,18.561,0,0,0,3.412.393,8.552,8.552,0,0,0,1.743-.176,5.487,5.487,0,0,0,1.614-.614A4.174,4.174,0,0,0,42.513,48.7a3.632,3.632,0,0,0,.673-1.433,2.4,2.4,0,0,0,.057-.548" transform="translate(1199 306.656)" fill="#114c92"/>
        <path id="Trazado_279" data-name="Trazado 279" d="M69.99,41.061a2.032,2.032,0,0,0-.209-.764,2.008,2.008,0,0,0-.473-.59,2.589,2.589,0,0,0-.789-.447,4.213,4.213,0,0,0-1.115-.242q-.837-.084-1.931-.084-.932,0-1.922.038c-.661.025-1.456.037-1.912.037q-.658,0-1.721-.025c-.145.68-2.357,9.4-2.462,9.745L56.421,42.47l-.505-3.486c-.686.011-3.426.011-4.427,0-.352.5-1.483,2.065-1.483,2.065L43.85,49.192l-.966,1.2c.966-.011,2.988-.011,4.047,0q1.172-1.771,2.228-3.243h4.3a31.335,31.335,0,0,1,.393,3.243c.932-.011,2.582-.013,3.078-.008h.83c.428-.005,1.862,0,2.813.009q.531-2.373,1.14-4.84t1.085-4.18q.429-.009.752-.021t.622-.012a4.364,4.364,0,0,1,1.276.134.871.871,0,0,1,.533.4.931.931,0,0,1,.062.631,1.766,1.766,0,0,1-.434.811,2.024,2.024,0,0,1-.89.568,3.648,3.648,0,0,1-1.172.184,4.852,4.852,0,0,1-.888-.083l.378,2.366q.174,1.069.253,1.663c.03.179.059.432.086.761q.108,1.179.152,1.613c.937-.011,3.212-.011,4.15,0-.065-.312-.111-.521-.14-.627l-1.052-4.176a8.962,8.962,0,0,0,1.466-.64,4.1,4.1,0,0,0,.945-.744,4,4,0,0,0,.653-.92,4.264,4.264,0,0,0,.369-1.049,4.926,4.926,0,0,0,.068-1.178M50.711,44.719l.878-1.235q.56-.785,1.385-2.011.029.3.392,3.246Z" transform="translate(1199 306.656)" fill="#114c92"/>
        <path id="Trazado_280" data-name="Trazado 280" d="M1.531,56.256l.27.129a2.335,2.335,0,0,1-.3.963.639.639,0,0,1-.539.331.656.656,0,0,1-.535-.255,1.78,1.78,0,0,1-.315-.738A4.812,4.812,0,0,1,0,55.649a4.076,4.076,0,0,1,.121-1.055,1.558,1.558,0,0,1,.346-.683.673.673,0,0,1,.494-.234.613.613,0,0,1,.514.3,1.964,1.964,0,0,1,.291.832l-.266.119a1.558,1.558,0,0,0-.205-.616.4.4,0,0,0-.339-.192.471.471,0,0,0-.393.214,1.35,1.35,0,0,0-.221.574,4.209,4.209,0,0,0-.064.743,4.368,4.368,0,0,0,.075.862,1.2,1.2,0,0,0,.236.551.46.46,0,0,0,.346.182.45.45,0,0,0,.383-.249,1.768,1.768,0,0,0,.213-.736" transform="translate(1199 306.656)" fill="#114c92"/>
        <path id="Trazado_281" data-name="Trazado 281" d="M1.977,56.211A2.28,2.28,0,0,1,2.2,55.057a.546.546,0,0,1,.464-.311.569.569,0,0,1,.5.378,2.338,2.338,0,0,1,.193,1.048,3.348,3.348,0,0,1-.085.851,1.125,1.125,0,0,1-.249.482.486.486,0,0,1-.356.171.569.569,0,0,1-.5-.377,2.478,2.478,0,0,1-.191-1.088m.257,0a2,2,0,0,0,.124.806c.082.179.186.269.311.269s.227-.09.31-.27a2.075,2.075,0,0,0,.123-.821,1.942,1.942,0,0,0-.124-.788c-.083-.178-.186-.268-.309-.268s-.229.089-.311.267a1.989,1.989,0,0,0-.124.805" transform="translate(1199 306.656)" fill="#114c92"/>
        <path id="Trazado_282" data-name="Trazado 282" d="M3.621,57.613v-2.8h.224V55.2a.922.922,0,0,1,.184-.332.352.352,0,0,1,.263-.125.332.332,0,0,1,.269.129.8.8,0,0,1,.148.362q.176-.49.456-.491a.366.366,0,0,1,.337.231,1.627,1.627,0,0,1,.118.711v1.925H5.372V55.847a2.332,2.332,0,0,0-.025-.411.437.437,0,0,0-.088-.2.188.188,0,0,0-.15-.076.3.3,0,0,0-.258.2,1.434,1.434,0,0,0-.1.63v1.629H4.5V55.791a1.417,1.417,0,0,0-.061-.475.21.21,0,0,0-.2-.158.258.258,0,0,0-.2.1.693.693,0,0,0-.13.309,3.309,3.309,0,0,0-.04.586v1.455Z" transform="translate(1199 306.656)" fill="#114c92"/>
        <path id="Trazado_283" data-name="Trazado 283" d="M5.961,53.743h.25v.546h-.25Zm0,1.066h.25v2.8h-.25Z" transform="translate(1199 306.656)" fill="#114c92"/>
        <path id="Trazado_284" data-name="Trazado 284" d="M6.461,56.776l.247-.074a.959.959,0,0,0,.116.433.3.3,0,0,0,.266.15.28.28,0,0,0,.256-.133.574.574,0,0,0,.083-.313.4.4,0,0,0-.073-.253.83.83,0,0,0-.256-.161,1.727,1.727,0,0,1-.381-.228.6.6,0,0,1-.161-.267,1.211,1.211,0,0,1-.055-.376,1.285,1.285,0,0,1,.045-.348.814.814,0,0,1,.123-.265A.493.493,0,0,1,6.83,54.8a.44.44,0,0,1,.216-.056.5.5,0,0,1,.3.1.56.56,0,0,1,.194.257,1.671,1.671,0,0,1,.086.434l-.245.064a.714.714,0,0,0-.1-.338.256.256,0,0,0-.226-.122.276.276,0,0,0-.246.109.466.466,0,0,0-.043.419.287.287,0,0,0,.1.127c.025.018.1.058.221.122a2.268,2.268,0,0,1,.37.22.559.559,0,0,1,.165.25,1.187,1.187,0,0,1,.06.406,1.365,1.365,0,0,1-.073.447.72.72,0,0,1-.211.326.474.474,0,0,1-.311.114.5.5,0,0,1-.439-.227,1.49,1.49,0,0,1-.192-.673" transform="translate(1199 306.656)" fill="#114c92"/>
        <path id="Trazado_285" data-name="Trazado 285" d="M7.954,53.743H8.2v.546h-.25Zm0,1.066H8.2v2.8h-.25Z" transform="translate(1199 306.656)" fill="#114c92"/>
        <path id="Trazado_286" data-name="Trazado 286" d="M8.46,56.211a2.276,2.276,0,0,1,.228-1.153.546.546,0,0,1,.464-.312.569.569,0,0,1,.5.379,2.332,2.332,0,0,1,.194,1.047,3.335,3.335,0,0,1-.086.851,1.119,1.119,0,0,1-.249.482.486.486,0,0,1-.356.172.568.568,0,0,1-.5-.378,2.476,2.476,0,0,1-.191-1.088m.257,0a2.006,2.006,0,0,0,.124.807c.082.178.186.268.311.268s.227-.09.31-.269a2.081,2.081,0,0,0,.123-.821,1.948,1.948,0,0,0-.124-.789q-.125-.267-.309-.267c-.125,0-.229.088-.311.266a1.992,1.992,0,0,0-.124.805m.3-1.75.185-.739h.328l-.306.739Z" transform="translate(1199 306.656)" fill="#114c92"/>
        <path id="Trazado_287" data-name="Trazado 287" d="M10.1,57.613v-2.8h.225v.4q.162-.462.47-.462a.378.378,0,0,1,.245.091.545.545,0,0,1,.167.239,1.46,1.46,0,0,1,.078.351c.009.088.014.242.014.462v1.724h-.25v-1.7a2.423,2.423,0,0,0-.029-.435.5.5,0,0,0-.1-.23.225.225,0,0,0-.174-.085.328.328,0,0,0-.276.192,1.58,1.58,0,0,0-.116.732v1.531Z" transform="translate(1199 306.656)" fill="#114c92"/>
        <path id="Trazado_288" data-name="Trazado 288" d="M12.444,57.613v-3.87h.277l1.069,3.038V53.743h.259v3.87h-.277L12.7,54.571v3.042Z" transform="translate(1199 306.656)" fill="#114c92"/>
        <path id="Trazado_289" data-name="Trazado 289" d="M15.4,57.267a1.107,1.107,0,0,1-.268.317.458.458,0,0,1-.275.093.411.411,0,0,1-.374-.226,1.143,1.143,0,0,1-.131-.577A1.388,1.388,0,0,1,14.4,56.5a.792.792,0,0,1,.13-.272.564.564,0,0,1,.18-.157A1.1,1.1,0,0,1,14.935,56a1.381,1.381,0,0,0,.446-.163c0-.066,0-.107,0-.125a.853.853,0,0,0-.07-.408.311.311,0,0,0-.285-.162.3.3,0,0,0-.261.118.984.984,0,0,0-.124.415l-.245-.063a1.793,1.793,0,0,1,.11-.482.624.624,0,0,1,.221-.282.578.578,0,0,1,.335-.1.518.518,0,0,1,.307.084.511.511,0,0,1,.174.213,1.118,1.118,0,0,1,.077.323c.009.081.013.227.013.438v.634q0,.663.016.838a1.811,1.811,0,0,0,.063.337h-.261a1.729,1.729,0,0,1-.05-.346m-.021-1.061a1.184,1.184,0,0,1-.409.179.618.618,0,0,0-.218.1.343.343,0,0,0-.1.155.7.7,0,0,0-.035.225.6.6,0,0,0,.076.317.241.241,0,0,0,.221.127.343.343,0,0,0,.257-.12.745.745,0,0,0,.166-.329,2.09,2.09,0,0,0,.04-.475Z" transform="translate(1199 306.656)" fill="#114c92"/>
        <path id="Trazado_290" data-name="Trazado 290" d="M16.953,56.586l.246.061a1.753,1.753,0,0,1-.206.756.48.48,0,0,1-.408.274A.553.553,0,0,1,16.1,57.3a2.51,2.51,0,0,1-.184-1.078,3.527,3.527,0,0,1,.079-.8,1.093,1.093,0,0,1,.241-.511.482.482,0,0,1,.352-.17.457.457,0,0,1,.393.231,1.451,1.451,0,0,1,.2.656l-.243.072a1.072,1.072,0,0,0-.123-.426.252.252,0,0,0-.213-.142c-.126,0-.228.085-.307.257a2.079,2.079,0,0,0-.118.815,2.163,2.163,0,0,0,.114.821c.076.171.175.256.3.256a.286.286,0,0,0,.246-.172,1.289,1.289,0,0,0,.125-.528" transform="translate(1199 306.656)" fill="#114c92"/>
        <path id="Trazado_291" data-name="Trazado 291" d="M17.383,53.743h.25v.546h-.25Zm0,1.066h.25v2.8h-.25Z" transform="translate(1199 306.656)" fill="#114c92"/>
        <path id="Trazado_292" data-name="Trazado 292" d="M17.89,56.211a2.28,2.28,0,0,1,.228-1.154.546.546,0,0,1,.464-.311.569.569,0,0,1,.5.378,2.338,2.338,0,0,1,.193,1.048,3.348,3.348,0,0,1-.085.851,1.125,1.125,0,0,1-.249.482.486.486,0,0,1-.356.171.569.569,0,0,1-.5-.377,2.479,2.479,0,0,1-.191-1.088m.257,0a2,2,0,0,0,.124.806c.082.179.186.269.311.269s.227-.09.31-.27a2.075,2.075,0,0,0,.123-.821,1.942,1.942,0,0,0-.124-.788c-.083-.178-.186-.268-.309-.268s-.229.089-.311.267a1.989,1.989,0,0,0-.124.805" transform="translate(1199 306.656)" fill="#114c92"/>
        <path id="Trazado_293" data-name="Trazado 293" d="M19.534,57.613v-2.8h.225v.4q.162-.462.47-.462a.378.378,0,0,1,.245.091.545.545,0,0,1,.167.239,1.46,1.46,0,0,1,.078.351c.009.088.014.242.014.462v1.724h-.25v-1.7a2.423,2.423,0,0,0-.029-.435.5.5,0,0,0-.1-.23.225.225,0,0,0-.174-.085.328.328,0,0,0-.276.192,1.58,1.58,0,0,0-.116.732v1.531Z" transform="translate(1199 306.656)" fill="#114c92"/>
        <path id="Trazado_294" data-name="Trazado 294" d="M22.049,57.267a1.124,1.124,0,0,1-.269.317.458.458,0,0,1-.275.093.412.412,0,0,1-.374-.226A1.143,1.143,0,0,1,21,56.874a1.349,1.349,0,0,1,.05-.377.774.774,0,0,1,.129-.272.575.575,0,0,1,.18-.157A1.118,1.118,0,0,1,21.581,56a1.4,1.4,0,0,0,.447-.163v-.125a.853.853,0,0,0-.07-.408.311.311,0,0,0-.284-.162.3.3,0,0,0-.262.118.984.984,0,0,0-.124.415l-.245-.063a1.793,1.793,0,0,1,.11-.482.624.624,0,0,1,.221-.282.578.578,0,0,1,.335-.1.487.487,0,0,1,.481.3,1.118,1.118,0,0,1,.077.323c.009.081.013.227.013.438v.634q0,.663.016.838a1.811,1.811,0,0,0,.063.337H22.1a1.734,1.734,0,0,1-.049-.346m-.021-1.061a1.2,1.2,0,0,1-.409.179.616.616,0,0,0-.219.1.343.343,0,0,0-.1.155.7.7,0,0,0-.035.225.593.593,0,0,0,.077.317.239.239,0,0,0,.22.127.341.341,0,0,0,.257-.12.735.735,0,0,0,.166-.329,2.079,2.079,0,0,0,.041-.475Z" transform="translate(1199 306.656)" fill="#114c92"/>
        <rect id="Rectángulo_112" data-name="Rectángulo 112" width="0.25" height="3.87" transform="translate(1221.631 360.399)" fill="#114c92"/>
        <path id="Trazado_295" data-name="Trazado 295" d="M24.955,57.613v-.354c-.094.278-.232.418-.413.418a.42.42,0,0,1-.325-.185,1.337,1.337,0,0,1-.229-.517,3.217,3.217,0,0,1-.081-.761,3.568,3.568,0,0,1,.074-.762,1.239,1.239,0,0,1,.221-.524.421.421,0,0,1,.329-.182.319.319,0,0,1,.237.107.8.8,0,0,1,.17.279V53.743h.249v3.87Zm-.791-1.4a2.08,2.08,0,0,0,.119.805c.08.178.174.267.283.267s.2-.085.278-.255a1.984,1.984,0,0,0,.115-.778,2.254,2.254,0,0,0-.117-.844q-.117-.27-.288-.27c-.111,0-.2.087-.278.259a2.19,2.19,0,0,0-.112.816" transform="translate(1199 306.656)" fill="#114c92"/>
        <path id="Trazado_296" data-name="Trazado 296" d="M26.558,56.71l.259.061a1.556,1.556,0,0,1-.227.668.5.5,0,0,1-.422.238.576.576,0,0,1-.514-.379,2.428,2.428,0,0,1-.189-1.063,2.555,2.555,0,0,1,.191-1.1q.192-.392.5-.391c.2,0,.358.127.483.383a2.5,2.5,0,0,1,.188,1.077c0,.028,0,.07,0,.126h-1.1a1.72,1.72,0,0,0,.138.708c.082.164.185.246.308.246a.284.284,0,0,0,.235-.137,1.157,1.157,0,0,0,.154-.439m-.821-.768h.824a1.562,1.562,0,0,0-.1-.531c-.079-.183-.182-.274-.309-.274a.339.339,0,0,0-.29.219,1.341,1.341,0,0,0-.13.586" transform="translate(1199 306.656)" fill="#114c92"/>
        <rect id="Rectángulo_113" data-name="Rectángulo 113" width="0.25" height="3.87" transform="translate(1226.094 360.399)" fill="#114c92"/>
        <path id="Trazado_297" data-name="Trazado 297" d="M28.4,56.37l.254-.042a1.782,1.782,0,0,0,.084.476.669.669,0,0,0,.2.3.477.477,0,0,0,.313.115.446.446,0,0,0,.272-.087.513.513,0,0,0,.176-.239.932.932,0,0,0,.058-.331.842.842,0,0,0-.056-.319.528.528,0,0,0-.183-.228,2.518,2.518,0,0,0-.363-.188,1.386,1.386,0,0,1-.393-.242.91.91,0,0,1-.218-.36,1.545,1.545,0,0,1-.071-.482,1.683,1.683,0,0,1,.087-.548.816.816,0,0,1,.256-.387.591.591,0,0,1,.374-.132.621.621,0,0,1,.4.139.861.861,0,0,1,.266.408,1.962,1.962,0,0,1,.1.61l-.258.036a1.166,1.166,0,0,0-.141-.554.444.444,0,0,0-.712-.017.734.734,0,0,0-.111.411.667.667,0,0,0,.079.343.865.865,0,0,0,.406.275,1.921,1.921,0,0,1,.451.247.93.93,0,0,1,.263.4,1.656,1.656,0,0,1,.085.551,1.8,1.8,0,0,1-.094.582.955.955,0,0,1-.267.424.578.578,0,0,1-.393.152.708.708,0,0,1-.463-.153,1,1,0,0,1-.293-.46,2.231,2.231,0,0,1-.112-.7" transform="translate(1199 306.656)" fill="#114c92"/>
        <path id="Trazado_298" data-name="Trazado 298" d="M30.328,53.743h.25v.546h-.25Zm0,1.066h.25v2.8h-.25Z" transform="translate(1199 306.656)" fill="#114c92"/>
        <path id="Trazado_299" data-name="Trazado 299" d="M30.827,56.776l.247-.074a.959.959,0,0,0,.116.433.3.3,0,0,0,.266.15.28.28,0,0,0,.256-.133.574.574,0,0,0,.083-.313.4.4,0,0,0-.073-.253.83.83,0,0,0-.256-.161,1.728,1.728,0,0,1-.381-.228.6.6,0,0,1-.161-.267,1.211,1.211,0,0,1-.055-.376,1.285,1.285,0,0,1,.045-.348.814.814,0,0,1,.123-.265A.493.493,0,0,1,31.2,54.8a.44.44,0,0,1,.216-.056.5.5,0,0,1,.3.1.553.553,0,0,1,.194.257,1.671,1.671,0,0,1,.086.434l-.245.064a.714.714,0,0,0-.1-.338.256.256,0,0,0-.226-.122.276.276,0,0,0-.246.109.466.466,0,0,0-.043.419.287.287,0,0,0,.1.127c.025.018.1.058.221.122a2.268,2.268,0,0,1,.37.22.559.559,0,0,1,.165.25,1.187,1.187,0,0,1,.06.406,1.365,1.365,0,0,1-.073.447.72.72,0,0,1-.211.326.474.474,0,0,1-.311.114.5.5,0,0,1-.439-.227,1.49,1.49,0,0,1-.192-.673" transform="translate(1199 306.656)" fill="#114c92"/>
        <path id="Trazado_300" data-name="Trazado 300" d="M32.865,57.188l.036.42a.516.516,0,0,1-.189.042.27.27,0,0,1-.211-.082.468.468,0,0,1-.106-.215,3.23,3.23,0,0,1-.03-.561V55.179h-.184v-.37h.184v-.694l.249-.285v.979h.251v.37h-.251v1.639a1.539,1.539,0,0,0,.013.262.2.2,0,0,0,.043.092.106.106,0,0,0,.085.035.459.459,0,0,0,.11-.019" transform="translate(1199 306.656)" fill="#114c92"/>
        <path id="Trazado_301" data-name="Trazado 301" d="M34.088,56.71l.259.061a1.556,1.556,0,0,1-.227.668.5.5,0,0,1-.422.238.576.576,0,0,1-.514-.379,2.428,2.428,0,0,1-.189-1.063,2.555,2.555,0,0,1,.191-1.1q.192-.392.5-.391c.2,0,.358.127.483.383a2.5,2.5,0,0,1,.188,1.077c0,.028,0,.07,0,.126h-1.1a1.72,1.72,0,0,0,.138.708c.082.164.185.246.308.246a.284.284,0,0,0,.235-.137,1.157,1.157,0,0,0,.154-.439m-.821-.768h.824a1.562,1.562,0,0,0-.1-.531c-.079-.183-.182-.274-.309-.274a.339.339,0,0,0-.29.219,1.341,1.341,0,0,0-.13.586" transform="translate(1199 306.656)" fill="#114c92"/>
        <path id="Trazado_302" data-name="Trazado 302" d="M34.63,57.613v-2.8h.224V55.2a.922.922,0,0,1,.184-.332.352.352,0,0,1,.263-.125.331.331,0,0,1,.269.129.8.8,0,0,1,.148.362q.176-.49.456-.491a.366.366,0,0,1,.337.231,1.625,1.625,0,0,1,.119.711v1.925h-.249V55.847a2.462,2.462,0,0,0-.024-.411.448.448,0,0,0-.089-.2.188.188,0,0,0-.15-.076.3.3,0,0,0-.258.2,1.434,1.434,0,0,0-.1.63v1.629h-.25V55.791a1.417,1.417,0,0,0-.061-.475.211.211,0,0,0-.2-.158.257.257,0,0,0-.195.1.693.693,0,0,0-.13.309,3.31,3.31,0,0,0-.04.586v1.455Z" transform="translate(1199 306.656)" fill="#114c92"/>
        <path id="Trazado_303" data-name="Trazado 303" d="M37.932,57.267a1.107,1.107,0,0,1-.268.317.458.458,0,0,1-.275.093.411.411,0,0,1-.374-.226,1.143,1.143,0,0,1-.131-.577,1.349,1.349,0,0,1,.05-.377.774.774,0,0,1,.129-.272.564.564,0,0,1,.18-.157A1.1,1.1,0,0,1,37.465,56a1.381,1.381,0,0,0,.446-.163c0-.066,0-.107,0-.125a.853.853,0,0,0-.07-.408.311.311,0,0,0-.285-.162.3.3,0,0,0-.261.118.984.984,0,0,0-.124.415l-.245-.063a1.793,1.793,0,0,1,.11-.482.624.624,0,0,1,.221-.282.578.578,0,0,1,.335-.1.518.518,0,0,1,.307.084.511.511,0,0,1,.174.213,1.118,1.118,0,0,1,.077.323c.009.081.013.227.013.438v.634q0,.663.016.838a1.811,1.811,0,0,0,.063.337h-.261a1.729,1.729,0,0,1-.05-.346m-.021-1.061a1.184,1.184,0,0,1-.409.179.618.618,0,0,0-.218.1.343.343,0,0,0-.1.155.7.7,0,0,0-.035.225.6.6,0,0,0,.076.317.241.241,0,0,0,.221.127.343.343,0,0,0,.257-.12.745.745,0,0,0,.166-.329,2.09,2.09,0,0,0,.04-.475Z" transform="translate(1199 306.656)" fill="#114c92"/>
        <path id="Trazado_304" data-name="Trazado 304" d="M40.237,57.613v-.354c-.094.278-.232.418-.413.418a.42.42,0,0,1-.325-.185,1.337,1.337,0,0,1-.229-.517,3.217,3.217,0,0,1-.081-.761,3.634,3.634,0,0,1,.074-.762,1.239,1.239,0,0,1,.221-.524.421.421,0,0,1,.329-.182.319.319,0,0,1,.237.107.8.8,0,0,1,.17.279V53.743h.249v3.87Zm-.791-1.4a2.08,2.08,0,0,0,.119.805c.08.178.174.267.283.267s.2-.085.278-.255a1.984,1.984,0,0,0,.115-.778,2.255,2.255,0,0,0-.117-.844q-.117-.27-.288-.27c-.111,0-.2.087-.278.259a2.19,2.19,0,0,0-.112.816" transform="translate(1199 306.656)" fill="#114c92"/>
        <path id="Trazado_305" data-name="Trazado 305" d="M41.841,56.71l.259.061a1.556,1.556,0,0,1-.227.668.5.5,0,0,1-.422.238.576.576,0,0,1-.514-.379,2.428,2.428,0,0,1-.189-1.063,2.555,2.555,0,0,1,.191-1.1q.192-.392.5-.391c.2,0,.358.127.483.383a2.5,2.5,0,0,1,.188,1.077c0,.028,0,.07,0,.126h-1.1a1.72,1.72,0,0,0,.138.708c.082.164.185.246.308.246a.284.284,0,0,0,.235-.137,1.157,1.157,0,0,0,.154-.439m-.821-.768h.824a1.562,1.562,0,0,0-.1-.531c-.079-.183-.182-.274-.309-.274a.339.339,0,0,0-.29.219,1.341,1.341,0,0,0-.13.586" transform="translate(1199 306.656)" fill="#114c92"/>
        <path id="Trazado_306" data-name="Trazado 306" d="M42.792,57.614l.783-3.871h.29l.834,3.871h-.307l-.238-1.173H43.3l-.223,1.173Zm.588-1.59h.691l-.213-1.072c-.065-.325-.113-.593-.145-.8-.025.248-.062.494-.109.739Z" transform="translate(1199 306.656)" fill="#114c92"/>
        <path id="Trazado_307" data-name="Trazado 307" d="M44.851,57.613v-3.87h.25v1.388q.175-.385.442-.385a.388.388,0,0,1,.285.123.712.712,0,0,1,.173.339,2.845,2.845,0,0,1,.052.628v1.777H45.8V55.836a1.207,1.207,0,0,0-.082-.518.25.25,0,0,0-.229-.163.283.283,0,0,0-.21.11.652.652,0,0,0-.139.3,2.481,2.481,0,0,0-.042.517v1.534Z" transform="translate(1199 306.656)" fill="#114c92"/>
        <path id="Trazado_308" data-name="Trazado 308" d="M46.309,56.211a2.28,2.28,0,0,1,.228-1.154A.549.549,0,0,1,47,54.746a.571.571,0,0,1,.5.378,2.352,2.352,0,0,1,.193,1.048,3.341,3.341,0,0,1-.086.851,1.125,1.125,0,0,1-.249.482.483.483,0,0,1-.356.171.569.569,0,0,1-.5-.377,2.493,2.493,0,0,1-.191-1.088m.258,0a2,2,0,0,0,.123.806c.082.179.186.269.311.269s.228-.09.311-.27a2.078,2.078,0,0,0,.122-.821,1.945,1.945,0,0,0-.123-.788c-.083-.178-.186-.268-.31-.268s-.229.089-.311.267a1.992,1.992,0,0,0-.123.805" transform="translate(1199 306.656)" fill="#114c92"/>
        <path id="Trazado_309" data-name="Trazado 309" d="M47.951,57.613v-2.8h.225v.425a1.382,1.382,0,0,1,.159-.393.206.206,0,0,1,.161-.1.357.357,0,0,1,.257.153l-.086.441a.256.256,0,0,0-.184-.1.181.181,0,0,0-.147.094.622.622,0,0,0-.093.26,3.383,3.383,0,0,0-.042.554v1.468Z" transform="translate(1199 306.656)" fill="#114c92"/>
        <path id="Trazado_310" data-name="Trazado 310" d="M48.867,57.613v-2.8h.225v.425a1.382,1.382,0,0,1,.159-.393.206.206,0,0,1,.161-.1.357.357,0,0,1,.257.153l-.086.441a.256.256,0,0,0-.184-.1.181.181,0,0,0-.147.094.622.622,0,0,0-.093.26,3.383,3.383,0,0,0-.042.554v1.468Z" transform="translate(1199 306.656)" fill="#114c92"/>
        <path id="Trazado_311" data-name="Trazado 311" d="M49.693,56.211a2.28,2.28,0,0,1,.228-1.154.546.546,0,0,1,.464-.311.569.569,0,0,1,.5.378,2.338,2.338,0,0,1,.193,1.048,3.348,3.348,0,0,1-.085.851,1.125,1.125,0,0,1-.249.482.486.486,0,0,1-.356.171.569.569,0,0,1-.5-.377,2.479,2.479,0,0,1-.191-1.088m.257,0a2,2,0,0,0,.124.806c.082.179.186.269.311.269s.227-.09.31-.27a2.075,2.075,0,0,0,.123-.821,1.942,1.942,0,0,0-.124-.788c-.083-.178-.186-.268-.309-.268s-.229.089-.311.267a1.989,1.989,0,0,0-.124.805" transform="translate(1199 306.656)" fill="#114c92"/>
        <path id="Trazado_312" data-name="Trazado 312" d="M52.1,58.688V54.809h.228v.365a.932.932,0,0,1,.182-.321.323.323,0,0,1,.245-.107.421.421,0,0,1,.334.185,1.294,1.294,0,0,1,.219.521,3.471,3.471,0,0,1,.073.738,3.336,3.336,0,0,1-.081.775,1.272,1.272,0,0,1-.236.528.437.437,0,0,1-.326.184.31.31,0,0,1-.225-.1.778.778,0,0,1-.163-.253v1.365Zm.227-2.461a2.079,2.079,0,0,0,.114.8c.077.173.171.259.28.259s.206-.09.285-.268a2.884,2.884,0,0,0,0-1.633c-.077-.178-.171-.267-.278-.267s-.2.1-.283.284a2.161,2.161,0,0,0-.122.825" transform="translate(1199 306.656)" fill="#114c92"/>
        <path id="Trazado_313" data-name="Trazado 313" d="M54.611,57.267a1.107,1.107,0,0,1-.268.317.458.458,0,0,1-.275.093.411.411,0,0,1-.374-.226,1.143,1.143,0,0,1-.131-.577,1.388,1.388,0,0,1,.049-.377.792.792,0,0,1,.13-.272.564.564,0,0,1,.18-.157A1.1,1.1,0,0,1,54.144,56a1.381,1.381,0,0,0,.446-.163c0-.066,0-.107,0-.125a.853.853,0,0,0-.07-.408.311.311,0,0,0-.285-.162.3.3,0,0,0-.261.118.984.984,0,0,0-.124.415l-.245-.063a1.793,1.793,0,0,1,.11-.482.624.624,0,0,1,.221-.282.578.578,0,0,1,.335-.1.518.518,0,0,1,.307.084.511.511,0,0,1,.174.213,1.118,1.118,0,0,1,.077.323c.009.081.013.227.013.438v.634q0,.663.016.838a1.81,1.81,0,0,0,.063.337h-.261a1.729,1.729,0,0,1-.05-.346m-.021-1.061a1.184,1.184,0,0,1-.409.179.618.618,0,0,0-.218.1.343.343,0,0,0-.1.155.7.7,0,0,0-.035.225.6.6,0,0,0,.076.317.241.241,0,0,0,.221.127.343.343,0,0,0,.257-.12.745.745,0,0,0,.166-.329,2.09,2.09,0,0,0,.04-.475Z" transform="translate(1199 306.656)" fill="#114c92"/>
        <path id="Trazado_314" data-name="Trazado 314" d="M55.2,57.613v-2.8h.225v.425a1.382,1.382,0,0,1,.159-.393.206.206,0,0,1,.161-.1A.357.357,0,0,1,56,54.9l-.086.441a.256.256,0,0,0-.184-.1.181.181,0,0,0-.147.094.622.622,0,0,0-.093.26,3.383,3.383,0,0,0-.042.554v1.468Z" transform="translate(1199 306.656)" fill="#114c92"/>
        <path id="Trazado_315" data-name="Trazado 315" d="M57.079,57.267a1.107,1.107,0,0,1-.268.317.458.458,0,0,1-.275.093.411.411,0,0,1-.374-.226,1.143,1.143,0,0,1-.131-.577,1.388,1.388,0,0,1,.049-.377.792.792,0,0,1,.13-.272.564.564,0,0,1,.18-.157A1.1,1.1,0,0,1,56.612,56a1.381,1.381,0,0,0,.446-.163c0-.066,0-.107,0-.125a.853.853,0,0,0-.07-.408.311.311,0,0,0-.285-.162.3.3,0,0,0-.261.118.984.984,0,0,0-.124.415l-.245-.063a1.793,1.793,0,0,1,.11-.482.624.624,0,0,1,.221-.282.578.578,0,0,1,.335-.1.518.518,0,0,1,.307.084.511.511,0,0,1,.174.213,1.118,1.118,0,0,1,.077.323c.009.081.013.227.013.438v.634q0,.663.016.838a1.811,1.811,0,0,0,.063.337h-.261a1.729,1.729,0,0,1-.05-.346m-.021-1.061a1.184,1.184,0,0,1-.409.179.618.618,0,0,0-.218.1.343.343,0,0,0-.1.155.7.7,0,0,0-.035.225.6.6,0,0,0,.076.317.241.241,0,0,0,.221.127.343.343,0,0,0,.257-.12.745.745,0,0,0,.166-.329,2.091,2.091,0,0,0,.04-.475Z" transform="translate(1199 306.656)" fill="#114c92"/>
        <path id="Trazado_316" data-name="Trazado 316" d="M59.437,56.71l.258.061a1.556,1.556,0,0,1-.227.668.5.5,0,0,1-.421.238.575.575,0,0,1-.514-.379,2.412,2.412,0,0,1-.19-1.063,2.553,2.553,0,0,1,.192-1.1q.19-.392.5-.391c.2,0,.357.127.482.383a2.5,2.5,0,0,1,.188,1.077c0,.028,0,.07,0,.126H58.6a1.737,1.737,0,0,0,.138.708q.123.246.309.246a.286.286,0,0,0,.235-.137,1.193,1.193,0,0,0,.154-.439m-.821-.768h.823a1.538,1.538,0,0,0-.095-.531c-.079-.183-.182-.274-.309-.274a.339.339,0,0,0-.29.219,1.342,1.342,0,0,0-.129.586" transform="translate(1199 306.656)" fill="#114c92"/>
        <rect id="Rectángulo_114" data-name="Rectángulo 114" width="0.25" height="3.87" transform="translate(1258.972 360.399)" fill="#114c92"/>
        <path id="Trazado_317" data-name="Trazado 317" d="M61.374,57.613v-3.87h.9a.691.691,0,0,1,.414.1.71.71,0,0,1,.226.368A1.883,1.883,0,0,1,63,54.8a1.562,1.562,0,0,1-.14.695.654.654,0,0,1-.434.359.838.838,0,0,1,.163.192,3.008,3.008,0,0,1,.223.515l.355,1.053h-.339l-.27-.805q-.119-.348-.194-.533a1.14,1.14,0,0,0-.137-.259.387.387,0,0,0-.123-.1.451.451,0,0,0-.15-.018h-.313v1.718Zm.27-2.162h.579a.5.5,0,0,0,.289-.072.445.445,0,0,0,.159-.233,1.074,1.074,0,0,0,.054-.347.87.87,0,0,0-.1-.451.357.357,0,0,0-.331-.177h-.645Z" transform="translate(1199 306.656)" fill="#114c92"/>
        <path id="Trazado_318" data-name="Trazado 318" d="M64.372,56.71l.259.061a1.556,1.556,0,0,1-.227.668.5.5,0,0,1-.422.238.576.576,0,0,1-.514-.379,2.428,2.428,0,0,1-.189-1.063,2.555,2.555,0,0,1,.191-1.1q.192-.392.5-.391c.2,0,.358.127.483.383a2.5,2.5,0,0,1,.188,1.077c0,.028,0,.07,0,.126h-1.1a1.72,1.72,0,0,0,.138.708c.082.164.185.246.308.246a.284.284,0,0,0,.235-.137,1.157,1.157,0,0,0,.154-.439m-.821-.768h.824a1.562,1.562,0,0,0-.1-.531c-.079-.183-.182-.274-.309-.274a.339.339,0,0,0-.29.219,1.341,1.341,0,0,0-.13.586" transform="translate(1199 306.656)" fill="#114c92"/>
        <path id="Trazado_319" data-name="Trazado 319" d="M65.459,57.188l.036.42a.516.516,0,0,1-.189.042.27.27,0,0,1-.211-.082.468.468,0,0,1-.106-.215,3.23,3.23,0,0,1-.03-.561V55.179h-.184v-.37h.184v-.694l.249-.285v.979h.251v.37h-.251v1.639a1.539,1.539,0,0,0,.013.262.193.193,0,0,0,.043.092.106.106,0,0,0,.085.035.459.459,0,0,0,.11-.019" transform="translate(1199 306.656)" fill="#114c92"/>
        <path id="Trazado_320" data-name="Trazado 320" d="M65.674,53.743h.25v.546h-.25Zm0,1.066h.25v2.8h-.25Z" transform="translate(1199 306.656)" fill="#114c92"/>
        <path id="Trazado_321" data-name="Trazado 321" d="M66.271,57.613v-2.8H66.5v.425a1.382,1.382,0,0,1,.159-.393.206.206,0,0,1,.161-.1.357.357,0,0,1,.257.153l-.086.441a.256.256,0,0,0-.184-.1.181.181,0,0,0-.147.094.622.622,0,0,0-.093.26,3.383,3.383,0,0,0-.042.554v1.468Z" transform="translate(1199 306.656)" fill="#114c92"/>
        <path id="Trazado_322" data-name="Trazado 322" d="M67.1,56.211a2.28,2.28,0,0,1,.228-1.154.546.546,0,0,1,.464-.311.569.569,0,0,1,.5.378,2.338,2.338,0,0,1,.193,1.048,3.348,3.348,0,0,1-.085.851,1.125,1.125,0,0,1-.249.482.486.486,0,0,1-.356.171.569.569,0,0,1-.5-.377,2.479,2.479,0,0,1-.191-1.088m.257,0a2,2,0,0,0,.124.806c.082.179.186.269.311.269s.227-.09.31-.27a2.075,2.075,0,0,0,.123-.821,1.942,1.942,0,0,0-.124-.788c-.083-.178-.186-.268-.309-.268s-.229.089-.311.267a1.989,1.989,0,0,0-.124.805" transform="translate(1199 306.656)" fill="#114c92"/>
        <rect id="Rectángulo_115" data-name="Rectángulo 115" width="68.25" height="1.153" transform="translate(1199.069 358.477)" fill="#009374"/>
        <path id="Trazado_323" data-name="Trazado 323" d="M20.261,22.179,33.383,3.05,42.157,0Z" transform="translate(1199 306.656)" fill="#009374"/>
        <path id="Trazado_324" data-name="Trazado 324" d="M21.526,28.621,34.648,9.492l8.774-3.05Z" transform="translate(1199 306.656)" fill="#009374"/>
        <path id="Trazado_325" data-name="Trazado 325" d="M22.79,35.063,35.912,15.934l8.774-3.05Z" transform="translate(1199 306.656)" fill="#009374"/>
        <path id="Trazado_326" data-name="Trazado 326" d="M61.6,13.359,48.48,32.488l-8.774,3.05Z" transform="translate(1199 306.656)" fill="#114c92"/>
        <path id="Trazado_327" data-name="Trazado 327" d="M60.337,6.917,47.215,26.046,38.441,29.1Z" transform="translate(1199 306.656)" fill="#114c92"/>
        <path id="Trazado_328" data-name="Trazado 328" d="M59.072.474,45.95,19.6l-8.774,3.05Z" transform="translate(1199 306.656)" fill="#114c92"/>
      </g>
      <g id="Grupo_62" data-name="Grupo 62" transform="translate(85 -4.688)">
        <path id="Trazado_329" data-name="Trazado 329" d="M47.259,46.892v4.985h6.228v9.428h6.107V51.877h6.175V46.892Z" transform="translate(1289.207 272.276)" fill="#231f20"/>
        <path id="Trazado_330" data-name="Trazado 330" d="M45.093,61.316,38.23,46.95H29.335L22.228,61.316s7.476.04,7.554,0l2.164-5.345a8.955,8.955,0,0,1,5.6,5.345ZM32.184,55.325,34,50.8l1.387,4.526Z" transform="translate(1293.865 272.265)" fill="#231f20" fill-rule="evenodd"/>
        <path id="Trazado_331" data-name="Trazado 331" d="M16.589,47.142v4.471a1.755,1.755,0,0,0-.666-.326c-2.86-1.016-6.485-1.177-7.343-.893-.777.244-.94.752-.368,1.078.368.223,2.317.527,4.4,1.014,4.944,1.138,6.823,3.069,4.985,5.913-1.512,2.439-7.518,3.861-15.73,2.4A8.419,8.419,0,0,0,.23,60.392V55.739a6.341,6.341,0,0,1,1.469.427A20.454,20.454,0,0,0,9.1,57.4c1.144-.1,1.634-.63,1.062-1.077a40.317,40.317,0,0,0-4.574-.934C.479,54.275-.918,52.405.553,49.723c1.184-2.175,5.115-3.576,11.57-3.191a33.019,33.019,0,0,1,3.432.386,6.067,6.067,0,0,1,1.034.224" transform="translate(1298 272.355)" fill="#231f20" fill-rule="evenodd"/>
        <path id="Trazado_332" data-name="Trazado 332" d="M43.725,35.9a7.634,7.634,0,1,0-7.633-7.633A7.634,7.634,0,0,0,43.725,35.9" transform="translate(1291.285 277.161)" fill="#0075bf" fill-rule="evenodd"/>
        <path id="Trazado_333" data-name="Trazado 333" d="M23.093,35.9a7.634,7.634,0,1,0-7.633-7.633A7.634,7.634,0,0,0,23.093,35.9" transform="translate(1295.124 277.161)" fill="#0075bf" fill-rule="evenodd"/>
        <path id="Trazado_334" data-name="Trazado 334" d="M43.725,15.266a7.633,7.633,0,1,0-7.633-7.633,7.634,7.634,0,0,0,7.633,7.633" transform="translate(1291.285 281)" fill="#0075bf" fill-rule="evenodd"/>
        <path id="Trazado_335" data-name="Trazado 335" d="M23.093,15.266A7.633,7.633,0,1,0,15.46,7.633a7.634,7.634,0,0,0,7.633,7.633" transform="translate(1295.124 281)" fill="#0075bf" fill-rule="evenodd"/>
      </g>
      <g id="Grupo_64" data-name="Grupo 64" transform="translate(0 -12.161)">
        <path id="Trazado_336" data-name="Trazado 336" d="M17.11,0,15.141,3.22H41.848L39.755,0Z" transform="translate(1293.44 289.473)" fill="#028090"/>
        <path id="Trazado_337" data-name="Trazado 337" d="M22.762,56.055l1.968,3.22H47.377l2.091-3.22Z" transform="translate(1292.152 279.996)" fill="#028090"/>
        <path id="Trazado_338" data-name="Trazado 338" d="M3.6,35.776l11.715,19.38,3.838.125L5.34,32.426Z" transform="translate(1295.391 283.991)" fill="#028090"/>
        <path id="Trazado_339" data-name="Trazado 339" d="M11.47,6.425,0,25.951l1.716,3.436L15.243,6.359Z" transform="translate(1296 288.398)" fill="#028090"/>
        <path id="Trazado_340" data-name="Trazado 340" d="M47.618.108l13.744,22.9L63.2,19.778,51.392.108Z" transform="translate(1287.95 289.454)" fill="#028090"/>
        <path id="Trazado_341" data-name="Trazado 341" d="M51.686,48.94H55.4L66.9,29.3l-1.826-3.4Z" transform="translate(1287.262 285.094)" fill="#028090"/>
        <g id="Grupo_63" data-name="Grupo 63" transform="translate(1296 289.473)" clip-path="url(#clip-path)">
          <path id="Trazado_342" data-name="Trazado 342" d="M12.51,29.1c.056,1.867,1.363,4.462,3.991,4.4a5.892,5.892,0,0,0,3.535-1.3c-.227.6-.561,1.634-.971,2.757a7.868,7.868,0,0,1-3.649.651c-3.319,0-6.009-3.251-6.009-7.262a6.268,6.268,0,0,1,6.205-6.617,14.245,14.245,0,0,1,2.858.259c.012,1.162-.017,1.72-.011,2.384a4.85,4.85,0,0,0-3.086-.809c-2.292.166-2.974,2.927-2.862,5.537" transform="translate(-1.59 -3.674)" fill="#8d949a"/>
          <path id="Trazado_343" data-name="Trazado 343" d="M32.509,35.55s-2.578.824-6.534-6.944c-.887-1.883-1.439-1.313-1.439-1.313s.038,5.11.047,6.629c0,.538.7,1.265.7,1.265H22.553a3.016,3.016,0,0,0,.337-1.17c0-.4.085-6.8,0-10.11a3.261,3.261,0,0,0-.691-1.788h3.238l5.055,7.93s.545.233.476-.468c-.044-.443.168-6.514-.578-7.445h2.762a1.626,1.626,0,0,0-.593,1.339c0,.932-.051,12.076-.051,12.076" transform="translate(-3.753 -3.74)" fill="#8d949a"/>
          <path id="Trazado_344" data-name="Trazado 344" d="M44.924,31.074A3.745,3.745,0,0,0,42.387,27.8a3.8,3.8,0,0,0,1.876-2.541,3.079,3.079,0,0,0-2.607-3.141H35.743a.954.954,0,0,1,.466.73v11.5c0,.4-.466.742-.466.742h6.181c1.221,0,3.1-1.51,3-4.014m-5.653-5.747V23.849a2.136,2.136,0,0,1,1.336.166c.61.466.541.844.541,1.479a1.89,1.89,0,0,1-.813,1.579,1.356,1.356,0,0,1-1.064.16Zm1.811,7.962a3.1,3.1,0,0,1-1.811.2V28.932a2.836,2.836,0,0,1,1.555.1,2.523,2.523,0,0,1,1.187,2.117,2.642,2.642,0,0,1-.931,2.142" transform="translate(-6.043 -3.74)" fill="#8d949a"/>
          <path id="Trazado_345" data-name="Trazado 345" d="M52.53,35.575s-2.607-.627-3.079-2.035L45.622,22.119h3.454l2.475,9.272s.431,1.094.978-.6a46.524,46.524,0,0,0,1.785-7.368,1.32,1.32,0,0,0-.691-1.3h2.849Z" transform="translate(-7.713 -3.74)" fill="#8d949a"/>
        </g>
      </g>
    </g>
    <g id="Grupo_67" data-name="Grupo 67" transform="translate(-2.234 44.298)">
      <g id="Grupo_65" data-name="Grupo 65" transform="translate(231.234 35)">
        <path id="Trazado_270" data-name="Trazado 270" d="M20.513,34.563s11.466.255,11.62.23A8.78,8.78,0,0,0,41.226,26c0-4.713-3.419-8.682-9.969-8.682l-4.135,0-1.2-1.973h4.456a6.929,6.929,0,0,0,5.551-3.672l1.381-2.2.886,4.869c-.488.56-1,1.075-1.4,1.483a11.564,11.564,0,0,1,4.61,2.525A11.137,11.137,0,0,1,44.843,26c0,4.729-3.13,10.941-10.931,10.941-1.838,0-18.5-.128-18.5-.128v-1.66a2.463,2.463,0,0,0,1.608-2.475c0-1.609-.009-28.56-.009-28.56a2.49,2.49,0,0,0-1.6-2.323V.11C15.687.11,28.8,0,29.665,0a15.253,15.253,0,0,1,5.291.767,8.473,8.473,0,0,1,3.1,2.213h-4.77a6.707,6.707,0,0,0-3.244-.852H20.495Z" transform="translate(1016.006 321)" fill="#0f1176"/>
        <path id="Trazado_271" data-name="Trazado 271" d="M43.4,6.908c.971,0,7.47.013,7.683.013V8.7c-1.352.432-1.761,1.225-1.327,2.883l1.764,9.212a7.6,7.6,0,0,0-.725-.7,16.58,16.58,0,0,0-2.5-1.73l-1.755-9.6-3.135,5.128A5.731,5.731,0,0,1,39,16.815H37.551Z" transform="translate(1007.391 318.313)" fill="#0f1176"/>
        <path id="Trazado_272" data-name="Trazado 272" d="M34.43,25.18H31.673L31,26.252l-.62-1.072-4.655-8.047v6.621l4.843,7.824Z" transform="translate(1011.992 314.335)" fill="#0f1176"/>
        <path id="Trazado_273" data-name="Trazado 273" d="M9.784,6.929H6.329v1.8c1.43.561,1.647,1.328,1.459,2.239,0,0-5.581,29.265-5.852,30.507A2.092,2.092,0,0,1,0,43.133v1.805H7.006V43.157a2.179,2.179,0,0,1-1.951-2.782c.111-.5,3.254-17.87,4.715-25.982Z" transform="translate(1022 318.304)" fill="#0f1176"/>
        <path id="Trazado_274" data-name="Trazado 274" d="M60.541,57.37c0,1.643-.958,2.4-2.029,2.4v1.793h7.019v-1.78c-.932-.28-1.749-.549-2.055-2.488l-1.444-7.536a12.407,12.407,0,0,1-2.187,3.815Z" transform="translate(999.236 301.641)" fill="#0f1176"/>
      </g>
      <g id="Grupo_66" data-name="Grupo 66" transform="translate(29 18.001)">
        <path id="Trazado_346" data-name="Trazado 346" d="M26.757,19.375c0-1.722-.018-3.356.026-4.99,0-.181.352-.394.581-.521.969-.536,2.013-.96,2.919-1.587a3.881,3.881,0,0,0,1.749-3.456c-.033-1.2-.006-2.4-.006-3.675H14.056V7.328c0,1.614-.041,3.229.018,4.841a2.479,2.479,0,0,1-.839,2.076c-1.462,1.383-2.847,2.848-4.4,4.422-.033-.458-.065-.7-.065-.948,0-3.961-.014-7.922.01-11.883A8.517,8.517,0,0,1,9.04,3.753C9.682,1.3,11.3.065,14.119.04q9.065-.077,18.131,0c3.147.029,4.925,1.928,4.885,5.084a36.2,36.2,0,0,1-.291,6.3c-.818,4.27-4.037,7.044-8.512,7.744-.486.076-.976.127-1.574.2" transform="translate(1316.627 336)" fill="#293273"/>
        <path id="Trazado_347" data-name="Trazado 347" d="M30.321,8.863c0,1.73.018,3.365-.026,5,0,.175-.359.369-.582.5a38.457,38.457,0,0,0-3.427,2.065A3.313,3.313,0,0,0,25.05,19.3c.04,1.253.009,2.508.009,3.809h17.9a2.377,2.377,0,0,0,.062-.651,2.994,2.994,0,0,1,1.231-2.882c1.327-1.219,2.544-2.558,3.808-3.846l.224.1c0,.746.012,1.493,0,2.239a53.406,53.406,0,0,1-.17,5.877,4.54,4.54,0,0,1-4.873,4.233q-9.324.066-18.651,0a4.43,4.43,0,0,1-4.623-4.78,38.881,38.881,0,0,1,.283-6.57c.763-4.217,4.071-7.051,8.587-7.77.455-.072.914-.121,1.492-.2" transform="translate(1313.383 333.431)" fill="#293273"/>
        <path id="Trazado_348" data-name="Trazado 348" d="M28.25,52.487V45.634h2.761V57.727c-1.3.138-2.435.23-3.391-1.155-1.39-2.013-3.082-3.817-4.8-5.891v7.06H19.919c-.026-.272-.065-.5-.066-.724,0-3.519.015-7.038-.017-10.556-.006-.7.217-.851.9-.91a2.713,2.713,0,0,1,2.65,1.248c1.476,1.962,3.082,3.827,4.633,5.731l.235-.043" transform="translate(1313.417 322.803)" fill="#939391"/>
        <path id="Trazado_349" data-name="Trazado 349" d="M40.155,54.528c1.207.358,2.3.76,3.424.985a4.1,4.1,0,0,0,1.971-.122,1.535,1.535,0,0,0,.907-1.014c.045-.292-.43-.837-.789-.982-.885-.359-1.84-.542-2.761-.816a12.871,12.871,0,0,1-1.4-.494,2.994,2.994,0,0,1-2.023-2.89A3.254,3.254,0,0,1,41.406,46a8.4,8.4,0,0,1,6.978.068.558.558,0,0,1,.326.9c-.251.487-.433,1.011-.673,1.583a9.833,9.833,0,0,0-1.568-.576,12.626,12.626,0,0,0-2.59-.275A1.386,1.386,0,0,0,42.4,48.94c-.041.714.63,1,1.236,1.173,1.119.323,2.268.557,3.368.932,1.673.57,2.383,1.511,2.393,2.97a3.441,3.441,0,0,1-2.341,3.454,9.121,9.121,0,0,1-7.214-.539.669.669,0,0,1-.358-1.052c.249-.487.49-.979.675-1.349" transform="translate(1307.762 322.88)" fill="#939391"/>
        <path id="Trazado_350" data-name="Trazado 350" d="M9.852,54.042c.464.408.88.822,1.344,1.172.55.414.406.762-.026,1.126A6.906,6.906,0,0,1,4.027,57.5,5.721,5.721,0,0,1,.059,52.494a6.09,6.09,0,0,1,2.727-6.152,7.417,7.417,0,0,1,8.226.406c.564.474.734.853.064,1.362-.415.315-.779.7-1.153,1.039-2.963-1.759-4.844-1.71-6.233.131A4.066,4.066,0,0,0,4.1,54.433c1.575,1.489,3.656,1.371,5.751-.391" transform="translate(1319.166 322.875)" fill="#939391"/>
        <path id="Trazado_351" data-name="Trazado 351" d="M57.139,45.678h9.134v2.25h-6.2v3.157h5.48V53.4H60.021v4.354H57.139Z" transform="translate(1302.606 322.762)" fill="#939391"/>
      </g>
    </g>
  </g>
</svg>
