<svg xmlns="http://www.w3.org/2000/svg" width="256.249" height="109.596" viewBox="0 0 256.249 109.596">
  <g id="Grupo_110" data-name="Grupo 110" transform="translate(-839.375 -315)">
    <text id="UBVA_USPSS_UBD_" data-name="UBVA  USPSS  UBD
" transform="translate(869 338)" fill="#1a1e1e" font-size="22" font-family="Poppins-Bold, Poppins" font-weight="700"><tspan x="0" y="0" xml:space="preserve">UBVA  USPSS  UBD</tspan><tspan x="0" y="27"></tspan></text>
    <g id="Grupo_57" data-name="Grupo 57" transform="translate(-37.625 35.999)">
      <path id="Trazado_231" data-name="Trazado 231" d="M6.859,5.447c0-3.23,3.425-5.442,7.347-5.442a11.16,11.16,0,0,1,5.53,1.41l.432.759C19.974,3.28,19.5,5.3,19.3,5.9a23.331,23.331,0,0,1-2.709-.13,13.723,13.723,0,0,0-.629-2.884,3.6,3.6,0,0,0-2.276-.65,4.6,4.6,0,0,0-1.865.368A3.136,3.136,0,0,0,11.39,4.3c0,4.185,9,2.818,9,8.932,0,2.969-2.882,4.985-7,4.985A12.235,12.235,0,0,1,6.837,16.7c-.022-1.366,0-2.71.108-4.033a14.413,14.413,0,0,1,2.884-.129,18.024,18.024,0,0,0,.825,2.86,4.886,4.886,0,0,0,2.688.586,5.251,5.251,0,0,0,1.929-.324,2.828,2.828,0,0,0,.586-1.844c0-3.272-9-2.319-9-8.368" transform="translate(879.139 344.001)" fill="#9d2449"/>
      <path id="Trazado_232" data-name="Trazado 232" d="M21.295,15.4a32.947,32.947,0,0,0,.218-4.227V6.838a12.99,12.99,0,0,0-.369-3.924,4.825,4.825,0,0,0-2.016-1.061L19.452.335h8.454l.326,1.518-2.168.758a33.184,33.184,0,0,0-.215,4.227V8.009l7.37.108V6.838a13.031,13.031,0,0,0-.368-3.924,4.825,4.825,0,0,0-2.016-1.061L31.16.335h8.454l.326,1.518-2.168.758a32.946,32.946,0,0,0-.217,4.227v4.336a12.907,12.907,0,0,0,.369,3.924A4.82,4.82,0,0,0,39.94,16.16l-.326,1.518H31.16l-.324-1.518L33,15.4a33.2,33.2,0,0,0,.217-4.227v-.888l-7.37.151v.737a12.989,12.989,0,0,0,.368,3.924,4.835,4.835,0,0,0,2.016,1.062l-.326,1.518H19.452l-.324-1.518Z" transform="translate(882.991 344.105)" fill="#9d2449"/>
      <path id="Trazado_233" data-name="Trazado 233" d="M48.416,14.922a31.452,31.452,0,0,0,.976-3.057A26.906,26.906,0,0,1,52.318,12c.064,1.062.108,2.752.108,3.707l-.391.78a12.607,12.607,0,0,1-6.59,1.733c-5.766,0-9.321-3.338-9.321-8.8A9.516,9.516,0,0,1,45.739,0l.248.005a14.051,14.051,0,0,1,6.4,1.518l.433.759c-.238,1.322-.671,3.23-.974,4.487a23.633,23.633,0,0,1-2.71-.129,13.839,13.839,0,0,0-.846-3.209,6.09,6.09,0,0,0-5.55-.173,9.475,9.475,0,0,0-1.844,5.853c0,3.773,1.908,6.286,5.118,6.286a5.069,5.069,0,0,0,2.406-.477" transform="translate(888.314 344)" fill="#9d2449"/>
      <path id="Trazado_234" data-name="Trazado 234" d="M52.676,15.439a32.968,32.968,0,0,0,.217-4.228V6.875a12.985,12.985,0,0,0-.368-3.924A4.871,4.871,0,0,0,50.509,1.89L50.833.372H55.04c.889,0,3.641-.152,4.921-.152,4.444,0,7.177,1.821,7.177,5.636,0,3.924-2.928,6.222-7.414,6.222a17.991,17.991,0,0,1-2.494-.173,15.67,15.67,0,0,0,.326,3.274A7.138,7.138,0,0,0,60.047,16.2l-.324,1.517H50.833L50.509,16.2Zm4.553-6.005a14.528,14.528,0,0,0,2.081.173,6.055,6.055,0,0,0,2.277-.347,4.5,4.5,0,0,0,1-3.253,4.475,4.475,0,0,0-.976-3.033,3.792,3.792,0,0,0-2.19-.586,7.193,7.193,0,0,0-1.971.26,33.175,33.175,0,0,0-.218,4.227Z" transform="translate(892.819 344.069)" fill="#9d2449"/>
      <path id="Trazado_235" data-name="Trazado 235" d="M.664,22.952A2,2,0,0,1,0,22.641l.293-.653a2.02,2.02,0,0,0,.571.284,2.141,2.141,0,0,0,.662.106,1.054,1.054,0,0,0,.545-.109.333.333,0,0,0,.177-.292.281.281,0,0,0-.105-.222.815.815,0,0,0-.267-.142c-.109-.035-.256-.074-.44-.117a6.1,6.1,0,0,1-.7-.2,1.14,1.14,0,0,1-.467-.324.885.885,0,0,1-.2-.6,1.04,1.04,0,0,1,.176-.591,1.192,1.192,0,0,1,.532-.419,2.181,2.181,0,0,1,.868-.155,2.934,2.934,0,0,1,.7.085,2.058,2.058,0,0,1,.6.246l-.268.658a2.09,2.09,0,0,0-1.036-.3.963.963,0,0,0-.536.118.359.359,0,0,0-.175.31.3.3,0,0,0,.2.286,3.307,3.307,0,0,0,.611.185,5.611,5.611,0,0,1,.7.2,1.149,1.149,0,0,1,.467.32.855.855,0,0,1,.2.594,1.016,1.016,0,0,1-.18.583,1.2,1.2,0,0,1-.536.42,2.176,2.176,0,0,1-.872.154,3,3,0,0,1-.856-.12" transform="translate(877 350.015)" fill="#b38e5d"/>
      <path id="Trazado_236" data-name="Trazado 236" d="M6.266,22.3v.693H3.372V19.253H6.2v.7H4.23v.81H5.968v.674H4.23V22.3Z" transform="translate(878.056 350.03)" fill="#b38e5d"/>
      <path id="Trazado_237" data-name="Trazado 237" d="M7.457,22.824a1.861,1.861,0,0,1-.728-.688,2.014,2.014,0,0,1,0-1.993,1.864,1.864,0,0,1,.728-.689,2.16,2.16,0,0,1,1.037-.248,2.2,2.2,0,0,1,.88.172,1.75,1.75,0,0,1,.659.491l-.555.512a1.193,1.193,0,0,0-.94-.437,1.241,1.241,0,0,0-.619.152,1.075,1.075,0,0,0-.425.424,1.335,1.335,0,0,0,0,1.24,1.063,1.063,0,0,0,.425.423,1.229,1.229,0,0,0,.619.154,1.188,1.188,0,0,0,.94-.444l.555.512a1.742,1.742,0,0,1-.662.5,2.211,2.211,0,0,1-.882.171,2.143,2.143,0,0,1-1.032-.248" transform="translate(879.025 350.015)" fill="#b38e5d"/>
      <path id="Trazado_238" data-name="Trazado 238" d="M12.562,22.993l-.721-1.041h-.8v1.041H10.18V19.254H11.8a2.046,2.046,0,0,1,.863.165,1.234,1.234,0,0,1,.76,1.19,1.218,1.218,0,0,1-.77,1.182l.839,1.2Zm-.219-2.865a.912.912,0,0,0-.594-.168h-.7v1.3h.7a.906.906,0,0,0,.594-.171.675.675,0,0,0,.009-.955Z" transform="translate(880.188 350.03)" fill="#b38e5d"/>
      <path id="Trazado_239" data-name="Trazado 239" d="M16.617,22.3v.693H13.722V19.253h2.825v.7H14.581v.81h1.737v.674H14.581V22.3Z" transform="translate(881.298 350.03)" fill="#b38e5d"/>
      <path id="Trazado_240" data-name="Trazado 240" d="M17.88,19.959h-1.2v-.705h3.259v.705h-1.2v3.033H17.88Z" transform="translate(882.225 350.03)" fill="#b38e5d"/>
      <path id="Trazado_241" data-name="Trazado 241" d="M22.509,22.192H20.773l-.331.8h-.888l1.666-3.739h.855l1.672,3.739H22.84Zm-.273-.657L21.643,20.1l-.594,1.431Z" transform="translate(883.124 350.03)" fill="#b38e5d"/>
      <path id="Trazado_242" data-name="Trazado 242" d="M25.979,22.993l-.721-1.041h-.8v1.041H23.6V19.254h1.618a2.046,2.046,0,0,1,.863.165,1.234,1.234,0,0,1,.76,1.19,1.218,1.218,0,0,1-.77,1.182l.839,1.2Zm-.219-2.865a.912.912,0,0,0-.594-.168h-.7v1.3h.7a.906.906,0,0,0,.594-.171.676.676,0,0,0,.009-.956Z" transform="translate(884.391 350.03)" fill="#b38e5d"/>
      <path id="Trazado_243" data-name="Trazado 243" d="M27.82,18.437h.9l-.967.768H27.1Zm-.667,1.073h.865v3.739h-.865Z" transform="translate(885.487 349.774)" fill="#b38e5d"/>
      <path id="Trazado_244" data-name="Trazado 244" d="M31.608,22.192H29.872l-.331.8h-.888l1.666-3.739h.855l1.672,3.739h-.907Zm-.273-.657L30.742,20.1l-.594,1.431Z" transform="translate(885.974 350.03)" fill="#b38e5d"/>
      <path id="Trazado_245" data-name="Trazado 245" d="M34.4,19.253h1.7a2.387,2.387,0,0,1,1.077.232,1.741,1.741,0,0,1,.726.655,1.985,1.985,0,0,1,0,1.965,1.747,1.747,0,0,1-.726.654,2.37,2.37,0,0,1-1.077.232H34.4Zm1.656,3.028a1.254,1.254,0,0,0,.894-.311,1.241,1.241,0,0,0,0-1.694,1.261,1.261,0,0,0-.894-.313h-.791v2.318Z" transform="translate(887.774 350.03)" fill="#b38e5d"/>
      <path id="Trazado_246" data-name="Trazado 246" d="M41.208,22.3v.693H38.313V19.253h2.825v.7H39.172v.81H40.91v.674H39.172V22.3Z" transform="translate(889 350.03)" fill="#b38e5d"/>
      <path id="Trazado_247" data-name="Trazado 247" d="M46.728,19.254v3.739h-.865V21.46h-1.7v1.533H43.3V19.254h.867v1.475h1.7V19.254Z" transform="translate(890.561 350.03)" fill="#b38e5d"/>
      <path id="Trazado_248" data-name="Trazado 248" d="M49.719,22.192H47.983l-.331.8h-.888l1.666-3.739h.855l1.672,3.739H50.05Zm-.273-.657L48.853,20.1l-.594,1.431Z" transform="translate(891.646 350.03)" fill="#b38e5d"/>
      <path id="Trazado_249" data-name="Trazado 249" d="M51.578,22.824a1.861,1.861,0,0,1-.728-.688,2.014,2.014,0,0,1,0-1.993,1.864,1.864,0,0,1,.728-.689,2.16,2.16,0,0,1,1.037-.248,2.2,2.2,0,0,1,.88.172,1.75,1.75,0,0,1,.659.491l-.555.512a1.193,1.193,0,0,0-.94-.437,1.241,1.241,0,0,0-.619.152,1.075,1.075,0,0,0-.425.424,1.335,1.335,0,0,0,0,1.24,1.063,1.063,0,0,0,.425.423,1.229,1.229,0,0,0,.619.154,1.188,1.188,0,0,0,.94-.444l.555.512a1.742,1.742,0,0,1-.662.5,2.211,2.211,0,0,1-.882.171,2.143,2.143,0,0,1-1.032-.248" transform="translate(892.844 350.015)" fill="#b38e5d"/>
      <rect id="Rectángulo_108" data-name="Rectángulo 108" width="0.865" height="3.739" transform="translate(948.308 369.284)" fill="#b38e5d"/>
      <path id="Trazado_250" data-name="Trazado 250" d="M59.082,22.3v.693H56.188V19.253h2.825v.7H57.047v.81h1.737v.674H57.047V22.3Z" transform="translate(894.598 350.03)" fill="#b38e5d"/>
      <path id="Trazado_251" data-name="Trazado 251" d="M62.9,19.254v3.739h-.71l-1.865-2.271v2.271H59.47V19.254h.717l1.858,2.271V19.254Z" transform="translate(895.626 350.03)" fill="#b38e5d"/>
      <path id="Trazado_252" data-name="Trazado 252" d="M63.309,19.253h1.7a2.387,2.387,0,0,1,1.077.232,1.741,1.741,0,0,1,.726.655,1.985,1.985,0,0,1,0,1.965,1.747,1.747,0,0,1-.726.654,2.37,2.37,0,0,1-1.077.232h-1.7Zm1.656,3.028a1.254,1.254,0,0,0,.894-.311,1.241,1.241,0,0,0,0-1.694,1.261,1.261,0,0,0-.894-.313h-.791v2.318Z" transform="translate(896.828 350.03)" fill="#b38e5d"/>
      <path id="Trazado_253" data-name="Trazado 253" d="M69.762,22.192H68.026l-.331.8h-.888l1.666-3.739h.855L71,22.993h-.907Zm-.273-.657L68.9,20.1,68.3,21.535Z" transform="translate(897.924 350.03)" fill="#b38e5d"/>
      <path id="Trazado_254" data-name="Trazado 254" d="M11.067,26.548v1.325H10.2V26.537l-1.448-2.4h.918l1,1.661,1-1.661h.848Z" transform="translate(879.742 351.559)" fill="#b38e5d"/>
      <path id="Trazado_255" data-name="Trazado 255" d="M14.967,27.7a1.861,1.861,0,0,1-.728-.688,2.014,2.014,0,0,1,0-1.993,1.864,1.864,0,0,1,.728-.689A2.16,2.16,0,0,1,16,24.085a2.2,2.2,0,0,1,.88.172,1.75,1.75,0,0,1,.659.491l-.555.512a1.2,1.2,0,0,0-.94-.439,1.256,1.256,0,0,0-.619.154A1.075,1.075,0,0,0,15,25.4a1.335,1.335,0,0,0,0,1.24,1.063,1.063,0,0,0,.425.423,1.229,1.229,0,0,0,.619.154,1.188,1.188,0,0,0,.94-.444l.555.512a1.742,1.742,0,0,1-.662.5,2.211,2.211,0,0,1-.882.171,2.143,2.143,0,0,1-1.032-.248" transform="translate(881.377 351.543)" fill="#b38e5d"/>
      <path id="Trazado_256" data-name="Trazado 256" d="M20.072,27.874l-.721-1.041h-.8v1.041H17.69V24.135h1.618a2.046,2.046,0,0,1,.863.165,1.234,1.234,0,0,1,.76,1.19,1.218,1.218,0,0,1-.77,1.182l.839,1.2Zm-.219-2.865a.912.912,0,0,0-.594-.168h-.7v1.3h.7a.906.906,0,0,0,.594-.171.675.675,0,0,0,.009-.955Z" transform="translate(882.54 351.559)" fill="#b38e5d"/>
      <path id="Trazado_257" data-name="Trazado 257" d="M24.127,27.435v.693H21.233V24.39h2.826v.7H22.092v.81h1.737v.674H22.092v.865Zm-1.244-4.118h.9l-.968.77h-.65Z" transform="translate(883.65 351.303)" fill="#b38e5d"/>
      <path id="Trazado_258" data-name="Trazado 258" d="M24.514,24.134h1.7a2.387,2.387,0,0,1,1.077.232,1.741,1.741,0,0,1,.726.655,1.985,1.985,0,0,1,0,1.965,1.747,1.747,0,0,1-.726.654,2.37,2.37,0,0,1-1.077.232h-1.7Zm1.656,3.028a1.254,1.254,0,0,0,.894-.311,1.241,1.241,0,0,0,0-1.694,1.261,1.261,0,0,0-.894-.313h-.791v2.318Z" transform="translate(884.678 351.558)" fill="#b38e5d"/>
      <rect id="Rectángulo_109" data-name="Rectángulo 109" width="0.865" height="3.739" transform="translate(914.332 375.693)" fill="#b38e5d"/>
      <path id="Trazado_259" data-name="Trazado 259" d="M31.19,24.84h-1.2v-.705h3.259v.705h-1.2v3.033H31.19Z" transform="translate(886.393 351.559)" fill="#b38e5d"/>
      <path id="Trazado_260" data-name="Trazado 260" d="M34.162,27.7a1.87,1.87,0,0,1-.733-.693,1.907,1.907,0,0,1,.638-2.62l.095-.053a2.312,2.312,0,0,1,2.1,0,1.907,1.907,0,0,1,.091,3.313l-.091.053A2.32,2.32,0,0,1,34.162,27.7Zm1.647-.64a1.087,1.087,0,0,0,.42-.424,1.332,1.332,0,0,0,0-1.238,1.091,1.091,0,0,0-.42-.425,1.248,1.248,0,0,0-1.2,0,1.087,1.087,0,0,0-.419.425,1.332,1.332,0,0,0,0,1.238,1.084,1.084,0,0,0,.419.424,1.248,1.248,0,0,0,1.2,0" transform="translate(887.383 351.543)" fill="#b38e5d"/>
      <path id="Trazado_261" data-name="Trazado 261" d="M41.512,24.3a1.34,1.34,0,0,1,.628,1.79,1.17,1.17,0,0,1-.064.12,1.254,1.254,0,0,1-.563.47,2.114,2.114,0,0,1-.863.163H39.9v1.031h-.865V24.134h1.618a2.087,2.087,0,0,1,.863.165m-.318,1.669a.672.672,0,0,0,.011-.951l-.011-.011a.912.912,0,0,0-.594-.168h-.7v1.3h.7a.912.912,0,0,0,.594-.168" transform="translate(889.224 351.558)" fill="#b38e5d"/>
      <path id="Trazado_262" data-name="Trazado 262" d="M42.93,27.749a1.705,1.705,0,0,1-.446-1.265V24.39h.867v2.062c0,.671.277,1,.833,1a.785.785,0,0,0,.62-.243,1.134,1.134,0,0,0,.214-.762V24.39h.854v2.095a1.768,1.768,0,0,1-2.94,1.265Zm1.488-4.432h.9l-.967.77H43.7Z" transform="translate(890.305 351.303)" fill="#b38e5d"/>
      <path id="Trazado_263" data-name="Trazado 263" d="M49.513,26.269a.932.932,0,0,1,.183.584.861.861,0,0,1-.382.755,1.945,1.945,0,0,1-1.114.265H46.267V24.135h1.827a1.776,1.776,0,0,1,1.049.263.822.822,0,0,1,.365.71.892.892,0,0,1-.5.821.99.99,0,0,1,.5.34m-2.387-1.483v.882h.861a.875.875,0,0,0,.486-.113.377.377,0,0,0,.165-.331.371.371,0,0,0-.165-.328.874.874,0,0,0-.486-.109Zm1.526,2.324a.384.384,0,0,0,.173-.348q0-.463-.688-.465H47.126v.924h1.011a.961.961,0,0,0,.515-.112" transform="translate(891.491 351.558)" fill="#b38e5d"/>
      <path id="Trazado_264" data-name="Trazado 264" d="M49.931,24.134H50.8v3.035H52.67v.7H49.931Z" transform="translate(892.638 351.559)" fill="#b38e5d"/>
      <rect id="Rectángulo_110" data-name="Rectángulo 110" width="0.865" height="3.739" transform="translate(946.521 375.693)" fill="#b38e5d"/>
      <path id="Trazado_265" data-name="Trazado 265" d="M55.64,27.7a1.861,1.861,0,0,1-.728-.688,2.014,2.014,0,0,1,0-1.993,1.864,1.864,0,0,1,.728-.689,2.16,2.16,0,0,1,1.037-.248,2.2,2.2,0,0,1,.88.172,1.75,1.75,0,0,1,.659.491l-.555.512a1.2,1.2,0,0,0-.94-.439,1.256,1.256,0,0,0-.619.154,1.075,1.075,0,0,0-.425.424,1.335,1.335,0,0,0,0,1.24,1.063,1.063,0,0,0,.425.423,1.229,1.229,0,0,0,.619.154,1.188,1.188,0,0,0,.94-.444l.555.512a1.742,1.742,0,0,1-.662.5,2.211,2.211,0,0,1-.882.171A2.143,2.143,0,0,1,55.64,27.7" transform="translate(894.116 351.543)" fill="#b38e5d"/>
      <path id="Trazado_266" data-name="Trazado 266" d="M59.122,27.7a1.87,1.87,0,0,1-.733-.693,1.907,1.907,0,0,1,.638-2.62l.095-.053a2.312,2.312,0,0,1,2.1,0,1.907,1.907,0,0,1,.091,3.313l-.091.053A2.32,2.32,0,0,1,59.122,27.7Zm1.647-.64a1.087,1.087,0,0,0,.42-.424,1.332,1.332,0,0,0,0-1.238,1.091,1.091,0,0,0-.42-.425,1.248,1.248,0,0,0-1.2,0,1.087,1.087,0,0,0-.419.425,1.332,1.332,0,0,0,0,1.238,1.084,1.084,0,0,0,.419.424,1.248,1.248,0,0,0,1.2,0" transform="translate(895.2 351.543)" fill="#b38e5d"/>
    </g>
    <g id="Grupo_58" data-name="Grupo 58" transform="translate(18.375 37)">
      <path id="Trazado_267" data-name="Trazado 267" d="M.035,16.088h13.6c0,.913,0,1.736,0,2.559-.005,5.659.013,11.318-.029,16.976-.012,1.562.4,2.54,2.2,2.528s2.237-1.106,2.231-2.579c-.025-5.656-.074-11.313-.112-16.97-.005-.774,0-1.55,0-2.456.775-.06,1.352-.067,1.915-.156,1.557-.242,2.1.42,2.078,1.954-.073,5.788-.2,11.579-.045,17.362.125,4.581-2.776,6.645-6.3,6.684a59.593,59.593,0,0,1-10.778-.562,5.611,5.611,0,0,1-4.7-5.64C-.067,29.3.035,22.8.035,16.088" transform="translate(939 328.479)"/>
      <path id="Trazado_268" data-name="Trazado 268" d="M47.316,16.111h19.1v3.4c-1.57,0-3.005.047-4.436-.015-1.027-.045-1.461.388-1.445,1.368,0,.263-.009.527-.007.79.018,1.771-.615,4.045.253,5.163.761.982,3.2.669,5.074.954v2.743H60.469v11.52H47.316Z" transform="translate(931.516 328.452)"/>
      <rect id="Rectángulo_111" data-name="Rectángulo 111" width="13.233" height="25.908" transform="translate(963.511 344.577)"/>
      <path id="Trazado_269" data-name="Trazado 269" d="M36.089,11.923A5.708,5.708,0,0,1,30.17,5.964,6.111,6.111,0,0,1,36.088,0a6.2,6.2,0,0,1,6.139,6.162,5.762,5.762,0,0,1-6.138,5.761" transform="translate(934.228 331)"/>
    </g>
    <g id="Grupo_59" data-name="Grupo 59" transform="translate(20.375 51)">
      <path id="Trazado_270" data-name="Trazado 270" d="M21.765,43.035s14.277.318,14.468.286c5.983,0,11.322-4.311,11.322-10.95,0-5.868-4.258-10.81-12.412-10.81l-5.148,0L28.5,19.1h5.548a8.627,8.627,0,0,0,6.912-4.572l1.72-2.745,1.1,6.063c-.608.7-1.245,1.338-1.749,1.847a14.4,14.4,0,0,1,5.74,3.144,13.867,13.867,0,0,1,4.28,9.532c0,5.889-3.9,13.623-13.61,13.623-2.289,0-23.04-.159-23.04-.159V43.768a3.067,3.067,0,0,0,2-3.082c0-2-.011-35.561-.011-35.561a3.1,3.1,0,0,0-1.992-2.892V.137C15.756.137,32.079,0,33.16,0a18.992,18.992,0,0,1,6.588.955A10.55,10.55,0,0,1,43.6,3.71l-5.939,0a8.351,8.351,0,0,0-4.039-1.061H21.742Z" transform="translate(1018.313 321)" fill="#0f1176"/>
      <path id="Trazado_271" data-name="Trazado 271" d="M44.835,6.908c1.21,0,9.3.016,9.566.016v2.21c-1.683.538-2.192,1.525-1.652,3.59l2.2,11.47a9.46,9.46,0,0,0-.9-.869,20.644,20.644,0,0,0-3.109-2.154L48.749,9.215l-3.9,6.385a7.136,7.136,0,0,1-5.5,3.643h-1.8Z" transform="translate(1013.014 319.347)" fill="#0f1176"/>
      <path id="Trazado_272" data-name="Trazado 272" d="M36.564,27.152H33.132l-.841,1.335-.771-1.335-5.8-10.02v8.244l6.03,9.742Z" transform="translate(1015.844 316.901)" fill="#0f1176"/>
      <path id="Trazado_273" data-name="Trazado 273" d="M12.183,6.929H7.88v2.24c1.781.7,2.05,1.654,1.817,2.787,0,0-6.949,36.438-7.287,37.984A2.6,2.6,0,0,1,0,52.007v2.248H8.724V52.037c-2,0-2.748-2.065-2.429-3.463.138-.622,4.051-22.25,5.871-32.35Z" transform="translate(1022 319.342)" fill="#0f1176"/>
      <path id="Trazado_274" data-name="Trazado 274" d="M61.038,59.235c-.006,2.046-1.193,2.989-2.526,2.989v2.232h8.739V62.24c-1.16-.349-2.178-.684-2.558-3.1l-1.8-9.383a15.448,15.448,0,0,1-2.723,4.75Z" transform="translate(1007.998 309.093)" fill="#0f1176"/>
    </g>
  </g>
</svg>
