<svg xmlns="http://www.w3.org/2000/svg" width="194.698" height="126.819" viewBox="0 0 194.698 126.819">
  <path id="Trazado_217" data-name="Trazado 217" d="M194.616,82.889c1.356-8.61-14.555-2.845-20.6-1.733-4.641,1.748-1.835,8.058-4.478,11.415-.04,2.805-3.062,3.575-4.836,5.136,2.826,1.5-1.884,4.387-2.706,1.681-4.808-1.56-10.918,2.7-16.223,3.207-2.322-.8-3.711-4.095-6.856-3.866-13.011-10.249-19.182-31.408-11.777-47.654,2.168-4.724-.086-2.346-2.759-4.214-13.941-.877-13.308-19.286-23.867-26.319-11.5-4.276-7.45,11.077-18.341,1.773-3.023-1.149-2.364-4.554-3.87-6.822C74.966,12.248,70.561,8.277,66.731,6.1c-2.778.746-9.838-1.9-10.071,1.692-.009,1.525-.009,1.551-1.518,1.552C36.226,14.757,12.458-7.523,0,2.737c2.529,4.831,5.363,9.925,7.682,14.977.247,5.94,11.982,6.754,10.632,13.432.252,6.57-10.194-.247-2.209,6.686,31.181,16.043.669,9.222,27.133,27.107,2.525,9.655,8.738-.321,2.2-4.121-1.5-3.173-5.748,1.007-4.781-4.859-1.506-4.756-4.643-9-5.811-13.936-5.579-3.23-7.1-10.471-11.091-14.933-3.111-5.079-9.75-7.661-8.988-14.514-2.929-6.592-.09-5.777,4.684-4.7C21.7,6.9,21.962,10.638,24.5,10.114c1.287,3.8,2.828,9.358,5.516,13.48,1.422.611.979,1.626-.092.71-1.355.166-1.589,3.179-.089,3.151,2.977-3.52,5.471,5.933,9.69,6.341,2.7-.861,1.012,5.5,4.369,5.339,11.912,8.049,1.963,4.067,6.012,10.643,4.252,2.174,6.886,2.742,7.951,6.269,4.422,4.729,13.473,10.922,15.385,18.795,4.357,6.3.269,7.5,2.431,10.265-3.276,1.57-2.467,2.955-.544,6.023A43.892,43.892,0,0,0,98.061,104.8c5.337,6.351,14.168,6.843,20.751,10.663,15.979,10.962,23.707-3.448,28.546,1.8,24.8,21.983,2.737-1.026,22.093.194,6.667-.855-4.13-6.886-3.768-8.377,3.848.745.727-3.813,3.357-4.027,15.8,3.32,15.094-10.647,19.192-3.159,3.416-8.814-.978-10.565,6.383-19.008" transform="translate(0 0)" fill="#b9cded"/>
</svg>
