<svg xmlns="http://www.w3.org/2000/svg" width="344.358" height="356.5" viewBox="0 0 344.358 356.5">
  <g id="mujer" transform="translate(-555 -649)">
    <path id="Trazado_217" data-name="Trazado 217" d="M133.741,26.527c-1.446-5.225-4.282-10.35-8.966-13.085-2.222-1.3-4.748-1.992-7.007-3.224-2.727-1.485-4.977-3.7-7.529-5.467A26.839,26.839,0,0,0,71.02,14.675c-5.27-4.019-14.412-2.32-20.647-.076S38.92,24.278,37.42,30.734l29.26,8.849c5.855,6.395,12.359,12.327,19.984,16.456s16.478,6.356,25.05,5.064,16.749-6.421,20.617-14.18c3.113-6.235,3.267-13.677,1.409-20.395" transform="translate(587.041 649)" fill="#1a2e35"/>
    <path id="Trazado_218" data-name="Trazado 218" d="M126.622,107.33c7.434-5.2,9.222-16.881,3.683-24.064-1.648-2.138-3.9-4.071-4.275-6.746a13.23,13.23,0,0,1,.709-4.895,28.907,28.907,0,0,0-10.608-29.4c-.154-6-3.516-18.676-11.124-23.524L70.437,23.561Q72.8,78.168,70.12,132.836c-.273,5.578-.475,11.583,2.575,16.263,4.327,6.632,13.352,8.01,21.269,8.214,7.573.195,15.294-.13,22.442-2.636s13.725-7.458,16.719-14.417c4.611-10.714-.147-23.149-6.5-32.93" transform="translate(614.918 665.014)" fill="#1a2e35"/>
    <path id="Trazado_219" data-name="Trazado 219" d="M44.178,37.144,43.131,29.4,88.746,15.161c14.206-3.174,31.413,9.448,33.982,23.775,2.855,15.917,5.712,35.464,5.188,47.646-1.052,24.493-19.138,29.676-19.138,29.676l1.851,14.521a26.832,26.832,0,0,1-53.219,6.9Z" transform="translate(591.931 661.558)" fill="#ffc09d"/>
    <path id="Trazado_220" data-name="Trazado 220" d="M87.166,38.58a3.105,3.105,0,0,1-2.617,3.454,2.969,2.969,0,0,1-3.5-2.415,3.106,3.106,0,0,1,2.612-3.456,2.972,2.972,0,0,1,3.5,2.417" transform="translate(624.371 679.925)" fill="#1a2e35"/>
    <path id="Trazado_221" data-name="Trazado 221" d="M89.54,34.764c-.336.445-2.873-1.015-6.191-.624-3.321.342-5.561,2.33-5.968,1.966-.2-.16.108-.932,1.08-1.825a8.5,8.5,0,0,1,4.72-2.072,8.175,8.175,0,0,1,4.984,1c1.112.665,1.541,1.353,1.374,1.556" transform="translate(621.209 676.535)" fill="#1a2e35"/>
    <path id="Trazado_222" data-name="Trazado 222" d="M70.47,40.851a3.107,3.107,0,0,1-2.617,3.454,2.97,2.97,0,0,1-3.5-2.415,3.106,3.106,0,0,1,2.614-3.456,2.971,2.971,0,0,1,3.5,2.417" transform="translate(610.075 681.869)" fill="#1a2e35"/>
    <path id="Trazado_223" data-name="Trazado 223" d="M72,37.118c-.338.447-2.875-1.012-6.192-.624-3.321.345-5.559,2.333-5.968,1.968-.2-.16.106-.932,1.082-1.825a8.49,8.49,0,0,1,4.719-2.072,8.181,8.181,0,0,1,4.986,1c1.108.668,1.541,1.355,1.374,1.556" transform="translate(606.189 678.553)" fill="#1a2e35"/>
    <path id="Trazado_224" data-name="Trazado 224" d="M76.56,61.114c-.037-.187,1.986-.78,5.281-1.593.837-.186,1.621-.446,1.7-1.041a4.342,4.342,0,0,0-.856-2.447q-1.548-2.94-3.248-6.166c-4.539-8.791-7.928-16.058-7.573-16.238s4.323,6.8,8.862,15.591q1.648,3.255,3.148,6.217a4.939,4.939,0,0,1,.824,3.276,2.143,2.143,0,0,1-1.253,1.4,5.721,5.721,0,0,1-1.416.366c-3.345.568-5.43.824-5.465.637" transform="translate(616.508 677.791)" fill="#1a2e35"/>
    <path id="Trazado_225" data-name="Trazado 225" d="M94.194,71.665a64.1,64.1,0,0,1-34.032-4.843s10.063,15.91,34.706,10.842Z" transform="translate(606.514 706.216)" fill="#ff9b6c"/>
    <path id="Trazado_226" data-name="Trazado 226" d="M78.588,53.64a6.019,6.019,0,0,0-5.619-1.6,5.49,5.49,0,0,0-3.538,2.456,3.483,3.483,0,0,0,.193,3.987c1.039,1.156,2.946,1.233,4.477.6a12.645,12.645,0,0,0,3.952-3.02,3.675,3.675,0,0,0,.835-1.091,1.117,1.117,0,0,0-.147-1.234" transform="translate(613.997 693.427)" fill="#ff9b6c"/>
    <path id="Trazado_227" data-name="Trazado 227" d="M69.43,50.278c.536-.093.958,3.508,4.336,5.712s7.169,1.366,7.254,1.867c.076.219-.774.8-2.391,1.027A9.032,9.032,0,0,1,72.6,57.53a7.861,7.861,0,0,1-3.4-4.815c-.31-1.491-.011-2.43.238-2.437" transform="translate(614.132 692.048)" fill="#1a2e35"/>
    <path id="Trazado_228" data-name="Trazado 228" d="M72.933,29.707c-.223.941-3.588.893-7.429,1.81-3.859.841-6.868,2.343-7.479,1.593-.275-.36.174-1.272,1.344-2.292a13.283,13.283,0,0,1,11.357-2.593c1.5.412,2.3,1.038,2.207,1.483" transform="translate(604.617 672.857)" fill="#1a2e35"/>
    <path id="Trazado_229" data-name="Trazado 229" d="M87.9,29.768c-.5.82-2.875.3-5.628.581-2.764.182-5.021,1.09-5.649.364-.278-.356,0-1.155.937-1.984a8.189,8.189,0,0,1,9.084-.761c1.062.663,1.47,1.4,1.255,1.8" transform="translate(620.523 672.065)" fill="#1a2e35"/>
    <path id="Trazado_230" data-name="Trazado 230" d="M50.592,15.6c-4.728,1.552-10.072,14.456-8.685,19.236s5.842,8.247,10.666,9.471,9.951.492,14.713-.954C74.02,41.3,81.124,36.664,81.6,29.641a27.366,27.366,0,0,0,25.75,7.072c9.021-2.331,15.706-16.129,18.241-25.093Z" transform="translate(590.692 658.95)" fill="#1a2e35"/>
    <path id="Trazado_231" data-name="Trazado 231" d="M84.442,46.262c-.11.007-.056-1.216-.609-3.286a13.61,13.61,0,0,0-4.986-7.286A13.268,13.268,0,0,0,66.306,33.87,13.048,13.048,0,0,0,60.2,38.481a13.134,13.134,0,0,0,0,15.563,13.065,13.065,0,0,0,6.109,4.611,13.259,13.259,0,0,0,12.541-1.823,13.586,13.586,0,0,0,4.986-7.286c.553-2.068.5-3.289.609-3.284a3.018,3.018,0,0,1,.054.876,10.7,10.7,0,0,1-.3,2.5,13.568,13.568,0,0,1-4.934,7.737,13.8,13.8,0,0,1-5.869,2.679A14.014,14.014,0,0,1,66,59.492,13.874,13.874,0,0,1,59.435,54.6a14,14,0,0,1,0-16.686A13.877,13.877,0,0,1,66,33.033a14.03,14.03,0,0,1,7.39-.562,13.8,13.8,0,0,1,5.868,2.679A13.566,13.566,0,0,1,84.2,42.886a10.7,10.7,0,0,1,.3,2.5,3.017,3.017,0,0,1-.054.876" transform="translate(603.531 676.588)" fill="#375a64"/>
    <path id="Trazado_232" data-name="Trazado 232" d="M102.845,42.946c-.11.007-.056-1.216-.609-3.284a13.6,13.6,0,0,0-4.986-7.286,13.262,13.262,0,0,0-12.541-1.823A13.048,13.048,0,0,0,78.6,35.165a13.134,13.134,0,0,0,0,15.563,13.065,13.065,0,0,0,6.109,4.611A13.259,13.259,0,0,0,97.25,53.516a13.592,13.592,0,0,0,4.986-7.286c.553-2.068.5-3.291.609-3.284a3.017,3.017,0,0,1,.054.876,10.7,10.7,0,0,1-.3,2.5,13.568,13.568,0,0,1-4.934,7.737A13.8,13.8,0,0,1,91.8,56.738a14.032,14.032,0,0,1-7.39-.562,13.886,13.886,0,0,1-6.569-4.888,14,14,0,0,1,0-16.686,13.877,13.877,0,0,1,6.567-4.886,14.03,14.03,0,0,1,7.39-.562,13.776,13.776,0,0,1,5.868,2.679A13.566,13.566,0,0,1,102.6,39.57a10.7,10.7,0,0,1,.3,2.5,3.017,3.017,0,0,1-.054.876" transform="translate(619.288 673.749)" fill="#375a64"/>
    <path id="Trazado_233" data-name="Trazado 233" d="M70.569,37.687c-.115-.022-.134-.657.321-1.546a5.02,5.02,0,0,1,6.762-2.109c.882.475,1.225,1.006,1.143,1.09-.093.113-.577-.2-1.409-.46a5.23,5.23,0,0,0-5.92,1.847c-.538.685-.757,1.218-.9,1.179" transform="translate(615.365 677.655)" fill="#375a64"/>
    <path id="Trazado_234" data-name="Trazado 234" d="M61.673,41.549c.095.251-2.257,1.266-5.251,2.272s-5.485,1.611-5.559,1.355S53.138,43.9,56.113,42.9s5.465-1.606,5.559-1.355" transform="translate(598.549 684.528)" fill="#375a64"/>
    <path id="Trazado_235" data-name="Trazado 235" d="M204.417,70.324c3.989-1.543,2.341-5.691,2.341-5.691L191.928,69.1s7.87-3.189,11.9-6.489,2.021-6.17,2.021-6.17l-15.281,5.9-8.637,5.088-21.629,33.017s16.9,8.266,19.9,5.882c5.259-4.19,8.13-13.545,9.3-18.3,2.118-.613,8.795-2.6,10.6-3.8a9.978,9.978,0,0,0,3.174-3.584L191.5,82.885c1.708-.5,12.624-4.24,13.491-5.576,1.522-2.348.564-3.393.564-3.393l-14.791,2.307,1.524-1.112s8.283-3.3,12.127-4.787" transform="translate(692.263 697.327)" fill="#ffc09d"/>
    <path id="Trazado_236" data-name="Trazado 236" d="M221.013,82.973l-49.768,45.565c-6.179-1.426-81.959-46.725-81.959-46.725L77.31,140.1s77.556,35.655,98.9,31.328c3.484-.705,9.216-1.151,12.81-5.769,17.074-21.941,53.295-76.227,53.295-76.227Z" transform="translate(621.197 719.052)" fill="#ffc09d"/>
    <path id="Trazado_237" data-name="Trazado 237" d="M188.491,100.346l-8.977-4.334L186,84.256,191.083,73.5l7.885-14.64-12.017,4.511a9.284,9.284,0,0,0-3.625,2.77L163.549,93.446l-8.767,8.934,8.461,22.761,9.942-15.52L179,108.267c5.816-1.355,9.491-7.921,9.491-7.921" transform="translate(687.532 699.396)" fill="#ffc09d"/>
    <path id="Trazado_238" data-name="Trazado 238" d="M167.012,73.865A75.343,75.343,0,0,1,179.9,68.827a10.689,10.689,0,0,1,4.457-.577,4.009,4.009,0,0,1,3.375,2.63c.453,1.654-.626,3.408-2.064,4.344a16.012,16.012,0,0,1-4.832,1.7,8.4,8.4,0,0,0-4.477,2.365c-1.036,1.238-1.368,2.9-1.912,4.416A15.541,15.541,0,0,1,163,93.526" transform="translate(694.569 707.383)" fill="#ffc09d"/>
    <path id="Trazado_239" data-name="Trazado 239" d="M163,93.71c-.017-.078.8-.241,2.166-.789a15.985,15.985,0,0,0,5.172-3.375,15.153,15.153,0,0,0,2.617-3.349,21.173,21.173,0,0,0,1.817-4.572,7.451,7.451,0,0,1,1.34-2.51,6.718,6.718,0,0,1,2.448-1.71c1.843-.809,3.874-1,5.673-1.749a5.6,5.6,0,0,0,2.274-1.58A3.552,3.552,0,0,0,187.4,71.7c-.084-1.7-1.89-2.81-3.469-2.9a13.792,13.792,0,0,0-4.761.811c-1.5.436-2.883.882-4.136,1.318-2.508.876-4.5,1.7-5.868,2.276a14.132,14.132,0,0,1-2.157.85,10.145,10.145,0,0,1,2.012-1.16,61.762,61.762,0,0,1,5.8-2.549c1.251-.477,2.636-.962,4.139-1.433A14.128,14.128,0,0,1,184,67.988a5.183,5.183,0,0,1,2.731.976,3.637,3.637,0,0,1,1.533,2.684c.087,2.259-1.734,4.086-3.692,4.821-1.975.8-3.982.988-5.667,1.728a5.9,5.9,0,0,0-2.157,1.472,6.72,6.72,0,0,0-1.212,2.226,21.048,21.048,0,0,1-1.951,4.672A15.357,15.357,0,0,1,170.766,90a15.081,15.081,0,0,1-5.48,3.243,10.384,10.384,0,0,1-1.682.42c-.392.061-.6.078-.6.048" transform="translate(694.569 707.201)" fill="#ff9b6c"/>
    <path id="Trazado_240" data-name="Trazado 240" d="M139.307,170.166h-102s-15.062,18.954-24.989,38.7l145.385.6c2.853-4.68-18.4-39.3-18.4-39.3" transform="translate(565.547 794.704)" fill="#1a2e35"/>
    <path id="Trazado_241" data-name="Trazado 241" d="M163.342,157.007c-3.453-45.662-14.785-74.352-14.785-74.352L130.889,77.22C128.218,88.888,109.2,92.744,98.375,87.639l-11.46-5.992c-36.77-5.515-34.868-2.463-43.371,2.645-7.384,4.438-6.707,37.563-6.707,37.563S18.508,208.165,19.51,222.009s11.67,27.744,11.67,27.744h102c10.269,0,13.2-23.223,12.485-31.651s18.807-46.085,17.675-61.095" transform="translate(571.672 715.119)" fill="#e8505b"/>
    <path id="Trazado_242" data-name="Trazado 242" d="M44.794,140.261a8.046,8.046,0,0,0,1.71,1.446A32.272,32.272,0,0,0,60.488,147.4a29.926,29.926,0,0,0,11.13-.481,36.682,36.682,0,0,0,17.315-10.046,42.881,42.881,0,0,0,3.982-4.624,8.468,8.468,0,0,0,1.2-1.892c-.154-.121-2,2.478-5.7,5.968-3.681,3.421-9.485,7.8-17.033,9.545a31.192,31.192,0,0,1-19.285-1.778c-4.674-1.988-7.176-4.006-7.3-3.826" transform="translate(593.353 760.611)" fill="#1a2e35"/>
    <path id="Trazado_243" data-name="Trazado 243" d="M92.221,131.876A29.71,29.71,0,0,1,81.742,151.92a24.655,24.655,0,0,1-21.828,4.756c-7.442-2.127-13.619-8.565-14.908-16.2,5.246,2.389,10.575,4.806,16.276,5.667a31.957,31.957,0,0,0,31.428-14.835l-.83.878" transform="translate(593.537 761.435)" fill="#a31f2f"/>
    <path id="Trazado_244" data-name="Trazado 244" d="M7.718,152.707l51.4,24.1s20.955-46.354,22.756-52.691,7.455-16.368,1.659-29.583S62.206,76.463,53.606,82.1C34.37,94.7,7.718,152.707,7.718,152.707" transform="translate(561.609 717.314)" fill="#e8505b"/>
    <path id="Trazado_245" data-name="Trazado 245" d="M99.738,154.842c2.4,0,29.958,14.416,29.958,14.416l15.691-51.977c-23.431-15.613-42.662-33.45-56.374-37.134L96.219,123.1Z" transform="translate(631.217 717.625)" fill="#e8505b"/>
    <path id="Trazado_246" data-name="Trazado 246" d="M7.718,128.245a4.465,4.465,0,0,1,1.021.36l2.846,1.208,10.388,4.611,34.114,15.553,4.162,1.918-.65.232c5.933-12.223,11.13-23.162,14.811-31.055,1.778-3.863,3.23-7.017,4.3-9.337.468-1.019.85-1.853,1.158-2.526a3.693,3.693,0,0,1,.46-.856,3.8,3.8,0,0,1-.286.928c-.219.6-.54,1.478-.995,2.6-.9,2.248-2.266,5.48-4.024,9.469-3.523,7.974-8.619,18.967-14.534,31.209l-.21.436-.44-.2-4.164-1.916L21.679,135.059l-10.256-4.9c-1.121-.557-2.038-1.012-2.768-1.375a4.369,4.369,0,0,1-.937-.542" transform="translate(561.609 741.776)" fill="#1a2e35"/>
    <path id="Trazado_247" data-name="Trazado 247" d="M93.492,97.4a23.6,23.6,0,0,1,1.065,3.2c.685,2.22,1.6,5.183,2.7,8.774,2.227,7.39,5.472,17.809,5.621,29.8a63.149,63.149,0,0,1-2.738,16.535c-1.429,4.949-3.087,9.278-4.5,12.892s-2.64,6.5-3.475,8.505a23.133,23.133,0,0,1-1.381,3.078,2.953,2.953,0,0,1,.219-.848c.223-.648.49-1.427.811-2.365.807-2.179,1.882-5.088,3.187-8.613,1.325-3.638,2.911-7.973,4.279-12.892a64.621,64.621,0,0,0,2.63-16.3c-.145-11.778-3.248-22.164-5.311-29.6-1.054-3.731-1.89-6.76-2.411-8.867-.267-1.052-.449-1.877-.57-2.435a3.038,3.038,0,0,1-.134-.865" transform="translate(632.734 732.395)" fill="#1a2e35"/>
    <path id="Trazado_248" data-name="Trazado 248" d="M113.99,163.324c-.793-7.562-4.778-14.559-10.148-19.944-2.662-2.671-5.862-5.34-6.38-9.077-.67-4.841,3.521-9.376,2.842-14.215-.848-6.04-8.409-8.665-11.11-14.133-3.633-7.353,2.7-16.91-1.2-24.128-2.346-4.347-7.941-6.686-9.066-11.5-.73-3.113,5.207-7.659,6.588-14.417,3.1-15.193,4.678-26.949-10.079-35.8L66.818,8.3C57.156,13.016,49.04,23.624,48.873,34.71,48.8,39.95,51.479,45.2,49.2,49.92,46.015,56.5,38.6,60.555,36.36,67.515c-3.2,9.959,5.619,21.1,1.767,30.83-2.272,5.734-8.26,9.008-12.017,13.9-5.89,7.666-5.283,19.589,1.355,26.619a26.763,26.763,0,0,0-10.083,29.951c1.537,4.507,5.016,8.977,9.769,9.239,6.809.377,10.692-7.328,15.676-11.982,7.746-7.232,21.319-6.877,28.677.75,5.242,5.437,7.356,13.616,13.463,18.058,6.15,4.474,15.279,3.664,21.187-1.123s8.628-12.869,7.835-20.434" transform="translate(568.779 656.109)" fill="#1a2e35"/>
    <path id="Trazado_249" data-name="Trazado 249" d="M60.687,138.925c-9.734,15.993-16.524,25.195-16.524,25.195l87.3,53.165-10.174,23.63L8.062,194.312S-3.1,182.825.841,170.027L18.893,120.2Z" transform="translate(555 751.923)" fill="#ffc09d"/>
    <path id="Trazado_250" data-name="Trazado 250" d="M12.353,152.083c.206.271,4.329-3.195,10.449-5.428,6.1-2.3,11.481-2.363,11.46-2.7.05-.252-5.517-.683-11.835,1.695-6.337,2.318-10.278,6.276-10.074,6.436" transform="translate(565.571 772.085)" fill="#ff9b6c"/>
    <path id="Trazado_251" data-name="Trazado 251" d="M143.242,188.693l-21.774-10.415-42.491-3.371-3.466-2.4L65.339,196.131s11.137,5.326,16.972,5.8l35.725-1.082,18.678,1.962Z" transform="translate(610.947 796.705)" fill="#ffc09d"/>
    <path id="Trazado_252" data-name="Trazado 252" d="M270.63,136.043l-122.492.995c-3.974,0-7.77,1.908-8.366,5.838l-13.387,89.278H63.291a3.678,3.678,0,0,0,0,7.356H264.8l13.773-94.225a8.038,8.038,0,0,0-7.947-9.242" transform="translate(606.045 765.486)" fill="#e1e1e1"/>
    <path id="Trazado_253" data-name="Trazado 253" d="M270.86,136.065a6.446,6.446,0,0,1,1.93.182,8.093,8.093,0,0,1,6.192,7.011,22.731,22.731,0,0,1-.449,5.04c-.514,3.609-1.1,7.763-1.767,12.433-2.7,18.718-6.582,45.693-11.358,78.857l-.046.323h-.329l-195.5.117H64.274a5.106,5.106,0,0,1-2.784-.529,4.175,4.175,0,0,1,.019-7.3,5.109,5.109,0,0,1,2.76-.518H66.86l20.474,0c13.486.006,26.622.009,39.28.013l-.471.407c4.819-31.974,9.313-61.8,13.346-88.558a6.928,6.928,0,0,1,2.266-4.663,9.1,9.1,0,0,1,4.683-2.068,40.57,40.57,0,0,1,4.939-.174q2.422-.017,4.81-.032,9.539-.064,18.442-.124l32.772-.208,46.659-.239,12.481-.022,3.224.015c.724.007,1.093.033,1.093.033s-.369.032-1.093.052l-3.222.067-12.481.18c-10.917.121-26.769.3-46.657.52l-32.774.323-18.442.176-4.808.045a40.492,40.492,0,0,0-4.819.176,8.318,8.318,0,0,0-4.271,1.884,6.1,6.1,0,0,0-1.992,4.182c-3.993,26.763-8.444,56.6-13.215,88.576l-.059.406h-.412l-39.28.013-20.474,0H64.269a4.129,4.129,0,0,0-2.283.4,3.186,3.186,0,0,0-.013,5.571,4.114,4.114,0,0,0,2.3.4h5.261c74.829.045,143.354.085,195.5.115l-.373.325c4.915-33.143,8.914-60.1,11.687-78.811.7-4.665,1.324-8.813,1.866-12.418a22.728,22.728,0,0,0,.5-4.964,7.835,7.835,0,0,0-1.422-3.807,8.015,8.015,0,0,0-4.526-3.124,15.827,15.827,0,0,0-1.9-.29" transform="translate(605.815 765.464)" fill="#1a2e35"/>
    <path id="Trazado_254" data-name="Trazado 254" d="M98.262,238.227c.173.028,4.073-22.706,8.708-50.77s8.255-50.848,8.08-50.878-4.071,22.7-8.708,50.774-8.253,50.846-8.08,50.874" transform="translate(639.132 765.945)" fill="#1a2e35"/>
  </g>
</svg>
