<svg xmlns="http://www.w3.org/2000/svg" width="691.367" height="604.962" viewBox="0 0 691.367 604.962">
  <g id="mujer-noticia" transform="translate(-72.316 -321.252)">
    <path id="Trazado_217" data-name="Trazado 217" d="M243.2,80.133l21.033,26.151L355,130.571,338.857,272.438c-4.028,55.539-9.741,69.176-13.637,106.091v30.114H76.022L41.22,120.912l85.95-19.779L145.66,80.1H243.2Z" transform="translate(167.205 505.649)" fill="#7aa0dd"/>
    <path id="Trazado_218" data-name="Trazado 218" d="M178.3,110.022l-10.764,141.95-11.458,72.048L71.81,88.89,139.8,169.424Z" transform="translate(237.621 525.883)" fill="#fff"/>
    <path id="Trazado_219" data-name="Trazado 219" d="M171.293,340.051s-.1-.231-.33-.693l-1.057-1.981c-.958-1.783-2.344-4.326-4.127-7.561-3.665-6.571-8.882-16.047-15.354-27.7-13.076-23.378-31.071-55.638-50.982-91.233-9.873-17.566-19.283-34.307-27.8-49.5l-.1.561q6.29-5.3,12.085-10.236l.429-.363-.5-.3q-9.163-5.4-17.236-10.17l.165.363c1.882-16.774,3.434-30.477,4.491-40.053.5-4.722.892-8.42,1.189-11l.264-2.873c.066-.66.066-.991.066-.991s-.066.33-.165.958q-.149,1.04-.4,2.873c-.33,2.576-.792,6.241-1.387,10.962-1.156,9.543-2.807,23.246-4.821,40.02v.231l.165.132q8.024,4.8,17.2,10.236l-.066-.66q-5.844,4.9-12.118,10.17l-.264.231.165.33c8.519,15.189,17.9,31.963,27.736,49.529,20.01,35.562,38.1,67.756,51.213,91.1,6.571,11.59,11.92,21,15.618,27.571,1.849,3.2,3.269,5.712,4.293,7.462.5.826.859,1.453,1.123,1.915.264.429.4.66.429.627Z" transform="translate(223.625 519.991)" fill="#1a2e35"/>
    <path id="Trazado_220" data-name="Trazado 220" d="M97.7,336.462s.1-.231.231-.66l.627-1.981c.528-1.816,1.321-4.359,2.278-7.661,1.948-6.7,4.788-16.312,8.255-28.166,3.4-11.92,7.66-26.019,12.019-41.869,4.061-15.882,7.925-33.482,12.019-51.94,5.547-25.326,10.566-49.034,14.76-69.11l.066-.363-.33-.132c-4-1.42-7.826-2.741-11.491-4.028l.066.693c5.052-2.675,9.675-5.118,13.967-7.4l.264-.132-.1-.264c-4.392-11.028-7.925-19.911-10.4-26.118-1.222-3.038-2.179-5.382-2.84-7.033l-.759-1.816c-.165-.4-.264-.627-.3-.594,0,0,.066.231.2.627l.693,1.849c.627,1.684,1.552,4.061,2.708,7.1,2.41,6.208,5.844,15.156,10.137,26.217l.165-.4q-6.439,3.368-14.033,7.33l-.759.4.826.3c3.632,1.288,7.462,2.642,11.458,4.061l-.264-.462c-4.26,20.043-9.345,43.751-14.892,69.077-4.094,18.458-7.958,36.057-11.953,51.94-4.293,15.783-8.486,29.949-11.821,41.9-3.335,11.887-6.076,21.529-7.958,28.265-.892,3.3-1.618,5.877-2.113,7.693L97.9,335.8a2.86,2.86,0,0,0-.132.693Z" transform="translate(297.218 523.579)" fill="#1a2e35"/>
    <path id="Trazado_221" data-name="Trazado 221" d="M154.516,95.28s19.316,9.378,32.887,52.666c9.873,31.434,50.057,139.672,50.057,139.672l44.51-12.977s32.755,40.779,25.326,55.01c-7.429,14.2-61.614,43.619-61.614,43.619H182.219a52.3,52.3,0,0,1-18.161-26.449L127.77,224.584,154.516,95.313Z" transform="translate(366.438 540.593)" fill="#7aa0dd"/>
    <path id="Trazado_222" data-name="Trazado 222" d="M137.891,92.32a78.214,78.214,0,0,0-27.934,28.694C98.862,140.726,10.4,284.691,3.072,318.833-7.89,369.815,14,379.985,14,379.985H44.578l75.68-.429,9.543-59.2-33.647-7.165,62.341-69.143,4.127,7.066,12.184-98.7L137.891,92.353Z" transform="translate(72.317 533.779)" fill="#7aa0dd"/>
    <path id="Trazado_223" data-name="Trazado 223" d="M139.811,113.28c-.264,0-2.509,24.467-5.019,54.68s-4.359,54.746-4.094,54.779c.264,0,2.509-24.467,5.019-54.68s4.359-54.746,4.094-54.746Z" transform="translate(373.119 582.028)" fill="#1a2e35"/>
    <path id="Trazado_224" data-name="Trazado 224" d="M43.12,104.99c-.264,0,3.236,30.576,7.793,68.218s8.453,68.152,8.717,68.119c.264,0-3.236-30.576-7.793-68.218S43.384,104.957,43.12,104.99Z" transform="translate(171.546 562.945)" fill="#1a2e35"/>
    <path id="Trazado_225" data-name="Trazado 225" d="M80.314,228.883s-.3-.363-.859-1.09-1.354-1.783-2.278-3.236a53.31,53.31,0,0,1-5.844-13.241,67.852,67.852,0,0,1-2.113-9.807,46.407,46.407,0,0,1-.5-11.425,27.117,27.117,0,0,1,4.226-11.722,31.667,31.667,0,0,1,9.576-9.378c.264-.165.561-.33.825-.462l1.024-.561-1.09-.33a236.844,236.844,0,0,0-46.722-8.717c-6.043-.528-10.962-.759-14.363-.859-1.684-.066-3-.066-3.9-.066a8.467,8.467,0,0,0-1.354.033,11.117,11.117,0,0,0,1.354.165c.991.066,2.278.165,3.9.264,3.368.231,8.288.561,14.3,1.156a253.765,253.765,0,0,1,46.524,8.981l-.1-.858c-.3.165-.594.33-.859.5a32.883,32.883,0,0,0-9.873,9.675A27.376,27.376,0,0,0,67.9,190.019a45.972,45.972,0,0,0,.594,11.623,64.125,64.125,0,0,0,2.245,9.873,50.009,50.009,0,0,0,6.175,13.241,25.857,25.857,0,0,0,2.443,3.17,7.53,7.53,0,0,0,.991.958Z" transform="translate(111.336 684.948)" fill="#1a2e35"/>
    <path id="Trazado_226" data-name="Trazado 226" d="M97.952,217.442c.264,0,.462-12.184.462-27.241s-.2-27.241-.462-27.241-.462,12.184-.462,27.241S97.688,217.442,97.952,217.442Z" transform="translate(296.735 696.388)" fill="#1a2e35"/>
    <path id="Trazado_227" data-name="Trazado 227" d="M54.791,156.068s.033-.462.066-1.288l.066-3.632c.033-3.2.1-7.76.165-13.5l-.264.264c17.005.033,44.444.1,75.383.2l-.462-.462h0V156.1l.462-.462c-21.4.1-40.152.165-53.657.2-6.7.066-12.085.1-15.882.132-1.816,0-3.269.033-4.293.066H55.253a3.725,3.725,0,0,0-.4.066s.462.033,1.42.066c1.024,0,2.443.033,4.193.066,3.764,0,9.113.066,15.783.132,13.571.066,32.458.132,53.987.2h.462V137.742h0v-.066h0c-.958-.958-.264-.264-.462-.5-30.972.066-58.411.165-75.383.2h-.3v.3c.066,5.811.132,10.434.165,13.67,0,1.519.066,2.708.066,3.566a4.413,4.413,0,0,0,.066,1.189Z" transform="translate(197.912 636.978)" fill="#1a2e35"/>
    <path id="Trazado_228" data-name="Trazado 228" d="M133.456,143.692c.264.066,2.741-10.467,5.514-23.477,2.807-13.043,4.854-23.642,4.59-23.675-.264-.066-2.741,10.467-5.514,23.477C135.239,133.06,133.192,143.659,133.456,143.692Z" transform="translate(379.474 543.493)" fill="#1a2e35"/>
    <path id="Trazado_229" data-name="Trazado 229" d="M171.45,294.354,63.84,129.289l15.519-15.024L70.51,102.94l17.2,10.2-12.118,10.2Z" transform="translate(219.274 558.226)" fill="#002f87"/>
    <path id="Trazado_230" data-name="Trazado 230" d="M262.089,162.58v9.179l-122.139.4V162.58Z" transform="translate(394.475 695.514)" fill="#002f87"/>
    <g id="Grupo_62" data-name="Grupo 62" transform="translate(240.399 321.252)">
      <path id="Trazado_231" data-name="Trazado 231" d="M227.483,172.726a18.111,18.111,0,0,1-17.005-7.594c4.392.66,9.113,1.288,13.076-.726s6.175-7.826,3.1-11.028c-2.41-2.476-6.406-2.047-9.873-2.311a21.3,21.3,0,0,1-18.128-13.934c-2.939-8.387-.264-17.566.792-26.383,3.038-25.623-9.146-52.5-30.444-67.1L113.7,11.69C93.622,37.379,87.381,71.983,91.542,104.309s17.863,62.7,34.34,90.8c4.788,8.189,9.906,16.312,16.708,22.982,6.769,6.637,15.42,11.788,24.864,12.745a25.724,25.724,0,0,0-4.094-23.147A55.87,55.87,0,0,0,204.5,192.967c-3.962-3.038-7.892-6.076-11.854-9.08a43.364,43.364,0,0,0,34.868-11.161Z" transform="translate(39.831 26.921)" fill="#1a2e35"/>
      <g id="Grupo_58" data-name="Grupo 58" transform="translate(52.946 40.437)">
        <g id="Grupo_57" data-name="Grupo 57">
          <path id="Trazado_232" data-name="Trazado 232" d="M67.109,81.211C68.1,58.1,82.463,38.748,104.718,32.375l69.341-19.812c30.114-4.127,51.312,32.458,54.152,62.7,3.17,33.614,5.514,69.077,2.311,94.336-6.472,50.751-44.972,58.378-44.972,58.378,0-.066,1.288,45.732,1.684,60.492l-35.265,73.765L83.618,267.9,66.944,81.838c-.033-.859.1.528.165-.627Z" transform="translate(-66.938 -12.243)" fill="#d39c8c"/>
          <path id="Trazado_233" data-name="Trazado 233" d="M121.11,47.963a6.468,6.468,0,0,1-6.043,6.736,6.206,6.206,0,0,1-6.868-5.646,6.468,6.468,0,0,1,6.043-6.736A6.206,6.206,0,0,1,121.11,47.963Z" transform="translate(28.011 56.93)" fill="#1a2e35"/>
          <path id="Trazado_234" data-name="Trazado 234" d="M131.872,41.859c-.792.858-5.811-2.609-12.779-2.377-6.967.132-11.986,3.863-12.746,3.038-.4-.363.4-1.915,2.576-3.6a17.684,17.684,0,0,1,10.17-3.467,17.277,17.277,0,0,1,10.2,2.939c2.179,1.585,2.972,3.071,2.576,3.467Z" transform="translate(23.555 41.175)" fill="#1a2e35"/>
          <path id="Trazado_235" data-name="Trazado 235" d="M103.26,47.963A6.489,6.489,0,0,1,97.218,54.7a6.206,6.206,0,0,1-6.868-5.646,6.489,6.489,0,0,1,6.043-6.736A6.206,6.206,0,0,1,103.26,47.963Z" transform="translate(-13.079 56.93)" fill="#1a2e35"/>
          <path id="Trazado_236" data-name="Trazado 236" d="M111.822,42.452c-.792.858-5.811-2.609-12.779-2.377-6.967.132-11.986,3.863-12.745,3.038-.4-.363.4-1.915,2.576-3.6a17.925,17.925,0,0,1,10.17-3.5,17.277,17.277,0,0,1,10.2,2.939c2.179,1.585,2.972,3.071,2.576,3.467Z" transform="translate(-22.599 42.464)" fill="#1a2e35"/>
          <path id="Trazado_237" data-name="Trazado 237" d="M104.553,94.8c-.033-.4,4.259-1.288,11.26-2.377,1.783-.231,3.434-.66,3.7-1.882.4-1.288-.429-3.2-1.354-5.25-1.816-4.26-3.7-8.717-5.679-13.406-7.892-19.085-13.67-34.769-12.911-35.1.759-.3,7.793,14.892,15.717,33.977q2.873,7.033,5.448,13.472c.726,2.014,1.981,4.26,1.123,6.967a4.512,4.512,0,0,1-2.84,2.708,12.537,12.537,0,0,1-3,.528c-7.066.594-11.425.759-11.491.363Z" transform="translate(8.016 44.237)" fill="#1a2e35"/>
          <path id="Trazado_238" data-name="Trazado 238" d="M82.76,72.71s17.434,34.241,67.855,27.934l-.33-11.887S117.067,91.894,82.76,72.71Z" transform="translate(-30.518 126.948)" fill="#8a503f"/>
          <path id="Trazado_239" data-name="Trazado 239" d="M115.191,34.5c-.627,1.915-7.627,1.222-15.75,2.476-8.189,1.09-14.694,3.665-15.849,2.014-.5-.792.594-2.609,3.2-4.524a27.643,27.643,0,0,1,24.071-3.4c3.038,1.123,4.59,2.576,4.326,3.467Z" transform="translate(-28.873 27.928)" fill="#1a2e35"/>
          <path id="Trazado_240" data-name="Trazado 240" d="M129.737,35.738c-1.189,1.618-6.043.132-11.821.231-5.778-.1-10.632,1.387-11.821-.231-.528-.792.2-2.41,2.311-3.962a16.585,16.585,0,0,1,9.51-2.906,16.109,16.109,0,0,1,9.51,2.906c2.08,1.552,2.807,3.17,2.278,3.962Z" transform="translate(22.818 26.031)" fill="#1a2e35"/>
        </g>
        <path id="Trazado_241" data-name="Trazado 241" d="M113.728,74.238c0-1.057-7.066-.528-12.514-6.142-5.481-5.613-5.283-13.175-6.274-13.175-.462-.066-1.222,1.783-1.09,4.953A17.67,17.67,0,0,0,98.671,70.9a15.451,15.451,0,0,0,10.467,4.722c2.972.033,4.656-.892,4.557-1.354Z" transform="translate(-5.023 85.996)" fill="#1a2e35"/>
      </g>
      <path id="Trazado_242" data-name="Trazado 242" d="M74.4,28.933c7.793-12.382,26.25-25.326,40.68-27.868,16.444-2.873,26.35-.066,37.18,9.807,0,0,8.42,8.123,16.312,9.642s14.5.231,23.906,5.052c12.845,6.571,18.491,23.774,24.434,36.916,7.4,16.345,17.963,31.368,22.783,48.671,4.821,17.269,2.245,38.5-12.316,49,2.509-13.241,4.59-27.8-.892-39.788a34.423,34.423,0,0,1-.892,14.33c-2.741-7.793-5.613-15.783-11.227-21.793-5.316-5.646-12.679-9.047-18.161-14.562-8.057-8.09-11.755-20.406-21.562-26.283-10.2-6.109-23.081-3.071-34.968-3A66.973,66.973,0,0,1,87.608,43.957l2.939-.264A84.019,84.019,0,0,1,74.4,28.9Z" transform="translate(3.184 0.004)" fill="#1a2e35"/>
      <path id="Trazado_243" data-name="Trazado 243" d="M54.194,135.059C58.718,120.2,66.675,106.6,71.661,91.9c4.854-14.33,6.868-29.651,13.307-43.321,8.651-18.425,24.864-42.265,50.09-40.944l1.717,1.519A53.716,53.716,0,0,1,162.2,12.193l.4,19.68,4.821,4.26c-2.014,3.9-3.962,7.694-5.811,11.392a123.7,123.7,0,0,1-6.439,21.661A56.043,56.043,0,0,1,143.049,87.61c-43.487,104.077-4.028,110.648-23.642,170.314l-12.316-34.142a60.966,60.966,0,0,1-24.368-26.25c-.726,3.6-1.453,7.2-2.179,10.83A62.728,62.728,0,0,1,63.571,169.6L57.925,180c-8.948-12.712-8.321-29.982-3.8-44.84Z" transform="translate(-50.903 17.47)" fill="#1a2e35"/>
      <g id="Grupo_61" data-name="Grupo 61" transform="translate(45.912 145.884)">
        <g id="Grupo_59" data-name="Grupo 59">
          <path id="Trazado_244" data-name="Trazado 244" d="M96.381,47.025c-.66-1.684-32.095-12.019-31.567,21.033.528,32.128,32.755,24.9,32.788,23.972s-1.222-45.005-1.222-45.005Z" transform="translate(-64.808 -44.178)" fill="#d39c8c"/>
          <path id="Trazado_245" data-name="Trazado 245" d="M81.8,72.7a12.578,12.578,0,0,1-1.486.858,5.689,5.689,0,0,1-4.193.165c-3.434-1.189-6.373-6.5-6.637-12.316a18.659,18.659,0,0,1,1.42-8.057c.925-2.377,2.41-4.028,4.127-4.392a2.822,2.822,0,0,1,3.335,1.486c.462.892.264,1.519.429,1.585.1.066.693-.561.4-1.882A3.491,3.491,0,0,0,77.9,48.171a4.094,4.094,0,0,0-3.1-.759c-2.476.231-4.656,2.542-5.745,5.085a19.357,19.357,0,0,0-1.783,8.981c.33,6.472,3.764,12.448,8.42,13.7a5.92,5.92,0,0,0,5.118-.958c.991-.825,1.123-1.552,1.024-1.585Z" transform="translate(-59.175 -36.837)" fill="#8a503f"/>
        </g>
        <g id="Grupo_60" data-name="Grupo 60" transform="translate(11.14 41.345)">
          <path id="Trazado_246" data-name="Trazado 246" d="M75.688,56.837a6.306,6.306,0,1,0,1.519.429" transform="translate(-67.704 -56.537)" fill="#fff"/>
          <path id="Trazado_247" data-name="Trazado 247" d="M77.685,57.428c-.165.2,2.113,1.057,3,4.226a5.416,5.416,0,0,1-1.123,5.085A5.624,5.624,0,0,1,69.6,63.867a5.438,5.438,0,0,1,1.75-4.887C73.789,56.768,76.2,57.263,76.133,57c0-.066-.5-.33-1.519-.3a6.6,6.6,0,0,0-3.962,1.519,6.456,6.456,0,0,0-2.41,5.877,6.892,6.892,0,0,0,12.316,3.566,6.374,6.374,0,0,0,1.057-6.241,6.738,6.738,0,0,0-2.542-3.4c-.859-.528-1.42-.627-1.453-.528Z" transform="translate(-68.182 -56.699)" fill="#1a2e35"/>
        </g>
      </g>
      <path id="Trazado_248" data-name="Trazado 248" d="M107.327,43.769c-.627.264-3.6-10.632-12.547-20.736C85.963,12.8,75.6,8.372,75.925,7.778c.1-.231,2.807.528,6.769,2.708A52.092,52.092,0,0,1,105.544,36.67c1.618,4.226,2.014,7.033,1.783,7.066Z" transform="translate(6.678 17.824)" fill="#375a64"/>
    </g>
    <g id="Grupo_68" data-name="Grupo 68" transform="translate(516.661 652.151)">
      <path id="Trazado_249" data-name="Trazado 249" d="M200.352,250.613l12.713-14.925s16.84,0,25.227-7.991,23.972-15.552,17.665-29.85c0,0,7.561-8.849,1.453-18.524l-.2-2.509s18.92-7.991,13.472-17.665-15.981-5.481-15.981-5.481,20.67-13.967,24.4-17.8c9.972-10.236-.759-17.1-11.821-11-18.326,10.137-80.3,39.293-84.5,60.326v9.179s-17.236,21.132-17.236,22.387c0,.958.693,19.448,10.335,34.208,3.269,5.019,24.5-.33,24.5-.33Z" transform="translate(-63.256 -48.732)" fill="#d39c8c"/>
      <g id="Grupo_64" data-name="Grupo 64">
        <g id="Grupo_63" data-name="Grupo 63">
          <path id="Trazado_250" data-name="Trazado 250" d="M381.174,102.664c.759-.958-94.105,151.955-94.105,151.955l-4.293,51.312H134.75l13.736-58.411s25.59-68.581,25.293-69.407c-.561-1.552,47.878-77.794,47.878-77.794l159.517,2.311Z" transform="translate(-134.156 -99.957)" fill="#fff"/>
          <path id="Trazado_251" data-name="Trazado 251" d="M381.588,102.918s-.991-.066-2.906-.1-4.755-.1-8.42-.165c-7.4-.132-18.26-.33-32.128-.561-27.769-.462-67.591-1.09-116.03-1.882h-.231l-.1.165c-12.679,20.01-26.614,41.9-41.076,65.577-1.783,2.972-3.6,5.944-5.349,9.047-.429.759-.858,1.552-1.255,2.344a6.437,6.437,0,0,0-.3.66,1.343,1.343,0,0,0-.066.33c.033.231,0,.165,0,.165h0v.165l-.429,1.255-1.75,5.019q-3.665,10.054-7.429,20.406c-5.085,13.769-10.335,27.868-15.651,42.232h0v.066c-4.16,17.7-8.552,36.288-13.01,55.208-.264,1.057-.5,2.146-.759,3.2l-.132.594h.594c52.666,0,102.789,0,148.026-.033h.4v-.4q2.278-26.944,4.293-51.312l-.066.165c28.3-45.765,51.774-83.77,68.218-110.351,8.156-13.307,14.595-23.741,18.953-30.84,2.146-3.566,3.83-6.274,4.953-8.156l1.255-2.113c.264-.462.4-.726.4-.726-1.783,2.873-37.708,60.591-94.436,151.724l-.066.066v.1q-2.08,24.368-4.359,51.312l.429-.4c-45.237,0-95.36,0-148.026-.033l.462.594.759-3.2c4.458-18.92,8.816-37.477,12.977-55.208v.066q7.974-21.595,15.618-42.232l7.4-20.406c.594-1.684,1.156-3.368,1.75-5.052l.4-1.288v-.165a.973.973,0,0,0,.1-.33v-.165c.33-.132-.5.1-.3.033.066,0,.165-.033.264-.033.132,0,0,.066.066.066v-.066s.165-.363.264-.561c.363-.759.792-1.552,1.222-2.311,1.717-3.071,3.533-6.043,5.316-9.014,14.429-23.675,28.331-45.6,40.977-65.61l-.33.165c48.506.627,88.393,1.156,116.2,1.519,13.868.165,24.7.3,32.095.363,3.665,0,6.472.066,8.387.066h2.84Z" transform="translate(-134.57 -100.21)" fill="#1a2e35"/>
        </g>
        <path id="Trazado_252" data-name="Trazado 252" d="M150.59,126.6a10.4,10.4,0,0,0,1.321.066h3.8c3.4-.066,8.123-.165,13.934-.264,11.755-.264,28-.726,45.93-.991s34.175-.264,45.93.132c5.877.165,10.632.4,13.9.594,1.552.1,2.807.165,3.764.231a6.732,6.732,0,0,0,1.321,0s-.462-.1-1.321-.2q-1.436-.149-3.764-.4c-3.269-.3-8.024-.66-13.9-.892-11.755-.561-28-.66-45.963-.4-17.93.3-34.175.859-45.93,1.288-5.811.231-10.533.429-13.9.561-1.552.066-2.84.132-3.8.2a8.554,8.554,0,0,0-1.321.132Z" transform="translate(-97.693 -44.646)" fill="#1a2e35"/>
        <path id="Trazado_253" data-name="Trazado 253" d="M145.08,153.445c0,.264,20.967-2.014,46.756-5.118,25.788-3.071,46.689-5.778,46.656-6.043,0-.264-20.967,2.014-46.755,5.118C165.948,150.473,145.047,153.181,145.08,153.445Z" transform="translate(-110.377 -3.405)" fill="#1a2e35"/>
      </g>
      <g id="Grupo_65" data-name="Grupo 65" transform="translate(133.423 138.021)">
        <path id="Trazado_254" data-name="Trazado 254" d="M212.316,164.328c-9.245-.594-18.458-1.189-27.7-1.75-2.906-.2-6.109-.5-8.156-2.609-2.509-2.608-1.288-8.519,1.882-10.269l31.732-7.661" transform="translate(-174.665 -141.941)" fill="#d39c8c"/>
        <path id="Trazado_255" data-name="Trazado 255" d="M210.416,142.076s-.892.1-2.443.429c-1.717.363-3.962.858-6.7,1.486-5.844,1.354-13.736,3.2-22.684,5.316h-.1a6.977,6.977,0,0,0-2.675,3.1,8.912,8.912,0,0,0-.826,4.028,5.746,5.746,0,0,0,1.651,4.061,8.15,8.15,0,0,0,3.731,1.948,45.368,45.368,0,0,0,7.628.793c4.788.264,9.113.5,12.845.726,3.533.165,6.439.3,8.651.4a15.574,15.574,0,0,0,3.17,0,21.325,21.325,0,0,0-3.17-.4c-2.179-.165-5.118-.429-8.651-.693-3.7-.264-8.024-.561-12.812-.925a44.111,44.111,0,0,1-7.429-.826,7.277,7.277,0,0,1-3.3-1.75,4.813,4.813,0,0,1-1.354-3.434c-.066-2.476,1.024-5.118,2.972-6.274h-.1c8.948-2.179,16.807-4.127,22.618-5.58,2.708-.726,4.92-1.288,6.637-1.75a21.214,21.214,0,0,0,2.377-.726Z" transform="translate(-174.977 -142.01)" fill="#8a503f"/>
      </g>
      <g id="Grupo_66" data-name="Grupo 66" transform="translate(129.481 128.181)">
        <path id="Trazado_256" data-name="Trazado 256" d="M202.218,139.03a138.247,138.247,0,0,0-24.6,6.934c-3.1,1.156-3.962,3.566-3.632,6.34a4.456,4.456,0,0,0,1.816,3.4,8.837,8.837,0,0,0,3.9,1.09c7.958.759,15.618-.33,23.543-1.42s18.92,0,23.51,2.41" transform="translate(-173.47 -139.03)" fill="#d39c8c"/>
        <path id="Trazado_257" data-name="Trazado 257" d="M227.065,157.729a5.678,5.678,0,0,0-.792-.462,19.9,19.9,0,0,0-2.443-.958,44.921,44.921,0,0,0-9.444-1.618,54.092,54.092,0,0,0-6.637-.132,71,71,0,0,0-7.561.792,98.235,98.235,0,0,1-17.2,1.123c-1.519-.1-3.071-.165-4.458-.4a4.227,4.227,0,0,1-3.269-2.047c-1.057-2.41-.693-5.646,1.486-6.967a17.141,17.141,0,0,1,3.467-1.486c1.189-.429,2.344-.825,3.467-1.222,2.245-.759,4.326-1.453,6.274-2.014,3.863-1.156,7.033-1.915,9.212-2.443a21.4,21.4,0,0,0,3.4-.858s-.33,0-.925.066-1.453.2-2.576.429c-2.212.4-5.415,1.09-9.312,2.146-1.948.528-4.061,1.189-6.34,1.915-1.123.4-2.278.792-3.5,1.189a19,19,0,0,0-3.665,1.552,5.382,5.382,0,0,0-2.344,3.632,7.456,7.456,0,0,0,.528,4.458,3.991,3.991,0,0,0,1.684,1.783,7.923,7.923,0,0,0,2.245.792,35.908,35.908,0,0,0,4.623.429,96.028,96.028,0,0,0,17.368-1.222c2.642-.363,5.118-.759,7.5-.858a62.229,62.229,0,0,1,6.571,0,51.072,51.072,0,0,1,9.411,1.321c2.179.561,3.269,1.123,3.335,1.057Z" transform="translate(-173.784 -139.007)" fill="#8a503f"/>
      </g>
      <g id="Grupo_67" data-name="Grupo 67" transform="translate(157.659 105.161)">
        <path id="Trazado_258" data-name="Trazado 258" d="M214.317,132.07c-7.264,4.061-14.562,8.123-21.826,12.184-3.3,1.849-6.736,3.83-8.717,7.033s-1.816,8.09,1.354,10.137c2.477,1.618,5.745,1.024,8.618.3a215.734,215.734,0,0,0,24.005-7.627" transform="translate(-181.949 -132.031)" fill="#d39c8c"/>
        <path id="Trazado_259" data-name="Trazado 259" d="M218.119,154.121s-1.123.3-3.071.958-4.788,1.618-8.321,2.708-7.76,2.311-12.481,3.467c-2.311.561-4.92,1.189-7.3.4a5.082,5.082,0,0,1-2.807-2.311,6.945,6.945,0,0,1-.826-3.764,9.693,9.693,0,0,1,3.5-6.8,33.01,33.01,0,0,1,6.274-4.193c4.227-2.377,8.024-4.557,11.293-6.406,3.1-1.783,5.646-3.269,7.561-4.392a19.364,19.364,0,0,0,2.708-1.717,18.723,18.723,0,0,0-2.906,1.387c-1.948,1.057-4.557,2.443-7.727,4.127-3.269,1.783-7.132,3.9-11.392,6.241a34.679,34.679,0,0,0-6.472,4.259,12.606,12.606,0,0,0-2.642,3.236,9.2,9.2,0,0,0-1.189,4.193,7.933,7.933,0,0,0,.958,4.259,5.991,5.991,0,0,0,3.335,2.708c2.774.858,5.448.132,7.793-.429,4.722-1.222,8.948-2.509,12.448-3.7,3.5-1.156,6.307-2.212,8.222-3,.958-.4,1.717-.693,2.212-.925s.759-.363.726-.4Z" transform="translate(-182.317 -132.058)" fill="#8a503f"/>
      </g>
    </g>
    <path id="Trazado_260" data-name="Trazado 260" d="M40.568,215.9l10.368-2.939,32.986-3.071,9.212-12.25L86.7,171.187,45.488,161.38c-19.019,13.538-13.9,36.09-4.953,54.515Z" transform="translate(147.186 692.751)" fill="#d39c8c"/>
    <g id="Grupo_72" data-name="Grupo 72" transform="translate(184.86 834.086)">
      <g id="Grupo_69" data-name="Grupo 69" transform="translate(73.325 7.721)">
        <path id="Trazado_261" data-name="Trazado 261" d="M81.324,157.915c3.368-.33,8.42-.363,11.59.924a15.4,15.4,0,0,1,9.179,12.019c1.057,8.486,1.387,15.354,2.014,23.246a7.4,7.4,0,0,1-2.146,5.58c-2.576,2.642-7.3,1.75-9.972-.792-2.675-2.576-3.9-6.241-5.184-9.708S84.13,177.4,82.149,176.67c-5.745-2.08-13.538,7.826-17.864,2.972L56.46,160.556c12.118-1.189,12.812-1.387,24.93-2.576Z" transform="translate(-55.899 -157.478)" fill="#d39c8c"/>
        <path id="Trazado_262" data-name="Trazado 262" d="M81.715,158.085h-.429L80,158.151c-1.222.1-2.873.231-4.986.4-4.392.429-10.6,1.024-18.26,1.75H56.29l.165.462c2.245,5.547,4.887,12.052,7.76,19.118v.066l.066.066a4.457,4.457,0,0,0,3.764,1.453,12.775,12.775,0,0,0,3.863-1.156c2.41-1.123,4.755-2.576,7.33-3.2l.958-.165h.958a4.181,4.181,0,0,1,.925.2c.33.066.4.2.627.429a12.762,12.762,0,0,1,1.618,3.731c.859,2.708,1.387,5.613,2.443,8.453a34.225,34.225,0,0,0,3.368,7.429,11.442,11.442,0,0,0,2.807,2.972,9.269,9.269,0,0,0,3.731,1.552,7.181,7.181,0,0,0,4-.363,6.374,6.374,0,0,0,2.939-2.642,7.931,7.931,0,0,0,1.222-3.665c0-1.321-.165-2.41-.2-3.632-.363-4.689-.66-9.179-1.057-13.34-.2-2.08-.429-4.094-.66-6.043a16.561,16.561,0,0,0-1.42-5.481,14.724,14.724,0,0,0-13.637-8.849,31.225,31.225,0,0,0-4.59.1c-.528.033-.925.1-1.189.132s-.4.066-.4.1.561,0,1.585,0c1.057,0,2.609-.066,4.557.1a16.013,16.013,0,0,1,6.868,1.849,15.075,15.075,0,0,1,6.175,6.934,15.932,15.932,0,0,1,1.321,5.283c.231,1.915.429,3.929.627,6.01.363,4.16.66,8.651.991,13.34.066,1.156.231,2.443.2,3.5a6.875,6.875,0,0,1-1.09,3.236,5.666,5.666,0,0,1-2.542,2.278,6.581,6.581,0,0,1-3.5.3,9.137,9.137,0,0,1-5.944-4.16,33.526,33.526,0,0,1-3.269-7.231c-.991-2.741-1.552-5.646-2.41-8.387A13.481,13.481,0,0,0,83.432,177a1.884,1.884,0,0,0-.462-.429,1.322,1.322,0,0,0-.594-.264c-.363-.066-.759-.2-1.123-.231H80.13l-1.09.165c-2.84.693-5.151,2.179-7.528,3.269a12.389,12.389,0,0,1-3.566,1.123,3.557,3.557,0,0,1-3.038-1.156l.066.132c-2.939-7.066-5.613-13.538-7.892-19.052l-.3.462c7.694-.792,13.934-1.552,18.227-2.047l4.953-.594,1.288-.165c.3-.033.429-.066.429-.1Z" transform="translate(-56.29 -157.648)" fill="#8a503f"/>
      </g>
      <g id="Grupo_71" data-name="Grupo 71">
        <g id="Grupo_70" data-name="Grupo 70">
          <path id="Trazado_263" data-name="Trazado 263" d="M63.137,165.7s4.094-1.288,9.609,2.741c0,0,2.08-9.113,9.344-10.9,5.283-1.288,11.986,4.094,11.986,4.094s4.557-9.113,16.675-5.316c10.038,3.137,31.1,65.378,32.92,69.572,2.08,4.788-6.439,10.764-11.128,5.943-4.92-5.052-21.463-32.722-21.463-32.722l11,38.8a7.536,7.536,0,0,1-.1,3.83c-1.189,3.962-8.948,8.552-14.429,1.123-6.835-9.245-13.769-28.3-13.769-28.3l-6.7-14.628s12.514,38.765,7.958,42.265c-4.557,3.533-10.4,2.179-14.562-6.934s-19.349-37.906-19.349-37.906l-7.2-3.8,2.642,9.113s13.8,7.2,10.7,13.637-9.609,4.524-16.014,1.519c-6.373-3-11.953-18-15.354-24.137-3.038-5.514-3.335-21.694,9.741-22.321a9.978,9.978,0,0,1,7.5,2.972l.66.66s2.146-8.057,9.378-9.345Z" transform="translate(-33.894 -155.101)" fill="#d39c8c"/>
          <path id="Trazado_264" data-name="Trazado 264" d="M63.327,165.911a8.132,8.132,0,0,0-.859.165,4.671,4.671,0,0,0-1.057.33,8.28,8.28,0,0,0-1.387.627,13.886,13.886,0,0,0-6.208,8.189l.231-.066a10.815,10.815,0,0,0-6.7-3.665,12.132,12.132,0,0,0-8.882,2.708c-2.642,2.311-4.028,6.076-4.326,9.972a22.655,22.655,0,0,0,.4,6.109,15,15,0,0,0,.958,3.071c.462,1.024.991,1.915,1.453,2.939,1.948,3.962,3.8,8.222,6.208,12.481a39.2,39.2,0,0,0,4.193,6.274,16.025,16.025,0,0,0,2.873,2.708,22.593,22.593,0,0,0,3.6,1.75c2.476.958,5.151,1.915,8.057,1.651a6.768,6.768,0,0,0,3.962-1.75,8.933,8.933,0,0,0,1.42-1.717l.528-.958c.132-.363.231-.726.363-1.09a6.218,6.218,0,0,0-.892-4.392,16.064,16.064,0,0,0-2.873-3.467,38.59,38.59,0,0,0-7.429-5.25l.2.231c-.825-2.807-1.717-5.943-2.642-9.113l-.561.462c2.212,1.156,4.689,2.476,7.2,3.8l-.165-.165q5.4,10.4,11.161,21.529c1.882,3.731,3.8,7.5,5.712,11.326.925,1.948,1.882,3.9,2.807,5.844a20.81,20.81,0,0,0,3.8,5.514,8.6,8.6,0,0,0,6.274,2.708,8.792,8.792,0,0,0,4.887-1.981,3.126,3.126,0,0,0,.858-1.75A23.192,23.192,0,0,0,96.347,234c-.3-2.278-.726-4.557-1.189-6.8-1.948-9.047-4.557-18.095-7.429-27.208l-.892.33c2.113,4.623,4.392,9.609,6.7,14.628h0c1.519,4.061,3.335,8.42,5.25,12.745,1.453,3.17,2.972,6.307,4.623,9.344.858,1.519,1.717,3,2.675,4.458a16.955,16.955,0,0,0,3.368,4.028,8.246,8.246,0,0,0,4.953,1.915,9,9,0,0,0,5.052-1.519,7.57,7.57,0,0,0,3.236-4.16,7.9,7.9,0,0,0,.231-2.642,13.992,13.992,0,0,0-.561-2.509c-3.632-12.845-7.2-25.359-10.632-37.411l-.825.363c4.226,7,8.42,13.769,12.646,20.307,2.113,3.269,4.26,6.472,6.538,9.543,1.189,1.453,2.245,3.17,4.061,4.127a6.731,6.731,0,0,0,5.745.033,8.189,8.189,0,0,0,4.193-3.83,5.17,5.17,0,0,0,.462-2.906c-.264-1.024-.627-1.75-.925-2.609-1.222-3.368-2.443-6.67-3.665-9.939-2.41-6.5-4.788-12.812-7.2-18.821s-4.821-11.755-7.264-17.17a131.746,131.746,0,0,0-7.859-15.09,23.215,23.215,0,0,0-5.019-6.109,5.257,5.257,0,0,0-1.75-.925l-1.816-.462a19.751,19.751,0,0,0-3.665-.4,12.869,12.869,0,0,0-11.326,6.373l.363-.066a22.138,22.138,0,0,0-7.958-4.028,9.257,9.257,0,0,0-4.028-.132,11.261,11.261,0,0,0-3.4,1.453,13.591,13.591,0,0,0-4.293,4.788,20.412,20.412,0,0,0-1.948,4.854l.2-.066a14.239,14.239,0,0,0-7.2-2.873,5.969,5.969,0,0,0-2.476.231l.594-.1a8.663,8.663,0,0,1,1.882,0,14.336,14.336,0,0,1,7.066,2.939l.132.1v-.165a22.42,22.42,0,0,1,2.014-4.755,13.89,13.89,0,0,1,4.226-4.623,9.975,9.975,0,0,1,3.269-1.387,8.4,8.4,0,0,1,3.83.165,22.192,22.192,0,0,1,7.727,4l.231.165.132-.264a12.316,12.316,0,0,1,10.9-6.043,18.39,18.39,0,0,1,3.533.4l1.783.462a4.78,4.78,0,0,1,1.552.858,23.5,23.5,0,0,1,4.821,5.977,139.284,139.284,0,0,1,7.76,15.057c2.443,5.415,4.821,11.128,7.2,17.137s4.755,12.283,7.132,18.821c1.189,3.269,2.41,6.571,3.632,9.939.3.825.693,1.75.892,2.476a4.159,4.159,0,0,1-.4,2.41,7.429,7.429,0,0,1-3.764,3.4,6.127,6.127,0,0,1-5.052,0c-1.519-.792-2.609-2.41-3.764-3.9-2.245-3.038-4.359-6.241-6.472-9.51-4.226-6.538-8.42-13.34-12.613-20.307l-1.75-2.906.925,3.269q5.151,18.128,10.6,37.411a13.355,13.355,0,0,1,.561,2.344,6.987,6.987,0,0,1-.2,2.344,6.8,6.8,0,0,1-2.84,3.632,8.119,8.119,0,0,1-4.524,1.387,7.3,7.3,0,0,1-4.392-1.717,17.2,17.2,0,0,1-3.17-3.83c-.925-1.42-1.816-2.906-2.642-4.392-1.651-3-3.17-6.109-4.59-9.278-1.915-4.293-3.731-8.618-5.25-12.713h0c-2.311-5.052-4.59-10.038-6.7-14.661l-.892.33c2.873,9.08,5.481,18.128,7.4,27.109.462,2.245.892,4.491,1.189,6.736a23.427,23.427,0,0,1,.165,6.6,2.6,2.6,0,0,1-.561,1.255,9.07,9.07,0,0,1-1.321.859,6.861,6.861,0,0,1-3,.858,7.762,7.762,0,0,1-5.58-2.443c-3.1-3-4.458-7.3-6.472-11.095-1.948-3.83-3.863-7.628-5.745-11.326-3.863-7.4-7.594-14.595-11.194-21.5l-.066-.1-.1-.066c-2.509-1.321-4.986-2.608-7.2-3.8l-.825-.429.264.892c.925,3.17,1.849,6.307,2.675,9.113v.165l.2.066a35.888,35.888,0,0,1,7.264,5.118,15.181,15.181,0,0,1,2.741,3.269,5.613,5.613,0,0,1,.825,3.863,6.613,6.613,0,0,1-5.613,4.953c-2.642.264-5.283-.627-7.694-1.585a25.969,25.969,0,0,1-3.467-1.684,14.494,14.494,0,0,1-2.741-2.576,39.187,39.187,0,0,1-4.127-6.142c-2.377-4.226-4.26-8.486-6.241-12.448-.462-.991-1.057-1.948-1.486-2.906a15.6,15.6,0,0,1-.958-2.972,21.466,21.466,0,0,1-.4-5.944c.264-3.83,1.618-7.462,4.094-9.708a11.868,11.868,0,0,1,8.552-2.675,10.49,10.49,0,0,1,6.538,3.5l.165.2.066-.264a13.994,13.994,0,0,1,6.01-8.123,12.963,12.963,0,0,1,3.236-1.255Z" transform="translate(-34.084 -155.309)" fill="#8a503f"/>
        </g>
        <path id="Trazado_265" data-name="Trazado 265" d="M48.141,163.193c-.3.066.892,5.646,3.467,12.118,1.255,3.236,2.509,6.142,3.4,8.222.925,2.08,1.519,3.368,1.651,3.3.264-.1-1.651-5.415-4.193-11.887-1.255-3.236-2.344-6.175-3.071-8.321a17.964,17.964,0,0,0-1.288-3.467Z" transform="translate(-1.826 -137.238)" fill="#8a503f"/>
        <path id="Trazado_266" data-name="Trazado 266" d="M54.644,161.982c-.264.132,2.047,5.217,4.623,11.623,2.509,6.406,4.755,11.59,5.019,11.458.132-.066-.3-1.387-1.057-3.533s-1.783-5.085-3.1-8.288c-1.288-3.2-2.609-6.076-3.632-8.09A14.215,14.215,0,0,0,54.644,161.982Z" transform="translate(13.199 -139.955)" fill="#8a503f"/>
      </g>
    </g>
  </g>
</svg>
