<svg xmlns="http://www.w3.org/2000/svg" width="148.309" height="57.269" viewBox="0 0 148.309 57.269">
  <g id="Grupo_57" data-name="Grupo 57" transform="translate(-877 -344.001)">
    <path id="Trazado_231" data-name="Trazado 231" d="M6.878,8.785c0-5.212,5.526-8.78,11.854-8.78a18,18,0,0,1,8.922,2.275l.7,1.225c-.314,1.784-1.083,5.036-1.4,6.015a37.643,37.643,0,0,1-4.371-.21,22.14,22.14,0,0,0-1.015-4.653,5.815,5.815,0,0,0-3.672-1.049,7.418,7.418,0,0,0-3.009.593,5.059,5.059,0,0,0-.7,2.729c0,6.752,14.515,4.547,14.515,14.411,0,4.79-4.651,8.043-11.3,8.043A19.74,19.74,0,0,1,6.842,26.938c-.036-2.2,0-4.373.174-6.507a23.254,23.254,0,0,1,4.653-.208A29.079,29.079,0,0,0,13,24.839a7.883,7.883,0,0,0,4.337.945,8.473,8.473,0,0,0,3.112-.523,4.563,4.563,0,0,0,.945-2.975c0-5.28-14.515-3.742-14.515-13.5" transform="translate(884.64 344.005)" fill="#9d2449"/>
    <path id="Trazado_232" data-name="Trazado 232" d="M22.624,24.643a53.155,53.155,0,0,0,.352-6.82v-7a20.958,20.958,0,0,0-.6-6.331,7.785,7.785,0,0,0-3.252-1.712L19.651.335h13.64l.525,2.449-3.5,1.222a53.54,53.54,0,0,0-.347,6.82v1.89l11.89.174V10.827A21.024,21.024,0,0,0,41.268,4.5a7.785,7.785,0,0,0-3.252-1.712L38.539.335H52.18l.525,2.449-3.5,1.222a53.154,53.154,0,0,0-.35,6.82v7a20.823,20.823,0,0,0,.6,6.331,7.776,7.776,0,0,0,3.252,1.714l-.525,2.449H38.539l-.523-2.449,3.5-1.225a53.562,53.562,0,0,0,.35-6.82V16.39l-11.89.244v1.189a20.957,20.957,0,0,0,.593,6.331,7.8,7.8,0,0,0,3.252,1.714l-.525,2.449H19.651l-.523-2.449Z" transform="translate(898.398 344.374)" fill="#9d2449"/>
    <path id="Trazado_233" data-name="Trazado 233" d="M55.955,24.074a50.745,50.745,0,0,0,1.574-4.932,43.41,43.41,0,0,1,4.723.212c.1,1.714.174,4.441.174,5.981l-.631,1.259a20.34,20.34,0,0,1-10.632,2.8c-9.3,0-15.039-5.386-15.039-14.2A15.353,15.353,0,0,1,51.637,0c.133,0,.267,0,.4.008A22.67,22.67,0,0,1,62.356,2.459l.7,1.225c-.383,2.134-1.083,5.212-1.572,7.24a38.129,38.129,0,0,1-4.373-.208,22.328,22.328,0,0,0-1.364-5.178,9.826,9.826,0,0,0-8.954-.28A15.287,15.287,0,0,0,43.817,14.7c0,6.087,3.078,10.142,8.257,10.142a8.178,8.178,0,0,0,3.881-.769" transform="translate(917.412 344)" fill="#9d2449"/>
    <path id="Trazado_234" data-name="Trazado 234" d="M54,24.774a53.191,53.191,0,0,0,.35-6.822V10.958a20.95,20.95,0,0,0-.593-6.331,7.86,7.86,0,0,0-3.252-1.712L51.032.466h6.786c1.434,0,5.875-.246,7.939-.246,7.17,0,11.579,2.939,11.579,9.093,0,6.331-4.725,10.038-11.962,10.038a29.026,29.026,0,0,1-4.023-.28,25.282,25.282,0,0,0,.525,5.282A11.517,11.517,0,0,0,65.9,26l-.523,2.447H51.032L50.509,26Zm7.346-9.689a23.439,23.439,0,0,0,3.358.28,9.77,9.77,0,0,0,3.674-.559A7.259,7.259,0,0,0,69.99,9.557a7.22,7.22,0,0,0-1.574-4.894,6.117,6.117,0,0,0-3.534-.945,11.605,11.605,0,0,0-3.18.42,53.524,53.524,0,0,0-.352,6.82Z" transform="translate(933.504 344.245)" fill="#9d2449"/>
    <path id="Trazado_235" data-name="Trazado 235" d="M1.072,25.25A3.229,3.229,0,0,1,0,24.748L.472,23.7a3.26,3.26,0,0,0,.922.458,3.455,3.455,0,0,0,1.068.172,1.7,1.7,0,0,0,.879-.176.537.537,0,0,0,.286-.47.454.454,0,0,0-.169-.358,1.315,1.315,0,0,0-.43-.229c-.176-.057-.413-.119-.71-.189a9.847,9.847,0,0,1-1.129-.328,1.84,1.84,0,0,1-.754-.523,1.428,1.428,0,0,1-.316-.966A1.678,1.678,0,0,1,.4,20.132a1.923,1.923,0,0,1,.858-.676,3.519,3.519,0,0,1,1.4-.25,4.734,4.734,0,0,1,1.129.138,3.32,3.32,0,0,1,.966.4L4.324,20.8a3.372,3.372,0,0,0-1.672-.477,1.554,1.554,0,0,0-.864.191.579.579,0,0,0-.282.5.492.492,0,0,0,.324.462,5.336,5.336,0,0,0,.985.3,9.053,9.053,0,0,1,1.129.326,1.853,1.853,0,0,1,.754.517,1.379,1.379,0,0,1,.316.958,1.639,1.639,0,0,1-.29.941,1.942,1.942,0,0,1-.864.678,3.511,3.511,0,0,1-1.407.248,4.845,4.845,0,0,1-1.381-.193" transform="translate(877 365.483)" fill="#b38e5d"/>
    <path id="Trazado_236" data-name="Trazado 236" d="M8.041,24.167v1.119H3.372V19.253H7.929v1.123H4.757v1.307h2.8V22.77h-2.8v1.4Z" transform="translate(880.772 365.538)" fill="#b38e5d"/>
    <path id="Trazado_237" data-name="Trazado 237" d="M8.066,25.044a3,3,0,0,1-1.174-1.11,3.249,3.249,0,0,1,0-3.216,3.008,3.008,0,0,1,1.174-1.112,3.485,3.485,0,0,1,1.674-.4,3.548,3.548,0,0,1,1.42.278,2.824,2.824,0,0,1,1.064.792l-.9.826A1.925,1.925,0,0,0,9.809,20.4a2,2,0,0,0-1,.246,1.734,1.734,0,0,0-.686.684,2.153,2.153,0,0,0,0,2,1.716,1.716,0,0,0,.686.682,1.982,1.982,0,0,0,1,.248,1.916,1.916,0,0,0,1.517-.716l.9.826a2.81,2.81,0,0,1-1.068.8,3.567,3.567,0,0,1-1.424.275,3.458,3.458,0,0,1-1.665-.4" transform="translate(884.234 365.484)" fill="#b38e5d"/>
    <path id="Trazado_238" data-name="Trazado 238" d="M14.023,25.287l-1.163-1.68H11.576v1.68h-1.4V19.255h2.61a3.3,3.3,0,0,1,1.392.267,1.991,1.991,0,0,1,1.227,1.92,1.965,1.965,0,0,1-1.242,1.907l1.354,1.939Zm-.354-4.623a1.471,1.471,0,0,0-.958-.271H11.576v2.1h1.136a1.462,1.462,0,0,0,.958-.275,1.088,1.088,0,0,0,.015-1.54Z" transform="translate(888.388 365.538)" fill="#b38e5d"/>
    <path id="Trazado_239" data-name="Trazado 239" d="M18.392,24.167v1.119h-4.67V19.253H18.28v1.123H15.108v1.307h2.8V22.77h-2.8v1.4Z" transform="translate(892.351 365.538)" fill="#b38e5d"/>
    <path id="Trazado_240" data-name="Trazado 240" d="M18.615,20.392H16.682V19.254h5.259v1.138H20.009v4.894H18.615Z" transform="translate(895.663 365.539)" fill="#b38e5d"/>
    <path id="Trazado_241" data-name="Trazado 241" d="M24.321,23.994h-2.8l-.534,1.292H19.554l2.689-6.032h1.379l2.7,6.032H24.855Zm-.441-1.059-.956-2.309-.958,2.309Z" transform="translate(898.875 365.539)" fill="#b38e5d"/>
    <path id="Trazado_242" data-name="Trazado 242" d="M27.44,25.287l-1.163-1.68H24.993v1.68H23.6V19.255h2.61a3.3,3.3,0,0,1,1.392.267,1.991,1.991,0,0,1,1.227,1.92,1.965,1.965,0,0,1-1.242,1.907l1.354,1.939Zm-.354-4.623a1.471,1.471,0,0,0-.958-.271H24.993v2.1h1.136a1.462,1.462,0,0,0,.958-.275,1.091,1.091,0,0,0,.015-1.542Z" transform="translate(903.398 365.538)" fill="#b38e5d"/>
    <path id="Trazado_243" data-name="Trazado 243" d="M28.262,18.437h1.449l-1.559,1.239H27.1Zm-1.076,1.731h1.4V26.2h-1.4Z" transform="translate(907.316 364.625)" fill="#b38e5d"/>
    <path id="Trazado_244" data-name="Trazado 244" d="M33.42,23.994h-2.8l-.534,1.292H28.653l2.689-6.032h1.379l2.7,6.032H33.954Zm-.441-1.059-.956-2.309-.958,2.309Z" transform="translate(909.054 365.539)" fill="#b38e5d"/>
    <path id="Trazado_245" data-name="Trazado 245" d="M34.4,19.253h2.739a3.851,3.851,0,0,1,1.737.375,2.809,2.809,0,0,1,1.172,1.057,3.2,3.2,0,0,1,0,3.17,2.819,2.819,0,0,1-1.172,1.055,3.823,3.823,0,0,1-1.737.375H34.4Zm2.672,4.886a2.023,2.023,0,0,0,1.443-.5,2,2,0,0,0,0-2.733,2.034,2.034,0,0,0-1.443-.5H35.8v3.739Z" transform="translate(915.483 365.537)" fill="#b38e5d"/>
    <path id="Trazado_246" data-name="Trazado 246" d="M42.983,24.167v1.119h-4.67V19.253h4.557v1.123H39.7v1.307h2.8V22.77H39.7v1.4Z" transform="translate(919.861 365.538)" fill="#b38e5d"/>
    <path id="Trazado_247" data-name="Trazado 247" d="M48.832,19.254v6.032h-1.4V22.813H44.7v2.473H43.3V19.254h1.4v2.379h2.739V19.254Z" transform="translate(925.438 365.538)" fill="#b38e5d"/>
    <path id="Trazado_248" data-name="Trazado 248" d="M51.531,23.994h-2.8L48.2,25.286H46.764l2.689-6.032h1.379l2.7,6.032H52.065Zm-.441-1.059-.956-2.309-.958,2.309Z" transform="translate(929.315 365.539)" fill="#b38e5d"/>
    <path id="Trazado_249" data-name="Trazado 249" d="M52.187,25.044a3,3,0,0,1-1.174-1.11,3.249,3.249,0,0,1,0-3.216,3.008,3.008,0,0,1,1.174-1.112,3.485,3.485,0,0,1,1.674-.4,3.548,3.548,0,0,1,1.42.278,2.824,2.824,0,0,1,1.064.792l-.9.826A1.925,1.925,0,0,0,53.93,20.4a2,2,0,0,0-1,.246,1.734,1.734,0,0,0-.686.684,2.153,2.153,0,0,0,0,2,1.716,1.716,0,0,0,.686.682,1.982,1.982,0,0,0,1,.248,1.916,1.916,0,0,0,1.517-.716l.9.826a2.81,2.81,0,0,1-1.068.8,3.567,3.567,0,0,1-1.424.275,3.458,3.458,0,0,1-1.665-.4" transform="translate(933.592 365.484)" fill="#b38e5d"/>
    <rect id="Rectángulo_108" data-name="Rectángulo 108" width="1.396" height="6.032" transform="translate(992.047 384.793)" fill="#b38e5d"/>
    <path id="Trazado_250" data-name="Trazado 250" d="M60.858,24.167v1.119h-4.67V19.253h4.557v1.123H57.574v1.307h2.8V22.77h-2.8v1.4Z" transform="translate(939.857 365.538)" fill="#b38e5d"/>
    <path id="Trazado_251" data-name="Trazado 251" d="M65,19.254v6.032H63.858l-3.009-3.663v3.663H59.47V19.254h1.157l3,3.663V19.254Z" transform="translate(943.529 365.538)" fill="#b38e5d"/>
    <path id="Trazado_252" data-name="Trazado 252" d="M63.309,19.253h2.739a3.851,3.851,0,0,1,1.737.375,2.809,2.809,0,0,1,1.172,1.057,3.2,3.2,0,0,1,0,3.17,2.818,2.818,0,0,1-1.172,1.055,3.823,3.823,0,0,1-1.737.375H63.309Zm2.672,4.886a2.023,2.023,0,0,0,1.443-.5,2,2,0,0,0,0-2.733,2.034,2.034,0,0,0-1.443-.5H64.705v3.739Z" transform="translate(947.824 365.537)" fill="#b38e5d"/>
    <path id="Trazado_253" data-name="Trazado 253" d="M71.574,23.994h-2.8l-.534,1.292H66.807L69.5,19.254h1.379l2.7,6.032H72.108Zm-.441-1.059-.956-2.309-.958,2.309Z" transform="translate(951.737 365.539)" fill="#b38e5d"/>
    <path id="Trazado_254" data-name="Trazado 254" d="M12.485,28.028v2.138H11.091V28.012L8.754,24.134h1.481l1.612,2.68,1.612-2.68h1.369Z" transform="translate(886.793 370.998)" fill="#b38e5d"/>
    <path id="Trazado_255" data-name="Trazado 255" d="M15.576,29.924a3,3,0,0,1-1.174-1.11,3.249,3.249,0,0,1,0-3.216,3.008,3.008,0,0,1,1.174-1.112,3.485,3.485,0,0,1,1.674-.4,3.548,3.548,0,0,1,1.42.278,2.824,2.824,0,0,1,1.064.792l-.9.826a1.934,1.934,0,0,0-1.517-.708,2.027,2.027,0,0,0-1,.248,1.734,1.734,0,0,0-.686.684,2.153,2.153,0,0,0,0,2,1.715,1.715,0,0,0,.686.682,1.982,1.982,0,0,0,1,.248,1.916,1.916,0,0,0,1.517-.716l.9.826a2.81,2.81,0,0,1-1.068.8,3.567,3.567,0,0,1-1.424.275,3.458,3.458,0,0,1-1.665-.4" transform="translate(892.635 370.943)" fill="#b38e5d"/>
    <path id="Trazado_256" data-name="Trazado 256" d="M21.533,30.168l-1.163-1.68H19.086v1.68h-1.4V24.136H20.3a3.3,3.3,0,0,1,1.392.267,1.991,1.991,0,0,1,1.227,1.92,1.965,1.965,0,0,1-1.242,1.907l1.354,1.939Zm-.354-4.623a1.471,1.471,0,0,0-.958-.271H19.086v2.1h1.136a1.462,1.462,0,0,0,.958-.275,1.088,1.088,0,0,0,.015-1.54Z" transform="translate(896.79 370.999)" fill="#b38e5d"/>
    <path id="Trazado_257" data-name="Trazado 257" d="M25.9,29.961V31.08h-4.67V25.048h4.559v1.123H22.619v1.307h2.8v1.087h-2.8v1.4ZM23.9,23.317h1.447l-1.561,1.242H22.733Z" transform="translate(900.753 370.084)" fill="#b38e5d"/>
    <path id="Trazado_258" data-name="Trazado 258" d="M24.514,24.134h2.739a3.851,3.851,0,0,1,1.737.375,2.809,2.809,0,0,1,1.172,1.057,3.2,3.2,0,0,1,0,3.17,2.818,2.818,0,0,1-1.172,1.055,3.823,3.823,0,0,1-1.737.375H24.514Zm2.672,4.886a2.023,2.023,0,0,0,1.443-.5,2,2,0,0,0,0-2.733,2.034,2.034,0,0,0-1.443-.5H25.91v3.74Z" transform="translate(904.424 370.998)" fill="#b38e5d"/>
    <rect id="Rectángulo_109" data-name="Rectángulo 109" width="1.396" height="6.032" transform="translate(937.23 395.132)" fill="#b38e5d"/>
    <path id="Trazado_259" data-name="Trazado 259" d="M31.924,25.272H29.992V24.135h5.259v1.138H33.318v4.894H31.924Z" transform="translate(910.552 370.999)" fill="#b38e5d"/>
    <path id="Trazado_260" data-name="Trazado 260" d="M34.782,29.921A3.017,3.017,0,0,1,33.6,28.8a3.076,3.076,0,0,1,1.03-4.227c.051-.03.1-.057.153-.085a3.73,3.73,0,0,1,3.381,0,3.077,3.077,0,0,1,.146,5.345c-.049.03-.1.057-.146.085A3.743,3.743,0,0,1,34.782,29.921Zm2.657-1.032a1.754,1.754,0,0,0,.678-.684,2.149,2.149,0,0,0,0-2,1.76,1.76,0,0,0-.678-.686,2.014,2.014,0,0,0-1.93,0,1.754,1.754,0,0,0-.676.686,2.149,2.149,0,0,0,0,2,1.749,1.749,0,0,0,.676.684,2.014,2.014,0,0,0,1.93,0" transform="translate(914.086 370.944)" fill="#b38e5d"/>
    <path id="Trazado_261" data-name="Trazado 261" d="M43.033,24.4a2.162,2.162,0,0,1,1.013,2.888,1.887,1.887,0,0,1-.1.193,2.024,2.024,0,0,1-.909.758,3.411,3.411,0,0,1-1.392.263H40.427v1.663h-1.4V24.134h2.61a3.368,3.368,0,0,1,1.392.267m-.513,2.693a1.084,1.084,0,0,0,.017-1.534l-.017-.017a1.471,1.471,0,0,0-.958-.271H40.427v2.093h1.136a1.471,1.471,0,0,0,.958-.271" transform="translate(920.664 370.998)" fill="#b38e5d"/>
    <path id="Trazado_262" data-name="Trazado 262" d="M43.206,30.468a2.751,2.751,0,0,1-.72-2.04V25.048h1.4v3.326c0,1.083.447,1.621,1.343,1.621a1.266,1.266,0,0,0,1-.392,1.83,1.83,0,0,0,.345-1.229V25.048H47.95v3.379a2.853,2.853,0,0,1-4.744,2.04Zm2.4-7.151h1.447l-1.559,1.242H44.444Z" transform="translate(924.523 370.084)" fill="#b38e5d"/>
    <path id="Trazado_263" data-name="Trazado 263" d="M51.5,27.58a1.5,1.5,0,0,1,.294.943,1.388,1.388,0,0,1-.617,1.218,3.138,3.138,0,0,1-1.8.428H46.267V24.137h2.947a2.866,2.866,0,0,1,1.693.424,1.326,1.326,0,0,1,.589,1.146,1.44,1.44,0,0,1-.8,1.324,1.6,1.6,0,0,1,.809.549m-3.852-2.392v1.424h1.39a1.411,1.411,0,0,0,.784-.182.609.609,0,0,0,.267-.534.6.6,0,0,0-.267-.53,1.41,1.41,0,0,0-.784-.176Zm2.462,3.75a.619.619,0,0,0,.28-.561q0-.747-1.11-.75H47.653v1.492h1.631a1.55,1.55,0,0,0,.831-.18" transform="translate(928.759 370.995)" fill="#b38e5d"/>
    <path id="Trazado_264" data-name="Trazado 264" d="M49.931,24.134h1.4v4.9H54.35v1.136h-4.42Z" transform="translate(932.857 370.998)" fill="#b38e5d"/>
    <rect id="Rectángulo_110" data-name="Rectángulo 110" width="1.396" height="6.032" transform="translate(989.164 395.133)" fill="#b38e5d"/>
    <path id="Trazado_265" data-name="Trazado 265" d="M56.249,29.924a3,3,0,0,1-1.174-1.11,3.249,3.249,0,0,1,0-3.216,3.008,3.008,0,0,1,1.174-1.112,3.485,3.485,0,0,1,1.674-.4,3.548,3.548,0,0,1,1.42.278,2.824,2.824,0,0,1,1.064.792l-.9.826a1.934,1.934,0,0,0-1.517-.708,2.027,2.027,0,0,0-1,.248,1.734,1.734,0,0,0-.686.684,2.153,2.153,0,0,0,0,2,1.716,1.716,0,0,0,.686.682,1.982,1.982,0,0,0,1,.248,1.916,1.916,0,0,0,1.517-.716l.9.826a2.81,2.81,0,0,1-1.068.8,3.567,3.567,0,0,1-1.424.275,3.458,3.458,0,0,1-1.665-.4" transform="translate(938.136 370.943)" fill="#b38e5d"/>
    <path id="Trazado_266" data-name="Trazado 266" d="M59.742,29.921A3.017,3.017,0,0,1,58.56,28.8a3.076,3.076,0,0,1,1.03-4.227c.051-.03.1-.057.153-.085a3.73,3.73,0,0,1,3.381,0,3.077,3.077,0,0,1,.146,5.345c-.049.03-.1.057-.146.085A3.743,3.743,0,0,1,59.742,29.921ZM62.4,28.889a1.754,1.754,0,0,0,.678-.684,2.149,2.149,0,0,0,0-2,1.76,1.76,0,0,0-.678-.686,2.014,2.014,0,0,0-1.93,0,1.754,1.754,0,0,0-.676.686,2.149,2.149,0,0,0,0,2,1.749,1.749,0,0,0,.676.684,2.014,2.014,0,0,0,1.93,0" transform="translate(942.009 370.944)" fill="#b38e5d"/>
  </g>
</svg>
