<svg id="personaje3" xmlns="http://www.w3.org/2000/svg" xmlns:xlink="http://www.w3.org/1999/xlink" width="275.136" height="401.838" viewBox="0 0 275.136 401.838">
  <defs>
    <clipPath id="clip-path">
      <rect id="Rect치ngulo_86" data-name="Rect치ngulo 86" width="6.003" height="121.657" fill="none"/>
    </clipPath>
    <clipPath id="clip-path-2">
      <rect id="Rect치ngulo_85" data-name="Rect치ngulo 85" width="49.564" height="37.872" fill="none"/>
    </clipPath>
  </defs>
  <path id="Trazado_339" data-name="Trazado 339" d="M289.014,8.675a10.711,10.711,0,0,1,10.977-5.6,14.716,14.716,0,0,1,17.976-.027,13.366,13.366,0,0,1,12.8-.506,13.1,13.1,0,0,1,7.007,10.607,11.185,11.185,0,0,1,11.45,5.429,10.941,10.941,0,0,1-1.6,12.465A10.677,10.677,0,0,1,354.84,42.9a10.786,10.786,0,0,1-11.192,8.3L291.211,20.7a10.484,10.484,0,0,1-2.2-12.024" transform="translate(-171.065 -0.001)" fill="#1a2e35"/>
  <path id="Trazado_340" data-name="Trazado 340" d="M374.289,50.45A44.081,44.081,0,0,0,329.359,11.1l-2.291.047c-24.668,1.931-36.793,23.742-34.159,48.091l5.272,81.315,3.6,10.167,42.5,52.7,10.712-47.473.2-22.041s23.668-4.137,23.472-27.635c-.1-11.349-2.211-34.7-4.375-55.815" transform="translate(-200.162 2.162)" fill="#ffc09d"/>
  <path id="Trazado_354" data-name="Trazado 354" d="M343.288,115.258s-14.916,1.14-31.068-8.447c0,0,7.625,16.8,31.043,14.276Z" transform="translate(-188.286 20.839)" fill="#ff9b6c"/>
  <path id="Trazado_349" data-name="Trazado 349" d="M307.616,62.148a3.37,3.37,0,0,1-3.2,3.451,3.234,3.234,0,0,1-3.558-2.953,3.371,3.371,0,0,1,3.195-3.454,3.236,3.236,0,0,1,3.561,2.956" transform="translate(-139.036 11.546)" fill="#1a2e35"/>
  <path id="Trazado_344" data-name="Trazado 344" d="M313.4,55.277c-.411.446-3.018-1.383-6.666-1.3-3.645.032-6.284,1.944-6.688,1.511-.2-.192.213-.991,1.361-1.854a9.361,9.361,0,0,1,5.343-1.751,9.005,9.005,0,0,1,5.317,1.58c1.14.829,1.536,1.613,1.333,1.813" transform="translate(-143.85 10.122)" fill="#1a2e35"/>
  <path id="Trazado_350" data-name="Trazado 350" d="M334.946,63.665a3.369,3.369,0,0,1-3.2,3.45,3.232,3.232,0,0,1-3.558-2.953,3.372,3.372,0,0,1,3.2-3.454,3.236,3.236,0,0,1,3.56,2.957" transform="translate(-199.028 11.842)" fill="#1a2e35"/>
  <path id="Trazado_345" data-name="Trazado 345" d="M342.617,55.451c-.412.448-3.022-1.38-6.668-1.3-3.644.033-6.284,1.946-6.689,1.509-.2-.19.209-.988,1.362-1.854a9.381,9.381,0,0,1,5.342-1.748,8.99,8.99,0,0,1,5.318,1.58c1.137.827,1.536,1.611,1.334,1.811" transform="translate(-207.972 10.156)" fill="#1a2e35"/>
  <path id="Trazado_346" data-name="Trazado 346" d="M313.335,81.985c-.022-.206,2.238-.639,5.9-1.18.93-.114,1.807-.314,1.952-.948a4.663,4.663,0,0,0-.679-2.72q-1.384-3.316-2.9-6.963c-4.035-9.916-6.975-18.077-6.57-18.234s4,7.751,8.036,17.669q1.459,3.668,2.787,7.007c.373,1.041,1.005,2.217.558,3.608a2.327,2.327,0,0,1-1.5,1.379,6.351,6.351,0,0,1-1.578.25c-3.694.272-5.986.336-6.005.131" transform="translate(-166.119 10.133)" fill="#1a2e35"/>
  <path id="Trazado_347" data-name="Trazado 347" d="M344.18,46.817c-.415.945-3.573.169-7.391.308-3.818.054-6.978.992-7.391.067-.18-.442.44-1.309,1.763-2.134a11.48,11.48,0,0,1,5.633-1.593,11.06,11.06,0,0,1,5.629,1.307c1.321.759,1.94,1.594,1.757,2.045" transform="translate(-209.704 8.479)" fill="#1a2e35"/>
  <path id="Trazado_348" data-name="Trazado 348" d="M313.286,46.963c-.553.881-3.142.289-6.152.556-3.02.163-5.5,1.115-6.17.321-.3-.388.016-1.247,1.047-2.132A9.023,9.023,0,0,1,311.94,45c1.15.73,1.586,1.535,1.346,1.961" transform="translate(-144.765 8.552)" fill="#1a2e35"/>
  <path id="Trazado_341" data-name="Trazado 341" d="M383.244,40.2s-6.567-14.583-13.807-17.869c-8.765-3.98-12.3,5.523-20.623,3.4s-16.686-5.94-25.007.561c-9.107,7.113-4.672,11.883-5.025,22.316-1.438,42.308-8.987,54.417-11.62,34.558-.288-2.176-6.44-3.786-7.539-12.98-1.425-11.924-2.189-26.422.327-34.956,2.122-7.192,6.138-12.214,13.408-17.808,11.477-8.829,27.483-9.341,38.379-8.479S383.851,21.758,383.244,40.2" transform="translate(-211.624 1.686)" fill="#1a2e35"/>
  <path id="Trazado_355" data-name="Trazado 355" d="M375.759,71.429a6.423,6.423,0,0,0-7.085-6c-4.42.507-9.294,3.1-8.813,12.144.852,16.049,16.96,11.891,16.963,11.429,0-.313-.649-10.856-1.066-17.569" transform="translate(-278.721 12.756)" fill="#ffc09d"/>
  <path id="Trazado_356" data-name="Trazado 356" d="M370.608,82.292c-.074-.048-.273.21-.739.452a2.848,2.848,0,0,1-2.109.153c-1.747-.533-3.332-3.15-3.565-6.039a9.168,9.168,0,0,1,.578-4.043,3.248,3.248,0,0,1,2.011-2.258,1.445,1.445,0,0,1,1.708.68c.241.437.155.762.243.786.048.038.333-.288.168-.944a1.8,1.8,0,0,0-.692-.972,2.157,2.157,0,0,0-1.585-.327,3.963,3.963,0,0,0-2.819,2.642,9.425,9.425,0,0,0-.741,4.523c.276,3.229,2.109,6.168,4.49,6.717a3.055,3.055,0,0,0,2.561-.558c.482-.423.547-.786.49-.813" transform="translate(-276.354 13.608)" fill="#ff9b6c"/>
  <path id="Trazado_342" data-name="Trazado 342" d="M323.765,52.272c2.138,1.38,4.394,2.8,6.94,3s5.419-1.306,5.8-3.805c.17-1.121-.134-2.413.592-3.291.864-1.049,2.506-.76,3.869-.645a10.351,10.351,0,0,0,10.6-7.569c1.241,1.759,4.048,1.624,5.845.425s2.929-3.124,4.322-4.768,3.362-3.13,5.513-2.872c1.2.145,2.341.828,3.546.7,2.128-.231,3.117-2.722,3.4-4.822s.479-4.547,2.261-5.722c1.65-1.089,3.832-.523,5.8-.277s4.492-.261,4.955-2.169a3.789,3.789,0,0,0-.788-2.9,10.578,10.578,0,0,0-12.489-3.685,14.306,14.306,0,0,0-26.233-2.2,14.824,14.824,0,0,0-13-3.089,14.662,14.662,0,0,0-10,8.777,10.8,10.8,0,0,0-10.872,3.9,10.537,10.537,0,0,0-.63,11.426c-2.883,1.709-5.321,4.629-5.312,7.955s3.351,6.571,6.574,5.629a5.925,5.925,0,0,0,2.446,7.5,6.058,6.058,0,0,0,7.711-1.977" transform="translate(-227.058 0.79)" fill="#1a2e35"/>
  <path id="Trazado_351" data-name="Trazado 351" d="M349.867,39.369c-.057-.042-.271,1.355,1.076,3.067a5.228,5.228,0,0,0,3.293,1.852,5.658,5.658,0,0,0,4.6-1.425l-.688-.088a16.071,16.071,0,0,0,3.322,3.939,9.356,9.356,0,0,0,3,1.759,7.258,7.258,0,0,0,7.9-2.519,9.222,9.222,0,0,0,1.244-3.369,3.117,3.117,0,0,0,.1-1.3c-.071-.013-.2.43-.452,1.214a10.752,10.752,0,0,1-1.435,3.086c-1.49,2.334-6.478,3.613-9.749.424a16.159,16.159,0,0,1-3.167-3.691l-.3-.467-.393.38a4.968,4.968,0,0,1-3.888,1.313,4.8,4.8,0,0,1-2.97-1.472,7.779,7.779,0,0,1-1.492-2.7" transform="translate(-263.674 7.68)" fill="#375a64"/>
  <path id="Trazado_343" data-name="Trazado 343" d="M308.331,9.2c-.007.056.427.1,1.158.393a5.57,5.57,0,0,1,2.565,2.069l.2.3.219-.3a20.133,20.133,0,0,1,7.716-6.448A15.913,15.913,0,0,1,326.551,3.7a13.488,13.488,0,0,1,11.085,5.558,10.8,10.8,0,0,1,1.886,4.806l.062.507.489-.143a9.19,9.19,0,0,1,6.761.675,8.831,8.831,0,0,1,3.773,3.838,11.889,11.889,0,0,1,1.11,4.736,3.236,3.236,0,0,0,.17-1.317,8.863,8.863,0,0,0-.809-3.642,9.156,9.156,0,0,0-3.9-4.244,9.839,9.839,0,0,0-7.351-.864l.551.363a11.52,11.52,0,0,0-1.99-5.231A14.208,14.208,0,0,0,326.529,2.8a16.426,16.426,0,0,0-6.7,1.683,19.668,19.668,0,0,0-7.78,6.9h.418a5.524,5.524,0,0,0-2.895-2.038,2.482,2.482,0,0,0-1.246-.142" transform="translate(-192.236 0.544)" fill="#375a64"/>
  <path id="Trazado_352" data-name="Trazado 352" d="M317.413,81.81s-4.682,9.676,5.345,12a4.89,4.89,0,0,0,5.778-3.493l1.383-5.267c-.471.127-12.506-3.239-12.506-3.239" transform="translate(-179.818 15.961)" fill="#ff9b6c"/>
  <path id="Trazado_353" data-name="Trazado 353" d="M325.526,93.844c-.014-.054-.47.066-1.3.121a8.687,8.687,0,0,1-3.437-.514,7.519,7.519,0,0,1-4.776-9.164,7.285,7.285,0,0,1,1.025-2.266l-.336.122c3.875.982,7.3,1.823,9.752,2.4l2.9.649a3.947,3.947,0,0,0,1.068.16,4.038,4.038,0,0,0-1.017-.375l-2.852-.828c-2.426-.679-5.823-1.591-9.683-2.595l-.214-.055-.122.177a7.744,7.744,0,0,0-1.121,2.457,8.272,8.272,0,0,0,.957,6.483,8.2,8.2,0,0,0,7.881,3.593,3.415,3.415,0,0,0,1.275-.361" transform="translate(-178.903 15.899)" fill="#1a2e35"/>
  <path id="Trazado_360" data-name="Trazado 360" d="M283.635,129.134a6.508,6.508,0,0,1,.721.8q.735.889,1.985,2.408c1.756,2.174,4.246,5.262,7.373,9.137l.158.195-.2.154-6.247,4.693-.087-.51,7.332,2.3.231.072,0,.243c-.14,12.932-.314,29.214-.506,46.864-.317,21.544-.6,41.043-.814,55.234-.142,7.017-.259,12.717-.342,16.736-.056,1.925-.1,3.446-.134,4.55-.023.48-.041.869-.056,1.183a1.482,1.482,0,0,1-.047.4,1.442,1.442,0,0,1-.037-.4c-.007-.314-.016-.7-.026-1.183,0-1.105-.012-2.627-.02-4.552.019-4.02.045-9.722.079-16.74.147-14.193.349-33.693.572-55.237.253-17.649.486-33.93.672-46.863l.228.314-7.31-2.359-.545-.176.458-.337,6.3-4.62-.047.348-7.191-9.278-1.883-2.488a6.44,6.44,0,0,1-.613-.884" transform="translate(-105.73 25.194)" fill="#1a2e35"/>
  <path id="Trazado_361" data-name="Trazado 361" d="M378.479,271.246a1.679,1.679,0,0,1-.154-.388c-.1-.306-.227-.687-.382-1.159l-1.462-4.457c-1.284-3.865-3.187-9.444-5.63-16.306-1.241-3.431-2.6-7.181-4.051-11.205a133.9,133.9,0,0,1-4.12-13.07,292.682,292.682,0,0,1-5.758-30.81c-1.989-14.335-3.275-27.851-4.059-39.479l-.011-.165.12-.114,6.317-6.028.031.494-5.99-4.51-.234-.176.173-.232c4.537-6.088,8.222-11.032,10.816-14.511,1.262-1.662,2.256-2.973,2.976-3.92l.79-1.007a1.687,1.687,0,0,1,.294-.326,1.771,1.771,0,0,1-.224.376l-.723,1.055-2.848,4.013-10.6,14.665-.062-.406,6.029,4.458.307.228-.276.267-6.277,6.071.108-.277c.851,11.6,2.175,25.1,4.16,39.412a304.3,304.3,0,0,0,5.678,30.738q1.805,6.984,4.026,13.026l3.958,11.245c2.375,6.891,4.2,12.5,5.386,16.4.6,1.949,1.033,3.471,1.315,4.506.123.482.223.87.3,1.183a1.464,1.464,0,0,1,.073.411" transform="translate(-272.042 24.168)" fill="#1a2e35"/>
  <path id="Trazado_367" data-name="Trazado 367" d="M387.495,176.478a4.517,4.517,0,0,1,.339.932l.817,2.713c.706,2.467,1.679,5.863,2.869,10.017,2.385,8.469,5.658,20.175,8.982,33.183s5.955,24.891,7.61,33.531c.831,4.32,1.456,7.826,1.832,10.256.174,1.147.314,2.075.424,2.8a4.352,4.352,0,0,1,.092.986,4.571,4.571,0,0,1-.256-.958c-.149-.718-.341-1.637-.576-2.773-.514-2.51-1.223-5.968-2.088-10.2-1.8-8.6-4.521-20.441-7.84-33.445s-6.5-24.726-8.746-33.232c-1.084-4.182-1.972-7.6-2.615-10.084l-.668-2.754a4.451,4.451,0,0,1-.179-.975" transform="translate(-345.425 34.432)" fill="#1a2e35"/>
  <path id="Trazado_362" data-name="Trazado 362" d="M367.85,157.356a11.077,11.077,0,0,1-1.5-1.348l-3.986-3.921L348.9,138.481l.584-.019a16.347,16.347,0,0,0-3.472,7.308,16.139,16.139,0,0,0-.332,4.274l.054.92-.716-.575c-6.809-5.46-12.323-10.817-16.45-14.474-2.047-1.845-3.706-3.312-4.859-4.308a15.557,15.557,0,0,1-1.748-1.594,12.988,12.988,0,0,1,1.938,1.367c1.215.929,2.934,2.335,5.033,4.13,4.227,3.552,9.825,8.849,16.593,14.243l-.661.345a16.681,16.681,0,0,1,.341-4.494,16.939,16.939,0,0,1,3.677-7.665l.287-.33.3.31,13.255,13.809,3.818,4.086a11.146,11.146,0,0,1,1.31,1.542" transform="translate(-224.489 25.365)" fill="#1a2e35"/>
  <path id="Trazado_363" data-name="Trazado 363" d="M323.682,127.992a4.552,4.552,0,0,1,.066,1.254c-.007.814-.049,2-.165,3.493a72.583,72.583,0,0,1-1.995,12.01l-.25.986-.471-.907a29.339,29.339,0,0,0-5.215-7.123c-.6-.6-1.212-1.165-1.811-1.677l.667-.22a110.38,110.38,0,0,1-4.868,15.907c-.771,1.959-1.448,3.511-1.946,4.569a7.854,7.854,0,0,1-.85,1.6,8.486,8.486,0,0,1,.57-1.717l1.7-4.643a136.753,136.753,0,0,0,4.588-15.894l.147-.662.521.441c.618.523,1.252,1.105,1.866,1.722a29.048,29.048,0,0,1,5.318,7.349l-.721.078a88.11,88.11,0,0,0,2.271-11.866c.361-2.956.474-4.705.574-4.7" transform="translate(-162.313 24.972)" fill="#1a2e35"/>
  <g id="Grupo_95" data-name="Grupo 95" transform="translate(187.306 173.813)" opacity="0.3">
    <g id="Grupo_57" data-name="Grupo 57">
      <g id="Grupo_56" data-name="Grupo 56" clip-path="url(#clip-path)">
        <path id="Trazado_248" data-name="Trazado 248" d="M281.7,145.438l4.474,6.1s-1.249,92.567-6,115.552Z" transform="translate(-280.168 -145.438)"/>
      </g>
    </g>
  </g>
  <path id="Trazado_364" data-name="Trazado 364" d="M218.261,142.437s16.984,9.1,20.442,32.913c2.97,20.459,20.854,130.148,20.854,130.148l15.952,67.517H234.178L211.7,253.189Z" transform="translate(-0.374 27.79)" fill="#4d73aa"/>
  <path id="Trazado_357" data-name="Trazado 357" d="M391.966,378.323,368.732,167.93l-20.267-46.385-6.781-4.7-4.9,20.65-6.556,23.354L312.3,138.326l-28.309-21.943-.653,10.829-13.594,39.741,11.27,103.712V378.1Z" transform="translate(-186.201 22.706)" fill="#fff"/>
  <path id="Trazado_365" data-name="Trazado 365" d="M323.519,370.678a2.9,2.9,0,0,1-.056-.558c-.02-.411-.047-.954-.081-1.64-.055-1.492-.133-3.607-.232-6.307-.189-5.526-.458-13.438-.79-23.194-.687-19.584-1.775-46.632-3.332-76.49s-3.306-56.884-4.666-76.433c-.687-9.737-1.244-17.633-1.633-23.149-.183-2.695-.326-4.807-.427-6.3-.038-.685-.068-1.227-.091-1.639a2.81,2.81,0,0,1,0-.561,2.739,2.739,0,0,1,.087.553c.043.41.1.95.172,1.633.137,1.487.331,3.594.581,6.284.491,5.459,1.143,13.363,1.894,23.134,1.509,19.541,3.342,46.559,4.907,76.432s2.554,56.922,3.092,76.513c.27,9.8.447,17.723.527,23.2.033,2.7.06,4.818.078,6.31v1.641a2.8,2.8,0,0,1-.029.561" transform="translate(-168.522 30.127)" fill="#1a2e35"/>
  <path id="Trazado_358" data-name="Trazado 358" d="M381.808,263.848,349.259,163.091l57.591-30.955,12.031-13.024s2.559,54.052,2.96,68.369,6.707,68.585,9.52,101.592c1.5,17.634.537,47.089-.344,63.691-1.012,19.044-.8,25.339-.8,25.339l-56.345-.312L392.507,303.6Z" transform="translate(-321.41 23.239)" fill="#4d73aa"/>
  <path id="Trazado_359" data-name="Trazado 359" d="M261.784,131.989l39.263,15.1,6.09,145.995L322.3,377.888,279,378.7c-.4-10.339-11.419-96.475-11.419-96.475L253.111,147.414l-11.294-28.8Z" transform="translate(-83.158 23.141)" fill="#4d73aa"/>
  <g id="Grupo_96" data-name="Grupo 96" transform="translate(60.398 350.263)" opacity="0.3">
    <g id="Grupo_54" data-name="Grupo 54">
      <g id="Grupo_53" data-name="Grupo 53" clip-path="url(#clip-path-2)">
        <path id="Trazado_242" data-name="Trazado 242" d="M349.907,312.974l31.188,12.1,2.08-6.877,15.448,12.752.849-19.021L385.893,293.08l-33.7,10.805Z" transform="translate(-349.907 -293.08)"/>
      </g>
    </g>
  </g>
  <path id="Trazado_366" data-name="Trazado 366" d="M357.912,306.771a11.731,11.731,0,0,1-5.582-9.562,105.9,105.9,0,0,1,.95-16.293c2.228-18.365,26.86-125,26.86-125l36.3,83.1L405.946,275.2,459.4,300.526l-14.883,41.565s-71.03-25.721-86.609-35.32" transform="translate(-352.291 30.419)" fill="#4d73aa"/>
  <path id="Trazado_368" data-name="Trazado 368" d="M351.867,296.091a1.454,1.454,0,0,1,.348.1l1,.353,3.851,1.428,14.365,5.46,49.487,19.078-.516.234c3.11-8.7,6.478-18.126,9.967-27.889l4.9-13.68.208.5-52.837-25.243.037.014a31.62,31.62,0,0,0-12.478-1.413,31.289,31.289,0,0,0-9.235,2.322,39.249,39.249,0,0,0-5.361,2.789l-1.321.859a2.622,2.622,0,0,1-.466.273,2.682,2.682,0,0,1,.417-.339l1.278-.93a35.459,35.459,0,0,1,5.324-2.945,31.04,31.04,0,0,1,9.318-2.485,31.841,31.841,0,0,1,12.7,1.317l.019.006.02.01,52.937,25.035.331.157-.123.343c-1.589,4.446-3.228,9.026-4.894,13.683-3.5,9.759-6.88,19.18-10,27.877l-.136.382-.38-.148-49.381-19.349-14.28-5.673-3.8-1.546-.975-.415a1.433,1.433,0,0,1-.323-.163" transform="translate(-328.544 49.637)" fill="#1a2e35"/>
  <path id="Trazado_369" data-name="Trazado 369" d="M302.2,279.239s30.14,6.29,34.619,7.27,22.172,14.262,23.925,15.244,6.865,4.226,6.865,4.226-3.294,5.4-9.138,3.44a31.413,31.413,0,0,1-9.7-5.309l12.465,11.37,14.188,8.668a4.187,4.187,0,0,1,1.775,5.134,2.461,2.461,0,0,1-2.972,1.573c-4.034-.717-17.116-5.82-17.116-5.82s-.614,7.9-7.821,8.877c0,0-1.55,6.783-7.82,5.337,0,0-6.167,5.048-11.627,2.164s-19.636-8.681-22.558-14.562a87.244,87.244,0,0,0-6.622-10.979l-10.917-1.894Z" transform="translate(-195.645 54.481)" fill="#ffc09d"/>
  <path id="Trazado_371" data-name="Trazado 371" d="M322.455,319.04c-.1.212-3.871-1.306-8.27-3.741-4.42-2.424-7.538-5.131-7.37-5.328s3.455,2.121,7.82,4.514c4.353,2.408,7.943,4.3,7.821,4.555" transform="translate(-160.989 60.476)" fill="#ff9b6c"/>
  <path id="Trazado_372" data-name="Trazado 372" d="M312.81,316.587c.137-.241,3.87,1.854,8.153,4.864s7.791,5.353,7.673,5.568c-.13.235-3.9-1.787-8.2-4.8s-7.746-5.426-7.63-5.633" transform="translate(-174.339 61.765)" fill="#ff9b6c"/>
  <path id="Trazado_373" data-name="Trazado 373" d="M319.9,321.654c.172-.169,2.9,2.128,6.572,4.608,3.653,2.5,6.572,4.648,6.415,4.875-.134.2-3.258-1.586-6.941-4.109-3.708-2.506-6.246-5.186-6.046-5.374" transform="translate(-187.067 62.756)" fill="#ff9b6c"/>
  <path id="Trazado_370" data-name="Trazado 370" d="M313.348,289.587a7.935,7.935,0,0,1,3.16.686,24.143,24.143,0,0,1,6.815,3.833,32.035,32.035,0,0,1,5.474,5.58,9.35,9.35,0,0,1,1.721,2.745c-.247.2-3.086-3.871-7.765-7.591-4.665-3.793-9.493-4.984-9.4-5.253" transform="translate(-176.871 56.494)" fill="#ff9b6c"/>
</svg>
