<svg xmlns="http://www.w3.org/2000/svg" xmlns:xlink="http://www.w3.org/1999/xlink" width="158.937" height="282.613" viewBox="0 0 158.937 282.613">
  <defs>
    <clipPath id="clip-path">
      <rect id="Rectángulo_18" data-name="Rectángulo 18" width="158.937" height="282.613" fill="none"/>
    </clipPath>
    <clipPath id="clip-path-2">
      <rect id="Rectángulo_14" data-name="Rectángulo 14" width="39.288" height="12.333" fill="none"/>
    </clipPath>
    <clipPath id="clip-path-3">
      <rect id="Rectángulo_15" data-name="Rectángulo 15" width="48.906" height="18.224" fill="none"/>
    </clipPath>
    <clipPath id="clip-path-4">
      <rect id="Rectángulo_16" data-name="Rectángulo 16" width="66.489" height="16.075" fill="none"/>
    </clipPath>
    <clipPath id="clip-path-5">
      <rect id="Rectángulo_17" data-name="Rectángulo 17" width="32.241" height="66.641" fill="none"/>
    </clipPath>
  </defs>
  <g id="personaje1" clip-path="url(#clip-path)">
    <path id="Trazado_45" data-name="Trazado 45" d="M152.532,159.1a4.011,4.011,0,0,0-1.9-3.148C133.791,144.8,121.1,120.095,119.817,99.177c-.034-1.191-.072-2.4-.111-3.618v-.015h0c-.974-29.909-5.378-66.184-9.332-75.853C103.07,1.831,78.336.153,78.336.153,45.5-2.2,39.635,23.034,36.321,46.015c-2.061,14.291-10,65.342-10,65.342l6.035,2.335a74.29,74.29,0,0,0,43.931,45.946c6.054,2.279,11.178,3.194,13.583,1.233a82.6,82.6,0,0,0,34.554,20.977c5.3,1.613,10.861,2.691,16.38,2.175,3.583-.336,7.363-1.519,9.5-4.416a8.235,8.235,0,0,0-7.062-13.113c1.244-4.037,9.433-2.849,9.293-7.395" transform="translate(-12.626 0)" fill="#1a2e35"/>
    <path id="Trazado_46" data-name="Trazado 46" d="M106.941,16.339l-2.054-1.958-22.2,8.947a6.2,6.2,0,0,0-5.851,6l.2,72.332c-.029,4.9.955,9.153,3.916,13.063l3.118,4.116c7.109,9.385,21.733,8.613,27.361-1.728a7.877,7.877,0,0,0,.785-1.87,14.674,14.674,0,0,0,.33-1.617c.661-5.82.7-10.865.7-10.865.4-6.39.526-9.011.527-8.951,0,0,13.6-1.563,17.273-19.017,1.828-8.68,1.483-20.621.969-32.375-.711-16.264-11.993-26.091-25.067-26.075" transform="translate(-36.862 -6.899)" fill="#ffc09d"/>
    <path id="Trazado_47" data-name="Trazado 47" d="M126.383,160.162a44.819,44.819,0,0,1-23.247-7.466s5.314,12.476,23.005,11.712Z" transform="translate(-49.48 -73.257)" fill="#ff9b6c"/>
    <path id="Trazado_48" data-name="Trazado 48" d="M125.466,129.9c.4,0,.268,2.632,2.431,4.616s4.982,1.834,4.983,2.2c.029.168-.651.481-1.838.453a6.568,6.568,0,0,1-4.168-1.69,5.719,5.719,0,0,1-1.87-3.862c-.045-1.107.281-1.745.461-1.72" transform="translate(-59.97 -62.318)" fill="#1a2e35"/>
    <path id="Trazado_49" data-name="Trazado 49" d="M74.5,59.1S86.931,62.972,93.968,32.28C96.375,21.785,106.1,13.287,106.1,13.287L102.158,12.1s-24.523,6.908-24.936,7.218S71.035,32,71.035,32Z" transform="translate(-34.079 -5.805)" fill="#1a2e35"/>
    <path id="Trazado_50" data-name="Trazado 50" d="M71.795,95.612c.062-1.31-1.3-4.475-2.581-4.742-3.428-.712-9.67-.747-10.168,8.026-.68,11.992,11.5,10.2,11.54,9.858.032-.267.993-8.617,1.209-13.142" transform="translate(-28.314 -43.459)" fill="#ffc09d"/>
    <path id="Trazado_51" data-name="Trazado 51" d="M69.994,107.507c-.05-.042-.217.134-.579.276a2.092,2.092,0,0,1-1.564-.057c-1.24-.537-2.193-2.609-2.128-4.773A6.909,6.909,0,0,1,66.477,100a2.414,2.414,0,0,1,1.662-1.514,1.066,1.066,0,0,1,1.2.642c.142.345.052.58.114.6.032.033.269-.186.2-.686a1.334,1.334,0,0,0-.429-.779,1.581,1.581,0,0,0-1.138-.371A2.942,2.942,0,0,0,65.8,99.627a7.107,7.107,0,0,0-.914,3.3c-.06,2.421,1.048,4.752,2.754,5.352a2.244,2.244,0,0,0,1.929-.209c.388-.275.467-.54.426-.563" transform="translate(-31.128 -46.962)" fill="#ff9b6c"/>
    <path id="Trazado_52" data-name="Trazado 52" d="M93.9,55.392a17.48,17.48,0,0,0,1.8-.363,10.833,10.833,0,0,0,4.271-2.478,14.884,14.884,0,0,0,2.227-2.609,20.045,20.045,0,0,0,1.812-3.5,75.244,75.244,0,0,0,2.583-8.72c.842-3.128,1.756-6.082,2.758-8.708a50.113,50.113,0,0,1,3.125-6.775,36.12,36.12,0,0,1,2.747-4.213c.354-.477.662-.821.859-1.063a2.662,2.662,0,0,1,.319-.354,2.624,2.624,0,0,1-.269.394c-.181.255-.472.611-.81,1.1a40.923,40.923,0,0,0-2.649,4.249,52.492,52.492,0,0,0-3.048,6.769c-.983,2.62-1.884,5.566-2.725,8.688a72.108,72.108,0,0,1-2.619,8.749,19.991,19.991,0,0,1-1.865,3.541,14.834,14.834,0,0,1-2.3,2.628,10.63,10.63,0,0,1-4.388,2.43,6.621,6.621,0,0,1-1.83.243" transform="translate(-45.048 -7.966)" fill="#1a2e35"/>
    <path id="Trazado_53" data-name="Trazado 53" d="M57.17,102.606a3.334,3.334,0,0,1-.13-.58c-.075-.422-.175-.987-.3-1.7-.255-1.539-.618-3.73-1.079-6.511l.29-.042.2,1.417-.012-.045.251.538-.3.11a115.473,115.473,0,0,1-3.845-19.3A116.794,116.794,0,0,1,51.505,64c.042-4.383.011-9.039,1.185-13.689a21.62,21.62,0,0,1,2.181-5.444,29.706,29.706,0,0,1,3.316-4.617c2.439-2.818,5.066-5.24,7.464-7.646L78.527,19.937l8.713-8.505,2.388-2.293.631-.586a1.167,1.167,0,0,1,.228-.187,1.22,1.22,0,0,1-.189.226l-.593.625-2.316,2.366L78.8,20.212,66.007,32.962C63.617,35.377,61,37.813,58.6,40.6a23.646,23.646,0,0,0-5.375,9.849c-1.152,4.548-1.134,9.185-1.184,13.55a119.42,119.42,0,0,0,.684,12.436A120.746,120.746,0,0,0,56.393,95.7l-.3.111-.243-.542-.01-.023,0-.022c-.062-.5-.122-.983-.176-1.419l.29-.042c.4,2.79.72,4.987.943,6.532.1.723.171,1.292.228,1.716a3.42,3.42,0,0,1,.052.592" transform="translate(-24.71 -4.013)" fill="#375a64"/>
    <path id="Trazado_54" data-name="Trazado 54" d="M44.246,46.393a2.077,2.077,0,0,1,.211-.507l.7-1.408c.608-1.222,1.567-2.951,2.824-5.044s2.854-4.527,4.744-7.146c1.913-2.6,4.126-5.385,6.611-8.166,2.5-2.767,5.034-5.263,7.419-7.443,2.4-2.158,4.648-4.012,6.6-5.477s3.564-2.611,4.714-3.345L79.4,7.014a2.036,2.036,0,0,1,.482-.263,2.107,2.107,0,0,1-.421.355l-1.265.928c-1.111.787-2.689,1.969-4.6,3.475s-4.125,3.375-6.5,5.543c-2.355,2.19-4.863,4.683-7.352,7.436-2.472,2.767-4.685,5.525-6.612,8.1-1.9,2.591-3.534,4.987-4.821,7.051s-2.3,3.754-2.966,4.942l-.789,1.357a2.116,2.116,0,0,1-.309.456" transform="translate(-21.226 -3.238)" fill="#375a64"/>
    <path id="Trazado_55" data-name="Trazado 55" d="M70.655,175.251c.42-.605,3.215-6,3.215-6l15.854,13.666s15.541,13.017,15.541,12.174l2.48-12.521,3.054-11.392,5.7,8.616s17.915,35.123,17.915,35.545,11.088,36.773,11.088,36.773l-2.386,14.738-.281,52.212-33.4-1.4-6.6-10.527-11.369-66.95Z" transform="translate(-33.897 -81.197)" fill="#fff"/>
    <path id="Trazado_56" data-name="Trazado 56" d="M118.5,435.6h36.859L166.226,491.6H92.378Z" transform="translate(-44.318 -208.982)" fill="#1a2e35"/>
    <path id="Trazado_57" data-name="Trazado 57" d="M39.186,188.267l-21.518,8.076,19.878,88.5s-1.172,23.911-5.392,36.1-14.16,47.162-14.16,47.162h66.1s2.81-48.028,1.69-65.177-.652-49.5-7.215-66.377-32.914-58.346-32.914-58.346Z" transform="translate(-8.476 -85.497)" fill="#ff735d"/>
    <path id="Trazado_58" data-name="Trazado 58" d="M149.693,174.851l9.751,8.053,26.77,3.985s12.672,45.9,10.327,63.948.924,49.277.924,49.277L209.2,366.5H183.424s-7.351-77.637-7.79-76.7-1.845-37.976-4.658-50.635S154,186.883,154,186.883Z" transform="translate(-71.816 -83.885)" fill="#ff735d"/>
    <path id="Trazado_59" data-name="Trazado 59" d="M245,300.191s10.783-4.923,10.783-14.534-6.563-23.207-7.97-28.364-33.287-60.011-36.569-59.308l-3.282.7,16.878,74.076-22.973,5.626,9.8,28.2Z" transform="translate(-96.847 -94.981)" fill="#ff735d"/>
    <path id="Trazado_60" data-name="Trazado 60" d="M221.544,317.864l4.736-15.31.811-10.433,11.138-7.409s2.986.348,2.059,2.663-5.441,6.483-5.441,6.483l-2.663,7.43,4.328-7.546,6.323-3.126,6.252.463s1.158,2.779-1.737,2.895h-3.126l-4.746,3.82-2.965,7.178,4.47-6.946,6.6-2.345,4.168,1.071s1.158,1.853-.927,2.084-3.473.232-3.473.232l-3.821,2.22-3.357,7.041,5.9-4.862,7.641-.913s1.274,1.839-.695,2.534a63.876,63.876,0,0,0-5.9,2.778l-4.284,5.21Z" transform="translate(-106.287 -136.592)" fill="#ffc09d"/>
    <path id="Trazado_61" data-name="Trazado 61" d="M105.891,321.391a1.779,1.779,0,0,1-.11-.346l-.27-1.028-.992-3.963-3.6-14.587c-1.524-6.157-3.348-13.486-5.44-21.606-1.051-4.059-2.162-8.318-3.376-12.714q-.9-3.3-1.914-6.685c-.337-1.127-.717-2.246-1.077-3.382a29.629,29.629,0,0,0-1.38-3.294c-3.936-7.915-7.967-15.371-11.608-22.252L66.2,213.006l-.077-.144.12-.107c.736-.656,1.459-1.281,2.184-1.87a11.229,11.229,0,0,1,1.128-.83,1.181,1.181,0,0,1,.17-.091l.1-.041c.035-.011-.012,0-.024.016s.01-.03-.059.079a.186.186,0,0,0,.046.2.162.162,0,0,0,.056.034v0c-.05-.008-.192-.015-.291-.019l-.656-.012c-1.744-.009-3.382.017-4.9.038l-.113,0-.04-.1-3.592-9.289-.931-2.47-.229-.639a.916.916,0,0,1-.064-.222.881.881,0,0,1,.106.2l.269.623,1.009,2.438,3.731,9.235-.153-.1c1.521-.037,3.156-.08,4.91-.085l.665.007a2.64,2.64,0,0,1,.375.029l.042.011a.156.156,0,0,1,.063.041.2.2,0,0,1,.051.209c-.061.116-.054.07-.068.09a.567.567,0,0,1-.1.047l-.053.024a.866.866,0,0,0-.126.07,11.157,11.157,0,0,0-1.074.806c-.712.587-1.43,1.217-2.155,1.872l.043-.251,10.012,18.484c3.664,6.874,7.7,14.315,11.649,22.254a30.169,30.169,0,0,1,1.4,3.355c.362,1.142.745,2.271,1.082,3.4q1.011,3.392,1.909,6.7c1.209,4.4,2.31,8.666,3.348,12.73,2.065,8.13,3.851,15.47,5.327,21.64L104.726,316l.892,3.987c.091.434.163.778.217,1.04a1.779,1.779,0,0,1,.056.359" transform="translate(-28.319 -94.771)" fill="#1a2e35"/>
    <path id="Trazado_62" data-name="Trazado 62" d="M192.415,265.871a4.679,4.679,0,0,1,.008-.826c.032-.59.074-1.373.128-2.354q.048-.774.105-1.7,0-.939,0-2.025c0-1.453.035-3.106-.107-4.93A102.714,102.714,0,0,0,187,226.124a96.5,96.5,0,0,0-4.5-11.081l-.006-.012,0-.009a95.128,95.128,0,0,0-5.2-10.129c-1.715-2.983-3.3-5.58-4.623-7.729l-3.133-5.014-.834-1.341a2.6,2.6,0,0,1-.265-.479,2.452,2.452,0,0,1,.34.429l.906,1.294c.78,1.137,1.9,2.809,3.263,4.935s2.985,4.707,4.733,7.68a91.328,91.328,0,0,1,5.3,10.155l-.009-.021a93.68,93.68,0,0,1,4.557,11.145,98.69,98.69,0,0,1,5.42,28.075c.118,1.833.059,3.5.027,4.953q-.027,1.088-.049,2.031-.083.926-.154,1.7c-.1.98-.173,1.762-.23,2.351a4.616,4.616,0,0,1-.118.815" transform="translate(-80.807 -91.311)" fill="#1a2e35"/>
    <path id="Trazado_63" data-name="Trazado 63" d="M244.692,367.11a4.154,4.154,0,0,1-.659.181l-1.928.443-7.266,1.587-25.4,5.392-.22.047-.073-.214-6.937-20.458-2.547-7.54-.1-.283.29-.068,19.11-4.492,8.234-1.922,3.712-.863a17.369,17.369,0,0,1,3.482-.6,13.13,13.13,0,0,1,5.894,1.2,14.805,14.805,0,0,1,3.782,2.473,13.231,13.231,0,0,1,1.9,2.106l.4.615a.91.91,0,0,1,.123.218,18.029,18.029,0,0,0-2.561-2.792,15,15,0,0,0-3.767-2.361,12.948,12.948,0,0,0-5.764-1.1,17.1,17.1,0,0,0-3.4.621l-3.7.893-8.223,1.974-19.1,4.553.195-.351,2.551,7.539,6.9,20.471-.292-.167,25.439-5.2,7.3-1.446,1.944-.364a4.183,4.183,0,0,1,.676-.1" transform="translate(-95.744 -162.307)" fill="#1a2e35"/>
    <path id="Trazado_64" data-name="Trazado 64" d="M40.294,464.348l35.186,3.231-6.055,10.772-37.07-3.621Z" transform="translate(-15.523 -222.773)" fill="#ff735d"/>
    <path id="Trazado_65" data-name="Trazado 65" d="M39.969,464.342a1.019,1.019,0,0,1-.127.2l-.394.554-1.537,2.09-5.733,7.647-.13-.3,35.77,3.4,1.308.128-.265.138,6.066-10.766.2.391-25.165-2.42-7.332-.749-1.971-.221a4.91,4.91,0,0,1-.694-.1,3.922,3.922,0,0,1,.658.02l1.942.139,7.308.6,25.3,2.215.4.035-.2.355-6.046,10.777-.087.156-.177-.018-1.308-.127-35.754-3.581-.335-.034.205-.264,5.922-7.595,1.6-2.011a5.846,5.846,0,0,1,.567-.664" transform="translate(-15.197 -222.766)" fill="#1a2e35"/>
    <path id="Trazado_66" data-name="Trazado 66" d="M229.716,469.819l5.5,10.388,11.823-2.414-6.269-9.574Z" transform="translate(-110.207 -224.63)" fill="#ff735d"/>
    <path id="Trazado_67" data-name="Trazado 67" d="M229.714,469.586a4.618,4.618,0,0,1,.73-.151l2.2-.378c1.913-.323,4.707-.79,8.089-1.3l.146-.022.083.126,6.3,9.551.223.337-.4.081-.592.121-11.238,2.259-.176.035-.082-.157c-1.657-3.178-2.995-5.841-3.911-7.671l-1.049-2.11a5.1,5.1,0,0,1-.328-.718,8.417,8.417,0,0,1,.463.777l1.187,2.113c1.009,1.807,2.421,4.339,4.059,7.387l-.258-.122,11.224-2.329.592-.121-.174.418-6.235-9.6.229.1c-3.268.45-6,.782-7.951,1.019l-2.282.271a7.8,7.8,0,0,1-.853.079" transform="translate(-110.205 -224.396)" fill="#1a2e35"/>
    <g id="Grupo_14" data-name="Grupo 14" transform="translate(19.663 246.598)" opacity="0.3">
      <g id="Grupo_13" data-name="Grupo 13">
        <g id="Grupo_12" data-name="Grupo 12" clip-path="url(#clip-path-2)">
          <path id="Trazado_68" data-name="Trazado 68" d="M39.267,479.782l-1.471,3.2,36.568,3.353L77.084,474l-5.048,8.98Z" transform="translate(-37.796 -474.003)"/>
        </g>
      </g>
    </g>
    <g id="Grupo_17" data-name="Grupo 17" transform="translate(28.666 204.933)" opacity="0.3">
      <g id="Grupo_16" data-name="Grupo 16">
        <g id="Grupo_15" data-name="Grupo 15" clip-path="url(#clip-path-3)">
          <path id="Trazado_69" data-name="Trazado 69" d="M55.1,393.916s5.739,12.029,13.2,15.551c10.169,4.8,35.644,1.665,35.644,1.665l.066-7.3-29.513,1.679Z" transform="translate(-55.1 -393.916)"/>
        </g>
      </g>
    </g>
    <path id="Trazado_70" data-name="Trazado 70" d="M10.55,211.908S.235,212.611,0,239.569s31.412,72.2,36.8,76.655,11.553,7.451,27.8,5.042c20.379-3.021,34.556-5.746,34.556-5.746l-2.813-24.614-36.335-1.641L30.475,228.552S20.63,210.736,10.55,211.908" transform="translate(0 -101.637)" fill="#ff735d"/>
    <g id="Grupo_20" data-name="Grupo 20" transform="translate(46.164 197.852)" opacity="0.3">
      <g id="Grupo_19" data-name="Grupo 19">
        <g id="Grupo_18" data-name="Grupo 18" clip-path="url(#clip-path-4)">
          <path id="Trazado_71" data-name="Trazado 71" d="M147.776,382.063c-3.993-1.664-8.45-1.7-12.776-1.712l-17.2-.046a43.723,43.723,0,0,0-11.061.912c-3.593.927-7.062,2.9-9.012,6.06l-8.988,7.429a59.524,59.524,0,0,0,34.671-2.032c2.782-1.037,5.519-2.293,8.452-2.754,7.767-1.219,15.637,3.29,23.366,1.851,0-4.326-3.456-8.045-7.449-9.709" transform="translate(-88.735 -380.304)"/>
        </g>
      </g>
    </g>
    <path id="Trazado_72" data-name="Trazado 72" d="M77.793,335.534s6.974,2.76,10.316,3.342a65.189,65.189,0,0,1,12.786,4.068,86.06,86.06,0,0,1,8.523,3.923l5.425,18.888s-9.009,5.667-19.179,5.376-19.179,3-20.487,2.079-1.453-2.515,0-3.241,7.613-1.6,7.613-1.6l5.318-2.179s-18.162,1.6-19.615.872-2.906-1.744-2.324-3.342a2.283,2.283,0,0,1,2.034-1.6s-3.923.146-3.778-1.453a5,5,0,0,1,2.18-3.342c.581-.291,8.2-3.388,8.2-3.388l9.8-1.948-9.41-.376-8.22,2.29s-3.28.371-2.549-2.389S75.178,345.7,75.178,345.7l12.786-.88s-9.88-1.445-10.9-4.5a4.706,4.706,0,0,1,.726-4.795" transform="translate(-30.856 -160.974)" fill="#ffc09d"/>
    <path id="Trazado_73" data-name="Trazado 73" d="M151.01,356.3h.631l24.955-1.1,7.461,21.787-27.621-1.8Z" transform="translate(-72.448 -170.408)" fill="#ffc09d"/>
    <path id="Trazado_74" data-name="Trazado 74" d="M90.194,381a22.166,22.166,0,0,1-3.051.234c-1.881.113-4.474.333-7.313.762s-5.381.991-7.211,1.44a22.088,22.088,0,0,1-2.983.681,13.8,13.8,0,0,1,2.882-1.055,54.221,54.221,0,0,1,14.611-2.215,13.823,13.823,0,0,1,3.065.153" transform="translate(-33.408 -182.71)" fill="#ff9b6c"/>
    <path id="Trazado_75" data-name="Trazado 75" d="M50.731,245.474a7.431,7.431,0,0,1-.824-1.2c-.5-.785-1.223-1.926-2.15-3.309a121.33,121.33,0,0,0-7.73-10.45,59.291,59.291,0,0,0-9.2-9.117,49.747,49.747,0,0,0-4.511-2.919,7.389,7.389,0,0,1,1.347.549,13.241,13.241,0,0,1,1.5.816,19.441,19.441,0,0,1,1.892,1.242,52.987,52.987,0,0,1,9.391,9.077,96.7,96.7,0,0,1,7.635,10.592c.889,1.415,1.559,2.591,2.008,3.41a7.412,7.412,0,0,1,.64,1.3" transform="translate(-12.625 -104.816)" fill="#1a2e35"/>
    <path id="Trazado_76" data-name="Trazado 76" d="M91.855,310.8a6.265,6.265,0,0,1-.56-1.211l-1.363-3.359c-1.144-2.839-2.745-6.75-4.607-11.029s-3.635-8.118-4.933-10.889l-1.531-3.286a6.215,6.215,0,0,1-.5-1.235,6.317,6.317,0,0,1,.694,1.139c.417.749.995,1.846,1.688,3.212,1.389,2.732,3.22,6.551,5.087,10.84s3.414,8.231,4.466,11.108c.527,1.439.936,2.61,1.2,3.425a6.256,6.256,0,0,1,.361,1.284" transform="translate(-37.59 -134.231)" fill="#1a2e35"/>
    <path id="Trazado_77" data-name="Trazado 77" d="M116.847,214.567a2.477,2.477,0,0,1-.631-.276l-1.711-.9-6.036-3.34.354-.178c-.294,2.713-.793,5.882-1.292,9.259-.2,1.375-.391,2.716-.546,4l-.06.5-.378-.322c-3.229-2.747-6.036-5.164-8.025-6.908l-2.32-2.065a5.106,5.106,0,0,1-.8-.8,5.127,5.127,0,0,1,.918.654l2.423,1.944c2.05,1.671,4.9,4.037,8.148,6.763l-.439.173c.148-1.292.334-2.638.536-4.015.5-3.383,1.024-6.543,1.362-9.234l.046-.361.309.183,5.938,3.511,1.646,1.018a2.469,2.469,0,0,1,.558.4" transform="translate(-45.769 -100.485)" fill="#1a2e35"/>
    <path id="Trazado_78" data-name="Trazado 78" d="M146.107,189.512a7.161,7.161,0,0,1,.049,1.429c-.018,1.025-.042,2.33-.07,3.889-.083,3.283-.236,7.817-.438,12.823,0,.123-.01.246-.015.365l-.036.876-.468-.738-6-9.458.376-.046c-.662,1.821-1.215,3.342-1.643,4.518a9.924,9.924,0,0,1-.686,1.64,9.9,9.9,0,0,1,.462-1.717l1.468-4.578.134-.418.242.372,6.107,9.389-.5.137c0-.119.01-.242.015-.365.2-5.006.416-9.537.6-12.816.1-1.557.18-2.859.244-3.882a7.148,7.148,0,0,1,.164-1.421" transform="translate(-65.808 -90.919)" fill="#1a2e35"/>
    <path id="Trazado_79" data-name="Trazado 79" d="M216.931,216.862a4,4,0,0,1-.836-.444l.118-.083c.665,2.356,2.541,10.047,4.667,19.174,1.3,5.561,2.438,10.6,3.239,14.258l.92,4.335a9.246,9.246,0,0,1,.265,1.607,9.338,9.338,0,0,1-.472-1.558l-1.09-4.3c-.9-3.633-2.1-8.661-3.4-14.222-2.126-9.126-3.841-16.854-4.286-19.262l-.035-.19.153.107a3.991,3.991,0,0,1,.752.575" transform="translate(-103.639 -103.713)" fill="#1a2e35"/>
    <path id="Trazado_80" data-name="Trazado 80" d="M102.21,398.818a3.149,3.149,0,0,1-.647.213l-1.883.509c-1.64.423-4.029.981-7.01,1.532A86.748,86.748,0,0,1,82.1,402.35a49.071,49.071,0,0,1-13.017-.869,26.152,26.152,0,0,1-6.408-2.24,22.452,22.452,0,0,1-2.778-1.674,19.519,19.519,0,0,1-2.288-2.116,84.231,84.231,0,0,1-6.583-8.378c-1.745-2.476-3.087-4.527-4-5.954L46,379.464a3.075,3.075,0,0,1-.323-.6,3.313,3.313,0,0,1,.415.541L47.2,381c.966,1.389,2.355,3.4,4.136,5.846a90.4,90.4,0,0,0,6.635,8.256,19.347,19.347,0,0,0,2.229,2.04,22.245,22.245,0,0,0,2.714,1.619,25.954,25.954,0,0,0,6.284,2.183,49.85,49.85,0,0,0,12.873.9A93.442,93.442,0,0,0,92.6,400.691c2.979-.5,5.375-1,7.027-1.358l1.905-.408a3.2,3.2,0,0,1,.674-.106" transform="translate(-21.911 -181.761)" fill="#1a2e35"/>
    <g id="Grupo_23" data-name="Grupo 23" transform="translate(31.695 105.261)" opacity="0.3">
      <g id="Grupo_22" data-name="Grupo 22">
        <g id="Grupo_21" data-name="Grupo 21" clip-path="url(#clip-path-5)">
          <path id="Trazado_81" data-name="Trazado 81" d="M60.924,202.329l2.79,13.241,2.272-1.414-1.31,3.147,28.489,51.667-3.7-11.8L67.29,215.205,70.8,212.4H64.9Z" transform="translate(-60.924 -202.329)"/>
        </g>
      </g>
    </g>
    <path id="Trazado_82" data-name="Trazado 82" d="M146.677,106.013s5.917,1.811,8.06.6-2-9.151-4.542-14.225" transform="translate(-70.369 -44.324)" fill="#ffc09d"/>
    <path id="Trazado_83" data-name="Trazado 83" d="M146.677,106.013a19.714,19.714,0,0,0,5.822,1.3,6.748,6.748,0,0,0,1.544-.117,2.958,2.958,0,0,0,.775-.265,1.352,1.352,0,0,0,.648-.674,3.2,3.2,0,0,0,.16-1.631,9.447,9.447,0,0,0-.314-1.5,32.638,32.638,0,0,0-2.281-5.52c-.882-1.775-1.839-3.507-2.835-5.218.777,1.821,1.612,3.614,2.4,5.42a46.64,46.64,0,0,1,2.084,5.492,10.2,10.2,0,0,1,.287,1.4,2.628,2.628,0,0,1-.092,1.288.7.7,0,0,1-.355.374,2.77,2.77,0,0,1-.619.227,6.162,6.162,0,0,1-1.4.156,17.432,17.432,0,0,1-2.912-.218c-.973-.137-1.944-.315-2.914-.517" transform="translate(-70.369 -44.324)" fill="#855a4c"/>
    <path id="Trazado_84" data-name="Trazado 84" d="M128.96,83.031c-.067,2.75-1.333,4.949-2.829,4.912s-2.655-2.294-2.588-5.043,1.334-4.949,2.83-4.913,2.654,2.294,2.588,5.044" transform="translate(-59.269 -37.415)" fill="#1d262d"/>
    <path id="Trazado_85" data-name="Trazado 85" d="M169.555,84.016c-.067,2.749-1.334,4.949-2.83,4.912s-2.654-2.294-2.588-5.044,1.333-4.949,2.829-4.912,2.655,2.294,2.588,5.044" transform="translate(-78.744 -37.887)" fill="#1d262d"/>
    <path id="Trazado_86" data-name="Trazado 86" d="M115.35,60.84s6.5-6.818,12.761,1.644A28.294,28.294,0,0,0,115.35,60.84" transform="translate(-55.34 -27.943)" fill="#564242"/>
    <path id="Trazado_87" data-name="Trazado 87" d="M157.117,66.144s6.5-6.818,12.76,1.644a28.29,28.29,0,0,0-12.76-1.644" transform="translate(-75.378 -30.487)" fill="#564242"/>
  </g>
</svg>
