<svg id="persona" xmlns="http://www.w3.org/2000/svg" xmlns:xlink="http://www.w3.org/1999/xlink" width="650.521" height="507.711" viewBox="0 0 650.521 507.711">
  <defs>
    <clipPath id="clip-path">
      <rect id="Rectángulo_84" data-name="Rectángulo 84" width="650.521" height="507.711" fill="none"/>
    </clipPath>
  </defs>
  <path id="Trazado_217" data-name="Trazado 217" d="M159.758,132.638l35.014-6.753,67.169,15.4,34.046,7.1.483,46.521L220.531,208.9l-51.247-15.185L149.91,165.207Z" transform="translate(96.417 80.965)" fill="#ffc09d"/>
  <g id="Grupo_54" data-name="Grupo 54">
    <g id="Grupo_53" data-name="Grupo 53" clip-path="url(#clip-path)">
      <path id="Trazado_218" data-name="Trazado 218" d="M163.837,135.861l33.047-7.785s23.361,72.225,81.021,69.117c46.995-2.534,47.047-50.214,47.047-50.214l34.355,6.071s14.406,87.229-1.385,148.416c-13.144,50.925-24.8,120.755-24.8,120.755H104.874Z" transform="translate(67.451 82.374)" fill="#cc950a"/>
      <path id="Trazado_219" data-name="Trazado 219" d="M404.962,349.737S310.824,184.826,293.881,163.652c-18.54-23.174-33.346-20.5-33.346-20.5l-9.967,111.108,80.039,113.561,19.076,6.88Z" transform="translate(161.156 92.012)" fill="#cc950a"/>
      <path id="Trazado_220" data-name="Trazado 220" d="M180.647,132.248s-53.5,4.287-72.7,91.943C99.264,263.839,88.292,310.3,85.131,341.535c-2.294,22.651,11.7,46.212,34.276,49.113l28.364,5.256a29.781,29.781,0,0,0,34.375-22.288l9.585-39.656-25.49-8.5,5.9-118.168Z" transform="translate(54.596 85.058)" fill="#cc950a"/>
      <path id="Trazado_221" data-name="Trazado 221" d="M267.727,180.589a6.628,6.628,0,0,1,.245,1.223c.136.889.314,2.064.539,3.533.112.776.235,1.63.368,2.557q.143,1.417.311,3.056c.222,2.194.49,4.691.6,7.467a184.057,184.057,0,0,1,.131,19.5,234.719,234.719,0,0,1-2.368,23.759c-1.229,8.383-2.775,16.308-4.344,23.473-1.54,7.174-3.119,13.587-4.451,18.97-1.362,5.375-2.489,9.718-3.309,12.708-.4,1.431-.715,2.575-.955,3.441a6.947,6.947,0,0,1-.389,1.185,6.6,6.6,0,0,1,.222-1.227c.2-.876.468-2.033.8-3.48.741-3.106,1.775-7.445,3.045-12.769,1.255-5.4,2.772-11.821,4.267-18.992,1.525-7.163,3.043-15.074,4.269-23.433s2.075-16.363,2.427-23.671c.309-7.306.378-13.9.051-19.429-.076-2.767-.3-5.261-.477-7.453q-.128-1.637-.24-3.056-.16-1.393-.294-2.562c-.156-1.476-.283-2.655-.378-3.548a6.757,6.757,0,0,1-.074-1.247" transform="translate(163.43 116.149)" fill="#1a2e35"/>
      <path id="Trazado_222" data-name="Trazado 222" d="M164.13,304.974a3.558,3.558,0,0,1-.273-.715c-.174-.541-.4-1.239-.68-2.113q-.441-1.427-1.055-3.41c-.463-1.326-.662-3-1.9-4.259a13.527,13.527,0,0,0-4.946-3.018,40.606,40.606,0,0,0-6.67-1.875,99.172,99.172,0,0,0-16.489-1.707l-.44-.012.066-.431c1.444-9.42,3.088-20.15,4.828-31.5,3.117-19.841,5.938-37.8,8-50.887l2.521-15.4q.458-2.64.728-4.182c.084-.434.153-.79.21-1.085a1.262,1.262,0,0,1,.1-.365,1.247,1.247,0,0,1-.013.378c-.035.3-.077.659-.128,1.1q-.209,1.55-.569,4.206c-.542,3.725-1.31,8.983-2.251,15.447-1.993,13.1-4.727,31.069-7.749,50.925-1.77,11.343-3.442,22.068-4.911,31.483l-.375-.442a97.115,97.115,0,0,1,16.607,1.85,40.3,40.3,0,0,1,6.745,1.985,13.879,13.879,0,0,1,5.081,3.224,6.086,6.086,0,0,1,1.292,2.294c.215.769.417,1.5.606,2.174q.552,2,.948,3.442c.233.887.421,1.6.565,2.146a3.607,3.607,0,0,1,.154.749" transform="translate(84.692 118.352)" fill="#1a2e35"/>
      <path id="Trazado_223" data-name="Trazado 223" d="M106.584,277.956a9.64,9.64,0,0,1,.424-2.205,35.313,35.313,0,0,1,2.067-5.768,39.325,39.325,0,0,1,31.4-22.855,35.258,35.258,0,0,1,6.122-.194,9.766,9.766,0,0,1,2.228.274,80.658,80.658,0,0,0-8.273.519,40.478,40.478,0,0,0-30.934,22.515,80.133,80.133,0,0,0-3.038,7.713" transform="translate(68.545 158.783)" fill="#1a2e35"/>
      <path id="Trazado_224" data-name="Trazado 224" d="M114.107,239.267a3.793,3.793,0,0,1,1.293-.122,28.079,28.079,0,0,1,3.526.156,40.706,40.706,0,0,1,21.314,8.766,27.8,27.8,0,0,1,2.616,2.369c.577.6.874.953.833,1-.1.1-1.444-1.145-3.819-2.885a47.035,47.035,0,0,0-21.019-8.645c-2.912-.432-4.745-.491-4.744-.636" transform="translate(73.39 153.804)" fill="#1a2e35"/>
      <path id="Trazado_225" data-name="Trazado 225" d="M154.022,192.251a12.357,12.357,0,0,1-.13-2.342c-.012-1.505-.1-3.686-.281-6.366a102,102,0,0,0-11.266-40.131c-1.239-2.386-2.3-4.292-3.071-5.582a12.2,12.2,0,0,1-1.109-2.07,12.668,12.668,0,0,1,1.39,1.895c.864,1.239,2.01,3.109,3.322,5.472a92.14,92.14,0,0,1,11.336,40.384c.108,2.7.1,4.892.012,6.4a12.3,12.3,0,0,1-.2,2.34" transform="translate(88.861 87.316)" fill="#1a2e35"/>
      <path id="Trazado_226" data-name="Trazado 226" d="M261.053,255.6c13.65-23.116,13.942-53.156,2.034-77.217,3.553,25.622,3.262,51.885-2.438,77.115" transform="translate(167.641 114.733)" fill="#966904"/>
      <path id="Trazado_227" data-name="Trazado 227" d="M200.623,248.723c-10.359,3.046-24.7,3.789-34.791-.056,7.9,11.208,23.129,15.273,36.345,11.622s25.4-16.88,26.422-30.553c-6.4,8.694-17.621,15.94-27.977,18.987" transform="translate(106.658 147.759)" fill="#966904"/>
      <path id="Trazado_228" data-name="Trazado 228" d="M239.789,218.572a3.99,3.99,0,0,1-.242.923c-.2.59-.435,1.487-.887,2.586A53.752,53.752,0,0,1,234.2,231.1a57.915,57.915,0,0,1-56.8,27.272,53.713,53.713,0,0,1-9.824-2.161c-1.139-.335-1.987-.711-2.572-.923a4.013,4.013,0,0,1-.873-.389c.026-.072,1.269.353,3.539.994a60.914,60.914,0,0,0,9.8,1.878,58.279,58.279,0,0,0,56.211-26.991,60.644,60.644,0,0,0,4.662-8.822c.92-2.176,1.365-3.41,1.438-3.385" transform="translate(105.569 140.578)" fill="#1a2e35"/>
      <path id="Trazado_229" data-name="Trazado 229" d="M162.5,288.591c.02.021-.123.174-.414.445a13.907,13.907,0,0,1-1.326,1.124,20.788,20.788,0,0,1-5.657,2.989,32.19,32.19,0,0,1-9.336,1.689,85.124,85.124,0,0,1-11.578-.409c-8.178-.7-15.516-1.9-20.8-2.841-2.642-.475-4.773-.887-6.244-1.19a12.086,12.086,0,0,1-2.269-.559,12.439,12.439,0,0,1,2.325.23l6.287.92c5.3.792,12.631,1.885,20.776,2.586a92.441,92.441,0,0,0,11.468.473,33.375,33.375,0,0,0,9.177-1.472c5.084-1.651,7.471-4.18,7.591-3.986" transform="translate(67.451 185.605)" fill="#1a2e35"/>
      <path id="Trazado_230" data-name="Trazado 230" d="M279.485,28.034l6.745-6.571c8.993,3.916,13.173,14.35,14.677,24.043s1.308,19.887,5.424,28.79c3.165,6.847,8.9,13.2,8.209,20.71-.656,7.153-7.12,12.938-7.156,20.119-.035,6.908,5.753,12.225,9.1,18.265,6.795,12.251,11.195,62.334,7.637,75.883-29.851-2.581-82.725-5.772-112.609-12.626,7.9-51.448,41.032-124.075,67.97-168.614" transform="translate(136.039 13.804)" fill="#1a2e35"/>
      <path id="Trazado_231" data-name="Trazado 231" d="M227.2,148.339h0" transform="translate(146.115 95.407)" fill="#ffc09d"/>
      <path id="Trazado_232" data-name="Trazado 232" d="M316.4,81.749c2.075-34.985-23.325-67-58.743-71.216-37.578-4.473-70.819,22.444-73.933,59.046l-8.812,147.786a12.89,12.89,0,0,0,2.259,8.047c8.676,12.682,24.4,22.6,38.432,24.554,13.6,1.888,27.39-1.645,38.945-8.073a12.613,12.613,0,0,0,6.4-10.817l.6-33.082a.209.209,0,0,1,.225-.217c2.046.15,7.269.23,9.272-.258,8.753-2.131,31.054-10.705,38.534-43.437,2.48-10.855,5-41.664,6.821-72.332" transform="translate(112.481 6.461)" fill="#ffc09d"/>
      <path id="Trazado_233" data-name="Trazado 233" d="M231.433,101.57c-.007-.327,3.659-.69,9.581-1.019,1.5-.049,2.928-.242,3.242-1.223.419-1.034-.1-2.655-.715-4.409q-1.757-5.459-3.686-11.455c-5.094-16.3-8.679-29.656-8.012-29.846s5.339,12.863,10.431,29.161q1.829,6.024,3.5,11.507c.457,1.7,1.3,3.658.4,5.8a3.7,3.7,0,0,1-2.588,1.97,10.321,10.321,0,0,1-2.55.171c-5.932-.1-9.6-.33-9.6-.657" transform="translate(148.85 34.484)" fill="#1a2e35"/>
      <path id="Trazado_234" data-name="Trazado 234" d="M263.132,63.357c-.654.711-4.52-2.555-10.086-2.711-5.557-.242-9.695,2.738-10.286,1.98-.291-.337.384-1.637,2.187-2.987a13.285,13.285,0,0,1,8.249-2.489,13.113,13.113,0,0,1,8.012,3.071c1.688,1.477,2.245,2.82,1.924,3.137" transform="translate(156.094 36.751)" fill="#1a2e35"/>
      <path id="Trazado_235" data-name="Trazado 235" d="M229.518,64.6c-.759.7-4.79-2.963-10.865-3.477-6.063-.6-10.776,2.253-11.376,1.421-.3-.37.516-1.689,2.578-2.987a15.019,15.019,0,0,1,9.18-2.087,14.717,14.717,0,0,1,8.572,3.723c1.748,1.653,2.279,3.092,1.909,3.406" transform="translate(133.276 36.921)" fill="#1a2e35"/>
      <path id="Trazado_236" data-name="Trazado 236" d="M247.092,131.184s-22.635.248-49.727-18.357c0,0,7,29.881,49.545,28.939Z" transform="translate(126.939 72.567)" fill="#ff9b6c"/>
      <path id="Trazado_237" data-name="Trazado 237" d="M236.3,92.867a10.679,10.679,0,0,0-9.174-4.494,9.616,9.616,0,0,0-6.85,3.032,5.905,5.905,0,0,0-.9,6.8c1.434,2.284,4.69,3.017,7.524,2.434s5.344-2.218,7.734-3.857a6.362,6.362,0,0,0,1.776-1.577,1.9,1.9,0,0,0,.128-2.136" transform="translate(140.632 56.834)" fill="#ff9b6c"/>
      <path id="Trazado_238" data-name="Trazado 238" d="M221.29,84.488c.951.012.562,6.236,5.7,11.031s11.916,4.578,11.908,5.452c.064.4-1.579,1.1-4.433.981a16.062,16.062,0,0,1-9.964-4.2,13.536,13.536,0,0,1-4.369-9.22c-.074-2.619.731-4.111,1.162-4.045" transform="translate(141.576 54.338)" fill="#1a2e35"/>
      <path id="Trazado_239" data-name="Trazado 239" d="M231.824,49.885c-.685,1.515-6.453.335-13.349.629-6.9.156-12.557,1.707-13.366.242-.358-.7.707-2.092,3.043-3.434a22.381,22.381,0,0,1,10.081-2.641A22.628,22.628,0,0,1,228.5,46.659c2.442,1.185,3.62,2.5,3.319,3.226" transform="translate(131.876 28.729)" fill="#1a2e35"/>
      <path id="Trazado_240" data-name="Trazado 240" d="M264.9,50.9c-1.181,1.311-5.864-.021-11.482-.059-5.616-.205-10.365.923-11.474-.435-.485-.661.25-1.972,2.317-3.216a19.161,19.161,0,0,1,18.5.4c2,1.331,2.664,2.672,2.143,3.311" transform="translate(155.519 28.945)" fill="#1a2e35"/>
      <path id="Trazado_241" data-name="Trazado 241" d="M266.081,9.13C263.028,3.939,257.349,1.564,251.008.6c-25.883-3.921-54.785,11.666-69.286,33.461s-15.278,54.31-4.66,78.238l16.142-10.1c32.42-13.367,55.314-44.6,76.162-76.874,2.839-4.394-.634-11.689-3.286-16.2" transform="translate(109.249 0)" fill="#1a2e35"/>
      <path id="Trazado_242" data-name="Trazado 242" d="M269.119,21.613C258.289,9.3,250.425-2.983,227.948,5.578c-3.311,6.3,3.359,14.463,8.927,19.237,8.153,6.99,15.278,11.711,20.628,16.714,10.819,10.115,23.106,44.108,24.168,62.664.066,1.163,2.065-15.927,3.235-16.108,1.515-.232,7.619-7.685,6.785-17.884-2.861-34.812-11.745-36.271-22.572-48.587" transform="translate(146.04 1.753)" fill="#1a2e35"/>
      <path id="Trazado_243" data-name="Trazado 243" d="M219.245.431c0-.164,1.975-.4,5.045.439A21.707,21.707,0,0,1,234.508,7.58a18.428,18.428,0,0,1,2.049,2.926,14.963,14.963,0,0,1,1.181,3.106,33.588,33.588,0,0,1,1.323,5.319c.45,3.18-.306,5.11-.467,5.048-.255-.038.076-1.936-.619-4.849a47.658,47.658,0,0,0-1.6-5.068,14.918,14.918,0,0,0-1.152-2.813,18.887,18.887,0,0,0-1.9-2.657,24.015,24.015,0,0,0-9.381-6.676c-2.8-1.052-4.716-1.224-4.695-1.485" transform="translate(141.011 0.174)" fill="#375a64"/>
      <path id="Trazado_244" data-name="Trazado 244" d="M255.853,69.131A4.92,4.92,0,0,1,251.2,74.18a4.707,4.707,0,0,1-5.151-4.343,4.924,4.924,0,0,1,4.649-5.051,4.708,4.708,0,0,1,5.156,4.345" transform="translate(158.246 41.66)" fill="#1a2e35"/>
      <path id="Trazado_245" data-name="Trazado 245" d="M222.914,69.337a4.919,4.919,0,0,1-4.652,5.049,4.706,4.706,0,0,1-5.151-4.343,4.922,4.922,0,0,1,4.648-5.051,4.708,4.708,0,0,1,5.155,4.345" transform="translate(137.061 41.792)" fill="#1a2e35"/>
      <path id="Trazado_246" data-name="Trazado 246" d="M132.444,150.328c3.053-5.03,6.505-9.764,12.158-11.849s11.924-3.329,16.322-7.368c6.878-6.316,6.632-16.836,5.942-26.008s-.782-19.738,6.251-25.888c5.873-5.138,15.229-5.6,20.316-11.481,3.4-3.929,4.07-9.355,5.268-14.356,3.217-13.435,10.631-36.874,50.2-50.366l-35.008,133c2.6.726,8.853,6.678,9.2,10.7.322,3.763-1.306,7.58-1.346,11.354-.048,4.622,5.033,7.383,8.221,10.807,4.042,4.343,5.284,10.621,4.663,16.451s-4.073,17.745-6.323,23.183c-32.48-3.286-79.855-4.346-104.609-25.057-4.514-3.776,1.941-21.913,8.747-33.128" transform="translate(78.591 1.937)" fill="#1a2e35"/>
      <path id="Trazado_247" data-name="Trazado 247" d="M194.284,62.985c-.6-.327-24.513-9.787-26.034,15.365S192.3,99.839,192.383,99.12s1.9-36.135,1.9-36.135" transform="translate(108.171 39.217)" fill="#ffc09d"/>
      <path id="Trazado_248" data-name="Trazado 248" d="M182.768,86.011c-.105-.087-.457.279-1.218.575a4.395,4.395,0,0,1-3.28-.131c-2.6-1.135-4.579-5.488-4.428-10.03a14.508,14.508,0,0,1,1.605-6.2c.881-1.8,2.148-3.007,3.5-3.165a2.233,2.233,0,0,1,2.512,1.357c.294.723.105,1.216.237,1.269.066.066.565-.389.424-1.441a2.793,2.793,0,0,0-.894-1.635,3.3,3.3,0,0,0-2.384-.787c-1.947.016-3.8,1.7-4.813,3.623a14.9,14.9,0,0,0-1.942,6.918c-.146,5.077,2.162,9.977,5.735,11.247a4.706,4.706,0,0,0,4.049-.422c.815-.575.983-1.129.9-1.18" transform="translate(110.677 42.333)" fill="#ff9b6c"/>
      <path id="Trazado_249" data-name="Trazado 249" d="M238.538,75.583a40.951,40.951,0,0,1,.8-5.641A23.142,23.142,0,0,1,247.6,57.224a22.831,22.831,0,0,1,21.581-3.567,22.881,22.881,0,0,1,10.71,7.789,22.7,22.7,0,0,1,.432,26.943,22.871,22.871,0,0,1-10.456,8.129,23.016,23.016,0,0,1-30.351-15.323,40.509,40.509,0,0,1-.978-5.611,1.206,1.206,0,0,0-.018.376c.008.3.018.665.031,1.109a10.666,10.666,0,0,0,.169,1.794,16.5,16.5,0,0,0,.473,2.419A23.368,23.368,0,0,0,257.77,98.43a23.586,23.586,0,0,0,12.376-1.175,23.6,23.6,0,0,0,10.86-8.382,23.475,23.475,0,0,0-.449-27.935,23.625,23.625,0,0,0-11.121-8.027,23.6,23.6,0,0,0-12.406-.779,23.369,23.369,0,0,0-18.019,17.735,16.357,16.357,0,0,0-.4,2.432,10.636,10.636,0,0,0-.112,1.8c0,.444,0,.808,0,1.109a1.255,1.255,0,0,0,.031.376" transform="translate(153.396 33.22)" fill="#375a64"/>
      <path id="Trazado_250" data-name="Trazado 250" d="M199.892,76.2a40.31,40.31,0,0,1,.8-5.641,23.133,23.133,0,0,1,8.263-12.718,22.831,22.831,0,0,1,21.581-3.567,22.881,22.881,0,0,1,10.71,7.789,22.7,22.7,0,0,1,.432,26.943,22.864,22.864,0,0,1-10.457,8.129A23.015,23.015,0,0,1,200.87,81.814a40.515,40.515,0,0,1-.978-5.611,1.207,1.207,0,0,0-.018.376c.008.3.018.665.031,1.109a10.66,10.66,0,0,0,.169,1.794,16.282,16.282,0,0,0,.473,2.419,23.368,23.368,0,0,0,18.576,17.148A23.587,23.587,0,0,0,231.5,97.874a23.6,23.6,0,0,0,10.86-8.382,23.475,23.475,0,0,0-.449-27.935,23.625,23.625,0,0,0-11.121-8.027,23.6,23.6,0,0,0-12.406-.779,23.369,23.369,0,0,0-18.019,17.735,16.315,16.315,0,0,0-.4,2.432,10.63,10.63,0,0,0-.112,1.8c0,.444,0,.808,0,1.109a1.258,1.258,0,0,0,.031.376" transform="translate(128.54 33.619)" fill="#375a64"/>
      <path id="Trazado_251" data-name="Trazado 251" d="M227.483,68c.123.084.785-.986,2.312-2.213a11.2,11.2,0,0,1,14-.255c1.569,1.17,2.271,2.215,2.389,2.126a5.965,5.965,0,0,0-2.011-2.6,11.008,11.008,0,0,0-14.779.269A5.99,5.99,0,0,0,227.483,68" transform="translate(146.304 40.096)" fill="#375a64"/>
      <path id="Trazado_252" data-name="Trazado 252" d="M180.551,61.234a22.2,22.2,0,0,0,4.65.965c2.9.449,6.926.886,11.372,1.273l11.374,1.02a31.533,31.533,0,0,0,4.726.365,22.172,22.172,0,0,0-4.65-.965c-2.9-.449-6.926-.886-11.374-1.273L185.277,61.6a31.53,31.53,0,0,0-4.726-.365" transform="translate(116.124 39.359)" fill="#375a64"/>
      <path id="Trazado_253" data-name="Trazado 253" d="M260.846,81.593c-.205-.182,3.156-3.027,4.928-7.946,1.855-4.888,1.152-9.236,1.426-9.241a6.48,6.48,0,0,1,.488,2.788,18.008,18.008,0,0,1-4.658,12.6,6.5,6.5,0,0,1-2.184,1.8" transform="translate(167.761 41.423)" fill="#fff"/>
      <path id="Trazado_254" data-name="Trazado 254" d="M263.271,59.074c.127-.192,1.065.283,1.6,1.4s.332,2.141.1,2.121c-.243,0-.424-.843-.874-1.748-.43-.915-.979-1.577-.83-1.77" transform="translate(169.311 37.968)" fill="#fff"/>
      <path id="Trazado_255" data-name="Trazado 255" d="M227.188,80.65c-.136-.053.33-1.324.7-3.442a23.566,23.566,0,0,0-3-16.116c-1.106-1.844-2-2.861-1.89-2.959a9.1,9.1,0,0,1,2.4,2.632,20.972,20.972,0,0,1,3.086,16.565,9.085,9.085,0,0,1-1.292,3.321" transform="translate(143.417 37.387)" fill="#fff"/>
      <path id="Trazado_256" data-name="Trazado 256" d="M173.355,84.677c.056.051-.343.488-.845,1.4a8.9,8.9,0,0,0-1.078,4.182,7.776,7.776,0,0,0,2.327,5.731,7.97,7.97,0,0,0,12.986-2.338,7.77,7.77,0,0,0,.182-6.183,8.886,8.886,0,0,0-2.468-3.543c-.789-.679-1.315-.95-1.28-1.015a3.64,3.64,0,0,1,1.485.754,8.5,8.5,0,0,1,2.823,3.577,8.274,8.274,0,0,1-.026,6.74A8.673,8.673,0,0,1,173.2,96.547a8.269,8.269,0,0,1-2.376-6.308,8.51,8.51,0,0,1,1.4-4.336,3.643,3.643,0,0,1,1.129-1.226" transform="translate(109.861 53.321)" fill="#e1e1e1"/>
      <path id="Trazado_257" data-name="Trazado 257" d="M256.849,103.231a6.988,6.988,0,0,0,4.369.271,8.615,8.615,0,0,0,4.024-2.483,10.443,10.443,0,0,0,2.608-5.169,9.437,9.437,0,0,0-.69-5.713,10.627,10.627,0,0,0-2.94-3.769,16.805,16.805,0,0,0-3.955-2.144,2.736,2.736,0,0,1,1.242.166,9.521,9.521,0,0,1,3.083,1.5,10.656,10.656,0,0,1,3.283,3.912,9.924,9.924,0,0,1,.818,6.208,10.863,10.863,0,0,1-2.88,5.559,8.87,8.87,0,0,1-4.45,2.524,6.031,6.031,0,0,1-3.444-.189c-.766-.307-1.094-.636-1.068-.67" transform="translate(165.195 54.155)" fill="#e1e1e1"/>
      <path id="Trazado_258" data-name="Trazado 258" d="M246.908,322.2l24.353,7.207s13.443,5.774,19.987,7.274c8.114,1.86,13.646-.667,13.947-5.171s-6.006-5.105-6.006-5.105-10.211-3.9-15.617-7.209-8.709-9.91-8.709-9.91l8.709,1.2s18.32,13.214,25.226,17.118,8.41-3,9.009-5.105-20.421-23.425-20.421-23.425,20.122,12.914,23.726,16.144,9.009,4.277,10.211,2.176,4.5-2.1,0-11.009S290.78,273.55,290.78,273.55l9.912-2.1,10.81,4.8s.6,4.506,4.506,10.291,10.81,0,10.81,0l-4.2-22.152-21.322-13.366s-22.222,2.7-25.527,4.2-6.906,7.789-6.906,7.789l-6.007,2.422c-9.309,2.7-9.008,12.013-12.012,12.314s-90.644-16.8-90.644-16.8l-7.943-2.072c-13.086,9.982-18.385,26.458-20.7,41.059,0,0-2.425,7.151,0,11.1Z" transform="translate(83.918 161.452)" fill="#ffc09d"/>
      <path id="Trazado_259" data-name="Trazado 259" d="M191.623,296.15a4.6,4.6,0,0,1-.082-1.431,8.513,8.513,0,0,1,.141-1.679,12.626,12.626,0,0,1,.442-2.192,31.042,31.042,0,0,1,6.119-11.29,66.407,66.407,0,0,1,9.067-9.088,26.478,26.478,0,0,1,4.257-3.175,42.422,42.422,0,0,1-3.858,3.63,85.493,85.493,0,0,0-8.8,9.169,33.922,33.922,0,0,0-6.2,10.922c-.961,3.088-.9,5.143-1.083,5.135" transform="translate(123.19 171.912)" fill="#ff9b6c"/>
      <path id="Trazado_260" data-name="Trazado 260" d="M223.495,258.327c.033.077-.726.375-1.849,1.28a19.927,19.927,0,0,0-4,4.588,22.672,22.672,0,0,0-2,3.689c-.624,1.336-.634,2.984-.951,4.706a11.957,11.957,0,0,1-1.929,5.192,20.7,20.7,0,0,0-2.92,4.887,13.381,13.381,0,0,0-.033,9.281l.117.309-.278.176a18.27,18.27,0,0,0-7.738,10.631,29.557,29.557,0,0,0-.741,5.253,4.921,4.921,0,0,1-.159-1.415,16.27,16.27,0,0,1,.417-3.958,18.265,18.265,0,0,1,7.79-11.192l-.161.483a14.023,14.023,0,0,1-.016-9.867,20.99,20.99,0,0,1,3.027-5.056,11.278,11.278,0,0,0,1.847-4.857c.332-1.651.366-3.375,1.075-4.849a22.363,22.363,0,0,1,2.157-3.753,18.234,18.234,0,0,1,4.3-4.514,7.081,7.081,0,0,1,1.482-.838c.363-.143.555-.2.567-.176" transform="translate(129.282 166.143)" fill="#ff9b6c"/>
      <path id="Trazado_261" data-name="Trazado 261" d="M232.015,265.907c.033.214-2.882.529-6.211-.672-3.339-1.173-5.4-3.258-5.238-3.4.161-.2,2.358,1.492,5.526,2.6,3.153,1.142,5.929,1.219,5.924,1.477" transform="translate(141.855 168.39)" fill="#ff9b6c"/>
      <path id="Trazado_262" data-name="Trazado 262" d="M238.037,282.15c-.094.217-4.223-1.361-9.22-3.523s-8.975-4.093-8.881-4.31,4.221,1.361,9.221,3.525,8.973,4.091,8.88,4.308" transform="translate(141.454 176.419)" fill="#ff9b6c"/>
      <path id="Trazado_263" data-name="Trazado 263" d="M222.572,287.9c-.118.212-2.171-.72-4.729-1.768s-4.67-1.84-4.6-2.075,2.32.2,4.93,1.283,4.517,2.361,4.4,2.56" transform="translate(137.147 182.659)" fill="#ff9b6c"/>
      <path id="Trazado_264" data-name="Trazado 264" d="M231.429,280.042c.089.237-2.039.983-3.656,3.078-1.665,2.059-1.9,4.3-2.148,4.271-.105,0-.2-.582-.044-1.505a7.744,7.744,0,0,1,4.374-5.537c.861-.368,1.446-.408,1.474-.306" transform="translate(145.032 180.082)" fill="#ff9b6c"/>
      <path id="Trazado_265" data-name="Trazado 265" d="M236.113,271.929c.108.225-1.5,1.06-2.588,2.89-1.127,1.8-1.127,3.62-1.377,3.626-.22.076-.634-1.992.647-4.072,1.257-2.092,3.283-2.673,3.318-2.445" transform="translate(149.154 174.866)" fill="#ff9b6c"/>
      <path id="Trazado_266" data-name="Trazado 266" d="M233.309,260.3c-.1.044-.421-.365-.661-1.16a6.268,6.268,0,0,1,1.569-6.014c.6-.578,1.083-.776,1.145-.69.159.191-1.347,1.467-1.9,3.705-.611,2.22.079,4.072-.154,4.159" transform="translate(149.49 162.349)" fill="#ff9b6c"/>
      <path id="Trazado_267" data-name="Trazado 267" d="M417.228,280.755s-1.117-21.557-23.456-26.025-61.43,14.524-61.43,14.524L222.669,345.677l3.275,9.452,111.28-15.512,10.2,3.909,78.185-51.379,73.772-53.332-8.152-6.423s-20.663,14.241-34.346,20.383-33.507,16.867-39.651,27.98" transform="translate(143.213 149.467)" fill="#f5f5f5"/>
      <path id="Trazado_268" data-name="Trazado 268" d="M221.611,357.468l92.808-57.657,98.11-15.756s4.925,7.122,13.259,5.378L506.474,233.6l1.515,3.378L351.541,346.862c-5.669,1.761-10.023.426-13.637-2.652Z" transform="translate(142.533 150.242)" fill="#057243"/>
      <path id="Trazado_269" data-name="Trazado 269" d="M367.01,264.306a4.146,4.146,0,0,1-.758.62l-2.264,1.638c-1.97,1.415-4.819,3.465-8.286,6.068-6.96,5.176-16.4,12.562-26.657,20.924-10.25,8.382-19.4,16.129-25.97,21.792-3.219,2.779-5.856,5.053-7.78,6.712-.866.738-1.569,1.338-2.128,1.812a4.325,4.325,0,0,1-.78.588,4.172,4.172,0,0,1,.665-.716l2.021-1.932c1.771-1.66,4.361-4.034,7.6-6.919,6.476-5.782,15.567-13.61,25.827-22,10.268-8.37,19.777-15.692,26.84-20.75,3.518-2.544,6.426-4.522,8.456-5.855l2.356-1.507a4.154,4.154,0,0,1,.854-.477" transform="translate(188.052 169.991)" fill="#1a2e35"/>
      <path id="Trazado_270" data-name="Trazado 270" d="M410.361,261.741c-8.894-9.547-22.893-12.947-35.9-11.933s-25.367,5.874-37.5,10.681l-113.531,77.7,1.012,2.922,114.141-77.255s25.494-8.249,36.781-9.627c18.918-2.31,35,7.509,35,7.509" transform="translate(143.703 160.558)" fill="#e1e1e1"/>
      <path id="Trazado_271" data-name="Trazado 271" d="M348.031,277.635l54.584-36.82s-44.727,23.254-54.584,36.82" transform="translate(223.842 154.884)" fill="#e1e1e1"/>
      <path id="Trazado_272" data-name="Trazado 272" d="M223.43,338.336a3.141,3.141,0,0,1,.462-.37l1.4-1.012c1.288-.9,3.114-2.185,5.445-3.824,4.793-3.319,11.655-8.071,20.116-13.932L317.4,273.5l19.322-13.214.033-.023.039-.016c11.915-5.143,23.627-8.847,34.531-10.375,10.939-1.38,20.936.481,28.294,3.986a35.389,35.389,0,0,1,9.065,6.093,26.825,26.825,0,0,1,5.059,6.426,21.581,21.581,0,0,1,1.967,4.739c.122.537.22.965.3,1.3a2.081,2.081,0,0,1,.076.444,26.622,26.622,0,0,0-2.595-6.334,27.065,27.065,0,0,0-5.092-6.259,35.294,35.294,0,0,0-9.008-5.914c-7.286-3.39-17.168-5.166-27.972-3.753-10.773,1.561-22.439,5.278-34.293,10.421l.072-.039-19.312,13.229L251.2,319.7,230.93,333.4l-5.536,3.692c-.608.394-1.088.707-1.453.942a3.121,3.121,0,0,1-.511.3" transform="translate(143.703 160.415)" fill="#1a2e35"/>
      <path id="Trazado_273" data-name="Trazado 273" d="M283.91,274.61a4.452,4.452,0,0,1,.856-.526c.577-.315,1.425-.784,2.535-1.352,2.215-1.15,5.449-2.76,9.521-4.6,8.117-3.638,19.733-8.275,33.307-10.2s26.184-.018,34.548,3.16a52.227,52.227,0,0,1,9.548,4.576c1.086.623,1.85,1.231,2.4,1.594a4.548,4.548,0,0,1,.792.616c-.044.067-1.2-.693-3.357-1.923a58.151,58.151,0,0,0-9.583-4.294c-8.333-3-20.781-4.785-34.227-2.882s-25.024,6.417-33.182,9.905c-4.09,1.761-7.358,3.285-9.616,4.343l-2.606,1.208a4.4,4.4,0,0,1-.933.371" transform="translate(182.601 165.399)" fill="#1a2e35"/>
      <path id="Trazado_274" data-name="Trazado 274" d="M417.862,234.9a3.6,3.6,0,0,1-.71.541c-.567.375-1.269.84-2.125,1.408l-7.876,5.068c-6.66,4.267-15.85,10.171-25.928,16.8s-19.141,12.741-25.694,17.168l-7.771,5.229-2.133,1.393a3.527,3.527,0,0,1-.777.439,3.493,3.493,0,0,1,.679-.58l2.041-1.525c1.783-1.311,4.384-3.175,7.618-5.454,6.467-4.557,15.48-10.745,25.566-17.385s19.333-12.462,26.077-16.6c3.372-2.067,6.114-3.72,8.024-4.839l2.208-1.27a3.568,3.568,0,0,1,.8-.394" transform="translate(221.795 151.075)" fill="#1a2e35"/>
      <path id="Trazado_275" data-name="Trazado 275" d="M405.017,281.117s-2.144,5.092-4.236,7.585-8.965,5.983-9.516,10.735.587,15.888-6.842,24.355a41.657,41.657,0,0,1-17.6,11.438l-29.289-2.861-46.8-18.408s-3.855-1.048-2.986-4.915a5.9,5.9,0,0,1,4.879-4.412l1.117-.182s-2.693-2.2,1.16-6.057c3.322-3.329,10.308-1.436,13.913-.23s24.817,10.061,28.622,11.417c3.369,1.2,5.953,2.268,5.953,2.268s-27.125-18.3-27.5-20.7c-.449-2.877-.146-4.188,2.626-6.2,3.257-2.371,8.678.176,13.9,2.373,3.886,1.633,28.723,13.9,28.723,13.9s1.112-1.081.067-3.3-9.378-12.813-10.663-14.764-1.63-3.086-.358-4.737c1.817-2.358,6.622-3.474,10.96.531,2.789,2.575,12.657,9.205,12.657,9.205L419.382,254.9s5.672-.143,3.7,7.754-18.063,18.459-18.063,18.459" transform="translate(184.985 163.946)" fill="#ffc09d"/>
      <path id="Trazado_276" data-name="Trazado 276" d="M341.606,290.418c-.051.212-2.552-.434-4.929-2.45-2.394-2-3.459-4.351-3.258-4.438.217-.132,1.548,1.9,3.809,3.783,2.24,1.906,4.473,2.869,4.379,3.106" transform="translate(214.428 182.353)" fill="#ff9b6c"/>
      <path id="Trazado_277" data-name="Trazado 277" d="M340.663,275.725c-.008-.1.595-.268,1.586-.151a7.173,7.173,0,0,1,5.71,4.721c.3.95.25,1.574.149,1.586-.24.064-.7-2.32-2.894-4.082-2.141-1.821-4.57-1.826-4.552-2.074" transform="translate(219.103 177.214)" fill="#ff9b6c"/>
      <path id="Trazado_278" data-name="Trazado 278" d="M343.34,285.242c-.255,0-.376-2.448-1.346-5.256-.938-2.82-2.33-4.841-2.125-4.992.158-.151,1.939,1.737,2.936,4.718,1.019,2.973.751,5.556.534,5.531" transform="translate(218.58 176.861)" fill="#ff9b6c"/>
      <path id="Trazado_279" data-name="Trazado 279" d="M359.414,273.185c-.071.074-.591-.255-1.181-1.04a7.577,7.577,0,0,1-.817-7.307c.4-.9.835-1.333.922-1.275.223.113-.951,2.184-.608,4.939.274,2.762,1.878,4.524,1.684,4.683" transform="translate(229.503 169.512)" fill="#ff9b6c"/>
      <path id="Trazado_280" data-name="Trazado 280" d="M340.712,298.422a7.125,7.125,0,0,1-3.2-.044,21.568,21.568,0,0,1-7.238-2.69,40.719,40.719,0,0,1-6.218-4.524,11.218,11.218,0,0,1-2.259-2.24,12.446,12.446,0,0,1,2.639,1.768,65.98,65.98,0,0,0,6.265,4.252,26.275,26.275,0,0,0,6.929,2.839c1.872.45,3.084.5,3.081.638" transform="translate(206.967 185.821)" fill="#ff9b6c"/>
      <path id="Trazado_281" data-name="Trazado 281" d="M339.571,291.845c.235-.025.25,1.656-1.132,3s-3.05,1.3-3.02,1.068c-.031-.243,1.3-.549,2.42-1.679,1.154-1.1,1.489-2.422,1.732-2.384" transform="translate(215.729 187.705)" fill="#ff9b6c"/>
      <path id="Trazado_282" data-name="Trazado 282" d="M346.912,286.845c.1.033.094.45-.212,1.032a4.228,4.228,0,0,1-4.349,2.065c-.643-.131-.971-.388-.933-.488.074-.23,1.522.127,3.065-.639,1.566-.711,2.205-2.057,2.43-1.97" transform="translate(219.586 184.486)" fill="#ff9b6c"/>
      <path id="Trazado_283" data-name="Trazado 283" d="M339.653,306.455c-.1.217-10.986-4.33-24.325-10.155s-24.081-10.723-23.985-10.94,10.985,4.33,24.327,10.156,24.077,10.722,23.984,10.939" transform="translate(187.381 183.529)" fill="#ff9b6c"/>
      <path id="Trazado_284" data-name="Trazado 284" d="M.154,203.755,35.813,378.8H345.3a6.182,6.182,0,1,0,0-12.363H283l-33.057-162.8a6.759,6.759,0,0,0-6.55-5.414L6.852,195.647a6.759,6.759,0,0,0-6.7,8.107" transform="translate(0.01 125.833)" fill="#e1e1e1"/>
      <path id="Trazado_285" data-name="Trazado 285" d="M.164,203.79s-.039-.176-.1-.527a6.031,6.031,0,0,1-.03-1.589,6.8,6.8,0,0,1,3.273-5.117,7.024,7.024,0,0,1,2.046-.81,10.735,10.735,0,0,1,2.435-.151q2.546.017,5.569.041l13.924.117,89.439.848,62.347.628,34.927.36,18.32.189,9.364.1c.8.02,1.546-.013,2.4.057a7.084,7.084,0,0,1,2.389.692,7.164,7.164,0,0,1,3.4,3.562,11.209,11.209,0,0,1,.647,2.379l.48,2.355q.478,2.356.963,4.731.966,4.75,1.944,9.557,1.957,9.617,3.963,19.471,4.008,19.708,8.2,40.3c5.579,27.444,11.382,55.993,17.36,85.405l-.414-.339,35.88,0h25.389a11.377,11.377,0,0,1,2.411.145,6.613,6.613,0,0,1,1.773,12.276,6.7,6.7,0,0,1-2.91.785l-2.856.012H331.369l-22.447,0-44,0-83.785-.02-145.31-.074h-.268L35.5,378.9C24.6,325.1,15.738,281.331,9.594,251c-3.048-15.155-5.421-26.95-7.034-34.97L.749,206.907c-.4-2.057-.585-3.117-.585-3.117s.246,1.047.68,3.1,1.07,5.114,1.9,9.1C4.4,224,6.831,235.787,9.954,250.928c6.21,30.316,15.171,74.064,26.189,127.843l-.32-.261c42.469-.023,91.587-.048,145.31-.074l83.785-.02q21.682,0,44-.007h33.77l2.825-.012a5.869,5.869,0,0,0,2.534-.684,5.755,5.755,0,0,0-1.543-10.686,10.7,10.7,0,0,0-2.233-.128H318.886c-12.189,0-24.179,0-35.88,0h-.347l-.067-.34c-5.966-29.414-11.758-57.964-17.326-85.41l-8.171-40.31q-2-9.854-3.947-19.475-.974-4.809-1.936-9.558-.481-2.374-.96-4.732l-.477-2.355a10.454,10.454,0,0,0-.6-2.231A6.39,6.39,0,0,0,244,198.672c-.721-.064-1.551-.036-2.325-.056l-9.364-.107q-9.295-.108-18.32-.21l-34.926-.4-62.347-.733-89.436-1.1-13.924-.187-5.569-.081a10.7,10.7,0,0,0-2.4.13,6.86,6.86,0,0,0-2,.772,6.751,6.751,0,0,0-3.275,4.99,9,9,0,0,0,.048,2.108" transform="translate(0 125.798)" fill="#1a2e35"/>
      <path id="Trazado_286" data-name="Trazado 286" d="M94.9,253.335a10.222,10.222,0,1,1-10.222-10.222A10.223,10.223,0,0,1,94.9,253.335" transform="translate(47.884 156.362)" fill="#fff"/>
      <path id="Trazado_287" data-name="Trazado 287" d="M.276,201.464s.361-.026,1.066-.035c.734,0,1.775-.012,3.129-.018l12.033.015,44.252.214,145.994,1.03,21.115.169q2.6.02,5.187.043a13.468,13.468,0,0,1,2.649.159,7.388,7.388,0,0,1,5.651,5.278c.386,1.712.675,3.332,1.015,4.992l7.544,38.021c4.79,24.232,9.1,46.055,12.728,64.391,3.587,18.315,6.492,33.143,8.507,43.426.981,5.107,1.745,9.083,2.271,11.814.245,1.331.435,2.353.569,3.076.123.7.166,1.055.166,1.055s-.1-.348-.251-1.037c-.153-.72-.37-1.737-.652-3.061-.562-2.724-1.379-6.688-2.429-11.783-2.077-10.268-5.074-25.08-8.775-43.371C258.37,297.515,254,275.7,249.139,251.487l-7.595-38.013c-.335-1.633-.644-3.337-1-4.931a6.5,6.5,0,0,0-2.784-3.771,6.581,6.581,0,0,0-2.223-.9,12.828,12.828,0,0,0-2.488-.141l-5.187-.039q-10.414-.081-21.116-.164l-145.99-1.282L16.5,201.759c-5.2-.077-9.251-.136-12.031-.176-1.354-.03-2.394-.053-3.129-.067-.7-.02-1.066-.053-1.066-.053" transform="translate(0.178 129.541)" fill="#1a2e35"/>
    </g>
  </g>
</svg>
