<svg id="persona" xmlns="http://www.w3.org/2000/svg" xmlns:xlink="http://www.w3.org/1999/xlink" width="333.617" height="678.046" viewBox="0 0 333.617 678.046">
  <defs>
    <clipPath id="clip-path">
      <rect id="Rect치ngulo_104" data-name="Rect치ngulo 104" width="333.617" height="678.046" fill="none"/>
    </clipPath>
    <clipPath id="clip-path-3">
      <rect id="Rect치ngulo_102" data-name="Rect치ngulo 102" width="44.881" height="90.711" fill="none"/>
    </clipPath>
  </defs>
  <g id="Grupo_79" data-name="Grupo 79" clip-path="url(#clip-path)">
    <g id="Grupo_78" data-name="Grupo 78">
      <g id="Grupo_77" data-name="Grupo 77" clip-path="url(#clip-path)">
        <path id="Trazado_197" data-name="Trazado 197" d="M26.559,208.008,45.391,416.667h94.821c4.927-7.111,8.441-12.8,10.013-16.489,13.356-31.389-8.516-261.5-8.516-261.5l-130.131.029-1.737,22.2C8.379,188.447,19,200.8,26.559,208.008" transform="translate(18.293 261.379)" fill="#1a2e35"/>
        <path id="Trazado_198" data-name="Trazado 198" d="M43.956,175.77h0a25.952,25.952,0,0,0,27.916-24.881c.542-14.127,1.015-28.406,1.015-28.406s21.408-2,22.96-23.19.842-70.09.842-70.09a73.82,73.82,0,0,0-74.6,4.8l1.321,74.556v40.112c.141,13.452,7.134,26.072,20.548,27.1" transform="translate(41.628 40.158)" fill="#ffc09d"/>
        <path id="Trazado_199" data-name="Trazado 199" d="M81.922,85.037c-3.655-4.529-9.6-6.332-14.476-3.162a12.311,12.311,0,0,0-4.1,15.4,16.223,16.223,0,0,0,10.391,7.858,8.137,8.137,0,0,1,6.372,8.761c-.612,5.317-3.447,10.35-7.44,14.753-6.208,6.845-15.341,10.532-24.52,11.617-9.023,1.067-19.357-.814-24.607-8.23-3.819-5.394-4.1-12.448-4.232-19.057q-.485-23.431-.969-46.86c-.118-5.628-.228-11.331,1.067-16.812s4.163-10.809,8.868-13.9c5.152-3.39,11.68-3.678,17.548-5.576,7.339-2.374,13.57-7.241,20.433-10.751s15.28-5.611,22.172-2.152c4.947,2.484,8.262,7.42,13.074,10.154,6.848,3.9,16.172,3.012,19.5,13.082a17.072,17.072,0,0,1-.113,10.772C116.242,64.63,99.268,70.157,87.042,64.232c-.242,2.322,2.045,7.489-.4,14.822-.782,2.342-1.059,5.917-4.722,5.983" transform="translate(34.44 28.55)" fill="#1a2e35"/>
        <path id="Trazado_200" data-name="Trazado 200" d="M43.579,54.831c3.006-6.848,6.049-13.838,6.805-21.281s-1.131-15.543-6.675-20.565A20.066,20.066,0,0,0,29.744,8.046C20.06,8.329,11.1,15.592,8.454,24.913s1.007,20,8.562,26.058a27.581,27.581,0,0,0,27.448,3.58" transform="translate(14.323 15.147)" fill="#1a2e35"/>
        <path id="Trazado_201" data-name="Trazado 201" d="M28.074,21.582c.4-.012.058,3.77-3.124,6.843-3.147,3.11-6.935,3.364-6.915,2.963-.1-.43,3.1-1.278,5.865-4.036,2.824-2.7,3.747-5.882,4.174-5.769" transform="translate(33.988 40.671)" fill="#0c8f5a"/>
        <path id="Trazado_202" data-name="Trazado 202" d="M34.857,35.96c.084.121-1.869,2.019-5.752,4.206a16.626,16.626,0,0,1-7.581,2.149c-2.96.061-6.655-.938-8.842-3.967a11.788,11.788,0,0,1-1.569-9.58,18.627,18.627,0,0,1,3.563-7.013c2.792-3.456,4.9-5.158,5.014-5.054.2.167-1.667,2.172-4.154,5.677a19.042,19.042,0,0,0-3.069,6.69,10.7,10.7,0,0,0,1.428,8.392c1.791,2.5,4.933,3.45,7.627,3.47a16.633,16.633,0,0,0,7.111-1.716c3.857-1.864,6.084-3.479,6.225-3.254" transform="translate(20.239 31.47)" fill="#1a2e35"/>
        <path id="Trazado_203" data-name="Trazado 203" d="M6.634,45.68a9.256,9.256,0,0,1,1.033,2.348,24.221,24.221,0,0,0,3.121,6.035c1.65,2.178,4.705,4.512,8.294,3.817,3.557-.678,6.7-3.952,7.985-8.04,1.376-4.117,1.474-8.429,2.166-12.306.638-3.877,1.936-7.417,4.044-9.707a10.46,10.46,0,0,1,6.168-3.516,4.083,4.083,0,0,1,2.593.222c-.012.144-.935-.04-2.481.355a10.475,10.475,0,0,0-5.472,3.632c-1.814,2.161-2.94,5.467-3.485,9.237-.612,3.767-.643,8.132-2.112,12.572-1.393,4.419-4.93,8.2-9.162,8.914a8.442,8.442,0,0,1-5.744-1.111,12.032,12.032,0,0,1-3.652-3.436A20.834,20.834,0,0,1,7.11,48.209a7.927,7.927,0,0,1-.476-2.53" transform="translate(12.451 45.68)" fill="#1a2e35"/>
        <path id="Trazado_204" data-name="Trazado 204" d="M6.143,93.362s-10.8,79.1,0,89.127,21.191,6.7,21.191,6.7l20.56-17.193,4.047-78.632Z" transform="translate(2.534 175.963)" fill="#ffc09d"/>
        <path id="Trazado_205" data-name="Trazado 205" d="M80.464,47.275,94.189,32.534l22.873,18.3L169.42,0l12.543,14.784L116.047,79.806Z" transform="translate(151.653 -0.001)" fill="#e8505b"/>
        <path id="Trazado_206" data-name="Trazado 206" d="M179.259,17.779l-19.9,12.774c-.9-7.867-6.906-15.664-6.594-11.712s.038,24.454.038,24.454l-35.5,74.692c-4.823,11.833-14.6,19.273-21.9,21.03l-33.134,9.851,12.952,43.8L121.267,177.4a39.719,39.719,0,0,0,25.239-25.314l31.747-96.708a150.217,150.217,0,0,0,5.129-19.054c1.359-8.06-4.122-18.549-4.122-18.549" transform="translate(117.349 33.509)" fill="#ffc09d"/>
        <path id="Trazado_207" data-name="Trazado 207" d="M24.22,364.5a2.811,2.811,0,0,1,.413-.721c.366-.542.811-1.2,1.35-1.993,1.31-1.852,3.081-4.356,5.293-7.489,4.734-6.551,11.351-15.713,19.319-26.744l-.118.366c-1.552-16.873-3.43-37.337-5.458-59.4-2.585-28.914-4.679-55.113-5.911-74.1-.629-9.491-1.041-17.179-1.269-22.492-.089-2.544-.159-4.578-.211-6.124a11.379,11.379,0,0,1,.029-2.14,11.49,11.49,0,0,1,.274,2.123c.124,1.543.286,3.571.49,6.1.424,5.469,1.018,13.1,1.745,22.452,1.5,18.956,3.765,45.132,6.349,74.043,1.939,22.14,3.917,42.57,5.2,59.529l.014.188-.136.182c-8.144,10.9-14.905,19.957-19.743,26.43L26.283,362l-1.5,1.887c-.349.421-.539.629-.565.609" transform="translate(45.643 308.458)" fill="#375a64"/>
        <path id="Trazado_208" data-name="Trazado 208" d="M56.132,168.812c-.063.4-8.55-.635-18.855-2.807s-18.494-4.624-18.393-5.017c.107-.41,8.429,1.4,18.7,3.548s18.615,3.857,18.546,4.275" transform="translate(35.591 303.31)" fill="#375a64"/>
        <path id="Trazado_209" data-name="Trazado 209" d="M74.194,225.537c-.19.459-8.178-4.212-19.23-5.011-11.043-.952-19.668,2.4-19.784,1.918-.063-.159,1.976-1.212,5.55-2.175a43.741,43.741,0,0,1,28.325,2.247c3.378,1.512,5.227,2.873,5.138,3.02" transform="translate(66.304 412.564)" fill="#375a64"/>
        <path id="Trazado_210" data-name="Trazado 210" d="M77.5,144.546c.13.043-.848,2.53-4.01,5.288a19.835,19.835,0,0,1-29.023-3.061c-2.515-3.358-2.951-5.992-2.816-6.009.254-.107,1.047,2.334,3.641,5.34a20.722,20.722,0,0,0,13.175,7.07,20.729,20.729,0,0,0,14.357-4.166c3.165-2.4,4.451-4.621,4.676-4.463" transform="translate(78.466 265.297)" fill="#375a64"/>
        <path id="Trazado_211" data-name="Trazado 211" d="M32.972,111.95A62.1,62.1,0,0,1,29.6,25.339" transform="translate(25.697 47.757)" fill="#1a2e35"/>
        <path id="Trazado_212" data-name="Trazado 212" d="M18.676,71.083S3.2,88.559,0,155.4c0,0,44.059,8.36,44.863,5.954S18.676,71.083,18.676,71.083" transform="translate(0 133.973)" fill="#0c8f5a"/>
        <g id="Grupo_76" data-name="Grupo 76" transform="translate(0 205.056)" opacity="0.3">
          <g id="Grupo_75" data-name="Grupo 75">
            <g id="Grupo_74" data-name="Grupo 74" clip-path="url(#clip-path-3)">
              <path id="Trazado_213" data-name="Trazado 213" d="M18.676,71.083S3.2,88.559,0,155.4c0,0,44.059,8.36,44.863,5.954S18.676,71.083,18.676,71.083" transform="translate(0 -71.083)" fill="#0c8f5a"/>
            </g>
          </g>
        </g>
        <path id="Trazado_214" data-name="Trazado 214" d="M16.773,287.222h135.26l-2.184-21.128s-15.456-80.386-15.344-81.445l2.438-5.12a50.993,50.993,0,0,0,.591-42.535l66.231-22.648L187.549,59.694c-30.053,5.074-75.482,10.734-75.482,10.734L105.3,71s-46.894,2.446-47.9,2.567c-19.619,2.371-42.44,3.877-50.786,24.872-4.46,11.225-.222,28.077,7.059,45.449l17.34,53.362C37.944,226.576,26.9,225.18,20.831,254.7c-.917,4.466-4.148,28.426-4.059,32.523" transform="translate(9.04 112.508)" fill="#0c8f5a"/>
        <path id="Trazado_215" data-name="Trazado 215" d="M123.235,78.96a13.014,13.014,0,0,1-2.94,1.235c-1.921.7-4.717,1.67-8.181,2.839-6.926,2.34-16.544,5.438-27.157,8.833s-20.11,6.77-26.848,9.554c-3.384,1.364-6.069,2.582-7.95,3.384A13.024,13.024,0,0,1,47.2,105.97a13.086,13.086,0,0,1,2.706-1.69c1.806-.966,4.44-2.337,7.786-3.834A255.62,255.62,0,0,1,84.5,90.435c10.63-3.4,20.288-6.335,27.3-8.415,3.5-1.039,6.349-1.852,8.325-2.383a13.056,13.056,0,0,1,3.116-.678" transform="translate(88.949 148.779)" fill="#0c8f5a"/>
        <path id="Trazado_216" data-name="Trazado 216" d="M29.234,152.151a11.04,11.04,0,0,1-1.2-2.66q-1.186-3.085-2.841-7.379c-2.38-6.24-5.732-14.839-9.217-24.431C12.476,108.1,9.6,99.3,7.786,92.856c-.906-3.222-1.584-5.844-1.97-7.679A10.844,10.844,0,0,1,5.342,82.3c.222-.055,1.385,3.909,3.459,10.249s5.092,15.05,8.591,24.624c3.479,9.574,6.675,18.237,8.8,24.581,1.07,3.167,1.884,5.752,2.4,7.552a11.008,11.008,0,0,1,.643,2.847" transform="translate(10.016 155.108)" fill="#1a2e35"/>
      </g>
    </g>
  </g>
</svg>
