<svg xmlns="http://www.w3.org/2000/svg" xmlns:xlink="http://www.w3.org/1999/xlink" width="275.64" height="181.47" viewBox="0 0 275.64 181.47">
  <defs>
    <clipPath id="clip-path">
      <rect id="Rectángulo_95" data-name="Rectángulo 95" width="275.64" height="181.47" fill="none"/>
    </clipPath>
    <clipPath id="clip-path-3">
      <rect id="Rectángulo_89" data-name="Rectángulo 89" width="256.299" height="147.965" fill="none"/>
    </clipPath>
    <clipPath id="clip-path-4">
      <rect id="Rectángulo_90" data-name="Rectángulo 90" width="94.033" height="54.936" fill="none"/>
    </clipPath>
    <clipPath id="clip-path-5">
      <rect id="Rectángulo_91" data-name="Rectángulo 91" width="82.128" height="43.082" fill="none"/>
    </clipPath>
    <clipPath id="clip-path-6">
      <rect id="Rectángulo_92" data-name="Rectángulo 92" width="120.241" height="72.183" fill="none"/>
    </clipPath>
    <clipPath id="clip-path-7">
      <rect id="Rectángulo_93" data-name="Rectángulo 93" width="120.128" height="71.618" fill="none"/>
    </clipPath>
  </defs>
  <g id="Billetes" transform="translate(0)">
    <g id="Grupo_73" data-name="Grupo 73" transform="translate(0)">
      <g id="Grupo_72" data-name="Grupo 72" clip-path="url(#clip-path)">
        <path id="Trazado_226" data-name="Trazado 226" d="M183.762,0l91.877,53.046L91.877,159.133,0,106.087Z" transform="translate(0 0)" fill="#00dfbf"/>
        <g id="Grupo_71" data-name="Grupo 71" transform="translate(0 0)">
          <g id="Grupo_70" data-name="Grupo 70" clip-path="url(#clip-path)">
            <g id="Grupo_57" data-name="Grupo 57" transform="translate(9.67 5.583)" opacity="0.4">
              <g id="Grupo_56" data-name="Grupo 56">
                <g id="Grupo_55" data-name="Grupo 55" clip-path="url(#clip-path-3)">
                  <path id="Trazado_227" data-name="Trazado 227" d="M262.071,50.794,87.979,151.3,5.772,103.835l174.09-100.5Zm-4.837,0L179.862,6.124,10.608,103.835l77.371,44.67Z" transform="translate(-5.772 -3.333)"/>
                </g>
              </g>
            </g>
            <g id="Grupo_60" data-name="Grupo 60" transform="translate(90.804 52.101)" opacity="0.4">
              <g id="Grupo_59" data-name="Grupo 59">
                <g id="Grupo_58" data-name="Grupo 58" clip-path="url(#clip-path-4)">
                  <path id="Trazado_228" data-name="Trazado 228" d="M97.774,86.03c12.522,0,25.375-2.892,35.277-8.609,9.643-5.565,15.173-13.16,15.173-20.836,0-7.038-4.529-13.529-12.755-18.277C117.91,28.17,88.255,28.795,69.363,39.7,59.72,45.271,54.192,52.865,54.192,60.542c0,7.036,4.529,13.529,12.755,18.276C75.3,83.642,86.4,86.03,97.774,86.03m6.863-53.314c11.076,0,21.877,2.322,30.008,7.016,7.694,4.442,11.932,10.427,11.932,16.853,0,7.071-5.231,14.147-14.352,19.412-18.437,10.645-47.353,11.273-64.457,1.4C60.075,72.95,55.837,66.967,55.837,60.542c0-7.073,5.23-14.15,14.348-19.415,9.673-5.583,22.23-8.412,34.452-8.412" transform="translate(-54.192 -31.094)"/>
                </g>
              </g>
            </g>
            <g id="Grupo_63" data-name="Grupo 63" transform="translate(96.756 58.028)" opacity="0.2">
              <g id="Grupo_62" data-name="Grupo 62">
                <g id="Grupo_61" data-name="Grupo 61" clip-path="url(#clip-path-5)">
                  <path id="Trazado_229" data-name="Trazado 229" d="M95.381,77.712c11.9,0,23.67-2.855,32.294-7.835,7.751-4.477,12.2-10.193,12.2-15.684,0-4.822-3.474-9.482-9.779-13.122-7.192-4.154-17.084-6.441-27.857-6.441-11.9,0-23.67,2.855-32.3,7.835-7.751,4.477-12.2,10.194-12.2,15.685,0,4.822,3.472,9.481,9.779,13.12,7.19,4.154,17.084,6.441,27.859,6.441" transform="translate(-57.744 -34.631)"/>
                </g>
              </g>
            </g>
            <g id="Grupo_66" data-name="Grupo 66" transform="translate(31.825 68.756)" opacity="0.2">
              <g id="Grupo_65" data-name="Grupo 65">
                <g id="Grupo_64" data-name="Grupo 64" clip-path="url(#clip-path-6)">
                  <path id="Trazado_230" data-name="Trazado 230" d="M143.478,113.216,193.99,83.878l-4.047.521a85.511,85.511,0,0,1-10.895.7A76.7,76.7,0,0,1,143.9,75.844c-8.938-5.158-17.957-14.39-17.957-23.39a21.678,21.678,0,0,1,2.043-9.063l1.082-2.358L73.757,73.146l6.064,3.509a2.153,2.153,0,0,1,0,4.159l-6.074,3.5,50.385,28.9,5.243-3.021a9.828,9.828,0,0,1,8.857-.013Z" transform="translate(-73.749 -41.034)"/>
                </g>
              </g>
            </g>
            <path id="Trazado_231" data-name="Trazado 231" d="M120.521,77.476a17.278,17.278,0,0,0,8.433-2.056c2.421-1.4,3.809-3.346,3.809-5.345,0-1.855-1.156-3.542-3.252-4.752-4.212-2.435-11.322-2.292-15.843.32-2.42,1.4-3.809,3.345-3.809,5.345,0,1.855,1.155,3.542,3.252,4.754a15.137,15.137,0,0,0,7.41,1.734" transform="translate(-41.203 42.959)" fill="#00dfbf"/>
            <g id="Grupo_69" data-name="Grupo 69" transform="translate(123.452 18.702)" opacity="0.2">
              <g id="Grupo_68" data-name="Grupo 68">
                <g id="Grupo_67" data-name="Grupo 67" clip-path="url(#clip-path-7)">
                  <path id="Trazado_232" data-name="Trazado 232" d="M84.047,82.78l55.209-31.8-6.069-3.5A2.635,2.635,0,0,1,131.6,45.4a2.625,2.625,0,0,1,1.585-2.071l6.076-3.519-50.3-28.646L83.722,14.2a9.963,9.963,0,0,1-8.846,0l-5.241-3.035-50.5,29.065,4.093-.528a85.544,85.544,0,0,1,10.9-.7c11.969,0,26.262,3.616,35.573,9,11.63,6.714,17.529,13.914,17.529,21.4a31.567,31.567,0,0,1-2.125,11.044Z" transform="translate(-19.134 -11.162)"/>
                </g>
              </g>
            </g>
            <path id="Trazado_233" data-name="Trazado 233" d="M51.505,37.79a17.289,17.289,0,0,0,8.435-2.056c2.42-1.4,3.809-3.345,3.809-5.344,0-1.857-1.154-3.544-3.252-4.755-4.214-2.433-11.322-2.289-15.843.322-2.42,1.4-3.809,3.345-3.809,5.345,0,1.855,1.154,3.542,3.252,4.754a15.131,15.131,0,0,0,7.408,1.734" transform="translate(143.451 16.148)" fill="#00dfbf"/>
            <path id="Trazado_234" data-name="Trazado 234" d="M109.67,63.313V85.65l91.877,53.045V116.357Z" transform="translate(-109.669 42.774)" fill="#00dfbf"/>
            <path id="Trazado_235" data-name="Trazado 235" d="M138.676,104.45l-29.01-16.141L138.681,105.8Z" transform="translate(-46.799 59.662)"/>
            <path id="Trazado_236" data-name="Trazado 236" d="M158.728,69.643l9.673,6.148-9.67-5.018Z" transform="translate(-158.725 47.051)"/>
            <path id="Trazado_237" data-name="Trazado 237" d="M135.645,72.821l48.348,28.737L135.645,74.463Z" transform="translate(-135.641 49.198)"/>
            <path id="Trazado_238" data-name="Trazado 238" d="M158.023,112.017,109.666,84.976l48.356,28.8Z" transform="translate(-66.14 57.41)"/>
            <path id="Trazado_239" data-name="Trazado 239" d="M0,160.082,183.762,53.994l0-22.337L0,137.745Z" transform="translate(91.878 21.388)" fill="#00dfbf"/>
            <path id="Trazado_240" data-name="Trazado 240" d="M0,160.082,183.762,53.994l0-22.337L0,137.745Z" transform="translate(91.878 21.388)" fill="#1a2e35"/>
            <path id="Trazado_241" data-name="Trazado 241" d="M103.889,99.95l9.685-4.98-9.68,6.334Z" transform="translate(-12.012 64.162)"/>
            <path id="Trazado_242" data-name="Trazado 242" d="M80.649,112.071,129.27,84.9,80.649,113.825Z" transform="translate(11.233 57.356)"/>
            <path id="Trazado_243" data-name="Trazado 243" d="M33.853,37.931,0,58.13,33.851,39.245Z" transform="translate(241.786 25.626)"/>
            <path id="Trazado_244" data-name="Trazado 244" d="M19.345,41.282,0,53.074,19.343,42.533Z" transform="translate(256.295 27.89)"/>
            <path id="Trazado_245" data-name="Trazado 245" d="M45.167,41.713l95.077,54.9,29.006-16.743L74.182,24.963Z" transform="translate(30.707 16.865)" fill="#375a64"/>
            <path id="Trazado_246" data-name="Trazado 246" d="M74.173,57.734v24.3L45.167,98.778v-24.3Z" transform="translate(125.785 39.005)" fill="#1a2e35"/>
            <path id="Trazado_247" data-name="Trazado 247" d="M64.176,83.021l-1.7-.984,1.7-.98Z" transform="translate(106.775 54.762)" fill="#e1e1e1"/>
            <path id="Trazado_248" data-name="Trazado 248" d="M117.305,34.959v3.71l3.209-1.857Z" transform="translate(-41.431 23.619)" fill="#e1e1e1"/>
            <path id="Trazado_249" data-name="Trazado 249" d="M62.479,91.034V68.711l1.7-.985V90.054Z" transform="translate(106.775 45.756)"/>
            <path id="Trazado_250" data-name="Trazado 250" d="M154.349,90.1,62.479,37.049l1.7-.984,91.867,53.051Z" transform="translate(14.905 24.366)"/>
            <path id="Trazado_251" data-name="Trazado 251" d="M154.349,89.519,62.479,36.466l1.7-.984,91.867,53.051Z" transform="translate(14.905 23.972)"/>
            <path id="Trazado_252" data-name="Trazado 252" d="M59.166,34.443l95.092,54.9,2.411-1.4L61.589,33.054Z" transform="translate(19.831 22.332)" fill="#fafafa"/>
            <path id="Trazado_253" data-name="Trazado 253" d="M47.038,27.446l95.091,54.9,2.413-1.4L49.461,26.057Z" transform="translate(52.281 17.604)" fill="#fafafa"/>
            <path id="Trazado_254" data-name="Trazado 254" d="M59.167,67.208v24.3l2.411-1.392v-24.3Z" transform="translate(114.922 44.463)" fill="#e1e1e1"/>
            <path id="Trazado_255" data-name="Trazado 255" d="M47.033,60.211V84.505l2.421-1.4-.008-24.293Z" transform="translate(147.378 39.736)" fill="#e1e1e1"/>
          </g>
        </g>
      </g>
    </g>
  </g>
</svg>
