<svg id="Lupa" xmlns="http://www.w3.org/2000/svg" xmlns:xlink="http://www.w3.org/1999/xlink" width="294.409" height="187.446" viewBox="0 0 294.409 187.446">
  <defs>
    <clipPath id="clip-path">
      <rect id="Rectángulo_100" data-name="Rectángulo 100" width="294.409" height="187.446" fill="none"/>
    </clipPath>
    <clipPath id="clip-path-3">
      <rect id="Rectángulo_97" data-name="Rectángulo 97" width="176.54" height="101.926" fill="none"/>
    </clipPath>
    <clipPath id="clip-path-4">
      <rect id="Rectángulo_98" data-name="Rectángulo 98" width="159.478" height="54.446" fill="none"/>
    </clipPath>
  </defs>
  <g id="Grupo_85" data-name="Grupo 85" clip-path="url(#clip-path)">
    <g id="Grupo_84" data-name="Grupo 84" transform="translate(0 0)">
      <g id="Grupo_83" data-name="Grupo 83" clip-path="url(#clip-path)">
        <path id="Trazado_303" data-name="Trazado 303" d="M232.6,50.963c0-13.043-8.619-26.085-25.853-36.037-34.473-19.9-90.362-19.9-124.834,0C64.673,24.879,56.054,37.92,56.054,50.963V74.987c0,13.043,8.619,26.085,25.856,36.035,34.471,19.9,90.36,19.9,124.832,0,17.234-9.95,25.853-22.992,25.853-36.035Z" transform="translate(61.814 -0.001)" fill="#26a9e0"/>
        <path id="Trazado_304" data-name="Trazado 304" d="M81.7,17.843C97.093,8.954,117.744,4.059,139.846,4.059S182.6,8.954,198,17.843c13.92,8.037,21.585,18.21,21.585,28.644S211.914,67.093,198,75.128c-15.394,8.888-36.045,13.784-58.15,13.784S97.1,84.016,81.7,75.128C67.781,67.093,60.114,56.92,60.114,46.486S67.779,25.879,81.7,17.843" transform="translate(66.291 4.476)" fill="#fff"/>
        <g id="Grupo_79" data-name="Grupo 79" transform="translate(117.863 0)" opacity="0.3">
          <g id="Grupo_78" data-name="Grupo 78">
            <g id="Grupo_77" data-name="Grupo 77" clip-path="url(#clip-path-3)">
              <path id="Trazado_305" data-name="Trazado 305" d="M81.905,87c34.471,19.9,90.36,19.9,124.832,0s34.473-52.169,0-72.072-90.362-19.9-124.834,0S47.435,67.1,81.905,87M64.589,50.963c0-10.434,7.665-20.6,21.585-28.642,15.394-8.89,36.045-13.784,58.148-13.784s42.755,4.893,58.15,13.784c13.92,8.037,21.585,18.208,21.585,28.642s-7.667,20.6-21.585,28.642c-15.4,8.888-36.048,13.784-58.15,13.784s-42.753-4.9-58.148-13.784C72.256,71.568,64.589,61.4,64.589,50.963" transform="translate(-56.051 -0.001)" fill="#fff"/>
            </g>
          </g>
        </g>
        <path id="Trazado_306" data-name="Trazado 306" d="M60.109,46.485A23.655,23.655,0,0,0,63.558,58.5c3.5-6.06,9.66-11.746,18.149-16.629,15.38-8.9,36.041-13.8,58.152-13.8,22.089,0,42.749,4.9,58.131,13.8,8.485,4.883,14.648,10.568,18.166,16.629a23.819,23.819,0,0,0,3.432-12.019c0-10.432-7.667-20.607-21.6-28.648C182.607,8.96,161.948,4.058,139.858,4.058c-22.111,0-42.772,4.9-58.152,13.779-13.931,8.041-21.6,18.216-21.6,28.648" transform="translate(66.286 4.475)" fill="#2b388f"/>
        <g id="Grupo_82" data-name="Grupo 82" transform="translate(126.394 8.535)" opacity="0.1">
          <g id="Grupo_81" data-name="Grupo 81">
            <g id="Grupo_80" data-name="Grupo 80" clip-path="url(#clip-path-4)">
              <path id="Trazado_307" data-name="Trazado 307" d="M60.109,46.485A23.655,23.655,0,0,0,63.558,58.5c3.5-6.06,9.66-11.746,18.149-16.629,15.38-8.9,36.041-13.8,58.152-13.8,22.089,0,42.749,4.9,58.131,13.8,8.485,4.883,14.648,10.568,18.166,16.629a23.819,23.819,0,0,0,3.432-12.019c0-10.432-7.667-20.607-21.6-28.648C182.607,8.96,161.948,4.058,139.858,4.058c-22.111,0-42.772,4.9-58.152,13.779-13.931,8.041-21.6,18.216-21.6,28.648" transform="translate(-60.108 -4.059)" fill="#2b388f"/>
            </g>
          </g>
        </g>
        <path id="Trazado_308" data-name="Trazado 308" d="M123.524,77.909v24.005C108.277,99.8,93.817,95.307,81.917,88.427c-17.243-9.954-25.866-23-25.866-36.041V28.364a30.314,30.314,0,0,1,1.06-7.871h.017C52.943,36.011,61.207,52.436,81.917,64.4c11.9,6.88,26.36,11.37,41.607,13.5" transform="translate(61.811 22.599)" fill="#1b75bb"/>
        <path id="Trazado_309" data-name="Trazado 309" d="M91.658,54.726a13.667,13.667,0,0,0-6.14-10.737c-1.695-.988-3.234-1.089-4.353-.458l0,0-.017.011,0,0L51.43,60.5l-.019.013-.006,0c-1.112.646-1.8,2.023-1.813,3.985a13.667,13.667,0,0,0,6.14,10.737c1.705.995,3.251,1.093,4.372.452l29.71-16.955,0,0c1.133-.639,1.838-2.023,1.846-4" transform="translate(54.688 47.567)" fill="#37474f"/>
        <path id="Trazado_310" data-name="Trazado 310" d="M88.4,55.078c1.131-.637,1.838-2.021,1.846-4a11.784,11.784,0,0,0-1.049-4.628L50.877,68.359a11.72,11.72,0,0,0,3.44,3.226c1.7.993,3.249,1.091,4.372.45L88.4,55.08Z" transform="translate(56.105 51.219)" fill="#1a2e35"/>
        <path id="Trazado_311" data-name="Trazado 311" d="M113.751,66.268a17.793,17.793,0,0,0-7.993-13.975c-2.174-1.268-4.142-1.4-5.6-.62l-.006-.011-.084.044,0,0L1.527,104.338l14.7,25.984L111.36,71.474c1.466-.833,2.38-2.633,2.391-5.206" transform="translate(1.684 56.447)" fill="#26a9e0"/>
        <path id="Trazado_312" data-name="Trazado 312" d="M12.494,126.861l95.131-58.846c1.466-.835,2.38-2.635,2.391-5.209a16.734,16.734,0,0,0-2.675-8.48L4.914,113.464Z" transform="translate(5.419 59.909)" fill="#2b388f"/>
        <path id="Trazado_313" data-name="Trazado 313" d="M10.482,102C4.666,98.618-.027,90.411,0,83.676s4.765-9.448,10.583-6.058,10.507,11.595,10.48,18.328S16.3,105.389,10.482,102" transform="translate(0 83.984)" fill="#1a2e35"/>
      </g>
    </g>
  </g>
</svg>
