<svg xmlns="http://www.w3.org/2000/svg" width="63.685" height="63.686" viewBox="0 0 63.685 63.686">
  <g id="mano" transform="translate(-366 -167.872)">
    <path id="Trazado_115" data-name="Trazado 115" d="M31.843,82.822A31.843,31.843,0,1,1,63.685,50.979,31.879,31.879,0,0,1,31.843,82.822" transform="translate(366 148.736)" fill="#fff"/>
    <path id="Trazado_116" data-name="Trazado 116" d="M36.154,81.508A26.216,26.216,0,1,1,62.37,55.292,26.246,26.246,0,0,1,36.154,81.508" transform="translate(361.688 144.424)" fill="#b4dade"/>
    <path id="Trazado_117" data-name="Trazado 117" d="M61.651,52.768l.527.273-.293.564-.293.565-.188-.1-.339-.176a1.584,1.584,0,0,0-2.132.676l-1.981,3.819-.878,1.693-.565-.293-.565-.293L57.8,53.987a2.858,2.858,0,0,1,3.848-1.219" transform="translate(342.162 134.285)" fill="#4d73aa"/>
    <path id="Trazado_118" data-name="Trazado 118" d="M30.958,73.245c-.378-1.979-.849-4.442,2.153-10.233l4.336-8.361a2.75,2.75,0,0,1,1.475-1.287,2.378,2.378,0,0,1,1.917.074L40.546,54l-.293.563a1.108,1.108,0,0,0-.888-.01,1.465,1.465,0,0,0-.789.681L34.241,63.6c-2.672,5.153-2.407,7.411-2.08,9.159.015.084.031.166.047.248.067.354.131.688.173,1.038a.637.637,0,0,1-.067.368l-1.424,2.746-.564-.293-.565-.293L31.092,74c-.036-.244-.084-.5-.134-.758" transform="translate(353.089 133.959)" fill="#4d73aa"/>
    <path id="Trazado_119" data-name="Trazado 119" d="M52.409,52.555l.887.46-.586,1.129-.887-.46c-.538-.28-1.45.234-1.762.836L47.736,59l-1.129-.586,2.323-4.481a2.808,2.808,0,0,1,3.478-1.379" transform="translate(345.78 134.331)" fill="#4d73aa"/>
    <path id="Trazado_120" data-name="Trazado 120" d="M60.458,71.735c-2.4,3-5.086,4.821-8,5.421l-1.186,2.287-1.129-.586L51.471,76.3a.658.658,0,0,1,.455-.333c3.326-.582,6.365-2.973,9.034-7.107l1.979-3.064a3.232,3.232,0,0,0,.284-2.344,2.857,2.857,0,0,0-1.3-1.562l-1.727,3.6-1.148-.55,8.152-17a1.176,1.176,0,0,0-.523-1.552l-.585-.3a1.181,1.181,0,0,0-1.591.5L58.374,58.4l-.564-.293-.565-.293L63.374,46A2.455,2.455,0,0,1,66.68,44.95l.586.3a2.444,2.444,0,0,1,1.087,3.228v0l-.007.015L62.53,60.763a4.107,4.107,0,0,1,1.908,2.309,3.643,3.643,0,0,1,.113.481,4.353,4.353,0,0,1-.032,1.53" transform="translate(344.246 137.656)" fill="#4d73aa"/>
  </g>
</svg>
