<svg xmlns="http://www.w3.org/2000/svg" xmlns:xlink="http://www.w3.org/1999/xlink" width="178.211" height="241" viewBox="0 0 178.211 241">
  <defs>
    <clipPath id="clip-path">
      <rect id="Rect치ngulo_85" data-name="Rect치ngulo 85" width="178.211" height="241" fill="none"/>
    </clipPath>
    <clipPath id="clip-path-3">
      <rect id="Rect치ngulo_83" data-name="Rect치ngulo 83" width="86.344" height="65.543" fill="none"/>
    </clipPath>
  </defs>
  <g id="personaje2" clip-path="url(#clip-path)">
    <g id="Grupo_57" data-name="Grupo 57">
      <g id="Grupo_56" data-name="Grupo 56" clip-path="url(#clip-path)">
        <path id="Trazado_217" data-name="Trazado 217" d="M145.619,190.234l10.812-3.116,13.414-5.068,10.646-5.772s.93-.92-.375-2.068-7.1,2.058-7.1,2.058l-4.584,1.708s-3.865.319-3.649-.045,6.21-3.261,6.21-3.261l10.231-5.568s2.887-1.494,1.991-3.406c-.427-.91-1.49-1.45-3.454-.7s-5.057,2.7-6.165,3.149-7.427,3.293-7.427,3.293l13.091-8.971s4.267-2.544,2.9-4.343-3.967.184-5.461.762-9.712,5.826-12.914,7.284c-2.746,1.25-2.085.212-2.085.212l7.774-4.8c3.427-2.117,6.029-4.219,3.8-5.611-1.456-.908-8.028,2.6-8.028,2.6l-9.706,5.422-4.625,2.046,3.855-3.452a13.11,13.11,0,0,0,4.216-5.25c1.352-3.339-1.385-3.45-1.385-3.45l-15.835,10.831c-2.464,2.153-5.368,12.515-5.368,12.515l-30.545,12.216L118.531,208Z" transform="translate(-23.137 -33.636)" fill="#ffc09d"/>
        <path id="Trazado_218" data-name="Trazado 218" d="M162.383,168.951a2.261,2.261,0,0,1,.475.552,10.153,10.153,0,0,1,.991,1.721,11.633,11.633,0,0,1-1.7,12.389,10.256,10.256,0,0,1-1.414,1.394,2.266,2.266,0,0,1-.6.406c-.05-.058.785-.68,1.795-1.981a12.036,12.036,0,0,0,1.658-12.094c-.625-1.524-1.265-2.345-1.2-2.388" transform="translate(-35 -36.928)" fill="#ff9b6c"/>
        <path id="Trazado_219" data-name="Trazado 219" d="M135.49,89.8c.24-1.112,1.375-1.767,2.314-2.44a11.268,11.268,0,0,0,4.525-10.74,11.523,11.523,0,0,0-7.713-8.866,8.852,8.852,0,0,1-2.837-1.153c-2-1.57-1.356-4.642-2.116-7.032-1.608-5.062-9.014-6.059-11.667-10.686-1.618-2.822-1.077-6.283-.933-9.511s-.478-6.994-3.352-8.607c-1.546-.867-3.476-.924-4.985-1.851-3.115-1.913-2.983-6.265-4.134-9.673A12.618,12.618,0,0,0,90.9,11.27s2.269-4.865-3.74-7.353C79.9.913,79.439,6,76.1,2.83a11.161,11.161,0,0,0-13.626-.948,31.7,31.7,0,0,1-3.661,2.739c-1.664.854-3.613.945-5.45,1.341-7,1.51-12.457,8.158-12.432,15.156l45.827,78c1.588,7.419-3.054,10.743,3.443,14.907,1.364.874,11.123,3.452,12.73,3.725,2.005.339,6.825.511,8.685-.292,4.038-1.744,10.126-4.389,11.741-8.4A11.523,11.523,0,0,0,136.3,106.15a10.831,10.831,0,0,0,.635-12.943c-.734-1.047-1.712-2.168-1.445-3.409" transform="translate(-8.946 0)" fill="#1a2e35"/>
        <path id="Trazado_220" data-name="Trazado 220" d="M41.833,37.834,41.2,32.491,73.562,23.34c10.061-1.984,22.029,6.938,23.651,16.827,1.8,10.987,3.555,24.47,3.024,32.839C99.167,89.838,86.343,93.149,86.343,93.149l2.965,28.624-.508,7.361-32.028-28Z" transform="translate(-9.005 -5.041)" fill="#ffc09d"/>
        <path id="Trazado_221" data-name="Trazado 221" d="M107.449,62.089a2.144,2.144,0,0,1-1.892,2.339,2.091,2.091,0,0,1-2.436-1.71,2.144,2.144,0,0,1,1.889-2.34,2.094,2.094,0,0,1,2.439,1.711" transform="translate(-22.536 -13.192)" fill="#1a2e35"/>
        <path id="Trazado_222" data-name="Trazado 222" d="M106.751,53.868c-.243.3-2.013-.738-4.358-.516-2.347.189-3.953,1.525-4.235,1.267-.138-.112.089-.638.786-1.239a6.079,6.079,0,0,1,3.357-1.359,5.9,5.9,0,0,1,3.5.757c.775.474,1.069.953.948,1.089" transform="translate(-21.446 -11.365)" fill="#1a2e35"/>
        <path id="Trazado_223" data-name="Trazado 223" d="M79.993,64.712A2.144,2.144,0,0,1,78.1,67.051a2.091,2.091,0,0,1-2.436-1.71A2.145,2.145,0,0,1,77.554,63a2.094,2.094,0,0,1,2.439,1.711" transform="translate(-16.535 -13.765)" fill="#1a2e35"/>
        <path id="Trazado_224" data-name="Trazado 224" d="M77.286,57.132c-.244.3-2.015-.738-4.359-.516-2.347.189-3.953,1.525-4.235,1.267-.137-.112.087-.638.787-1.239a6.071,6.071,0,0,1,3.356-1.358,5.893,5.893,0,0,1,3.5.756c.773.474,1.068.953.948,1.089" transform="translate(-15.006 -12.079)" fill="#1a2e35"/>
        <path id="Trazado_225" data-name="Trazado 225" d="M91.906,73.064a15.915,15.915,0,0,1,3.745-1.021c.593-.116,1.149-.284,1.211-.692a2.944,2.944,0,0,0-.571-1.7q-1.053-2.043-2.209-4.286C91,59.259,88.7,54.214,88.958,54.1S91.916,58.832,95,64.942q1.119,2.261,2.138,4.32a3.333,3.333,0,0,1,.537,2.265,1.487,1.487,0,0,1-.9.946,4.182,4.182,0,0,1-1,.231,15.738,15.738,0,0,1-3.863.361" transform="translate(-19.44 -11.823)" fill="#1a2e35"/>
        <path id="Trazado_226" data-name="Trazado 226" d="M92.27,111.745a46.308,46.308,0,0,1-23.938-3.807s6.984,11.65,24.433,8.511Z" transform="translate(-14.936 -23.592)" fill="#ff9b6c"/>
        <path id="Trazado_227" data-name="Trazado 227" d="M76.38,45.732c-.17.643-2.542.564-5.264,1.141-2.733.524-4.875,1.514-5.3.99-.189-.252.14-.873.978-1.558a9.066,9.066,0,0,1,3.829-1.718,9.2,9.2,0,0,1,4.216.094c1.049.3,1.607.746,1.536,1.051" transform="translate(-14.375 -9.703)" fill="#1a2e35"/>
        <path id="Trazado_228" data-name="Trazado 228" d="M104.981,45.452c-.362.557-2.032.167-3.977.32-1.952.088-3.555.68-3.988.171-.191-.248.016-.793.688-1.351a5.9,5.9,0,0,1,6.418-.4c.739.471,1.017.986.86,1.257" transform="translate(-21.19 -9.493)" fill="#1a2e35"/>
        <path id="Trazado_229" data-name="Trazado 229" d="M88.844,26.714a29.344,29.344,0,0,0-16.056-8.849L45.39,22.2,38.08,26.7c-.6-1.584-.992-2.57-.992-2.57C34.4,22.4,27.08,18.914,21.15,25.214c-2.14,2.272-3.713,8.15-3.6,11.17.041,1.142.234,2.528-.766,3.2a3.729,3.729,0,0,1-1.2.427C8.643,41.714,4.049,49.114,5.945,55.53a3.205,3.205,0,0,1,.22,1.29,3.474,3.474,0,0,1-1.138,1.739,10.563,10.563,0,0,0-1.26,12.6c.75,1.206,1.766,2.32,2.077,3.679.557,2.433-1.262,4.7-2.652,6.818-4.167,6.358-4.652,15.365.931,20.767,1.357,1.314,3.076,2.465,3.652,4.2a9.708,9.708,0,0,1,.293,2.635c.207,4.485,3.034,9.4,7.828,10.148,2.661.417,5.821-.4,7.79,1.31a10.522,10.522,0,0,1,1.833,2.771c2.183,3.628,7.368,5.439,11.581,4.045s6.947-5.827,6.106-9.9c5.089-1.953,8.467-7.149,7.951-12.23,0,0-3.008-15.667-1.7-20S47.193,72.112,45.2,67.774s-.452-14.695-.2-18.8a13.776,13.776,0,0,0-.553-3.478l0,0,0-.012c-.245-.985-.557-2.092-.917-3.278a29.155,29.155,0,0,1-.275-3.286c-.141-3.862,3.909-6.8,7.935-5.732a11.054,11.054,0,0,0,3,.372A10.8,10.8,0,0,0,62.5,29.489a16.211,16.211,0,0,0,15.228,3.18,40.123,40.123,0,0,0,7.538,7.37,14.857,14.857,0,0,0,10.27,2.794,25.453,25.453,0,0,0-6.69-16.119" transform="translate(0 -3.905)" fill="#1a2e35"/>
        <path id="Trazado_230" data-name="Trazado 230" d="M98.34,31.928c-.05,0,0-.606-.145-1.689a10.588,10.588,0,0,0-1.625-4.321,10.1,10.1,0,0,0-5.494-4.18,10.885,10.885,0,0,0-8.549.9l-.2.113-.153-.165a15.737,15.737,0,0,0-3.913-3.036,16.337,16.337,0,0,0-10.359-1.806,15.8,15.8,0,0,0-7.777,3.706A16.378,16.378,0,0,0,56.5,26c-.639,1.224-.871,1.958-.926,1.939a2.072,2.072,0,0,1,.139-.541A11.745,11.745,0,0,1,56.3,25.91a15.555,15.555,0,0,1,3.56-4.74,15.937,15.937,0,0,1,7.956-3.917,16.7,16.7,0,0,1,10.721,1.825,16.11,16.11,0,0,1,4.052,3.155l-.347-.052a11.318,11.318,0,0,1,8.982-.892,10.356,10.356,0,0,1,5.652,4.444,10.208,10.208,0,0,1,1.513,4.485,7.23,7.23,0,0,1,.013,1.273,1.463,1.463,0,0,1-.063.437" transform="translate(-12.146 -3.72)" fill="#375a64"/>
        <path id="Trazado_231" data-name="Trazado 231" d="M9.719,62.364A37.351,37.351,0,0,0,16.3,61.241a26.148,26.148,0,0,0,13.1-8.62l.583-.743.081-.1.127-.01a14.84,14.84,0,0,0,7.735-2.973,15.634,15.634,0,0,0,4.41-5.078,16.823,16.823,0,0,0,1.795-5.894,1.3,1.3,0,0,1,.022.433,8.762,8.762,0,0,1-.08,1.244,13.217,13.217,0,0,1-1.39,4.391,15.577,15.577,0,0,1-4.442,5.3,15.125,15.125,0,0,1-8.009,3.125l.208-.113-.6.761a24.865,24.865,0,0,1-6.7,5.819A25.689,25.689,0,0,1,16.4,61.614a23.9,23.9,0,0,1-4.875.774c-.581.041-1.036.013-1.342.014a1.5,1.5,0,0,1-.467-.038" transform="translate(-2.124 -8.266)" fill="#375a64"/>
        <path id="Trazado_232" data-name="Trazado 232" d="M14.7,110.211a8.4,8.4,0,0,0,1.009.72,5.74,5.74,0,0,0,1.39.545,6.189,6.189,0,0,0,2.023.123,5.555,5.555,0,0,0,2.378-.8,4.907,4.907,0,0,0,1.092-.918,4.831,4.831,0,0,0,.8-1.307,5.648,5.648,0,0,0,.254-3.325,5.247,5.247,0,0,0-2-3.1l-.3-.213.37,0a11.413,11.413,0,0,0,5.711-1.644,15.228,15.228,0,0,0,4.724-4.626c.34-.471.606-.993.9-1.5.251-.533.54-1.056.745-1.62a16.346,16.346,0,0,0,1.006-3.5,26.482,26.482,0,0,0,.159-7.6,74.453,74.453,0,0,0-2.386-11.125l-.027-.1.085-.059a27.947,27.947,0,0,0,8.856-10.024,29.586,29.586,0,0,0,2.187-5.305c.219-.866.5-1.685.624-2.5q.117-.607.231-1.188c.075-.387.1-.771.151-1.143a27.675,27.675,0,0,0-.021-7.022c-.086-.819-.254-1.435-.316-1.861l-.084-.481a.9.9,0,0,1-.02-.166s.246.866.52,2.494a26.84,26.84,0,0,1,.107,7.058c-.048.374-.07.762-.142,1.152s-.148.789-.223,1.2c-.123.822-.4,1.648-.612,2.522a29.48,29.48,0,0,1-2.177,5.359A28.069,28.069,0,0,1,32.792,70.4l.059-.158a73.854,73.854,0,0,1,2.4,11.169,26.672,26.672,0,0,1-.166,7.68,16.656,16.656,0,0,1-1.028,3.561c-.209.573-.5,1.1-.76,1.645-.3.516-.577,1.046-.923,1.524a15.472,15.472,0,0,1-4.825,4.7,11.64,11.64,0,0,1-5.85,1.656l.07-.215a5.466,5.466,0,0,1,2.078,3.251,5.828,5.828,0,0,1-.289,3.444,4.751,4.751,0,0,1-1.979,2.29,5.648,5.648,0,0,1-2.451.79,6.194,6.194,0,0,1-2.061-.157,5.569,5.569,0,0,1-1.4-.585,4.176,4.176,0,0,1-.748-.557c-.154-.144-.226-.223-.226-.223" transform="translate(-3.212 -8.846)" fill="#375a64"/>
        <path id="Trazado_233" data-name="Trazado 233" d="M130.049,119.4a1.076,1.076,0,0,1,.165-.115l.5-.316a8.685,8.685,0,0,0,.794-.537,12.719,12.719,0,0,0,1.039-.8,18.663,18.663,0,0,0,6.635-12.228,16.843,16.843,0,0,0-.624-6.691,18.544,18.544,0,0,0-3.588-6.612,18.1,18.1,0,0,0-6.532-4.943l-.2-.088.152-.151a16.676,16.676,0,0,0,4.553-8.525,15.879,15.879,0,0,0,.333-3.191,14.925,14.925,0,0,0-.288-3.137,14.642,14.642,0,0,0-.89-2.957,15.914,15.914,0,0,0-1.407-2.677,16.986,16.986,0,0,0-8.722-6.841l-.142-.048.065-.134a15.021,15.021,0,0,0,.984-10.279,14.681,14.681,0,0,0-4.149-6.926,15.481,15.481,0,0,0-4.4-2.926c-.563-.246-1.006-.413-1.31-.51l-.341-.119a.617.617,0,0,1-.113-.047,11.217,11.217,0,0,1,1.8.6,15.145,15.145,0,0,1,4.474,2.888,14.754,14.754,0,0,1,4.253,6.984,15.2,15.2,0,0,1-.955,10.448l-.077-.182a17.221,17.221,0,0,1,8.884,6.934A16.182,16.182,0,0,1,132.373,69a15,15,0,0,1,.91,3.012,15.271,15.271,0,0,1,.3,3.2,16.221,16.221,0,0,1-.338,3.248,16.945,16.945,0,0,1-4.641,8.675l-.045-.24a18.342,18.342,0,0,1,6.63,5.034,18.743,18.743,0,0,1,3.619,6.719,17.024,17.024,0,0,1,.6,6.788,18.641,18.641,0,0,1-6.8,12.282,12.182,12.182,0,0,1-1.06.784,7.944,7.944,0,0,1-.812.518l-.512.294a1.159,1.159,0,0,1-.178.091" transform="translate(-24.603 -8.437)" fill="#375a64"/>
        <path id="Trazado_234" data-name="Trazado 234" d="M84.5,83.453a27.616,27.616,0,0,1,6.376,1.732l.02.055c-.191,1.475-.566,3.1-1.813,3.932a3.194,3.194,0,0,1-3.191.107,3.519,3.519,0,0,1-1.861-2.457,7.269,7.269,0,0,1,.469-3.369" transform="translate(-18.353 -18.241)" fill="#ff9b6c"/>
        <path id="Trazado_235" data-name="Trazado 235" d="M87.685,89.389c.015.038-.173.174-.582.242a2.729,2.729,0,0,1-1.694-.337,3.487,3.487,0,0,1-1.647-1.966,5.357,5.357,0,0,1-.027-3.092,4.172,4.172,0,0,1,.289-.825.677.677,0,0,1,.692-.313c.191.039.266.07.4.1l1.378.387,2.321.7a6.987,6.987,0,0,1,2.09.82,7.033,7.033,0,0,1-2.225-.325l-2.361-.545-1.389-.347-.328-.081c-.021.055-.02-.139-.029-.117-.024-.005.119.114.077.1a5.711,5.711,0,0,0-.243,3.341,3.106,3.106,0,0,0,1.271,1.73,3.883,3.883,0,0,0,2.009.534" transform="translate(-18.255 -18.159)" fill="#1a2e35"/>
        <path id="Trazado_236" data-name="Trazado 236" d="M29.2,266.257h93.18l-2.2-37.1-3.3-44.486a45.684,45.684,0,0,0-8.468-23.276l-7.084-9.862L92.57,139.793l-5.4-10.57L53.722,115.552l-4.131,8.528s-4.868,3.5-7.99,6.164c-6.063,5.177-9.609,12-11.631,19.665l-.059.225c-1.955,7.528-.431,18.4-.431,18.4L40.6,222.023a100.1,100.1,0,0,0-8.434,24.637c-.475,2.373-1.972,11.846-2.969,19.6" transform="translate(-6.32 -25.257)" fill="#0c8f5a"/>
        <path id="Trazado_237" data-name="Trazado 237" d="M96.647,138.4a6.317,6.317,0,0,1-.766-1.324l-1.867-3.765.47-.008c-1.009,2.483-2.264,5.569-3.666,9.022l-.135.331-.338-.138-5.29-2.144c-5.443-2.222-10.353-4.272-13.894-5.79l-4.177-1.833a7.229,7.229,0,0,1-1.493-.767,7.37,7.37,0,0,1,1.6.5l4.268,1.614c3.592,1.393,8.535,3.366,13.977,5.588l5.28,2.171-.473.194,3.863-8.942.238-.551.233.542,1.655,3.86a6.214,6.214,0,0,1,.511,1.439" transform="translate(-14.314 -28.846)" fill="#1a2e35"/>
        <path id="Trazado_238" data-name="Trazado 238" d="M91.927,273.8a6.865,6.865,0,0,1-1.607-.291c-1.024-.229-2.491-.62-4.289-1.154a106.441,106.441,0,0,1-26.554-12.178c-1.575-1.013-2.824-1.868-3.663-2.494a6.766,6.766,0,0,1-1.263-1.025,6.857,6.857,0,0,1,1.427.785l3.78,2.286A135.191,135.191,0,0,0,86.193,271.85l4.206,1.376a6.893,6.893,0,0,1,1.528.57" transform="translate(-11.923 -56.097)" fill="#1a2e35"/>
        <g id="Grupo_55" data-name="Grupo 55" transform="translate(26.873 143.992)" opacity="0.3">
          <g id="Grupo_54" data-name="Grupo 54">
            <g id="Grupo_53" data-name="Grupo 53" clip-path="url(#clip-path-3)">
              <path id="Trazado_239" data-name="Trazado 239" d="M34.389,184.268S51.56,231.39,57.207,239.925s8.444,10.957,17.065,9.479,46.462-13.913,46.462-13.913l-.553-7.718-35.034,7.406-20.215-4.153L46.473,202.6Z" transform="translate(-34.389 -184.268)"/>
            </g>
          </g>
        </g>
        <path id="Trazado_240" data-name="Trazado 240" d="M107.107,191.7l-1.907-3.11-9.253,2.2-13.991,3.126s-8.124-47.34-19.858-54.933-20.309-6.253-27.53,7.145-3.332,21.206-3.332,21.206S49.912,219.506,62.1,230.156s52.352-9.448,52.352-9.448l8.142-6.758Z" transform="translate(-6.599 -29.366)" fill="#087c4a"/>
        <path id="Trazado_241" data-name="Trazado 241" d="M107,191.6a2.654,2.654,0,0,1,.286.359l.8,1.1,3.06,4.3,11.518,16.379.11.157-.148.124-8.121,6.783-.023.019-.025.013a168.211,168.211,0,0,1-21.523,8.749,92.79,92.79,0,0,1-12.942,3.253,47.693,47.693,0,0,1-7.048.66,21.8,21.8,0,0,1-7.276-1.009,11.509,11.509,0,0,1-1.743-.745l-.843-.453c-.266-.177-.518-.378-.778-.567a8.374,8.374,0,0,1-1.4-1.3l-1.323-1.38c-.82-.971-1.544-2.022-2.328-3.04s-1.405-2.148-2.12-3.229a148.274,148.274,0,0,1-7.54-13.952c-4.714-9.714-9.022-20.088-13.2-30.823-1.259-3.254-2.483-6.488-3.621-9.641l.017.04a18.323,18.323,0,0,1-.909-8.955,32.982,32.982,0,0,1,2.317-8.491,42.68,42.68,0,0,1,4.073-7.606,22.255,22.255,0,0,1,5.842-6.15,12.969,12.969,0,0,1,7.995-2.262,21.134,21.134,0,0,1,7.791,2.228c1.177.616,2.347,1.224,3.442,1.931a13.089,13.089,0,0,1,3.065,2.448,30.649,30.649,0,0,1,4.167,6.29,92.146,92.146,0,0,1,5.293,13.133c1.4,4.3,2.576,8.466,3.59,12.444,2.029,7.959,3.506,15.152,4.6,21.374l-.257-.171L96.1,190.476l8.983-2.065.059-.014.029.05,1.4,2.356c.3.524.439.8.439.8s-.18-.241-.509-.752l-1.467-2.318.088.037-8.953,2.2L81.9,194.02l-.217.049-.041-.22c-1.138-6.2-2.656-13.377-4.717-21.308-1.031-3.965-2.218-8.114-3.631-12.394A92.083,92.083,0,0,0,68,147.124a30.025,30.025,0,0,0-4.085-6.138,12.352,12.352,0,0,0-2.928-2.324c-1.082-.695-2.23-1.288-3.385-1.889a20.485,20.485,0,0,0-7.524-2.144,12.251,12.251,0,0,0-7.554,2.154,21.569,21.569,0,0,0-5.638,5.962,42.016,42.016,0,0,0-4,7.481,32.279,32.279,0,0,0-2.261,8.3,17.762,17.762,0,0,0,.841,8.542l.017.041c1.135,3.141,2.36,6.375,3.616,9.622,4.169,10.72,8.466,21.084,13.156,30.775a148.356,148.356,0,0,0,7.483,13.9c.706,1.07,1.337,2.186,2.093,3.2s1.482,2.043,2.282,2.993l1.279,1.339a7.921,7.921,0,0,0,1.332,1.243c.243.177.476.366.724.532l.793.427a10.826,10.826,0,0,0,1.65.71,21.149,21.149,0,0,0,7.047.989,47.278,47.278,0,0,0,6.948-.631,92.706,92.706,0,0,0,12.861-3.189,170.044,170.044,0,0,0,21.486-8.619l-.047.031,8.164-6.733-.038.281-11.357-16.494-2.969-4.362-.749-1.126A2.708,2.708,0,0,1,107,191.6" transform="translate(-6.496 -29.269)" fill="#1a2e35"/>
        <path id="Trazado_242" data-name="Trazado 242" d="M87.9,234.429a13.039,13.039,0,0,1-.213-3.666,38.955,38.955,0,0,1,4.51-17.051,13.16,13.16,0,0,1,2-3.092,27.858,27.858,0,0,1-1.523,3.324,49.067,49.067,0,0,0-4.456,16.848,27.73,27.73,0,0,1-.318,3.638" transform="translate(-19.163 -46.036)" fill="#1a2e35"/>
        <path id="Trazado_243" data-name="Trazado 243" d="M133.048,236.549a4.978,4.978,0,0,1-1.028-.931c-.627-.631-1.5-1.572-2.555-2.765a82.282,82.282,0,0,1-7.506-9.894,51.689,51.689,0,0,1-5.457-11.144,29.876,29.876,0,0,1-1.009-3.622,4.916,4.916,0,0,1-.2-1.365c.129-.03.588,1.872,1.711,4.81a61.357,61.357,0,0,0,5.592,10.924,111.312,111.312,0,0,0,7.279,9.953,44.114,44.114,0,0,1,3.174,4.034" transform="translate(-25.196 -45.207)" fill="#1a2e35"/>
        <path id="Trazado_244" data-name="Trazado 244" d="M168.385,198.572l10.812-3.116,13.414-5.068,10.646-5.772s.93-.92-.375-2.068-7.1,2.058-7.1,2.058l-4.584,1.708s-3.865.319-3.649-.045,6.21-3.261,6.21-3.261L204,177.442s2.887-1.494,1.991-3.406c-.427-.91-1.49-1.45-3.454-.7s-5.057,2.7-6.165,3.149-7.427,3.293-7.427,3.293l13.091-8.971s4.267-2.544,2.9-4.343-3.967.184-5.461.762-9.712,5.826-12.914,7.284c-2.746,1.249-2.085.212-2.085.212l7.774-4.8c3.427-2.117,6.029-4.219,3.8-5.611-1.456-.907-8.028,2.6-8.028,2.6l-9.705,5.422-4.626,2.046,3.855-3.452a13.11,13.11,0,0,0,4.216-5.25c1.352-3.339-1.385-3.45-1.385-3.45l-15.835,10.831c-2.464,2.153-5.368,12.515-5.368,12.515l-30.545,11.767,12.993,18.789Z" transform="translate(-28.113 -35.458)" fill="#ffc09d"/>
        <path id="Trazado_245" data-name="Trazado 245" d="M168.32,198.516s-.15.112-.451.316l-1.344.9-5.232,3.468-19.679,12.971-.1.066-.068-.1L128.43,197.368l-.11-.159.181-.07,30.535-11.793-.109.12c.6-2.076,1.287-4.209,2.1-6.366.413-1.074.846-2.158,1.357-3.223a10.775,10.775,0,0,1,1.966-3.019l.005-.005.012-.009,15.831-10.838.058-.04.061.005a2.312,2.312,0,0,1,1.351.551,1.9,1.9,0,0,1,.589,1.362,5.91,5.91,0,0,1-.828,2.758,13.447,13.447,0,0,1-3.838,4.392l.02-.016-3.854,3.452-.216-.334,4.625-2.046-.017.008,8.206-4.585a43.946,43.946,0,0,1,4.321-2.2c.747-.327,1.5-.64,2.285-.9a7.6,7.6,0,0,1,2.465-.5,1.42,1.42,0,0,1,.635.161,3.268,3.268,0,0,1,.486.377,1.382,1.382,0,0,1,.452,1.174,2.262,2.262,0,0,1-.494,1.112,6.016,6.016,0,0,1-.786.853,25.172,25.172,0,0,1-3.675,2.61l-7.524,4.648.064-.063c-.287.175.417.074.823-.093a12.89,12.89,0,0,0,1.341-.572c.878-.427,1.739-.9,2.59-1.38,1.7-.962,3.377-1.96,5.042-2.946l2.5-1.47a26.6,26.6,0,0,1,2.556-1.367c.853-.362,1.678-.876,2.6-1.2a3.926,3.926,0,0,1,1.462-.265,1.958,1.958,0,0,1,1.381.635,1.55,1.55,0,0,1,.412,1.47,3.2,3.2,0,0,1-.728,1.289,10.419,10.419,0,0,1-2.161,1.837c-1.546,1.028-3.048,2.079-4.554,3.1l-8.854,6.061-.183-.325L194.577,177c.954-.438,1.9-.8,2.792-1.3l2.686-1.466a18.655,18.655,0,0,1,2.775-1.259,4.2,4.2,0,0,1,1.536-.209,1.973,1.973,0,0,1,1.882,2.188,2.551,2.551,0,0,1-.685,1.379,5.7,5.7,0,0,1-1.139.963c-.422.273-.852.477-1.268.711-3.364,1.818-6.6,3.607-9.766,5.281-1.6.784-3.18,1.558-4.693,2.368a9.486,9.486,0,0,0-1.05.627c-.017,0-.025.041-.011-.038a.1.1,0,0,0-.029-.07s-.006-.005-.006-.005a.58.58,0,0,0,.111.029,2.522,2.522,0,0,0,.3.031c.206.012.415.013.624.012.837-.01,1.672-.063,2.493-.125l-.04.009,4.585-1.7-.019.009a25.966,25.966,0,0,1,4.748-2.05,7.033,7.033,0,0,1,1.234-.249,1.754,1.754,0,0,1,1.264.263,2.14,2.14,0,0,1,.706,1.044,1.336,1.336,0,0,1-.321,1.221l-.011.013-.019.009L192.6,190.428l-.007,0-.006,0-13.426,5.035h-.005l-8.077,2.29-2.057.574c-.461.127-.7.181-.7.181s.226-.079.682-.216l2.044-.609,8.065-2.361-.005,0,13.4-5.1-.013.005,10.636-5.791-.029.022a1.078,1.078,0,0,0,.248-.973,1.888,1.888,0,0,0-.625-.9,1.517,1.517,0,0,0-1.064-.195,6.849,6.849,0,0,0-1.184.242,25.732,25.732,0,0,0-4.684,2.04l-.01.005-.009,0L191.19,186.4l-.02.007-.02,0c-.828.064-1.663.119-2.515.131-.213,0-.427,0-.645-.011a2.722,2.722,0,0,1-.335-.035.8.8,0,0,1-.195-.056.41.41,0,0,1-.073-.052.221.221,0,0,1-.062-.14.2.2,0,0,1,.079-.163,7.361,7.361,0,0,1,1.142-.707c1.521-.818,3.1-1.595,4.7-2.383,3.149-1.674,6.391-3.473,9.748-5.293.416-.235.853-.446,1.24-.7a5.361,5.361,0,0,0,1.067-.9,2.216,2.216,0,0,0,.6-1.192,1.622,1.622,0,0,0-1.564-1.793,3.857,3.857,0,0,0-1.4.2,18.358,18.358,0,0,0-2.712,1.237l-2.681,1.468c-.9.509-1.888.889-2.822,1.32l-5.768,2.562-.182-.325,8.854-6.074c1.5-1.025,3.014-2.082,4.55-3.106a10.033,10.033,0,0,0,2.076-1.764,2.831,2.831,0,0,0,.645-1.128,1.147,1.147,0,0,0-.316-1.11,2.135,2.135,0,0,0-2.423-.266c-.874.306-1.676.808-2.58,1.194-1.689.789-3.329,1.85-5,2.814-1.664.987-3.337,1.986-5.048,2.953-.855.483-1.718.957-2.614,1.393a13.1,13.1,0,0,1-1.382.589,3.717,3.717,0,0,1-.761.2.671.671,0,0,1-.513-.1.371.371,0,0,1-.118-.349.663.663,0,0,1,.095-.252l.022-.037.043-.027,7.524-4.649a24.991,24.991,0,0,0,3.613-2.563,5.629,5.629,0,0,0,.734-.8,1.863,1.863,0,0,0,.417-.912.969.969,0,0,0-.334-.844,2.888,2.888,0,0,0-.4-.313,1.052,1.052,0,0,0-.452-.107,7.3,7.3,0,0,0-2.314.482c-.763.259-1.512.567-2.251.892a43.767,43.767,0,0,0-4.289,2.184l-8.2,4.582-.009,0-.009,0-4.626,2.044-1.162.514.946-.848,3.856-3.452,0,0,.015-.011a13.063,13.063,0,0,0,3.714-4.248,5.557,5.557,0,0,0,.783-2.554,1.5,1.5,0,0,0-.459-1.087,1.934,1.934,0,0,0-1.1-.45l.119-.034-15.84,10.824.017-.013a10.544,10.544,0,0,0-1.877,2.9c-.5,1.049-.937,2.125-1.347,3.192-.806,2.141-1.5,4.27-2.093,6.332l-.025.088-.084.032-30.555,11.741.07-.229L141.648,216l-.166-.032,19.753-12.885,5.261-3.412,1.359-.871c.306-.194.465-.285.465-.285" transform="translate(-28.047 -35.402)" fill="#ff9b6c"/>
      </g>
    </g>
  </g>
</svg>
