<svg id="pdf" xmlns="http://www.w3.org/2000/svg" xmlns:xlink="http://www.w3.org/1999/xlink" width="90.439" height="114.579" viewBox="0 0 90.439 114.579">
  <defs>
    <clipPath id="clip-path">
      <rect id="Rectángulo_88" data-name="Rectángulo 88" width="90.439" height="114.579" fill="none"/>
    </clipPath>
  </defs>
  <g id="Grupo_57" data-name="Grupo 57" clip-path="url(#clip-path)">
    <path id="Trazado_290" data-name="Trazado 290" d="M20.2,400.721a6.85,6.85,0,1,0-6.85,6.85,6.851,6.851,0,0,0,6.85-6.85" transform="translate(-5.192 -314.608)" fill="#e50019"/>
    <path id="Trazado_291" data-name="Trazado 291" d="M8.159,403.688a8.159,8.159,0,1,1,8.159-8.159,8.168,8.168,0,0,1-8.159,8.159m0-13.7a5.542,5.542,0,1,0,5.542,5.542,5.549,5.549,0,0,0-5.542-5.542" transform="translate(0 -309.416)" fill="#1a1818"/>
    <path id="Trazado_292" data-name="Trazado 292" d="M92.69,6.5H59.358A16.472,16.472,0,0,0,42.886,22.971V101.99a16.472,16.472,0,0,0,16.472,16.472H106.91a16.472,16.472,0,0,0,16.472-16.472v-64.8Z" transform="translate(-34.256 -5.191)" fill="#fff"/>
    <path id="Trazado_293" data-name="Trazado 293" d="M101.718,114.579H54.166A17.8,17.8,0,0,1,36.386,96.8V17.78A17.8,17.8,0,0,1,54.166,0H87.5a1.309,1.309,0,0,1,.925.383l30.692,30.692A1.309,1.309,0,0,1,119.5,32V96.8a17.8,17.8,0,0,1-17.78,17.78M54.166,2.616A15.181,15.181,0,0,0,39,17.78V96.8a15.181,15.181,0,0,0,15.164,15.164h47.552A15.181,15.181,0,0,0,116.882,96.8V32.542L86.956,2.616Z" transform="translate(-29.064)" fill="#1a1818"/>
    <path id="Trazado_294" data-name="Trazado 294" d="M290.371,6.5l30.692,30.692H296.916a6.546,6.546,0,0,1-6.545-6.546Z" transform="translate(-231.936 -5.191)" fill="#d3d5d6"/>
    <path id="Trazado_295" data-name="Trazado 295" d="M315.876,33.308H291.725a7.862,7.862,0,0,1-7.853-7.854V1.307A1.308,1.308,0,0,1,286.1.382l30.633,30.633a1.308,1.308,0,0,1-.862,2.292M286.488,4.465V25.454a5.243,5.243,0,0,0,5.237,5.237h20.989Z" transform="translate(-226.745 0.001)" fill="#1a1818"/>
    <path id="Trazado_296" data-name="Trazado 296" d="M14.393,231.618a7.367,7.367,0,0,0-7.367,7.367v30.852h.135a7.368,7.368,0,0,1,7.232-5.965H88.587V231.618Z" transform="translate(-5.612 -185.007)" fill="#e50019"/>
    <path id="Trazado_297" data-name="Trazado 297" d="M1.969,265.953H1.834a1.308,1.308,0,0,1-1.308-1.308V233.793A8.685,8.685,0,0,1,9.2,225.118H83.395a1.308,1.308,0,0,1,1.308,1.308V258.68a1.308,1.308,0,0,1-1.308,1.308H9.2a6.063,6.063,0,0,0-5.948,4.9,1.308,1.308,0,0,1-1.284,1.06M9.2,227.734a6.066,6.066,0,0,0-6.059,6.059v26.048a8.673,8.673,0,0,1,6.059-2.47H82.087V227.734Z" transform="translate(-0.42 -179.815)" fill="#1a1818"/>
  </g>
</svg>
