<svg id="Persona" xmlns="http://www.w3.org/2000/svg" xmlns:xlink="http://www.w3.org/1999/xlink" width="357.21" height="292.039" viewBox="0 0 357.21 292.039">
  <defs>
    <clipPath id="clip-path">
      <rect id="Rectángulo_96" data-name="Rectángulo 96" width="357.21" height="292.039" fill="none"/>
    </clipPath>
  </defs>
  <g id="Grupo_75" data-name="Grupo 75" clip-path="url(#clip-path)">
    <path id="Trazado_256" data-name="Trazado 256" d="M75.913,224.188s-7.19-6.75-9.955-8.543-8.967-4.259-11.283-4.483-13.151,2.914-13.151,2.914-15.991-1.42-18.681.449-2.465,3.811-1.345,5.23,5.455.972,10.237,1.046,6.053.524,6.053.524l-6.95,7.4,18.009,5.006,10.984-.412,3.961,4.981Z" transform="translate(-3.273 -33.371)" fill="#ffc09d"/>
    <path id="Trazado_257" data-name="Trazado 257" d="M21.162,206.769,21.6,222.7l.771,1.98,7.86,9.582L49.4,233l-15.277-5.953-5.432-4.128-2.1-6.808s.652-10.5-5.432-9.343" transform="translate(-3.345 -32.664)" fill="#ffc09d"/>
    <path id="Trazado_258" data-name="Trazado 258" d="M19.165,227.121h-4.67S8.4,217.1,2.824,220.5l1.282,1.979A3.459,3.459,0,0,0,0,223.46l15.372,13.485h.707l16.379-1.055Z" transform="translate(0 -34.737)" fill="#ffc09d"/>
    <path id="Trazado_259" data-name="Trazado 259" d="M23.98,230.736a8.917,8.917,0,0,1-1.322.056,8.717,8.717,0,0,0-3.236.651l-.157.071-.1-.143c-.473-.669-1.059-1.389-1.66-2.139l-3.316-4.093a12.784,12.784,0,0,1-1.317-1.746,9.335,9.335,0,0,1,1.553,1.545c.906,1,2.125,2.414,3.422,4.019.605.757,1.178,1.476,1.659,2.19l-.258-.072a7.853,7.853,0,0,1,3.412-.531,3.671,3.671,0,0,1,1.322.194" transform="translate(-2.034 -35.305)" fill="#ff9b6c"/>
    <path id="Trazado_260" data-name="Trazado 260" d="M63.624,221.108a39.969,39.969,0,0,0-5.4,2.288,40.031,40.031,0,0,0-4.728,3.476,5.39,5.39,0,0,1,1.134-1.328A16.83,16.83,0,0,1,61.9,221.4a5.409,5.409,0,0,1,1.721-.3" transform="translate(-8.454 -34.942)" fill="#ff9b6c"/>
    <path id="Trazado_261" data-name="Trazado 261" d="M46.489,216.209a22.761,22.761,0,0,1-2.2,2.7,22.806,22.806,0,0,1-2.275,2.64,10.222,10.222,0,0,1,1.939-2.921,10.229,10.229,0,0,1,2.536-2.421" transform="translate(-6.639 -34.169)" fill="#ff9b6c"/>
    <path id="Trazado_262" data-name="Trazado 262" d="M27.139,230.282a2.331,2.331,0,0,1-.367-.365l-.988-1.1-1.544-1.763-.96-1.105a12.094,12.094,0,0,1-1.04-1.295A6.767,6.767,0,0,1,21.148,221c-.026-1.358-.054-2.806-.083-4.329-.051-3.057-.106-6.411-.164-9.939l0-.195.182-.024.507-.069a3.71,3.71,0,0,1,3.1,1.1,6.81,6.81,0,0,1,1.484,2.8,18.375,18.375,0,0,1,.576,5.741l-.008-.069c.778,2.583,1.471,4.883,2.055,6.822l-.051-.074,3.949,3.086,1.047.845a1.994,1.994,0,0,1,.346.315,1.954,1.954,0,0,1-.4-.249l-1.1-.783L28.563,223l-.037-.027-.015-.047-2.144-6.794-.01-.03,0-.04a18.265,18.265,0,0,0-.6-5.6,6.425,6.425,0,0,0-1.388-2.617,3.274,3.274,0,0,0-2.747-.966l-.466.063.178-.218c.045,3.529.088,6.883.127,9.94.126,3.027-.347,5.91,1.032,7.819a12.22,12.22,0,0,0,.992,1.282l.935,1.127,1.488,1.811.926,1.154a2.341,2.341,0,0,1,.3.422" transform="translate(-3.303 -32.623)" fill="#ff9b6c"/>
    <path id="Trazado_263" data-name="Trazado 263" d="M16.608,237.077a1.294,1.294,0,0,1-.817-.233,8.749,8.749,0,0,1-1.8-1.441,49.738,49.738,0,0,1-4.817-5.824c-1.738-2.384-3.211-4.61-4.245-6.241-.516-.816-.922-1.484-1.193-1.951a3.022,3.022,0,0,1-.38-.752,3.241,3.241,0,0,1,.524.659l1.308,1.873c1.1,1.584,2.609,3.778,4.34,6.153a66.378,66.378,0,0,0,4.685,5.865,10.63,10.63,0,0,0,1.669,1.511,6.279,6.279,0,0,0,.729.38" transform="translate(-0.53 -34.87)" fill="#ff9b6c"/>
    <path id="Trazado_264" data-name="Trazado 264" d="M49.333,224.905l-8.463-.571L38.342,217.4l-.466-4.662a4.445,4.445,0,0,0-4.423-4.043l-.083,0,.475,11.428,1.739,7.1,6.875,4.056h8.407Z" transform="translate(-5.274 -32.983)" fill="#ffc09d"/>
    <path id="Trazado_265" data-name="Trazado 265" d="M49.333,224.905l-8.463-.571L38.342,217.4l-.466-4.662a4.445,4.445,0,0,0-4.423-4.043l-.083,0,.475,11.428,1.739,7.1,6.875,4.056" transform="translate(-5.274 -32.983)" fill="#ffc09d"/>
    <path id="Trazado_266" data-name="Trazado 266" d="M42.415,231.238a2.6,2.6,0,0,1-.5-.242l-1.384-.769-5.073-2.911-.056-.032-.017-.065c-.511-2.035-1.114-4.438-1.779-7.088l-.005-.019v-.02c-.149-3.435-.318-7.321-.5-11.426l-.009-.218.223-.01c.077,0,.162,0,.248,0a4.645,4.645,0,0,1,4.358,3.572,9.723,9.723,0,0,1,.189,1.4q.067.679.131,1.343.129,1.327.25,2.587l-.011-.048c.926,2.581,1.764,4.92,2.491,6.947l-.139-.1,6.186.489,1.681.156a2.811,2.811,0,0,1,.583.085,2.8,2.8,0,0,1-.59.006l-1.686-.071-6.2-.347-.1-.006-.037-.1-2.567-6.92-.008-.023,0-.026q-.13-1.258-.267-2.586-.068-.663-.137-1.342a9.465,9.465,0,0,0-.185-1.335,4.217,4.217,0,0,0-3.95-3.236c-.077,0-.153-.008-.226,0l.213-.228c.162,4.106.317,7.992.453,11.429l-.005-.039c.634,2.657,1.21,5.067,1.7,7.108l-.072-.1,5,3.032,1.343.839a2.569,2.569,0,0,1,.451.318" transform="translate(-5.231 -32.942)" fill="#ff9b6c"/>
    <path id="Trazado_267" data-name="Trazado 267" d="M247.839,57.1C240.586,29.457,233.89-2.709,193.476.182c0,0-24.906,4.792-36.734,23.173-6.958,10.812-12.985,57.421-14.184,94.233v.019c-.049,1.5.575,11.947.534,13.414l106.98,8.905h19.272a189.375,189.375,0,0,0-7.017-38.472c-5.65-18.425-11.92-34.571-14.487-44.355" transform="translate(-22.53 0)" fill="#1a2e35"/>
    <path id="Trazado_268" data-name="Trazado 268" d="M190.761,12.273l2.528-2.41,27.323,11.011a7.627,7.627,0,0,1,7.2,7.385l-.24,89.026c.035,6.036-1.175,11.265-4.82,16.076l-3.837,5.067c-8.75,11.551-26.749,10.6-33.676-2.127a9.687,9.687,0,0,1-.966-2.3,17.9,17.9,0,0,1-.407-1.99c-.813-7.163-.86-13.373-.86-13.373-.487-7.865-.647-11.091-.649-11.018,0,0-16.735-1.924-21.259-23.4-2.25-10.684-1.825-25.382-1.193-39.847.876-20.018,14.761-32.111,30.853-32.093" transform="translate(-25.193 -1.559)" fill="#ffc09d"/>
    <path id="Trazado_269" data-name="Trazado 269" d="M205,67.309a2.78,2.78,0,0,0,2.818,2.667,2.658,2.658,0,0,0,2.737-2.646,2.782,2.782,0,0,0-2.815-2.67A2.661,2.661,0,0,0,205,67.309" transform="translate(-32.399 -10.219)" fill="#1a2e35"/>
    <path id="Trazado_270" data-name="Trazado 270" d="M171.117,68.193a2.78,2.78,0,0,0,2.818,2.667,2.66,2.66,0,0,0,2.738-2.647,2.783,2.783,0,0,0-2.816-2.669,2.662,2.662,0,0,0-2.741,2.649" transform="translate(-27.044 -10.359)" fill="#1a2e35"/>
    <path id="Trazado_271" data-name="Trazado 271" d="M163.388,57.037c.362.345,2.389-1.317,5.378-1.459,2.983-.185,5.254,1.243,5.559.86.152-.17-.233-.806-1.222-1.454a7.635,7.635,0,0,0-4.473-1.137,7.33,7.33,0,0,0-4.258,1.614c-.883.751-1.162,1.421-.984,1.575" transform="translate(-25.814 -8.508)" fill="#1a2e35"/>
    <path id="Trazado_272" data-name="Trazado 272" d="M198.59,55.714c.4.306,2.244-1.556,5.2-2,2.949-.491,5.354.7,5.618.285.132-.184-.311-.778-1.366-1.32A7.627,7.627,0,0,0,203.476,52a7.335,7.335,0,0,0-4.069,2.043c-.8.837-1.009,1.533-.818,1.668" transform="translate(-31.375 -8.204)" fill="#1a2e35"/>
    <path id="Trazado_273" data-name="Trazado 273" d="M185.567,79.156c.006-.17-1.868-.4-4.9-.632-.767-.041-1.5-.156-1.651-.67a3.881,3.881,0,0,1,.4-2.288l1.965-5.924c2.719-8.43,4.647-15.346,4.307-15.452s-2.821,6.64-5.54,15.07q-.978,3.117-1.868,5.953a4.418,4.418,0,0,0-.246,3.015,1.92,1.92,0,0,0,1.311,1.053,5.162,5.162,0,0,0,1.3.115c3.038.011,4.918-.069,4.92-.24" transform="translate(-28.106 -8.564)" fill="#1a2e35"/>
    <path id="Trazado_274" data-name="Trazado 274" d="M186.671,124.242a55.161,55.161,0,0,0,28.612-9.189s-6.539,15.356-28.314,14.415Z" transform="translate(-29.502 -18.183)" fill="#ff9b6c"/>
    <path id="Trazado_275" data-name="Trazado 275" d="M196.6,90.746a4.921,4.921,0,0,0-3.487-1.651c-1.879-.108-3.2.13-4.206,1.6a3.072,3.072,0,0,0-.21,2.414c.219.344.056.352.391.6a11.192,11.192,0,0,0,4.059,1.774,3.617,3.617,0,0,0,3.868-1.187,3.117,3.117,0,0,0-.415-3.55" transform="translate(-29.797 -14.077)" fill="#ff9b6c"/>
    <path id="Trazado_276" data-name="Trazado 276" d="M197.744,39.541c.383.764,2.959-.021,6.118-.077,3.157-.128,5.809.505,6.108-.279.13-.373-.42-1.063-1.549-1.686a9.479,9.479,0,0,0-4.723-1.065,9.132,9.132,0,0,0-4.592,1.335c-1.057.687-1.532,1.407-1.362,1.771" transform="translate(-31.247 -5.758)" fill="#1a2e35"/>
    <path id="Trazado_277" data-name="Trazado 277" d="M163.892,50.584c.559.652,2.583-.155,5.057-.312,2.468-.244,4.595.226,5.042-.508.194-.355-.17-1.019-1.118-1.615a7.337,7.337,0,0,0-8.137.66c-.84.742-1.092,1.455-.844,1.775" transform="translate(-25.888 -7.463)" fill="#1a2e35"/>
    <path id="Trazado_278" data-name="Trazado 278" d="M231.718,65.978s-11.5,2.781-27.823-32.369C198.337,21.644,187.546,9.59,187.546,9.59l10.125-1.461s30.183,8.5,30.691,8.883,7.615,15.61,7.615,15.61Z" transform="translate(-29.64 -1.285)" fill="#1a2e35"/>
    <path id="Trazado_279" data-name="Trazado 279" d="M235.529,74c-.077-1.612,1.6-5.508,3.177-5.836,4.22-.876,11.9-.919,12.515,9.878.838,14.76-14.153,12.555-14.2,12.134-.04-.33-1.223-10.607-1.489-16.176" transform="translate(-37.223 -10.718)" fill="#ffc09d"/>
    <path id="Trazado_280" data-name="Trazado 280" d="M242.273,85.21c.062-.051.267.165.712.34a2.575,2.575,0,0,0,1.925-.07c1.527-.661,2.7-3.21,2.62-5.875a8.5,8.5,0,0,0-.929-3.641,2.972,2.972,0,0,0-2.046-1.863,1.312,1.312,0,0,0-1.478.79c-.174.425-.063.714-.141.743-.039.04-.331-.229-.247-.844a1.645,1.645,0,0,1,.529-.959,1.948,1.948,0,0,1,1.4-.456,3.62,3.62,0,0,1,2.815,2.136,8.735,8.735,0,0,1,1.125,4.063c.074,2.98-1.29,5.849-3.389,6.587A2.764,2.764,0,0,1,242.8,85.9c-.477-.338-.573-.664-.524-.694" transform="translate(-38.288 -11.596)" fill="#ff9b6c"/>
    <path id="Trazado_281" data-name="Trazado 281" d="M198.291,91.649c-.045.379-2.566.323-5.56.9-3,.549-5.33,1.518-5.509,1.181-.184-.292,2.029-1.875,5.266-2.474,3.231-.619,5.868.051,5.8.39" transform="translate(-29.587 -14.383)" fill="#1a2e35"/>
    <path id="Trazado_282" data-name="Trazado 282" d="M337.369,225.578s12.362-10.589,15.944-10.871,13,1.468,13,1.468,5.951.051,8.909-.318a22.645,22.645,0,0,1,9.287.452c.892.272,2.008,2.491-.617,4-1.111.639-11.92,1.37-11.92,1.37l27.045,7.725-3.513,2.9a2.748,2.748,0,0,1-1.654.627l-38.939,1.381-1.783,4.353Z" transform="translate(-53.319 -33.928)" fill="#ffc09d"/>
    <path id="Trazado_283" data-name="Trazado 283" d="M372.427,225.611h12.631s4.43-5.883,6.033-8.334c1.4-2.143,3.09-2.773,4.564-2.267a1.687,1.687,0,0,1,.9.77,1.743,1.743,0,0,1,.023,1.687l-5.553,10.367,2.911-.983s5.831-5.709,6.962-7.029,5.279-6.881,8.955-2.828l-5.091,5.656,5.091-3.583s4.053-3.487,6.221.66l-15.135,12.763" transform="translate(-58.859 -33.955)" fill="#ffc09d"/>
    <path id="Trazado_284" data-name="Trazado 284" d="M356.81,220.339a2.743,2.743,0,0,1,.5-.173,7.466,7.466,0,0,1,1.5-.346,12.081,12.081,0,0,1,5.673.59,19.936,19.936,0,0,1,3.643,1.676c.623.37,1.258.77,1.892,1.214l.959.683a9.984,9.984,0,0,0,.933.638c3.2.25,6.855.464,10.686.734l-.178.075c1.18-1.4,2.347-2.933,3.476-4.531.44-.621.86-1.249,1.271-1.873s.793-1.269,1.243-1.866a10.129,10.129,0,0,1,1.487-1.652,4.622,4.622,0,0,1,.919-.635,1.93,1.93,0,0,1,1.159-.256l-.074-.006a2.644,2.644,0,0,1,1.992.479,2.2,2.2,0,0,1,.662,1.889l0,.035-.02.037c-2.405,4.315-4.5,8.07-6.124,10.983l.013-.031a3.856,3.856,0,0,1-2.229,2.357,6.681,6.681,0,0,1-2.379.5,14.812,14.812,0,0,1-1.509-.013,2.451,2.451,0,0,1-.518-.051,2.685,2.685,0,0,1,.519-.026c.341-.008.847-.008,1.5-.06a6.756,6.756,0,0,0,2.3-.552,3.644,3.644,0,0,0,2.049-2.23l0-.016.008-.015,6.014-11.043-.024.072a1.8,1.8,0,0,0-.53-1.522,2.25,2.25,0,0,0-1.68-.373l-.018,0-.057-.008a1.678,1.678,0,0,0-.859.227,4.225,4.225,0,0,0-.833.581,9.742,9.742,0,0,0-1.417,1.585c-.834,1.174-1.606,2.5-2.5,3.732-1.137,1.611-2.309,3.14-3.507,4.559l-.07.083-.109-.008c-3.858-.284-7.446-.5-10.744-.8a6.8,6.8,0,0,1-1.065-.71l-.946-.687c-.624-.445-1.247-.847-1.857-1.218a20.107,20.107,0,0,0-3.564-1.7,12.327,12.327,0,0,0-5.561-.706,8.79,8.79,0,0,0-1.5.269,2.779,2.779,0,0,1-.526.1" transform="translate(-56.391 -33.915)" fill="#ff9b6c"/>
    <path id="Trazado_285" data-name="Trazado 285" d="M414.127,217.4a3.169,3.169,0,0,1-.493.7c-.339.428-.84,1.038-1.467,1.785-1.253,1.494-3.006,3.539-4.963,5.779-1.99,2.2-3.644,4.358-5.1,5.689a11.762,11.762,0,0,1-1.823,1.45,2.215,2.215,0,0,1-.777.36,5.755,5.755,0,0,1,.681-.5,15.89,15.89,0,0,0,1.7-1.531c1.378-1.366,2.978-3.53,4.978-5.746,1.959-2.243,3.753-4.259,5.067-5.7.657-.723,1.194-1.3,1.573-1.695a3.237,3.237,0,0,1,.621-.583" transform="translate(-63.139 -34.358)" fill="#ff9b6c"/>
    <path id="Trazado_286" data-name="Trazado 286" d="M406.379,218.1a12.62,12.62,0,0,1-1.534,1.8c-.988,1.076-2.374,2.54-3.925,4.138-1.271,1.311-2.456,2.508-3.4,3.445l-.033.032-.037.012a13.47,13.47,0,0,1-3.128.808,5.079,5.079,0,0,1,.81-.334l2.206-.806-.069.045c.908-.976,2.069-2.2,3.34-3.507,1.551-1.6,2.973-3.029,4.018-4.049a12.635,12.635,0,0,1,1.756-1.588" transform="translate(-62.319 -34.469)" fill="#ff9b6c"/>
    <path id="Trazado_287" data-name="Trazado 287" d="M287.023,153s18.153,4.678,19.934,29.351c1.014,14.056-6.467,59.212-6.467,59.212L327.3,214.031l23.891,16.624s-32.5,39.74-40,45.715-19.446,15.585-23.335,14.8-3.89-18.7-3.89-18.7V173.511Z" transform="translate(-44.878 -24.181)" fill="#f6921e"/>
    <path id="Trazado_288" data-name="Trazado 288" d="M121.4,156.589s-16.151,5.309-15.492,36.856.141,42.168.141,42.168L81.848,210,61.742,232.174s22.494,33.42,38.235,49.662c14.833,15.3,28.018,2.014,32.3-8.745,3.472-8.718,6.262-41.854,6.262-41.854Z" transform="translate(-9.758 -24.748)" fill="#f6921e"/>
    <path id="Trazado_289" data-name="Trazado 289" d="M287.217,215.291c1.457-9.23,1.846-19.292-2.368-27.764-10.351,25.583-9.885,54.955-6.18,82.061l8.2,23.445c5.167-15.711.253-32.447.367-48.87.065-9.328-1.479-19.641-.022-28.872" transform="translate(-43.661 -29.637)" fill="#b25e09"/>
    <path id="Trazado_290" data-name="Trazado 290" d="M128.606,174.235s10.8,72.614,12.887,78.972,2.09,25.1,2.09,25.1-11.332,21.094-12.029,35.76l136.459.281-8.867-60.254a102.245,102.245,0,0,1-.2-11.44c.573-10.61,1.394-33.375,4.435-47.364,3.535-16.267-1.225-44.1-1.225-44.1l-40.76-10.039c-9.648,13.863-33.717,14.05-43.212,0l-46,13Z" transform="translate(-20.325 -22.307)" fill="#f6921e"/>
    <path id="Trazado_291" data-name="Trazado 291" d="M286.826,269.612a2.571,2.571,0,0,1,.408-.647c.283-.4.712-.966,1.254-1.654a37.707,37.707,0,0,1,4.683-5.014,24.279,24.279,0,0,1,5.778-3.71c.8-.359,1.462-.626,1.928-.78a2.6,2.6,0,0,1,.736-.208c.1.173-4.132,1.528-8.156,5.03a48.894,48.894,0,0,0-4.731,4.88,20.437,20.437,0,0,1-1.9,2.1" transform="translate(-45.33 -40.711)" fill="#1a2e35"/>
    <path id="Trazado_292" data-name="Trazado 292" d="M133.115,266.955c-.083.024-.4-1.477-1.43-3.694a21.866,21.866,0,0,0-14.062-11.927c-2.355-.655-3.887-.723-3.877-.809a4.407,4.407,0,0,1,1.072.023,18.428,18.428,0,0,1,2.885.487,21,21,0,0,1,14.265,12.1,18.444,18.444,0,0,1,.951,2.767,4.44,4.44,0,0,1,.2,1.054" transform="translate(-17.977 -39.591)" fill="#1a2e35"/>
    <path id="Trazado_293" data-name="Trazado 293" d="M135.462,220.94a2.222,2.222,0,0,1-.618-.336c-.384-.237-.92-.61-1.567-1.093a38.07,38.07,0,0,1-4.686-4.211,55.337,55.337,0,0,1-4.041-4.829,13.971,13.971,0,0,1-1.464-2.157,16.922,16.922,0,0,1,1.708,1.965c1.023,1.237,2.437,2.944,4.115,4.719a52.481,52.481,0,0,0,4.561,4.27,22.355,22.355,0,0,1,1.993,1.672" transform="translate(-19.452 -32.922)" fill="#1a2e35"/>
    <path id="Trazado_294" data-name="Trazado 294" d="M238.562,269.99a.687.687,0,0,1-.111.168l-.36.464c-.329.4-.777,1.016-1.438,1.741a57.209,57.209,0,0,1-5.907,5.839,79.393,79.393,0,0,1-9.959,7.253,137.664,137.664,0,0,1-13.264,7.179c-4.829,2.306-9.5,4.35-13.72,6.249S185.8,302.53,182.67,304.1s-5.618,2.922-7.313,3.9c-.855.475-1.5.877-1.951,1.129l-.512.287a.659.659,0,0,1-.183.085.691.691,0,0,1,.159-.123l.488-.325c.436-.275,1.068-.7,1.911-1.2,1.672-1.025,4.142-2.423,7.259-4.03s6.89-3.4,11.109-5.31,8.876-3.975,13.7-6.276a143.39,143.39,0,0,0,13.241-7.127,82.4,82.4,0,0,0,9.97-7.146,63.151,63.151,0,0,0,5.981-5.717c.679-.706,1.147-1.305,1.5-1.684l.393-.436c.09-.1.14-.144.146-.139" transform="translate(-27.296 -42.67)" fill="#1a2e35"/>
    <path id="Trazado_295" data-name="Trazado 295" d="M132.483,321.768a.7.7,0,0,1,0-.179c.006-.137.013-.31.024-.528q.045-.734.128-2.052a51.163,51.163,0,0,1,1.541-7.589,125.86,125.86,0,0,1,10.5-25.046l-.025.11c-.541-7.9-1.361-16.725-2.305-26-1.8-17.524-3.689-33.36-5.067-44.82-.694-5.712-1.255-10.342-1.648-13.571-.189-1.584-.336-2.822-.439-3.69-.045-.406-.079-.723-.1-.962a1.759,1.759,0,0,1-.021-.329,1.817,1.817,0,0,1,.065.323c.037.237.086.552.148.956.122.866.3,2.1.52,3.68.425,3.225,1.035,7.85,1.786,13.554,1.457,11.452,3.4,27.284,5.2,44.814.945,9.283,1.75,18.112,2.268,26.023l0,.058-.029.053A129.6,129.6,0,0,0,134.4,311.486a55.056,55.056,0,0,0-1.646,7.54q-.121,1.31-.189,2.04c-.024.217-.041.389-.056.525a.751.751,0,0,1-.029.178" transform="translate(-20.937 -31.152)" fill="#1a2e35"/>
    <path id="Trazado_296" data-name="Trazado 296" d="M289.507,182.464a2.219,2.219,0,0,1,.016.36c0,.258,0,.609,0,1.057-.011.929.016,2.3-.072,4.062-.1,3.528-.461,8.624-1.087,14.9s-1.529,13.733-2.45,22.017-1.836,17.407-2.127,27.015a149.338,149.338,0,0,0,1.863,26.992c1.212,8.244,2.643,15.618,3.749,21.826,1.129,6.2,1.959,11.243,2.428,14.74.253,1.745.4,3.108.5,4.031.046.445.082.794.109,1.051a2.175,2.175,0,0,1,.022.36,2.116,2.116,0,0,1-.066-.354c-.037-.255-.088-.6-.152-1.045-.13-.919-.3-2.278-.578-4.018-.52-3.487-1.4-8.512-2.564-14.709-1.146-6.2-2.608-13.569-3.844-21.823a147.557,147.557,0,0,1-1.9-27.062c.291-9.631,1.225-18.765,2.164-27.049s1.887-15.734,2.544-22,1.074-11.355,1.224-14.877c.114-1.759.115-3.128.154-4.056.017-.448.03-.8.04-1.056a2.241,2.241,0,0,1,.029-.36" transform="translate(-44.772 -28.837)" fill="#1a2e35"/>
    <path id="Trazado_297" data-name="Trazado 297" d="M135.868,200.939a163.084,163.084,0,0,0,7.911,68.851Z" transform="translate(-21.34 -31.757)" fill="#b25e09"/>
    <path id="Trazado_298" data-name="Trazado 298" d="M230,294.9c-10.34,9.5-20.714,17.614-33.432,22.134,9.588.815,19.262-2.852,26.675-8.988s12.686-12.6,16.082-21.607Z" transform="translate(-31.066 -45.269)" fill="#b25e09"/>
    <path id="Trazado_299" data-name="Trazado 299" d="M222.29,304.027c-.081-.09,6.352-5.991,14.366-13.177s14.579-12.942,14.66-12.852-6.351,5.989-14.368,13.178-14.578,12.941-14.658,12.851" transform="translate(-35.131 -43.935)" fill="#1a2e35"/>
    <path id="Trazado_300" data-name="Trazado 300" d="M247.472,96.284a5.275,5.275,0,1,1-5.275-5.275,5.275,5.275,0,0,1,5.275,5.275" transform="translate(-37.444 -14.383)" fill="#375a64"/>
    <path id="Trazado_301" data-name="Trazado 301" d="M277.653,170.469q-2.333-19.343-4.666-38.69L239.6,121.7c-.645,23.036-4.677,48.908-10.472,71.212a92.786,92.786,0,0,0,38.306,3.987q.852-9.346,1.706-18.691,1.25,7.045,2.5,14.088c3.5-1.963,5.57-5.873,6.268-9.828s.22-8.015-.261-12" transform="translate(-36.213 -19.234)" fill="#1a2e35"/>
    <path id="Trazado_302" data-name="Trazado 302" d="M246.436,179.085s.026-.167.1-.487c.077-.336.187-.807.328-1.419l1.287-5.449c1.091-4.737,2.709-11.586,4.282-20.133a217.42,217.42,0,0,0,3.634-30.27A131.083,131.083,0,0,0,252.7,84.276,92.975,92.975,0,0,0,237.219,50.6c-.872-1.137-1.7-2.287-2.634-3.327-.917-1.053-1.773-2.136-2.727-3.1l-1.386-1.473-1.415-1.4c-.924-.94-1.889-1.809-2.815-2.688-3.748-3.469-7.408-6.516-10.681-9.379s-6.2-5.5-8.621-7.969c-.615-.606-1.172-1.23-1.728-1.809s-1.075-1.153-1.553-1.719l-1.387-1.61L201.086,14.6c-.772-.942-1.357-1.854-1.9-2.618s-.956-1.441-1.281-1.993l-.744-1.253c-.166-.283-.241-.434-.241-.434s.1.136.28.412l.78,1.228c.336.545.754,1.216,1.313,1.966s1.144,1.656,1.925,2.587l1.2,1.5,1.4,1.593c.481.561,1,1.13,1.562,1.7s1.117,1.191,1.736,1.793c2.429,2.449,5.362,5.069,8.649,7.908s6.957,5.879,10.725,9.345c.93.878,1.9,1.747,2.831,2.688l1.425,1.4,1.4,1.476c.961.971,1.824,2.057,2.748,3.114.94,1.044,1.775,2.2,2.654,3.339a92.969,92.969,0,0,1,15.58,33.816,130.629,130.629,0,0,1,3.345,37.175,213.9,213.9,0,0,1-3.732,30.31c-1.615,8.548-3.279,15.389-4.421,20.115-.579,2.362-1.042,4.192-1.366,5.431-.16.608-.284,1.075-.371,1.408-.086.317-.141.477-.141.477" transform="translate(-31.122 -1.312)" fill="#375a64"/>
  </g>
</svg>
