<svg xmlns="http://www.w3.org/2000/svg" xmlns:xlink="http://www.w3.org/1999/xlink" width="375" height="111" viewBox="0 0 375 111">
  <defs>
    <clipPath id="clip-path">
      <rect id="Rect치ngulo_94" data-name="Rect치ngulo 94" width="40.022" height="51.418" fill="none"/>
    </clipPath>
  </defs>
  <g id="boton-tel" transform="translate(0 -663)">
    <g id="Uni칩n_18" data-name="Uni칩n 18" transform="translate(2076 873)" fill="#fff3cf">
      <path d="M -1888.000244140625 -100.9915161132812 L -1893.522216796875 -110.5019454956055 L -1893.811401367188 -110.9997940063477 L -1894.387084960938 -110.9997940063477 L -2075.000244140625 -110.9997940063477 L -2075.000244140625 -198.9998016357422 L -1893.806518554688 -198.9998016357422 L -1893.230834960938 -198.9998016357422 L -1892.941772460938 -199.4976501464844 L -1888.000244140625 -208.0081787109375 L -1883.058471679688 -199.4976501464844 L -1882.769287109375 -198.9998016357422 L -1882.193603515625 -198.9998016357422 L -1702 -198.9998016357422 L -1702 -110.9997940063477 L -1881.613037109375 -110.9997940063477 L -1882.188720703125 -110.9997940063477 L -1882.477783203125 -110.5019454956055 L -1888.000244140625 -100.9915161132812 Z" stroke="none"/>
      <path d="M -1888.000122070312 -102.9829635620117 L -1882.764404296875 -111.9997940063477 L -1703 -111.9997940063477 L -1703 -197.9998016357422 L -1883.344970703125 -197.9998016357422 L -1888.000122070312 -206.0167388916016 L -1892.655151367188 -197.9998016357422 L -2074.000244140625 -197.9998016357422 L -2074.000244140625 -111.9997940063477 L -1893.235717773438 -111.9997940063477 L -1888.000122070312 -102.9829635620117 M -1888.000244140625 -99 L -1894.387084960938 -109.9997940063477 L -2076.000244140625 -109.9997940063477 L -2076.000244140625 -199.9998016357422 L -1893.806518554688 -199.9998016357422 L -1888.000244140625 -209.9996948242188 L -1882.193603515625 -199.9998016357422 L -1701 -199.9998016357422 L -1701 -109.9997940063477 L -1881.613037109375 -109.9997940063477 L -1888.000244140625 -99 Z" stroke="none" fill="#e96247"/>
    </g>
    <g id="Grupo_113" data-name="Grupo 113" transform="translate(167 693)">
      <g id="Grupo_65" data-name="Grupo 65" transform="translate(0)" clip-path="url(#clip-path)">
        <path id="Trazado_175" data-name="Trazado 175" d="M.058,269.4h40a12.272,12.272,0,0,0-1.691-6.037H1.749A12.294,12.294,0,0,0,.058,269.4" transform="translate(-0.049 -224.191)" fill="#3d3d3d"/>
        <path id="Trazado_176" data-name="Trazado 176" d="M.008,303.952l0,.086L0,304.151v6.011H40.022v-6.011l-.007-.113,0-.086Z" transform="translate(0 -258.744)" fill="#e96247"/>
        <path id="Trazado_177" data-name="Trazado 177" d="M38.293,222.075c-.307-.024-.615-.046-.928-.046H34a4.266,4.266,0,0,1-8.532,0h-3.36c-.312,0-.621.022-.927.046a12.384,12.384,0,0,0-9.708,6.015l-.049.086H48.05L48,228.09a12.38,12.38,0,0,0-9.707-6.015" transform="translate(-9.728 -189.005)" fill="#e96247"/>
        <path id="Trazado_178" data-name="Trazado 178" d="M105.882,222.029h-.029a4.266,4.266,0,0,0,8.533,0h-.029a14.51,14.51,0,0,1-8.474,0" transform="translate(-90.109 -189.005)" fill="#fff"/>
        <path id="Trazado_179" data-name="Trazado 179" d="M17.795,19.181V20.26A3.418,3.418,0,0,0,21.274,23.6h.2a13.962,13.962,0,0,0,9.444,9.419,14.513,14.513,0,0,0,8.474,0A13.953,13.953,0,0,0,48.838,23.6h.206a3.417,3.417,0,0,0,3.477-3.345V19.181a3.379,3.379,0,0,0-2.736-3.26,12.631,12.631,0,0,0,.094-1.464l-.007-.14a8.687,8.687,0,0,0-.056-1.114v0A13.119,13.119,0,0,0,47.58,7.016a13.3,13.3,0,0,0-2.226-2.493A13.137,13.137,0,0,0,37,1.268l-.163-.127a.509.509,0,0,0-.391-.178.8.8,0,0,0-.543.289h-.045C35.083.477,34.5,0,34,0h0a11.941,11.941,0,0,0-3.413,1.361c-.158.119-.336.271-.524.438a13.2,13.2,0,0,0-9.458,12.658c0,.092.007.181.009.271a10.539,10.539,0,0,0,.045,1.193,3.364,3.364,0,0,0-2.865,3.26m31.622-1.312a1.375,1.375,0,0,1,1.059,1.312V20.26a1.394,1.394,0,0,1-1.228,1.357A13.049,13.049,0,0,0,49.356,20a12.184,12.184,0,0,0-.115-1.557c.061-.192.122-.383.176-.578m-26.261.391c.043-.265.1-.524.16-.782A17.652,17.652,0,0,0,27.934,13s13.49,3.162,18.4,3.523c.142.011.275.017.4.019a11.425,11.425,0,0,1,.419,1.721,10.521,10.521,0,0,1,.077,3,11.061,11.061,0,0,1-.43,2.053,12.288,12.288,0,0,1-23.3,0,10.752,10.752,0,0,1-.353-5.051m-3.315.921a1.385,1.385,0,0,1,1.2-1.344c0,.263.012.521.018.782a11.388,11.388,0,0,0-.1,1.385,12.963,12.963,0,0,0,.109,1.612,1.394,1.394,0,0,1-1.228-1.357Z" transform="translate(-15.148 0)" fill="#e96247"/>
        <path id="Trazado_180" data-name="Trazado 180" d="M79.089,119.434c0-1.675-2.2-3.033-4.91-3.033-.167,0-.334.006-.5.016l-5.851-.016H61.415c-2.712,0-4.911,1.359-4.911,3.033s2.2,3.033,4.911,3.033a7.193,7.193,0,0,0,2.76-.524h0a5.091,5.091,0,0,0,.768-.4l3.019-1.581,2.637,1.549v0a6.6,6.6,0,0,0,3.58.962c2.711,0,4.91-1.357,4.91-3.033m-17.675,1.444c-2.061,0-3.322-.935-3.322-1.444s1.261-1.445,3.322-1.445,3.32.935,3.32,1.445-1.261,1.444-3.32,1.444m9.444-1.444c0-.51,1.261-1.445,3.322-1.445s3.322.935,3.322,1.445-1.261,1.444-3.322,1.444-3.322-.935-3.322-1.444" transform="translate(-48.1 -99.088)" fill="#3d3d3d"/>
      </g>
    </g>
  </g>
</svg>
