<svg xmlns="http://www.w3.org/2000/svg" xmlns:xlink="http://www.w3.org/1999/xlink" width="536.495" height="148.03" viewBox="0 0 536.495 148.03">
  <defs>
    <filter id="Uni贸n_5" x="0" y="0" width="536.495" height="148.03" filterUnits="userSpaceOnUse">
      <feOffset dy="8" input="SourceAlpha"/>
      <feGaussianBlur stdDeviation="3" result="blur"/>
      <feFlood flood-opacity="0.161"/>
      <feComposite operator="in" in2="blur"/>
      <feComposite in="SourceGraphic"/>
    </filter>
  </defs>
  <g transform="matrix(1, 0, 0, 1, 0, 0)" filter="url(#Uni贸n_5)">
    <g id="Uni贸n_5-2" data-name="Uni贸n 5" transform="translate(9 1)" fill="#f9c931">
      <path d="M 491.4884338378906 129.0298614501953 L 25.37990379333496 129.0298614501953 L 25.37990379333496 79.53999328613281 L 25.37990379333496 78.96072387695312 L 24.8774356842041 78.67252349853516 L 2.010128021240234 65.55763244628906 L 24.8774356842041 52.44212341308594 L 25.37990379333496 52.15392303466797 L 25.37990379333496 51.57465744018555 L 25.37990379333496 0.9999897480010986 L 491.4884338378906 0.9999897480010986 L 491.4884338378906 50.64165496826172 L 491.4884338378906 51.22092437744141 L 491.9909057617188 51.50912475585938 L 516.4847412109375 65.55763244628906 L 491.9909057617188 79.60545349121094 L 491.4884338378906 79.89365386962891 L 491.4884338378906 80.47292327880859 L 491.4884338378906 129.0298614501953 Z" stroke="none"/>
      <path d="M 490.4884338378906 128.0298614501953 L 490.4884338378906 79.31439208984375 L 514.474853515625 65.55760192871094 L 490.4884338378906 51.80018997192383 L 490.4884338378906 1.999989748001099 L 26.37990379333496 1.999989748001099 L 26.37990379333496 52.73318862915039 L 4.020061492919922 65.55760192871094 L 26.37990379333496 78.38145446777344 L 26.37990379333496 128.0298614501953 L 490.4884338378906 128.0298614501953 M 492.4884338378906 130.0298614501953 L 24.37990379333496 130.0298614501953 L 24.37990379333496 79.53999328613281 L 0.0001031901047099382 65.55765533447266 L 24.37990379333496 51.57465744018555 L 24.37990379333496 -1.023762979457388e-05 L 492.4884338378906 -1.023762979457388e-05 L 492.4884338378906 50.64165496826172 L 518.4947509765625 65.55765533447266 L 492.4884338378906 80.47292327880859 L 492.4884338378906 130.0298614501953 Z" stroke="none" fill="red"/>
    </g>
  </g>
</svg>
