<svg xmlns="http://www.w3.org/2000/svg" width="1555.143" height="55.547" viewBox="0 0 1555.143 55.547">
  <g id="Grupo_56" data-name="Grupo 56" transform="translate(-394.857 -105)">
    <text id="Da_clic_en_el_icono_de_cada_Diferencia_para_conocer_en_qué_se_distinguen_el_Lavado_de_Dinero_del_Financiamiento_al_Terrorismo._" data-name="Da clic en el icono de cada Diferencia para conocer en qué se distinguen el Lavado de Dinero del Financiamiento al Terrorismo.
" transform="translate(467 117)" fill="#3d3d3d" font-size="22" font-family="Poppins-SemiBold, Poppins" font-weight="600"><tspan x="0" y="23">Da clic en el icono de cada Diferencia para conocer en qué se distinguen el Lavado de Dinero del Financiamiento al Terrorismo.</tspan></text>
    <g id="Grupo_55" data-name="Grupo 55" transform="translate(288.561 -1032.479)">
      <path id="Trazado_115" data-name="Trazado 115" d="M27.773,74.683A27.773,27.773,0,1,1,55.546,46.909,27.8,27.8,0,0,1,27.773,74.683" transform="translate(106.296 1118.344)" fill="#fff"/>
      <path id="Trazado_116" data-name="Trazado 116" d="M32.8,74.807A22.866,22.866,0,1,1,55.669,51.941,22.892,22.892,0,0,1,32.8,74.807" transform="translate(101.265 1113.312)" fill="#b4dade"/>
      <path id="Trazado_117" data-name="Trazado 117" d="M60.794,52.727l.46.238L61,53.458l-.256.493-.164-.085-.3-.154a1.381,1.381,0,0,0-1.859.59L56.7,57.633l-.765,1.476-.493-.255-.493-.256,2.493-4.808a2.493,2.493,0,0,1,3.356-1.064" transform="translate(78.483 1101.481)" fill="#4d73aa"/>
      <path id="Trazado_118" data-name="Trazado 118" d="M30.8,70.683c-.33-1.726-.741-3.874,1.878-8.925l3.782-7.293a2.4,2.4,0,0,1,1.286-1.123,2.074,2.074,0,0,1,1.672.064l-.256.494-.255.491a.966.966,0,0,0-.774-.009,1.278,1.278,0,0,0-.688.594l-3.781,7.293c-2.331,4.494-2.1,6.464-1.814,7.989.013.073.027.145.041.216.059.309.115.6.151.905a.556.556,0,0,1-.058.321l-1.242,2.4-.492-.256-.493-.255,1.161-2.24c-.031-.213-.073-.432-.117-.661" transform="translate(91.231 1101.101)" fill="#4d73aa"/>
      <path id="Trazado_119" data-name="Trazado 119" d="M51.667,52.527l.773.4-.511.985-.773-.4c-.47-.244-1.265.2-1.537.729L47.592,58.15l-.985-.511,2.027-3.908a2.449,2.449,0,0,1,3.034-1.2" transform="translate(82.703 1101.536)" fill="#4d73aa"/>
      <path id="Trazado_120" data-name="Trazado 120" d="M59.139,68.277a12.255,12.255,0,0,1-6.977,4.729L51.128,75l-.985-.511L51.3,72.255a.574.574,0,0,1,.4-.291c2.9-.508,5.552-2.593,7.879-6.2L61.3,63.093a2.819,2.819,0,0,0,.247-2.044,2.492,2.492,0,0,0-1.132-1.362l-1.506,3.141-1-.48,7.11-14.828a1.026,1.026,0,0,0-.456-1.354l-.511-.265a1.03,1.03,0,0,0-1.388.439L57.322,56.65l-.492-.256-.493-.255,5.346-10.31a2.141,2.141,0,0,1,2.883-.914l.511.265A2.132,2.132,0,0,1,66.025,48v0l-.006.013-5.071,10.7a3.582,3.582,0,0,1,1.665,2.014,3.176,3.176,0,0,1,.1.419,3.8,3.8,0,0,1-.028,1.334" transform="translate(80.913 1105.415)" fill="#4d73aa"/>
    </g>
  </g>
</svg>
