<svg xmlns="http://www.w3.org/2000/svg" width="57.597" height="57.598" viewBox="0 0 57.597 57.598">
  <g id="Grupo_70" data-name="Grupo 70" transform="translate(-106.296 -1137.48)">
    <path id="Trazado_115" data-name="Trazado 115" d="M28.8,76.734a28.8,28.8,0,1,1,28.8-28.8,28.831,28.831,0,0,1-28.8,28.8" transform="translate(106.296 1118.344)" fill="#fff"/>
    <path id="Trazado_116" data-name="Trazado 116" d="M33.648,76.5a23.71,23.71,0,1,1,23.71-23.711A23.737,23.737,0,0,1,33.648,76.5" transform="translate(101.447 1113.493)" fill="#b4dade"/>
    <path id="Trazado_117" data-name="Trazado 117" d="M61.01,52.737l.477.247-.265.51-.265.511-.17-.088-.307-.159a1.432,1.432,0,0,0-1.928.611l-1.792,3.454-.794,1.531-.511-.265-.511-.265L57.53,53.84a2.585,2.585,0,0,1,3.48-1.1" transform="translate(79.485 1102.089)" fill="#4d73aa"/>
    <path id="Trazado_118" data-name="Trazado 118" d="M30.843,71.328c-.342-1.79-.768-4.017,1.947-9.254l3.922-7.562a2.487,2.487,0,0,1,1.334-1.164,2.151,2.151,0,0,1,1.734.067l-.265.512-.265.509a1,1,0,0,0-.8-.009,1.325,1.325,0,0,0-.713.615L33.813,62.6c-2.417,4.66-2.177,6.7-1.881,8.284.014.076.028.151.042.224.061.321.119.623.156.939a.576.576,0,0,1-.06.333l-1.288,2.484-.51-.265-.511-.265,1.2-2.323c-.032-.221-.076-.448-.121-.686" transform="translate(91.774 1101.723)" fill="#4d73aa"/>
    <path id="Trazado_119" data-name="Trazado 119" d="M51.854,52.534l.8.416-.53,1.021-.8-.416c-.487-.253-1.312.211-1.594.756l-2.1,4.053-1.021-.53,2.1-4.053a2.539,2.539,0,0,1,3.146-1.247" transform="translate(83.553 1102.141)" fill="#4d73aa"/>
    <path id="Trazado_120" data-name="Trazado 120" d="M59.472,69.149a12.708,12.708,0,0,1-7.235,4.9L51.165,76.12l-1.021-.53,1.2-2.316a.595.595,0,0,1,.412-.3c3.008-.526,5.757-2.689,8.17-6.428l1.79-2.771a2.923,2.923,0,0,0,.257-2.12A2.584,2.584,0,0,0,60.8,60.241L59.237,63.5,58.2,63l7.373-15.375a1.064,1.064,0,0,0-.473-1.4l-.529-.274a1.068,1.068,0,0,0-1.439.456L57.587,57.092l-.51-.265-.511-.265,5.544-10.691a2.22,2.22,0,0,1,2.99-.948l.53.274a2.211,2.211,0,0,1,.983,2.92v0l-.007.014L61.346,59.225a3.714,3.714,0,0,1,1.726,2.089,3.3,3.3,0,0,1,.1.435,3.937,3.937,0,0,1-.029,1.383" transform="translate(81.828 1105.881)" fill="#4d73aa"/>
  </g>
</svg>
