<svg xmlns="http://www.w3.org/2000/svg" width="116.201" height="77.862" viewBox="0 0 116.201 77.862">
  <g id="Grupo_58" data-name="Grupo 58" transform="translate(-939 -331)">
    <path id="Trazado_267" data-name="Trazado 267" d="M.068,16.229H26.881c0,1.8,0,3.423,0,5.046-.01,11.159.027,22.317-.058,33.474-.023,3.079.8,5.008,4.329,4.985s4.411-2.181,4.4-5.085C35.5,43.5,35.4,32.341,35.33,21.188c-.01-1.527,0-3.056,0-4.842,1.529-.118,2.666-.133,3.777-.307,3.071-.478,4.138.828,4.1,3.853-.144,11.413-.4,22.834-.09,34.236.246,9.034-5.473,13.1-12.43,13.181-7.092.078-14.308.1-21.253-1.107C3.967,65.253.29,60.869.156,55.079-.133,42.273.068,29.456.068,16.229" transform="translate(939 341.522)"/>
    <path id="Trazado_268" data-name="Trazado 268" d="M47.316,16.111H84.972v6.706c-3.1,0-5.926.093-8.747-.03-2.025-.088-2.88.765-2.85,2.7.008.52-.018,1.039-.013,1.557.035,3.493-1.212,7.976.5,10.181,1.5,1.937,6.315,1.32,10,1.881v5.408H73.252V67.228H47.316Z" transform="translate(970.229 341.634)"/>
    <rect id="Rectángulo_111" data-name="Rectángulo 111" width="26.094" height="51.089" transform="translate(987.333 357.773)"/>
    <path id="Trazado_269" data-name="Trazado 269" d="M41.843,23.511c-6.886-.06-11.8-5.008-11.672-11.75A12.049,12.049,0,0,1,41.841,0a12.221,12.221,0,0,1,12.1,12.151c-.01,6.594-5.153,11.419-12.1,11.36" transform="translate(958.912 331)"/>
  </g>
</svg>
