<svg xmlns="http://www.w3.org/2000/svg" xmlns:xlink="http://www.w3.org/1999/xlink" width="1918.771" height="226.38" viewBox="0 0 1918.771 226.38">
  <defs>
    <clipPath id="clip-path">
      <rect id="Rectángulo_31" data-name="Rectángulo 31" width="1918.771" height="226.38" fill="none"/>
    </clipPath>
  </defs>
  <g id="Grupo_25" data-name="Grupo 25" clip-path="url(#clip-path)">
    <path id="Trazado_88" data-name="Trazado 88" d="M1303.114,74.531q-34.236,6.431-68.463,12.861c-3.906,47.124,29.162,87.3,25.257,134.429q34.226-6.432,68.458-12.863c3.9-47.126-29.163-87.307-25.252-134.427" fill="#7fb4ba" fill-rule="evenodd"/>
    <path id="Trazado_89" data-name="Trazado 89" d="M1315.739,141.745l-68.46,12.86c7.291,21.828,14.58,43.652,12.626,67.213l68.461-12.859c1.951-23.567-5.338-45.388-12.627-67.214" fill="#71a5a8" fill-rule="evenodd"/>
    <path id="Trazado_90" data-name="Trazado 90" d="M1258.4,152.615c4.259,12.478,17.625,20.742,30.415,18.336,12.876-2.414,20.314-14.589,16.054-27.067s-17.622-20.742-30.415-18.338c-12.874,2.417-20.32,14.581-16.054,27.069" fill="#fff" fill-rule="evenodd"/>
    <path id="Trazado_91" data-name="Trazado 91" d="M1304.868,143.884c-.012-.029-.023-.056-.035-.088l-46.463,8.726a.858.858,0,0,0,.028.093c4.262,12.476,17.627,20.742,30.415,18.336,12.876-2.415,20.316-14.592,16.055-27.067" fill="#f9f9f9" fill-rule="evenodd"/>
    <path id="Trazado_92" data-name="Trazado 92" d="M1271.181,151.406c3.141-.586,6.27-1.173,9.41-1.769a9.026,9.026,0,0,1-.452,3.817,3.513,3.513,0,0,1-2.522,1.4,5.844,5.844,0,0,1-6.436-3.45m12.1-4.849a5.51,5.51,0,0,1,.415-2.882,3.089,3.089,0,0,1,2.454-1.762c2.448-.462,4.346.7,5.622,3.051q-4.247.792-8.491,1.593m-.14,9.395c.777-1.291,1.027-3.117.5-6.886q4.426-.829,8.844-1.663c.492,2.484-.362,3.85-2.481,4.43.412,1.236.81,2.44,1.216,3.681,3.809-1.179,5.192-3.7,3.941-8.611.9-.17,1.8-.342,2.7-.506a13.359,13.359,0,0,1-.754-2.436q-1.347.251-2.694.505a10.173,10.173,0,0,0-4.02-4.924,7.565,7.565,0,0,0-5.7-1.249c-3.67.685-5.132,3.81-4.443,8.839q-4.911.921-9.817,1.841c-.411-2.51.762-4.449,3.584-5.26-.409-1.231-.834-2.588-1.23-3.815-4.521,1.227-6.168,4.63-5.024,9.578-.895.163-1.786.333-2.676.5a12.871,12.871,0,0,0,.751,2.438c.906-.169,1.808-.338,2.715-.511a10.882,10.882,0,0,0,4.425,5.49,8.731,8.731,0,0,0,6.076,1.159,5.667,5.667,0,0,0,4.092-2.6" fill="#e9b540" fill-rule="evenodd"/>
    <rect id="Rectángulo_22" data-name="Rectángulo 22" width="14.064" height="90.523" transform="translate(1281.332 10.963) rotate(-1.12)" fill="#f1c40f"/>
    <path id="Trazado_93" data-name="Trazado 93" d="M953.713,79.33C554.134,79.33,4.161,58.674,0,58.469V53.783C4.155,53.99,554.838,74.92,953.713,74.92c398.937,0,960.737-19.236,965.058-19.427v4.5c-4.325.191-565.51,19.337-965.058,19.337" fill="#d6ccc0"/>
    <rect id="Rectángulo_23" data-name="Rectángulo 23" width="14.061" height="90.523" transform="translate(1467.69 9.549) rotate(-18.885)" fill="#e9b540"/>
    <path id="Trazado_94" data-name="Trazado 94" d="M1539.407,61.2q-33.993,7.6-67.98,15.19c-2.3,47.232,32.124,86.256,29.835,133.489q33.983-7.6,67.979-15.2c2.291-47.23-32.132-86.256-29.834-133.482" fill="#7fb4ba" fill-rule="evenodd"/>
    <path id="Trazado_95" data-name="Trazado 95" d="M1554.322,127.941l-67.981,15.193c8.035,21.564,16.065,43.128,14.918,66.742q33.987-7.595,67.982-15.194c1.144-23.613-6.888-45.177-14.919-66.741" fill="#71a5a8" fill-rule="evenodd"/>
    <path id="Trazado_96" data-name="Trazado 96" d="M1497.385,140.765c4.684,12.325,18.324,20.13,31.024,17.288,12.789-2.857,19.8-15.276,15.122-27.6s-18.322-20.131-31.026-17.29c-12.782,2.859-19.809,15.265-15.12,27.6" fill="#fff" fill-rule="evenodd"/>
    <path id="Trazado_97" data-name="Trazado 97" d="M1543.53,130.451c-.013-.031-.027-.06-.039-.091l-46.137,10.312c.009.032.02.06.032.091,4.684,12.325,18.324,20.131,31.023,17.289,12.788-2.858,19.806-15.276,15.121-27.6" fill="#f9f9f9" fill-rule="evenodd"/>
    <path id="Trazado_98" data-name="Trazado 98" d="M1510.12,139.119l9.345-2.087a9.025,9.025,0,0,1-.321,3.829,3.541,3.541,0,0,1-2.474,1.488,5.847,5.847,0,0,1-6.55-3.23m11.927-5.259a5.511,5.511,0,0,1,.316-2.891,3.11,3.11,0,0,1,2.393-1.854c2.433-.54,4.368.561,5.723,2.861q-4.218.942-8.432,1.884m.183,9.4c.732-1.322.916-3.153.266-6.9q4.4-.987,8.786-1.967c.574,2.468-.232,3.863-2.332,4.51.456,1.227.9,2.416,1.342,3.64,3.767-1.309,5.063-3.872,3.644-8.74.891-.2,1.787-.4,2.679-.6a12.95,12.95,0,0,1-.837-2.408l-2.677.6a10.18,10.18,0,0,0-4.185-4.785,7.574,7.574,0,0,0-5.746-1.054c-3.644.814-5,3.984-4.138,8.986q-4.876,1.083-9.747,2.176c-.494-2.5.607-4.474,3.4-5.381-.45-1.215-.92-2.554-1.358-3.768-4.478,1.381-6.008,4.842-4.7,9.741q-1.334.294-2.657.6a12.92,12.92,0,0,0,.833,2.406c.9-.2,1.8-.4,2.7-.6a10.877,10.877,0,0,0,4.608,5.335,8.761,8.761,0,0,0,6.114.955,5.677,5.677,0,0,0,4-2.738" fill="#e9b540" fill-rule="evenodd"/>
    <rect id="Rectángulo_24" data-name="Rectángulo 24" width="14.062" height="90.522" transform="translate(1473.611 7.523) rotate(-18.896)" fill="#f1c40f"/>
    <rect id="Rectángulo_25" data-name="Rectángulo 25" width="90.524" height="14.061" transform="translate(843.249 89.941) rotate(-83.495)" fill="#e9b540"/>
    <path id="Trazado_99" data-name="Trazado 99" d="M896.143,77.417q-33.968-7.716-67.926-15.43c-22.33,41.678-7.97,91.7-30.3,133.382q33.958,7.707,67.926,15.427c22.326-41.686,7.969-91.7,30.3-133.379" fill="#7fb4ba" fill-rule="evenodd"/>
    <path id="Trazado_100" data-name="Trazado 100" d="M880.994,144.1l-67.927-15.43c-1.992,22.925-3.984,45.853-15.148,66.692q33.961,7.71,67.927,15.429C877.01,189.954,879,167.027,880.994,144.1" fill="#71a5a8" fill-rule="evenodd"/>
    <path id="Trazado_101" data-name="Trazado 101" d="M824.061,131.27c-1.056,13.144,7.921,26.042,20.611,28.925,12.777,2.9,24.442-5.308,25.5-18.45s-7.919-26.041-20.613-28.925c-12.772-2.9-24.442,5.3-25.5,18.45" fill="#fff" fill-rule="evenodd"/>
    <path id="Trazado_102" data-name="Trazado 102" d="M870.17,141.745c0-.033,0-.066,0-.1l-46.1-10.47c0,.032-.008.063-.009.1-1.055,13.143,7.921,26.042,20.611,28.925,12.775,2.9,24.444-5.312,25.5-18.451" fill="#f9f9f9" fill-rule="evenodd"/>
    <path id="Trazado_103" data-name="Trazado 103" d="M836.27,135.247c3.115.71,6.219,1.415,9.335,2.121a8.94,8.94,0,0,1-1.932,3.321,3.505,3.505,0,0,1-2.871.282,5.844,5.844,0,0,1-4.532-5.724m13.027.364a5.548,5.548,0,0,1,1.528-2.48,3.1,3.1,0,0,1,2.956-.639c2.428.547,3.705,2.374,3.943,5.037q-4.212-.962-8.427-1.918m-3.864,8.566c1.227-.88,2.184-2.455,3.2-6.121q4.392,1,8.777,2c-.539,2.473-1.864,3.387-4.041,3.075-.112,1.3-.227,2.564-.349,3.864,3.967.43,6.237-1.331,7.042-6.334.892.2,1.787.4,2.676.606a13.286,13.286,0,0,1,.278-2.532q-1.338-.311-2.674-.612A10.172,10.172,0,0,0,858.613,132a7.569,7.569,0,0,0-4.734-3.416c-3.641-.827-6.224,1.456-7.594,6.341q-4.87-1.105-9.738-2.213c.62-2.467,2.467-3.778,5.38-3.4.114-1.295.264-2.7.388-3.988-4.636-.672-7.5,1.8-8.419,6.787-.887-.2-1.772-.406-2.656-.6a12.523,12.523,0,0,0-.277,2.532l2.692.611a10.856,10.856,0,0,0,1.878,6.8,8.749,8.749,0,0,0,5.111,3.481,5.674,5.674,0,0,0,4.789-.755" fill="#e9b540" fill-rule="evenodd"/>
    <rect id="Rectángulo_26" data-name="Rectángulo 26" width="90.522" height="14.062" transform="matrix(0.113, -0.994, 0.994, 0.113, 849.487, 90.652)" fill="#f1c40f"/>
    <rect id="Rectángulo_27" data-name="Rectángulo 27" width="90.52" height="14.06" transform="matrix(0.009, -1, 1, 0.009, 690.189, 93.988)" fill="#e9b540"/>
    <path id="Trazado_104" data-name="Trazado 104" d="M717.229,67.7q-34.4,5.436-68.8,10.872c-5.274,46.991,26.615,88.107,21.348,135.105q34.4-5.443,68.8-10.877c5.267-46.994-26.622-88.112-21.348-135.1" fill="#7fb4ba" fill-rule="evenodd"/>
    <path id="Trazado_105" data-name="Trazado 105" d="M727.9,135.252l-68.8,10.873c6.656,22.027,13.31,44.054,10.674,67.551q34.4-5.437,68.805-10.873c2.633-23.5-4.02-45.524-10.676-67.551" fill="#71a5a8" fill-rule="evenodd"/>
    <path id="Trazado_106" data-name="Trazado 106" d="M670.269,144.455c3.9,12.6,17.018,21.244,29.871,19.213,12.942-2.044,20.729-14,16.833-26.593s-17.013-21.243-29.87-19.212c-12.938,2.044-20.735,13.985-16.834,26.592" fill="#fff" fill-rule="evenodd"/>
    <path id="Trazado_107" data-name="Trazado 107" d="M716.974,137.075c-.012-.029-.021-.058-.033-.091l-46.7,7.38c.009.03.016.058.027.091,3.9,12.594,17.017,21.244,29.87,19.214,12.942-2.046,20.73-14,16.833-26.594" fill="#f9f9f9" fill-rule="evenodd"/>
    <path id="Trazado_108" data-name="Trazado 108" d="M683.083,143.617q4.734-.738,9.459-1.491a8.977,8.977,0,0,1-.565,3.8,3.5,3.5,0,0,1-2.559,1.325,5.842,5.842,0,0,1-6.335-3.634m12.235-4.5a5.5,5.5,0,0,1,.5-2.867,3.1,3.1,0,0,1,2.5-1.69c2.461-.393,4.324.828,5.531,3.213q-4.267.669-8.534,1.344m-.411,9.39c.814-1.271,1.116-3.087.7-6.869q4.448-.7,8.888-1.408c.422,2.5-.473,3.839-2.611,4.36.38,1.246.741,2.46,1.11,3.712,3.843-1.066,5.3-3.546,4.189-8.492.9-.144,1.809-.289,2.712-.43a13.1,13.1,0,0,1-.684-2.456l-2.708.429a10.171,10.171,0,0,0-3.876-5.041,7.579,7.579,0,0,0-5.666-1.415c-3.687.581-5.24,3.659-4.7,8.708q-4.935.774-9.865,1.554c-.338-2.518.889-4.423,3.734-5.153-.372-1.239-.759-2.608-1.119-3.848-4.555,1.1-6.3,4.452-5.3,9.429q-1.347.206-2.688.423a12.592,12.592,0,0,0,.679,2.454c.91-.146,1.817-.283,2.727-.426a10.889,10.889,0,0,0,4.266,5.613,8.744,8.744,0,0,0,6.038,1.335,5.681,5.681,0,0,0,4.168-2.479" fill="#e9b540" fill-rule="evenodd"/>
    <rect id="Rectángulo_28" data-name="Rectángulo 28" width="90.522" height="14.063" transform="translate(696.444 94.047) rotate(-89.456)" fill="#f1c40f"/>
    <rect id="Rectángulo_29" data-name="Rectángulo 29" width="14.061" height="90.523" transform="translate(1001.159 32.139) rotate(-7.58)" fill="#e9b540"/>
    <path id="Trazado_109" data-name="Trazado 109" d="M1074.456,90.229q-34.671-3.328-69.339-6.663c-16.844,44.183,3.761,91.965-13.079,136.153q34.663,3.329,69.336,6.661c16.842-44.189-3.762-91.972,13.082-136.151" fill="#7fb4ba" fill-rule="evenodd"/>
    <path id="Trazado_110" data-name="Trazado 110" d="M1067.915,158.3l-69.338-6.663c.941,22.992,1.881,45.983-6.54,68.075q34.665,3.333,69.337,6.663c8.421-22.094,7.481-45.083,6.541-68.075" fill="#71a5a8" fill-rule="evenodd"/>
    <path id="Trazado_111" data-name="Trazado 111" d="M1009.81,152.816c.628,13.172,11.171,24.825,24.125,26.068,13.042,1.255,23.568-8.373,22.943-21.544s-11.168-24.82-24.125-26.066c-13.037-1.252-23.57,8.364-22.943,21.542" fill="#fff" fill-rule="evenodd"/>
    <path id="Trazado_112" data-name="Trazado 112" d="M1056.878,157.34c0-.031-.006-.064-.01-.1l-47.059-4.519c0,.031,0,.06,0,.094.627,13.169,11.17,24.822,24.124,26.065,13.041,1.255,23.57-8.375,22.942-21.544" fill="#f9f9f9" fill-rule="evenodd"/>
    <path id="Trazado_113" data-name="Trazado 113" d="M1022.427,155.207l9.532.92a9.017,9.017,0,0,1-1.5,3.54,3.513,3.513,0,0,1-2.811.643c-3.03-.286-4.723-2.507-5.225-5.1m12.97-1.294a5.5,5.5,0,0,1,1.2-2.653,3.11,3.11,0,0,1,2.848-1.016c2.48.24,3.98,1.888,4.553,4.5l-8.6-.828m-2.744,8.987c1.106-1.026,1.854-2.712,2.4-6.475q4.482.429,8.959.86c-.219,2.524-1.418,3.6-3.617,3.562.054,1.306.1,2.574.146,3.876,3.989-.075,6.016-2.109,6.178-7.177l2.734.263a12.849,12.849,0,0,1-.049-2.551l-2.73-.264a10.184,10.184,0,0,0-2.494-5.844,7.57,7.57,0,0,0-5.132-2.789c-3.717-.358-5.989,2.236-6.724,7.259q-4.971-.481-9.942-.958c.3-2.523,1.968-4.063,4.906-4.058-.052-1.293-.084-2.713-.123-4-4.686-.079-7.213,2.735-7.487,7.8l-2.711-.262a12.733,12.733,0,0,0,.045,2.549c.918.088,1.833.179,2.75.265a10.873,10.873,0,0,0,2.727,6.5,8.748,8.748,0,0,0,5.512,2.8,5.669,5.669,0,0,0,4.654-1.36" fill="#e9b540" fill-rule="evenodd"/>
    <rect id="Rectángulo_30" data-name="Rectángulo 30" width="14.061" height="90.523" transform="translate(1007.372 31.314) rotate(-7.58)" fill="#f1c40f"/>
  </g>
</svg>
