<svg xmlns="http://www.w3.org/2000/svg" xmlns:xlink="http://www.w3.org/1999/xlink" width="42" height="42" viewBox="0 0 42 42">
  <defs>
    <clipPath id="clip-path">
      <rect id="Rectángulo_82" data-name="Rectángulo 82" width="42" height="42" fill="none"/>
    </clipPath>
  </defs>
  <g id="Grupo_51" data-name="Grupo 51" transform="translate(0 0)">
    <g id="Grupo_50" data-name="Grupo 50" transform="translate(0 0)" clip-path="url(#clip-path)">
      <path id="Trazado_211" data-name="Trazado 211" d="M21,42A21,21,0,1,1,42,21,21.023,21.023,0,0,1,21,42" transform="translate(0 0)" fill="#fff"/>
      <path id="Trazado_212" data-name="Trazado 212" d="M20.912,38.2A17.289,17.289,0,1,1,38.2,20.912,17.309,17.309,0,0,1,20.912,38.2" transform="translate(0.088 0.088)" fill="#b4dade"/>
      <path id="Trazado_213" data-name="Trazado 213" d="M24.449,12.353l.347.18-.193.372-.194.373-.124-.065-.223-.116a1.032,1.032,0,0,0-.795-.068,1.044,1.044,0,0,0-.612.513l-1.306,2.519-.579,1.117-.373-.193-.372-.194,1.885-3.635a1.883,1.883,0,0,1,2.537-.8" transform="translate(0.488 0.296)" fill="#4d73aa"/>
      <path id="Trazado_214" data-name="Trazado 214" d="M11.637,25.635c-.249-1.305-.56-2.93,1.42-6.749l2.86-5.514a1.816,1.816,0,0,1,.972-.849,1.566,1.566,0,0,1,1.264.049l-.193.373-.194.372a.73.73,0,0,0-.585-.007.965.965,0,0,0-.52.45L13.8,19.274c-1.763,3.4-1.588,4.887-1.372,6.04.009.055.02.11.031.164.044.234.086.454.114.684a.423.423,0,0,1-.044.243l-.939,1.811-.372-.194-.373-.193.878-1.694c-.024-.161-.055-.327-.088-.5" transform="translate(0.265 0.303)" fill="#4d73aa"/>
      <path id="Trazado_215" data-name="Trazado 215" d="M20.814,12.244l.585.3-.386.745-.585-.3c-.355-.184-.957.155-1.163.551L17.733,16.5l-.745-.386,1.532-2.955a1.851,1.851,0,0,1,2.294-.91" transform="translate(0.414 0.295)" fill="#4d73aa"/>
      <path id="Trazado_216" data-name="Trazado 216" d="M25.079,27.154A9.269,9.269,0,0,1,19.8,30.73l-.782,1.508-.746-.386.876-1.689a.426.426,0,0,1,.3-.219c2.194-.384,4.2-1.961,5.958-4.687l1.306-2.02a2.13,2.13,0,0,0,.186-1.546,1.884,1.884,0,0,0-.855-1.031l-1.139,2.374-.757-.363,5.376-11.212a.775.775,0,0,0-.344-1.023l-.386-.2a.779.779,0,0,0-1.049.333l-4.043,7.8-.372-.194-.373-.193L27,10.182a1.62,1.62,0,0,1,2.181-.691l.386.2a1.613,1.613,0,0,1,.717,2.13h0l-.005.01-3.834,8.087A2.711,2.711,0,0,1,27.7,21.442a2.3,2.3,0,0,1,.074.317,2.887,2.887,0,0,1-.02,1.009" transform="translate(0.446 0.227)" fill="#4d73aa"/>
    </g>
  </g>
</svg>
