<svg id="Grupo_72" data-name="Grupo 72" xmlns="http://www.w3.org/2000/svg" xmlns:xlink="http://www.w3.org/1999/xlink" width="469.25" height="469.25" viewBox="0 0 469.25 469.25">
  <defs>
    <clipPath id="clip-path">
      <rect id="Rectángulo_108" data-name="Rectángulo 108" width="469.25" height="469.25" fill="none"/>
    </clipPath>
  </defs>
  <g id="Grupo_71" data-name="Grupo 71" clip-path="url(#clip-path)">
    <path id="Trazado_274" data-name="Trazado 274" d="M73.589,231.8A158.2,158.2,0,0,1,350.777,127.522l42.96-39.006A215.851,215.851,0,0,0,231.8,15.458c-119.293,0-216.345,97.048-216.345,216.338A215.524,215.524,0,0,0,73.6,379.191l42.958-39A157.647,157.647,0,0,1,73.589,231.8" transform="translate(2.83 2.83)" fill="#fff"/>
    <path id="Trazado_275" data-name="Trazado 275" d="M222.8,436.826c119.285,0,216.331-97.048,216.331-216.337a215.448,215.448,0,0,0-54.4-143.279l-42.96,39.006A158.206,158.206,0,0,1,107.558,328.88l-42.957,39a215.783,215.783,0,0,0,158.2,68.942" transform="translate(11.828 14.137)" fill="#dcdcdc"/>
    <path id="Trazado_276" data-name="Trazado 276" d="M306.038,214.46A89.881,89.881,0,0,1,151.513,276.9l-50.6,45.946a158.205,158.205,0,0,0,234.22-212.664l-50.6,45.941a89.536,89.536,0,0,1,21.505,58.34" transform="translate(18.477 20.174)" fill="#00663a"/>
    <path id="Trazado_277" data-name="Trazado 277" d="M222.807,64.583A158.211,158.211,0,0,0,107.561,331.192l50.6-45.946A89.878,89.878,0,1,1,291.183,164.468l50.6-45.942A157.828,157.828,0,0,0,222.807,64.583" transform="translate(11.827 11.825)" fill="#0c8f5a"/>
    <path id="Trazado_278" data-name="Trazado 278" d="M171.2,212.229a41.012,41.012,0,0,1,73.183-25.448l36.222-32.888A89.879,89.879,0,1,0,147.588,274.671L183.8,241.789a40.878,40.878,0,0,1-12.6-29.56" transform="translate(22.401 22.401)" fill="#fff"/>
    <path id="Trazado_279" data-name="Trazado 279" d="M208.325,297.22A89.875,89.875,0,0,0,276.7,149.01L240.481,181.9A41.009,41.009,0,0,1,179.9,236.906l-36.215,32.883a89.628,89.628,0,0,0,64.643,27.431" transform="translate(26.308 27.284)" fill="#dcdcdc"/>
    <path id="Trazado_280" data-name="Trazado 280" d="M202.714,243.271a41.007,41.007,0,0,0,32.161-66.463l-60.583,55.008a40.879,40.879,0,0,0,28.422,11.455" transform="translate(31.913 32.373)" fill="#00663a"/>
    <path id="Trazado_281" data-name="Trazado 281" d="M204.664,163.643a41.009,41.009,0,0,0-28.422,70.584l60.583-55.008a40.936,40.936,0,0,0-32.161-15.575" transform="translate(29.963 29.963)" fill="#0c8f5a"/>
    <path id="Trazado_282" data-name="Trazado 282" d="M441.088,131.071a233.442,233.442,0,0,0-40.624-64.312l-6.774,6.15-6.844,6.215a215.448,215.448,0,0,1,54.4,143.278c0,119.288-97.045,216.338-216.331,216.338A215.786,215.786,0,0,1,66.708,369.8l-6.844,6.214-6.771,6.15c1.933,2.075,3.894,4.131,5.908,6.145A234.682,234.682,0,0,0,441.088,131.071" transform="translate(9.721 12.223)" fill="#00663a"/>
    <path id="Trazado_283" data-name="Trazado 283" d="M400.533,68.719A234.615,234.615,0,0,0,62.814,394.384l6.772-6.149,6.843-6.214a215.523,215.523,0,0,1-58.141-147.4c0-119.289,97.052-216.339,216.345-216.339a215.848,215.848,0,0,1,161.933,73.06l6.845-6.215,6.773-6.151q-4.664-5.249-9.652-10.262" transform="translate(0 0)" fill="#0c8f5a"/>
  </g>
</svg>
