<svg xmlns="http://www.w3.org/2000/svg" xmlns:xlink="http://www.w3.org/1999/xlink" width="177.943" height="177.942" viewBox="0 0 177.943 177.942">
  <defs>
    <filter id="Trazado_182" x="0" y="0" width="177.943" height="177.942" filterUnits="userSpaceOnUse">
      <feOffset dy="6" input="SourceAlpha"/>
      <feGaussianBlur stdDeviation="3" result="blur"/>
      <feFlood flood-opacity="0.161"/>
      <feComposite operator="in" in2="blur"/>
      <feComposite in="SourceGraphic"/>
    </filter>
  </defs>
  <g id="circulo3" transform="translate(-1078.357 -236.142)">
    <g transform="matrix(1, 0, 0, 1, 1078.36, 236.14)" filter="url(#Trazado_182)">
      <path id="Trazado_182-2" data-name="Trazado 182" d="M420.371,79.971A79.971,79.971,0,1,0,340.4,159.942a79.971,79.971,0,0,0,79.971-79.971" transform="translate(-251.43 3)" fill="#f9c931"/>
    </g>
    <path id="Trazado_183" data-name="Trazado 183" d="M425.649,93.892A71.328,71.328,0,1,0,354.32,165.22a71.329,71.329,0,0,0,71.329-71.329" transform="translate(813.008 225.437)" fill="#fff"/>
    <path id="Trazado_189" data-name="Trazado 189" d="M75.488,34.1c0,5.893.074,11.787-.017,17.679-.137,8.891-3.936,16.248-9.913,22.573-7.532,7.971-16.887,13.242-26.771,17.663a3.285,3.285,0,0,1-2.4-.031c-9.267-4.161-18.014-9.154-25.27-16.408a49.014,49.014,0,0,1-4.045-4.6C2.679,65.316-.084,59.054,0,51.726.153,39.1.23,26.465.385,13.835c.028-2.267,1.059-2.855,3.989-3.45C10.959,9.047,17.6,7.843,24.036,5.958c3.974-1.164,7.655-3.4,11.377-5.324A3.725,3.725,0,0,1,39.441.556,75.114,75.114,0,0,0,71.633,10.823c2.66.223,3.488,1.113,3.5,3.793.034,6.494.011,12.988.011,19.482h.342m-6.1-17.51a6.593,6.593,0,0,0-.772-.224A83.7,83.7,0,0,1,38.389,6.7a2.57,2.57,0,0,0-1.921.189c-2.631,1.174-5.16,2.594-7.835,3.65A95.143,95.143,0,0,1,7.685,15.789c-.873.131-1.594.192-1.6,1.425q-.091,17.505-.277,35.01a22.106,22.106,0,0,0,4.8,13.711,55.968,55.968,0,0,0,6.592,7.379c5.734,5.334,12.48,9.172,19.543,12.459a2.585,2.585,0,0,0,1.975-.071c3.012-1.5,6.033-3,8.93-4.708C54,77.244,59.863,72.859,64.295,66.828c3.13-4.26,5.213-8.952,5.331-14.309.144-6.553.215-13.11.177-19.665-.032-5.406-.268-10.811-.415-16.265" transform="translate(1129.999 273)" fill="#f9c931"/>
  </g>
</svg>
