<svg xmlns="http://www.w3.org/2000/svg" xmlns:xlink="http://www.w3.org/1999/xlink" width="225" height="225" viewBox="0 0 225 225">
  <defs>
    <filter id="Elipse_7" x="0" y="0" width="225" height="225" filterUnits="userSpaceOnUse">
      <feOffset dy="6" input="SourceAlpha"/>
      <feGaussianBlur stdDeviation="3" result="blur"/>
      <feFlood flood-opacity="0.161"/>
      <feComposite operator="in" in2="blur"/>
      <feComposite in="SourceGraphic"/>
    </filter>
  </defs>
  <g id="Grupo_79" data-name="Grupo 79" transform="translate(-1327 -2047)">
    <g transform="matrix(1, 0, 0, 1, 1327, 2047)" filter="url(#Elipse_7)">
      <g id="Elipse_7-2" data-name="Elipse 7" transform="translate(9 3)" fill="#fff" stroke="#0c8f5a" stroke-width="3">
        <circle cx="103.5" cy="103.5" r="103.5" stroke="none"/>
        <circle cx="103.5" cy="103.5" r="102" fill="none"/>
      </g>
    </g>
    <path id="Trazado_221" data-name="Trazado 221" d="M28.361,60.794c1.856,2.068,7.2,4.608,9.11,4.733,1.655.108,7.326.108,9.012,0,1.911-.123,7.255-2.665,9.112-4.733,7-7.8,14.364-33.86,14.949-37.23C72.643,11.481,65.9,2.252,53.836.4c-3.46-.531-20.24-.531-23.7,0C18.069,2.252,11.32,11.481,13.419,23.564c.585,3.37,7.939,29.426,14.943,37.23m.156-36.947a6.283,6.283,0,0,1-4.349,3.34s5.649,2.533,12.145-4.762a8.214,8.214,0,0,1-2.555,4.951s6.989-.718,9.642-11.245l.43-.072a19.345,19.345,0,0,1-1.4,5.656c8.988.116,17.87,3.777,19.951,4.292C61.108,35.086,57.377,53.1,50.849,59.94a21.8,21.8,0,0,1-8.863,2.071,21.8,21.8,0,0,1-8.863-2.071C26.6,53.1,22.89,35.086,21.614,26.007c.994-.246,3.539-1.209,6.9-2.16M83.864,80.927a5.459,5.459,0,0,0-1.513-3.334c-3.669-3.773-8.591-4.73-13.51-5.528-6.086-.989-12.3-1.454-17.725-4.868a3.593,3.593,0,0,0-1.769-.252c-2.368-.026-12.374-.026-14.741,0a3.6,3.6,0,0,0-1.769.252c-5.426,3.414-11.638,3.88-17.725,4.868-4.919.8-9.841,1.755-13.51,5.528A5.463,5.463,0,0,0,.09,80.927C-.05,87.646.043,94.369,0,101.09c-.009,1.342.262,2.071,1.814,2.237,6.062.648,12.1,1.889,18.167,2.047,7.22.187,13.862,1.326,19.349,6.4a17.584,17.584,0,0,0,2.681,1.767,17.159,17.159,0,0,0,2.613-1.767c5.488-5.078,12.129-6.216,19.349-6.4,6.069-.158,12.105-1.4,18.168-2.047,1.551-.166,1.822-.9,1.814-2.237-.043-6.721.05-13.444-.09-20.162m-36.716,24.31c-1.78.989-3.382,2.2-5.137,3.4-1.754-1.2-3.391-2.414-5.171-3.4-1.455-.808-1.523-1.807-1.2-3.2,1.482-6.385,2.826-12.806,4.426-19.16.609-2.42.517-4.443-1.192-6.332a14.965,14.965,0,0,1-1.358-2.041c1.031-1.786,7.927-1.786,8.958,0a15.163,15.163,0,0,1-1.39,2.041c-1.709,1.889-1.8,3.912-1.187,6.332,1.6,6.354,2.951,12.775,4.434,19.16.323,1.392.273,2.39-1.183,3.2M74.481,88.906H58.968V83.735H74.481Zm-33.787-37.6c0,2,0,2.139.267,2.139h2.4c.133,0,.465.052.465-.081V51.434a5.9,5.9,0,0,0,4.863-6.194c0-2.065-1.13-3.929-3.195-5.494-2.232-1.7-3.364-2.53-3.364-3.329,0-.233.116-.5.416-.5.267,0,.858,1.272,1.091,1.272l4.559-.221c.233-.034.364-.143.364-.343a6.114,6.114,0,0,0-4.93-6.138c0-1.965,0-2.16-.268-2.16H40.928c-.134,0-.8.124-.8.291v1.831a5.8,5.8,0,0,0-4.48,5.829,7.107,7.107,0,0,0,3.259,5.728c2.631,1.9,3.507,2.631,3.507,3.5a.67.67,0,0,1-.694.733c-.766,0-1.28-.7-1.513-1.865-.066-.3-.158-.366-.357-.366l-4.225.233c-.166.033-.264.087-.264.254,0,3.93,1.834,6.182,5.331,6.815" transform="translate(1398 2097)" fill="#0c8f5a"/>
  </g>
</svg>
