<svg xmlns="http://www.w3.org/2000/svg" width="149.232" height="150.686" viewBox="0 0 149.232 150.686">
  <g id="icono14" transform="translate(-1472.176 -3084.157)">
    <path id="Trazado_470" data-name="Trazado 470" d="M77.792,108.195c1.953,1.857,3.227,4.529,6.786,4.227,1.152-.1,2.626,1.185,3.63,2.166C94.1,120.349,99.785,126.319,105.753,132c4.147,3.944,5.849,8.243,3.228,13.946a20.474,20.474,0,0,0,2.345.291c8.631.018,17.262.044,25.893,0,5.176-.027,7.512-2.412,7.514-7.615q.019-51.639,0-103.279c0-.867-.079-1.735-.141-3.018H131.668c-2.158,0-4.317.031-6.473-.009-5.184-.1-8.208-3.1-8.246-8.272-.047-6.356-.011-12.713-.011-19.354-1.259-.089-2.3-.227-3.332-.227Q78,4.437,42.4,4.45c-6.056,0-8.269,2.267-8.276,8.4q-.011,9.564,0,19.126c0,1.708.115,3.695-2.25,3.663-2.138-.028-2.118-1.878-2.114-3.512.016-6.964-.049-13.928.026-20.891.073-6.7,4.637-11.2,11.38-11.207Q78.092-.021,115.02,0a11.425,11.425,0,0,1,8.46,3.452q11.131,11.132,22.266,22.26a11.5,11.5,0,0,1,3.478,8.465q0,52.523-.021,105.045c-.009,6.892-4.648,11.439-11.5,11.444q-48.257.039-96.512,0c-6.869-.006-11.325-4.547-11.423-11.474a34.288,34.288,0,0,1,.108-6.162c.155-.917,1.431-1.644,2.2-2.458.676.807,1.822,1.552,1.936,2.432.288,2.22.021,4.5.141,6.755.2,3.665,2.492,6.352,6.044,6.376,16.86.119,33.721.054,51.389.054-1.039-1.12-1.623-1.79-2.249-2.418-4.987-5-10.1-9.887-14.9-15.056-1.325-1.425-1.621-3.76-2.629-5.542s-2.321-3.408-3.645-5.309c-12.337,8.114-25.222,10.385-38.984,5.855A41.449,41.449,0,0,1,6.233,105.392,42.811,42.811,0,0,1,69.719,49.86C84.976,62.1,92.278,86.393,77.792,108.195M43.177,121.566A38.393,38.393,0,1,0,4.483,83.9a38.337,38.337,0,0,0,38.693,37.662m33.112,2.762c6.818,6.846,13.535,13.691,20.38,20.406a5.3,5.3,0,0,0,7.451,0,5.175,5.175,0,0,0,.465-7.406c-6.849-6.981-13.88-13.783-20.83-20.643l-7.467,7.643M121.383,8.447c0,5.5-.142,10.968.128,16.411a3.983,3.983,0,0,0,2.7,2.782c5.518.272,11.057.131,16.514.131L121.383,8.447M74.923,118.413l3.617-3.1-3.421-3.423-3.855,3.476,3.659,3.045" transform="translate(1472.176 3084.157)" fill="#002f87"/>
    <path id="Trazado_471" data-name="Trazado 471" d="M100.56,24.283q9.983,0,19.966,0c5.3.008,6.725,1.472,6.735,6.864,0,2.055.076,4.115-.029,6.164-.159,3.105-1.92,4.943-5.042,4.957q-21.579.094-43.16,0c-3.233-.014-4.993-1.921-5.1-5.206-.079-2.444-.066-4.894,0-7.339.092-3.625,1.818-5.388,5.494-5.422,7.046-.066,14.093-.019,21.14-.021m22.079,4.681H78.589v8.594h44.05Z" transform="translate(1441.775 3074.171)" fill="#002f87"/>
    <path id="Trazado_472" data-name="Trazado 472" d="M178.437,97.327q8.814,0,17.628,0c1.637,0,3.4.083,3.35,2.288-.049,2.184-1.825,2.19-3.45,2.19q-17.628,0-35.257.006c-1.65,0-3.468-.063-3.519-2.145-.057-2.314,1.886-2.344,3.619-2.343q8.814.006,17.628,0" transform="translate(1407.492 3044.107)" fill="#002f87"/>
    <path id="Trazado_473" data-name="Trazado 473" d="M178.3,119.994c5.971,0,11.942.011,17.912-.006,1.578,0,3.133.159,3.2,2.134.07,2.008-1.485,2.269-3.063,2.27q-18.059.006-36.118,0c-1.615,0-3.142-.366-3.071-2.29.071-1.9,1.619-2.134,3.226-2.126,5.97.032,11.941.013,17.912.014" transform="translate(1407.504 3034.784)" fill="#002f87"/>
    <path id="Trazado_474" data-name="Trazado 474" d="M178.125,142.629q8.955,0,17.911,0c1.615,0,3.426,0,3.379,2.229-.046,2.186-1.831,2.159-3.458,2.158q-17.617-.01-35.235.005c-1.637,0-3.471.016-3.536-2.09-.073-2.357,1.9-2.306,3.615-2.306h17.324" transform="translate(1407.493 3025.465)" fill="#002f87"/>
    <path id="Trazado_475" data-name="Trazado 475" d="M168.878,165.114a85.681,85.681,0,0,1,8.785.109c.987.1,1.845,1.456,2.762,2.237-.9.707-1.773,2-2.69,2.028-5.956.185-11.925.2-17.879-.009-.953-.033-1.857-1.466-2.784-2.252,1-.706,1.957-1.916,3.019-2.019,2.9-.282,5.855-.1,8.787-.1" transform="translate(1407.54 3016.237)" fill="#002f87"/>
    <path id="Trazado_476" data-name="Trazado 476" d="M26.756,136.548c3.366-3.369,3.366-3.369,14.887-6.573-.593-1.365-.888-2.869-1.751-3.9-5.825-6.932-7.041-14.948-5.436-23.493.829-4.414,4.717-7.244,9.436-7.427,3.427-.132,6.864-.059,10.3-.025A5.567,5.567,0,0,1,59.48,98.21c.264.506.552,1.213,1,1.376,3.846,1.416,4.18,4.54,4.028,7.946a11.887,11.887,0,0,0,.011,2.057c.9,6.884-2.79,11.976-6.538,17.089a13.473,13.473,0,0,0-1.261,3.231c12.081,3.276,12.081,3.276,14.944,6.86a26.891,26.891,0,0,0,7.028-15.716A29.566,29.566,0,0,0,20.412,111.4c-.148.67-.122,1.512-.525,1.96-.585.65-1.661,1.551-2.213,1.373a3.036,3.036,0,0,1-1.813-2.152,15.186,15.186,0,0,1,.837-4.592,34.115,34.115,0,1,1-.471,17.066,4.853,4.853,0,0,1,.392-3.51c1.2-1.627,3.188-.577,3.76,2.023a28.253,28.253,0,0,0,6.376,12.975m3.765,3.319c.121.281.151.507.28.63,8.774,8.4,27.3,8.806,36.18.709a2.8,2.8,0,0,0,.315-2.63c-1.624-2.94-8.933-4.405-11.843-2.563a10.946,10.946,0,0,1-12.207.28c-3.941-2.33-10.358-.644-12.726,3.575m7.892-26.72a62.5,62.5,0,0,1,2.521,5.954,8.714,8.714,0,0,0,8.424,6.473,8.583,8.583,0,0,0,8.285-6.99,20.647,20.647,0,0,1,.94-2.718c.619-1.635,1.261-3.261,1.893-4.89l-.935-1.085c-2.578.531-5.162,1.038-7.733,1.6-2.359.518-4.68,1.278-7.063,1.6a49.475,49.475,0,0,1-6.333.055m.462-4.39c3.022-.147,6.182.052,9.188-.537,3.9-.763,7.681-2.154,11.692-3.327a10.27,10.27,0,0,0-1.156-1.048c-.762-.56-2.157-.912-2.293-1.56-.623-2.981-2.731-2.741-4.892-2.682-1.858.051-3.719.007-5.579.011-6.067.014-8.178,2.632-6.96,9.142m6.433,21.123c.558,1.308.88,3.012,1.382,3.067a19.748,19.748,0,0,0,5.585-.413,12.8,12.8,0,0,0,.022-2.654Z" transform="translate(1465.65 3049.788)" fill="#002f87"/>
  </g>
</svg>
