<svg xmlns="http://www.w3.org/2000/svg" width="211.21" height="140.583" viewBox="0 0 211.21 140.583">
  <g id="icono8" transform="translate(0)">
    <path id="Trazado_460" data-name="Trazado 460" d="M202.721,23.674c.524,3.349,1,6.551,1.534,9.744.24,1.429.811,2.81,2.586,2.427,1.708-.369,1.751-1.7,1.422-3.225a51.676,51.676,0,0,1-1.067-6.685,11.962,11.962,0,0,1,2.55-9.121,36.62,36.62,0,0,0,4.261-6.9c3.862-7.649,17.731-7.607,21.674.009,1.569,3.03,3.778,5.722,5.494,8.685,1.985,3.428,1.393,7.181.891,10.863-.17,1.25-.814,2.5-.709,3.7.081.938.987,1.8,1.526,2.7.787-.592,2.1-1.063,2.27-1.8.774-3.4,1.23-6.867,1.794-10.273,4.353,1.965,6.171,4.883,5.012,9.546a49.116,49.116,0,0,1-3.824,9.8c-5.892,11.895-6.074,12.764-3.409,25.642l-2.6,1.006c-1.6-8-2.638-15.712-.347-23.508a11.364,11.364,0,0,0,.9-3.381,10.014,10.014,0,0,0-1.217-3.09c-.852.612-2.189,1.051-2.479,1.863a38.954,38.954,0,0,0-2.469,17.834c.431,3.657.895,7.31,1.393,11.362H211.74c.466-3.747.86-7.129,1.311-10.5.832-6.236-.206-12.243-2.115-18.161-.448-1.389-.96-2.764-2.714-2.3-1.963.522-1.679,2.156-1.164,3.558,2.985,8.122,2.39,16.352.857,24.621-.081.437-.241.859-.438,1.543l-2.467-.7.64-.484-1.854-3.786-3.5,2.4.6.82c-7.681-.549-9.5,5.092-11.383,10.667l-.778-.024c-.2-1.384-.735-2.813-.549-4.143.522-3.755,1.265-7.486,2.1-11.185a2.9,2.9,0,0,1,1.79-1.754c4.039-1.078,6.4-3.937,5.956-7.511-.454-3.686-3.258-5.959-7.434-6.013-1.175-.015-2.352-.026-3.527,0-3.713.1-6.336,2.246-6.915,5.635-.575,3.37,1.225,6.246,4.729,7.549.418.155.839.3,1.477.533q-1.028,5.464-2.048,10.886c-1.022,5.4.134,7.985,4.834,10.834a2.846,2.846,0,0,1,1.029.824c2.632,4.556,7.109,5.292,11.7,5.475,4.966.2,9.947.033,14.919.124a6.708,6.708,0,0,1,2.158.866,11.655,11.655,0,0,1-2.248.787,21.357,21.357,0,0,1-2.98.035c-1.53,0-3.106.115-3.059,2.148.043,1.831,1.508,2,2.949,1.995,1.7,0,3.392,0,5.4,0,0,4.035.924,8.132-.27,11.472a29.229,29.229,0,0,0-2,9.2c-.012.436-1.12,1.016-1.812,1.229q-6.35,1.944-12.747,3.731c-2.569.72-4.346,2.09-4.789,4.893a4.994,4.994,0,0,1-.927,1.882c-2.008,2.934-2.05,6.038-.067,8.526a6.682,6.682,0,0,0,7.553,2.162c3.051-1.15,4.624-3.691,4.491-7.261-.014-.351-.041-.7-.076-1.3l11.078-3.2c-.491,2.227-1.5,4.272-1.18,6.077a9.282,9.282,0,0,0,3.126,5.02c2.3,1.909,5.727,1.35,7.966-.689,2.641-2.4,2.821-5.455.263-10.489l11.547,3.206c0,.958-.05,1.835.009,2.705a6.777,6.777,0,1,0,12.489-4.072c-.665-1.133-.9-2.577-1.725-3.544-1.217-1.427-2.588-3.088-4.244-3.706-4.222-1.573-8.62-2.691-12.987-3.843a2.263,2.263,0,0,1-2.009-2.625c.044-2.477.574-5.134-1.86-7.01-.262-.2-.246-.849-.247-1.291-.016-5.51-.01-11.02-.01-16.944,2.572,0,4.979.049,7.383-.011,4.423-.11,8.86-.107,13.262-.489a9.942,9.942,0,0,0,8.1-4.791,4.419,4.419,0,0,1,1.651-1.283c3.772-2.144,5.255-5.1,4.527-9.54-.643-3.917-1.447-7.807-2.213-11.89.791-.31,1.528-.566,2.238-.883a6.7,6.7,0,0,0,3.956-7.3,6.6,6.6,0,0,0-6.1-5.6,42.963,42.963,0,0,0-5.423-.009,6.734,6.734,0,0,0-6.389,6.246,6.446,6.446,0,0,0,5.226,6.923c2.128.332,2.558,1.341,2.825,3.12.5,3.3,1.309,6.563,1.767,9.871a20.342,20.342,0,0,1-.3,4.3l-.666-.024a77.966,77.966,0,0,0-3.877-7.451c-1.678-2.558-4.451-3.221-7.614-3.029-1.74-5.659-2.9-11.222-.138-16.858,1.473-3,3.1-5.931,4.428-9a48.423,48.423,0,0,0,2.85-8.157c1.094-4.707-.1-8.953-4.171-11.772a41.509,41.509,0,0,1-13.2-14.784c-5.279-9.791-22.588-9.808-27.88.138a41.326,41.326,0,0,1-13.243,14.74c-4.175,2.909-5.277,7.453-3.9,12.106,1.324,4.465,3.618,8.633,5.269,13.012,1.354,3.59,2.315,7.326,3.62,10.936.3.84,1.292,1.433,1.965,2.139.658-.808,1.956-1.7,1.86-2.407a40.13,40.13,0,0,0-1.938-8.626c-1.157-3.116-2.953-5.989-4.355-9.02a39.066,39.066,0,0,1-2.243-5.806c-1.471-5.259-.128-8.139,4.846-10.872m8.574,61.793c.737-3.247,1.312-6.194,2.141-9.068a2.561,2.561,0,0,1,2.01-1.182c6.229-.091,12.461-.078,18.691-.011a2.556,2.556,0,0,1,1.966.88,15.848,15.848,0,0,1,1.592,9.382Zm34.974,39.71q-.049.474-.1.948a16.48,16.48,0,0,1-4-.049c-4.283-1.107-8.508-2.438-12.764-3.654-1.781-.509-3.224-.417-3.588,1.93-.082.528-.894.943-1.624,1.66-.874-4.023-1.36-4.306-4.766-3.33-3.994,1.145-7.961,2.4-11.991,3.394a15.53,15.53,0,0,1-4.078-.076l.008-.808c5.1-1.493,10.184-3.028,15.3-4.455a2.748,2.748,0,0,0,2.353-3.088c-.069-1.867-.016-3.737-.016-5.61h7.638a37.044,37.044,0,0,1-.032,4.517c-.345,2.692.847,3.9,3.382,4.547,4.791,1.219,9.517,2.7,14.269,4.074m.42-52.562c2.248-.51,4.846-1.683,6.723.906,1.907,2.63,3.509,5.594,2.193,9-.758,1.965-4.1,3.026-6.7,2.651-.73-4.132-1.44-8.155-2.219-12.562m-46,12.844c-2.563-.295-5.724-.313-6.788-3.426-1.137-3.328.5-6.421,2.688-8.872,1.936-2.173,4.388-1.134,6.348-.421-.756,4.276-1.466,8.3-2.248,12.718M223.318,89.9H226.3v17.674h-2.985ZM189.311,57.3c-.716,0-1.165-.01-1.614,0-1.917.051-3.536-.463-3.511-2.715.023-2.084,1.587-2.6,3.376-2.625.449-.007.9-.026,1.347,0,2.072.109,4.866-.559,4.939,2.626.075,3.259-2.734,2.6-4.537,2.714m71.416,0c-.568,0-.928-.008-1.287,0-1.855.05-3.613-.265-3.672-2.544-.064-2.446,1.769-2.81,3.727-2.8.36,0,.719-.011,1.077,0,2.108.072,4.881-.439,4.856,2.721-.024,3.2-2.842,2.514-4.7,2.621M240.446,73.946c.977.638,2.136.973,2.284,1.562a75.187,75.187,0,0,1,1.56,8.418c.065.493-.769,1.1-1.187,1.661-.388-.561-1.014-1.079-1.125-1.69-.539-2.991-.941-6.007-1.531-9.952m-31.234.5c-.672,3.834-1.287,7.344-1.967,11.221-.574-.239-1.775-.585-1.75-.751.5-3.43,1.109-6.847,1.842-10.235.047-.214,1.287-.17,1.875-.235m12.543,58.568,0-1.185c.968-.711,1.856-1.826,2.923-2.038a2.166,2.166,0,0,1,2.709,2.481,3.659,3.659,0,0,1-2.406,2.515c-1.012.094-2.146-1.126-3.228-1.773M198.627,133q0-.588,0-1.175c.97-.7,1.861-1.811,2.928-2.021a2.122,2.122,0,0,1,2.669,2.478,3.654,3.654,0,0,1-2.371,2.514c-1.022.079-2.144-1.141-3.222-1.8m48.562-3.69,1.206-.028c.732.941,1.873,1.795,2.1,2.846a2.133,2.133,0,0,1-2.429,2.717,3.652,3.652,0,0,1-2.564-2.3c-.116-1,1.069-2.148,1.687-3.232" transform="translate(-180.047 0)" fill="#f9c931"/>
    <path id="Trazado_461" data-name="Trazado 461" d="M226.179,36.779c-.006,6.106,2.373,8.106,8.532,7.691a81.428,81.428,0,0,1,11.067.112c4.6.32,7.436-2.041,7.53-6.659.014-.722.016-1.443,0-2.165-.1-4.478-2.819-6.83-7.338-6.62a95.157,95.157,0,0,1-11.32.084c-5.9-.433-8.465,1.686-8.471,7.556m14.464-3.045c2.174-.178,3.806-.22,5.408-.464,2.525-.385,3.161.9,3.165,3.107.007,3.576-.422,4.188-2.982,4.153-4.318-.057-8.637-.066-12.954,0-2.6.039-3.059-.566-3.049-4.1.007-2.162.564-3.481,3.127-3.182,2.594.3,5.216.355,7.284.485" transform="translate(-194.959 -9.443)" fill="#f9c931"/>
    <path id="Trazado_462" data-name="Trazado 462" d="M113.123,78.566q0-31.24,0-62.48c0-3.754-.031-3.779-3.712-3.779q-52.928,0-105.856,0C.049,12.307,0,12.349,0,15.959Q0,78.44,0,140.921c0,3.606.049,3.651,3.555,3.651q53.056,0,106.114,0c3.336,0,3.448-.106,3.449-3.524q.008-31.24,0-62.48M3.256,40.216H109.833V141.308H3.256ZM109.841,36.7H3.347V15.515H109.841Z" transform="translate(98.086 -3.99)" fill="#f9c931"/>
    <path id="Trazado_463" data-name="Trazado 463" d="M64.611,149.331A40.832,40.832,0,1,0,23.43,109.22a40.9,40.9,0,0,0,41.181,40.111m-.407-3.111a37.719,37.719,0,1,1,37.7-37.561,37.764,37.764,0,0,1-37.7,37.561" transform="translate(90.368 -21.938)" fill="#f9c931"/>
    <path id="Trazado_464" data-name="Trazado 464" d="M124.72,28.823a8.866,8.866,0,0,0,9.034,8.862c5.187-.007,8.968-3.9,8.969-9.233,0-5.044-3.78-8.708-9.07-8.788-5.175-.078-8.9,3.738-8.933,9.16m5.181-4.5,5.138,9.958c-2.921.6-5.093-.308-6.447-2.623-1.384-2.367-1.049-4.785,1.309-7.335m7.9,8.506-5.118-10.053c3.023-.222,5.162.745,6.379,3.258,1.09,2.251.908,4.424-1.262,6.8" transform="translate(-15.798 -6.374)" fill="#f9c931"/>
    <path id="Trazado_465" data-name="Trazado 465" d="M26.587,29.705c.523-.132.925-.12,1.152-.314.574-.487,1.068-1.067,1.595-1.61-.624-.478-1.221-1.323-1.875-1.368-2.387-.166-4.793-.066-7.192-.066-3.343,0-6.692-.109-10.026.063-1.088.056-2.138.848-3.205,1.3L9.38,30.065l.368-.339c.072.147.2.291.206.441.158,4.748.156,4.748,4.847,4.749q4.115,0,8.229,0c3.335-.007,3.515-.184,3.557-3.445.006-.512,0-1.025,0-1.764M13.561,31.688l-.7-.741c.626-.493,1.225-1.365,1.883-1.413a48.725,48.725,0,0,1,7.149,0c.638.047,1.211.957,1.814,1.471l-.5.681Z" transform="translate(177.12 -8.53)" fill="#f9c931"/>
    <path id="Trazado_466" data-name="Trazado 466" d="M69.189,35.227a5.074,5.074,0,0,0,5.05-5.091A5.148,5.148,0,0,0,69.4,25.079a5.325,5.325,0,0,0-5.394,5.088,5.379,5.379,0,0,0,5.181,5.06m-.052-7.9c.933,1.358,1.927,2.176,1.829,2.83-.113.747-1.2,1.348-1.86,2.013-.65-.677-1.714-1.295-1.823-2.05-.094-.645.908-1.45,1.854-2.792" transform="translate(93.715 -8.13)" fill="#f9c931"/>
    <path id="Trazado_467" data-name="Trazado 467" d="M99.909,30.079a5.336,5.336,0,0,0,5.1,5.148,5.073,5.073,0,1,0,.151-10.146,5.336,5.336,0,0,0-5.246,5m5.2,3c-.961-1.38-1.958-2.187-1.9-2.9a2.643,2.643,0,0,1,1.89-1.79c.581-.044,1.7,1.11,1.764,1.8.062.716-.869,1.519-1.758,2.887" transform="translate(33.521 -8.131)" fill="#f9c931"/>
    <path id="Trazado_468" data-name="Trazado 468" d="M87.31,35.228a5.077,5.077,0,0,0,.014-10.146,5.222,5.222,0,0,0-5.23,5.191,5.259,5.259,0,0,0,5.216,4.954M84.389,29.9c1.3-.849,2.134-1.819,2.808-1.717.722.108,1.912,1.376,1.792,1.864a3.115,3.115,0,0,1-2.021,1.967c-.564.107-1.372-1.071-2.579-2.114" transform="translate(63.546 -8.131)" fill="#f9c931"/>
    <path id="Trazado_469" data-name="Trazado 469" d="M39.02,113.94A30.2,30.2,0,1,0,69.544,83.746,30.24,30.24,0,0,0,39.02,113.94m3.113-.017a27.093,27.093,0,1,1,27.04,27.105,27.107,27.107,0,0,1-27.04-27.105" transform="translate(85.421 -27.151)" fill="#f9c931"/>
    <path id="Trazado_470" data-name="Trazado 470" d="M73.386,116.334c-.566-13.24-11-23.641-23.2-23.932-.893-.021-2.461.65-2.584,1.236-.354,1.689,1.171,1.691,2.388,1.809,11.65,1.131,19.16,8.671,20.331,20.226.093.918,1.108,1.743,1.694,2.611l1.375-1.95" transform="translate(105.693 -29.957)" fill="#f9c931"/>
  </g>
</svg>
