<svg id="icon1" xmlns="http://www.w3.org/2000/svg" xmlns:xlink="http://www.w3.org/1999/xlink" width="120" height="157.445" viewBox="0 0 120 157.445">
  <defs>
    <clipPath id="clip-path">
      <rect id="Rectángulo_131" data-name="Rectángulo 131" width="120" height="157.445" fill="#9a9a9b"/>
    </clipPath>
  </defs>
  <g id="Grupo_72" data-name="Grupo 72" clip-path="url(#clip-path)">
    <path id="Trazado_349" data-name="Trazado 349" d="M30.793,67.983c-1.7-.243-3.236-.33-4.7-.7a13.168,13.168,0,0,1-10.1-9.72,12.771,12.771,0,0,1,3.471-13.284,6.409,6.409,0,0,0,2.155-5.348c-.128-3.99-.093-7.988-.018-11.98C21.8,16.29,28.827,9.32,39.5,9.389a9.269,9.269,0,0,0,6.674-2.348A26.939,26.939,0,0,1,66.821.085C71.3.411,75.9-.059,80.268.773a22.143,22.143,0,0,1,17.976,20.65c.367,6.124.074,12.285.235,18.426a5.447,5.447,0,0,0,1.279,3.467c4.477,4.4,6.024,9.537,3.839,15.4S96.832,67.482,90.58,67.73a11.443,11.443,0,0,0-1.309.215c-.216,1.34-.377,2.646-.643,3.93a29.956,29.956,0,0,1-9.773,16.644,5.576,5.576,0,0,0-1.861,3.189c-.466,4.711-.359,4.72,4.191,6.019,5.8,1.657,11.623,3.273,17.411,4.986,12.546,3.715,20.732,13.986,21.236,27.06.288,7.465.134,14.95.064,22.426-.033,3.576-1.777,5.23-5.368,5.232q-54.534.03-109.069,0c-3.58,0-5.321-1.668-5.354-5.245-.069-7.475-.226-14.96.06-22.426.5-13.055,8.758-23.39,21.253-27.044C27.6,100.906,33.807,99.156,40,97.373c3.057-.881,4.733-5.848,2.321-7.852A30.677,30.677,0,0,1,30.793,67.983m24.566,80.095c0-10.351.018-20.465-.047-30.577a2.136,2.136,0,0,0-1.085-1.6A18.162,18.162,0,0,1,44,105.819c-7.314,2.116-14.451,3.935-21.418,6.266-6.426,2.15-11.243,6.708-12.31,13.376-1.179,7.366-.917,14.963-1.291,22.617Zm9.265-.026h45.955c0-6.368.319-12.6-.078-18.783-.527-8.208-4.955-14.158-12.61-16.97-7.073-2.6-14.462-4.334-21.892-6.5-1.979,4.4-4.831,7.832-9.208,9.579-1.77.707-2.214,1.7-2.2,3.443.07,7.37.029,14.741.029,22.112v7.121M52.936,41.266c-4.2,2.6-7.823,4.762-11.349,7.071a3.33,3.33,0,0,0-1.472,2.219c-.094,5.721-.267,11.461.081,17.165A19.753,19.753,0,0,0,58.408,86.09c9.785.735,19.269-5.586,20.784-15.251,1.086-6.927.211-14.163.211-21.563-10.021.611-19.259-1.928-26.467-8.01m-22-1.487c8.732.984,11.96-.886,15.416-8.651,1.737-3.9,5.587-4.659,8.221-1.3C63.712,41.5,76.337,40.442,89.114,39.82c0-5.978.214-11.707-.053-17.413C88.709,14.915,82.94,9.54,75.429,9.362c-3.577-.085-7.162.092-10.736-.05A15.408,15.408,0,0,0,53.386,13.18c-4.273,3.806-8.833,6.184-14.918,5.508A6.8,6.8,0,0,0,31,25.272c-.273,4.776-.065,9.579-.065,14.507m36.623,55.24H52.391c-.02,4.136-.929,8.6,3.564,11.428a7.126,7.126,0,0,0,8.1-.01c4.437-2.845,3.648-7.272,3.5-11.418M30.591,48.491c-2.089,1.193-4.12,1.724-4.97,3.026a5.213,5.213,0,0,0-.036,4.685c.838,1.319,2.863,1.883,5.005,3.149Zm58.816-.009V59.344c2.13-1.254,4.158-1.816,5-3.135a5.212,5.212,0,0,0-.025-4.684c-.847-1.3-2.877-1.838-4.977-3.042" transform="translate(0 0)" fill="#9a9a9b"/>
  </g>
</svg>
