<svg xmlns="http://www.w3.org/2000/svg" width="120.032" height="119.513" viewBox="0 0 120.032 119.513">
  <g id="icon2" transform="translate(-1475.059 -1718.543)">
    <path id="Trazado_350" data-name="Trazado 350" d="M93.427,10.417C94.692,8.609,95.839,6.859,97.1,5.2s2.314-1.529,2.9.472q2.284,7.756,4.352,15.576c.543,2.043-.367,3.375-2.535,3.6-5.362.568-10.739,1.017-16.116,1.436a2.182,2.182,0,0,1-1.78-.671,2.4,2.4,0,0,1,.388-1.9c1.063-1.718,2.253-3.359,3.512-5.2a45.4,45.4,0,0,0-14.412-6.667,50.391,50.391,0,1,0-24.186,97.8c4.5.969,6.3,2.964,5.612,6.2-.647,3.042-3.179,4.137-7.543,3.261C22.662,114.173,3.027,92.866.407,67.4c-2.492-24.231,6.456-43.878,26.78-57.126C48-3.3,69.843-3.2,91.479,9.255c.6.343,1.185.705,1.948,1.162" transform="translate(1475.059 1718.544)" fill="#4d73aa"/>
    <path id="Trazado_351" data-name="Trazado 351" d="M40.184,38.9q0-9.036,0-18.071c0-2.062.675-3.725,2.742-4.444,2.622-.914,5.052,1.029,5.09,4.112.059,4.615.018,9.231.018,13.846,0,5.945.059,11.891-.04,17.834a2.879,2.879,0,0,0,1.837,3.055q14.316,7.273,28.526,14.757a5.794,5.794,0,0,1,2.824,2.836,4.457,4.457,0,0,1-.932,3.756c-.811.812-2.48.892-3.8,1.02-.6.059-1.277-.514-1.9-.836C63.715,71.173,52.9,65.548,42.041,60.006a2.9,2.9,0,0,1-1.9-3.034c.1-6.021.041-12.045.042-18.069" transform="translate(1487.935 1723.728)" fill="#4d73aa"/>
    <path id="Trazado_352" data-name="Trazado 352" d="M93.21,47.056a18.294,18.294,0,0,1-.012,2.1,4.886,4.886,0,0,1-4.53,4.3,4.717,4.717,0,0,1-4.9-3.828,19.115,19.115,0,0,1-.2-4.422,4.819,4.819,0,0,1,4.8-4.761,4.92,4.92,0,0,1,4.855,4.969c.029.544,0,1.091,0,1.636h-.02" transform="translate(1501.851 1731.519)" fill="#4d73aa"/>
    <path id="Trazado_353" data-name="Trazado 353" d="M56.671,82.7c3.093-.028,5.016,1.533,5.479,3.908a4.584,4.584,0,0,1-2.879,5.279,20.494,20.494,0,0,1-5,1.083,4.762,4.762,0,0,1-1.947-9.177A37.719,37.719,0,0,1,56.671,82.7" transform="translate(1490.883 1745.071)" fill="#4d73aa"/>
    <path id="Trazado_354" data-name="Trazado 354" d="M85.858,71.724c-.586,2.854-3.866,7.033-6.208,7.588a4.572,4.572,0,0,1-5-1.695,4.272,4.272,0,0,1-.481-5.035A20.065,20.065,0,0,1,77.5,68.4a3.952,3.952,0,0,1,5.172-.553c1.313.944,2.142,2.561,3.187,3.879" transform="translate(1498.654 1740.073)" fill="#4d73aa"/>
    <path id="Trazado_355" data-name="Trazado 355" d="M75.13,81.933c-.124,3.787-6.254,7.536-9.68,5.921a4.727,4.727,0,0,1-2.627-5.431c.658-2.981,6.011-6.146,8.923-5.275a4.815,4.815,0,0,1,3.384,4.785" transform="translate(1495.171 1743.243)" fill="#4d73aa"/>
    <path id="Trazado_356" data-name="Trazado 356" d="M80.853,61.617a29.327,29.327,0,0,1,2.27-5.261c1.206-1.887,3.309-2.222,5.43-1.417a4.488,4.488,0,0,1,2.924,5.033,19.014,19.014,0,0,1-1.762,5.045,4.407,4.407,0,0,1-5.2,2.2c-2.162-.485-3.612-2.371-3.665-5.6" transform="translate(1500.994 1736.035)" fill="#4d73aa"/>
    <path id="Trazado_357" data-name="Trazado 357" d="M86.877,39.314c-3.8-.044-4.763-2.62-5.679-5.278-1.005-2.91-.692-4.933,1.162-6.378a4.575,4.575,0,0,1,5.654-.295c2,1.263,3.866,6.4,3.106,8.594a4.546,4.546,0,0,1-4.244,3.356" transform="translate(1500.924 1727.052)" fill="#4d73aa"/>
  </g>
</svg>
