<svg xmlns="http://www.w3.org/2000/svg" xmlns:xlink="http://www.w3.org/1999/xlink" width="164.015" height="189.301" viewBox="0 0 164.015 189.301">
  <defs>
    <clipPath id="clip-path">
      <rect id="Rectángulo_234" data-name="Rectángulo 234" width="164.015" height="189.301" fill="#0c8f5a"/>
    </clipPath>
  </defs>
  <g id="icono10" transform="translate(-1441.995 -1190.882)">
    <g id="Grupo_223" data-name="Grupo 223" transform="translate(1441.995 1190.882)">
      <g id="Grupo_222" data-name="Grupo 222" clip-path="url(#clip-path)">
        <path id="Trazado_453" data-name="Trazado 453" d="M31.853,20.359c3.833-3.079,7.6-6.045,11.272-9.114a5.675,5.675,0,0,0,1.236-2.223C46.867,2.937,51.666.326,57.973.039A34.107,34.107,0,0,1,79.24,6.118a10.09,10.09,0,0,0,6.039,1.545c11.268-.921,17.733,7.317,14.006,18.107a7.479,7.479,0,0,1-6.051,5.31c-1.936.352-3.915.469-5.849.827C80.042,33.269,76.52,40.3,80.324,46.68A52.119,52.119,0,0,0,88.052,56.5,59.666,59.666,0,0,1,101.173,76.39c.735,1.824,1.594,3.6,2.4,5.391,2.629,5.831,6.708,8.845,13.545,8.616,9.719-.327,12.06,2.232,12.779,12a26.058,26.058,0,0,0,.449,2.567,15.557,15.557,0,0,0,2.693-.02c8.2-1.557,14.772,1.3,20.058,7.461a143.019,143.019,0,0,1,9.043,11.156,8.849,8.849,0,0,1,.335,10.416c-3.022,4.716-7.311,5.772-11.98,2.66a70.22,70.22,0,0,1-5.692-4.686,18.1,18.1,0,0,0-5.508-3.438c0,1.436-.337,2.974.061,4.29,1.419,4.7,3.4,9.253,4.543,14.011a21.945,21.945,0,0,1-.069,8.565c-.154.912-2.3,1.489-3.528,2.22a19.9,19.9,0,0,1-1.5-3.91c-.327-1.978.074-4.114-.448-6.014-.909-3.309-2.414-6.45-3.423-9.736a33.449,33.449,0,0,1-1.333-6.847c-.285-3.254.62-6.2,3.735-7.834,3.135-1.642,5.737-.018,8.09,1.884,2.391,1.933,4.5,4.239,7.009,5.991,1.147.8,2.949.671,4.454.963.232-1.792.88-3.661.569-5.352-.265-1.444-1.5-2.8-2.539-4-2.331-2.7-4.8-5.28-7.217-7.909-3.63-3.952-8.068-5.313-13.367-4.493-7.321,1.132-9.7-.9-10.1-8.253-.313-5.812-.629-6.417-6.6-6.09-9.575.522-15.9-3.854-19.281-12.389A75.006,75.006,0,0,0,80.684,56.686a31.086,31.086,0,0,1-5.525-7.793c-5.076-9.534.165-20.186,10.827-22.347.844-.171,1.7-.318,2.549-.436,5.564-.769,6.349-1.678,5.909-6.879-.372-4.394-2.358-6.388-7.146-5.881A17.375,17.375,0,0,1,74.277,9.743c-4.81-3.592-10.586-4.4-16.524-4.084-4.114.215-6.947,2.057-8.456,5.976-1.036,2.69-2.36,5.059-5.745,5.607-1.11.18-2.131,1.563-2.978,2.575-1.656,1.981-3.025,4.21-4.757,6.116-3.565,3.918-7.147,3.1-8.786-1.923-.782-2.4-1.453-4.831-2.41-8.037A23.436,23.436,0,0,0,21.543,18.9,13.8,13.8,0,0,1,9.669,25.191c-4.133.1-4.179.66-3.769,4.632A133.906,133.906,0,0,1,6.237,43.7c0,1.958-.422,3.914-.533,5.878-.435,7.657,1.421,10.055,8.7,12.252,1.237.373,2.049,2.153,3.057,3.282-1.382.689-2.828,2.072-4.137,1.953A14.675,14.675,0,0,1,0,52c.058-3.314.715-6.62.746-9.933A81.35,81.35,0,0,0,.212,29.684c-.864-5.963,1.351-9.541,7.325-9.83,4.521-.219,7.818-1.65,10.576-5.468,3.916-5.423,10.163-4.253,12.551,2.022.559,1.472.912,3.019,1.189,3.952" transform="translate(0 0)" fill="#0c8f5a"/>
        <path id="Trazado_454" data-name="Trazado 454" d="M125.722,183.65c-3.8,4.454-4.311,9.37-3.882,14.9.542,6.978-4.851,10.864-11.438,8.379a33.044,33.044,0,0,1-10.2-6.381c-3.64-3.291-7.329-5.99-12.175-7.188a17.3,17.3,0,0,1-5.842-3.042,9.166,9.166,0,0,1-3.208-10.242c1.053-3.525,3.74-5.462,8.093-5.837a1.734,1.734,0,0,1,.369-.022c10.511,1.356,20.755.759,30.771-3.234,1.873-.747,4.564.556,7.718,1.042,3.1-2.459,6.143-5.9,4.541-11.521-1.464-5.135-4.9-8.008-11.1-8.6a8,8,0,0,1-7.25-5.369c-1.1-2.737-2-5.553-3.131-8.274-1.615-3.884-4.558-6.189-8.814-6.169-10.7.053-18.941-4.84-25.54-12.751C65.271,108.118,54.987,97.545,49,83.87A22.486,22.486,0,0,0,46.253,79.5c-3.148-4.183-5.6-4.589-9.993-1.568-1.657,1.141-3.409,1.693-4.348-.269-.478-1,.092-3.143.952-4.028a10.815,10.815,0,0,1,15.554.057A40.771,40.771,0,0,1,55.2,83.72c6.318,13.4,16.68,23.681,26.2,34.585a23.548,23.548,0,0,0,18.34,8.135c7.328.038,12.208,3.948,14.849,10.712a25.064,25.064,0,0,1,1.356,3.821c.739,3.485,2.335,5.251,6.323,5.743,6.787.836,11.352,5.13,13.35,11.727,1.824,6.025.606,11.38-4.006,15.925-1.092,1.076-2.544,3.619-2.2,3.992a11.411,11.411,0,0,0,4.982,3.066c1.249.371,2.845-.637,4.265-.573a18.473,18.473,0,0,1,4.062,1.1c-.714,1.349-1.1,3.428-2.2,3.924-5.3,2.391-10.311,1.313-14.8-2.228m-4.7-7.853c-3.469,1.019-5.957,1.568-8.307,2.476-5.271,2.038-10.592,3.078-16.265,2.067a32.553,32.553,0,0,0-8.081-.57c-1.411.106-3.777,1.372-3.85,2.266a6.542,6.542,0,0,0,2.093,4.56c1.162,1.1,3.038,1.585,4.685,2.018a23.381,23.381,0,0,1,11.274,6.631,31.172,31.172,0,0,0,7.627,5.726c4.478,2.413,6.562,1,6.043-4.034-.5-4.816-.083-9.154,2.789-13.333,1.254-1.826,1.216-4.539,1.992-7.807" transform="translate(-8.291 -18.382)" fill="#0c8f5a"/>
        <path id="Trazado_455" data-name="Trazado 455" d="M33.336,149.968c1.357-7.08,2.707-8.681,7.22-8.851,5.2-.2,9.665,2.482,10.3,8.046a268.22,268.22,0,0,1,1.557,30.431c0,4.521-2.75,6.15-7.24,6.814a28.109,28.109,0,0,0-6.618,2.032c-8.2,3.436-13.41.019-13.108-8.8.126-3.68.819-7.355.747-11.021a44.981,44.981,0,0,0-1.327-10.123c-1.409-5.547-.243-7.568,5.4-8.171.969-.1,1.936-.222,3.063-.353M30.39,156.11c.544,3.089,1.469,5.979,1.471,8.87,0,4.9-.6,9.8-.9,14.706-.276,4.425,1.027,5.315,5.2,3.689,2.162-.843,4.371-2.233,6.552-2.221,4.056.022,4.783-2.154,4.671-5.332-.194-5.525-.388-11.053-.727-16.57a57.287,57.287,0,0,0-1.075-8.745c-.643-2.93-2.649-4.252-5.713-3.515-1.815,7.77-2.145,8.088-9.475,9.116" transform="translate(-6.355 -36.86)" fill="#0c8f5a"/>
      </g>
    </g>
  </g>
</svg>
