<svg xmlns="http://www.w3.org/2000/svg" width="46.857" height="54.326"><g fill="#4d73aa"><path data-name="Trazado 117" d="M32.757 7.377l.824.427-.457.882-.458.883-.294-.152-.53-.275a2.475 2.475 0 00-3.331 1.056l-3.1 5.968-1.371 2.645-.883-.457-.883-.458 4.466-8.613a4.465 4.465 0 016.012-1.905"/><path data-name="Trazado 118" d="M1.872 38.863C1.281 35.771.54 31.923 5.24 22.875L12.015 9.81a4.3 4.3 0 012.3-2.012 3.716 3.716 0 013 .115l-.458.885-.457.88a1.731 1.731 0 00-1.387-.016 2.289 2.289 0 00-1.232 1.063L7.002 23.79c-4.176 8.052-3.762 11.581-3.25 14.312l.073.387c.105.554.205 1.076.27 1.621a1 1 0 01-.1.575l-2.226 4.291-.882-.458-.883-.457 2.081-4.013c-.056-.381-.131-.774-.209-1.184"/><path data-name="Trazado 119" d="M23.969 7.117l1.385.718-.916 1.765-1.385-.718c-.841-.437-2.266.365-2.754 1.306l-3.631 7-1.765-.916 3.63-7c.97-1.87 3.563-3.126 5.435-2.155"/><path data-name="Trazado 120" d="M34.148 42.282c-3.757 4.69-7.947 7.533-12.5 8.471l-1.852 3.572-1.765-.916 2.074-4a1.028 1.028 0 01.711-.521c5.2-.909 9.946-4.645 14.116-11.1L38.025 33a5.05 5.05 0 00.443-3.662 4.465 4.465 0 00-2.028-2.441l-2.7 5.626-1.793-.86L44.688 5.095a1.838 1.838 0 00-.817-2.426l-.915-.474a1.846 1.846 0 00-2.486.787l-9.582 18.471-.882-.458-.883-.457 3.765-7.247 5.82-11.224A3.836 3.836 0 0143.87.425l.916.474a3.819 3.819 0 011.7 5.044l-.012.024-4.112 8.671-4.974 10.499a6.417 6.417 0 012.982 3.608 5.692 5.692 0 01.176.751 6.8 6.8 0 01-.05 2.39"/></g></svg>