<svg xmlns="http://www.w3.org/2000/svg" xmlns:xlink="http://www.w3.org/1999/xlink" width="920.642" height="636.313" viewBox="0 0 920.642 636.313">
  <defs>
    <clipPath id="clip-path">
      <rect id="Rectángulo_235" data-name="Rectángulo 235" width="920.642" height="636.313" fill="none"/>
    </clipPath>
    <clipPath id="clip-path-2">
      <rect id="Rectángulo_228" data-name="Rectángulo 228" width="28.149" height="53.388" fill="none"/>
    </clipPath>
    <clipPath id="clip-path-3">
      <rect id="Rectángulo_229" data-name="Rectángulo 229" width="46.784" height="44.778" fill="none"/>
    </clipPath>
    <clipPath id="clip-path-4">
      <rect id="Rectángulo_230" data-name="Rectángulo 230" width="69.701" height="46.62" fill="none"/>
    </clipPath>
    <clipPath id="clip-path-5">
      <rect id="Rectángulo_231" data-name="Rectángulo 231" width="31.205" height="122.803" fill="none"/>
    </clipPath>
    <clipPath id="clip-path-6">
      <rect id="Rectángulo_232" data-name="Rectángulo 232" width="55.434" height="31.006" fill="none"/>
    </clipPath>
    <clipPath id="clip-path-7">
      <rect id="Rectángulo_233" data-name="Rectángulo 233" width="95.323" height="41.026" fill="none"/>
    </clipPath>
    <clipPath id="clip-path-8">
      <rect id="Rectángulo_234" data-name="Rectángulo 234" width="197.004" height="196.028" fill="none"/>
    </clipPath>
  </defs>
  <g id="personas-medalla" transform="translate(-502.358 -15414.446)">
    <g id="Grupo_206" data-name="Grupo 206" transform="translate(502.358 15414.446)">
      <g id="Grupo_205" data-name="Grupo 205" clip-path="url(#clip-path)">
        <path id="Trazado_366" data-name="Trazado 366" d="M73.754,408.325H245.534L228.765,270.178,67.726,266.2l-3.032,27.3a171.641,171.641,0,0,0,.13,39.045Z" transform="translate(54.508 227.988)" fill="#1a2e35"/>
        <path id="Trazado_367" data-name="Trazado 367" d="M520.371,407.97c11.385-24.347,24.345-54.158,25.365-65.726,1.422-16.146-22.409-67.992-40.378-78.379,0,0-51.063,38.932-68.284,36.091s-44.532-6.4-44.532-6.4c-.594,1.782-5.939,46.909-5.939,46.909s-13.8,34.047-26.046,67.508Z" transform="translate(308.797 225.986)" fill="#1a2e35"/>
        <path id="Trazado_368" data-name="Trazado 368" d="M413.842,184.023a41.825,41.825,0,0,0,56.616,45.429c17.469-6.865,29.053-24.849,46.957-30.485,7.728-2.432,16.1-2.348,23.763-4.97,9.232-3.156,17.233-10.738,19.316-20.27s-2.824-20.571-11.922-24.093c-4.771-1.847-10.738-1.962-13.786-6.071-4.381-5.907,1.04-13.853,2.345-21.091,1.871-10.361-6.162-20.9-16.305-23.724s-21.33,1.01-29.235,7.966c-6.765,5.955-13.515,11.631-22.426,12.98-5.5.834-16.422-.345-22.671-11.957" transform="translate(354.023 83.771)" fill="#1a2e35"/>
        <path id="Trazado_369" data-name="Trazado 369" d="M485.748,104.4a3.691,3.691,0,0,1,.208,1,14.855,14.855,0,0,1,.1,2.939,19.318,19.318,0,0,1-3.62,10.127,18.746,18.746,0,0,1-5.488,5.146,18.409,18.409,0,0,1-8.235,2.612,20.26,20.26,0,0,1-9.423-1.533,19.19,19.19,0,0,1-8-6.392,56.006,56.006,0,0,1-5.085-8.813,51.819,51.819,0,0,0-4.673-8.038,23.931,23.931,0,0,0-12.726-8.582,25.642,25.642,0,0,0-10.5-.7c-2.484.39-3.8.895-3.839.785a3.719,3.719,0,0,1,.939-.4,18.477,18.477,0,0,1,2.829-.787A24.682,24.682,0,0,1,429,92.144a24.368,24.368,0,0,1,13.309,8.718c3.783,4.832,5.777,11.337,9.826,16.8a18.263,18.263,0,0,0,7.558,6.076,19.45,19.45,0,0,0,8.946,1.515,17.672,17.672,0,0,0,7.853-2.391,18.224,18.224,0,0,0,5.333-4.834,19.682,19.682,0,0,0,3.817-9.718c.239-2.5-.009-3.9.1-3.91" transform="translate(354.969 78.231)" fill="#1a2e35"/>
        <path id="Trazado_370" data-name="Trazado 370" d="M511.84,94l-7.8,97.94-66.886,43.209s9.72,58.71,10.225,59.984l81.93-62.752a42.267,42.267,0,0,0,16.94-32.545L542.8,86.666" transform="translate(374.397 74.225)" fill="#d3a090"/>
        <path id="Trazado_371" data-name="Trazado 371" d="M476.719,66.622c-.577-.319-8.839,21.642-8.063,25s8.95,13.409,12.357,15.431c6.364,3.778,2.087,17.519,2.694,19.7l32.885,1.715-.886-25.435,2.172-17.313a19.9,19.9,0,0,0,.057-10.866c-1.1-3.863-2.97-8.063-5.818-7.626-5.17.791-5.532,2.289-5.532,2.289s-3.464-5.137-6.121-.8c0,0-4.771-5.677-8.894-.785,0,0-5.491-5.4-9.316,2.963l-2.087,5.837s2.343-6.906-3.449-10.114" transform="translate(401.335 56.481)" fill="#d3a090"/>
        <path id="Trazado_372" data-name="Trazado 372" d="M487.494,91.715c-.163.091-.934-1.519-2.792-3.577a13.124,13.124,0,0,0-9.438-4.359c-.587-.054-1.171-.013-1.721-.019l-.7-.007.167-.65c.978-3.787,1.9-7.134,2.6-9.525s1.2-3.83,1.331-3.8-.121,1.532-.644,3.971-1.316,5.816-2.265,9.611l-.533-.655c.583,0,1.2-.043,1.825.011a14.1,14.1,0,0,1,6.045,1.634,13.489,13.489,0,0,1,3.9,3.293c1.8,2.295,2.319,4.032,2.224,4.069" transform="translate(404.962 59.763)" fill="#8a503f"/>
        <path id="Trazado_373" data-name="Trazado 373" d="M496.139,75.925c.067.043-.189.529-.6,1.411a6.319,6.319,0,0,0-.757,3.8,3.742,3.742,0,0,0,.5,1.147,3.585,3.585,0,0,1,.6,1.559,3.714,3.714,0,0,1-1.673,3.214,5.116,5.116,0,0,1-7.242-2,7.135,7.135,0,0,1-.42-4.145,36.47,36.47,0,0,1,.793-3.618,44.53,44.53,0,0,1,2.014-5.9,9.13,9.13,0,0,1,2.265-3.6c.817-.663,1.439-.681,1.441-.629.032.087-.511.245-1.159.93a10.1,10.1,0,0,0-1.849,3.57,56.408,56.408,0,0,0-1.765,5.866c-.438,2.2-1.355,4.855-.364,7.066a4.159,4.159,0,0,0,5.733,1.647A2.844,2.844,0,0,0,495,83.908c0-.789-.833-1.611-.956-2.625a6.2,6.2,0,0,1,1.131-4.145c.537-.843.91-1.248.965-1.212" transform="translate(416.591 57.514)" fill="#8a503f"/>
        <path id="Trazado_374" data-name="Trazado 374" d="M491.06,85.529c.05.013,0,.47-.538,1.051a3.927,3.927,0,0,1-3.032,1.127,4.951,4.951,0,0,1-3.975-2.681,9,9,0,0,1-.872-5.757,19.791,19.791,0,0,1,3.906-9.527c1.6-2.122,2.987-3.067,3.063-2.965.111.121-1.055,1.236-2.449,3.394a21.717,21.717,0,0,0-3.47,9.236,8.4,8.4,0,0,0,.676,5.146,4.261,4.261,0,0,0,3.18,2.406,3.763,3.763,0,0,0,2.694-.685c.55-.414.735-.787.817-.744" transform="translate(413.254 57.185)" fill="#8a503f"/>
        <path id="Trazado_375" data-name="Trazado 375" d="M487.135,84.2c.046.032-.1.4-.64.856a4.244,4.244,0,0,1-2.792.884A5.138,5.138,0,0,1,479.791,84a7.7,7.7,0,0,1-1.608-5.068,13.307,13.307,0,0,1,1.324-5.064c.657-1.446,1.346-2.662,1.9-3.705,1.132-2.072,1.9-3.319,2.029-3.254s-.4,1.431-1.353,3.587c-.876,2.163-2.679,5.046-2.839,8.465a7.024,7.024,0,0,0,1.311,4.431,4.486,4.486,0,0,0,3.189,1.8,5.211,5.211,0,0,0,3.39-.991" transform="translate(409.535 57.301)" fill="#8a503f"/>
        <path id="Trazado_376" data-name="Trazado 376" d="M482.449,81.291c.063.022.017.434-.236,1.142a6.683,6.683,0,0,1-1.754,2.692,4.354,4.354,0,0,1-4.764.789c-1.918-.984-2.426-3.559-1.83-5.543a44,44,0,0,1,3.546-9.685c1.2-2.354,2.189-3.668,2.3-3.6.273.139-2.994,5.8-4.814,13.524-.542,1.777-.037,3.748,1.248,4.437a3.631,3.631,0,0,0,3.832-.5,7.6,7.6,0,0,0,1.86-2.289c.357-.627.536-1,.611-.969" transform="translate(405.637 57.454)" fill="#8a503f"/>
        <path id="Trazado_377" data-name="Trazado 377" d="M496.322,79.655c-.072.316-3.7-.832-8.055.28-4.374,1.028-7.058,3.728-7.27,3.481-.093-.085.44-.889,1.632-1.871A14.073,14.073,0,0,1,494.01,78.75c1.511.319,2.354.785,2.311.9" transform="translate(411.938 67.227)" fill="#8a503f"/>
        <path id="Trazado_378" data-name="Trazado 378" d="M397.44,251.887c-19.73,1.83-37.086-12.654-39.941-21.31a23.261,23.261,0,0,1,7.218-24.687c5.614-4.571,13.766-6.9,16.459-13.617,4.691-11.7-11.629-24.867-5.805-36.047,4.123-7.918,16.175-7.8,21.83-14.709,4.992-6.1,3.18-15.067,4.749-22.79,2.66-13.1,16.029-22.331,29.393-22.771s26.159,6.55,35.387,16.225,15.362,21.847,20.753,34.081c4.366,9.906,8.411,20.64,6.568,31.307-2.731,15.8-17.261,26.482-31.038,34.678-22.456,13.359-39.533,41.794-65.573,39.639" transform="translate(305.26 82.165)" fill="#1a2e35"/>
        <path id="Trazado_379" data-name="Trazado 379" d="M366.376,209.8c0,.019-.121.032-.358.041a6.85,6.85,0,0,1-1.058-.037,10.267,10.267,0,0,1-3.869-1.249,10.685,10.685,0,0,1-4.446-4.647,10.939,10.939,0,0,1-.3-8.482,10.475,10.475,0,0,1,2.846-4.166,22.7,22.7,0,0,1,4.489-3.02,43.409,43.409,0,0,0,4.847-2.876,10.912,10.912,0,0,0,3.637-4.428c1.652-3.665,1.168-8.146.085-12.409-1.09-4.3-3.113-8.588-3.965-13.389a22.111,22.111,0,0,1-.267-7.212,12.1,12.1,0,0,1,2.995-6.4,14.433,14.433,0,0,1,5.727-3.667,57.4,57.4,0,0,1,6.156-1.79c4-.971,7.749-2.2,10.4-4.673a21.148,21.148,0,0,0,5.484-8.295c2.126-5.827,2.044-11.018,2.133-14.473,0-1.662-.006-3-.007-4.027a6.981,6.981,0,0,1,.054-1.407,7.055,7.055,0,0,1,.16,1.4c.067.919.154,2.276.206,4.03.032,3.47.251,8.7-1.842,14.738a21.725,21.725,0,0,1-5.6,8.684c-2.779,2.647-6.761,3.975-10.745,4.968-3.932,1.062-8.4,1.968-11.36,5.209a11.076,11.076,0,0,0-2.718,5.865,21.127,21.127,0,0,0,.266,6.858c.817,4.643,2.811,8.891,3.93,13.326,1.086,4.361,1.621,9.059-.2,13.066a11.842,11.842,0,0,1-3.976,4.778,43.588,43.588,0,0,1-4.979,2.9,22.013,22.013,0,0,0-4.361,2.853,9.737,9.737,0,0,0-2.694,3.828,10.012,10.012,0,0,0,4.248,12.5,12.352,12.352,0,0,0,5.079,1.6" transform="translate(304.582 88.38)" fill="#1a2e35"/>
        <path id="Trazado_380" data-name="Trazado 380" d="M388.047,298.078h0c-6.321,2.263-12.732,1.868-19.086-.321a41.9,41.9,0,0,1-19.376-14.436l-4.981-6.512c-5.779-5.727-42-55.422-42-55.422L321.89,190.2l43.515,50.776,12.464-34.509,36.906,25.853-10.019,41.412c-2.443,10.91-6.317,20.627-16.71,24.347" transform="translate(259.162 162.896)" fill="#d3a090"/>
        <path id="Trazado_381" data-name="Trazado 381" d="M314.954,165.275s10.383,15.368,13.038,20.508c2.152,4.162,10.2,17.48,9.75,31.53L318.19,242.731s-9.388-7.171-10.888-9.871-.117-6.557-.117-6.557a24.977,24.977,0,0,0-4.381-3.037s.9,4.8-2.7,5.7-15.594-11.7-15.594-11.7-.9-5.4,2.4-5.7c0,0-2.4-7.5,0-9.6,0,0-2.7-6,.6-8.7,0,0,1.5-6.9,3.9-9.3s26.781,4.8,26.781,4.8-5.777-12.834-6.377-16.431,3.141-7.075,3.141-7.075" transform="translate(243.574 141.549)" fill="#d3a090"/>
        <path id="Trazado_382" data-name="Trazado 382" d="M298.861,191.3c.054-.052.4.2.976.689a8.063,8.063,0,0,1,2.124,2.519,5.633,5.633,0,0,1,.826,2.211,5.335,5.335,0,0,1-.44,2.725,3.189,3.189,0,0,1-2.519,1.91,4.709,4.709,0,0,1-3.23-.735,39.8,39.8,0,0,1-4.483-3.886q-1.824-1.746-3.446-3.3c-1.942-1.9-3.093-3.126-2.994-3.234s1.429.924,3.5,2.681q1.69,1.47,3.6,3.126a50.355,50.355,0,0,0,4.372,3.7c1.558,1.067,3.748.795,4.318-.683a4.585,4.585,0,0,0,.447-2.231,5.1,5.1,0,0,0-.618-1.949,9.5,9.5,0,0,0-1.747-2.566c-.492-.581-.737-.932-.685-.982" transform="translate(244.66 162.892)" fill="#8a503f"/>
        <path id="Trazado_383" data-name="Trazado 383" d="M297.12,179.2c.1-.108,1.806,1.353,4.494,3.813.661.627,1.431,1.266,2.163,2.05a9.789,9.789,0,0,1,2.087,2.881,4.563,4.563,0,0,1-4.366,6.091,6.88,6.88,0,0,1-3.78-2.046q-1.434-1.312-2.779-2.541l-4.66-4.346c-2.631-2.5-4.21-4.1-4.112-4.2s1.853,1.294,4.613,3.648l4.812,4.177q1.362,1.2,2.814,2.491a6.059,6.059,0,0,0,3.186,1.765c2.389.2,4.249-2.809,3.362-4.676-.876-1.992-2.673-3.475-3.878-4.767-2.532-2.575-4.055-4.227-3.956-4.335" transform="translate(245.083 153.472)" fill="#8a503f"/>
        <path id="Trazado_384" data-name="Trazado 384" d="M301.5,189.446c0-.052.484-.111,1.244.251a4.21,4.21,0,0,1,2.181,2.718,4.3,4.3,0,0,1-5.38,5,8.63,8.63,0,0,1-2.887-1.641,66.363,66.363,0,0,1-8.094-7.563c-1.894-2.111-2.907-3.546-2.8-3.635.239-.214,4.823,5.07,11.551,10.365a7.949,7.949,0,0,0,2.521,1.476,3.228,3.228,0,0,0,2.462-.225,3.379,3.379,0,0,0,1.9-3.613,4.041,4.041,0,0,0-1.658-2.523c-.615-.433-1.056-.52-1.036-.609" transform="translate(244.736 158.073)" fill="#8a503f"/>
        <path id="Trazado_385" data-name="Trazado 385" d="M296.423,216.386c-.056-.006-.061-.336-.02-.952a10.088,10.088,0,0,1,.548-2.6,11.055,11.055,0,0,1,6.286-6.728l.136.965-.056,0h0l.035-.989h.054l.061,0h0l-.033.993H303.4l-.031,0-.273-.006-.143-.245a21.224,21.224,0,0,1-2.436-6.507,23.028,23.028,0,0,1,1.58-13.92,18.69,18.69,0,0,1,2.189-3.678c.652-.776,1.034-1.177,1.09-1.131.175.124-1.312,1.814-2.588,5.1a24.066,24.066,0,0,0-1.231,13.417,21.445,21.445,0,0,0,2.261,6.225l-.416-.251.032,0h.028l-.033.993h0l-.061,0-.03,0h-.015l-.006,0h0l.031-.989h0l.056,0,2.367.106-2.231.86a10.953,10.953,0,0,0-6.024,6c-.824,2.027-.937,3.362-1.093,3.338" transform="translate(253.829 155.514)" fill="#8a503f"/>
        <path id="Trazado_386" data-name="Trazado 386" d="M341.172,238.645c-.256.1-2.218-4.459-3.477-10.428-1.281-5.965-1.346-10.929-1.071-10.94.31-.022.845,4.842,2.109,10.719,1.238,5.883,2.731,10.545,2.439,10.649" transform="translate(288.187 186.086)" fill="#8a503f"/>
        <path id="Trazado_387" data-name="Trazado 387" d="M419.757,305.156a1.735,1.735,0,0,0-.115.488c-.063.386-.139.861-.234,1.442-.169,1.272-.494,3.137-.923,5.534a150.006,150.006,0,0,1-5.326,19.9c-2.747,8.267-6.717,17.859-11.339,28.42-1.836,4.168-2.993,7.149-4.845,11.675.377-.011.755-.024,1.131-.03,1.777-4.368,2.853-7.214,4.609-11.256,4.578-10.591,8.49-20.245,11.157-28.574a137.047,137.047,0,0,0,5.02-20.068c.368-2.417.627-4.3.728-5.58.052-.587.095-1.066.13-1.457a1.766,1.766,0,0,0,.007-.5" transform="translate(339.987 261.349)" fill="#375a64"/>
        <path id="Trazado_388" data-name="Trazado 388" d="M409.55,328.689c-.288.05-2.31-10.088-4.513-22.643s-3.758-22.779-3.47-22.829,2.309,10.086,4.513,22.645,3.757,22.777,3.47,22.827" transform="translate(343.89 242.56)" fill="#375a64"/>
        <path id="Trazado_389" data-name="Trazado 389" d="M468.663,285.3a6.524,6.524,0,0,1-1.493,1.42,23.253,23.253,0,0,1-4.8,2.92,26.029,26.029,0,0,1-32.963-9.5,23.178,23.178,0,0,1-2.512-5.029,6.627,6.627,0,0,1-.509-2c.2-.082.952,2.8,3.641,6.6a26.274,26.274,0,0,0,32.044,9.238c4.3-1.79,6.468-3.83,6.6-3.652" transform="translate(365.163 233.906)" fill="#375a64"/>
        <path id="Trazado_390" data-name="Trazado 390" d="M406.447,283.06a6.316,6.316,0,0,1,.057,1.96,31.763,31.763,0,0,1-.733,5.295,36.983,36.983,0,0,1-21.91,26.159,31.642,31.642,0,0,1-5.085,1.65,6.314,6.314,0,0,1-1.94.288c-.048-.187,2.688-.757,6.722-2.625a38.87,38.87,0,0,0,21.483-25.65c1.131-4.3,1.212-7.092,1.405-7.077" transform="translate(322.739 242.425)" fill="#375a64"/>
        <path id="Trazado_391" data-name="Trazado 391" d="M409.9,284.7a5.58,5.58,0,0,0-2.545,2.053,3.317,3.317,0,0,0-.16,3.223,3.421,3.421,0,0,0,6.368-.293,3.312,3.312,0,0,0-.455-3.193,5.59,5.59,0,0,0-2.722-1.812c0-.059.349-.163.986-.052a4.092,4.092,0,0,1,2.328,1.4,4.039,4.039,0,0,1,.778,3.993,4.351,4.351,0,0,1-8.165.375,4.036,4.036,0,0,1,.41-4.049,4.1,4.1,0,0,1,2.187-1.608c.627-.169.984-.1.989-.039" transform="translate(347.668 243.727)" fill="#375a64"/>
        <path id="Trazado_392" data-name="Trazado 392" d="M414.861,164.539l-41.727,1.316s-13.472,54.286-12.449,90.323c.626,22.066,14.285,53.278,17.586,64.766,2.3,8-6.03,84.043,12.446,78.164,21.435-6.82,24.31-13.617,35.835-11.313,18.518,3.7,32.917-2.282,47.87-8.4s57.086-40.216,40.773-51.771c-12.392-8.777-22.819-32.766-23.243-57.2-.223-12.934,5.265-26.829,15.509-34.727l17.93-13.266s-18.642,1.1-13.2-27.451,9.26-34.216,9.26-34.216l-35.484,11.707a12.5,12.5,0,0,1-3.793.377l-17.985-.978Z" transform="translate(308.859 137.69)" fill="#0c8f5a"/>
        <path id="Trazado_393" data-name="Trazado 393" d="M341.159,232.182s19.405-49.628,27.479-57.724c7.326-7.348,21.171-10.949,21.171-10.949L378.817,256.95Z" transform="translate(292.184 140.036)" fill="#0c8f5a"/>
        <path id="Trazado_394" data-name="Trazado 394" d="M375.242,288.2a3.881,3.881,0,0,1-.449-.947c-.3-.75-.659-1.671-1.1-2.786-.9-2.439-2.324-5.928-3.77-10.35-3.022-8.779-7.036-21.074-9.1-35.191a85.469,85.469,0,0,1-.511-20.053c.594-6.152,1.725-11.592,2.59-16.153.886-4.559,1.574-8.252,1.99-10.816.206-1.181.377-2.153.514-2.946a3.843,3.843,0,0,1,.252-1.019,4.007,4.007,0,0,1-.041,1.047c-.085.8-.189,1.786-.317,2.978-.291,2.586-.869,6.31-1.661,10.892-.77,4.58-1.819,10.017-2.354,16.107a87.839,87.839,0,0,0,.587,19.819c2.042,13.983,5.924,26.276,8.762,35.1,1.35,4.442,2.67,7.966,3.446,10.446.364,1.144.665,2.085.91,2.853a3.849,3.849,0,0,1,.249,1.019" transform="translate(308.275 160.959)" fill="#1a2e35"/>
        <path id="Trazado_395" data-name="Trazado 395" d="M428.423,255.326a11.385,11.385,0,0,1-.535-2.451,65.64,65.64,0,0,1-.78-6.787,90.124,90.124,0,0,1,8.163-43.953,65.792,65.792,0,0,1,3.163-6.054,11.34,11.34,0,0,1,1.378-2.094c.167.093-1.593,3.191-3.858,8.454a100.218,100.218,0,0,0-8.1,43.608c.226,5.725.756,9.249.566,9.277" transform="translate(365.617 166.139)" fill="#1a2e35"/>
        <g id="Grupo_186" data-name="Grupo 186" transform="translate(792.893 360.52)" opacity="0.3">
          <g id="Grupo_185" data-name="Grupo 185">
            <g id="Grupo_184" data-name="Grupo 184" clip-path="url(#clip-path-2)">
              <path id="Trazado_396" data-name="Trazado 396" d="M428.533,247.587c1.454-8.012,2.926-16.092,5.991-23.636s7.881-14.612,14.755-18.978a22.145,22.145,0,0,0,4.326-3.061,5.028,5.028,0,0,0,1.47-4.838c-.93-2.831-4.8-3.319-7.675-2.541-5.872,1.591-10.58,6.2-13.5,11.542s-4.264,11.384-5.289,17.382c-1.229,7.183-2.049,14.527-1.079,21.75" transform="translate(-427.103 -194.199)"/>
            </g>
          </g>
        </g>
        <path id="Trazado_397" data-name="Trazado 397" d="M446.5,212.888a3.475,3.475,0,0,1,.08.989c0,.65.058,1.61-.017,2.842A62.314,62.314,0,0,1,445.28,227.1a67.962,67.962,0,0,1-43.224,50.291,62.386,62.386,0,0,1-10.068,2.826c-1.207.258-2.165.345-2.807.442a3.531,3.531,0,0,1-.99.071,34.276,34.276,0,0,1,3.709-.917,73.945,73.945,0,0,0,9.887-3.121,69.434,69.434,0,0,0,42.76-49.751,73.888,73.888,0,0,0,1.6-10.246,33.878,33.878,0,0,1,.349-3.806" transform="translate(332.466 182.327)" fill="#1a2e35"/>
        <g id="Grupo_189" data-name="Grupo 189" transform="translate(728.773 415.935)" opacity="0.3">
          <g id="Grupo_188" data-name="Grupo 188">
            <g id="Grupo_187" data-name="Grupo 187" clip-path="url(#clip-path-3)">
              <path id="Trazado_398" data-name="Trazado 398" d="M439.348,224.131c-2.243-.433-4.519.886-5.95,2.666a26.1,26.1,0,0,0-3.141,6.065,46.792,46.792,0,0,1-24.672,24.106c-2.924,1.209-6.009,2.137-8.606,3.943s-4.684,4.767-4.387,7.916c0,0,19.4-3.761,32.278-19.508s14.478-25.188,14.478-25.188" transform="translate(-392.564 -224.049)"/>
            </g>
          </g>
        </g>
        <path id="Trazado_399" data-name="Trazado 399" d="M432.205,194.119c2.385,3.353,7.121,4.231,11.155,3.42s7.649-2.961,11.411-4.624,8.031-2.859,11.963-1.645c4.849,1.5,7.962,6.232,12.446,8.61a14.6,14.6,0,0,0,18.412-4.745c2.009-3.076,2.733-6.783,3.924-10.257s3.126-7.021,6.479-8.521c3.911-1.751,8.566-.225,12.694-1.366,5.738-1.585,8.913-7.86,9.743-13.754,1.513-10.753,7.541-32.306-34.5-35.161" transform="translate(370.16 107.976)" fill="#1a2e35"/>
        <path id="Trazado_400" data-name="Trazado 400" d="M463.179,138.195A39.857,39.857,0,0,0,427.361,93.56c-21.245-2.024-40.127,13.8-43.313,34.9-2.79,18.5-5.191,37.173-5.1,43.955.26,20.452,12.227,28.415,17.077,30.806a26.518,26.518,0,0,0,5.382,1.338.135.135,0,0,1,.113.16L396.977,228.2c-2.059,15.383,6.527,29.1,21.886,31.342,15.408,2.246,27.453-9.57,29.805-24.964Z" transform="translate(324.544 79.98)" fill="#d3a090"/>
        <path id="Trazado_401" data-name="Trazado 401" d="M383.608,119.968c.338.479,3.039-.969,6.5-.455,3.464.464,5.746,2.614,6.182,2.246.212-.162-.084-.978-1.073-1.947a8.923,8.923,0,0,0-4.873-2.313,8.549,8.549,0,0,0-5.248.886c-1.184.663-1.656,1.37-1.487,1.584" transform="translate(328.511 100.556)" fill="#1a2e35"/>
        <path id="Trazado_402" data-name="Trazado 402" d="M400.887,122.834c.338.477,3.043-.969,6.5-.457,3.464.464,5.746,2.616,6.184,2.246.21-.161-.082-.976-1.075-1.944a8.9,8.9,0,0,0-4.871-2.317,8.579,8.579,0,0,0-5.25.886c-1.181.663-1.654,1.368-1.487,1.585" transform="translate(343.31 103.01)" fill="#1a2e35"/>
        <path id="Trazado_403" data-name="Trazado 403" d="M397.648,144.333c.045-.195-2.053-.88-5.477-1.834-.869-.221-1.68-.518-1.741-1.144a4.548,4.548,0,0,1,.973-2.534q1.712-3.027,3.594-6.349c5.029-9.056,8.805-16.554,8.439-16.753s-4.74,6.978-9.767,16.034q-1.827,3.353-3.492,6.407c-.481.954-1.223,2.011-.964,3.4a2.243,2.243,0,0,0,1.264,1.5,6.005,6.005,0,0,0,1.47.427c3.483.7,5.657,1.034,5.7.839" transform="translate(333.294 99.104)" fill="#1a2e35"/>
        <path id="Trazado_404" data-name="Trazado 404" d="M391.682,155.389s13.207,3.046,31.392-4.567c0,0-7.851,16.9-32.616,10.894Z" transform="translate(334.407 129.171)" fill="#8a503f"/>
        <path id="Trazado_405" data-name="Trazado 405" d="M394.078,136.527a6.3,6.3,0,0,1,5.93-1.5,5.748,5.748,0,0,1,3.626,2.683,3.646,3.646,0,0,1-.327,4.168c-1.125,1.177-3.122,1.2-4.706.485a13.215,13.215,0,0,1-4.04-3.286,3.837,3.837,0,0,1-.839-1.168,1.169,1.169,0,0,1,.193-1.288" transform="translate(337.111 115.467)" fill="#ff735d"/>
        <path id="Trazado_406" data-name="Trazado 406" d="M404.741,133.222c-.559-.115-1.114,3.642-4.719,5.84s-7.545,1.2-7.65,1.723c-.087.228.785.861,2.469,1.153a9.461,9.461,0,0,0,6.356-1.225,8.245,8.245,0,0,0,3.715-4.933c.373-1.55.089-2.541-.171-2.558" transform="translate(336.04 114.095)" fill="#1a2e35"/>
        <path id="Trazado_407" data-name="Trazado 407" d="M402.155,115.718c.2.991,3.726,1.049,7.715,2.131,4.014,1,7.116,2.668,7.777,1.9.3-.368-.143-1.337-1.333-2.441a13.923,13.923,0,0,0-11.8-3.072c-1.58.382-2.437,1.014-2.356,1.481" transform="translate(344.419 97.587)" fill="#1a2e35"/>
        <path id="Trazado_408" data-name="Trazado 408" d="M385.5,112.849c.492.874,3,.407,5.87.787,2.887.278,5.22,1.3,5.9.559.3-.364.035-1.207-.917-2.107a8.573,8.573,0,0,0-9.483-1.082c-1.131.659-1.584,1.42-1.368,1.843" transform="translate(330.116 94.25)" fill="#1a2e35"/>
        <path id="Trazado_409" data-name="Trazado 409" d="M491.2,200.035c1.279-2.924,2.4-5.636,2.978-7.394,2.282-6.923,2.3-17.911-.988-24.416-3.056-6.05-10.793-12.065-13.03-17.931-3.444-9.032-.9-11.38-3.54-30.219-1.5-10.68-15.75-25.5-30.7-23.194-4.7-5.452-11.36-8.269-17.954-9.486-16.17-2.987-33.784,3.282-43.459,17.9-4.463,6.746-7.142,15.83-4.494,23.911,4.233,6.46,17.666,2.471,25.779-1.968,8.545,5.664,20.417,3.2,26.335-5.452a9.091,9.091,0,0,0,6.47,3.472c.258,2.393.557,4.4.733,5.684.815,5.891,9.67,14.417,9.771,20.361.189,11.2-8.417,11.755-10.791,22.7-1.79,8.243,4.465,13.069,5.649,21.42.182,1.275-14.805,28.55,4.519,39.917,0,0,.5.418,1.27,1.188a20.329,20.329,0,0,1,2.181,25.7c-5.059,7.552-10.487,20,2.469,26.707,0,0,3.752-11.946,9.074-14.263,13.493-5.876,27.292-7,21.733-36.245s1.845-25.871,6-38.393" transform="translate(324.563 74.225)" fill="#1a2e35"/>
        <path id="Trazado_410" data-name="Trazado 410" d="M81.713,103.969l9.46,109.7,54.941-4.387c.342-6.416-.117-31.233-.117-31.233s22.858-3.553,23.141-26.41c.137-11.1-1.45-34.04-3.119-54.7a42.3,42.3,0,1,0-84.307,7.036" transform="translate(69.847 49.703)" fill="#ffc09d"/>
        <path id="Trazado_411" data-name="Trazado 411" d="M130.034,126.41s-14.445,1.175-29.8-8.467c0,0,7.041,16.448,29.85,14.389Z" transform="translate(85.848 101.012)" fill="#ff9b6c"/>
        <path id="Trazado_412" data-name="Trazado 412" d="M125.719,88.531a3.264,3.264,0,0,1-3.147,3.293,3.123,3.123,0,0,1-3.366-2.942,3.265,3.265,0,0,1,3.145-3.3,3.123,3.123,0,0,1,3.368,2.944" transform="translate(102.093 73.296)" fill="#1a2e35"/>
        <path id="Trazado_413" data-name="Trazado 413" d="M130.372,86.776c-.4.425-2.877-1.405-6.39-1.4-3.509-.041-6.085,1.767-6.468,1.337-.186-.191.226-.958,1.348-1.777a8.958,8.958,0,0,1,5.178-1.595,8.6,8.6,0,0,1,5.087,1.641c1.079.83,1.444,1.6,1.246,1.79" transform="translate(100.608 71.38)" fill="#1a2e35"/>
        <path id="Trazado_414" data-name="Trazado 414" d="M106.759,88.975a3.265,3.265,0,0,1-3.147,3.293,3.123,3.123,0,0,1-3.366-2.942,3.267,3.267,0,0,1,3.145-3.3,3.123,3.123,0,0,1,3.368,2.944" transform="translate(85.854 73.676)" fill="#1a2e35"/>
        <path id="Trazado_415" data-name="Trazado 415" d="M111.776,87.129c-.4.425-2.881-1.4-6.392-1.394-3.507-.041-6.085,1.765-6.466,1.335-.188-.189.221-.958,1.348-1.775a8.943,8.943,0,0,1,5.176-1.6,8.609,8.609,0,0,1,5.087,1.641c1.077.83,1.444,1.6,1.248,1.79" transform="translate(84.681 71.683)" fill="#1a2e35"/>
        <path id="Trazado_416" data-name="Trazado 416" d="M113.449,113.078c-.017-.2,2.166-.577,5.7-1.028.9-.093,1.745-.271,1.9-.884a4.582,4.582,0,0,0-.6-2.658q-1.264-3.255-2.653-6.83c-3.683-9.724-6.349-17.718-5.955-17.863s3.7,7.617,7.379,17.341q1.331,3.6,2.541,6.871c.34,1.019.923,2.176.464,3.52a2.253,2.253,0,0,1-1.474,1.313,6.2,6.2,0,0,1-1.522.212c-3.561.191-5.77.208-5.783.007" transform="translate(95.754 71.781)" fill="#1a2e35"/>
        <path id="Trazado_417" data-name="Trazado 417" d="M107.385,100.886c.572-.033.579,3.78,3.841,6.485s7.322,2.287,7.352,2.82c.054.239-.9.741-2.619.787a9.5,9.5,0,0,1-6.137-2.137,8.27,8.27,0,0,1-2.976-5.439c-.147-1.593.28-2.538.54-2.515" transform="translate(91.481 86.403)" fill="#1a2e35"/>
        <path id="Trazado_418" data-name="Trazado 418" d="M113.707,79.346c-.347.954-3.854.5-7.973,1-4.131.414-7.454,1.621-8,.765-.243-.41.336-1.309,1.68-2.233a13.975,13.975,0,0,1,12.169-1.344c1.513.611,2.274,1.361,2.126,1.814" transform="translate(83.656 65.701)" fill="#1a2e35"/>
        <path id="Trazado_419" data-name="Trazado 419" d="M129.242,81.4c-.618.8-3.037-.03-5.946-.069-2.909-.141-5.374.535-5.941-.3-.249-.4.139-1.2,1.216-1.96a8.61,8.61,0,0,1,9.577.3c1.028.821,1.366,1.641,1.093,2.031" transform="translate(100.446 66.595)" fill="#1a2e35"/>
        <path id="Trazado_420" data-name="Trazado 420" d="M108.846,75.671l-.124.1A17.971,17.971,0,0,0,102.039,87.4c-.022.162-.045.316-.063.46-.895,6.52-.733,13.151-1.689,19.662s-3.214,13.132-8.027,17.618c-1.979,1.845-5.482,3.115-7.108.954a5.561,5.561,0,0,1-.815-2.987c-1.218-15.741-5.517-29.707-5.488-46.166A13.877,13.877,0,0,1,84.6,65.642c3.447-2.469,7.656-5.031,11.484-3.217s8.792,8.981,11.761,12.02" transform="translate(67.529 52.94)" fill="#1a2e35"/>
        <path id="Trazado_421" data-name="Trazado 421" d="M92.811,88.681c-.39-.169-15.7-4.645-15.2,10.981s16.082,11.9,16.1,11.452-.891-22.433-.891-22.433" transform="translate(66.455 75.334)" fill="#ffc09d"/>
        <path id="Trazado_422" data-name="Trazado 422" d="M86.9,102.987c-.071-.048-.267.2-.72.425a2.718,2.718,0,0,1-2.033.106c-1.669-.553-3.143-3.128-3.31-5.942a9,9,0,0,1,.639-3.923A3.144,3.144,0,0,1,83.461,91.5a1.384,1.384,0,0,1,1.63.694c.223.431.134.744.217.769.045.039.327-.271.18-.913a1.745,1.745,0,0,0-.644-.96,2.065,2.065,0,0,0-1.519-.349,3.825,3.825,0,0,0-2.766,2.514,9.251,9.251,0,0,0-.806,4.385c.2,3.145,1.907,6.041,4.186,6.622a2.918,2.918,0,0,0,2.476-.494c.472-.4.542-.754.488-.78" transform="translate(68.29 77.694)" fill="#ff9b6c"/>
        <path id="Trazado_423" data-name="Trazado 423" d="M87.6,76.824c-4.771-5.577,4.248-16.082,11.488-19.682s17.859-1.465,25.836-.143c5.035.835,10.149,2.3,15.152,1.3,3.355-.67,6.384-2.4,9.394-4.032s6.16-3.2,9.568-3.5,7.16.947,8.933,3.874.611,7.5-2.662,8.493c3.9-3.02,10.567-.908,12.02,3.808s-2.865,10.212-7.79,9.921c1.933-2.009,5.729.21,5.891,2.994s-2.012,5.168-4.359,6.672c-5.993,3.839-13.639,4.116-20.655,2.922s-13.745-3.715-20.727-5.085-18.728-3.951-24.99-.57c-4.611,2.489-7.084,8.9-10.043,8.04a9.55,9.55,0,0,1-5.978-6.173A27.7,27.7,0,0,1,87.6,76.824" transform="translate(73.886 43.438)" fill="#1a2e35"/>
        <path id="Trazado_424" data-name="Trazado 424" d="M85.934,106.746c.058.054.674-.431,1.264-1.671a10.516,10.516,0,0,0,.78-5.664c-.347-5.035-4.8-10.437-5.365-17.393a15.71,15.71,0,0,1,1.73-9.327,11.941,11.941,0,0,1,5.807-5.016,10.17,10.17,0,0,1,5.217-.709c1.255.2,1.931.492,1.988.368.037-.063-.553-.551-1.864-.956a9.729,9.729,0,0,0-5.72.275,12.605,12.605,0,0,0-6.655,5.317,16.567,16.567,0,0,0-2.04,10.2,28.458,28.458,0,0,0,3.013,9.848A29.573,29.573,0,0,1,86.9,99.562c.824,4.58-1.19,7.11-.962,7.184" transform="translate(69.352 56.588)" fill="#375a64"/>
        <path id="Trazado_425" data-name="Trazado 425" d="M148.386,44.747c.026-.024.24.182.614.616a7.925,7.925,0,0,1,1.171,2.213,10.525,10.525,0,0,1-1.335,8.926c-2.2,3.347-6.733,5.751-11.892,6.11-5.205.414-10.727-1.142-16.329-2.58a49.8,49.8,0,0,0-8.287-1.5,22.781,22.781,0,0,0-7.695.7,25.114,25.114,0,0,0-11.243,6.611,24.582,24.582,0,0,0-5.029,7.337c-.882,1.933-1.116,3.1-1.238,3.071a2.559,2.559,0,0,1,.137-.854,14.288,14.288,0,0,1,.717-2.374,23.232,23.232,0,0,1,4.873-7.7,25.326,25.326,0,0,1,11.527-7.034A23.42,23.42,0,0,1,112.4,57.5,49.1,49.1,0,0,1,120.87,59c5.647,1.454,11.031,2.983,16.006,2.634,4.933-.293,9.227-2.5,11.343-5.558a10.313,10.313,0,0,0,1.559-8.382,12.855,12.855,0,0,0-1.392-2.95" transform="translate(74.606 38.322)" fill="#1a2e35"/>
        <path id="Trazado_426" data-name="Trazado 426" d="M80.089,9.3c.75-.206,4.145,27.206,2.332,30.834s-13.732,14.25-18.4,14.25-10.882,6.737-12.178,9.069L21.791,57.236l6.735-16.584-.809-20.846A23.445,23.445,0,0,1,30.648,7.357c2.328-4.118,5.623-8.408,8.761-7.125,5.7,2.332,5.7,4.145,5.7,4.145s5.382-4.923,7.225.778c0,0,7.025-5.183,10.394,1.554,0,0,7.773-4.663,9.845,5.959l.778,7.255S72.574,11.374,80.089,9.3" transform="translate(18.663 0)" fill="#ffc09d"/>
        <path id="Trazado_427" data-name="Trazado 427" d="M40.075,33.137c-.093-.069.941-1.693,3.228-3.769a28.9,28.9,0,0,1,10.378-5.993,29.25,29.25,0,0,1,4.7-1.119l-.431.509c.026-3.464-.375-6.434-.433-8.6a10.86,10.86,0,0,1,.182-3.429,17.109,17.109,0,0,1,.457,3.382,77.273,77.273,0,0,1,.811,8.638l.006.434-.434.074a31.989,31.989,0,0,0-4.528,1.121,32.678,32.678,0,0,0-10.222,5.558c-2.352,1.875-3.581,3.312-3.715,3.2" transform="translate(34.317 9.191)" fill="#ff9b6c"/>
        <path id="Trazado_428" data-name="Trazado 428" d="M31.193,10.463a4.86,4.86,0,0,1,.735,1.663,7.309,7.309,0,0,1,.126,5.018c-.412,1.108-1.587,1.8-1.832,2.746a3.42,3.42,0,0,0,.908,3.136,4.98,4.98,0,0,0,7.153-.3,7.416,7.416,0,0,0,1.39-4.008c.136-1.439.152-2.885.156-4.236A65.657,65.657,0,0,0,39.4,7.268,11.737,11.737,0,0,0,38.238,2.66a11.334,11.334,0,0,0-1.1-1.364c.009-.046.707.156,1.442,1.138a10.768,10.768,0,0,1,1.565,4.734,53.727,53.727,0,0,1,.659,7.3,42.953,42.953,0,0,1-.1,4.352,8.29,8.29,0,0,1-1.6,4.576,5.933,5.933,0,0,1-8.7.288,4.288,4.288,0,0,1-1.019-4.056,4.157,4.157,0,0,1,1.092-1.595,4.509,4.509,0,0,0,.9-1.2,7.407,7.407,0,0,0,.156-4.6,7.844,7.844,0,0,1-.336-1.771" transform="translate(25.022 1.105)" fill="#ff9b6c"/>
        <path id="Trazado_429" data-name="Trazado 429" d="M34.107,22.917c.093-.026.189.459.7,1.1a4.443,4.443,0,0,0,2.915,1.574A5.081,5.081,0,0,0,42.1,23.7a9.92,9.92,0,0,0,2.222-5.751,25.351,25.351,0,0,0-1.455-11.56C41.847,3.536,40.8,1.948,40.935,1.855c.095-.08,1.4,1.392,2.627,4.262a23.45,23.45,0,0,1,1.812,11.946,10.552,10.552,0,0,1-2.556,6.3A5.771,5.771,0,0,1,37.6,26.327a4.592,4.592,0,0,1-3.137-2.081c-.459-.8-.407-1.329-.358-1.329" transform="translate(29.185 1.586)" fill="#ff9b6c"/>
        <path id="Trazado_430" data-name="Trazado 430" d="M38.991,22.244c.08-.041.29.345.828.854a5.064,5.064,0,0,0,2.764,1.281A5.355,5.355,0,0,0,46.8,23.2a8.339,8.339,0,0,0,2.762-4.76c.765-4-.524-7.793-.941-10.506-.518-2.725-.769-4.429-.626-4.461s.65,1.611,1.357,4.3c.343,1.348.789,2.931,1.136,4.765a15.7,15.7,0,0,1,.111,6.124,9.012,9.012,0,0,1-3.2,5.309,5.993,5.993,0,0,1-4.947,1.142,5.008,5.008,0,0,1-2.937-1.739c-.494-.655-.574-1.114-.522-1.132" transform="translate(33.382 2.978)" fill="#ff9b6c"/>
        <path id="Trazado_431" data-name="Trazado 431" d="M44.717,20.314c.08-.009.173.464.4,1.285a8.809,8.809,0,0,0,1.48,3.165,4.338,4.338,0,0,0,4.32,1.673c1.723-.447,2.855-2.616,2.725-4.817a69.884,69.884,0,0,0-1.03-11.892c-.512-3.022-1-4.866-.843-4.912.124-.043.869,1.738,1.578,4.764A52.9,52.9,0,0,1,54.7,21.626c.137,2.417-1.144,5.172-3.548,5.757a5.064,5.064,0,0,1-5.161-2.174,7.894,7.894,0,0,1-1.281-3.531c-.106-.874-.059-1.359.007-1.364" transform="translate(38.238 4.123)" fill="#ff9b6c"/>
        <path id="Trazado_432" data-name="Trazado 432" d="M210.714,162.285s-10.175,15.061-12.78,20.1c-2.107,4.079-10.35,21.137-10.725,32.148L207.544,238.2s9.2-7.029,10.671-9.672.115-6.427.115-6.427a24.438,24.438,0,0,1,4.292-2.978s-.882,4.7,2.645,5.584,15.282-11.462,15.282-11.462.882-5.291-2.35-5.584c0,0,2.35-7.348,0-9.4,0,0,2.645-5.877-.588-8.523,0,0-1.468-6.759-3.821-9.111s-26.246,4.7-26.246,4.7,5.66-12.577,6.249-16.1-3.078-6.934-3.078-6.934" transform="translate(160.335 138.988)" fill="#ffc09d"/>
        <path id="Trazado_433" data-name="Trazado 433" d="M209.587,187.791c.052.05-.186.4-.668.965a9.326,9.326,0,0,0-1.708,2.516,4.967,4.967,0,0,0-.605,1.907,4.473,4.473,0,0,0,.44,2.183c.557,1.441,2.692,1.708,4.218.665a49.735,49.735,0,0,0,4.283-3.624q1.866-1.621,3.531-3.063c2.029-1.721,3.334-2.731,3.433-2.621s-1.027,1.313-2.928,3.174l-3.377,3.232a39.053,39.053,0,0,1-4.394,3.809,4.633,4.633,0,0,1-3.175.722,3.135,3.135,0,0,1-2.475-1.879,5.242,5.242,0,0,1-.433-2.675,5.514,5.514,0,0,1,.813-2.172,7.879,7.879,0,0,1,2.085-2.467c.572-.479.906-.724.96-.672" transform="translate(176.171 159.906)" fill="#ff9b6c"/>
        <path id="Trazado_434" data-name="Trazado 434" d="M212.586,175.936c.1.108-1.39,1.728-3.873,4.255-1.179,1.264-2.941,2.722-3.8,4.669-.867,1.825.952,4.769,3.284,4.571a5.927,5.927,0,0,0,3.117-1.728q1.423-1.261,2.759-2.441l4.717-4.092c2.707-2.306,4.429-3.678,4.528-3.57s-1.448,1.678-4.027,4.127c-1.383,1.292-2.913,2.72-4.565,4.261l-2.723,2.493a6.753,6.753,0,0,1-3.709,2.007,4.483,4.483,0,0,1-4.29-5.985,9.648,9.648,0,0,1,2.048-2.827c.717-.767,1.474-1.392,2.12-2,2.636-2.41,4.311-3.841,4.411-3.733" transform="translate(174.465 150.674)" fill="#ff9b6c"/>
        <path id="Trazado_435" data-name="Trazado 435" d="M207.973,185.975c.02.089-.412.176-1.014.6a3.967,3.967,0,0,0-1.619,2.473,3.307,3.307,0,0,0,1.856,3.531,3.155,3.155,0,0,0,2.406.217,7.791,7.791,0,0,0,2.467-1.444c6.59-5.189,11.087-10.363,11.326-10.151.106.089-.886,1.5-2.74,3.568a64.85,64.85,0,0,1-7.931,7.417,8.434,8.434,0,0,1-2.835,1.61,4.126,4.126,0,0,1-3.15-.353,4.084,4.084,0,0,1-2.131-4.559,4.126,4.126,0,0,1,2.142-2.664c.746-.356,1.22-.3,1.222-.243" transform="translate(175.121 155.182)" fill="#ff9b6c"/>
        <path id="Trazado_436" data-name="Trazado 436" d="M208.491,212.378c-.154.024-.267-1.283-1.079-3.269a10.738,10.738,0,0,0-5.9-5.878l-2.233-.858,2.369-.108.054,0h0l.032.991h-.024l-.03,0-.059,0-.035-.993h.028l.03,0-.414.251a21.08,21.08,0,0,0,2.213-6.1,23.587,23.587,0,0,0-1.2-13.146c-1.248-3.221-2.7-4.879-2.53-5,.056-.046.433.347,1.071,1.106a18.14,18.14,0,0,1,2.148,3.6,22.534,22.534,0,0,1,1.552,13.647,20.687,20.687,0,0,1-2.389,6.381l-.141.245-.275.006-.03,0h-.028l-.033-.993h.061l.03,0h.024l.035.991h-.058l.135-.965a10.838,10.838,0,0,1,6.163,6.6,9.892,9.892,0,0,1,.533,2.553c.041.605.033.928-.022.934" transform="translate(170.671 152.675)" fill="#ff9b6c"/>
        <path id="Trazado_437" data-name="Trazado 437" d="M120.994,267.371a11.381,11.381,0,0,1,.557,2.449c.293,1.587.661,3.891,1.067,6.746.817,5.71,1.736,13.63,2.378,22.411s.88,16.753.9,22.521c.011,2.885-.017,5.218-.078,6.83a11.406,11.406,0,0,1-.195,2.5,11.34,11.34,0,0,1-.217-2.5c-.071-1.827-.156-4.108-.26-6.815-.212-5.755-.572-13.7-1.207-22.461s-1.441-16.669-2.064-22.394c-.291-2.694-.537-4.962-.733-6.782a11.363,11.363,0,0,1-.148-2.506" transform="translate(103.598 228.988)" fill="#375a64"/>
        <path id="Trazado_438" data-name="Trazado 438" d="M114.792,271.767c-.028-.046.3-.347,1.066-.516a4.29,4.29,0,0,1,3.173.685,4.417,4.417,0,0,1,1.561,1.732,4.083,4.083,0,0,1,.3,2.7,5.016,5.016,0,0,1-4.42,3.9,5.245,5.245,0,0,1-4.933-3.234,4.869,4.869,0,0,1,.6-4.788,5.2,5.2,0,0,1,2.592-1.934c.735-.227,1.166-.176,1.171-.119.091.176-1.771.342-3.141,2.469a4.164,4.164,0,0,0-.33,3.98,4.348,4.348,0,0,0,3.978,2.567,4.1,4.1,0,0,0,3.527-3.061,3.393,3.393,0,0,0-1.344-3.6,4.233,4.233,0,0,0-2.692-.887c-.7.028-1.079.188-1.116.106" transform="translate(95.205 231.362)" fill="#375a64"/>
        <path id="Trazado_439" data-name="Trazado 439" d="M137.468,205.024s-23.493-8.811-34.263-17.621-41.48-57.945-41.48-57.945L77.248,40.843l-37.833-18.8S-4.513,127.491.381,147.069s84.3,128.5,84.3,128.5l19.5,77.271,20.556,69.5s-8.811,3.915-3.915,17.62,11.2,19.656,4.894,22.515c-10.255,4.652-3.485,12.832-3.485,12.832l165.19,4.056s-21.152-134.106-17.508-158.6c3.715-24.975.124-67.571.124-67.571l-37.619-11.46Z" transform="translate(0 18.88)" fill="#0c8f5a"/>
        <path id="Trazado_440" data-name="Trazado 440" d="M147.89,146.556c17.142,7.871,35.388,119.59,35.388,119.59l40-42.555L247.72,254.4s-34.563,60.693-42.494,66.875c-6.7,5.222-26.9,20.987-40.5,15.6s-22.1-102.027-22.1-102.027Z" transform="translate(122.152 125.517)" fill="#0c8f5a"/>
        <path id="Trazado_441" data-name="Trazado 441" d="M83.823,131s-2.012-13.049,2.28-11.081c.178.082,60.661,19.084,60.24,23.3-.358,3.566.421,14.876.421,14.876H106.847Z" transform="translate(71.387 102.527)" fill="#0c8f5a"/>
        <path id="Trazado_442" data-name="Trazado 442" d="M73.987,207.2a18.721,18.721,0,0,1-.02-3.247c.039-1.04.074-2.313.039-3.793s.017-3.162-.113-5.018a117.938,117.938,0,0,0-1.259-12.988,126.829,126.829,0,0,0-3.494-15.577,127.518,127.518,0,0,0-5.6-14.954,119.01,119.01,0,0,0-6.056-11.56c-.908-1.624-1.866-3.009-2.653-4.261s-1.506-2.3-2.109-3.154a19.2,19.2,0,0,1-1.762-2.725,18.552,18.552,0,0,1,2.094,2.482c.657.815,1.437,1.83,2.269,3.065s1.843,2.59,2.8,4.2a105.755,105.755,0,0,1,6.3,11.543,118.309,118.309,0,0,1,5.731,15.059A118.287,118.287,0,0,1,73.6,182.008a105.523,105.523,0,0,1,1.041,13.11c.082,1.871-.013,3.564-.045,5.05s-.115,2.764-.219,3.806a19.372,19.372,0,0,1-.392,3.225" transform="translate(43.639 111.269)" fill="#1a2e35"/>
        <path id="Trazado_443" data-name="Trazado 443" d="M92.085,259.416c-.052.115-1.866-.523-4.613-1.97a54.175,54.175,0,0,1-18.163-15.808c-1.812-2.521-2.694-4.231-2.586-4.3.28-.2,4.383,6.306,11.475,12.423,7.036,6.178,14.051,9.345,13.888,9.652" transform="translate(57.136 203.266)" fill="#1a2e35"/>
        <path id="Trazado_444" data-name="Trazado 444" d="M139.826,261.655a14.345,14.345,0,0,1-2.647.965,70.411,70.411,0,0,1-7.441,1.912,91.716,91.716,0,0,1-11.291,1.617,103.319,103.319,0,0,1-13.973.091,103.247,103.247,0,0,1-13.838-1.959,91.968,91.968,0,0,1-10.975-3.111,70.7,70.7,0,0,1-7.118-2.89,14.317,14.317,0,0,1-2.5-1.311,14.348,14.348,0,0,1,2.658.93c1.669.683,4.129,1.572,7.194,2.56a105.2,105.2,0,0,0,10.936,2.866,112.618,112.618,0,0,0,13.708,1.856,112.515,112.515,0,0,0,13.831-.007A105.627,105.627,0,0,0,129.6,263.8c3.169-.57,5.725-1.123,7.47-1.576a14.309,14.309,0,0,1,2.759-.566" transform="translate(59.992 220.072)" fill="#1a2e35"/>
        <path id="Trazado_445" data-name="Trazado 445" d="M161.76,204.646a3.536,3.536,0,0,1,.173.986c.059.652.21,1.61.251,2.853a61.54,61.54,0,0,1-.336,10.533,66.953,66.953,0,0,1-39.422,53.809,61.433,61.433,0,0,1-9.943,3.5c-1.2.336-2.155.483-2.8.622a3.568,3.568,0,0,1-.991.134,34.86,34.86,0,0,1,3.676-1.153,72.463,72.463,0,0,0,9.741-3.778A68.311,68.311,0,0,0,161.1,218.926a72.369,72.369,0,0,0,.666-10.428,34.9,34.9,0,0,1-.009-3.852" transform="translate(93.091 175.268)" fill="#1a2e35"/>
        <path id="Trazado_446" data-name="Trazado 446" d="M146.224,166.314a11.084,11.084,0,0,1-.011,1.778q-.086,1.882-.236,5.081c-.149,2.2-.221,4.9-.265,8.04-.087,3.134-.15,6.7-.076,10.65-.013,7.894.434,17.287,1.071,27.7.726,10.413,1.8,21.841,3.141,33.815,2.751,23.948,5.9,45.553,7.972,61.22,1.041,7.834,1.866,14.176,2.369,18.566q.356,3.183.566,5.057a10.989,10.989,0,0,1,.124,1.773,11.152,11.152,0,0,1-.338-1.745q-.281-1.863-.761-5.031c-.653-4.472-1.572-10.773-2.7-18.516-2.261-15.637-5.529-37.229-8.283-61.205-1.344-11.987-2.387-23.436-3.061-33.869-.585-10.439-.956-19.855-.847-27.767-.026-3.954.089-7.53.234-10.669.1-3.141.234-5.842.446-8.046q.276-3.194.436-5.074a10.812,10.812,0,0,1,.223-1.762" transform="translate(124.07 142.439)" fill="#1a2e35"/>
        <path id="Trazado_447" data-name="Trazado 447" d="M145.711,147.131a10.8,10.8,0,0,1-2.545.754,35.867,35.867,0,0,1-7.2.817,45.914,45.914,0,0,1-10.693-1.149,74.443,74.443,0,0,1-12.494-4.1,119.791,119.791,0,0,1-20.725-11.725c-2.512-1.721-4.509-3.16-5.876-4.173a12.7,12.7,0,0,1-2.061-1.665,12.7,12.7,0,0,1,2.293,1.324c1.61,1.034,3.639,2.337,6.058,3.889a139.893,139.893,0,0,0,20.724,11.374,79.65,79.65,0,0,0,12.3,4.125,48.848,48.848,0,0,0,10.474,1.351c6.045.065,9.706-1.045,9.744-.821" transform="translate(72.043 107.811)" fill="#1a2e35"/>
        <path id="Trazado_448" data-name="Trazado 448" d="M161.493,240.831c-.288-.054.772-6.926,2.369-15.347s3.123-15.206,3.41-15.15-.772,6.925-2.369,15.347-3.123,15.2-3.41,15.15" transform="translate(138.269 180.138)" fill="#1a2e35"/>
        <g id="Grupo_192" data-name="Grupo 192" transform="translate(178.078 408.591)" opacity="0.3">
          <g id="Grupo_191" data-name="Grupo 191">
            <g id="Grupo_190" data-name="Grupo 190" clip-path="url(#clip-path-4)">
              <path id="Trazado_449" data-name="Trazado 449" d="M122.625,263a83.31,83.31,0,0,1-17.144,3.575c-2.553.256-5.376.319-7.392-1.268a6.6,6.6,0,0,1-1.669-7.487,10.884,10.884,0,0,1,5.772-5.575c8.95-4.1,20.458.3,28.762-4.988,4.17-2.655,6.616-7.231,9.561-11.2a46.668,46.668,0,0,1,19.829-15.347,4.893,4.893,0,0,1,3.485-.436c2.519.952,1.99,4.665.841,7.1-8.477,17.954-22.574,31.73-42.043,35.627" transform="translate(-95.925 -220.093)"/>
            </g>
          </g>
        </g>
        <g id="Grupo_195" data-name="Grupo 195" transform="translate(269.686 339.911)" opacity="0.3">
          <g id="Grupo_194" data-name="Grupo 194">
            <g id="Grupo_193" data-name="Grupo 193" clip-path="url(#clip-path-5)">
              <path id="Trazado_450" data-name="Trazado 450" d="M145.4,183.1c12.173,29.75,7.892,64.987,23.586,93.037,2.978,5.324,6.715,10.519,7.411,16.58s-3.273,13.223-9.373,13.186a11.113,11.113,0,0,1-9.433-5.69c-1.738-3.345-1.595-7.663-2.027-11.41-2.651-22.973-6.442-45.966-8.56-68.995-1.119-12.175-.761-24.368-1.732-36.555" transform="translate(-145.27 -183.098)"/>
            </g>
          </g>
        </g>
        <g id="Grupo_198" data-name="Grupo 198" transform="translate(158.613 235.501)" opacity="0.3">
          <g id="Grupo_197" data-name="Grupo 197">
            <g id="Grupo_196" data-name="Grupo 196" clip-path="url(#clip-path-6)">
              <path id="Trazado_451" data-name="Trazado 451" d="M85.439,126.856a120.272,120.272,0,0,0,32.744,26.759,32.877,32.877,0,0,0,9.683,3.947,13.574,13.574,0,0,0,10.1-1.669,6.48,6.48,0,0,0,2.775-3.555,3.748,3.748,0,0,0-1.383-4.079,6.3,6.3,0,0,0-3.089-.679c-18.388-.984-36.03-10.591-50.828-20.723" transform="translate(-85.439 -126.856)"/>
            </g>
          </g>
        </g>
        <path id="Trazado_452" data-name="Trazado 452" d="M95.122,139.947c-.215.156-2.218-3.525-2-8.529.165-5.007,2.441-8.525,2.644-8.352.3.132-1.439,3.672-1.584,8.393-.213,4.717,1.251,8.378.943,8.488" transform="translate(79.737 105.395)" fill="#1a2e35"/>
        <path id="Trazado_453" data-name="Trazado 453" d="M105.507,145.128c-.312-.076.637-4.129.5-9.191-.089-5.063-1.216-9.069-.908-9.16.243-.106,1.871,3.889,1.968,9.137.136,5.244-1.314,9.31-1.561,9.214" transform="translate(89.967 108.576)" fill="#1a2e35"/>
        <path id="Trazado_454" data-name="Trazado 454" d="M113.15,145.223c-.3-.123.945-3.217,1.164-7.235.265-4.015-.59-7.235-.282-7.322.241-.113,1.615,3.137,1.34,7.387-.239,4.249-2,7.313-2.222,7.17" transform="translate(96.868 111.906)" fill="#1a2e35"/>
        <path id="Trazado_455" data-name="Trazado 455" d="M87.44,133.566c-.219.178-2.038-2.816-1.663-6.936a8.982,8.982,0,0,1,1.686-4.9,2.223,2.223,0,0,1,1.465-.817c.416-.015.609.124.594.184-.019.149-.843.082-1.47,1.1a10.941,10.941,0,0,0-1.218,4.53c-.358,3.774.9,6.731.607,6.843" transform="translate(73.419 103.554)" fill="#1a2e35"/>
        <path id="Trazado_456" data-name="Trazado 456" d="M24.3,86.418c-.167-.21,3.256-2.915,8.257-4.743,4.992-1.862,9.351-2.029,9.36-1.762.041.316-4.147.947-8.993,2.755-4.858,1.775-8.451,4.015-8.625,3.75" transform="translate(20.805 68.355)" fill="#1a2e35"/>
        <path id="Trazado_457" data-name="Trazado 457" d="M251.143,226.692c-.093,1.938-50.163,170.36-50.163,170.36l43.11-19.283,23.618,52.062L298.07,229.3Z" transform="translate(172.128 194.149)" fill="#f6921e"/>
        <path id="Trazado_458" data-name="Trazado 458" d="M247.77,237.347,258,430.423l37.55-52.961,48.535,34.706L295.547,222.549Z" transform="translate(212.201 190.601)" fill="#f6921e"/>
        <g id="Grupo_201" data-name="Grupo 201" transform="translate(420.011 415.415)" opacity="0.5">
          <g id="Grupo_200" data-name="Grupo 200">
            <g id="Grupo_199" data-name="Grupo 199" clip-path="url(#clip-path-7)">
              <path id="Trazado_459" data-name="Trazado 459" d="M226.245,241.953a18.5,18.5,0,0,0,16.537,12.958c4.418.184,9.277-1.164,13,1.229s5.3,8,9.67,8.6c5.141.713,8.07-6.132,13-7.747,6.609-2.161,13.548,5.818,20.055,3.364,4.212-1.587,6.2-7,10.548-8.159,1.907-.511,3.917-.089,5.87.187a11.39,11.39,0,0,0,6.642-1.248l-2.384-9.312-4.043-18.059H227.886Z" transform="translate(-226.245 -223.769)"/>
            </g>
          </g>
        </g>
        <path id="Trazado_460" data-name="Trazado 460" d="M253.718,170.252a57.632,57.632,0,0,1,12.592,2.527,5.416,5.416,0,0,1,.4-2.016q5.516-14.795,11.031-29.59l.26-.228a9.656,9.656,0,0,1-3.642-3.666,11.469,11.469,0,0,0-9.921-5.3c-1.985,8.387-4.457,19.877-6.249,27.022-.986,3.934-2.1,8.042-4.467,11.254" transform="translate(217.296 113.012)" fill="#f6921e"/>
        <path id="Trazado_461" data-name="Trazado 461" d="M246.186,207.064A57.7,57.7,0,0,1,239.628,194a4.843,4.843,0,0,1-2.029,1.186c-.277.1-.581.2-.869.3a11.165,11.165,0,0,1-1.708.912,49.584,49.584,0,0,1-5.658,1.812c-2.181.605-4.513,1.253-6.96,1.934-4.947,1.342-9.44,2.5-12.706,3.29s-5.306,1.2-5.343,1.064,1.931-.813,5.146-1.788c1.288-.39,2.783-.828,4.422-1.3-3.529.787-7,1.543-10.2,2.265-1.322,5.774-5.412,11.974-1.8,16.417a6.6,6.6,0,0,0,1.311,1.2c12.971-4.8,29.616-11.025,40.511-13.9a6.951,6.951,0,0,1,2.441-.325" transform="translate(171.692 166.149)" fill="#f6921e"/>
        <path id="Trazado_462" data-name="Trazado 462" d="M243.078,168.6c.019.57.019,1.075.007,1.519,0,.529.007,1.06.011,1.569a58.036,58.036,0,0,1,14.315-1.864c.006-.26.017-.522.033-.782q.337-5.352.674-10.706c.009-.72.02-1.45.032-2.2.134-7.695.433-14.066.7-15.316-2.146-2.543-4.2-7.879-8.571-8.449-3.611-.472-5.478.024-6.993,1.467.017,10.7-.245,24.245-.212,34.762" transform="translate(208.181 113.217)" fill="#f6921e"/>
        <path id="Trazado_463" data-name="Trazado 463" d="M216.82,173.747c.912.351,1.808.674,2.7.984-3.819-1.509-7.712-3.139-11.467-4.738,2.59,1.2,5.53,2.506,8.77,3.754" transform="translate(178.183 145.59)" fill="#e8505b"/>
        <path id="Trazado_464" data-name="Trazado 464" d="M238.6,194.743a57.71,57.71,0,0,1,2.205-13.207c-1.134-.347-2.313-.735-3.518-1.145a59.758,59.758,0,0,1-12.173-3.369,115.855,115.855,0,0,1-12.932-6.035c-2.231-1.2-3.826-2.122-4.58-2.618-.839-.358-1.652-.705-2.447-1.041-1.585,2.592-4.092,4.7-5.8,7.277a9.357,9.357,0,0,0-1.446,4.908c13.248,3.639,29.261,8.417,40.4,15.052.095.058.191.119.288.178" transform="translate(169.504 143.306)" fill="#f6921e"/>
        <path id="Trazado_465" data-name="Trazado 465" d="M239.035,186.84a57.789,57.789,0,0,1,6.054-10.856c-.282-.178-.574-.368-.882-.57a103.206,103.206,0,0,1-18.316-15.548c-.046-.052-.087-.1-.134-.147-2.486-2.15-4.847-4.222-6.952-6.087a5.936,5.936,0,0,1-1.407,2.378c-3.158,3.161-9.074,1.112-12.557,3.908a6.268,6.268,0,0,0-2.218,4.047c10.821,5.71,21.264,12.874,32.1,20.206,1.736,1.036,3.214,1.951,4.309,2.67" transform="translate(173.535 131.577)" fill="#f6921e"/>
        <path id="Trazado_466" data-name="Trazado 466" d="M233.9,175.726c1.424,1.99,2.7,3.795,3.641,5.174a58.137,58.137,0,0,1,10.8-9.891c-1.227-1.552-2.731-3.555-4.39-5.807-1.493-1.714-3.184-3.73-4.955-5.959-2.6-3.269-4.834-6.319-6.384-8.575s-2.426-3.707-2.309-3.791c.085-.061.633.546,1.515,1.617-1.439-1.964-2.779-3.77-3.962-5.319a10.782,10.782,0,0,1-3.906,4.628c-2.571,1.53-5.957,1.448-8.872,2.083a218.365,218.365,0,0,1,16.207,22.225c.787,1.073,1.669,2.295,2.616,3.615" transform="translate(184.205 122.621)" fill="#f6921e"/>
        <path id="Trazado_467" data-name="Trazado 467" d="M242.116,174.484a57.6,57.6,0,0,1,10.545-4.957c-.128-.423-.262-.874-.407-1.374-.787-2.747-1.738-6.585-2.573-10.869s-1.392-8.2-1.693-11.042a32.943,32.943,0,0,1-.282-4.415c-.041-.271-.08-.531-.121-.793a10.308,10.308,0,0,1-7.58-2.46c-3.362-3.02-9.052-2.638-13.45-.73,4.628,11.17,11.571,26.49,15.41,36.243.05.13.1.264.15.4" transform="translate(194.032 116.785)" fill="#f6921e"/>
        <path id="Trazado_468" data-name="Trazado 468" d="M226.971,163.9c-.045-.054-.1-.119-.145-.173.041.069.08.137.119.206l.026-.033" transform="translate(194.264 140.22)" fill="#e8505b"/>
        <path id="Trazado_469" data-name="Trazado 469" d="M241.37,199.35a57.754,57.754,0,0,1-2.215-14c-.113.009-.228.019-.34.024-4.03.212-8.829.147-13.844-.046-1.522.007-3.1,0-4.758-.032-4.845-.106-9.225-.4-12.384-.705-1.433-.141-2.6-.28-3.46-.407-1.056-.061-2.092-.121-3.085-.173-.687,1.06-1.383,2.116-2,3.21-1.76,3.108-2.881,7.032-1.212,10.188.052.1.126.18.182.275q20.2.479,40.393,1.188a7,7,0,0,1,2.727.479" transform="translate(168.933 157.594)" fill="#f6921e"/>
        <path id="Trazado_470" data-name="Trazado 470" d="M249.44,213.472c.323-.215.6-.392.852-.544a58.26,58.26,0,0,1-10.261-10.444,4.849,4.849,0,0,1-1.584,1.706,4.18,4.18,0,0,1-1.153,1.578c-2.612,1.988-6.277,4.3-10.353,6.973-4.077,2.636-7.8,4.975-10.526,6.622s-4.448,2.6-4.528,2.482,1.5-1.3,4.121-3.111c1.489-1.028,3.34-2.274,5.387-3.629-3.939,2.387-7.918,4.773-11.48,6.952.666,3-.386,6.511.991,9.334,1.357,2.783,4.229,3.678,7.424,4.242q12.111-9,24.219-18a29.863,29.863,0,0,1,6.889-4.158" transform="translate(179.781 173.416)" fill="#f6921e"/>
        <path id="Trazado_471" data-name="Trazado 471" d="M290.8,213.449c1.157.9,2.267,1.775,3.308,2.606.074-.067.132-.15.208-.215-.343-.232-.7-.47-1.075-.726-.752-.509-1.574-1.069-2.441-1.665" transform="translate(249.052 182.807)" fill="#e8505b"/>
        <path id="Trazado_472" data-name="Trazado 472" d="M279.3,204.078a58.24,58.24,0,0,1-10.376,9.375,32.478,32.478,0,0,1,2.993,3.507c.115.08.23.15.342.243,1.632,1.316,2.651,3.468,3.976,5.612l4.194,7.157c.046.082.093.16.139.241,2.725,4.543,5.441,9.269,7.851,13.385a6.315,6.315,0,0,1,1.2-1.829c4.231-4.413,12.815-.106,17.3-4.255a6.435,6.435,0,0,0,1.125-1.416c-8.237-8.98-19.238-21.568-26.228-28.918a18.134,18.134,0,0,1-2.525-3.1m3.232,9.644c.271-.141,2.274,3.275,5.049,7.272,2.759,4.006,5.248,7.088,5.02,7.29-.2.193-3.087-2.616-5.892-6.687s-4.428-7.753-4.177-7.875" transform="translate(230.317 174.782)" fill="#f6921e"/>
        <path id="Trazado_473" data-name="Trazado 473" d="M251.823,137.107c-.045-.045-.087-.1-.132-.145.03.241.056.574.078.989.019-.282.035-.562.054-.845" transform="translate(215.559 117.3)" fill="#e8505b"/>
        <path id="Trazado_474" data-name="Trazado 474" d="M283.225,187.254a57.54,57.54,0,0,1-2.785,12.221c.542.225,1.071.49,1.591.757,1.856.952,3.731,1.938,5.618,2.929-3.408-1.938-5.528-3.234-5.454-3.371.141-.258,7.84,3.605,17.207,8.629,4.157,2.231,7.94,4.314,10.853,5.965.626.269,1.255.551,1.881.808a8.365,8.365,0,0,1,.423-2.824c1.585-4.578,7.441-6.984,9.457-11.016-12.3-4.5-28.092-10.1-38.79-14.1" transform="translate(240.181 160.373)" fill="#f6921e"/>
        <path id="Trazado_475" data-name="Trazado 475" d="M275.974,206.862c1.134.873,2.551,1.942,4.16,3.149.188.126.364.243.559.375,3.342,2.261,7.912,5.443,12.923,9.009s9.512,6.845,12.743,9.262c.434.327.841.633,1.227.926,1.973-1.463,4.465-2.374,6.583-3.644-10.467-9.167-22.818-21.811-32.228-29.022a57.95,57.95,0,0,1-5.967,9.945" transform="translate(236.357 168.649)" fill="#f6921e"/>
        <path id="Trazado_476" data-name="Trazado 476" d="M256.592,216.435a11.168,11.168,0,0,0-.614-1.17,57.677,57.677,0,0,1-10.626-5.341c-.091.124-.184.245-.277.36-.743.915-1.6,1.9-2.534,2.926-1.674,2.04-3.958,4.671-6.59,7.493-2.8,3-5.426,5.612-7.389,7.446s-3.243,2.9-3.343,2.792c-.052-.052.191-.382.652-.923-1.663,1.669-3.234,3.286-4.663,4.817,2.241,4.654.082,11.467,3.841,15.234a6.545,6.545,0,0,0,2.386,1.519c8.1-10.923,19.225-25.084,27.123-33.849a3.351,3.351,0,0,1,2.037-1.305" transform="translate(189.451 179.788)" fill="#f6921e"/>
        <path id="Trazado_477" data-name="Trazado 477" d="M253.711,218.6a4.8,4.8,0,0,1,.915,2.67,12.6,12.6,0,0,1,.42,6.238c-.312,2.46-.648,5.1-1,7.869-.49,3.689-.973,7.131-1.413,10.1-.31,3.9-.626,7.721-.965,11.172,2.259,1.68,4.39,3.938,7.045,4.8,3.9,1.266,7.383-.629,10.847-3.154-.789-13.051-1.485-29.315-.962-40.927.2.459.4.943.605,1.422-.165-.666-.234-1.058-.171-1.08.135-.046.885,1.719,1.938,4.628s2.4,6.969,3.735,11.5q.557,1.891,1.043,3.665c1.415,4.823,2.657,9.7,3.6,14.224a11.015,11.015,0,0,1,4.582-.937c3.585.113,7.368,2.239,10.76,2.683-5.742-13.9-11.874-31.3-14.224-43.194a57.525,57.525,0,0,1-26.753,8.322m7.389,22.146c-.3-.022-.342-2.577-.436-5.707s-.189-5.684.108-5.723.865,2.5.952,5.694-.338,5.761-.624,5.736" transform="translate(215.539 180.093)" fill="#f6921e"/>
        <path id="Trazado_478" data-name="Trazado 478" d="M263.873,216.611a2.858,2.858,0,0,1,.223-.195,57.712,57.712,0,0,1-18.048-3.522,6.187,6.187,0,0,1,.477.655c.072.108.139.252.208.377,1.192.332,1.561,2.012,1.42,3.319a15.976,15.976,0,0,1-.336,1.9,17.482,17.482,0,0,1-1.2,5.269c-.9,2.337-2.085,4.76-3.338,7.32a136.376,136.376,0,0,1-7.173,12.68c-1.2,1.868-2.172,3.26-2.8,4.077a9.517,9.517,0,0,1,2.165.537c5.671,2.22,8.746,10.459,14.8,9.761a5.228,5.228,0,0,0,.549-.1c3.548-11.289,7.093-26.926,10.637-37.406a11.746,11.746,0,0,1,2.41-4.667" transform="translate(199.821 182.332)" fill="#f6921e"/>
        <path id="Trazado_479" data-name="Trazado 479" d="M282.653,183.431q1-.913,2.068-1.754a11.157,11.157,0,0,1,2.7-2.664c1.606-1.14,3.4-2.241,5.3-3.412,3.808-2.321,7.364-4.235,9.982-5.53,1.786-.882,3.115-1.474,3.813-1.726q1.843-1.053,3.615-2.129c-.015-.024-.037-.041-.052-.063-3.587-5.625,1.051-14.146-3.16-19.32a7.151,7.151,0,0,0-.626-.65c-10.617,7.856-24.3,16.775-36.2,23.818a58.156,58.156,0,0,1,12.566,13.431m2.547-22.754c4.11-2.634,7.361-4.914,7.546-4.676.178.221-2.814,2.9-6.973,5.567s-7.834,4.288-7.96,4.036c-.139-.269,3.284-2.28,7.387-4.927" transform="translate(231.315 125.196)" fill="#f6921e"/>
        <path id="Trazado_480" data-name="Trazado 480" d="M281.743,179.495a58.289,58.289,0,0,1,.765,9.362c0,.579-.028,1.149-.044,1.725.321,0,.642,0,.962.013,1.7.065,3.4.167,5.094.293.382.007.785.015,1.209.028,3.5.091,8.328.325,13.654.724,4.988.375,9.509.828,12.917,1.238.852-3.839,5.6-5.762,6.993-9.492a7.84,7.84,0,0,0-.4-5.844c-12.444.7-29.243,1.725-39.611,1.972-.509.013-1.025.013-1.535-.019" transform="translate(241.297 152.055)" fill="#f6921e"/>
        <path id="Trazado_481" data-name="Trazado 481" d="M284.372,141.88q-10.323,12.977-20.644,25.955a6.93,6.93,0,0,1-1.539,1.424A57.717,57.717,0,0,1,275,176.17c.091-.121.193-.245.284-.368l0-.013a5.974,5.974,0,0,1,1.261-1.99c.919-1.056,2.022-2.3,3.214-3.637,6.069-7.329,13.084-14.738,18.891-20.9a9.011,9.011,0,0,1-3.176-2.014c-2.554-2.582-3.106-6.886-6.15-8.865a6.756,6.756,0,0,0-3.193-1.023,2.371,2.371,0,0,1,.069.232c.221,1.584-.833,3.033-1.829,4.285" transform="translate(224.55 117.644)" fill="#f6921e"/>
        <path id="Trazado_482" data-name="Trazado 482" d="M283.514,187.588c.566-.249,1.11-.5,1.7-.746a28.043,28.043,0,0,1,3.967-1.8c2.525-1.027,6.035-2.374,9.936-3.8s7.45-2.664,10.04-3.511,4.221-1.3,4.277-1.166c.032.08-.507.364-1.465.793,1.814-.592,3.566-1.17,5.241-1.725-.082-4.246,1.184-8.738-.967-12.334a8.767,8.767,0,0,0-2.131-2.313c-11.1,4.48-26.256,11.529-35.993,13.567a57.477,57.477,0,0,1,5.4,13.036" transform="translate(238.19 137.875)" fill="#f6921e"/>
        <path id="Trazado_483" data-name="Trazado 483" d="M302.38,186.438l.006-.061c-1.417-.106-2.935-.217-4.539-.338q2.264.225,4.533.4" transform="translate(255.089 159.332)" fill="#e8505b"/>
        <path id="Trazado_484" data-name="Trazado 484" d="M240.906,153.925c.1.488.2.93.286,1.35.1-.035.2-.071.306-.1-.286-.735-.568-1.526-.843-2.41.084.388.174.808.251,1.164" transform="translate(206.108 130.831)" fill="#e8505b"/>
        <path id="Trazado_485" data-name="Trazado 485" d="M287.768,145.107l.05.015-.05-.015" transform="translate(246.457 124.276)" fill="#e8505b"/>
        <path id="Trazado_486" data-name="Trazado 486" d="M269.263,158.558a2.521,2.521,0,0,1,.111-.488c-.091.121-.195.245-.284.368l.173.121" transform="translate(230.461 135.378)"/>
        <path id="Trazado_487" data-name="Trazado 487" d="M277.826,168.566a5.675,5.675,0,0,1,.364-1.908,6.177,6.177,0,0,1,.735-1.357q-1.069.841-2.068,1.754c.334.5.65,1,.969,1.511" transform="translate(237.113 141.571)" fill="#e8505b"/>
        <path id="Trazado_488" data-name="Trazado 488" d="M298.384,202.947c0-.091,0-.18,0-.271-.626-.256-1.253-.538-1.881-.808q1.019.579,1.884,1.079" transform="translate(253.936 172.889)"/>
        <path id="Trazado_489" data-name="Trazado 489" d="M280.245,205.421c-1.611-1.2-3.028-2.276-4.16-3.148-.078.1-.16.2-.238.306.776.442,2.315,1.441,4.4,2.842" transform="translate(236.248 173.236)"/>
        <path id="Trazado_490" data-name="Trazado 490" d="M282.469,231.027c.16.291.3.559.451.832.043-.106.076-.215.123-.317-2.41-4.118-5.124-8.842-7.849-13.385,2.891,4.994,5.456,9.54,7.275,12.871" transform="translate(235.688 186.839)"/>
        <path id="Trazado_491" data-name="Trazado 491" d="M252.133,214.811a5.725,5.725,0,0,1,1.972,2.263c.054.111.076.243.122.358a4.8,4.8,0,0,0-.913-2.67c-.392.022-.787.033-1.181.048" transform="translate(215.938 183.933)" fill="#e8505b"/>
        <path id="Trazado_492" data-name="Trazado 492" d="M240.542,213.451a9.319,9.319,0,0,1,1.086,3.932,11,11,0,0,1,0,1.285,16.325,16.325,0,0,0,.336-1.9c.141-1.305-.228-2.987-1.42-3.317" transform="translate(206.011 182.809)" fill="#e8505b"/>
        <path id="Trazado_493" data-name="Trazado 493" d="M235.51,209.979l-.186-.119c-.384.585-1.179,1.634-2.3,3.011-.1.123-.223.267-.327.394.932-1.027,1.791-2.011,2.536-2.926.093-.115.186-.236.277-.36" transform="translate(199.293 179.734)"/>
        <path id="Trazado_494" data-name="Trazado 494" d="M223.051,174.234a4.526,4.526,0,0,1-2.233.481c-.525-.048-1.123-.154-1.691-.239,1.2.41,2.384.8,3.518,1.144.134-.46.262-.924.407-1.385" transform="translate(187.669 149.222)"/>
        <path id="Trazado_495" data-name="Trazado 495" d="M235.736,160.34a19.494,19.494,0,0,1-3.15-3.1c-.587-.642-1.255-1.4-1.951-2.2,1.658,2.252,3.163,4.255,4.391,5.807.238-.169.47-.342.711-.507" transform="translate(197.526 132.783)"/>
        <path id="Trazado_496" data-name="Trazado 496" d="M242.994,154.239c.057-.015.115-.033.173-.05,0-.509-.007-1.04-.011-1.569a7.309,7.309,0,0,1-.161,1.619" transform="translate(208.111 130.711)"/>
        <path id="Trazado_497" data-name="Trazado 497" d="M250.8,157.761c.11,0,.217-.007.327-.007.152,0,.3.009.455.011-.1-2.3-.136-6.524-.074-11.491l-.674,10.706c-.017.258-.028.52-.033.782" transform="translate(214.795 125.275)"/>
        <path id="Trazado_498" data-name="Trazado 498" d="M260.9,166.615a5.4,5.4,0,0,0-.4,2.014c1.06.34,2.1.715,3.135,1.114a6.929,6.929,0,0,0,1.539-1.424Q275.5,155.34,285.82,142.364c.995-1.251,2.049-2.7,1.829-4.285a2.412,2.412,0,0,0-.069-.232c-3.717-.314-8,1.552-11.718.4a26.93,26.93,0,0,1-2.621-.934c-1.069,3.2-2.824,8.113-4.881,13.606-3.57,9.527-6.685,17.165-6.958,17.063s2.395-7.907,5.965-17.436c2.066-5.517,3.977-10.389,5.276-13.5-.158-.078-.306-.163-.455-.245l-.262.228q-5.514,14.795-11.029,29.59m10.756-8.5c3.163-4.017,5.731-7.287,5.974-7.114s-1.955,3.724-5.14,7.769-6.124,7.021-6.34,6.83,2.347-3.462,5.506-7.485" transform="translate(223.104 117.159)" fill="#e8505b"/>
        <path id="Trazado_499" data-name="Trazado 499" d="M279,158.647c3.434-3.731,6.589-7.067,8.909-9.449s3.813-3.8,3.921-3.7-1.188,1.7-3.368,4.212-5.248,5.928-8.683,9.659-6.59,7.071-8.909,9.449a4.141,4.141,0,0,0-1.415,2.354c.394.29.78.59,1.164.891,11.909-7.043,25.589-15.962,36.206-23.818a9.068,9.068,0,0,0-3.332-1.977l-.05-.017c-3.414-1.186-7.637-1.14-11.024-2.473-5.805,6.158-12.821,13.569-18.889,20.9,1.641-1.836,3.479-3.865,5.469-6.026" transform="translate(230.778 123.135)" fill="#e8505b"/>
        <path id="Trazado_500" data-name="Trazado 500" d="M300.558,158.975c.067.134-1.485,1.054-4,2.514s-6,3.466-9.785,5.775c-3.722,2.352-7.509,4.2-8.59,6.811a5.379,5.379,0,0,0-.488,2.527c.275.457.533.923.8,1.387,9.737-2.038,24.9-9.087,35.993-13.569-3.377-2.7-8.447-3.761-10.853-7.448q-1.768,1.078-3.615,2.129c.325-.117.525-.167.546-.126M293.407,171.1c-3.156,1.381-5.746,2.454-5.883,2.191s2.267-1.764,5.456-3.161,5.924-2.146,6.02-1.875-2.441,1.459-5.593,2.846" transform="translate(237.819 134.438)" fill="#e8505b"/>
        <path id="Trazado_501" data-name="Trazado 501" d="M306.933,171.672c-2.525,1.027-6.041,2.376-9.947,3.808s-7.467,2.67-10.056,3.514-4.216,1.3-4.262,1.162c-.006-.017.017-.041.05-.071-.587.247-1.129.5-1.695.744a57.457,57.457,0,0,1,1.337,6.089c.51.032,1.027.032,1.535.019,10.366-.247,27.167-1.272,39.611-1.973A17.169,17.169,0,0,0,321.1,181c-2.22-2.785-4.96-5.354-5.943-8.777a13.037,13.037,0,0,1-.446-3.349c-1.674.555-3.427,1.131-5.243,1.723-.659.3-1.511.655-2.54,1.073" transform="translate(240.681 144.633)" fill="#e8505b"/>
        <path id="Trazado_502" data-name="Trazado 502" d="M303.135,186.683l-13.615-1.034c-3.485-.282-5.64-.507-5.632-.655a20.633,20.633,0,0,1,4.463-.121c-1.693-.124-3.392-.227-5.094-.291-.317-.013-.639-.019-.96-.015q-.075,2.523-.356,4.99c10.7,4,26.5,9.6,38.79,14.1a6.267,6.267,0,0,0,.7-2.662c.132-4.871-5.716-8.582-5.424-13.294q-2.27-.175-4.533-.4l-8.335-.618" transform="translate(241.466 158.07)" fill="#e8505b"/>
        <path id="Trazado_503" data-name="Trazado 503" d="M288.719,197.524c-1.884-.993-3.759-1.977-5.616-2.931-.52-.265-1.051-.531-1.593-.756a57.058,57.058,0,0,1-2.322,5.716c9.41,7.21,21.761,19.857,32.228,29.022a8.656,8.656,0,0,0,3.238-3.03c2.54-4.429-.908-9.841-1.4-14.926-3.163-1.561-7.953-4.043-13.287-6.9-4.355-2.337-8.289-4.506-11.252-6.191" transform="translate(239.109 166.011)" fill="#e8505b"/>
        <path id="Trazado_504" data-name="Trazado 504" d="M294.259,215.442c-5.016-3.572-9.522-6.852-12.752-9.269-2.3-1.723-3.938-2.994-4.665-3.631-.746.976-1.526,1.923-2.332,2.85a18.242,18.242,0,0,0,2.527,3.1c6.989,7.35,17.991,19.938,26.228,28.918,1.925-3.171,1.465-7.8,3.752-10.907a7.757,7.757,0,0,1,1.04-1.11c-1.041-.832-2.152-1.7-3.308-2.606-2.989-2.053-6.6-4.582-10.489-7.348" transform="translate(235.103 173.466)" fill="#e8505b"/>
        <path id="Trazado_505" data-name="Trazado 505" d="M281,226.178c-1.452-2.536-2.835-4.953-4.121-7.2-1.286-2.2-2.243-4.331-3.613-5.528a3.868,3.868,0,0,0-3.93-.886c-.96.362-1.218.98-1.305.912-.041.015.085-.731,1.136-1.288a4.205,4.205,0,0,1,4.24.446,32.684,32.684,0,0,0-2.993-3.507c-1.056.744-2.129,1.465-3.236,2.14,2.348,11.889,8.482,29.291,14.224,43.194a6.076,6.076,0,0,0,4.725-1.066c3.62-2.777,2.133-8.6,3.366-12.952-.256-.412-.524-.845-.809-1.311-2.014-3.288-4.736-7.866-7.684-12.956" transform="translate(228.824 179.107)" fill="#e8505b"/>
        <path id="Trazado_506" data-name="Trazado 506" d="M270.066,242.259c.689,3.017,1.014,4.907.874,4.942s-.726-1.79-1.6-4.752c-.973-3.338-2.114-7.253-3.377-11.579-1.283-4.322-2.443-8.233-3.431-11.568-.485-1.652-.848-2.941-1.056-3.78-.2-.479-.4-.965-.605-1.424-.523,11.612.175,27.878.962,40.929,3.173-2.315,6.336-5.135,9.789-6.568-.943-4.526-2.185-9.4-3.6-14.224.848,3.071,1.546,5.846,2.044,8.024" transform="translate(223.266 183.364)" fill="#e8505b"/>
        <path id="Trazado_507" data-name="Trazado 507" d="M259.634,245.775c-.581,3.642-1.012,5.885-1.157,5.866s.024-2.3.414-5.965,1-8.723,1.741-14.3c.381-2.766.744-5.4,1.082-7.855a11.858,11.858,0,0,0-.256-6.163,5.324,5.324,0,0,0-2.218-2.549c-.408.007-.811.03-1.222.03-.672,0-1.337-.028-2-.05-.072.067-.154.126-.223.195a11.828,11.828,0,0,0-2.408,4.667c-3.546,10.482-7.092,26.116-10.636,37.407,4.19-.885,6.9-6,11.243-6.269a8.039,8.039,0,0,1,5.315,2c.34-3.451.655-7.274.965-11.172-.226,1.52-.44,2.926-.637,4.158" transform="translate(207.9 183.957)" fill="#e8505b"/>
        <path id="Trazado_508" data-name="Trazado 508" d="M249.834,230.8c1.242-2.538,2.462-4.964,3.375-7.2a16.1,16.1,0,0,0,1.359-6.171,9.866,9.866,0,0,0-.847-4,3.357,3.357,0,0,0-2.037,1.3c-7.9,8.766-19.027,22.927-27.125,33.85,4.478,1.688,10.615-1.188,15.9-.613.477-.887,1.363-2.408,2.51-4.409,1.847-3.221,4.342-7.7,6.865-12.763" transform="translate(192.323 182.792)" fill="#e8505b"/>
        <path id="Trazado_509" data-name="Trazado 509" d="M231.656,231.416c1.437-1.687,5.089-5.512,9.306-10.038,4.593-4.916,8.41-9.115,9.743-10.335q-1.991-1.3-3.867-2.751a63.015,63.015,0,0,1-5.081,4.29c-3.332,2.584-6.176,4.493-6.356,4.26s2.374-2.514,5.707-5.1c1.713-1.331,3.29-2.473,4.45-3.245a29.875,29.875,0,0,0-6.891,4.158l-24.217,18c4.188.739,8.93.91,11.551,4.006a7.22,7.22,0,0,1,.993,1.571c1.429-1.533,3-3.15,4.663-4.819" transform="translate(183.664 178.391)" fill="#e8505b"/>
        <path id="Trazado_510" data-name="Trazado 510" d="M233.181,213.1c4.041-2.651,7.882-4.942,10.444-6.654a3.423,3.423,0,0,0,1.186-1.513,2.321,2.321,0,0,0,0-1.429c-.269-.783-.822-.924-.774-1.01-.032-.052.672-.063,1.153.848a2.625,2.625,0,0,1,.193,1.749,2.436,2.436,0,0,1-.123.349,4.837,4.837,0,0,0,1.585-1.706c-.668-.88-1.316-1.773-1.934-2.69a6.993,6.993,0,0,0-2.441.325c-10.9,2.87-27.539,9.093-40.511,13.9,4.166,2.972,11.514,1.686,14.131,6.262a6.246,6.246,0,0,1,.64,1.778c3.563-2.179,7.541-4.565,11.48-6.952q2.331-1.545,4.97-3.254" transform="translate(172.967 172.167)" fill="#e8505b"/>
        <path id="Trazado_511" data-name="Trazado 511" d="M224.422,201.361l6.982-1.853c2.15-.568,4.1-1,5.636-1.565a10.85,10.85,0,0,0,4.389-2.887c.05.028-.123.546-.752,1.29a7.379,7.379,0,0,1-1.65,1.379c.288-.1.592-.2.869-.3a4.863,4.863,0,0,0,2.029-1.186c-.371-1.055-.707-2.122-1.019-3.2a6.959,6.959,0,0,0-2.725-.479q-20.192-.724-40.393-1.188c1.877,3.175,6.045,4.576,7.778,7.862a9.417,9.417,0,0,1,.457,6.678c3.2-.72,6.667-1.478,10.2-2.265,2.452-.705,5.237-1.483,8.2-2.289" transform="translate(169.395 163.902)" fill="#e8505b"/>
        <path id="Trazado_512" data-name="Trazado 512" d="M202.169,192.491c.013-.15,1.975-.1,5.139.015s7.532.288,12.358.394,9.193.123,12.36.139,5.129.056,5.135.206-1.947.369-5.116.544c-2.085.115-4.725.189-7.645.2,5.014.191,9.813.258,13.844.046.111-.006.226-.017.34-.024-.024-.676-.052-1.35-.052-2.031,0-.96.026-1.914.072-2.864-.1-.058-.191-.121-.288-.178-11.139-6.633-27.152-11.413-40.4-15.05-.033,2.382.88,4.585,3.117,5.213l-.282-1.836c3.267,1.439,4.164,5.855,3.136,9.275a24.471,24.471,0,0,1-3.173,6.134c.993.052,2.027.111,3.084.173a4.777,4.777,0,0,1-1.628-.358m28.495-2.872c3.728.659,6.718,1.429,6.683,1.719s-3.111-.011-6.867-.676-6.75-1.433-6.683-1.719,3.139.017,6.867.676" transform="translate(169.504 148.928)" fill="#e8505b"/>
        <path id="Trazado_513" data-name="Trazado 513" d="M203.767,174.928c.069-.134,2.126.795,5.415,2.35,1.225.574,2.668,1.251,4.2,1.96,3.757,1.6,7.65,3.228,11.467,4.738a62.683,62.683,0,0,0,10.823,2.868,3.92,3.92,0,0,0,2.2-.364,2.469,2.469,0,0,0,.3-.249q.6-1.8,1.313-3.55c-1.868-.926-4.714-2.465-7.9-4.3-5.452-3.13-9.756-5.874-9.609-6.126s4.684,2.077,10.138,5.207c1.171.672,2.272,1.32,3.3,1.934-10.838-7.331-21.282-14.493-32.1-20.206-.652,3.826.815,8.725-.379,12.683a10.264,10.264,0,0,1-1.116,2.408q1.189.5,2.445,1.041c-.33-.217-.516-.362-.5-.4" transform="translate(172.846 136.343)" fill="#e8505b"/>
        <path id="Trazado_514" data-name="Trazado 514" d="M215.276,161.857c.115-.1,1.474,1.225,3.685,3.343s5.3,5,8.855,8.027,6.906,5.6,9.357,7.433l.843.631c.705-.975,1.429-1.933,2.192-2.861-.037-.067-.078-.137-.117-.206-1.073-1.274-2.43-3-3.845-4.977-3.017-4.207-5.1-7.858-4.855-8.014.171-.111,1.392,1.454,3.1,3.782a218.572,218.572,0,0,0-16.207-22.225,7.458,7.458,0,0,0-4.428,2.382c-2.254,2.748-1.424,7.051-2.517,10.32,2.105,1.866,4.467,3.938,6.952,6.087-2-2.181-3.117-3.633-3.017-3.722" transform="translate(181.001 125.718)" fill="#e8505b"/>
        <path id="Trazado_515" data-name="Trazado 515" d="M233.933,163.734c5.105,6.436,9.356,11.581,9.247,11.905q1.406-.961,2.866-1.842c-.05-.132-.1-.265-.15-.4-3.839-9.754-10.782-25.073-15.41-36.242a16.389,16.389,0,0,0-2.168,1.11c-3.39,2.113-4.506,6.447-6.353,10.055,1.181,1.548,2.521,3.355,3.96,5.319,1.686,2.046,4.609,5.816,8.009,10.09m5.252-2.942c.284-.1,1.576,2.924,3.3,6.579s3.215,6.583,2.957,6.739c-.241.15-2.178-2.573-3.917-6.288s-2.608-6.939-2.339-7.03" transform="translate(190.101 117.471)" fill="#e8505b"/>
        <path id="Trazado_516" data-name="Trazado 516" d="M238.059,144.422c.15-.019.477,1.719.967,4.526s1.162,6.681,1.992,10.946c.726,3.717,1.441,7.069,2.011,9.726.275.884.559,1.675.845,2.41,1.092-.364,2.2-.7,3.317-1a52.243,52.243,0,0,1-1.023-6.733c-.488-3.761-1-6.809-.7-6.88.275-.071,1.255,2.915,1.754,6.743.178,1.353.271,2.61.3,3.683-.033-10.517.228-24.063.214-34.762-1.7,1.613-2.944,4.418-5.671,8.443a5.578,5.578,0,0,1-4.184,2.326c.041.262.08.522.121.793.011-.128.03-.213.056-.217" transform="translate(203.734 113.973)" fill="#e8505b"/>
        <path id="Trazado_517" data-name="Trazado 517" d="M252,156.345c-.1,5.915-.3,11.055-.512,13.686q2.083.033,4.132.212c2.365-3.212,3.479-7.318,4.465-11.254,1.792-7.145,4.264-18.633,6.251-27.022a8.6,8.6,0,0,0-3.592,1.051c-3.135,1.728-6.937,9.3-8.922,9.332a2.585,2.585,0,0,1-1.832-.964c-.019.282-.035.563-.054.845.139,2.477.173,7.856.065,14.115" transform="translate(215.389 113.022)" fill="#e8505b"/>
        <path id="Trazado_518" data-name="Trazado 518" d="M286.172,178.575c2.592-.847,6.149-2.085,10.056-3.516s7.422-2.781,9.947-3.806c1.028-.42,1.881-.78,2.54-1.073.96-.429,1.5-.713,1.465-.793-.054-.136-1.684.319-4.275,1.166s-6.141,2.083-10.042,3.511-7.409,2.775-9.934,3.8a28.241,28.241,0,0,0-3.969,1.8c-.033.03-.054.056-.05.071.046.139,1.671-.314,4.262-1.16" transform="translate(241.439 145.051)" fill="#1a2e35"/>
        <path id="Trazado_519" data-name="Trazado 519" d="M288.66,184.769q-.635-.017-1.209-.028a20.484,20.484,0,0,0-4.463.121c-.007.148,2.146.371,5.631.655l13.617,1.034,8.335.618,4.539.338a5.433,5.433,0,0,1,.046-.542c.015-.084.058-.152.074-.232-3.408-.412-7.929-.865-12.917-1.238-5.326-.4-10.155-.635-13.654-.726" transform="translate(242.365 158.202)" fill="#1a2e35"/>
        <path id="Trazado_520" data-name="Trazado 520" d="M298.59,202.641c-9.366-5.024-17.066-8.887-17.2-8.629-.074.137,2.042,1.433,5.451,3.371,2.963,1.686,6.9,3.856,11.252,6.191,5.334,2.863,10.121,5.343,13.287,6.9-.026-.265-.039-.531-.048-.795-.577-.334-1.2-.692-1.882-1.079-2.913-1.65-6.7-3.733-10.855-5.965" transform="translate(240.991 166.151)" fill="#1a2e35"/>
        <path id="Trazado_521" data-name="Trazado 521" d="M356.228,270.849c-5.01-3.566-9.581-6.748-12.923-9.009-.195-.132-.371-.249-.557-.375-2.085-1.4-3.622-2.4-4.4-2.844.076-.1.16-.2.236-.3a57.95,57.95,0,0,0,5.967-9.945,57.9,57.9,0,0,0,5.107-17.939q.284-2.464.356-4.99c.017-.574.045-1.145.045-1.723a58.265,58.265,0,0,0-.765-9.362,57.82,57.82,0,0,0-6.737-19.125c-.264-.462-.522-.93-.8-1.385a5.38,5.38,0,0,1,.488-2.527c1.08-2.614,4.868-4.459,8.59-6.813,3.787-2.308,7.268-4.314,9.785-5.773s4.073-2.382,4-2.516c-.02-.041-.221.011-.546.128-.7.252-2.027.843-3.813,1.726-2.618,1.3-6.175,3.21-9.982,5.529-1.9,1.171-3.694,2.272-5.3,3.412a11.151,11.151,0,0,0-2.7,2.666,6.051,6.051,0,0,0-.735,1.355,5.7,5.7,0,0,0-.366,1.91c-.319-.507-.635-1.015-.969-1.511A58.162,58.162,0,0,0,327.657,178c-.386-.3-.77-.6-1.164-.891a4.13,4.13,0,0,1,1.415-2.354c2.319-2.378,5.475-5.718,8.909-9.449s6.5-7.149,8.681-9.659,3.475-4.112,3.368-4.21-1.6,1.324-3.919,3.7-5.475,5.718-8.909,9.447c-1.99,2.163-3.828,4.19-5.469,6.026-1.194,1.333-2.3,2.579-3.215,3.637a5.985,5.985,0,0,0-1.261,1.988l0,.015a2.384,2.384,0,0,0-.111.49l-.174-.122a57.647,57.647,0,0,0-12.809-6.913c-1.032-.4-2.075-.772-3.136-1.112a57.523,57.523,0,0,0-12.592-2.525c-1.364-.121-2.742-.189-4.132-.213.212-2.631.412-7.771.514-13.686.108-6.256.072-11.638-.065-14.115-.024-.416-.05-.746-.08-.988-.071-.078-.141-.149-.212-.232-.273,1.251-.572,7.621-.7,15.316-.013.75-.024,1.481-.033,2.2-.059,4.968-.03,9.188.076,11.491-.154,0-.3-.013-.457-.013-.11,0-.217.007-.327.009a57.859,57.859,0,0,0-14.315,1.864c-.058.015-.115.033-.173.048a7.307,7.307,0,0,0,.161-1.617c.011-.446.011-.949-.007-1.52-.033-1.073-.126-2.33-.3-3.683-.5-3.828-1.48-6.813-1.754-6.743-.293.071.214,3.119.7,6.88a52.373,52.373,0,0,0,1.023,6.735c-1.119.3-2.226.637-3.317,1-.1.033-.2.069-.306.1-.089-.42-.182-.861-.288-1.35-.076-.355-.167-.774-.251-1.164-.57-2.657-1.285-6.009-2.011-9.726-.83-4.264-1.5-8.139-1.992-10.946s-.817-4.543-.967-4.526c-.026,0-.045.089-.056.217a32.946,32.946,0,0,0,.282,4.415c.3,2.842.86,6.757,1.691,11.042s1.788,8.122,2.575,10.869c.143.5.279.951.407,1.374a57.6,57.6,0,0,0-10.545,4.957q-1.462.88-2.866,1.842c.11-.325-4.142-5.471-9.247-11.905-3.4-4.274-6.325-8.044-8.009-10.09-.882-1.071-1.431-1.678-1.515-1.617-.117.084.757,1.537,2.308,3.791s3.789,5.3,6.386,8.575c1.769,2.228,3.462,4.246,4.955,5.959.7.8,1.364,1.556,1.951,2.2a19.611,19.611,0,0,0,3.15,3.1c-.239.165-.473.338-.711.507a58.149,58.149,0,0,0-10.8,9.891c-.936-1.379-2.215-3.184-3.639-5.174-.947-1.32-1.829-2.541-2.616-3.615-1.708-2.328-2.929-3.893-3.1-3.782-.243.156,1.836,3.808,4.853,8.012,1.416,1.979,2.772,3.705,3.847,4.979l.143.173-.026.033c-.763.926-1.487,1.886-2.192,2.861l-.843-.631c-2.451-1.836-5.8-4.416-9.357-7.435s-6.646-5.907-8.857-8.025-3.57-3.449-3.683-3.343c-.1.089,1.017,1.541,3.017,3.722.046.05.085.095.132.147A103.2,103.2,0,0,0,244,189.8q.462.3.882.57a57.732,57.732,0,0,0-6.054,10.856c-1.1-.718-2.573-1.634-4.309-2.67q-1.548-.925-3.3-1.934c-5.454-3.132-9.993-5.463-10.14-5.209s4.157,3,9.611,6.128c3.187,1.83,6.033,3.368,7.9,4.294-.477,1.164-.912,2.348-1.312,3.55a2.313,2.313,0,0,1-.3.249,3.922,3.922,0,0,1-2.2.366,62.814,62.814,0,0,1-10.823-2.868c-.889-.312-1.786-.635-2.7-.986-3.238-1.246-6.18-2.558-8.77-3.754-1.535-.707-2.978-1.387-4.2-1.96-3.288-1.556-5.345-2.482-5.413-2.348-.02.037.165.184.5.4.756.5,2.348,1.415,4.582,2.618a115.956,115.956,0,0,0,12.93,6.035,59.769,59.769,0,0,0,12.175,3.369c.568.084,1.164.193,1.689.241a4.591,4.591,0,0,0,2.235-.481c-.145.457-.275.923-.408,1.385a57.81,57.81,0,0,0-2.205,13.207c-.045.949-.072,1.9-.072,2.864,0,.681.028,1.355.052,2.029a57.832,57.832,0,0,0,2.215,14c.312,1.08.648,2.15,1.019,3.2a57.739,57.739,0,0,0,6.559,13.066c.618.917,1.266,1.81,1.934,2.688a58.209,58.209,0,0,0,10.261,10.446c-.251.15-.531.329-.852.544-1.16.772-2.736,1.914-4.45,3.245-3.332,2.584-5.887,4.868-5.707,5.1s3.024-1.676,6.356-4.261a63.015,63.015,0,0,0,5.081-4.29q1.874,1.454,3.867,2.751c-1.333,1.22-5.15,5.417-9.743,10.335-4.218,4.526-7.869,8.35-9.306,10.038-.46.54-.7.871-.652.923.1.1,1.383-.958,3.343-2.792s4.593-4.45,7.389-7.446c2.632-2.822,4.916-5.452,6.59-7.493.1-.126.227-.271.325-.394,1.121-1.377,1.916-2.426,2.3-3.011l.186.119a57.563,57.563,0,0,0,10.626,5.341,11.169,11.169,0,0,1,.615,1.17,9.835,9.835,0,0,1,.847,4,16.088,16.088,0,0,1-1.357,6.171c-.915,2.237-2.135,4.663-3.377,7.2-2.523,5.064-5.016,9.544-6.865,12.763-1.147,2-2.033,3.522-2.51,4.409.121.013.236.041.355.058.622-.817,1.595-2.211,2.8-4.077a135.978,135.978,0,0,0,7.173-12.68c1.253-2.56,2.441-4.985,3.338-7.322a17.513,17.513,0,0,0,1.2-5.267,11,11,0,0,0,0-1.285,9.321,9.321,0,0,0-1.086-3.932c-.071-.124-.137-.269-.208-.377a6.262,6.262,0,0,0-.477-.655,57.7,57.7,0,0,0,18.046,3.52c.667.022,1.333.05,2.005.05.41,0,.813-.022,1.222-.03a5.331,5.331,0,0,1,2.217,2.549,11.836,11.836,0,0,1,.258,6.163c-.338,2.452-.7,5.089-1.084,7.855-.739,5.575-1.35,10.632-1.741,14.3s-.557,5.944-.412,5.965.575-2.224,1.157-5.866c.2-1.233.41-2.638.637-4.158.438-2.97.923-6.412,1.413-10.1.353-2.772.689-5.412,1-7.869a12.646,12.646,0,0,0-.42-6.24c-.048-.115-.071-.247-.124-.358a5.722,5.722,0,0,0-1.97-2.263c.394-.015.787-.026,1.179-.048a57.544,57.544,0,0,0,26.753-8.321c1.106-.676,2.179-1.4,3.236-2.14a58.226,58.226,0,0,0,10.374-9.375c.8-.926,1.584-1.875,2.33-2.852.73.639,2.363,1.91,4.665,3.631,3.23,2.417,7.736,5.7,12.752,9.269,3.887,2.768,7.5,5.3,10.489,7.35.867.6,1.689,1.157,2.441,1.665.377.254.731.494,1.077.724.178-.152.386-.275.577-.416l-1.229-.926c-3.23-2.417-7.732-5.694-12.743-9.262m-64.053,3.62a50.75,50.75,0,1,1,50.75-50.75,50.749,50.749,0,0,1-50.75,50.75" transform="translate(173.745 117.194)" fill="#1a2e35"/>
        <path id="Trazado_522" data-name="Trazado 522" d="M286.333,223.837c.228-.2-2.261-3.286-5.02-7.29-2.775-4-4.778-7.413-5.049-7.272-.251.123,1.357,3.811,4.177,7.873s5.688,6.88,5.892,6.689" transform="translate(236.583 179.229)" fill="#1a2e35"/>
        <path id="Trazado_523" data-name="Trazado 523" d="M281.667,224.651c-.046-.082-.093-.16-.139-.241l-4.194-7.157c-1.325-2.144-2.345-4.3-3.977-5.612-.111-.093-.226-.163-.342-.243a4.2,4.2,0,0,0-4.238-.446c-1.051.557-1.177,1.305-1.136,1.29.087.067.345-.55,1.305-.913a3.865,3.865,0,0,1,3.928.886c1.372,1.2,2.328,3.329,3.614,5.528l4.121,7.2c2.948,5.09,5.668,9.67,7.684,12.958.286.464.551.9.808,1.309.084-.293.184-.576.293-.854-.148-.271-.293-.54-.453-.832-1.819-3.329-4.385-7.877-7.275-12.871" transform="translate(229.215 180.343)" fill="#1a2e35"/>
        <path id="Trazado_524" data-name="Trazado 524" d="M265.69,230.711c1.262,4.326,2.4,8.243,3.377,11.58.874,2.963,1.455,4.788,1.6,4.751s-.186-1.923-.874-4.942c-.5-2.176-1.2-4.951-2.044-8.024q-.49-1.777-1.041-3.665c-1.335-4.532-2.681-8.59-3.735-11.5s-1.8-4.675-1.94-4.628c-.063.022.006.414.171,1.08.208.841.572,2.129,1.056,3.782.988,3.332,2.148,7.244,3.431,11.566" transform="translate(223.539 183.521)" fill="#1a2e35"/>
        <path id="Trazado_525" data-name="Trazado 525" d="M256.662,220.535c-.3.039-.193,2.592-.108,5.723s.137,5.684.436,5.707.72-2.545.624-5.738-.668-5.731-.952-5.692" transform="translate(219.648 188.876)" fill="#1a2e35"/>
        <path id="Trazado_526" data-name="Trazado 526" d="M237.467,202.673c-.481-.912-1.184-.9-1.153-.848-.048.085.5.226.774,1.01a2.321,2.321,0,0,1,0,1.429,3.418,3.418,0,0,1-1.188,1.513c-2.562,1.712-6.4,4-10.443,6.654q-2.64,1.707-4.97,3.254c-2.048,1.355-3.9,2.6-5.387,3.629-2.621,1.808-4.2,2.989-4.121,3.111s1.8-.834,4.528-2.482,6.447-3.986,10.526-6.622c4.075-2.677,7.74-4.986,10.352-6.973a4.159,4.159,0,0,0,1.153-1.578,2.688,2.688,0,0,0,.123-.349,2.624,2.624,0,0,0-.193-1.749" transform="translate(180.69 172.835)" fill="#1a2e35"/>
        <path id="Trazado_527" data-name="Trazado 527" d="M236.588,194.65c.629-.744.8-1.262.752-1.29a10.851,10.851,0,0,1-4.389,2.887c-1.537.57-3.486,1-5.636,1.565l-6.982,1.853c-2.965.806-5.749,1.584-8.2,2.289-1.639.472-3.134.912-4.422,1.3-3.215.973-5.185,1.645-5.146,1.786s2.077-.275,5.343-1.062,7.758-1.947,12.706-3.291l6.96-1.933a50.463,50.463,0,0,0,5.658-1.812,11.253,11.253,0,0,0,1.708-.912,7.43,7.43,0,0,0,1.65-1.381" transform="translate(173.484 165.598)" fill="#1a2e35"/>
        <path id="Trazado_528" data-name="Trazado 528" d="M235.2,184.708c-.007-.15-1.97-.187-5.135-.206s-7.537-.037-12.362-.139-9.193-.275-12.356-.394-5.127-.165-5.141-.015a4.815,4.815,0,0,0,1.63.358c.863.124,2.027.264,3.46.4,3.16.31,7.539.6,12.384.705,1.66.035,3.236.039,4.758.032,2.918-.013,5.56-.089,7.643-.2,3.171-.175,5.124-.4,5.118-.544" transform="translate(171.465 157.466)" fill="#1a2e35"/>
        <path id="Trazado_529" data-name="Trazado 529" d="M218.54,183.769c3.756.665,6.83.965,6.867.676s-2.955-1.062-6.683-1.719-6.8-.962-6.867-.676,2.926,1.054,6.683,1.719" transform="translate(181.442 155.823)" fill="#1a2e35"/>
        <path id="Trazado_530" data-name="Trazado 530" d="M237.52,163.209c.258-.156-1.244-3.082-2.957-6.739s-3.015-6.68-3.3-6.579.59,3.317,2.339,7.03,3.676,6.438,3.917,6.288" transform="translate(198.023 128.371)" fill="#1a2e35"/>
        <path id="Trazado_531" data-name="Trazado 531" d="M260.994,167.867c.275.1,3.39-7.535,6.958-17.063,2.057-5.493,3.813-10.4,4.881-13.606-.2-.087-.407-.176-.6-.271-1.3,3.115-3.21,7.986-5.276,13.5-3.568,9.529-6.24,17.334-5.965,17.436" transform="translate(223.51 117.271)" fill="#1a2e35"/>
        <path id="Trazado_532" data-name="Trazado 532" d="M269.888,152.219c3.186-4.045,5.378-7.608,5.142-7.769s-2.812,3.1-5.976,7.114-5.729,7.287-5.506,7.485,3.16-2.779,6.34-6.83" transform="translate(225.703 123.708)" fill="#1a2e35"/>
        <path id="Trazado_533" data-name="Trazado 533" d="M282.211,157.046c4.158-2.668,7.151-5.348,6.973-5.567-.186-.238-3.436,2.04-7.546,4.676s-7.526,4.656-7.387,4.925,3.806-1.355,7.96-4.034" transform="translate(234.877 129.719)" fill="#1a2e35"/>
        <path id="Trazado_534" data-name="Trazado 534" d="M288.441,164.949c-3.191,1.4-5.59,2.905-5.456,3.162s2.727-.809,5.883-2.191,5.7-2.567,5.593-2.846-2.833.473-6.02,1.875" transform="translate(242.357 139.617)" fill="#1a2e35"/>
        <path id="Trazado_535" data-name="Trazado 535" d="M274.387,156.3a50.75,50.75,0,1,0,50.75,50.75,50.749,50.749,0,0,0-50.75-50.75" transform="translate(191.533 133.863)" fill="#fafafa"/>
        <path id="Trazado_536" data-name="Trazado 536" d="M263.9,240.571a5.479,5.479,0,0,1,.241,1.229c.124.923.286,2.1.483,3.546.407,3.219.967,7.645,1.65,13.053,1.389,11.022,3.377,26.237,5.813,43.006s4.888,31.925,6.746,42.876c.915,5.374,1.663,9.771,2.207,12.969.234,1.442.423,2.612.574,3.533a5.613,5.613,0,0,1,.128,1.244,5.477,5.477,0,0,1-.338-1.2c-.2-.91-.455-2.068-.769-3.5-.65-3.039-1.52-7.45-2.542-12.914-2.048-10.925-4.611-26.068-7.056-42.854s-4.311-32.024-5.508-43.073c-.6-5.523-1.047-10-1.316-13.1-.117-1.457-.212-2.638-.286-3.568a5.487,5.487,0,0,1-.028-1.251" transform="translate(226.002 206.036)" fill="#1a2e35"/>
        <path id="Trazado_537" data-name="Trazado 537" d="M248.01,234.819c.291-.015,2.725,41.41,5.432,92.516,2.707,51.123,4.665,92.564,4.372,92.579s-2.723-41.4-5.432-92.523c-2.707-51.106-4.663-92.557-4.372-92.572" transform="translate(212.382 201.11)" fill="#1a2e35"/>
        <path id="Trazado_538" data-name="Trazado 538" d="M250.978,239.688a5.519,5.519,0,0,1-.154,1.233c-.167.908-.379,2.062-.64,3.483-.631,3.152-1.5,7.481-2.553,12.769-2.282,10.879-5.384,25.678-8.811,42.03-3.548,16.329-6.757,31.1-9.115,41.967-1.194,5.257-2.17,9.561-2.881,12.693-.342,1.4-.618,2.543-.835,3.44a5.623,5.623,0,0,1-.362,1.184,5.276,5.276,0,0,1,.152-1.229c.167-.908.379-2.061.64-3.481.631-3.152,1.5-7.478,2.553-12.767,2.282-10.881,5.384-25.682,8.814-42.043L246.9,257c1.192-5.256,2.168-9.559,2.879-12.691.342-1.4.618-2.541.835-3.438a5.387,5.387,0,0,1,.362-1.183" transform="translate(193.227 205.279)" fill="#1a2e35"/>
        <path id="Trazado_539" data-name="Trazado 539" d="M267.573,168.905l7.136,14.46a2.433,2.433,0,0,0,1.834,1.331l15.956,2.319a2.436,2.436,0,0,1,1.35,4.155L282.3,202.423a2.437,2.437,0,0,0-.7,2.155l2.725,15.893a2.435,2.435,0,0,1-3.533,2.567l-14.272-7.5a2.435,2.435,0,0,0-2.267,0l-14.272,7.5a2.435,2.435,0,0,1-3.533-2.567l2.725-15.893a2.437,2.437,0,0,0-.7-2.155L236.928,191.17a2.436,2.436,0,0,1,1.35-4.155l15.958-2.319a2.433,2.433,0,0,0,1.832-1.331l7.136-14.46a2.436,2.436,0,0,1,4.368,0" transform="translate(202.284 143.495)" fill="#f05a28"/>
        <path id="Trazado_540" data-name="Trazado 540" d="M265.177,165.86l.86,2.762a3.916,3.916,0,0,0,2.571,2.573l2.768.863-2.783.947a3.908,3.908,0,0,0-2.436,2.423l-.98,2.827-1.09-2.955a3.908,3.908,0,0,0-2.441-2.36l-2.668-.882,2.631-.891A3.9,3.9,0,0,0,264,168.882Z" transform="translate(221.8 142.05)" fill="#e8505b"/>
        <g id="Grupo_204" data-name="Grupo 204" transform="translate(367.182 244.988)" opacity="0.3">
          <g id="Grupo_203" data-name="Grupo 203">
            <g id="Grupo_202" data-name="Grupo 202" clip-path="url(#clip-path-8)">
              <path id="Trazado_541" data-name="Trazado 541" d="M260.9,166.615a5.4,5.4,0,0,0-.4,2.014c1.06.34,2.1.715,3.135,1.114a6.929,6.929,0,0,0,1.539-1.424Q275.5,155.34,285.82,142.364c.995-1.251,2.049-2.7,1.829-4.285a2.412,2.412,0,0,0-.069-.232c-3.717-.314-8,1.552-11.718.4a26.93,26.93,0,0,1-2.621-.934c-1.069,3.2-2.824,8.113-4.881,13.606-3.57,9.527-6.685,17.165-6.958,17.063s2.395-7.907,5.965-17.436c2.066-5.517,3.977-10.389,5.276-13.5-.158-.078-.306-.163-.455-.245l-.262.228q-5.514,14.795-11.029,29.59m10.756-8.5c3.163-4.017,5.731-7.287,5.974-7.114s-1.955,3.724-5.14,7.769-6.124,7.021-6.34,6.83,2.347-3.462,5.506-7.485" transform="translate(-144.079 -127.828)" fill="#f05a28"/>
              <path id="Trazado_542" data-name="Trazado 542" d="M279,158.647c3.434-3.731,6.589-7.067,8.909-9.449s3.813-3.8,3.921-3.7-1.188,1.7-3.368,4.212-5.248,5.928-8.683,9.659-6.59,7.071-8.909,9.449a4.141,4.141,0,0,0-1.415,2.354c.394.29.78.59,1.164.891,11.909-7.043,25.589-15.962,36.206-23.818a9.068,9.068,0,0,0-3.332-1.977l-.05-.017c-3.414-1.186-7.637-1.14-11.024-2.473-5.805,6.158-12.821,13.569-18.889,20.9,1.641-1.836,3.479-3.865,5.469-6.026" transform="translate(-136.405 -121.852)" fill="#f05a28"/>
              <path id="Trazado_543" data-name="Trazado 543" d="M300.558,158.975c.067.134-1.485,1.054-4,2.514s-6,3.466-9.785,5.775c-3.722,2.352-7.509,4.2-8.59,6.811a5.379,5.379,0,0,0-.488,2.527c.275.457.533.923.8,1.387,9.737-2.038,24.9-9.087,35.993-13.569-3.377-2.7-8.447-3.761-10.853-7.448q-1.768,1.078-3.615,2.129c.325-.117.525-.167.546-.126M293.407,171.1c-3.156,1.381-5.746,2.454-5.883,2.191s2.267-1.764,5.456-3.161,5.924-2.146,6.02-1.875-2.441,1.459-5.593,2.846" transform="translate(-129.364 -110.55)" fill="#f05a28"/>
              <path id="Trazado_544" data-name="Trazado 544" d="M306.933,171.672c-2.525,1.027-6.041,2.376-9.947,3.808s-7.467,2.67-10.056,3.514-4.216,1.3-4.262,1.162c-.006-.017.017-.041.05-.071-.587.247-1.129.5-1.695.744a57.457,57.457,0,0,1,1.337,6.089c.51.032,1.027.032,1.535.019,10.366-.247,27.167-1.272,39.611-1.973A17.169,17.169,0,0,0,321.1,181c-2.22-2.785-4.96-5.354-5.943-8.777a13.037,13.037,0,0,1-.446-3.349c-1.674.555-3.427,1.131-5.243,1.723-.659.3-1.511.655-2.54,1.073" transform="translate(-126.502 -100.355)" fill="#f05a28"/>
              <path id="Trazado_545" data-name="Trazado 545" d="M303.135,186.683l-13.615-1.034c-3.485-.282-5.64-.507-5.632-.655a20.633,20.633,0,0,1,4.463-.121c-1.693-.124-3.392-.227-5.094-.291-.317-.013-.639-.019-.96-.015q-.075,2.523-.356,4.99c10.7,4,26.5,9.6,38.79,14.1a6.267,6.267,0,0,0,.7-2.662c.132-4.871-5.716-8.582-5.424-13.294q-2.27-.175-4.533-.4l-8.335-.618" transform="translate(-125.716 -86.918)" fill="#f05a28"/>
              <path id="Trazado_546" data-name="Trazado 546" d="M288.719,197.524c-1.884-.993-3.759-1.977-5.616-2.931-.52-.265-1.051-.531-1.593-.756a57.058,57.058,0,0,1-2.322,5.716c9.41,7.21,21.761,19.857,32.228,29.022a8.656,8.656,0,0,0,3.238-3.03c2.54-4.429-.908-9.841-1.4-14.926-3.163-1.561-7.953-4.043-13.287-6.9-4.355-2.337-8.289-4.506-11.252-6.191" transform="translate(-128.073 -78.977)" fill="#f05a28"/>
              <path id="Trazado_547" data-name="Trazado 547" d="M294.259,215.442c-5.016-3.572-9.522-6.852-12.752-9.269-2.3-1.723-3.938-2.994-4.665-3.631-.746.976-1.526,1.923-2.332,2.85a18.242,18.242,0,0,0,2.527,3.1c6.989,7.35,17.991,19.938,26.228,28.918,1.925-3.171,1.465-7.8,3.752-10.907a7.757,7.757,0,0,1,1.04-1.11c-1.041-.832-2.152-1.7-3.308-2.606-2.989-2.053-6.6-4.582-10.489-7.348" transform="translate(-132.08 -71.522)" fill="#f05a28"/>
              <path id="Trazado_548" data-name="Trazado 548" d="M281,226.178c-1.452-2.536-2.835-4.953-4.121-7.2-1.286-2.2-2.243-4.331-3.613-5.528a3.868,3.868,0,0,0-3.93-.886c-.96.362-1.218.98-1.305.912-.041.015.085-.731,1.136-1.288a4.205,4.205,0,0,1,4.24.446,32.684,32.684,0,0,0-2.993-3.507c-1.056.744-2.129,1.465-3.236,2.14,2.348,11.889,8.482,29.291,14.224,43.194a6.076,6.076,0,0,0,4.725-1.066c3.62-2.777,2.133-8.6,3.366-12.952-.256-.412-.524-.845-.809-1.311-2.014-3.288-4.736-7.866-7.684-12.956" transform="translate(-138.358 -65.881)" fill="#f05a28"/>
              <path id="Trazado_549" data-name="Trazado 549" d="M270.066,242.259c.689,3.017,1.014,4.907.874,4.942s-.726-1.79-1.6-4.752c-.973-3.338-2.114-7.253-3.377-11.579-1.283-4.322-2.443-8.233-3.431-11.568-.485-1.652-.848-2.941-1.056-3.78-.2-.479-.4-.965-.605-1.424-.523,11.612.175,27.878.962,40.929,3.173-2.315,6.336-5.135,9.789-6.568-.943-4.526-2.185-9.4-3.6-14.224.848,3.071,1.546,5.846,2.044,8.024" transform="translate(-143.917 -61.624)" fill="#f05a28"/>
              <path id="Trazado_550" data-name="Trazado 550" d="M259.634,245.775c-.581,3.642-1.012,5.885-1.157,5.866s.024-2.3.414-5.965,1-8.723,1.741-14.3c.381-2.766.744-5.4,1.082-7.855a11.858,11.858,0,0,0-.256-6.163,5.324,5.324,0,0,0-2.218-2.549c-.408.007-.811.03-1.222.03-.672,0-1.337-.028-2-.05-.072.067-.154.126-.223.195a11.828,11.828,0,0,0-2.408,4.667c-3.546,10.482-7.092,26.116-10.636,37.407,4.19-.885,6.9-6,11.243-6.269a8.039,8.039,0,0,1,5.315,2c.34-3.451.655-7.274.965-11.172-.226,1.52-.44,2.926-.637,4.158" transform="translate(-159.282 -61.031)" fill="#f05a28"/>
              <path id="Trazado_551" data-name="Trazado 551" d="M249.834,230.8c1.242-2.538,2.462-4.964,3.375-7.2a16.1,16.1,0,0,0,1.359-6.171,9.866,9.866,0,0,0-.847-4,3.357,3.357,0,0,0-2.037,1.3c-7.9,8.766-19.027,22.927-27.125,33.85,4.478,1.688,10.615-1.188,15.9-.613.477-.887,1.363-2.408,2.51-4.409,1.847-3.221,4.342-7.7,6.865-12.763" transform="translate(-174.859 -62.196)" fill="#f05a28"/>
              <path id="Trazado_552" data-name="Trazado 552" d="M231.656,231.416c1.437-1.687,5.089-5.512,9.306-10.038,4.593-4.916,8.41-9.115,9.743-10.335q-1.991-1.3-3.867-2.751a63.015,63.015,0,0,1-5.081,4.29c-3.332,2.584-6.176,4.493-6.356,4.26s2.374-2.514,5.707-5.1c1.713-1.331,3.29-2.473,4.45-3.245a29.875,29.875,0,0,0-6.891,4.158l-24.217,18c4.188.739,8.93.91,11.551,4.006a7.22,7.22,0,0,1,.993,1.571c1.429-1.533,3-3.15,4.663-4.819" transform="translate(-183.519 -66.597)" fill="#f05a28"/>
              <path id="Trazado_553" data-name="Trazado 553" d="M233.181,213.1c4.041-2.651,7.882-4.942,10.444-6.654a3.423,3.423,0,0,0,1.186-1.513,2.321,2.321,0,0,0,0-1.429c-.269-.783-.822-.924-.774-1.01-.032-.052.672-.063,1.153.848a2.625,2.625,0,0,1,.193,1.749,2.436,2.436,0,0,1-.123.349,4.837,4.837,0,0,0,1.585-1.706c-.668-.88-1.316-1.773-1.934-2.69a6.993,6.993,0,0,0-2.441.325c-10.9,2.87-27.539,9.093-40.511,13.9,4.166,2.972,11.514,1.686,14.131,6.262a6.246,6.246,0,0,1,.64,1.778c3.563-2.179,7.541-4.565,11.48-6.952q2.331-1.545,4.97-3.254" transform="translate(-194.216 -72.821)" fill="#f05a28"/>
              <path id="Trazado_554" data-name="Trazado 554" d="M224.422,201.361l6.982-1.853c2.15-.568,4.1-1,5.636-1.565a10.85,10.85,0,0,0,4.389-2.887c.05.028-.123.546-.752,1.29a7.379,7.379,0,0,1-1.65,1.379c.288-.1.592-.2.869-.3a4.863,4.863,0,0,0,2.029-1.186c-.371-1.055-.707-2.122-1.019-3.2a6.959,6.959,0,0,0-2.725-.479q-20.192-.724-40.393-1.188c1.877,3.175,6.045,4.576,7.778,7.862a9.417,9.417,0,0,1,.457,6.678c3.2-.72,6.667-1.478,10.2-2.265,2.452-.705,5.237-1.483,8.2-2.289" transform="translate(-197.788 -81.085)" fill="#f05a28"/>
              <path id="Trazado_555" data-name="Trazado 555" d="M202.169,192.491c.013-.15,1.975-.1,5.139.015s7.532.288,12.358.394,9.193.123,12.36.139,5.129.056,5.135.206-1.947.369-5.116.544c-2.085.115-4.725.189-7.645.2,5.014.191,9.813.258,13.844.046.111-.006.226-.017.34-.024-.024-.676-.052-1.35-.052-2.031,0-.96.026-1.914.072-2.864-.1-.058-.191-.121-.288-.178-11.139-6.633-27.152-11.413-40.4-15.05-.033,2.382.88,4.585,3.117,5.213l-.282-1.836c3.267,1.439,4.164,5.855,3.136,9.275a24.471,24.471,0,0,1-3.173,6.134c.993.052,2.027.111,3.084.173a4.777,4.777,0,0,1-1.628-.358m28.495-2.872c3.728.659,6.718,1.429,6.683,1.719s-3.111-.011-6.867-.676-6.75-1.433-6.683-1.719,3.139.017,6.867.676" transform="translate(-197.679 -96.06)" fill="#f05a28"/>
              <path id="Trazado_556" data-name="Trazado 556" d="M203.767,174.928c.069-.134,2.126.795,5.415,2.35,1.225.574,2.668,1.251,4.2,1.96,3.757,1.6,7.65,3.228,11.467,4.738a62.683,62.683,0,0,0,10.823,2.868,3.92,3.92,0,0,0,2.2-.364,2.469,2.469,0,0,0,.3-.249q.6-1.8,1.313-3.55c-1.868-.926-4.714-2.465-7.9-4.3-5.452-3.13-9.756-5.874-9.609-6.126s4.684,2.077,10.138,5.207c1.171.672,2.272,1.32,3.3,1.934-10.838-7.331-21.282-14.493-32.1-20.206-.652,3.826.815,8.725-.379,12.683a10.264,10.264,0,0,1-1.116,2.408q1.189.5,2.445,1.041c-.33-.217-.516-.362-.5-.4" transform="translate(-194.337 -108.644)" fill="#f05a28"/>
              <path id="Trazado_557" data-name="Trazado 557" d="M215.276,161.857c.115-.1,1.474,1.225,3.685,3.343s5.3,5,8.855,8.027,6.906,5.6,9.357,7.433l.843.631c.705-.975,1.429-1.933,2.192-2.861-.037-.067-.078-.137-.117-.206-1.073-1.274-2.43-3-3.845-4.977-3.017-4.207-5.1-7.858-4.855-8.014.171-.111,1.392,1.454,3.1,3.782a218.572,218.572,0,0,0-16.207-22.225,7.458,7.458,0,0,0-4.428,2.382c-2.254,2.748-1.424,7.051-2.517,10.32,2.105,1.866,4.467,3.938,6.952,6.087-2-2.181-3.117-3.633-3.017-3.722" transform="translate(-186.181 -119.27)" fill="#f05a28"/>
              <path id="Trazado_558" data-name="Trazado 558" d="M233.933,163.734c5.105,6.436,9.356,11.581,9.247,11.905q1.406-.961,2.866-1.842c-.05-.132-.1-.265-.15-.4-3.839-9.754-10.782-25.073-15.41-36.242a16.389,16.389,0,0,0-2.168,1.11c-3.39,2.113-4.506,6.447-6.353,10.055,1.181,1.548,2.521,3.355,3.96,5.319,1.686,2.046,4.609,5.816,8.009,10.09m5.252-2.942c.284-.1,1.576,2.924,3.3,6.579s3.215,6.583,2.957,6.739c-.241.15-2.178-2.573-3.917-6.288s-2.608-6.939-2.339-7.03" transform="translate(-177.082 -127.517)" fill="#f05a28"/>
              <path id="Trazado_559" data-name="Trazado 559" d="M238.059,144.422c.15-.019.477,1.719.967,4.526s1.162,6.681,1.992,10.946c.726,3.717,1.441,7.069,2.011,9.726.275.884.559,1.675.845,2.41,1.092-.364,2.2-.7,3.317-1a52.243,52.243,0,0,1-1.023-6.733c-.488-3.761-1-6.809-.7-6.88.275-.071,1.255,2.915,1.754,6.743.178,1.353.271,2.61.3,3.683-.033-10.517.228-24.063.214-34.762-1.7,1.613-2.944,4.418-5.671,8.443a5.578,5.578,0,0,1-4.184,2.326c.041.262.08.522.121.793.011-.128.03-.213.056-.217" transform="translate(-163.449 -131.014)" fill="#f05a28"/>
              <path id="Trazado_560" data-name="Trazado 560" d="M252,156.345c-.1,5.915-.3,11.055-.512,13.686q2.083.033,4.132.212c2.365-3.212,3.479-7.318,4.465-11.254,1.792-7.145,4.264-18.633,6.251-27.022a8.6,8.6,0,0,0-3.592,1.051c-3.135,1.728-6.937,9.3-8.922,9.332a2.585,2.585,0,0,1-1.832-.964c-.019.282-.035.563-.054.845.139,2.477.173,7.856.065,14.115" transform="translate(-151.793 -131.966)" fill="#f05a28"/>
            </g>
          </g>
        </g>
        <path id="Trazado_561" data-name="Trazado 561" d="M117.987,366.959c.239-5.454.47-10.719.687-15.668.425-8.135.342-15.535,1.615-21.513a22.209,22.209,0,0,1,6.737-12.457,19.469,19.469,0,0,1,4.481-2.814c-.006-.017-.123.009-.347.076a7.862,7.862,0,0,0-.98.349,13.49,13.49,0,0,0-3.42,2.074c-2.729,2.142-5.879,6.477-7.2,12.611-1.394,6.11-1.377,13.5-1.858,21.62-.234,4.966-.483,10.249-.739,15.722Z" transform="translate(100.17 269.354)" fill="#375a64"/>
        <path id="Trazado_562" data-name="Trazado 562" d="M75.761,372.2c2.09,12.639,3.752,24.809,4.881,36.128h1c-1.092-11.376-2.738-23.608-4.836-36.3-2.395-14.566-4.96-28.381-6.6-41.044A234.455,234.455,0,0,1,67.843,297.2a145.757,145.757,0,0,1,1.894-22.741c.375-2.675.919-4.7,1.151-6.108.121-.65.219-1.173.3-1.593a2.085,2.085,0,0,0,.065-.551,2.3,2.3,0,0,0-.171.525c-.1.414-.236.93-.4,1.571-.3,1.39-.91,3.412-1.35,6.084a135.789,135.789,0,0,0-2.237,22.8,226.5,226.5,0,0,0,2.15,33.919c1.587,12.7,4.127,26.542,6.518,41.091" transform="translate(57.426 227.988)" fill="#375a64"/>
      </g>
    </g>
  </g>
</svg>
