<svg id="consejo" xmlns="http://www.w3.org/2000/svg" xmlns:xlink="http://www.w3.org/1999/xlink" width="636.629" height="242.717" viewBox="0 0 636.629 242.717">
  <defs>
    <clipPath id="clip-path">
      <rect id="Rectángulo_88" data-name="Rectángulo 88" width="636.629" height="242.717" fill="none"/>
    </clipPath>
    <clipPath id="clip-path-3">
      <rect id="Rectángulo_85" data-name="Rectángulo 85" width="120.978" height="76.883" fill="none"/>
    </clipPath>
    <clipPath id="clip-path-4">
      <rect id="Rectángulo_86" data-name="Rectángulo 86" width="40.115" height="34.74" fill="none"/>
    </clipPath>
  </defs>
  <g id="Grupo_76" data-name="Grupo 76" clip-path="url(#clip-path)">
    <g id="Grupo_75" data-name="Grupo 75">
      <g id="Grupo_74" data-name="Grupo 74" clip-path="url(#clip-path)">
        <path id="Trazado_232" data-name="Trazado 232" d="M268.619,8.232a7.19,7.19,0,0,0-7.277-4.022,9.83,9.83,0,0,0-12.1-.371,8.741,8.741,0,0,0-13.527,6.484,7.505,7.505,0,0,0-7.815,3.469,7.507,7.507,0,0,0,.831,8.509,7.269,7.269,0,0,0-5.093,7.92,7.269,7.269,0,0,0,7.368,5.863l35.9-19.717a7.19,7.19,0,0,0,1.716-8.136" transform="translate(46.544 0.403)" fill="#808184"/>
        <path id="Trazado_233" data-name="Trazado 233" d="M229.54,35.439A29.789,29.789,0,0,1,260.558,9.552l1.54.076c16.564,1.8,24.293,16.868,22.04,33.376l-5.154,55.2-.278,2.68-38.718,5.78.755-14.1S224.9,89.292,225.493,73.315c.288-7.717,2.174-23.559,4.047-37.876" transform="translate(46.943 1.981)" fill="#ffc09d"/>
        <path id="Trazado_234" data-name="Trazado 234" d="M238.027,79.109a38.78,38.78,0,0,0,21.227-5.084s-5.491,11.247-21.354,9.018Z" transform="translate(49.53 15.412)" fill="#ff9b6c"/>
        <path id="Trazado_235" data-name="Trazado 235" d="M231.707,44.16a2.284,2.284,0,0,0,2.084,2.41,2.183,2.183,0,0,0,2.453-1.939,2.283,2.283,0,0,0-2.082-2.412,2.185,2.185,0,0,0-2.455,1.94" transform="translate(48.239 8.787)" fill="#1a2e35"/>
        <path id="Trazado_236" data-name="Trazado 236" d="M231.365,37.955c.267.312,2.059-.882,4.513-.753,2.453.093,4.19,1.445,4.472,1.157.138-.127-.124-.678-.88-1.288a6.266,6.266,0,0,0-3.562-1.294,6.018,6.018,0,0,0-3.61.97c-.784.541-1.066,1.067-.933,1.207" transform="translate(48.163 7.448)" fill="#1a2e35"/>
        <path id="Trazado_237" data-name="Trazado 237" d="M249.632,45.377a2.282,2.282,0,0,0,2.084,2.409,2.181,2.181,0,0,0,2.453-1.939,2.283,2.283,0,0,0-2.082-2.41,2.185,2.185,0,0,0-2.455,1.94" transform="translate(51.971 9.041)" fill="#1a2e35"/>
        <path id="Trazado_238" data-name="Trazado 238" d="M251.31,39.325c.268.313,2.061-.88,4.514-.752,2.451.093,4.19,1.445,4.472,1.157.137-.127-.122-.677-.881-1.288a6.267,6.267,0,0,0-3.561-1.294,6.022,6.022,0,0,0-3.611.97c-.78.542-1.064,1.066-.933,1.206" transform="translate(52.315 7.733)" fill="#1a2e35"/>
        <path id="Trazado_239" data-name="Trazado 239" d="M244.249,57.16c.018-.139-1.493-.478-3.95-.917-.623-.1-1.211-.25-1.294-.683a3.191,3.191,0,0,1,.51-1.836l2.09-4.679c2.911-6.666,5.05-12.159,4.782-12.274s-2.848,5.2-5.758,11.861q-1.055,2.465-2.014,4.711a3.637,3.637,0,0,0-.447,2.443,1.572,1.572,0,0,0,.985.968,4.253,4.253,0,0,0,1.057.2c2.48.257,4.022.346,4.039.207" transform="translate(49.568 7.655)" fill="#1a2e35"/>
        <path id="Trazado_240" data-name="Trazado 240" d="M250.5,55.347c-.4-.043-.535,2.619-2.909,4.4s-5.194,1.344-5.234,1.716c-.045.164.607.549,1.8.64a6.638,6.638,0,0,0,4.362-1.281,5.779,5.779,0,0,0,2.268-3.7c.157-1.108-.106-1.783-.29-1.776" transform="translate(50.456 11.523)" fill="#1a2e35"/>
        <path id="Trazado_241" data-name="Trazado 241" d="M251.178,31.243c.209.679,2.675.484,5.536.975,2.872.433,5.152,1.391,5.564.811.184-.278-.19-.925-1.1-1.618a9.769,9.769,0,0,0-8.456-1.36c-1.078.373-1.636.871-1.548,1.192" transform="translate(52.292 6.168)" fill="#808184"/>
        <path id="Trazado_242" data-name="Trazado 242" d="M232.408,32.141c.4.579,2.123.085,4.157.158,2.036,0,3.736.561,4.16,0,.188-.274-.056-.847-.78-1.411a6.025,6.025,0,0,0-6.7-.126c-.745.538-1.011,1.1-.834,1.381" transform="translate(48.375 6.205)" fill="#808184"/>
        <path id="Trazado_243" data-name="Trazado 243" d="M230.413,28.545s4.707-9.79,9.645-11.885c5.978-2.535,8.172,4,13.813,2.72s11.347-3.713,16.818.87c5.989,5.016,2.911,8.173,2.942,15.278.132,28.8,4.974,37.186,7.138,23.73.237-1.474,4.409-2.449,5.331-8.682,1.194-8.082,2-17.926.47-23.78-1.287-4.933-3.889-8.427-8.672-12.373-7.55-6.231-18.311-6.892-25.662-6.519s-21.867,8.088-21.822,20.642" transform="translate(47.971 1.628)" fill="#808184"/>
        <path id="Trazado_244" data-name="Trazado 244" d="M271.451,50.679a4.339,4.339,0,0,1,4.887-3.945c2.964.431,6.194,2.287,5.692,8.431-.892,10.9-11.651,7.757-11.643,7.442,0-.213.651-7.371,1.064-11.929" transform="translate(56.293 9.721)" fill="#ffc09d"/>
        <path id="Trazado_245" data-name="Trazado 245" d="M272.629,58.089c.051-.03.179.149.488.321a1.906,1.906,0,0,0,1.417.146c1.185-.329,2.3-2.078,2.518-4.038a6.293,6.293,0,0,0-.309-2.762,2.2,2.2,0,0,0-1.309-1.574.97.97,0,0,0-1.164.429c-.172.292-.12.516-.179.53-.033.024-.219-.2-.094-.645a1.216,1.216,0,0,1,.484-.648,1.438,1.438,0,0,1,1.073-.192,2.681,2.681,0,0,1,1.845,1.852,6.466,6.466,0,0,1,.41,3.092c-.249,2.19-1.542,4.154-3.155,4.48a2.038,2.038,0,0,1-1.713-.43c-.315-.3-.353-.545-.313-.562" transform="translate(56.758 10.332)" fill="#ff9b6c"/>
        <path id="Trazado_246" data-name="Trazado 246" d="M279.215,38.252a10.378,10.378,0,0,1-4.73,1.905c-1.717.085-3.622-.994-3.825-2.7-.092-.766.138-1.638-.333-2.25-.561-.731-1.672-.567-2.592-.515a6.977,6.977,0,0,1-6.983-5.355c-.87,1.172-2.757,1.025-3.942.174a15.7,15.7,0,0,1-2.815-3.327c-.9-1.145-2.2-2.194-3.654-2.061a10.781,10.781,0,0,1-2.4.406c-1.427-.2-2.043-1.913-2.189-3.347s-.233-3.1-1.409-3.935c-1.09-.773-2.569-.431-3.9-.3s-3.018-.266-3.291-1.573a2.6,2.6,0,0,1,.586-1.956,7.08,7.08,0,0,1,8.479-2.262,9.594,9.594,0,0,1,17.7-.982,9.737,9.737,0,0,1,15.371,4.318,7.058,7.058,0,0,1,7.439,10.649c1.907,1.218,3.489,3.251,3.418,5.514s-2.385,4.4-4.536,3.7a3.909,3.909,0,0,1-6.946,3.558" transform="translate(49.367 0.986)" fill="#808184"/>
        <path id="Trazado_247" data-name="Trazado 247" d="M280.693,29.263a2.622,2.622,0,0,1-.784,2.065,3.521,3.521,0,0,1-2.253,1.2,3.788,3.788,0,0,1-3.066-1.06l.465-.046a10.949,10.949,0,0,1-2.315,2.613,6.285,6.285,0,0,1-2.05,1.138,4.263,4.263,0,0,1-2.207.1A4.306,4.306,0,0,1,265.42,33.3a6.3,6.3,0,0,1-.77-2.316,2.163,2.163,0,0,1-.041-.886c.048-.008.126.3.28.834a7.355,7.355,0,0,0,.9,2.126c.957,1.618,4.288,2.584,6.552.48a10.972,10.972,0,0,0,2.2-2.448l.208-.312.257.266a3.32,3.32,0,0,0,2.592.969,3.221,3.221,0,0,0,2.027-.942,5.318,5.318,0,0,0,1.057-1.81" transform="translate(55.085 6.092)" fill="#fff"/>
        <path id="Trazado_248" data-name="Trazado 248" d="M266.965,8.592c0,.039-.289.063-.786.245a3.746,3.746,0,0,0-1.766,1.357l-.141.2-.141-.21a13.609,13.609,0,0,0-5.066-4.537,10.636,10.636,0,0,0-4.25-1.156,8.884,8.884,0,0,0-4.689,1.091,9.025,9.025,0,0,0-2.883,2.473,7.4,7.4,0,0,0-1.364,3.232l-.051.343-.327-.108a6.132,6.132,0,0,0-4.565.327,5.985,5.985,0,0,0-2.613,2.536,8.164,8.164,0,0,0-.841,3.2,2.217,2.217,0,0,1-.088-.9,6.089,6.089,0,0,1,.615-2.461,6.224,6.224,0,0,1,2.709-2.81,6.564,6.564,0,0,1,4.964-.443l-.378.236a7.89,7.89,0,0,1,1.444-3.518,9.5,9.5,0,0,1,3.077-2.659,9.36,9.36,0,0,1,5.021-1.147,10.961,10.961,0,0,1,4.472,1.276,13.286,13.286,0,0,1,5.1,4.842l-.281-.008a3.72,3.72,0,0,1,1.989-1.33,1.637,1.637,0,0,1,.841-.072" transform="translate(49.424 0.805)" fill="#fff"/>
        <path id="Trazado_249" data-name="Trazado 249" d="M290.755,152.524l14.492,13.967-4.682-26.713,29.415-9.306s7.812,36.661,9.17,45.333c2.438,15.559-.555,37.675-15.053,39.231-15.686,1.683-27.529-13.787-35.067-23.938-5.794-7.8-15.146-21.45-15.146-21.45Z" transform="translate(57.022 27.164)" fill="#e1e1e1"/>
        <path id="Trazado_250" data-name="Trazado 250" d="M197.51,129.06c-4.72,14.864-11.32,17.11-13.926,59.686-.509,8.3,1.283,19.381,9.159,22.058,8.749,2.973,22.139-2.443,26.339-9.623V171.86Z" transform="translate(38.205 26.87)" fill="#e1e1e1"/>
        <path id="Trazado_251" data-name="Trazado 251" d="M212.424,182.578a64.835,64.835,0,0,0-2.9-6.257,64.951,64.951,0,0,0-4-5.617,6.294,6.294,0,0,1,1.521,1.37,22.982,22.982,0,0,1,4.937,8.5,6.33,6.33,0,0,1,.436,2" transform="translate(42.789 35.539)" fill="#1a2e35"/>
        <path id="Trazado_252" data-name="Trazado 252" d="M189.212,154.346c.248-.88,14.767-40.4,19.4-49.047C214.15,94.951,225.8,90.375,233.03,89.93s84.608,5.72,84.608,5.72,21.674,5.445,26.058,25.056c5.5,24.593,9.923,48.843,9.923,48.843l-38.781,8.374-4.563-11.489L237.407,182.69l-17.793-26.319Z" transform="translate(39.393 18.718)" fill="#e1e1e1"/>
        <path id="Trazado_253" data-name="Trazado 253" d="M317.852,101.068,287.629,87.743l-3.388-13.034L248.963,91.387l-7.391-8.164-3.094,9.2-7.73,2.528-15.21,30-2.8,69.5L213,212.5l104.267.695-.846-29.557Z" transform="translate(44.291 15.554)" fill="#e1e1e1"/>
        <path id="Trazado_254" data-name="Trazado 254" d="M278,74.709s-3.945,1.142-14.076,6.547c-9.924,5.3-21.2,10.132-21.2,10.132l.858,15.93,37.545-18.849" transform="translate(50.533 15.554)" fill="#e1e1e1"/>
        <path id="Trazado_255" data-name="Trazado 255" d="M237.145,81.756l7.389,8.164L240.586,107,234,91.563" transform="translate(48.718 17.021)" fill="#e1e1e1"/>
        <path id="Trazado_256" data-name="Trazado 256" d="M243.016,90.494c-.326.244-2.379,19.707-2.379,19.707L278.27,87.463l-34.258,17.2Z" transform="translate(50.1 18.209)" fill="#bfbebe"/>
        <path id="Trazado_257" data-name="Trazado 257" d="M246.465,206.288s-.774-28.86-.088-46.949c.565-14.886-1.781-52.865-1.781-52.865l-4.905-.79A554.269,554.269,0,0,0,227.1,187.843L225.72,206.15" transform="translate(46.994 22.003)" fill="#546649"/>
        <path id="Trazado_258" data-name="Trazado 258" d="M292.344,125.575a9.011,9.011,0,0,1,.349,1.538c.2,1.09.455,2.512.765,4.225l2.4,13.955c.95,5.449,1.759,10.394,2.29,13.98.268,1.793.475,3.245.6,4.252a9.153,9.153,0,0,1,.15,1.571,9.1,9.1,0,0,1-.35-1.538c-.2-1.09-.455-2.511-.767-4.224-.64-3.66-1.495-8.547-2.441-13.951-.94-5.451-1.714-10.4-2.248-13.985-.243-1.725-.446-3.156-.6-4.252a9.059,9.059,0,0,1-.149-1.571" transform="translate(60.862 26.144)" fill="#1a2e35"/>
        <path id="Trazado_259" data-name="Trazado 259" d="M303.533,98.433c.058.074-1.02.912-2.543,2.483a30.779,30.779,0,0,0-7.977,14.838c-.468,2.136-.574,3.5-.667,3.49a3.374,3.374,0,0,1-.007-.963,19.678,19.678,0,0,1,.312-2.6,27.758,27.758,0,0,1,8.078-15.028,19.9,19.9,0,0,1,2-1.7,3.384,3.384,0,0,1,.807-.524" transform="translate(60.859 20.493)" fill="#1a2e35"/>
        <path id="Trazado_260" data-name="Trazado 260" d="M244.044,95.044l-3.36-1.311L237.5,99.2l-.575,8.976,4.487.723,3.375-5.538Z" transform="translate(49.326 19.515)" fill="#546649"/>
        <path id="Trazado_261" data-name="Trazado 261" d="M212.78,116.919c.144,0,.261,19.43.261,43.392s-.117,43.4-.261,43.4-.261-19.427-.261-43.4.116-43.392.261-43.392" transform="translate(44.246 24.342)" fill="#1a2e35"/>
        <path id="Trazado_262" data-name="Trazado 262" d="M244.915,88.4c.064.045-.724,1.252-1.916,3.246s-2.769,4.793-4.272,8l-.358.77-.234.505-.238-.5a62.532,62.532,0,0,1-3.141-7.955c-.326-1.035-.559-1.879-.7-2.465a3.28,3.28,0,0,1-.169-.923c.071-.022.475,1.242,1.209,3.273s1.828,4.823,3.274,7.846l-.472,0c.114-.246.236-.51.358-.776a66.5,66.5,0,0,1,4.432-7.974c.639-.977,1.184-1.749,1.574-2.273a3.736,3.736,0,0,1,.656-.778" transform="translate(48.692 18.404)" fill="#1a2e35"/>
        <path id="Trazado_263" data-name="Trazado 263" d="M281.376,85.5a2.65,2.65,0,0,1-.516.311c-.4.208-.9.472-1.522.795l-5.608,2.907c-4.733,2.46-11.212,5.967-18.394,9.8-4.372,2.331-8.515,4.488-12.118,6.292l-.332.166,0-.368c-.046-4.675-.085-8.612-.112-11.46,0-1.337,0-2.418.006-3.231a6.812,6.812,0,0,1,.052-1.147,6.79,6.79,0,0,1,.093,1.145c.031.809.073,1.891.123,3.226.075,2.848.178,6.785.3,11.456l-.336-.2c3.582-1.835,7.71-4.011,12.082-6.342,7.178-3.835,13.691-7.291,18.47-9.67,2.387-1.194,4.335-2.13,5.688-2.76.638-.29,1.156-.524,1.566-.709a2.834,2.834,0,0,1,.562-.215" transform="translate(50.543 17.8)" fill="#1a2e35"/>
        <path id="Trazado_264" data-name="Trazado 264" d="M217.247,95.658c.075.046-.515,1.048-1.276,2.749a30.339,30.339,0,0,0-2.6,14.164c.105,1.861.3,3.006.214,3.023a2.491,2.491,0,0,1-.236-.788A18.113,18.113,0,0,1,213,112.6a26.3,26.3,0,0,1,2.639-14.351,18.233,18.233,0,0,1,1.109-1.938c.294-.439.47-.672.5-.652" transform="translate(44.318 19.915)" fill="#1a2e35"/>
        <path id="Trazado_265" data-name="Trazado 265" d="M240.568,107.152c-.077.122-.93-.278-1.905-.894s-1.7-1.214-1.627-1.336.93.278,1.907.894,1.7,1.214,1.626,1.336" transform="translate(49.349 21.84)" fill="#1a2e35"/>
        <path id="Trazado_266" data-name="Trazado 266" d="M242,106.551a24.864,24.864,0,0,1-2.282-4.544,24.963,24.963,0,0,1-1.8-4.754A24.867,24.867,0,0,1,240.2,101.8a24.966,24.966,0,0,1,1.8,4.754" transform="translate(49.53 20.247)" fill="#1a2e35"/>
        <path id="Trazado_267" data-name="Trazado 267" d="M328.783,186.466a1.167,1.167,0,0,1-.133-.227l-.353-.684c-.156-.311-.342-.684-.562-1.121L326.779,183a51.69,51.69,0,0,0-7.532-8.183c-3.507-3.227-7.958-6.858-12.965-11.007-2.49-2.093-5.142-4.288-7.8-6.732a73.63,73.63,0,0,1-7.823-8.138l.377.018c-4.712,4.929-9.82,10.271-15.112,15.806l-2.019,2.108.027-.329c5.712,8.352,10.906,16.436,16.37,23.213a110.95,110.95,0,0,0,8.219,9.186,68.466,68.466,0,0,0,7.991,7.116c5.222,3.944,10.469,5.637,14.114,5.547.454,0,.884.019,1.287,0l1.124-.121.964-.1.783-.176,1.067-.231a2.086,2.086,0,0,1,.368-.063,2.03,2.03,0,0,1-.354.112l-1.058.282-.784.2-.967.128-1.132.145c-.4.023-.84.012-1.3.019-3.686.155-9.037-1.514-14.328-5.454a67.964,67.964,0,0,1-8.079-7.108,109.839,109.839,0,0,1-8.287-9.19c-5.506-6.784-10.723-14.877-16.43-23.213l-.12-.176.146-.153,2.019-2.108,15.129-15.79.2-.208.179.226a73.815,73.815,0,0,0,7.748,8.1c2.636,2.444,5.276,4.648,7.753,6.75,4.983,4.171,9.417,7.836,12.9,11.1a49.592,49.592,0,0,1,7.457,8.32q.524.821.929,1.461.31.671.529,1.148l.314.7a1.127,1.127,0,0,1,.093.244" transform="translate(56.917 30.898)" fill="#1a2e35"/>
        <path id="Trazado_268" data-name="Trazado 268" d="M277.039,167.544l-1.646-.5c1.421,8.161,5.894,19.694,9.939,26.923h11.785c-4.464-5.584-20.078-26.423-20.078-26.423" transform="translate(57.336 34.778)" fill="#bfbebe"/>
        <path id="Trazado_269" data-name="Trazado 269" d="M296.334,155.589l-23.862-26.061-14.307-2.716L241.93,128.87a3.486,3.486,0,0,0,2.056,3.942l-6,.343a3.412,3.412,0,0,0,2.228,4.456l-4.285.753a6.163,6.163,0,0,0,6.685,3.533,93.223,93.223,0,0,1,12.684-.857l8.4,4.627-12.512-.513-9.084,1.713s-1.2,2.323.857,2.876,9.941,0,9.941,0l11.34,3.6s4.432,6.29,5.975,8,8.91,4.891,8.91,4.891l3.631,3.251Z" transform="translate(49.12 26.402)" fill="#ffc09d"/>
        <path id="Trazado_270" data-name="Trazado 270" d="M237.633,132.511a23.329,23.329,0,0,0,4.661-.173c2.867-.225,6.82-.6,11.182-1.069l4.185-.469-.173-.014c3.245.915,6.064,1.675,8.079,2.178a14.056,14.056,0,0,0,3.256.651,14.126,14.126,0,0,0-3.1-1.195c-1.972-.655-4.758-1.526-7.987-2.494l-.082-.024-.091.01-4.19.435c-4.36.47-8.3.947-11.152,1.339a23.315,23.315,0,0,0-4.591.825" transform="translate(49.474 27.045)" fill="#ff9b6c"/>
        <path id="Trazado_271" data-name="Trazado 271" d="M236.777,136.763a19.242,19.242,0,0,0,4.225-.288c2.592-.295,6.164-.766,10.1-1.342l3.919-.592-.23-.028c5.633,2.2,9.786,3.67,9.865,3.474s-3.942-2-9.534-4.3l-.109-.045-.122.017-3.924.557c-3.937.576-7.494,1.15-10.063,1.611a19.256,19.256,0,0,0-4.13.936" transform="translate(49.296 27.824)" fill="#ff9b6c"/>
        <path id="Trazado_272" data-name="Trazado 272" d="M186.544,133.979l12.1,45.7a5.683,5.683,0,0,0,5.6,4.227l62.635-1.23a5.683,5.683,0,0,0,5.449-6.854L263.1,132.054a5.684,5.684,0,0,0-5.561-4.511H191.5a5.125,5.125,0,0,0-4.954,6.436" transform="translate(38.802 26.554)" fill="#1a2e35"/>
        <path id="Trazado_273" data-name="Trazado 273" d="M182.9,142.408a4.086,4.086,0,0,1-.025-5.033,6.221,6.221,0,0,1,4.771-2.254,13.6,13.6,0,0,1,5.305,1.1,34.444,34.444,0,0,1,6.018,3c1.342.843,2.734,1.94,3,3.5s-1.437,3.349-2.815,2.564a6.637,6.637,0,0,1,3.883,4.627c.288,1.979-.77,3.043-2.687,3.612a2.981,2.981,0,0,1,1.723,3.814c-.7,1.487-2.752,1.9-4.289,1.308a9.969,9.969,0,0,1-3.739-3.136,9.149,9.149,0,0,1,1.067,6.284,12.286,12.286,0,0,1-8.037-9.869,5.683,5.683,0,0,1-1.544-6.987c-1.707-.533-3.642-3.135-3.507-4.919" transform="translate(37.895 28.13)" fill="#ffc09d"/>
        <path id="Trazado_274" data-name="Trazado 274" d="M199.426,151.149a16.437,16.437,0,0,1-1.832-1.4,12.314,12.314,0,0,0-4.823-2.468,6.58,6.58,0,0,0-2.935,0,5.492,5.492,0,0,0-2.142,1.069,6.82,6.82,0,0,0-1.394,1.759,1.27,1.27,0,0,1,.163-.61,4.289,4.289,0,0,1,1.015-1.4,5.483,5.483,0,0,1,2.251-1.237,6.69,6.69,0,0,1,3.139-.044A11.341,11.341,0,0,1,197.8,149.5a8.788,8.788,0,0,1,1.624,1.654" transform="translate(38.785 30.535)" fill="#ff9b6c"/>
        <path id="Trazado_275" data-name="Trazado 275" d="M199.276,144.276a9.8,9.8,0,0,1-2.223-.927,25.792,25.792,0,0,0-2.366-1.034,20.1,20.1,0,0,0-3.043-.788,8.705,8.705,0,0,0-3.091-.03,5.635,5.635,0,0,0-2.291.994,5.833,5.833,0,0,0-1.495,1.785,1.329,1.329,0,0,1,.178-.633,4.1,4.1,0,0,1,1.114-1.409,5.65,5.65,0,0,1,2.407-1.156,8.632,8.632,0,0,1,3.255-.008,17.83,17.83,0,0,1,3.116.846,19.768,19.768,0,0,1,2.366,1.142,16.964,16.964,0,0,1,2.073,1.219" transform="translate(38.466 29.339)" fill="#ff9b6c"/>
        <path id="Trazado_276" data-name="Trazado 276" d="M326.594,89.164l1.734-1.1a6.526,6.526,0,0,1,9.223,2.379c2.791,5.08,6.252,12.177,6.252,12.177l-7.324,11.6-2.457.072c-2.665,1.7-8.892-1.734-13.106-4.289s-2.139-5.132-2.139-5.132c-2.642-3.639,1-5.14,1-5.14-2.241-3.312,1.069-5.553,1.069-5.553" transform="translate(66.168 18.122)" fill="#ffc09d"/>
        <rect id="Rectángulo_84" data-name="Rectángulo 84" width="53.934" height="75.52" transform="translate(336.139 80.771) rotate(-10.849)" fill="#fff"/>
        <path id="Trazado_277" data-name="Trazado 277" d="M292.487,142.836a2.426,2.426,0,0,1-.081-.332c-.052-.25-.122-.585-.211-1.019-.187-.932-.456-2.27-.8-4-.7-3.542-1.708-8.681-2.985-15.173-2.546-13.1-6.152-31.66-10.415-53.593l-.054-.28.282-.054,52.959-10.178h.006l.309-.059.058.309c5.3,27.773,10.2,53.46,14.156,74.182l.047.251-.25.047-38.653,7.271L296.2,142.182l-2.778.5c-.625.11-.935.151-.935.151s.339-.083.977-.215l2.815-.569,10.684-2.114,38.445-7.5-.2.3c-3.987-20.715-8.929-46.394-14.272-74.159l.368.249H331.3l-52.97,10.122.227-.335c4.134,21.88,7.632,40.394,10.1,53.463,1.219,6.532,2.183,11.7,2.848,15.266.323,1.759.571,3.122.745,4.069.079.448.14.8.185,1.056a3.135,3.135,0,0,1,.054.371" transform="translate(57.866 12.106)" fill="#1a2e35"/>
        <path id="Trazado_278" data-name="Trazado 278" d="M285.534,82.212c-.033-.17,8.711-1.99,19.528-4.063s19.615-3.615,19.648-3.445-8.709,1.99-19.529,4.063-19.614,3.615-19.646,3.445" transform="translate(59.447 15.55)" fill="#1a2e35"/>
        <path id="Trazado_279" data-name="Trazado 279" d="M286.365,86.547c-.033-.17,8.711-1.99,19.528-4.063s19.615-3.615,19.648-3.445-8.709,1.99-19.529,4.063-19.614,3.615-19.646,3.445" transform="translate(59.62 16.453)" fill="#1a2e35"/>
        <path id="Trazado_280" data-name="Trazado 280" d="M287.2,90.882c-.033-.17,8.711-1.99,19.528-4.062s19.615-3.616,19.648-3.446-8.709,1.99-19.529,4.063-19.614,3.615-19.646,3.445" transform="translate(59.793 17.355)" fill="#1a2e35"/>
        <path id="Trazado_281" data-name="Trazado 281" d="M288.026,95.217c-.033-.17,8.711-1.99,19.528-4.062s19.615-3.616,19.648-3.446-8.709,1.99-19.529,4.063-19.614,3.615-19.646,3.445" transform="translate(59.966 18.258)" fill="#1a2e35"/>
        <path id="Trazado_282" data-name="Trazado 282" d="M288.857,99.552c-.033-.17,8.711-1.99,19.528-4.063S328,91.874,328.033,92.044s-8.709,1.99-19.529,4.063-19.614,3.615-19.646,3.445" transform="translate(60.139 19.161)" fill="#1a2e35"/>
        <path id="Trazado_283" data-name="Trazado 283" d="M289.688,103.887c-.033-.17,8.711-1.99,19.528-4.063s19.615-3.615,19.648-3.445-8.709,1.99-19.529,4.063-19.614,3.615-19.646,3.445" transform="translate(60.312 20.063)" fill="#1a2e35"/>
        <path id="Trazado_284" data-name="Trazado 284" d="M290.518,108.222c-.033-.17,8.711-1.99,19.528-4.063s19.615-3.615,19.648-3.445-8.709,1.99-19.529,4.063-19.614,3.615-19.646,3.445" transform="translate(60.485 20.966)" fill="#1a2e35"/>
        <path id="Trazado_285" data-name="Trazado 285" d="M291.349,112.557c-.033-.17,8.711-1.99,19.528-4.063s19.615-3.615,19.648-3.445-8.709,1.99-19.529,4.063-19.614,3.615-19.646,3.445" transform="translate(60.658 21.868)" fill="#1a2e35"/>
        <path id="Trazado_286" data-name="Trazado 286" d="M292.18,116.892c-.033-.17,8.711-1.99,19.528-4.063s19.615-3.615,19.648-3.445-8.709,1.99-19.529,4.063-19.614,3.615-19.646,3.445" transform="translate(60.831 22.771)" fill="#1a2e35"/>
        <path id="Trazado_287" data-name="Trazado 287" d="M317.063,62.846a5.738,5.738,0,0,1,.377,1.319q.328,1.49.8,3.643.121.585.251,1.211A2.968,2.968,0,0,1,313,71.044a3.036,3.036,0,0,1-.338-.889c-.056-.284-.112-.569-.168-.858q-.167-.861-.337-1.746c-.224-1.179-.441-2.331-.654-3.445q-.154-.834-.306-1.64a6.011,6.011,0,0,1-.167-1.66,3.9,3.9,0,0,1,3.981-3.605,3.769,3.769,0,0,1,3.2,1.926,3.15,3.15,0,0,1,.356.974c.037.234.043.356.021.36a10.315,10.315,0,0,0-.586-1.207,3.577,3.577,0,0,0-3-1.608,3.523,3.523,0,0,0-2.209.824,3.416,3.416,0,0,0-1.19,2.378,5.474,5.474,0,0,0,.179,1.505q.156.8.321,1.636.323,1.673.666,3.443l.333,1.747q.082.428.162.851a2.443,2.443,0,0,0,.265.707,2.408,2.408,0,0,0,2.454,1.189,2.441,2.441,0,0,0,1.931-1.621,2.512,2.512,0,0,0,.1-1.2q-.109-.629-.211-1.217-.357-2.173-.6-3.68a5.809,5.809,0,0,1-.137-1.365" transform="translate(64.752 11.909)" fill="#1a2e35"/>
        <path id="Trazado_288" data-name="Trazado 288" d="M331.847,87.056c-.4.04-16.091,2.474-16.091,2.474-.278,1.444.57,3.49,4.266,3.55,3.5.056,6.666-.237,6.666-.237s3.884,8.1,7.7,9,1.942-7.775,1.942-7.775Z" transform="translate(65.729 18.125)" fill="#ffc09d"/>
        <path id="Trazado_289" data-name="Trazado 289" d="M493.528,52.565c1.359-3.17,2.74-6.438,2.868-9.9s-1.292-7.213-4.281-8.785c-2.763-1.452-6.157-.772-9.089-1.815-3.616-1.287-5.9-4.933-7.507-8.517s.627-4.89-2.087-7.671c-3.6-3.69-5.941-4.221-10.5-1.966-3.278-2.323-14.666-6.53-17.951-6.632-4.873-.149-10.419.239-13.822,3.731-2.639,2.71-4.314,6.156-7.555,8.108-4.457,2.685-10.138.4-15.338.592-1.06.039-2.3.309-2.733,1.276a3.222,3.222,0,0,0,.419,2.628q2.008,4.194,4.017,8.386a7.986,7.986,0,0,1-6.958-.169,23.637,23.637,0,0,0,6.177,14.873,2.007,2.007,0,0,0-2.772,1.054,5.031,5.031,0,0,0,.047,3.324,24.329,24.329,0,0,0,33.048,16.023l28.658,2.159a7.317,7.317,0,0,0,4.942,4.591c3.21-2.375,3.722-3.709,3.722-3.709,1.975,1.469.424.73,1.975,1.469,3.553,1.7,8.809-.317,9.61-4.275a8.371,8.371,0,0,1,1.905-4.369c1.137-1.153,2.756-1.6,4.186-2.317a11.777,11.777,0,0,0,5.248-5.376,8.5,8.5,0,0,1-6.236-2.714" transform="translate(83.906 1.51)" fill="#1a2e35"/>
        <path id="Trazado_290" data-name="Trazado 290" d="M470.031,39.489l.735,59.156c.126,10.061-1.746,24.863-17.66,24.335-13.773-1.5-17.427-14.537-17.535-23.925-.051-4.453-.1-8.167-.138-8.624,0,0-15.077-1.23-16.349-16.121-.615-7.2-.674-22.122-.573-35.626a27.839,27.839,0,0,1,25.82-27.537l1.438-.105c15.574-.227,24.466,12.873,24.262,28.447" transform="translate(87.124 2.298)" fill="#ffc09d"/>
        <path id="Trazado_291" data-name="Trazado 291" d="M432.511,77.983A36.111,36.111,0,0,0,451.5,70.829S447.559,82.06,432.588,81.8Z" transform="translate(90.047 14.746)" fill="#ff9b6c"/>
        <path id="Trazado_292" data-name="Trazado 292" d="M439.584,39.426c.3.3,2.015-1.083,4.51-1.15,2.492-.1,4.358,1.157,4.62.836.129-.143-.179-.694-.992-1.265a6.245,6.245,0,0,0-3.709-1.051,6.025,6.025,0,0,0-3.58,1.3c-.75.626-.994,1.195-.849,1.329" transform="translate(91.511 7.66)" fill="#1a2e35"/>
        <path id="Trazado_293" data-name="Trazado 293" d="M439.2,43.9a2.019,2.019,0,0,0,2.09,1.89,1.932,1.932,0,0,0,1.943-1.967,2.021,2.021,0,0,0-2.089-1.891A1.932,1.932,0,0,0,439.2,43.9" transform="translate(91.44 8.73)" fill="#1a2e35"/>
        <path id="Trazado_294" data-name="Trazado 294" d="M435.431,56.639a15.236,15.236,0,0,0-3.77-.4c-.588-.017-1.151-.093-1.278-.484a2.987,2.987,0,0,1,.263-1.763q.671-2.184,1.405-4.58c1.939-6.516,3.3-11.857,3.034-11.933s-2.049,5.144-3.987,11.662q-.7,2.409-1.33,4.6a3.4,3.4,0,0,0-.135,2.319,1.466,1.466,0,0,0,1.023.784,3.943,3.943,0,0,0,1,.066,14.945,14.945,0,0,0,3.771-.271" transform="translate(89.414 7.803)" fill="#1a2e35"/>
        <path id="Trazado_295" data-name="Trazado 295" d="M440.459,31.531c.24.553,2.239.137,4.63.26,2.395.072,4.358.65,4.636.118.122-.255-.25-.765-1.063-1.258a7.554,7.554,0,0,0-3.5-.986,7.466,7.466,0,0,0-3.557.7c-.845.425-1.249.9-1.144,1.167" transform="translate(91.698 6.175)" fill="#1a2e35"/>
        <path id="Trazado_296" data-name="Trazado 296" d="M420.848,35.369c.261.451,2.207-.05,4.567-.122,2.36-.116,4.317.228,4.567-.243.109-.225-.28-.629-1.1-.987a8.216,8.216,0,0,0-3.489-.576,8.511,8.511,0,0,0-3.47.854c-.811.423-1.189.859-1.072,1.074" transform="translate(87.614 6.961)" fill="#1a2e35"/>
        <path id="Trazado_297" data-name="Trazado 297" d="M460.806,43.922c.246-.128,10.021-3.777,10.439,6.437s-9.922,8.526-9.952,8.235-.487-14.672-.487-14.672" transform="translate(95.938 8.991)" fill="#ffc09d"/>
        <path id="Trazado_298" data-name="Trazado 298" d="M463.661,54.036c.044-.035.184.117.489.243a1.777,1.777,0,0,0,1.331-.028c1.063-.44,1.9-2.19,1.875-4.033a5.885,5.885,0,0,0-.6-2.526,2.061,2.061,0,0,0-1.4-1.312.906.906,0,0,0-1.029.532c-.126.291-.052.492-.105.512-.028.027-.227-.162-.162-.588a1.137,1.137,0,0,1,.376-.656,1.346,1.346,0,0,1,.974-.3,2.5,2.5,0,0,1,1.923,1.507,6.048,6.048,0,0,1,.733,2.822c.019,2.06-.956,4.029-2.415,4.516a1.905,1.905,0,0,1-1.638-.2c-.326-.239-.389-.466-.355-.486" transform="translate(96.531 9.551)" fill="#ff9b6c"/>
        <path id="Trazado_299" data-name="Trazado 299" d="M436.4,60.323c-.111-.257,1.89-.858,3.3-2.734a11.467,11.467,0,0,0,1.414-2.668c.3-.742.524-1.207.634-1.173s.078.535-.086,1.341a7.538,7.538,0,0,1-1.315,2.988,6.108,6.108,0,0,1-2.61,2c-.779.315-1.307.335-1.334.248" transform="translate(90.856 11.19)" fill="#1a2e35"/>
        <path id="Trazado_300" data-name="Trazado 300" d="M484.9,35.622c-2.129-3.6-2.624-7.9-3.788-11.92s-3.4-8.183-7.343-9.588l-.088.039c-3.54-1.423-7.9-1.444-10.809,1.014-.72-5.309-5.373-9.512-10.555-10.873s-13.492-.549-18.461,1.452c-3.842,1.546-7.556,4.714-12.07,9.368a50.169,50.169,0,0,0-5.212,6.316l-4.505,13.914a5.88,5.88,0,0,0-1.266,1.272,2.619,2.619,0,0,0,3.828,3.5l.04-.036a25.826,25.826,0,0,1,1.179,2.386v.018l.08.151c.231.5.47.993.759,1.484l0-.033,3.481,15.375c.22-4.194-.086-18.779.135-22.973a23.385,23.385,0,0,0,16.665-7.7c2.289-2.537,4.09-5.715,7.152-7.231,3.95-1.954,8.657-.532,12.819.913l-.176-.158a18.684,18.684,0,0,1,5.768,4.163,58.115,58.115,0,0,0,2.518,24.6c.39,1.189,1.456,3.638,2.623,4.09,2.294.886,2.912-1.45,4.292-2.691,1.016-.913,2.524-1.031,4.172-1.027a91.419,91.419,0,0,0,2.8-10.6,9.322,9.322,0,0,0,4.288.286l-1.319-3.158a4.888,4.888,0,0,0,1.835.831,1.662,1.662,0,0,0,1.74-.759c.389-.783-.14-1.687-.585-2.439" transform="translate(85.422 0.754)" fill="#1a2e35"/>
        <path id="Trazado_301" data-name="Trazado 301" d="M449.935,14.592a13.257,13.257,0,0,1,1.495,1.368,10.681,10.681,0,0,1,2.286,4.946,18.744,18.744,0,0,1,.381,3.785c.006,1.373-.1,2.839-.209,4.389a39.026,39.026,0,0,0-.111,4.885,17.06,17.06,0,0,0,.336,2.577,5.355,5.355,0,0,0,1.051,2.5,2.242,2.242,0,0,0,2.1.706,3.334,3.334,0,0,0,1.891-1.067,7.727,7.727,0,0,0,1.437-3.788l-.313.037a12.426,12.426,0,0,0,1.812,3.12,4.423,4.423,0,0,0,2.9,1.578,2.847,2.847,0,0,0,1.537-.268,2.472,2.472,0,0,0,1.043-1.027,2.555,2.555,0,0,0,.317-1.322,1.86,1.86,0,0,0-.478-1.159l-.158.143a9.638,9.638,0,0,0,3.2,2.4,8.829,8.829,0,0,0,.992.384,1.6,1.6,0,0,0,.355.088,1.706,1.706,0,0,0-.336-.143c-.222-.091-.551-.224-.962-.433a9.913,9.913,0,0,1-3.088-2.436l-.158.14a1.91,1.91,0,0,1,.1,2.213,2.225,2.225,0,0,1-.942.91,2.591,2.591,0,0,1-1.392.227,4.153,4.153,0,0,1-2.691-1.5,12.233,12.233,0,0,1-1.745-3.053l-.215-.477-.1.515a7.473,7.473,0,0,1-1.368,3.62,3.013,3.013,0,0,1-1.693.956,1.9,1.9,0,0,1-1.787-.6,5.074,5.074,0,0,1-.97-2.338,17.023,17.023,0,0,1-.335-2.524,40.024,40.024,0,0,1,.092-4.845c.1-1.548.2-3.023.178-4.412a18.677,18.677,0,0,0-.429-3.836,10.522,10.522,0,0,0-2.426-4.984,6.06,6.06,0,0,0-1.595-1.277" transform="translate(93.674 3.038)" fill="#375a64"/>
        <path id="Trazado_302" data-name="Trazado 302" d="M411.792,30.528s.037.039.12.1l.372.272a5.079,5.079,0,0,0,.631.4,8.22,8.22,0,0,0,.906.477A13.221,13.221,0,0,0,420.2,32.93a16.873,16.873,0,0,0,8.99-3.32,29.241,29.241,0,0,0,7.724-8.9c1.084-1.8,1.967-3.654,2.94-5.361a19.806,19.806,0,0,1,3.329-4.536,10.177,10.177,0,0,1,4.293-2.6,7.283,7.283,0,0,1,2.264-.261,7.958,7.958,0,0,1,2.072.4,8.613,8.613,0,0,1,4.787,4.05,10.242,10.242,0,0,1,.768,2.234.491.491,0,0,0-.012-.156c-.018-.124-.042-.274-.07-.457a7.419,7.419,0,0,0-.565-1.682,8.476,8.476,0,0,0-1.667-2.262,8.734,8.734,0,0,0-3.161-1.961,8.184,8.184,0,0,0-2.138-.434,7.555,7.555,0,0,0-2.355.25,10.417,10.417,0,0,0-4.438,2.653,19.91,19.91,0,0,0-3.4,4.6c-.986,1.72-1.869,3.564-2.943,5.352A29.245,29.245,0,0,1,429,29.35a16.771,16.771,0,0,1-8.817,3.335,13.4,13.4,0,0,1-6.3-1.026,20.788,20.788,0,0,1-2.085-1.131" transform="translate(85.733 1.597)" fill="#375a64"/>
        <path id="Trazado_303" data-name="Trazado 303" d="M410.67,21.172a2.319,2.319,0,0,0,.534.372,11.558,11.558,0,0,0,1.582.8,15.392,15.392,0,0,0,2.506.823,16.232,16.232,0,0,0,6.426.205,15.379,15.379,0,0,0,2.553-.661,11.651,11.651,0,0,0,1.63-.7,2.422,2.422,0,0,0,.557-.337c-.029-.059-.852.364-2.264.8a17.7,17.7,0,0,1-2.525.578,19.048,19.048,0,0,1-3.163.187,19.187,19.187,0,0,1-3.144-.389,17.527,17.527,0,0,1-2.483-.738c-1.382-.529-2.176-1-2.209-.947" transform="translate(85.5 4.407)" fill="#375a64"/>
        <path id="Trazado_304" data-name="Trazado 304" d="M420.758,40.2c.3.3,2.015-1.083,4.511-1.15,2.49-.1,4.357,1.157,4.619.836.129-.143-.179-.694-.992-1.264a6.245,6.245,0,0,0-3.709-1.054,6.036,6.036,0,0,0-3.58,1.3c-.75.626-.994,1.195-.849,1.329" transform="translate(87.592 7.822)" fill="#1a2e35"/>
        <path id="Trazado_305" data-name="Trazado 305" d="M421.917,44.182a2.02,2.02,0,0,0,2.09,1.89A1.932,1.932,0,0,0,425.95,44.1a2.02,2.02,0,0,0-2.089-1.891,1.932,1.932,0,0,0-1.944,1.968" transform="translate(87.841 8.789)" fill="#1a2e35"/>
        <path id="Trazado_306" data-name="Trazado 306" d="M429.259,89.98l-53.883,35.261-32.833-25.6-10.229,16.2s19.117,22.118,26.2,29.632,11.806,11.525,17.388,10.807,52.239-18.842,52.239-18.842l7.074-49.462-2.965.716a9.575,9.575,0,0,0-2.993,1.294" transform="translate(69.187 18.315)" fill="#375a64"/>
        <path id="Trazado_307" data-name="Trazado 307" d="M474.946,79.665c-12.055,7.575-24.205,10.426-36.51,5.519l-18.5,4.725-8.993,15.632a14.158,14.158,0,0,0-1.845,8.113l3.534,59.836-10.9,38.006,106.7.928-5.257-28.24L489.957,82.719Z" transform="translate(83.64 16.586)" fill="#375a64"/>
        <path id="Trazado_308" data-name="Trazado 308" d="M476.407,127.773l-3.338-45.814s25.116,2.329,33.425,20.049c7,14.932,28.025,58.338,30.094,64.484,6.071,18.034-5.1,44.346-44.208,42.91l-4.458-24.517Z" transform="translate(98.491 17.064)" fill="#375a64"/>
        <path id="Trazado_309" data-name="Trazado 309" d="M492.437,151.451a10.756,10.756,0,0,0,.625,1.8c.43,1.1,1.07,2.593,1.806,4.23l1.885,4.19a13.556,13.556,0,0,0,.82,1.72,10.764,10.764,0,0,0-.625-1.8c-.43-1.1-1.07-2.593-1.806-4.231l-1.885-4.189a13.546,13.546,0,0,0-.82-1.72" transform="translate(102.522 31.531)" fill="#1a2e35"/>
        <path id="Trazado_310" data-name="Trazado 310" d="M480.958,123.842c.083,0,.151-2.9.151-6.486s-.068-6.486-.151-6.486-.15,2.9-.15,6.486.066,6.486.15,6.486" transform="translate(100.102 23.083)" fill="#1a2e35"/>
        <path id="Trazado_311" data-name="Trazado 311" d="M483.991,108.273a3.656,3.656,0,0,0,.23-.724c.124-.47.325-1.145.6-1.969a31.787,31.787,0,0,1,6.825-11.6c.588-.638,1.08-1.142,1.432-1.478a3.7,3.7,0,0,0,.521-.553,3.75,3.75,0,0,0-.6.466c-.377.312-.894.795-1.507,1.418a28.649,28.649,0,0,0-6.873,11.682c-.249.838-.419,1.526-.509,2.007a3.621,3.621,0,0,0-.116.75" transform="translate(100.764 19.143)" fill="#1a2e35"/>
        <path id="Trazado_312" data-name="Trazado 312" d="M410.945,103.115a6.875,6.875,0,0,1,.143,1.5c.059.965.074,2.364.047,4.092-.044,3.458-.4,8.219-.822,13.459s-.623,9.992-.533,13.43c.04,1.718.1,3.11.18,4.069a7.014,7.014,0,0,1,.039,1.5,6.839,6.839,0,0,1-.283-1.476c-.153-.956-.284-2.35-.381-4.078a103.94,103.94,0,0,1,.35-13.494c.422-5.248.847-9.986,1-13.425.083-1.719.137-3.111.152-4.075a6.934,6.934,0,0,1,.1-1.5" transform="translate(85.202 21.468)" fill="#1a2e35"/>
        <path id="Trazado_313" data-name="Trazado 313" d="M509.839,158.424a13.365,13.365,0,0,1-1.719.965c-1.119.593-2.718,1.48-4.661,2.642s-4.238,2.6-6.913,3.979c-1.336.691-2.761,1.379-4.261,2.031l-4.672,1.932-1.435.588.192-.341c1.026,6.487,1.913,12.3,2.521,16.486.28,2.015.512,3.681.69,4.955a10.541,10.541,0,0,1,.169,1.822,10.607,10.607,0,0,1-.4-1.785c-.226-1.266-.523-2.921-.881-4.925-.721-4.173-1.681-9.97-2.716-16.454l-.04-.245.232-.1,1.433-.588,4.665-1.915c1.493-.64,2.909-1.31,4.242-1.981,2.666-1.342,4.974-2.737,6.956-3.847s3.619-1.95,4.775-2.477c.574-.272,1.032-.458,1.341-.585a1.588,1.588,0,0,1,.487-.162" transform="translate(101.123 32.982)" fill="#1a2e35"/>
        <path id="Trazado_314" data-name="Trazado 314" d="M513.357,151.929c.021.11-1.265.353-3.221,1.081a24.486,24.486,0,0,0-12.322,10.162c-1.086,1.782-1.569,3-1.673,2.956a2.65,2.65,0,0,1,.245-.89,15.437,15.437,0,0,1,1.044-2.29,22.147,22.147,0,0,1,12.56-10.36,15.455,15.455,0,0,1,2.445-.588,2.64,2.64,0,0,1,.922-.071" transform="translate(103.292 31.627)" fill="#1a2e35"/>
        <path id="Trazado_315" data-name="Trazado 315" d="M493,202.389l26.219-63.258c1.2-2.886-.3-5.227-3.353-5.227h-5.275c-2.153,0-3.62-1.185-3.759-3.036l-.174-2.326c-.14-1.852-1.609-3.037-3.764-3.037H477.833a8.772,8.772,0,0,0-5.8,2.569l-2.035,1.971a8.764,8.764,0,0,1-5.8,2.567H432.271a8.909,8.909,0,0,0-7.625,5.228l-25.992,64.549Z" transform="translate(82.998 26.13)" fill="#ff735d"/>
        <g id="Grupo_70" data-name="Grupo 70" transform="translate(481.653 151.634)" opacity="0.3">
          <g id="Grupo_69" data-name="Grupo 69">
            <g id="Grupo_68" data-name="Grupo 68" clip-path="url(#clip-path-3)">
              <path id="Trazado_316" data-name="Trazado 316" d="M493,202.389l26.219-63.258c1.2-2.886-.3-5.227-3.353-5.227h-5.275c-2.153,0-3.62-1.185-3.759-3.036l-.174-2.326c-.14-1.852-1.609-3.037-3.764-3.037H477.833a8.772,8.772,0,0,0-5.8,2.569l-2.035,1.971a8.764,8.764,0,0,1-5.8,2.567H432.271a8.909,8.909,0,0,0-7.625,5.228l-25.992,64.549Z" transform="translate(-398.655 -125.505)" fill="#faaf40"/>
            </g>
          </g>
        </g>
        <path id="Trazado_317" data-name="Trazado 317" d="M495.632,178.815l9.889-38.232c.65-2.517-1-5.043-3.292-5.043H424.721a3.535,3.535,0,0,0-3.3,2.848l-14.393,57.545c-.633,2.526.377,4.043,2.675,4.014l77.984.024a3.538,3.538,0,0,0,3.257-2.825Z" transform="translate(84.703 28.219)" fill="#e1e1e1"/>
        <path id="Trazado_318" data-name="Trazado 318" d="M489.645,198.764l4.212-60.207a3.692,3.692,0,0,0-3.683-3.951H409.867v64.158Z" transform="translate(85.333 28.024)" fill="#ececec"/>
        <path id="Trazado_319" data-name="Trazado 319" d="M493.81,200.141l-9.554-62.069a4.445,4.445,0,0,0-4.366-3.466H398.65a4.391,4.391,0,0,0-4.1,6.117l17.542,56.8Z" transform="translate(82.067 28.024)" fill="#fafafa"/>
        <path id="Trazado_320" data-name="Trazado 320" d="M496.2,199.829l-19.7-58.13a5.831,5.831,0,0,0-5.479-4.041H387.264a4.092,4.092,0,0,0-3.741,5.43l18.325,56.77Z" transform="translate(79.804 28.66)" fill="#faaf40"/>
        <g id="Grupo_73" data-name="Grupo 73" transform="translate(534.178 193.777)" opacity="0.3">
          <g id="Grupo_72" data-name="Grupo 72">
            <g id="Grupo_71" data-name="Grupo 71" clip-path="url(#clip-path-4)">
              <path id="Trazado_321" data-name="Trazado 321" d="M443.458,185.365s3.162.144,4.62.244a43.04,43.04,0,0,0,20.35-3.61c1.971-.878,4.055-2.117,4.652-4.191.667-2.322-.837-4.739-2.67-6.313s-4.063-2.694-5.656-4.513-2.345-4.759-.777-6.6l.434.317c1.133,2.871,4.288,4.255,6.9,5.9a24.354,24.354,0,0,1,10.226,13.366c.919,3.01,1.166,6.521-.66,9.084a11.315,11.315,0,0,1-5.507,3.629c-6.336,2.349-13.108,2.437-19.865,2.444-2.135,0-8.688-.087-8.688-.087-2.06-.561-2.74-1.633-3.98-3.371-1.138-1.6-.889-5.051.62-6.3" transform="translate(-442.129 -160.386)"/>
            </g>
          </g>
        </g>
        <path id="Trazado_322" data-name="Trazado 322" d="M443.229,185.6l21.844-3.284,8.48-4.88a3.823,3.823,0,0,0,1.949-3.081q0-.036,0-.073a3.87,3.87,0,0,0-2.4-3.7c-2.691-1.134-6.953-2.642-8.77-5.826-2.613-4.577,0-5.526,0-5.526l18.241,7.291,12.912,8.788,2.6,14.654-18.017,5.884s-20.077,1.132-25.616.511-5.54-3.2-5.54-3.2c-1.028-.323-3.107-2.148-3.107-3.851-2.688-2.521-2.578-3.712-2.578-3.712" transform="translate(92.278 33.153)" fill="#ffc09d"/>
        <path id="Trazado_323" data-name="Trazado 323" d="M470.318,186.282a4.361,4.361,0,0,0-.9.172c-.57.139-1.4.323-2.43.528a51.382,51.382,0,0,1-16.3.636c-1.042-.124-1.884-.243-2.462-.336a4.31,4.31,0,0,0-.911-.1,4.338,4.338,0,0,0,.883.243c.574.138,1.412.3,2.455.455a44.376,44.376,0,0,0,16.394-.639c1.027-.24,1.851-.463,2.412-.645a4.376,4.376,0,0,0,.863-.312" transform="translate(93.128 38.782)" fill="#ff9b6c"/>
        <path id="Trazado_324" data-name="Trazado 324" d="M468.73,183.487a4.523,4.523,0,0,0-.913.174c-.58.14-1.423.324-2.468.524a52.919,52.919,0,0,1-8.257.913,56.081,56.081,0,0,1-8.3-.382c-1.057-.127-1.913-.249-2.5-.344a4.457,4.457,0,0,0-.924-.1,4.379,4.379,0,0,0,.9.246c.582.14,1.434.3,2.492.463a47.051,47.051,0,0,0,8.349.492,44.816,44.816,0,0,0,8.3-1.027c1.044-.234,1.882-.458,2.453-.642a4.468,4.468,0,0,0,.876-.314" transform="translate(92.723 38.2)" fill="#ff9b6c"/>
        <path id="Trazado_325" data-name="Trazado 325" d="M100.113,17.266c-.941-3.4-2.787-6.737-5.836-8.517-1.446-.843-3.091-1.3-4.561-2.1a56.812,56.812,0,0,1-4.9-3.558A17.469,17.469,0,0,0,59.29,9.552c-3.43-2.616-9.38-1.51-13.439-.05S38.4,15.8,37.42,20l19.045,5.759A50.918,50.918,0,0,0,69.472,36.474a26.441,26.441,0,0,0,16.3,3.3c5.579-.842,10.9-4.179,13.419-9.229a18.771,18.771,0,0,0,.917-13.274" transform="translate(7.791 0)" fill="#1a2e35"/>
        <path id="Trazado_326" data-name="Trazado 326" d="M106.846,76.388a11.4,11.4,0,0,0,2.4-15.663c-1.073-1.392-2.541-2.65-2.782-4.391a8.611,8.611,0,0,1,.462-3.186,18.815,18.815,0,0,0-6.9-19.134c-.1-3.9-2.288-12.156-7.241-15.311l-22.5,3.162q1.535,35.543-.207,71.125c-.178,3.631-.309,7.54,1.676,10.585,2.816,4.317,8.691,5.215,13.844,5.346,4.929.127,9.954-.085,14.607-1.716s8.933-4.855,10.882-9.384c3-6.974-.1-15.067-4.232-21.433" transform="translate(14.569 3.894)" fill="#1a2e35"/>
        <path id="Trazado_327" data-name="Trazado 327" d="M43.812,29.3l-.681-5.043,29.69-9.266c9.246-2.066,20.446,6.15,22.118,15.475,1.858,10.36,3.718,23.083,3.377,31.011C97.632,77.417,85.86,80.79,85.86,80.79l1.2,9.452a17.464,17.464,0,0,1-34.639,4.488Z" transform="translate(8.98 3.054)" fill="#ffc09d"/>
        <path id="Trazado_328" data-name="Trazado 328" d="M85.02,37.72a2.021,2.021,0,0,1-1.7,2.248A1.932,1.932,0,0,1,81.039,38.4a2.022,2.022,0,0,1,1.7-2.25A1.935,1.935,0,0,1,85.02,37.72" transform="translate(16.868 7.519)" fill="#1a2e35"/>
        <path id="Trazado_329" data-name="Trazado 329" d="M85.275,33.854c-.219.29-1.87-.661-4.029-.406-2.161.224-3.62,1.516-3.884,1.279-.129-.1.07-.605.7-1.188a5.543,5.543,0,0,1,3.072-1.348,5.321,5.321,0,0,1,3.244.65c.724.434,1,.881.894,1.012" transform="translate(16.099 6.695)" fill="#1a2e35"/>
        <path id="Trazado_330" data-name="Trazado 330" d="M68.324,39.991a2.022,2.022,0,0,1-1.7,2.248,1.933,1.933,0,0,1-2.277-1.572,2.022,2.022,0,0,1,1.7-2.25,1.934,1.934,0,0,1,2.28,1.573" transform="translate(13.391 7.992)" fill="#1a2e35"/>
        <path id="Trazado_331" data-name="Trazado 331" d="M67.734,36.21c-.22.29-1.871-.66-4.031-.406-2.161.224-3.619,1.517-3.884,1.279-.128-.1.069-.605.7-1.188a5.526,5.526,0,0,1,3.071-1.348,5.325,5.325,0,0,1,3.245.65c.721.434,1,.881.894,1.012" transform="translate(12.446 7.186)" fill="#1a2e35"/>
        <path id="Trazado_332" data-name="Trazado 332" d="M74.91,51.517a14.428,14.428,0,0,1,3.437-1.037c.545-.121,1.055-.29,1.1-.678a2.826,2.826,0,0,0-.557-1.592Q77.887,46.3,76.78,44.2c-2.954-5.722-5.16-10.452-4.929-10.569s2.814,4.426,5.768,10.148q1.073,2.119,2.049,4.046a3.215,3.215,0,0,1,.536,2.132,1.4,1.4,0,0,1-.816.911,3.724,3.724,0,0,1-.922.238,14.16,14.16,0,0,1-3.557.414" transform="translate(14.956 7.001)" fill="#1a2e35"/>
        <path id="Trazado_333" data-name="Trazado 333" d="M82.313,69.974a41.723,41.723,0,0,1-22.151-3.152s6.55,10.355,22.59,7.057Z" transform="translate(12.525 13.912)" fill="#ff9b6c"/>
        <path id="Trazado_334" data-name="Trazado 334" d="M75.206,53.028a3.921,3.921,0,0,0-3.657-1.045,3.579,3.579,0,0,0-2.3,1.6,2.267,2.267,0,0,0,.126,2.6,2.629,2.629,0,0,0,2.914.39A8.231,8.231,0,0,0,74.859,54.6a2.407,2.407,0,0,0,.544-.71.727.727,0,0,0-.1-.8" transform="translate(14.345 10.802)" fill="#ff9b6c"/>
        <path id="Trazado_335" data-name="Trazado 335" d="M69.3,50.277c.349-.062.623,2.283,2.822,3.718s4.666.889,4.722,1.214c.05.144-.5.52-1.556.669A5.879,5.879,0,0,1,71.362,55a5.117,5.117,0,0,1-2.216-3.134c-.2-.97-.007-1.582.155-1.586" transform="translate(14.378 10.467)" fill="#1a2e35"/>
        <path id="Trazado_336" data-name="Trazado 336" d="M67.7,29.063c-.145.613-2.335.581-4.835,1.178-2.512.547-4.47,1.525-4.868,1.037-.179-.234.114-.828.875-1.492A8.646,8.646,0,0,1,66.264,28.1c.974.268,1.5.675,1.437.965" transform="translate(12.064 5.801)" fill="#1a2e35"/>
        <path id="Trazado_337" data-name="Trazado 337" d="M83.929,28.779c-.324.534-1.871.2-3.663.378-1.8.118-3.268.709-3.677.237-.181-.232,0-.751.61-1.292a5.33,5.33,0,0,1,5.913-.5c.691.431.957.913.817,1.172" transform="translate(15.932 5.608)" fill="#1a2e35"/>
        <path id="Trazado_338" data-name="Trazado 338" d="M47.482,14.208c-3.077,1.011-6.556,9.409-5.653,12.521a9.538,9.538,0,0,0,6.942,6.164,18,18,0,0,0,9.576-.621c4.383-1.331,9.007-4.351,9.32-8.921a17.812,17.812,0,0,0,16.76,4.6C90.3,26.436,94.65,17.455,96.3,11.621Z" transform="translate(8.678 2.419)" fill="#1a2e35"/>
        <path id="Trazado_339" data-name="Trazado 339" d="M74.749,41.36c-.071,0-.036-.791-.4-2.139a8.858,8.858,0,0,0-3.245-4.742,8.636,8.636,0,0,0-8.163-1.185,8.493,8.493,0,0,0-3.975,3,8.549,8.549,0,0,0,0,10.13,8.5,8.5,0,0,0,3.976,3,8.63,8.63,0,0,0,8.163-1.186A8.847,8.847,0,0,0,74.353,43.5c.36-1.346.325-2.142.4-2.137a1.964,1.964,0,0,1,.035.57,6.963,6.963,0,0,1-.195,1.627,8.831,8.831,0,0,1-3.211,5.036,8.979,8.979,0,0,1-3.82,1.743,9.133,9.133,0,0,1-4.81-.366,9.038,9.038,0,0,1-4.276-3.181,9.112,9.112,0,0,1,0-10.86,9.032,9.032,0,0,1,4.275-3.18,9.132,9.132,0,0,1,4.81-.366,8.967,8.967,0,0,1,3.819,1.743,8.83,8.83,0,0,1,3.213,5.036,6.963,6.963,0,0,1,.195,1.627,1.964,1.964,0,0,1-.035.57" transform="translate(11.8 6.708)" fill="#375a64"/>
        <path id="Trazado_340" data-name="Trazado 340" d="M93.152,38.044c-.071,0-.036-.791-.4-2.139a8.854,8.854,0,0,0-3.245-4.742,8.636,8.636,0,0,0-8.163-1.185,8.5,8.5,0,0,0-3.975,3,8.551,8.551,0,0,0,0,10.131,8.5,8.5,0,0,0,3.976,3,8.63,8.63,0,0,0,8.163-1.186,8.847,8.847,0,0,0,3.245-4.742c.36-1.346.325-2.142.4-2.137a1.959,1.959,0,0,1,.035.569,6.965,6.965,0,0,1-.195,1.629,8.831,8.831,0,0,1-3.211,5.036,8.979,8.979,0,0,1-3.82,1.743,9.133,9.133,0,0,1-4.81-.366,9.038,9.038,0,0,1-4.276-3.181,9.112,9.112,0,0,1,0-10.86,9.078,9.078,0,0,1,12.9-1.8,8.827,8.827,0,0,1,3.213,5.036,6.962,6.962,0,0,1,.195,1.627,1.964,1.964,0,0,1-.035.57" transform="translate(15.632 6.018)" fill="#375a64"/>
        <path id="Trazado_341" data-name="Trazado 341" d="M70.545,36.213c-.075-.014-.087-.428.209-1.006a3.268,3.268,0,0,1,4.4-1.373c.574.309.8.655.744.709-.06.074-.376-.13-.917-.3a3.4,3.4,0,0,0-3.853,1.2c-.35.446-.493.793-.585.767" transform="translate(14.678 6.968)" fill="#375a64"/>
        <path id="Trazado_342" data-name="Trazado 342" d="M57.9,41.529c.062.163-1.469.825-3.418,1.479s-3.57,1.049-3.619.882,1.481-.829,3.418-1.479,3.557-1.044,3.619-.882" transform="translate(10.589 8.639)" fill="#375a64"/>
        <path id="Trazado_343" data-name="Trazado 343" d="M189.017,65.477c2.6-1,1.524-3.7,1.524-3.7l-9.652,2.908a38.066,38.066,0,0,0,7.748-4.224c2.624-2.147,1.316-4.016,1.316-4.016l-9.946,3.84-5.622,3.312-14.078,21.49s11,5.38,12.949,3.829c3.423-2.727,5.292-8.816,6.055-11.912,1.379-.4,5.724-1.693,6.9-2.474a6.484,6.484,0,0,0,2.066-2.333l-7.665,1.461c1.112-.325,8.217-2.76,8.781-3.628.991-1.53.367-2.21.367-2.21l-9.627,1.5.992-.724s5.391-2.148,7.893-3.116" transform="translate(33.375 11.751)" fill="#ffc09d"/>
        <path id="Trazado_344" data-name="Trazado 344" d="M170.844,82.568l-32.393,29.658c-4.022-.928-53.345-30.413-53.345-30.413l-7.8,37.94s50.48,23.207,64.37,20.391c2.268-.459,6-.749,8.338-3.755,11.113-14.281,34.689-49.615,34.689-49.615Z" transform="translate(16.096 17.033)" fill="#ffc09d"/>
        <path id="Trazado_345" data-name="Trazado 345" d="M176.723,85.861,170.88,83.04l4.223-7.652,3.307-7,5.132-9.529-7.822,2.936a6.054,6.054,0,0,0-2.36,1.8L160.488,81.371l-5.706,5.815L160.289,102l6.471-10.1,3.785-.882c3.785-.882,6.178-5.155,6.178-5.155" transform="translate(32.225 12.254)" fill="#ffc09d"/>
        <path id="Trazado_346" data-name="Trazado 346" d="M165.612,71.882A49.039,49.039,0,0,1,174,68.6a6.957,6.957,0,0,1,2.9-.376,2.61,2.61,0,0,1,2.2,1.712,2.733,2.733,0,0,1-1.344,2.827,10.422,10.422,0,0,1-3.145,1.106,5.467,5.467,0,0,0-2.914,1.539,8.984,8.984,0,0,0-1.244,2.874A10.115,10.115,0,0,1,163,84.679" transform="translate(33.936 14.196)" fill="#ffc09d"/>
        <path id="Trazado_347" data-name="Trazado 347" d="M163,84.725c-.011-.051.518-.157,1.41-.513a10.4,10.4,0,0,0,3.366-2.2,9.862,9.862,0,0,0,1.7-2.18,13.782,13.782,0,0,0,1.183-2.976,4.851,4.851,0,0,1,.872-1.633,4.373,4.373,0,0,1,1.594-1.113c1.2-.527,2.521-.654,3.692-1.138a3.635,3.635,0,0,0,1.48-1.029,2.027,2.027,0,0,0-1.676-3.439,8.977,8.977,0,0,0-3.1.528c-.975.284-1.876.574-2.692.858-1.632.57-2.927,1.1-3.819,1.481a9.2,9.2,0,0,1-1.4.553,6.6,6.6,0,0,1,1.31-.755,40.2,40.2,0,0,1,3.774-1.659c.814-.311,1.716-.626,2.694-.933a9.2,9.2,0,0,1,3.278-.6,3.374,3.374,0,0,1,1.777.636,2.367,2.367,0,0,1,1,1.747,3.447,3.447,0,0,1-2.4,3.138c-1.286.523-2.592.643-3.689,1.125a3.843,3.843,0,0,0-1.4.958,4.362,4.362,0,0,0-.789,1.449,13.7,13.7,0,0,1-1.27,3.041,9.994,9.994,0,0,1-1.834,2.234,9.816,9.816,0,0,1-3.567,2.111,6.759,6.759,0,0,1-1.095.273c-.255.04-.389.051-.393.031" transform="translate(33.936 14.152)" fill="#ff9b6c"/>
        <path id="Trazado_348" data-name="Trazado 348" d="M94.972,170.166H28.582a169.593,169.593,0,0,0-16.265,25.19l94.628.39c1.857-3.046-11.973-25.58-11.973-25.58" transform="translate(2.564 35.428)" fill="#1a2e35"/>
        <path id="Trazado_349" data-name="Trazado 349" d="M113.113,129.152c-2.247-29.72-9.623-48.394-9.623-48.394l-11.5-3.538C90.252,84.815,77.875,87.324,70.828,84l-7.459-3.9c-23.933-3.59-22.695-1.6-28.229,1.722-4.806,2.889-4.365,24.449-4.365,24.449S18.844,162.45,19.5,171.46s7.6,18.058,7.6,18.058h66.39c6.684,0,8.593-15.116,8.126-20.6s12.241-30,11.5-39.765" transform="translate(4.054 16.077)" fill="#e8505b"/>
        <path id="Trazado_350" data-name="Trazado 350" d="M44.793,136.8a5.237,5.237,0,0,0,1.113.941,21.005,21.005,0,0,0,9.1,3.7,19.478,19.478,0,0,0,7.244-.313,23.867,23.867,0,0,0,11.27-6.54,27.8,27.8,0,0,0,2.592-3.008,5.512,5.512,0,0,0,.778-1.231c-.1-.079-1.3,1.613-3.713,3.884a24.874,24.874,0,0,1-11.086,6.213,20.3,20.3,0,0,1-12.552-1.157c-3.042-1.294-4.671-2.607-4.748-2.49" transform="translate(9.326 27.138)" fill="#1a2e35"/>
        <path id="Trazado_351" data-name="Trazado 351" d="M75.737,131.679a19.34,19.34,0,0,1-6.82,13.046,16.048,16.048,0,0,1-14.207,3.1,13.742,13.742,0,0,1-9.7-10.542c3.414,1.555,6.883,3.128,10.593,3.689a20.8,20.8,0,0,0,20.456-9.656l-.54.571" transform="translate(9.37 27.339)" fill="#a31f2f"/>
        <path id="Trazado_352" data-name="Trazado 352" d="M7.718,127.248l33.456,15.686s13.639-30.171,14.811-34.3,4.852-10.654,1.08-19.255-13.882-11.761-19.48-8.095c-12.521,8.2-29.868,45.96-29.868,45.96" transform="translate(1.607 16.611)" fill="#e8505b"/>
        <path id="Trazado_353" data-name="Trazado 353" d="M95.994,128.765c1.562,0,19.5,9.382,19.5,9.382l10.213-33.829c-15.251-10.162-27.768-21.772-36.693-24.17L93.7,108.1Z" transform="translate(18.532 16.686)" fill="#e8505b"/>
        <path id="Trazado_354" data-name="Trazado 354" d="M7.718,121.3a2.906,2.906,0,0,1,.665.234c.489.209,1.1.468,1.852.787,1.678.747,3.968,1.762,6.761,3,5.756,2.625,13.57,6.188,22.2,10.123l2.709,1.249-.423.151c3.861-7.956,7.244-15.077,9.64-20.214l2.8-6.076c.3-.663.553-1.207.754-1.646a2.373,2.373,0,0,1,.3-.556,2.49,2.49,0,0,1-.186.6c-.143.387-.352.961-.648,1.691-.585,1.463-1.475,3.565-2.619,6.162-2.293,5.19-5.61,12.347-9.46,20.316l-.137.281-.286-.13-2.71-1.248c-8.6-4-16.389-7.625-22.126-10.294-2.757-1.318-5.019-2.4-6.675-3.187l-1.8-.9a2.746,2.746,0,0,1-.61-.354" transform="translate(1.607 22.559)" fill="#1a2e35"/>
        <path id="Trazado_355" data-name="Trazado 355" d="M92.547,97.4a15.373,15.373,0,0,1,.694,2.082c.446,1.446,1.04,3.374,1.76,5.712,1.45,4.81,3.562,11.59,3.658,19.4a41.084,41.084,0,0,1-1.782,10.761c-.93,3.222-2.009,6.04-2.927,8.392s-1.718,4.234-2.262,5.536a15.054,15.054,0,0,1-.9,2,1.922,1.922,0,0,1,.143-.552c.145-.422.319-.929.528-1.539.526-1.418,1.225-3.312,2.074-5.606.863-2.368,1.894-5.189,2.785-8.392a42.042,42.042,0,0,0,1.712-10.609c-.094-7.666-2.114-14.426-3.457-19.265-.686-2.428-1.23-4.4-1.569-5.772-.174-.685-.292-1.221-.371-1.585a1.978,1.978,0,0,1-.087-.563" transform="translate(18.901 20.277)" fill="#1a2e35"/>
        <path id="Trazado_356" data-name="Trazado 356" d="M79.812,109.2a22.054,22.054,0,0,0-6.605-12.981c-1.733-1.739-3.815-3.476-4.153-5.908-.436-3.151,2.292-6.1,1.85-9.252-.552-3.931-5.473-5.64-7.231-9.2-2.364-4.786,1.754-11.007-.782-15.7-1.527-2.831-5.169-4.352-5.9-7.484-.475-2.026,3.389-4.985,4.288-9.384,2.019-9.889,3.045-17.541-6.561-23.3L49.108,8.3c-6.289,3.068-11.571,9.972-11.68,17.188-.051,3.411,1.7,6.83.211,9.9-2.072,4.284-6.9,6.922-8.356,11.452-2.085,6.482,3.657,13.735,1.15,20.066-1.479,3.733-5.376,5.865-7.822,9.049a13.816,13.816,0,0,0,.882,17.324,17.422,17.422,0,0,0-6.563,19.5c1,2.934,3.265,5.843,6.359,6.013,4.432.245,6.959-4.77,10.2-7.8a13.826,13.826,0,0,1,18.665.488c3.412,3.539,4.788,8.862,8.763,11.753,4,2.912,9.945,2.384,13.79-.731a15.211,15.211,0,0,0,5.1-13.3" transform="translate(3.35 1.729)" fill="#1a2e35"/>
        <path id="Trazado_357" data-name="Trazado 357" d="M39.5,132.389c-6.336,10.411-10.755,16.4-10.755,16.4l56.819,34.6-6.622,15.38L5.247,168.439s-7.262-7.476-4.7-15.807L12.3,120.2Z" transform="translate(0 25.026)" fill="#ffc09d"/>
        <path id="Trazado_358" data-name="Trazado 358" d="M12.351,149.174c.134.176,2.818-2.079,6.8-3.533,3.968-1.5,7.473-1.538,7.459-1.759.033-.164-3.591-.443-7.7,1.1-4.125,1.509-6.69,4.085-6.557,4.189" transform="translate(2.57 29.928)" fill="#ff9b6c"/>
        <path id="Trazado_359" data-name="Trazado 359" d="M116.045,183.041l-14.172-6.779-27.657-2.194L71.96,172.5l-6.621,15.379s7.249,3.466,11.047,3.776l23.253-.7L111.8,192.23Z" transform="translate(13.603 35.914)" fill="#ffc09d"/>
        <path id="Trazado_360" data-name="Trazado 360" d="M196.96,136.043l-79.728.648c-2.587,0-5.058,1.242-5.445,3.8L103.074,198.6H62.007a2.394,2.394,0,0,0,0,4.788H193.168l8.965-61.329a5.232,5.232,0,0,0-5.172-6.016" transform="translate(12.411 28.324)" fill="#e1e1e1"/>
        <path id="Trazado_361" data-name="Trazado 361" d="M197.016,136.048a4.2,4.2,0,0,1,1.257.118,5.267,5.267,0,0,1,4.031,4.563,14.8,14.8,0,0,1-.292,3.28c-.335,2.349-.719,5.053-1.15,8.092-1.756,12.182-4.284,29.741-7.393,51.327l-.03.21h-.214l-127.246.076H62.554a3.324,3.324,0,0,1-1.812-.344,2.717,2.717,0,0,1,.012-4.751,3.325,3.325,0,0,1,1.8-.337h1.687l13.326,0,25.567.008-.307.265c3.136-20.811,6.062-40.224,8.687-57.641a4.515,4.515,0,0,1,1.475-3.036,5.928,5.928,0,0,1,3.048-1.345,26.406,26.406,0,0,1,3.215-.114l3.13-.021,12-.081,21.331-.135,30.369-.156,8.124-.015,2.1.01c.471,0,.712.022.712.022s-.24.021-.712.034l-2.1.043-8.124.117-30.368.337c-6.48.065-13.615.135-21.332.211l-12,.115-3.129.029a26.36,26.36,0,0,0-3.136.115,5.414,5.414,0,0,0-2.78,1.226,3.971,3.971,0,0,0-1.3,2.722c-2.6,17.42-5.5,36.838-8.6,57.653l-.039.265h-.268l-25.567.008-13.326,0H62.55a2.676,2.676,0,0,0-1.486.257,2.074,2.074,0,0,0-.008,3.626,2.678,2.678,0,0,0,1.5.262h3.424l127.246.075-.243.211c3.2-21.572,5.8-39.12,7.607-51.3.456-3.036.861-5.737,1.214-8.083a14.793,14.793,0,0,0,.325-3.231,5.1,5.1,0,0,0-.925-2.478,5.217,5.217,0,0,0-2.946-2.033,10.309,10.309,0,0,0-1.24-.188" transform="translate(12.356 28.318)" fill="#1a2e35"/>
        <path id="Trazado_362" data-name="Trazado 362" d="M98.26,202.74c.112.018,2.651-14.779,5.668-33.045s5.373-33.1,5.259-33.115-2.65,14.775-5.668,33.049-5.372,33.094-5.259,33.112" transform="translate(20.456 28.435)" fill="#1a2e35"/>
      </g>
    </g>
  </g>
</svg>
