<svg id="pc-azulRey" xmlns="http://www.w3.org/2000/svg" xmlns:xlink="http://www.w3.org/1999/xlink" width="130" height="105.015" viewBox="0 0 130 105.015">
  <defs>
    <clipPath id="clip-path">
      <rect id="Rect치ngulo_110" data-name="Rect치ngulo 110" width="64.511" height="50.899" fill="none"/>
    </clipPath>
  </defs>
  <g id="Grupo_87" data-name="Grupo 87" transform="translate(0)">
    <path id="Trazado_363" data-name="Trazado 363" d="M599.526,78.368l6.716,10.582H578.149l6.726-10.582Z" transform="translate(-527.198 11.231)" fill="#002f87"/>
    <rect id="Rect치ngulo_109" data-name="Rect치ngulo 109" width="120.339" height="4.861" transform="translate(4.836 79.982)" fill="#002f87"/>
    <path id="Trazado_364" data-name="Trazado 364" d="M658.594,4.211H538.238V6.143h-3.614V76.759H654.98q0-.968-.026-1.931h3.64Z" transform="translate(-533.416 0.624)" fill="#002f87"/>
    <path id="Trazado_365" data-name="Trazado 365" d="M659.763,0H537.369a3.807,3.807,0,0,0-3.8,3.8V85.849a3.807,3.807,0,0,0,3.8,3.8h48.194l-6.7,10.548h-3.311a2.408,2.408,0,1,0,0,4.815h46.021a2.408,2.408,0,1,0,0-4.815h-3.31l-6.7-10.548h48.193a3.807,3.807,0,0,0,3.8-3.8V3.8a3.807,3.807,0,0,0-3.8-3.8M538.382,4.815h120.37V75.181H538.382ZM612.564,100.2h-28l6.7-10.548h14.6ZM538.382,80h120.37v4.841H538.382Z" transform="translate(-533.566)" fill="#231f20"/>
    <g id="Grupo_82" data-name="Grupo 82" transform="translate(8.199 24.382)" opacity="0.5">
      <g id="Grupo_81" data-name="Grupo 81" transform="translate(0 0)">
        <g id="Grupo_80" data-name="Grupo 80" clip-path="url(#clip-path)">
          <path id="Trazado_366" data-name="Trazado 366" d="M604.246,50.458c-2.3.89-3.822,2.42-3.485,5.23h-6.412c.328-2.672-1.086-4.257-3.353-5.167s-4.392-.762-6.077,1.526l-4.285-4.761c2.031-1.611,1.806-3.846.83-6.129-.958-2.241-2.362-3.977-5.241-3.613v-6.4c2.785.341,4.268-1.333,5.237-3.622.962-2.272,1.21-4.495-.811-6.137l-39.941,50.9h46.886L605.22,50.154a7.578,7.578,0,0,0-.974.3" transform="translate(-540.709 -21.384)" fill="#231f20"/>
        </g>
      </g>
    </g>
    <path id="Trazado_367" data-name="Trazado 367" d="M591.093,26.922a6.59,6.59,0,1,0,6.565,6.551,6.575,6.575,0,0,0-6.565-6.551m-.069,11.436a4.846,4.846,0,1,1,4.886-4.8,4.9,4.9,0,0,1-4.886,4.8" transform="translate(-526.26 3.861)" fill="#fff"/>
    <path id="Trazado_368" data-name="Trazado 368" d="M591.466,43.029a10.289,10.289,0,0,1-9.958-9.889c-.024-.658-.164-1.281-.979-1.209-.754.065-.781.684-.763,1.3a11.986,11.986,0,0,0,11.372,11.525c.091,0,.181,0,.271.013.6.047,1.148-.09,1.2-.781.054-.753-.5-.939-1.14-.959" transform="translate(-526.936 4.58)" fill="#fff"/>
    <path id="Trazado_369" data-name="Trazado 369" d="M595.773,23.513a11.246,11.246,0,0,0-5.3-1.307c-.558,0-.968.228-1,.806s.333.869.894.92c.3.026.6.044.9.073a10.223,10.223,0,0,1,9.258,9.225,2.693,2.693,0,0,0,.106.977,4.563,4.563,0,0,0,.854.87,8.014,8.014,0,0,0,.822-.9c.1-.145.017-.411.017-.859a11.878,11.878,0,0,0-6.553-9.8" transform="translate(-525.542 3.185)" fill="#fff"/>
    <path id="Trazado_370" data-name="Trazado 370" d="M615.1,30.715a4.473,4.473,0,0,0-.723,0,2.825,2.825,0,0,1-3.1-1.83c-.966-1.952-1.672-3.55.586-5.466.9-.764.824-1.165-.037-2-1.428-1.387-2.869-2.761-4.294-4.15-1.833-1.789-1.737-1.853-3.479.047a2.526,2.526,0,0,1-2.262.843c-2.439-.218-3.645-1.527-3.649-3.976,0-1.6-.1-1.7-1.682-1.7q-3.3,0-6.605,0c-1.448,0-1.563.142-1.6,1.618a5.258,5.258,0,0,1-.247,2.118,3.762,3.762,0,0,1-5.891.837c-.231-.238-1.739-1.228-2.262-.724q-2.768,2.671-5.529,5.347a.955.955,0,0,0-.042,1.5,9.244,9.244,0,0,1,1.048,1.119,3.287,3.287,0,0,1,.657,1.505,6,6,0,0,1-1.642,4.187c-.822.963-1.917.695-2.948.722-1.157.03-1.367.224-1.37,1.388,0,2.082,0,4.162,0,6.243,0,2.246,0,2.3,2.226,2.226a2.677,2.677,0,0,1,2.466,1.2,6.339,6.339,0,0,1,1.3,3.871c-.023,1.126-.978,1.605-1.588,2.316-.652.76-.676,1.119.056,1.834,1.6,1.557,3.209,3.1,4.814,4.653,1.323,1.279,1.381,1.263,2.665-.014a4.174,4.174,0,0,1,1.538-1.181,3.741,3.741,0,0,1,4.76,3.65c0,.211,0,.423,0,.634.021,1.048.247,1.289,1.278,1.293q3.62.012,7.239,0c1.147,0,1.328-.215,1.364-1.395a6.51,6.51,0,0,1,.192-2.225c.722-1.746,4.561-3.149,5.868-1.051a5.849,5.849,0,0,0,.745.786,1,1,0,0,0,1.637.011c1.794-1.745,3.6-3.478,5.391-5.229a6.24,6.24,0,0,0,.619-.87c-.27-.366-.514-.691-.752-1.021-.482-.668-1.25-1.288-1.384-2.022a5.524,5.524,0,0,1,1.441-4.328c.79-1.038,1.885-.907,2.967-.893.091,0,.181,0,.272,0,.984-.029,1.229-.262,1.232-1.248q.014-3.665,0-7.33c0-1.051-.233-1.274-1.273-1.3m-.556,8.139c-2.868-.356-4.317,1.366-5.276,3.652-.946,2.254-1.2,4.47.823,6.067l-4.28,4.791c-1.628-2.223-3.686-2.442-5.912-1.58-2.3.889-3.822,2.419-3.485,5.23h-6.412c.328-2.672-1.086-4.257-3.353-5.168s-4.392-.761-6.077,1.527l-4.285-4.762c2.031-1.611,1.806-3.846.83-6.128-.958-2.242-2.362-3.978-5.241-3.613v-6.4c2.785.34,4.268-1.333,5.237-3.623s1.215-4.519-.843-6.163l4.293-4.756c1.681,2.274,3.793,2.466,6.067,1.549,2.258-.913,3.7-2.477,3.362-5.173h6.387c-.292,2.609,1.063,4.23,3.335,5.14s4.392.814,6.062-1.459l4.276,4.747c-1.94,1.537-1.757,3.769-.788,6.055s2.391,4.025,5.279,3.66Z" transform="translate(-528.4 1.848)" fill="#fff"/>
  </g>
</svg>
