<svg xmlns="http://www.w3.org/2000/svg" xmlns:xlink="http://www.w3.org/1999/xlink" width="130" height="105.015" viewBox="0 0 130 105.015">
  <defs>
    <clipPath id="clip-path">
      <rect id="Rect치ngulo_102" data-name="Rect치ngulo 102" width="64.305" height="50.736" fill="none"/>
    </clipPath>
  </defs>
  <g id="pc-verde" transform="translate(446.437 142.08)">
    <path id="Trazado_331" data-name="Trazado 331" d="M65.89,80.715l6.7,10.549h-28l6.7-10.549Z" transform="translate(-440.023 -133.146)" fill="#0c8f5a"/>
    <rect id="Rect치ngulo_101" data-name="Rect치ngulo 101" width="120.366" height="4.846" transform="translate(-441.617 -62.085)" fill="#0c8f5a"/>
    <path id="Trazado_332" data-name="Trazado 332" d="M125.034,6.558H4.667V8.484H1.053v70.39H121.42q0-.965-.026-1.925h3.64Z" transform="translate(-446.285 -143.818)" fill="#0c8f5a"/>
    <path id="Trazado_333" data-name="Trazado 333" d="M126.2,2.347H3.8A3.807,3.807,0,0,0,0,6.151V88.2A3.807,3.807,0,0,0,3.8,92H52l-6.7,10.548H41.989a2.408,2.408,0,1,0,0,4.815H88.01a2.408,2.408,0,0,0,0-4.815H84.7L78,92H126.2a3.808,3.808,0,0,0,3.8-3.8V6.151a3.808,3.808,0,0,0-3.8-3.8M4.815,7.162h120.37V77.528H4.815ZM79,102.547H51L57.7,92H72.3ZM4.815,82.342h120.37v4.841H4.815Z" transform="translate(-446.437 -144.427)" fill="#1a1e1e"/>
    <g id="Grupo_70" data-name="Grupo 70" transform="translate(-438.265 -117.625)" opacity="0.5">
      <g id="Grupo_69" data-name="Grupo 69" transform="translate(0 0)">
        <g id="Grupo_68" data-name="Grupo 68" clip-path="url(#clip-path)">
          <path id="Trazado_334" data-name="Trazado 334" d="M70.475,52.712c-2.291.887-3.81,2.413-3.473,5.213H60.611c.326-2.663-1.084-4.244-3.343-5.15s-4.378-.76-6.058,1.521L46.94,49.55c2.025-1.606,1.8-3.834.827-6.109-.954-2.234-2.354-3.964-5.224-3.6v-6.38c2.776.34,4.254-1.329,5.22-3.611.959-2.265,1.206-4.481-.808-6.117L7.141,74.467H53.877L71.446,52.409a7.551,7.551,0,0,0-.97.3" transform="translate(-7.141 -23.731)" fill="#231f20"/>
        </g>
      </g>
    </g>
    <path id="Trazado_335" data-name="Trazado 335" d="M57.5,29.269a6.569,6.569,0,1,0,6.544,6.53,6.554,6.554,0,0,0-6.544-6.53m-.069,11.4a4.83,4.83,0,1,1,4.871-4.79,4.889,4.889,0,0,1-4.871,4.79" transform="translate(-439.109 -140.551)" fill="#fff"/>
    <path id="Trazado_336" data-name="Trazado 336" d="M57.861,45.341a10.257,10.257,0,0,1-9.926-9.857c-.024-.656-.164-1.277-.976-1.205-.752.065-.778.682-.761,1.3A11.948,11.948,0,0,0,57.533,47.062c.09,0,.181,0,.27.013.6.047,1.144-.089,1.194-.778.054-.751-.5-.936-1.136-.956" transform="translate(-439.787 -139.831)" fill="#fff"/>
    <path id="Trazado_337" data-name="Trazado 337" d="M62.185,25.855a11.209,11.209,0,0,0-5.279-1.3c-.557,0-.966.228-1,.8s.332.866.892.917c.3.026.6.043.9.073a10.19,10.19,0,0,1,9.229,9.2,2.686,2.686,0,0,0,.105.974,4.549,4.549,0,0,0,.851.868,7.988,7.988,0,0,0,.819-.9c.1-.144.017-.41.017-.856a11.84,11.84,0,0,0-6.533-9.77" transform="translate(-438.389 -141.23)" fill="#fff"/>
    <path id="Trazado_338" data-name="Trazado 338" d="M81.392,33a4.458,4.458,0,0,0-.721,0,2.814,2.814,0,0,1-3.092-1.825c-.962-1.944-1.667-3.538.583-5.448.894-.761.823-1.162-.037-2-1.424-1.383-2.86-2.752-4.28-4.137-1.828-1.783-1.732-1.847-3.468.047a2.518,2.518,0,0,1-2.255.84c-2.431-.217-3.634-1.522-3.637-3.963,0-1.6-.1-1.7-1.677-1.7q-3.293,0-6.584,0c-1.443,0-1.558.142-1.593,1.613a5.241,5.241,0,0,1-.246,2.112,3.75,3.75,0,0,1-5.872.834c-.23-.237-1.734-1.225-2.255-.722q-2.759,2.663-5.512,5.33a.952.952,0,0,0-.042,1.5,9.206,9.206,0,0,1,1.045,1.116,3.277,3.277,0,0,1,.655,1.5,5.971,5.971,0,0,1-1.637,4.174c-.819.96-1.911.692-2.939.72-1.154.03-1.362.223-1.365,1.384,0,2.075,0,4.149,0,6.224,0,2.239,0,2.288,2.219,2.219a2.672,2.672,0,0,1,2.459,1.2,6.325,6.325,0,0,1,1.293,3.859c-.023,1.123-.975,1.6-1.583,2.308-.65.758-.673,1.116.056,1.828,1.593,1.552,3.2,3.092,4.8,4.638,1.318,1.275,1.378,1.259,2.656-.014a4.162,4.162,0,0,1,1.534-1.178A3.729,3.729,0,0,1,54.64,59.1c0,.211,0,.421,0,.632.021,1.045.246,1.285,1.274,1.289q3.608.012,7.216,0c1.143,0,1.324-.214,1.36-1.391a6.518,6.518,0,0,1,.191-2.218c.72-1.741,4.547-3.139,5.849-1.047a5.83,5.83,0,0,0,.743.784,1,1,0,0,0,1.632.011c1.789-1.74,3.59-3.467,5.373-5.212a6.219,6.219,0,0,0,.617-.868c-.269-.365-.513-.689-.75-1.017-.481-.666-1.246-1.284-1.379-2.015A5.506,5.506,0,0,1,78.2,43.738c.787-1.035,1.879-.9,2.957-.89.09,0,.181,0,.271,0,.981-.029,1.225-.261,1.228-1.244q.014-3.653,0-7.306c0-1.047-.232-1.27-1.269-1.293m-.554,8.113c-2.859-.355-4.3,1.362-5.259,3.641C74.636,47,74.387,49.213,76.4,50.8l-4.267,4.776c-1.623-2.216-3.674-2.434-5.893-1.575-2.291.886-3.81,2.411-3.473,5.213H56.375c.327-2.663-1.083-4.244-3.342-5.151s-4.378-.759-6.058,1.522L42.7,50.842c2.025-1.606,1.8-3.834.827-6.108-.954-2.235-2.354-3.966-5.224-3.6v-6.38c2.776.339,4.254-1.329,5.22-3.612s1.211-4.5-.84-6.143l4.279-4.74c1.675,2.267,3.781,2.458,6.047,1.544s3.693-2.469,3.351-5.157h6.367c-.291,2.6,1.06,4.216,3.325,5.124s4.378.811,6.043-1.455l4.262,4.732c-1.934,1.532-1.751,3.757-.785,6.036s2.384,4.012,5.262,3.649Z" transform="translate(-441.196 -142.624)" fill="#fff"/>
  </g>
</svg>
