<svg id="Persona" xmlns="http://www.w3.org/2000/svg" xmlns:xlink="http://www.w3.org/1999/xlink" width="152.319" height="179.319" viewBox="0 0 152.319 179.319">
  <defs>
    <clipPath id="clip-path">
      <rect id="Rectángulo_100" data-name="Rectángulo 100" width="152.319" height="179.319" fill="none"/>
    </clipPath>
    <clipPath id="clip-path-3">
      <rect id="Rectángulo_93" data-name="Rectángulo 93" width="23.885" height="15.302" fill="none"/>
    </clipPath>
    <clipPath id="clip-path-4">
      <rect id="Rectángulo_94" data-name="Rectángulo 94" width="4.801" height="12.015" fill="none"/>
    </clipPath>
    <clipPath id="clip-path-5">
      <rect id="Rectángulo_96" data-name="Rectángulo 96" width="3.811" height="22.909" fill="none"/>
    </clipPath>
    <clipPath id="clip-path-7">
      <rect id="Rectángulo_97" data-name="Rectángulo 97" width="14.199" height="17.564" fill="none"/>
    </clipPath>
    <clipPath id="clip-path-8">
      <rect id="Rectángulo_98" data-name="Rectángulo 98" width="13.562" height="26.575" fill="none"/>
    </clipPath>
  </defs>
  <g id="Grupo_90" data-name="Grupo 90" clip-path="url(#clip-path)">
    <g id="Grupo_89" data-name="Grupo 89">
      <g id="Grupo_88" data-name="Grupo 88" clip-path="url(#clip-path)">
        <path id="Trazado_349" data-name="Trazado 349" d="M11.713,60.033l-2.27-2.379a7.228,7.228,0,0,0-8.519-.193A8.287,8.287,0,0,0,0,58.2V73.915a10.48,10.48,0,0,0,11.167,2.725,9.514,9.514,0,0,0,6.087-8.188,8.684,8.684,0,0,0-5.542-8.418" transform="translate(0 -11.566)" fill="#1a2e35"/>
        <path id="Trazado_350" data-name="Trazado 350" d="M179.488,104.012s1.988,33.4,2.585,37.181-2.585,8.549-2.585,8.549-7.356.8-12.327-8.351l-3.181-7.158a45.579,45.579,0,0,0,1.789-18.888c-1.193-10.737-1.789-15.707-1.789-15.707Z" transform="translate(-33.765 -20.517)" fill="#ffc09d"/>
        <path id="Trazado_351" data-name="Trazado 351" d="M167.936,42.563c.873,8.062.759,15.034-3.213,16.457-.334.119-3,.223-3.353.262-4.571.495-9.044-6.188-9.989-14.927s1.993-16.223,6.565-16.719a30.26,30.26,0,0,1,3.289-.32c4.1.731,5.843,7.328,6.7,15.247" transform="translate(-31.135 -5.622)" fill="#375a64"/>
        <path id="Trazado_352" data-name="Trazado 352" d="M183,79.595s3.352,1.113,2.745,4.349A74.608,74.608,0,0,1,183,92.916l-4.163,4.617L163.71,92.916a9.324,9.324,0,0,1-1.032-4.522c.1-2.528-.006-8.8-.006-8.8a14.994,14.994,0,0,0,2.738-5.766c.506-2.616.872-5.654.979-6.589a.275.275,0,0,1,.332-.239,3.9,3.9,0,0,1,2.937,2.682c.809,2.528.607,3.237.607,3.237Z" transform="translate(-33.496 -13.795)" fill="#ffc09d"/>
        <path id="Trazado_353" data-name="Trazado 353" d="M171.982,68.4l-2.162-3.453-2.268,1.75,4.205,8.313,1.147-3.484Z" transform="translate(-34.501 -13.374)" fill="#375a64"/>
        <path id="Trazado_354" data-name="Trazado 354" d="M172.059,68.691s2.366-3.574,4.561-1.872,1.69,2.717,0,5.842c0,0,4.308-.592,3.295,3.97,0,0,4.271-.839,4.163,2.833,0,0,3.524,2.912,2,5.108s-7.348,6.42-8.954,5.913-1.8-2.7-1.8-2.7a6.061,6.061,0,0,1-2.506-1.606c-.591-.929.169-2.365.169-2.365s-1.689-1.459-2.111-1.869,0-2.523,0-2.523l2.281-2.619s-3.295,1.774-4.055,1.267-1.6-.93-.929-2.027a34.792,34.792,0,0,1,3.193-3.64Z" transform="translate(-34.578 -13.664)" fill="#ffc09d"/>
        <path id="Trazado_355" data-name="Trazado 355" d="M177.705,91.4a11.806,11.806,0,0,1,1.006-1.455,13.147,13.147,0,0,1,2.915-3.16,30.544,30.544,0,0,0,3.358-2.581,17.245,17.245,0,0,0,1.106-1.347,3.171,3.171,0,0,1-.893,1.547,21,21,0,0,1-3.322,2.711,15.929,15.929,0,0,0-2.933,3.008,5.576,5.576,0,0,1-1.237,1.276" transform="translate(-36.591 -17.062)" fill="#ff9b6c"/>
        <path id="Trazado_356" data-name="Trazado 356" d="M174.292,87.12a33.283,33.283,0,0,1,3.226-4.131c.939-1.089,1.736-2.137,2.442-2.8a3.208,3.208,0,0,1,1.265-.9c.034.053-.437.4-1.055,1.1-.631.689-1.386,1.76-2.337,2.86a33.314,33.314,0,0,1-3.542,3.864" transform="translate(-35.888 -16.327)" fill="#ff9b6c"/>
        <path id="Trazado_357" data-name="Trazado 357" d="M174.512,78.386A15.3,15.3,0,0,1,176.34,76.3a26,26,0,0,0,1.577-2.24,4.161,4.161,0,0,1-1.264,2.51,6.966,6.966,0,0,1-2.141,1.817" transform="translate(-35.933 -15.25)" fill="#ff9b6c"/>
        <path id="Trazado_358" data-name="Trazado 358" d="M166.866,84.959a2.969,2.969,0,0,1,1.409.577,8.053,8.053,0,0,1,2.515,2.678,15.306,15.306,0,0,1,1.434,3.365,5.145,5.145,0,0,1,.338,1.473,5.937,5.937,0,0,1-.615-1.376,21.966,21.966,0,0,0-1.513-3.249,9.187,9.187,0,0,0-2.326-2.649c-.729-.546-1.268-.755-1.243-.819" transform="translate(-34.36 -17.492)" fill="#ff9b6c"/>
        <path id="Trazado_359" data-name="Trazado 359" d="M170.825,42.392c.946,8.739-1.45,16.166-5.351,16.587s-7.83-6.319-8.775-15.058,1.45-16.164,5.351-16.587,7.83,6.32,8.775,15.058" transform="translate(-32.224 -5.625)" fill="#1a2e35"/>
        <path id="Trazado_360" data-name="Trazado 360" d="M164.042,58.882c3.654-1.833,5.836-8.554,5-16.249-.828-7.655-4.363-13.732-8.3-14.789-3.1,1.768-4.86,8.447-4.027,16.145.828,7.652,3.943,13.772,7.324,14.893" transform="translate(-32.228 -5.733)" fill="#e1e1e1"/>
        <path id="Trazado_361" data-name="Trazado 361" d="M165.965,55.117a68.209,68.209,0,0,1-.653-7.487,68.543,68.543,0,0,1-.241-7.512,68.286,68.286,0,0,1,.654,7.487,68.392,68.392,0,0,1,.24,7.511" transform="translate(-33.981 -8.261)" fill="#fff"/>
        <path id="Trazado_362" data-name="Trazado 362" d="M164.234,48.911a9.669,9.669,0,0,1-.406-2.082c-.184-1.3-.376-3.1-.486-5.092s-.114-3.807-.071-5.116a9.854,9.854,0,0,1,.175-2.115,11.886,11.886,0,0,1,.117,2.115c.034,1.3.084,3.1.192,5.092s.254,3.782.364,5.082a12.172,12.172,0,0,1,.115,2.115" transform="translate(-33.615 -7.105)" fill="#fff"/>
        <path id="Trazado_363" data-name="Trazado 363" d="M172.025,68.655a1.121,1.121,0,0,1-.023.252c-.029.189-.066.426-.111.72q-.169.995-.469,2.754l0,.026-.02.021c-.463.481-.981,1.033-1.54,1.655a14.809,14.809,0,0,0-1.68,2.127,1.04,1.04,0,0,0-.135.642,1,1,0,0,0,.383.556,6.732,6.732,0,0,0,.651.452.92.92,0,0,0,.7.079,13.24,13.24,0,0,0,3.267-1.322l.773-.4-.567.655L170.978,79.5l.033-.056a3.171,3.171,0,0,0,.084,2.527,7.06,7.06,0,0,0,2.127,1.83l.179.113-.122.172c-.487.684-.785,1.725-.026,2.289a9.24,9.24,0,0,0,2.48,1.406l-.277.186v-.059c.056.056-.128-.133.133.166.536-.31.153-.122.271-.175v0l0,.1.019.2a3.7,3.7,0,0,0,.072.4,3.185,3.185,0,0,0,.28.766,2.078,2.078,0,0,0,.495.621,1.233,1.233,0,0,0,.673.314,3.934,3.934,0,0,0,1.609-.46,14.6,14.6,0,0,0,1.563-.867,26.744,26.744,0,0,0,2.744-1.992,16.926,16.926,0,0,0,2.354-2.288,2.055,2.055,0,0,0,.547-1.357,3.17,3.17,0,0,0-.388-1.434,8.321,8.321,0,0,0-1.91-2.329l-.067-.06,0-.1a3.128,3.128,0,0,0-.265-1.409,2.12,2.12,0,0,0-.958-.956,4.676,4.676,0,0,0-2.711-.287l-.247.037.039-.251c.042-.276.1-.549.13-.819a4.485,4.485,0,0,0,0-.8,2.215,2.215,0,0,0-.565-1.37,3.259,3.259,0,0,0-2.661-.792l-.289.025.135-.249a24.147,24.147,0,0,0,1.2-2.39,3.374,3.374,0,0,0,.26-1.155,1.849,1.849,0,0,0-.31-1.029,4.692,4.692,0,0,0-1.485-1.363,2,2,0,0,0-1.632-.029,5.437,5.437,0,0,0-1.907,1.429c-.189.2-.321.369-.413.478a.978.978,0,0,1-.143.163.688.688,0,0,1,.107-.189,6.083,6.083,0,0,1,.383-.51,6.606,6.606,0,0,1,.718-.75,4.137,4.137,0,0,1,1.193-.779,2.179,2.179,0,0,1,1.784,0l.44.268.4.327a4.253,4.253,0,0,1,.753.823,2.1,2.1,0,0,1,.366,1.16,3.582,3.582,0,0,1-.261,1.255A23.906,23.906,0,0,1,176.72,72.7l-.155-.223a4.535,4.535,0,0,1,1.526.088,2.8,2.8,0,0,1,1.42.778,2.553,2.553,0,0,1,.664,1.559,4.872,4.872,0,0,1,.011.868c-.033.287-.087.574-.132.866l-.208-.214a5.005,5.005,0,0,1,2.947.3,2.5,2.5,0,0,1,1.132,1.122,3.5,3.5,0,0,1,.311,1.589l-.07-.155a8.643,8.643,0,0,1,2.018,2.446,3.56,3.56,0,0,1,.437,1.622,2.549,2.549,0,0,1-.169.866,3.733,3.733,0,0,1-.462.738,17.112,17.112,0,0,1-2.411,2.353,26.985,26.985,0,0,1-2.786,2.025,14.977,14.977,0,0,1-1.608.891,4.232,4.232,0,0,1-1.809.5,2.047,2.047,0,0,1-1.5-1.154,3.6,3.6,0,0,1-.317-.866,4.321,4.321,0,0,1-.079-.447l-.021-.227,0-.12v-.031c.118-.055-.266.133.271-.179.261.3.078.11.134.166l0,.017v.1l0,.3-.276-.118a9.5,9.5,0,0,1-2.6-1.492,1.925,1.925,0,0,1-.478-.638,1.6,1.6,0,0,1-.1-.8,3.072,3.072,0,0,1,.564-1.38l.056.283a7.326,7.326,0,0,1-2.247-1.967,2.633,2.633,0,0,1-.352-1.448,4.651,4.651,0,0,1,.249-1.4l.01-.03.023-.026,2.29-2.61.206.257a13.382,13.382,0,0,1-3.378,1.325,1.219,1.219,0,0,1-.91-.132,6.881,6.881,0,0,1-.674-.48,1.264,1.264,0,0,1-.469-.723,1.29,1.29,0,0,1,.17-.813,14.463,14.463,0,0,1,1.749-2.157c.573-.615,1.1-1.158,1.578-1.63l-.025.046c.237-1.17.424-2.089.557-2.751.064-.29.115-.523.156-.708a.951.951,0,0,1,.068-.234" transform="translate(-34.543 -13.639)" fill="#ff9b6c"/>
        <path id="Trazado_364" data-name="Trazado 364" d="M169.355,144.081a15.528,15.528,0,0,1,1.824,6.392c0,3.1-1.816,8.539-1.816,8.539l-2.259,2.135s1.483,6.793-7.118,8.733-56.744-25.734-56.744-25.734L101.9,107.392a42.566,42.566,0,0,1,12.031,7.957c5.046,5.046,33.767,26.2,33.767,26.2s1.167-7.494,2.461-7,19.2,9.532,19.2,9.532" transform="translate(-20.983 -22.113)" fill="#f2bbff"/>
        <path id="Trazado_365" data-name="Trazado 365" d="M0,198.114l83.5-.226.559-30.18,1.888-14.6a43.293,43.293,0,0,0,.187-9.419c-1.222-13.659-5.22-39.612-5.22-39.612L54.863,98.532,48.08,91.561l-29.962-.286L14.51,97.833,0,111.486Z" transform="translate(0 -18.795)" fill="#f2bbff"/>
        <path id="Trazado_366" data-name="Trazado 366" d="M63.9,160.432a5.576,5.576,0,0,1,.194,1.082,10.752,10.752,0,0,1,.125,1.284c.024.5.079,1.074.052,1.709a19.934,19.934,0,0,1-.1,2.071c-.042.746-.179,1.533-.306,2.362a27.3,27.3,0,0,1-3.99,10.1c-.476.692-.913,1.359-1.392,1.933a20.011,20.011,0,0,1-1.345,1.579c-.414.481-.847.861-1.207,1.211a10.751,10.751,0,0,1-.969.851,5.6,5.6,0,0,1-.881.657c-.057-.067,1.179-1.032,2.839-2.914.412-.473.86-.993,1.291-1.592.461-.575.882-1.241,1.343-1.93a28.592,28.592,0,0,0,3.936-9.959c.134-.816.283-1.591.339-2.326.1-.731.125-1.417.147-2.044.075-2.509-.166-4.059-.079-4.068" transform="translate(-11.135 -33.035)" fill="#1a2e35"/>
        <path id="Trazado_367" data-name="Trazado 367" d="M54.905,133.661a3.822,3.822,0,0,1-.508-.381c-.327-.256-.789-.659-1.42-1.136-1.236-.985-3.083-2.341-5.42-3.955s-5.173-3.477-8.311-5.594a100.835,100.835,0,0,1-9.92-7.395l.3-.035c-.333.476-.673,1-.993,1.537a22.711,22.711,0,0,0-2.734,7.244l-.119.629-.261-.583a101.084,101.084,0,0,1-5.866-17.317c-.534-2.215-.893-4-1.105-5.231-.114-.614-.179-1.093-.228-1.415a2.6,2.6,0,0,1-.053-.494,2.647,2.647,0,0,1,.123.482c.075.353.172.818.294,1.4.255,1.221.653,2.993,1.22,5.195a107.786,107.786,0,0,0,5.981,17.213l-.38.046a22.93,22.93,0,0,1,2.774-7.379c.326-.55.673-1.081,1.012-1.565l.131-.187.175.152a104.744,104.744,0,0,0,9.856,7.394c3.122,2.132,5.945,4.019,8.263,5.67s4.147,3.043,5.356,4.067c.617.5,1.063.92,1.375,1.2a3.827,3.827,0,0,1,.455.442" transform="translate(-3.762 -20.495)" fill="#1a2e35"/>
        <path id="Trazado_368" data-name="Trazado 368" d="M68.124,100.414a1.593,1.593,0,0,1,.218.328c.131.222.327.549.562.983.48.862,1.147,2.134,1.925,3.75a63.878,63.878,0,0,1,4.841,13.49l.122.547-.445-.345a29.245,29.245,0,0,1-5.794-6l.371-.11c-.258,4.587-.493,8.778-.686,12.216l0,.038-.017.032-3.468,6.219-.974,1.7a3.726,3.726,0,0,1-.37.58,3.593,3.593,0,0,1,.286-.626l.9-1.74,3.343-6.288-.019.07c.169-3.44.376-7.632.6-12.221l.029-.58.342.471a29.458,29.458,0,0,0,5.711,5.919l-.322.2a68.254,68.254,0,0,0-4.683-13.463c-.742-1.627-1.372-2.914-1.812-3.8l-.5-1.014a1.61,1.61,0,0,1-.153-.363" transform="translate(-13.262 -20.676)" fill="#1a2e35"/>
        <path id="Trazado_369" data-name="Trazado 369" d="M108.227,151.89c-.114.011-.8-6.286-1.542-14.062s-1.244-14.093-1.13-14.1.8,6.284,1.542,14.064,1.244,14.09,1.13,14.1" transform="translate(-21.732 -25.477)" fill="#1a2e35"/>
        <path id="Trazado_370" data-name="Trazado 370" d="M165.666,161.135a6.7,6.7,0,0,1-1.391-1.328,21.112,21.112,0,0,1-4.421-8.1,6.633,6.633,0,0,1-.364-1.888,44.786,44.786,0,0,0,2.489,5.986,44.9,44.9,0,0,0,3.687,5.332" transform="translate(-32.838 -30.849)" fill="#1a2e35"/>
        <path id="Trazado_371" data-name="Trazado 371" d="M161.619,161.5c-.023.017-.16-.144-.391-.45a9.867,9.867,0,0,1-.854-1.379,14.353,14.353,0,0,1-1.083-10.441,9.9,9.9,0,0,1,.553-1.525c.162-.347.264-.531.29-.52.067.028-.257.806-.559,2.117a15.921,15.921,0,0,0,1.062,10.24c.565,1.221,1.042,1.916.981,1.957" transform="translate(-32.693 -30.308)" fill="#1a2e35"/>
        <path id="Trazado_372" data-name="Trazado 372" d="M83.5,200.461a4.587,4.587,0,0,1-.233.966c-.174.614-.451,1.5-.813,2.577-.723,2.164-1.819,5.123-3.2,8.322a57.809,57.809,0,0,1-4.128,7.9c1.012-2.04,2.369-4.876,3.748-8.065s2.511-6.121,3.3-8.255c.372-1.006.685-1.853.936-2.53a4.575,4.575,0,0,1,.386-.915" transform="translate(-15.47 -41.277)" fill="#1a2e35"/>
        <path id="Trazado_373" data-name="Trazado 373" d="M76.153,201.807a3.515,3.515,0,0,1-.09-.613l-.177-1.764c-.136-1.533-.359-3.749-.646-6.485-.6-5.467-1.529-13.017-3.124-21.255a198.707,198.707,0,0,0-5.142-20.854c-.391-1.318-.776-2.5-1.116-3.539s-.627-1.935-.881-2.661q-.351-1.051-.562-1.68a3.469,3.469,0,0,1-.169-.6,3.445,3.445,0,0,1,.248.568q.239.622.635,1.655c.278.719.6,1.606.949,2.641s.766,2.211,1.176,3.526a177.911,177.911,0,0,1,5.27,20.863c1.6,8.256,2.482,15.825,3.009,21.3.25,2.742.429,4.964.516,6.5.041.738.074,1.326.1,1.77a3.528,3.528,0,0,1,.006.619" transform="translate(-13.228 -29.314)" fill="#1a2e35"/>
        <g id="Grupo_72" data-name="Grupo 72" transform="translate(22.933 94.52)" opacity="0.3">
          <g id="Grupo_71" data-name="Grupo 71">
            <g id="Grupo_70" data-name="Grupo 70" clip-path="url(#clip-path-3)">
              <path id="Trazado_374" data-name="Trazado 374" d="M28.88,124.416a18.063,18.063,0,0,0,4.074,5.416q-.039-2.17-.079-4.341l19.891,8.84-21.351-15.3c-1.166,1.962-1.368,3.426-2.534,5.387" transform="translate(-28.88 -119.03)"/>
            </g>
          </g>
        </g>
        <g id="Grupo_75" data-name="Grupo 75" transform="translate(55.824 92.372)" opacity="0.3">
          <g id="Grupo_74" data-name="Grupo 74">
            <g id="Grupo_73" data-name="Grupo 73" clip-path="url(#clip-path-4)">
              <path id="Trazado_375" data-name="Trazado 375" d="M74.135,120.478c-.852-1.336-3.2-4.153-3.2-4.153-.075,2.084-.257,4.937-.333,7.021l-.3,4.993c.308-1.74.538-5.1.846-6.84l3.7,3.507a5.21,5.21,0,0,0-.711-4.528" transform="translate(-70.3 -116.325)"/>
            </g>
          </g>
        </g>
        <g id="Grupo_81" data-name="Grupo 81" transform="translate(83.933 101.64)" opacity="0.86">
          <g id="Grupo_80" data-name="Grupo 80">
            <g id="Grupo_79" data-name="Grupo 79" clip-path="url(#clip-path-5)">
              <g id="Grupo_78" data-name="Grupo 78" opacity="0.86">
                <g id="Grupo_77" data-name="Grupo 77">
                  <g id="Grupo_76" data-name="Grupo 76" clip-path="url(#clip-path-5)">
                    <path id="Trazado_376" data-name="Trazado 376" d="M105.7,128l2.535,22.909c1.105-7.452,3.133-11.5-2.535-22.909" transform="translate(-105.697 -127.995)" fill="#d08de0"/>
                  </g>
                </g>
              </g>
            </g>
          </g>
        </g>
        <path id="Trazado_377" data-name="Trazado 377" d="M173.37,165.611c-.953-.79-3.06-1.282-4.147-1.873-4.933-2.679-7.548-7.587-9.47-12.86l-.17-.591c.2,7.072,4.68,14.63,11.132,17.53a3.779,3.779,0,0,0,2.116.447,1.494,1.494,0,0,0,1.321-1.486,1.919,1.919,0,0,0-.782-1.167" transform="translate(-32.86 -30.946)" fill="#d08de0"/>
        <g id="Grupo_84" data-name="Grupo 84" transform="translate(38.22 137.189)" opacity="0.86">
          <g id="Grupo_83" data-name="Grupo 83">
            <g id="Grupo_82" data-name="Grupo 82" clip-path="url(#clip-path-7)">
              <path id="Trazado_378" data-name="Trazado 378" d="M48.131,189.881c8.163-2.709,12.1-10.4,14.194-17.118a27.092,27.092,0,0,1-1.039,8.637,13.73,13.73,0,0,1-4.866,7.078,9.26,9.26,0,0,1-8.288,1.4" transform="translate(-48.131 -172.763)" fill="#d08de0"/>
            </g>
          </g>
        </g>
        <g id="Grupo_87" data-name="Grupo 87" transform="translate(60.692 150.344)" opacity="0.86">
          <g id="Grupo_86" data-name="Grupo 86">
            <g id="Grupo_85" data-name="Grupo 85" clip-path="url(#clip-path-8)">
              <path id="Trazado_379" data-name="Trazado 379" d="M89.671,189.784a1.666,1.666,0,0,0-2.246-.041,4.848,4.848,0,0,0-1.3,2.092q-4.848,12.034-9.7,24.069l1.009-1.2c3.389-5.681,4.281-6.59,7.669-12.27,2.029-3.4,4.094-6.9,4.8-10.79a2.28,2.28,0,0,0-.237-1.858" transform="translate(-76.43 -189.329)" fill="#d08de0"/>
            </g>
          </g>
        </g>
        <path id="Trazado_380" data-name="Trazado 380" d="M7.773,15.54C13.789,7.148,23.752,2.235,33.909.373c4.273-.783,7.075-.215,11.333.646a18.389,18.389,0,0,1,10.9,6.252c3.235,4.02,6.028,8.575,6.916,13.659a86.4,86.4,0,0,1,1.767,15.779,28.964,28.964,0,0,1-3.986,15.185l-13.273,3.19c-7.4.726-14.9,1.449-22.226.219S10.747,50.636,6.475,44.554C.54,36.1,1.757,23.932,7.773,15.54" transform="translate(-0.534 0)" fill="#1a2e35"/>
        <path id="Trazado_381" data-name="Trazado 381" d="M71.438,71.935c-.025.033.24.317.846.653a6.59,6.59,0,0,0,2.825.758,7.186,7.186,0,0,0,4.212-1.137,7.175,7.175,0,0,0,1.973-9.717,7.187,7.187,0,0,0-3.434-2.69,6.613,6.613,0,0,0-2.9-.4,2.051,2.051,0,0,0-1.033.272,10.021,10.021,0,0,1,3.717.659,6.924,6.924,0,0,1,3.027,2.566,6.606,6.606,0,0,1-1.767,8.7,6.924,6.924,0,0,1-3.789,1.182,10.029,10.029,0,0,1-3.68-.843" transform="translate(-14.71 -12.225)" fill="#e1e1e1"/>
        <path id="Trazado_382" data-name="Trazado 382" d="M8.374,78.875c.218-.027-.954-4.027.032-8.9.914-4.892,3.5-8.159,3.308-8.266a7.23,7.23,0,0,0-1.646,2.105A18.717,18.717,0,0,0,7.637,76.3a7.254,7.254,0,0,0,.737,2.57" transform="translate(-1.526 -12.706)" fill="#375a64"/>
        <path id="Trazado_383" data-name="Trazado 383" d="M52.291,78.114c-.391-4.7-.747-8.554-.746-8.532,0,0,10.867-1.9,13-16.125,1.058-7.072.6-18.648-.081-28.107C63.846,16.835,55.851,5.7,45.33,6.334l-4.709-.245L23.182,14.344a5,5,0,0,0-4.424,5.107L22.58,80.279l32.426,34.14,1.861-9.631Z" transform="translate(-3.862 -1.254)" fill="#ffc09d"/>
        <path id="Trazado_384" data-name="Trazado 384" d="M49.651,62.577a2.992,2.992,0,0,1,.915-1.908,3.057,3.057,0,0,1,3.689-.446,4.1,4.1,0,0,1,1.8,3.738,3.721,3.721,0,0,1-2.561,1.711,4.762,4.762,0,0,1-.5.049,3.353,3.353,0,0,1-2.306-.747,2.983,2.983,0,0,1-1.036-2.4" transform="translate(-10.222 -12.313)" fill="#ff9b6c"/>
        <path id="Trazado_385" data-name="Trazado 385" d="M70.646,42.078a1.821,1.821,0,0,1-1.74,1.853,1.741,1.741,0,0,1-1.892-1.625,1.821,1.821,0,0,1,1.737-1.853,1.743,1.743,0,0,1,1.894,1.625" transform="translate(-13.799 -8.329)" fill="#1a2e35"/>
        <path id="Trazado_386" data-name="Trazado 386" d="M70.479,36.752c-.224.24-1.613-.769-3.573-.746-1.957-.006-3.387,1.016-3.6.777-.106-.1.121-.536.743-1a5,5,0,0,1,2.881-.916,4.8,4.8,0,0,1,2.846.891c.607.457.815.885.7.992" transform="translate(-13.03 -7.18)" fill="#1a2e35"/>
        <path id="Trazado_387" data-name="Trazado 387" d="M57.805,52.626a12.977,12.977,0,0,1,3.178-.6c.5-.056.973-.16,1.054-.5a2.548,2.548,0,0,0-.347-1.48l-1.514-3.8c-2.1-5.406-3.631-9.854-3.413-9.936s2.1,4.232,4.2,9.639q.76,2,1.452,3.82a2.9,2.9,0,0,1,.277,1.962,1.257,1.257,0,0,1-.816.739,3.408,3.408,0,0,1-.849.125,12.762,12.762,0,0,1-3.226.033" transform="translate(-11.684 -7.476)" fill="#1a2e35"/>
        <path id="Trazado_388" data-name="Trazado 388" d="M55.1,84.775a36.121,36.121,0,0,1-19.063-4.9s5.154,9.8,19.355,8.342Z" transform="translate(-7.421 -16.447)" fill="#ff9b6c"/>
        <path id="Trazado_389" data-name="Trazado 389" d="M50.754,58.63c.318-.021.341,2.106,2.176,3.6s4.1,1.239,4.116,1.536c.031.133-.5.418-1.458.453a5.3,5.3,0,0,1-3.434-1.163,4.61,4.61,0,0,1-1.688-3.019c-.089-.888.143-1.417.289-1.406" transform="translate(-10.387 -12.073)" fill="#1a2e35"/>
        <path id="Trazado_390" data-name="Trazado 390" d="M69.454,26.536c-.341.448-1.7,0-3.318-.009-1.623-.064-3,.326-3.316-.137-.141-.225.072-.673.669-1.1a4.8,4.8,0,0,1,5.346.118c.577.453.77.909.62,1.128" transform="translate(-12.927 -5.052)" fill="#1a2e35"/>
        <path id="Trazado_391" data-name="Trazado 391" d="M43.833,42.595a1.822,1.822,0,0,0,1.839,1.755,1.742,1.742,0,0,0,1.8-1.728,1.821,1.821,0,0,0-1.838-1.755,1.743,1.743,0,0,0-1.8,1.728" transform="translate(-9.026 -8.415)" fill="#1a2e35"/>
        <path id="Trazado_392" data-name="Trazado 392" d="M40,38.539c.237.227,1.568-.857,3.526-.943,1.954-.114,3.438.827,3.639.577.1-.111-.151-.529-.8-.955a5.008,5.008,0,0,0-2.928-.756,4.8,4.8,0,0,0-2.792,1.047c-.58.49-.765.928-.649,1.03" transform="translate(-8.23 -7.507)" fill="#1a2e35"/>
        <path id="Trazado_393" data-name="Trazado 393" d="M40.026,35.063c.364.428,1.692-.1,3.313-.192,1.617-.154,3.009.16,3.3-.32.128-.233-.109-.668-.728-1.061a4.806,4.806,0,0,0-5.332.413c-.552.484-.719.951-.557,1.16" transform="translate(-8.23 -6.769)" fill="#1a2e35"/>
        <path id="Trazado_394" data-name="Trazado 394" d="M22.524,51.949c-.012-1.058-1.257-3.54-2.3-3.693-2.793-.41-7.817-.141-7.8,6.942.022,9.682,9.739,7.662,9.755,7.385.013-.218.389-6.982.348-10.634" transform="translate(-2.558 -9.912)" fill="#ffc09d"/>
        <path id="Trazado_395" data-name="Trazado 395" d="M18.8,59.625c-.042-.031-.168.118-.453.25a1.689,1.689,0,0,1-1.261.029c-1.024-.372-1.889-1.995-1.94-3.74a5.569,5.569,0,0,1,.466-2.416,1.944,1.944,0,0,1,1.266-1.3.86.86,0,0,1,1,.459c.13.271.069.465.121.48.027.025.207-.162.129-.561a1.078,1.078,0,0,0-.383-.607,1.276,1.276,0,0,0-.933-.245,2.372,2.372,0,0,0-1.759,1.506,5.733,5.733,0,0,0-.578,2.7c.067,1.951,1.07,3.774,2.47,4.175a1.808,1.808,0,0,0,1.542-.26c.3-.239.349-.456.316-.473" transform="translate(-2.979 -10.701)" fill="#ff9b6c"/>
        <path id="Trazado_396" data-name="Trazado 396" d="M18.7,39.04l2.613,2.385c9.935-10.8,29-37.486,27.938-35.9a30.867,30.867,0,0,0-15.223-.676c-7.783,1.843-22.455,6.735-21.633,16S18.7,39.04,18.7,39.04" transform="translate(-2.545 -0.859)" fill="#1a2e35"/>
        <path id="Trazado_397" data-name="Trazado 397" d="M19.534,75.207c.029.029-.2.345-.756.755a6.6,6.6,0,0,1-2.705,1.111,7.187,7.187,0,0,1-4.322-.592,7.173,7.173,0,0,1-3.194-9.387,7.192,7.192,0,0,1,3.065-3.106,6.6,6.6,0,0,1,2.821-.769,2.064,2.064,0,0,1,1.059.137,10.045,10.045,0,0,0-3.6,1.127,6.923,6.923,0,0,0-2.676,2.931,6.606,6.606,0,0,0,2.86,8.406,6.924,6.924,0,0,0,3.908.691,10.045,10.045,0,0,0,3.543-1.3" transform="translate(-1.622 -13.017)" fill="#e1e1e1"/>
        <path id="Trazado_398" data-name="Trazado 398" d="M11.975,47.123a20.509,20.509,0,0,0-.048-2.246,33.829,33.829,0,0,1,.421-6.072,41.287,41.287,0,0,1,8-18.2A65.767,65.767,0,0,1,35,6.92C37.111,5.436,38.87,4.3,40.089,3.527a15.851,15.851,0,0,0,1.87-1.252,1.949,1.949,0,0,0-.535.236c-.338.177-.839.435-1.467.8-1.264.71-3.066,1.787-5.224,3.229A61.99,61.99,0,0,0,19.818,20.208a40.107,40.107,0,0,0-7.931,18.529,29.423,29.423,0,0,0-.216,6.152c.03.727.141,1.283.186,1.663a1.955,1.955,0,0,0,.118.572" transform="translate(-2.388 -0.468)" fill="#375a64"/>
        <path id="Trazado_399" data-name="Trazado 399" d="M35.073,2.05a2.046,2.046,0,0,0-.552.221c-.353.162-.864.418-1.516.76-1.3.687-3.165,1.731-5.381,3.16a81.806,81.806,0,0,0-7.488,5.449,47.526,47.526,0,0,0-8.05,8.014,21.983,21.983,0,0,0-2.9,5.166A20.451,20.451,0,0,0,7.937,30.2a32.061,32.061,0,0,0,.616,9.262,62.42,62.42,0,0,0,1.556,6.045c.216.7.4,1.247.526,1.612a2,2,0,0,0,.229.548,16.716,16.716,0,0,0-.508-2.229c-.353-1.425-.884-3.485-1.344-6.062a33,33,0,0,1-.47-9.114,20.188,20.188,0,0,1,1.241-5.209,21.7,21.7,0,0,1,2.833-5.006,48.851,48.851,0,0,1,7.908-7.939A91.719,91.719,0,0,1,27.882,6.58c2.171-1.471,3.989-2.571,5.249-3.325A17.881,17.881,0,0,0,35.073,2.05" transform="translate(-1.611 -0.422)" fill="#375a64"/>
        <path id="Trazado_400" data-name="Trazado 400" d="M20.12,39.3A9,9,0,0,0,21.3,38l3.031-3.694c2.536-3.137,6-7.5,9.8-12.339s7.209-9.25,9.651-12.461l2.867-3.824a9.142,9.142,0,0,0,.981-1.459,8.781,8.781,0,0,0-1.182,1.3l-3.03,3.693c-2.536,3.137-6.006,7.5-9.806,12.344s-7.21,9.252-9.653,12.462c-1.151,1.535-2.112,2.818-2.865,3.823A8.85,8.85,0,0,0,20.12,39.3" transform="translate(-4.142 -0.87)" fill="#e1e1e1"/>
        <path id="Trazado_401" data-name="Trazado 401" d="M50.8,57.741a11.234,11.234,0,0,0-1.8.052,11.053,11.053,0,0,0-1.658.7c-.1-.051.455-.867,1.57-1.1a1.973,1.973,0,0,1,1.886.352" transform="translate(-9.747 -11.803)" fill="#ff9b6c"/>
        <path id="Trazado_402" data-name="Trazado 402" d="M38.071,42.449a3.242,3.242,0,0,1-1.822.218,3.247,3.247,0,0,1-1.783-.439,5.827,5.827,0,0,1,1.807.026,5.8,5.8,0,0,1,1.8.195" transform="translate(-7.097 -8.684)" fill="#ff9b6c"/>
        <path id="Trazado_403" data-name="Trazado 403" d="M37.8,43.34c.015.116-.546.282-1.223.5s-1.233.395-1.287.291.447-.462,1.163-.686,1.334-.213,1.347-.1" transform="translate(-7.266 -8.908)" fill="#ff9b6c"/>
        <path id="Trazado_404" data-name="Trazado 404" d="M75.205,41.121c.039.107-.422.376-1.032.6s-1.135.318-1.174.21.423-.376,1.032-.6,1.136-.318,1.174-.21" transform="translate(-15.031 -8.458)" fill="#ff9b6c"/>
        <path id="Trazado_405" data-name="Trazado 405" d="M75.043,43.326c-.037.108-.545.032-1.134-.171s-1.037-.455-1-.563.545-.031,1.134.172,1.037.454,1,.562" transform="translate(-15.013 -8.76)" fill="#ff9b6c"/>
        <path id="Trazado_406" data-name="Trazado 406" d="M6.766,61.066A16.333,16.333,0,0,0,0,67.915v1.412a18.465,18.465,0,0,1,1.895-3.2A18.2,18.2,0,0,1,7,61.471c1.519-.944,2.58-1.322,2.539-1.43a7.349,7.349,0,0,0-2.771,1.025" transform="translate(0 -12.361)" fill="#375a64"/>
      </g>
    </g>
  </g>
</svg>
