<svg id="Persona-tablet2" xmlns="http://www.w3.org/2000/svg" xmlns:xlink="http://www.w3.org/1999/xlink" width="96.616" height="105.785" viewBox="0 0 96.616 105.785">
  <defs>
    <clipPath id="clip-path">
      <rect id="Rectángulo_97" data-name="Rectángulo 97" width="96.616" height="105.785" fill="none"/>
    </clipPath>
    <clipPath id="clip-path-3">
      <rect id="Rectángulo_93" data-name="Rectángulo 93" width="13.224" height="5.744" fill="none"/>
    </clipPath>
    <clipPath id="clip-path-4">
      <rect id="Rectángulo_94" data-name="Rectángulo 94" width="16.107" height="9.961" fill="none"/>
    </clipPath>
    <clipPath id="clip-path-5">
      <rect id="Rectángulo_95" data-name="Rectángulo 95" width="14.232" height="18.475" fill="none"/>
    </clipPath>
  </defs>
  <g id="Grupo_93" data-name="Grupo 93" clip-path="url(#clip-path)">
    <g id="Grupo_92" data-name="Grupo 92">
      <g id="Grupo_91" data-name="Grupo 91" clip-path="url(#clip-path)">
        <path id="Trazado_363" data-name="Trazado 363" d="M45.426,30.987a52.717,52.717,0,0,1-2.9-8.62,18.414,18.414,0,0,1,.093-9.013c.13-.441,1.292-3.424,1.752-3.41.328.009-.323,2.761-.138,3.034a15.606,15.606,0,0,1,2.387,8.959,41.1,41.1,0,0,1-1.193,9.05" transform="translate(-15.63 -3.7)" fill="#1a2e35"/>
        <path id="Trazado_364" data-name="Trazado 364" d="M64.894,43.379c-.127-2.14-.22-3.831-.2-3.832,0,0,7.287-1.254,7.259-8.559-.014-3.529-.633-10.79-1.27-17.357a13.614,13.614,0,0,0-13.771-12.3l-.7.012c-7.592.567-11.352,7.331-10.576,14.906L47.5,42.828l5.584,5.782a6.875,6.875,0,0,0,11.807-5.231" transform="translate(-16.938 -0.495)" fill="#ffc09d"/>
        <path id="Trazado_365" data-name="Trazado 365" d="M70.379,60.616a17.648,17.648,0,0,1-9.556-2.658s2.405,5.274,9.683,4.5Z" transform="translate(-22.628 -21.563)" fill="#ff9b6c"/>
        <path id="Trazado_366" data-name="Trazado 366" d="M81.6,30.625a1.043,1.043,0,0,1-.989,1.069,1,1,0,0,1-1.09-.923,1.044,1.044,0,0,1,.988-1.069,1,1,0,0,1,1.091.924" transform="translate(-29.583 -11.049)" fill="#1a2e35"/>
        <path id="Trazado_367" data-name="Trazado 367" d="M80.728,25.147c-.127.138-.927-.434-2.049-.413-1.122.005-1.937.6-2.06.46-.061-.06.067-.308.421-.575a2.863,2.863,0,0,1,1.647-.537,2.747,2.747,0,0,1,1.634.5c.349.259.47.5.408.565" transform="translate(-28.5 -8.96)" fill="#1a2e35"/>
        <path id="Trazado_368" data-name="Trazado 368" d="M65.661,31.614a1.043,1.043,0,0,1-.989,1.069,1,1,0,0,1-1.09-.923,1.044,1.044,0,0,1,.988-1.069,1,1,0,0,1,1.091.924" transform="translate(-23.655 -11.417)" fill="#1a2e35"/>
        <path id="Trazado_369" data-name="Trazado 369" d="M64.1,26.048c-.127.138-.928-.433-2.05-.413-1.122.005-1.936.6-2.06.46-.06-.06.066-.308.422-.574a2.861,2.861,0,0,1,1.646-.538,2.747,2.747,0,0,1,1.634.5c.349.259.47.5.408.565" transform="translate(-22.312 -9.295)" fill="#1a2e35"/>
        <path id="Trazado_370" data-name="Trazado 370" d="M71.907,34.879a7.467,7.467,0,0,1,1.818-.359c.286-.034.556-.1.6-.292a1.461,1.461,0,0,0-.205-.846l-.883-2.169a37.464,37.464,0,0,1-2-5.678,37.537,37.537,0,0,1,2.448,5.5l.848,2.183a1.658,1.658,0,0,1,.167,1.122.719.719,0,0,1-.465.427,1.939,1.939,0,0,1-.485.075,7.287,7.287,0,0,1-1.848.033" transform="translate(-26.5 -9.5)" fill="#1a2e35"/>
        <path id="Trazado_371" data-name="Trazado 371" d="M63.243,19.938c-.156.285-1.241-.028-2.568-.072-1.325-.07-2.433.149-2.565-.147-.057-.142.17-.4.639-.624a4.462,4.462,0,0,1,3.91.167c.448.266.652.54.583.676" transform="translate(-21.616 -6.966)" fill="#1a2e35"/>
        <path id="Trazado_372" data-name="Trazado 372" d="M80.274,18.862c-.193.258-.971.006-1.9.009-.93-.03-1.714.2-1.9-.065-.081-.128.038-.386.379-.632a2.753,2.753,0,0,1,3.063.045c.333.256.445.517.36.643" transform="translate(-28.442 -6.596)" fill="#1a2e35"/>
        <path id="Trazado_373" data-name="Trazado 373" d="M43.928,33.565c-.126-.052-5.043-1.4-4.8,3.588s5.2,3.72,5.2,3.576-.4-7.164-.4-7.164" transform="translate(-14.553 -12.411)" fill="#ffc09d"/>
        <path id="Trazado_374" data-name="Trazado 374" d="M43.468,39.888c-.023-.015-.084.065-.228.139a.865.865,0,0,1-.649.045A2.153,2.153,0,0,1,41.5,38.19a2.882,2.882,0,0,1,.183-1.257,1.006,1.006,0,0,1,.622-.7.442.442,0,0,1,.524.214c.073.136.046.237.073.245s.1-.089.053-.293a.554.554,0,0,0-.211-.3.658.658,0,0,0-.487-.1,1.224,1.224,0,0,0-.871.818,2.954,2.954,0,0,0-.234,1.405,2.259,2.259,0,0,0,1.372,2.094.932.932,0,0,0,.789-.17c.149-.131.17-.244.152-.252" transform="translate(-15.308 -13.387)" fill="#ff9b6c"/>
        <path id="Trazado_375" data-name="Trazado 375" d="M65.818,5.049c.782-.492-1.79-2.968-3.826-3.755C58.916.1,54.289-.472,51.569.47,48.294,1.6,45.622,3.417,44.124,6.543a19.652,19.652,0,0,0-1.631,10.144,5.966,5.966,0,0,0,.876,3.008c.76,1.063,2.136,1.682,2.165,3.206a2.092,2.092,0,0,0,.605,1.493c.968.919,2.033-.057,2.494-1,.985-2.016.975-4.356.943-6.6a14.607,14.607,0,0,0-.586-4.727c-.291-.817-.728-1.581-.974-2.413a3,3,0,0,1,.212-2.511,3.153,3.153,0,0,1,.381-.433,5.212,5.212,0,0,1,5.106-1.277c2.866.834,7.748,2.045,8.947,1.02a7.7,7.7,0,0,0,2.1-2.393Z" transform="translate(-15.777 0)" fill="#1a2e35"/>
        <path id="Trazado_376" data-name="Trazado 376" d="M70,45.16c.005.088-.247.2-.68.187a2.972,2.972,0,0,1-2.572-1.9c-.139-.411-.105-.684-.02-.705.19-.047.54.836,1.438,1.478.877.67,1.824.745,1.834.941" transform="translate(-24.799 -15.901)" fill="#1a2e35"/>
        <path id="Trazado_377" data-name="Trazado 377" d="M23.817,121l-.863,6.572H70.5c.666-15.509,1.24-36.976,1.24-36.976L68,80.351l-6.6-13.009-3.265-1.226-1.43-3.86-3.2,3.54-15.3-7.233-1.469,5.654L23.63,69.994l.622,35.81Z" transform="translate(-8.54 -21.787)" fill="#e1e1e1"/>
        <path id="Trazado_378" data-name="Trazado 378" d="M134.78,61.009l-2.914,8.576-1.02,1.439s-.886,4.767-.943,5.787a54.023,54.023,0,0,0,1.267,6.35L128.209,87.9l8.2,3.146s2.221-4.332,2.839-4.823a5.284,5.284,0,0,0,1.209-2.843c.145-.95,1.373-6.575,1.373-6.575s3.635-6.209,2.118-6.523a5.238,5.238,0,0,0-1.14.021s-2.188,4.085-2.773,4.17L139.2,74s1.708-6.248,1.8-7.416-.154-1.992-1.054-2.128c0,0-.676.273-.737.57s-1.765,7.267-2.151,7.136-.2-.764-.2-.764,2.269-8.452,2.163-8.938A1.331,1.331,0,0,0,137.66,61.3l-1.737,4.643s.81-3.907.181-4.6a1.1,1.1,0,0,0-1.325-.327" transform="translate(-47.699 -22.661)" fill="#ffc09d"/>
        <path id="Trazado_379" data-name="Trazado 379" d="M138.527,83.362c-.07,0-.022-.73-.3-1.895a7.328,7.328,0,0,0-2.546-3.946l-.112-.087.03-.129.446-1.942.009-.041.026-.038c.143-.2.291-.437.428-.674a7.592,7.592,0,0,0,.944-2.471,2.716,2.716,0,0,0-.016-1.157.828.828,0,0,0-.622-.633l.139-.052c-.981.938-1.8,1.709-2.386,2.239a5.359,5.359,0,0,1-.955.791,5.383,5.383,0,0,1,.807-.941c.539-.575,1.324-1.383,2.278-2.348l.06-.06.08.008a1.187,1.187,0,0,1,.974.88,3.042,3.042,0,0,1,.05,1.337,7.715,7.715,0,0,1-.98,2.623,8.447,8.447,0,0,1-.456.714l.036-.078L136,77.4l-.083-.216a7.2,7.2,0,0,1,2.561,4.227,6.24,6.24,0,0,1,.111,1.437,1.466,1.466,0,0,1-.066.514" transform="translate(-49.71 -26.034)" fill="#ff9b6c"/>
        <path id="Trazado_380" data-name="Trazado 380" d="M141.432,80.231a8.26,8.26,0,0,1,4.67,3.086,25,25,0,0,1-2.3-1.591,25.1,25.1,0,0,1-2.366-1.5" transform="translate(-52.618 -29.842)" fill="#ff9b6c"/>
        <path id="Trazado_381" data-name="Trazado 381" d="M127.187,106.554s-8.767,30.132-17.769,29.469a15.6,15.6,0,0,1-12.559-8.155l.126-18.37,9.878-.809,1.98,4.747,6.9-12.428Z" transform="translate(-36.035 -37.578)" fill="#e1e1e1"/>
        <path id="Trazado_382" data-name="Trazado 382" d="M21.32,114.658l-6.285,6.057,2.03-11.586L4.308,105.094S.92,120.994.331,124.755c-1.058,6.748.241,16.34,6.529,17.015,6.8.73,11.939-5.979,15.207-10.382,2.513-3.385,6.569-9.3,6.569-9.3Z" transform="translate(0 -39.099)" fill="#e1e1e1"/>
        <path id="Trazado_383" data-name="Trazado 383" d="M72.221,99.1c-.108-.382-4.612-17.369-6.621-21.121-2.4-4.488-7.518-6.339-10.654-6.532-.405-.025-1.876-.066-3.159-.011-8.636.37-33.472,2.358-33.472,2.358s-9.4,2.361-11.3,10.866c-2.385,10.666-4.3,21.184-4.3,21.184l16.82,3.631,1.979-4.983,31.6,7.051,7.717-11.414Z" transform="translate(-1.008 -26.568)" fill="#e1e1e1"/>
        <path id="Trazado_384" data-name="Trazado 384" d="M56.707,102.588a6.829,6.829,0,0,0-.888.026l-2.59.155-9.434.645-.179.013.014.181c.326,4.324.717,9.5,1.138,15.086l.007.1.082.058c.441.32.919.644,1.409.963a27.8,27.8,0,0,0,2.654,1.537,7.8,7.8,0,0,0,2.875.926,5.732,5.732,0,0,0,2.852-.661,12.494,12.494,0,0,0,2.307-1.543q.521-.43,1-.877a1.941,1.941,0,0,0,.448-.541,2.892,2.892,0,0,0,.251-.634,9.7,9.7,0,0,0,.232-2.489,35.859,35.859,0,0,0-.4-4.406c-.389-2.672-.852-4.805-1.184-6.275-.17-.735-.311-1.3-.414-1.685a3.067,3.067,0,0,0-.18-.579,3.246,3.246,0,0,0,.094.6c.084.431.2,1,.332,1.7.281,1.478.7,3.618,1.046,6.282a37.135,37.135,0,0,1,.343,4.367,9.427,9.427,0,0,1-.24,2.382,1.834,1.834,0,0,1-.6.988c-.315.293-.646.577-.987.855a12.2,12.2,0,0,1-2.237,1.481,5.336,5.336,0,0,1-2.644.608,7.471,7.471,0,0,1-2.708-.887,27.689,27.689,0,0,1-2.609-1.515c-.483-.314-.961-.637-1.389-.948l.087.159c-.449-5.586-.865-10.758-1.213-15.08l-.165.193,9.32-.817,2.618-.251.7-.076a1.332,1.332,0,0,0,.251-.041" transform="translate(-16.226 -38.164)" fill="#1a2e35"/>
        <path id="Trazado_385" data-name="Trazado 385" d="M44.081,109.767a53.877,53.877,0,0,0,6.838-.315,53.946,53.946,0,0,0,6.805-.749,53.888,53.888,0,0,0-6.839.315,53.945,53.945,0,0,0-6.8.749" transform="translate(-16.4 -40.426)" fill="#1a2e35"/>
        <g id="Grupo_84" data-name="Grupo 84" transform="translate(28.754 80.453)" opacity="0.3">
          <g id="Grupo_83" data-name="Grupo 83">
            <g id="Grupo_82" data-name="Grupo 82" clip-path="url(#clip-path-3)">
              <path id="Trazado_386" data-name="Trazado 386" d="M59.013,128.117A20.613,20.613,0,0,1,56.584,132a5.945,5.945,0,0,1-3.729,1.855,6.11,6.11,0,0,1-3.537-1.051,9.346,9.346,0,0,1-3.526-4.626c-.107-.136,2.448,1.569,3.836,2.308a6.251,6.251,0,0,0,3.927.843c2.055-.166,3.9-1.861,5.458-3.21" transform="translate(-45.789 -128.117)"/>
            </g>
          </g>
        </g>
        <g id="Grupo_87" data-name="Grupo 87" transform="translate(29.951 43.358)" opacity="0.3">
          <g id="Grupo_86" data-name="Grupo 86">
            <g id="Grupo_85" data-name="Grupo 85" clip-path="url(#clip-path-4)">
              <path id="Trazado_387" data-name="Trazado 387" d="M62.684,70.437l1.12,8.57L47.7,69.046,62.52,76.7Z" transform="translate(-47.696 -69.046)"/>
            </g>
          </g>
        </g>
        <path id="Trazado_388" data-name="Trazado 388" d="M28.515,101.007a4.028,4.028,0,0,0-.152.667c-.085.473-.2,1.09-.332,1.832-.273,1.587-.637,3.708-1.04,6.052-.412,2.364-.763,4.508-.993,6.064-.116.777-.205,1.407-.261,1.844a4.021,4.021,0,0,0-.065.681,3.872,3.872,0,0,0,.152-.667c.086-.472.2-1.089.333-1.832l1.059-6.05c.408-2.364.744-4.511.975-6.065l.26-1.844a3.887,3.887,0,0,0,.065-.681" transform="translate(-9.549 -37.578)" fill="#1a2e35"/>
        <path id="Trazado_389" data-name="Trazado 389" d="M22.475,78.357c-.025.032.442.4,1.1,1.076a13.36,13.36,0,0,1,3.459,6.435c.2.927.249,1.517.289,1.514a1.47,1.47,0,0,0,0-.418,8.615,8.615,0,0,0-.136-1.128,12.039,12.039,0,0,0-3.5-6.518,8.622,8.622,0,0,0-.867-.735,1.483,1.483,0,0,0-.35-.227" transform="translate(-8.361 -29.151)" fill="#1a2e35"/>
        <path id="Trazado_390" data-name="Trazado 390" d="M71.466,74.857l1.384-.819,1.455,2.62.061,3.893-2.128.343-.877-2.277Z" transform="translate(-26.549 -27.545)" fill="#008f56"/>
        <path id="Trazado_391" data-name="Trazado 391" d="M71.363,69.986c-.028.019.314.543.831,1.408s1.2,2.079,1.852,3.47l.154.333.1.219.1-.217a27.147,27.147,0,0,0,1.363-3.45c.141-.45.242-.815.3-1.069a1.446,1.446,0,0,0,.073-.4c-.031-.009-.206.539-.525,1.42s-.793,2.092-1.42,3.4l.2,0-.155-.337a28.786,28.786,0,0,0-1.922-3.458c-.277-.424-.513-.759-.683-.986a1.626,1.626,0,0,0-.284-.337" transform="translate(-26.549 -26.037)" fill="#1a2e35"/>
        <path id="Trazado_392" data-name="Trazado 392" d="M44.9,67.564a1.164,1.164,0,0,0,.224.134l.661.345L48.22,69.3c2.052,1.067,4.863,2.588,7.978,4.252,1.9,1.01,3.693,1.947,5.255,2.728l.144.072,0-.16c.019-2.026.036-3.734.048-4.97,0-.58,0-1.049,0-1.4a3.009,3.009,0,0,0-.023-.5,2.937,2.937,0,0,0-.041.5c-.013.352-.031.82-.053,1.4-.033,1.235-.077,2.942-.131,4.968l.146-.088c-1.554-.8-3.344-1.739-5.24-2.75-3.113-1.663-5.938-3.163-8.01-4.195-1.036-.517-1.88-.924-2.467-1.2l-.679-.308a1.14,1.14,0,0,0-.244-.093" transform="translate(-16.706 -25.136)" fill="#1a2e35"/>
        <path id="Trazado_393" data-name="Trazado 393" d="M73.349,85.1c.033.053.4-.121.826-.388s.739-.526.706-.58-.4.121-.826.388-.739.527-.706.58" transform="translate(-27.288 -31.297)" fill="#1a2e35"/>
        <path id="Trazado_394" data-name="Trazado 394" d="M72.794,81.406a10.809,10.809,0,0,0,.99-1.971,10.816,10.816,0,0,0,.782-2.062,10.808,10.808,0,0,0-.99,1.971,10.8,10.8,0,0,0-.782,2.062" transform="translate(-27.08 -28.786)" fill="#1a2e35"/>
        <g id="Grupo_90" data-name="Grupo 90" transform="translate(14.645 85.552)" opacity="0.3">
          <g id="Grupo_89" data-name="Grupo 89">
            <g id="Grupo_88" data-name="Grupo 88" clip-path="url(#clip-path-5)">
              <path id="Trazado_395" data-name="Trazado 395" d="M35.922,138.376s-3.271,3.739-5.207,6.161c-1.594,1.994-4.515,4.106-6.912,6.121l-.481,4.053c1.924-.382,4.518-2.609,5.82-4.076a27.983,27.983,0,0,0,3.634-4.712c1.754-3.135,4.162-6.148,4.779-9.688Z" transform="translate(-23.322 -136.237)"/>
            </g>
          </g>
        </g>
        <path id="Trazado_396" data-name="Trazado 396" d="M20.577,143.667a1.987,1.987,0,0,1,.324-.247c.214-.159.551-.362.954-.672a35.57,35.57,0,0,0,3.275-2.854,96.224,96.224,0,0,0,9.58-11.288l-.02.171-2.127-5.152-2.55-6.206.276.067-15,12.689a1.337,1.337,0,0,1,.249-.29c.178-.176.445-.432.8-.754.706-.647,1.748-1.574,3.063-2.726,2.63-2.3,6.352-5.511,10.663-9.186l.183-.156.092.224,2.561,6.2c.728,1.772,1.438,3.5,2.119,5.156l.038.093-.058.078a89.043,89.043,0,0,1-9.709,11.246,30.88,30.88,0,0,1-3.361,2.789c-.417.3-.768.484-.993.626a1.967,1.967,0,0,1-.357.193" transform="translate(-5.687 -43.552)" fill="#1a2e35"/>
        <path id="Trazado_397" data-name="Trazado 397" d="M100.822,89.346a1.482,1.482,0,0,1,.032.377c.006.288.013.646.021,1.081.013.939,0,2.3-.028,3.976-.061,3.356-.266,7.99-.551,13.1s-.531,9.74-.657,13.092c-.059,1.636-.108,2.98-.144,3.969-.019.435-.035.792-.047,1.08a1.492,1.492,0,0,1-.041.376,1.482,1.482,0,0,1-.032-.377c-.006-.288-.013-.646-.021-1.081-.013-.939,0-2.3.028-3.975.061-3.356.266-7.991.551-13.1s.531-9.738.657-13.089c.06-1.637.108-2.98.144-3.97.019-.435.035-.792.047-1.08a1.492,1.492,0,0,1,.041-.376" transform="translate(-36.961 -33.24)" fill="#1a2e35"/>
        <path id="Trazado_398" data-name="Trazado 398" d="M110.335,131.949a12.167,12.167,0,0,0,.367-1.7c.209-1.049.539-2.489,1.017-4.046s1.02-2.933,1.437-3.917a12.164,12.164,0,0,0,.654-1.61,7.37,7.37,0,0,0-.864,1.515,27.876,27.876,0,0,0-2.472,8.02,7.432,7.432,0,0,0-.139,1.738" transform="translate(-41.043 -44.896)" fill="#1a2e35"/>
        <path id="Trazado_399" data-name="Trazado 399" d="M71.572,137.189H80.86c-.169-3.642-.54-11.105-1-17.147A240.439,240.439,0,0,0,74.4,84.41l-2.128.342S71.26,101.224,71.5,107.68c.248,6.541.118,23.912.068,29.509" transform="translate(-26.588 -31.404)" fill="#008f56"/>
        <path id="Trazado_400" data-name="Trazado 400" d="M82.548,98.522,77.3,118.34a2.464,2.464,0,0,1-2.431,1.834l-27.166-.533a2.465,2.465,0,0,1-2.363-2.973l4-18.981a2.465,2.465,0,0,1,2.411-1.956H80.4a2.223,2.223,0,0,1,2.148,2.791" transform="translate(-16.849 -35.616)" fill="#1a2e35"/>
        <path id="Trazado_401" data-name="Trazado 401" d="M37.426,114.837l1.29-1.206a14.961,14.961,0,0,1,1.395-3.384,5.978,5.978,0,0,1,1.986-.94l3.243-2.979-.591,2.658,4.706-.035a1.337,1.337,0,0,1,1.28.822.532.532,0,0,1,.041.257,1.72,1.72,0,0,1-.941,1.233l-.676.318a1.6,1.6,0,0,1,1.109,1.155,1.474,1.474,0,0,1-.98,1.587,1.3,1.3,0,0,1,.492,1.9s1.077,1.277.454,2.141-4.192,2.311-4.192,2.311l-1.979.9a3.349,3.349,0,0,1-1.484.084l-.772.108-.825.684s-4.722-2.578-3.556-7.617" transform="translate(-13.855 -39.558)" fill="#ffc09d"/>
        <path id="Trazado_402" data-name="Trazado 402" d="M45.61,115.775a3.576,3.576,0,0,0,1.069.01,20.054,20.054,0,0,0,5.041-1.018,3.556,3.556,0,0,0,.982-.424c-.028-.08-1.57.427-3.526.818s-3.571.53-3.566.614" transform="translate(-16.969 -42.537)" fill="#ff9b6c"/>
        <path id="Trazado_403" data-name="Trazado 403" d="M43.553,121.238a31.23,31.23,0,0,0,4.079-.955,31.137,31.137,0,0,0,4.005-1.228,31.082,31.082,0,0,0-4.079.955,31.131,31.131,0,0,0-4.005,1.228" transform="translate(-16.203 -44.29)" fill="#ff9b6c"/>
        <path id="Trazado_404" data-name="Trazado 404" d="M44.156,125.116a5.019,5.019,0,0,0,1.3-.169,20.96,20.96,0,0,0,5.935-2.2,4.985,4.985,0,0,0,1.1-.722,7.694,7.694,0,0,0-1.191.545c-.725.351-1.739.81-2.89,1.238s-2.219.738-3,.945a7.674,7.674,0,0,0-1.259.364" transform="translate(-16.428 -45.396)" fill="#ff9b6c"/>
        <path id="Trazado_405" data-name="Trazado 405" d="M42.6,119.858c.078-.028-.074-.553.039-1.189s.414-1.086.349-1.138c-.047-.058-.511.364-.628,1.091a1.4,1.4,0,0,0,.24,1.236" transform="translate(-15.747 -43.724)" fill="#ff9b6c"/>
        <path id="Trazado_406" data-name="Trazado 406" d="M42.371,114.848c.053-.06-.191-.35-.229-.787s.127-.771.063-.818c-.029-.021-.124.038-.214.188a1.141,1.141,0,0,0,.132,1.277c.118.129.223.168.247.141" transform="translate(-15.572 -42.129)" fill="#ff9b6c"/>
        <path id="Trazado_407" data-name="Trazado 407" d="M42.845,125.806c.06-.054-.124-.346-.236-.739s-.121-.736-.2-.749-.207.367-.07.829.456.715.507.659" transform="translate(-15.729 -46.251)" fill="#ff9b6c"/>
        <path id="Trazado_408" data-name="Trazado 408" d="M51.5,110.441a17.931,17.931,0,0,1-2.752.226,17.9,17.9,0,0,1-2.757.162,7.654,7.654,0,0,1,2.732-.524,7.658,7.658,0,0,1,2.778.136" transform="translate(-17.108 -41.023)" fill="#ff9b6c"/>
      </g>
    </g>
  </g>
</svg>
