<svg id="Personas" xmlns="http://www.w3.org/2000/svg" xmlns:xlink="http://www.w3.org/1999/xlink" width="468.626" height="332.59" viewBox="0 0 468.626 332.59">
  <defs>
    <clipPath id="clip-path">
      <rect id="Rectángulo_88" data-name="Rectángulo 88" width="434.919" height="332.59" fill="none"/>
    </clipPath>
    <clipPath id="clip-path-3">
      <rect id="Rectángulo_84" data-name="Rectángulo 84" width="25.736" height="11.178" fill="none"/>
    </clipPath>
    <clipPath id="clip-path-4">
      <rect id="Rectángulo_85" data-name="Rectángulo 85" width="31.347" height="19.386" fill="none"/>
    </clipPath>
    <clipPath id="clip-path-5">
      <rect id="Rectángulo_86" data-name="Rectángulo 86" width="67.138" height="19.627" fill="none"/>
    </clipPath>
  </defs>
  <rect id="Rectángulo_89" data-name="Rectángulo 89" width="468.626" height="314.486" rx="10" transform="translate(0 18.05)" fill="#e96247"/>
  <g id="Grupo_65" data-name="Grupo 65" transform="translate(16.552)">
    <g id="Grupo_64" data-name="Grupo 64" clip-path="url(#clip-path)">
      <g id="Grupo_63" data-name="Grupo 63">
        <g id="Grupo_62" data-name="Grupo 62" clip-path="url(#clip-path)">
          <path id="Trazado_217" data-name="Trazado 217" d="M35.935,292.319H84.11l-2.091-41.3.068-.529c2.509,6.966,7.306,21.055,13.127,41.83h42.475c-10.318-57.066-23.373-108.884-23.373-108.884l-42.742-2.108.885,6.58-24.84-6.58s-22.443,30.337-20.554,62c.347,5.817,3.99,25.087,8.87,48.988" transform="translate(5.986 40.272)" fill="#1a2e35"/>
          <path id="Trazado_218" data-name="Trazado 218" d="M266.233,290.441h42.1L306.273,248.5l2.618.568s4.486,20,9.095,41.369h42.123L352.8,220.178l-4.088-30.395-87.192,7.009a112.259,112.259,0,0,0-2.45,33.02c.191,2.477,3.265,28.282,7.165,60.629" transform="translate(57.47 42.15)" fill="#375a64"/>
          <path id="Trazado_219" data-name="Trazado 219" d="M153.714,292.871c5.41-25.447,11.664-53.331,11.664-53.331l2.68-.582L165.4,292.871h42.322c4.6-38.091,8.443-70.237,8.66-73.048a114.959,114.959,0,0,0-2.508-33.806l-89.264-7.175-4.184,31.118L111.8,292.871Z" transform="translate(24.83 39.72)" fill="#1a2e35"/>
          <path id="Trazado_220" data-name="Trazado 220" d="M220.522,66.767l5.671,16.69,1.986,2.8s1.724,9.278,1.834,11.263-2.465,12.358-2.465,12.358l5.762,9.23-15.953,6.123s-4.323-8.43-5.525-9.386-2.069-3.686-2.353-5.534-2.672-12.8-2.672-12.8-7.073-12.083-4.122-12.7a10.192,10.192,0,0,1,2.218.042s4.258,7.95,5.4,8.115l1.612-.936s-3.324-12.159-3.5-14.432.3-3.876,2.052-4.14c0,0,1.315.53,1.435,1.108s3.435,14.143,4.186,13.887.394-1.487.394-1.487-4.415-16.448-4.21-17.394a2.59,2.59,0,0,1,2.643-2.255l3.38,9.035s-1.576-7.6-.353-8.96a2.143,2.143,0,0,1,2.579-.635" transform="translate(44.855 14.786)" fill="#ffc09d"/>
          <path id="Trazado_221" data-name="Trazado 221" d="M214.41,101.69c.136,0,.043-1.42.579-3.687a14.262,14.262,0,0,1,4.954-7.68l.217-.17L220.1,89.9c-.277-1.207-.568-2.475-.868-3.78l-.018-.079-.051-.073c-.279-.39-.566-.851-.833-1.313a14.764,14.764,0,0,1-1.838-4.809,5.286,5.286,0,0,1,.032-2.252,1.61,1.61,0,0,1,1.211-1.232l-.271-.1c1.909,1.826,3.509,3.327,4.643,4.358a10.45,10.45,0,0,0,1.859,1.539,10.532,10.532,0,0,0-1.57-1.832c-1.05-1.118-2.577-2.692-4.434-4.569l-.116-.117-.155.016a2.309,2.309,0,0,0-1.9,1.713,5.92,5.92,0,0,0-.1,2.6,15.016,15.016,0,0,0,1.906,5.1,16.434,16.434,0,0,0,.887,1.39l-.071-.153c.31,1.3.612,2.566.9,3.773l.161-.42a14.02,14.02,0,0,0-4.985,8.228,12.13,12.13,0,0,0-.216,2.8,2.853,2.853,0,0,0,.128,1" transform="translate(47.588 16.799)" fill="#ff9b6c"/>
          <path id="Trazado_222" data-name="Trazado 222" d="M216.043,85.913c-.07-.208-2.5.5-5.068,2.21s-4.182,3.65-4.02,3.8c.175.172,1.988-1.459,4.483-3.1,2.482-1.652,4.7-2.682,4.6-2.91" transform="translate(45.961 19.073)" fill="#ff9b6c"/>
          <path id="Trazado_223" data-name="Trazado 223" d="M210.668,117.467s17.06,58.641,34.582,57.35a30.35,30.35,0,0,0,24.442-15.871l-.246-35.751-19.224-1.574-3.854,9.238-13.42-24.186Z" transform="translate(46.788 23.691)" fill="#e1e1e1"/>
          <path id="Trazado_224" data-name="Trazado 224" d="M308.8,56.561a102.706,102.706,0,0,0,5.644-16.776,35.837,35.837,0,0,0-.181-17.539c-.253-.859-2.514-6.663-3.408-6.637-.64.018.628,5.374.268,5.9-3.434,5.052-4.711,11.328-4.645,17.437A79.989,79.989,0,0,0,308.8,56.561" transform="translate(68.065 3.467)" fill="#1a2e35"/>
          <path id="Trazado_225" data-name="Trazado 225" d="M281.951,88.828c.247-4.165.429-7.455.4-7.457,0,0-14.181-2.441-14.127-16.658.027-6.867,1.232-21,2.471-33.779A26.493,26.493,0,0,1,297.49,7l1.372.022c14.775,1.1,22.093,14.269,20.58,29.009L315.8,87.755,304.929,99.008c-8.661,8.971-23.8,2.262-22.978-10.18" transform="translate(59.57 1.554)" fill="#ffc09d"/>
          <path id="Trazado_226" data-name="Trazado 226" d="M279.826,68.795a34.34,34.34,0,0,0,18.6-5.172s-4.679,10.264-18.843,8.755Z" transform="translate(62.093 14.13)" fill="#ff9b6c"/>
          <path id="Trazado_227" data-name="Trazado 227" d="M272.994,37.167a2.031,2.031,0,0,0,1.925,2.08,1.941,1.941,0,0,0,2.121-1.8,2.031,2.031,0,0,0-1.922-2.081,1.943,1.943,0,0,0-2.124,1.8" transform="translate(60.63 7.854)" fill="#1a2e35"/>
          <path id="Trazado_228" data-name="Trazado 228" d="M272.657,31.818c.247.269,1.8-.844,3.988-.8,2.183.01,3.768,1.159,4.01.9.119-.117-.131-.6-.82-1.118a5.571,5.571,0,0,0-3.2-1.045,5.346,5.346,0,0,0-3.18.97c-.68.5-.915.979-.793,1.1" transform="translate(60.549 6.607)" fill="#1a2e35"/>
          <path id="Trazado_229" data-name="Trazado 229" d="M288.928,38.156a2.03,2.03,0,0,0,1.924,2.08,1.942,1.942,0,0,0,2.123-1.8,2.031,2.031,0,0,0-1.922-2.081,1.943,1.943,0,0,0-2.124,1.8" transform="translate(64.169 8.074)" fill="#1a2e35"/>
          <path id="Trazado_230" data-name="Trazado 230" d="M289.287,32.719c.248.269,1.806-.844,3.989-.8,2.183.01,3.768,1.16,4.01.9.117-.117-.128-.6-.821-1.118a5.576,5.576,0,0,0-3.2-1.045,5.346,5.346,0,0,0-3.18.97c-.678.5-.915.98-.794,1.1" transform="translate(64.242 6.807)" fill="#1a2e35"/>
          <path id="Trazado_231" data-name="Trazado 231" d="M284.521,49.385a14.534,14.534,0,0,0-3.538-.7c-.556-.066-1.083-.186-1.171-.568a2.844,2.844,0,0,1,.4-1.647q.819-2.011,1.718-4.221c2.389-6.01,4.128-10.956,3.885-11.05s-2.377,4.7-4.765,10.712q-.863,2.224-1.65,4.248a3.23,3.23,0,0,0-.325,2.185,1.4,1.4,0,0,0,.9.83,3.773,3.773,0,0,0,.945.147,14.18,14.18,0,0,0,3.6.064" transform="translate(61.96 6.929)" fill="#1a2e35"/>
          <path id="Trazado_232" data-name="Trazado 232" d="M289.538,26.753c.3.555,2.416-.055,5-.139,2.579-.136,4.736.291,4.991-.286.111-.276-.33-.774-1.244-1.215a8.683,8.683,0,0,0-7.609.325c-.873.517-1.27,1.051-1.135,1.315" transform="translate(64.299 5.417)" fill="#1a2e35"/>
          <path id="Trazado_233" data-name="Trazado 233" d="M273.293,25.6c.376.5,1.889.011,3.7.016,1.81-.057,3.336.389,3.7-.125.158-.249-.075-.75-.737-1.231a5.357,5.357,0,0,0-5.96.088c-.648.5-.865,1.006-.7,1.251" transform="translate(60.685 5.196)" fill="#1a2e35"/>
          <path id="Trazado_234" data-name="Trazado 234" d="M309.187,39.423c.244-.1,9.815-2.731,9.347,6.983s-10.124,7.24-10.127,6.96.781-13.943.781-13.943" transform="translate(68.495 8.667)" fill="#ffc09d"/>
          <path id="Trazado_235" data-name="Trazado 235" d="M310.981,49.247c.044-.029.164.127.444.271a1.688,1.688,0,0,0,1.262.087c1.045-.326,1.987-1.914,2.119-3.663a5.609,5.609,0,0,0-.357-2.445,1.958,1.958,0,0,0-1.211-1.36.861.861,0,0,0-1.02.416c-.143.265-.09.462-.143.477-.028.023-.2-.174-.1-.571a1.088,1.088,0,0,1,.412-.59,1.28,1.28,0,0,1,.948-.2,2.383,2.383,0,0,1,1.7,1.591,5.748,5.748,0,0,1,.456,2.735c-.156,1.954-1.247,3.738-2.67,4.076a1.814,1.814,0,0,1-1.535-.331c-.29-.254-.33-.474-.3-.49" transform="translate(69.065 9.25)" fill="#ff9b6c"/>
          <path id="Trazado_236" data-name="Trazado 236" d="M276.185,15.492c-1.521-.957,3.484-5.777,7.445-7.308,5.987-2.315,14.991-3.438,20.286-1.6,6.373,2.206,11.572,5.737,14.489,11.819a38.245,38.245,0,0,1,3.174,19.742,11.611,11.611,0,0,1-1.7,5.854c-1.479,2.069-4.158,3.273-4.212,6.24a4.072,4.072,0,0,1-1.178,2.906c-1.883,1.789-3.956-.11-4.853-1.948-1.917-3.924-1.9-8.478-1.836-12.845a28.427,28.427,0,0,1,1.14-9.2c.567-1.59,1.418-3.076,1.9-4.7a5.835,5.835,0,0,0-.412-4.886,6.074,6.074,0,0,0-.743-.843,10.14,10.14,0,0,0-9.936-2.485c-5.578,1.623-15.079,3.979-17.412,1.985-3.356-2.869-4.1-4.657-4.1-4.657Z" transform="translate(61.277 1.258)" fill="#1a2e35"/>
          <path id="Trazado_237" data-name="Trazado 237" d="M283.836,53.116c-.01.171.48.39,1.324.364a5.785,5.785,0,0,0,5.006-3.7c.27-.8.205-1.332.039-1.372-.37-.092-1.051,1.627-2.8,2.877-1.706,1.3-3.549,1.451-3.57,1.832" transform="translate(63.038 10.75)" fill="#1a2e35"/>
          <path id="Trazado_238" data-name="Trazado 238" d="M304.785,227.265a6.194,6.194,0,0,1-1.335.752,15.379,15.379,0,0,1-3.96,1.386,8.323,8.323,0,0,1-2.945.021,6.051,6.051,0,0,1-3.08-1.478,7.309,7.309,0,0,1-1.867-3.265c-.378-1.243-.593-2.535-.857-3.846-1.019-5.266-1.71-10.075-2.113-13.564-.2-1.745-.335-3.16-.408-4.14a6.674,6.674,0,0,1-.04-1.529,6.659,6.659,0,0,1,.3,1.5c.169,1.111.376,2.483.622,4.106.523,3.466,1.286,8.248,2.3,13.5.516,2.595.868,5.238,2.489,6.788a6.635,6.635,0,0,0,5.519,1.436,17.962,17.962,0,0,0,3.93-1.154,7.2,7.2,0,0,1,1.44-.511" transform="translate(63.997 44.774)" fill="#1a2e35"/>
          <path id="Trazado_239" data-name="Trazado 239" d="M294.306,202.389c-.011-.029.207-.166.657-.2a2.862,2.862,0,0,1,1.788.576,3.2,3.2,0,0,1,1.348,2.47,3.169,3.169,0,0,1-5.4,2.024,3.2,3.2,0,0,1-.61-2.746,2.864,2.864,0,0,1,.969-1.609c.358-.275.611-.314.623-.286a3.617,3.617,0,0,0-1.122,1.985,2.791,2.791,0,0,0,.607,2.245,2.591,2.591,0,0,0,4.3-1.616,2.791,2.791,0,0,0-1.018-2.09,3.611,3.611,0,0,0-2.151-.756" transform="translate(64.854 44.905)" fill="#1a2e35"/>
          <path id="Trazado_240" data-name="Trazado 240" d="M339.844,215.017a3.44,3.44,0,0,1-1.089.17,20.367,20.367,0,0,1-3,.034,29.05,29.05,0,0,1-17.95-7.56,20.486,20.486,0,0,1-2.07-2.17c-.446-.55-.673-.866-.638-.9.09-.079,1.117,1.1,3.025,2.708a32.242,32.242,0,0,0,17.67,7.443c2.486.24,4.045.153,4.051.272" transform="translate(69.981 45.438)" fill="#1a2e35"/>
          <path id="Trazado_241" data-name="Trazado 241" d="M274.591,202.834a14.45,14.45,0,0,1-1.478,3.261,36.279,36.279,0,0,1-4.94,6.878,33.286,33.286,0,0,1-6.263,5.352,11.577,11.577,0,0,1-2.944,1.567,30.521,30.521,0,0,1,2.72-1.975,41.97,41.97,0,0,0,6.067-5.429,44.992,44.992,0,0,0,5-6.656,35.132,35.132,0,0,1,1.834-3" transform="translate(57.515 45.048)" fill="#1a2e35"/>
          <path id="Trazado_242" data-name="Trazado 242" d="M324.459,129.371l12.232,11.788-3.951-22.548,24.827-7.853s6.593,30.943,7.741,38.263c2.058,13.133-.469,31.8-12.706,33.113-13.239,1.421-23.236-11.636-29.6-20.2-4.891-6.587-12.784-18.105-12.784-18.105Z" transform="translate(68.898 24.599)" fill="#e1e1e1"/>
          <path id="Trazado_243" data-name="Trazado 243" d="M242.42,130.968c.21-.743,8.975-33.8,12.885-41.1,4.677-8.734,14.631-12.337,20.734-12.712.788-.049,3.653-.128,6.147-.021,16.807.721,65.141,4.589,65.141,4.589s18.293,4.6,22,21.147c4.64,20.757,8.376,41.226,8.376,41.226l-32.734,7.067-3.851-9.7-61.5,13.722-15.018-22.214Z" transform="translate(53.84 17.118)" fill="#e1e1e1"/>
          <path id="Trazado_244" data-name="Trazado 244" d="M348.445,185.74l-.847-29.575,1.211-69.69L323.3,75.23l-2.858-11L290.663,78.3l-6.236-6.89-2.783,7.512-6.354,2.387-12.838,25.318-7.276,19.94s2.31,86.558,4.148,100.5c0,0,5.987,2.217,20.785,2.574,30,.723,70.851-1.172,70.851-1.172l.419-1.313a26.138,26.138,0,0,0,1.013-11.341Z" transform="translate(56.673 14.264)" fill="#e1e1e1"/>
          <path id="Trazado_245" data-name="Trazado 245" d="M276.011,222.806a1.244,1.244,0,0,1-.054-.359c-.022-.288-.048-.637-.079-1.06q-.086-1.507-.23-4.079c-.161-3.621-.387-8.731-.665-15.012-.472-12.679-1.073-30.207-.874-49.588.118-9.69.444-18.935,1.371-27.305.965-8.36,2.4-15.794,3.7-22.007,1.316-6.211,2.519-11.2,3.357-14.646q.627-2.5.995-3.96c.111-.411.2-.747.279-1.025a.183.183,0,1,1,.078.02c-.055.284-.121.627-.2,1.044q-.313,1.474-.851,4c-.747,3.467-1.866,8.475-3.109,14.691-1.223,6.216-2.6,13.65-3.522,21.972-.882,8.324-1.187,17.552-1.3,27.227-.2,19.353.313,36.878.643,49.558.172,6.285.314,11.4.413,15.022q.053,2.577.082,4.085c0,.425,0,.775,0,1.063a1.3,1.3,0,0,1-.027.364" transform="translate(60.869 18.528)" fill="#1a2e35"/>
          <path id="Trazado_246" data-name="Trazado 246" d="M292.13,108.259a13.287,13.287,0,0,1,1.728.051l5.04.3,18.362,1.255.348.024-.027.352c-.634,8.414-1.394,18.482-2.214,29.358l-.015.194-.158.114c-.859.623-1.789,1.254-2.742,1.875a53.953,53.953,0,0,1-5.165,2.992,15.183,15.183,0,0,1-5.6,1.8,11.156,11.156,0,0,1-5.551-1.286,24.317,24.317,0,0,1-4.49-3c-.675-.559-1.325-1.127-1.944-1.707a3.736,3.736,0,0,1-.871-1.053,5.567,5.567,0,0,1-.489-1.233,18.929,18.929,0,0,1-.451-4.843,69.782,69.782,0,0,1,.776-8.574c.757-5.2,1.658-9.351,2.3-12.212.329-1.429.6-2.535.8-3.28a5.789,5.789,0,0,1,.351-1.127,6.537,6.537,0,0,1-.185,1.165c-.164.84-.379,1.939-.647,3.311-.546,2.877-1.357,7.04-2.035,12.226a72.02,72.02,0,0,0-.666,8.5,18.4,18.4,0,0,0,.466,4.637,3.584,3.584,0,0,0,1.16,1.924c.615.569,1.258,1.123,1.921,1.665a23.7,23.7,0,0,0,4.353,2.882,10.377,10.377,0,0,0,5.145,1.183,14.539,14.539,0,0,0,5.27-1.727,54.037,54.037,0,0,0,5.078-2.949c.94-.611,1.869-1.24,2.7-1.845l-.171.309c.875-10.872,1.685-20.936,2.362-29.347l.321.376-18.137-1.59-5.1-.489-1.357-.148a2.542,2.542,0,0,1-.486-.079" transform="translate(63.939 24.041)" fill="#1a2e35"/>
          <path id="Trazado_247" data-name="Trazado 247" d="M316.567,116.479c-.018.233-5.977-.04-13.309-.612s-13.261-1.225-13.244-1.458,5.977.04,13.31.612,13.261,1.225,13.243,1.458" transform="translate(64.411 25.391)" fill="#1a2e35"/>
          <g id="Grupo_55" data-name="Grupo 55" transform="translate(353.155 163.494)" opacity="0.3">
            <g id="Grupo_54" data-name="Grupo 54">
              <g id="Grupo_53" data-name="Grupo 53" clip-path="url(#clip-path-3)">
                <path id="Trazado_248" data-name="Trazado 248" d="M288.975,133.782c1.435,2.361,2.769,5.6,4.727,7.554a11.569,11.569,0,0,0,7.258,3.61,11.891,11.891,0,0,0,6.883-2.046c3.33-2.084,5.376-5.366,6.862-9,.209-.265-4.764,3.054-7.466,4.491a12.165,12.165,0,0,1-7.643,1.64c-4-.324-7.587-3.621-10.621-6.247" transform="translate(-288.975 -133.782)"/>
              </g>
            </g>
          </g>
          <g id="Grupo_58" data-name="Grupo 58" transform="translate(345.212 91.304)" opacity="0.3">
            <g id="Grupo_57" data-name="Grupo 57">
              <g id="Grupo_56" data-name="Grupo 56" clip-path="url(#clip-path-4)">
                <path id="Trazado_249" data-name="Trazado 249" d="M284.655,77.417,282.476,94.1,313.823,74.71,284.974,89.6Z" transform="translate(-282.476 -74.711)"/>
              </g>
            </g>
          </g>
          <path id="Trazado_250" data-name="Trazado 250" d="M282,90.075a467.831,467.831,0,0,0-10.622,69.345c-1.226,16.2-2.134,37.671-2.134,37.671l7.226,8.951,11.075-9.8s-.48-45.612.1-60.881c.478-12.564-1.5-44.619-1.5-44.619Z" transform="translate(59.796 20.005)" fill="#0c8f5a"/>
          <path id="Trazado_251" data-name="Trazado 251" d="M325.623,106.672a7.686,7.686,0,0,1,.3,1.3c.166.92.383,2.12.645,3.566.53,3.089,1.241,7.216,2.024,11.779.8,4.6,1.485,8.773,1.933,11.8.226,1.513.4,2.739.508,3.588a7.812,7.812,0,0,1,.127,1.325,7.546,7.546,0,0,1-.3-1.3c-.167-.919-.385-2.119-.648-3.565-.54-3.088-1.262-7.214-2.06-11.775-.793-4.6-1.447-8.778-1.9-11.8-.205-1.456-.375-2.663-.506-3.589a7.575,7.575,0,0,1-.126-1.325" transform="translate(72.317 23.691)" fill="#1a2e35"/>
          <path id="Trazado_252" data-name="Trazado 252" d="M335.067,84.023c.049.062-.86.77-2.147,2.095a26,26,0,0,0-6.731,12.524c-.4,1.8-.484,2.953-.563,2.946a2.863,2.863,0,0,1-.007-.813,16.768,16.768,0,0,1,.265-2.195A23.419,23.419,0,0,1,332.7,85.9a16.663,16.663,0,0,1,1.685-1.431,2.887,2.887,0,0,1,.681-.442" transform="translate(72.314 18.661)" fill="#1a2e35"/>
          <path id="Trazado_253" data-name="Trazado 253" d="M285.321,81.3,282.627,79.7,279.8,84.8l-.118,7.576,4.14.667,1.706-4.431Z" transform="translate(62.115 17.701)" fill="#0c8f5a"/>
          <path id="Trazado_254" data-name="Trazado 254" d="M286.152,75.651c.055.038-.611,1.056-1.617,2.74s-2.337,4.045-3.606,6.753l-.3.649-.2.428-.2-.424a53.023,53.023,0,0,1-2.652-6.714c-.275-.874-.472-1.586-.593-2.081a2.813,2.813,0,0,1-.143-.778c.061-.018.4,1.049,1.022,2.763s1.543,4.071,2.763,6.621l-.4,0c.1-.208.2-.43.3-.655a56.007,56.007,0,0,1,3.741-6.73c.539-.825,1-1.476,1.328-1.919a3.167,3.167,0,0,1,.554-.656" transform="translate(61.483 16.801)" fill="#1a2e35"/>
          <path id="Trazado_255" data-name="Trazado 255" d="M316.841,73.23a2.186,2.186,0,0,1-.435.262l-1.286.672-4.733,2.453c-3.994,2.076-9.464,5.036-15.526,8.275-3.691,1.966-7.187,3.788-10.228,5.31l-.281.141,0-.312c-.039-3.944-.072-7.268-.1-9.672,0-1.129,0-2.041.006-2.726a5.787,5.787,0,0,1,.043-.968,5.716,5.716,0,0,1,.079.965c.026.686.06,1.6.1,2.725.064,2.4.15,5.726.254,9.669l-.284-.171c3.023-1.548,6.508-3.385,10.2-5.352,6.059-3.237,11.557-6.156,15.59-8.164,2.015-1.007,3.659-1.8,4.8-2.328l1.322-.6a2.216,2.216,0,0,1,.474-.181" transform="translate(63.131 16.264)" fill="#1a2e35"/>
          <path id="Trazado_256" data-name="Trazado 256" d="M283.016,91.69c-.065.1-.786-.235-1.608-.754s-1.438-1.025-1.374-1.129.785.236,1.608.755,1.438,1.025,1.374,1.128" transform="translate(62.193 19.941)" fill="#1a2e35"/>
          <path id="Trazado_257" data-name="Trazado 257" d="M283.653,90.887a21.037,21.037,0,0,1-1.926-3.835,21.041,21.041,0,0,1-1.521-4.013,21.026,21.026,0,0,1,1.926,3.836,21.013,21.013,0,0,1,1.521,4.012" transform="translate(62.229 18.442)" fill="#1a2e35"/>
          <path id="Trazado_258" data-name="Trazado 258" d="M387.487,159.419s.262,1.276.5,3.776a53.912,53.912,0,0,1-.149,11.061,36.677,36.677,0,0,1-1.794,7.895,18.133,18.133,0,0,1-5.287,8.076,11.589,11.589,0,0,1-4.946,2.3,18.079,18.079,0,0,1-5.84.054,25,25,0,0,1-11.507-5.32l.287-.165c.8,6.062,1.667,12.575,2.586,19.5.441,3.472.97,7.017,1.377,10.719a27.316,27.316,0,0,1-1.58,11.288l-.055.152-.153.007c-13.078.582-27.424,1.049-42.814,1.276-7.694.106-15.65.149-23.837.023-4.092-.065-8.253-.136-12.452-.513a62.312,62.312,0,0,1-12.644-2.142l-.165-.05-.022-.185c-.506-4.281-.725-8.618-.991-13.014q-.326-6.6-.661-13.35-.6-13.508-1.078-27.585l.546.185A30.481,30.481,0,0,1,250.939,183.7a31.051,31.051,0,0,1-4.816.841,13.555,13.555,0,0,1-2.5.024,11.2,11.2,0,0,1-2.415-.7,21.018,21.018,0,0,1-7.688-6.241c-4.249-5.138-7.455-11.083-10.394-17.156-2.923-6.093-5.477-12.421-7.837-18.867-1.761-4.833-3.395-9.678-4.854-14.554l-.077-.257.244-.119,22.28-10.792.269-.131.145.262q6.81,12.28,13.416,24.189l-.559.032q1.939-4.651,3.854-9.238l.286-.189-.3.227q2.475-9.092,5.073-17.9c1.765-5.864,3.5-11.649,5.65-17.218a23.24,23.24,0,0,1,4.561-7.639,26.027,26.027,0,0,1,6.979-5.3,29.515,29.515,0,0,1,8.134-2.832,20.373,20.373,0,0,1,4.239-.362l4.2-.024-.109.017,2.774-1.04-.164.165c.958-2.582,1.876-5.058,2.786-7.511l.158-.428.306.337,6.234,6.9-.317-.064,29.786-14.057.271-.127.075.29c1,3.873,1.936,7.476,2.85,11l-.134-.158,21.187,9.365-.034-.012c9.046,2.716,16.579,8.462,20.144,15.723.386.926.8,1.831,1.149,2.745l.8,2.79q.6,2.786,1.162,5.431l2.133,10.009-.147-.119.147.119c2.613,12.42,4.563,21.983,5.824,28.449.629,3.234,1.094,5.69,1.376,7.344s.394,2.5.394,2.5-.049-.208-.126-.625l-.346-1.861c-.328-1.656-.813-4.105-1.451-7.328-1.31-6.455-3.307-16.008-5.964-28.417l.146.119-.146-.12q-1.021-4.711-2.167-10c-.822-3.5-1.291-7.335-3.116-10.875-3.52-7.135-11-12.809-19.921-15.467l-.022-.006-.011,0-21.206-9.325-.105-.046-.029-.112c-.919-3.527-1.858-7.127-2.867-11l.346.161-29.768,14.1-.181.087-.136-.149-6.241-6.888.464-.089c-.907,2.454-1.823,4.93-2.778,7.515l-.045.12-.12.045L288.923,80.3l-.046.017h-.062l-4.164.029a19.927,19.927,0,0,0-4.156.357,28.992,28.992,0,0,0-7.968,2.781,25.451,25.451,0,0,0-6.814,5.183,22.63,22.63,0,0,0-4.442,7.461c-2.126,5.529-3.863,11.318-5.62,17.172q-2.607,8.8-5.059,17.9l-.3.227.285-.189q-1.912,4.588-3.851,9.239l-.248.593-.312-.562q-6.607-11.9-13.425-24.184l.413.131-22.279,10.8.167-.374c1.452,4.852,3.085,9.694,4.841,14.512,2.354,6.431,4.9,12.743,7.813,18.812,2.923,6.046,6.119,11.963,10.3,17.024a20.431,20.431,0,0,0,7.441,6.064,10.568,10.568,0,0,0,2.262.661,13.012,13.012,0,0,0,2.357-.027,30.473,30.473,0,0,0,4.72-.821,29.872,29.872,0,0,0,15.549-10.077l.518-.637.029.821q.489,14.056,1.061,27.58.33,6.75.651,13.344c.262,4.387.479,8.737.975,12.971l-.186-.233a62.136,62.136,0,0,0,12.491,2.122c4.177.379,8.321.453,12.412.524,8.179.133,16.13.1,23.822,0,15.382-.207,29.726-.65,42.8-1.206l-.207.158a26.87,26.87,0,0,0,1.583-11.117c-.394-3.654-.919-7.235-1.35-10.7q-1.351-10.4-2.536-19.511l-.056-.436.345.271a24.678,24.678,0,0,0,11.336,5.287,17.753,17.753,0,0,0,5.735-.032,11.289,11.289,0,0,0,4.827-2.221,17.913,17.913,0,0,0,5.24-7.939,36.715,36.715,0,0,0,1.826-7.837,55.325,55.325,0,0,0,.241-11.031c-.1-1.249-.208-2.194-.288-2.827s-.112-.957-.112-.957" transform="translate(46.719 14.2)" fill="#1a2e35"/>
          <path id="Trazado_259" data-name="Trazado 259" d="M313.013,146.065s6.366,7.276,10.134,11.99c3.1,3.88,8.787,7.991,13.452,11.913l.936,7.889c-3.744-.744-8.792-5.078-11.326-7.933a54.352,54.352,0,0,1-7.072-9.169c-3.413-6.1-8.1-11.964-9.3-18.852Z" transform="translate(68.813 31.516)" fill="#586861"/>
          <path id="Trazado_260" data-name="Trazado 260" d="M337.233,174.5a3.924,3.924,0,0,0-.632-.482c-.416-.31-1.071-.7-1.855-1.308a69.048,69.048,0,0,1-6.373-5.554,187.257,187.257,0,0,1-18.645-21.968l.039.334c1.33-3.22,2.718-6.581,4.141-10.027,1.724-4.2,3.4-8.271,4.963-12.077l-.538.13,29.193,24.695a2.555,2.555,0,0,0-.484-.565c-.346-.342-.865-.841-1.555-1.468-1.374-1.26-3.4-3.064-5.961-5.305-5.117-4.484-12.36-10.725-20.751-17.878l-.358-.3-.18.435c-1.569,3.8-3.25,7.872-4.982,12.068-1.418,3.449-2.8,6.811-4.125,10.033l-.074.181.112.153a173.4,173.4,0,0,0,18.895,21.886,60.2,60.2,0,0,0,6.542,5.427c.81.577,1.495.941,1.933,1.218a3.832,3.832,0,0,0,.7.375" transform="translate(68.639 27.257)" fill="#1a2e35"/>
          <path id="Trazado_261" data-name="Trazado 261" d="M254.147,95.011a2.881,2.881,0,0,0-.062.733c-.011.561-.024,1.256-.04,2.1-.026,1.827-.006,4.47.055,7.737.119,6.532.517,15.55,1.073,25.5s1.033,18.956,1.28,25.478c.115,3.185.21,5.8.28,7.725.037.847.067,1.541.092,2.1a2.924,2.924,0,0,0,.081.733,2.889,2.889,0,0,0,.062-.734c.011-.56.024-1.255.04-2.1.026-1.827.006-4.47-.055-7.736-.119-6.532-.517-15.551-1.073-25.5s-1.033-18.951-1.28-25.473c-.116-3.186-.21-5.8-.28-7.726-.037-.847-.067-1.542-.092-2.1a2.906,2.906,0,0,0-.081-.732" transform="translate(56.419 21.101)" fill="#1a2e35"/>
          <path id="Trazado_262" data-name="Trazado 262" d="M251.228,106.827,261.437,145.4a4.8,4.8,0,0,0,4.731,3.569l52.868-1.038a4.8,4.8,0,0,0,4.6-5.785L315.848,105.2a4.8,4.8,0,0,0-4.693-3.808H255.408a4.326,4.326,0,0,0-4.181,5.432" transform="translate(55.764 22.519)" fill="#1a2e35"/>
          <path id="Trazado_263" data-name="Trazado 263" d="M323.01,128.552l-2.511-2.346s-1.664-5.537-2.714-6.586-3.866-1.829-3.866-1.829l-6.312-5.8,1.15,5.172L299.6,117.1a2.6,2.6,0,0,0-2.492,1.6,1.035,1.035,0,0,0-.079.5,3.347,3.347,0,0,0,1.831,2.4l1.318.621a3.107,3.107,0,0,0-2.158,2.247,2.868,2.868,0,0,0,1.907,3.088s-2.25,1.007-.957,3.705c0,0-2.1,2.484-.884,4.166s8.159,4.5,8.159,4.5l3.851,1.749a6.516,6.516,0,0,0,2.888.163l1.5.21,1.606,1.331s9.19-5.018,6.921-14.823" transform="translate(65.966 24.873)" fill="#ffc09d"/>
          <path id="Trazado_264" data-name="Trazado 264" d="M312.72,122.8a6.955,6.955,0,0,1-2.081.02,39.027,39.027,0,0,1-9.81-1.981,6.878,6.878,0,0,1-1.91-.825c.054-.155,3.054.832,6.861,1.591,3.8.776,6.95,1.031,6.94,1.2" transform="translate(66.388 26.651)" fill="#ff9b6c"/>
          <path id="Trazado_265" data-name="Trazado 265" d="M315.129,128.976a60.688,60.688,0,0,1-7.938-1.858,60.65,60.65,0,0,1-7.8-2.389,60.483,60.483,0,0,1,7.939,1.858,60.666,60.666,0,0,1,7.794,2.389" transform="translate(66.494 27.698)" fill="#ff9b6c"/>
          <path id="Trazado_266" data-name="Trazado 266" d="M314.615,133.71a9.769,9.769,0,0,1-2.538-.329,40.789,40.789,0,0,1-11.55-4.282,9.7,9.7,0,0,1-2.139-1.405,14.971,14.971,0,0,1,2.318,1.061c1.411.683,3.384,1.577,5.624,2.409s4.319,1.437,5.834,1.839a14.93,14.93,0,0,1,2.45.708" transform="translate(66.27 28.358)" fill="#ff9b6c"/>
          <path id="Trazado_267" data-name="Trazado 267" d="M313.208,127.729c-.151-.054.144-1.077-.076-2.315-.194-1.244-.805-2.114-.679-2.214.092-.114.994.709,1.222,2.124a2.72,2.72,0,0,1-.467,2.405" transform="translate(69.39 27.36)" fill="#ff9b6c"/>
          <path id="Trazado_268" data-name="Trazado 268" d="M313.15,122.036c-.1-.116.371-.681.445-1.532.1-.849-.248-1.5-.123-1.591.056-.043.241.073.416.365a2.22,2.22,0,0,1-.257,2.485c-.23.251-.434.326-.48.274" transform="translate(69.545 26.408)" fill="#ff9b6c"/>
          <path id="Trazado_269" data-name="Trazado 269" d="M312.647,132.88c-.117-.105.242-.673.46-1.438s.235-1.432.391-1.458.4.714.136,1.613-.887,1.391-.986,1.283" transform="translate(69.432 28.868)" fill="#ff9b6c"/>
          <path id="Trazado_270" data-name="Trazado 270" d="M301.062,116.272c.01.2,2.412.227,5.356.44s5.328.515,5.366.315c.039-.183-2.321-.814-5.316-1.02s-5.419.078-5.406.265" transform="translate(66.864 25.748)" fill="#ff9b6c"/>
          <path id="Trazado_271" data-name="Trazado 271" d="M246.709,148.279a23.681,23.681,0,0,1-.714-3.306c-.407-2.041-1.049-4.843-1.98-7.874s-1.985-5.707-2.8-7.623a23.667,23.667,0,0,1-1.272-3.133,14.343,14.343,0,0,1,1.682,2.948,54.249,54.249,0,0,1,4.811,15.607,14.464,14.464,0,0,1,.27,3.382" transform="translate(53.289 28.06)" fill="#1a2e35"/>
          <path id="Trazado_272" data-name="Trazado 272" d="M275.585,74.154a10.962,10.962,0,0,0-5.378-1.37c-1.793,0-14.648,7.894-14.648,7.894L243.284,94.24l-3.709,9.674,7.791,4.237,11.225-23.915,11.565-6.987Z" transform="translate(53.208 16.165)" fill="#ffc09d"/>
          <path id="Trazado_273" data-name="Trazado 273" d="M249.436,97.136s-17.6,32.1-18.088,31.452-15.808-14.341-15.808-14.341-7.5-17.26-10.609-23.465c-2.349-4.689-10.373-7.532-10.373-7.532L199,140.157c-.747-1.553,24.524,15.623,30.148,17.926,5.365,2.2,11-2.933,15.106-5.535s22.132-42.864,22.132-42.864Z" transform="translate(43.21 18.489)" fill="#8e8c42"/>
          <path id="Trazado_274" data-name="Trazado 274" d="M224.456,136.17c-.155.037-.906-3.188-.791-7.243.093-4.057,1.006-7.24,1.16-7.194.187.039-.434,3.229-.524,7.21-.112,3.98.345,7.2.155,7.227" transform="translate(49.672 27.036)" fill="#1a2e35"/>
          <path id="Trazado_275" data-name="Trazado 275" d="M204.882,5.833c-5.2-1.751-10.791,2.785-16.139,1.579C185.5,6.68,183.1,4,180.244,2.3c-4.276-2.549-10.41-3.115-14.911-.987s-7.429,4.452-8.175,9.375c-3.973-2.432-10.855,2.461-13.289,7.3s-2,9.928-.847,15.222A71.486,71.486,0,0,0,154.13,58.7c.471.678,1.232,1.436,1.99,1.106a1.8,1.8,0,0,0,.818-1.427c.909-4.786.439-9.708.16-14.572s-.342-9.871,1.321-14.449,5.4-8.693,10.2-9.5c3.548-.6,7.181.656,10.267,2.505s5.777,4.282,8.706,6.372,6.235,3.873,9.824,4.131,7.491-1.327,9.114-4.539.037-7.884-3.461-8.729a7.3,7.3,0,0,0,6.565-6.136,7.3,7.3,0,0,0-4.754-7.625" transform="translate(31.559 0)" fill="#1a2e35"/>
          <path id="Trazado_276" data-name="Trazado 276" d="M198.179,61.948c.037-6.663-1-20.389-2.089-32.8A25.712,25.712,0,0,0,170.3,5.669l-1.331.009c-14.35.936-19.9,14.189-18.565,28.508l.139,47.691,27.6,23.14,4.979-9.735,1.6-17.377s13.377-2.157,13.454-15.957" transform="translate(33.362 1.259)" fill="#ffc09d"/>
          <path id="Trazado_277" data-name="Trazado 277" d="M181.8,65.671a32.614,32.614,0,0,1-18.416-4.919s4.343,9.652,18.1,8.318Z" transform="translate(36.286 13.493)" fill="#ff9b6c"/>
          <path id="Trazado_278" data-name="Trazado 278" d="M183.612,36.014a1.97,1.97,0,0,1-1.887,2,1.883,1.883,0,0,1-2.042-1.762,1.97,1.97,0,0,1,1.883-2,1.888,1.888,0,0,1,2.046,1.765" transform="translate(39.906 7.606)" fill="#1a2e35"/>
          <path id="Trazado_279" data-name="Trazado 279" d="M186.778,30.785c-.242.259-1.743-.836-3.863-.816-2.118-.011-3.667,1.091-3.9.833-.114-.115.132-.58.805-1.078a5.408,5.408,0,0,1,3.119-.985,5.192,5.192,0,0,1,3.077.97c.656.5.88.959.76,1.075" transform="translate(39.753 6.383)" fill="#1a2e35"/>
          <path id="Trazado_280" data-name="Trazado 280" d="M166.794,36.014a1.971,1.971,0,0,1-1.887,2,1.885,1.885,0,0,1-2.043-1.762,1.974,1.974,0,0,1,1.886-2,1.887,1.887,0,0,1,2.045,1.765" transform="translate(36.171 7.606)" fill="#1a2e35"/>
          <path id="Trazado_281" data-name="Trazado 281" d="M169.727,31.224c-.244.259-1.746-.836-3.865-.816-2.118-.01-3.666,1.091-3.9.833-.114-.115.13-.579.807-1.078a5.4,5.4,0,0,1,3.119-.985,5.2,5.2,0,0,1,3.077.97c.654.5.879.959.761,1.075" transform="translate(35.965 6.48)" fill="#1a2e35"/>
          <path id="Trazado_282" data-name="Trazado 282" d="M174.9,46.887a14.021,14.021,0,0,1,3.439-.645c.541-.059,1.053-.17,1.143-.54a2.76,2.76,0,0,0-.373-1.6q-.777-1.96-1.629-4.112c-2.263-5.855-3.906-10.671-3.67-10.761s2.265,4.585,4.527,10.44q.818,2.165,1.562,4.137a3.13,3.13,0,0,1,.3,2.123,1.359,1.359,0,0,1-.885.8,3.675,3.675,0,0,1-.919.134,13.86,13.86,0,0,1-3.49.028" transform="translate(38.596 6.491)" fill="#1a2e35"/>
          <path id="Trazado_283" data-name="Trazado 283" d="M170.18,22.245c-.205.578-2.324.319-4.809.635-2.493.266-4.494,1.009-4.827.494-.149-.247.2-.791,1-1.354a8.424,8.424,0,0,1,7.341-.86c.917.362,1.378.811,1.291,1.085" transform="translate(35.648 4.594)" fill="#1a2e35"/>
          <path id="Trazado_284" data-name="Trazado 284" d="M186,25.791c-.37.484-1.834-.006-3.59-.017-1.756-.073-3.241.345-3.587-.156-.153-.243.078-.727.726-1.188a5.2,5.2,0,0,1,5.783.141c.624.49.831.985.668,1.221" transform="translate(39.706 5.246)" fill="#1a2e35"/>
          <path id="Trazado_285" data-name="Trazado 285" d="M152.732,36.914c-.236-.1-10.592-2.656-10.227,6.775s9.758,7.12,9.765,6.849.462-13.624.462-13.624" transform="translate(31.648 8.112)" fill="#ffc09d"/>
          <path id="Trazado_286" data-name="Trazado 286" d="M148.814,46.5c-.043-.028-.16.121-.433.259a1.644,1.644,0,0,1-1.227.073c-1.011-.328-1.911-1.877-2.023-3.575a5.439,5.439,0,0,1,.369-2.371,1.9,1.9,0,0,1,1.187-1.309.837.837,0,0,1,.987.413c.137.259.084.45.134.464.027.022.2-.166.105-.554a1.047,1.047,0,0,0-.394-.576,1.239,1.239,0,0,0-.918-.205,2.308,2.308,0,0,0-1.66,1.529,5.569,5.569,0,0,0-.468,2.651c.134,1.9,1.176,3.638,2.554,3.98a1.766,1.766,0,0,0,1.493-.308c.282-.244.324-.457.291-.473" transform="translate(32.084 8.686)" fill="#ff9b6c"/>
          <path id="Trazado_287" data-name="Trazado 287" d="M196.814,16.682a18.008,18.008,0,0,0-5.838-6.635,30.746,30.746,0,0,0-17.869-6.253,25.035,25.035,0,0,0-17.51,6.753,26.412,26.412,0,0,0-7.17,13.384,46.81,46.81,0,0,0-.623,16.807c.413,2.216,1.668,3.009,3.236,4.628.98,1.011,2.654,1.671,3.765.8a3.744,3.744,0,0,0,1.083-2.184c1.767-7.291,3.5-15.131.792-22.125a21.663,21.663,0,0,1,6.456-6.016,11.209,11.209,0,0,1,8.563-1.229c4.215,1.266,6.831,5.339,10.208,8.164a19.928,19.928,0,0,0,17.73,3.868Z" transform="translate(32.714 0.842)" fill="#1a2e35"/>
          <path id="Trazado_288" data-name="Trazado 288" d="M142.308,25.777c.012-.1,1.012.012,2.607-.106a16.945,16.945,0,0,0,10.99-5.213c1.1-1.16,1.643-2.007,1.732-1.952a6.914,6.914,0,0,1-1.415,2.234,15.252,15.252,0,0,1-11.288,5.354,6.874,6.874,0,0,1-2.625-.317" transform="translate(31.606 4.109)" fill="#e1e1e1"/>
          <path id="Trazado_289" data-name="Trazado 289" d="M142.428,30.092c-.009-.1,1.077-.2,2.762-.628a21.4,21.4,0,0,0,6.176-2.7,21.384,21.384,0,0,0,5-4.524c1.083-1.359,1.617-2.31,1.706-2.26A8.255,8.255,0,0,1,156.7,22.5a18.588,18.588,0,0,1-11.42,7.38,8.246,8.246,0,0,1-2.855.215" transform="translate(31.632 4.437)" fill="#e1e1e1"/>
          <path id="Trazado_290" data-name="Trazado 290" d="M195.473,18.576a2.988,2.988,0,0,1-.523,1.583,7.6,7.6,0,0,1-6.693,3.952,2.984,2.984,0,0,1-1.638-.306,10.26,10.26,0,0,1,1.619-.117,8.48,8.48,0,0,0,6.35-3.751c.556-.814.8-1.393.885-1.361" transform="translate(41.447 4.125)" fill="#e1e1e1"/>
          <path id="Trazado_291" data-name="Trazado 291" d="M196.278,20.168a3.05,3.05,0,0,1-.525,1.513,8.81,8.81,0,0,1-6.165,4.369,3.041,3.041,0,0,1-1.6-.006c-.031-.183,2.459-.257,4.831-1.974,2.4-1.667,3.3-3.991,3.462-3.9" transform="translate(41.75 4.479)" fill="#e1e1e1"/>
          <path id="Trazado_292" data-name="Trazado 292" d="M169.831,45.771a36.345,36.345,0,0,1,5.827,2.813l1.974,1.132c-.886,1.073-1.867,2.885-3.067,3.342a4.2,4.2,0,0,1-4.088-.657,4.811,4.811,0,0,1-1.073-3.138,15.94,15.94,0,0,1,.428-3.492" transform="translate(37.623 10.165)" fill="#ff9b6c"/>
          <path id="Trazado_293" data-name="Trazado 293" d="M176.749,51.114c-.055-.029-.208.265-.585.689a3.534,3.534,0,0,1-2,1.15,4.438,4.438,0,0,1-3.283-.721,4.3,4.3,0,0,1-1.156-3.837,10.629,10.629,0,0,1,.64-2.516l-.44.167c2.276,1.156,4.269,2.14,5.7,2.817a11.4,11.4,0,0,0,2.34.981,11.381,11.381,0,0,0-2.155-1.341c-1.382-.776-3.339-1.832-5.6-3.017l-.31-.164-.128.331a10.737,10.737,0,0,0-.7,2.67,4.136,4.136,0,0,0,5.183,5.078,3.555,3.555,0,0,0,2.1-1.443,1.8,1.8,0,0,0,.386-.844" transform="translate(37.543 10.066)" fill="#1a2e35"/>
          <path id="Trazado_294" data-name="Trazado 294" d="M155.268,217.215a6.373,6.373,0,0,0,1.366.77,15.768,15.768,0,0,0,4.052,1.419,8.521,8.521,0,0,0,3.016.021,6.2,6.2,0,0,0,3.153-1.513,7.5,7.5,0,0,0,1.913-3.342c.385-1.272.606-2.595.876-3.938,1.044-5.392,1.751-10.314,2.163-13.887.207-1.787.343-3.235.418-4.238a6.78,6.78,0,0,0,.042-1.566,6.862,6.862,0,0,0-.31,1.535c-.171,1.137-.384,2.542-.635,4.2-.535,3.549-1.316,8.445-2.357,13.819-.528,2.657-.887,5.364-2.548,6.949a6.8,6.8,0,0,1-5.651,1.471,18.455,18.455,0,0,1-4.023-1.182,7.375,7.375,0,0,0-1.474-.523" transform="translate(34.484 42.407)" fill="#1a2e35"/>
          <path id="Trazado_295" data-name="Trazado 295" d="M164.035,191.748c.011-.031-.213-.17-.672-.2a2.931,2.931,0,0,0-1.832.588,3.271,3.271,0,0,0-1.379,2.528,3.244,3.244,0,0,0,5.525,2.073,3.269,3.269,0,0,0,.623-2.812,2.931,2.931,0,0,0-.992-1.647c-.367-.281-.626-.321-.638-.292a3.687,3.687,0,0,1,1.149,2.032,2.858,2.858,0,0,1-.621,2.3,2.653,2.653,0,0,1-4.408-1.654,2.865,2.865,0,0,1,1.042-2.14,3.689,3.689,0,0,1,2.2-.775" transform="translate(35.568 42.541)" fill="#1a2e35"/>
          <path id="Trazado_296" data-name="Trazado 296" d="M120.887,204.676a3.521,3.521,0,0,0,1.115.174,20.93,20.93,0,0,0,3.07.037,29.738,29.738,0,0,0,18.377-7.741,21.065,21.065,0,0,0,2.12-2.222c.456-.563.689-.887.654-.919-.093-.081-1.144,1.123-3.1,2.772a33,33,0,0,1-18.091,7.62c-2.546.246-4.142.156-4.148.28" transform="translate(26.848 43.086)" fill="#1a2e35"/>
          <path id="Trazado_297" data-name="Trazado 297" d="M185.994,192.2a14.767,14.767,0,0,0,1.513,3.338,37.057,37.057,0,0,0,5.057,7.042,34.026,34.026,0,0,0,6.412,5.479,11.817,11.817,0,0,0,3.014,1.6,31.654,31.654,0,0,0-2.785-2.02,43.024,43.024,0,0,1-6.211-5.558,46.025,46.025,0,0,1-5.122-6.814,35.612,35.612,0,0,0-1.878-3.069" transform="translate(41.307 42.687)" fill="#1a2e35"/>
          <path id="Trazado_298" data-name="Trazado 298" d="M149.3,66.127l2.5-4.329,22.111,21.069,3.44,6.234c.185-.284,3.32-6.724,3.32-6.724l4.749-7.034,1.792,2.439,12.426,133.362s-12.991,4.783-23.662,5.151-22.077,0-22.077,0S143.051,199.737,143.051,199s8.462-101.665,8.462-101.665Z" transform="translate(31.771 13.725)" fill="#f5f5f5"/>
          <path id="Trazado_299" data-name="Trazado 299" d="M170.485,99.592c-2.58-10.895-13.475-36.41-13.475-36.41L148.983,73.5S124.9,82.964,123.467,84.11s5.734,74.254,5.734,74.254l-5.923,20.641-19.947,72.4s31.468,9.767,43.223,7.474,13.323-16.8,15.33-24.255,9.747-61.639,11.181-84.288,0-39.85-2.58-50.745" transform="translate(22.949 14.032)" fill="#8e8c42"/>
          <path id="Trazado_300" data-name="Trazado 300" d="M164.353,153.983a5.628,5.628,0,0,1-.358-.9q-.341-.981-.908-2.616c-.785-2.345-1.882-5.629-3.229-9.662-2.686-8.232-6.362-19.5-10.423-31.948-1.4-4.334-2.746-8.524-4.021-12.48l-.053-.165.114-.131q2.625-2.983,5.031-5.721l.216.475-7.741-.032h-.227l-.026-.224c-.648-5.726-1.182-10.442-1.562-13.8-.165-1.6-.3-2.872-.392-3.809-.033-.4-.061-.728-.083-1a1.182,1.182,0,0,1,0-.345,1.19,1.19,0,0,1,.079.336c.043.268.094.593.158.99.13.932.307,2.2.529,3.792.433,3.351,1.041,8.058,1.779,13.773l-.252-.224,7.741-.032.631,0-.415.478-5,5.746.061-.3c1.281,3.953,2.638,8.142,4.043,12.473,3.993,12.47,7.606,23.759,10.246,32.005,1.267,4.059,2.3,7.364,3.036,9.724q.5,1.659.8,2.653a5.529,5.529,0,0,1,.236.939" transform="translate(31.244 15.908)" fill="#1a2e35"/>
          <path id="Trazado_301" data-name="Trazado 301" d="M179.468,74.146c.326.651,3.8,6.271,3.8,6.271s15.965,3.423,19.47,7.985,5.084,16.124,5.084,16.124l-4.606,53.451-2.487,37.49s3.055,42.369,3.471,49.214-.837,14.666-3.471,14.34-3.936.978-5.24-6.355-10.609-68.625-10.609-68.625l-3.731-53.269-3.422-41.555Z" transform="translate(39.472 16.467)" fill="#8e8c42"/>
          <path id="Trazado_302" data-name="Trazado 302" d="M185.695,155.249a3.752,3.752,0,0,1,.04-.8c.061-.587.141-1.342.238-2.277.243-2.052.58-4.887.994-8.358.908-7.117,2.147-16.821,3.516-27.541.633-4.78,1.24-9.355,1.8-13.57l.108.27c-2.056-1.682-4-3.273-5.8-4.749l-.2-.167.161-.2c.763-.968,1.484-1.884,2.17-2.758l-.026.262-4.662-9.565c-.515-1.093-.929-1.969-1.244-2.636a5.534,5.534,0,0,1-.391-.945,5.382,5.382,0,0,1,.521.88c.346.653.8,1.509,1.363,2.577,1.189,2.318,2.843,5.542,4.855,9.469l.071.137-.1.125-2.137,2.783-.043-.372,5.84,4.7.128.105-.021.166c-.546,4.216-1.14,8.793-1.76,13.575-1.441,10.71-2.745,20.405-3.7,27.517-.5,3.46-.9,6.286-1.194,8.331-.147.929-.265,1.679-.357,2.262a3.811,3.811,0,0,1-.167.782" transform="translate(40.508 18.259)" fill="#1a2e35"/>
          <path id="Trazado_303" data-name="Trazado 303" d="M119.653,176.064a6.6,6.6,0,0,1-.188.826c-.153.579-.348,1.326-.592,2.252-.266.987-.584,2.159-.947,3.507q-.282,1.021-.6,2.17a4.841,4.841,0,0,0-.359,2.361,2.237,2.237,0,0,0,1.81,1.623l2.92.864c2.02.59,4.182,1.207,6.465,1.827s4.685,1.245,7.191,1.811c1.253.281,2.532.547,3.835.756.65.1,1.309.188,1.965.23a6.717,6.717,0,0,0,.967,0,2.322,2.322,0,0,0,.438-.071.621.621,0,0,0,.314-.205,6.4,6.4,0,0,0,1.341-2.8,27.257,27.257,0,0,0,.661-3.142c.335-2.091.525-4.15.643-6.107l.235.308-18.676-4.371-5.433-1.315-1.465-.37a3.446,3.446,0,0,1-.524-.158,2.065,2.065,0,0,1,.473.068l1.424.282,5.405,1.138,18.93,4.138.248.055-.015.253a61.256,61.256,0,0,1-.624,6.178,27.754,27.754,0,0,1-.67,3.214,6.793,6.793,0,0,1-1.541,3.114,1.172,1.172,0,0,1-.54.328,2.782,2.782,0,0,1-.566.1,7.152,7.152,0,0,1-1.061,0c-.69-.044-1.363-.136-2.026-.238-1.325-.215-2.614-.488-3.874-.774-2.519-.578-4.924-1.22-7.208-1.854s-4.444-1.275-6.46-1.887l-2.913-.9a3.063,3.063,0,0,1-1.358-.7,2.574,2.574,0,0,1-.745-1.287,2.623,2.623,0,0,1,.056-1.408q.187-.618.363-1.207.354-1.168.67-2.207.623-2.02,1.083-3.5c.284-.9.513-1.618.69-2.178a4.354,4.354,0,0,1,.259-.72" transform="translate(25.865 39.102)" fill="#1a2e35"/>
          <path id="Trazado_304" data-name="Trazado 304" d="M202.027,95.774a12.624,12.624,0,0,1,.16,2.051c.071,1.322.1,3.237.092,5.6-.017,4.736-.378,11.273-1.058,18.457s-1.355,13.679-1.73,18.389c-.176,2.273-.321,4.154-.431,5.579a12.7,12.7,0,0,1-.219,2.045,12.72,12.72,0,0,1-.028-2.057c.016-1.324.1-3.236.23-5.6.26-4.725.864-11.236,1.545-18.416s1.11-13.686,1.243-18.407c.066-2.36.105-4.271.11-5.592a12.663,12.663,0,0,1,.088-2.054" transform="translate(44.152 21.271)" fill="#1a2e35"/>
          <g id="Grupo_61" data-name="Grupo 61" transform="translate(148.517 189.842)" opacity="0.3">
            <g id="Grupo_60" data-name="Grupo 60">
              <g id="Grupo_59" data-name="Grupo 59" clip-path="url(#clip-path-5)">
                <path id="Trazado_305" data-name="Trazado 305" d="M188.174,162.138a221.056,221.056,0,0,1-36.33-3l-30.29-3.8A18.593,18.593,0,0,0,137.693,174.8c4.9.646,9.819-.675,14.69-1.545,8.335-1.49,16.839-1.667,25.295-2.131,2.763-.153,5.657-.378,7.989-1.867s3.821-4.679,2.508-7.115" transform="translate(-121.527 -155.342)"/>
              </g>
            </g>
          </g>
          <path id="Trazado_306" data-name="Trazado 306" d="M121.74,80.307s-8.6,5.447-10.321,14.048,4.155,53.14,6.449,63.047c3.367,14.539,10.833,26.989,17.86,27.849s52.29-3.43,52.29-3.43l3.8-24.574-42.756-3.264-2-2.647L142.1,111.27" transform="translate(24.677 17.836)" fill="#8e8c42"/>
          <path id="Trazado_307" data-name="Trazado 307" d="M142.124,111.27s.051.233.119.7c.067.486.163,1.167.286,2.053.241,1.832.59,4.5,1.041,7.925.882,6.922,2.157,16.927,3.741,29.363l-.044-.106,2.009,2.642-.166-.09,42.761,3.2.317.023-.049.315c-1.2,7.8-2.47,16.045-3.784,24.576l-.037.24-.242.023c-9.136.857-18.616,1.679-28.337,2.416-4.817.357-9.581.683-14.283.917-2.353.109-4.686.22-7.016.2-.579.007-1.162,0-1.75-.046l-.877-.054c-.293-.034-.587-.12-.879-.18a9.833,9.833,0,0,1-3.207-1.453,20.9,20.9,0,0,1-4.825-4.847,39.9,39.9,0,0,1-3.525-5.674,64.209,64.209,0,0,1-4.725-11.992,92.741,92.741,0,0,1-2.505-11.995q-.929-5.879-1.663-11.419c-.986-7.38-1.781-14.269-2.388-20.572s-1.034-12.018-1.112-17.056a26.407,26.407,0,0,1,.555-7A18.864,18.864,0,0,1,113.986,88a26.97,26.97,0,0,1,5.476-6.032c.722-.593,1.3-1.012,1.694-1.281a5.978,5.978,0,0,1,.613-.383l-.576.436c-.383.284-.943.719-1.649,1.325a27.733,27.733,0,0,0-5.35,6.068,18.725,18.725,0,0,0-2.361,5.319,26.257,26.257,0,0,0-.493,6.921c.111,5.017.579,10.724,1.2,17.016s1.455,13.174,2.464,20.545q.75,5.527,1.693,11.4a92.472,92.472,0,0,0,2.516,11.92,63.741,63.741,0,0,0,4.7,11.874,39.36,39.36,0,0,0,3.478,5.586,20.322,20.322,0,0,0,4.682,4.7,9.229,9.229,0,0,0,3,1.36c.269.054.532.134.808.167l.848.049c.562.045,1.134.053,1.712.044,2.3.015,4.635-.1,6.981-.208,4.692-.235,9.452-.561,14.266-.919,9.714-.734,19.193-1.553,28.326-2.4l-.279.263c1.326-8.529,2.607-16.772,3.818-24.571l.269.339-42.751-3.328-.1-.009-.062-.082-2-2.652-.035-.049-.007-.059c-1.5-12.446-2.707-22.461-3.542-29.389-.4-3.435-.71-6.1-.924-7.939-.1-.89-.171-1.573-.224-2.06-.046-.464-.055-.7-.055-.7" transform="translate(24.647 17.836)" fill="#1a2e35"/>
          <path id="Trazado_308" data-name="Trazado 308" d="M139.588,101.729c-.122,0-.034-1.676-.654-4.259A18.628,18.628,0,0,0,125.12,83.563c-2.579-.637-4.259-.561-4.254-.683a3.713,3.713,0,0,1,1.17-.1,15.853,15.853,0,0,1,3.185.342,18.087,18.087,0,0,1,14.153,14.248,15.859,15.859,0,0,1,.321,3.187,3.691,3.691,0,0,1-.106,1.17" transform="translate(26.844 18.385)" fill="#1a2e35"/>
          <path id="Trazado_309" data-name="Trazado 309" d="M249.3,105.733s4.351-3.566,5.209-8,2.327-9.491,2.327-9.491,5.3-3.006,5.154-5.154-2.862-2.863-2.862-2.863a39.208,39.208,0,0,0-7.3,5.441c-2.576,2.719-9.091,15.1-9.091,15.1Z" transform="translate(53.909 17.817)" fill="#ffc09d"/>
          <path id="Trazado_310" data-name="Trazado 310" d="M187.591,148.654h8.849s24.194,12.863,25.019,14.434c1.206,2.3.893,3.754-1.636,3.368-1.426-.218-12.894-5.774-12.894-5.774l-.288.963s5.774,5.369,5.774,7.015-1.445,4.533-3.946,3.57c0,0-1.25,3.657-2.695,4.235a4.937,4.937,0,0,1-3.078,0s-.962,2.213-2.791,2.213a6.807,6.807,0,0,1-3.657-1.54l-9.718-9.526-12.744-.191,3.014-19.651Z" transform="translate(38.597 32.819)" fill="#ffc09d"/>
          <path id="Trazado_311" data-name="Trazado 311" d="M195.673,168.394c.149-.094.719.543,1.273,1.421s.885,1.668.736,1.761-.719-.543-1.273-1.421-.885-1.667-.736-1.761" transform="translate(43.45 37.397)" fill="#ff9b6c"/>
          <path id="Trazado_312" data-name="Trazado 312" d="M199.44,164.913c.142-.109.915.67,1.834,1.645s1.643,1.8,1.525,1.933-1.049-.494-1.99-1.5-1.508-1.976-1.37-2.08" transform="translate(44.29 36.624)" fill="#ff9b6c"/>
          <path id="Trazado_313" data-name="Trazado 313" d="M94.368,36.867a21.227,21.227,0,0,1,7.885,17.989c-.257,3.3-1.167,7.07.981,9.59,2.125,2.5,6.3,2.423,8.338,4.991,2.4,3.022.39,7.521,1.249,11.282a7.64,7.64,0,0,0,8.124,5.677,29.8,29.8,0,0,1-14.781,6.414L102.029,87.5c1.568,1.859,1.151,4.821-.368,6.72a12.481,12.481,0,0,1-6.179,3.67A37.827,37.827,0,0,1,62.328,92.5" transform="translate(13.843 8.188)" fill="#1a2e35"/>
          <path id="Trazado_314" data-name="Trazado 314" d="M37.84,69.362c.827-2.531,2.214-4.877,2.772-7.482,1.2-5.6-1.53-11.9,1.184-16.935,1.932-3.586,6.051-5.342,9.944-6.541s8.071-2.216,10.974-5.073c2.129-2.1,3.34-4.982,5.463-7.086,3.025-3,7.489-4.012,11.738-4.272a25.5,25.5,0,0,1,12.8,2.078c3.924,1.926,7.183,5.542,7.884,9.857.341,2.1.082,4.31.745,6.337.73,2.228,2.48,3.961,3.559,6.042a11.213,11.213,0,0,1-2.8,13.441l-29.96,38.7c-6.294,2.377-21.543-.5-26.408-5.146S35.752,75.757,37.84,69.362" transform="translate(8.298 4.864)" fill="#1a2e35"/>
          <path id="Trazado_315" data-name="Trazado 315" d="M98.381,52.053c-1.237-8.786-7.918-19.17-16.644-17.563L54.8,43.545a5.192,5.192,0,0,0-4.227,5.606l7.936,63.593c-.043.013-1.985,1.639-3.284,1.141a.364.364,0,0,0-.434.546c3.234,4.7,18.5,25.231,34.242,18.962,3.516-1.4-.368-12.478.044-16.583l-.468-10.484c-.348-5.353-.516-7.545-.51-7.5,0,0,11.136-2.739,12.341-17.636.6-7.407-.689-19.379-2.06-29.141" transform="translate(11.227 7.623)" fill="#ffc09d"/>
          <path id="Trazado_316" data-name="Trazado 316" d="M88.836,60.181a1.9,1.9,0,0,1-1.673,2.045,1.811,1.811,0,0,1-2.076-1.552,1.893,1.893,0,0,1,1.671-2.046,1.813,1.813,0,0,1,2.079,1.553" transform="translate(18.895 13.017)" fill="#1a2e35"/>
          <path id="Trazado_317" data-name="Trazado 317" d="M73.827,61.122a1.9,1.9,0,0,1-1.674,2.045,1.809,1.809,0,0,1-2.075-1.552,1.891,1.891,0,0,1,1.669-2.046,1.814,1.814,0,0,1,2.08,1.553" transform="translate(15.561 13.226)" fill="#1a2e35"/>
          <path id="Trazado_318" data-name="Trazado 318" d="M90.178,55.163c-.205.346-1.961-.765-4.16-.445-2.2.284-3.609,1.828-3.9,1.55-.139-.122.032-.717.64-1.413a5.082,5.082,0,0,1,3.06-1.623,5.028,5.028,0,0,1,3.371.741c.771.506,1.088,1.034.985,1.19" transform="translate(18.229 11.813)" fill="#1a2e35"/>
          <path id="Trazado_319" data-name="Trazado 319" d="M74.132,56.557c-.259.318-1.987-.936-4.352-.835-2.365.064-4.041,1.437-4.312,1.137-.132-.132.116-.7.848-1.317a5.736,5.736,0,0,1,3.434-1.291A5.58,5.58,0,0,1,73.232,55.3c.753.57,1.027,1.115.9,1.258" transform="translate(14.533 12.048)" fill="#1a2e35"/>
          <path id="Trazado_320" data-name="Trazado 320" d="M79.024,70.592a13.466,13.466,0,0,1,3.253-.849c.514-.093,1-.233,1.057-.594a2.644,2.644,0,0,0-.463-1.511l-1.838-3.831c-2.562-5.459-4.458-9.964-4.238-10.065s2.477,4.241,5.039,9.7c.618,1.348,1.211,2.631,1.774,3.861a3,3,0,0,1,.425,2.014,1.306,1.306,0,0,1-.794.824,3.547,3.547,0,0,1-.871.191,13.261,13.261,0,0,1-3.344.262" transform="translate(17.052 11.935)" fill="#1a2e35"/>
          <path id="Trazado_321" data-name="Trazado 321" d="M84.931,87.787a37.546,37.546,0,0,1-20.113-3.743s5.748,9.948,20.371,7.439Z" transform="translate(14.396 18.666)" fill="#ff9b6c"/>
          <path id="Trazado_322" data-name="Trazado 322" d="M73.639,72.651a3.2,3.2,0,0,1,1.042-1.239,2.564,2.564,0,0,1,1.757-.177,4.1,4.1,0,0,1,2.3,1.171,2.467,2.467,0,0,1,.58,2.431c-.227.851-1.495,1.315-2.361,1.468a3.883,3.883,0,0,1-2.531-.533,2.232,2.232,0,0,1-1.3-1.677,2.726,2.726,0,0,1,.506-1.443" transform="translate(16.242 15.805)" fill="#ff9b6c"/>
          <path id="Trazado_323" data-name="Trazado 323" d="M73.934,70.04c.329-.044.5,2.159,2.51,3.58s4.335,1,4.376,1.3c.042.136-.491.468-1.481.572a5.513,5.513,0,0,1-3.643-.964,4.793,4.793,0,0,1-1.963-3.012c-.155-.914.049-1.48.2-1.479" transform="translate(16.363 15.555)" fill="#1a2e35"/>
          <path id="Trazado_324" data-name="Trazado 324" d="M74.077,49.86c-.158.567-2.206.462-4.566.932-2.371.423-4.238,1.267-4.593.8-.159-.226.136-.771.871-1.366a8.1,8.1,0,0,1,6.978-1.317c.9.286,1.375.686,1.309.954" transform="translate(14.409 10.797)" fill="#1a2e35"/>
          <path id="Trazado_325" data-name="Trazado 325" d="M89.124,49.051c-.373.493-2.009.137-3.933.262-1.928.067-3.528.584-3.94.13-.182-.221.039-.7.717-1.2a6.047,6.047,0,0,1,3.137-1,5.958,5.958,0,0,1,3.206.687c.716.422.975.879.813,1.118" transform="translate(18.032 10.491)" fill="#1a2e35"/>
          <path id="Trazado_326" data-name="Trazado 326" d="M49.384,45.784c1.359-2.092,3.8-3.168,6.128-4.066a135.63,135.63,0,0,1,31.2-7.945c1.33,2.189.1,5.168-1.9,6.763s-4.579,2.223-6.978,3.12-4.858,2.279-5.845,4.642c-1.051,2.513-.164,5.488-1.088,8.05-1.587,4.409-7.74,5.831-9.3,10.248-1.182,3.341.753,6.9,1.237,10.409A12.665,12.665,0,0,1,50.391,91.422Q49.3,72.445,48.2,53.471c-.152-2.635-.253-5.474,1.184-7.687" transform="translate(10.687 7.501)" fill="#1a2e35"/>
          <path id="Trazado_327" data-name="Trazado 327" d="M28.808,75.966c2-1.79,4.5-3.34,5.3-5.9,1.16-3.731-1.837-8.116.093-11.515,1.76-3.1,6.946-2.943,8.583-6.109,1.277-2.472-.189-4.661.3-6.833s3.569-4.077,5.778-3.817L66.132,66.83c1.6,8.4,3.219,12.87,1.415,17.784-.989,2.695-2.278,5.322-2.665,8.167s.339,6.068,2.664,7.751c-10.329.809-20.009-4.6-28.955-9.824l-9.468-5.532a6.908,6.908,0,0,1-2.6-2.167c-1.388-2.3.287-5.251,2.285-7.042" transform="translate(5.777 9.276)" fill="#1a2e35"/>
          <path id="Trazado_328" data-name="Trazado 328" d="M36.094,91.585a4.913,4.913,0,0,0,1.1.211,9.394,9.394,0,0,0,3.218-.227A9.97,9.97,0,0,0,44.9,89.153a9.793,9.793,0,0,0,2.954-6.038,10.115,10.115,0,0,0-.337-3.961,16.145,16.145,0,0,0-1.919-3.84,15.2,15.2,0,0,1-1.979-3.983,5.131,5.131,0,0,1,.554-4.38c.939-1.259,2.685-1.567,4.3-2.219a4.733,4.733,0,0,0,2.2-1.631,4.619,4.619,0,0,0,.71-2.708c-.022-1.892-.827-3.621-1.174-5.381a5.867,5.867,0,0,1-.016-2.639,3.681,3.681,0,0,1,1.49-2.095c1.492-1.064,3.395-1.236,5.226-1.4a11.2,11.2,0,0,0,5.323-1.565,10.032,10.032,0,0,0,3.644-3.95,16.528,16.528,0,0,0,1.344-4.951,23.173,23.173,0,0,1,1.013-4.644,10.312,10.312,0,0,1,2.43-3.661,11.6,11.6,0,0,1,13.543-1.9,14.168,14.168,0,0,1,3.979,3.03,18.735,18.735,0,0,1,2.459,3.525.982.982,0,0,0-.1-.268c-.081-.171-.178-.436-.358-.758a13.552,13.552,0,0,0-1.829-2.656,14.066,14.066,0,0,0-4-3.173,12.115,12.115,0,0,0-6.586-1.458,12.306,12.306,0,0,0-7.458,3.3,10.8,10.8,0,0,0-2.579,3.835,23.39,23.39,0,0,0-1.066,4.745,16.083,16.083,0,0,1-1.31,4.776,9.463,9.463,0,0,1-3.441,3.709,10.622,10.622,0,0,1-5.069,1.471c-1.812.163-3.848.317-5.519,1.5a4.293,4.293,0,0,0-1.722,2.431,6.454,6.454,0,0,0,.01,2.909c.38,1.864,1.157,3.537,1.173,5.276a4.057,4.057,0,0,1-.6,2.37A4.167,4.167,0,0,1,48.259,64.2c-.772.326-1.6.55-2.4.89a4.894,4.894,0,0,0-2.124,1.526,5.652,5.652,0,0,0-.623,4.85,15.57,15.57,0,0,0,2.068,4.111,15.849,15.849,0,0,1,1.9,3.71,9.694,9.694,0,0,1,.359,3.781,9.487,9.487,0,0,1-2.764,5.842,9.871,9.871,0,0,1-4.313,2.431,11.177,11.177,0,0,1-4.263.243" transform="translate(8.016 5.868)" fill="#375a64"/>
          <path id="Trazado_329" data-name="Trazado 329" d="M24.894,73.784a2.191,2.191,0,0,0-.341.844A3.706,3.706,0,0,0,25,77.19a3.928,3.928,0,0,0,1.322,1.39,4.1,4.1,0,0,0,2.206.588,5.16,5.16,0,0,0,4.524-2.873,6.911,6.911,0,0,0,.737-3.149,9.65,9.65,0,0,0-.727-3.413c-.82-2.235-2.307-4.413-2.339-7.026a4.772,4.772,0,0,1,1.2-3.551,5.22,5.22,0,0,1,3.755-1.172,12.679,12.679,0,0,0,4.473-.463,3.89,3.89,0,0,0,1.838-1.55,5.518,5.518,0,0,0,.755-2.279,18.271,18.271,0,0,0-.373-4.593,10.089,10.089,0,0,1,.238-4.255,10.75,10.75,0,0,1,4.808-6.31c2.239-1.35,4.83-1.5,7.164-1.635a21.128,21.128,0,0,0,6.538-1.031A13.889,13.889,0,0,0,68.278,29.7a9.8,9.8,0,0,0,1.229-3.279,18.924,18.924,0,0,1-1.432,3.162,13.757,13.757,0,0,1-2.562,3.126,13.46,13.46,0,0,1-4.545,2.758,21,21,0,0,1-6.42.932c-2.333.122-5.02.236-7.417,1.656a11.271,11.271,0,0,0-5.095,6.629,10.674,10.674,0,0,0-.265,4.494,17.962,17.962,0,0,1,.369,4.442,3.85,3.85,0,0,1-2.225,3.346,12.381,12.381,0,0,1-4.257.428,5.76,5.76,0,0,0-4.147,1.354,5.313,5.313,0,0,0-1.348,3.972,10.137,10.137,0,0,0,.946,3.848c.5,1.171,1.058,2.257,1.482,3.344a9.193,9.193,0,0,1,.728,3.237A6.5,6.5,0,0,1,32.67,76.1a4.8,4.8,0,0,1-4.151,2.73,3.834,3.834,0,0,1-2.052-.5A3.723,3.723,0,0,1,25.2,77.071a3.685,3.685,0,0,1-.527-2.422,8.8,8.8,0,0,1,.221-.865" transform="translate(5.437 5.868)" fill="#1a2e35"/>
          <path id="Trazado_330" data-name="Trazado 330" d="M119.492,77.739a4.085,4.085,0,0,1-.034,2.7,3.557,3.557,0,0,1-2.147,2.178,3.731,3.731,0,0,1-3.791-1.036,3.436,3.436,0,0,1-.888-2.163,7.128,7.128,0,0,1,.4-2.614c.549-1.75,1.667-3.653,1.5-5.932a8.333,8.333,0,0,0-3.142-5.97,9.746,9.746,0,0,0-3.219-1.7,14.322,14.322,0,0,0-3.68-.529,19.24,19.24,0,0,1-3.571-.374,4.745,4.745,0,0,1-2.78-1.727,5.836,5.836,0,0,1-1-3.056,11.648,11.648,0,0,1,.268-3.186,24.158,24.158,0,0,0,.926-6.044,9.156,9.156,0,0,0-1.845-5.018,11.8,11.8,0,0,0-3.367-2.844,22.345,22.345,0,0,1-2.691-1.86,6.917,6.917,0,0,1-1.693-2.174c-.01,0,0,.065.044.181a2.949,2.949,0,0,0,.207.506,5.515,5.515,0,0,0,1.286,1.662,20.64,20.64,0,0,0,2.664,1.968,11.684,11.684,0,0,1,3.209,2.816,8.79,8.79,0,0,1,1.688,4.787,24.24,24.24,0,0,1-.972,5.91,12.132,12.132,0,0,0-.3,3.336,6.4,6.4,0,0,0,1.1,3.366,5.337,5.337,0,0,0,3.111,1.96,19.566,19.566,0,0,0,3.686.394,13.839,13.839,0,0,1,3.533.5,9.226,9.226,0,0,1,3.026,1.583,7.8,7.8,0,0,1,2.957,5.545c.183,2.085-.853,3.911-1.419,5.748a7.568,7.568,0,0,0-.383,2.8,3.866,3.866,0,0,0,1.042,2.42,4.081,4.081,0,0,0,4.21,1.062,3.941,3.941,0,0,0,2.359-4.521,2.171,2.171,0,0,0-.287-.676" transform="translate(19.705 8.083)" fill="#1a2e35"/>
          <path id="Trazado_331" data-name="Trazado 331" d="M127.092,84.85l-4.044,14.922-1.584,2.562s-1,8.216-.985,9.96,2.839,10.682,2.839,10.682l-4.535,8.4,14.3,4.48s3.318-7.619,4.318-8.52,1.608-3.341,1.755-4.974,1.634-11.348,1.634-11.348,5.525-10.967,2.907-11.34a8.946,8.946,0,0,0-1.938.159s-3.29,7.193-4.277,7.4l-1.463-.732s2.24-10.825,2.265-12.825-.477-3.377-2.025-3.511c0,0-1.121.538-1.194,1.05s-2.228,12.569-2.9,12.386-.427-1.28-.427-1.28,2.959-14.642,2.727-15.458a2.271,2.271,0,0,0-2.438-1.828l-2.461,8.1s.962-6.742-.185-7.863a1.877,1.877,0,0,0-2.291-.414" transform="translate(26.381 18.796)" fill="#ffc09d"/>
          <path id="Trazado_332" data-name="Trazado 332" d="M131.385,115.223c-.119.009-.116-1.24-.71-3.2a12.5,12.5,0,0,0-4.76-6.449l-.2-.137.037-.222c.177-1.073.362-2.2.551-3.356l.012-.071.042-.067c.222-.356.449-.776.656-1.194a12.945,12.945,0,0,0,1.344-4.313,4.623,4.623,0,0,0-.152-1.969,1.415,1.415,0,0,0-1.128-1.012l.231-.1c-1.57,1.7-2.887,3.1-3.824,4.07a9.166,9.166,0,0,1-1.541,1.449,9.141,9.141,0,0,1,1.273-1.69c.857-1.036,2.107-2.5,3.628-4.244l.1-.109.137,0a2.025,2.025,0,0,1,1.754,1.4,5.172,5.172,0,0,1,.229,2.272,13.181,13.181,0,0,1-1.387,4.574c-.221.442-.447.863-.7,1.265l.054-.137c-.2,1.156-.395,2.279-.579,3.351l-.164-.358a12.285,12.285,0,0,1,4.816,6.927,10.653,10.653,0,0,1,.343,2.436,2.489,2.489,0,0,1-.057.882" transform="translate(27.082 20.568)" fill="#ff9b6c"/>
          <path id="Trazado_333" data-name="Trazado 333" d="M129.055,101.449c.05-.186,2.213.3,4.558,1.655s3.862,2.965,3.727,3.1c-.143.16-1.821-1.168-4.094-2.464s-4.258-2.089-4.192-2.293" transform="translate(28.662 22.523)" fill="#ff9b6c"/>
          <path id="Trazado_334" data-name="Trazado 334" d="M100.7,114.522a4.545,4.545,0,0,1,.12.94c.051.693.117,1.591.2,2.7.18,2.35.3,5.757.385,9.969.156,8.425-.237,20.067-1.079,32.884s-1.566,24.42-1.727,32.83c-.094,4.2-.126,7.609-.1,9.96,0,1.116,0,2.015,0,2.711a4.725,4.725,0,0,1-.05.947,4.529,4.529,0,0,1-.1-.942c-.034-.7-.079-1.594-.134-2.709-.119-2.353-.166-5.762-.138-9.973.028-8.428.673-20.052,1.513-32.869s1.316-24.422,1.293-32.834c-.015-4.2-.06-7.608-.152-9.959-.027-1.116-.048-2.015-.064-2.709a4.571,4.571,0,0,1,.028-.948" transform="translate(21.782 25.435)" fill="#1a2e35"/>
          <path id="Trazado_335" data-name="Trazado 335" d="M123.267,123.938l-5.393,19.91-10.4-35.713a12.642,12.642,0,0,0-8.216-8.376l-8.382-1.9,9.273,71.439,2.078,5.36a14.286,14.286,0,0,0,7.278,7.284c8.685,3.93,19.648-.418,21.939-9.672l12-42.781Z" transform="translate(20.182 21.734)" fill="#375a64"/>
          <path id="Trazado_336" data-name="Trazado 336" d="M45.216,121.92l6.494,81.29,53.238.444,5.012,5.1-1.424-65.359L90.083,96.842c-2.195,4.164-6.4,5.575-11.471,5.187-3.455-.265-9.746-.907-12.558-2.931L58.809,92.29Z" transform="translate(10.042 20.497)" fill="#fff"/>
          <path id="Trazado_337" data-name="Trazado 337" d="M63.558,89.137,57.95,95.769,29.942,106.833l17.206,83.2-13.1,32.2a80.784,80.784,0,0,0-3.432,10.413l-8.072,31.584s32.544,13.007,39.7,8.879S77.1,225.189,79.747,215.653s2.909-39.7,1.055-54.8-5.033-37.351-6.623-45.032S63.558,89.137,63.558,89.137" transform="translate(5.006 19.797)" fill="#375a64"/>
          <path id="Trazado_338" data-name="Trazado 338" d="M81.961,91.111l4.046,6.272,16.878,4.266s4.441,22.234,4.441,28.326-2.513,73.63-2.513,76.809S117,253.14,115.941,255.789s-13.775,4.5-13.775,4.5S97.4,222.942,97.4,210.227s-.529-43.972-3.177-59.336S82.033,97.382,82.033,97.382Z" transform="translate(18.203 20.235)" fill="#375a64"/>
          <path id="Trazado_339" data-name="Trazado 339" d="M96.948,216.187a1.158,1.158,0,0,1-.024-.317c0-.249,0-.555,0-.929q.02-1.307.051-3.567c.071-3.157.172-7.622.3-13.116.259-11.073.706-26.373.981-43.266.02-2.112.049-4.2.031-6.252.012-2.035-.215-4.05-.367-6.041-.319-3.973-.635-7.8-1.007-11.441s-.786-7.091-1.332-10.289a43.752,43.752,0,0,0-2.47-8.645,112.069,112.069,0,0,0-5.55-11.849l-1.7-3.131c-.18-.328-.325-.6-.445-.814a1.148,1.148,0,0,1-.134-.288,1.093,1.093,0,0,1,.193.253l.5.781c.431.692,1.056,1.722,1.818,3.072a100.508,100.508,0,0,1,5.765,11.8,43.625,43.625,0,0,1,2.577,8.721c.574,3.219,1.012,6.679,1.4,10.324s.719,7.478,1.047,11.45c.156,1.981.387,4,.38,6.088.021,2.064-.007,4.154-.028,6.268-.275,16.905-.8,32.2-1.181,43.272-.214,5.491-.389,9.954-.512,13.109q-.114,2.255-.178,3.564c-.026.373-.046.677-.064.925a1.1,1.1,0,0,1-.045.315" transform="translate(18.938 21.375)" fill="#1a2e35"/>
          <path id="Trazado_340" data-name="Trazado 340" d="M73.131,190.81a5.1,5.1,0,0,1-.149-.994c-.07-.654-.153-1.619-.233-2.865-.154-2.492-.306-6.106-.232-10.572.034-2.233.128-4.679.3-7.3a33.016,33.016,0,0,0-.994-8.2,138.5,138.5,0,0,0-6.095-18.119c-2.548-6.3-5.189-12.218-7.636-17.582a73.087,73.087,0,0,1-3.262-7.742,67.6,67.6,0,0,1-1.727-7.113c-.851-4.389-1.311-7.973-1.613-10.45-.145-1.239-.244-2.2-.3-2.858a5.333,5.333,0,0,1-.046-1,5.842,5.842,0,0,1,.182.986c.108.714.248,1.657.425,2.839.381,2.463.914,6.032,1.821,10.39a70.1,70.1,0,0,0,1.793,7.037,74.932,74.932,0,0,0,3.294,7.653c2.478,5.352,5.143,11.271,7.7,17.591a133.675,133.675,0,0,1,6.074,18.229,33.159,33.159,0,0,1,.946,8.38c-.193,2.612-.314,5.046-.379,7.271-.134,4.451-.056,8.057.017,10.548q.066,1.791.106,2.868a6.07,6.07,0,0,1,.012,1" transform="translate(11.356 21.324)" fill="#1a2e35"/>
          <path id="Trazado_341" data-name="Trazado 341" d="M102.807,115.325a4.188,4.188,0,0,1,.11.868c.048.642.11,1.471.186,2.5.166,2.17.281,5.319.356,9.21.144,7.785-.219,18.542-1,30.384s-1.446,22.564-1.595,30.335c-.087,3.884-.116,7.029-.088,9.2,0,1.031,0,1.861,0,2.5a4.351,4.351,0,0,1-.046.875,4.238,4.238,0,0,1-.09-.87c-.032-.642-.073-1.473-.125-2.5-.109-2.174-.153-5.325-.127-9.216.026-7.786.622-18.528,1.4-30.369s1.215-22.567,1.194-30.339c-.013-3.884-.055-7.029-.139-9.2-.024-1.031-.044-1.862-.059-2.5a4.25,4.25,0,0,1,.026-.876" transform="translate(22.294 25.613)" fill="#1a2e35"/>
          <path id="Trazado_342" data-name="Trazado 342" d="M41.951,147.861a8.664,8.664,0,0,1-.111-1.743c-.016-1.119-.086-2.74-.224-4.733a83.012,83.012,0,0,0-2.557-15.375,82.979,82.979,0,0,0-5.459-14.6c-.875-1.8-1.623-3.235-2.167-4.214a8.584,8.584,0,0,1-.774-1.566,8.719,8.719,0,0,1,1,1.432c.616.941,1.432,2.351,2.368,4.132a72.59,72.59,0,0,1,5.685,14.642,72.542,72.542,0,0,1,2.379,15.523c.078,2.01.075,3.639.01,4.762a8.616,8.616,0,0,1-.153,1.74" transform="translate(6.808 23.459)" fill="#1a2e35"/>
          <path id="Trazado_343" data-name="Trazado 343" d="M89.13,254.738,12.543,267.43a3.307,3.307,0,0,1-3.8-2.722L.044,212.252a3.308,3.308,0,0,1,2.723-3.8l76.589-12.693a3.31,3.31,0,0,1,3.8,2.723l8.693,52.456a3.308,3.308,0,0,1-2.723,3.8" transform="translate(0 43.466)" fill="#e1e1e1"/>
          <path id="Trazado_344" data-name="Trazado 344" d="M38.9,225.664s6.135,4.628,7.479,6.455,4.67,8.349,7.152,10.25a1.874,1.874,0,0,1-2.965,1.271,21.145,21.145,0,0,1-6.466-5.62c-1.047-1.589-2.139-.656-2.2.732s1.129,10.781,1.129,10.781,2.935,10.444,2.142,11.615a1.9,1.9,0,0,1-2.983.138c-.4-.546-3.7-9.276-3.7-9.276l-.851-4.747s1.7,15.037.752,16.215a1.643,1.643,0,0,1-2.64.122c-.657-.6-1.343-7.243-1.343-7.243l-1.545-8.872.28,16.911s-.178,1.6-1.435,1.66-2.1-1.793-2.1-1.793l-1.816-17.425s.584,9.688-.066,10.194c-.869.677-1.664.455-1.95-.288-.583-1.512-1.432-10.223-1.432-10.223l-.8-16.586-.853-7.992,15.519-1.014Z" transform="translate(5.038 49.067)" fill="#ffc09d"/>
          <path id="Trazado_345" data-name="Trazado 345" d="M32.186,103.617s-7.223,9-9.271,17.638c-3.461,14.6-11.208,61.635-10.413,70.968s7.362,62.912,7.362,62.912l23.878-5.422L39.43,188.571,46.2,149.018" transform="translate(2.764 23.013)" fill="#375a64"/>
          <path id="Trazado_346" data-name="Trazado 346" d="M46.247,149.018s-.018.237-.087.7c-.075.483-.18,1.159-.318,2.038-.3,1.815-.727,4.452-1.282,7.846-1.148,6.844-2.8,16.732-4.863,29.009l0-.053c1.184,16.475,2.7,37.511,4.4,61.136l.018.26-.255.059-23.877,5.433-.343.078-.04-.348c-.544-4.644-1.121-9.567-1.7-14.551-1.126-9.642-2.224-19.055-3.286-28.147q-.794-6.817-1.558-13.384-.381-3.279-.754-6.489a43.812,43.812,0,0,1,.114-6.421c.672-8.4,1.836-16.314,2.923-23.715,1.113-7.4,2.256-14.272,3.362-20.536s2.188-11.917,3.245-16.86a51.492,51.492,0,0,1,1.776-6.829,43.106,43.106,0,0,1,2.436-5.41,61.751,61.751,0,0,1,4.335-6.956c.55-.758.98-1.328,1.281-1.7s.471-.554.471-.554-.137.2-.418.594c-.291.411-.7.987-1.228,1.738a66.932,66.932,0,0,0-4.221,7,43.843,43.843,0,0,0-2.368,5.4,51.539,51.539,0,0,0-1.713,6.8c-1.022,4.943-2.069,10.6-3.149,16.865s-2.194,13.14-3.283,20.535c-1.064,7.4-2.208,15.313-2.862,23.679a43.544,43.544,0,0,0-.1,6.329q.379,3.206.765,6.486.77,6.557,1.573,13.378c1.066,9.087,2.168,18.5,3.3,28.135.582,4.983,1.157,9.905,1.7,14.547l-.384-.27,23.881-5.413-.237.32c-1.634-23.629-3.089-44.67-4.228-61.149l0-.027,0-.026c2.141-12.264,3.865-22.139,5.059-28.976.6-3.385,1.075-6.016,1.4-7.826.163-.875.288-1.547.378-2.027.089-.455.15-.686.15-.686" transform="translate(2.714 23.013)" fill="#1a2e35"/>
          <path id="Trazado_347" data-name="Trazado 347" d="M77.761,159.6a11.065,11.065,0,0,0,1.8-2.85,47.6,47.6,0,0,0,2.29-7.9,53.915,53.915,0,0,0,.995-8.179A28.89,28.89,0,0,1,83,137.242a13.631,13.631,0,0,1,.288,3.44,40.879,40.879,0,0,1-.821,8.3,37.181,37.181,0,0,1-2.505,7.961,5.2,5.2,0,0,1-2.206,2.662" transform="translate(17.269 30.481)" fill="#1a2e35"/>
        </g>
      </g>
    </g>
  </g>
</svg>
