<svg xmlns="http://www.w3.org/2000/svg" xmlns:xlink="http://www.w3.org/1999/xlink" width="110" height="110.065" viewBox="0 0 110 110.065">
  <defs>
    <clipPath id="clip-path">
      <rect id="Rectángulo_98" data-name="Rectángulo 98" width="110" height="110.065" fill="#e96247"/>
    </clipPath>
  </defs>
  <g id="flip-card02" clip-path="url(#clip-path)">
    <path id="Trazado_252" data-name="Trazado 252" d="M68.947,63.5c0-1.46-.033-2.812.006-4.163.1-3.375,2.254-5.808,5.617-5.852q12.679-.169,25.361-.007a5.436,5.436,0,0,1,5.635,5.786c-.066,3.317-.612,6.622-.786,9.941-.048.924.73,1.888.695,2.818-.135,3.606-.446,7.206-.69,10.808a2.365,2.365,0,0,0-.024.815,21.1,21.1,0,0,1,0,13.013,1.616,1.616,0,0,0-.055.618c.3,3.311.788,6.617.86,9.933.078,3.588-2.344,5.859-5.967,5.879-7.809.044-15.62.085-23.427-.031-1.645-.024-3.269-.792-4.926-1.084a5.234,5.234,0,0,0-2.232.163,25.234,25.234,0,1,1-2.339-49.026c.691.131,1.387.239,2.269.39m-6.954,44.97A20.625,20.625,0,1,0,41.433,88.019a20.593,20.593,0,0,0,20.559,20.452M88.507,67.2v-.007c3.51,0,7.019-.038,10.528.018,1.463.024,2.106-.541,2.063-2.015-.049-1.646-.028-3.295.009-4.941.037-1.6-.59-2.253-2.3-2.232-6.946.083-13.894.022-20.842.038-4.859.012-4.378-.544-4.393,4.34-.011,3.579.958,4.658,4.627,4.776,3.434.111,6.874.024,10.311.024M77.583,108.38c-.129-.087-.023.047.084.047,7.214.023,14.428.025,21.643.057,1.3.006,1.788-.617,1.773-1.841-.023-1.786-.042-3.573.005-5.358.04-1.507-.689-1.977-2.111-1.96-4.357.05-8.716-.021-13.073.06a2.834,2.834,0,0,0-1.881.933c-2.182,2.612-4.26,5.31-6.44,8.061m4.492-36.558c1.382,2.864,2.635,5.555,4,8.191a1.928,1.928,0,0,0,1.39.9c3.929.072,7.859.022,11.789.051,1.259.009,1.846-.521,1.832-1.783-.021-1.858-.016-3.716,0-5.574.01-1.248-.562-1.8-1.829-1.8-5.714.025-11.429.011-17.175.011M86.651,94.7c4.341,0,8.682.055,13.017-.077.485-.015,1.281-1.055,1.342-1.677a28.7,28.7,0,0,0,0-5.557c-.062-.633-.842-1.694-1.323-1.71-4.044-.138-8.1-.079-12.062-.079-.334,3.121-.643,6-.975,9.1" transform="translate(-20.943 -30.436)" fill="#e96247"/>
    <path id="Trazado_253" data-name="Trazado 253" d="M131.712,87.817a41.553,41.553,0,0,0,10.932-19.4c4.716-19.394-.083-36.393-14.418-50.083C114.279,5.019,97.453,1.8,78.987,6.99c-2.262.636-4.4,1.7-6.6,2.552-1.418.549-2.909.919-3.677-.859-.79-1.829.421-2.716,1.918-3.445C92.009-5.168,118.868.3,134.84,18.336c18.821,21.251,18.91,52.079.213,73.325-.28.318-.552.643-1.122,1.307h6.363c.788,0,1.725-.267,2.327.068.818.455,1.881,1.349,1.91,2.092s-1.055,2.156-1.708,2.19c-5.215.27-10.445.349-15.669.329-1.38-.006-1.937-1.2-1.692-2.493q1.357-7.175,2.843-14.327a2.166,2.166,0,0,1,2.833-1.9c1.482.375,1.986,1.511,1.7,3-.381,1.961-.75,3.924-1.124,5.886" transform="translate(-39.017 0)" fill="#e96247"/>
    <path id="Trazado_254" data-name="Trazado 254" d="M14.612,33.89c-2.619,0-5.116-.022-7.612.008-1.562.018-2.77-.49-2.832-2.2-.062-1.731,1.142-2.341,2.686-2.377,4.656-.109,9.312-.241,13.968-.269,1.957-.012,2.808,1.137,2.427,3.114C22.4,36.59,21.471,41,20.618,45.434c-.309,1.6-1.036,2.843-2.818,2.5-1.868-.364-2.156-1.785-1.759-3.5.418-1.8.689-3.638,1.129-6.028-.781.842-1.227,1.249-1.586,1.722C3.845,55.577,1.01,72.587,8.274,90.539,15.5,108.4,29.257,118.748,48.38,121.624a48.29,48.29,0,0,0,27.464-4.047c.326-.147.652-.3.979-.441,1.406-.624,2.622-.332,3.254,1.065.644,1.423-.044,2.478-1.4,3.129a52.427,52.427,0,0,1-17.042,4.939C29,129.838,1.094,105.8.03,72.969c-.438-13.528,3.885-25.637,12.414-36.2.674-.835,1.383-1.642,2.072-2.466.037-.044.031-.125.1-.418" transform="translate(0 -16.556)" fill="#e96247"/>
    <path id="Trazado_255" data-name="Trazado 255" d="M85.929,100.922c1.562,0,2.912-.018,4.261,0,1.412.024,2.374.675,2.417,2.159.046,1.594-.916,2.335-2.439,2.351q-4.081.042-8.161.013c-1.617-.011-2.992.474-3.015,2.282s1.282,2.379,2.939,2.334c1.216-.033,2.434-.025,3.651,0,3.751.083,6.615,2.521,7.016,5.951a6.844,6.844,0,0,1-5.386,7.662c-.409.108-.826.188-1.283.289-.357,1.768.411,4.433-2.523,4.351-2.57-.072-2.1-2.407-2.217-4.5-1.441,0-2.835.017-4.228,0-1.494-.023-2.527-.69-2.543-2.279-.016-1.609,1.062-2.279,2.524-2.31,2.433-.053,4.868-.02,7.3-.025,2.741-.006,3.968-.7,3.808-2.315-.228-2.31-2.006-2.231-3.705-2.21-1.145.014-2.3.056-3.434-.036a6.833,6.833,0,0,1-6.511-6.269,6.686,6.686,0,0,1,5.316-7.275c1.095-.258,1.646-.558,1.544-1.768-.136-1.62.417-2.97,2.262-2.964s2.312,1.367,2.27,2.985c-.011.416.069.835.137,1.57" transform="translate(-42.391 -54.923)" fill="#e96247"/>
  </g>
</svg>
