<svg xmlns="http://www.w3.org/2000/svg" xmlns:xlink="http://www.w3.org/1999/xlink" width="110.168" height="102.876" viewBox="0 0 110.168 102.876">
  <defs>
    <clipPath id="clip-path">
      <rect id="Rectángulo_93" data-name="Rectángulo 93" width="110.168" height="102.876" fill="#002f87"/>
    </clipPath>
  </defs>
  <g id="flip-card01" clip-path="url(#clip-path)">
    <path id="Trazado_246" data-name="Trazado 246" d="M21.311,126.315c6.3-.014,11.321,3,16.324,5.911,4.457,2.591,9.387,2.291,14.184,2.828,4.271.478,8.57.7,12.844,1.156,5.461.588,8.478,3.556,9.36,8.992.044.271.13.536.208.85a8.234,8.234,0,0,0,6.9-1.217c5.834-4.152,11.859-8.037,17.822-12.008,3.681-2.452,7.437-2.072,9.785.946s1.79,6.754-1.486,9.709q-9.977,9-19.977,17.977a16.928,16.928,0,0,1-9.223,4.229c-10.426,1.481-20.833,3.1-31.277,4.433a16.165,16.165,0,0,1-6.915-.714c-5.566-1.85-11-4.091-16.493-6.168-.583-.22-1.187-.385-1.79-.578-.935,4.229-1.636,4.775-6.009,4.776-3.727,0-7.454.024-11.18-.009C1.449,167.4.018,165.986.014,163.066q-.026-20.211,0-40.421c0-2.962,1.392-4.379,4.316-4.406,4.157-.038,8.314-.031,12.47,0,3.093.02,4.431,1.362,4.508,4.451.028,1.129,0,2.26,0,3.629m-3.235,37.931v-4.6c0-6.164-.05-12.33.073-18.492.015-.724.988-1.429,1.517-2.143a16.819,16.819,0,0,1,1.6,2.118c.213.386.045.983.045,1.485,0,4.8.077,9.607-.042,14.406a2.43,2.43,0,0,0,1.952,2.743c5.987,2.183,11.905,4.555,17.9,6.7a10.172,10.172,0,0,0,4.6.537c10.581-1.411,21.163-2.842,31.7-4.565a15.328,15.328,0,0,0,7.155-3.063c7.115-6.009,13.937-12.366,20.839-18.626.558-.506,1.289-1.3,1.237-1.9a6.4,6.4,0,0,0-1.15-3.61c-1.185-1.292-2.851-1.009-4.319-.023-5.888,3.954-11.869,7.779-17.643,11.893-2.718,1.937-5.376,2.985-8.743,2.378a22.151,22.151,0,0,0-5.142.049c-9.515.562-19.028,1.159-28.542,1.735a6.189,6.189,0,0,1-5.369-2.173c-.419-.5-.24-1.5-.336-2.277a11.524,11.524,0,0,1,2.459-.007c1.406.292,2.784,1.154,4.153,1.113,5.37-.164,10.733-.579,16.1-.918,4.193-.265,8.385-.554,12.568-.832-.134-3.941-2.369-6.383-6.037-6.738-3.352-.324-6.7-.734-10.066-.858-8.7-.319-17.05-1.618-24.485-6.709a15,15,0,0,0-8.783-2.259c0,1,0,1.84,0,2.683-.006,1.179.019,2.507-1.593,2.529-1.6.022-1.652-1.247-1.646-2.463.015-3.011-.071-6.024.034-9.031.054-1.544-.51-1.977-1.984-1.942-3.51.084-7.029.14-10.534-.018-1.974-.089-2.389.646-2.379,2.469.071,11.755.036,23.51.036,35.266,0,5.14,0,5.14,5.231,5.14Z" transform="translate(0 -67.355)" fill="#002f87"/>
    <path id="Trazado_247" data-name="Trazado 247" d="M87.294,0q7.635,0,15.27,0c3.249-.005,4.079.675,4.6,3.8a13.717,13.717,0,0,0,8.067,10.684c1.978.937,3.066,2.321,2.778,4.564-2.394,18.624-10.491,33.591-27.417,42.969a5.458,5.458,0,0,1-5.8.047C69.726,54.074,61.4,41.216,57.761,24.944c-.421-1.883-.667-3.809-.916-5.726a3.769,3.769,0,0,1,2.318-4.188A14.248,14.248,0,0,0,67.657,3.214c.268-2.118,1.4-3,3.722-3.013C76.684.171,81.989.191,87.294.191V0m16.478,3.4c-10.65,0-21.169-.022-31.687.069-.484,0-1.262.959-1.39,1.576-.957,4.63-3,8.847-7.153,11-3.748,1.942-3.523,4.314-2.808,7.568,3.344,15.207,10.809,27.437,24.771,35.158a3.879,3.879,0,0,0,4.319-.028c14.755-8.45,22.075-21.691,24.754-38,.311-1.891.258-3.269-1.923-3.992a9.659,9.659,0,0,1-2.987-2.055,17.588,17.588,0,0,1-5.9-11.3" transform="translate(-32.364 0)" fill="#002f87"/>
    <path id="Trazado_248" data-name="Trazado 248" d="M16.629,191.866a5.712,5.712,0,1,1-5.745,5.7,5.691,5.691,0,0,1,5.745-5.7m.62,2.951-1.008-.063c-.712.888-1.821,1.688-2.041,2.684-.309,1.4.676,2.442,2.2,2.533s2.648-.8,2.521-2.23c-.09-1.016-1.085-1.952-1.677-2.924" transform="translate(-6.201 -109.321)" fill="#002f87"/>
    <path id="Trazado_249" data-name="Trazado 249" d="M96.062,14.186c3.8,0,7.6.041,11.4-.018a3.058,3.058,0,0,1,3.351,2.344,18.566,18.566,0,0,0,7.78,9.973,3.107,3.107,0,0,1,1.6,3.611,27.4,27.4,0,0,1-1,4.384c-.251.625-1.319.92-2.018,1.365-.349-.686-1.171-1.582-.974-2.025,1.488-3.35-.209-5.142-2.569-7.3-2.2-2.016-3.719-4.845-5.259-7.479-.655-1.121-1.114-1.714-2.5-1.689-6.451.116-12.9.145-19.355.126-1.45,0-2.3.313-2.867,1.835A19.378,19.378,0,0,1,76.72,28.42a2.669,2.669,0,0,0-1.144,3.428,6.689,6.689,0,0,1,.557,2.494,2.424,2.424,0,0,1-1.185,1.717,1.888,1.888,0,0,1-1.678-.82A36.461,36.461,0,0,1,72,28.967c-.063-.623.721-1.551,1.358-1.988a19.757,19.757,0,0,0,7.918-10.411,3.045,3.045,0,0,1,3.392-2.291c3.8.059,7.6.018,11.4.018v-.108" transform="translate(-41.019 -8.072)" fill="#002f87"/>
    <path id="Trazado_250" data-name="Trazado 250" d="M100.775,98.586c-.775-.365-1.572-.672-2.3-1.095A43.52,43.52,0,0,1,80.428,77.062c-.484-1.073-1.054-2.266.426-2.94,1.452-.662,2.025.473,2.519,1.578A41.2,41.2,0,0,0,99.005,94.1a2.84,2.84,0,0,0,3.622-.069,41.037,41.037,0,0,0,14.95-17.621c.239-.521.334-1.2.729-1.532a9.727,9.727,0,0,1,2.065-1.041c.278.783.58,1.56.817,2.355.046.157-.157.386-.242.583a43.549,43.549,0,0,1-18.13,20.9,20.283,20.283,0,0,1-2.041.915" transform="translate(-45.527 -42.069)" fill="#002f87"/>
    <path id="Trazado_251" data-name="Trazado 251" d="M115.46,60.683c3-4.513,5.837-8.8,8.68-13.08.316-.476.538-1.148.983-1.374a9.045,9.045,0,0,1,2.25-.518c.122.758.617,1.755.308,2.239-3.418,5.362-6.945,10.655-10.481,15.942a1.628,1.628,0,0,1-2.736.314c-2.2-2.045-4.417-4.076-6.479-6.253-.4-.421-.118-1.485-.151-2.253.767-.006,1.793-.333,2.255.039,1.828,1.475,3.479,3.168,5.37,4.945" transform="translate(-61.405 -26.045)" fill="#002f87"/>
  </g>
</svg>
