<svg id="Persona_tablet" xmlns="http://www.w3.org/2000/svg" xmlns:xlink="http://www.w3.org/1999/xlink" width="273.156" height="739.926" viewBox="0 0 273.156 739.926">
  <defs>
    <clipPath id="clip-path">
      <rect id="Rectángulo_79" data-name="Rectángulo 79" width="273.156" height="739.926" fill="none"/>
    </clipPath>
    <clipPath id="clip-path-3">
      <rect id="Rectángulo_74" data-name="Rectángulo 74" width="37.374" height="16.235" fill="none"/>
    </clipPath>
    <clipPath id="clip-path-4">
      <rect id="Rectángulo_75" data-name="Rectángulo 75" width="45.522" height="28.152" fill="none"/>
    </clipPath>
    <clipPath id="clip-path-5">
      <rect id="Rectángulo_76" data-name="Rectángulo 76" width="40.223" height="52.212" fill="none"/>
    </clipPath>
  </defs>
  <g id="Grupo_66" data-name="Grupo 66" clip-path="url(#clip-path)">
    <g id="Grupo_63" data-name="Grupo 63">
      <g id="Grupo_62" data-name="Grupo 62" clip-path="url(#clip-path)">
        <path id="Trazado_175" data-name="Trazado 175" d="M34.5,394.041l.825,3.109,7.278,37.09a4.705,4.705,0,0,1-8.073,4.1c-6.563-7.156-30.573-33.6-30.094-36.928.555-3.856,1.911-14.077,1.911-14.077Z" transform="translate(3.433 300.074)" fill="#263238"/>
        <path id="Trazado_176" data-name="Trazado 176" d="M146.837,61.19,138.6,85.427l-2.884,4.066s-2.5,13.475-2.664,16.358,3.58,17.946,3.58,17.946l-8.368,13.4,23.167,8.891s6.277-12.242,8.023-13.63,3-5.353,3.416-8.036,3.88-18.583,3.88-18.583,10.272-17.547,5.986-18.436a14.8,14.8,0,0,0-3.221.06s-6.183,11.545-7.837,11.784l-2.341-1.359s4.827-17.657,5.076-20.958-.437-5.629-2.98-6.013c0,0-1.91.77-2.083,1.61s-4.989,20.539-6.078,20.166-.571-2.16-.571-2.16,6.412-23.886,6.114-25.26-1.459-3.51-3.839-3.274l-4.909,13.12s2.289-11.041.513-13.012a3.112,3.112,0,0,0-3.745-.923" transform="translate(99.37 47.189)" fill="#ffc09d"/>
        <path id="Trazado_177" data-name="Trazado 177" d="M147.557,107.805c-.2,0-.062-2.062-.841-5.354A20.711,20.711,0,0,0,139.521,91.3l-.316-.247.083-.364,1.26-5.487.027-.117.075-.106c.4-.564.822-1.235,1.209-1.906a21.406,21.406,0,0,0,2.671-6.984,7.676,7.676,0,0,0-.046-3.271,2.338,2.338,0,0,0-1.759-1.789l.392-.147c-2.77,2.651-5.093,4.831-6.74,6.327a15.142,15.142,0,0,1-2.7,2.236,15.3,15.3,0,0,1,2.281-2.66c1.524-1.624,3.741-3.91,6.439-6.636l.169-.17.225.023a3.354,3.354,0,0,1,2.753,2.488,8.6,8.6,0,0,1,.142,3.778,21.8,21.8,0,0,1-2.769,7.413,23.866,23.866,0,0,1-1.288,2.018l.1-.222c-.451,1.892-.889,3.727-1.306,5.479l-.234-.61a20.36,20.36,0,0,1,7.239,11.947,17.631,17.631,0,0,1,.314,4.062,4.144,4.144,0,0,1-.186,1.452" transform="translate(103.558 54.212)" fill="#ff9b6c"/>
        <path id="Trazado_178" data-name="Trazado 178" d="M141.493,80.264c.1-.3,3.626.726,7.36,3.209,3.748,2.463,6.073,5.3,5.837,5.512-.254.25-2.887-2.119-6.51-4.5-3.6-2.4-6.818-3.9-6.687-4.226" transform="translate(109.614 62.143)" fill="#ff9b6c"/>
        <path id="Trazado_179" data-name="Trazado 179" d="M182.629,116.683s-24.775,85.158-50.219,83.284-35.494-23.048-35.494-23.048L97.272,125l27.916-2.286,5.6,13.415,19.488-35.123Z" transform="translate(75.082 78.252)" fill="#e0e0e0"/>
        <path id="Trazado_180" data-name="Trazado 180" d="M51.719,69.415c-3.214-7.954-6.4-15.972-8.2-24.362s-2.158-17.24.263-25.471c.367-1.248,3.651-9.676,4.951-9.638.928.027-.914,7.8-.39,8.572,4.989,7.337,6.842,16.45,6.746,25.322a116.158,116.158,0,0,1-3.372,25.577" transform="translate(32.593 7.704)" fill="#263238"/>
        <path id="Trazado_181" data-name="Trazado 181" d="M100.315,120.168c-.358-6.048-.623-10.826-.577-10.829,0,0,20.594-3.544,20.516-24.191-.039-9.972-1.789-30.495-3.588-49.053A38.473,38.473,0,0,0,77.749,1.336l-1.993.032C54.3,2.971,43.673,22.09,45.87,43.495l5.3,75.115,15.781,16.342c12.577,13.028,34.566,3.285,33.368-14.783" transform="translate(35.316 1.031)" fill="#ffc09d"/>
        <path id="Trazado_182" data-name="Trazado 182" d="M87.888,65.469s-13,.974-27.006-7.511c0,0,6.8,14.908,27.364,12.714Z" transform="translate(47.166 44.901)" fill="#ff9b6c"/>
        <path id="Trazado_183" data-name="Trazado 183" d="M85.453,32.317a2.949,2.949,0,0,1-2.8,3.021,2.818,2.818,0,0,1-3.081-2.609,2.95,2.95,0,0,1,2.792-3.022,2.822,2.822,0,0,1,3.084,2.611" transform="translate(61.647 23.008)" fill="#263238"/>
        <path id="Trazado_184" data-name="Trazado 184" d="M88.317,27.09c-.358.39-2.619-1.226-5.791-1.166-3.17.014-5.471,1.682-5.823,1.3-.172-.17.19-.87,1.191-1.626a8.1,8.1,0,0,1,4.653-1.516,7.776,7.776,0,0,1,4.618,1.407c.987.733,1.329,1.423,1.152,1.6" transform="translate(59.391 18.657)" fill="#263238"/>
        <path id="Trazado_185" data-name="Trazado 185" d="M69.519,33.306a2.949,2.949,0,0,1-2.793,3.021,2.82,2.82,0,0,1-3.083-2.609A2.95,2.95,0,0,1,66.434,30.7a2.821,2.821,0,0,1,3.084,2.611" transform="translate(49.302 23.774)" fill="#263238"/>
        <path id="Trazado_186" data-name="Trazado 186" d="M71.686,27.991c-.36.39-2.623-1.225-5.793-1.166-3.17.014-5.471,1.684-5.823,1.3-.17-.17.186-.87,1.193-1.624a8.1,8.1,0,0,1,4.652-1.517,7.764,7.764,0,0,1,4.618,1.409c.985.733,1.329,1.423,1.154,1.6" transform="translate(46.506 19.355)" fill="#263238"/>
        <path id="Trazado_187" data-name="Trazado 187" d="M73.2,51.944c-.018-.179,1.949-.552,5.138-1.013.807-.1,1.572-.27,1.7-.825a4.129,4.129,0,0,0-.58-2.392q-1.19-2.92-2.5-6.13c-3.47-8.728-5.995-15.91-5.642-16.047s3.452,6.827,6.92,15.555q1.254,3.229,2.4,6.169a4.687,4.687,0,0,1,.472,3.171A2.033,2.033,0,0,1,79.8,51.638a5.48,5.48,0,0,1-1.372.213c-3.214.225-5.209.273-5.223.092" transform="translate(55.228 19.782)" fill="#263238"/>
        <path id="Trazado_188" data-name="Trazado 188" d="M72.689,22.157c-.44.806-3.509-.08-7.257-.2-3.745-.2-6.877.422-7.248-.415-.161-.4.479-1.123,1.807-1.764a12.609,12.609,0,0,1,11.049.472c1.267.751,1.844,1.526,1.649,1.91" transform="translate(45.058 14.506)" fill="#263238"/>
        <path id="Trazado_189" data-name="Trazado 189" d="M87.316,20.928c-.547.729-2.744.016-5.372.023-2.628-.083-4.845.564-5.37-.181-.229-.362.108-1.09,1.07-1.787a7.779,7.779,0,0,1,8.655.128c.941.724,1.257,1.461,1.017,1.817" transform="translate(59.27 13.736)" fill="#263238"/>
        <path id="Trazado_190" data-name="Trazado 190" d="M52.771,33.939c-.355-.147-14.253-3.966-13.573,10.141S53.9,54.593,53.9,54.187s-1.134-20.248-1.134-20.248" transform="translate(30.348 25.844)" fill="#ffc09d"/>
        <path id="Trazado_191" data-name="Trazado 191" d="M47.765,47.018c-.064-.043-.238.183-.644.394a2.452,2.452,0,0,1-1.833.126c-1.517-.474-2.886-2.779-3.077-5.319a8.147,8.147,0,0,1,.518-3.551,2.844,2.844,0,0,1,1.759-1.975,1.251,1.251,0,0,1,1.482.6c.208.385.131.671.208.692.041.034.291-.252.149-.829a1.567,1.567,0,0,0-.6-.857,1.859,1.859,0,0,0-1.377-.293,3.46,3.46,0,0,0-2.462,2.311,8.349,8.349,0,0,0-.662,3.972c.227,2.838,1.81,5.429,3.878,5.919a2.634,2.634,0,0,0,2.229-.481c.421-.369.479-.689.429-.712" transform="translate(31.922 27.877)" fill="#ff9b6c"/>
        <path id="Trazado_192" data-name="Trazado 192" d="M108.63,14.271c2.21-1.39-5.06-8.389-10.812-10.613C89.124.3,76.048-1.335,68.36,1.328c-9.255,3.2-16.8,8.331-21.041,17.163S41.877,37.4,42.71,47.16c.252,2.978.74,6.07,2.476,8.5,2.147,3,6.038,4.753,6.117,9.062a5.913,5.913,0,0,0,1.711,4.22c2.735,2.6,5.745-.16,7.047-2.829,2.785-5.7,2.754-12.311,2.666-18.654-.062-4.508-.142-9.111-1.656-13.358-.823-2.309-2.059-4.467-2.753-6.82s-.777-5.063.6-7.1A8.824,8.824,0,0,1,60,18.961a14.725,14.725,0,0,1,14.428-3.608c8.1,2.357,21.9,5.778,25.286,2.882,4.873-4.167,5.947-6.763,5.947-6.763Z" transform="translate(32.897 0)" fill="#263238"/>
        <path id="Trazado_193" data-name="Trazado 193" d="M76.172,49.582c.014.248-.7.566-1.922.529a8.4,8.4,0,0,1-7.269-5.374c-.392-1.161-.3-1.934-.057-1.993.538-.133,1.526,2.362,4.064,4.178,2.477,1.894,5.154,2.107,5.184,2.66" transform="translate(51.685 33.111)" fill="#263238"/>
        <path id="Trazado_194" data-name="Trazado 194" d="M165.754,194.3a163.023,163.023,0,0,1,3.558,47.951c-.784,10.19-38.139,309.837-38.139,309.837l-41.825-7.17,11.413-275.523-3.8.825s-25.345,113-27.412,131.3c-1.86,16.445-31.657,150.569-31.657,150.569L3.355,543.857,17.421,379.892,33.2,228.257l5.936-44.139Z" transform="translate(2.599 142.64)" fill="#455a64"/>
        <path id="Trazado_195" data-name="Trazado 195" d="M54.117,233.206a9,9,0,0,0,1.938,1.091,22.332,22.332,0,0,0,5.75,2.013,12.088,12.088,0,0,0,4.277.03,8.788,8.788,0,0,0,4.472-2.146,10.615,10.615,0,0,0,2.712-4.742c.547-1.8.861-3.681,1.244-5.585,1.48-7.647,2.483-14.631,3.068-19.7.293-2.534.486-4.589.593-6.013a9.694,9.694,0,0,0,.059-2.22,9.721,9.721,0,0,0-.44,2.178c-.243,1.613-.545,3.606-.9,5.963-.76,5.035-1.867,11.978-3.344,19.6-.749,3.768-1.26,7.606-3.615,9.857-2.352,2.206-5.626,2.438-8.015,2.085a26.081,26.081,0,0,1-5.707-1.675,10.491,10.491,0,0,0-2.091-.742" transform="translate(41.925 151.796)" fill="#263238"/>
        <path id="Trazado_196" data-name="Trazado 196" d="M64.4,196.815c.014-.043-.3-.241-.955-.284a4.157,4.157,0,0,0-2.6.836,4.641,4.641,0,0,0-1.958,3.587,4.6,4.6,0,0,0,7.837,2.939,4.64,4.64,0,0,0,.886-3.988,4.159,4.159,0,0,0-1.407-2.337c-.52-.4-.887-.456-.905-.414a5.234,5.234,0,0,1,1.629,2.88,4.054,4.054,0,0,1-.882,3.26,3.763,3.763,0,0,1-6.251-2.346,4.046,4.046,0,0,1,1.478-3.033,5.239,5.239,0,0,1,3.124-1.1" transform="translate(45.619 152.251)" fill="#263238"/>
        <path id="Trazado_197" data-name="Trazado 197" d="M20.534,214.067a5,5,0,0,0,1.581.247,29.571,29.571,0,0,0,4.355.05,42.187,42.187,0,0,0,26.067-10.978,29.746,29.746,0,0,0,3.006-3.152c.648-.8.978-1.258.926-1.3-.131-.115-1.622,1.592-4.392,3.933a47.822,47.822,0,0,1-12.01,7.356,47.772,47.772,0,0,1-13.651,3.452c-3.61.348-5.874.222-5.883.4" transform="translate(15.908 154.111)" fill="#263238"/>
        <path id="Trazado_198" data-name="Trazado 198" d="M84.132,197.17a20.983,20.983,0,0,0,2.146,4.735,52.629,52.629,0,0,0,7.173,9.988,48.267,48.267,0,0,0,9.1,7.771,16.815,16.815,0,0,0,4.275,2.275,44.36,44.36,0,0,0-3.951-2.868,60.943,60.943,0,0,1-8.81-7.883,65.328,65.328,0,0,1-7.266-9.665,51.009,51.009,0,0,0-2.664-4.353" transform="translate(65.173 152.749)" fill="#263238"/>
        <path id="Trazado_199" data-name="Trazado 199" d="M60.312,132.123,42.549,149.242,48.286,116.5l-36.053-11.4S2.658,150.03.992,160.659C-2,179.73,1.674,206.837,19.444,208.745c19.226,2.064,33.743-16.9,42.98-29.341,7.1-9.566,18.565-26.291,18.565-26.291Z" transform="translate(0.044 81.418)" fill="#e0e0e0"/>
        <path id="Trazado_200" data-name="Trazado 200" d="M199.217,149.672c-.3-1.079-13.034-49.089-18.711-59.691C173.714,77.3,159.259,72.065,150.4,71.52c-1.145-.071-5.3-.186-8.927-.03-24.408,1.047-94.6,6.664-94.6,6.664s-26.566,6.673-31.941,30.71C8.191,139.007,2.766,168.732,2.766,168.732L50.3,179l5.592-14.082,89.314,19.927,21.81-32.259Z" transform="translate(2.143 55.324)" fill="#e0e0e0"/>
        <path id="Trazado_201" data-name="Trazado 201" d="M27.028,235.022l1.23-42.948L26.5,90.871,63.544,74.54,67.7,58.562,110.938,79,119.995,69l4.041,10.909,9.227,3.466,18.643,36.767L162.473,149.1s-3.354,125.7-6.022,145.944c0,0-8.7,3.219-30.186,3.738-43.56,1.051-102.889-1.7-102.889-1.7l-.609-1.906A37.981,37.981,0,0,1,21.3,278.7Z" transform="translate(16.249 45.369)" fill="#e0e0e0"/>
        <path id="Trazado_202" data-name="Trazado 202" d="M85.244,280.171a1.807,1.807,0,0,0,.078-.522c.032-.419.071-.925.117-1.54q.122-2.186.334-5.922c.232-5.258.561-12.679.964-21.8.685-18.413,1.558-43.866,1.269-72.011-.172-14.072-.644-27.5-1.991-39.653-1.4-12.141-3.489-22.936-5.369-31.959C78.737,97.744,76.988,90.5,75.771,85.5q-.91-3.626-1.445-5.75c-.162-.6-.295-1.084-.4-1.489a1.794,1.794,0,0,0-.176-.5,1.806,1.806,0,0,0,.062.525c.08.412.176.909.295,1.516q.455,2.14,1.235,5.8c1.084,5.035,2.71,12.308,4.515,21.334,1.776,9.026,3.777,19.822,5.115,31.908,1.281,12.088,1.723,25.488,1.894,39.539.289,28.1-.454,53.554-.933,71.968-.25,9.127-.456,16.553-.6,21.815q-.075,3.743-.119,5.933c0,.618,0,1.125,0,1.544a1.887,1.887,0,0,0,.039.529" transform="translate(57.127 60.241)" fill="#263238"/>
        <path id="Trazado_203" data-name="Trazado 203" d="M80.671,102.6a19.3,19.3,0,0,0-2.509.075l-7.319.438c-6.535.445-15.664,1.07-26.665,1.823l-.506.035.039.511c.921,12.219,2.025,26.839,3.216,42.634l.021.282.229.165c1.248.905,2.6,1.821,3.982,2.722a78.326,78.326,0,0,0,7.5,4.345c2.566,1.223,5.205,2.447,8.128,2.616a16.2,16.2,0,0,0,8.061-1.867,35.31,35.31,0,0,0,6.52-4.36c.98-.811,1.924-1.636,2.824-2.481a5.418,5.418,0,0,0,1.265-1.528,8.091,8.091,0,0,0,.71-1.791,27.49,27.49,0,0,0,.655-7.033A101.343,101.343,0,0,0,85.7,126.735c-1.1-7.551-2.408-13.58-3.347-17.735-.477-2.076-.877-3.681-1.168-4.763a8.4,8.4,0,0,0-.509-1.636,9.517,9.517,0,0,0,.268,1.691c.238,1.219.55,2.816.939,4.808.793,4.178,1.97,10.224,2.955,17.754A104.594,104.594,0,0,1,85.8,139.2a26.722,26.722,0,0,1-.676,6.733,5.212,5.212,0,0,1-1.682,2.793c-.894.827-1.828,1.631-2.792,2.417a34.411,34.411,0,0,1-6.322,4.185,15.07,15.07,0,0,1-7.472,1.718c-2.588-.144-5.154-1.306-7.653-2.508a78.477,78.477,0,0,1-7.374-4.282c-1.365-.887-2.714-1.8-3.926-2.68l.248.449c-1.271-15.788-2.447-30.4-3.431-42.618l-.467.547C55.122,105,64.142,104.2,70.594,103.64c3.093-.3,5.567-.534,7.4-.71.784-.087,1.432-.156,1.97-.215a3.689,3.689,0,0,0,.706-.115" transform="translate(33.833 79.471)" fill="#263238"/>
        <path id="Trazado_204" data-name="Trazado 204" d="M44.139,111.788c.025.339,8.678-.059,19.325-.889s19.257-1.778,19.233-2.117-8.678.059-19.328.889-19.257,1.778-19.229,2.117" transform="translate(34.195 84.181)" fill="#263238"/>
        <g id="Grupo_55" data-name="Grupo 55" transform="translate(81.364 227.372)" opacity="0.3">
          <g id="Grupo_54" data-name="Grupo 54">
            <g id="Grupo_53" data-name="Grupo 53" clip-path="url(#clip-path-3)">
              <path id="Trazado_205" data-name="Trazado 205" d="M83.221,128.117c-2.085,3.429-4.023,8.139-6.865,10.97s-6.536,5.006-10.542,5.242a17.269,17.269,0,0,1-10-2.971c-4.834-3.026-7.805-7.793-9.963-13.073-.3-.385,6.918,4.435,10.842,6.522a17.666,17.666,0,0,0,11.1,2.382c5.807-.47,11.017-5.258,15.424-9.072" transform="translate(-45.846 -128.117)"/>
            </g>
          </g>
        </g>
        <g id="Grupo_58" data-name="Grupo 58" transform="translate(84.749 122.537)" opacity="0.3">
          <g id="Grupo_57" data-name="Grupo 57">
            <g id="Grupo_56" data-name="Grupo 56" clip-path="url(#clip-path-4)">
              <path id="Trazado_206" data-name="Trazado 206" d="M90.111,72.977,93.275,97.2,47.754,69.046l41.894,21.62Z" transform="translate(-47.753 -69.046)"/>
            </g>
          </g>
        </g>
        <path id="Trazado_207" data-name="Trazado 207" d="M79.828,84.41a679.388,679.388,0,0,1,15.426,100.7c1.78,23.527,3.1,54.707,3.1,54.707l-10.494,13L71.776,238.585s.7-66.238-.144-88.411c-.692-18.246,2.183-64.795,2.183-64.795Z" transform="translate(55.411 65.394)" fill="#0c8f5a"/>
        <path id="Trazado_208" data-name="Trazado 208" d="M33.772,101.007a11.22,11.22,0,0,0-.429,1.885c-.241,1.336-.555,3.079-.937,5.179-.77,4.488-1.8,10.48-2.939,17.1-1.164,6.68-2.156,12.741-2.808,17.137-.328,2.2-.58,3.977-.738,5.211a11.364,11.364,0,0,0-.185,1.924,10.943,10.943,0,0,0,.429-1.885c.243-1.335.559-3.077.941-5.177.784-4.485,1.833-10.476,2.992-17.1,1.152-6.682,2.1-12.748,2.756-17.142.3-2.114.545-3.867.735-5.212a10.986,10.986,0,0,0,.183-1.924" transform="translate(19.929 78.252)" fill="#263238"/>
        <path id="Trazado_209" data-name="Trazado 209" d="M22.534,78.36c-.071.09,1.249,1.118,3.118,3.042a38.617,38.617,0,0,1,6.155,8.412,38.6,38.6,0,0,1,3.62,9.775c.575,2.619.7,4.288.818,4.279a4.155,4.155,0,0,0,.011-1.18,24.348,24.348,0,0,0-.385-3.187,34.1,34.1,0,0,0-3.5-9.99,34.027,34.027,0,0,0-6.4-8.43A24.19,24.19,0,0,0,23.523,79a4.191,4.191,0,0,0-.989-.642" transform="translate(17.456 60.704)" fill="#263238"/>
        <path id="Trazado_210" data-name="Trazado 210" d="M71.713,76.354l3.911-2.316,4.112,7.406.172,11-6.013.969-2.478-6.435Z" transform="translate(55.329 57.358)" fill="#0c8f5a"/>
        <path id="Trazado_211" data-name="Trazado 211" d="M71.423,69.987c-.078.055.887,1.533,2.35,3.979s3.393,5.874,5.235,9.807c.151.323.3.644.438.942l.287.619.291-.614a76.725,76.725,0,0,0,3.851-9.75c.4-1.271.685-2.3.861-3.022a4.085,4.085,0,0,0,.208-1.131c-.089-.027-.582,1.523-1.484,4.013s-2.241,5.912-4.013,9.615l.58.005c-.14-.3-.289-.625-.44-.951a81.359,81.359,0,0,0-5.432-9.773c-.783-1.2-1.45-2.144-1.929-2.786a4.6,4.6,0,0,0-.8-.953" transform="translate(55.329 54.219)" fill="#263238"/>
        <path id="Trazado_212" data-name="Trazado 212" d="M44.961,67.566a3.181,3.181,0,0,0,.632.38l1.867.976,6.875,3.562C60.133,75.5,68.077,79.8,76.879,84.5c5.36,2.856,10.437,5.5,14.854,7.711l.406.2.005-.453c.055-5.727.1-10.554.137-14.045,0-1.64-.005-2.964-.007-3.959a8.508,8.508,0,0,0-.064-1.406,8.3,8.3,0,0,0-.115,1.4c-.037,1-.087,2.318-.149,3.958-.092,3.489-.218,8.315-.369,14.042l.412-.248c-4.391-2.249-9.45-4.916-14.808-7.771-8.8-4.7-16.784-8.939-22.64-11.855-2.927-1.462-5.314-2.609-6.971-3.381l-1.92-.87a3.22,3.22,0,0,0-.689-.263" transform="translate(34.832 52.343)" fill="#263238"/>
        <path id="Trazado_213" data-name="Trazado 213" d="M73.411,86.884c.092.149,1.139-.341,2.334-1.1s2.089-1.489,1.995-1.64-1.139.343-2.336,1.1-2.089,1.489-1.993,1.638" transform="translate(56.867 65.172)" fill="#263238"/>
        <path id="Trazado_214" data-name="Trazado 214" d="M72.864,88.772c.161.071,1.414-2.422,2.8-5.569s2.371-5.757,2.21-5.828-1.414,2.422-2.8,5.569S72.7,88.7,72.864,88.772" transform="translate(56.435 59.942)" fill="#263238"/>
        <path id="Trazado_215" data-name="Trazado 215" d="M1.036,196.928s-.38,1.855-.724,5.486a78.282,78.282,0,0,0,.217,16.063,53.26,53.26,0,0,0,2.605,11.465,26.332,26.332,0,0,0,7.677,11.726,16.812,16.812,0,0,0,7.182,3.338,26.254,26.254,0,0,0,8.481.078c5.823-.845,11.568-3.714,16.711-7.725l-.417-.24c-1.168,8.8-2.421,18.262-3.755,28.323-.641,5.042-1.409,10.19-2,15.564a39.638,39.638,0,0,0,2.3,16.393l.078.222.222.011c18.991.843,39.825,1.523,62.174,1.853,11.174.153,22.727.217,34.618.034,5.94-.1,11.983-.2,18.081-.745a90.617,90.617,0,0,0,18.361-3.111l.24-.075.032-.268c.735-6.215,1.052-12.515,1.439-18.9q.474-9.576.96-19.385.873-19.62,1.565-40.059l-.793.268a44.264,44.264,0,0,0,23.043,14.945,45.281,45.281,0,0,0,7,1.221,19.822,19.822,0,0,0,3.633.036,16.266,16.266,0,0,0,3.507-1.017c4.531-1.888,8.071-5.392,11.165-9.063,6.171-7.461,10.826-16.095,15.094-24.913,4.245-8.851,7.954-18.038,11.381-27.4,2.557-7.019,4.93-14.056,7.049-21.135l.112-.373-.355-.174q-16.356-7.92-32.355-15.671l-.39-.19-.211.38q-9.89,17.833-19.483,35.125l.813.048q-2.819-6.754-5.6-13.415l-.415-.275.433.33q-3.594-13.2-7.367-26c-2.563-8.515-5.088-16.917-8.2-25.006A33.76,33.76,0,0,0,178.508,93.6a37.759,37.759,0,0,0-10.135-7.7A42.882,42.882,0,0,0,156.56,81.8a29.586,29.586,0,0,0-6.157-.525q-3.067-.021-6.105-.037l.158.027-4.029-1.51.238.238c-1.391-3.748-2.724-7.344-4.046-10.906l-.229-.623-.444.49c-3.12,3.454-6.1,6.753-9.053,10.013l.46-.092C112.114,71.681,97.739,64.895,84.1,58.46l-.394-.185L83.6,58.7c-1.457,5.624-2.811,10.856-4.139,15.98l.2-.229-30.767,13.6.048-.016C35.8,91.972,24.86,100.316,19.682,110.862c-.561,1.345-1.159,2.659-1.668,3.986q-.588,2.05-1.164,4.052-.865,4.044-1.688,7.887-1.637,7.68-3.1,14.537l.213-.176-.213.174c-3.794,18.036-6.627,31.924-8.458,41.314-.914,4.694-1.588,8.263-2,10.664s-.571,3.629-.571,3.629.071-.3.183-.905.282-1.519.5-2.7c.476-2.4,1.18-5.96,2.107-10.641,1.9-9.372,4.8-23.247,8.661-41.266l-.211.172.211-.176q1.483-6.839,3.147-14.517c1.194-5.086,1.874-10.652,4.526-15.793,5.111-10.361,15.971-18.6,28.93-22.461l.032-.009.016-.007L79.933,75.078l.153-.066.043-.165c1.335-5.12,2.7-10.35,4.163-15.972l-.5.236c13.632,6.456,28,13.259,43.229,20.471l.264.128.2-.218c2.953-3.257,5.94-6.556,9.063-10l-.674-.13c1.317,3.564,2.648,7.161,4.034,10.913l.066.172.174.067,4.029,1.516.067.025h.09l6.046.043a28.94,28.94,0,0,1,6.036.518,42.1,42.1,0,0,1,11.571,4.039,36.893,36.893,0,0,1,9.9,7.527,32.861,32.861,0,0,1,6.451,10.835c3.088,8.027,5.61,16.434,8.164,24.937q3.783,12.775,7.346,25.987l.433.33-.414-.275q2.779,6.663,5.594,13.417l.358.861.453-.816q9.594-17.282,19.5-35.12l-.6.19q15.988,7.749,32.353,15.678l-.243-.543c-2.108,7.046-4.479,14.077-7.03,21.077-3.418,9.337-7.118,18.5-11.346,27.316-4.245,8.78-8.886,17.373-14.964,24.722-3.038,3.62-6.524,7.03-10.806,8.806a15.451,15.451,0,0,1-3.285.96,18.876,18.876,0,0,1-3.422-.039,44.279,44.279,0,0,1-6.856-1.193,43.381,43.381,0,0,1-22.58-14.634l-.753-.925-.041,1.193q-.713,20.413-1.542,40.05-.479,9.8-.944,19.38c-.382,6.371-.7,12.687-1.418,18.837l.27-.339a90.366,90.366,0,0,1-18.138,3.081c-6.068.548-12.086.658-18.026.761-11.876.192-23.424.147-34.595.005-22.337-.3-43.168-.942-62.152-1.752l.3.229a39.016,39.016,0,0,1-2.3-16.145c.571-5.3,1.335-10.506,1.961-15.532q1.962-15.1,3.683-28.333l.082-.634-.5.394c-5.085,3.99-10.739,6.829-16.461,7.677a25.79,25.79,0,0,1-8.331-.046,16.411,16.411,0,0,1-7.012-3.225c-3.919-3.2-6.142-7.534-7.608-11.529A53.34,53.34,0,0,1,.8,218.443a80.344,80.344,0,0,1-.35-16.019c.149-1.814.3-3.186.419-4.1s.163-1.391.163-1.391" transform="translate(0 45.147)" fill="#263238"/>
        <g id="Grupo_61" data-name="Grupo 61" transform="translate(41.492 241.784)" opacity="0.3">
          <g id="Grupo_60" data-name="Grupo 60">
            <g id="Grupo_59" data-name="Grupo 59" clip-path="url(#clip-path-5)">
              <path id="Trazado_216" data-name="Trazado 216" d="M58.989,142.283S49.744,152.85,44.273,159.7c-4.5,5.635-12.76,11.6-19.534,17.3l-1.359,11.456c5.438-1.081,12.767-7.374,16.448-11.52s7.564-8.478,10.27-13.316c4.957-8.859,11.763-17.374,13.506-27.379Z" transform="translate(-23.38 -136.239)"/>
            </g>
          </g>
        </g>
        <path id="Trazado_217" data-name="Trazado 217" d="M30.3,192.254a5.6,5.6,0,0,1,.916-.7c.6-.451,1.556-1.022,2.7-1.9a100.5,100.5,0,0,0,9.255-8.066,271.945,271.945,0,0,0,27.075-31.9l-.057.484c-1.931-4.676-3.945-9.557-6.011-14.562-2.506-6.1-4.935-12.011-7.207-17.538l.779.188L15.347,154.123a3.779,3.779,0,0,1,.7-.82c.5-.5,1.257-1.221,2.257-2.131,1.995-1.83,4.939-4.449,8.657-7.7C34.4,136.956,44.916,127.892,57.1,117.5l.518-.442.261.632,7.237,17.525,5.99,14.57.108.263-.165.222c-10.02,13.52-19.8,24.557-27.439,31.783a87.27,87.27,0,0,1-9.5,7.882c-1.178.838-2.17,1.367-2.808,1.769a5.571,5.571,0,0,1-1.01.545" transform="translate(11.888 90.691)" fill="#263238"/>
        <path id="Trazado_218" data-name="Trazado 218" d="M103.574,89.346a4.187,4.187,0,0,1,.091,1.065c.016.815.035,1.824.059,3.056.037,2.653.009,6.492-.08,11.236-.172,9.486-.751,22.582-1.558,37.026s-1.5,27.528-1.858,37c-.167,4.625-.305,8.421-.406,11.218-.053,1.23-.1,2.238-.133,3.053a4.236,4.236,0,0,1-.117,1.063A4.188,4.188,0,0,1,99.48,193c-.016-.815-.035-1.824-.059-3.056-.037-2.653-.009-6.492.08-11.234.172-9.486.751-22.583,1.558-37.033s1.5-27.521,1.858-36.992c.167-4.627.305-8.423.406-11.22.053-1.23.1-2.24.133-3.053a4.218,4.218,0,0,1,.117-1.063" transform="translate(77.011 69.218)" fill="#263238"/>
        <path id="Trazado_219" data-name="Trazado 219" d="M150.646,103.62,135.82,159.628a6.963,6.963,0,0,1-6.87,5.182L52.178,163.3a6.966,6.966,0,0,1-6.68-8.4L56.8,101.261a6.967,6.967,0,0,1,6.817-5.53h80.954a6.282,6.282,0,0,1,6.071,7.889" transform="translate(35.13 74.165)" fill="#263238"/>
        <path id="Trazado_220" data-name="Trazado 220" d="M37.821,130.375l3.647-3.407s2.417-8.041,3.942-9.564,5.613-2.657,5.613-2.657l9.166-8.419-1.67,7.511,13.3-.1a3.78,3.78,0,0,1,3.619,2.323,1.5,1.5,0,0,1,.115.728,4.861,4.861,0,0,1-2.66,3.484l-1.911.9s2.79.809,3.134,3.265a4.164,4.164,0,0,1-2.769,4.485s3.267,1.462,1.39,5.381c0,0,3.044,3.608,1.283,6.05s-11.848,6.531-11.848,6.531l-5.592,2.54a9.463,9.463,0,0,1-4.194.236l-2.183.305L47.872,151.9s-13.346-7.289-10.05-21.526" transform="translate(28.895 82.374)" fill="#ffc09d"/>
        <path id="Trazado_221" data-name="Trazado 221" d="M45.668,118.4a10.1,10.1,0,0,0,3.022.028,56.674,56.674,0,0,0,14.246-2.877,10.05,10.05,0,0,0,2.776-1.2c-.08-.225-4.437,1.207-9.965,2.311-5.521,1.127-10.093,1.5-10.079,1.736" transform="translate(35.38 88.577)" fill="#ff9b6c"/>
        <path id="Trazado_222" data-name="Trazado 222" d="M43.61,125.239c.057.213,5.219-1,11.527-2.7s11.378-3.257,11.321-3.47-5.218.994-11.529,2.7-11.376,3.257-11.319,3.47" transform="translate(33.785 92.228)" fill="#ff9b6c"/>
        <path id="Trazado_223" data-name="Trazado 223" d="M44.214,130.77a14.185,14.185,0,0,0,3.686-.477,59.238,59.238,0,0,0,16.773-6.219,14.088,14.088,0,0,0,3.106-2.041,21.738,21.738,0,0,0-3.367,1.54c-2.05.992-4.914,2.289-8.167,3.5s-6.272,2.087-8.472,2.671a21.69,21.69,0,0,0-3.558,1.028" transform="translate(34.253 94.533)" fill="#ff9b6c"/>
        <path id="Trazado_224" data-name="Trazado 224" d="M43.145,124.118c.22-.078-.209-1.564.11-3.361.282-1.807,1.17-3.07.987-3.216-.133-.165-1.443,1.029-1.775,3.084-.351,2.05.5,3.6.678,3.493" transform="translate(32.834 91.049)" fill="#ff9b6c"/>
        <path id="Trazado_225" data-name="Trazado 225" d="M43.37,117.788c.151-.169-.54-.989-.648-2.226-.147-1.233.36-2.178.181-2.312-.083-.06-.351.108-.6.532a3.228,3.228,0,0,0,.371,3.608c.334.364.63.474.7.4" transform="translate(32.471 87.728)" fill="#ff9b6c"/>
        <path id="Trazado_226" data-name="Trazado 226" d="M43.936,128.525c.17-.153-.351-.978-.667-2.089-.335-1.1-.341-2.08-.568-2.117-.206-.053-.586,1.036-.2,2.343s1.288,2.02,1.432,1.863" transform="translate(32.798 96.311)" fill="#ff9b6c"/>
        <path id="Trazado_227" data-name="Trazado 227" d="M61.616,110.761c-.014.295-3.5.33-7.779.639s-7.738.747-7.793.458c-.057-.266,3.372-1.182,7.72-1.482s7.869.114,7.851.385" transform="translate(35.671 85.425)" fill="#ff9b6c"/>
        <path id="Trazado_228" data-name="Trazado 228" d="M110.423,152.534a34.306,34.306,0,0,0,1.036-4.8c.591-2.964,1.523-7.033,2.875-11.434s2.882-8.288,4.062-11.071a34.374,34.374,0,0,0,1.847-4.55,20.827,20.827,0,0,0-2.442,4.281,78.782,78.782,0,0,0-6.987,22.665,21,21,0,0,0-.392,4.911" transform="translate(85.51 93.49)" fill="#263238"/>
      </g>
    </g>
    <g id="Grupo_65" data-name="Grupo 65">
      <g id="Grupo_64" data-name="Grupo 64" clip-path="url(#clip-path)">
        <path id="Trazado_229" data-name="Trazado 229" d="M53.143,412.857l1.15-25.3,31.389,4.419,2.957.884S126.46,407.7,126.758,414.74l-49-.923v2.926H53.136v-3.887Z" transform="translate(41.165 300.25)" fill="#263238"/>
      </g>
    </g>
  </g>
</svg>
