<svg id="personaje" xmlns="http://www.w3.org/2000/svg" xmlns:xlink="http://www.w3.org/1999/xlink" width="241.37" height="646" viewBox="0 0 241.37 646">
  <defs>
    <clipPath id="clip-path">
      <rect id="Rectángulo_123" data-name="Rectángulo 123" width="241.37" height="646" fill="none"/>
    </clipPath>
  </defs>
  <g id="Grupo_102" data-name="Grupo 102" clip-path="url(#clip-path)">
    <path id="Trazado_293" data-name="Trazado 293" d="M124.6,199.121s18.882,54.686,19.533,95.368,1.3,105.371-7.162,176.73S124.6,571.255,124.6,571.255H81.624s-4.558-44.683-3.906-84.7,3.78-52.686-.065-96.7S67.73,319.4,61.328,306.064c0,0-17.737-21.086-19.039-50.01s8.934-53.78,8.934-53.78Z" transform="translate(15.831 74.744)" fill="#04242d"/>
    <path id="Trazado_294" data-name="Trazado 294" d="M102.242,275.165c-.717,2.2-13.466,91.853-22.771,131.4S59.819,456.575,58,488.744c-2.086,37-12.246,81.833-12.246,81.833H0s6.434-68.39,12.868-121.851,15.73-119.369,14.3-139.141-5-44.192,0-71.895,15.825-35.006,15.825-35.006l38.821-1.756Z" transform="translate(0 75.423)" fill="#04242d"/>
    <path id="Trazado_295" data-name="Trazado 295" d="M44.065,217.619a9.382,9.382,0,0,0-.708,1.392,27.344,27.344,0,0,0-1.553,4.21,55.65,55.65,0,0,0-1.51,16.388,108.161,108.161,0,0,0,3.763,24.128,77.434,77.434,0,0,0,4.994,13.574,96.582,96.582,0,0,0,8.266,13.12c6.221,8.567,9.292,18.325,11.619,27.139a193.534,193.534,0,0,1,4.342,23.923c.844,6.882,1.352,12.476,1.732,16.338q.281,2.8.447,4.448a9.538,9.538,0,0,0,.219,1.546,9.584,9.584,0,0,0-.028-1.561q-.1-1.659-.267-4.463c-.265-3.873-.67-9.479-1.43-16.386a183.6,183.6,0,0,0-4.159-24.062,117.021,117.021,0,0,0-4.33-13.784,68.034,68.034,0,0,0-3.194-6.974,72.4,72.4,0,0,0-4.161-6.706,97.258,97.258,0,0,1-8.216-12.993A77.639,77.639,0,0,1,44.908,263.5a110.663,110.663,0,0,1-3.936-23.92,58.243,58.243,0,0,1,1.192-16.267,32.924,32.924,0,0,1,1.37-4.228,9.774,9.774,0,0,0,.531-1.468" transform="translate(15.106 81.688)" fill="#375a64"/>
    <path id="Trazado_296" data-name="Trazado 296" d="M143.032,64.486a1.355,1.355,0,0,1,.624-.741c.528-.217,1.076.238,1.468.655q2.222,2.358,4.442,4.719l-4.386,8.342a11.88,11.88,0,0,1-2.148-12.974" transform="translate(53.297 23.907)" fill="#ffc09d"/>
    <path id="Trazado_297" data-name="Trazado 297" d="M137.224,75.132a5.164,5.164,0,0,1,.575-2.406,2.069,2.069,0,0,1,2.084-1.065,3.139,3.139,0,0,1,1.743,1.6l3.953,6.189L141.1,89.191a23.153,23.153,0,0,1-3.873-14.059" transform="translate(51.498 26.887)" fill="#ffc09d"/>
    <path id="Trazado_298" data-name="Trazado 298" d="M135.836,83.6c.176-.693.6-1.523,1.311-1.462.536.045.869.587,1.115,1.066q1.316,2.573,2.637,5.145l-3.866,6.976a17.346,17.346,0,0,1-1.2-11.725" transform="translate(50.794 30.832)" fill="#ffc09d"/>
    <path id="Trazado_299" data-name="Trazado 299" d="M192.414,67.031l-27.968,69.553a2.953,2.953,0,0,1-3.151,1.822l-28.908-4.071a2.953,2.953,0,0,1-2.366-3.928l24.958-69.123a2.95,2.95,0,0,1,3.111-1.931L190.008,63a2.953,2.953,0,0,1,2.406,4.035" transform="translate(48.74 22.272)" fill="#1a2e35"/>
    <path id="Trazado_300" data-name="Trazado 300" d="M188.678,66.48l-26.407,65.671a.8.8,0,0,1-.849.491l-29.48-4.152a.8.8,0,0,1-.637-1.056l23.545-65.212a.794.794,0,0,1,.838-.519l32.343,3.692a.794.794,0,0,1,.646,1.085" transform="translate(49.271 23.16)" fill="#375a64"/>
    <path id="Trazado_301" data-name="Trazado 301" d="M177.943,103.469l-3.092-32.037s-4.715.058-6.123,6.818-1.462,18.6-1.462,18.6-8.344,3.876-10.793,23.856l-5.656,6.866,13.144,13.166s13.472-25.967,13.981-37.266" transform="translate(56.613 26.814)" fill="#ffc09d"/>
    <path id="Trazado_302" data-name="Trazado 302" d="M31.641,53.1C35.466,26.582,42.234-2.536,80.129.175c0,0,20.25,3.8,31.339,21.031C117.991,31.344,107.09,99.257,98.5,125.58l-71.442,5.627-12.017-3.58S29.262,69.6,31.641,53.1" transform="translate(5.648 0)" fill="#1a2e35"/>
    <path id="Trazado_303" data-name="Trazado 303" d="M75.514,7.925l-2.371-2.26L47.524,15.99a7.151,7.151,0,0,0-6.753,6.924L41,106.389c-.032,5.661,1.1,10.563,4.519,15.075l3.6,4.751c8.2,10.831,25.081,9.94,31.576-1.994a9.043,9.043,0,0,0,.906-2.159,16.76,16.76,0,0,0,.381-1.866c.763-6.716.806-12.539.806-12.539.457-7.373.608-10.4.609-10.33,0,0,15.692-1.8,19.933-21.947,2.11-10.017,1.712-23.8,1.118-37.362-.82-18.771-13.84-30.11-28.928-30.092" transform="translate(15.304 2.126)" fill="#ffc09d"/>
    <path id="Trazado_304" data-name="Trazado 304" d="M66.234,40.884a2.607,2.607,0,0,1-2.642,2.5A2.5,2.5,0,0,1,61.024,40.9a2.611,2.611,0,0,1,2.641-2.5,2.5,2.5,0,0,1,2.569,2.484" transform="translate(22.907 14.414)" fill="#1a2e35"/>
    <path id="Trazado_305" data-name="Trazado 305" d="M85.152,41.414a2.608,2.608,0,0,1-2.642,2.5,2.5,2.5,0,0,1-2.568-2.483,2.61,2.61,0,0,1,2.641-2.5,2.5,2.5,0,0,1,2.569,2.484" transform="translate(30.008 14.613)" fill="#1a2e35"/>
    <path id="Trazado_306" data-name="Trazado 306" d="M87.924,33.907c-.34.323-2.239-1.235-5.042-1.368-2.8-.173-4.927,1.165-5.213.807-.142-.16.219-.756,1.146-1.363a7.151,7.151,0,0,1,4.194-1.066A6.867,6.867,0,0,1,87,32.43c.828.7,1.089,1.333.923,1.477" transform="translate(29.144 11.601)" fill="#1a2e35"/>
    <path id="Trazado_307" data-name="Trazado 307" d="M67.216,34.273c-.371.286-2.1-1.459-4.876-1.879-2.764-.461-5.02.652-5.268.267-.124-.173.292-.729,1.28-1.238a7.151,7.151,0,0,1,4.28-.63,6.88,6.88,0,0,1,3.817,1.916c.748.785.946,1.437.766,1.564" transform="translate(21.416 11.525)" fill="#1a2e35"/>
    <path id="Trazado_308" data-name="Trazado 308" d="M71.6,54.52c-.006-.16,1.752-.373,4.592-.593.719-.039,1.4-.146,1.549-.629a3.647,3.647,0,0,0-.371-2.144L75.527,45.6c-2.55-7.9-4.357-14.391-4.038-14.49s2.646,6.226,5.195,14.131c.612,1.949,1.2,3.806,1.752,5.583a4.153,4.153,0,0,1,.231,2.826,1.8,1.8,0,0,1-1.23.988,4.9,4.9,0,0,1-1.224.109c-2.847.01-4.61-.066-4.613-.226" transform="translate(26.821 11.677)" fill="#1a2e35"/>
    <path id="Trazado_309" data-name="Trazado 309" d="M79.08,74.661a51.71,51.71,0,0,1-26.828-8.617s6.131,14.4,26.549,13.517Z" transform="translate(19.614 24.791)" fill="#ff9b6c"/>
    <path id="Trazado_310" data-name="Trazado 310" d="M72.758,53.573a5.054,5.054,0,0,0-4.433-2.1,4.61,4.61,0,0,0-3.268,1.547,2.924,2.924,0,0,0-.391,3.328,3.392,3.392,0,0,0,3.627,1.113A10.6,10.6,0,0,0,71.983,55.5a3.078,3.078,0,0,0,.842-.789.934.934,0,0,0,.048-1.043" transform="translate(24.139 19.318)" fill="#ff9b6c"/>
    <path id="Trazado_311" data-name="Trazado 311" d="M65.64,49.238c.457,0,.311,3.04,2.806,5.328s5.749,2.118,5.752,2.543c.033.194-.752.556-2.122.524a7.583,7.583,0,0,1-4.81-1.952,6.6,6.6,0,0,1-2.158-4.458c-.052-1.276.325-2.012.532-1.986" transform="translate(24.438 18.482)" fill="#1a2e35"/>
    <path id="Trazado_312" data-name="Trazado 312" d="M69.9,26.185c-.389.712-3.1-.07-6.416-.176-3.313-.173-6.082.377-6.411-.366-.143-.353.424-.992,1.6-1.56a11.158,11.158,0,0,1,9.772.413c1.12.664,1.63,1.349,1.458,1.689" transform="translate(21.415 8.691)" fill="#1a2e35"/>
    <path id="Trazado_313" data-name="Trazado 313" d="M87.421,25.2c-.524.612-2.422-.146-4.742-.293-2.313-.228-4.308.212-4.726-.476-.183-.333.158-.955,1.048-1.514a6.877,6.877,0,0,1,7.629.619c.788.7,1.023,1.364.791,1.664" transform="translate(29.243 8.273)" fill="#1a2e35"/>
    <path id="Trazado_314" data-name="Trazado 314" d="M42.233,58.912S56.584,63.38,64.707,27.96c2.775-12.113,14-21.921,14-21.921l-4.552-1.37S45.856,12.642,45.38,13s-7.141,14.637-7.141,14.637Z" transform="translate(14.354 1.753)" fill="#1a2e35"/>
    <path id="Trazado_315" data-name="Trazado 315" d="M47.738,44.732c.072-1.512-1.5-5.165-2.979-5.473C40.8,38.439,33.6,38.4,33.025,48.521,32.239,62.36,46.3,60.295,46.342,59.9c.037-.308,1.147-9.944,1.4-15.166" transform="translate(12.385 14.614)" fill="#ffc09d"/>
    <path id="Trazado_316" data-name="Trazado 316" d="M41.452,53.22c-.058-.048-.25.155-.668.319a2.416,2.416,0,0,1-1.8-.066c-1.432-.619-2.531-3.011-2.456-5.508a7.981,7.981,0,0,1,.871-3.414A2.784,2.784,0,0,1,39.312,42.8a1.229,1.229,0,0,1,1.385.74c.164.4.061.67.132.7.037.037.309-.215.231-.792a1.539,1.539,0,0,0-.5-.9,1.833,1.833,0,0,0-1.313-.428,3.391,3.391,0,0,0-2.639,2,8.178,8.178,0,0,0-1.055,3.81c-.07,2.793,1.209,5.484,3.177,6.175a2.589,2.589,0,0,0,2.227-.241c.447-.318.538-.623.491-.651" transform="translate(13.346 15.81)" fill="#ff9b6c"/>
    <path id="Trazado_317" data-name="Trazado 317" d="M114.915,107.175c-4.876,7.8-9.577,21.956-9.577,21.956l12.447,16.228s21.111-11.008,27.1-14.568a12.134,12.134,0,0,1,5.154-1.806c3.544-.261,3.868-5.492.378-6.163a19.025,19.025,0,0,0-5.656.882,16.548,16.548,0,0,1-6.793.979s1.014-1.146,3-3.979c2.168-3.085,11.876-12.977,14.974-17.872,3.942-6.232,2.3-9.992.147-9.164-2.671,1.029-14.6,17.357-16.572,16.725,0,0-1.747-3.225-3.8-3.716a10.491,10.491,0,0,0-4.108-.051s-.232-2.994-2.136-3.832-4.624.135-4.624.135-.2-2.774-1.7-3.125-4.569,1.507-8.236,7.371" transform="translate(39.541 35.118)" fill="#ffc09d"/>
    <path id="Trazado_318" data-name="Trazado 318" d="M183.715,121.417c-.241.721-34.256,35.549-34.256,35.549s-28.389-31.977-37.031-43.741-17.312-26.188-28.6-28.89S58.4,88.18,58.4,88.18L72.42,130l25.23,34.687s27.264,34.243,40.227,39.524,25.662-2.3,31.182-8.064,38.277-55.549,38.277-55.549Z" transform="translate(21.922 31.412)" fill="#f9c931"/>
    <path id="Trazado_319" data-name="Trazado 319" d="M51.3,247.788l86.061-4.777s-9.266-40.172-17.4-80.381S90.1,84.157,90.1,84.157L11.819,97.721S9,119.376,18.712,158.88c4.478,18.206,15.019,39.352,25.354,65.157L33.752,248.762Z" transform="translate(4.293 31.59)" fill="#f9c931"/>
    <path id="Trazado_320" data-name="Trazado 320" d="M69.953,121.821a9.149,9.149,0,0,0,1.272,1.714l3.671,4.484C78,131.8,82.2,137.1,86.854,142.94S95.8,154.022,99.043,157.7c1.616,1.842,2.953,3.309,3.909,4.293a9.026,9.026,0,0,0,1.551,1.466,9.092,9.092,0,0,0-1.272-1.712q-1.494-1.826-3.671-4.485c-3.1-3.784-7.3-9.076-11.959-14.923s-8.948-11.08-12.189-14.762c-1.616-1.843-2.952-3.309-3.909-4.294a9.174,9.174,0,0,0-1.551-1.466" transform="translate(26.257 45.727)" fill="#1a2e35"/>
    <path id="Trazado_321" data-name="Trazado 321" d="M38,186.524a50.129,50.129,0,0,0,6.437-.776c3.958-.56,9.431-1.294,15.494-1.934s11.57-1.056,15.56-1.331a50.4,50.4,0,0,0,6.456-.58,6.177,6.177,0,0,0-1.743-.133c-1.121-.028-2.744-.016-4.746.037-4.006.1-9.541.417-15.627,1.055s-11.561,1.485-15.5,2.218c-1.971.364-3.559.69-4.65.95a6.171,6.171,0,0,0-1.678.494" transform="translate(14.264 68.226)" fill="#1a2e35"/>
    <path id="Trazado_322" data-name="Trazado 322" d="M12.291,121.472c2.246-8.358,8.245-13.087,9.941-21.574,1.463-7.314-2.264-15.971-.861-23.3,1.368-7.151,4.683-12.744,6.975-19.654,1.971-5.946,4.664-11.7,5.742-17.867.624-3.57.7-7.245,1.712-10.724S40.905,19.02,49.386,6.974L73.6,31.087C69.919,49.322,62.712,53.838,62.9,65.07c.074,4.3,1,8.765-.513,12.79-1.268,3.374-4.169,6.136-4.573,9.717-.552,4.881,3.691,9,4.574,13.828.919,5.021-1.88,9.912-2.635,14.961-1.159,7.753,2.525,15.312,3.918,23.026.675,3.73.747,7.819-1.246,11.041-2.806,4.535-8.647,5.924-13.886,6.915-4.15.785-8.509,1.56-12.526.253s-7.445-5.456-6.406-9.549q-1.529,4.017-3.056,8.036c-4.3,1.788-9.534-.161-12.465-3.78s-1.469-7.983-1.183-12.63-1.825-13.71-.618-18.207" transform="translate(4.472 2.618)" fill="#1a2e35"/>
    <path id="Trazado_323" data-name="Trazado 323" d="M27.879,142.432a14.7,14.7,0,0,1-3.419-4.872,17.7,17.7,0,0,1-1.29-6.84,26.135,26.135,0,0,1,1.822-9.064c1.184-3.251,2.914-6.644,4.628-10.38a37.12,37.12,0,0,0,3.686-12.631,19.862,19.862,0,0,0-.84-7.137,40.558,40.558,0,0,1-1.771-7.06,9.525,9.525,0,0,1,1.972-6.841,32.964,32.964,0,0,1,5.558-5.38A28.054,28.054,0,0,0,43.8,66.52a13.164,13.164,0,0,0,2.161-7.49c-.01-5.133-1.571-9.837-1.166-14.349.331-4.518,2.928-8.281,5.847-11.019a63.671,63.671,0,0,1,9.035-6.8c5.867-3.769,10.157-7.734,12.028-11.242a14.943,14.943,0,0,0,1.62-4.209c.1-.5.132-.9.168-1.161a1.239,1.239,0,0,0,.019-.4,18.189,18.189,0,0,1-2.13,5.581c-1.928,3.374-6.189,7.182-12.073,10.861A62.777,62.777,0,0,0,50.1,33.086c-3.008,2.769-5.8,6.717-6.18,11.519-.432,4.745,1.129,9.508,1.109,14.415a12.219,12.219,0,0,1-2.018,6.972,27.327,27.327,0,0,1-5.4,5.5A33.611,33.611,0,0,0,31.9,77.046a10.479,10.479,0,0,0-2.139,7.492,40.75,40.75,0,0,0,1.826,7.223,18.992,18.992,0,0,1,.839,6.831A36.645,36.645,0,0,1,28.9,110.951c-1.67,3.723-3.379,7.16-4.541,10.476a26.288,26.288,0,0,0-1.719,9.3,17.652,17.652,0,0,0,1.484,6.984,12.328,12.328,0,0,0,2.547,3.723,6.657,6.657,0,0,0,1.213,1" transform="translate(8.494 3.697)" fill="#375a64"/>
  </g>
</svg>
