<svg id="Grupo_118" data-name="Grupo 118" xmlns="http://www.w3.org/2000/svg" xmlns:xlink="http://www.w3.org/1999/xlink" width="457.769" height="710" viewBox="0 0 457.769 710">
  <defs>
    <clipPath id="clip-path">
      <rect id="Rectángulo_154" data-name="Rectángulo 154" width="457.769" height="710" fill="none"/>
    </clipPath>
  </defs>
  <g id="Grupo_117" data-name="Grupo 117" clip-path="url(#clip-path)">
    <path id="Trazado_432" data-name="Trazado 432" d="M105.161,0a353.87,353.87,0,0,1,178,58.236A356.429,356.429,0,0,1,404.579,194.315L105.161,329.644Z" transform="translate(14.86)" fill="#0f0044"/>
    <path id="Trazado_433" data-name="Trazado 433" d="M124.882,27.361A336.823,336.823,0,0,1,294.3,82.792a340.227,340.227,0,0,1,51.052,41.332A340.03,340.03,0,0,0,282.1,70.138,336.823,336.823,0,0,0,112.678,14.707V328.468l12.2-5.516Z" transform="translate(15.922 2.078)" fill="#7368aa"/>
    <path id="Trazado_434" data-name="Trazado 434" d="M105.161,338.984,401.836,473.073A356.766,356.766,0,0,1,280.759,605.428a354.03,354.03,0,0,1-175.6,56.671Z" transform="translate(14.86 47.901)" fill="#006802"/>
    <path id="Trazado_435" data-name="Trazado 435" d="M302.887,582.787a354.037,354.037,0,0,1-175.6,56.67V335.316l-13.417-6.064V652.367A354.039,354.039,0,0,0,289.47,595.7a357.271,357.271,0,0,0,59.744-48.726,357.354,357.354,0,0,1-46.328,35.817" transform="translate(16.091 46.526)" fill="#85d685"/>
    <path id="Trazado_436" data-name="Trazado 436" d="M105.161,335.217v-7.142l309.094-139.7a356.329,356.329,0,0,1-2.392,285.466Z" transform="translate(14.86 26.619)" fill="#dd7403"/>
    <path id="Trazado_437" data-name="Trazado 437" d="M410.567,212.534a352.681,352.681,0,0,1,28.478,132.013c.052-2.561.1-5.123.1-7.694a353.174,353.174,0,0,0-28.576-140.01l-308.259,139.7v7.143l9.431,4.274Z" transform="translate(14.457 27.816)" fill="#ed9740"/>
    <path id="Trazado_438" data-name="Trazado 438" d="M266.13,329.908A133.065,133.065,0,1,1,133.065,196.843,133.065,133.065,0,0,1,266.13,329.908" transform="translate(0 27.816)" fill="#e6e7e8"/>
    <path id="Trazado_439" data-name="Trazado 439" d="M131.43,449A119.86,119.86,0,1,1,251.289,329.142,119.994,119.994,0,0,1,131.43,449" transform="translate(1.635 29.573)" fill="#fff"/>
    <path id="Trazado_440" data-name="Trazado 440" d="M131.741,420.239A102.133,102.133,0,0,1,55.673,249.891,102.146,102.146,0,1,0,196.539,397.009a101.714,101.714,0,0,1-64.8,23.23" transform="translate(2.583 35.312)" fill="#f2f2f2"/>
    <path id="Trazado_441" data-name="Trazado 441" d="M57.01,295.986H51.1v3.241h5.228v3.014H51.1v3.516H57.01v3.127H47.193V292.857H57.01Z" transform="translate(6.669 41.383)"/>
    <path id="Trazado_442" data-name="Trazado 442" d="M58.744,299.365H57.192v-3.242h1.552v-3.1h3.9v3.1h2.557v3.242H62.649v5.114c0,.753.32,1.073,1.187,1.073h1.392v3.311H63.242c-2.648,0-4.5-1.118-4.5-4.429Z" transform="translate(8.082 41.406)"/>
    <path id="Trazado_443" data-name="Trazado 443" d="M71.068,295.579a4.43,4.43,0,0,1,3.926,1.986v-1.8h3.9V308.5h-3.9v-1.8a4.5,4.5,0,0,1-3.95,1.987c-3.1,0-5.592-2.558-5.592-6.575s2.489-6.529,5.616-6.529m1.141,3.4a2.836,2.836,0,0,0-2.785,3.128,2.877,2.877,0,0,0,2.785,3.173,3.175,3.175,0,0,0,0-6.3" transform="translate(9.249 41.768)"/>
    <path id="Trazado_444" data-name="Trazado 444" d="M87.543,295.579c3.127,0,5.615,2.511,5.615,6.529s-2.488,6.575-5.615,6.575a4.58,4.58,0,0,1-3.927-1.964v7.854h-3.9V295.76h3.9v1.8a4.489,4.489,0,0,1,3.927-1.986m-1.165,3.4a3.171,3.171,0,1,0,2.809,3.128,2.857,2.857,0,0,0-2.809-3.128" transform="translate(11.264 41.768)"/>
    <path id="Trazado_445" data-name="Trazado 445" d="M98.227,295.579a4.432,4.432,0,0,1,3.927,1.986v-1.8h3.9V308.5h-3.9v-1.8a4.5,4.5,0,0,1-3.95,1.987c-3.1,0-5.594-2.558-5.594-6.575s2.489-6.529,5.616-6.529m1.142,3.4a2.836,2.836,0,0,0-2.785,3.128,2.877,2.877,0,0,0,2.785,3.173,3.175,3.175,0,0,0,0-6.3" transform="translate(13.087 41.768)"/>
    <path id="Trazado_446" data-name="Trazado 446" d="M112.138,308.684c-3.4,0-5.684-1.9-5.867-4.361h3.859a1.788,1.788,0,0,0,1.963,1.484c1.005,0,1.53-.457,1.53-1.027,0-2.054-6.941-.571-6.941-5.251,0-2.168,1.85-3.949,5.183-3.949,3.288,0,5.114,1.826,5.365,4.337h-3.607a1.681,1.681,0,0,0-1.873-1.438c-.913,0-1.415.365-1.415.982,0,2.033,6.895.593,6.963,5.342,0,2.215-1.963,3.882-5.16,3.882" transform="translate(15.017 41.768)"/>
    <path id="Trazado_447" data-name="Trazado 447" d="M127.206,296.071a4.678,4.678,0,0,1,3.927,1.94V292.1h3.9v16.895h-3.9v-1.827a4.4,4.4,0,0,1-3.927,2.01c-3.127,0-5.616-2.558-5.616-6.575s2.489-6.529,5.616-6.529m1.142,3.4a2.836,2.836,0,0,0-2.785,3.128,2.877,2.877,0,0,0,2.785,3.173,3.175,3.175,0,0,0,0-6.3" transform="translate(17.182 41.276)"/>
    <path id="Trazado_448" data-name="Trazado 448" d="M141.608,308.684a6.142,6.142,0,0,1-6.438-6.552c0-4.041,2.648-6.553,6.438-6.553a6,6,0,0,1,6.347,6.347,9.845,9.845,0,0,1-.067,1.141H139.05a2.363,2.363,0,0,0,2.421,2.444,2.076,2.076,0,0,0,2.033-1.233h4.154a5.954,5.954,0,0,1-6.05,4.407m-2.534-7.786h4.885a2.2,2.2,0,0,0-2.4-2.191,2.413,2.413,0,0,0-2.488,2.191" transform="translate(19.101 41.768)"/>
    <rect id="Rectángulo_148" data-name="Rectángulo 148" width="3.904" height="16.895" transform="translate(173.947 333.373)"/>
    <path id="Trazado_449" data-name="Trazado 449" d="M163.245,295.579a4.432,4.432,0,0,1,3.927,1.986v-1.8h3.9V308.5h-3.9v-1.8a4.5,4.5,0,0,1-3.95,1.987c-3.1,0-5.594-2.558-5.594-6.575s2.489-6.529,5.616-6.529m1.142,3.4a2.836,2.836,0,0,0-2.785,3.128,2.877,2.877,0,0,0,2.785,3.173,3.175,3.175,0,0,0,0-6.3" transform="translate(22.274 41.768)"/>
    <path id="Trazado_450" data-name="Trazado 450" d="M46.622,316.858h4.612l4.5,11.1,4.452-11.1h4.588v16.027h-3.9v-9.612l-3.585,9.612h-3.15l-3.608-9.635v9.635h-3.9Z" transform="translate(6.588 44.775)"/>
    <path id="Trazado_451" data-name="Trazado 451" d="M70.74,332.684a6.142,6.142,0,0,1-6.439-6.552c0-4.041,2.648-6.553,6.439-6.553a6,6,0,0,1,6.347,6.347,9.848,9.848,0,0,1-.068,1.141H68.183A2.362,2.362,0,0,0,70.6,329.51a2.075,2.075,0,0,0,2.032-1.233h4.154a5.954,5.954,0,0,1-6.049,4.407M68.205,324.9h4.886a2.2,2.2,0,0,0-2.4-2.191,2.415,2.415,0,0,0-2.489,2.191" transform="translate(9.086 45.159)"/>
    <path id="Trazado_452" data-name="Trazado 452" d="M78.033,323.365H76.481v-3.242h1.552v-3.1h3.9v3.1h2.557v3.242H81.938v5.114c0,.753.32,1.073,1.187,1.073h1.394v3.311H82.531c-2.648,0-4.5-1.118-4.5-4.429Z" transform="translate(10.807 44.797)"/>
    <path id="Trazado_453" data-name="Trazado 453" d="M91.317,332.684a6.553,6.553,0,1,1,6.668-6.552,6.322,6.322,0,0,1-6.668,6.552m0-3.379c1.394,0,2.693-1.027,2.693-3.173,0-2.17-1.278-3.174-2.648-3.174-1.415,0-2.648,1-2.648,3.174,0,2.146,1.187,3.173,2.6,3.173" transform="translate(11.975 45.159)"/>
    <path id="Trazado_454" data-name="Trazado 454" d="M103.1,320.071a4.678,4.678,0,0,1,3.927,1.94V316.1h3.9v16.895h-3.9v-1.827a4.4,4.4,0,0,1-3.927,2.01c-3.127,0-5.616-2.558-5.616-6.575s2.489-6.529,5.616-6.529m1.142,3.4a2.836,2.836,0,0,0-2.785,3.128,2.877,2.877,0,0,0,2.785,3.173,3.175,3.175,0,0,0,0-6.3" transform="translate(13.775 44.667)"/>
    <path id="Trazado_455" data-name="Trazado 455" d="M117.636,332.684a6.553,6.553,0,1,1,6.668-6.552,6.322,6.322,0,0,1-6.668,6.552m0-3.379c1.394,0,2.693-1.027,2.693-3.173,0-2.17-1.278-3.174-2.648-3.174-1.415,0-2.648,1-2.648,3.174,0,2.146,1.187,3.173,2.6,3.173" transform="translate(15.694 45.159)"/>
    <rect id="Rectángulo_149" data-name="Rectángulo 149" width="3.904" height="16.895" transform="translate(142.071 360.764)"/>
    <path id="Trazado_456" data-name="Trazado 456" d="M136.276,332.684a6.553,6.553,0,1,1,6.666-6.552,6.322,6.322,0,0,1-6.666,6.552m0-3.379c1.392,0,2.693-1.027,2.693-3.173,0-2.17-1.278-3.174-2.648-3.174-1.415,0-2.648,1-2.648,3.174,0,2.146,1.187,3.173,2.6,3.173" transform="translate(18.328 45.159)"/>
    <path id="Trazado_457" data-name="Trazado 457" d="M148.057,319.579a4.409,4.409,0,0,1,3.926,1.986v-1.8h3.9v12.718c0,3.4-1.963,6.3-6.37,6.3-3.789,0-6.256-1.917-6.6-4.954h3.859a2.4,2.4,0,0,0,2.557,1.575c1.485,0,2.648-.776,2.648-2.922v-1.8a4.5,4.5,0,0,1-3.926,2.01c-3.127,0-5.616-2.558-5.616-6.575s2.489-6.529,5.616-6.529m1.141,3.4a2.836,2.836,0,0,0-2.785,3.128,2.877,2.877,0,0,0,2.785,3.173,3.175,3.175,0,0,0,0-6.3" transform="translate(20.128 45.159)"/>
    <path id="Trazado_458" data-name="Trazado 458" d="M161.683,314.3v3.037l-5.5,2.305v-2.695Zm-4.612,6.21h3.9v12.74h-3.9Z" transform="translate(22.07 44.413)"/>
    <path id="Trazado_459" data-name="Trazado 459" d="M168.056,319.579a4.432,4.432,0,0,1,3.927,1.986v-1.8h3.9V332.5h-3.9v-1.8a4.5,4.5,0,0,1-3.95,1.987c-3.1,0-5.594-2.558-5.594-6.575s2.489-6.529,5.616-6.529m1.142,3.4a2.836,2.836,0,0,0-2.785,3.128,2.877,2.877,0,0,0,2.785,3.173,3.175,3.175,0,0,0,0-6.3" transform="translate(22.954 45.159)"/>
    <path id="Trazado_460" data-name="Trazado 460" d="M158.476,96.678h-4.732v2.594h4.184v2.412h-4.184V104.5h4.732V107H150.62V94.175h7.856Z" transform="translate(21.284 13.308)" fill="#fff"/>
    <path id="Trazado_461" data-name="Trazado 461" d="M159.863,99.382h-1.242V96.788h1.242V94.3h3.124v2.485h2.046v2.594h-2.046v4.092c0,.6.256.859.951.859h1.114v2.649h-1.59c-2.118,0-3.6-.895-3.6-3.545Z" transform="translate(22.414 13.326)" fill="#fff"/>
    <path id="Trazado_462" data-name="Trazado 462" d="M169.721,96.352a3.55,3.55,0,0,1,3.143,1.59V96.5h3.123v10.194h-3.123v-1.444a3.6,3.6,0,0,1-3.16,1.59c-2.485,0-4.476-2.046-4.476-5.261s1.992-5.225,4.493-5.225m.914,2.722a2.27,2.27,0,0,0-2.229,2.5,2.3,2.3,0,0,0,2.229,2.539,2.54,2.54,0,0,0,0-5.042" transform="translate(23.348 13.615)" fill="#fff"/>
    <path id="Trazado_463" data-name="Trazado 463" d="M182.9,96.352c2.5,0,4.494,2.01,4.494,5.225s-1.992,5.261-4.494,5.261a3.665,3.665,0,0,1-3.142-1.572v6.285h-3.124V96.5h3.124v1.444a3.6,3.6,0,0,1,3.142-1.59m-.931,2.722a2.538,2.538,0,1,0,2.247,2.5,2.286,2.286,0,0,0-2.247-2.5" transform="translate(24.96 13.615)" fill="#fff"/>
    <path id="Trazado_464" data-name="Trazado 464" d="M191.45,96.352a3.546,3.546,0,0,1,3.141,1.59V96.5h3.125v10.194h-3.125v-1.444a3.6,3.6,0,0,1-3.159,1.59c-2.485,0-4.475-2.046-4.475-5.261s1.99-5.225,4.493-5.225m.913,2.722a2.27,2.27,0,0,0-2.228,2.5,2.3,2.3,0,0,0,2.228,2.539,2.54,2.54,0,0,0,0-5.042" transform="translate(26.419 13.615)" fill="#fff"/>
    <path id="Trazado_465" data-name="Trazado 465" d="M202.579,106.838c-2.723,0-4.549-1.517-4.7-3.489h3.087a1.43,1.43,0,0,0,1.57,1.187c.8,0,1.225-.365,1.225-.822,0-1.645-5.554-.457-5.554-4.2,0-1.736,1.48-3.161,4.146-3.161,2.631,0,4.093,1.462,4.292,3.472h-2.885a1.344,1.344,0,0,0-1.5-1.152c-.73,0-1.133.293-1.133.786,0,1.625,5.517.475,5.573,4.274,0,1.772-1.572,3.105-4.128,3.105" transform="translate(27.963 13.615)" fill="#fff"/>
    <path id="Trazado_466" data-name="Trazado 466" d="M214.634,96.746a3.737,3.737,0,0,1,3.141,1.553V93.567H220.9v13.519h-3.125v-1.461a3.525,3.525,0,0,1-3.141,1.607c-2.5,0-4.493-2.046-4.493-5.261s1.99-5.225,4.493-5.225m.913,2.722a2.27,2.27,0,0,0-2.228,2.5,2.3,2.3,0,0,0,2.228,2.539,2.54,2.54,0,0,0,0-5.042" transform="translate(29.695 13.222)" fill="#fff"/>
    <path id="Trazado_467" data-name="Trazado 467" d="M226.155,106.838a5.243,5.243,0,0,1,0-10.485,4.8,4.8,0,0,1,5.079,5.078,7.9,7.9,0,0,1-.055.914h-7.07a1.89,1.89,0,0,0,1.938,1.954,1.66,1.66,0,0,0,1.624-.986H231a4.765,4.765,0,0,1-4.841,3.525m-2.028-6.229h3.91a1.763,1.763,0,0,0-1.919-1.754,1.932,1.932,0,0,0-1.992,1.754" transform="translate(31.23 13.615)" fill="#fff"/>
    <path id="Trazado_468" data-name="Trazado 468" d="M246.322,100.588c0,3.8-2.63,6.412-6.721,6.412h-4.806V94.176H239.6c4.092,0,6.721,2.593,6.721,6.412M239.4,104.3a3.726,3.726,0,1,0,0-7.453H237.92V104.3Z" transform="translate(33.179 13.308)" fill="#fff"/>
    <path id="Trazado_469" data-name="Trazado 469" d="M246.172,94.289a1.863,1.863,0,1,1,1.863,1.681,1.728,1.728,0,0,1-1.863-1.681m.291,2.74h3.123v10.194h-3.123Z" transform="translate(34.786 13.084)" fill="#fff"/>
    <path id="Trazado_470" data-name="Trazado 470" d="M255.362,106.838c-2.723,0-4.549-1.517-4.7-3.489h3.087a1.43,1.43,0,0,0,1.57,1.187c.8,0,1.225-.365,1.225-.822,0-1.645-5.554-.457-5.554-4.2,0-1.736,1.48-3.161,4.146-3.161,2.631,0,4.093,1.462,4.292,3.472h-2.885a1.344,1.344,0,0,0-1.5-1.152c-.73,0-1.133.293-1.133.786,0,1.625,5.517.475,5.573,4.274,0,1.772-1.572,3.105-4.128,3.105" transform="translate(35.421 13.615)" fill="#fff"/>
    <path id="Trazado_471" data-name="Trazado 471" d="M264.682,106.838a5.243,5.243,0,0,1,0-10.485,4.8,4.8,0,0,1,5.079,5.078,8.145,8.145,0,0,1-.054.914h-7.072a1.89,1.89,0,0,0,1.938,1.954,1.659,1.659,0,0,0,1.624-.986h3.327a4.766,4.766,0,0,1-4.843,3.525m-2.028-6.229h3.91a1.762,1.762,0,0,0-1.917-1.754,1.934,1.934,0,0,0-1.993,1.754" transform="translate(36.674 13.615)" fill="#fff"/>
    <path id="Trazado_472" data-name="Trazado 472" d="M273.054,107.115h-3.123V96.921h3.123v1.352a3.738,3.738,0,0,1,3.087-1.462c2.358,0,3.928,1.608,3.928,4.347v5.956h-3.106V101.58a1.964,1.964,0,1,0-3.91,0Zm1.206-13.756c1.1,0,1.663.822,2.394.822.419,0,.711-.256.784-.822h1.607c-.309,1.919-1.242,2.7-2.521,2.7-1.095,0-1.662-.823-2.391-.823-.421,0-.713.257-.8.823h-1.59c.31-1.919,1.223-2.7,2.521-2.7" transform="translate(38.144 13.192)" fill="#fff"/>
    <path id="Trazado_473" data-name="Trazado 473" d="M285.432,106.838a5.244,5.244,0,1,1,5.334-5.243,5.058,5.058,0,0,1-5.334,5.243m0-2.7c1.115,0,2.156-.823,2.156-2.539,0-1.736-1.024-2.539-2.121-2.539-1.132,0-2.117.8-2.117,2.539,0,1.717.95,2.539,2.082,2.539" transform="translate(39.591 13.615)" fill="#fff"/>
    <rect id="Rectángulo_150" data-name="Rectángulo 150" width="3.318" height="13.619" transform="translate(279.155 349.559)" fill="#fff"/>
    <path id="Trazado_474" data-name="Trazado 474" d="M264.526,313.688a2.079,2.079,0,1,0-4.152,0v5.878h-3.3v-5.878a2.079,2.079,0,1,0-4.152,0v5.878h-3.317V308.742h3.317V310.1a3.82,3.82,0,0,1,3.163-1.475,4.045,4.045,0,0,1,3.686,2.018,4.353,4.353,0,0,1,3.646-2.018c2.677,0,4.4,1.707,4.4,4.618v6.324h-3.3Z" transform="translate(35.272 43.611)" fill="#fff"/>
    <path id="Trazado_475" data-name="Trazado 475" d="M274.265,308.59c2.657,0,4.773,2.134,4.773,5.549s-2.116,5.587-4.773,5.587a3.894,3.894,0,0,1-3.337-1.667v6.673H267.61V308.746h3.318v1.532a3.817,3.817,0,0,1,3.337-1.688m-.99,2.891a2.695,2.695,0,1,0,2.386,2.658,2.428,2.428,0,0,0-2.386-2.658" transform="translate(37.816 43.606)" fill="#fff"/>
    <rect id="Rectángulo_151" data-name="Rectángulo 151" width="3.318" height="14.357" transform="translate(318.6 348.822)" fill="#fff"/>
    <path id="Trazado_476" data-name="Trazado 476" d="M289.062,319.726a5.568,5.568,0,0,1,0-11.135,5.1,5.1,0,0,1,5.393,5.393,8.387,8.387,0,0,1-.058.97h-7.509a2.008,2.008,0,0,0,2.057,2.076,1.762,1.762,0,0,0,1.727-1.048H294.2a5.058,5.058,0,0,1-5.14,3.743m-2.154-6.615h4.152a1.872,1.872,0,0,0-2.037-1.863,2.051,2.051,0,0,0-2.115,1.863" transform="translate(40.074 43.607)" fill="#fff"/>
    <path id="Trazado_477" data-name="Trazado 477" d="M309.558,313.688a2.079,2.079,0,1,0-4.152,0v5.878h-3.3v-5.878a2.079,2.079,0,1,0-4.152,0v5.878H294.64V308.742h3.317V310.1a3.82,3.82,0,0,1,3.163-1.475,4.045,4.045,0,0,1,3.686,2.018,4.353,4.353,0,0,1,3.646-2.018c2.678,0,4.4,1.707,4.4,4.618v6.324h-3.3Z" transform="translate(41.635 43.611)" fill="#fff"/>
    <path id="Trazado_478" data-name="Trazado 478" d="M317.536,319.726a5.568,5.568,0,0,1,0-11.135,5.1,5.1,0,0,1,5.393,5.393,8.387,8.387,0,0,1-.058.97h-7.509a2.008,2.008,0,0,0,2.057,2.076,1.762,1.762,0,0,0,1.727-1.048h3.531a5.058,5.058,0,0,1-5.14,3.743m-2.154-6.615h4.152a1.872,1.872,0,0,0-2.037-1.863,2.051,2.051,0,0,0-2.115,1.863" transform="translate(44.097 43.607)" fill="#fff"/>
    <path id="Trazado_479" data-name="Trazado 479" d="M330.585,313.688a2.086,2.086,0,1,0-4.152,0v5.878h-3.318V308.742h3.318v1.435a3.973,3.973,0,0,1,3.279-1.552c2.5,0,4.171,1.707,4.171,4.618v6.324h-3.3Z" transform="translate(45.659 43.611)" fill="#fff"/>
    <path id="Trazado_480" data-name="Trazado 480" d="M335.2,311.808h-1.319v-2.755H335.2v-2.639h3.317v2.639h2.174v2.755h-2.174v4.346c0,.64.273.911,1.009.911H340.7v2.813h-1.687c-2.251,0-3.822-.951-3.822-3.764Z" transform="translate(47.179 43.299)" fill="#fff"/>
    <path id="Trazado_481" data-name="Trazado 481" d="M345.669,308.59A3.766,3.766,0,0,1,349,310.278v-1.532h3.318v10.824H349v-1.532a3.824,3.824,0,0,1-3.355,1.687c-2.639,0-4.752-2.172-4.752-5.587s2.114-5.549,4.772-5.549m.97,2.891a2.41,2.41,0,0,0-2.367,2.658,2.445,2.445,0,0,0,2.367,2.7,2.7,2.7,0,0,0,0-5.354" transform="translate(48.172 43.606)" fill="#fff"/>
    <path id="Trazado_482" data-name="Trazado 482" d="M357.871,308.59a4.96,4.96,0,0,1,5.2,4.074H359.54a1.709,1.709,0,0,0-1.727-1.242c-1.184,0-2,.931-2,2.735s.815,2.736,2,2.736a1.684,1.684,0,0,0,1.727-1.242h3.531a5.028,5.028,0,0,1-5.2,4.074,5.57,5.57,0,0,1,0-11.136" transform="translate(49.803 43.606)" fill="#fff"/>
    <path id="Trazado_483" data-name="Trazado 483" d="M363.031,306.4a1.978,1.978,0,1,1,1.978,1.785,1.835,1.835,0,0,1-1.978-1.785m.309,2.91h3.318v10.825H363.34Z" transform="translate(51.299 43.042)" fill="#fff"/>
    <path id="Trazado_484" data-name="Trazado 484" d="M373.327,320.37a5.568,5.568,0,1,1,5.664-5.568,5.372,5.372,0,0,1-5.664,5.568m0-2.872c1.184,0,2.289-.873,2.289-2.7,0-1.843-1.087-2.7-2.252-2.7-1.2,0-2.25.854-2.25,2.7,0,1.824,1.009,2.7,2.212,2.7m2.561-13.464v2.581l-4.677,1.96v-2.289Z" transform="translate(51.965 42.963)" fill="#fff"/>
    <path id="Trazado_485" data-name="Trazado 485" d="M386.616,313.688a2.086,2.086,0,1,0-4.152,0v5.878h-3.318V308.742h3.318v1.435a3.973,3.973,0,0,1,3.279-1.552c2.5,0,4.172,1.707,4.172,4.618v6.324h-3.3Z" transform="translate(53.577 43.611)" fill="#fff"/>
    <path id="Trazado_486" data-name="Trazado 486" d="M175.878,485.846h3.511l-4.83,13.619h-4.152l-4.83-13.619h3.53l3.376,10.282Z" transform="translate(23.397 68.654)" fill="#fff"/>
    <path id="Trazado_487" data-name="Trazado 487" d="M183.081,488.158a3.766,3.766,0,0,1,3.336,1.688v-1.532h3.318v10.824h-3.318v-1.533a3.825,3.825,0,0,1-3.355,1.688c-2.639,0-4.752-2.173-4.752-5.588s2.114-5.548,4.772-5.548m.97,2.891a2.409,2.409,0,0,0-2.367,2.657,2.445,2.445,0,0,0,2.367,2.7,2.7,2.7,0,0,0,0-5.354" transform="translate(25.197 68.981)" fill="#fff"/>
    <rect id="Rectángulo_152" data-name="Rectángulo 152" width="3.317" height="14.355" transform="translate(217.338 553.763)" fill="#fff"/>
    <path id="Trazado_488" data-name="Trazado 488" d="M200.454,499.294a5.568,5.568,0,1,1,5.664-5.567,5.371,5.371,0,0,1-5.664,5.567m0-2.872c1.182,0,2.289-.873,2.289-2.7,0-1.844-1.087-2.7-2.252-2.7-1.2,0-2.25.854-2.25,2.7,0,1.823,1.008,2.7,2.212,2.7" transform="translate(27.536 68.981)" fill="#fff"/>
    <path id="Trazado_489" data-name="Trazado 489" d="M209.59,499.134h-3.317V488.31h3.317v1.8a4.036,4.036,0,0,1,3.4-1.921V491.7h-.913c-1.57,0-2.483.543-2.483,2.406Z" transform="translate(29.148 68.986)" fill="#fff"/>
    <path id="Trazado_490" data-name="Trazado 490" d="M217.744,488.158a3.766,3.766,0,0,1,3.336,1.688v-1.532H224.4v10.824H221.08v-1.533a3.825,3.825,0,0,1-3.355,1.688c-2.639,0-4.752-2.173-4.752-5.588s2.114-5.548,4.772-5.548m.97,2.891a2.409,2.409,0,0,0-2.367,2.657,2.445,2.445,0,0,0,2.367,2.7,2.7,2.7,0,0,0,0-5.354" transform="translate(30.095 68.981)" fill="#fff"/>
    <path id="Trazado_491" data-name="Trazado 491" d="M229.945,488.158a4.961,4.961,0,0,1,5.2,4.074h-3.531a1.709,1.709,0,0,0-1.727-1.242c-1.184,0-2,.931-2,2.736s.815,2.735,2,2.735a1.683,1.683,0,0,0,1.727-1.242h3.531a5.027,5.027,0,0,1-5.2,4.074,5.57,5.57,0,0,1,0-11.136" transform="translate(31.726 68.981)" fill="#fff"/>
    <path id="Trazado_492" data-name="Trazado 492" d="M235.1,485.967a1.979,1.979,0,1,1,1.98,1.785,1.836,1.836,0,0,1-1.98-1.785m.312,2.91h3.317V499.7h-3.317Z" transform="translate(33.222 68.416)" fill="#fff"/>
    <path id="Trazado_493" data-name="Trazado 493" d="M245.4,499.938a5.568,5.568,0,1,1,5.664-5.567,5.371,5.371,0,0,1-5.664,5.567m0-2.872c1.182,0,2.289-.873,2.289-2.7,0-1.844-1.087-2.7-2.252-2.7-1.2,0-2.251.854-2.251,2.7,0,1.823,1.009,2.7,2.213,2.7m2.56-13.464v2.581l-4.676,1.96v-2.288Z" transform="translate(33.888 68.337)" fill="#fff"/>
    <path id="Trazado_494" data-name="Trazado 494" d="M258.69,493.255a2.086,2.086,0,1,0-4.152,0v5.878H251.22V488.309h3.318v1.436a3.971,3.971,0,0,1,3.279-1.553c2.5,0,4.171,1.708,4.171,4.618v6.324h-3.3Z" transform="translate(35.499 68.986)" fill="#fff"/>
    <rect id="Rectángulo_153" data-name="Rectángulo 153" width="2.397" height="11.95" transform="translate(188.906 141.908)" fill="#fff"/>
    <path id="Trazado_495" data-name="Trazado 495" d="M173.5,126.738a3.888,3.888,0,0,1,3.1,1.472v-4.5h2.431v12.669h-2.431v-1.4a3.58,3.58,0,0,1-3.115,1.557c-2.414,0-4.331-1.968-4.331-4.929s1.917-4.862,4.348-4.862m.6,2.106a2.53,2.53,0,0,0-2.5,2.756,2.592,2.592,0,0,0,2.5,2.825,2.805,2.805,0,0,0,0-5.581" transform="translate(23.902 17.481)" fill="#fff"/>
    <path id="Trazado_496" data-name="Trazado 496" d="M184.075,136.154a4.9,4.9,0,0,1,0-9.791,4.452,4.452,0,0,1,4.674,4.691,5.729,5.729,0,0,1-.067.924h-6.935a2.221,2.221,0,0,0,2.277,2.191,1.956,1.956,0,0,0,1.9-1.147h2.584a4.408,4.408,0,0,1-4.434,3.132m-2.31-5.785h4.5a2.106,2.106,0,0,0-2.259-2.037,2.2,2.2,0,0,0-2.243,2.037" transform="translate(25.339 17.856)" fill="#fff"/>
    <path id="Trazado_497" data-name="Trazado 497" d="M195.753,130.761a2.133,2.133,0,1,0-4.246,0V136h-2.4v-9.484h2.4V127.7a3.544,3.544,0,0,1,2.859-1.318c2.21,0,3.785,1.438,3.785,4.057V136h-2.4Z" transform="translate(26.723 17.858)" fill="#fff"/>
    <path id="Trazado_498" data-name="Trazado 498" d="M199.5,128.756h-1.13v-1.969h1.13v-2.345h2.414v2.345h2.123v1.969h-2.123v4.588c0,.633.257.907,1.01.907h1.113v2.02h-1.507c-1.816,0-3.03-.77-3.03-2.945Z" transform="translate(28.031 17.585)" fill="#fff"/>
    <path id="Trazado_499" data-name="Trazado 499" d="M204.622,124.452a1.474,1.474,0,1,1,1.472,1.4,1.406,1.406,0,0,1-1.472-1.4m.257,2.534h2.4v9.484h-2.4Z" transform="translate(28.915 17.388)" fill="#fff"/>
    <path id="Trazado_500" data-name="Trazado 500" d="M209.376,128.939H208.3V126.97h1.079v-.479c0-2.328,1.318-3.406,3.989-3.337v2.019c-1.164-.034-1.558.342-1.558,1.4v.394h1.661v1.969h-1.661v7.516h-2.431Z" transform="translate(29.434 17.402)" fill="#fff"/>
    <path id="Trazado_501" data-name="Trazado 501" d="M213.966,124.452a1.475,1.475,0,1,1,1.472,1.4,1.405,1.405,0,0,1-1.472-1.4m.258,2.534h2.4v9.484h-2.4Z" transform="translate(30.235 17.388)" fill="#fff"/>
    <path id="Trazado_502" data-name="Trazado 502" d="M222.512,126.363a4.231,4.231,0,0,1,4.468,3.355h-2.585a1.863,1.863,0,0,0-1.9-1.318c-1.335,0-2.226,1.01-2.226,2.859s.89,2.842,2.226,2.842a1.809,1.809,0,0,0,1.9-1.3h2.585a4.326,4.326,0,0,1-4.468,3.355,4.9,4.9,0,0,1,0-9.792" transform="translate(30.78 17.856)" fill="#fff"/>
    <path id="Trazado_503" data-name="Trazado 503" d="M231.182,126.363a3.751,3.751,0,0,1,3.133,1.507v-1.352h2.413V136h-2.413v-1.387a3.743,3.743,0,0,1-3.15,1.54c-2.4,0-4.314-1.968-4.314-4.929s1.917-4.862,4.331-4.862m.616,2.106a2.53,2.53,0,0,0-2.5,2.756,2.592,2.592,0,0,0,2.5,2.825,2.805,2.805,0,0,0,0-5.581" transform="translate(32.056 17.856)" fill="#fff"/>
    <path id="Trazado_504" data-name="Trazado 504" d="M241.713,126.363a4.23,4.23,0,0,1,4.466,3.355h-2.585a1.863,1.863,0,0,0-1.9-1.318c-1.335,0-2.226,1.01-2.226,2.859s.89,2.842,2.226,2.842a1.808,1.808,0,0,0,1.9-1.3h2.585a4.324,4.324,0,0,1-4.466,3.355,4.9,4.9,0,0,1,0-9.792" transform="translate(33.493 17.856)" fill="#fff"/>
    <path id="Trazado_505" data-name="Trazado 505" d="M246.366,124.452a1.474,1.474,0,1,1,1.472,1.4,1.405,1.405,0,0,1-1.472-1.4m.257,2.534h2.4v9.484h-2.4Z" transform="translate(34.814 17.388)" fill="#fff"/>
    <path id="Trazado_506" data-name="Trazado 506" d="M255.047,136.7a4.9,4.9,0,1,1,4.948-4.9,4.741,4.741,0,0,1-4.948,4.9m0-2.087a2.525,2.525,0,0,0,2.482-2.808,2.492,2.492,0,0,0-2.448-2.808c-1.267,0-2.414.907-2.414,2.808,0,1.883,1.1,2.808,2.38,2.808m2.037-12.086v1.952l-3.938,1.8V124.56Z" transform="translate(35.36 17.314)" fill="#fff"/>
    <path id="Trazado_507" data-name="Trazado 507" d="M266.972,130.761a2.133,2.133,0,1,0-4.246,0V136h-2.4v-9.484h2.4V127.7a3.544,3.544,0,0,1,2.859-1.318c2.21,0,3.785,1.438,3.785,4.057V136h-2.4Z" transform="translate(36.787 17.858)" fill="#fff"/>
    <path id="Trazado_508" data-name="Trazado 508" d="M165.517,142.338h2.722l3.8,8.885,3.8-8.885h2.7v11.949h-2.4v-7.772l-3.2,7.772h-1.815l-3.219-7.772v7.772h-2.4Z" transform="translate(23.389 20.114)" fill="#fff"/>
    <path id="Trazado_509" data-name="Trazado 509" d="M183.221,154.154a4.9,4.9,0,0,1,0-9.791,4.453,4.453,0,0,1,4.674,4.691,5.731,5.731,0,0,1-.068.924h-6.933a2.219,2.219,0,0,0,2.276,2.191,1.955,1.955,0,0,0,1.9-1.147h2.585a4.408,4.408,0,0,1-4.434,3.132m-2.311-5.785h4.5a2.107,2.107,0,0,0-2.26-2.037,2.2,2.2,0,0,0-2.243,2.037" transform="translate(25.218 20.4)" fill="#fff"/>
    <path id="Trazado_510" data-name="Trazado 510" d="M192.065,144.738a3.891,3.891,0,0,1,3.1,1.472v-4.5h2.431v12.669h-2.431v-1.4a3.582,3.582,0,0,1-3.115,1.557c-2.414,0-4.331-1.968-4.331-4.929s1.917-4.862,4.348-4.862m.6,2.106a2.529,2.529,0,0,0-2.5,2.756,2.592,2.592,0,0,0,2.5,2.825,2.805,2.805,0,0,0,0-5.581" transform="translate(26.526 20.025)" fill="#fff"/>
    <path id="Trazado_511" data-name="Trazado 511" d="M198.2,142.452a1.474,1.474,0,1,1,1.472,1.4,1.405,1.405,0,0,1-1.472-1.4m.257,2.534h2.4v9.484h-2.4Z" transform="translate(28.008 19.931)" fill="#fff"/>
    <path id="Trazado_512" data-name="Trazado 512" d="M206.748,144.363a4.231,4.231,0,0,1,4.468,3.355h-2.585a1.863,1.863,0,0,0-1.9-1.318c-1.335,0-2.226,1.01-2.226,2.859s.89,2.842,2.226,2.842a1.809,1.809,0,0,0,1.9-1.3h2.585a4.326,4.326,0,0,1-4.468,3.355,4.9,4.9,0,0,1,0-9.792" transform="translate(28.552 20.4)" fill="#fff"/>
    <path id="Trazado_513" data-name="Trazado 513" d="M211.4,142.452a1.473,1.473,0,1,1,1.472,1.4,1.406,1.406,0,0,1-1.472-1.4m.257,2.534h2.4v9.484h-2.4Z" transform="translate(29.873 19.931)" fill="#fff"/>
    <path id="Trazado_514" data-name="Trazado 514" d="M220.082,154.7a4.9,4.9,0,1,1,4.948-4.9,4.741,4.741,0,0,1-4.948,4.9m0-2.087a2.525,2.525,0,0,0,2.484-2.808,2.492,2.492,0,0,0-2.449-2.808c-1.266,0-2.414.907-2.414,2.808,0,1.883,1.1,2.808,2.38,2.808m2.037-12.086v1.952l-3.936,1.8V142.56Z" transform="translate(30.42 19.857)" fill="#fff"/>
    <path id="Trazado_515" data-name="Trazado 515" d="M232.008,148.761a2.133,2.133,0,1,0-4.246,0V154h-2.4v-9.484h2.4V145.7a3.543,3.543,0,0,1,2.859-1.318c2.208,0,3.783,1.438,3.783,4.057V154h-2.4Z" transform="translate(31.846 20.402)" fill="#fff"/>
    <path id="Trazado_516" data-name="Trazado 516" d="M165.517,160.338h2.722l3.8,8.885,3.8-8.885h2.7v11.949h-2.4v-7.772l-3.2,7.772h-1.815l-3.219-7.772v7.772h-2.4Z" transform="translate(23.389 22.657)" fill="#fff"/>
    <path id="Trazado_517" data-name="Trazado 517" d="M178.777,160.452a1.474,1.474,0,1,1,1.472,1.4,1.406,1.406,0,0,1-1.472-1.4m.258,2.534h2.4v9.484h-2.4Z" transform="translate(25.263 22.475)" fill="#fff"/>
    <path id="Trazado_518" data-name="Trazado 518" d="M183.642,164.756h-1.129v-1.969h1.129v-2.345h2.414v2.345h2.124v1.969h-2.124v4.588c0,.633.258.907,1.01.907h1.114v2.02h-1.508c-1.815,0-3.03-.77-3.03-2.945Z" transform="translate(25.791 22.672)" fill="#fff"/>
    <path id="Trazado_519" data-name="Trazado 519" d="M188.767,160.452a1.473,1.473,0,1,1,1.472,1.4,1.406,1.406,0,0,1-1.472-1.4m.257,2.534h2.4v9.484h-2.4Z" transform="translate(26.674 22.475)" fill="#fff"/>
    <path id="Trazado_520" data-name="Trazado 520" d="M196.953,162.363a3.711,3.711,0,0,1,3.133,1.507v-1.352H202.5v9.553a4.333,4.333,0,0,1-4.69,4.6c-2.671,0-4.537-1.335-4.776-3.508h2.38a2.45,2.45,0,0,0,4.674-1.1V170.6a3.74,3.74,0,0,1-3.133,1.557c-2.414,0-4.331-1.968-4.331-4.929s1.917-4.862,4.331-4.862m.616,2.106a2.53,2.53,0,0,0-2.5,2.756,2.592,2.592,0,0,0,2.5,2.825,2.805,2.805,0,0,0,0-5.581" transform="translate(27.219 22.943)" fill="#fff"/>
    <path id="Trazado_521" data-name="Trazado 521" d="M207.123,162.363a3.751,3.751,0,0,1,3.133,1.507v-1.352h2.413V172h-2.413v-1.387a3.743,3.743,0,0,1-3.15,1.54c-2.4,0-4.314-1.968-4.314-4.929s1.917-4.862,4.331-4.862m.616,2.106a2.53,2.53,0,0,0-2.5,2.756,2.592,2.592,0,0,0,2.5,2.825,2.805,2.805,0,0,0,0-5.581" transform="translate(28.656 22.943)" fill="#fff"/>
    <path id="Trazado_522" data-name="Trazado 522" d="M217.653,162.363a4.23,4.23,0,0,1,4.467,3.355h-2.585a1.863,1.863,0,0,0-1.9-1.318c-1.335,0-2.226,1.01-2.226,2.859s.89,2.842,2.226,2.842a1.808,1.808,0,0,0,1.9-1.3h2.585a4.325,4.325,0,0,1-4.467,3.355,4.9,4.9,0,0,1,0-9.792" transform="translate(30.093 22.943)" fill="#fff"/>
    <path id="Trazado_523" data-name="Trazado 523" d="M222.306,160.452a1.474,1.474,0,1,1,1.472,1.4,1.405,1.405,0,0,1-1.472-1.4m.258,2.534h2.4v9.484h-2.4Z" transform="translate(31.414 22.475)" fill="#fff"/>
    <path id="Trazado_524" data-name="Trazado 524" d="M230.987,172.7a4.9,4.9,0,1,1,4.948-4.9,4.741,4.741,0,0,1-4.948,4.9m0-2.087a2.524,2.524,0,0,0,2.482-2.808,2.492,2.492,0,0,0-2.448-2.808c-1.267,0-2.414.907-2.414,2.808,0,1.883,1.1,2.808,2.38,2.808m2.037-12.086v1.952l-3.937,1.8V160.56Z" transform="translate(31.961 22.401)" fill="#fff"/>
    <path id="Trazado_525" data-name="Trazado 525" d="M242.912,166.761a2.133,2.133,0,1,0-4.246,0V172h-2.4v-9.484h2.4V163.7a3.544,3.544,0,0,1,2.859-1.318c2.21,0,3.785,1.438,3.785,4.057V172h-2.4Z" transform="translate(33.387 22.945)" fill="#fff"/>
    <path id="Trazado_526" data-name="Trazado 526" d="M160.575,129.89a2.408,2.408,0,1,1-2.408-2.407,2.407,2.407,0,0,1,2.408,2.407" transform="translate(22.01 18.014)" fill="#988cd3"/>
    <path id="Trazado_527" data-name="Trazado 527" d="M160.575,146.753a2.408,2.408,0,1,1-2.408-2.407,2.407,2.407,0,0,1,2.408,2.407" transform="translate(22.01 20.397)" fill="#988cd3"/>
    <path id="Trazado_528" data-name="Trazado 528" d="M160.575,166.155a2.408,2.408,0,1,1-2.408-2.407,2.407,2.407,0,0,1,2.408,2.407" transform="translate(22.01 23.139)" fill="#988cd3"/>
    <path id="Trazado_529" data-name="Trazado 529" d="M164.918,237.689a14.7,14.7,0,1,1-14.7-14.7,14.7,14.7,0,0,1,14.7,14.7" transform="translate(19.15 31.51)" fill="#0f0044"/>
    <path id="Trazado_530" data-name="Trazado 530" d="M217.163,316.122a14.7,14.7,0,1,1-14.7-14.7,14.7,14.7,0,0,1,14.7,14.7" transform="translate(26.533 42.594)" fill="#dd7403"/>
    <path id="Trazado_531" data-name="Trazado 531" d="M164.918,397.058a14.7,14.7,0,1,1-14.7-14.7,14.7,14.7,0,0,1,14.7,14.7" transform="translate(19.15 54.031)" fill="#006802"/>
    <path id="Trazado_532" data-name="Trazado 532" d="M147.4,240.889l-6.163-3.157,5.816-3.758,5.815-3.758.347,6.915.347,6.915Z" transform="translate(19.958 32.531)" fill="#fff"/>
    <path id="Trazado_533" data-name="Trazado 533" d="M147.4,399.853l-6.163-3.157,5.816-3.758,5.815-3.758.347,6.915.347,6.915Z" transform="translate(19.958 54.994)" fill="#fff"/>
    <path id="Trazado_534" data-name="Trazado 534" d="M196.626,315.159v-6.924l6,3.463,6,3.462-6,3.462-6,3.463Z" transform="translate(27.785 43.556)" fill="#fff"/>
  </g>
</svg>
