<svg xmlns="http://www.w3.org/2000/svg" width="1047" height="637.447" viewBox="0 0 1047 637.447">
  <g id="Grupo_93" data-name="Grupo 93" transform="translate(-87 -425.286)">
    <path id="Trazado_330" data-name="Trazado 330" d="M437.654,218.471C428.944,96.345,328.5,2.678,208.5,0l31.892,61.368a11.917,11.917,0,0,1-.568,11.944l-28.863,44.6a117.628,117.628,0,0,1,95.509,173.211l28.306,50.093a1.88,1.88,0,0,0,1.631.955l75.612.217v.531c18.254-38.39,28.661-82.105,25.641-124.45" transform="translate(242.99 718.481) rotate(-42)" fill="#0c8f5a"/>
    <path id="Trazado_331" data-name="Trazado 331" d="M363.26,311.942a11.917,11.917,0,0,1-10.317-6.044L327.4,260.7a117.619,117.619,0,0,1-195.776-1.027l-8.424.055-48.671.321a1.88,1.88,0,0,0-1.624.962l-36.19,64.6-.765,1.367-.675-.377-.143-.081L35,326.8c24.245,35.838,53.107,60.858,92.025,79.772,111.964,54.413,245.867,11.992,306.852-94.431Z" transform="translate(249.937 766.381) rotate(-42)" fill="#002f87"/>
    <path id="Trazado_332" data-name="Trazado 332" d="M117.652,235.213A117.6,117.6,0,0,1,231.478,117.69l32.248-49.839a1.886,1.886,0,0,0,.09-1.887L229.6.128,218.549.513c-43.16,3.078-79.259,15.565-115.1,39.811C-1.314,111.2-30.823,251.687,34.852,358.375L69.6,296.347a11.913,11.913,0,0,1,10.294-6.08l51.265-.338a117.072,117.072,0,0,1-13.505-54.716" transform="translate(218.99 740.117) rotate(-42)" fill="#e96247"/>
    <text id="Etapas_de_Diseño_Identificación_Medición_Mitigación" data-name="Etapas de Diseño
   Identificación
   Medición
   Mitigación" transform="translate(739 459)" fill="#0c8f5a" font-size="24" font-family="Poppins-Bold, Poppins" font-weight="700"><tspan x="0" y="25">Etapas de Diseño</tspan><tspan x="0" y="55" xml:space="preserve">   Identificación</tspan><tspan x="0" y="85" xml:space="preserve">   Medición</tspan><tspan x="0" y="115" xml:space="preserve">   Mitigación</tspan></text>
    <text id="Valoración" transform="translate(87 645)" fill="#e96247" font-size="24" font-family="Poppins-Bold, Poppins" font-weight="700"><tspan x="0" y="25">Valoración</tspan></text>
    <text id="Etapas_de_la_Metodología_" data-name="Etapas de la Metodología
" transform="translate(454 718)" fill="#1a1e1e" font-size="24" font-family="Poppins-Bold, Poppins" font-weight="700"><tspan x="19.18" y="25">Etapas de la </tspan><tspan x="15.952" y="55">Metodología</tspan></text>
    <text id="Implementación" transform="translate(838 787)" fill="#002f87" font-size="24" font-family="Poppins-Bold, Poppins" font-weight="700"><tspan x="0" y="25">Implementación</tspan></text>
    <path id="Trazado_333" data-name="Trazado 333" d="M-902.917,743.677V826.4h156.569" transform="translate(1048 -54)" fill="none" stroke="#e96247" stroke-width="1"/>
    <path id="Trazado_334" data-name="Trazado 334" d="M-477.945,561.5V525.965h152.622" transform="translate(1048 -54)" fill="none" stroke="#0c8f5a" stroke-width="1"/>
    <path id="Trazado_335" data-name="Trazado 335" d="M-142.7,863.311v72.75H-277.432" transform="translate(1048 -35)" fill="none" stroke="#002f87" stroke-width="1"/>
    <circle id="Elipse_1" data-name="Elipse 1" cx="3" cy="3" r="3" transform="translate(741 502)" fill="#0c8f5a"/>
    <circle id="Elipse_2" data-name="Elipse 2" cx="3" cy="3" r="3" transform="translate(741 532)" fill="#0c8f5a"/>
    <circle id="Elipse_3" data-name="Elipse 3" cx="3" cy="3" r="3" transform="translate(741 562)" fill="#0c8f5a"/>
  </g>
</svg>
