<svg xmlns="http://www.w3.org/2000/svg" width="88.605" height="88.607" viewBox="0 0 88.605 88.607">
  <g id="mano" transform="translate(-106.296 -1137.479)">
    <path id="Trazado_115" data-name="Trazado 115" d="M44.3,107.743a44.3,44.3,0,1,1,44.3-44.3,44.353,44.353,0,0,1-44.3,44.3" transform="translate(106.296 1118.344)" fill="#fff"/>
    <path id="Trazado_116" data-name="Trazado 116" d="M46.412,102.025A36.475,36.475,0,1,1,82.887,65.55a36.516,36.516,0,0,1-36.474,36.475" transform="translate(104.186 1116.233)" fill="#b4dade"/>
    <path id="Trazado_117" data-name="Trazado 117" d="M64.275,52.894l.733.38-.407.785-.408.786-.262-.135-.472-.245a2.2,2.2,0,0,0-2.966.94l-2.756,5.314-1.221,2.355-.786-.407-.786-.408,3.977-7.669a3.976,3.976,0,0,1,5.353-1.7" transform="translate(94.63 1111.271)" fill="#4d73aa"/>
    <path id="Trazado_118" data-name="Trazado 118" d="M31.427,81.089c-.526-2.753-1.182-6.18,3-14.237l6.033-11.633a3.826,3.826,0,0,1,2.052-1.791,3.309,3.309,0,0,1,2.667.1l-.408.788-.407.784a1.541,1.541,0,0,0-1.235-.014,2.038,2.038,0,0,0-1.1.947L35.995,67.668c-3.718,7.169-3.349,10.312-2.894,12.743.021.117.043.232.065.345.094.493.183.958.24,1.444a.886.886,0,0,1-.093.512l-1.982,3.821-.785-.408-.786-.407,1.853-3.574c-.05-.339-.117-.689-.186-1.055" transform="translate(99.977 1111.112)" fill="#4d73aa"/>
    <path id="Trazado_119" data-name="Trazado 119" d="M54.679,52.639l1.234.64L55.1,54.85l-1.234-.64c-.749-.389-2.018.325-2.452,1.163l-3.233,6.235-1.571-.815,3.233-6.235c.863-1.665,3.173-2.784,4.84-1.919" transform="translate(96.401 1111.294)" fill="#4d73aa"/>
    <path id="Trazado_120" data-name="Trazado 120" d="M64.494,82.324c-3.345,4.176-7.077,6.708-11.13,7.543l-1.649,3.181-1.571-.815L51.99,88.67a.915.915,0,0,1,.633-.464c4.628-.81,8.856-4.136,12.569-9.888l2.754-4.263a4.5,4.5,0,0,0,.395-3.261,3.975,3.975,0,0,0-1.805-2.173l-2.4,5.01-1.6-.766L73.878,49.212a1.636,1.636,0,0,0-.728-2.16l-.814-.422a1.644,1.644,0,0,0-2.213.7L61.594,63.777l-.785-.408-.786-.407,8.528-16.446a3.416,3.416,0,0,1,4.6-1.458l.815.422a3.4,3.4,0,0,1,1.512,4.491l0,0-.01.021-8.09,17.061a5.714,5.714,0,0,1,2.655,3.213,5.067,5.067,0,0,1,.157.669,6.057,6.057,0,0,1-.044,2.128" transform="translate(95.65 1112.921)" fill="#4d73aa"/>
  </g>
</svg>
