<svg xmlns="http://www.w3.org/2000/svg" xmlns:xlink="http://www.w3.org/1999/xlink" width="174.705" height="310.65" viewBox="0 0 174.705 310.65">
  <defs>
    <clipPath id="clip-path">
      <rect id="Rectángulo_18" data-name="Rectángulo 18" width="174.705" height="310.65" fill="none"/>
    </clipPath>
    <clipPath id="clip-path-2">
      <rect id="Rectángulo_14" data-name="Rectángulo 14" width="43.186" height="13.557" fill="none"/>
    </clipPath>
    <clipPath id="clip-path-3">
      <rect id="Rectángulo_15" data-name="Rectángulo 15" width="53.758" height="20.032" fill="none"/>
    </clipPath>
    <clipPath id="clip-path-4">
      <rect id="Rectángulo_16" data-name="Rectángulo 16" width="73.086" height="17.669" fill="none"/>
    </clipPath>
    <clipPath id="clip-path-5">
      <rect id="Rectángulo_17" data-name="Rectángulo 17" width="35.439" height="73.253" fill="none"/>
    </clipPath>
  </defs>
  <g id="Grupo_24" data-name="Grupo 24" clip-path="url(#clip-path)">
    <path id="Trazado_45" data-name="Trazado 45" d="M165.053,174.884a4.409,4.409,0,0,0-2.084-3.46c-18.516-12.255-32.47-39.415-33.876-62.408-.038-1.31-.079-2.639-.122-3.977v-.017h0c-1.071-32.876-5.912-72.75-10.258-83.379C110.685,2.012,83.5.169,83.5.169,47.4-2.414,40.956,25.319,37.313,50.58c-2.266,15.708-11,71.825-11,71.825l6.634,2.567a81.661,81.661,0,0,0,48.289,50.5c6.654,2.505,12.287,3.511,14.931,1.356a90.8,90.8,0,0,0,37.982,23.058c5.829,1.773,11.939,2.958,18.006,2.391,3.939-.369,8.094-1.67,10.442-4.854a9.052,9.052,0,0,0-7.763-14.414c1.367-4.437,10.368-3.132,10.215-8.128" transform="translate(-11.268 0)" fill="#1a2e35"/>
    <path id="Trazado_46" data-name="Trazado 46" d="M109.927,16.533l-2.258-2.152-24.4,9.834a6.811,6.811,0,0,0-6.432,6.595l.214,79.508c-.031,5.391,1.049,10.061,4.3,14.359l3.427,4.525c7.814,10.316,23.889,9.468,30.075-1.9a8.658,8.658,0,0,0,.863-2.056,16.132,16.132,0,0,0,.363-1.778c.726-6.4.767-11.943.767-11.943.435-7.024.578-9.905.579-9.839,0,0,14.946-1.718,18.987-20.9,2.009-9.541,1.63-22.667,1.065-35.587C136.7,27.317,124.3,16.516,109.927,16.533" transform="translate(-32.896 -6.157)" fill="#ffc09d"/>
    <path id="Trazado_47" data-name="Trazado 47" d="M128.689,160.9a49.266,49.266,0,0,1-25.553-8.207s5.841,13.714,25.288,12.874Z" transform="translate(-44.157 -65.376)" fill="#ff9b6c"/>
    <path id="Trazado_48" data-name="Trazado 48" d="M125.512,129.9c.435,0,.3,2.894,2.672,5.074s5.476,2.016,5.478,2.422c.031.184-.715.528-2.02.5a7.22,7.22,0,0,1-4.581-1.858,6.286,6.286,0,0,1-2.055-4.245c-.05-1.216.309-1.918.507-1.891" transform="translate(-53.518 -55.614)" fill="#1a2e35"/>
    <path id="Trazado_49" data-name="Trazado 49" d="M74.839,63.765s13.669,4.255,21.4-29.482C98.888,22.746,109.582,13.4,109.582,13.4l-4.337-1.3s-26.956,7.594-27.41,7.934-6.8,13.941-6.8,13.941Z" transform="translate(-30.413 -5.181)" fill="#1a2e35"/>
    <path id="Trazado_50" data-name="Trazado 50" d="M73.062,96.111c.069-1.44-1.426-4.919-2.838-5.212-3.768-.782-10.629-.821-11.176,8.822-.748,13.181,12.64,11.213,12.685,10.836.035-.294,1.091-9.472,1.329-14.446" transform="translate(-25.268 -38.783)" fill="#ffc09d"/>
    <path id="Trazado_51" data-name="Trazado 51" d="M70.5,108.461c-.055-.046-.238.148-.636.3a2.3,2.3,0,0,1-1.719-.062c-1.363-.59-2.41-2.867-2.339-5.247a7.594,7.594,0,0,1,.829-3.252,2.654,2.654,0,0,1,1.827-1.664,1.172,1.172,0,0,1,1.32.706c.156.379.057.638.125.663.035.036.3-.2.22-.754a1.467,1.467,0,0,0-.472-.857,1.738,1.738,0,0,0-1.251-.408A3.234,3.234,0,0,0,65.891,99.8a7.812,7.812,0,0,0-1,3.628c-.066,2.661,1.152,5.224,3.027,5.883a2.466,2.466,0,0,0,2.12-.23c.427-.3.513-.593.468-.619" transform="translate(-27.779 -41.91)" fill="#ff9b6c"/>
    <path id="Trazado_52" data-name="Trazado 52" d="M93.9,59.24a19.215,19.215,0,0,0,1.975-.4,11.908,11.908,0,0,0,4.694-2.724,16.36,16.36,0,0,0,2.448-2.868,22.034,22.034,0,0,0,1.992-3.853,82.707,82.707,0,0,0,2.839-9.585c.926-3.438,1.93-6.685,3.032-9.572a55.087,55.087,0,0,1,3.435-7.447,39.7,39.7,0,0,1,3.019-4.631c.389-.524.728-.9.945-1.169a2.926,2.926,0,0,1,.351-.389,2.884,2.884,0,0,1-.3.433c-.2.28-.519.671-.89,1.206a44.983,44.983,0,0,0-2.912,4.67,57.7,57.7,0,0,0-3.35,7.441c-1.08,2.88-2.071,6.118-3,9.549a79.263,79.263,0,0,1-2.879,9.617,21.974,21.974,0,0,1-2.05,3.893,16.3,16.3,0,0,1-2.523,2.889,11.685,11.685,0,0,1-4.824,2.671,7.278,7.278,0,0,1-2.011.267" transform="translate(-40.202 -7.109)" fill="#1a2e35"/>
    <path id="Trazado_53" data-name="Trazado 53" d="M57.733,111.955a3.665,3.665,0,0,1-.143-.637c-.082-.464-.192-1.085-.332-1.873-.28-1.692-.679-4.1-1.186-7.157l.319-.046.216,1.557-.014-.049.276.592-.331.121a126.93,126.93,0,0,1-4.227-21.219A128.385,128.385,0,0,1,51.5,69.518c.046-4.818.012-9.935,1.3-15.047a23.765,23.765,0,0,1,2.4-5.984,32.652,32.652,0,0,1,3.645-5.075c2.681-3.1,5.568-5.76,8.205-8.4L81.207,21.085l9.577-9.349,2.625-2.52.693-.644a1.283,1.283,0,0,1,.251-.205,1.341,1.341,0,0,1-.208.249L93.5,9.3l-2.546,2.6-9.443,9.485L67.446,35.4c-2.627,2.655-5.509,5.332-8.147,8.393a25.992,25.992,0,0,0-5.908,10.826c-1.267,5-1.246,10.1-1.3,14.895a131.268,131.268,0,0,0,.752,13.67,132.725,132.725,0,0,0,4.036,21.181l-.331.122-.268-.6-.011-.025,0-.025c-.068-.548-.134-1.08-.194-1.559l.319-.046c.443,3.066.791,5.482,1.036,7.18.106.794.188,1.42.25,1.887a3.759,3.759,0,0,1,.057.65" transform="translate(-22.051 -3.581)" fill="#375a64"/>
    <path id="Trazado_54" data-name="Trazado 54" d="M44.246,50.326a2.283,2.283,0,0,1,.232-.558l.769-1.547c.668-1.343,1.722-3.244,3.1-5.544s3.137-4.976,5.215-7.855c2.1-2.86,4.535-5.919,7.267-8.976,2.75-3.042,5.534-5.785,8.155-8.181,2.643-2.372,5.11-4.41,7.257-6.02s3.917-2.87,5.182-3.676l1.457-.928a2.238,2.238,0,0,1,.53-.289,2.315,2.315,0,0,1-.463.39L81.56,8.161c-1.222.865-2.955,2.164-5.055,3.82s-4.534,3.71-7.144,6.093c-2.588,2.407-5.345,5.148-8.081,8.174-2.717,3.041-5.15,6.073-7.268,8.9-2.092,2.848-3.885,5.481-5.3,7.75s-2.531,4.126-3.261,5.433l-.867,1.491a2.326,2.326,0,0,1-.339.5" transform="translate(-18.943 -2.889)" fill="#375a64"/>
    <path id="Trazado_55" data-name="Trazado 55" d="M70.655,175.846c.461-.665,3.534-6.6,3.534-6.6l17.427,15.022S108.7,198.577,108.7,197.651l2.726-13.764,3.357-12.523,6.268,9.471s19.692,38.608,19.692,39.071,12.188,40.421,12.188,40.421l-2.623,16.2L150,333.92l-36.718-1.543-7.251-11.571-12.5-73.592Z" transform="translate(-30.25 -72.462)" fill="#fff"/>
    <path id="Trazado_56" data-name="Trazado 56" d="M121.093,435.6h40.516l11.944,61.547H92.377Z" transform="translate(-39.551 -186.5)" fill="#1a2e35"/>
    <path id="Trazado_57" data-name="Trazado 57" d="M41.321,189.264l-23.653,8.878,21.85,97.284s-1.288,26.283-5.927,39.682S18.027,386.95,18.027,386.95H90.684s3.089-52.793,1.858-71.643-.717-54.409-7.931-72.962-36.18-64.134-36.18-64.134Z" transform="translate(-7.564 -76.3)" fill="#ff735d"/>
    <path id="Trazado_58" data-name="Trazado 58" d="M149.693,174.851l10.718,8.852,29.426,4.38s13.929,50.45,11.352,70.292,1.016,54.165,1.016,54.165l12.9,72.971H186.771s-8.08-85.339-8.562-84.308-2.028-41.743-5.12-55.658-18.66-57.469-18.66-57.469Z" transform="translate(-64.09 -74.861)" fill="#ff735d"/>
    <path id="Trazado_59" data-name="Trazado 59" d="M249.28,310.332s11.853-5.411,11.853-15.976-7.215-25.509-8.761-31.178-36.59-65.965-40.2-65.192l-3.608.773,18.553,81.425-25.252,6.184,10.771,31Z" transform="translate(-86.428 -84.763)" fill="#ff735d"/>
    <path id="Trazado_60" data-name="Trazado 60" d="M221.544,321.153l5.206-16.829.891-11.468,12.243-8.144s3.282.382,2.263,2.927-5.981,7.126-5.981,7.126l-2.927,8.167L238,294.638l6.95-3.436,6.872.509s1.272,3.054-1.909,3.182h-3.436l-5.217,4.2-3.26,7.89,4.913-7.635,7.254-2.577,4.581,1.177s1.272,2.036-1.018,2.291-3.817.254-3.817.254l-4.2,2.441-3.69,7.74,6.49-5.345,8.4-1s1.4,2.021-.763,2.785a70.209,70.209,0,0,0-6.49,3.054l-4.709,5.727Z" transform="translate(-94.852 -121.897)" fill="#ffc09d"/>
    <path id="Trazado_61" data-name="Trazado 61" d="M110.54,333.678a1.957,1.957,0,0,1-.121-.38l-.3-1.13-1.091-4.356-3.957-16.034c-1.675-6.768-3.68-14.824-5.979-23.75-1.156-4.462-2.377-9.143-3.711-13.975q-.989-3.628-2.1-7.348c-.37-1.239-.789-2.469-1.184-3.717a32.575,32.575,0,0,0-1.517-3.621c-4.326-8.7-8.757-16.9-12.759-24.46L66.911,214.54l-.085-.158.132-.117c.809-.721,1.6-1.408,2.4-2.056a12.344,12.344,0,0,1,1.24-.913,1.3,1.3,0,0,1,.186-.1l.113-.045c.039-.013-.014,0-.027.018s.011-.033-.065.087a.2.2,0,0,0,.05.22.178.178,0,0,0,.061.038v0c-.055-.009-.212-.017-.32-.021l-.721-.014c-1.917-.01-3.718.018-5.387.042l-.125,0-.043-.114L60.375,201.2l-1.024-2.715-.252-.7a1.008,1.008,0,0,1-.07-.244.968.968,0,0,1,.116.225c.077.18.175.4.3.685l1.109,2.68,4.1,10.151-.168-.112c1.672-.041,3.469-.087,5.4-.094l.731.008a2.906,2.906,0,0,1,.412.031l.046.013a.171.171,0,0,1,.069.045.224.224,0,0,1,.056.23c-.067.128-.059.077-.074.1a.626.626,0,0,1-.113.051l-.058.026a.952.952,0,0,0-.139.077,12.269,12.269,0,0,0-1.18.886c-.783.645-1.571,1.338-2.369,2.058l.047-.276,11.005,20.318c4.028,7.556,8.466,15.735,12.805,24.462a33.168,33.168,0,0,1,1.544,3.687c.4,1.256.819,2.5,1.189,3.74q1.111,3.729,2.1,7.365c1.329,4.84,2.539,9.526,3.68,13.993,2.27,8.937,4.233,17,5.856,23.787,1.586,6.762,2.872,12.246,3.772,16.08l.98,4.383c.1.478.179.855.239,1.144a1.956,1.956,0,0,1,.061.395" transform="translate(-25.272 -84.575)" fill="#1a2e35"/>
    <path id="Trazado_62" data-name="Trazado 62" d="M194.794,273.366a5.144,5.144,0,0,1,.009-.908c.035-.648.082-1.509.141-2.588q.052-.851.116-1.867,0-1.032,0-2.226c0-1.6.038-3.414-.117-5.419a112.9,112.9,0,0,0-6.1-30.684,106.078,106.078,0,0,0-4.95-12.181l-.006-.013,0-.01a104.578,104.578,0,0,0-5.714-11.134c-1.885-3.278-3.626-6.134-5.082-8.5l-3.444-5.511-.917-1.474a2.865,2.865,0,0,1-.292-.526,2.689,2.689,0,0,1,.374.471l1,1.423c.857,1.25,2.084,3.087,3.587,5.425s3.281,5.174,5.2,8.442a100.388,100.388,0,0,1,5.821,11.162l-.01-.023a102.973,102.973,0,0,1,5.009,12.25,108.48,108.48,0,0,1,5.958,30.86c.129,2.015.065,3.842.029,5.444q-.029,1.2-.054,2.232-.092,1.017-.169,1.87c-.106,1.077-.19,1.937-.253,2.584a5.073,5.073,0,0,1-.129.9" transform="translate(-72.114 -81.488)" fill="#1a2e35"/>
    <path id="Trazado_63" data-name="Trazado 63" d="M249.169,369.967a4.568,4.568,0,0,1-.724.2l-2.119.487-7.987,1.745-27.919,5.927-.241.051-.08-.235-7.626-22.488-2.8-8.289-.105-.31.319-.075,21.005-4.938,9.051-2.112,4.08-.948a19.089,19.089,0,0,1,3.827-.656,14.433,14.433,0,0,1,6.479,1.318,16.274,16.274,0,0,1,4.157,2.719,14.545,14.545,0,0,1,2.094,2.315l.444.676a1,1,0,0,1,.135.24,19.815,19.815,0,0,0-2.815-3.069,16.493,16.493,0,0,0-4.14-2.6,14.232,14.232,0,0,0-6.336-1.206,18.794,18.794,0,0,0-3.739.682l-4.072.982-9.039,2.17-20.995,5,.214-.385c.9,2.656,1.844,5.448,2.8,8.287l7.585,22.5-.321-.184,27.963-5.714,8.02-1.589,2.137-.4a4.6,4.6,0,0,1,.743-.108" transform="translate(-85.443 -144.846)" fill="#1a2e35"/>
    <path id="Trazado_64" data-name="Trazado 64" d="M41.082,464.348,79.759,467.9,73.1,479.74l-40.748-3.98Z" transform="translate(-13.853 -198.807)" fill="#ff735d"/>
    <path id="Trazado_65" data-name="Trazado 65" d="M40.792,464.342a1.121,1.121,0,0,1-.14.225l-.433.608-1.689,2.3-6.3,8.405-.142-.327L71.4,479.294l1.438.141-.292.152,6.667-11.834.225.429-27.661-2.66-8.06-.824-2.166-.242a5.411,5.411,0,0,1-.763-.114,4.316,4.316,0,0,1,.723.022l2.134.153,8.033.655L79.5,467.606l.445.039-.22.391-6.646,11.846-.1.171-.2-.019-1.438-.14-39.3-3.936-.368-.037.226-.29,6.51-8.348,1.756-2.21a6.416,6.416,0,0,1,.623-.73" transform="translate(-13.562 -198.801)" fill="#1a2e35"/>
    <path id="Trazado_66" data-name="Trazado 66" d="M229.716,469.978l6.045,11.419,13-2.654-6.891-10.524Z" transform="translate(-98.351 -200.464)" fill="#ff735d"/>
    <path id="Trazado_67" data-name="Trazado 67" d="M229.714,469.77a5.081,5.081,0,0,1,.8-.166l2.418-.415c2.1-.355,5.174-.869,8.892-1.432l.161-.025.091.138,6.927,10.5.245.371-.436.089-.65.133-12.353,2.483-.194.039-.09-.173c-1.821-3.493-3.292-6.42-4.3-8.432l-1.153-2.319a5.612,5.612,0,0,1-.361-.79,9.256,9.256,0,0,1,.509.854l1.3,2.323c1.109,1.987,2.661,4.769,4.462,8.12l-.283-.134,12.337-2.56.65-.133-.192.46-6.854-10.547.252.113c-3.592.495-6.6.86-8.74,1.12l-2.508.3a8.561,8.561,0,0,1-.938.086" transform="translate(-98.349 -200.256)" fill="#1a2e35"/>
    <g id="Grupo_14" data-name="Grupo 14" transform="translate(21.614 271.063)" opacity="0.3">
      <g id="Grupo_13" data-name="Grupo 13">
        <g id="Grupo_12" data-name="Grupo 12" clip-path="url(#clip-path-2)">
          <path id="Trazado_68" data-name="Trazado 68" d="M39.413,480.355,37.8,483.874l40.2,3.686L80.981,474l-5.549,9.871Z" transform="translate(-37.796 -474.003)"/>
        </g>
      </g>
    </g>
    <g id="Grupo_17" data-name="Grupo 17" transform="translate(31.51 225.264)" opacity="0.3">
      <g id="Grupo_16" data-name="Grupo 16">
        <g id="Grupo_15" data-name="Grupo 15" clip-path="url(#clip-path-3)">
          <path id="Trazado_69" data-name="Trazado 69" d="M55.1,393.916s6.308,13.223,14.5,17.094c11.178,5.281,39.18,1.83,39.18,1.83l.073-8.027-32.44,1.845Z" transform="translate(-55.1 -393.916)"/>
        </g>
      </g>
    </g>
    <path id="Trazado_70" data-name="Trazado 70" d="M11.6,211.913S.259,212.687,0,242.319s34.529,79.364,40.455,84.26,12.7,8.19,30.558,5.542C93.414,328.8,109,325.806,109,325.806l-3.092-27.056-39.94-1.8L33.5,230.208s-10.822-19.583-21.9-18.295" transform="translate(0 -90.703)" fill="#ff735d"/>
    <g id="Grupo_20" data-name="Grupo 20" transform="translate(50.744 217.48)" opacity="0.3">
      <g id="Grupo_19" data-name="Grupo 19">
        <g id="Grupo_18" data-name="Grupo 18" clip-path="url(#clip-path-4)">
          <path id="Trazado_71" data-name="Trazado 71" d="M153.633,382.238c-4.39-1.829-9.288-1.869-14.043-1.882l-18.91-.05c-4.079-.011-8.21-.015-12.159,1s-7.762,3.191-9.906,6.661l-9.88,8.166a65.429,65.429,0,0,0,38.111-2.234c3.058-1.14,6.066-2.521,9.29-3.027,8.537-1.34,17.188,3.616,25.684,2.035,0-4.755-3.8-8.843-8.188-10.672" transform="translate(-88.735 -380.304)"/>
        </g>
      </g>
    </g>
    <path id="Trazado_72" data-name="Trazado 72" d="M79.13,335.534s7.666,3.034,11.339,3.673a71.651,71.651,0,0,1,14.055,4.472,94.6,94.6,0,0,1,9.369,4.312l5.963,20.762s-9.9,6.229-21.082,5.91-21.082,3.292-22.519,2.285-1.6-2.764,0-3.563,8.368-1.757,8.368-1.757l5.846-2.4s-19.964,1.757-21.561.958-3.194-1.917-2.555-3.674a2.509,2.509,0,0,1,2.236-1.757s-4.312.16-4.153-1.6a5.5,5.5,0,0,1,2.4-3.673c.639-.32,9.014-3.725,9.014-3.725l10.768-2.141-10.344-.413-9.036,2.517s-3.6.408-2.8-2.627,11.823-6.388,11.823-6.388l14.055-.967s-10.86-1.589-11.978-4.943a5.173,5.173,0,0,1,.8-5.27" transform="translate(-27.536 -143.656)" fill="#ffc09d"/>
    <path id="Trazado_73" data-name="Trazado 73" d="M151.01,356.411h.693l27.43-1.212,8.2,23.948-30.361-1.974Z" transform="translate(-64.654 -152.076)" fill="#ffc09d"/>
    <path id="Trazado_74" data-name="Trazado 74" d="M92.234,381.011a24.356,24.356,0,0,1-3.353.257c-2.067.125-4.917.367-8.038.837s-5.915,1.089-7.927,1.582a24.26,24.26,0,0,1-3.279.749,15.169,15.169,0,0,1,3.168-1.159,59.6,59.6,0,0,1,16.061-2.434,15.2,15.2,0,0,1,3.369.168" transform="translate(-29.814 -163.054)" fill="#ff9b6c"/>
    <path id="Trazado_75" data-name="Trazado 75" d="M53.153,248.152a8.167,8.167,0,0,1-.905-1.315c-.554-.862-1.344-2.117-2.363-3.638a133.363,133.363,0,0,0-8.5-11.487,65.173,65.173,0,0,0-10.113-10.022,54.683,54.683,0,0,0-4.958-3.208,8.119,8.119,0,0,1,1.481.6,14.549,14.549,0,0,1,1.65.9,21.365,21.365,0,0,1,2.08,1.366,58.242,58.242,0,0,1,10.323,9.978,106.287,106.287,0,0,1,8.393,11.642c.977,1.555,1.713,2.848,2.207,3.749a8.146,8.146,0,0,1,.7,1.434" transform="translate(-11.267 -93.54)" fill="#1a2e35"/>
    <path id="Trazado_76" data-name="Trazado 76" d="M93.194,313.878a6.889,6.889,0,0,1-.616-1.331l-1.5-3.693c-1.257-3.12-3.017-7.419-5.064-12.123s-4-8.923-5.423-11.97l-1.682-3.612a6.831,6.831,0,0,1-.554-1.358,6.947,6.947,0,0,1,.763,1.252c.458.823,1.093,2.03,1.856,3.531,1.527,3,3.539,7.2,5.592,11.916s3.753,9.047,4.909,12.21c.579,1.582,1.029,2.868,1.32,3.765a6.879,6.879,0,0,1,.4,1.412" transform="translate(-33.546 -119.791)" fill="#1a2e35"/>
    <path id="Trazado_77" data-name="Trazado 77" d="M118.974,215.074a2.725,2.725,0,0,1-.694-.3l-1.881-.993-6.635-3.671.389-.2c-.324,2.982-.872,6.465-1.42,10.177-.222,1.511-.43,2.985-.6,4.395l-.066.544-.416-.354c-3.55-3.02-6.635-5.677-8.821-7.593l-2.55-2.27a5.613,5.613,0,0,1-.877-.875,5.635,5.635,0,0,1,1.009.719l2.664,2.137c2.254,1.837,5.387,4.437,8.956,7.434l-.482.19c.163-1.42.367-2.9.589-4.414.55-3.719,1.125-7.192,1.5-10.15l.05-.4.339.2,6.527,3.859,1.809,1.119a2.713,2.713,0,0,1,.614.444" transform="translate(-40.846 -89.675)" fill="#1a2e35"/>
    <path id="Trazado_78" data-name="Trazado 78" d="M146.994,189.512a7.87,7.87,0,0,1,.054,1.571c-.02,1.127-.046,2.561-.077,4.275-.091,3.609-.259,8.592-.481,14.1-.005.135-.011.27-.016.4l-.039.962-.515-.811-6.6-10.4.413-.05c-.727,2-1.335,3.673-1.806,4.966a10.909,10.909,0,0,1-.754,1.8,10.874,10.874,0,0,1,.508-1.887l1.614-5.032.148-.459.266.409,6.713,10.321-.554.15c.005-.131.011-.266.016-.4.222-5.5.457-10.483.657-14.088.108-1.711.2-3.142.268-4.267a7.858,7.858,0,0,1,.18-1.562" transform="translate(-58.729 -81.138)" fill="#1a2e35"/>
    <path id="Trazado_79" data-name="Trazado 79" d="M217.021,216.929a4.4,4.4,0,0,1-.919-.488l.13-.092c.731,2.59,2.794,11.044,5.13,21.076,1.424,6.113,2.68,11.655,3.56,15.673l1.012,4.765a10.171,10.171,0,0,1,.291,1.766,10.256,10.256,0,0,1-.519-1.713l-1.2-4.722c-.986-3.993-2.308-9.52-3.732-15.633-2.337-10.032-4.223-18.526-4.711-21.173l-.039-.209.169.117a4.38,4.38,0,0,1,.826.632" transform="translate(-92.49 -92.556)" fill="#1a2e35"/>
    <path id="Trazado_80" data-name="Trazado 80" d="M107.819,400.8a3.464,3.464,0,0,1-.711.234l-2.07.559c-1.8.466-4.428,1.079-7.705,1.684a95.348,95.348,0,0,1-11.622,1.4,53.94,53.94,0,0,1-14.308-.956,28.746,28.746,0,0,1-7.044-2.462,24.677,24.677,0,0,1-3.054-1.84,21.454,21.454,0,0,1-2.514-2.326,92.589,92.589,0,0,1-7.236-9.209c-1.918-2.722-3.393-4.976-4.4-6.544l-1.131-1.821a3.377,3.377,0,0,1-.355-.661,3.644,3.644,0,0,1,.456.594l1.224,1.757c1.061,1.526,2.589,3.742,4.547,6.426a99.375,99.375,0,0,0,7.293,9.075,21.27,21.27,0,0,0,2.45,2.242,24.457,24.457,0,0,0,2.983,1.78,28.527,28.527,0,0,0,6.907,2.4,54.8,54.8,0,0,0,14.15.989,102.712,102.712,0,0,0,11.577-1.27c3.274-.55,5.908-1.1,7.724-1.493l2.094-.449a3.517,3.517,0,0,1,.741-.117" transform="translate(-19.554 -162.207)" fill="#1a2e35"/>
    <g id="Grupo_23" data-name="Grupo 23" transform="translate(34.84 115.703)" opacity="0.3">
      <g id="Grupo_22" data-name="Grupo 22">
        <g id="Grupo_21" data-name="Grupo 21" clip-path="url(#clip-path-5)">
          <path id="Trazado_81" data-name="Trazado 81" d="M60.923,202.329l3.067,14.554,2.5-1.554-1.44,3.46,31.315,56.792L92.3,262.613l-24.376-46.13,3.857-3.086H65.3Z" transform="translate(-60.923 -202.329)"/>
        </g>
      </g>
    </g>
    <path id="Trazado_82" data-name="Trazado 82" d="M146.677,107.364s6.5,1.991,8.86.662-2.2-10.059-4.993-15.636" transform="translate(-62.799 -39.556)" fill="#ffc09d"/>
    <path id="Trazado_83" data-name="Trazado 83" d="M146.677,107.364a21.669,21.669,0,0,0,6.4,1.429,7.417,7.417,0,0,0,1.7-.128,3.251,3.251,0,0,0,.852-.291,1.486,1.486,0,0,0,.712-.741,3.522,3.522,0,0,0,.176-1.793,10.383,10.383,0,0,0-.345-1.648,35.876,35.876,0,0,0-2.507-6.067c-.97-1.951-2.022-3.855-3.116-5.736.854,2,1.772,3.973,2.641,5.958a51.264,51.264,0,0,1,2.291,6.037,11.205,11.205,0,0,1,.315,1.54,2.888,2.888,0,0,1-.1,1.416.768.768,0,0,1-.39.411,3.044,3.044,0,0,1-.68.249,6.773,6.773,0,0,1-1.54.171,19.161,19.161,0,0,1-3.2-.24c-1.07-.15-2.136-.346-3.2-.568" transform="translate(-62.799 -39.556)" fill="#855a4c"/>
    <path id="Trazado_84" data-name="Trazado 84" d="M129.5,83.532c-.073,3.022-1.466,5.44-3.11,5.4s-2.918-2.522-2.845-5.544,1.466-5.44,3.11-5.4,2.918,2.522,2.844,5.544" transform="translate(-52.893 -33.39)" fill="#1d262d"/>
    <path id="Trazado_85" data-name="Trazado 85" d="M170.093,84.517c-.073,3.022-1.466,5.44-3.11,5.4s-2.918-2.522-2.844-5.544,1.466-5.44,3.11-5.4,2.918,2.522,2.845,5.544" transform="translate(-70.273 -33.811)" fill="#1d262d"/>
    <path id="Trazado_86" data-name="Trazado 86" d="M115.35,61.1s7.141-7.495,14.027,1.807A31.1,31.1,0,0,0,115.35,61.1" transform="translate(-49.386 -24.936)" fill="#564242"/>
    <path id="Trazado_87" data-name="Trazado 87" d="M157.117,66.4s7.14-7.495,14.026,1.807A31.1,31.1,0,0,0,157.117,66.4" transform="translate(-67.268 -27.207)" fill="#564242"/>
  </g>
</svg>
