<svg id="personaje" xmlns="http://www.w3.org/2000/svg" xmlns:xlink="http://www.w3.org/1999/xlink" width="333.329" height="291.706" viewBox="0 0 333.329 291.706">
  <defs>
    <clipPath id="clip-path">
      <rect id="Rectángulo_89" data-name="Rectángulo 89" width="333.329" height="291.706" fill="none"/>
    </clipPath>
  </defs>
  <g id="Grupo_56" data-name="Grupo 56" clip-path="url(#clip-path)">
    <path id="Trazado_217" data-name="Trazado 217" d="M138.6,80.108l10.142,12.6,42.3,11.777-6.318,68.332c-1.95,26.784-4.69,33.35-6.579,51.157V238.5H58L41.224,99.781l41.432-9.529,8.916-10.144Z" transform="translate(24.402 47.419)" fill="#f9c931"/>
    <path id="Trazado_218" data-name="Trazado 218" d="M123.142,99.083l-5.175,68.43-5.534,34.735L71.813,88.887l32.767,38.837Z" transform="translate(42.509 52.616)" fill="#fff"/>
    <path id="Trazado_219" data-name="Trazado 219" d="M116.618,208.644a2.417,2.417,0,0,0-.159-.333c-.124-.234-.293-.549-.509-.954l-1.993-3.642c-1.759-3.176-4.287-7.734-7.4-13.358-6.3-11.276-14.988-26.818-24.583-43.985-4.757-8.472-9.289-16.547-13.4-23.868l-.048.264,5.833-4.927.215-.181-.242-.142-8.31-4.9.086.174c.907-8.092,1.649-14.7,2.167-19.305.244-2.276.435-4.056.567-5.295q.088-.884.135-1.382C69,86.5,69,86.335,69,86.335s-.037.158-.081.468c-.045.333-.107.79-.186,1.377-.154,1.234-.377,3.012-.662,5.282-.554,4.6-1.347,11.2-2.321,19.288l-.013.113.1.06,8.289,4.937-.027-.323-5.847,4.908-.134.113.084.153c4.1,7.326,8.625,15.407,13.371,23.884,9.639,17.142,18.368,32.662,24.7,43.92,3.171,5.594,5.741,10.13,7.531,13.286.888,1.549,1.582,2.757,2.068,3.6.232.393.414.7.548.931a2.249,2.249,0,0,0,.2.309" transform="translate(38.912 51.105)" fill="#1a2e35"/>
    <path id="Trazado_220" data-name="Trazado 220" d="M97.7,207.729a1.774,1.774,0,0,0,.116-.322c.075-.237.172-.552.3-.955.259-.868.63-2.106,1.1-3.689.946-3.232,2.3-7.866,3.973-13.582,1.648-5.747,3.69-12.548,5.79-20.183,1.957-7.664,3.824-16.147,5.8-25.048,2.679-12.209,5.1-23.642,7.113-33.318l.035-.169-.161-.056-5.535-1.937.024.333,6.737-3.571.126-.067-.051-.131c-2.117-5.319-3.825-9.606-5.013-12.591-.591-1.458-1.052-2.6-1.377-3.4-.154-.368-.275-.659-.368-.876a1.739,1.739,0,0,0-.138-.293,1.667,1.667,0,0,0,.1.309c.081.221.188.517.326.893.306.806.74,1.955,1.3,3.427,1.157,3,2.819,7.3,4.881,12.642l.073-.2-6.759,3.529-.369.193.393.14,5.526,1.963-.127-.224c-2.052,9.665-4.5,21.092-7.175,33.3-1.974,8.9-3.83,17.387-5.761,25.04-2.068,7.606-4.087,14.447-5.693,20.2-1.614,5.734-2.921,10.383-3.833,13.625-.438,1.592-.782,2.837-1.02,3.711-.108.408-.191.729-.255.968a1.962,1.962,0,0,0-.072.334" transform="translate(57.831 52.02)" fill="#1a2e35"/>
    <path id="Trazado_221" data-name="Trazado 221" d="M140.671,95.278s9.3,4.527,15.86,25.383C161.293,135.815,180.665,188,180.665,188l21.453-6.256s15.79,19.664,12.215,26.517-29.709,21.028-29.709,21.028h-30.6a25.148,25.148,0,0,1-8.749-12.751l-17.5-58.927Z" transform="translate(75.634 56.399)" fill="#f9c931"/>
    <path id="Trazado_222" data-name="Trazado 222" d="M66.478,92.321A37.7,37.7,0,0,0,53.01,106.155c-5.346,9.5-48,78.916-51.531,95.376-5.277,24.583,5.269,29.483,5.269,29.483h14.74l36.479-.207,4.6-28.55L46.352,198.8,76.41,165.46l1.992,3.4,5.881-47.583Z" transform="translate(0 54.649)" fill="#f9c931"/>
    <path id="Trazado_223" data-name="Trazado 223" d="M135.086,113.283c-.126-.011-1.213,11.795-2.428,26.363s-2.1,26.393-1.972,26.4,1.213-11.791,2.428-26.366,2.1-26.39,1.972-26.4" transform="translate(77.351 67.057)" fill="#1a2e35"/>
    <path id="Trazado_224" data-name="Trazado 224" d="M43.11,104.985c-.126.016,1.555,14.745,3.752,32.893s4.082,32.858,4.208,32.842-1.555-14.74-3.754-32.9-4.08-32.854-4.206-32.839" transform="translate(25.515 62.145)" fill="#1a2e35"/>
    <path id="Trazado_225" data-name="Trazado 225" d="M47.5,192.167a6.657,6.657,0,0,0-.414-.524c-.264-.347-.654-.858-1.094-1.56a25.472,25.472,0,0,1-2.824-6.385,31.136,31.136,0,0,1-1.017-4.723,22.208,22.208,0,0,1-.239-5.5,13,13,0,0,1,2.033-5.651,15.33,15.33,0,0,1,4.625-4.526c.132-.083.272-.164.39-.229l.489-.266-.53-.156a114.726,114.726,0,0,0-22.532-4.206c-2.92-.248-5.285-.36-6.92-.411-.818-.029-1.453-.032-1.883-.037a3.5,3.5,0,0,0-.657.019,3.562,3.562,0,0,0,.654.072l1.877.123c1.632.105,3.991.264,6.9.554a122.234,122.234,0,0,1,22.434,4.325l-.041-.422c-.142.076-.279.158-.419.245a15.648,15.648,0,0,0-4.76,4.669,13.34,13.34,0,0,0-2.076,5.849,22.23,22.23,0,0,0,.282,5.608,30.556,30.556,0,0,0,1.083,4.762,24.232,24.232,0,0,0,2.983,6.388A14.557,14.557,0,0,0,47.02,191.7a2.489,2.489,0,0,0,.484.465" transform="translate(10.021 93.519)" fill="#1a2e35"/>
    <path id="Trazado_226" data-name="Trazado 226" d="M97.716,189.22c.126,0,.228-5.877.228-13.126s-.1-13.127-.228-13.127-.228,5.876-.228,13.127.1,13.126.228,13.126" transform="translate(57.707 96.467)" fill="#1a2e35"/>
    <path id="Trazado_227" data-name="Trazado 227" d="M54.679,146.281a5.924,5.924,0,0,0,.027-.622c.008-.431.019-1.012.033-1.753.018-1.546.043-3.746.075-6.516l-.135.135,36.35.094c-.1-.1.231.228-.226-.229v2.269q0,1.129,0,2.241,0,2.225,0,4.381l.224-.224-25.874.1-7.664.064-2.076.03-.546.014a1.14,1.14,0,0,0-.194.014,5.85,5.85,0,0,0,.683.029l2.028.03L65,146.4l26.031.1h.223v-.224q0-2.154,0-4.381v-4.51c-.457-.457-.127-.126-.231-.228l-36.35.092h-.137l0,.135c.032,2.8.057,5.031.075,6.6.014.728.025,1.3.033,1.723a4.3,4.3,0,0,0,.027.573" transform="translate(32.286 81.179)" fill="#1a2e35"/>
    <path id="Trazado_228" data-name="Trazado 228" d="M133.449,119.282c.123.027,1.315-5.045,2.662-11.325s2.339-11.4,2.216-11.422-1.315,5.043-2.662,11.327-2.339,11.394-2.216,11.421" transform="translate(78.988 57.143)" fill="#1a2e35"/>
    <path id="Trazado_229" data-name="Trazado 229" d="M115.726,195.221,63.84,115.641l7.488-7.235-4.279-5.465,8.3,4.919-5.841,4.918Z" transform="translate(37.789 60.935)" fill="#896303"/>
    <path id="Trazado_230" data-name="Trazado 230" d="M198.842,162.584V167l-58.891.185v-4.605Z" transform="translate(82.843 96.24)" fill="#896303"/>
    <path id="Trazado_231" data-name="Trazado 231" d="M156.452,89.323a8.719,8.719,0,0,1-8.2-3.661c2.114.325,4.392.626,6.3-.347s2.983-3.779,1.49-5.311c-1.165-1.194-3.087-.989-4.752-1.111a10.28,10.28,0,0,1-8.745-6.71c-1.409-4.05-.119-8.466.387-12.724a35.046,35.046,0,0,0-14.67-32.345L101.592,11.7C91.918,24.076,88.9,40.761,90.909,56.345s8.616,30.229,16.561,43.783a52.008,52.008,0,0,0,8.047,11.074,20.606,20.606,0,0,0,11.987,6.15,12.364,12.364,0,0,0-1.974-11.163,26.907,26.907,0,0,0,19.834-7.1q-2.858-2.19-5.715-4.383a20.879,20.879,0,0,0,16.8-5.378" transform="translate(53.464 6.924)" fill="#1a2e35"/>
    <path id="Trazado_232" data-name="Trazado 232" d="M67.023,45.494c.47-11.147,7.41-20.476,18.137-23.54L118.6,12.4c14.512-1.987,24.744,15.641,26.114,30.223,1.522,16.2,2.662,33.311,1.111,45.482-3.117,24.473-21.689,28.147-21.689,28.147,0-.037.619,22.056.81,29.171l-17.008,35.561L74.978,135.5l-8.033-89.7c-.021-.416.054.258.078-.3" transform="translate(39.626 7.248)" fill="#d39c8c"/>
    <path id="Trazado_233" data-name="Trazado 233" d="M114.417,45.019a3.126,3.126,0,0,1-2.915,3.246,2.99,2.99,0,0,1-3.306-2.717,3.124,3.124,0,0,1,2.912-3.244,2.987,2.987,0,0,1,3.31,2.716" transform="translate(64.042 25.034)" fill="#1a2e35"/>
    <path id="Trazado_234" data-name="Trazado 234" d="M118.6,38.54c-.374.419-2.8-1.259-6.156-1.146-3.359.064-5.772,1.869-6.15,1.468-.185-.177.188-.923,1.239-1.738a8.564,8.564,0,0,1,4.906-1.68,8.219,8.219,0,0,1,4.914,1.422c1.059.761,1.431,1.487,1.247,1.675" transform="translate(62.896 20.979)" fill="#1a2e35"/>
    <path id="Trazado_235" data-name="Trazado 235" d="M96.565,45.021a3.125,3.125,0,0,1-2.915,3.244,2.991,2.991,0,0,1-3.306-2.717A3.127,3.127,0,0,1,93.255,42.3a2.991,2.991,0,0,1,3.31,2.719" transform="translate(53.474 25.034)" fill="#1a2e35"/>
    <path id="Trazado_236" data-name="Trazado 236" d="M98.554,39.112c-.376.419-2.8-1.259-6.158-1.146-3.357.064-5.772,1.869-6.148,1.468-.185-.177.183-.923,1.237-1.738a8.568,8.568,0,0,1,4.906-1.679,8.251,8.251,0,0,1,4.916,1.42c1.055.763,1.43,1.488,1.246,1.676" transform="translate(51.027 21.318)" fill="#1a2e35"/>
    <path id="Trazado_237" data-name="Trazado 237" d="M101.939,64.749c-.021-.189,2.057-.614,5.429-1.153.855-.115,1.662-.31,1.789-.9a4.37,4.37,0,0,0-.651-2.526q-1.306-3.076-2.74-6.457c-3.81-9.2-6.6-16.768-6.226-16.918s3.763,7.181,7.574,16.378q1.378,3.4,2.633,6.5a4.975,4.975,0,0,1,.549,3.356,2.154,2.154,0,0,1-1.374,1.3,5.815,5.815,0,0,1-1.45.248c-3.4.288-5.514.368-5.534.177" transform="translate(58.902 21.779)" fill="#1a2e35"/>
    <path id="Trazado_238" data-name="Trazado 238" d="M82.765,72.714s8.4,16.5,32.71,13.474l-.158-5.729a61.385,61.385,0,0,1-32.552-7.745" transform="translate(48.992 43.042)" fill="#8a503f"/>
    <path id="Trazado_239" data-name="Trazado 239" d="M98.766,32.015c-.3.923-3.673.594-7.6,1.191-3.942.517-7.086,1.77-7.633.966-.247-.385.282-1.262,1.539-2.186a13.374,13.374,0,0,1,11.607-1.644c1.466.54,2.216,1.235,2.087,1.673" transform="translate(49.412 17.574)" fill="#1a2e35"/>
    <path id="Trazado_240" data-name="Trazado 240" d="M117.4,32.178c-.568.782-2.907.06-5.693.108-2.787-.049-5.126.672-5.694-.11-.248-.38.1-1.157,1.108-1.912a8.239,8.239,0,0,1,9.173,0c1.009.753,1.356,1.53,1.106,1.91" transform="translate(62.709 17.091)" fill="#1a2e35"/>
    <path id="Trazado_241" data-name="Trazado 241" d="M103.426,64.231c-.01-.511-3.4-.252-6.041-2.967s-2.547-6.358-3.023-6.347c-.218-.03-.6.856-.519,2.388a8.486,8.486,0,0,0,2.332,5.314,7.387,7.387,0,0,0,5.05,2.27c1.43.018,2.24-.427,2.2-.657" transform="translate(55.543 32.507)" fill="#1a2e35"/>
    <path id="Trazado_242" data-name="Trazado 242" d="M74.4,13.946C78.162,7.97,87.05,1.731,94,.514c7.931-1.387,12.708-.027,17.924,4.734,0,0,4.058,3.916,7.861,4.655s6.982.113,11.519,2.432c6.2,3.17,8.913,11.457,11.785,17.8,3.569,7.88,8.654,15.131,10.981,23.462s1.089,18.568-5.932,23.621c1.2-6.382,2.206-13.406-.423-19.183a16.764,16.764,0,0,1-.425,6.914c-1.315-3.749-2.7-7.617-5.421-10.512-2.568-2.73-6.116-4.36-8.762-7.014-3.884-3.9-5.675-9.845-10.4-12.673C117.8,31.8,111.591,33.273,105.865,33.3a32.286,32.286,0,0,1-25.1-12.1l1.425-.119a40.018,40.018,0,0,1-7.785-7.14" transform="translate(44.04 0)" fill="#1a2e35"/>
    <path id="Trazado_243" data-name="Trazado 243" d="M52.478,69.046C54.664,61.882,58.5,55.327,60.9,48.231c2.339-6.909,3.3-14.292,6.411-20.891C71.494,18.461,79.3,6.957,91.473,7.592l.831.731a26.018,26.018,0,0,1,12.264,1.465l.186,9.486,2.332,2.049c-.979,1.883-1.9,3.7-2.8,5.492a59.936,59.936,0,0,1-3.1,10.442,27.025,27.025,0,0,1-5.838,8.875C74.383,96.314,93.4,99.486,83.952,128.247l-5.94-16.465A29.355,29.355,0,0,1,66.264,99.126q-.523,2.608-1.048,5.217a30.245,30.245,0,0,1-8.187-18.691q-1.363,2.5-2.725,5.007c-4.311-6.123-4.012-14.448-1.826-21.612" transform="translate(30.142 4.479)" fill="#1a2e35"/>
    <path id="Trazado_244" data-name="Trazado 244" d="M80.027,45.547c-.326-.817-15.477-5.8-15.222,10.145.25,15.491,15.787,12,15.806,11.551s-.584-21.7-.584-21.7" transform="translate(38.359 26.146)" fill="#d39c8c"/>
    <path id="Trazado_245" data-name="Trazado 245" d="M74.274,59.572c-.068-.048-.266.194-.718.412a2.7,2.7,0,0,1-2.017.08c-1.648-.568-3.076-3.141-3.2-5.932a8.932,8.932,0,0,1,.681-3.876,3.122,3.122,0,0,1,1.99-2.111,1.374,1.374,0,0,1,1.608.71c.215.428.123.739.205.764.045.038.328-.266.191-.9a1.719,1.719,0,0,0-.629-.958,2.032,2.032,0,0,0-1.5-.366,3.794,3.794,0,0,0-2.773,2.455,9.171,9.171,0,0,0-.852,4.336c.159,3.119,1.813,6.008,4.064,6.613a2.887,2.887,0,0,0,2.46-.457c.473-.392.548-.74.493-.767" transform="translate(39.806 28.042)" fill="#8a503f"/>
    <path id="Trazado_246" data-name="Trazado 246" d="M71.911,56.8a3.049,3.049,0,1,0,.729.209" transform="translate(40.486 33.603)" fill="#fff"/>
    <path id="Trazado_247" data-name="Trazado 247" d="M72.761,57.052a4.188,4.188,0,0,1,1.45,2.041,2.624,2.624,0,0,1-.535,2.447,2.709,2.709,0,0,1-4.806-1.38,2.627,2.627,0,0,1,.845-2.359,4.169,4.169,0,0,1,2.315-.957c.008-.04-.242-.154-.731-.151a3.166,3.166,0,0,0-1.912.732,3.1,3.1,0,0,0-1.164,2.827,3.328,3.328,0,0,0,5.951,1.71,3.1,3.1,0,0,0,.516-3.014,3.161,3.161,0,0,0-1.234-1.635c-.411-.263-.685-.3-.7-.261" transform="translate(40.367 33.558)" fill="#1a2e35"/>
    <path id="Trazado_248" data-name="Trazado 248" d="M91.06,25.106c-.307.123-1.738-5.128-6.054-10-4.247-4.937-9.254-7.062-9.092-7.352.045-.11,1.35.259,3.267,1.309A25.119,25.119,0,0,1,90.205,21.693c.78,2.041.971,3.383.855,3.413" transform="translate(44.935 4.58)" fill="#375a64"/>
    <path id="Trazado_249" data-name="Trazado 249" d="M182.33,184.3l6.126-7.2s8.113,0,12.169-3.852,11.559-7.5,8.517-14.4c0,0,3.646-4.26.708-8.924l-.1-1.216s9.127-3.854,6.49-8.518-7.707-2.636-7.707-2.636,9.966-6.734,11.763-8.579c4.8-4.93-.361-8.253-5.7-5.3-8.837,4.886-38.71,18.949-40.738,29.09v4.418s-8.315,10.184-8.315,10.792c0,.455.337,9.381,4.978,16.494,1.578,2.417,11.812-.167,11.812-.167" transform="translate(97.99 72.552)" fill="#d39c8c"/>
    <path id="Trazado_250" data-name="Trazado 250" d="M253.56,101.447c.366-.457-45.366,73.258-45.366,73.258l-2.076,24.732H134.753l6.621-28.155s12.336-33.069,12.2-33.455c-.272-.751,23.086-37.5,23.086-37.5Z" transform="translate(79.766 59.387)" fill="#fff"/>
    <path id="Trazado_251" data-name="Trazado 251" d="M253.667,101.516s-.479-.024-1.4-.046l-4.064-.084-15.488-.275-55.947-.9-.1,0-.054.088c-6.115,9.639-12.837,20.2-19.8,31.616-.864,1.431-1.735,2.873-2.573,4.356-.209.372-.415.743-.607,1.138a2.527,2.527,0,0,0-.137.323.371.371,0,0,0-.024.159c.018.116,0,.073-.011.083l-.008,0-.022.073-.189.6q-.42,1.211-.842,2.426l-3.577,9.838q-3.685,9.948-7.547,20.362l-.006.013,0,.014c-2.009,8.541-4.115,17.5-6.261,26.614-.121.516-.242,1.033-.361,1.539l-.065.282h.288l71.365-.019h.193l.016-.193q1.082-12.978,2.06-24.734l-.029.086,32.883-53.2c3.938-6.409,7.03-11.438,9.143-14.877l2.385-3.926c.263-.439.462-.777.6-1.011a2.432,2.432,0,0,0,.189-.35c-.858,1.379-18.178,29.207-45.53,73.156l-.025.038,0,.048q-.993,11.739-2.092,24.731l.209-.191-71.365-.019.223.28c.118-.508.24-1.024.36-1.541,2.144-9.115,4.249-18.073,6.258-26.614l-.01.027q3.854-10.4,7.541-20.367,1.805-4.988,3.569-9.846.425-1.223.844-2.436l.194-.621.024-.08a.971.971,0,0,0,.019-.156l0-.078c.161-.068-.232.054-.137.022a.357.357,0,0,1,.123-.018c.06.006.014.037.025.03l.01-.029a2.559,2.559,0,0,1,.113-.264c.18-.373.387-.743.592-1.111.831-1.474,1.7-2.916,2.561-4.346,6.95-11.413,13.659-21.989,19.754-31.637l-.158.084,56.016.732,15.467.175c1.767.014,3.12.027,4.044.033s1.375,0,1.375,0" transform="translate(79.659 59.318)" fill="#1a2e35"/>
    <path id="Trazado_252" data-name="Trazado 252" d="M150.586,125.446a3.123,3.123,0,0,0,.637.029c.463,0,1.07,0,1.826-.008,1.638-.032,3.918-.073,6.713-.127,5.669-.129,13.5-.342,22.142-.484s16.478-.124,22.141.056c2.832.076,5.121.2,6.7.285l1.823.105a3.251,3.251,0,0,0,.638,0,3.609,3.609,0,0,0-.63-.1c-.46-.046-1.063-.111-1.816-.189-1.581-.145-3.87-.312-6.705-.431-5.667-.263-13.506-.318-22.16-.188s-16.478.4-22.144.618c-2.794.111-5.072.2-6.708.271l-1.823.1a3.339,3.339,0,0,0-.635.062" transform="translate(89.138 73.597)" fill="#1a2e35"/>
    <path id="Trazado_253" data-name="Trazado 253" d="M145.076,147.656c.014.126,10.109-.977,22.542-2.461s22.5-2.791,22.489-2.916-10.107.977-22.543,2.463-22.5,2.789-22.488,2.915" transform="translate(85.876 84.215)" fill="#1a2e35"/>
    <path id="Trazado_254" data-name="Trazado 254" d="M193.049,152.781l-13.353-.85c-1.4-.089-2.947-.24-3.924-1.251-1.218-1.259-.622-4.115.914-4.957l15.3-3.687" transform="translate(103.661 84.076)" fill="#d39c8c"/>
    <path id="Trazado_255" data-name="Trazado 255" d="M192.068,142.036a6.815,6.815,0,0,0-1.183.2l-3.232.71-10.938,2.557-.032.006-.024.014A3.18,3.18,0,0,0,175.377,147a4.331,4.331,0,0,0-.395,1.95,2.777,2.777,0,0,0,.788,1.96,3.969,3.969,0,0,0,1.794.944,21.991,21.991,0,0,0,3.676.377l6.186.345,4.172.193a9.765,9.765,0,0,0,1.533.008,9.881,9.881,0,0,0-1.522-.186l-4.163-.337-6.18-.443a22.478,22.478,0,0,1-3.588-.39,3.538,3.538,0,0,1-1.594-.839,2.333,2.333,0,0,1-.648-1.648,3.437,3.437,0,0,1,1.438-3.018l-.054.021,10.9-2.708,3.2-.839a6.916,6.916,0,0,0,1.146-.358" transform="translate(103.577 84.074)" fill="#8a503f"/>
    <path id="Trazado_256" data-name="Trazado 256" d="M187.569,139.025a65.782,65.782,0,0,0-11.862,3.343,2.633,2.633,0,0,0-1.754,3.06,2.126,2.126,0,0,0,.879,1.632,4.241,4.241,0,0,0,1.872.517,48.376,48.376,0,0,0,11.351-.689c3.824-.529,9.123,0,11.339,1.17" transform="translate(102.953 82.295)" fill="#d39c8c"/>
    <path id="Trazado_257" data-name="Trazado 257" d="M199.475,148.059a1.552,1.552,0,0,0-.379-.226,8.471,8.471,0,0,0-1.176-.455,21.489,21.489,0,0,0-4.558-.786,28.416,28.416,0,0,0-3.2-.067,35.061,35.061,0,0,0-3.647.376,48.977,48.977,0,0,1-8.3.548,17.889,17.889,0,0,1-2.152-.2,2.019,2.019,0,0,1-1.571-.989,2.728,2.728,0,0,1,.712-3.359,8.612,8.612,0,0,1,1.673-.721q.86-.31,1.665-.6c1.078-.374,2.092-.7,3.022-.973,1.858-.557,3.384-.928,4.443-1.178a14.349,14.349,0,0,0,1.64-.408,1.541,1.541,0,0,0-.438.037c-.285.035-.7.1-1.239.2-1.071.194-2.616.521-4.5,1.04-.942.256-1.964.565-3.053.923q-.817.279-1.681.579a8.652,8.652,0,0,0-1.773.753,2.6,2.6,0,0,0-1.129,1.751,3.737,3.737,0,0,0,.253,2.154,1.951,1.951,0,0,0,.806.855,3.6,3.6,0,0,0,1.078.38,18.6,18.6,0,0,0,2.222.209,47,47,0,0,0,8.374-.591c1.278-.18,2.474-.368,3.609-.412a28.481,28.481,0,0,1,3.16.011,24.166,24.166,0,0,1,4.531.634c1.051.264,1.582.549,1.6.511" transform="translate(102.871 82.292)" fill="#8a503f"/>
    <path id="Trazado_258" data-name="Trazado 258" d="M197.825,132.074,187.3,137.945a10.709,10.709,0,0,0-4.2,3.392c-.949,1.554-.872,3.9.653,4.892,1.2.782,2.77.489,4.157.137a101.931,101.931,0,0,0,11.575-3.679" transform="translate(108.016 78.18)" fill="#d39c8c"/>
    <path id="Trazado_259" data-name="Trazado 259" d="M199.569,142.689a11.019,11.019,0,0,0-1.479.46c-.944.317-2.308.778-4.007,1.3s-3.735,1.111-6.016,1.68a6.5,6.5,0,0,1-3.513.2,2.451,2.451,0,0,1-1.356-1.108,3.355,3.355,0,0,1-.4-1.813,4.647,4.647,0,0,1,1.691-3.271,16.344,16.344,0,0,1,3.023-2.022l5.441-3.09,3.649-2.119a10.349,10.349,0,0,0,1.309-.831,9.96,9.96,0,0,0-1.395.675l-3.72,1.992-5.487,3.006a16.334,16.334,0,0,0-3.12,2.058,6.193,6.193,0,0,0-1.278,1.562,4.553,4.553,0,0,0-.568,2.02,3.788,3.788,0,0,0,.463,2.062,2.894,2.894,0,0,0,1.606,1.3,6.81,6.81,0,0,0,3.762-.215c2.283-.594,4.317-1.215,6.01-1.78s3.042-1.073,3.97-1.442c.462-.186.82-.334,1.059-.443a1.341,1.341,0,0,0,.358-.185" transform="translate(107.932 78.18)" fill="#8a503f"/>
    <path id="Trazado_260" data-name="Trazado 260" d="M36.393,187.663l5-1.415,15.9-1.482,4.445-5.909-3.1-12.753-19.864-4.725c-9.176,6.525-6.7,17.4-2.383,26.285" transform="translate(19.253 95.526)" fill="#d39c8c"/>
    <path id="Trazado_261" data-name="Trazado 261" d="M68.464,157.815a13.7,13.7,0,0,1,5.58.438,7.407,7.407,0,0,1,4.421,5.788c.513,4.09.675,7.406.968,11.214a3.583,3.583,0,0,1-1.04,2.69c-1.25,1.277-3.523.85-4.814-.385a11.938,11.938,0,0,1-2.495-4.688c-.622-1.675-1.282-5.685-2.253-6.035-2.767-1-6.533,3.77-8.616,1.43l-3.774-9.208c5.849-.572,6.174-.67,12.022-1.243" transform="translate(33.41 93.363)" fill="#d39c8c"/>
    <path id="Trazado_262" data-name="Trazado 262" d="M68.553,157.843a.719.719,0,0,0-.215,0l-.624.038-2.4.2-8.8.845-.221.022.084.207,3.736,9.224.013.03.024.029a2.153,2.153,0,0,0,1.813.707,5.711,5.711,0,0,0,1.867-.564,20.387,20.387,0,0,1,3.54-1.539l.466-.075.465,0a3.643,3.643,0,0,1,.451.091c.161.03.2.094.309.207a6.2,6.2,0,0,1,.782,1.8c.412,1.312.675,2.7,1.173,4.074a16.693,16.693,0,0,0,1.625,3.577A5.579,5.579,0,0,0,74,178.148a4.557,4.557,0,0,0,1.8.755,3.46,3.46,0,0,0,1.929-.167,3.11,3.11,0,0,0,1.425-1.267,3.761,3.761,0,0,0,.583-1.761c.014-.642-.073-1.169-.1-1.75-.169-2.265-.317-4.422-.516-6.436-.1-1.008-.2-1.98-.322-2.912a7.807,7.807,0,0,0-.689-2.647,7.076,7.076,0,0,0-6.567-4.266,16.693,16.693,0,0,0-2.219.041c-.253.022-.446.045-.575.064a.612.612,0,0,0-.193.041,6.431,6.431,0,0,0,.772-.013,20.922,20.922,0,0,1,2.2.043,7.548,7.548,0,0,1,3.3.887,7.354,7.354,0,0,1,2.982,3.337,7.563,7.563,0,0,1,.634,2.555q.16,1.395.295,2.905c.18,2.009.315,4.163.473,6.431.025.554.111,1.172.094,1.692a3.336,3.336,0,0,1-.524,1.555,2.682,2.682,0,0,1-1.223,1.09,3.03,3.03,0,0,1-1.684.135,4.342,4.342,0,0,1-2.858-2,16.334,16.334,0,0,1-1.574-3.482c-.478-1.317-.748-2.714-1.168-4.048a6.4,6.4,0,0,0-.871-1.956,1.052,1.052,0,0,0-.228-.215.732.732,0,0,0-.291-.131,4.1,4.1,0,0,0-.543-.11c-.181,0-.365-.008-.544,0l-.525.086a20.262,20.262,0,0,0-3.625,1.581,5.4,5.4,0,0,1-1.718.535,1.727,1.727,0,0,1-1.471-.56l.037.059-3.813-9.192-.137.229c3.714-.38,6.713-.753,8.788-.993l2.388-.287.619-.086a.711.711,0,0,0,.21-.045" transform="translate(33.322 93.335)" fill="#8a503f"/>
    <path id="Trazado_263" data-name="Trazado 263" d="M48.142,160.353s1.971-.615,4.637,1.328c0,0,1-4.386,4.5-5.249,2.542-.626,5.776,1.982,5.776,1.982s2.194-4.387,8.044-2.56c4.838,1.512,14.991,31.527,15.864,33.539,1,2.3-3.106,5.19-5.371,2.865-2.372-2.437-10.348-15.77-10.348-15.77l5.3,18.7a3.569,3.569,0,0,1-.053,1.848,3.9,3.9,0,0,1-6.957.548c-3.291-4.459-6.645-13.646-6.645-13.646l-3.233-7.051s6.037,18.681,3.843,20.382-5.01,1.044-7.022-3.343-9.324-18.282-9.324-18.282l-3.472-1.829,1.278,4.389s6.653,3.474,5.155,6.581-4.634,2.184-7.713.731-5.763-8.67-7.409-11.639c-1.471-2.655-1.613-10.467,4.7-10.765A4.825,4.825,0,0,1,43.3,164.55l.314.315s1.033-3.891,4.529-4.512" transform="translate(20.216 91.993)" fill="#d39c8c"/>
    <path id="Trazado_264" data-name="Trazado 264" d="M48.184,160.4s-.142.022-.419.083a2.6,2.6,0,0,0-.508.156,3.856,3.856,0,0,0-.677.307,6.765,6.765,0,0,0-2.994,3.948l.119-.033a5.186,5.186,0,0,0-3.233-1.765,5.87,5.87,0,0,0-4.282,1.312,7.044,7.044,0,0,0-2.084,4.814,11.014,11.014,0,0,0,.186,2.942,7.081,7.081,0,0,0,.465,1.484c.216.493.482.922.708,1.409.934,1.9,1.834,3.964,2.985,6.024a19.775,19.775,0,0,0,2.015,3.018,7.225,7.225,0,0,0,1.383,1.3,11.134,11.134,0,0,0,1.735.848,8.468,8.468,0,0,0,3.878.8,3.308,3.308,0,0,0,1.906-.844,4.087,4.087,0,0,0,.678-.821l.259-.465c.064-.172.118-.35.175-.527a3,3,0,0,0-.425-2.119,7.409,7.409,0,0,0-1.385-1.665,18.188,18.188,0,0,0-3.583-2.526l.094.113c-.392-1.348-.831-2.858-1.275-4.389l-.275.226,3.472,1.832-.083-.083q2.6,5.01,5.378,10.375l2.754,5.464q.673,1.4,1.358,2.816a9.627,9.627,0,0,0,1.836,2.651,4.178,4.178,0,0,0,3.017,1.309A3.832,3.832,0,0,0,63,197.922a4.154,4.154,0,0,0,.715-.474,1.536,1.536,0,0,0,.419-.837,10.929,10.929,0,0,0-.062-3.343c-.148-1.1-.353-2.19-.581-3.281-.938-4.359-2.191-8.722-3.574-13.124l-.423.164c1.024,2.23,2.124,4.631,3.233,7.051l-.006-.016c.737,1.982,1.6,4.077,2.536,6.159.694,1.535,1.428,3.045,2.237,4.51q.609,1.1,1.288,2.151a8.573,8.573,0,0,0,1.624,1.949,4.01,4.01,0,0,0,2.391.928,4.306,4.306,0,0,0,2.44-.739,3.632,3.632,0,0,0,1.555-2.012,3.8,3.8,0,0,0,.105-1.278,6.217,6.217,0,0,0-.277-1.211c-1.757-6.191-3.47-12.22-5.124-18.04l-.4.172q3.045,5.053,6.1,9.8c1.027,1.574,2.054,3.123,3.146,4.6a6.745,6.745,0,0,0,1.966,1.99,3.289,3.289,0,0,0,2.772.024A3.966,3.966,0,0,0,87.1,191.22a2.464,2.464,0,0,0,.217-1.395,13.249,13.249,0,0,0-.446-1.261q-.893-2.436-1.759-4.795c-1.162-3.143-2.312-6.172-3.472-9.068s-2.319-5.663-3.509-8.272a65.164,65.164,0,0,0-3.786-7.28,11.582,11.582,0,0,0-2.415-2.953,2.625,2.625,0,0,0-.839-.451l-.88-.226a9.062,9.062,0,0,0-1.769-.188,6.169,6.169,0,0,0-5.456,3.076l.175-.038a10.8,10.8,0,0,0-3.829-1.939,4.371,4.371,0,0,0-1.937-.062,4.89,4.89,0,0,0-1.638.708,6.652,6.652,0,0,0-2.063,2.3,9.743,9.743,0,0,0-.936,2.334l.092-.033a6.833,6.833,0,0,0-3.474-1.385,2.953,2.953,0,0,0-1.2.105s.1-.019.293-.041a4.287,4.287,0,0,1,.9,0,6.885,6.885,0,0,1,3.408,1.42l.072.051.022-.086a9.682,9.682,0,0,1,.949-2.288,6.537,6.537,0,0,1,2.031-2.229,4.721,4.721,0,0,1,1.581-.669,4.205,4.205,0,0,1,1.85.073,10.643,10.643,0,0,1,3.732,1.921l.108.083.068-.121a5.927,5.927,0,0,1,5.249-2.913,8.9,8.9,0,0,1,1.711.191l.856.223a2.377,2.377,0,0,1,.751.411,11.382,11.382,0,0,1,2.331,2.886,65.436,65.436,0,0,1,3.739,7.256q1.765,3.914,3.477,8.269t3.445,9.068l1.748,4.8c.143.4.337.836.425,1.192a2.081,2.081,0,0,1-.188,1.156,3.567,3.567,0,0,1-1.82,1.641,2.884,2.884,0,0,1-2.434-.014,6.49,6.49,0,0,1-1.818-1.872c-1.078-1.468-2.1-3.014-3.123-4.588-2.035-3.152-4.055-6.427-6.078-9.792l-.842-1.4.446,1.573c1.648,5.819,3.354,11.846,5.105,18.034a5.8,5.8,0,0,1,.264,1.138,3.353,3.353,0,0,1-.094,1.126,3.2,3.2,0,0,1-1.367,1.748,3.873,3.873,0,0,1-2.176.662,3.555,3.555,0,0,1-2.117-.829,8.118,8.118,0,0,1-1.53-1.845q-.666-1.034-1.269-2.12c-.8-1.45-1.528-2.951-2.219-4.477-.931-2.071-1.794-4.163-2.525-6.129l0-.008,0-.008c-1.111-2.42-2.213-4.82-3.235-7.051l-.423.164c1.382,4.386,2.635,8.746,3.571,13.078.228,1.083.43,2.165.576,3.248a10.7,10.7,0,0,1,.075,3.187,1.172,1.172,0,0,1-.279.6,3.724,3.724,0,0,1-.635.42,3.383,3.383,0,0,1-1.444.42,3.737,3.737,0,0,1-2.7-1.183c-1.492-1.445-2.143-3.517-3.112-5.343q-1.4-2.772-2.765-5.467-2.787-5.351-5.4-10.368l-.027-.054-.056-.029-3.475-1.824-.4-.212.129.436c.449,1.531.89,3.039,1.285,4.387l.022.075.072.038a17.953,17.953,0,0,1,3.509,2.46,7.179,7.179,0,0,1,1.323,1.579,2.643,2.643,0,0,1,.39,1.861,3.208,3.208,0,0,1-2.711,2.394,8.179,8.179,0,0,1-3.716-.766,11.154,11.154,0,0,1-1.679-.812,6.96,6.96,0,0,1-1.323-1.237,19.765,19.765,0,0,1-1.992-2.963c-1.151-2.039-2.057-4.09-3-6-.224-.476-.513-.944-.71-1.4a6.906,6.906,0,0,1-.455-1.425,10.761,10.761,0,0,1-.2-2.872,6.836,6.836,0,0,1,1.98-4.674,5.7,5.7,0,0,1,4.122-1.293,5.041,5.041,0,0,1,3.154,1.691l.081.089.038-.121a5.946,5.946,0,0,1,4.459-4.531" transform="translate(20.174 91.947)" fill="#8a503f"/>
    <path id="Trazado_265" data-name="Trazado 265" d="M48.115,163.165a21.7,21.7,0,0,0,1.673,5.85c.607,1.568,1.205,2.963,1.648,3.969a7.339,7.339,0,0,0,.794,1.6,38.245,38.245,0,0,0-2.015-5.731c-.6-1.562-1.122-2.982-1.476-4.018a8.679,8.679,0,0,0-.624-1.668" transform="translate(28.47 96.584)" fill="#8a503f"/>
    <path id="Trazado_266" data-name="Trazado 266" d="M54.631,161.983c-.121.059.993,2.514,2.226,5.6a37.315,37.315,0,0,0,2.417,5.527,7.113,7.113,0,0,0-.5-1.7c-.361-1.028-.866-2.45-1.488-4s-1.254-2.923-1.75-3.9a6.539,6.539,0,0,0-.9-1.53" transform="translate(32.333 95.884)" fill="#8a503f"/>
  </g>
</svg>
