<svg id="Grupo_102" data-name="Grupo 102" xmlns="http://www.w3.org/2000/svg" xmlns:xlink="http://www.w3.org/1999/xlink" width="379.808" height="386.674" viewBox="0 0 379.808 386.674">
  <defs>
    <clipPath id="clip-path">
      <rect id="Rectángulo_114" data-name="Rectángulo 114" width="379.808" height="386.674" fill="none"/>
    </clipPath>
    <clipPath id="clip-path-3">
      <rect id="Rectángulo_107" data-name="Rectángulo 107" width="13.125" height="27.325" fill="none"/>
    </clipPath>
    <clipPath id="clip-path-4">
      <rect id="Rectángulo_108" data-name="Rectángulo 108" width="38.231" height="11.098" fill="none"/>
    </clipPath>
    <clipPath id="clip-path-5">
      <rect id="Rectángulo_109" data-name="Rectángulo 109" width="19.675" height="24.583" fill="none"/>
    </clipPath>
    <clipPath id="clip-path-6">
      <rect id="Rectángulo_110" data-name="Rectángulo 110" width="38.325" height="19.48" fill="none"/>
    </clipPath>
    <clipPath id="clip-path-7">
      <rect id="Rectángulo_111" data-name="Rectángulo 111" width="31.629" height="15.125" fill="none"/>
    </clipPath>
    <clipPath id="clip-path-8">
      <rect id="Rectángulo_112" data-name="Rectángulo 112" width="26.052" height="37.142" fill="none"/>
    </clipPath>
  </defs>
  <g id="Grupo_101" data-name="Grupo 101" clip-path="url(#clip-path)">
    <g id="Grupo_100" data-name="Grupo 100">
      <g id="Grupo_99" data-name="Grupo 99" clip-path="url(#clip-path)">
        <path id="Trazado_425" data-name="Trazado 425" d="M176.037,100.334c1.353-9.941,12.382-18.583,8.727-27.925-2.451-6.266-10.563-8.837-13.075-15.079-1.74-4.322-.377-9.512-2.5-13.66-2.9-5.672-10.736-6.736-14.957-11.507-2.908-3.286-3.747-7.935-6.278-11.521s-8.566-5.539-11.012-1.9l25.28,71.135c3.792,17.594,5.6,35.232,9.39,52.826,5.331,2.636,11.867-2.479,12.957-8.325s-1.481-11.692-4.053-17.055-5.283-11.1-4.48-16.993" transform="translate(2.91 0.357)" fill="#1a2e35"/>
        <path id="Trazado_426" data-name="Trazado 426" d="M131.571,115.5q-14.83-38.885-29.659-77.771L89.1,21.02c-2.921-8.419-14.447-3.831-20.332,2.86s-4.5,25.477-2.83,34.231.887,11.012.189,19.9C65.18,90,57.4,101.7,60.736,113.256c2.349,8.137,9.678,13.813,13.522,21.361,4.8,9.429,3.707,20.663,5.723,31.051s9.948,21.592,20.443,20.238q-.447-4.4-.894-8.808c12.891,4.975,29.016-.867,35.729-12.944,8.175-14.705,2.306-32.93-3.689-48.65" transform="translate(1.273 0.35)" fill="#1a2e35"/>
        <path id="Trazado_427" data-name="Trazado 427" d="M78.147,58.347a42.8,42.8,0,0,1,33.684-47.279L114,10.612c23.679-3.538,39.911,14.6,42.792,38.363L178.62,175.548H123.034l-8.5-41.874s-23.22,1.218-28.212-21.207c-2.41-10.83-5.559-33.537-8.17-54.119" transform="translate(1.654 0.216)" fill="#ffc09d"/>
        <path id="Trazado_428" data-name="Trazado 428" d="M113.576,131.418s14.54-2.147,27.652-14.8c0,0-3.537,17.634-26.4,20.313Z" transform="translate(2.414 2.479)" fill="#ff9b6c"/>
        <path id="Trazado_429" data-name="Trazado 429" d="M88.113,75.265a3.279,3.279,0,0,0,3.775,2.59,3.138,3.138,0,0,0,2.7-3.589,3.282,3.282,0,0,0-3.773-2.593,3.141,3.141,0,0,0-2.705,3.592" transform="translate(1.872 1.522)" fill="#1a2e35"/>
        <path id="Trazado_430" data-name="Trazado 430" d="M85.133,67.226c.485.335,2.54-1.975,6-2.69,3.443-.765,6.351.482,6.637-.02.145-.226-.42-.9-1.692-1.469a8.995,8.995,0,0,0-5.422-.5,8.643,8.643,0,0,0-4.664,2.664c-.892,1.038-1.093,1.87-.857,2.017" transform="translate(1.807 1.325)" fill="#1a2e35"/>
        <path id="Trazado_431" data-name="Trazado 431" d="M118.574,68.7a3.279,3.279,0,0,0,3.775,2.59,3.138,3.138,0,0,0,2.7-3.589,3.283,3.283,0,0,0-3.773-2.593,3.139,3.139,0,0,0-2.705,3.592" transform="translate(2.519 1.383)" fill="#1a2e35"/>
        <path id="Trazado_432" data-name="Trazado 432" d="M118.52,60.885c.486.335,2.544-1.975,6-2.69,3.441-.764,6.349.482,6.636-.019.145-.226-.416-.9-1.692-1.469a8.995,8.995,0,0,0-5.422-.5,8.643,8.643,0,0,0-4.665,2.663c-.888,1.038-1.092,1.871-.857,2.017" transform="translate(2.517 1.19)" fill="#1a2e35"/>
        <path id="Trazado_433" data-name="Trazado 433" d="M111.7,89.053c-.025-.2-2.251-.122-5.824.163-.9.095-1.773.094-2.048-.477A4.594,4.594,0,0,1,103.865,86q.573-3.462,1.2-7.265c1.619-10.325,2.592-18.739,2.176-18.8s-2.066,8.258-3.684,18.583c-.378,2.542-.74,4.964-1.083,7.283-.124,1.072-.46,2.329.268,3.558a2.261,2.261,0,0,0,1.722.986,6.116,6.116,0,0,0,1.542-.105c3.542-.546,5.717-.987,5.689-1.185" transform="translate(2.174 1.274)" fill="#1a2e35"/>
        <path id="Trazado_434" data-name="Trazado 434" d="M115.875,54.022c.785.653,3.6-1.521,7.423-3.181,3.794-1.739,7.289-2.38,7.329-3.4,0-.48-.956-.964-2.591-1.085A14.041,14.041,0,0,0,116.8,51.371c-1,1.3-1.283,2.334-.923,2.651" transform="translate(2.46 0.985)" fill="#1a2e35"/>
        <path id="Trazado_435" data-name="Trazado 435" d="M85.485,57.025c.426.921,2.982.655,5.841,1.272,2.88.518,5.143,1.736,5.885,1.047.335-.341.136-1.211-.749-2.194a8.659,8.659,0,0,0-9.45-1.868c-1.191.571-1.708,1.3-1.528,1.742" transform="translate(1.816 1.161)" fill="#1a2e35"/>
        <path id="Trazado_436" data-name="Trazado 436" d="M157.956,29.025s-1-5-8.258-9.514l-13.619,3c4.715,1.447,3.951,7.562,3.294,9-2.45,16.811,11.34,22.858,11.34,22.858l2.181,13.843c.189,3.6,2.084,6.143,5.621,5.422h0s1.849-11.111,1.93-15.519c.156-8.547.2-20.973-2.491-29.088" transform="translate(2.892 0.415)" fill="#1a2e35"/>
        <path id="Trazado_437" data-name="Trazado 437" d="M155.238,65.207c.348-.246,14.491-7.809,17.222,7.666S159.093,87.9,158.988,87.458s-3.75-22.251-3.75-22.251" transform="translate(3.299 1.342)" fill="#ffc09d"/>
        <path id="Trazado_438" data-name="Trazado 438" d="M161.217,80.936c.06-.061.3.141.8.27a2.739,2.739,0,0,0,2.022-.315c1.529-.888,2.448-3.727,2.03-6.529a9.055,9.055,0,0,0-1.436-3.727,3.161,3.161,0,0,0-2.393-1.711,1.394,1.394,0,0,0-1.46,1.019c-.131.47.021.761-.055.8-.037.047-.378-.2-.367-.862a1.746,1.746,0,0,1,.438-1.076,2.062,2.062,0,0,1,1.421-.657,3.846,3.846,0,0,1,3.239,1.9,9.287,9.287,0,0,1,1.7,4.148c.451,3.135-.63,6.335-2.753,7.377a2.932,2.932,0,0,1-2.537.026c-.547-.3-.689-.629-.641-.667" transform="translate(3.408 1.448)" fill="#ff9b6c"/>
        <path id="Trazado_439" data-name="Trazado 439" d="M135.156,21.932l-.026-.01c-.1.016-.2.044-.3.052Z" transform="translate(2.865 0.466)" fill="#1a2e35"/>
        <path id="Trazado_440" data-name="Trazado 440" d="M160.569,37.795c-1.212-3.783-.594-7.976-2.482-11.471s-5.8-7.739-9.57-8.977a26.682,26.682,0,0,0-8.012-1.486s-.006.181-.079-.183c-1.292-6.456-14.545-13.8-18.6-14.8C108.89-2.338,103.791,4,91.239,8.475s-24.946,13.538-26.7,26.748a9.486,9.486,0,0,0,6.17,1.178c-3.488,8.021-4.115,17.16-2.8,25.84,1.44,9.484,5.066,18.5,9.275,27.124-2.375-4.581-1.471-10.174.237-15.043S81.6,64.774,82.27,59.658c.994-7.6-.339-13.388,2.123-20.646,2.551-7.517,11.663-9.693,11.663-9.693,5.592.091,10.263-4.154,14.717-7.536,3.873-2.94,9.066-3.68,13.887-3.054s5.5,2.1,9.986,3.931a14.689,14.689,0,0,1,4.373,6.067c-.04,2.259.476,3.643-.123,5.822-2.3,8.377,2.828,17.369,9.994,22.28s15.975,6.644,24.51,8.268a117.314,117.314,0,0,1-12.831-27.3" transform="translate(1.372 0)" fill="#1a2e35"/>
        <path id="Trazado_441" data-name="Trazado 441" d="M176.908,132.993l-9.643-36.285a47.8,47.8,0,0,0-3.429-9.91c-1.21-2.322-2.8-4.451-3.764-6.887-1.3-3.3-1.355-6.937-1.249-10.479s.355-7.128-.386-10.592-2.647-6.873-5.8-8.489l-10.744-.7c4.5,5.009,4.861,12.444,4.243,19.147s-1.956,13.606-.019,20.054c2.486,8.275,10.041,14.556,11.447,23.081.741,4.491-.337,9.052-.948,13.564s-.666,9.422,1.819,13.236a6.212,6.212,0,0,0,3.881,2.935,8.491,8.491,0,0,0,4.231-.718l7.636-2.7a3.531,3.531,0,0,0,2.726-5.266" transform="translate(3.016 1.055)" fill="#1a2e35"/>
        <path id="Trazado_442" data-name="Trazado 442" d="M99.7,187.918s-.2.032-.593.065a5.082,5.082,0,0,1-1.731-.26,7.489,7.489,0,0,1-4.525-4.745,9.932,9.932,0,0,1-.245-4.852,19.208,19.208,0,0,1,1.98-5.44c.958-1.847,2.178-3.7,3.313-5.748a19.118,19.118,0,0,0,2.477-6.889c.687-5.146-1.2-10.9-4.744-15.81-3.571-4.972-8.759-9.064-14.014-13.5a68.084,68.084,0,0,1-7.638-7.366,29.6,29.6,0,0,1-5.721-9.476,27.544,27.544,0,0,1-1.209-11.4,67.348,67.348,0,0,1,2.362-11.57c1.051-3.839,2.175-7.6,2.96-11.383a40.221,40.221,0,0,0,.92-11.287c-.635-7.453-3.47-14.234-4.893-21a33.568,33.568,0,0,1-.84-10.065,24.829,24.829,0,0,1,2.563-9.172,33.82,33.82,0,0,1,4.961-7.388,34.413,34.413,0,0,1,6.066-5.528c4.259-3.04,9.088-4.554,13.272-4.052a12.257,12.257,0,0,1,5.421,2,13.322,13.322,0,0,1,3.509,3.365,10.517,10.517,0,0,1,1.686,3.5,10.145,10.145,0,0,1,.3,1.533c.022.476.031.91.026,1.295q-.07.57-.126,1.011a6.744,6.744,0,0,1-.183.711c-.108.38-.177.569-.177.569s.034-.2.125-.582c.038-.192.119-.424.155-.712s.061-.625.1-1c0-.381-.02-.808-.051-1.276a10.22,10.22,0,0,0-.316-1.505,10.441,10.441,0,0,0-1.7-3.418,13.184,13.184,0,0,0-3.48-3.274,12.015,12.015,0,0,0-5.313-1.917c-4.1-.463-8.831,1.042-13.024,4.063A34.181,34.181,0,0,0,75.395,20.9a33.491,33.491,0,0,0-4.874,7.311,24.41,24.41,0,0,0-2.493,9.017,33.146,33.146,0,0,0,.853,9.925c1.42,6.707,4.276,13.492,4.934,21.06a40.7,40.7,0,0,1-.921,11.435c-.789,3.809-1.917,7.585-2.965,11.416a66.937,66.937,0,0,0-2.349,11.478,27.058,27.058,0,0,0,1.174,11.177,29.135,29.135,0,0,0,5.614,9.317,67.9,67.9,0,0,0,7.571,7.324c5.232,4.439,10.447,8.566,14.054,13.617,3.574,4.995,5.484,10.849,4.757,16.116a17.174,17.174,0,0,1-.968,3.726A26.194,26.194,0,0,1,98.2,167.1c-1.155,2.055-2.385,3.9-3.346,5.722a18.991,18.991,0,0,0-1.994,5.347,9.74,9.74,0,0,0,.192,4.74,7.414,7.414,0,0,0,4.364,4.709,5.751,5.751,0,0,0,2.29.3" transform="translate(1.422 0.233)" fill="#375a64"/>
        <path id="Trazado_443" data-name="Trazado 443" d="M106.769,3.3a2.532,2.532,0,0,1,.916.011A8.325,8.325,0,0,1,110.093,4a9.655,9.655,0,0,1,3.045,2.143,9.4,9.4,0,0,1,2.287,3.952,9.41,9.41,0,0,1,.051,4.567,9.652,9.652,0,0,1-1.525,3.4,8.312,8.312,0,0,1-1.723,1.816,2.505,2.505,0,0,1-.782.477,15.791,15.791,0,0,0,2.194-2.5,9.662,9.662,0,0,0,1.271-7.612,9.66,9.66,0,0,0-4.979-5.9A15.707,15.707,0,0,0,106.769,3.3" transform="translate(2.269 0.07)" fill="#375a64"/>
        <path id="Trazado_444" data-name="Trazado 444" d="M126.1,5.641A4.253,4.253,0,0,1,127,7.387a9.612,9.612,0,0,1-1.8,9.035,4.252,4.252,0,0,1-1.506,1.265c-.059-.071.513-.554,1.212-1.5a10.545,10.545,0,0,0,1.732-8.7c-.284-1.142-.627-1.807-.544-1.849" transform="translate(2.629 0.12)" fill="#375a64"/>
        <path id="Trazado_445" data-name="Trazado 445" d="M175.077,141.917c-.015-.044.538-.139,1.457-.625a8.191,8.191,0,0,0,3.136-3.184,11.4,11.4,0,0,0,1.384-6.893,21.7,21.7,0,0,0-3.494-8.759c-1.841-3.013-4.319-6.059-6.161-9.856a17.563,17.563,0,0,1-1.8-6.26,18.978,18.978,0,0,1,.792-6.858c1.3-4.575,3.893-8.851,6.033-13.448a33.495,33.495,0,0,0,2.447-7.31,15.656,15.656,0,0,0-.253-7.8,12.969,12.969,0,0,0-4.549-6.265,37.727,37.727,0,0,0-6.642-3.937,64.052,64.052,0,0,1-6.624-3.613,17.92,17.92,0,0,1-5.192-5.069,22.516,22.516,0,0,1-2.748-6.333,55.233,55.233,0,0,1-1.294-6.361,60.75,60.75,0,0,0-2.349-11.312,15.7,15.7,0,0,0-5.283-7.694,12.3,12.3,0,0,0-6.648-2.361A8.333,8.333,0,0,0,132.944,19a6.09,6.09,0,0,0-.982.653,2.419,2.419,0,0,1-.334.233,2.288,2.288,0,0,1,.3-.275,5.271,5.271,0,0,1,.963-.7,8.266,8.266,0,0,1,4.409-1.131,12.413,12.413,0,0,1,6.816,2.325,15.949,15.949,0,0,1,5.465,7.809,60.369,60.369,0,0,1,2.43,11.372c.67,4.078,1.479,8.579,4.017,12.494a17.438,17.438,0,0,0,5.063,4.914,64.242,64.242,0,0,0,6.576,3.571,38.1,38.1,0,0,1,6.737,3.987,13.5,13.5,0,0,1,4.727,6.519,16.166,16.166,0,0,1,.266,8.06,33.932,33.932,0,0,1-2.491,7.425c-2.171,4.641-4.747,8.876-6.037,13.369a18.532,18.532,0,0,0-.8,6.684,17.125,17.125,0,0,0,1.727,6.107c1.792,3.743,4.246,6.8,6.084,9.849a21.879,21.879,0,0,1,3.468,8.922,11.55,11.55,0,0,1-1.5,7.033,8.141,8.141,0,0,1-3.265,3.174,6.208,6.208,0,0,1-1.114.431,2.222,2.222,0,0,1-.393.1" transform="translate(2.797 0.378)" fill="#375a64"/>
        <path id="Trazado_446" data-name="Trazado 446" d="M169.6,137.72a3.448,3.448,0,0,1-1.332-.262,5.8,5.8,0,0,1-2.864-2.589,7.918,7.918,0,0,1-.973-2.659,13.388,13.388,0,0,1-.09-3.362c.1-1.2.315-2.47.518-3.81a37.394,37.394,0,0,0,.391-4.259,35.087,35.087,0,0,0-5.616-19.95,40.077,40.077,0,0,0-3.744-4.79,38.476,38.476,0,0,1-3.994-5.027,10.471,10.471,0,0,1-1.756-6.423,25.658,25.658,0,0,1,1.881-6.6,21.236,21.236,0,0,0,.935-3.25,11.776,11.776,0,0,0,.117-3.295,20.338,20.338,0,0,0-1.929-6.208c-.908-1.958-1.925-3.833-2.786-5.749a24.452,24.452,0,0,1-1.9-5.863,62.961,62.961,0,0,1-.672-11.325,45.316,45.316,0,0,0-.843-9.762,17.145,17.145,0,0,0-3.328-7.256,13.2,13.2,0,0,0-4.742-3.725,9.983,9.983,0,0,0-3.718-.9c-.881-.037-1.347.047-1.349.009a5.858,5.858,0,0,1,1.351-.116,9.716,9.716,0,0,1,3.8.814A13.247,13.247,0,0,1,141.84,25.1a17.34,17.34,0,0,1,3.466,7.361,45.157,45.157,0,0,1,.917,9.842,63.259,63.259,0,0,0,.712,11.237c.652,3.93,2.822,7.556,4.681,11.485a20.766,20.766,0,0,1,1.982,6.372,12.27,12.27,0,0,1-.122,3.445,21.517,21.517,0,0,1-.957,3.334,25.42,25.42,0,0,0-1.855,6.456,9.961,9.961,0,0,0,1.672,6.109A38.218,38.218,0,0,0,156.27,95.7a40.241,40.241,0,0,1,3.773,4.858,35.248,35.248,0,0,1,5.581,20.229,37.174,37.174,0,0,1-.433,4.3c-.217,1.343-.444,2.6-.556,3.785a13.285,13.285,0,0,0,.044,3.295,7.769,7.769,0,0,0,.9,2.6,5.788,5.788,0,0,0,2.724,2.593,7.466,7.466,0,0,0,1.292.362" transform="translate(2.801 0.437)" fill="#375a64"/>
        <path id="Trazado_447" data-name="Trazado 447" d="M124.373,99.054a6.344,6.344,0,0,0-6.911-3.731c-2.148.433-3.946,1.98-6.1,2.394l-.176,1.084q1.163,3.488,2.324,6.976a2.63,2.63,0,0,0,3.624,2.2,12.345,12.345,0,0,0,4.831-1.442,6.343,6.343,0,0,0,2.405-7.477" transform="translate(2.363 2.024)" fill="#ff9b6c"/>
        <path id="Trazado_448" data-name="Trazado 448" d="M115.467,108.4c-.016-.073.4-.232,1.146-.471a31.952,31.952,0,0,0,3.1-1.1,8.93,8.93,0,0,0,3.72-2.794,5.462,5.462,0,0,0,1.045-2.425,4.652,4.652,0,0,0-.463-2.734,5.479,5.479,0,0,0-4.375-3,7.766,7.766,0,0,0-4.518.957,10.423,10.423,0,0,1-3.2,1.155c-.825.092-1.268-.083-1.256-.139.007-.088.448-.062,1.176-.268a13.538,13.538,0,0,0,2.933-1.417,8.158,8.158,0,0,1,4.962-1.262,6.688,6.688,0,0,1,2.972.981,6.265,6.265,0,0,1,2.257,2.518,5.588,5.588,0,0,1,.538,3.36,6.294,6.294,0,0,1-1.294,2.864,9.174,9.174,0,0,1-4.222,2.9,17.823,17.823,0,0,1-3.285.807c-.785.116-1.224.139-1.241.068" transform="translate(2.352 2.016)" fill="#1a2e35"/>
        <path id="Trazado_449" data-name="Trazado 449" d="M114.025,146.138c.424,1.159,11.044,29.354,31.623,25.866s27.1-38.716,27.1-38.716l31.38,26.159-22.55,224.034H105.426L90.19,238.584Z" transform="translate(1.917 2.833)" fill="#3d3d3d"/>
        <path id="Trazado_450" data-name="Trazado 450" d="M103.075,148.837s-36.629,7.909-41.892,14.36c-4.224,5.178-34.629,57.816-34.629,57.816L12.783,252.952S2.528,258.812.769,265.844s-.586,24.614,4.4,30.767c0,0,3.223,21.1,16.409,21.976s25.239-4.8,33.989-12.6c7.731-6.888,20.891-53.863,20.219-56.259Z" transform="translate(0 3.163)" fill="#7aa0dd"/>
        <path id="Trazado_451" data-name="Trazado 451" d="M75.287,156.261,72.941,244.2V383.485h41.6l2.095-134.6s9.168-75.884,8-82.623-9.248-33.056-9.248-33.056l-13.857,15.967Z" transform="translate(1.55 2.831)" fill="#7aa0dd"/>
        <path id="Trazado_452" data-name="Trazado 452" d="M53.563,284.6c-.1-.008.08-1.67-.071-4.341a33.323,33.323,0,0,0-.608-4.648A32.888,32.888,0,0,0,48.7,264.98a33.308,33.308,0,0,0-2.725-3.815c-1.711-2.057-2.977-3.147-2.908-3.224a4.912,4.912,0,0,1,.927.72A12.335,12.335,0,0,1,45,259.6c.376.384.825.8,1.256,1.325a29.547,29.547,0,0,1,2.855,3.8,33.57,33.57,0,0,1,2.636,5.2,33.638,33.638,0,0,1,1.615,5.6,29.652,29.652,0,0,1,.5,4.727c.04.676,0,1.288-.016,1.825a12.141,12.141,0,0,1-.1,1.373,4.931,4.931,0,0,1-.187,1.159" transform="translate(0.915 5.482)" fill="#1a2e35"/>
        <path id="Trazado_453" data-name="Trazado 453" d="M52.819,290.461a1.724,1.724,0,0,1-.309.384c-.221.235-.528.6-.974,1.02a31.146,31.146,0,0,1-4,3.31,33.969,33.969,0,0,1-32.752,3.539,31.028,31.028,0,0,1-4.614-2.38c-.526-.314-.9-.606-1.17-.787a1.726,1.726,0,0,1-.384-.309,16.58,16.58,0,0,1,1.66.919,37.087,37.087,0,0,0,4.65,2.209,35.491,35.491,0,0,0,16.637,2.287,35.493,35.493,0,0,0,15.761-5.787,37.118,37.118,0,0,0,4.072-3.151,16.692,16.692,0,0,1,1.425-1.253" transform="translate(0.183 6.173)" fill="#1a2e35"/>
        <path id="Trazado_454" data-name="Trazado 454" d="M72.946,197.48a1.03,1.03,0,0,1,.036.262c.013.205.03.46.05.773q.051,1.083.141,2.974c.122,2.582.236,6.322.354,10.943.221,9.241.277,22.017.043,36.119s-.487,26.871-.554,36.113c-.029,4.589-.052,8.316-.068,10.945-.013,1.259-.023,2.254-.031,2.976-.008.314-.015.569-.02.774a1,1,0,0,1-.026.263.967.967,0,0,1-.03-.263c-.008-.205-.018-.46-.032-.773-.016-.722-.04-1.717-.069-2.976-.056-2.584-.088-6.325-.1-10.947-.03-9.244.166-22.016.4-36.12s.237-26.864.112-36.1c-.078-4.587-.141-8.315-.186-10.943-.017-1.259-.031-2.254-.041-2.976,0-.315,0-.57,0-.775a1,1,0,0,1,.019-.265" transform="translate(1.544 4.197)" fill="#1a2e35"/>
        <g id="Grupo_83" data-name="Grupo 83" transform="translate(111.378 169.81)" opacity="0.3">
          <g id="Grupo_82" data-name="Grupo 82">
            <g id="Grupo_81" data-name="Grupo 81" clip-path="url(#clip-path-3)">
              <path id="Trazado_455" data-name="Trazado 455" d="M109.06,186.489c.741,1.983,1.367,3.656,2.11,5.639.272.726.79,1.6,1.552,1.457.475-.091.768-.557,1-.98a82.176,82.176,0,0,0,8.229-22.163,5.772,5.772,0,0,0,.147-2.5,2.06,2.06,0,0,0-1.679-1.662c-1.2-.1-2.931,2.505-3.456,3.592-3.1,6.411-5.04,10.1-7.9,16.618" transform="translate(-109.06 -166.276)"/>
            </g>
          </g>
        </g>
        <path id="Trazado_456" data-name="Trazado 456" d="M122.464,166.023a6.047,6.047,0,0,0-2.113.765,11.364,11.364,0,0,0-3.749,4.9c-2.266,4.932-5.394,11.736-8.953,19.479l-.345.752-.149-.816c-.4-2.184-.811-4.453-1.233-6.773-1.786-10.017-3.4-19.083-4.584-25.714l-1.329-7.8c-.14-.881-.25-1.588-.335-2.126a3.909,3.909,0,0,1-.082-.748,3.994,3.994,0,0,1,.187.729l.433,2.108c.365,1.893.872,4.534,1.5,7.773,1.222,6.624,2.892,15.679,4.738,25.687.42,2.32.829,4.591,1.224,6.775l-.494-.063c3.618-7.756,6.8-14.557,9.122-19.409a11.213,11.213,0,0,1,3.959-4.905,5,5,0,0,1,1.615-.579,2.71,2.71,0,0,1,.593-.028" transform="translate(2.117 3.144)" fill="#1a2e35"/>
        <g id="Grupo_86" data-name="Grupo 86" transform="translate(9.78 300.947)" opacity="0.3">
          <g id="Grupo_85" data-name="Grupo 85">
            <g id="Grupo_84" data-name="Grupo 84" clip-path="url(#clip-path-4)">
              <path id="Trazado_457" data-name="Trazado 457" d="M28.169,300.9A37.384,37.384,0,0,1,9.576,296.42a17.317,17.317,0,0,0,10.846,8.641,23.171,23.171,0,0,0,15.07-1.3,36.268,36.268,0,0,0,12.315-9.074A37.373,37.373,0,0,1,28.169,300.9" transform="translate(-9.576 -294.684)"/>
            </g>
          </g>
        </g>
        <path id="Trazado_458" data-name="Trazado 458" d="M170.051,301.521l4.606,82.505,62.614-.358s-8.044-91.294-8.044-92.173c0-.544,3.818-102.539,3.818-102.539-1.046-21.215,2.3-40.343-1.076-41.486-6.653-2.255-37.489-.888-37.489-.888l-22.844-22-2.285,5.254,3.805,19.654L172.271,206c-.077-.923-2.22,95.518-2.22,95.518" transform="translate(3.599 2.648)" fill="#7aa0dd"/>
        <path id="Trazado_459" data-name="Trazado 459" d="M229.579,146.624s14.377,4.421,22.758,28.656c5.015,14.5,17.486,86.647,17.486,86.647l38.158,14.6s-10.989,36.6-25.122,40.912L259.3,306.013s-16.333,2.081-21.986-5.927a92.394,92.394,0,0,1-9.393-17.934l-10.456-83.463Z" transform="translate(4.622 3.116)" fill="#7aa0dd"/>
        <g id="Grupo_89" data-name="Grupo 89" transform="translate(179.586 167.154)" opacity="0.3">
          <g id="Grupo_88" data-name="Grupo 88">
            <g id="Grupo_87" data-name="Grupo 87" clip-path="url(#clip-path-5)">
              <path id="Trazado_460" data-name="Trazado 460" d="M194.779,179.7a33.533,33.533,0,0,1,.177-16.027,32.793,32.793,0,0,0-2.792,20.541,20.086,20.086,0,0,1-8.4-13.277c-.227-1.437-.357-3.033-1.406-4.042-.814-.784-2.352-1.367-3.148-.565a5.563,5.563,0,0,0-1.727,2.692c-1.5,3.761-2.255,7.988-1.009,11.842.561,1.735,1.581,3.546,3.329,4.059,1.38.405,2.867-.1,4.294.067,1.662.2,3.057,1.285,4.492,2.145s3.227,1.525,4.751.831a4.258,4.258,0,0,0,2.174-3.766,16.648,16.648,0,0,0-.738-4.5" transform="translate(-175.849 -163.675)"/>
            </g>
          </g>
        </g>
        <path id="Trazado_461" data-name="Trazado 461" d="M176.66,170.677a2.305,2.305,0,0,1,.15-.557,9.678,9.678,0,0,1,.66-1.527,5.341,5.341,0,0,1,1.747-2.012,2.616,2.616,0,0,1,3.372.533,8.356,8.356,0,0,1,1.461,4.083,20,20,0,0,0,8.3,13.545l-.4.287a20.174,20.174,0,0,1-.706-6.155c.2-4.949,1.657-9.441,2.745-13.507a41.389,41.389,0,0,0,1.8-10.994,17.956,17.956,0,0,0-1.4-7.323c-.736-1.617-1.372-2.392-1.313-2.431a10.346,10.346,0,0,1,1.5,2.344,17.506,17.506,0,0,1,1.585,7.407,40.585,40.585,0,0,1-1.7,11.125c-1.066,4.081-2.492,8.553-2.686,13.4a19.8,19.8,0,0,0,.677,5.993l.2.707-.6-.419a20.221,20.221,0,0,1-8.4-13.91,8.152,8.152,0,0,0-1.318-3.923,2.318,2.318,0,0,0-2.976-.526,5.294,5.294,0,0,0-1.722,1.871c-.711,1.241-.923,2.012-.972,1.992" transform="translate(3.755 3.074)" fill="#1a2e35"/>
        <g id="Grupo_92" data-name="Grupo 92" transform="translate(183.454 257.595)" opacity="0.3">
          <g id="Grupo_91" data-name="Grupo 91">
            <g id="Grupo_90" data-name="Grupo 90" clip-path="url(#clip-path-6)">
              <path id="Trazado_462" data-name="Trazado 462" d="M203.347,265.489,179.8,256.641l-.16.234a97.913,97.913,0,0,0,20.118,13.33c2.224,1.107,4.87,2.132,7.107,1.051a8.016,8.016,0,0,0,2.822-2.753,61.257,61.257,0,0,0,8.278-16.269c-4.364,5.121-14.613,13.255-14.613,13.255" transform="translate(-179.636 -252.234)"/>
            </g>
          </g>
        </g>
        <path id="Trazado_463" data-name="Trazado 463" d="M179.057,210.244s.233-.026.706-.049l2.106-.091,8.066-.3,29.139-1,.229-.008v.23c.012,12.618.028,27.687.044,43.93v.123l-.093.08-3.781,3.237L203.534,266.61l-.115.1-.144-.051-24.3-8.786-.155-.056v-.163c.009-14.132.016-25.978.021-34.317.036-4.137.064-7.4.085-9.664q.038-1.647.06-2.552c.006-.285.032-.522.043-.665a1.326,1.326,0,0,1,.026-.21c.01,2.012.1,19.406.235,47.407l-.155-.22,24.316,8.734-.258.048,11.933-10.222,3.781-3.236-.093.2c.016-16.243.031-31.313.044-43.93l.228.222-29.027.775-8.111.188-2.143.038c-.487.006-.75,0-.75,0" transform="translate(3.801 4.438)" fill="#1a2e35"/>
        <path id="Trazado_464" data-name="Trazado 464" d="M232.1,183.234a1.078,1.078,0,0,1,.009.278c-.007.213-.016.48-.028.812-.038.753-.091,1.794-.157,3.117-.152,2.748-.368,6.652-.633,11.459-.532,9.675-1.207,23.045-1.778,37.818s-.921,28.162-1.135,37.851c-.1,4.813-.189,8.721-.249,11.473-.035,1.324-.062,2.366-.083,3.12-.014.331-.026.6-.036.811a1.071,1.071,0,0,1-.03.277,1.09,1.09,0,0,1-.025-.277c0-.214-.01-.481-.017-.812,0-.754-.009-1.8-.016-3.121-.006-2.71.019-6.632.08-11.478.117-9.692.412-23.08.979-37.864s1.306-28.149,1.933-37.82c.313-4.837.589-8.749.8-11.451.108-1.318.194-2.359.256-3.11.033-.33.059-.6.081-.809a1.054,1.054,0,0,1,.045-.274" transform="translate(4.844 3.894)" fill="#1a2e35"/>
        <path id="Trazado_465" data-name="Trazado 465" d="M234.359,275.5a8.761,8.761,0,0,1,1.022-1.183c.338-.374.763-.82,1.289-1.3s1.1-1.069,1.8-1.639a48.3,48.3,0,0,1,5.049-3.815,49.888,49.888,0,0,1,14.078-6.391,48.171,48.171,0,0,1,6.2-1.289c.888-.151,1.7-.2,2.415-.273s1.327-.1,1.83-.111a8.875,8.875,0,0,1,1.564.008,8.85,8.85,0,0,1-1.549.2c-.5.04-1.109.1-1.814.2s-1.51.175-2.389.348a53.989,53.989,0,0,0-6.119,1.389,53.012,53.012,0,0,0-13.945,6.331,53.986,53.986,0,0,0-5.074,3.692c-.709.546-1.3,1.1-1.835,1.569s-.986.883-1.345,1.233a8.811,8.811,0,0,1-1.168,1.037" transform="translate(4.981 5.515)" fill="#1a2e35"/>
        <path id="Trazado_466" data-name="Trazado 466" d="M258.44,303.419a2.411,2.411,0,0,1-.1-.575c-.037-.381-.142-.94-.164-1.667a28.8,28.8,0,0,1,.3-6.155,30.911,30.911,0,0,1,27.45-26.167,28.755,28.755,0,0,1,6.161,0c.725.057,1.279.188,1.656.244a2.38,2.38,0,0,1,.57.13c-.007.049-.8-.063-2.245-.167a32.379,32.379,0,0,0-14.811,2.5,30.14,30.14,0,0,0-15.662,14.931,32.389,32.389,0,0,0-3.21,14.674c.036,1.444.109,2.245.06,2.25" transform="translate(5.486 5.71)" fill="#1a2e35"/>
        <g id="Grupo_95" data-name="Grupo 95" transform="translate(242.45 262.305)" opacity="0.3">
          <g id="Grupo_94" data-name="Grupo 94">
            <g id="Grupo_93" data-name="Grupo 93" clip-path="url(#clip-path-7)">
              <path id="Trazado_467" data-name="Trazado 467" d="M250.352,258.488A23.183,23.183,0,0,0,237.4,271.972c9.946-5.131,20.022-10.309,30.924-12.834l.7.031a23.182,23.182,0,0,0-18.68-.68" transform="translate(-237.404 -256.846)"/>
            </g>
          </g>
        </g>
        <g id="Grupo_98" data-name="Grupo 98" transform="translate(285.212 283.418)" opacity="0.3">
          <g id="Grupo_97" data-name="Grupo 97">
            <g id="Grupo_96" data-name="Grupo 96" clip-path="url(#clip-path-8)">
              <path id="Trazado_468" data-name="Trazado 468" d="M281.546,314.662c-3.108-8.34-3.324-18.112,1.25-25.746s13.752-12.591,22.533-11.145c-4.766,17.286-15.728,34.834-23.783,36.891" transform="translate(-279.277 -277.52)"/>
            </g>
          </g>
        </g>
        <path id="Trazado_469" data-name="Trazado 469" d="M289.322,307.681s-9.65-4.54-9.645-9.326c0-2.687,1.888-7.17,5.238-11.559a22.25,22.25,0,0,1,10.843-7.36l9.433.063s-.147-.741,2.521-6.526,7.417-7.712,9.79-14.535a88.93,88.93,0,0,0,3.856-13.572c1.039-4.819,2.67-8.824,6.081-7.489s3.709,5.488,2.82,10.234-4.3,12.755-1.484,16.76,3.708,4.6,10.679,4.747,24.325-2.076,24.325-2.076,5.784-1.039,6.525,1.928-9.046,5.932-9.046,5.932,12.458-4.45,12.607,1.928l-.742,2.373L357.4,284.988s7.86-1.632,9.492-.593,2.818,3.56,1.484,5.191-15.425,3.56-15.425,3.56l-11.57.3s-.444,1.187,2.52,1.336,11.273-.3,10.383,3.114-8.9,3.115-8.9,3.115-11.718-.593-14.536.3a149.45,149.45,0,0,1-16.464,4c-4.3.593-25.066,2.373-25.066,2.373" transform="translate(5.944 5.039)" fill="#ffc09d"/>
        <path id="Trazado_470" data-name="Trazado 470" d="M302.507,298.449c-.027.02-.232-.2-.549-.634a9.593,9.593,0,0,1-1.06-2.028,11.014,11.014,0,0,1-.127-7.467,18.586,18.586,0,0,1,1.937-3.671,13.977,13.977,0,0,0,1.484-2.94,7.505,7.505,0,0,0,.336-2.991,4.246,4.246,0,0,1,.023,3.1,12.912,12.912,0,0,1-1.423,3.082,20,20,0,0,0-1.856,3.594,11.315,11.315,0,0,0-.021,7.167,26.541,26.541,0,0,0,1.255,2.788" transform="translate(6.38 5.924)" fill="#ff9b6c"/>
        <path id="Trazado_471" data-name="Trazado 471" d="M328.065,267.387a5.987,5.987,0,0,1,.557,2.124,15.109,15.109,0,0,1-2.3,10.191,5.993,5.993,0,0,1-1.415,1.679,18.943,18.943,0,0,0,3.159-13.994" transform="translate(6.905 5.683)" fill="#ff9b6c"/>
        <path id="Trazado_472" data-name="Trazado 472" d="M364.456,273.176c.029.144-4.918,1.256-11.049,2.484s-11.124,2.106-11.153,1.962,4.917-1.256,11.049-2.484,11.125-2.106,11.153-1.962" transform="translate(7.274 5.805)" fill="#ff9b6c"/>
        <path id="Trazado_473" data-name="Trazado 473" d="M357.187,284.072a11.33,11.33,0,0,1-2.592.535,58.386,58.386,0,0,1-12.741.4,11.257,11.257,0,0,1-2.62-.373,15.374,15.374,0,0,1,2.639,0c1.626.041,3.87.069,6.346-.007s4.713-.247,6.333-.39a15.443,15.443,0,0,1,2.635-.161" transform="translate(7.21 6.037)" fill="#ff9b6c"/>
        <path id="Trazado_474" data-name="Trazado 474" d="M114.312,36.912a12.507,12.507,0,0,0,1.783-.328,4.325,4.325,0,0,0,2.112-6.9c-.67-.886-1.342-1.186-1.294-1.269a2.7,2.7,0,0,1,1.584,1.031,4.526,4.526,0,0,1-2.295,7.5,2.7,2.7,0,0,1-1.89-.033" transform="translate(2.429 0.604)" fill="#1a2e35"/>
        <path id="Trazado_475" data-name="Trazado 475" d="M129.867,29.4a3.28,3.28,0,0,1-1.631.719,6.848,6.848,0,0,1-7.5-3.265,3.287,3.287,0,0,1-.584-1.684c.083-.028.3.613.9,1.484a7.2,7.2,0,0,0,7.11,3.1c1.047-.152,1.665-.429,1.7-.349" transform="translate(2.553 0.535)" fill="#1a2e35"/>
        <path id="Trazado_476" data-name="Trazado 476" d="M125.138,40.422c-.084.019-.212-.5-.657-1.2a4.725,4.725,0,0,0-5.551-2.029c-.791.248-1.227.565-1.278.5-.041-.042.322-.481,1.146-.847a4.626,4.626,0,0,1,6.01,2.2c.393.811.388,1.381.329,1.387" transform="translate(2.5 0.775)" fill="#1a2e35"/>
        <path id="Trazado_477" data-name="Trazado 477" d="M128.773,37.519c0,.054-.6.059-1.354-.478a3.379,3.379,0,0,1,.653-5.9c.851-.361,1.437-.225,1.425-.172.006.09-.542.1-1.258.509a3.167,3.167,0,0,0-.582,5.273c.61.552,1.143.683,1.117.77" transform="translate(2.677 0.657)" fill="#1a2e35"/>
        <path id="Trazado_478" data-name="Trazado 478" d="M5.653,177.8a4.734,4.734,0,0,0-2.338,2.912,4.392,4.392,0,0,0,.318,2.872L17.5,214.43,26.5,232.561l26.659-6.435L35.936,183.163s-1.41-5.953-6.845-5.953H7.944a4.605,4.605,0,0,0-2.291.593" transform="translate(0.068 3.766)" fill="#375a64"/>
        <path id="Trazado_479" data-name="Trazado 479" d="M11.6,185.468H8.144a1.395,1.395,0,1,1,0-2.789H11.6a1.395,1.395,0,1,1,0,2.789" transform="translate(0.143 3.882)" fill="#fff"/>
        <path id="Trazado_480" data-name="Trazado 480" d="M8.973,194.791a9.232,9.232,0,0,0-1.723,6.6c.574,3.734.815,8.328.815,8.328s2.631,2.585,2.918,9.764-.574,11.487,1.149,14.934-2.487,23.835-2.487,23.835-3.441,3.159-2.487,5.17-.2,16.656,6.983,23.261L29.363,291s6.605-.575,8.615-6.319,0-23.835,0-23.835,6.738-3.09,9.687-8.438c0,0,10.782-7.553,13.288-9.511s4.021-10.046,3.734-11.556-4.8-1.855-4.8-1.855,2.329-6.661-2.152-10.07c0,0,1.266-5.552-1.557-6.817a4.7,4.7,0,0,0-4.87.486s-5.064,5.357-8.668,6.818-11.1,7.694-13.051,6.526-3.02-1.85-1.948-4.967,4.2-11.66,6.143-12.988,5.09-4.989,4.294-7.1-2.841-4.842-5.568-3.381-11.1,9.643-13.733,14.317l-1.363,1.753Z" transform="translate(0.149 4.14)" fill="#ffc09d"/>
        <path id="Trazado_481" data-name="Trazado 481" d="M57.036,218.482c.018,0,.031.093.038.271a3.558,3.558,0,0,1-.045.781,6.345,6.345,0,0,1-1.1,2.653,13.289,13.289,0,0,1-3,3.016,49.248,49.248,0,0,1-4.321,2.838,60.471,60.471,0,0,1-8.4,4.149c-1.113.446-2.031.762-2.669.97a3.9,3.9,0,0,1-1.012.258c-.028-.077,1.355-.6,3.536-1.576a79.4,79.4,0,0,0,8.277-4.26c3.117-1.857,5.915-3.678,7.282-5.614a7.667,7.667,0,0,0,1.411-3.488" transform="translate(0.776 4.643)" fill="#ff9b6c"/>
        <path id="Trazado_482" data-name="Trazado 482" d="M58.92,228.958a11.5,11.5,0,0,1-1.868,2.295,31.229,31.229,0,0,1-11.918,7.718,11.473,11.473,0,0,1-2.857.766A27.748,27.748,0,0,1,45,238.619a37.993,37.993,0,0,0,11.787-7.634,28.021,28.021,0,0,1,2.133-2.027" transform="translate(0.899 4.866)" fill="#ff9b6c"/>
        <path id="Trazado_483" data-name="Trazado 483" d="M16,229.394a3.363,3.363,0,0,1-1.261-2.094,14.952,14.952,0,0,1,.137-5.885,46.574,46.574,0,0,1,1.262-5.725,9.406,9.406,0,0,1,.831-2.285,13.367,13.367,0,0,1-.467,2.377c-.327,1.455-.751,3.469-1.1,5.714a17.209,17.209,0,0,0-.3,5.719,7.765,7.765,0,0,0,.9,2.178" transform="translate(0.308 4.535)" fill="#ff9b6c"/>
        <path id="Trazado_484" data-name="Trazado 484" d="M26.468,237.949c0,.065-.339.126-.854-.032a2.906,2.906,0,0,1-1.965-3.333c.112-.527.327-.791.386-.763a5.021,5.021,0,0,0,.42,2.534c.736,1.245,2.057,1.454,2.013,1.594" transform="translate(0.501 4.969)" fill="#ff9b6c"/>
        <path id="Trazado_485" data-name="Trazado 485" d="M35.215,245.845c.007.063-.4.189-1.072.1a3.924,3.924,0,0,1-3.352-3.605c-.04-.676.115-1.073.178-1.062.082.01.066.41.2,1.011a4.233,4.233,0,0,0,3.057,3.288c.591.172.991.186.995.268" transform="translate(0.654 5.128)" fill="#ff9b6c"/>
        <path id="Trazado_486" data-name="Trazado 486" d="M42.786,250.515c0,.062-.34.128-.866-.017a3.423,3.423,0,0,1-2.383-3.189c.01-.545.169-.851.229-.834a5.945,5.945,0,0,0,.877,2.493,5.94,5.94,0,0,0,2.143,1.548" transform="translate(0.84 5.238)" fill="#ff9b6c"/>
        <path id="Trazado_487" data-name="Trazado 487" d="M37.514,260.122a6.578,6.578,0,0,1-1.846.794,33.877,33.877,0,0,1-9.506,1.731,6.547,6.547,0,0,1-2.008-.093c0-.159,3.044-.275,6.728-.955,3.685-.663,6.579-1.629,6.632-1.478" transform="translate(0.513 5.528)" fill="#ff9b6c"/>
        <path id="Trazado_488" data-name="Trazado 488" d="M46.241,218.524a3.443,3.443,0,0,1-.284-.637c-.183-.477-.42-1.095-.715-1.863-.622-1.685-1.483-4.022-2.539-6.884-2.115-5.88-5-13.905-8.19-22.771-.81-2.171-1.854-4.329-3.7-5.47s-4.081-1.1-6.094-1.078l-10.88.124-7.337.037-2-.017a3.381,3.381,0,0,1-.7-.042,3.455,3.455,0,0,1,.694-.065l1.993-.083,7.334-.206,10.878-.237a23.366,23.366,0,0,1,3.176.09,7.649,7.649,0,0,1,3.2,1.037c2.026,1.252,3.1,3.534,3.925,5.725,3.184,8.908,6.012,16.978,8.046,22.832l2.38,6.94c.256.782.462,1.411.621,1.9a3.4,3.4,0,0,1,.183.673" transform="translate(0.081 3.811)" fill="#1a2e35"/>
      </g>
    </g>
  </g>
</svg>
