<svg xmlns="http://www.w3.org/2000/svg" xmlns:xlink="http://www.w3.org/1999/xlink" width="335.726" height="534.615" viewBox="0 0 335.726 534.615">
  <defs>
    <clipPath id="clip-path">
      <rect id="Rect치ngulo_242" data-name="Rect치ngulo 242" width="335.726" height="534.615" fill="none"/>
    </clipPath>
    <clipPath id="clip-path-2">
      <rect id="Rect치ngulo_241" data-name="Rect치ngulo 241" width="163.57" height="39.013" fill="none"/>
    </clipPath>
  </defs>
  <g id="chica" transform="translate(-163.953 -16833.385)">
    <g id="Grupo_212" data-name="Grupo 212" transform="translate(163.953 16833.385)">
      <g id="Grupo_211" data-name="Grupo 211" clip-path="url(#clip-path)">
        <path id="Trazado_563" data-name="Trazado 563" d="M122.3,118.015c-1.666-16.785-4.183-33.663-10.325-49.372S95.773,38.337,81.557,29.258l-3.651,3.4a21.174,21.174,0,0,0-36.972-5.666A21.453,21.453,0,0,0,18.524,34.97a21.453,21.453,0,0,0-.43,23.788,19.166,19.166,0,0,0-8.53,34.748,28.607,28.607,0,0,0-8.079,30.343A28.6,28.6,0,0,0,26.76,142.478,22.737,22.737,0,0,0,38.222,167.66a22.742,22.742,0,0,0,27.044-5.854c-.78,10.045,7.254,19.556,17.041,21.947s20.454-1.564,27.6-8.67,11.063-16.961,12.582-26.923.815-20.119-.18-30.145" transform="translate(0 12.838)" fill="#1a2e35"/>
        <path id="Trazado_564" data-name="Trazado 564" d="M51.826,33.326C42.059,36.49,40.061,44.4,38.03,50.991c-4.367,14.185.544,35.18,8.484,47.721s16.644,18.917,31.336,21.039l1.434-67.56Z" transform="translate(25.287 23.154)" fill="#ff735d"/>
        <path id="Trazado_565" data-name="Trazado 565" d="M44.07,95.107C37.4,86.443,38.345,72.84,46.148,65.183c-4.276-5.372-2.74-13.658,1.6-18.975s10.8-8.365,17.032-11.247c3.422-15.717,21.066-26.772,36.7-23,8.147-11.974,25.5-13.853,39.405-9.8,3.4.99,6.789,2.269,10.326,2.254,2.595-.01,5.13-.72,7.7-1.066,14.146-1.9,28.186,8.055,33.7,21.219a26.18,26.18,0,0,0,3,6.127c1.835,2.368,4.618,3.759,6.991,5.586a22.594,22.594,0,0,1,8.652,16.7c.232,5.493-1.517,11.323.8,16.311,1.159,2.5,3.254,4.52,4.157,7.125,2.617,7.547-5.75,15.261-4.2,23.1.315,1.6,1.037,3.088,1.48,4.657a13.936,13.936,0,0,1-.847,9.743c-1.117,2.317-2.917,4.439-3.069,7.006-.115,1.947.752,3.8,1.142,5.715.958,4.678-9.137,22.715-13.177,25.257l-120.78,1.081a22.567,22.567,0,0,1-17.465-19.432c-.146-1.544-.169-3.22-1.125-4.442a9.675,9.675,0,0,0-3.3-2.142c-7.776-4.176-8.715-14.853-7.9-23.642a10.727,10.727,0,0,0-.068-3.688c-.451-1.739-1.754-3.1-2.851-4.525" transform="translate(27.529 0.159)" fill="#1a2e35"/>
        <path id="Trazado_566" data-name="Trazado 566" d="M62.667,82.6c-.358-21.374,13.048-45.937,34.282-56.39,13.384-6.589,23.827-6.632,30.864-7.452,15.765-1.839,28.486,5.974,28.486,5.974,6.657,1.563,31.053,23.9,32.319,48.14,1.408,26.928,2.064,59.861-1.339,79.907-6.845,40.305-37.846,45.113-37.846,45.113,0-.063,2.886,67,2.886,67L92.741,313.719l-23.2-77.556Z" transform="translate(43.534 12.838)" fill="#ffc09d"/>
        <path id="Trazado_567" data-name="Trazado 567" d="M136.037,130.489s-27.36,1.468-54.1-15c0,0,14.089,28.613,54.54,25.267Z" transform="translate(56.93 80.242)" fill="#ff9c6a"/>
        <path id="Trazado_568" data-name="Trazado 568" d="M78.11,83.468c.025-3.007-3.374-10.133-6.338-10.628-7.916-1.322-22.215-.837-22.564,19.3-.476,27.525,27.257,22.327,27.32,21.537.049-.615,1.5-19.825,1.583-30.208" transform="translate(34.184 50.305)" fill="#ffc09d"/>
        <path id="Trazado_569" data-name="Trazado 569" d="M65.913,99.711c-.119-.09-.485.327-1.3.685a4.8,4.8,0,0,1-3.586.012c-2.89-1.117-5.259-5.776-5.306-10.74a15.834,15.834,0,0,1,1.461-6.844c.876-2,2.2-3.384,3.671-3.617a2.442,2.442,0,0,1,2.808,1.361c.356.778.169,1.324.315,1.373.076.071.6-.449.4-1.59a3.054,3.054,0,0,0-1.054-1.746,3.62,3.62,0,0,0-2.639-.746c-2.127.11-4.069,2.03-5.083,4.181A16.272,16.272,0,0,0,53.8,89.684c.08,5.55,2.829,10.789,6.789,12.009a5.14,5.14,0,0,0,4.4-.654c.864-.663,1.019-1.276.925-1.329" transform="translate(37.378 54.083)" fill="#ff9c6a"/>
        <path id="Trazado_570" data-name="Trazado 570" d="M200.6,74.228c-.875-10-4.859-19.48-9.682-28.281-3.339-6.091-7.179-12.036-12.435-16.578-4.393-3.8-9.621-6.479-14.865-8.967-13.792-6.54-29.174-12.091-44.062-8.735-7.993,1.8-15.189,6.049-22.19,10.306C92,25.237,86.617,28.579,82.122,32.967a62.423,62.423,0,0,0-9.908,13.168C65.549,57.451,60.844,70.1,59.943,83.2s-10.816,24.686-3.132,35.338c.595.825,14.275,3.657,15.221,4.034,2.224.885,4.669-1.527,4.652-3.92s-1.666-4.457-3.439-6.066c3.407-.114,5.742-3.906,5.527-7.308s-2.227-6.4-4.251-9.142a2.623,2.623,0,0,1-.591-1.178c-.142-1.161,1.171-1.876,2.178-2.471,4.9-2.9,5.45-10.974.983-14.509,6.566-1.522,10.821-9.416,8.481-15.738-.369-1-.873-2.12-.395-3.073.461-.915,1.6-1.2,2.578-1.493A15.787,15.787,0,0,0,98.326,39.9c3.82.2,7.7.4,11.423-.507s7.313-3.078,9.013-6.5a14.91,14.91,0,0,0,25.22,1.351,39,39,0,0,0,18.9-2.923,18.441,18.441,0,0,0,12.016,12.936c1.137.368,2.442.725,2.99,1.786a4.333,4.333,0,0,1,.253,2.237c-.2,3.844,2.417,5.481,4.535,8.694s5.815,8,9.514,6.937c-.41,6.547,3.091,11.311,8.618,14.845Z" transform="translate(37.456 7.405)" fill="#1a2e35"/>
        <path id="Trazado_571" data-name="Trazado 571" d="M216.341,76.582a10.533,10.533,0,0,0-1.456-2.968c-.576-.922-1.39-1.995-2.156-3.368a12.821,12.821,0,0,1-1.5-5.157,40.027,40.027,0,0,1,.181-6.808,30.219,30.219,0,0,0-.144-8.176,22.91,22.91,0,0,0-3.542-8.7,22.573,22.573,0,0,0-3.351-3.927,33.881,33.881,0,0,0-4.32-3.273,17.089,17.089,0,0,1-4.152-3.645,22.319,22.319,0,0,1-2.562-5.2,36.938,36.938,0,0,0-17.188-19,32.759,32.759,0,0,0-6.6-2.551,29.629,29.629,0,0,0-7.227-.881,34.238,34.238,0,0,0-3.712.263c-1.232.181-2.449.43-3.669.636a17.707,17.707,0,0,1-7.357-.056c-2.459-.507-4.867-1.417-7.406-2.071A48.277,48.277,0,0,0,124.32.1a41.961,41.961,0,0,0-8.089,1.419,27.148,27.148,0,0,0-13.936,9.026c-.346.451-.691.9-1.032,1.347l.441-.171c-8.311-1.99-17.019.181-23.744,4.588A30.635,30.635,0,0,0,64.518,35.038l.22-.275a87.267,87.267,0,0,0-9.694,5.011,29.065,29.065,0,0,0-7.938,6.981,18.893,18.893,0,0,0-3.662,9.472A13.005,13.005,0,0,0,46,65.556l.029-.459a22.787,22.787,0,0,0-6.457,14.078,23.349,23.349,0,0,0,2.747,13.7,22.65,22.65,0,0,0,1.8,2.74A29.383,29.383,0,0,1,46,98.094a5.882,5.882,0,0,1,.956,2.707,16.776,16.776,0,0,1-.1,2.857,45.041,45.041,0,0,0,.205,10.45,21.868,21.868,0,0,0,2.642,7.976,13.538,13.538,0,0,0,4.244,4.5c1.413.949,2.668,1.324,3.362,1.839a6.3,6.3,0,0,1,.995.839,3.2,3.2,0,0,0-.936-.925c-.69-.554-1.944-.968-3.307-1.925a13.481,13.481,0,0,1-4.1-4.484,21.716,21.716,0,0,1-2.513-7.877A45.136,45.136,0,0,1,47.33,103.7a16.935,16.935,0,0,0,.122-2.942,6.4,6.4,0,0,0-1.013-2.94,30.146,30.146,0,0,0-1.893-2.53A22.02,22.02,0,0,1,42.8,92.608a22.775,22.775,0,0,1-2.612-13.37,22.168,22.168,0,0,1,6.313-13.65l.222-.219-.193-.242a12.305,12.305,0,0,1-2.374-8.837A18.184,18.184,0,0,1,47.7,47.2a28.356,28.356,0,0,1,7.749-6.774,86.907,86.907,0,0,1,9.616-4.949l.18-.081.041-.193A29.866,29.866,0,0,1,78.407,17c6.569-4.3,15.056-6.4,23.1-4.467l.263.063.178-.232c.33-.429.663-.864,1-1.3a26.33,26.33,0,0,1,13.516-8.747A41.044,41.044,0,0,1,124.378.919a47.612,47.612,0,0,1,15.59,1.549c2.493.637,4.92,1.551,7.455,2.071a19.1,19.1,0,0,0,3.849.43,22.453,22.453,0,0,0,3.8-.383c1.237-.21,2.447-.461,3.651-.639a33.207,33.207,0,0,1,3.6-.263,28.884,28.884,0,0,1,7.037.842A32.116,32.116,0,0,1,175.822,7a35.21,35.21,0,0,1,10.411,8.106,35.384,35.384,0,0,1,6.515,10.484,22.77,22.77,0,0,0,2.666,5.335,17.624,17.624,0,0,0,4.31,3.761,33.246,33.246,0,0,1,4.273,3.2,22.04,22.04,0,0,1,3.293,3.813,22.5,22.5,0,0,1,3.523,8.493,30.02,30.02,0,0,1,.205,8.062,39.639,39.639,0,0,0-.107,6.869,12.97,12.97,0,0,0,1.6,5.245c.8,1.383,1.637,2.437,2.23,3.339a16.233,16.233,0,0,1,1.244,2.115c.241.5.332.768.353.761" transform="translate(27.411 0)" fill="#375a64"/>
        <path id="Trazado_572" data-name="Trazado 572" d="M83.781,5.086c.042.063.73-.41,2.074-1.056a18.49,18.49,0,0,1,6.015-1.7,17.386,17.386,0,0,1,9.038,1.39,17.956,17.956,0,0,1,8.176,7.523,15.322,15.322,0,0,1,1.344,3.127,3.443,3.443,0,0,1-.224,2.9l-.68.93,1.113-.305a11.394,11.394,0,0,1,8.5,1.081A10.987,10.987,0,0,1,123.77,24.1a12.023,12.023,0,0,1,1.039,4.544c.031,1.1-.063,1.707,0,1.717.024,0,.068-.144.129-.432a7.461,7.461,0,0,0,.151-1.283,11.5,11.5,0,0,0-5.6-10.284,11.99,11.99,0,0,0-9.069-1.252l.436.625a4.206,4.206,0,0,0,.364-3.586,15.706,15.706,0,0,0-1.415-3.315,18.423,18.423,0,0,0-8.589-7.818A17.576,17.576,0,0,0,91.8,1.744a17.211,17.211,0,0,0-6.093,2,12.149,12.149,0,0,0-1.466.942c-.319.241-.476.378-.459.4" transform="translate(58.208 1.095)" fill="#375a64"/>
        <path id="Trazado_573" data-name="Trazado 573" d="M57.278,22.089c-.032.036.29.4.954.991a17.794,17.794,0,0,0,3.1,2.188,13.126,13.126,0,0,0,5.478,1.691,9.839,9.839,0,0,0,6.852-2.013l-.608-.1c.259.371.527.751.8,1.135.29.371.617.725.93,1.093a16.682,16.682,0,0,0,6.844,4.334,17.066,17.066,0,0,0,6.554.875,15.1,15.1,0,0,0,4.345-.954,5.477,5.477,0,0,0,1.442-.756A23.9,23.9,0,0,1,88.148,31.7a17.427,17.427,0,0,1-6.274-1.013,16.43,16.43,0,0,1-6.489-4.178c-.295-.349-.605-.681-.881-1.03-.258-.364-.51-.722-.758-1.069l-.268-.378-.342.28a9.252,9.252,0,0,1-6.288,1.918,13.238,13.238,0,0,1-5.264-1.447c-2.8-1.442-4.217-2.813-4.306-2.695" transform="translate(39.794 15.342)" fill="#375a64"/>
        <path id="Trazado_574" data-name="Trazado 574" d="M48.579,38.035c-.027.007-.007.178.063.508a4.7,4.7,0,0,0,.6,1.335,7.339,7.339,0,0,0,4.411,2.984c2.261.607,5.069.175,7.869-.791a45.034,45.034,0,0,0,4.361-1.68,7.535,7.535,0,0,0,3.828-3.435c.061-.151.12-.3.175-.441l-.649.192a31.557,31.557,0,0,0,8.126,4.967,14.182,14.182,0,0,0,7.725.859,10.214,10.214,0,0,0,4.779-2.129,6.38,6.38,0,0,0,1-1.01c.2-.258.292-.4.269-.419-.058-.051-.493.475-1.469,1.176A10.643,10.643,0,0,1,85,41.96a13.99,13.99,0,0,1-7.354-.993,32.276,32.276,0,0,1-7.889-4.91l-.436-.346-.214.539c-.047.117-.1.242-.147.368a6.818,6.818,0,0,1-3.425,3.042c-1.407.671-2.883,1.188-4.252,1.688a13.83,13.83,0,0,1-7.486.944,7.306,7.306,0,0,1-4.284-2.6,11.885,11.885,0,0,1-.93-1.659" transform="translate(33.743 24.811)" fill="#375a64"/>
        <path id="Trazado_575" data-name="Trazado 575" d="M105.183,72.755a5.091,5.091,0,0,1-4.744,5.293,4.868,4.868,0,0,1-5.394-4.42,5.1,5.1,0,0,1,4.737-5.3,4.875,4.875,0,0,1,5.4,4.423" transform="translate(66.027 47.461)" fill="#1a2e35"/>
        <path id="Trazado_576" data-name="Trazado 576" d="M133.444,71.091a5.094,5.094,0,0,1-4.742,5.294,4.873,4.873,0,0,1-5.4-4.422,5.1,5.1,0,0,1,4.737-5.3,4.875,4.875,0,0,1,5.4,4.423" transform="translate(85.662 46.305)" fill="#1a2e35"/>
        <path id="Trazado_577" data-name="Trazado 577" d="M139.571,61.368c-.61.685-4.557-2.046-10.035-1.856-5.474.112-9.4,3.061-10.02,2.408-.3-.288.3-1.507,2.012-2.839a14,14,0,0,1,7.994-2.747,13.421,13.421,0,0,1,8.015,2.3c1.725,1.239,2.335,2.42,2.034,2.729" transform="translate(82.985 39.136)" fill="#1a2e35"/>
        <path id="Trazado_578" data-name="Trazado 578" d="M107.4,63.407c-.678.617-4.33-2.5-9.794-2.874-5.455-.453-9.669,2.074-10.213,1.364-.269-.317.451-1.468,2.293-2.615a13.98,13.98,0,0,1,8.235-1.915,13.434,13.434,0,0,1,7.735,3.118c1.585,1.408,2.073,2.647,1.744,2.922" transform="translate(60.681 39.83)" fill="#1a2e35"/>
        <path id="Trazado_579" data-name="Trazado 579" d="M112.88,103.856c-.036-.31,3.349-1.007,8.845-1.891,1.393-.19,2.708-.51,2.913-1.471.3-1.022-.336-2.51-1.066-4.117q-2.138-5.013-4.479-10.518C112.861,70.881,108.3,58.543,108.907,58.3s6.149,11.7,12.38,26.676q2.252,5.542,4.306,10.587c.581,1.573,1.549,3.347.9,5.466a3.511,3.511,0,0,1-2.234,2.12,9.487,9.487,0,0,1-2.366.407c-5.542.476-8.986.612-9.016.3" transform="translate(75.628 40.502)" fill="#1a2e35"/>
        <path id="Trazado_580" data-name="Trazado 580" d="M108.987,90.029a7.819,7.819,0,0,0-5.3,3.068c-1.2,1.717-2.061,5.737-.873,7.3,1.015,1.332,5.539,1.327,8.65.936a3.826,3.826,0,0,0,3.122-2.552l1.229-3.535a3.817,3.817,0,0,0-2.381-4.91,10.213,10.213,0,0,0-4.445-.305" transform="translate(71.037 62.472)" fill="#ff9c6a"/>
        <path id="Trazado_581" data-name="Trazado 581" d="M110.793,50.7c-.815,1.359-6.052-.381-12.509-.849-6.452-.6-11.9.258-12.482-1.217-.253-.7.9-1.9,3.237-2.92a21.793,21.793,0,0,1,19.039,1.574c2.135,1.386,3.078,2.761,2.715,3.412" transform="translate(59.589 30.727)" fill="#1a2e35"/>
        <path id="Trazado_582" data-name="Trazado 582" d="M139.543,54.471c-.9,1.4-5.425.829-10.626,1.6-5.222.62-9.453,2.373-10.672,1.251-.544-.552-.049-1.895,1.683-3.368a16.655,16.655,0,0,1,8.3-3.406,16.4,16.4,0,0,1,8.86,1.1c2.039.966,2.846,2.135,2.456,2.813" transform="translate(82.008 35.008)" fill="#1a2e35"/>
        <path id="Trazado_583" data-name="Trazado 583" d="M116,99.024c-.1-.068-.022-.385.175-.895a7.089,7.089,0,0,0,.566-2.039c.051-.795-.293-1.776-1.093-1.946a5.88,5.88,0,0,0-1.735-.076c-.69.022-1.4.069-2.13.122-5.84.436-10.43,1.942-10.613,1.464-.207-.415,4.312-2.756,10.474-3.223.764-.056,1.51-.093,2.232-.093a6.492,6.492,0,0,1,2.3.268,2.8,2.8,0,0,1,1.7,1.73,3.556,3.556,0,0,1,.1,1.942,5.006,5.006,0,0,1-1.217,2.215c-.39.417-.658.6-.758.53" transform="translate(70.288 64.154)" fill="#1a2e35"/>
        <path id="Trazado_584" data-name="Trazado 584" d="M27.354,250.06,72.36,371.373,48.145,439.942H274.511s-13.9-63.627-14.75-77.927,0-95.946-6.813-123.961-26.316-88.062-26.316-88.062l-57.377-9.109c-26.3,14.129-46.964,11.755-75.253-4.618L42,161.823Z" transform="translate(19.005 94.673)" fill="#ff735d"/>
        <path id="Trazado_585" data-name="Trazado 585" d="M147.326,144.308s17.414,3.718,29.82,29.059C189.4,198.4,236.82,308.747,238.671,327.257s-13.165,43.425-26.255,46.869l-40.378-59.209,1.234-8.638-33.8-112.726Z" transform="translate(96.899 100.261)" fill="#ff735d"/>
        <path id="Trazado_586" data-name="Trazado 586" d="M149.3,169.061c.01-.008.092.076.242.247.175.207.39.461.656.773.549.7,1.446,1.671,2.422,3.057a80.7,80.7,0,0,1,7.493,12.226,100.4,100.4,0,0,1,7.4,19.936,131.053,131.053,0,0,1,3.886,25.75c.9,18.515-1.358,35.206-3.1,47.152-.9,5.984-1.717,10.811-2.3,14.143q-.437,2.428-.691,3.832c-.08.4-.146.729-.2.995a1.26,1.26,0,0,1-.091.334,1.137,1.137,0,0,1,.019-.346c.034-.269.076-.6.127-1.005q.2-1.411.556-3.856l2.071-14.17c1.615-11.957,3.788-28.615,2.888-47.042a133.445,133.445,0,0,0-3.81-25.62,102.644,102.644,0,0,0-7.218-19.875,86.923,86.923,0,0,0-7.26-12.289c-.937-1.407-1.8-2.4-2.308-3.132-.241-.329-.437-.6-.6-.817a1.184,1.184,0,0,1-.185-.295" transform="translate(103.726 117.459)" fill="#1a2e35"/>
        <path id="Trazado_587" data-name="Trazado 587" d="M202.123,244.787a7.74,7.74,0,0,1-1.656-.425l-4.435-1.376a75.412,75.412,0,0,0-14.868-3.276,34.277,34.277,0,0,0-14.958,1.72,42.286,42.286,0,0,0-5.65,2.79,6.465,6.465,0,0,1,1.336-1.074,21.766,21.766,0,0,1,4.13-2.193,32.64,32.64,0,0,1,15.209-1.966,65.882,65.882,0,0,1,14.961,3.512c1.857.641,3.345,1.2,4.369,1.6a7.606,7.606,0,0,1,1.563.693" transform="translate(111.549 165.926)" fill="#1a2e35"/>
        <path id="Trazado_588" data-name="Trazado 588" d="M197.262,226.864a8.237,8.237,0,0,1-1.647.624c-1.076.342-2.617.89-4.495,1.619a74.316,74.316,0,0,0-26.11,17.148c-1.415,1.434-2.529,2.63-3.271,3.479A8.145,8.145,0,0,1,160.512,251a8.28,8.28,0,0,1,1.01-1.444,47.892,47.892,0,0,1,3.118-3.656,66.616,66.616,0,0,1,26.3-17.271c1.915-.673,3.49-1.149,4.593-1.41a8.16,8.16,0,0,1,1.729-.353" transform="translate(111.518 157.612)" fill="#1a2e35"/>
        <path id="Trazado_589" data-name="Trazado 589" d="M157.832,184.468a149.04,149.04,0,0,1,7.749,78.556l21.69-8.1a67.7,67.7,0,0,1-22.537,19.77c5.849-1.69,11.843-3.4,17.919-3s12.353,3.323,15.087,8.764c-7.091-1.295-14.307-2.595-21.466-1.759s-14.384,4.142-18.236,10.235a251.561,251.561,0,0,0,6.093-70.572" transform="translate(109.658 128.164)" fill="#e24f40"/>
        <g id="Grupo_210" data-name="Grupo 210" transform="translate(114.8 465.011)" opacity="0.3">
          <g id="Grupo_209" data-name="Grupo 209">
            <g id="Grupo_208" data-name="Grupo 208" clip-path="url(#clip-path-2)">
              <path id="Trazado_590" data-name="Trazado 590" d="M229.426,274.379,67.738,290.4c11.653-.247,20.622,9.616,30.713,15.453,18.683,10.808,41.952,7.784,63.273,4.432l53-8.337c4.457-.7,9.206-1.539,12.492-4.632,5.889-5.545,4.278-15.117,2.212-22.937" transform="translate(-67.737 -274.379)"/>
            </g>
          </g>
        </g>
        <path id="Trazado_591" data-name="Trazado 591" d="M120.629,278.693,93.553,252.551a12.5,12.5,0,0,0-9.86-3.457c-7.728.73-20.824,2.09-23.517,3.137-3.873,1.507-7.53,3.657-8.606,5.594s-4.732,13.553-4.947,15.275a35.09,35.09,0,0,0,.432,5.506,3.827,3.827,0,0,0,5.616,2.922,6.347,6.347,0,0,0,2.556-2.4c1.722-3.227,1.507-4.518,1.507-4.518s-.861,11.618,8.6,11.833c0,0-4.359,9.9,7.825,13.984,0,0-.451,6.454,9.738,7.315a123.93,123.93,0,0,0,19.441,0s18.627,13.38,31.75,14.24S176.6,317.1,176.6,317.1l3.547-54.119Z" transform="translate(32.375 173.025)" fill="#ffc09d"/>
        <path id="Trazado_592" data-name="Trazado 592" d="M80.019,256.756a29.038,29.038,0,0,1-4.337,1.817c-2.718,1.015-6.5,2.371-10.8,3.513-2.125.605-4.271.946-6.054,1.434a6.585,6.585,0,0,0-3.688,3.027,30.669,30.669,0,0,1-1.954,2.837c-.532.63-.91.9-.937.866a7.852,7.852,0,0,1,.712-1.036c.463-.658,1-1.683,1.747-2.945a9.99,9.99,0,0,1,1.474-1.935,6.024,6.024,0,0,1,2.44-1.449c1.907-.561,3.939-.893,6.072-1.5,4.261-1.132,8.055-2.4,10.814-3.3a31.51,31.51,0,0,1,4.506-1.332" transform="translate(36.3 178.379)" fill="#ff9c6a"/>
        <path id="Trazado_593" data-name="Trazado 593" d="M79.47,266.547a14.43,14.43,0,0,1-3.013,1.391c-1.9.764-4.549,1.749-7.51,2.74s-5.672,1.8-7.649,2.332a14.465,14.465,0,0,1-3.244.7,15.889,15.889,0,0,1,3.095-1.193l7.567-2.529,7.564-2.534a15.857,15.857,0,0,1,3.19-.91" transform="translate(40.335 185.18)" fill="#ff9c6a"/>
        <path id="Trazado_594" data-name="Trazado 594" d="M83.012,275.669c.022.222-4.715.705-10.348,2.241-5.645,1.507-9.982,3.469-10.075,3.266a11.333,11.333,0,0,1,2.764-1.468,51.017,51.017,0,0,1,14.533-3.918,11.264,11.264,0,0,1,3.127-.12" transform="translate(43.484 191.487)" fill="#ff9c6a"/>
        <path id="Trazado_595" data-name="Trazado 595" d="M120.961,323.783l119.787-20.805s-14.109-58.614-35.168-58.614c-3.086,0-107.355,38.963-107.355,38.963Z" transform="translate(68.243 169.778)" fill="#ffc09d"/>
        <path id="Trazado_596" data-name="Trazado 596" d="M106.723,283.361a22.3,22.3,0,0,1-2.817-2.578c-1.856-1.822-4.091-4.02-6.562-6.447-2.549-2.535-4.823-4.867-6.42-6.6a18.075,18.075,0,0,1-2.449-2.937,22.444,22.444,0,0,1,2.817,2.578c1.854,1.824,4.091,4.02,6.564,6.449,2.547,2.535,4.822,4.866,6.418,6.6a18.032,18.032,0,0,1,2.449,2.935" transform="translate(61.468 183.97)" fill="#ff9c6a"/>
        <path id="Trazado_597" data-name="Trazado 597" d="M50.367,150.411S10.14,173.875,20.557,217.06C32.3,265.723,140.61,338.417,140.61,338.417c-5.088-30.079-1.13-58.848,15.343-85.806L99.874,200.653" transform="translate(13.086 104.502)" fill="#ff735d"/>
        <path id="Trazado_598" data-name="Trazado 598" d="M99.969,200.653s.359.295,1.03.9l2.962,2.69c2.6,2.39,6.41,5.879,11.285,10.353l40.992,37.81.168.156-.12.2a118.266,118.266,0,0,0-15.033,38.317c-2.934,14.631-3,30.833-.2,47.283l.141.824-.688-.469c-11.418-7.789-22.981-16.288-34.587-25.322-22.666-17.743-43.42-35.872-60-54.582-2.1-2.307-4.027-4.722-5.994-7.042-1.852-2.415-3.784-4.718-5.466-7.157A107.667,107.667,0,0,1,25.353,230a57.61,57.61,0,0,1-6.577-29.9A55.593,55.593,0,0,1,25.943,175.8a68.971,68.971,0,0,1,11.692-15.234,74.848,74.848,0,0,1,9.267-7.857c1.132-.807,2.022-1.383,2.625-1.763s.934-.537.934-.537-.3.205-.893.6-1.464.993-2.579,1.818a78.765,78.765,0,0,0-9.153,7.937A69.465,69.465,0,0,0,26.3,176a55.32,55.32,0,0,0-7.008,24.123,57.155,57.155,0,0,0,6.6,29.6,107.414,107.414,0,0,0,9.086,14.509c1.68,2.425,3.61,4.717,5.459,7.118,1.966,2.312,3.883,4.715,5.988,7.013,16.556,18.634,37.3,36.727,59.941,54.453,11.592,9.021,23.151,17.524,34.536,25.3l-.547.354c-2.8-16.526-2.715-32.818.261-47.53a118.478,118.478,0,0,1,15.2-38.482l.049.353-40.825-37.992L103.85,204.361l-2.907-2.749c-.654-.624-.974-.959-.974-.959" transform="translate(12.993 104.502)" fill="#1a2e35"/>
        <path id="Trazado_599" data-name="Trazado 599" d="M91.486,332.285s25.347,20.68,51.306,8.35c4.15-1.971,9.37-7.138,12.516-15.76,16.526-45.3,18.465-164.881,18.465-164.881l-45.289-3.066L106.83,248.081c-15.561,22.332-20.459,50.52-15.344,84.2" transform="translate(62.208 109.029)" fill="#ffc09d"/>
        <path id="Trazado_600" data-name="Trazado 600" d="M156.155,243.407a4.008,4.008,0,0,1-.088.864c-.085.561-.207,1.391-.408,2.451-.383,2.124-1.005,5.189-2.032,8.916a65.418,65.418,0,0,1-4.842,12.684c-2.332,4.525-5.764,9.314-10.894,12.475a31.711,31.711,0,0,1-16.051,4.115,45.871,45.871,0,0,1-13.429-1.995,48.406,48.406,0,0,1-8.5-3.386c-.976-.463-1.678-.932-2.174-1.208a3.919,3.919,0,0,1-.727-.475c.034-.059,1.08.517,3.025,1.429a54.358,54.358,0,0,0,8.52,3.147,46.778,46.778,0,0,0,13.284,1.819,31.445,31.445,0,0,0,15.683-4.068c4.959-3.054,8.343-7.713,10.674-12.165a67.828,67.828,0,0,0,4.942-12.514c1.085-3.688,1.781-6.728,2.247-8.83.222-.99.4-1.793.542-2.422a3.9,3.9,0,0,1,.232-.837" transform="translate(67.397 169.113)" fill="#ff9c6a"/>
        <path id="Trazado_601" data-name="Trazado 601" d="M113.716,211.11a44.426,44.426,0,0,0-7.22,1.974,40.385,40.385,0,0,0-14.587,10.365A88.128,88.128,0,0,0,81.427,238.19c-1.125,1.917-2.063,3.513-2.791,4.752a10.863,10.863,0,0,1-1.095,1.7,10.606,10.606,0,0,1,.847-1.841c.588-1.163,1.463-2.834,2.595-4.872a78.518,78.518,0,0,1,10.392-14.977A38.774,38.774,0,0,1,106.313,212.6a26.1,26.1,0,0,1,5.376-1.357,14.81,14.81,0,0,1,1.5-.146,1.443,1.443,0,0,1,.527.008" transform="translate(53.87 146.659)" fill="#1a2e35"/>
        <path id="Trazado_602" data-name="Trazado 602" d="M129.268,183.97c-1-3.34-6.645-34.2-8.94-41.381-3.235-10.126-29.545-28.232-29.545-28.232s4.127-9.5,15.328-4.564c13.262,5.849,19.817,15.7,23.157,13.69s24.173-23.208,29.852-22.54,6.927,6.494,4.922,8.833a51.818,51.818,0,0,0-4.254,6.2s12.028-3.62,9.689,9.548c0,0,13.7-8.547,12.362,9.494,0,0,9.02-3.674,11.025,2.673s-3.94,13.7-6.947,18.71-12.765,34.077-12.765,34.077l-1.127,17.776-46.883-1.995Z" transform="translate(63.074 70.122)" fill="#ffc09d"/>
        <path id="Trazado_603" data-name="Trazado 603" d="M172.827,210.094s-.019-.432-.012-1.276q.018-1.307.053-3.751c.068-3.323.166-8.187.293-14.451v-.025l.008-.024c2.459-7.288,5.6-16.748,9.852-27.754a40.971,40.971,0,0,1,4.012-8.284,57.349,57.349,0,0,0,4.833-8.469,15.221,15.221,0,0,0,1.246-4.852,7.626,7.626,0,0,0-1.158-4.825,4.827,4.827,0,0,0-.859-.905,5.537,5.537,0,0,0-1.113-.6,6.811,6.811,0,0,0-2.552-.456,15.148,15.148,0,0,0-5.294,1.032l-.471.175.032-.495a25.509,25.509,0,0,0-.1-5.133,8.126,8.126,0,0,0-1.941-4.649,5.315,5.315,0,0,0-4.772-1.28,14.518,14.518,0,0,0-5.047,1.881l-.6.349.085-.7c.08-.673.163-1.352.244-2.035.046-.685,0-1.371,0-2.064a6.83,6.83,0,0,0-1.478-3.747,5.7,5.7,0,0,0-3.712-1.685,12.171,12.171,0,0,0-4.312.38l-.846.229.441-.744c.827-1.395,1.7-2.766,2.646-4.112.476-.673.969-1.337,1.507-1.979a3.7,3.7,0,0,0,.9-2.046,5.6,5.6,0,0,0-1.385-4.339,6.247,6.247,0,0,0-4.195-2.022,5.429,5.429,0,0,0-2.283.588,19.749,19.749,0,0,0-2.217,1.193c-1.444.886-2.839,1.888-4.213,2.929-2.746,2.086-5.4,4.35-8.052,6.66l-6.16,5.5c-2.054,1.82-4.006,3.686-6.2,5.367a2.485,2.485,0,0,1-2.186.5,5.679,5.679,0,0,1-1.9-.976,39.821,39.821,0,0,1-3.084-2.618c-1.966-1.793-3.94-3.523-6.028-5.079a50.571,50.571,0,0,0-6.515-4.145,22.617,22.617,0,0,0-7.018-2.591,11.423,11.423,0,0,0-7.071.937,11.662,11.662,0,0,0-4.933,4.928l-.119-.42a174.522,174.522,0,0,1,20.031,15.914,51.556,51.556,0,0,1,7.777,8.877,13.745,13.745,0,0,1,1.356,2.527c.175.442.4.873.525,1.322l.376,1.339c.458,1.785.869,3.542,1.254,5.269,3.049,13.817,5.1,25.65,7.149,34.592l.01.049-.005.036c-1.368,7.182-2.427,12.745-3.149,16.538q-.547,2.794-.837,4.274c-.195.961-.317,1.447-.317,1.447s.059-.5.222-1.464q.259-1.487.747-4.293c.683-3.8,1.686-9.37,2.981-16.566l0,.083c-2.134-8.987-4.237-20.775-7.337-34.575-.866-3.406-1.351-7.157-3.473-10.262a51.134,51.134,0,0,0-7.71-8.743,174.921,174.921,0,0,0-19.981-15.8l-.246-.169.127-.251a12.335,12.335,0,0,1,5.235-5.259,12.124,12.124,0,0,1,7.491-1.013,23.3,23.3,0,0,1,7.242,2.657,51.184,51.184,0,0,1,6.61,4.2c2.113,1.573,4.117,3.327,6.083,5.118a39.372,39.372,0,0,0,3.023,2.566c1.042.771,2.279,1.351,3.251.471,2.1-1.612,4.091-3.508,6.132-5.32s4.1-3.661,6.169-5.506c2.654-2.317,5.322-4.588,8.091-6.693,1.386-1.049,2.8-2.061,4.274-2.968a20.367,20.367,0,0,1,2.3-1.235,6.039,6.039,0,0,1,2.622-.647,6.964,6.964,0,0,1,4.688,2.268,6.306,6.306,0,0,1,1.554,4.9,4.451,4.451,0,0,1-1.059,2.412c-.519.619-1.005,1.269-1.473,1.93-.932,1.322-1.8,2.688-2.617,4.057l-.405-.514a12.822,12.822,0,0,1,4.588-.4,6.388,6.388,0,0,1,4.147,1.91,7.506,7.506,0,0,1,1.652,4.156c0,.729.044,1.459-.005,2.171q-.13,1.063-.258,2.108l-.515-.347a15.182,15.182,0,0,1,5.311-1.968,7.607,7.607,0,0,1,2.849.076,5.218,5.218,0,0,1,2.49,1.4,8.735,8.735,0,0,1,2.115,5.025,26.169,26.169,0,0,1,.095,5.271l-.439-.32a15.76,15.76,0,0,1,5.542-1.064,7.4,7.4,0,0,1,2.776.507,6.24,6.24,0,0,1,1.254.68,5.476,5.476,0,0,1,.98,1.032,8.179,8.179,0,0,1,1.261,5.227,15.77,15.77,0,0,1-1.3,5.04,57.773,57.773,0,0,1-4.908,8.54,40.589,40.589,0,0,0-4,8.176c-4.291,10.964-7.489,20.412-10.006,27.672l.008-.049c-.2,6.262-.349,11.124-.453,14.448q-.092,2.443-.139,3.747c-.037.844-.078,1.274-.078,1.274" transform="translate(62.896 69.981)" fill="#ff9c6a"/>
        <path id="Trazado_604" data-name="Trazado 604" d="M136.3,110.007c.127.163-2.576,2.474-5.813,5.423s-5.8,5.416-5.95,5.274,2.2-2.846,5.462-5.811,6.183-5.04,6.3-4.886" transform="translate(86.52 76.425)" fill="#ff9c6a"/>
        <path id="Trazado_605" data-name="Trazado 605" d="M140.83,115.018c.171.071-.856,2.662-2.952,5.35s-4.335,4.339-4.449,4.191c-.139-.163,1.851-2.007,3.876-4.635,2.042-2.615,3.334-5,3.525-4.906" transform="translate(92.698 79.91)" fill="#ff9c6a"/>
        <path id="Trazado_606" data-name="Trazado 606" d="M146.712,120.656c.163.117-.964,1.957-2.517,4.108s-2.942,3.8-3.1,3.684.964-1.957,2.517-4.108,2.942-3.8,3.1-3.684" transform="translate(98.015 83.825)" fill="#ff9c6a"/>
      </g>
    </g>
  </g>
</svg>
