<svg xmlns="http://www.w3.org/2000/svg" xmlns:xlink="http://www.w3.org/1999/xlink" width="273" height="97" viewBox="0 0 273 97">
  <defs>
    <filter id="Sustracci贸n_3" x="0" y="0" width="273" height="97" filterUnits="userSpaceOnUse">
      <feOffset dy="3" input="SourceAlpha"/>
      <feGaussianBlur stdDeviation="3" result="blur"/>
      <feFlood flood-opacity="0.161"/>
      <feComposite operator="in" in2="blur"/>
      <feComposite in="SourceGraphic"/>
    </filter>
  </defs>
  <g transform="matrix(1, 0, 0, 1, 0, 0)" filter="url(#Sustracci贸n_3)">
    <path id="Sustracci贸n_3-2" data-name="Sustracci贸n 3" d="M245,79H10A10.011,10.011,0,0,1,0,69V10A10.011,10.011,0,0,1,10,0H69.536a116.439,116.439,0,0,0,58.381,15.635A116.437,116.437,0,0,0,186.3,0H245a10.011,10.011,0,0,1,10,10V69A10.011,10.011,0,0,1,245,79Z" transform="translate(9 6)" fill="#f9c931"/>
  </g>
</svg>
