<svg xmlns="http://www.w3.org/2000/svg" xmlns:xlink="http://www.w3.org/1999/xlink" width="273" height="96" viewBox="0 0 273 96">
  <defs>
    <filter id="Sustracci贸n_2" x="0" y="0" width="273" height="96" filterUnits="userSpaceOnUse">
      <feOffset dy="3" input="SourceAlpha"/>
      <feGaussianBlur stdDeviation="3" result="blur"/>
      <feFlood flood-opacity="0.161"/>
      <feComposite operator="in" in2="blur"/>
      <feComposite in="SourceGraphic"/>
    </filter>
  </defs>
  <g transform="matrix(1, 0, 0, 1, 0, 0)" filter="url(#Sustracci贸n_2)">
    <path id="Sustracci贸n_2-2" data-name="Sustracci贸n 2" d="M245,78H10A10.011,10.011,0,0,1,0,68V10A10.011,10.011,0,0,1,10,0H72.47a114.963,114.963,0,0,0,55.447,14.258A114.962,114.962,0,0,0,183.364,0H245a10.011,10.011,0,0,1,10,10V68A10.011,10.011,0,0,1,245,78Z" transform="translate(9 6)" fill="#0c8f5a"/>
  </g>
</svg>
