<svg id="hombre-bien" xmlns="http://www.w3.org/2000/svg" xmlns:xlink="http://www.w3.org/1999/xlink" width="403.895" height="765.072" viewBox="0 0 403.895 765.072">
  <defs>
    <clipPath id="clip-path">
      <rect id="Rect치ngulo_152" data-name="Rect치ngulo 152" width="403.895" height="765.072" fill="none"/>
    </clipPath>
    <clipPath id="clip-path-3">
      <rect id="Rect치ngulo_150" data-name="Rect치ngulo 150" width="230.298" height="135.37" fill="none"/>
    </clipPath>
  </defs>
  <g id="Grupo_123" data-name="Grupo 123" clip-path="url(#clip-path)">
    <g id="Grupo_122" data-name="Grupo 122">
      <g id="Grupo_121" data-name="Grupo 121" clip-path="url(#clip-path)">
        <path id="Trazado_381" data-name="Trazado 381" d="M126.021,313.424,79.724,244.9,96.519,81.36l1.372.088c7.032-.095,24.779-16.353,27.439-21.86S122.3,12.831,121.181,13.16c-11.285,3.279-9.936,16.151-9.936,16.151l-1.321-10.92c-3.344-15.97-14.965-8.781-14.965-8.781C89.743-.475,79.259,7.48,79.259,7.48c-2.9-8.553-10.907-1.024-10.907-1.024s-.036-2.733-8.677-6.13c-4.757-1.872-9.635,4.665-13.06,10.918a35.324,35.324,0,0,0-4.162,18.827L37.945,77.615,0,270.634,102.109,414.822l66.4-67.2Z" transform="translate(0 0)" fill="#ffc09d"/>
        <path id="Trazado_382" data-name="Trazado 382" d="M46.667,50.2c-.14-.1,1.383-2.571,4.789-5.745a43.546,43.546,0,0,1,15.519-9.248,44.058,44.058,0,0,1,7.061-1.783L73.4,34.2c-.033-5.224-.7-9.694-.83-12.963-.133-3.249.036-5.167.2-5.171.2-.005.359,1.9.757,5.089a116.345,116.345,0,0,1,1.4,13.005l.016.655-.653.12a47.892,47.892,0,0,0-6.8,1.784A49.243,49.243,0,0,0,52.2,45.3c-3.509,2.877-5.329,5.069-5.534,4.9" transform="translate(38.47 13.246)" fill="#ff9b6c"/>
        <path id="Trazado_383" data-name="Trazado 383" d="M32.552,15.869a7.348,7.348,0,0,1,1.142,2.492c.474,1.631,1.5,4.291.292,7.563-.6,1.677-2.354,2.746-2.7,4.174a5.15,5.15,0,0,0,1.43,4.707c2.469,2.74,8.072,2.771,10.776-.6a11.186,11.186,0,0,0,2.016-6.07c.172-2.173.168-4.353.146-6.391a98.061,98.061,0,0,0-.79-10.856,17.631,17.631,0,0,0-1.852-6.92,17.441,17.441,0,0,0-1.684-2.036c.015-.071,1.069.221,2.2,1.686,1.14,1.449,1.963,4.007,2.454,7.1A80.529,80.529,0,0,1,47.125,21.7a65.046,65.046,0,0,1-.058,6.561,12.512,12.512,0,0,1-2.323,6.931c-3.468,4.2-9.989,4.069-13.109.613a6.468,6.468,0,0,1-1.62-6.094,6.247,6.247,0,0,1,1.613-2.425,6.76,6.76,0,0,0,1.326-1.823c1.162-2.662.454-5.3.142-6.935a11.822,11.822,0,0,1-.544-2.662" transform="translate(24.557 1.581)" fill="#ff9b6c"/>
        <path id="Trazado_384" data-name="Trazado 384" d="M37.312,34.584c.139-.04.3.688,1.075,1.64a6.7,6.7,0,0,0,4.426,2.312A7.657,7.657,0,0,0,49.373,35.6,14.965,14.965,0,0,0,52.6,26.888,38.232,38.232,0,0,0,50.174,9.5c-1.595-4.286-3.209-6.656-3-6.8.142-.122,2.131,2.071,4.047,6.371a35.335,35.335,0,0,1,2.976,17.97c-.294,3.585-1.465,7.154-3.724,9.55-2.164,2.428-5.333,3.6-7.82,3.069a6.935,6.935,0,0,1-4.773-3.072c-.7-1.193-.639-2-.566-2" transform="translate(30.729 2.218)" fill="#ff9b6c"/>
        <path id="Trazado_385" data-name="Trazado 385" d="M44.813,33.532c.12-.062.443.513,1.264,1.27a7.651,7.651,0,0,0,4.195,1.874A8.065,8.065,0,0,0,56.6,34.816a12.578,12.578,0,0,0,4.067-7.231c1.069-6.043-.951-11.737-1.635-15.815-.839-4.1-1.252-6.661-1.036-6.714s1.014,2.416,2.135,6.451c.546,2.025,1.248,4.4,1.81,7.159a23.7,23.7,0,0,1,.294,9.232,13.567,13.567,0,0,1-4.713,8.066,9.036,9.036,0,0,1-7.433,1.825,7.546,7.546,0,0,1-4.463-2.563c-.759-.978-.887-1.666-.81-1.695" transform="translate(36.933 4.168)" fill="#ff9b6c"/>
        <path id="Trazado_386" data-name="Trazado 386" d="M53.582,30.519c.119-.015.27.7.624,1.929a13.328,13.328,0,0,0,2.3,4.74,6.541,6.541,0,0,0,6.548,2.432c2.587-.708,4.251-4,4.008-7.316a105.142,105.142,0,0,0-1.8-17.9c-.834-4.547-1.6-7.316-1.372-7.389.188-.066,1.347,2.6,2.478,7.15a79.643,79.643,0,0,1,2.292,18.134c.255,3.638-1.617,7.818-5.231,8.749A7.631,7.631,0,0,1,55.6,37.874a11.923,11.923,0,0,1-2.005-5.3c-.177-1.314-.117-2.045-.016-2.056" transform="translate(44.099 5.779)" fill="#ff9b6c"/>
        <path id="Trazado_387" data-name="Trazado 387" d="M30.742,160.511a23.572,23.572,0,0,1,2.6-4.632A87.881,87.881,0,0,1,50.3,136.705a23.49,23.49,0,0,1,4.278-3.153,39.064,39.064,0,0,1-3.833,3.656c-2.394,2.217-5.614,5.37-8.911,9.093s-6.023,7.309-7.929,9.956a39.321,39.321,0,0,1-3.158,4.253" transform="translate(25.342 110.112)" fill="#ff9b6c"/>
        <path id="Trazado_388" data-name="Trazado 388" d="M199.047,248.415l-95.585-84.767-78.39,63.776L136.19,364.4Z" transform="translate(20.672 134.93)" fill="#0c8f5a"/>
        <path id="Trazado_389" data-name="Trazado 389" d="M67.973,45c.04.259-6.512,1.5-14.634,2.768s-14.744,2.087-14.782,1.828,6.512-1.5,14.634-2.768S67.931,44.737,67.973,45" transform="translate(31.79 37.06)" fill="#ff9b6c"/>
        <path id="Trazado_390" data-name="Trazado 390" d="M92.879,152.426A72.949,72.949,0,0,1,165.46,85.194l3.777-.007c40.738,2.3,61.546,38.176,58.125,78.834l-7.307,187.841H126.683l.825-61.138s-39.171-6.008-39.736-45.157c-.272-18.909,2.337-57.89,5.107-93.142" transform="translate(72.353 70.238)" fill="#ffc09d"/>
        <path id="Trazado_391" data-name="Trazado 391" d="M109.364,204.642s25.005,1.454,51.269-15.118c0,0-12.007,28.2-51.081,24.753Z" transform="translate(90.173 156.266)" fill="#ff9b6c"/>
        <path id="Trazado_392" data-name="Trazado 392" d="M95.237,141.132c.7.728,4.923-2.416,10.94-2.412,6.01-.084,10.433,3,11.082,2.264.321-.327-.389-1.64-2.313-3.036a15.335,15.335,0,0,0-8.874-2.717,14.719,14.719,0,0,0-8.7,2.832c-1.848,1.423-2.472,2.742-2.129,3.069" transform="translate(78.45 111.5)" fill="#1a2e35"/>
        <path id="Trazado_393" data-name="Trazado 393" d="M127.93,139.484c.7.728,4.93-2.416,10.943-2.412,6.008-.082,10.431,3,11.082,2.266.319-.327-.383-1.64-2.315-3.036a15.32,15.32,0,0,0-8.873-2.717,14.753,14.753,0,0,0-8.708,2.83c-1.841,1.423-2.469,2.744-2.129,3.069" transform="translate(105.408 110.143)" fill="#1a2e35"/>
        <path id="Trazado_394" data-name="Trazado 394" d="M122.624,180.216c.027-.341-3.715-.982-9.774-1.742-1.538-.155-2.992-.458-3.253-1.507-.365-1.109.276-2.766,1.016-4.556q2.154-5.58,4.519-11.708c6.275-16.669,10.814-30.373,10.141-30.621s-6.307,13.064-12.582,29.734q-2.266,6.163-4.328,11.777c-.578,1.746-1.575,3.729-.785,6.03a3.855,3.855,0,0,0,2.531,2.242,10.466,10.466,0,0,0,2.609.358c6.1.314,9.882.334,9.905-.007" transform="translate(88.46 107.252)" fill="#1a2e35"/>
        <path id="Trazado_395" data-name="Trazado 395" d="M134.054,159.819c-.978-.055-.978,6.475-6.557,11.122s-12.534,3.943-12.584,4.855c-.089.41,1.554,1.266,4.492,1.339a16.257,16.257,0,0,0,10.5-3.684,14.171,14.171,0,0,0,5.081-9.325c.243-2.729-.489-4.346-.936-4.308" transform="translate(94.745 131.773)" fill="#1a2e35"/>
        <path id="Trazado_396" data-name="Trazado 396" d="M127.868,125.3c.553,1.649,6.577,1.022,13.613,2.047,7.057.881,12.7,3.087,13.667,1.644.436-.691-.518-2.255-2.781-3.894a23.915,23.915,0,0,0-20.785-2.812c-2.615.98-3.952,2.231-3.715,3.014" transform="translate(105.407 99.826)" fill="#1a2e35"/>
        <path id="Trazado_397" data-name="Trazado 397" d="M94.5,127.872c1.314,1.348,6.369-.139,12.469-.288,6.094-.323,11.279.766,12.449-.679.513-.7-.319-2.06-2.594-3.322a20.22,20.22,0,0,0-10.168-2.1,19.842,19.842,0,0,0-9.911,2.883c-2.135,1.432-2.824,2.85-2.244,3.509" transform="translate(77.756 100.149)" fill="#1a2e35"/>
        <path id="Trazado_398" data-name="Trazado 398" d="M161.715,144.853c.668-.29,26.884-8.011,26.085,18.756s-27.51,20.444-27.534,19.674,1.449-38.43,1.449-38.43" transform="translate(132.142 118.403)" fill="#ffc09d"/>
        <path id="Trazado_399" data-name="Trazado 399" d="M163.635,169.43c.12-.082.458.339,1.235.726a4.67,4.67,0,0,0,3.483.175c2.859-.954,5.373-5.371,5.647-10.194a15.4,15.4,0,0,0-1.1-6.714c-.759-1.983-1.985-3.388-3.4-3.684a2.375,2.375,0,0,0-2.792,1.2c-.381.737-.226,1.277-.37,1.319-.077.066-.56-.465-.312-1.565a2.991,2.991,0,0,1,1.1-1.646,3.519,3.519,0,0,1,2.6-.6c2.06.2,3.862,2.158,4.747,4.3a15.818,15.818,0,0,1,1.394,7.508c-.332,5.39-3.244,10.354-7.148,11.356a4.992,4.992,0,0,1-4.244-.836c-.808-.686-.932-1.288-.837-1.334" transform="translate(134.898 122.359)" fill="#ff9b6c"/>
        <path id="Trazado_400" data-name="Trazado 400" d="M52.965,589.753c-.013-.806,0,5.709,0,0-.011-45.972,17.656-149.669,17.656-149.669,1.98-14.587,42.316-199.907,42.316-199.907l43.748-19.448A28.27,28.27,0,0,0,193.8,234.921l57.268-25.16,82.058,45.317,16.99,101.255S295.437,482.55,297.263,491.686s-12.036,62.1-12.036,62.1l.476,36.3Z" transform="translate(43.667 172.952)" fill="#0c8f5a"/>
        <g id="Grupo_120" data-name="Grupo 120" transform="translate(114.288 620.95)" opacity="0.3">
          <g id="Grupo_119" data-name="Grupo 119">
            <g id="Grupo_118" data-name="Grupo 118" clip-path="url(#clip-path-3)">
              <path id="Trazado_401" data-name="Trazado 401" d="M113.157,420.137c11.243,16.24,18.325,27.727,34.6,33.13,31.21,10.363,41.261,4.654,56.423-3.348,12.536-6.618,20.962-21.285,29.324-32.732,21.8-29.838,32.013-47.288,51.411-76.851l8.024,5.629c-13.277,38.749-2.6,18.3-23.111,53.75-11.843,20.473-25.149,40.636-43.546,55.5s-42.738,23.9-65.933,19.281c-21.077-4.2-38.5-18.811-53.305-34.381-20.593-21.652-42.8-66.825-44.4-96.663.153,2.1,35.976,55.679,50.517,76.686" transform="translate(-62.64 -340.336)" fill="#0c8f5a"/>
            </g>
          </g>
        </g>
        <path id="Trazado_402" data-name="Trazado 402" d="M73.416,322.728a3.135,3.135,0,0,1,.122-.876c.144-.671.317-1.483.527-2.461.485-2.129,1.138-5.224,1.887-9.055,1.507-7.665,3.315-18.305,5.019-30.106,1.731-11.8,3.113-22.513,4.185-30.258.54-3.757.985-6.853,1.319-9.166.166-.987.3-1.806.418-2.485a3.051,3.051,0,0,1,.21-.856,3.129,3.129,0,0,1-.02.881c-.066.684-.146,1.511-.241,2.507-.257,2.323-.6,5.432-1.02,9.2-.9,7.767-2.177,18.5-3.91,30.311-1.708,11.814-3.623,22.46-5.3,30.1-.836,3.824-1.589,6.9-2.186,9.009l-.7,2.421a3.1,3.1,0,0,1-.307.826" transform="translate(60.525 195.794)" fill="#0c8f5a"/>
        <path id="Trazado_403" data-name="Trazado 403" d="M52.971,476.537a7.389,7.389,0,0,1,.036-1.361c.075-.982.172-2.273.292-3.888.3-3.476.73-8.327,1.25-14.279,1.155-12.139,2.735-28.736,4.479-47.074,1.854-18.331,3.53-34.921,4.758-47.054.646-5.939,1.171-10.779,1.549-14.248.2-1.607.35-2.894.469-3.87a7.33,7.33,0,0,1,.228-1.341A7.179,7.179,0,0,1,66,344.783q-.112,1.47-.292,3.886c-.3,3.476-.73,8.327-1.25,14.279-1.155,12.139-2.735,28.738-4.479,47.082-1.854,18.326-3.53,34.914-4.757,47.045-.646,5.939-1.173,10.781-1.551,14.249-.2,1.607-.35,2.894-.469,3.87a7.38,7.38,0,0,1-.228,1.343" transform="translate(43.661 283.158)" fill="#1a2e35"/>
        <path id="Trazado_404" data-name="Trazado 404" d="M117.761,202.1c.1.146-2.711,2-6.836,5.51a90.116,90.116,0,0,0-6.888,6.539,87.4,87.4,0,0,0-13.562,18.8,88.689,88.689,0,0,0-4.034,8.6c-2.027,5.021-2.906,8.272-3.076,8.225a11.646,11.646,0,0,1,.491-2.317,59.422,59.422,0,0,1,1.958-6.15,77.993,77.993,0,0,1,3.886-8.763,80.437,80.437,0,0,1,13.706-19,77.617,77.617,0,0,1,7.088-6.45,59.407,59.407,0,0,1,5.22-3.8,11.153,11.153,0,0,1,2.047-1.2" transform="translate(68.726 166.628)" fill="#1a2e35"/>
        <path id="Trazado_405" data-name="Trazado 405" d="M19.241,265.165s-1.615-7.554-.589-9.531,4.341-4.094,4.341-4.094,1.693-12.06,4.368-15.83c3-4.233,14.706-3.718,14.706-3.718s2.122-2.808,3.864-5.6,25.735-4.651,29.951-4.528,5.685,11.511,5.685,11.511,9.079-1.708,10.675-.659,13.613,22.119,14.656,26.647-4.992,18.294-4.992,18.294c-1.33,3.235-10.226,21.59-10.226,21.59l6.411,8.666L206.048,435.853s24.819-38.9,54.009-92.479c31.913-58.583,49.346-102.3,83.8-103.3l38.778,105.333c-8.119,19.811-113.368,181.1-129.92,196.47s-35.585,20.433-70.18,8.019C157.379,540.868,67.127,378.189,48.94,345.03L29.117,313.537,14.42,286.51s-.215-9.936-.856-14.107,5.676-7.238,5.676-7.238" transform="translate(11.147 182.929)" fill="#ffc09d"/>
        <path id="Trazado_406" data-name="Trazado 406" d="M43.887,225.909c.026-.095,1.58,1.042,2.4,3.788a11.547,11.547,0,0,0,1.861,4.233c1.095,1.332,2.888,2.067,4.864,2.828a14.968,14.968,0,0,1,7.906,7.353,12.339,12.339,0,0,1,1.044,3.142c.14.768.137,1.2.08,1.213-.172.038-.416-1.68-1.721-4.045a15.33,15.33,0,0,0-7.67-6.784c-1.9-.733-3.956-1.58-5.178-3.151a11.245,11.245,0,0,1-1.832-4.6,14.82,14.82,0,0,0-1.755-3.976" transform="translate(36.177 186.262)" fill="#ff9b6c"/>
        <path id="Trazado_407" data-name="Trazado 407" d="M47.664,235.143c.064-.144.712.164,1.7-.071a3.994,3.994,0,0,0,2.793-2.494,11.621,11.621,0,0,0,.662-4.07c.015-1.087-.02-1.781.119-1.8.12-.024.392.631.551,1.762a8.957,8.957,0,0,1-.451,4.47,4.3,4.3,0,0,1-3.578,2.8c-1.259.086-1.874-.524-1.8-.593" transform="translate(39.295 186.92)" fill="#ff9b6c"/>
        <path id="Trazado_408" data-name="Trazado 408" d="M53.9,238.391c-.221.053-1.036-1.266-1.733-3.217a5.164,5.164,0,0,1-.157-2.68c.162-.671.4-1.033.518-1,.283.078-.058,1.635.547,3.4.639,1.784,1.115,3.416.825,3.5" transform="translate(42.79 190.869)" fill="#ff9b6c"/>
        <path id="Trazado_409" data-name="Trazado 409" d="M28.794,241.874c-.215.1-1.469-3.206-.985-7.437.445-4.235,2.385-7.19,2.574-7.046.261.126-1.215,3.133-1.631,7.15-.465,4.012.323,7.267.042,7.333" transform="translate(22.838 187.484)" fill="#ff9b6c"/>
        <path id="Trazado_410" data-name="Trazado 410" d="M19.967,247.161c-.234.091-1.175-1.9-1.429-4.58s.27-4.813.513-4.769c.274.036.175,2.133.432,4.676.239,2.545.741,4.585.483,4.673" transform="translate(15.225 196.08)" fill="#ff9b6c"/>
        <path id="Trazado_411" data-name="Trazado 411" d="M18.815,254.75c-.215.13-1.522-1.733-2.339-4.386s-.812-4.924-.56-4.939c.272-.027.67,2.116,1.467,4.656s1.671,4.536,1.432,4.669" transform="translate(12.997 202.357)" fill="#ff9b6c"/>
        <path id="Trazado_412" data-name="Trazado 412" d="M116.635,399.557a12.5,12.5,0,0,1,.9-2.306c.325-.724.713-1.613,1.106-2.669s.912-2.23,1.343-3.58a85.173,85.173,0,0,0,2.746-9.548,83.209,83.209,0,0,0,1.821-24.173,85.06,85.06,0,0,0-1.286-9.852c-.223-1.4-.553-2.638-.792-3.738s-.48-2.042-.7-2.8a12.53,12.53,0,0,1-.542-2.416,12.424,12.424,0,0,1,.9,2.31c.268.752.573,1.679.854,2.777s.668,2.333.936,3.737a75.222,75.222,0,0,1,1.5,9.92,77.6,77.6,0,0,1-1.839,24.438,75.046,75.046,0,0,1-2.968,9.582c-.474,1.348-1.035,2.516-1.485,3.556s-.881,1.916-1.261,2.618a12.316,12.316,0,0,1-1.233,2.149" transform="translate(96.162 279.075)" fill="#ff9b6c"/>
        <path id="Trazado_413" data-name="Trazado 413" d="M257.774,233.715s41.517,17.123,33.429,80.693a46.463,46.463,0,0,1-4.632,15.165c-12.186,24.047-53.88,106.335-54.451,107.7-.666,1.6-96.71-67.837-96.71-67.837S191.495,205.05,257.774,233.715" transform="translate(111.647 189.935)" fill="#0c8f5a"/>
        <path id="Trazado_414" data-name="Trazado 414" d="M290.161,321.433s-.071.193-.243.558c-.188.392-.445.925-.777,1.617-.715,1.449-1.75,3.543-3.087,6.255-2.74,5.484-6.723,13.452-11.754,23.518-10.155,20.176-24.538,48.753-41.513,82.483l-.224.447-.411-.288-72.838-51.039c-8.185-5.744-16.242-11.4-23.9-16.766l-.348-.246.208-.37c6.49-11.569,12.452-22.991,17.743-34.184,5.269-11.2,9.88-22.182,14.833-32.345,4.921-10.175,10-19.592,14.9-28.271a91.882,91.882,0,0,1,16.408-22.215c5.952-5.964,12.071-10.719,18.192-13.459a52.683,52.683,0,0,1,16.39-4.512,45.651,45.651,0,0,1,10.7.024c1.211.151,2.127.312,2.737.454.611.126.92.213.92.213s-.321-.029-.936-.126c-.613-.113-1.531-.245-2.74-.369a47.8,47.8,0,0,0-10.642.142,52.885,52.885,0,0,0-16.22,4.62c-6.03,2.751-12.066,7.5-17.953,13.452a91.611,91.611,0,0,0-16.207,22.139c-4.87,8.688-9.913,18.1-14.8,28.271-4.917,10.15-9.5,21.132-14.768,32.365-5.286,11.224-11.248,22.675-17.738,34.261l-.14-.615c7.656,5.368,15.713,11.018,23.9,16.76l72.791,51.107-.637.161c17.1-33.668,31.592-62.191,41.822-82.328,5.123-10.018,9.179-17.95,11.972-23.409,1.388-2.684,2.463-4.757,3.206-6.192.361-.679.639-1.2.841-1.586.193-.354.307-.525.307-.525" transform="translate(111.368 191.545)" fill="#0c8f5a"/>
        <path id="Trazado_415" data-name="Trazado 415" d="M63.648,124.011a6.449,6.449,0,0,1,3.029-3.768c3.118-1.841,6.711-1.6,10.183-1.651a57.522,57.522,0,0,0,29.951-9.1A133.834,133.834,0,0,1,120.75,92.6c12.071-12.447,22.006-20.92,32.279-25.056,13.292-5.349,35.518-7.519,49.375-3.883s26.3,14.879,28.229,29.076c7.771-6.57,19.438-6.515,28.9-2.709l.235-.1c10.542,3.757,16.53,14.894,19.641,25.644s4.437,22.245,10.13,31.88c1.19,2.014,2.6,4.428,1.564,6.524a4.445,4.445,0,0,1-4.653,2.027,13.051,13.051,0,0,1-4.908-2.22q1.765,4.22,3.529,8.444a24.911,24.911,0,0,1-11.467-.764c-2.24,10.053-4.908,21.533-7.5,28.346-4.406-.013-8.44.3-11.155,2.746-3.693,3.319-5.344,9.564-11.478,7.194-3.124-1.208-5.972-7.758-7.017-10.938a155.411,155.411,0,0,1-6.731-65.8A49.939,49.939,0,0,0,214.3,111.871l.471.423c-11.13-3.864-23.721-7.668-34.281-2.443-8.192,4.054-13.007,12.555-19.132,19.338-11.608,12.856-26.928,22.363-44.232,23.109-.589,11.213-4.751,22.814-5.339,34.027l-4.667-16.236-.007.089c-.774-1.314-1.412-2.64-2.029-3.968l-.212-.4v-.051a70.31,70.31,0,0,0-3.155-6.38c-.036.033-.071.066-.108.1-6.077,5.36-15.03-2.835-10.237-9.369a15.737,15.737,0,0,1,3.388-3.4,11.087,11.087,0,0,1-10.56,2.737,8.7,8.7,0,0,1-6.15-8.6,7.4,7.4,0,0,1,4.41-5.932,24.98,24.98,0,0,1-14.208-3.131c-2.8-1.6-5.557-4.235-4.605-7.762" transform="translate(52.32 51.004)" fill="#1a2e35"/>
        <path id="Trazado_416" data-name="Trazado 416" d="M148.213,81.288a34.041,34.041,0,0,1,4,3.655,28.566,28.566,0,0,1,6.116,13.228,50.2,50.2,0,0,1,1.018,10.126c.016,3.669-.279,7.6-.56,11.737a105.073,105.073,0,0,0-.3,13.065,45.835,45.835,0,0,0,.9,6.891c.5,2.27,1.1,4.735,2.81,6.687a6.018,6.018,0,0,0,5.623,1.89,8.961,8.961,0,0,0,5.059-2.859c2.563-2.99,3.2-6.785,3.839-10.13l-.836.1a33.359,33.359,0,0,0,4.848,8.347,11.87,11.87,0,0,0,7.751,4.22,7.655,7.655,0,0,0,4.107-.719,6.618,6.618,0,0,0,2.79-2.75,6.823,6.823,0,0,0,.847-3.532,4.955,4.955,0,0,0-1.279-3.1l-.423.378a25.7,25.7,0,0,0,8.559,6.42,23.037,23.037,0,0,0,2.653,1.031,4.538,4.538,0,0,0,.951.235,4.767,4.767,0,0,0-.9-.383c-.593-.243-1.472-.6-2.571-1.157a26.492,26.492,0,0,1-8.261-6.515l-.421.378c1.339,1.419,1.418,3.914.263,5.921a5.967,5.967,0,0,1-2.521,2.432,6.938,6.938,0,0,1-3.724.606,11.123,11.123,0,0,1-7.194-4.01,32.923,32.923,0,0,1-4.667-8.168l-.573-1.277-.265,1.379c-.637,3.341-1.317,6.982-3.655,9.679a8.057,8.057,0,0,1-4.528,2.556,5.066,5.066,0,0,1-4.778-1.6c-1.5-1.689-2.109-4.023-2.6-6.256a45.317,45.317,0,0,1-.892-6.751,106.418,106.418,0,0,1,.245-12.956c.257-4.138.525-8.084.474-11.8a49.843,49.843,0,0,0-1.146-10.257,28.2,28.2,0,0,0-6.49-13.33,16.191,16.191,0,0,0-4.266-3.412" transform="translate(122.202 67.023)" fill="#375a64"/>
        <path id="Trazado_417" data-name="Trazado 417" d="M80.661,130.16c-.009.013.1.1.319.272l1,.726a13.092,13.092,0,0,0,1.686,1.082,21.53,21.53,0,0,0,2.425,1.275,35.336,35.336,0,0,0,17.052,3.069,45.159,45.159,0,0,0,24.045-8.88c7.96-5.724,14.945-14.155,20.657-23.808,2.9-4.824,5.258-9.77,7.862-14.337a52.813,52.813,0,0,1,8.9-12.129,27.2,27.2,0,0,1,11.48-6.968,19.5,19.5,0,0,1,6.054-.7,21.441,21.441,0,0,1,5.541,1.066,23.063,23.063,0,0,1,12.8,10.832,27.644,27.644,0,0,1,2.056,5.973,1.37,1.37,0,0,0-.031-.418c-.051-.33-.113-.73-.188-1.219a20.023,20.023,0,0,0-1.513-4.5,22.667,22.667,0,0,0-4.461-6.046,23.3,23.3,0,0,0-8.451-5.245,21.935,21.935,0,0,0-5.72-1.16,20.129,20.129,0,0,0-6.3.67,27.878,27.878,0,0,0-11.872,7.1,53.193,53.193,0,0,0-9.1,12.294c-2.636,4.6-5,9.535-7.871,14.313-5.669,9.581-12.553,17.919-20.362,23.591a44.861,44.861,0,0,1-23.58,8.915,35.851,35.851,0,0,1-16.862-2.74,56.118,56.118,0,0,1-5.576-3.025" transform="translate(66.506 56.917)" fill="#375a64"/>
        <path id="Trazado_418" data-name="Trazado 418" d="M78.675,92.945a6.16,6.16,0,0,0,1.429.994,30.841,30.841,0,0,0,4.231,2.149,41.069,41.069,0,0,0,6.7,2.2,43.39,43.39,0,0,0,17.191.549,41.3,41.3,0,0,0,6.826-1.764,30.9,30.9,0,0,0,4.359-1.876,6.2,6.2,0,0,0,1.489-.9c-.077-.157-2.277.974-6.054,2.149a46.777,46.777,0,0,1-6.754,1.545,46.48,46.48,0,0,1-16.866-.54,47.139,47.139,0,0,1-6.641-1.974c-3.695-1.414-5.818-2.684-5.906-2.532" transform="translate(64.867 76.624)" fill="#375a64"/>
      </g>
    </g>
  </g>
</svg>
