<svg xmlns="http://www.w3.org/2000/svg" xmlns:xlink="http://www.w3.org/1999/xlink" width="225" height="226" viewBox="0 0 225 226">
  <defs>
    <filter id="Elipse_8" x="0" y="0" width="225" height="226" filterUnits="userSpaceOnUse">
      <feOffset dy="6" input="SourceAlpha"/>
      <feGaussianBlur stdDeviation="3" result="blur"/>
      <feFlood flood-opacity="0.161"/>
      <feComposite operator="in" in2="blur"/>
      <feComposite in="SourceGraphic"/>
    </filter>
  </defs>
  <g id="Grupo_80" data-name="Grupo 80" transform="translate(-1599 -2271)">
    <g transform="matrix(1, 0, 0, 1, 1599, 2271)" filter="url(#Elipse_8)">
      <g id="Elipse_8-2" data-name="Elipse 8" transform="translate(9 3)" fill="#fff" stroke="#f9c931" stroke-width="3">
        <ellipse cx="103.5" cy="104" rx="103.5" ry="104" stroke="none"/>
        <ellipse cx="103.5" cy="104" rx="102" ry="102.5" fill="none"/>
      </g>
    </g>
    <path id="Trazado_220" data-name="Trazado 220" d="M46.4,80.243a6.23,6.23,0,0,0-1-8.224,7.284,7.284,0,0,0-6.332-1.85c-2.872.343-4.284.515-4.879-.08a.474.474,0,0,1-.06-.684c.192-.192,1.565.318,1.734.15l3.113-3.46a.382.382,0,0,0-.009-.537,6.218,6.218,0,0,0-8-.9c-1.462-1.463-1.528-1.528-1.72-1.337L27.5,65.07c-.1.1-.549.415-.425.539l1.364,1.364A6.058,6.058,0,0,0,29.5,74.584a7.518,7.518,0,0,0,6.6,1.931c3.308-.482,4.469-.552,5.113.093a.7.7,0,0,1,.037,1.054c-.552.552-1.447.405-2.482-.295-.271-.175-.388-.157-.532-.014l-2.871,3.218a.3.3,0,0,0,.032.414c2.926,2.925,6.1,3.455,9.086,1.407,1.488,1.488,1.8,1.8,1.993,1.608L48.2,82.272c.1-.1-.262-.492-.362-.591ZM98.814,20.408a1.557,1.557,0,0,0-1.9-1.1A236.293,236.293,0,0,1,59.062,26.35l2.46-21.191C61.964,2.654,60.874.348,59.1.035s-3.586,1.481-4.028,3.986l-3.4,14.3L50.94,5.965c0-2.318-1.343-4.215-2.984-4.215s-2.984,1.9-2.984,4.215L43.721,27.184A128.54,128.54,0,0,1,24.7,26.022C9.614,23.886,2.488,19.555,2.381,19.49A1.556,1.556,0,0,0,.728,22.126c.3.19,7.584,4.678,23.262,6.938a130.761,130.761,0,0,0,18.6,1.259c.312,0,.628-.006.941-.008l-.522,8.839L3.049,79.117c-3.926,3.926-4.071,8.508-.178,12.407,2.713,2.719,13.681,13.686,16.4,16.4,3.9,3.893,8.7,3.968,12.628.042L72.777,67.089c3.926-3.926,3.865-8.728-.028-12.627C70.343,52.051,61.442,43.15,57.562,39.273l.87-7.492q-2.193.2-4.349.357c-.349.024-.7.046-1.042.068a3.027,3.027,0,0,1-1.082-2.161c.706-.041,1.412-.08,2.125-.13a233.838,233.838,0,0,0,43.628-7.6,1.556,1.556,0,0,0,1.1-1.9M55.692,46.84a1.529,1.529,0,0,1,1.526.212c1.1,1.044,5.275,5.219,6.319,6.319a1.98,1.98,0,0,1,.4,1.71c-2.474,3.9-1.934,7.689.955,11.174L31.079,100.064c-3.485-2.889-7.27-3.429-11.174-.955a1.8,1.8,0,0,1-1.64-.326c-1.1-1.044-5.369-5.313-6.412-6.413a1.44,1.44,0,0,1-.171-1.485c2.473-3.9,2.159-7.464-.73-10.949L44.76,46.128c3.485,2.889,7.028,3.186,10.932.713" transform="translate(1663.067 2323.575)" fill="#f9c931"/>
  </g>
</svg>
