<svg xmlns="http://www.w3.org/2000/svg" xmlns:xlink="http://www.w3.org/1999/xlink" width="225" height="225" viewBox="0 0 225 225">
  <defs>
    <filter id="Elipse_6" x="0" y="0" width="225" height="225" filterUnits="userSpaceOnUse">
      <feOffset dy="6" input="SourceAlpha"/>
      <feGaussianBlur stdDeviation="3" result="blur"/>
      <feFlood flood-opacity="0.161"/>
      <feComposite operator="in" in2="blur"/>
      <feComposite in="SourceGraphic"/>
    </filter>
  </defs>
  <g id="Grupo_81" data-name="Grupo 81" transform="translate(-1328 -2481)">
    <g transform="matrix(1, 0, 0, 1, 1328, 2481)" filter="url(#Elipse_6)">
      <g id="Elipse_6-2" data-name="Elipse 6" transform="translate(9 3)" fill="#fff" stroke="#7aa0dd" stroke-width="3">
        <circle cx="103.5" cy="103.5" r="103.5" stroke="none"/>
        <circle cx="103.5" cy="103.5" r="102" fill="none"/>
      </g>
    </g>
    <path id="Trazado_219" data-name="Trazado 219" d="M30.2,64.087H77.475l7.412-33.911A4.9,4.9,0,0,0,81.4,24.411a4.782,4.782,0,0,0-5.465,3.778L70.106,55.214H30.7L24.372,15.339l-14.2-9.264A5.286,5.286,0,1,0,4.42,13.3l11.65,7.082L22.044,57.2a10.873,10.873,0,0,0-3.539,8.126V65.5a11.586,11.586,0,0,0,8.828,11.2,12.721,12.721,0,0,0-.507,3.037A12.065,12.065,0,0,0,38.7,91.811a11.563,11.563,0,0,0,11.87-11.484c0-.883-.094-1.779-.278-1.779h4.634c-.183,0-.284.934-.284,1.817,0,6.544,5.324,11.1,11.865,11.1a11.758,11.758,0,1,0,0-23.514c-.578,0-1.148.41-1.7.41H40.418c-.558,0-1.126-.123-1.705-.123s-1.148.123-1.706.123H30.2c-1.625,0-2.162-1.776-2.162-2.861v-.168c0-1.171.642-1.243,2.162-1.243M65.7,78.548h1.616A1.684,1.684,0,0,1,69.2,80.327c0,1.485-1.209,1.889-2.695,1.889s-2.694-.411-2.694-1.9A1.678,1.678,0,0,1,65.7,78.548m-27.8,0h1.616a1.684,1.684,0,0,1,1.886,1.779c0,1.485-1.209,1.889-2.694,1.889s-2.695-.411-2.695-1.9A1.679,1.679,0,0,1,37.9,78.548M48.4,44.342c0,3.855,0,4.3.5,4.3h4.476c.249,0-.028-.244-.028-.5V44.413c5.587-1.156,9.526-5.525,9.526-11.95,0-3.984-1.808-7.581-5.662-10.6C53.041,18.585,51,16.978,51,15.436a.873.873,0,0,1,.813-.964c.5,0,1.619,2.441,2.054,2.441l8.519-.45a.7.7,0,0,0,.684-.707,11.53,11.53,0,0,0-9.2-11.67c0-3.79,0-4.088-.5-4.088H48.832c-.248,0-.748.081-.748.4V3.936C42.169,5.156,39.35,10.3,39.35,15.179A13.655,13.655,0,0,0,45.273,26.23c4.912,3.662,6.443,5.076,6.443,6.747a1.313,1.313,0,0,1-1.349,1.413c-1.43,0-2.415-1.349-2.85-3.6-.124-.578-.306-.707-.679-.707l-7.893.45a.567.567,0,0,0-.5.59c0,7.581,3.42,12,9.948,13.217" transform="translate(1389 2542)" fill="#7aa0dd"/>
  </g>
</svg>
