<svg xmlns="http://www.w3.org/2000/svg" width="120" height="120.425" viewBox="0 0 120 120.425">
  <g id="icon6" transform="translate(-1469.234 -3582.287)">
    <path id="Trazado_380" data-name="Trazado 380" d="M99.137,102.808c-3.833,9.86-10.534,15.86-20.785,17.3a71.7,71.7,0,0,1-10.557.24c-6.731-.058-13.484.095-20.184-.413-6.931-.526-12.874-3.735-17.952-8.449C20.3,102.8,11,94.044,1.615,85.382a5.368,5.368,0,0,1-1.6-4.65A10.6,10.6,0,0,1,15.29,71.321c5.1,2.4,10.088,5.026,15.141,7.522,3.068,1.515,4.7.556,4.708-2.816.027-11.912.05-23.824-.056-35.734a5.138,5.138,0,0,0-1.517-3.154Q17.939,21.352,2.188,5.686C1.635,5.133.8,4.617.654,3.961.437,2.955.319,1.465.884.883S2.942.375,3.95.57C4.6.7,5.134,1.535,5.686,2.087Q19.237,15.63,32.767,29.193a18,18,0,0,1,1.548,2.06l.643-.34a14.807,14.807,0,0,0,.183-1.644c.016-4.389-.016-8.777.016-13.166C35.222,7.148,42.27,2.7,50.649,6.52,52.554,2.655,55.513.053,60.042,0,64.6-.051,67.671,2.376,69.549,6.21a33.224,33.224,0,0,1,5.725-1.118,9.68,9.68,0,0,1,9.9,9.286c.128,2.172.021,4.357.021,6.507a37.082,37.082,0,0,1,5.478-.742,9.654,9.654,0,0,1,9.53,9.167c.177,3.125.093,6.267.093,9.4,0,18.808-.022,37.616.045,56.424a4.428,4.428,0,0,0,1.219,2.77c5.588,5.714,11.266,11.338,16.908,17,.55.552,1.368,1.116,1.471,1.768a3.924,3.924,0,0,1-.5,2.887c-.474.535-1.824.564-2.7.386-.667-.136-1.229-.913-1.78-1.463q-7.161-7.134-14.3-14.288c-.428-.427-.894-.816-1.521-1.385M40.976,43.877l-.863.5v2.5c0,9.875-.025,19.75.011,29.624.011,3.17-1.118,5.65-3.936,7.218a7.511,7.511,0,0,1-7.419-.078C23.662,81.075,18.576,78.468,13.424,76c-3.793-1.82-7.817.147-8.221,3.976a3.345,3.345,0,0,0,.781,2.473c9.532,8.965,19.037,17.962,28.759,26.717a23.837,23.837,0,0,0,15.937,6.062c8.46.125,16.925.174,25.383.013A19.854,19.854,0,0,0,94.457,100.92a3.576,3.576,0,0,0-1.091-4.1Q67.778,71.379,42.319,45.805a13.073,13.073,0,0,1-1.343-1.928M95.21,90.85a2.566,2.566,0,0,0,.108-.623q.013-29.863-.011-59.725c-.007-3.219-2.157-5.417-4.981-5.44-2.906-.024-5.018,2.233-5.058,5.605-.062,5.172-.016,10.346-.019,15.519,0,2.978.164,5.974-.127,8.925A3.536,3.536,0,0,1,82.871,57.5c-1.454.333-2.45-.758-2.551-2.359-.044-.7-.031-1.41-.031-2.115q0-18.106-.015-36.211a13.089,13.089,0,0,0-.314-3.255,4.908,4.908,0,0,0-9.439.029,12.113,12.113,0,0,0-.3,3.022Q70.185,30.953,70.2,45.3c0,.627-.012,1.254-.008,1.881.008,1.644-.706,2.84-2.411,2.865-1.849.027-2.556-1.241-2.538-2.977.007-.627,0-1.254,0-1.881q0-14.109,0-28.217c0-2.351.112-4.711-.053-7.051a4.946,4.946,0,0,0-7.053-4.426c-2.4,1.12-2.989,3.2-2.985,5.641.021,11.6.039,23.2-.031,34.8a20.023,20.023,0,0,1-.779,4.006L95.21,90.85m-45.645-44.7.562-.308c.023-.368.064-.737.064-1.1,0-9.634.026-19.267-.008-28.9-.013-3.544-2.091-5.857-5.07-5.828s-4.971,2.335-4.99,5.91q-.051,9.516.017,19.032a3.391,3.391,0,0,0,.611,2.134c2.88,3.076,5.864,6.055,8.814,9.066" transform="translate(1469.234 3582.287)" fill="#e96247"/>
  </g>
</svg>
