<svg xmlns="http://www.w3.org/2000/svg" width="120" height="100.046" viewBox="0 0 120 100.046">
  <g id="icon3" transform="translate(-1493 -2186.977)">
    <path id="Trazado_358" data-name="Trazado 358" d="M39.427,10.046c.706-2.185,1.036-4.161,1.947-5.817A8.01,8.01,0,0,1,48.756.053C56.25.009,63.747-.05,71.24.071c4.874.079,8.109,3.223,8.74,8.092.07.536.121,1.074.212,1.883H82.73c7.651,0,15.3-.025,22.953.008,8.434.036,14.3,5.887,14.3,14.291q.027,30.683,0,61.366c-.008,8.384-5.909,14.31-14.312,14.317q-45.673.037-91.345,0C5.928,100.02.021,94.089.014,85.711q-.028-30.682,0-61.365c.007-8.406,5.862-14.258,14.3-14.292s16.848-.008,25.115-.008m.373,7.606c-.753-.034-1.445-.093-2.135-.094q-11.479-.009-22.957,0-7.19.015-7.189,7.2-.013,30.219,0,60.437c0,4.926,2.4,7.331,7.326,7.333q45.21.012,90.422,0c4.776,0,7.212-2.443,7.214-7.208q.015-30.337,0-60.672c0-4.652-2.422-7.071-7.066-7.083q-11.595-.03-23.191,0c-.683,0-1.365.069-2.043.106-.136,1.01-.21,1.866-.371,2.706a8.435,8.435,0,0,1-8.154,7.091q-11.71.158-23.424-.008a8.412,8.412,0,0,1-8.02-6.964c-.181-.9-.268-1.825-.412-2.838M59.894,20c3.513,0,7.025-.038,10.537.018,1.512.023,2.118-.619,2.1-2.093-.038-2.808-.03-5.618,0-8.427.013-1.389-.643-1.962-2-1.959q-10.537.026-21.074,0c-1.373,0-1.99.609-1.976,1.982.027,2.731.061,5.464-.014,8.193-.048,1.725.656,2.355,2.365,2.312C53.179,19.944,56.537,20,59.894,20" transform="translate(1493 2186.978)" fill="#0c8f5a"/>
    <path id="Trazado_359" data-name="Trazado 359" d="M44.461,94.885c2.812,0,5.624-.033,8.435.007a14.184,14.184,0,0,1,13.9,16.8,3.748,3.748,0,0,1-3.768,3.2A3.627,3.627,0,0,1,59.4,111.56a26.041,26.041,0,0,1-.062-2.808c-.14-3.641-2.576-6.257-6.194-6.322q-8.784-.158-17.572,0a6.173,6.173,0,0,0-6.206,6.31,26.575,26.575,0,0,1-.062,2.808,3.626,3.626,0,0,1-3.621,3.343,3.76,3.76,0,0,1-3.8-3.416c-1.209-9.311,5.169-16.552,14.615-16.587,2.656-.01,5.311,0,7.967,0" transform="translate(1495.154 2157.09)" fill="#0c8f5a"/>
    <path id="Trazado_360" data-name="Trazado 360" d="M49,76.1A12.492,12.492,0,1,1,61.51,63.559,12.539,12.539,0,0,1,49,76.1m.106-7.517A5.015,5.015,0,0,0,54,63.624a5,5,0,0,0-10-.007,5.012,5.012,0,0,0,5.111,4.966" transform="translate(1490.506 2170.875)" fill="#0c8f5a"/>
    <path id="Trazado_361" data-name="Trazado 361" d="M114.781,54.769c3.081,0,6.163-.026,9.244.009,2.073.023,3.319,1.537,3.268,3.861-.05,2.254-1.228,3.625-3.261,3.634q-9.328.041-18.656,0c-1.968-.01-3.2-1.523-3.2-3.743,0-2.235,1.22-3.719,3.2-3.746,3.137-.042,6.275-.012,9.412-.012" transform="translate(1470.748 2169.727)" fill="#0c8f5a"/>
    <path id="Trazado_362" data-name="Trazado 362" d="M114.858,91.446c-3.138,0-6.276.016-9.413-.006-1.987-.014-3.217-1.41-3.266-3.632-.051-2.309,1.229-3.854,3.288-3.861q9.245-.031,18.49,0c2.091.006,3.345,1.458,3.339,3.779s-1.239,3.705-3.361,3.717c-3.026.017-6.051,0-9.077,0" transform="translate(1470.746 2160.536)" fill="#0c8f5a"/>
    <path id="Trazado_363" data-name="Trazado 363" d="M114.856,113.189c3.082,0,6.164-.019,9.245.007,1.977.016,3.187,1.451,3.2,3.707s-1.216,3.772-3.166,3.781q-9.414.04-18.826,0c-1.911-.009-3.172-1.634-3.124-3.856.047-2.169,1.236-3.608,3.094-3.627,3.194-.034,6.387-.01,9.581-.01" transform="translate(1470.746 2151.323)" fill="#0c8f5a"/>
  </g>
</svg>
