<svg xmlns="http://www.w3.org/2000/svg" width="176.953" height="183.432" viewBox="0 0 176.953 183.432">
  <g id="icono9" transform="translate(-1452 -2126.284)">
    <path id="Trazado_471" data-name="Trazado 471" d="M15.517,177.225c2.211-5.675,4.422-11.35,6.834-17.543-1.662,0-3.247.027-4.832-.006-3.885-.08-5.032-1.3-5-5.257.107-12.841,7.51-20.242,20.29-20.246,5.732,0,11.463.05,17.194.093,2,.015,4.336.217,3.861,2.83-.189,1.041-2.489,2.357-3.872,2.41-6.438.246-12.894-.013-19.339.113-7.866.153-13.177,6.278-12.461,14.7h3.749c32.479,0,64.957-.044,97.436.056a13.269,13.269,0,0,0,10.126-4.26c11.218-11.226,22.626-22.261,34.088-33.489-7.812-5.137-15.607-4.467-21.466,1.415-5.73,5.752-11.455,11.514-17.034,17.411a12.892,12.892,0,0,1-10.119,4.352c-16.357-.161-32.717-.1-49.075-.227a6.039,6.039,0,0,1-4.065-1.414c-1.531-1.686.161-3.813,3.121-3.836q10.746-.084,21.492.079c1.8.027,2.827-.391,3.328-2.29q6.99-26.47,14.094-52.909a3.712,3.712,0,0,0-.114-.99c-2.395-.664-4.9-1.367-7.409-2.05-6.477-1.761-7.167-2.587-7.742-9.3-.058-.676-.15-1.351-.229-2.053-.385.1-.689.085-.79.221-5.521,7.337-5.52,7.342-14.523,4.92-6.8-1.829-13.574-3.727-20.389-5.482-3.761-.969-5.689-3.234-5.776-7.115a20.028,20.028,0,0,0-.289-4.281c-1.834-7.459.957-13.361,5.646-18.967,18.843-22.532,42.721-30.5,71.82-25.2a44.427,44.427,0,0,1,2.592-6.6c.608-1.072,2.245-1.561,3.417-2.314.5,1.378,1.553,2.825,1.389,4.117a27.248,27.248,0,0,1-1.8,5.649c7.067,4.218,13.8,8.208,20.492,12.259a6.841,6.841,0,0,1,2.681,2.309c.581,1.168.5,2.667.7,4.023-1.379-.005-3.08.511-4.082-.106-3.847-2.37-7.463-5.116-11.188-7.688a11.257,11.257,0,0,0-1.765-.847V65.072l34.959,9.385a56.258,56.258,0,0,0-5.052-22.473,141.18,141.18,0,0,0-7.575-13.347c-1.031-1.718-2.352-3.375-.154-4.935,1.974-1.4,3.28.037,4.415,1.58a69.576,69.576,0,0,1,13.849,41.382,7.966,7.966,0,0,1-1.228,3.978c-1.855,3.057-3.933,5.981-5.941,8.945-2.9,4.284-4.711,4.969-9.653,3.652-7.378-1.966-14.749-3.957-22.128-5.919-6.088-1.619-6.916-2.585-7.416-8.737-.066-.808-.2-1.609-.373-2.994-2.951,2.966-4.238,7.7-8.984,7.026-3.869-.552-7.639-1.8-11.889-2.85-4.868,18.157-9.7,36.172-14.645,54.627,7.749,0,15.007.137,22.252-.118,1.41-.05,2.979-1.412,4.112-2.535,5.762-5.72,11.407-11.558,17.087-17.36,6.212-6.347,13.586-8.01,21.993-5.434q3.25,1,6.447,2.165c4.19,1.527,4.829,4.309,1.637,7.546q-13.58,13.775-27.249,27.463c-7.019,7.069-6.958,7.044-2.893,16.192,2.141,4.817,4.026,9.747,6.026,14.627l-.961.98h5.918q8.6,0,17.194,0c1.984,0,4.233.024,4.268,2.62.038,2.845-2.311,2.788-4.427,2.786q-29.016-.023-58.032-.008H6.333c-.955,0-2.069.312-2.83-.073A22.861,22.861,0,0,1,0,180.591c1.184-.889,2.291-2.377,3.57-2.545a69.709,69.709,0,0,1,8.94-.13H16.39l-.873-.691M129.693,63.251c.4-.514.638-.682.675-.886.171-.937.3-1.882.419-2.826a136.507,136.507,0,0,0-.011-36.374c-1.084-7.841.39-6.077-7.439-8.6-2.813-.908-4.7-.288-6.45,2.008-2.307,3.033-4.949,5.811-7.243,8.853A109.611,109.611,0,0,0,94.187,53.74l35.506,9.511M88.349,52.181c3.6-6.986,6.717-13.963,10.657-20.441,3.965-6.518,8.746-12.54,13.207-18.83-27.161-2.7-51.062,14.529-58.878,29.884l35.014,9.387m-6.02,107.508c-13.791,0-27-.015-40.214.042a2.647,2.647,0,0,0-2.046.967c-2.621,5.522-5.108,11.109-7.867,17.2,15,0,29.275.027,43.552-.077a2.955,2.955,0,0,0,2.093-1.765c1.55-5.231,2.908-10.52,4.482-16.364m.832,17.949h44.178c-2.619-5.783-5.017-11.2-7.562-16.543a2.892,2.892,0,0,0-2.144-1.346c-9.865-.089-19.73-.059-29.727-.059L83.16,177.637M51.756,47.981c.167,3.118.392,5.6.4,8.077.011,2.181,1.038,3.044,3.1,3.561,7.384,1.852,14.711,3.934,22.077,5.86.98.257,2.618.569,3.007.09,2.069-2.553,3.839-5.35,5.925-8.371L51.756,47.981m41.78,11.184a67.465,67.465,0,0,0,.69,8.349,4.594,4.594,0,0,0,2.452,3.079c7.645,2.242,15.363,4.238,23.086,6.207.881.225,2.395.166,2.819-.38,1.917-2.468,3.55-5.159,5.45-8.02l-34.5-9.236m76.417,20.463L135.53,70.434c.178,3.437.166,6.4.589,9.29.118.81,1.417,1.812,2.357,2.077q11.67,3.292,23.432,6.253a3.463,3.463,0,0,0,2.926-.921c1.765-2.2,3.219-4.658,5.12-7.506m-44.883,79.9c2.524,5.579,4.78,10.934,7.425,16.09.525,1.023,2.547,1.278,3.878,1.888.3-1.337,1.218-2.926.795-3.969-2.221-5.466-4.781-10.794-7.256-16.241l-4.841,2.232m-90.868.84-.616-1.261c-1.889.717-4.659.892-5.5,2.256a72.048,72.048,0,0,0-5.647,12.277c-.393,1.036.584,2.592.931,3.908,1.255-.555,3.167-.773,3.654-1.722,2.589-5.052,4.82-10.287,7.175-15.458" transform="translate(1452 2126.284)" fill="#7aa0dd"/>
  </g>
</svg>
