<svg xmlns="http://www.w3.org/2000/svg" width="166.583" height="169.938" viewBox="0 0 166.583 169.938">
  <g id="icono7" transform="translate(-1474.338 -1223.191)">
    <path id="Trazado_453" data-name="Trazado 453" d="M151.045,164.6c0-4.631,0-9.032,0-13.434.006-5.726.767-6.5,6.434-6.575.549-.007,1.1,0,2.324,0-1.686-2.627-3.113-4.889-4.581-7.124-.992-1.513-1.679-3.09.227-4.3,1.921-1.217,3.042.181,4.006,1.644,2.065,3.136,4.192,6.233,6.168,9.423,1.942,3.133.886,5.073-2.746,5.252-1.1.054-2.209.014-3.314.015-.977,0-1.955,0-3.456,0,0,4.849.007,9.438,0,14.026-.011,5.407-.968,6.365-6.351,6.369-5.413,0-10.831.117-16.238-.082-1.364-.05-3.507-.794-3.879-1.762-.994-2.592-2.83-2.272-4.772-2.272q-58.17.006-116.34,0a29.649,29.649,0,0,1-4.3-.158c-3.029-.446-4.586-2.287-4.16-5.295,1.626-11.479,3.075-23,5.262-34.375.735-3.823,3.34-7.341,5.4-10.811.416-.7,2.254-.552,3.436-.795.173,1.183.937,2.869.426,3.469-4.36,5.126-5.059,11.386-5.937,17.631-1.167,8.289-2.377,16.573-3.6,25.081H31.105V146.971c0-1.878-.025-3.757.009-5.635.036-1.953-.36-4.49,2.521-4.488s2.518,2.523,2.524,4.487c.019,6.287.007,12.574.007,19.125h22.06a8.586,8.586,0,0,0-.9-1.895c-3.816-4.423-3.718-9.087-1.155-14.069.951-1.85,1.181-4.092,2.231-5.865,3.089-5.215,1.42-9.566-2.024-13.731-7.283,1.394-8.383.778-11.4-6.365-1.712-4.053-3.428-8.1-5.408-12.782-5.313,1.893-10.488,3.676-15.611,5.6-1.734.65-3.485,1.581-4.534-.666-1.06-2.271.751-3.288,2.452-3.849,6.8-2.24,13.64-4.354,20.473-6.491,1.14-.357,2.315-.6,3.663-.94,0-3.05.147-5.921-.077-8.763a5.386,5.386,0,0,0-1.634-3C38.679,82,34.306,75.619,32,67.891a4.517,4.517,0,0,0-2.23-2.429c-6.862-3.217-9.905-8.74-8.69-16.112a6.315,6.315,0,0,1,5.857-5.4c1.19-.1,2.4-.017,3.725-.017.311-5.492.355-10.775.971-15.991.768-6.513,2.813-12.764,8.576-16.535C45.578,7.9,51.186,4.457,57.152,2.218,69.45-2.4,81.144.63,91.942,7.231c10.463,6.4,16.276,15.641,15.734,28.307-.113,2.633-.017,5.275-.017,7.735.422.3.588.52.769.534,8.548.638,11.94,6.1,8.147,14.044a17.271,17.271,0,0,1-6.43,6.751,8.6,8.6,0,0,0-4.279,5.23A38.472,38.472,0,0,1,95.785,85.969c-2.32,2.269-3.546,4.542-3.123,7.79a45.726,45.726,0,0,1,.04,5.6c3.663.937,7.3,1.722,10.839,2.809a121.972,121.972,0,0,1,12.806,4.429c7.445,3.227,13.262,8.3,16.51,16.748,2.165-3.24,4.072-6.109,6-8.969,2.677-3.98,4.47-4,7.12-.04,2.089,3.119,4.131,6.27,6.2,9.4.992,1.5,1.679,3.116-.2,4.312s-3.045-.172-4.018-1.647c-1.752-2.656-3.515-5.306-5.545-8.371L124.916,144.6c1.852,0,3.095,0,4.337,0,3,0,4.482,1.511,4.484,4.491.005,5.069,0,10.139,0,15.513ZM35.448,54.8c.7,4.778.653,9.432,2.121,13.548,4.1,11.483,12.153,19.52,23.413,24.241,4.388,1.84,8.987,2.521,13.586.992C88.8,88.851,98.253,79.334,102.039,64.77c1.018-3.914.509-8.226.724-12.844-9.107,1.309-15.552-2.66-21.065-8.494-6.008-6.358-13.162-9.011-21.958-8.62C48.834,35.3,49.4,33.874,46.934,44.868,45.671,50.5,42.616,54.22,35.448,54.8m67.024,105.729c0-6.386-.056-12.44.032-18.492.029-2.033-.912-5.13,2.408-5.153,3.343-.025,2.418,3.084,2.448,5.112.091,6.145.033,12.293.033,18.5H128.57V149.5c-2.3,0-4.368.058-6.436-.013-3.791-.131-4.876-2.176-2.824-5.423,2.179-3.45,4.113-7.148,6.8-10.158,3.9-4.359,2.827-8.468.222-12.581a25.54,25.54,0,0,0-5.4-6.172c-6.344-5.108-14.024-7.113-21.955-9.013-2.189,5.151-4.226,10.135-6.421,15.048-1.8,4.038-4.309,5.118-8.567,3.993-.605-.16-1.232-.24-1.87-.361a23.381,23.381,0,0,1-1.705,3.016c-2.28,2.915-2.279,5.791-.741,9.144a70.97,70.97,0,0,1,4.22,11.815,12.13,12.13,0,0,1-.542,6.18c-.573,1.888-1.888,3.551-3.121,5.747,6.969,0,13.252.006,19.534-.007.757,0,1.514-.1,2.707-.188M35.577,49.577c3.682-.1,5.294-1.685,6.017-4.259.746-2.654,1.244-5.38,2.045-8.016,1.522-5,4.52-7.219,9.746-7.314,3.313-.06,6.631.084,9.942-.036a25.531,25.531,0,0,1,18.45,6.868c2.727,2.417,5.389,4.914,8.223,7.2,3.633,2.93,7.829,3.712,12.61,2.83,0-4.111-.161-8.081.032-12.034.459-9.383-3.74-16.342-10.99-21.777A37.653,37.653,0,0,0,73.785,5.632c-8.226-1.076-16.182-.715-22.271,6.2a3.512,3.512,0,0,1-1.989,1.027c-7.84,1.134-11.5,6.513-12.468,13.528-1.037,7.5-1.014,15.137-1.481,23.195M69.135,161.293c4.194.534,5.911-1.813,7.874-4.877,2.189-3.42,2.753-6.424.911-10.043A53.975,53.975,0,0,1,75.6,140.2c-2.126-5.866-2.13-5.964-8.2-5.543a4.208,4.208,0,0,0-2.974,2.106c-1.575,3.624-2.476,7.557-4.211,11.09-2.512,5.112,1.612,8.012,3.58,11.456.723,1.265,3.5,1.356,5.338,1.982M51.35,93.215c-1.323,4.919-.088,7.915,4.372,9.894a87.773,87.773,0,0,1,11.425,6.675,3.622,3.622,0,0,0,4.469-.039c4.019-2.522,8.151-4.865,12.237-7.281,4.39-2.6,4.876-3.882,3.277-9.243-11.816,8.138-23.743,7.968-35.78-.006m13.079,20.712c-5.389-3.182-10.345-6.24-15.454-9.015-1.048-.57-2.671-.083-4.342-.083,2.108,5.01,3.967,9.357,5.762,13.731.69,1.682,1.587,2.66,3.467,1.561,3.406-1.992,6.81-3.991,10.566-6.193m9.862-.005c3.823,2.245,7.216,4.26,10.634,6.233,1.406.812,2.47.536,3.138-1.077,1.919-4.631,3.89-9.241,6.2-14.71-2.129.282-3.733.087-4.883.718-4.911,2.7-9.689,5.642-15.09,8.835m-13.5,7.98c2.265,3.847,2.93,8.249,9.378,7.882,5.848-.332,5.165-5.051,7.961-7.729-2.814-1.683-5.228-3.2-7.727-4.563a2.532,2.532,0,0,0-2.077,0c-2.509,1.358-4.935,2.872-7.536,4.415M30.864,48.321c-1.9.692-4,.8-4.557,1.782-1.884,3.344.591,8.33,4.557,9.8ZM107.831,60.1c4.156-2.315,6.083-6.2,4.526-9.777-.438-1-2.664-1.228-4.526-2Z" transform="translate(1474.338 1223.191)" fill="#0c8f5a"/>
    <path id="Trazado_454" data-name="Trazado 454" d="M189.887,126.168c1.774-4.776-2.049-8.018-4.78-11.671-3.7-4.955-3.314-6.73,2.75-8.13a18.357,18.357,0,0,0,12.485-9.128c3.031-5.128,5.439-5.191,8.315-.141,3.025,5.311,7.3,8.027,13.077,9.391,5.393,1.274,6.151,3.461,2.5,7.543a19.044,19.044,0,0,0-5.106,15.6c.548,5.417-1.459,6.876-6.452,4.621-5.644-2.55-10.921-2.7-16.366.131a7.366,7.366,0,0,1-2.2.689c-2.562.412-4.075-.648-4.21-3.306-.084-1.65-.015-3.308-.015-5.6m5.015,3.356c6.563-3.64,12.837-3.377,19.4.312,0-4.1-.726-7.511.2-10.388.951-2.948,3.521-5.375,5.859-8.708-7.843-.33-12.525-4.573-15.974-11.682-2.993,7.695-8.24,11.023-16.209,11.964,6.172,5.249,8.059,11.14,6.722,18.5" transform="translate(1412.759 1191.73)" fill="#0c8f5a"/>
    <path id="Trazado_455" data-name="Trazado 455" d="M80.657,77.756a35.392,35.392,0,0,1,5.909,1.734,3.135,3.135,0,0,1,1.2,2.846A3.532,3.532,0,0,1,85.042,83.9a52.4,52.4,0,0,1-8.33-.239c-.987-.109-2.44-.953-2.653-1.739a3.251,3.251,0,0,1,1.433-2.79,24.551,24.551,0,0,1,5.165-1.377" transform="translate(1449.391 1196.987)" fill="#0c8f5a"/>
    <path id="Trazado_456" data-name="Trazado 456" d="M119.3,77.775c1.8.421,3.642.533,5.124,1.325a3.726,3.726,0,0,1,1.445,3.058c-.054.593-1.738,1.371-2.751,1.478a52.935,52.935,0,0,1-8.012.257c-1.014-.047-2.734-.8-2.816-1.407a3.64,3.64,0,0,1,1.367-3.085,28,28,0,0,1,5.643-1.626" transform="translate(1436.502 1196.98)" fill="#0c8f5a"/>
    <path id="Trazado_457" data-name="Trazado 457" d="M101.663,126.056c-2.2-1.073-4.293-1.784-5.954-3.058-.662-.508-.752-2.418-.356-3.383.211-.512,2.375-.885,3.042-.426,2.266,1.559,4.14,1.412,6.375-.047a3.114,3.114,0,0,1,3.033.586,3.161,3.161,0,0,1-.281,3.113,39.677,39.677,0,0,1-5.86,3.215" transform="translate(1442.283 1183.102)" fill="#0c8f5a"/>
    <path id="Trazado_458" data-name="Trazado 458" d="M124.251,95.354l-3.727,3.359c-.855-1.168-2.3-2.3-2.38-3.514-.066-1.009,1.481-2.123,2.313-3.19l3.794,3.345" transform="translate(1434.523 1192.183)" fill="#0c8f5a"/>
    <path id="Trazado_459" data-name="Trazado 459" d="M87.66,95.38c-1.593,1.5-2.505,3.087-3.572,3.2-2.125.222-2.865-1.689-2.389-3.41.329-1.188,1.622-2.109,2.485-3.15L87.66,95.38" transform="translate(1446.851 1192.18)" fill="#0c8f5a"/>
  </g>
</svg>
