<svg xmlns="http://www.w3.org/2000/svg" width="148.917" height="149.014" viewBox="0 0 148.917 149.014">
  <g id="icono12" transform="translate(-1434.601 -2191.985)">
    <path id="Trazado_463" data-name="Trazado 463" d="M86.739,50.119l41.3-41.365c-1.688,0-3.586.055-5.481-.013-2.907-.1-4.748-1.875-4.706-4.423C117.9,1.789,119.763.068,122.7.041c5.522-.051,11.046-.059,16.568,0,2.874.033,4.589,1.606,4.647,4.466q.171,8.573,0,17.152A4.266,4.266,0,0,1,139.6,26.18c-2.414,0-4.164-1.76-4.322-4.525-.108-1.9-.02-3.814-.02-6.553-1.387,1.3-2.21,2.035-2.988,2.813q-20.255,20.242-40.5,40.491c-3.67,3.668-5.322,3.681-8.952.048-4.239-4.242-8.456-8.5-12.894-12.971-.917.874-1.678,1.57-2.407,2.3Q53.528,61.755,39.549,75.732A16,16,0,0,1,37.416,77.7a3.982,3.982,0,0,1-5.535-.492,4.08,4.08,0,0,1-.412-5.562,13.585,13.585,0,0,1,1.767-1.921Q49.262,53.679,65.3,37.647c3.682-3.681,5.34-3.7,8.952-.087,4.241,4.242,8.461,8.506,12.488,12.559" transform="translate(1421.804 2191.986)" fill="#7aa0dd"/>
    <rect id="Rectángulo_235" data-name="Rectángulo 235" width="43.267" height="10.202" transform="translate(1487.45 2311.391)" fill="#7aa0dd"/>
    <rect id="Rectángulo_236" data-name="Rectángulo 236" width="43.206" height="10.135" transform="translate(1540.072 2273.01)" fill="#7aa0dd"/>
    <rect id="Rectángulo_237" data-name="Rectángulo 237" width="43.237" height="10.111" transform="translate(1540.029 2292.217)" fill="#7aa0dd"/>
    <rect id="Rectángulo_238" data-name="Rectángulo 238" width="43.237" height="10.126" transform="translate(1540.036 2311.405)" fill="#7aa0dd"/>
    <path id="Trazado_464" data-name="Trazado 464" d="M134.094,182.529H90.454c.2-2.7.021-5.479.763-7.985.323-1.091,2.521-2.285,3.886-2.307,11.517-.181,23.038-.134,34.557-.078a4.1,4.1,0,0,1,4.4,4.1c.167,2,.033,4.023.033,6.27" transform="translate(1396.734 2119.935)" fill="#7aa0dd"/>
    <path id="Trazado_465" data-name="Trazado 465" d="M90.675,238.411h43.467c0,2.14.149,4.253-.039,6.335a3.994,3.994,0,0,1-4.217,3.96q-17.426.1-34.853.012a4.01,4.01,0,0,1-4.314-3.853,64.227,64.227,0,0,1-.044-6.453" transform="translate(1396.669 2092.178)" fill="#7aa0dd"/>
    <path id="Trazado_466" data-name="Trazado 466" d="M224.7,116.393H181.473c-.155-.294-.31-.453-.317-.62-.385-8.45-.195-10,9.279-9.774,9.3.221,18.606.044,27.909.051,5.1,0,6.35,1.254,6.358,6.323,0,1.249,0,2.5,0,4.02" transform="translate(1358.807 2147.619)" fill="#7aa0dd"/>
    <path id="Trazado_467" data-name="Trazado 467" d="M43.651,215.507H.063c0-2.207-.167-4.324.043-6.4a4.044,4.044,0,0,1,4.289-3.911q17.443-.1,34.888,0c2.678.019,4.176,1.749,4.347,4.489.066,1.063.019,2.132.021,3.2,0,.767,0,1.534,0,2.621" transform="translate(1434.602 2106.106)" fill="#7aa0dd"/>
    <path id="Trazado_468" data-name="Trazado 468" d="M.044,238.412H43.29c.151.3.3.464.3.632.365,8.344.256,9.993-9.249,9.757-9.37-.233-18.75-.047-28.125-.052-4.849,0-6.165-1.328-6.175-6.182,0-1.329,0-2.658,0-4.155" transform="translate(1434.583 2092.177)" fill="#7aa0dd"/>
    <path id="Trazado_469" data-name="Trazado 469" d="M181.1,238.4h43.529a48.232,48.232,0,0,1-.069,6.775,4.014,4.014,0,0,1-4.3,3.543c-11.6.033-23.2.055-34.8-.018-2.639-.017-4.208-1.76-4.346-4.465-.094-1.828-.018-3.665-.018-5.835" transform="translate(1358.799 2092.182)" fill="#7aa0dd"/>
  </g>
</svg>
