<svg xmlns="http://www.w3.org/2000/svg" width="151.279" height="151.281" viewBox="0 0 151.279 151.281">
  <g id="persona-circulo" transform="translate(-381.577 -122.224)">
    <path id="Trazado_175" data-name="Trazado 175" d="M151.279,75.639A75.64,75.64,0,1,1,75.639,0a75.64,75.64,0,0,1,75.64,75.64" transform="translate(381.577 122.225)" fill="#7aa0dd"/>
    <path id="Trazado_176" data-name="Trazado 176" d="M37.747,46.971,37.011,106.3c-.125,10.088,1.751,24.932,17.711,24.4C68.533,129.2,72.2,116.121,72.3,106.706c.05-4.467.1-8.19.138-8.648,0,0,15.118-1.234,16.4-16.168.617-7.217.676-22.184.574-35.725A27.916,27.916,0,0,0,63.52,18.549l-1.443-.105c-15.617-.228-24.535,12.909-24.33,28.527" transform="translate(397.909 130.365)" fill="#ffc09d"/>
    <path id="Trazado_177" data-name="Trazado 177" d="M67.422,75.875A36.2,36.2,0,0,1,48.38,68.7s3.951,11.264,18.964,11.008Z" transform="translate(402.929 152.546)" fill="#ff9b6c"/>
    <path id="Trazado_178" data-name="Trazado 178" d="M58.464,42.73c-.3.3-2.021-1.087-4.523-1.153-2.5-.105-4.372,1.16-4.634.839-.13-.144.18-.7,1-1.268a6.258,6.258,0,0,1,3.719-1.055,6.038,6.038,0,0,1,3.59,1.306c.752.627,1,1.2.852,1.332" transform="translate(403.325 139.919)" fill="#1a2e35"/>
    <path id="Trazado_179" data-name="Trazado 179" d="M57.841,46.716a2.025,2.025,0,0,1-2.1,1.9A1.938,1.938,0,0,1,53.8,46.638a2.027,2.027,0,0,1,2.094-1.9,1.938,1.938,0,0,1,1.95,1.975" transform="translate(405.319 141.972)" fill="#1a2e35"/>
    <path id="Trazado_180" data-name="Trazado 180" d="M60,59.88a15.21,15.21,0,0,1,3.778-.4c.591-.017,1.155-.094,1.283-.487a2.992,2.992,0,0,0-.264-1.767q-.672-2.188-1.41-4.592c-1.944-6.535-3.305-11.891-3.043-11.968s2.055,5.159,4,11.694c.466,1.611.911,3.146,1.333,4.615a3.405,3.405,0,0,1,.135,2.323,1.469,1.469,0,0,1-1.026.787,3.94,3.94,0,0,1-1.006.066A14.947,14.947,0,0,1,60,59.88" transform="translate(408.057 140.173)" fill="#1a2e35"/>
    <path id="Trazado_181" data-name="Trazado 181" d="M57.764,35.11c-.242.555-2.244.137-4.643.261-2.4.072-4.37.651-4.648.118-.123-.255.251-.767,1.065-1.261a7.575,7.575,0,0,1,3.511-.989,7.493,7.493,0,0,1,3.567.7c.846.427,1.253.907,1.147,1.17" transform="translate(402.96 136.893)" fill="#1a2e35"/>
    <path id="Trazado_182" data-name="Trazado 182" d="M74.209,37.729c-.262.453-2.215-.05-4.581-.123-2.367-.115-4.33.229-4.579-.244-.11-.225.28-.63,1.1-.99a8.282,8.282,0,0,1,3.5-.578,8.51,8.51,0,0,1,3.479.858c.814.424,1.192.86,1.077,1.077" transform="translate(410.278 138.021)" fill="#1a2e35"/>
    <path id="Trazado_183" data-name="Trazado 183" d="M41.015,46.2c-.246-.13-10.049-3.788-10.469,6.456s9.95,8.55,9.98,8.257.489-14.713.489-14.713" transform="translate(395.053 142.29)" fill="#ffc09d"/>
    <path id="Trazado_184" data-name="Trazado 184" d="M36.761,55.908c-.043-.035-.183.118-.49.244a1.788,1.788,0,0,1-1.336-.027c-1.065-.441-1.905-2.2-1.881-4.044a5.9,5.9,0,0,1,.605-2.534,2.065,2.065,0,0,1,1.4-1.316.911.911,0,0,1,1.033.533c.125.291.052.493.105.513.027.027.226-.163.161-.59a1.142,1.142,0,0,0-.376-.657,1.345,1.345,0,0,0-.976-.3,2.508,2.508,0,0,0-1.93,1.512,6.053,6.053,0,0,0-.735,2.829c-.019,2.067.958,4.042,2.421,4.53a1.917,1.917,0,0,0,1.643-.2c.327-.241.391-.467.356-.487" transform="translate(395.85 143.289)" fill="#ff9b6c"/>
    <path id="Trazado_185" data-name="Trazado 185" d="M59.983,60.936c.112-.258-1.9-.859-3.305-2.741A11.469,11.469,0,0,1,55.26,55.52c-.3-.744-.525-1.211-.636-1.176s-.078.536.086,1.345a7.579,7.579,0,0,0,1.317,3,6.126,6.126,0,0,0,2.617,2c.781.317,1.31.337,1.338.249" transform="translate(405.657 146.209)" fill="#1a2e35"/>
    <path id="Trazado_186" data-name="Trazado 186" d="M113.282,35.511a2.424,2.424,0,0,0-1.136-1.413,7.447,7.447,0,0,0-3.818-.62A21.568,21.568,0,0,1,97.1,30.066a50.317,50.317,0,0,0-5.226-6.335c-4.527-4.667-8.252-7.844-12.1-9.395-4.983-2.006-13.318-2.819-18.513-1.456s-9.863,5.579-10.585,10.9c-2.914-2.463-7.29-2.443-10.839-1.016l-.088-.039c-3.954,1.41-6.2,5.585-7.365,9.615s-1.663,8.341-3.8,11.955c-.447.755-.976,1.66-.587,2.446a1.668,1.668,0,0,0,1.745.761,4.893,4.893,0,0,0,1.839-.833q-.662,1.583-1.322,3.167a9.344,9.344,0,0,0,4.3-.287A91.626,91.626,0,0,0,37.365,60.18c1.653,0,3.165.114,4.184,1.029,1.384,1.245,2,3.588,4.3,2.7,1.17-.453,2.238-2.909,2.63-4.1a58.28,58.28,0,0,0,2.524-24.672,18.739,18.739,0,0,1,5.786-4.174l-.177.159c4.174-1.45,8.895-2.875,12.855-.917,3.072,1.521,4.876,4.707,7.174,7.251a23.448,23.448,0,0,0,16.711,7.718c.221,4.206-.133,10.149.088,14.354l3.539-6.737,0,.035c.29-.493.529-.99.76-1.489l.079-.151v-.019a26.668,26.668,0,0,1,1.183-2.393c.013.013.027.025.04.036a2.626,2.626,0,0,0,3.838-3.513,5.928,5.928,0,0,0-1.27-1.277,4.152,4.152,0,0,0,3.959,1.026,3.261,3.261,0,0,0,2.306-3.224,2.774,2.774,0,0,0-1.653-2.225,9.353,9.353,0,0,0,5.327-1.173c1.052-.6,2.084-1.587,1.727-2.91" transform="translate(393.871 127.613)" fill="#1a2e35"/>
    <path id="Trazado_187" data-name="Trazado 187" d="M53.657,21.427a12.957,12.957,0,0,0-1.5,1.372,10.711,10.711,0,0,0-2.293,4.96,18.8,18.8,0,0,0-.381,3.8c-.007,1.378.1,2.851.209,4.4a39.317,39.317,0,0,1,.112,4.9,17.323,17.323,0,0,1-.337,2.584,5.366,5.366,0,0,1-1.054,2.505,2.257,2.257,0,0,1-2.109.711,3.36,3.36,0,0,1-1.9-1.072,7.745,7.745,0,0,1-1.44-3.8l.314.037a12.482,12.482,0,0,1-1.818,3.129,4.452,4.452,0,0,1-2.906,1.584,2.866,2.866,0,0,1-1.541-.27,2.5,2.5,0,0,1-1.046-1.031,2.567,2.567,0,0,1-.317-1.326,1.849,1.849,0,0,1,.48-1.162l.159.143a9.651,9.651,0,0,1-3.21,2.408,9.523,9.523,0,0,1-.995.386,1.689,1.689,0,0,1-.356.086,2.054,2.054,0,0,1,.337-.144c.222-.089.552-.222.964-.431a9.939,9.939,0,0,0,3.1-2.445l.159.143a1.914,1.914,0,0,0-.1,2.22,2.237,2.237,0,0,0,.946.911,2.585,2.585,0,0,0,1.4.226,4.152,4.152,0,0,0,2.7-1.5,12.314,12.314,0,0,0,1.751-3.063l.215-.479.1.516a7.5,7.5,0,0,0,1.371,3.632,3.012,3.012,0,0,0,1.7.957,1.894,1.894,0,0,0,1.792-.6,5.089,5.089,0,0,0,.974-2.345,17.182,17.182,0,0,0,.334-2.531,40,40,0,0,0-.092-4.859c-.1-1.549-.2-3.03-.177-4.425a18.617,18.617,0,0,1,.43-3.844,10.583,10.583,0,0,1,2.433-5,6.088,6.088,0,0,1,1.6-1.28" transform="translate(395.582 131.683)" fill="#375a64"/>
    <path id="Trazado_188" data-name="Trazado 188" d="M93,38.531a.608.608,0,0,1-.12.1l-.373.272a5.1,5.1,0,0,1-.633.405,7.8,7.8,0,0,1-.909.479,13.231,13.231,0,0,1-6.394,1.15,16.922,16.922,0,0,1-9.016-3.33,29.311,29.311,0,0,1-7.746-8.928c-1.087-1.809-1.972-3.662-2.949-5.376a19.812,19.812,0,0,0-3.338-4.547,10.2,10.2,0,0,0-4.3-2.612,7.293,7.293,0,0,0-2.27-.262,8.066,8.066,0,0,0-2.078.4,8.642,8.642,0,0,0-4.8,4.062,10.279,10.279,0,0,0-.771,2.24.441.441,0,0,1,.012-.156c.019-.124.042-.274.071-.457a7.436,7.436,0,0,1,.566-1.688,8.475,8.475,0,0,1,1.673-2.267,8.749,8.749,0,0,1,3.168-1.967,8.257,8.257,0,0,1,2.145-.434,7.5,7.5,0,0,1,2.361.251,10.44,10.44,0,0,1,4.452,2.661,19.977,19.977,0,0,1,3.412,4.609c.987,1.725,1.874,3.575,2.95,5.368a29.361,29.361,0,0,0,7.635,8.846,16.827,16.827,0,0,0,8.843,3.342,13.429,13.429,0,0,0,6.322-1.028A21.1,21.1,0,0,0,93,38.531" transform="translate(402.451 129.115)" fill="#375a64"/>
    <path id="Trazado_189" data-name="Trazado 189" d="M84.8,26.959a2.46,2.46,0,0,1-.538.373,11.573,11.573,0,0,1-1.584.806,15.538,15.538,0,0,1-2.514.824,16.218,16.218,0,0,1-6.446.206,15.437,15.437,0,0,1-2.56-.662,11.48,11.48,0,0,1-1.633-.7,2.317,2.317,0,0,1-.559-.337c.029-.059.853.365,2.27.806a17.672,17.672,0,0,0,2.534.579,17.457,17.457,0,0,0,6.325-.2,17.669,17.669,0,0,0,2.489-.739c1.385-.53,2.181-1.008,2.215-.95" transform="translate(412.014 134.122)" fill="#375a64"/>
    <path id="Trazado_190" data-name="Trazado 190" d="M74.289,42.73c-.3.3-2.021-1.087-4.524-1.153-2.5-.1-4.369,1.16-4.632.837-.13-.143.18-.695,1-1.267a6.258,6.258,0,0,1,3.719-1.055,6.044,6.044,0,0,1,3.59,1.306c.752.627,1,1.2.852,1.332" transform="translate(410.31 139.919)" fill="#1a2e35"/>
    <path id="Trazado_191" data-name="Trazado 191" d="M72.348,46.715a2.026,2.026,0,0,1-2.1,1.9,1.936,1.936,0,0,1-1.947-1.973,2.023,2.023,0,0,1,2.093-1.9,1.936,1.936,0,0,1,1.95,1.973" transform="translate(411.722 141.972)" fill="#1a2e35"/>
    <path id="Trazado_192" data-name="Trazado 192" d="M92.2,87.51,74.98,80.756l-31.725-1.8L28.342,84.63,48.776,95.976l17.619-.646Z" transform="translate(394.085 157.074)" fill="#ffc09d"/>
    <path id="Trazado_193" data-name="Trazado 193" d="M69.494,116.431A75.359,75.359,0,0,0,120.76,96.392a67.07,67.07,0,0,0-9.428-4.385L89.649,83.693S86.41,87.19,70.9,87.421c-15.865.235-24.209-8.461-24.209-8.461-7.927,2.551-23.464,7.893-23.464,7.893a24.572,24.572,0,0,0-9.3,5.239,75.426,75.426,0,0,0,55.568,24.339" transform="translate(387.723 157.075)" fill="#002f87"/>
    <path id="Trazado_194" data-name="Trazado 194" d="M64.8,114.557l9.929-14.392a25.869,25.869,0,0,0,4.23-1.312c1.126-.659,2.233-6.375,2.21-7.491S83.1,87.638,82.307,86.9s-3.451-.79-3.306-1.862c.03-.229,1.973-2.613.432-4.364a8.231,8.231,0,0,0-2.8-1.189L76.794,74s-2.966-6.485-6-4.137c0,0-11.428,8.779-12.58,10.182s-5.548,19.684-6.328,23.115" transform="translate(404.478 152.833)" fill="#ffc09d"/>
    <path id="Trazado_195" data-name="Trazado 195" d="M51.891,103.258a5.1,5.1,0,0,1,.153-.969c.148-.695.344-1.609.588-2.75.535-2.383,1.335-5.829,2.417-10.075.548-2.122,1.152-4.445,1.913-6.923.2-.618.4-1.245.66-1.882A4.241,4.241,0,0,1,58.969,79c1.041-.917,2.136-1.815,3.266-2.731C64.5,74.441,66.9,72.553,69.4,70.607a8.365,8.365,0,0,1,2.091-1.381,2.863,2.863,0,0,1,2.577.613,11.77,11.77,0,0,1,3.046,4.114l.035.068,0,.088c-.016.532-.032,1.106-.049,1.681-.037,1.286-.075,2.558-.112,3.811l-.267-.35a13.172,13.172,0,0,1,2.014.677,2.937,2.937,0,0,1,.976.637,2.768,2.768,0,0,1,.553,1.015,3.409,3.409,0,0,1-.174,2.185,6.531,6.531,0,0,1-.448.944l-.252.431-.052.091c.013-.016,0-.058.01-.02a.159.159,0,0,0,.016.094c.029.124.3.293.565.4s.581.206.886.3.621.186.938.31a1.85,1.85,0,0,1,.953.67,1.572,1.572,0,0,1,.026,1.169,7.312,7.312,0,0,1-.336.922c-.248.582-.525,1.133-.728,1.676a2.283,2.283,0,0,0-.173.771,8.113,8.113,0,0,1-.089.937c-.086.6-.2,1.183-.317,1.758a23.22,23.22,0,0,1-.933,3.319,4.179,4.179,0,0,1-.872,1.529,5.081,5.081,0,0,1-1.548.68c-1.007.313-1.986.558-2.94.78l.159-.108c-3.064,4.357-5.568,7.914-7.354,10.453q-1.278,1.773-2.04,2.829a7.093,7.093,0,0,1-.755.958,7.442,7.442,0,0,1,.628-1.046l1.921-2.912c1.738-2.568,4.176-6.173,7.161-10.584l.056-.084.1-.026c.937-.229,1.911-.486,2.888-.8a4.9,4.9,0,0,0,1.338-.579,3.861,3.861,0,0,0,.7-1.3,23.206,23.206,0,0,0,.879-3.233c.112-.565.216-1.139.3-1.718a7.231,7.231,0,0,0,.078-.85,2.992,2.992,0,0,1,.206-.993c.222-.6.5-1.15.732-1.712a6.716,6.716,0,0,0,.3-.836,1.012,1.012,0,0,0,.029-.676,1.461,1.461,0,0,0-.61-.363c-.278-.11-.582-.2-.891-.29s-.627-.186-.953-.32a1.593,1.593,0,0,1-.937-.771.821.821,0,0,1-.066-.385.543.543,0,0,1,.063-.257l.069-.124.246-.424a6,6,0,0,0,.4-.85,2.731,2.731,0,0,0,.151-1.747,2.043,2.043,0,0,0-.412-.752,2.393,2.393,0,0,0-.735-.455,12.719,12.719,0,0,0-1.9-.634l-.275-.072.009-.28c.036-1.253.074-2.527.11-3.811.017-.575.035-1.149.05-1.681l.032.157A11.217,11.217,0,0,0,73.651,70.4a2.17,2.17,0,0,0-1.956-.507,8.215,8.215,0,0,0-1.874,1.26c-2.508,1.936-4.916,3.811-7.182,5.623-1.133.907-2.234,1.8-3.265,2.69a3.661,3.661,0,0,0-1.206,1.433c-.252.594-.454,1.218-.659,1.823-.778,2.446-1.41,4.762-1.986,6.872-1.1,4.178-1.991,7.579-2.63,10.013-.3,1.129-.533,2.032-.713,2.718a5.282,5.282,0,0,1-.288.937" transform="translate(404.476 152.732)" fill="#ff9b6c"/>
    <path id="Trazado_196" data-name="Trazado 196" d="M74.585,76.476c0,.121-1.16.029-2.962.2a21.194,21.194,0,0,0-3.125.713,14.338,14.338,0,0,1-4.042.035,7.628,7.628,0,0,0-6.366,2.065,8.212,8.212,0,0,0-1.536,2.445,3.77,3.77,0,0,1,1.172-2.785,7.409,7.409,0,0,1,2.733-1.918,8.314,8.314,0,0,1,4.046-.509,15.485,15.485,0,0,0,3.866.032,17.239,17.239,0,0,1,3.214-.575,7.884,7.884,0,0,1,3,.294" transform="translate(406.525 155.846)" fill="#ff9b6c"/>
    <path id="Trazado_197" data-name="Trazado 197" d="M66.427,77.093c-.169.086-.63-.582-.571-1.531s.592-1.558.75-1.451c.173.1-.009.728-.046,1.493-.053.764.052,1.411-.133,1.489" transform="translate(410.64 154.929)" fill="#ff9b6c"/>
    <path id="Trazado_198" data-name="Trazado 198" d="M75.531,80.931c.01.18-3.91.349-8.608-.675a8.548,8.548,0,0,0-3.164-.4,3.438,3.438,0,0,0-2.05,1.352,20.169,20.169,0,0,0-1.13,2.184,3.839,3.839,0,0,1,.721-2.468,3.79,3.79,0,0,1,2.329-1.7,8.3,8.3,0,0,1,3.442.347c4.612,1.008,8.466,1.155,8.459,1.364" transform="translate(408.3 157.152)" fill="#ff9b6c"/>
    <path id="Trazado_199" data-name="Trazado 199" d="M75.888,84.566a4.625,4.625,0,0,1-2.116.01c-1.3-.144-3.044-.592-4.948-.966a11.183,11.183,0,0,0-2.664-.267,3.2,3.2,0,0,0-1.918.693,3.061,3.061,0,0,0-.935,1.679c-.04.007-.138-.192-.118-.582a2.4,2.4,0,0,1,.713-1.46,3.5,3.5,0,0,1,2.2-.976,10.108,10.108,0,0,1,2.85.221c1.959.385,3.654.9,4.9,1.167a10.123,10.123,0,0,1,2.031.48" transform="translate(409.463 158.71)" fill="#ff9b6c"/>
    <path id="Trazado_200" data-name="Trazado 200" d="M70.652,86.85c.12.089-.849,1.106-2.632,1.1l.352-.3c-.036.313-.069.613-.105.92-.258,2.034-.623,3.657-.816,3.628s-.14-1.689.117-3.709c.042-.306.084-.6.127-.912l.045-.323.307.019a12.152,12.152,0,0,0,2.606-.419" transform="translate(411.295 160.547)" fill="#ff9b6c"/>
    <path id="Trazado_201" data-name="Trazado 201" d="M45.841,109.7a74.677,74.677,0,0,0,20.476-.17c1.107-3.929,1.782-6.369,1.782-6.369L54.557,92.805Z" transform="translate(401.808 163.185)" fill="#ffc09d"/>
  </g>
</svg>
