<svg xmlns="http://www.w3.org/2000/svg" xmlns:xlink="http://www.w3.org/1999/xlink" width="236.582" height="284.823" viewBox="0 0 236.582 284.823">
  <defs>
    <clipPath id="clip-path">
      <rect id="Rectángulo_116" data-name="Rectángulo 116" width="236.582" height="284.823" fill="none"/>
    </clipPath>
    <clipPath id="clip-path-2">
      <rect id="Rectángulo_115" data-name="Rectángulo 115" width="236.582" height="284.822" fill="none"/>
    </clipPath>
    <clipPath id="clip-path-3">
      <rect id="Rectángulo_111" data-name="Rectángulo 111" width="44.411" height="91.221" fill="none"/>
    </clipPath>
  </defs>
  <g id="Grupo_69" data-name="Grupo 69" transform="translate(0)">
    <g id="Grupo_68" data-name="Grupo 68" transform="translate(0)">
      <g id="Grupo_67" data-name="Grupo 67" clip-path="url(#clip-path)">
        <rect id="Rectángulo_94" data-name="Rectángulo 94" width="236.582" height="60.717" transform="translate(0 0.001)" fill="#405f79"/>
        <path id="Trazado_311" data-name="Trazado 311" d="M0,58.285v2.489H236.582V58.285Z" transform="translate(0 2.433)" fill="#809fa3"/>
        <g id="Grupo_66" data-name="Grupo 66" transform="translate(0 0.001)">
          <g id="Grupo_65" data-name="Grupo 65" clip-path="url(#clip-path-2)">
            <path id="Trazado_312" data-name="Trazado 312" d="M115.7,91.021a53.513,53.513,0,1,0,53.512,53.513A53.513,53.513,0,0,0,115.7,91.021" transform="translate(2.596 3.798)" fill="#405f79"/>
            <path id="Trazado_313" data-name="Trazado 313" d="M172.633,89.645a78.837,78.837,0,1,0,16.945,25.134,78.818,78.818,0,0,0-16.945-25.134M116.72,221.078a75.519,75.519,0,1,1,75.518-75.519,75.6,75.6,0,0,1-75.518,75.519" transform="translate(1.571 2.774)" fill="#405f79"/>
            <path id="Rectángulo_95" data-name="Rectángulo 95" d="M2.048,0H64.125a2.048,2.048,0,0,1,2.048,2.048V24.93a2.048,2.048,0,0,1-2.048,2.048H2.047A2.047,2.047,0,0,1,0,24.931V2.048A2.048,2.048,0,0,1,2.048,0Z" transform="translate(13.135 13.7)" fill="#303b51"/>
            <path id="Trazado_314" data-name="Trazado 314" d="M217.694,28.249a15.525,15.525,0,1,1-15.525-15.525,15.525,15.525,0,0,1,15.525,15.525" transform="translate(7.791 0.53)" fill="#466f7b"/>
            <path id="Trazado_315" data-name="Trazado 315" d="M202.216,44.976A16.68,16.68,0,1,1,218.9,28.3a16.7,16.7,0,0,1-16.679,16.68m0-31.05A14.37,14.37,0,1,0,216.585,28.3a14.386,14.386,0,0,0-14.369-14.37" transform="translate(7.745 0.484)" fill="#809fa3"/>
            <path id="Trazado_316" data-name="Trazado 316" d="M218.015,26.933h1.829a18.766,18.766,0,0,0-4.666-11.265l-1.294,1.294a16.877,16.877,0,0,1,4.131,9.972" transform="translate(8.928 0.653)" fill="#d22a2a"/>
            <path id="Trazado_317" data-name="Trazado 317" d="M189.451,16.962l-1.294-1.294a18.769,18.769,0,0,0-4.666,11.265h1.829a16.867,16.867,0,0,1,4.131-9.972" transform="translate(7.66 0.653)" fill="#4492ce"/>
            <path id="Trazado_318" data-name="Trazado 318" d="M212.665,15.53l1.294-1.294A18.772,18.772,0,0,0,202.692,9.57V11.4a16.87,16.87,0,0,1,9.973,4.131" transform="translate(8.461 0.398)" fill="#d22a2a"/>
            <path id="Trazado_319" data-name="Trazado 319" d="M200.854,11.4V9.569a18.767,18.767,0,0,0-11.265,4.667l1.293,1.293a16.881,16.881,0,0,1,9.973-4.131" transform="translate(7.914 0.398)" fill="#4492ce"/>
            <path id="Trazado_320" data-name="Trazado 320" d="M202.692,44.094v1.829a18.778,18.778,0,0,0,11.266-4.666l-1.294-1.294a16.87,16.87,0,0,1-9.973,4.131" transform="translate(8.461 1.667)" fill="#d22a2a"/>
            <path id="Trazado_321" data-name="Trazado 321" d="M185.319,28.771H183.49a18.766,18.766,0,0,0,4.666,11.265l1.294-1.294a16.865,16.865,0,0,1-4.131-9.972" transform="translate(7.66 1.2)" fill="#4492ce"/>
            <path id="Trazado_322" data-name="Trazado 322" d="M218.015,28.771a16.883,16.883,0,0,1-4.131,9.973l1.294,1.293a18.766,18.766,0,0,0,4.666-11.265Z" transform="translate(8.928 1.2)" fill="#d22a2a"/>
            <path id="Trazado_323" data-name="Trazado 323" d="M190.882,39.963l-1.293,1.294a18.772,18.772,0,0,0,11.265,4.666V44.094a16.867,16.867,0,0,1-9.973-4.131" transform="translate(7.914 1.667)" fill="#4492ce"/>
            <path id="Trazado_324" data-name="Trazado 324" d="M176.877,28.157a13.234,13.234,0,1,1-13.234-13.234,13.235,13.235,0,0,1,13.234,13.234" transform="translate(6.279 0.622)" fill="#466f7b"/>
            <path id="Trazado_325" data-name="Trazado 325" d="M163.689,42.594A14.39,14.39,0,1,1,178.078,28.2a14.408,14.408,0,0,1-14.39,14.392m0-26.471A12.079,12.079,0,1,0,175.768,28.2a12.093,12.093,0,0,0-12.079-12.079" transform="translate(6.232 0.576)" fill="#809fa3"/>
            <path id="Trazado_326" data-name="Trazado 326" d="M177.224,27.033h1.568a16.083,16.083,0,0,0-4-9.655l-1.108,1.108a14.458,14.458,0,0,1,3.54,8.546" transform="translate(7.25 0.724)" fill="#d22a2a"/>
            <path id="Trazado_327" data-name="Trazado 327" d="M152.745,18.486l-1.108-1.108a16.081,16.081,0,0,0-4,9.655H149.2a14.455,14.455,0,0,1,3.54-8.546" transform="translate(6.163 0.724)" fill="#4492ce"/>
            <path id="Trazado_328" data-name="Trazado 328" d="M172.639,17.26l1.108-1.108a16.081,16.081,0,0,0-9.655-4V13.72a14.458,14.458,0,0,1,8.546,3.54" transform="translate(6.85 0.506)" fill="#d22a2a"/>
            <path id="Trazado_329" data-name="Trazado 329" d="M162.518,13.72V12.152a16.081,16.081,0,0,0-9.655,4l1.108,1.108a14.465,14.465,0,0,1,8.546-3.54" transform="translate(6.381 0.506)" fill="#4492ce"/>
            <path id="Trazado_330" data-name="Trazado 330" d="M164.093,41.739v1.568a16.083,16.083,0,0,0,9.655-4L172.639,38.2a14.465,14.465,0,0,1-8.546,3.54" transform="translate(6.85 1.594)" fill="#d22a2a"/>
            <path id="Trazado_331" data-name="Trazado 331" d="M149.2,28.607h-1.568a16.081,16.081,0,0,0,4,9.656l1.108-1.108a14.462,14.462,0,0,1-3.54-8.548" transform="translate(6.163 1.193)" fill="#4492ce"/>
            <path id="Trazado_332" data-name="Trazado 332" d="M177.224,28.607a14.456,14.456,0,0,1-3.54,8.548l1.108,1.108a16.081,16.081,0,0,0,4-9.656Z" transform="translate(7.25 1.193)" fill="#d22a2a"/>
            <path id="Trazado_333" data-name="Trazado 333" d="M153.971,38.2l-1.108,1.108a16.081,16.081,0,0,0,9.655,4V41.739a14.455,14.455,0,0,1-8.546-3.54" transform="translate(6.381 1.594)" fill="#4492ce"/>
            <path id="Trazado_334" data-name="Trazado 334" d="M98.414,24.657c0,2.926-1.463,5.3-3.267,5.3s-3.267-2.371-3.267-5.3,1.463-5.3,3.267-5.3,3.267,2.371,3.267,5.3" transform="translate(3.835 0.807)" fill="#303b51"/>
            <path id="Trazado_335" data-name="Trazado 335" d="M98.414,23.463c0,2.926-1.463,5.3-3.267,5.3s-3.267-2.371-3.267-5.3,1.463-5.3,3.267-5.3,3.267,2.371,3.267,5.3" transform="translate(3.835 0.757)" fill="#809fa3"/>
            <path id="Trazado_336" data-name="Trazado 336" d="M110.553,24.657c0,2.926-1.463,5.3-3.267,5.3s-3.267-2.371-3.267-5.3,1.463-5.3,3.267-5.3,3.267,2.371,3.267,5.3" transform="translate(4.342 0.807)" fill="#303b51"/>
            <path id="Trazado_337" data-name="Trazado 337" d="M110.553,23.463c0,2.926-1.463,5.3-3.267,5.3s-3.267-2.371-3.267-5.3,1.463-5.3,3.267-5.3,3.267,2.371,3.267,5.3" transform="translate(4.342 0.757)" fill="#809fa3"/>
            <path id="Trazado_338" data-name="Trazado 338" d="M122.692,24.657c0,2.926-1.463,5.3-3.267,5.3s-3.267-2.371-3.267-5.3,1.463-5.3,3.267-5.3,3.267,2.371,3.267,5.3" transform="translate(4.849 0.807)" fill="#303b51"/>
            <path id="Trazado_339" data-name="Trazado 339" d="M122.692,23.463c0,2.926-1.463,5.3-3.267,5.3s-3.267-2.371-3.267-5.3,1.463-5.3,3.267-5.3,3.267,2.371,3.267,5.3" transform="translate(4.849 0.757)" fill="#809fa3"/>
            <path id="Trazado_340" data-name="Trazado 340" d="M134.831,24.657c0,2.926-1.463,5.3-3.266,5.3s-3.268-2.371-3.268-5.3,1.463-5.3,3.268-5.3,3.266,2.371,3.266,5.3" transform="translate(5.356 0.807)" fill="#303b51"/>
            <path id="Trazado_341" data-name="Trazado 341" d="M134.831,23.463c0,2.926-1.463,5.3-3.266,5.3s-3.268-2.371-3.268-5.3,1.463-5.3,3.268-5.3,3.266,2.371,3.266,5.3" transform="translate(5.356 0.757)" fill="#809fa3"/>
            <rect id="Rectángulo_96" data-name="Rectángulo 96" width="5.048" height="1.718" transform="translate(85.02 37.192)" fill="#fffdfd"/>
            <rect id="Rectángulo_97" data-name="Rectángulo 97" width="5.048" height="1.718" transform="translate(91.102 37.192)" fill="#fffdfd"/>
            <rect id="Rectángulo_98" data-name="Rectángulo 98" width="5.048" height="1.718" transform="translate(97.183 37.192)" fill="#fffdfd"/>
            <rect id="Rectángulo_99" data-name="Rectángulo 99" width="5.048" height="1.718" transform="translate(103.264 37.192)" fill="#fffdfd"/>
            <rect id="Rectángulo_100" data-name="Rectángulo 100" width="5.048" height="1.718" transform="translate(109.346 37.192)" fill="#fffdfd"/>
            <rect id="Rectángulo_101" data-name="Rectángulo 101" width="5.048" height="1.718" transform="translate(115.427 37.192)" fill="#fffdfd"/>
            <rect id="Rectángulo_102" data-name="Rectángulo 102" width="5.048" height="1.718" transform="translate(121.508 37.192)" fill="#fffdfd"/>
            <rect id="Rectángulo_103" data-name="Rectángulo 103" width="5.048" height="1.718" transform="translate(127.59 37.192)" fill="#fffdfd"/>
            <rect id="Rectángulo_104" data-name="Rectángulo 104" width="5.048" height="1.718" transform="translate(133.671 37.192)" fill="#fffdfd"/>
            <rect id="Rectángulo_105" data-name="Rectángulo 105" width="5.048" height="1.718" transform="translate(139.753 37.192)" fill="#fffdfd"/>
            <rect id="Rectángulo_106" data-name="Rectángulo 106" width="5.048" height="1.718" transform="translate(145.834 37.192)" fill="#fffdfd"/>
            <path id="Trazado_342" data-name="Trazado 342" d="M62.378,202.225A79.483,79.483,0,0,1,87.512,72.986,78.824,78.824,0,0,1,174.2,89.993a79.268,79.268,0,0,1,12.376,16.083l47.852-45.4H0V282.29H.856l73.777-70a79.388,79.388,0,0,1-12.256-10.065" transform="translate(0 2.532)" fill="#fffdfd"/>
            <path id="Trazado_343" data-name="Trazado 343" d="M234.4,60.674l-47.854,45.4a79.485,79.485,0,0,1-37.511,113.155A78.777,78.777,0,0,1,74.6,212.29l-73.777,70H236.548V60.674Z" transform="translate(0.034 2.532)" fill="#e8e7e7"/>
            <path id="Trazado_344" data-name="Trazado 344" d="M116.577,69.9A75.519,75.519,0,1,0,192.1,145.416,75.6,75.6,0,0,0,116.577,69.9m0,129.031a53.513,53.513,0,1,1,53.512-53.512,53.513,53.513,0,0,1-53.512,53.512" transform="translate(1.714 2.917)" fill="#809fa3"/>
            <path id="Trazado_345" data-name="Trazado 345" d="M163.54,129.091a12.575,12.575,0,0,0-12.576,12.576v.678a12.576,12.576,0,0,0,12.576,12.577h24.651V129.091Z" transform="translate(6.302 5.388)" fill="#809fa3"/>
            <path id="Trazado_346" data-name="Trazado 346" d="M188.242,129.141v25.831H163.59A12.576,12.576,0,0,1,151.014,142.4v-.679a12.576,12.576,0,0,1,12.576-12.576Zm1.244-1.244h-25.9a13.835,13.835,0,0,0-13.82,13.82v.679a13.835,13.835,0,0,0,13.82,13.82h25.9V127.9Z" transform="translate(6.252 5.338)" fill="#405f79"/>
            <rect id="Rectángulo_107" data-name="Rectángulo 107" width="42.454" height="90.318" transform="translate(94.255 113.556) rotate(-1.248)" fill="#00cabc"/>
            <rect id="Rectángulo_108" data-name="Rectángulo 108" width="36.905" height="84.353" transform="translate(97.094 116.477) rotate(-1.248)" fill="#007e76"/>
            <rect id="Rectángulo_109" data-name="Rectángulo 109" width="30.245" height="75.196" transform="translate(100.523 120.982) rotate(-1.248)" fill="#00cabc"/>
            <path id="Trazado_347" data-name="Trazado 347" d="M125.359,183.514a3.954,3.954,0,1,0,4.039,3.867,3.954,3.954,0,0,0-4.039-3.867" transform="translate(5.071 7.659)" fill="#00cabc"/>
            <path id="Trazado_348" data-name="Trazado 348" d="M125.359,183.514a3.954,3.954,0,1,0,4.039,3.867A3.954,3.954,0,0,0,125.359,183.514Z" transform="translate(5.071 7.659)" fill="none" stroke="#007e76" stroke-miterlimit="10" stroke-width="0.833"/>
            <path id="Trazado_349" data-name="Trazado 349" d="M100.094,184.064a3.954,3.954,0,1,0,4.04,3.867,3.955,3.955,0,0,0-4.04-3.867" transform="translate(4.017 7.682)" fill="#00cabc"/>
            <path id="Trazado_350" data-name="Trazado 350" d="M100.094,184.064a3.954,3.954,0,1,0,4.04,3.867A3.955,3.955,0,0,0,100.094,184.064Z" transform="translate(4.017 7.682)" fill="none" stroke="#007e76" stroke-miterlimit="10" stroke-width="0.833"/>
            <path id="Trazado_351" data-name="Trazado 351" d="M123.811,112.465a3.954,3.954,0,1,0,4.039,3.867,3.954,3.954,0,0,0-4.039-3.867" transform="translate(5.007 4.694)" fill="#00cabc"/>
            <path id="Trazado_352" data-name="Trazado 352" d="M123.811,112.465a3.954,3.954,0,1,0,4.039,3.867A3.954,3.954,0,0,0,123.811,112.465Z" transform="translate(5.007 4.694)" fill="none" stroke="#007e76" stroke-miterlimit="10" stroke-width="0.833"/>
            <path id="Trazado_353" data-name="Trazado 353" d="M98.547,113.016a3.954,3.954,0,1,0,4.039,3.867,3.953,3.953,0,0,0-4.039-3.867" transform="translate(3.952 4.717)" fill="#00cabc"/>
            <path id="Trazado_354" data-name="Trazado 354" d="M98.547,113.016a3.954,3.954,0,1,0,4.039,3.867A3.953,3.953,0,0,0,98.547,113.016Z" transform="translate(3.952 4.717)" fill="none" stroke="#007e76" stroke-miterlimit="10" stroke-width="0.833"/>
            <path id="Trazado_355" data-name="Trazado 355" d="M112.162,140.581a11.793,11.793,0,1,0,12.047,11.533,11.792,11.792,0,0,0-12.047-11.533" transform="translate(4.201 5.867)" fill="#00978c"/>
            <path id="Trazado_356" data-name="Trazado 356" d="M115.1,148.3s3.377-.322,3.464,3.63-4.048,6.359-5.283,2.823-2.3-7.255-5.226-6.835-3.379,4.349-2.175,6.461a5,5,0,0,0,3.878,2.213" transform="translate(4.394 6.172)" fill="none" stroke="#007e76" stroke-miterlimit="10" stroke-width="0.833"/>
            <line id="Línea_2" data-name="Línea 2" x1="18.913" y2="0.413" transform="translate(106.843 158.142)" fill="none" stroke="#007e76" stroke-miterlimit="10" stroke-width="0.833"/>
            <path id="Trazado_357" data-name="Trazado 357" d="M112.549,171.864a4.26,4.26,0,1,0,4.35,4.166,4.26,4.26,0,0,0-4.35-4.166" transform="translate(4.524 7.173)" fill="#00978c"/>
            <path id="Trazado_358" data-name="Trazado 358" d="M111.5,123.685a4.26,4.26,0,1,0,4.351,4.166,4.26,4.26,0,0,0-4.351-4.166" transform="translate(4.48 5.162)" fill="#00978c"/>
            <path id="Trazado_359" data-name="Trazado 359" d="M113.608,174.652s1.22-.117,1.251,1.312-1.463,2.3-1.908,1.02-.829-2.621-1.888-2.469-1.221,1.571-.785,2.333a1.805,1.805,0,0,0,1.4.8" transform="translate(4.594 7.283)" fill="none" stroke="#007e76" stroke-miterlimit="10" stroke-width="0.301"/>
            <line id="Línea_3" data-name="Línea 3" x1="6.832" y2="0.149" transform="translate(113.634 183.261)" fill="none" stroke="#007e76" stroke-miterlimit="10" stroke-width="0.301"/>
            <path id="Trazado_360" data-name="Trazado 360" d="M112.559,126.473s1.22-.117,1.251,1.312-1.463,2.3-1.908,1.02-.829-2.621-1.888-2.469-1.221,1.571-.787,2.334a1.808,1.808,0,0,0,1.4.8" transform="translate(4.55 5.272)" fill="none" stroke="#007e76" stroke-miterlimit="10" stroke-width="0.301"/>
            <line id="Línea_4" data-name="Línea 4" x1="6.832" y2="0.149" transform="translate(112.541 133.072)" fill="none" stroke="#007e76" stroke-miterlimit="10" stroke-width="0.301"/>
            <path id="Trazado_361" data-name="Trazado 361" d="M125.2,178.053l-.341-15.626-2.74,2.331.292,13.356Z" transform="translate(5.097 6.779)" fill="#007e76"/>
            <path id="Trazado_362" data-name="Trazado 362" d="M124.059,125.823l.341,15.625-2.839-2.21-.291-13.355Z" transform="translate(5.062 5.251)" fill="#007e76"/>
            <path id="Trazado_363" data-name="Trazado 363" d="M99.959,178.6l-.341-15.626,2.839,2.21.291,13.356Z" transform="translate(4.158 6.802)" fill="#007e76"/>
            <path id="Trazado_364" data-name="Trazado 364" d="M98.821,126.372,99.162,142l2.739-2.331-.291-13.355Z" transform="translate(4.125 5.272)" fill="#007e76"/>
            <g id="Grupo_64" data-name="Grupo 64" transform="translate(94.255 112.631)" opacity="0.64">
              <g id="Grupo_63" data-name="Grupo 63">
                <g id="Grupo_62" data-name="Grupo 62" clip-path="url(#clip-path-3)">
                  <rect id="Rectángulo_110" data-name="Rectángulo 110" width="42.454" height="90.319" transform="translate(0.001 0.924) rotate(-1.247)" fill="#007e76"/>
                </g>
              </g>
            </g>
            <path id="Trazado_365" data-name="Trazado 365" d="M139.857,116.436c-19.611,22.609-30.641,48.818-32.971,73.936a80.31,80.31,0,0,1,36.692,6.6c10.182-22.144,28.878-42.31,54.608-55.8a150.919,150.919,0,0,0-58.329-24.733" transform="translate(4.462 4.859)" fill="#00cabc"/>
            <path id="Trazado_366" data-name="Trazado 366" d="M142,119.395c-18.244,20.854-29.057,44.889-32.274,68.281a82.609,82.609,0,0,1,32.619,6.063c9.583-20.814,26.589-39.941,49.888-53.56A148.53,148.53,0,0,0,142,119.395" transform="translate(4.58 4.983)" fill="#007e76"/>
            <path id="Trazado_367" data-name="Trazado 367" d="M143.8,123.687c-16.031,18.386-26.2,39.3-30.34,60.037a86.166,86.166,0,0,1,27.622,5.38c8.774-18.668,23.439-36,43.254-49.282A144.911,144.911,0,0,0,143.8,123.687" transform="translate(4.736 5.162)" fill="#00cabc"/>
            <path id="Trazado_368" data-name="Trazado 368" d="M140.157,182.807a3.817,3.817,0,0,0-4.789,1.842,3.122,3.122,0,0,0,2.081,4.092,3.775,3.775,0,0,0,4.6-1.736,3.013,3.013,0,0,0-1.892-4.2" transform="translate(5.642 7.62)" fill="#00cabc"/>
            <path id="Trazado_369" data-name="Trazado 369" d="M140.157,182.807a3.817,3.817,0,0,0-4.789,1.842,3.122,3.122,0,0,0,2.081,4.092,3.775,3.775,0,0,0,4.6-1.736A3.013,3.013,0,0,0,140.157,182.807Z" transform="translate(5.642 7.62)" fill="none" stroke="#007e76" stroke-miterlimit="10" stroke-width="0.672"/>
            <path id="Trazado_370" data-name="Trazado 370" d="M116.387,177.947c-2.2-.141-4.339,1.311-4.668,3.128s1.163,3.283,3.234,3.378a4.416,4.416,0,0,0,4.506-2.963c.458-1.772-.869-3.407-3.071-3.544" transform="translate(4.662 7.427)" fill="#00cabc"/>
            <path id="Trazado_371" data-name="Trazado 371" d="M116.387,177.947c-2.2-.141-4.339,1.311-4.668,3.128s1.163,3.283,3.234,3.378a4.416,4.416,0,0,0,4.506-2.963C119.916,179.719,118.589,178.085,116.387,177.947Z" transform="translate(4.662 7.427)" fill="none" stroke="#007e76" stroke-miterlimit="10" stroke-width="0.672"/>
            <path id="Trazado_372" data-name="Trazado 372" d="M182.083,136.309c-2.733-1.581-6.4-1.773-8.053-.506s-.739,3.4,1.9,4.83,6.088,1.738,7.831.618,1.052-3.361-1.68-4.941" transform="translate(7.23 5.633)" fill="#00cabc"/>
            <path id="Trazado_373" data-name="Trazado 373" d="M182.083,136.309c-2.733-1.581-6.4-1.773-8.053-.506s-.739,3.4,1.9,4.83,6.088,1.738,7.831.618S184.815,137.889,182.083,136.309Z" transform="translate(7.23 5.633)" fill="none" stroke="#007e76" stroke-miterlimit="10" stroke-width="0.672"/>
            <path id="Trazado_374" data-name="Trazado 374" d="M147.808,122.188c-3.184-.855-6.962-.124-8.313,1.515s.137,3.473,3.205,4.2,6.652.171,8.116-1.345.177-3.519-3.009-4.372" transform="translate(5.802 5.084)" fill="#00cabc"/>
            <path id="Trazado_375" data-name="Trazado 375" d="M147.808,122.188c-3.184-.855-6.962-.124-8.313,1.515s.137,3.473,3.205,4.2,6.652.171,8.116-1.345S150.994,123.042,147.808,122.188Z" transform="translate(5.802 5.084)" fill="none" stroke="#007e76" stroke-miterlimit="10" stroke-width="0.672"/>
            <path id="Trazado_376" data-name="Trazado 376" d="M147.959,146.935c-7.929-2.583-17.45.319-20.114,5.543-2.7,5.229,1.55,10.162,8.425,11.888,6.91,1.7,14.66.066,18.406-4.315,3.715-4.345,1.234-10.548-6.716-13.117" transform="translate(5.302 6.093)" fill="#00978c"/>
            <path id="Trazado_377" data-name="Trazado 377" d="M146.717,153.635c.018-.016,3.961,1.132,1.816,3.935-2.111,2.753-7.694,3.041-7.3.062.423-3,1.237-6.118-2.44-6.753-3.71-.605-6.175,2.338-5.747,4.263.41,1.92,3.365,2.739,3.359,2.75" transform="translate(5.552 6.294)" fill="none" stroke="#007e76" stroke-miterlimit="10" stroke-width="0.672"/>
            <path id="Trazado_378" data-name="Trazado 378" d="M151.647,158.7a115.478,115.478,0,0,0-21.559-6.013" transform="translate(5.43 6.372)" fill="none" stroke="#007e76" stroke-miterlimit="10" stroke-width="0.672"/>
            <path id="Trazado_379" data-name="Trazado 379" d="M132.723,170.283c-2.4-.564-5.051.587-5.777,2.459s.622,3.7,2.879,4.183a5.076,5.076,0,0,0,5.566-2.3c.869-1.792-.26-3.778-2.668-4.341" transform="translate(5.291 7.101)" fill="#00978c"/>
            <path id="Trazado_380" data-name="Trazado 380" d="M157.963,135.279c-3.067-1.154-6.865-.655-8.322,1.006s-.138,3.742,2.8,4.753,6.5.674,8.085-.845.505-3.762-2.567-4.915" transform="translate(6.222 5.62)" fill="#00978c"/>
            <path id="Trazado_381" data-name="Trazado 381" d="M132.666,172.72s1.243.224.731,1.328-2.249,1.4-2.231.309.136-2.23-.977-2.357a1.456,1.456,0,0,0-1.606,1.649c.171.689,1.105.929,1.105.931" transform="translate(5.366 7.178)" fill="none" stroke="#007e76" stroke-miterlimit="10" stroke-width="0.243"/>
            <path id="Trazado_382" data-name="Trazado 382" d="M134.41,174.294q-3.324-.864-6.777-1.5" transform="translate(5.328 7.212)" fill="none" stroke="#007e76" stroke-miterlimit="10" stroke-width="0.243"/>
            <path id="Trazado_383" data-name="Trazado 383" d="M157.285,137.667s1.615.533.669,1.479-3.374.8-3.081-.256.73-2.142-.732-2.536-2.621.511-2.564,1.224,1.249,1.168,1.251,1.169" transform="translate(6.327 5.687)" fill="none" stroke="#007e76" stroke-miterlimit="10" stroke-width="0.243"/>
            <path id="Trazado_384" data-name="Trazado 384" d="M159.244,139.657q-4.285-1.7-8.739-3.124" transform="translate(6.283 5.698)" fill="none" stroke="#007e76" stroke-miterlimit="10" stroke-width="0.243"/>
            <path id="Trazado_385" data-name="Trazado 385" d="M142.409,178.743a116.266,116.266,0,0,1,7.086-11.247q-1.952.238-3.879.546-3.149,4.814-5.753,9.8,1.284.433,2.546.9" transform="translate(5.838 6.991)" fill="#007e76"/>
            <path id="Trazado_386" data-name="Trazado 386" d="M172.05,143.789a130.83,130.83,0,0,0-10.6,9.6q-.83-1.455-1.7-2.9,4.225-4.343,8.968-8.391,1.686.822,3.341,1.686" transform="translate(6.668 5.931)" fill="#007e76"/>
            <path id="Trazado_387" data-name="Trazado 387" d="M117.721,173.463a122.32,122.32,0,0,1,4.641-12.77q1.2,1.1,2.359,2.228-2.335,5.366-4.106,10.806-1.438-.153-2.894-.265" transform="translate(4.914 6.707)" fill="#007e76"/>
            <path id="Trazado_388" data-name="Trazado 388" d="M139.6,131.98a139.248,139.248,0,0,0-8.4,11.957q2.342-.575,4.717-1.065,3.469-5.093,7.489-9.99-1.892-.475-3.81-.9" transform="translate(5.477 5.508)" fill="#007e76"/>
            <rect id="Rectángulo_112" data-name="Rectángulo 112" width="42.454" height="90.319" transform="translate(45.9 135.781) rotate(-28.885)" fill="#00cabc"/>
            <rect id="Rectángulo_113" data-name="Rectángulo 113" width="36.904" height="84.353" transform="translate(49.771 137.052) rotate(-28.885)" fill="#007e76"/>
            <rect id="Rectángulo_114" data-name="Rectángulo 114" width="30.245" height="75.196" transform="translate(54.898 139.453) rotate(-28.885)" fill="#00cabc"/>
            <path id="Trazado_389" data-name="Trazado 389" d="M109.468,180.259a3.954,3.954,0,1,0,5.372,1.552,3.952,3.952,0,0,0-5.372-1.552" transform="translate(4.484 7.503)" fill="#00cabc"/>
            <path id="Trazado_390" data-name="Trazado 390" d="M109.468,180.259a3.954,3.954,0,1,0,5.372,1.552A3.952,3.952,0,0,0,109.468,180.259Z" transform="translate(4.484 7.503)" fill="none" stroke="#007e76" stroke-miterlimit="10" stroke-width="0.833"/>
            <path id="Trazado_391" data-name="Trazado 391" d="M87.342,192.466a3.954,3.954,0,1,0,5.372,1.552,3.953,3.953,0,0,0-5.372-1.552" transform="translate(3.561 8.013)" fill="#00cabc"/>
            <path id="Trazado_392" data-name="Trazado 392" d="M87.342,192.466a3.954,3.954,0,1,0,5.372,1.552A3.953,3.953,0,0,0,87.342,192.466Z" transform="translate(3.561 8.013)" fill="none" stroke="#007e76" stroke-miterlimit="10" stroke-width="0.833"/>
            <path id="Trazado_393" data-name="Trazado 393" d="M75.14,118.035a3.954,3.954,0,1,0,5.372,1.552,3.955,3.955,0,0,0-5.372-1.552" transform="translate(3.051 4.906)" fill="#00cabc"/>
            <path id="Trazado_394" data-name="Trazado 394" d="M75.14,118.035a3.954,3.954,0,1,0,5.372,1.552A3.955,3.955,0,0,0,75.14,118.035Z" transform="translate(3.051 4.906)" fill="none" stroke="#007e76" stroke-miterlimit="10" stroke-width="0.833"/>
            <path id="Trazado_395" data-name="Trazado 395" d="M53.013,130.242a3.954,3.954,0,1,0,5.372,1.552,3.955,3.955,0,0,0-5.372-1.552" transform="translate(2.128 5.415)" fill="#00cabc"/>
            <path id="Trazado_396" data-name="Trazado 396" d="M53.013,130.242a3.954,3.954,0,1,0,5.372,1.552A3.955,3.955,0,0,0,53.013,130.242Z" transform="translate(2.128 5.415)" fill="none" stroke="#007e76" stroke-miterlimit="10" stroke-width="0.833"/>
            <path id="Trazado_397" data-name="Trazado 397" d="M77.752,148.528a11.793,11.793,0,1,0,16.022,4.63,11.792,11.792,0,0,0-16.022-4.63" transform="translate(2.991 6.138)" fill="#00978c"/>
            <path id="Trazado_398" data-name="Trazado 398" d="M84.049,153.917s2.843-1.852,4.752,1.609-.637,7.511-3.371,4.951-5.4-5.362-7.8-3.63-.976,5.421,1.07,6.733a5,5,0,0,0,4.462.161" transform="translate(3.188 6.403)" fill="none" stroke="#007e76" stroke-miterlimit="10" stroke-width="0.833"/>
            <line id="Línea_5" data-name="Línea 5" x1="16.564" y2="9.138" transform="translate(77.926 160.668)" fill="none" stroke="#007e76" stroke-miterlimit="10" stroke-width="0.833"/>
            <path id="Trazado_399" data-name="Trazado 399" d="M92.711,175.888A4.26,4.26,0,1,0,98.5,177.56a4.261,4.261,0,0,0-5.788-1.672" transform="translate(3.778 7.319)" fill="#00978c"/>
            <path id="Trazado_400" data-name="Trazado 400" d="M69.433,133.693a4.26,4.26,0,1,0,5.788,1.672,4.259,4.259,0,0,0-5.788-1.672" transform="translate(2.806 5.558)" fill="#00978c"/>
            <path id="Trazado_401" data-name="Trazado 401" d="M94.985,177.835a1.169,1.169,0,0,1,1.717.581c.69,1.25-.23,2.714-1.218,1.789s-1.95-1.937-2.817-1.312-.353,1.958.385,2.432a1.808,1.808,0,0,0,1.613.058" transform="translate(3.849 7.415)" fill="none" stroke="#007e76" stroke-miterlimit="10" stroke-width="0.301"/>
            <line id="Línea_6" data-name="Línea 6" x1="5.984" y2="3.301" transform="translate(95.471 185.375)" fill="none" stroke="#007e76" stroke-miterlimit="10" stroke-width="0.301"/>
            <path id="Trazado_402" data-name="Trazado 402" d="M71.707,135.64a1.17,1.17,0,0,1,1.717.581c.691,1.25-.229,2.714-1.218,1.789s-1.95-1.937-2.817-1.312-.353,1.958.385,2.432a1.808,1.808,0,0,0,1.613.058" transform="translate(2.878 5.654)" fill="none" stroke="#007e76" stroke-miterlimit="10" stroke-width="0.301"/>
            <line id="Línea_7" data-name="Línea 7" x1="5.984" y2="3.301" transform="translate(71.221 141.419)" fill="none" stroke="#007e76" stroke-miterlimit="10" stroke-width="0.301"/>
            <path id="Trazado_403" data-name="Trazado 403" d="M106.8,175.457l-7.55-13.685-1.346,3.337,6.454,11.7Z" transform="translate(4.087 6.752)" fill="#007e76"/>
            <path id="Trazado_404" data-name="Trazado 404" d="M81.61,129.713,89.16,143.4l-3.539-.642-6.454-11.7Z" transform="translate(3.305 5.414)" fill="#007e76"/>
            <path id="Trazado_405" data-name="Trazado 405" d="M84.743,187.6l-7.55-13.684,3.539.641,6.454,11.7Z" transform="translate(3.222 7.259)" fill="#007e76"/>
            <path id="Trazado_406" data-name="Trazado 406" d="M59.507,141.908l7.551,13.684,1.345-3.336-6.453-11.7Z" transform="translate(2.484 5.866)" fill="#007e76"/>
          </g>
        </g>
      </g>
    </g>
  </g>
</svg>
