<svg id="Grupo_61" data-name="Grupo 61" xmlns="http://www.w3.org/2000/svg" xmlns:xlink="http://www.w3.org/1999/xlink" width="341.531" height="353.573" viewBox="0 0 341.531 353.573">
  <defs>
    <clipPath id="clip-path">
      <rect id="Rectángulo_91" data-name="Rectángulo 91" width="47.313" height="25.991" fill="none"/>
    </clipPath>
  </defs>
  <path id="Trazado_271" data-name="Trazado 271" d="M52.233,26.31c1.434-5.183,4.247-10.265,8.891-12.976,2.2-1.286,4.71-1.978,6.952-3.2,2.7-1.473,4.935-3.669,7.466-5.422a26.618,26.618,0,0,1,38.9,9.842c5.228-3.985,14.295-2.3,20.48-.074s11.359,9.6,12.846,16l-29.02,8.777c-5.807,6.34-12.258,12.225-19.82,16.318S82.58,61.882,74.078,60.6,57.467,54.231,53.63,46.537c-3.087-6.185-3.241-13.564-1.4-20.227" transform="translate(124.877 0)" fill="#1a2e35"/>
  <path id="Trazado_272" data-name="Trazado 272" d="M103.716,113.406c-7.373-5.156-9.146-16.741-3.653-23.866,1.635-2.121,3.873-4.039,4.24-6.691a13.1,13.1,0,0,0-.7-4.854,28.674,28.674,0,0,1,10.523-29.156c.153-5.95,3.487-18.522,11.034-23.331l34.284,4.819q-2.339,54.156.315,108.377c.27,5.533.474,11.488-2.553,16.129-4.291,6.578-13.245,7.945-21.1,8.146-7.509.193-15.167-.13-22.256-2.613s-13.613-7.4-16.583-14.3c-4.573-10.627.144-22.959,6.449-32.661" transform="translate(52.805 8.924)" fill="#1a2e35"/>
  <path id="Trazado_273" data-name="Trazado 273" d="M141.939,42.3l1.038-7.683L97.736,20.494c-14.09-3.149-31.155,9.371-33.7,23.579C61.2,59.861,58.368,79.245,58.888,91.326c1.043,24.294,18.981,29.434,18.981,29.434l-1.837,14.4A26.612,26.612,0,0,0,128.815,142Z" transform="translate(119.148 6.998)" fill="#ffc09d"/>
  <path id="Trazado_274" data-name="Trazado 274" d="M110.53,51.7a3.08,3.08,0,0,0,2.6,3.426,2.944,2.944,0,0,0,3.47-2.4A3.08,3.08,0,0,0,114,49.3a2.948,2.948,0,0,0-3.474,2.4" transform="translate(75.748 17.232)" fill="#1a2e35"/>
  <path id="Trazado_275" data-name="Trazado 275" d="M105.5,46.444c.333.441,2.85-1.006,6.14-.62,3.294.34,5.515,2.312,5.919,1.951.2-.158-.108-.923-1.072-1.81A8.446,8.446,0,0,0,111.8,43.91a8.109,8.109,0,0,0-4.944.991c-1.1.66-1.528,1.342-1.362,1.543" transform="translate(81.564 15.343)" fill="#1a2e35"/>
  <path id="Trazado_276" data-name="Trazado 276" d="M87.758,54.8a3.081,3.081,0,0,0,2.6,3.426,2.944,2.944,0,0,0,3.47-2.395A3.081,3.081,0,0,0,91.233,52.4a2.948,2.948,0,0,0-3.474,2.4" transform="translate(129.258 18.316)" fill="#1a2e35"/>
  <path id="Trazado_277" data-name="Trazado 277" d="M81.57,49.657c.335.443,2.852-1.006,6.14-.618,3.294.34,5.515,2.311,5.92,1.949.194-.158-.105-.922-1.073-1.81a8.446,8.446,0,0,0-4.68-2.054,8.123,8.123,0,0,0-4.946.991c-1.1.661-1.527,1.343-1.362,1.543" transform="translate(137.785 16.468)" fill="#1a2e35"/>
  <path id="Trazado_278" data-name="Trazado 278" d="M106.108,73.123c.036-.185-1.969-.773-5.237-1.579-.83-.184-1.606-.443-1.683-1.033a4.312,4.312,0,0,1,.849-2.427q1.535-2.918,3.222-6.116c4.5-8.719,7.863-15.927,7.51-16.1s-4.287,6.742-8.789,15.461q-1.634,3.227-3.122,6.166a4.9,4.9,0,0,0-.817,3.25,2.124,2.124,0,0,0,1.242,1.388,5.732,5.732,0,0,0,1.405.363c3.317.563,5.386.817,5.42.63" transform="translate(98.489 16.044)" fill="#1a2e35"/>
  <path id="Trazado_279" data-name="Trazado 279" d="M82.723,95.94a63.586,63.586,0,0,0,33.753-4.8s-9.981,15.778-34.422,10.753Z" transform="translate(114.298 31.883)" fill="#ff9b6c"/>
  <path id="Trazado_280" data-name="Trazado 280" d="M94.386,72.506a5.97,5.97,0,0,1,5.572-1.591,5.45,5.45,0,0,1,3.51,2.436,3.456,3.456,0,0,1-.19,3.955,4.01,4.01,0,0,1-4.442.6,12.542,12.542,0,0,1-3.919-3,3.673,3.673,0,0,1-.829-1.081,1.108,1.108,0,0,1,.146-1.226" transform="translate(110.69 24.756)" fill="#ff9b6c"/>
  <path id="Trazado_281" data-name="Trazado 281" d="M105.688,68.571c-.532-.093-.949,3.48-4.3,5.665s-7.11,1.354-7.195,1.851c-.076.217.768.791,2.37,1.019a8.955,8.955,0,0,0,5.984-1.342,7.81,7.81,0,0,0,3.377-4.777c.308-1.478.011-2.409-.236-2.416" transform="translate(108.336 23.988)" fill="#1a2e35"/>
  <path id="Trazado_282" data-name="Trazado 282" d="M79.039,39.83c.221.933,3.558.885,7.367,1.8,3.828.834,6.813,2.323,7.417,1.579.273-.358-.173-1.262-1.334-2.274a13.178,13.178,0,0,0-11.263-2.57c-1.483.408-2.279,1.029-2.188,1.47" transform="translate(140.948 13.294)" fill="#1a2e35"/>
  <path id="Trazado_283" data-name="Trazado 283" d="M104.422,39.545c.494.814,2.851.3,5.583.576,2.74.181,4.978,1.081,5.6.36.277-.354,0-1.145-.929-1.968a8.124,8.124,0,0,0-9.01-.755c-1.053.657-1.458,1.392-1.245,1.786" transform="translate(84.944 12.852)" fill="#1a2e35"/>
  <path id="Trazado_284" data-name="Trazado 284" d="M131.241,19.791c4.689,1.54,9.99,14.338,8.613,19.077s-5.793,8.18-10.577,9.393-9.87.487-14.593-.946c-6.679-2.029-13.725-6.63-14.2-13.594a27.141,27.141,0,0,1-25.539,7.015c-8.947-2.314-15.576-16-18.092-24.887Z" transform="translate(124.713 5.544)" fill="#1a2e35"/>
  <path id="Trazado_285" data-name="Trazado 285" d="M77.356,57.872c.108.007.054-1.205.6-3.257a13.489,13.489,0,0,1,4.946-7.227,13.159,13.159,0,0,1,12.437-1.806,12.955,12.955,0,0,1,6.058,4.572,13.027,13.027,0,0,1,0,15.435,12.949,12.949,0,0,1-6.058,4.573A13.156,13.156,0,0,1,82.9,68.354a13.5,13.5,0,0,1-4.944-7.226c-.549-2.052-.5-3.264-.6-3.257a2.941,2.941,0,0,0-.053.868,10.633,10.633,0,0,0,.294,2.48,13.465,13.465,0,0,0,4.9,7.675,13.684,13.684,0,0,0,5.82,2.656,13.918,13.918,0,0,0,7.33-.559,13.748,13.748,0,0,0,6.514-4.847,13.886,13.886,0,0,0,0-16.548,13.76,13.76,0,0,0-6.513-4.846,13.917,13.917,0,0,0-7.33-.559,13.691,13.691,0,0,0-5.82,2.656,13.473,13.473,0,0,0-4.9,7.674A10.65,10.65,0,0,0,77.3,57a2.941,2.941,0,0,0,.053.868" transform="translate(132.294 15.373)" fill="#375a64"/>
  <path id="Trazado_286" data-name="Trazado 286" d="M102.455,53.348c.108.007.054-1.205.6-3.257A13.478,13.478,0,0,1,108,42.864a13.159,13.159,0,0,1,12.437-1.806A12.955,12.955,0,0,1,126.5,45.63a13.027,13.027,0,0,1,0,15.435,12.958,12.958,0,0,1-6.058,4.573A13.156,13.156,0,0,1,108,63.831a13.5,13.5,0,0,1-4.944-7.226c-.549-2.052-.5-3.264-.6-3.257a3,3,0,0,0-.053.868,10.633,10.633,0,0,0,.294,2.48,13.465,13.465,0,0,0,4.9,7.675,13.7,13.7,0,0,0,5.82,2.656,13.918,13.918,0,0,0,7.33-.559,13.757,13.757,0,0,0,6.514-4.847,13.886,13.886,0,0,0,0-16.548,13.745,13.745,0,0,0-6.513-4.846,13.916,13.916,0,0,0-7.33-.559,13.676,13.676,0,0,0-5.82,2.656A13.473,13.473,0,0,0,102.7,50a10.65,10.65,0,0,0-.294,2.481,3,3,0,0,0,.053.868" transform="translate(73.316 13.791)" fill="#375a64"/>
  <path id="Trazado_287" data-name="Trazado 287" d="M104.324,49.83c.115-.023.132-.651-.319-1.533A4.977,4.977,0,0,0,97.3,46.205c-.873.47-1.215,1-1.134,1.081.093.111.572-.2,1.4-.458a5.188,5.188,0,0,1,5.872,1.83c.533.68.751,1.209.891,1.17" transform="translate(107.347 15.968)" fill="#375a64"/>
  <path id="Trazado_288" data-name="Trazado 288" d="M69.369,56.646c-.095.247,2.238,1.257,5.208,2.253s5.44,1.6,5.514,1.344-2.257-1.263-5.209-2.253-5.42-1.591-5.513-1.344" transform="translate(167.804 19.797)" fill="#375a64"/>
  <path id="Trazado_289" data-name="Trazado 289" d="M221.3,90.747c-3.956-1.529-2.322-5.645-2.322-5.645l14.708,4.431s-7.806-3.163-11.806-6.436-2-6.119-2-6.119l15.155,5.85,8.565,5.046,21.453,32.747s-16.765,8.2-19.732,5.834c-5.216-4.155-8.065-13.434-9.226-18.15-2.1-.609-8.724-2.58-10.511-3.771a9.913,9.913,0,0,1-3.149-3.555l11.68,2.226c-1.693-.494-12.521-4.2-13.38-5.529-1.51-2.33-.562-3.365-.562-3.365l14.67,2.287-1.51-1.1s-8.216-3.273-12.028-4.747" transform="translate(-218.639 26.93)" fill="#ffc09d"/>
  <path id="Trazado_290" data-name="Trazado 290" d="M126.566,112.734l49.358,45.191c6.13-1.413,81.287-46.341,81.287-46.341l11.879,57.811S192.17,204.756,171,200.466c-3.456-.7-9.141-1.142-12.7-5.723-16.932-21.761-52.858-75.6-52.858-75.6Z" transform="translate(-69.886 39.036)" fill="#ffc09d"/>
  <path id="Trazado_291" data-name="Trazado 291" d="M221.494,121.422l8.9-4.3-6.435-11.66-5.04-10.672L211.1,80.274l11.919,4.473a9.229,9.229,0,0,1,3.6,2.747l19.613,27.084,8.7,8.862-8.392,22.575-9.859-15.393-5.768-1.344c-5.768-1.343-9.414-7.855-9.414-7.855" transform="translate(-198.35 28.082)" fill="#ffc09d"/>
  <path id="Trazado_292" data-name="Trazado 292" d="M242.97,98.629a74.76,74.76,0,0,0-12.786-5,10.594,10.594,0,0,0-4.419-.571,3.977,3.977,0,0,0-3.348,2.607c-.451,1.641.621,3.381,2.046,4.31a15.951,15.951,0,0,0,4.793,1.685,8.321,8.321,0,0,1,4.44,2.345c1.029,1.227,1.357,2.872,1.9,4.38a15.415,15.415,0,0,0,11.355,9.743" transform="translate(-205.502 32.533)" fill="#ffc09d"/>
  <path id="Trazado_293" data-name="Trazado 293" d="M247.371,118.232c.016-.078-.791-.24-2.149-.783a15.849,15.849,0,0,1-5.129-3.346,15.119,15.119,0,0,1-2.6-3.322,20.9,20.9,0,0,1-1.8-4.534,7.38,7.38,0,0,0-1.331-2.488,6.648,6.648,0,0,0-2.428-1.7c-1.826-.8-3.842-1-5.625-1.733a5.538,5.538,0,0,1-2.256-1.568,3.519,3.519,0,0,1-.888-2.361c.084-1.69,1.874-2.787,3.441-2.879a13.705,13.705,0,0,1,4.723.8c1.486.433,2.859.876,4.1,1.308,2.486.869,4.46,1.683,5.819,2.257a13.57,13.57,0,0,0,2.139.842,10.245,10.245,0,0,0-2-1.15,61.614,61.614,0,0,0-5.752-2.527c-1.24-.474-2.613-.954-4.1-1.421a14.033,14.033,0,0,0-4.994-.912,5.151,5.151,0,0,0-2.708.969,3.606,3.606,0,0,0-1.521,2.662c-.086,2.241,1.72,4.052,3.661,4.782,1.96.8,3.95.979,5.622,1.713a5.871,5.871,0,0,1,2.139,1.459,6.677,6.677,0,0,1,1.2,2.21,20.866,20.866,0,0,0,1.936,4.633,15.231,15.231,0,0,0,2.794,3.4,14.947,14.947,0,0,0,5.434,3.217,10.358,10.358,0,0,0,1.667.417c.389.059.594.077.6.047" transform="translate(-205.927 32.431)" fill="#ff9b6c"/>
  <path id="Trazado_294" data-name="Trazado 294" d="M35.3,232.086H136.467s14.939,18.8,24.784,38.382l-144.192.6C14.23,266.423,35.3,232.086,35.3,232.086" transform="translate(157.605 81.191)" fill="#1a2e35"/>
  <path id="Trazado_295" data-name="Trazado 295" d="M26.6,184.45c3.425-45.287,14.662-73.741,14.662-73.741l17.522-5.391c2.65,11.573,21.511,15.4,32.25,10.334l11.366-5.941c36.47-5.472,34.581-2.446,43.012,2.621,7.327,4.4,6.652,37.254,6.652,37.254s18.178,85.6,17.186,99.331-11.575,27.515-11.575,27.515H56.515c-10.186,0-13.093-23.032-12.385-31.389S25.476,199.336,26.6,184.45" transform="translate(136.394 36.843)" fill="#29b473"/>
  <path id="Trazado_296" data-name="Trazado 296" d="M110.007,187.611a7.892,7.892,0,0,1-1.7,1.435,32.01,32.01,0,0,1-13.87,5.641,29.728,29.728,0,0,1-11.04-.478,36.359,36.359,0,0,1-17.173-9.964,42.379,42.379,0,0,1-3.948-4.585,8.383,8.383,0,0,1-1.185-1.876c.153-.119,1.987,2.458,5.657,5.919,3.65,3.393,9.406,7.733,16.893,9.468a30.935,30.935,0,0,0,19.126-1.764c4.635-1.971,7.118-3.973,7.235-3.794" transform="translate(149.06 62.193)" fill="#1a2e35"/>
  <g id="Grupo_60" data-name="Grupo 60" transform="translate(211.359 241.746)" opacity="0.3">
    <g id="Grupo_59" data-name="Grupo 59">
      <g id="Grupo_58" data-name="Grupo 58" clip-path="url(#clip-path)">
        <path id="Trazado_297" data-name="Trazado 297" d="M61.871,179.653a29.463,29.463,0,0,0,10.392,19.879,24.46,24.46,0,0,0,21.649,4.718c7.381-2.111,13.508-8.5,14.786-16.064-5.2,2.37-10.49,4.766-16.143,5.622a31.7,31.7,0,0,1-31.172-14.715l.825.871" transform="translate(-61.385 -179.094)"/>
      </g>
    </g>
  </g>
  <path id="Trazado_298" data-name="Trazado 298" d="M88.248,181.14l-50.98,23.9S16.486,159.067,14.7,152.784s-7.4-16.236-1.648-29.34,21.155-17.92,29.683-12.335c19.079,12.5,45.512,70.031,45.512,70.031" transform="translate(239.073 38.068)" fill="#29b473"/>
  <path id="Trazado_299" data-name="Trazado 299" d="M166.677,183.393c-2.38,0-29.711,14.3-29.711,14.3L121.4,146.14c23.24-15.485,42.312-33.176,55.913-36.829l-7.149,42.6Z" transform="translate(0.343 38.241)" fill="#29b473"/>
  <path id="Trazado_300" data-name="Trazado 300" d="M82.541,167.509a4.426,4.426,0,0,0-1.012.358l-2.821,1.2-10.3,4.573L34.57,189.063l-4.126,1.9.644.229C25.2,179.072,20.048,168.225,16.4,160.4c-1.763-3.831-3.2-6.958-4.261-9.26-.463-1.011-.842-1.838-1.149-2.505a3.8,3.8,0,0,0-.455-.85,3.749,3.749,0,0,0,.281.921c.219.591.537,1.467.988,2.578.891,2.229,2.247,5.436,3.991,9.391,3.495,7.91,8.548,18.811,14.415,30.954l.208.431.436-.2,4.129-1.9,33.715-15.686,10.172-4.857,2.746-1.365a4.407,4.407,0,0,0,.929-.537" transform="translate(244.78 51.698)" fill="#1a2e35"/>
  <path id="Trazado_301" data-name="Trazado 301" d="M133.131,132.836a23.519,23.519,0,0,0-1.056,3.173c-.679,2.2-1.585,5.14-2.682,8.7-2.21,7.328-5.426,17.661-5.575,29.555a62.686,62.686,0,0,0,2.716,16.4c1.417,4.909,3.061,9.2,4.461,12.787s2.617,6.451,3.443,8.435a23.687,23.687,0,0,0,1.37,3.051,2.876,2.876,0,0,0-.216-.84c-.22-.643-.486-1.416-.8-2.346-.8-2.161-1.867-5.046-3.161-8.542-1.315-3.608-2.885-7.907-4.243-12.787a64.011,64.011,0,0,1-2.608-16.167c.143-11.681,3.221-21.982,5.267-29.355,1.043-3.7,1.874-6.7,2.389-8.794.266-1.043.447-1.86.566-2.415a2.921,2.921,0,0,0,.132-.858" transform="translate(38.58 46.47)" fill="#1a2e35"/>
  <path id="Trazado_302" data-name="Trazado 302" d="M22.081,165.072c.787-7.5,4.738-14.439,10.064-19.78,2.642-2.648,5.815-5.3,6.328-9,.664-4.8-3.493-9.3-2.818-14.1.842-5.989,8.339-8.593,11.019-14.017,3.6-7.293-2.673-16.772,1.191-23.93,2.328-4.311,7.876-6.632,8.993-11.4.722-3.087-5.166-7.6-6.533-14.3-3.078-15.07-4.641-26.728,10-35.5l8.547-11.717C78.448,16,86.5,26.52,86.662,37.516c.078,5.2-2.584,10.406-.32,15.084C89.5,59.128,96.853,63.148,99.074,70.051c3.178,9.878-5.573,20.929-1.752,30.576,2.253,5.688,8.191,8.936,11.918,13.787a21.058,21.058,0,0,1-1.343,26.4,26.543,26.543,0,0,1,10,29.706c-1.524,4.469-4.974,8.9-9.689,9.163-6.753.373-10.6-7.269-15.547-11.885-7.682-7.172-21.145-6.819-28.441.745-5.2,5.391-7.3,13.5-13.354,17.91-6.1,4.437-15.152,3.632-21.014-1.114s-8.557-12.765-7.77-20.266" transform="translate(192.73 3.962)" fill="#1a2e35"/>
  <path id="Trazado_303" data-name="Trazado 303" d="M70.189,182.51C79.843,198.374,86.58,207.5,86.58,207.5L0,260.227l10.091,23.434,112.291-46.218s11.069-11.393,7.162-24.086l-17.9-49.415Z" transform="translate(211.152 57.352)" fill="#ffc09d"/>
  <path id="Trazado_304" data-name="Trazado 304" d="M38.567,204.321c-.2.269-4.294-3.169-10.363-5.383-6.046-2.281-11.387-2.343-11.366-2.679-.051-.252,5.471-.678,11.737,1.679,6.285,2.3,10.194,6.225,9.991,6.383" transform="translate(280.227 68.587)" fill="#ff9b6c"/>
  <path id="Trazado_305" data-name="Trazado 305" d="M89.113,251.331,110.708,241l42.143-3.342,3.437-2.385,10.09,23.434s-11.048,5.283-16.832,5.753l-35.433-1.073-18.525,1.945Z" transform="translate(54.866 82.306)" fill="#ffc09d"/>
  <path id="Trazado_306" data-name="Trazado 306" d="M89.278,185.545l121.486.987c3.942,0,7.708,1.894,8.3,5.789l13.277,88.546h62.576a3.648,3.648,0,1,1,0,7.3H95.057L81.4,194.71a7.972,7.972,0,0,1,7.882-9.165" transform="translate(-66.78 64.91)" fill="#e1e1e1"/>
  <path id="Trazado_307" data-name="Trazado 307" d="M89.046,185.558a6.446,6.446,0,0,0-1.914.18,8.035,8.035,0,0,0-6.143,6.956,22.533,22.533,0,0,0,.447,5c.509,3.578,1.095,7.7,1.753,12.331,2.673,18.564,6.526,45.318,11.264,78.209l.046.32h.325l193.893.115h5.218a5.045,5.045,0,0,0,2.76-.525,4.139,4.139,0,0,0-.018-7.238,5.066,5.066,0,0,0-2.737-.513h-2.57l-20.307,0-38.958.013.467.4c-4.778-31.71-9.237-61.292-13.236-87.83a6.871,6.871,0,0,0-2.247-4.626,9.028,9.028,0,0,0-4.645-2.049,39.707,39.707,0,0,0-4.9-.173q-2.405-.016-4.77-.032l-18.29-.124-32.5-.205-46.275-.238-12.379-.023-3.2.016c-.718.007-1.085.032-1.085.032s.366.031,1.085.051l3.2.066,12.379.18,46.274.514,32.5.321,18.29.174q2.365.024,4.769.046a39.9,39.9,0,0,1,4.778.174,8.241,8.241,0,0,1,4.237,1.87,6.041,6.041,0,0,1,1.975,4.147c3.96,26.544,8.374,56.131,13.106,87.848l.061.4h.408l38.958.013,20.307,0h2.57a4.08,4.08,0,0,1,2.264.393,3.159,3.159,0,0,1,.013,5.523,4.054,4.054,0,0,1-2.283.4h-5.218L94.825,287.8l.37.32c-4.874-32.871-8.839-59.609-11.591-78.162-.694-4.626-1.312-8.742-1.849-12.317a22.513,22.513,0,0,1-.5-4.921,7.766,7.766,0,0,1,1.409-3.777,7.947,7.947,0,0,1,4.49-3.1,15.663,15.663,0,0,1,1.888-.288" transform="translate(-66.549 64.897)" fill="#1a2e35"/>
  <path id="Trazado_308" data-name="Trazado 308" d="M197.11,224.694a7.606,7.606,0,1,1-7.606-7.606,7.606,7.606,0,0,1,7.606,7.606" transform="translate(-101.109 75.945)" fill="#fff"/>
  <path id="Trazado_309" data-name="Trazado 309" d="M150.665,287.09c-.173.028-4.039-22.518-8.636-50.353s-8.187-50.432-8.014-50.461,4.037,22.514,8.636,50.358,8.185,50.427,8.014,50.455" transform="translate(9.971 65.165)" fill="#1a2e35"/>
  <rect id="Rectángulo_92" data-name="Rectángulo 92" width="341.531" height="353.572" transform="translate(0)" fill="none"/>
  <rect id="Rectángulo_93" data-name="Rectángulo 93" width="341.531" height="353.572" transform="translate(0)" fill="none"/>
</svg>
