<svg id="Grupo_74" data-name="Grupo 74" xmlns="http://www.w3.org/2000/svg" xmlns:xlink="http://www.w3.org/1999/xlink" width="189.508" height="233.672" viewBox="0 0 189.508 233.672">
  <defs>
    <clipPath id="clip-path">
      <rect id="Rectángulo_142" data-name="Rectángulo 142" width="189.508" height="233.672" fill="none"/>
    </clipPath>
  </defs>
  <g id="Grupo_72" data-name="Grupo 72" clip-path="url(#clip-path)">
    <path id="Trazado_449" data-name="Trazado 449" d="M185.4,134.534l4.105-.791-.923-4.789-4.5.867-.918-4.763-1.459-7.579-3.947.76.2,7.822,4.263-.82.916,4.762-3.315.639-.918-4.763-.947.182.916,4.763-19.026,3.665-.39-2.026-2.424.468-3.571-2.719L136.386,133.5c-5.78-29.457-19.981-42.156-28.086-47.152V82.621a3.709,3.709,0,0,0-3.709-3.709H101.16a3.7,3.7,0,0,0-3.576,2.778,18.5,18.5,0,0,0-2.259-.42,8.067,8.067,0,0,0-3.517-3.187c0-.03,0-.06,0-.09V69.807c4.394-2.987,7.407-7.321,7.869-12.3l.864-9.293a8.41,8.41,0,0,0,5.537-8.055,8.539,8.539,0,0,0-4.1-7.4l.727-7.813C103.933,11.77,92.775,0,77.8,0H76.757C61.783,0,50.625,11.77,51.85,24.952l.726,7.813a8.541,8.541,0,0,0-4.1,7.4,8.411,8.411,0,0,0,5.539,8.055l.863,9.293c.5,5.331,3.9,9.937,8.817,12.924V77.07l-.146.614A8.956,8.956,0,0,0,59.276,81.2a18.565,18.565,0,0,0-2.148.278,3.7,3.7,0,0,0-3.511-2.566H50.186a3.709,3.709,0,0,0-3.709,3.709V85.74c-9.513,5.6-29.449,22.642-32.085,67.765l-8.971.689c-4.4.4-5.217,2.773-4.38,7.118l-1.04,15a7.486,7.486,0,0,0,10.3,5.471l9.5-4.585a306.3,306.3,0,0,0,2.155,31.077,10.469,10.469,0,1,0,14.346-1.484c-.021-.169-.042-.33-.063-.5a308.622,308.622,0,0,1-2.108-36l6.247-3.013v20.707a7.911,7.911,0,0,0,3.57,6.615l.154,8.042H43.076v7.832h1.182l.128,6.65,1.174,16.551H72.511v-4.936h7.052v4.936h27.429l1.037-13.132h3.654V200.4h-2.9l.132-4.562a78.581,78.581,0,0,0,8,2.461l1.773-7.072c-.473,6.076-1.052,11.247-1.611,15.4-.053.392-.106.767-.158,1.141a10.472,10.472,0,1,0,14.607-.358,341.051,341.051,0,0,0,2.487-50.427h4.861c0-.406-.023-.812-.033-1.218-.1-2.932-.281-5.744-.521-8.449l41.619-8.016.142.737a2.17,2.17,0,0,0,2.542,1.721l1.895-.365a2.171,2.171,0,0,0,1.721-2.542Zm-32.485-1.99,1.236.941-.537.1.39,2.026-16.7,3.216c-.163-1.079-.335-2.142-.52-3.18ZM63.693,77.293v.323l-.067.031ZM38.945,154.259a118.155,118.155,0,0,1,1.439-12.575v12.434q-.723.075-1.439.141m80.273,28.678a61.528,61.528,0,0,1-6.352-2.088V154.865l1.353-.26c.033.664.063,1.335.087,2.017,0,.124.012.248.012.361H119.6c.2,9.657.009,18.347-.385,25.955m18.729-39.262,16.983-3.27.258,1.342-17.09,3.291c-.048-.459-.1-.91-.151-1.363m23.083-3.054-.258-1.342,18.474-3.558.258,1.342Z" transform="translate(0 0)" fill="#404041"/>
  </g>
</svg>
