<svg id="Grupo_71" data-name="Grupo 71" xmlns="http://www.w3.org/2000/svg" xmlns:xlink="http://www.w3.org/1999/xlink" width="234.67" height="289.357" viewBox="0 0 234.67 289.357">
  <defs>
    <clipPath id="clip-path">
      <rect id="Rectángulo_141" data-name="Rectángulo 141" width="234.67" height="289.357" fill="none"/>
    </clipPath>
  </defs>
  <g id="Grupo_70" data-name="Grupo 70" clip-path="url(#clip-path)">
    <path id="Trazado_409" data-name="Trazado 409" d="M21.64,234.679c.3,2.368.592,4.486.871,6.34a8.923,8.923,0,0,0,17.651-2.631q-.406-2.719-.849-6.291a410.15,410.15,0,0,1-2.055-69.066c2.775-56.591,29.284-67,29.556-67.09l-5.648-16.91c-1.562.521-38.307,13.573-41.715,83.13-1.612,32.758.328,57.641,2.189,72.518" transform="translate(5.57 23.354)" fill="#f0a77a"/>
    <path id="Trazado_410" data-name="Trazado 410" d="M92.064,96.386c.948.407,6.926,3.195,13.237,11.9,6.454,8.878,14.363,25.739,15.411,55.6a411.22,411.22,0,0,1-2.945,68.474c-.35,2.6-.7,4.892-1.013,6.839a8.928,8.928,0,0,0,17.623,2.882c.307-1.869.635-4.008.97-6.4,2.053-14.855,4.336-39.689,3.188-72.411-2.447-69.6-39-83.158-40.56-83.708L92.092,96.394Z" transform="translate(27.205 23.509)" fill="#f0a77a"/>
    <path id="Trazado_411" data-name="Trazado 411" d="M43.063,245.945h79.146L126.4,100.516A22.97,22.97,0,0,0,103.43,77.547H63.238A22.969,22.969,0,0,0,40.27,100.516Z" transform="translate(11.9 22.915)" fill="#b1ac4c"/>
    <path id="Trazado_412" data-name="Trazado 412" d="M13.564,171.743H44c.027-.446.041-.907.069-1.369,2.445-49.857,24.105-60.861,25.517-61.519l5.7-1.955L65.672,78.115l-5.964,2c-1.729.573-42.386,14.958-46,88.781-.041.965-.1,1.915-.14,2.849" transform="translate(4.008 23.083)" fill="#b1ac4c"/>
    <path id="Trazado_413" data-name="Trazado 413" d="M92.9,102.948l-2.039,5.936c.21.083,5.154,2.262,10.614,9.8,5.95,8.171,13.226,23.841,14.231,52.136,0,.153.014.307.014.447h30.4c0-.5-.029-1.007-.041-1.509-2.542-72.428-40.433-87.888-44.748-89.41L95.39,78.243l-7.961,22.792Z" transform="translate(25.835 23.121)" fill="#b1ac4c"/>
    <path id="Trazado_414" data-name="Trazado 414" d="M56.24,81.421c0,5.335,10.224,9.659,22.837,9.659s22.837-4.324,22.837-9.659-10.225-9.659-22.837-9.659S56.24,76.086,56.24,81.421" transform="translate(16.619 21.206)" fill="#3c2415"/>
    <path id="Trazado_415" data-name="Trazado 415" d="M74.077,90.237h8.429a13.2,13.2,0,0,0,13.2-13.2V66.119H60.881V77.041a13.2,13.2,0,0,0,13.2,13.2" transform="translate(17.99 19.538)" fill="#3c2415"/>
    <path id="Trazado_416" data-name="Trazado 416" d="M46.334,40.773c0,5.779,4.4,10.464,9.83,10.464s9.83-4.685,9.83-10.464-4.4-10.464-9.83-10.464-9.83,4.685-9.83,10.464" transform="translate(13.692 8.956)" fill="#3c2415"/>
    <path id="Trazado_417" data-name="Trazado 417" d="M80.59,91.68h.972c13.945,0,26.177-8.852,27.256-20.469L112.564,30.9C114.082,14.573,100.264,0,81.722,0H80.429C61.886,0,48.07,14.573,49.587,30.9l3.747,40.315C54.414,82.828,66.645,91.68,80.59,91.68" transform="translate(14.619)" fill="#3c2415"/>
    <path id="Trazado_418" data-name="Trazado 418" d="M86.225,40.773c0,5.779,4.4,10.464,9.83,10.464s9.83-4.685,9.83-10.464-4.4-10.464-9.83-10.464-9.83,4.685-9.83,10.464" transform="translate(25.48 8.956)" fill="#3c2415"/>
    <path id="Trazado_419" data-name="Trazado 419" d="M62.929,47.267H96.017a8.03,8.03,0,0,0,0-16.06H62.929a8.03,8.03,0,1,0,0,16.06" transform="translate(16.222 9.222)" fill="#f0a77a"/>
    <path id="Trazado_420" data-name="Trazado 420" d="M97.742,113.042h4.249a4.592,4.592,0,0,0,4.593-4.593V80.02a4.592,4.592,0,0,0-4.593-4.593H97.742a4.592,4.592,0,0,0-4.593,4.593v28.43a4.592,4.592,0,0,0,4.593,4.593" transform="translate(27.526 22.289)" fill="#d9b47b"/>
    <path id="Trazado_421" data-name="Trazado 421" d="M49.018,113.042h4.249a4.592,4.592,0,0,0,4.593-4.593V80.02a4.592,4.592,0,0,0-4.593-4.593H49.018a4.592,4.592,0,0,0-4.593,4.593v28.43a4.592,4.592,0,0,0,4.593,4.593" transform="translate(13.128 22.289)" fill="#d9b47b"/>
    <path id="Trazado_422" data-name="Trazado 422" d="M48.408,213.533h70.141a9.807,9.807,0,0,0,9.807-9.807v-95.6a9.806,9.806,0,0,0-9.807-9.806H48.408a9.806,9.806,0,0,0-9.807,9.806v95.6a9.807,9.807,0,0,0,9.807,9.807" transform="translate(11.407 29.053)" fill="#ebc386"/>
    <rect id="Rectángulo_117" data-name="Rectángulo 117" width="16.857" height="9.97" transform="translate(55.527 109.3)" fill="#fcd8a1"/>
    <rect id="Rectángulo_118" data-name="Rectángulo 118" width="16.857" height="9.97" transform="translate(118.963 109.3)" fill="#fcd8a1"/>
    <rect id="Rectángulo_119" data-name="Rectángulo 119" width="18.401" height="45.42" transform="translate(118.709 158.809)" fill="#fcd290"/>
    <rect id="Rectángulo_120" data-name="Rectángulo 120" width="18.401" height="10.242" transform="translate(118.709 148.568)" fill="#d9b47c"/>
    <path id="Trazado_423" data-name="Trazado 423" d="M97.623,138.429h4.532a4.332,4.332,0,0,0,4.332-4.332V114.68h-13.2V134.1a4.332,4.332,0,0,0,4.332,4.332" transform="translate(27.568 33.888)" fill="#ffe2b5"/>
    <rect id="Rectángulo_121" data-name="Rectángulo 121" width="18.401" height="45.42" transform="translate(96.35 158.809)" fill="#fcd290"/>
    <rect id="Rectángulo_122" data-name="Rectángulo 122" width="18.401" height="10.242" transform="translate(96.35 148.568)" fill="#d9b47c"/>
    <path id="Trazado_424" data-name="Trazado 424" d="M80.364,138.429H84.9a4.332,4.332,0,0,0,4.332-4.332V114.68h-13.2V134.1a4.332,4.332,0,0,0,4.332,4.332" transform="translate(22.468 33.888)" fill="#ffe2b5"/>
    <rect id="Rectángulo_123" data-name="Rectángulo 123" width="18.401" height="45.42" transform="translate(74.348 158.809)" fill="#fcd290"/>
    <rect id="Rectángulo_124" data-name="Rectángulo 124" width="18.401" height="10.242" transform="translate(74.348 148.568)" fill="#d9b47c"/>
    <path id="Trazado_425" data-name="Trazado 425" d="M63.38,138.429h4.53a4.333,4.333,0,0,0,4.333-4.332V114.68h-13.2V134.1a4.332,4.332,0,0,0,4.332,4.332" transform="translate(17.449 33.888)" fill="#ffe2b5"/>
    <rect id="Rectángulo_125" data-name="Rectángulo 125" width="18.401" height="45.42" transform="translate(52.733 158.809)" fill="#fcd290"/>
    <rect id="Rectángulo_126" data-name="Rectángulo 126" width="18.401" height="10.242" transform="translate(52.733 148.568)" fill="#d9b47c"/>
    <path id="Trazado_426" data-name="Trazado 426" d="M46.7,138.429h4.53a4.333,4.333,0,0,0,4.333-4.332V114.68h-13.2V134.1a4.332,4.332,0,0,0,4.332,4.332" transform="translate(12.519 33.888)" fill="#ffe2b5"/>
    <rect id="Rectángulo_127" data-name="Rectángulo 127" width="83.087" height="9.698" transform="translate(53.342 250.93)" fill="#8b5e3c"/>
    <rect id="Rectángulo_128" data-name="Rectángulo 128" width="22.003" height="9.703" transform="translate(83.548 250.924)" fill="#fcd290"/>
    <rect id="Rectángulo_129" data-name="Rectángulo 129" width="14.703" height="17.488" transform="translate(108.365 255.608)" fill="#c49a6c"/>
    <rect id="Rectángulo_130" data-name="Rectángulo 130" width="14.703" height="7.449" transform="translate(108.365 248.159)" fill="#a97c50"/>
    <path id="Trazado_427" data-name="Trazado 427" d="M88.845,209.717h2.8a3.872,3.872,0,0,0,3.872-3.872V191.554H84.973v14.291a3.872,3.872,0,0,0,3.872,3.872" transform="translate(25.11 56.605)" fill="#deae7a"/>
    <rect id="Rectángulo_131" data-name="Rectángulo 131" width="12.985" height="17.488" transform="translate(125.314 255.608)" fill="#c49a6c"/>
    <rect id="Rectángulo_132" data-name="Rectángulo 132" width="12.985" height="7.449" transform="translate(125.314 248.159)" fill="#a97c50"/>
    <path id="Trazado_428" data-name="Trazado 428" d="M101.54,209.717h2.033a3.64,3.64,0,0,0,3.64-3.639V191.554H97.9v14.524a3.639,3.639,0,0,0,3.639,3.639" transform="translate(28.93 56.605)" fill="#deae7a"/>
    <rect id="Rectángulo_133" data-name="Rectángulo 133" width="82.479" height="4.559" transform="translate(53.342 209.446)" fill="#d9b47c"/>
    <rect id="Rectángulo_134" data-name="Rectángulo 134" width="82.479" height="4.559" transform="translate(53.297 217.129)" fill="#d9b47c"/>
    <rect id="Rectángulo_135" data-name="Rectángulo 135" width="82.479" height="4.559" transform="translate(53.995 224.985)" fill="#d9b47c"/>
    <path id="Trazado_429" data-name="Trazado 429" d="M18.591,208.531a12.962,12.962,0,1,0,12.961-12.962,12.962,12.962,0,0,0-12.961,12.962" transform="translate(5.494 57.791)" fill="#f0a77a"/>
    <path id="Trazado_430" data-name="Trazado 430" d="M108.909,208.531a12.962,12.962,0,1,0,12.961-12.962,12.961,12.961,0,0,0-12.961,12.962" transform="translate(32.183 57.791)" fill="#f0a77a"/>
    <path id="Trazado_431" data-name="Trazado 431" d="M59.037,169.971,71.879,167.5a11.948,11.948,0,0,0,9.194-8.281l1.736-5.712-2.591-.789-1.736,5.716a9.25,9.25,0,0,1-7.116,6.406l-12.841,2.473Z" transform="translate(17.294 45.128)" fill="#21363b"/>
    <path id="Trazado_432" data-name="Trazado 432" d="M122.53,201.862l4.65-18.541c-35.1-8.8-32.959-29.773-32.6-32.135l-18.824-3.32c-2.569,13.975,3.9,43.245,46.774,54" transform="translate(22.242 43.694)" fill="#231f20"/>
    <path id="Trazado_433" data-name="Trazado 433" d="M1.288,156.644,0,175.223A9.27,9.27,0,0,0,12.757,182l53.02-25.575-2-10.4s-24.23,3.539-26.192,1.924l-.345-.282a7.791,7.791,0,0,0-5.424-1.762l-25.1,1.93c-5.453.5-6.461,3.434-5.424,8.815" transform="translate(0 43.109)" fill="#cf5b4d"/>
    <path id="Trazado_434" data-name="Trazado 434" d="M48.937,167.725l83.912-16.163-3.842-19.943L53.031,146.253a8.08,8.08,0,0,0-6.406,9.464Z" transform="translate(13.734 38.894)" fill="#21363b"/>
    <rect id="Rectángulo_136" data-name="Rectángulo 136" width="79.448" height="6.04" transform="translate(155.514 174.71) rotate(-10.902)" fill="#21363b"/>
    <path id="Trazado_435" data-name="Trazado 435" d="M159.8,131.326l1.64-2.154-6.185-4.709L117.692,131.7l.512,2.66,36.379-7.007Z" transform="translate(34.778 36.779)" fill="#21363b"/>
    <rect id="Rectángulo_137" data-name="Rectángulo 137" width="79.448" height="2.821" transform="translate(148.708 183.895) rotate(-10.902)" fill="#21363b"/>
    <path id="Trazado_436" data-name="Trazado 436" d="M129.112,150.518l-34.751,6.694L90.854,139a3.292,3.292,0,0,1,2.61-3.854l31.35-6.038a3.29,3.29,0,0,1,3.854,2.609l2.917,15.147a3.119,3.119,0,0,1-2.473,3.653" transform="translate(26.83 38.134)" fill="#cf5b4d"/>
    <path id="Trazado_437" data-name="Trazado 437" d="M106.677,153.923l-7.834,1.509a4.461,4.461,0,0,1-5.222-3.535l-.073-.38,16.59-3.2.074.38a4.46,4.46,0,0,1-3.535,5.222" transform="translate(27.644 43.829)" fill="#cf5b4d"/>
    <path id="Trazado_438" data-name="Trazado 438" d="M59.914,150.594l41.347-7.963-.716-3.716-37.632,7.248a3.784,3.784,0,0,0-3,4.431" transform="translate(17.684 41.05)" fill="#2f4d54"/>
    <path id="Trazado_439" data-name="Trazado 439" d="M175.62,138.111l2.346-.452a2.689,2.689,0,0,0,2.131-3.148l-1.512-7.853-7.627,1.469,1.513,7.853a2.689,2.689,0,0,0,3.148,2.131" transform="translate(50.519 37.427)" fill="#21363b"/>
    <rect id="Rectángulo_138" data-name="Rectángulo 138" width="7.367" height="13.109" transform="translate(190.225 165.422) rotate(-10.907)" fill="#21363b"/>
    <rect id="Rectángulo_139" data-name="Rectángulo 139" width="1.195" height="7.898" transform="translate(225.648 155.084) rotate(-10.871)" fill="#21363b"/>
    <rect id="Rectángulo_140" data-name="Rectángulo 140" width="1.195" height="7.898" transform="translate(220.369 156.101) rotate(-10.871)" fill="#21363b"/>
    <path id="Trazado_440" data-name="Trazado 440" d="M169.914,113.233l4.888-.942,1.807,9.386-6.452,1.242Z" transform="translate(50.21 33.182)" fill="#21363b"/>
    <path id="Trazado_441" data-name="Trazado 441" d="M92.2,131.5l11.47-2.209.728,3.779-15.251,2.938A3.85,3.85,0,0,1,92.2,131.5" transform="translate(26.323 38.205)" fill="#21363b"/>
    <path id="Trazado_442" data-name="Trazado 442" d="M115.953,183.458l.29-1.566a45.2,45.2,0,0,1-18.137-8.843c-8.473-6.935-9.721-17.874-9.733-17.984l-1.583.167c.051.475,1.334,11.7,10.307,19.049a45.934,45.934,0,0,0,18.856,9.177" transform="translate(25.647 45.822)" fill="#2b464d"/>
    <path id="Trazado_443" data-name="Trazado 443" d="M116,188.163l.452-1.527a75.648,75.648,0,0,1-18.278-8.908c-10.632-7.117-13.112-21.907-13.135-22.056l-1.573.25c.1.635,2.6,15.619,13.822,23.13A77.455,77.455,0,0,0,116,188.163" transform="translate(24.666 46.001)" fill="#2b464d"/>
    <path id="Trazado_444" data-name="Trazado 444" d="M115.237,192.406l.453-1.527c-.117-.034-11.626-3.5-20.527-10.167-9.043-6.772-13.653-24.236-13.7-24.411l-1.542.4c.192.74,4.8,18.185,14.284,25.287,9.135,6.842,20.909,10.385,21.029,10.42" transform="translate(23.618 46.187)" fill="#2b464d"/>
    <path id="Trazado_445" data-name="Trazado 445" d="M56.555,187.511,48.31,189.1a4.182,4.182,0,0,1-4.9-3.315l6.431-25.572,16.455-3.17-6.43,25.572a4.181,4.181,0,0,1-3.315,4.9" transform="translate(12.829 46.406)" fill="#21363b"/>
    <path id="Trazado_446" data-name="Trazado 446" d="M48.222,167.985,66.3,72.84,43.413,168.61Z" transform="translate(12.829 21.524)" fill="#754c29"/>
    <path id="Trazado_447" data-name="Trazado 447" d="M123.97,144.372,91.341,78.243l26.562,67.18Z" transform="translate(26.991 23.121)" fill="#754c29"/>
    <path id="Trazado_448" data-name="Trazado 448" d="M77.254,228.03v-6.113h8.733v6.113h33.965l1.619-20.5H42.427l1.454,20.5Z" transform="translate(12.537 61.327)" fill="#626b52"/>
  </g>
</svg>
