<svg id="Grupo_73" data-name="Grupo 73" xmlns="http://www.w3.org/2000/svg" xmlns:xlink="http://www.w3.org/1999/xlink" width="155.147" height="191.303" viewBox="0 0 155.147 191.303">
  <defs>
    <clipPath id="clip-path">
      <rect id="Rectángulo_142" data-name="Rectángulo 142" width="155.147" height="191.303" fill="#1a1e1e"/>
    </clipPath>
  </defs>
  <g id="Grupo_72" data-name="Grupo 72" clip-path="url(#clip-path)">
    <path id="Trazado_449" data-name="Trazado 449" d="M151.786,110.141l3.361-.648-.755-3.921-3.684.71-.751-3.9-1.195-6.2-3.232.622.161,6.4,3.49-.671.75,3.9-2.714.523-.751-3.9-.775.149.75,3.9-15.576,3-.319-1.659-1.984.383-2.923-2.226-13.981,2.693c-4.732-24.116-16.358-34.512-22.993-38.6V67.641A3.036,3.036,0,0,0,85.627,64.6H82.818a3.029,3.029,0,0,0-2.927,2.274,15.14,15.14,0,0,0-1.849-.343,6.6,6.6,0,0,0-2.88-2.609c0-.025,0-.049,0-.074v-6.7a13.936,13.936,0,0,0,6.443-10.069l.707-7.608a6.885,6.885,0,0,0,4.533-6.594,6.991,6.991,0,0,0-3.358-6.055l.6-6.4C85.088,9.636,75.953,0,63.694,0h-.855C50.58,0,41.446,9.636,42.449,20.428l.594,6.4a6.993,6.993,0,0,0-3.358,6.055,6.886,6.886,0,0,0,4.534,6.594l.707,7.608c.406,4.365,3.2,8.135,7.219,10.58V63.1l-.12.5a7.332,7.332,0,0,0-3.5,2.879,15.2,15.2,0,0,0-1.758.228A3.027,3.027,0,0,0,43.9,64.6H41.086a3.036,3.036,0,0,0-3.036,3.036v2.553C30.262,74.782,13.94,88.73,11.782,125.672l-7.344.564c-3.6.33-4.271,2.271-3.586,5.828L0,144.347a6.128,6.128,0,0,0,8.434,4.479l7.781-3.754a250.759,250.759,0,0,0,1.764,25.442A8.57,8.57,0,1,0,29.725,169.3c-.017-.139-.034-.27-.051-.411a252.665,252.665,0,0,1-1.726-29.475l5.114-2.467V153.9a6.477,6.477,0,0,0,2.922,5.416l.126,6.584h-.845v6.412h.968l.1,5.444L37.3,191.3H59.364v-4.041h5.774V191.3H87.593l.849-10.751h2.992V164.067H89.057l.108-3.735a64.324,64.324,0,0,0,6.548,2.014l1.452-5.79c-.387,4.975-.862,9.207-1.319,12.605-.044.321-.087.628-.129.934a8.573,8.573,0,1,0,11.958-.293,279.211,279.211,0,0,0,2.036-41.284h3.979c0-.332-.019-.665-.027-1-.085-2.4-.23-4.7-.427-6.917l34.073-6.562.116.6a1.777,1.777,0,0,0,2.081,1.409l1.551-.3a1.777,1.777,0,0,0,1.409-2.081Zm-26.6-1.629,1.012.77-.439.085.319,1.659-13.672,2.633c-.134-.883-.274-1.753-.426-2.6ZM52.144,63.279v.265l-.055.026Zm-20.26,63.011a96.732,96.732,0,0,1,1.178-10.3v10.179q-.592.062-1.178.116M97.6,149.768a50.373,50.373,0,0,1-5.2-1.71V126.785l1.107-.213c.027.544.051,1.093.071,1.651,0,.1.009.2.009.3h4.328c.161,7.906.008,15.02-.315,21.249m15.333-32.143,13.9-2.677.212,1.1-13.992,2.695c-.039-.376-.081-.745-.123-1.116m18.9-2.5-.212-1.1,15.124-2.913.212,1.1Z" transform="translate(0 0)" fill="#1a1e1e"/>
  </g>
</svg>
