<svg xmlns="http://www.w3.org/2000/svg" xmlns:xlink="http://www.w3.org/1999/xlink" width="377.379" height="289.357" viewBox="0 0 377.379 289.357">
  <defs>
    <clipPath id="clip-path">
      <rect id="Rectángulo_142" data-name="Rectángulo 142" width="189.508" height="233.672" fill="none"/>
    </clipPath>
    <clipPath id="clip-path-2">
      <rect id="Rectángulo_142-2" data-name="Rectángulo 142" width="155.147" height="191.303" fill="#1a1e1e"/>
    </clipPath>
    <clipPath id="clip-path-3">
      <rect id="Rectángulo_141" data-name="Rectángulo 141" width="234.67" height="289.357" fill="none"/>
    </clipPath>
  </defs>
  <g id="Soldados" transform="translate(-1456.259 -215.482)">
    <g id="Grupo_74" data-name="Grupo 74" transform="translate(1644.129 271.166)">
      <g id="Grupo_72" data-name="Grupo 72" clip-path="url(#clip-path)">
        <path id="Trazado_449" data-name="Trazado 449" d="M185.4,134.534l4.105-.791-.923-4.789-4.5.867-.918-4.763-1.459-7.579-3.947.76.2,7.822,4.263-.82.916,4.762-3.315.639-.918-4.763-.947.182.916,4.763-19.026,3.665-.39-2.026-2.424.468-3.571-2.719L136.386,133.5c-5.78-29.457-19.981-42.156-28.086-47.152V82.621a3.709,3.709,0,0,0-3.709-3.709H101.16a3.7,3.7,0,0,0-3.576,2.778,18.5,18.5,0,0,0-2.259-.42,8.067,8.067,0,0,0-3.517-3.187c0-.03,0-.06,0-.09V69.807c4.394-2.987,7.407-7.321,7.869-12.3l.864-9.293a8.41,8.41,0,0,0,5.537-8.055,8.539,8.539,0,0,0-4.1-7.4l.727-7.813C103.933,11.77,92.775,0,77.8,0H76.757C61.783,0,50.625,11.77,51.85,24.952l.726,7.813a8.541,8.541,0,0,0-4.1,7.4,8.411,8.411,0,0,0,5.539,8.055l.863,9.293c.5,5.331,3.9,9.937,8.817,12.924V77.07l-.146.614A8.956,8.956,0,0,0,59.276,81.2a18.565,18.565,0,0,0-2.148.278,3.7,3.7,0,0,0-3.511-2.566H50.186a3.709,3.709,0,0,0-3.709,3.709V85.74c-9.513,5.6-29.449,22.642-32.085,67.765l-8.971.689c-4.4.4-5.217,2.773-4.38,7.118l-1.04,15a7.486,7.486,0,0,0,10.3,5.471l9.5-4.585a306.3,306.3,0,0,0,2.155,31.077,10.469,10.469,0,1,0,14.346-1.484c-.021-.169-.042-.33-.063-.5a308.622,308.622,0,0,1-2.108-36l6.247-3.013v20.707a7.911,7.911,0,0,0,3.57,6.615l.154,8.042H43.076v7.832h1.182l.128,6.65,1.174,16.551H72.511v-4.936h7.052v4.936h27.429l1.037-13.132h3.654V200.4h-2.9l.132-4.562a78.581,78.581,0,0,0,8,2.461l1.773-7.072c-.473,6.076-1.052,11.247-1.611,15.4-.053.392-.106.767-.158,1.141a10.472,10.472,0,1,0,14.607-.358,341.051,341.051,0,0,0,2.487-50.427h4.861c0-.406-.023-.812-.033-1.218-.1-2.932-.281-5.744-.521-8.449l41.619-8.016.142.737a2.17,2.17,0,0,0,2.542,1.721l1.895-.365a2.171,2.171,0,0,0,1.721-2.542Zm-32.485-1.99,1.236.941-.537.1.39,2.026-16.7,3.216c-.163-1.079-.335-2.142-.52-3.18ZM63.693,77.293v.323l-.067.031ZM38.945,154.259a118.155,118.155,0,0,1,1.439-12.575v12.434q-.723.075-1.439.141m80.273,28.678a61.528,61.528,0,0,1-6.352-2.088V154.865l1.353-.26c.033.664.063,1.335.087,2.017,0,.124.012.248.012.361H119.6c.2,9.657.009,18.347-.385,25.955m18.729-39.262,16.983-3.27.258,1.342-17.09,3.291c-.048-.459-.1-.91-.151-1.363m23.083-3.054-.258-1.342,18.474-3.558.258,1.342Z" transform="translate(0 0)" fill="#404041"/>
      </g>
    </g>
    <g id="Grupo_73" data-name="Grupo 73" transform="translate(1456.259 313.535)">
      <g id="Grupo_72-2" data-name="Grupo 72" clip-path="url(#clip-path-2)">
        <path id="Trazado_449-2" data-name="Trazado 449" d="M151.786,110.141l3.361-.648-.755-3.921-3.684.71-.751-3.9-1.195-6.2-3.232.622.161,6.4,3.49-.671.75,3.9-2.714.523-.751-3.9-.775.149.75,3.9-15.576,3-.319-1.659-1.984.383-2.923-2.226-13.981,2.693c-4.732-24.116-16.358-34.512-22.993-38.6V67.641A3.036,3.036,0,0,0,85.627,64.6H82.818a3.029,3.029,0,0,0-2.927,2.274,15.14,15.14,0,0,0-1.849-.343,6.6,6.6,0,0,0-2.88-2.609c0-.025,0-.049,0-.074v-6.7a13.936,13.936,0,0,0,6.443-10.069l.707-7.608a6.885,6.885,0,0,0,4.533-6.594,6.991,6.991,0,0,0-3.358-6.055l.6-6.4C85.088,9.636,75.953,0,63.694,0h-.855C50.58,0,41.446,9.636,42.449,20.428l.594,6.4a6.993,6.993,0,0,0-3.358,6.055,6.886,6.886,0,0,0,4.534,6.594l.707,7.608c.406,4.365,3.2,8.135,7.219,10.58V63.1l-.12.5a7.332,7.332,0,0,0-3.5,2.879,15.2,15.2,0,0,0-1.758.228A3.027,3.027,0,0,0,43.9,64.6H41.086a3.036,3.036,0,0,0-3.036,3.036v2.553C30.262,74.782,13.94,88.73,11.782,125.672l-7.344.564c-3.6.33-4.271,2.271-3.586,5.828L0,144.347a6.128,6.128,0,0,0,8.434,4.479l7.781-3.754a250.759,250.759,0,0,0,1.764,25.442A8.57,8.57,0,1,0,29.725,169.3c-.017-.139-.034-.27-.051-.411a252.665,252.665,0,0,1-1.726-29.475l5.114-2.467V153.9a6.477,6.477,0,0,0,2.922,5.416l.126,6.584h-.845v6.412h.968l.1,5.444L37.3,191.3H59.364v-4.041h5.774V191.3H87.593l.849-10.751h2.992V164.067H89.057l.108-3.735a64.324,64.324,0,0,0,6.548,2.014l1.452-5.79c-.387,4.975-.862,9.207-1.319,12.605-.044.321-.087.628-.129.934a8.573,8.573,0,1,0,11.958-.293,279.211,279.211,0,0,0,2.036-41.284h3.979c0-.332-.019-.665-.027-1-.085-2.4-.23-4.7-.427-6.917l34.073-6.562.116.6a1.777,1.777,0,0,0,2.081,1.409l1.551-.3a1.777,1.777,0,0,0,1.409-2.081Zm-26.6-1.629,1.012.77-.439.085.319,1.659-13.672,2.633c-.134-.883-.274-1.753-.426-2.6ZM52.144,63.279v.265l-.055.026Zm-20.26,63.011a96.732,96.732,0,0,1,1.178-10.3v10.179q-.592.062-1.178.116M97.6,149.768a50.373,50.373,0,0,1-5.2-1.71V126.785l1.107-.213c.027.544.051,1.093.071,1.651,0,.1.009.2.009.3h4.328c.161,7.906.008,15.02-.315,21.249m15.333-32.143,13.9-2.677.212,1.1-13.992,2.695c-.039-.376-.081-.745-.123-1.116m18.9-2.5-.212-1.1,15.124-2.913.212,1.1Z" transform="translate(0 0)" fill="#1a1e1e"/>
      </g>
    </g>
    <g id="Grupo_71" data-name="Grupo 71" transform="translate(1517.867 215.482)">
      <g id="Grupo_70" data-name="Grupo 70" clip-path="url(#clip-path-3)">
        <path id="Trazado_409" data-name="Trazado 409" d="M21.64,234.679c.3,2.368.592,4.486.871,6.34a8.923,8.923,0,0,0,17.651-2.631q-.406-2.719-.849-6.291a410.15,410.15,0,0,1-2.055-69.066c2.775-56.591,29.284-67,29.556-67.09l-5.648-16.91c-1.562.521-38.307,13.573-41.715,83.13-1.612,32.758.328,57.641,2.189,72.518" transform="translate(5.57 23.354)" fill="#f0a77a"/>
        <path id="Trazado_410" data-name="Trazado 410" d="M92.064,96.386c.948.407,6.926,3.195,13.237,11.9,6.454,8.878,14.363,25.739,15.411,55.6a411.22,411.22,0,0,1-2.945,68.474c-.35,2.6-.7,4.892-1.013,6.839a8.928,8.928,0,0,0,17.623,2.882c.307-1.869.635-4.008.97-6.4,2.053-14.855,4.336-39.689,3.188-72.411-2.447-69.6-39-83.158-40.56-83.708L92.092,96.394Z" transform="translate(27.205 23.509)" fill="#f0a77a"/>
        <path id="Trazado_411" data-name="Trazado 411" d="M43.063,245.945h79.146L126.4,100.516A22.97,22.97,0,0,0,103.43,77.547H63.238A22.969,22.969,0,0,0,40.27,100.516Z" transform="translate(11.9 22.915)" fill="#b1ac4c"/>
        <path id="Trazado_412" data-name="Trazado 412" d="M13.564,171.743H44c.027-.446.041-.907.069-1.369,2.445-49.857,24.105-60.861,25.517-61.519l5.7-1.955L65.672,78.115l-5.964,2c-1.729.573-42.386,14.958-46,88.781-.041.965-.1,1.915-.14,2.849" transform="translate(4.008 23.083)" fill="#b1ac4c"/>
        <path id="Trazado_413" data-name="Trazado 413" d="M92.9,102.948l-2.039,5.936c.21.083,5.154,2.262,10.614,9.8,5.95,8.171,13.226,23.841,14.231,52.136,0,.153.014.307.014.447h30.4c0-.5-.029-1.007-.041-1.509-2.542-72.428-40.433-87.888-44.748-89.41L95.39,78.243l-7.961,22.792Z" transform="translate(25.835 23.121)" fill="#b1ac4c"/>
        <path id="Trazado_414" data-name="Trazado 414" d="M56.24,81.421c0,5.335,10.224,9.659,22.837,9.659s22.837-4.324,22.837-9.659-10.225-9.659-22.837-9.659S56.24,76.086,56.24,81.421" transform="translate(16.619 21.206)" fill="#3c2415"/>
        <path id="Trazado_415" data-name="Trazado 415" d="M74.077,90.237h8.429a13.2,13.2,0,0,0,13.2-13.2V66.119H60.881V77.041a13.2,13.2,0,0,0,13.2,13.2" transform="translate(17.99 19.538)" fill="#3c2415"/>
        <path id="Trazado_416" data-name="Trazado 416" d="M46.334,40.773c0,5.779,4.4,10.464,9.83,10.464s9.83-4.685,9.83-10.464-4.4-10.464-9.83-10.464-9.83,4.685-9.83,10.464" transform="translate(13.692 8.956)" fill="#3c2415"/>
        <path id="Trazado_417" data-name="Trazado 417" d="M80.59,91.68h.972c13.945,0,26.177-8.852,27.256-20.469L112.564,30.9C114.082,14.573,100.264,0,81.722,0H80.429C61.886,0,48.07,14.573,49.587,30.9l3.747,40.315C54.414,82.828,66.645,91.68,80.59,91.68" transform="translate(14.619)" fill="#3c2415"/>
        <path id="Trazado_418" data-name="Trazado 418" d="M86.225,40.773c0,5.779,4.4,10.464,9.83,10.464s9.83-4.685,9.83-10.464-4.4-10.464-9.83-10.464-9.83,4.685-9.83,10.464" transform="translate(25.48 8.956)" fill="#3c2415"/>
        <path id="Trazado_419" data-name="Trazado 419" d="M62.929,47.267H96.017a8.03,8.03,0,0,0,0-16.06H62.929a8.03,8.03,0,1,0,0,16.06" transform="translate(16.222 9.222)" fill="#f0a77a"/>
        <path id="Trazado_420" data-name="Trazado 420" d="M97.742,113.042h4.249a4.592,4.592,0,0,0,4.593-4.593V80.02a4.592,4.592,0,0,0-4.593-4.593H97.742a4.592,4.592,0,0,0-4.593,4.593v28.43a4.592,4.592,0,0,0,4.593,4.593" transform="translate(27.526 22.289)" fill="#d9b47b"/>
        <path id="Trazado_421" data-name="Trazado 421" d="M49.018,113.042h4.249a4.592,4.592,0,0,0,4.593-4.593V80.02a4.592,4.592,0,0,0-4.593-4.593H49.018a4.592,4.592,0,0,0-4.593,4.593v28.43a4.592,4.592,0,0,0,4.593,4.593" transform="translate(13.128 22.289)" fill="#d9b47b"/>
        <path id="Trazado_422" data-name="Trazado 422" d="M48.408,213.533h70.141a9.807,9.807,0,0,0,9.807-9.807v-95.6a9.806,9.806,0,0,0-9.807-9.806H48.408a9.806,9.806,0,0,0-9.807,9.806v95.6a9.807,9.807,0,0,0,9.807,9.807" transform="translate(11.407 29.053)" fill="#ebc386"/>
        <rect id="Rectángulo_117" data-name="Rectángulo 117" width="16.857" height="9.97" transform="translate(55.527 109.3)" fill="#fcd8a1"/>
        <rect id="Rectángulo_118" data-name="Rectángulo 118" width="16.857" height="9.97" transform="translate(118.963 109.3)" fill="#fcd8a1"/>
        <rect id="Rectángulo_119" data-name="Rectángulo 119" width="18.401" height="45.42" transform="translate(118.709 158.809)" fill="#fcd290"/>
        <rect id="Rectángulo_120" data-name="Rectángulo 120" width="18.401" height="10.242" transform="translate(118.709 148.568)" fill="#d9b47c"/>
        <path id="Trazado_423" data-name="Trazado 423" d="M97.623,138.429h4.532a4.332,4.332,0,0,0,4.332-4.332V114.68h-13.2V134.1a4.332,4.332,0,0,0,4.332,4.332" transform="translate(27.568 33.888)" fill="#ffe2b5"/>
        <rect id="Rectángulo_121" data-name="Rectángulo 121" width="18.401" height="45.42" transform="translate(96.35 158.809)" fill="#fcd290"/>
        <rect id="Rectángulo_122" data-name="Rectángulo 122" width="18.401" height="10.242" transform="translate(96.35 148.568)" fill="#d9b47c"/>
        <path id="Trazado_424" data-name="Trazado 424" d="M80.364,138.429H84.9a4.332,4.332,0,0,0,4.332-4.332V114.68h-13.2V134.1a4.332,4.332,0,0,0,4.332,4.332" transform="translate(22.468 33.888)" fill="#ffe2b5"/>
        <rect id="Rectángulo_123" data-name="Rectángulo 123" width="18.401" height="45.42" transform="translate(74.348 158.809)" fill="#fcd290"/>
        <rect id="Rectángulo_124" data-name="Rectángulo 124" width="18.401" height="10.242" transform="translate(74.348 148.568)" fill="#d9b47c"/>
        <path id="Trazado_425" data-name="Trazado 425" d="M63.38,138.429h4.53a4.333,4.333,0,0,0,4.333-4.332V114.68h-13.2V134.1a4.332,4.332,0,0,0,4.332,4.332" transform="translate(17.449 33.888)" fill="#ffe2b5"/>
        <rect id="Rectángulo_125" data-name="Rectángulo 125" width="18.401" height="45.42" transform="translate(52.733 158.809)" fill="#fcd290"/>
        <rect id="Rectángulo_126" data-name="Rectángulo 126" width="18.401" height="10.242" transform="translate(52.733 148.568)" fill="#d9b47c"/>
        <path id="Trazado_426" data-name="Trazado 426" d="M46.7,138.429h4.53a4.333,4.333,0,0,0,4.333-4.332V114.68h-13.2V134.1a4.332,4.332,0,0,0,4.332,4.332" transform="translate(12.519 33.888)" fill="#ffe2b5"/>
        <rect id="Rectángulo_127" data-name="Rectángulo 127" width="83.087" height="9.698" transform="translate(53.342 250.93)" fill="#8b5e3c"/>
        <rect id="Rectángulo_128" data-name="Rectángulo 128" width="22.003" height="9.703" transform="translate(83.548 250.924)" fill="#fcd290"/>
        <rect id="Rectángulo_129" data-name="Rectángulo 129" width="14.703" height="17.488" transform="translate(108.365 255.608)" fill="#c49a6c"/>
        <rect id="Rectángulo_130" data-name="Rectángulo 130" width="14.703" height="7.449" transform="translate(108.365 248.159)" fill="#a97c50"/>
        <path id="Trazado_427" data-name="Trazado 427" d="M88.845,209.717h2.8a3.872,3.872,0,0,0,3.872-3.872V191.554H84.973v14.291a3.872,3.872,0,0,0,3.872,3.872" transform="translate(25.11 56.605)" fill="#deae7a"/>
        <rect id="Rectángulo_131" data-name="Rectángulo 131" width="12.985" height="17.488" transform="translate(125.314 255.608)" fill="#c49a6c"/>
        <rect id="Rectángulo_132" data-name="Rectángulo 132" width="12.985" height="7.449" transform="translate(125.314 248.159)" fill="#a97c50"/>
        <path id="Trazado_428" data-name="Trazado 428" d="M101.54,209.717h2.033a3.64,3.64,0,0,0,3.64-3.639V191.554H97.9v14.524a3.639,3.639,0,0,0,3.639,3.639" transform="translate(28.93 56.605)" fill="#deae7a"/>
        <rect id="Rectángulo_133" data-name="Rectángulo 133" width="82.479" height="4.559" transform="translate(53.342 209.446)" fill="#d9b47c"/>
        <rect id="Rectángulo_134" data-name="Rectángulo 134" width="82.479" height="4.559" transform="translate(53.297 217.129)" fill="#d9b47c"/>
        <rect id="Rectángulo_135" data-name="Rectángulo 135" width="82.479" height="4.559" transform="translate(53.995 224.985)" fill="#d9b47c"/>
        <path id="Trazado_429" data-name="Trazado 429" d="M18.591,208.531a12.962,12.962,0,1,0,12.961-12.962,12.962,12.962,0,0,0-12.961,12.962" transform="translate(5.494 57.791)" fill="#f0a77a"/>
        <path id="Trazado_430" data-name="Trazado 430" d="M108.909,208.531a12.962,12.962,0,1,0,12.961-12.962,12.961,12.961,0,0,0-12.961,12.962" transform="translate(32.183 57.791)" fill="#f0a77a"/>
        <path id="Trazado_431" data-name="Trazado 431" d="M59.037,169.971,71.879,167.5a11.948,11.948,0,0,0,9.194-8.281l1.736-5.712-2.591-.789-1.736,5.716a9.25,9.25,0,0,1-7.116,6.406l-12.841,2.473Z" transform="translate(17.294 45.128)" fill="#21363b"/>
        <path id="Trazado_432" data-name="Trazado 432" d="M122.53,201.862l4.65-18.541c-35.1-8.8-32.959-29.773-32.6-32.135l-18.824-3.32c-2.569,13.975,3.9,43.245,46.774,54" transform="translate(22.242 43.694)" fill="#231f20"/>
        <path id="Trazado_433" data-name="Trazado 433" d="M1.288,156.644,0,175.223A9.27,9.27,0,0,0,12.757,182l53.02-25.575-2-10.4s-24.23,3.539-26.192,1.924l-.345-.282a7.791,7.791,0,0,0-5.424-1.762l-25.1,1.93c-5.453.5-6.461,3.434-5.424,8.815" transform="translate(0 43.109)" fill="#cf5b4d"/>
        <path id="Trazado_434" data-name="Trazado 434" d="M48.937,167.725l83.912-16.163-3.842-19.943L53.031,146.253a8.08,8.08,0,0,0-6.406,9.464Z" transform="translate(13.734 38.894)" fill="#21363b"/>
        <rect id="Rectángulo_136" data-name="Rectángulo 136" width="79.448" height="6.04" transform="translate(155.514 174.71) rotate(-10.902)" fill="#21363b"/>
        <path id="Trazado_435" data-name="Trazado 435" d="M159.8,131.326l1.64-2.154-6.185-4.709L117.692,131.7l.512,2.66,36.379-7.007Z" transform="translate(34.778 36.779)" fill="#21363b"/>
        <rect id="Rectángulo_137" data-name="Rectángulo 137" width="79.448" height="2.821" transform="translate(148.708 183.895) rotate(-10.902)" fill="#21363b"/>
        <path id="Trazado_436" data-name="Trazado 436" d="M129.112,150.518l-34.751,6.694L90.854,139a3.292,3.292,0,0,1,2.61-3.854l31.35-6.038a3.29,3.29,0,0,1,3.854,2.609l2.917,15.147a3.119,3.119,0,0,1-2.473,3.653" transform="translate(26.83 38.134)" fill="#cf5b4d"/>
        <path id="Trazado_437" data-name="Trazado 437" d="M106.677,153.923l-7.834,1.509a4.461,4.461,0,0,1-5.222-3.535l-.073-.38,16.59-3.2.074.38a4.46,4.46,0,0,1-3.535,5.222" transform="translate(27.644 43.829)" fill="#cf5b4d"/>
        <path id="Trazado_438" data-name="Trazado 438" d="M59.914,150.594l41.347-7.963-.716-3.716-37.632,7.248a3.784,3.784,0,0,0-3,4.431" transform="translate(17.684 41.05)" fill="#2f4d54"/>
        <path id="Trazado_439" data-name="Trazado 439" d="M175.62,138.111l2.346-.452a2.689,2.689,0,0,0,2.131-3.148l-1.512-7.853-7.627,1.469,1.513,7.853a2.689,2.689,0,0,0,3.148,2.131" transform="translate(50.519 37.427)" fill="#21363b"/>
        <rect id="Rectángulo_138" data-name="Rectángulo 138" width="7.367" height="13.109" transform="translate(190.225 165.422) rotate(-10.907)" fill="#21363b"/>
        <rect id="Rectángulo_139" data-name="Rectángulo 139" width="1.195" height="7.898" transform="translate(225.648 155.084) rotate(-10.871)" fill="#21363b"/>
        <rect id="Rectángulo_140" data-name="Rectángulo 140" width="1.195" height="7.898" transform="translate(220.369 156.101) rotate(-10.871)" fill="#21363b"/>
        <path id="Trazado_440" data-name="Trazado 440" d="M169.914,113.233l4.888-.942,1.807,9.386-6.452,1.242Z" transform="translate(50.21 33.182)" fill="#21363b"/>
        <path id="Trazado_441" data-name="Trazado 441" d="M92.2,131.5l11.47-2.209.728,3.779-15.251,2.938A3.85,3.85,0,0,1,92.2,131.5" transform="translate(26.323 38.205)" fill="#21363b"/>
        <path id="Trazado_442" data-name="Trazado 442" d="M115.953,183.458l.29-1.566a45.2,45.2,0,0,1-18.137-8.843c-8.473-6.935-9.721-17.874-9.733-17.984l-1.583.167c.051.475,1.334,11.7,10.307,19.049a45.934,45.934,0,0,0,18.856,9.177" transform="translate(25.647 45.822)" fill="#2b464d"/>
        <path id="Trazado_443" data-name="Trazado 443" d="M116,188.163l.452-1.527a75.648,75.648,0,0,1-18.278-8.908c-10.632-7.117-13.112-21.907-13.135-22.056l-1.573.25c.1.635,2.6,15.619,13.822,23.13A77.455,77.455,0,0,0,116,188.163" transform="translate(24.666 46.001)" fill="#2b464d"/>
        <path id="Trazado_444" data-name="Trazado 444" d="M115.237,192.406l.453-1.527c-.117-.034-11.626-3.5-20.527-10.167-9.043-6.772-13.653-24.236-13.7-24.411l-1.542.4c.192.74,4.8,18.185,14.284,25.287,9.135,6.842,20.909,10.385,21.029,10.42" transform="translate(23.618 46.187)" fill="#2b464d"/>
        <path id="Trazado_445" data-name="Trazado 445" d="M56.555,187.511,48.31,189.1a4.182,4.182,0,0,1-4.9-3.315l6.431-25.572,16.455-3.17-6.43,25.572a4.181,4.181,0,0,1-3.315,4.9" transform="translate(12.829 46.406)" fill="#21363b"/>
        <path id="Trazado_446" data-name="Trazado 446" d="M48.222,167.985,66.3,72.84,43.413,168.61Z" transform="translate(12.829 21.524)" fill="#754c29"/>
        <path id="Trazado_447" data-name="Trazado 447" d="M123.97,144.372,91.341,78.243l26.562,67.18Z" transform="translate(26.991 23.121)" fill="#754c29"/>
        <path id="Trazado_448" data-name="Trazado 448" d="M77.254,228.03v-6.113h8.733v6.113h33.965l1.619-20.5H42.427l1.454,20.5Z" transform="translate(12.537 61.327)" fill="#626b52"/>
      </g>
    </g>
  </g>
</svg>
