<svg id="Bandera" xmlns="http://www.w3.org/2000/svg" xmlns:xlink="http://www.w3.org/1999/xlink" width="69.611" height="91.732" viewBox="0 0 69.611 91.732">
  <defs>
    <clipPath id="clip-path">
      <rect id="Rectángulo_107" data-name="Rectángulo 107" width="69.611" height="91.733" fill="#002f87"/>
    </clipPath>
  </defs>
  <g id="Grupo_67" data-name="Grupo 67" clip-path="url(#clip-path)">
    <path id="Trazado_313" data-name="Trazado 313" d="M69.611,6.486A2.59,2.59,0,0,0,67.7,3.707,26.467,26.467,0,0,0,44.616,4.769a22.925,22.925,0,0,1-20.574.63A3.5,3.5,0,0,1,21.733,3.02,4.207,4.207,0,0,0,17.532,0a4.345,4.345,0,0,0-4.4,2.76,8.054,8.054,0,0,0-.459,3.083q-.036,36.869-.019,73.739v2.639c-3.675,0-7.089.018-10.5-.008C.664,82.2-.025,82.872,0,84.367c.033,1.712.041,3.428,0,5.139-.042,1.613.723,2.245,2.289,2.222,3.03-.043,6.06-.011,9.091-.011,6.983,0,13.966-.021,20.948.014,1.591.009,2.543-.461,2.479-2.234-.049-1.382-.006-2.767-.009-4.151-.005-2.969-.158-3.122-3.144-3.125q-4.7,0-9.41,0V36.985c.677.239,1.228.416,1.767.625a25.3,25.3,0,0,0,21.606-1A23.811,23.811,0,0,1,66.558,35.5c2.242.911,3.018.326,3.021-2.128.012-8.962-.022-17.924.032-26.887M15.9,4.681c.358-.592,1.006-1.4,1.522-1.394s1.1.845,1.512,1.42c.19.263.053.767.053,1.162q0,37.346,0,74.692v1.574H15.827v-2.2q0-36.852,0-73.7c0-.527-.168-1.165.067-1.554m15.636,83.76H3.273V85.524H31.531ZM66.413,32c-4.55-1.5-9.046-2.214-13.569-1.179a38.36,38.36,0,0,0-8.16,2.818c-7.042,3.423-14.043,3.636-21.111.3a2.566,2.566,0,0,1-1.36-1.749c-.091-7.9-.061-15.8-.061-23.943.6.166,1.073.252,1.513.428A25.966,25.966,0,0,0,46.175,7.54,22.646,22.646,0,0,1,64.89,6.111c.6.213,1.453.94,1.459,1.437.091,8.09.065,16.181.065,24.447" transform="translate(0 0)" fill="#002f87"/>
  </g>
</svg>
