<svg xmlns="http://www.w3.org/2000/svg" xmlns:xlink="http://www.w3.org/1999/xlink" width="56.254" height="99.495" viewBox="0 0 56.254 99.495">
  <defs>
    <clipPath id="clip-path">
      <rect id="Rectángulo_104" data-name="Rectángulo 104" width="56.254" height="99.495" fill="#002f87"/>
    </clipPath>
  </defs>
  <g id="Billete" transform="translate(0 0)">
    <g id="Grupo_61" data-name="Grupo 61" transform="translate(0 0)" clip-path="url(#clip-path)">
      <path id="Trazado_286" data-name="Trazado 286" d="M54.823,0H18.415a1.431,1.431,0,0,0-1.431,1.431V41.3L4.263,54.019a1.428,1.428,0,0,0-.42,1.012V87.794H1.431A1.432,1.432,0,0,0,0,89.224v8.838a1.432,1.432,0,1,0,2.864,0v-7.4H37.02v7.4a1.431,1.431,0,1,0,2.861,0V89.224a1.43,1.43,0,0,0-1.43-1.43H36.213V84.321c3.089-.644,7.339-2.955,7.339-8.582V70.294H54.823a1.432,1.432,0,0,0,1.431-1.431V1.431A1.432,1.432,0,0,0,54.823,0M53.39,67.431H29.436a1.432,1.432,0,1,0,0,2.864H40.69V75.74c0,5.334-5.389,5.869-6,5.91a1.434,1.434,0,0,0-1.343,1.43v4.715H6.7V55.624l10.28-10.28V58.116c0,.025.014.046.015.072L13.484,61.7a1.431,1.431,0,1,0,2.023,2.023L31.725,47.508c1.325,2.047,3.205,6.363-.861,10.429l-7.807,7.807a1.433,1.433,0,0,0,.115,2.129,7.207,7.207,0,0,1,2.439,4.588c.1,1.779-.762,3.588-2.554,5.38a1.431,1.431,0,1,0,2.024,2.023c2.391-2.391,3.53-4.933,3.387-7.559a9.444,9.444,0,0,0-2.382-5.545l6.8-6.8c5.942-5.942,2.623-12.8.04-15.6a1.431,1.431,0,0,0-2.063-.039L19.847,55.341V2.863H53.39Z" transform="translate(0 0)" fill="#002f87"/>
      <path id="Trazado_287" data-name="Trazado 287" d="M19.393,48.409a1.432,1.432,0,0,0,1.431-1.431V13.489a8.023,8.023,0,0,0,6.442-6.443h9.875a8.023,8.023,0,0,0,6.443,6.443V54.751a8.02,8.02,0,0,0-6.443,6.439H28.8a1.432,1.432,0,1,0,0,2.864h9.646a1.471,1.471,0,0,0,.455-.073,1.435,1.435,0,0,0,.975-1.456,5.137,5.137,0,0,1,5.135-5.039h0a1.431,1.431,0,0,0,1.43-1.431V12.187a1.431,1.431,0,0,0-1.43-1.433,5.145,5.145,0,0,1-5.139-5.041,1.4,1.4,0,0,0-.016-.329,1.431,1.431,0,0,0-1.413-1.2H25.961a1.431,1.431,0,0,0-1.411,1.2,1.517,1.517,0,0,0-.017.3,5.143,5.143,0,0,1-5.139,5.07,1.437,1.437,0,0,0-1.431,1.436V46.977a1.432,1.432,0,0,0,1.431,1.431" transform="translate(4.414 1.028)" fill="#002f87"/>
      <path id="Trazado_288" data-name="Trazado 288" d="M41.435,30.2a10.057,10.057,0,1,0-18.394,5.624,1.432,1.432,0,0,0,2.372-1.6,7.195,7.195,0,1,1,5.964,3.174,1.431,1.431,0,0,0,0,2.861A10.067,10.067,0,0,0,41.435,30.2" transform="translate(5.239 4.95)" fill="#002f87"/>
      <path id="Trazado_289" data-name="Trazado 289" d="M31.107,17.561V13.542a1.431,1.431,0,1,0-2.861,0v4.019a1.431,1.431,0,1,0,2.861,0" transform="translate(6.94 2.976)" fill="#002f87"/>
    </g>
  </g>
</svg>
