<svg xmlns="http://www.w3.org/2000/svg" xmlns:xlink="http://www.w3.org/1999/xlink" width="80.675" height="76.806" viewBox="0 0 80.675 76.806">
  <defs>
    <clipPath id="clip-path">
      <rect id="Rectángulo_109" data-name="Rectángulo 109" width="80.675" height="76.806" fill="#002f87"/>
    </clipPath>
  </defs>
  <g id="Casa" transform="translate(0 0)">
    <g id="Grupo_71" data-name="Grupo 71" transform="translate(0 0)" clip-path="url(#clip-path)">
      <path id="Trazado_317" data-name="Trazado 317" d="M72.463,47.308a1.26,1.26,0,0,0,1.778,0l6.067-6.067a1.259,1.259,0,0,0,0-1.778L70.283,29.438V4.652a1.257,1.257,0,0,0-1.257-1.257H56.006a1.258,1.258,0,0,0-1.259,1.257V13.9l-7.3-7.3a1.152,1.152,0,0,0-.145-.171L41.241.369a1.237,1.237,0,0,0-.666-.343,1.253,1.253,0,0,0-1.14.343L33.369,6.435a1.26,1.26,0,0,0-.143.171L.367,39.463a1.259,1.259,0,0,0,0,1.778l6.067,6.067a1.256,1.256,0,0,0,1.778,0l.74-.74V74.294H4.678a1.257,1.257,0,1,0,0,2.514H76a1.257,1.257,0,1,0,0-2.514H71.723V46.566Zm-15.2-41.4H67.769V26.924L57.263,16.418ZM7.324,44.641l-4.29-4.289L35.16,8.226a1.225,1.225,0,0,0,.143-.169L40.338,3.02l5.034,5.035a1.152,1.152,0,0,0,.145.171l9.6,9.6,0,.006L68.136,30.847l9.506,9.506-4.289,4.289-2-2L41.227,12.517a1.254,1.254,0,0,0-1.776,0L9.322,42.643l-.006,0ZM69.209,74.294H11.466V44.054L40.338,15.181,69.209,44.052Z" transform="translate(0 0)" fill="#002f87"/>
    </g>
  </g>
</svg>
