<svg id="Graduado" xmlns="http://www.w3.org/2000/svg" xmlns:xlink="http://www.w3.org/1999/xlink" width="100" height="78.411" viewBox="0 0 100 78.411">
  <defs>
    <clipPath id="clip-path">
      <rect id="Rectángulo_108" data-name="Rectángulo 108" width="100" height="78.411" fill="#002f87"/>
    </clipPath>
  </defs>
  <g id="Grupo_69" data-name="Grupo 69" transform="translate(0 0)" clip-path="url(#clip-path)">
    <path id="Trazado_314" data-name="Trazado 314" d="M99.994,18.751c0-.051.006-.1.006-.154s0-.1-.006-.155-.013-.09-.022-.136a1.566,1.566,0,0,0-.041-.17c-.006-.019-.007-.037-.013-.055s-.022-.044-.032-.067a1.587,1.587,0,0,0-.072-.155c-.023-.043-.048-.084-.075-.124s-.057-.081-.089-.119a1.387,1.387,0,0,0-.1-.116c-.034-.033-.069-.065-.106-.1s-.082-.064-.126-.094-.081-.051-.124-.075a1.43,1.43,0,0,0-.144-.068c-.026-.011-.049-.027-.077-.036L50.517.088a1.566,1.566,0,0,0-1.032,0L1.032,17.131c-.026.009-.048.024-.074.035a1.508,1.508,0,0,0-.151.071c-.04.021-.077.044-.115.069a1.449,1.449,0,0,0-.139.1c-.032.026-.062.054-.092.083a1.465,1.465,0,0,0-.12.133c-.026.032-.05.064-.073.1a1.6,1.6,0,0,0-.09.148c-.021.041-.041.084-.059.127-.012.028-.029.053-.039.083s-.009.044-.016.066c-.015.048-.026.1-.036.148s-.019.1-.024.151S0,18.546,0,18.6s0,.1.006.151a2.066,2.066,0,0,0,.059.3c.007.023.009.046.017.069s.028.055.04.084.037.085.059.126a1.413,1.413,0,0,0,.086.144c.025.037.051.072.079.106a1.576,1.576,0,0,0,.111.124c.032.032.066.062.1.092a1.572,1.572,0,0,0,.13.1,1.32,1.32,0,0,0,.12.073,1.6,1.6,0,0,0,.152.071c.024.01.046.025.071.033L49.484,37.108a1.575,1.575,0,0,0,1.032,0L98.969,20.062a1.53,1.53,0,0,0,.34-.174c.026-.017.048-.035.072-.054a1.521,1.521,0,0,0,.279-.266c.01-.012.021-.021.03-.033a1.56,1.56,0,0,0,.206-.381c.006-.015.017-.026.022-.041s.008-.039.014-.058a1.5,1.5,0,0,0,.041-.166c.009-.046.017-.092.022-.138M50,34,6.231,18.6,50,3.2,93.77,18.6Z" transform="translate(0 0)" fill="#002f87"/>
    <path id="Trazado_315" data-name="Trazado 315" d="M89.373,49.36a1.555,1.555,0,0,0-1.555,1.555V73.849C86.014,75.213,78.206,80,57.363,80c-20.878,0-28.677-4.8-30.456-6.145V50.915a1.553,1.553,0,1,0-3.106,0V74.564a1.55,1.55,0,0,0,.42,1.063c.285.305,7.3,7.475,33.143,7.475s32.857-7.17,33.143-7.475a1.553,1.553,0,0,0,.42-1.063V50.915a1.555,1.555,0,0,0-1.553-1.555" transform="translate(-7.364 -15.272)" fill="#002f87"/>
    <path id="Trazado_316" data-name="Trazado 316" d="M135.115,41.05A1.553,1.553,0,0,0,133.56,42.6V89.559a1.554,1.554,0,0,0,3.108,0V42.6a1.553,1.553,0,0,0-1.553-1.553" transform="translate(-41.323 -12.701)" fill="#002f87"/>
  </g>
</svg>
