<svg id="Huella" xmlns="http://www.w3.org/2000/svg" xmlns:xlink="http://www.w3.org/1999/xlink" width="83.998" height="104.313" viewBox="0 0 83.998 104.313">
  <defs>
    <clipPath id="clip-path">
      <rect id="Rectángulo_106" data-name="Rectángulo 106" width="83.998" height="104.313" fill="#002f87"/>
    </clipPath>
  </defs>
  <g id="Grupo_65" data-name="Grupo 65" clip-path="url(#clip-path)">
    <path id="Trazado_303" data-name="Trazado 303" d="M20.7,50.679a1.516,1.516,0,0,0,1.518-1.517V34.886A31.838,31.838,0,0,1,83.094,21.825a1.518,1.518,0,1,0,2.765-1.256A34.874,34.874,0,0,0,19.18,34.886V49.162A1.516,1.516,0,0,0,20.7,50.679" transform="translate(-4.686)" fill="#002f87"/>
    <path id="Trazado_304" data-name="Trazado 304" d="M20.35,60.225a9.936,9.936,0,0,0,2.26.283,5.742,5.742,0,0,0,3.655-1.176c1.681-1.324,2.545-3.653,2.566-6.921.028-4.447.383-15.1.387-15.21a24.846,24.846,0,0,1,48.693-7.029,1.481,1.481,0,0,0,.156.351c.209.351,2.122,3.4,4.907,3.33,1.706-.065,3.151-1.257,4.3-3.546a1.519,1.519,0,1,0-2.717-1.358c-.575,1.149-1.208,1.85-1.692,1.869a.093.093,0,0,1-.025,0c-.639,0-1.565-.942-2.072-1.708a27.883,27.883,0,0,0-54.581,8.037c0,.057-.359,10.756-.388,15.241-.015,2.266-.5,3.84-1.409,4.555a3.9,3.9,0,0,1-3.342.323,1.518,1.518,0,0,0-.7,2.956" transform="translate(-4.686 -2.265)" fill="#002f87"/>
    <path id="Trazado_305" data-name="Trazado 305" d="M94.908,61.975c-21.914.876-24.725-16.644-24.919-18.13a6.866,6.866,0,0,0-13.732.1,1.519,1.519,0,0,0,3.037,0,3.83,3.83,0,1,1,7.659,0,1.272,1.272,0,0,0,.01.171c.025.215,2.658,20.932,26.321,20.932q.857,0,1.747-.039a1.517,1.517,0,0,0,1.455-1.579,1.537,1.537,0,0,0-1.579-1.455" transform="translate(-13.744 -9.058)" fill="#002f87"/>
    <path id="Trazado_306" data-name="Trazado 306" d="M65.015,47.309a1.518,1.518,0,0,0-1.685,1.319,20.982,20.982,0,0,0,4.791,14.64c5.517,6.895,15.077,11.063,28.412,12.39.05,0,.1.008.15.008a1.519,1.519,0,0,0,.15-3.03c-12.452-1.239-21.3-5.01-26.292-11.208a18.289,18.289,0,0,1-4.2-12.437,1.52,1.52,0,0,0-1.328-1.683" transform="translate(-15.456 -11.555)" fill="#002f87"/>
    <path id="Trazado_307" data-name="Trazado 307" d="M97.6,86.064c-.264-.019-26.459-2.323-33.389-14.327a1.519,1.519,0,1,0-2.631,1.517C69.3,86.636,96.208,89,97.35,89.092c.044,0,.085,0,.128,0a1.519,1.519,0,0,0,.123-3.032" transform="translate(-14.995 -17.34)" fill="#002f87"/>
    <path id="Trazado_308" data-name="Trazado 308" d="M54.084,66.885a1.52,1.52,0,0,0,2.13-.266C60.14,61.57,57.7,53.629,57.6,53.293a1.519,1.519,0,0,0-2.9.911c.021.068,2.062,6.766-.881,10.55a1.516,1.516,0,0,0,.266,2.131" transform="translate(-13.069 -12.761)" fill="#002f87"/>
    <path id="Trazado_309" data-name="Trazado 309" d="M80.595,81.31c-.221-.026-22.254-2.8-32.556-12.7a1.514,1.514,0,0,0-1.914-.154,13.833,13.833,0,0,0-2.439-3.3c-.078-.078-.162-.143-.241-.218a1.507,1.507,0,0,0-2.028-1.614,13.8,13.8,0,0,0-5.325-2.038c2.637-7.415,2.464-21.268,2.454-21.894A10.84,10.84,0,0,1,49.38,28.583c6.044,0,9.1,2.953,11.258,10.89a14.948,14.948,0,0,0,3.418,6.44,17.654,17.654,0,0,0,17.515,5.655,1.517,1.517,0,1,0-.687-2.956,14.7,14.7,0,0,1-14.559-4.719,12.131,12.131,0,0,1-2.73-5.1c-2.535-9.323-6.78-13.25-14.215-13.25A13.887,13.887,0,0,0,35.51,39.417c0,.178.193,15.316-2.625,21.726a13.9,13.9,0,0,0-4.363,1.023c3.731-8.949,3.055-22.134,3.016-22.833A17.846,17.846,0,0,1,49.38,21.578c6.765,0,12.536,3.17,15.062,8.276.322.646.654,1.358,1.005,2.112,2.23,4.776,5.007,10.723,9.742,12.2A8.267,8.267,0,0,0,81.995,43.1a1.519,1.519,0,0,0-1.537-2.622,5.3,5.3,0,0,1-4.366.787C72.639,40.19,70.074,34.694,68.2,30.68c-.36-.773-.7-1.51-1.033-2.173-3.041-6.148-9.857-9.965-17.784-9.965A20.9,20.9,0,0,0,28.5,39.417c.014.289,1.05,20.4-5.976,26.387a6.749,6.749,0,0,1-6.191,1.341,1.518,1.518,0,0,0-.65,2.965,12.145,12.145,0,0,0,2.606.3,9.62,9.62,0,0,0,2.6-.351,13.87,13.87,0,0,0-.865,4.011,18.849,18.849,0,0,1-3.456-.193,1.518,1.518,0,1,0-.439,3,21.783,21.783,0,0,0,3.2.24c.268,0,.547-.01.826-.019a13.808,13.808,0,0,0,2.077,5.471,32.336,32.336,0,0,1-3.284.174,1.511,1.511,0,0,0-1.14,2.513,4.069,4.069,0,0,0-1.8,1.019L1.246,101.043a4.277,4.277,0,0,0,0,6.035l.519.519a4.274,4.274,0,0,0,6.033,0L22.571,92.824a1.518,1.518,0,0,0,1.3.75,1.609,1.609,0,0,0,.217-.015A46.67,46.67,0,0,0,48.624,81.65c7.849,6.931,26.931,9.563,27.78,9.677a1.518,1.518,0,1,0,.4-3.009c-.206-.029-20.865-2.876-27.054-9.815A1.525,1.525,0,0,0,48.632,78h-.014a1.517,1.517,0,0,0-1.115.49c-.01.01-.11.117-.293.3a13.982,13.982,0,0,0,.236-6.649c11.436,9.5,31.88,12.08,32.783,12.189a1.518,1.518,0,0,0,.365-3.014M41.539,82.648a10.844,10.844,0,1,1,0-15.344,10.865,10.865,0,0,1,0,15.344M20.425,90.677,5.652,105.45a1.228,1.228,0,0,1-1.739,0l-.52-.518a1.237,1.237,0,0,1,0-1.742L18.166,88.421a1.235,1.235,0,0,1,1.738,0l.521.518a1.232,1.232,0,0,1,0,1.738m3.322-.139a4.4,4.4,0,0,0,.07-.729,4.231,4.231,0,0,0-.558-2.077l1.925-1.925a13.788,13.788,0,0,0,6.188,2.816,39.392,39.392,0,0,1-7.625,1.916" transform="translate(0 -4.53)" fill="#002f87"/>
    <path id="Trazado_310" data-name="Trazado 310" d="M81,116.923c-4.759-.935-17.9-4.027-21.522-7.068a1.514,1.514,0,0,0-1.751-.143c-7.446,4.422-16.6,8.96-18.38,8.654a1.532,1.532,0,0,0-1.779,1.2,1.51,1.51,0,0,0,1.187,1.774,2.848,2.848,0,0,0,.579.051c4.025,0,14.653-5.97,19.078-8.561,5.84,3.864,21.311,6.931,22,7.068A1.517,1.517,0,1,0,81,116.923" transform="translate(-9.171 -26.751)" fill="#002f87"/>
    <path id="Trazado_311" data-name="Trazado 311" d="M74.709,125.225c-.458-.326-11.4-7.944-28.088.984a1.518,1.518,0,1,0,1.433,2.677c14.948-8,24.488-1.472,24.888-1.191a1.518,1.518,0,0,0,1.767-2.47" transform="translate(-11.194 -29.777)" fill="#002f87"/>
    <path id="Trazado_312" data-name="Trazado 312" d="M42.007,81.718a8.691,8.691,0,0,0-8.693,8.693,1.518,1.518,0,0,0,3.036,0,5.656,5.656,0,0,1,5.657-5.657,1.518,1.518,0,1,0,0-3.036" transform="translate(-8.139 -19.964)" fill="#002f87"/>
  </g>
</svg>
