<svg id="Grupo_41" data-name="Grupo 41" xmlns="http://www.w3.org/2000/svg" xmlns:xlink="http://www.w3.org/1999/xlink" width="398.276" height="408.312" viewBox="0 0 398.276 408.312">
  <defs>
    <clipPath id="clip-path">
      <rect id="Rectángulo_168" data-name="Rectángulo 168" width="398.276" height="408.312" fill="none"/>
    </clipPath>
    <clipPath id="clip-path-3">
      <rect id="Rectángulo_164" data-name="Rectángulo 164" width="23.395" height="31.587" fill="none"/>
    </clipPath>
    <clipPath id="clip-path-4">
      <rect id="Rectángulo_165" data-name="Rectángulo 165" width="50.536" height="21.809" fill="none"/>
    </clipPath>
    <clipPath id="clip-path-5">
      <rect id="Rectángulo_166" data-name="Rectángulo 166" width="76.78" height="66.493" fill="none"/>
    </clipPath>
  </defs>
  <g id="Grupo_40" data-name="Grupo 40" clip-path="url(#clip-path)">
    <g id="Grupo_39" data-name="Grupo 39">
      <g id="Grupo_38" data-name="Grupo 38" clip-path="url(#clip-path)">
        <path id="Trazado_45" data-name="Trazado 45" d="M251.693,66.528,253.01,172.6c.225,18.038-3.132,44.581-31.668,43.635-24.7-2.689-31.248-26.067-31.439-42.9-.091-7.985-.183-14.644-.247-15.464,0,0-27.035-2.2-29.317-28.907-1.1-12.9-1.21-39.666-1.026-63.879a49.917,49.917,0,0,1,46.3-49.379l2.578-.189c27.925-.407,43.871,23.083,43.5,51.009" transform="translate(5.694 0.555)" fill="#ffc09d"/>
        <path id="Trazado_46" data-name="Trazado 46" d="M188.6,153.4s16.919-.242,34.047-12.829c0,0-7.064,20.141-33.908,19.681Z" transform="translate(6.744 5.027)" fill="#ff9b6c"/>
        <path id="Trazado_47" data-name="Trazado 47" d="M203.388,74.1c.53.541,3.614-1.942,8.088-2.062,4.467-.186,7.814,2.075,8.284,1.5.232-.256-.321-1.243-1.779-2.267a11.2,11.2,0,0,0-6.651-1.886,10.8,10.8,0,0,0-6.419,2.335c-1.346,1.123-1.784,2.142-1.524,2.382" transform="translate(7.27 2.481)" fill="#1a2e35"/>
        <path id="Trazado_48" data-name="Trazado 48" d="M204.3,82.995a3.62,3.62,0,0,0,3.747,3.388,3.462,3.462,0,0,0,3.483-3.527,3.622,3.622,0,0,0-3.744-3.391,3.465,3.465,0,0,0-3.486,3.53" transform="translate(7.305 2.842)" fill="#1a2e35"/>
        <path id="Trazado_49" data-name="Trazado 49" d="M192.935,105.171c0-.235-2.583-.49-6.758-.717-1.056-.031-2.064-.167-2.293-.87-.3-.74.054-1.9.473-3.16q1.2-3.914,2.518-8.213c3.477-11.684,5.912-21.261,5.441-21.4s-3.674,9.226-7.15,20.91q-1.249,4.319-2.385,8.251c-.309,1.221-.893,2.623-.242,4.157a2.635,2.635,0,0,0,1.835,1.407,7.158,7.158,0,0,0,1.8.118c4.179-.081,6.764-.25,6.761-.485" transform="translate(6.517 2.532)" fill="#1a2e35"/>
        <path id="Trazado_50" data-name="Trazado 50" d="M205.224,57.816c.432.992,4.014.245,8.3.465,4.292.129,7.814,1.166,8.311.212.22-.456-.447-1.37-1.906-2.256a13.529,13.529,0,0,0-6.279-1.766,13.388,13.388,0,0,0-6.378,1.251c-1.512.764-2.239,1.621-2.051,2.093" transform="translate(7.338 1.947)" fill="#1a2e35"/>
        <path id="Trazado_51" data-name="Trazado 51" d="M164.2,65.824c.469.809,3.961-.089,8.191-.22,4.23-.207,7.742.411,8.189-.434.2-.4-.5-1.129-1.976-1.771a14.776,14.776,0,0,0-6.258-1.034,15.255,15.255,0,0,0-6.221,1.532c-1.455.759-2.132,1.54-1.924,1.927" transform="translate(5.87 2.23)" fill="#1a2e35"/>
        <path id="Trazado_52" data-name="Trazado 52" d="M247.788,84.073c.441-.23,17.967-6.772,18.718,11.541s-17.791,15.291-17.845,14.767-.873-26.308-.873-26.308" transform="translate(8.861 2.959)" fill="#ffc09d"/>
        <path id="Trazado_53" data-name="Trazado 53" d="M253.759,103.011c.079-.062.328.21.877.435a3.191,3.191,0,0,0,2.387-.049c1.906-.789,3.409-3.928,3.363-7.232a10.564,10.564,0,0,0-1.08-4.531,3.692,3.692,0,0,0-2.5-2.351,1.627,1.627,0,0,0-1.848.952c-.225.522-.093.882-.189.919-.05.048-.406-.291-.289-1.053a2.032,2.032,0,0,1,.673-1.178,2.409,2.409,0,0,1,1.745-.538c1.417.039,2.741,1.286,3.449,2.7a10.84,10.84,0,0,1,1.315,5.06c.034,3.7-1.714,7.225-4.331,8.1a3.419,3.419,0,0,1-2.937-.365c-.585-.43-.7-.836-.637-.871" transform="translate(9.074 3.16)" fill="#ff9b6c"/>
        <path id="Trazado_54" data-name="Trazado 54" d="M196.739,116.635c-.2-.463,3.388-1.537,5.91-4.9a20.524,20.524,0,0,0,2.535-4.783c.534-1.329.939-2.164,1.137-2.1s.14.958-.154,2.405a13.523,13.523,0,0,1-2.356,5.357,10.948,10.948,0,0,1-4.679,3.582c-1.4.567-2.345.6-2.393.445" transform="translate(7.035 3.749)" fill="#1a2e35"/>
        <path id="Trazado_55" data-name="Trazado 55" d="M125.078,41.671a4.326,4.326,0,0,1,2.031-2.526c2.09-1.234,4.5-1.07,6.827-1.107a38.565,38.565,0,0,0,20.081-6.1,89.829,89.829,0,0,1,9.345-11.325c8.094-8.346,14.754-14.026,21.643-16.8,8.911-3.587,23.813-5.041,33.1-2.6s17.635,9.975,18.926,19.494c5.211-4.405,13.033-4.368,19.379-1.817l.159-.069c7.067,2.519,11.083,9.986,13.168,17.194s2.975,14.914,6.791,21.374c.8,1.351,1.745,2.968,1.049,4.374a2.981,2.981,0,0,1-3.121,1.359,8.735,8.735,0,0,1-3.29-1.488l2.365,5.662a16.7,16.7,0,0,1-7.687-.514c-1.5,6.741-3.292,14.437-5.028,19.005-2.955-.008-5.658.2-7.48,1.841-2.475,2.226-3.583,6.413-7.7,4.824-2.093-.809-4-5.2-4.7-7.333A104.211,104.211,0,0,1,236.429,41a33.49,33.49,0,0,0-10.343-7.466l.316.285c-7.463-2.593-15.9-5.142-22.985-1.639-5.493,2.718-8.721,8.417-12.828,12.965a41.924,41.924,0,0,1-29.881,13.8c-.395,7.519.236,18.147-.158,25.665l-6.324-12.045-.006.06c-.518-.881-.946-1.77-1.36-2.661l-.142-.27V69.66a46.635,46.635,0,0,0-2.115-4.278l-.071.064c-4.075,3.594-10.077-1.9-6.864-6.283a10.592,10.592,0,0,1,2.271-2.282,7.432,7.432,0,0,1-7.079,1.835,5.831,5.831,0,0,1-4.124-5.766,4.958,4.958,0,0,1,2.956-3.977,16.753,16.753,0,0,1-9.525-2.1c-1.881-1.073-3.726-2.838-3.088-5.2" transform="translate(4.468 0)" fill="#1a2e35"/>
        <path id="Trazado_56" data-name="Trazado 56" d="M225.051,22.946a22.975,22.975,0,0,1,2.68,2.451,19.152,19.152,0,0,1,4.1,8.868,33.612,33.612,0,0,1,.683,6.788c.011,2.46-.186,5.094-.375,7.871a70.429,70.429,0,0,0-.2,8.759,30.846,30.846,0,0,0,.6,4.621,9.636,9.636,0,0,0,1.885,4.483,4.029,4.029,0,0,0,3.769,1.267,6,6,0,0,0,3.392-1.915c1.719-2.006,2.147-4.551,2.575-6.793l-.561.067a22.358,22.358,0,0,0,3.25,5.6,7.951,7.951,0,0,0,5.2,2.83,5.136,5.136,0,0,0,2.754-.482,4.45,4.45,0,0,0,1.871-1.844,4.578,4.578,0,0,0,.568-2.368,3.326,3.326,0,0,0-.858-2.078l-.284.253a17.231,17.231,0,0,0,5.738,4.306,15.385,15.385,0,0,0,1.778.69,2.959,2.959,0,0,0,.637.158,3.227,3.227,0,0,0-.6-.257c-.4-.164-.987-.4-1.723-.776a17.741,17.741,0,0,1-5.538-4.368l-.284.253a3.423,3.423,0,0,1,.177,3.969,4.007,4.007,0,0,1-1.691,1.631,4.656,4.656,0,0,1-2.5.406,7.458,7.458,0,0,1-4.824-2.689,22.037,22.037,0,0,1-3.129-5.476l-.384-.857-.177.925c-.428,2.239-.883,4.682-2.451,6.489a5.4,5.4,0,0,1-3.036,1.714,3.4,3.4,0,0,1-3.2-1.073,9.121,9.121,0,0,1-1.74-4.194,30.625,30.625,0,0,1-.6-4.526,71.478,71.478,0,0,1,.165-8.687c.172-2.775.352-5.42.318-7.912a33.5,33.5,0,0,0-.769-6.876,18.894,18.894,0,0,0-4.351-8.938,10.832,10.832,0,0,0-2.86-2.288" transform="translate(8.048 0.821)" fill="#375a64"/>
        <path id="Trazado_57" data-name="Trazado 57" d="M145.27,49.454c-.006.008.066.07.214.182.18.133.4.292.667.487a9.009,9.009,0,0,0,1.131.726,14.244,14.244,0,0,0,1.626.855,23.677,23.677,0,0,0,11.433,2.057,30.265,30.265,0,0,0,16.122-5.953c5.336-3.837,10.019-9.491,13.849-15.963,1.943-3.235,3.526-6.55,5.272-9.613a35.436,35.436,0,0,1,5.968-8.132,18.239,18.239,0,0,1,7.7-4.671,13.066,13.066,0,0,1,4.058-.467,14.367,14.367,0,0,1,3.716.714,15.459,15.459,0,0,1,8.583,7.263,18.507,18.507,0,0,1,1.379,4.005.887.887,0,0,0-.021-.281c-.034-.221-.077-.49-.126-.817a13.405,13.405,0,0,0-1.014-3.016,15.216,15.216,0,0,0-2.99-4.055,15.635,15.635,0,0,0-5.667-3.516,14.7,14.7,0,0,0-3.834-.778,13.523,13.523,0,0,0-4.223.45,18.681,18.681,0,0,0-7.959,4.757,35.688,35.688,0,0,0-6.1,8.243c-1.767,3.084-3.352,6.392-5.277,9.6-3.8,6.424-8.417,12.014-13.651,15.816a30.078,30.078,0,0,1-15.811,5.978,24.059,24.059,0,0,1-11.305-1.837,37.678,37.678,0,0,1-3.738-2.029" transform="translate(5.195 0.303)" fill="#375a64"/>
        <path id="Trazado_58" data-name="Trazado 58" d="M142.923,36.707a4.174,4.174,0,0,0,.958.667,20.647,20.647,0,0,0,2.836,1.441,27.629,27.629,0,0,0,4.492,1.475,29.081,29.081,0,0,0,11.525.369,27.693,27.693,0,0,0,4.576-1.184,20.7,20.7,0,0,0,2.923-1.256,4.193,4.193,0,0,0,1-.6c-.052-.106-1.527.653-4.059,1.441a31.649,31.649,0,0,1-4.529,1.036,34.314,34.314,0,0,1-5.671.336,34.268,34.268,0,0,1-5.637-.7,31.5,31.5,0,0,1-4.453-1.324c-2.478-.948-3.9-1.8-3.96-1.7" transform="translate(5.111 1.312)" fill="#375a64"/>
        <path id="Trazado_59" data-name="Trazado 59" d="M164.011,75.729c.531.541,3.614-1.942,8.088-2.062,4.467-.186,7.815,2.075,8.284,1.5.232-.256-.321-1.243-1.779-2.267a11.206,11.206,0,0,0-6.651-1.887,10.809,10.809,0,0,0-6.419,2.336c-1.345,1.123-1.784,2.141-1.524,2.382" transform="translate(5.862 2.539)" fill="#1a2e35"/>
        <path id="Trazado_60" data-name="Trazado 60" d="M168.412,84.25a3.62,3.62,0,0,0,3.747,3.388,3.462,3.462,0,0,0,3.483-3.527A3.622,3.622,0,0,0,171.9,80.72a3.465,3.465,0,0,0-3.486,3.53" transform="translate(6.022 2.886)" fill="#1a2e35"/>
        <path id="Trazado_61" data-name="Trazado 61" d="M7.567,178.773c0-7.76,7.415-7.76,7.415-7.76,2.825-3.71,6-2.362,6-2.362l12,8.1c1.765,3.036,13.416,14.507,13.416,14.507,3.178-2.362,3.178-7.085,6.986-12.821s12.433-5.061,12.433-5.061S59.116,188.556,58.41,198,63.567,233.8,63.567,233.8l-33.939,9.538s-2.142-14.455-5.945-15.621c-4.577-1.4-7.124-8.158-7.124-8.158C11.611,209.534,1.565,194.967.152,187.545s7.415-8.772,7.415-8.772" transform="translate(0 6.022)" fill="#ffc09d"/>
        <path id="Trazado_62" data-name="Trazado 62" d="M255.51,162.217c-21.617,13.584-43.4,18.694-65.467,9.9l-33.168,8.471-32.633,218.02,191.33,1.661-9.426-50.637L282.426,167.693Z" transform="translate(4.443 5.801)" fill="#3d3d3d"/>
        <path id="Trazado_63" data-name="Trazado 63" d="M160.739,179.952s-25.8,10.712-35.643,29.477-25.67,71.435-25.67,71.435L70.277,227.332l-54.1,13.829S56.446,352.233,66.555,362.346c11.068,11.07,41.229,22.233,56,13.618s17.774-41.314,17.774-41.314Z" transform="translate(0.579 6.435)" fill="#3d3d3d"/>
        <path id="Trazado_64" data-name="Trazado 64" d="M154.04,269.485c.149,0,.269-9.683.269-21.626s-.12-21.63-.269-21.63-.269,9.682-.269,21.63.12,21.626.269,21.626" transform="translate(5.499 8.09)" fill="#1a2e35"/>
        <path id="Trazado_65" data-name="Trazado 65" d="M144.28,191.98a32.218,32.218,0,0,0,1.258,3.571c.812,2.19,1.89,5.229,2.945,8.629s1.879,6.52,2.445,8.785a32.181,32.181,0,0,0,.98,3.657,3.746,3.746,0,0,0-.1-1.016c-.1-.647-.269-1.58-.508-2.727-.473-2.293-1.245-5.441-2.3-8.859s-2.2-6.449-3.105-8.609c-.452-1.08-.837-1.946-1.123-2.537a3.74,3.74,0,0,0-.491-.895" transform="translate(5.159 6.865)" fill="#1a2e35"/>
        <path id="Trazado_66" data-name="Trazado 66" d="M280.551,249.164l-5.987-82.149s45.035,4.178,59.937,35.95c12.559,26.774,47.224,107.33,50.936,118.35,10.888,32.336-6.121,76.794-76.244,74.219L301.2,351.573Z" transform="translate(9.818 5.972)" fill="#3d3d3d"/>
        <path id="Trazado_67" data-name="Trazado 67" d="M330.02,354.65a5.273,5.273,0,0,0-.367-.788l-1.143-2.211c-1.04-1.956-2.5-4.7-4.3-8.082l-1.436-2.674a7.917,7.917,0,0,0-2.059-2.646,5.6,5.6,0,0,0-3.464-1,15.764,15.764,0,0,0-3.733.6,38.293,38.293,0,0,0-7.536,2.85,19.98,19.98,0,0,0-3.618,2.3l-.416.362a1.354,1.354,0,0,0-.354.556,4.684,4.684,0,0,0-.228,1.132,17.617,17.617,0,0,0-.049,2.23c.109,2.97.479,5.831.847,8.592s.8,5.409,1.223,7.93c.847,5.042,1.7,9.566,2.423,13.362l1.76,8.981q.3,1.533.481,2.44a6.946,6.946,0,0,0,.181.85,4.234,4.234,0,0,0-.074-.867c-.075-.566-.2-1.4-.382-2.461-.385-2.181-.926-5.247-1.591-9.013-.678-3.8-1.487-8.333-2.307-13.374-.408-2.52-.818-5.168-1.19-7.92s-.725-5.61-.833-8.536a17.19,17.19,0,0,1,.047-2.161,4.176,4.176,0,0,1,.195-1,.8.8,0,0,1,.214-.35l.4-.346a19.581,19.581,0,0,1,3.515-2.248,38.32,38.32,0,0,1,7.421-2.839,15.4,15.4,0,0,1,3.613-.611,5.154,5.154,0,0,1,3.191.881,7.547,7.547,0,0,1,1.962,2.489q.763,1.383,1.464,2.655l4.447,8q.774,1.358,1.233,2.163a5.208,5.208,0,0,0,.462.736" transform="translate(10.775 12.06)" fill="#1a2e35"/>
        <path id="Trazado_68" data-name="Trazado 68" d="M361.871,316.373a1.961,1.961,0,0,0-.53-.017l-1.511.058c-1.312.064-3.209.175-5.55.393A72.029,72.029,0,0,0,346.1,318a41.863,41.863,0,0,0-9.62,3.187,37.753,37.753,0,0,0-8.461,5.584,22.571,22.571,0,0,0-5.137,6.491,14.39,14.39,0,0,0-1.558,5.358,9.37,9.37,0,0,0-.028,1.518,1.82,1.82,0,0,0,.044.526c.059,0,.037-.731.194-2.022a15.085,15.085,0,0,1,1.687-5.206,22.86,22.86,0,0,1,5.129-6.3,38.413,38.413,0,0,1,8.367-5.469,42.951,42.951,0,0,1,9.488-3.187,79.556,79.556,0,0,1,8.113-1.3c2.328-.264,4.221-.434,5.526-.562l1.5-.16a1.975,1.975,0,0,0,.523-.091" transform="translate(11.489 11.313)" fill="#1a2e35"/>
        <path id="Trazado_69" data-name="Trazado 69" d="M313.947,312.367a19.491,19.491,0,0,0,1.12,3.233c.772,1.967,1.92,4.648,3.239,7.585,1.287,2.861,2.451,5.447,3.38,7.512a23.965,23.965,0,0,0,1.472,3.086,19.409,19.409,0,0,0-1.12-3.233c-.772-1.967-1.92-4.65-3.24-7.586-1.286-2.86-2.45-5.446-3.38-7.512a23.81,23.81,0,0,0-1.471-3.085" transform="translate(11.226 11.17)" fill="#1a2e35"/>
        <path id="Trazado_70" data-name="Trazado 70" d="M289.9,250.747c.149,0,.269-5.207.269-11.628s-.12-11.631-.269-11.631-.269,5.206-.269,11.631.12,11.628.269,11.628" transform="translate(10.357 8.135)" fill="#1a2e35"/>
        <g id="Grupo_31" data-name="Grupo 31" transform="translate(332.829 351.974)" opacity="0.3">
          <g id="Grupo_30" data-name="Grupo 30">
            <g id="Grupo_29" data-name="Grupo 29" clip-path="url(#clip-path-3)">
              <path id="Trazado_71" data-name="Trazado 71" d="M321.338,339.822c11.847,4.133,19.855,14.883,23.09,27.005.339,1.271.566,2.773-.285,3.776a2.981,2.981,0,0,1-3.719.3,8.7,8.7,0,0,1-2.637-3.038c-5.708-9.134-11.279-17.594-16.449-28.048" transform="translate(-321.338 -339.822)"/>
            </g>
          </g>
        </g>
        <g id="Grupo_34" data-name="Grupo 34" transform="translate(334.383 323.143)" opacity="0.3">
          <g id="Grupo_33" data-name="Grupo 33">
            <g id="Grupo_32" data-name="Grupo 32" clip-path="url(#clip-path-4)">
              <path id="Trazado_72" data-name="Trazado 72" d="M335.981,317.379c6.194-3.444,13.319-4.921,20.393-5.349a30.973,30.973,0,0,1,8.244.725c3.7.777,7.949,2.645,8.757,5.3-8.5-2.663-21.02-.908-29.724.993A31.931,31.931,0,0,0,322.839,333.8a29.685,29.685,0,0,1,13.142-16.417" transform="translate(-322.839 -311.986)"/>
            </g>
          </g>
        </g>
        <path id="Trazado_73" data-name="Trazado 73" d="M296.282,217.181a6.6,6.6,0,0,0,.412-1.3c.222-.843.583-2.054,1.072-3.532a57.02,57.02,0,0,1,12.239-20.8c1.054-1.146,1.937-2.049,2.567-2.652a6.631,6.631,0,0,0,.933-.99,6.578,6.578,0,0,0-1.075.836c-.675.557-1.6,1.424-2.7,2.544A51.334,51.334,0,0,0,297.4,212.237c-.446,1.5-.753,2.735-.913,3.6a6.572,6.572,0,0,0-.208,1.345" transform="translate(10.595 6.72)" fill="#1a2e35"/>
        <path id="Trazado_74" data-name="Trazado 74" d="M286.548,397.1,336.73,276.023c2.29-5.525-.583-10-6.417-10h-10.1c-4.12,0-6.927-2.269-7.192-5.813l-.335-4.452c-.267-3.542-3.079-5.812-7.2-5.812H257.512a16.791,16.791,0,0,0-11.108,4.915l-3.894,3.773a16.782,16.782,0,0,1-11.1,4.915h-61.1c-5.834,0-12.368,4.479-14.593,10L105.966,397.1Z" transform="translate(3.789 8.938)" fill="#f9c931"/>
        <path id="Trazado_75" data-name="Trazado 75" d="M294.187,355.178,313.114,282c1.246-4.818-1.91-9.652-6.3-9.652H158.463a6.764,6.764,0,0,0-6.317,5.45L124.6,387.941c-1.21,4.836.724,7.737,5.121,7.681l149.261.047a6.77,6.77,0,0,0,6.234-5.407Z" transform="translate(4.443 9.739)" fill="#e1e1e1"/>
        <path id="Trazado_76" data-name="Trazado 76" d="M283.694,393.059l8.062-115.235a7.067,7.067,0,0,0-7.049-7.561H131v122.8Z" transform="translate(4.684 9.664)" fill="#ececec"/>
        <path id="Trazado_77" data-name="Trazado 77" d="M286.667,395.7,268.38,276.9a8.512,8.512,0,0,0-8.358-6.635H104.53a8.4,8.4,0,0,0-7.85,11.709l33.575,108.718Z" transform="translate(3.432 9.664)" fill="#fafafa"/>
        <path id="Trazado_78" data-name="Trazado 78" d="M287.772,396.074,250.061,284.811a11.164,11.164,0,0,0-10.488-7.735H79.275c-5.166,0-8.808,5.288-7.159,10.394l35.075,108.657Z" transform="translate(2.564 9.908)" fill="#f9c931"/>
        <g id="Grupo_37" data-name="Grupo 37" transform="translate(210.287 339.543)" opacity="0.3">
          <g id="Grupo_36" data-name="Grupo 36">
            <g id="Grupo_35" data-name="Grupo 35" clip-path="url(#clip-path-5)">
              <path id="Trazado_79" data-name="Trazado 79" d="M205.572,375.632s6.052.277,8.842.467a82.373,82.373,0,0,0,38.95-6.91c3.771-1.681,7.761-4.053,8.9-8.021,1.278-4.445-1.6-9.071-5.109-12.083s-7.776-5.157-10.824-8.636-4.489-9.111-1.487-12.628l.83.607c2.169,5.494,8.207,8.145,13.208,11.288A46.613,46.613,0,0,1,278.457,365.3c1.76,5.76,2.23,12.479-1.263,17.386-2.479,3.481-6.535,5.461-10.541,6.947-12.127,4.5-25.089,4.665-38.023,4.68-4.086.005-16.628-.168-16.628-.168-3.943-1.073-5.244-3.125-7.618-6.452-2.179-3.055-1.7-9.668,1.187-12.061" transform="translate(-203.027 -327.82)"/>
            </g>
          </g>
        </g>
        <path id="Trazado_80" data-name="Trazado 80" d="M205.484,375.723l41.808-6.286,16.232-9.339a7.324,7.324,0,0,0,3.731-5.9c0-.046.005-.092.006-.138a7.409,7.409,0,0,0-4.594-7.075c-5.15-2.17-13.307-5.057-16.787-11.151-5-8.759,0-10.576,0-10.576L280.8,339.217l24.714,16.821,4.973,28.048L276,395.348s-38.426,2.166-49.029.977-10.6-6.129-10.6-6.129c-1.968-.615-5.949-4.111-5.947-7.368-5.146-4.827-4.935-7.1-4.935-7.1" transform="translate(7.348 11.631)" fill="#ffc09d"/>
        <path id="Trazado_81" data-name="Trazado 81" d="M258.633,385.635a8.266,8.266,0,0,0-1.722.329c-1.093.265-2.682.616-4.651,1.009a98.295,98.295,0,0,1-31.2,1.218c-1.993-.238-3.6-.465-4.715-.644a8.35,8.35,0,0,0-1.742-.195,8.142,8.142,0,0,0,1.691.466c1.1.264,2.7.568,4.7.871a84.936,84.936,0,0,0,31.376-1.224c1.966-.458,3.543-.886,4.617-1.234a8.353,8.353,0,0,0,1.65-.6" transform="translate(7.674 13.79)" fill="#ff9b6c"/>
        <path id="Trazado_82" data-name="Trazado 82" d="M254.971,379.4a8.653,8.653,0,0,0-1.748.334c-1.109.269-2.724.619-4.725,1a101.512,101.512,0,0,1-15.8,1.747,107.293,107.293,0,0,1-15.891-.729c-2.023-.244-3.659-.476-4.786-.659a8.63,8.63,0,0,0-1.768-.2,8.536,8.536,0,0,0,1.717.471c1.114.267,2.744.577,4.77.886a89.922,89.922,0,0,0,15.98.941,85.866,85.866,0,0,0,15.883-1.965c2-.451,3.6-.877,4.7-1.229a8.46,8.46,0,0,0,1.677-.6" transform="translate(7.518 13.567)" fill="#ff9b6c"/>
        <path id="Trazado_83" data-name="Trazado 83" d="M15.624,234.1,89.907,248.77a9.473,9.473,0,0,0,11.13-7.458l20.308-102.819a9.474,9.474,0,0,0-7.459-11.13l-47.112-9.305L22.884,148.441,8.165,222.968a9.474,9.474,0,0,0,7.459,11.13" transform="translate(0.285 4.222)" fill="#ececec"/>
        <path id="Trazado_84" data-name="Trazado 84" d="M66.262,118.057l-5.715,28.937A8.812,8.812,0,0,1,50.2,153.933l-27.825-5.492Z" transform="translate(0.8 4.222)" fill="#f5f5f5"/>
        <path id="Trazado_85" data-name="Trazado 85" d="M59.719,148.41s-1.02,7.091-9.466,7.82a9.189,9.189,0,0,1-.955.025c-3.762-.067-28.519-.538-28.41-1.087.117-.595,1.536-7.775,1.536-7.775l27.824,5.495s6.994,1.135,9.471-4.478" transform="translate(0.747 5.271)" fill="#e1e1e1"/>
        <path id="Trazado_86" data-name="Trazado 86" d="M15.627,234.108s-.134-.046-.4-.118a8.078,8.078,0,0,1-1.169-.382A9.4,9.4,0,0,1,8.18,223.589c.544-3.01,1.283-6.477,2.047-10.362,3.1-15.558,7.528-37.827,12.882-64.732l-.092.141,43.91-30.356-.2.04L93.913,123.7l14.219,2.811,3.609.713a24.211,24.211,0,0,1,3.551.838,9.209,9.209,0,0,1,5.143,4.816,9.087,9.087,0,0,1,.746,4.924c-.262,1.668-.648,3.376-.964,5.052q-1,5.049-1.979,10.029-1.965,9.959-3.869,19.609c-2.533,12.856-4.978,25.256-7.306,37.07q-1.743,8.86-3.4,17.263-.825,4.2-1.626,8.271-.4,2.035-.794,4.039a21.779,21.779,0,0,1-.947,3.885,9.28,9.28,0,0,1-5.414,5.167,9.183,9.183,0,0,1-3.684.535,35.326,35.326,0,0,1-3.68-.627l-14.024-2.752-42.33-8.274-11.514-2.223-3-.565c-.675-.124-1.024-.174-1.024-.174s.342.086,1.014.228l2.986.617,11.495,2.322,42.3,8.441L87.437,248.5a35.165,35.165,0,0,0,3.734.642,9.611,9.611,0,0,0,3.857-.552,9.722,9.722,0,0,0,5.68-5.4,22.061,22.061,0,0,0,.979-3.967l.8-4.038q.806-4.071,1.64-8.267,1.662-8.393,3.42-17.259c2.338-11.812,4.792-24.21,7.336-37.064q1.906-9.642,3.877-19.608.983-4.978,1.982-10.028c.318-1.695.7-3.348.969-5.09a9.624,9.624,0,0,0-.789-5.214,9.748,9.748,0,0,0-5.445-5.1,24.6,24.6,0,0,0-3.634-.862l-3.609-.713-14.221-2.807L66.83,117.813l-.108-.021-.09.062L22.759,148.266l-.075.052-.018.089c-5.277,26.92-9.644,49.2-12.7,64.77-.746,3.894-1.462,7.347-1.99,10.386a9.511,9.511,0,0,0,2.135,7.337,9.4,9.4,0,0,0,3.915,2.773,7.035,7.035,0,0,0,1.186.35c.27.062.409.085.409.085" transform="translate(0.282 4.212)" fill="#1a2e35"/>
        <path id="Trazado_87" data-name="Trazado 87" d="M22.371,148.441a3.655,3.655,0,0,0,.7.195l2.039.454,7.521,1.571L43.8,152.924l6.606,1.306a9.091,9.091,0,0,0,9.462-4.589,10.516,10.516,0,0,0,1.1-3.451c.446-2.289.877-4.5,1.288-6.605.807-4.2,1.535-7.987,2.151-11.19.585-3.144,1.062-5.708,1.4-7.554.146-.85.264-1.534.354-2.058a3.663,3.663,0,0,0,.088-.725,3.683,3.683,0,0,0-.194.7c-.116.519-.267,1.2-.455,2.039-.383,1.837-.919,4.391-1.572,7.52-.649,3.2-1.415,6.979-2.265,11.169-.421,2.1-.862,4.312-1.32,6.6a9.969,9.969,0,0,1-1.056,3.3,8.584,8.584,0,0,1-8.9,4.325l-6.6-1.273-11.19-2.149-7.553-1.4-2.06-.354a3.657,3.657,0,0,0-.724-.088" transform="translate(0.8 4.222)" fill="#1a2e35"/>
        <path id="Trazado_88" data-name="Trazado 88" d="M61.178,143.255c-.029.146,8.722,2,19.543,4.135s19.62,3.753,19.649,3.607-8.72-2-19.545-4.136-19.618-3.752-19.647-3.605" transform="translate(2.188 5.122)" fill="#1a2e35"/>
        <path id="Trazado_89" data-name="Trazado 89" d="M40.472,153.646c-.029.146,12.885,2.82,28.84,5.971s28.918,5.589,28.947,5.443-12.882-2.819-28.843-5.972S40.5,153.5,40.472,153.646" transform="translate(1.447 5.494)" fill="#1a2e35"/>
        <path id="Trazado_90" data-name="Trazado 90" d="M37.72,167.583c-.029.146,12.885,2.82,28.84,5.971S95.478,179.143,95.507,179s-12.882-2.819-28.843-5.972-28.915-5.588-28.944-5.442" transform="translate(1.349 5.992)" fill="#1a2e35"/>
        <path id="Trazado_91" data-name="Trazado 91" d="M92.754,192.934c.029-.146-12.885-2.82-28.84-5.971S35,181.374,34.967,181.52s12.882,2.819,28.843,5.972,28.915,5.588,28.944,5.442" transform="translate(1.25 6.491)" fill="#1a2e35"/>
        <path id="Trazado_92" data-name="Trazado 92" d="M32.214,195.457c-.029.146,12.885,2.82,28.84,5.971S89.972,207.017,90,206.871s-12.882-2.819-28.843-5.972-28.915-5.588-28.944-5.442" transform="translate(1.152 6.989)" fill="#1a2e35"/>
        <path id="Trazado_93" data-name="Trazado 93" d="M29.462,209.394c-.029.146,12.885,2.82,28.84,5.971s28.918,5.589,28.947,5.443-12.882-2.819-28.843-5.972-28.915-5.588-28.944-5.442" transform="translate(1.054 7.488)" fill="#1a2e35"/>
        <path id="Trazado_94" data-name="Trazado 94" d="M27.578,156.367s-5.486-6.946-9.711-3.062-3.007,5.882,1.011,12.022c0,0-8.968-.471-6.092,8.741,0,0-8.937-.988-8.077,6.549,0,0-6.748,6.6-3.239,10.86S17.706,203.417,20.921,202.1s3.24-5.874,3.24-5.874,3.824-1.722,4.879-3.737-.757-4.839-.757-4.839,3.224-3.294,4.023-4.212-.437-5.192-.437-5.192l-5.147-4.994s7.087,3.08,8.564,1.906,3.141-2.191,1.561-4.334-7.2-6.936-7.2-6.936Z" transform="translate(0.016 5.44)" fill="#ffc09d"/>
        <path id="Trazado_95" data-name="Trazado 95" d="M23.3,195.763a24.433,24.433,0,0,0-2.322-2.82,27.13,27.13,0,0,0-6.547-6,63.168,63.168,0,0,1-7.358-4.73,34.7,34.7,0,0,1-2.509-2.581c-.087.026.422,1.429,2.106,3.031,1.641,1.637,4.4,3.226,7.305,5a32.93,32.93,0,0,1,6.558,5.682,11.53,11.53,0,0,0,2.767,2.412" transform="translate(0.163 6.423)" fill="#ff9b6c"/>
        <path id="Trazado_96" data-name="Trazado 96" d="M27.983,188.216c.167-.167-3.127-3.724-7.355-7.943-2.123-2.077-3.943-4.1-5.51-5.332a6.627,6.627,0,0,0-2.758-1.629c-.061.115.966.74,2.36,2.084,1.418,1.309,3.159,3.381,5.305,5.482,4.228,4.22,7.791,7.505,7.958,7.338" transform="translate(0.442 6.197)" fill="#ff9b6c"/>
        <path id="Trazado_97" data-name="Trazado 97" d="M26.084,172.8c.169-.213-1.866-1.828-4.123-3.979-2.3-2.137-3.417-4.42-3.634-4.336-.243.054.63,2.7,3.037,4.947,2.349,2.234,4.6,3.527,4.721,3.368" transform="translate(0.654 5.882)" fill="#ff9b6c"/>
        <path id="Trazado_98" data-name="Trazado 98" d="M27.59,156.35a2.263,2.263,0,0,0,.091.514c.092.383.209.865.353,1.464.348,1.344.83,3.211,1.443,5.586l.013.053.046.039c1.035.91,2.2,1.957,3.455,3.139a30.609,30.609,0,0,1,3.825,4.087,2.132,2.132,0,0,1,.389,1.3,2.054,2.054,0,0,1-.691,1.211,13.867,13.867,0,0,1-1.263,1.043,1.908,1.908,0,0,1-1.428.283,27.433,27.433,0,0,1-6.952-2.155l-1.659-.686,1.28,1.251c1.621,1.583,3.344,3.268,5.129,5.012l-.078-.11c.65,1.591,1.063,3.606.264,5.213a14.551,14.551,0,0,1-4.059,4.137l-.348.262.281.331c1.12,1.323,1.913,3.415.448,4.705a19.049,19.049,0,0,1-4.86,3.325l.6.335-.008-.1s0-.047,0-.028v.007c-.107.124.239-.3-.245.365-1.156-.546-.335-.225-.586-.315h0v.006l.008.2,0,.419a7.964,7.964,0,0,1-.078.844,6.583,6.583,0,0,1-.445,1.624,4.314,4.314,0,0,1-.91,1.364,2.546,2.546,0,0,1-1.33.763,8.087,8.087,0,0,1-3.39-.668,30.127,30.127,0,0,1-3.367-1.513,55.472,55.472,0,0,1-5.991-3.624,34.917,34.917,0,0,1-5.241-4.3,4.244,4.244,0,0,1-1.361-2.7,6.558,6.558,0,0,1,.552-3.018A17.159,17.159,0,0,1,5,180.887l.127-.134-.009-.2a6.454,6.454,0,0,1,.3-2.946,4.372,4.372,0,0,1,1.805-2.135,9.657,9.657,0,0,1,5.53-1.059l.516.033-.123-.509c-.136-.56-.3-1.112-.411-1.663a9.325,9.325,0,0,1-.128-1.648,4.577,4.577,0,0,1,.925-2.917c1.268-1.6,3.484-2.092,5.338-2.089h.6l-.321-.488a49.851,49.851,0,0,1-2.888-4.711,6.92,6.92,0,0,1-.734-2.333,3.825,3.825,0,0,1,.46-2.172,9.694,9.694,0,0,1,2.819-3.064,4.142,4.142,0,0,1,3.354-.343,11.226,11.226,0,0,1,4.171,2.611c.424.385.724.7.932.914a2.034,2.034,0,0,0,.323.31,1.443,1.443,0,0,0-.254-.371,12.341,12.341,0,0,0-.875-.982,13.635,13.635,0,0,0-1.608-1.418,8.541,8.541,0,0,0-2.589-1.4,4.5,4.5,0,0,0-3.671.31l-.859.628-.776.743a8.85,8.85,0,0,0-1.409,1.824A4.329,4.329,0,0,0,15,158.136a7.41,7.41,0,0,0,.755,2.537,49.436,49.436,0,0,0,2.873,4.809l.28-.486a9.379,9.379,0,0,0-3.126.445,5.781,5.781,0,0,0-2.786,1.848,5.273,5.273,0,0,0-1.1,3.323,10.087,10.087,0,0,0,.127,1.789c.117.586.28,1.167.422,1.76l.392-.475a10.327,10.327,0,0,0-6.014,1.132,5.156,5.156,0,0,0-2.135,2.5,7.234,7.234,0,0,0-.367,3.325l.117-.331A17.863,17.863,0,0,0,.712,185.7a7.354,7.354,0,0,0-.619,3.413,5.29,5.29,0,0,0,.5,1.753A7.654,7.654,0,0,0,1.669,192.3a35.463,35.463,0,0,0,5.369,4.426,55.829,55.829,0,0,0,6.085,3.684,30.845,30.845,0,0,0,3.463,1.555,8.719,8.719,0,0,0,3.81.708,4.232,4.232,0,0,0,2.893-2.635,7.365,7.365,0,0,0,.5-1.836,8.843,8.843,0,0,0,.085-.934l0-.471-.012-.248-.005-.049,0-.013c-.252-.092.569.226-.589-.321-.486.658-.14.238-.247.366v.035l.005.083.01.12.057.626.547-.291a19.687,19.687,0,0,0,5.1-3.522,3.994,3.994,0,0,0,.872-1.4,3.3,3.3,0,0,0,.07-1.655,6.357,6.357,0,0,0-1.4-2.741l-.067.592a15.121,15.121,0,0,0,4.285-4.438,5.448,5.448,0,0,0,.473-3.041,9.646,9.646,0,0,0-.755-2.837l-.026-.059-.052-.052-5.165-4.975-.378.564a27.616,27.616,0,0,0,7.181,2.144,2.522,2.522,0,0,0,1.85-.429,14.437,14.437,0,0,0,1.305-1.106,2.618,2.618,0,0,0,.839-1.57,2.672,2.672,0,0,0-.491-1.644,29.957,29.957,0,0,0-3.974-4.136c-1.284-1.167-2.468-2.191-3.53-3.082l.059.092q-1.036-3.55-1.624-5.566c-.181-.584-.326-1.053-.442-1.428a1.928,1.928,0,0,0-.179-.47" transform="translate(0.003 5.433)" fill="#ff9b6c"/>
      </g>
    </g>
  </g>
</svg>
