<svg id="Persona" xmlns="http://www.w3.org/2000/svg" xmlns:xlink="http://www.w3.org/1999/xlink" width="204.234" height="262.918" viewBox="0 0 204.234 262.918">
  <defs>
    <clipPath id="clip-path">
      <rect id="Rectángulo_83" data-name="Rectángulo 83" width="204.234" height="262.918" fill="none"/>
    </clipPath>
  </defs>
  <g id="Grupo_53" data-name="Grupo 53" clip-path="url(#clip-path)">
    <path id="Trazado_217" data-name="Trazado 217" d="M117.351,24.257C107.15,5.188,80.566.185,80.566.185,40.58-2.676,33.438,28.049,29.4,56.034c-1.563,10.833-7.963,38.645-12.575,58.1a63.17,63.17,0,0,1-4.286,10.556A37.089,37.089,0,0,1,0,138.1v53.994c26.876,1.914,54.06-6.124,76.912-20.465,11.749-7.374,22.581-16.494,30.545-27.85a34.643,34.643,0,0,0,4.808-10.444l1.35-.078L122.33,128c-1.185-36.423,3.991-86.978-4.979-103.746" transform="translate(0 0)" fill="#1a2e35"/>
    <path id="Trazado_218" data-name="Trazado 218" d="M85.006,10.46,82.5,8.075,55.47,18.97a7.547,7.547,0,0,0-7.126,7.306l.238,88.083c-.035,5.974,1.162,11.146,4.768,15.908l3.8,5.013c8.657,11.429,26.465,10.489,33.319-2.1a9.565,9.565,0,0,0,.955-2.278,17.628,17.628,0,0,0,.4-1.969c.8-7.087.85-13.232.85-13.232.482-7.78.64-10.973.641-10.9,0,0,16.558-1.9,21.034-23.158,2.226-10.57,1.806-25.112,1.181-39.424-.867-19.807-14.605-31.772-30.526-31.753" transform="translate(0.881 0.147)" fill="#ffc09d"/>
    <path id="Trazado_219" data-name="Trazado 219" d="M79.005,55.889a2.75,2.75,0,0,1-2.788,2.639,2.63,2.63,0,0,1-2.708-2.619,2.752,2.752,0,0,1,2.785-2.641,2.633,2.633,0,0,1,2.712,2.621" transform="translate(1.339 0.97)" fill="#1a2e35"/>
    <path id="Trazado_220" data-name="Trazado 220" d="M106.451,55.889a2.75,2.75,0,0,1-2.789,2.639,2.631,2.631,0,0,1-2.708-2.619,2.754,2.754,0,0,1,2.786-2.641,2.634,2.634,0,0,1,2.711,2.621" transform="translate(1.839 0.97)" fill="#1a2e35"/>
    <path id="Trazado_221" data-name="Trazado 221" d="M111.747,47.219c-.358.341-2.363-1.3-5.32-1.444-2.952-.183-5.2,1.23-5.5.851-.151-.168.23-.8,1.209-1.438a7.551,7.551,0,0,1,4.426-1.125,7.245,7.245,0,0,1,4.211,1.6c.875.743,1.151,1.407.974,1.559" transform="translate(1.838 0.802)" fill="#1a2e35"/>
    <path id="Trazado_222" data-name="Trazado 222" d="M82.276,47.529c-.393.3-2.22-1.539-5.145-1.981-2.917-.487-5.3.687-5.558.281-.131-.182.307-.77,1.35-1.305a7.525,7.525,0,0,1,4.518-.665,7.254,7.254,0,0,1,4.026,2.021c.791.829,1,1.516.809,1.65" transform="translate(1.303 0.797)" fill="#1a2e35"/>
    <path id="Trazado_223" data-name="Trazado 223" d="M92.232,69.043c-.006-.169,1.848-.394,4.846-.626.759-.04,1.482-.154,1.634-.663a3.853,3.853,0,0,0-.392-2.262L96.375,59.63c-2.69-8.34-4.6-15.184-4.261-15.289s2.792,6.57,5.482,14.91q.967,3.084,1.849,5.891a4.377,4.377,0,0,1,.243,2.982,1.9,1.9,0,0,1-1.3,1.043,5.107,5.107,0,0,1-1.291.113c-3,.011-4.865-.068-4.868-.237" transform="translate(1.677 0.808)" fill="#1a2e35"/>
    <path id="Trazado_224" data-name="Trazado 224" d="M93.018,103.227a54.578,54.578,0,0,1-28.309-9.092S71.18,109.328,92.723,108.4Z" transform="translate(1.179 1.715)" fill="#ff9b6c"/>
    <path id="Trazado_225" data-name="Trazado 225" d="M90.81,75.578a5.333,5.333,0,0,0-4.677-2.218,4.868,4.868,0,0,0-3.45,1.633,3.087,3.087,0,0,0-.411,3.512A3.581,3.581,0,0,0,86.1,79.68a11.225,11.225,0,0,0,3.893-2.066,3.258,3.258,0,0,0,.888-.833.989.989,0,0,0,.051-1.1" transform="translate(1.492 1.336)" fill="#ff9b6c"/>
    <path id="Trazado_226" data-name="Trazado 226" d="M83.592,70.181c.482,0,.327,3.205,2.961,5.622s6.067,2.234,6.069,2.683c.035.2-.793.586-2.239.553a8,8,0,0,1-5.075-2.059,6.962,6.962,0,0,1-2.277-4.7c-.055-1.348.342-2.125.561-2.1" transform="translate(1.512 1.278)" fill="#1a2e35"/>
    <path id="Trazado_227" data-name="Trazado 227" d="M85.107,36.2c-.41.751-3.275-.073-6.77-.186-3.5-.182-6.418.4-6.764-.386-.151-.373.446-1.047,1.684-1.645a11.772,11.772,0,0,1,10.311.436c1.182.7,1.721,1.423,1.539,1.782" transform="translate(1.303 0.601)" fill="#1a2e35"/>
    <path id="Trazado_228" data-name="Trazado 228" d="M111.315,34.745c-.554.646-2.556-.153-5-.309-2.442-.241-4.546.223-4.988-.5-.192-.351.169-1.007,1.107-1.6a7.254,7.254,0,0,1,8.05.654c.832.733,1.08,1.439.835,1.755" transform="translate(1.845 0.572)" fill="#1a2e35"/>
    <path id="Trazado_229" data-name="Trazado 229" d="M48.95,63.893s15.143,4.713,23.712-32.662C75.593,18.45,87.44,8.1,87.44,8.1l-4.8-1.445S52.773,15.07,52.27,15.446s-7.534,15.444-7.534,15.444Z" transform="translate(0.815 0.121)" fill="#1a2e35"/>
    <path id="Trazado_230" data-name="Trazado 230" d="M52.818,61.611c.074-1.595-1.58-5.448-3.144-5.773C45.5,54.97,37.9,54.928,37.293,65.609c-.828,14.6,14,12.424,14.052,12.006.04-.325,1.209-10.494,1.473-16" transform="translate(0.679 1.011)" fill="#ffc09d"/>
    <path id="Trazado_231" data-name="Trazado 231" d="M47.131,71.747c-.061-.051-.265.163-.7.336a2.552,2.552,0,0,1-1.905-.068c-1.51-.654-2.67-3.177-2.591-5.813a8.4,8.4,0,0,1,.918-3.6,2.938,2.938,0,0,1,2.024-1.843,1.3,1.3,0,0,1,1.462.781c.172.421.063.707.138.735.039.04.328-.226.244-.835a1.624,1.624,0,0,0-.523-.949,1.929,1.929,0,0,0-1.386-.452,3.584,3.584,0,0,0-2.785,2.114,8.649,8.649,0,0,0-1.113,4.021c-.073,2.948,1.276,5.787,3.353,6.517a2.732,2.732,0,0,0,2.349-.255c.472-.334.567-.657.518-.686" transform="translate(0.745 1.094)" fill="#ff9b6c"/>
    <path id="Trazado_232" data-name="Trazado 232" d="M36.837,117.729a35.957,35.957,0,0,0,.322-5.1,79.118,79.118,0,0,0-1.415-13.87c-.52-2.9-1.091-6.071-1.7-9.474a90.559,90.559,0,0,1-1.308-10.943,44.671,44.671,0,0,1,.883-12.086,30.586,30.586,0,0,1,2.055-6.063,29.069,29.069,0,0,1,3.456-5.611,67.793,67.793,0,0,1,9.2-9.262c3.2-2.772,6.266-5.491,8.99-8.28A113.29,113.29,0,0,0,70.445,21.058,110.21,110.21,0,0,0,77.56,9.066c.747-1.468,1.3-2.62,1.655-3.412.174-.381.309-.678.408-.9a2.1,2.1,0,0,0,.126-.313,2.372,2.372,0,0,0-.164.294l-.443.881c-.377.78-.954,1.919-1.722,3.374a117.049,117.049,0,0,1-7.211,11.9,115.161,115.161,0,0,1-13.16,15.875c-2.724,2.775-5.779,5.474-8.986,8.244a67.789,67.789,0,0,0-9.256,9.313,29.4,29.4,0,0,0-3.5,5.689,30.969,30.969,0,0,0-2.076,6.145,44.8,44.8,0,0,0-.869,12.192,89.707,89.707,0,0,0,1.35,10.981L35.464,98.8A82.557,82.557,0,0,1,37,112.625c.02,1.643-.036,2.92-.093,3.784-.027.417-.049.743-.064.983a2.054,2.054,0,0,0-.008.337" transform="translate(0.588 0.081)" fill="#375a64"/>
    <path id="Trazado_233" data-name="Trazado 233" d="M32.221,119.078a35.957,35.957,0,0,0,.322-5.1,79.2,79.2,0,0,0-1.414-13.87c-.521-2.9-1.092-6.071-1.7-9.475a90.559,90.559,0,0,1-1.308-10.943A44.671,44.671,0,0,1,29,67.6a30.652,30.652,0,0,1,2.055-6.063,29.024,29.024,0,0,1,3.457-5.611,67.728,67.728,0,0,1,9.2-9.262c3.2-2.772,6.266-5.491,8.99-8.28A113.292,113.292,0,0,0,65.829,22.407a110.212,110.212,0,0,0,7.115-11.993c.747-1.468,1.3-2.62,1.656-3.412l.407-.9a1.945,1.945,0,0,0,.126-.312,2.3,2.3,0,0,0-.163.294c-.109.215-.256.507-.444.881-.377.78-.954,1.919-1.722,3.374a117.047,117.047,0,0,1-7.211,11.9,115.086,115.086,0,0,1-13.16,15.875c-2.724,2.775-5.779,5.474-8.986,8.244a67.726,67.726,0,0,0-9.255,9.313,29.35,29.35,0,0,0-3.5,5.689,30.97,30.97,0,0,0-2.076,6.145A44.844,44.844,0,0,0,27.746,79.7,89.905,89.905,0,0,0,29.1,90.686l1.751,9.467a82.535,82.535,0,0,1,1.539,13.821c.02,1.643-.036,2.92-.093,3.784-.027.416-.049.743-.064.983a2.055,2.055,0,0,0-.008.337" transform="translate(0.504 0.106)" fill="#375a64"/>
    <path id="Trazado_234" data-name="Trazado 234" d="M134.922,137.72c6.3,4.025,13.342,10.553,16.678,17.248,6.041,12.123,48.377,44.707,50.03,52.595,3.805,33.7-33.471,33.269-48.565,15.238-7.81-9.33-25.027-44.284-25.027-44.284Z" transform="translate(2.332 2.509)" fill="#375a64"/>
    <path id="Trazado_235" data-name="Trazado 235" d="M182.968,190.069s-27.983-45.053-33.476-51.357c-8.4-9.64-23.009-13.5-23.009-13.5l-3.147,59.074c-.19-.817,28.921,36.391,28.921,36.391s27.19-20.2,30.71-30.611" transform="translate(2.247 2.281)" fill="#375a64"/>
    <path id="Trazado_236" data-name="Trazado 236" d="M165.083,144.136l30.429,58.112a12.655,12.655,0,0,1-4.185,16.514l-.131.083c-11.674,7.378-27.141.177-29.706-13.392l-10.715-54.3Z" transform="translate(2.747 2.626)" fill="#ffc09d"/>
    <path id="Trazado_237" data-name="Trazado 237" d="M135.818,94.48l19.53,46.632-4.449,1.865L131.973,95.83Z" transform="translate(2.404 1.721)" fill="#375a64"/>
    <path id="Trazado_238" data-name="Trazado 238" d="M104.765,74.738c.168,13.03,10.091,23.579,22.163,23.561s21.723-10.6,21.555-23.628S138.393,51.092,126.321,51.11s-21.724,10.6-21.556,23.628" transform="translate(1.908 0.931)" fill="#ffc09d"/>
    <path id="Trazado_239" data-name="Trazado 239" d="M104.767,74.752a5.174,5.174,0,0,0,.221-1.493c.02-.244.044-.516.068-.816s.1-.622.159-.972a18.966,18.966,0,0,1,.482-2.395,23.5,23.5,0,0,1,2.414-6.117,22.355,22.355,0,0,1,5.417-6.462,20.2,20.2,0,0,1,8.9-4.205,18.244,18.244,0,0,1,2.672-.318c.456-.014.914-.061,1.378-.051l1.4.086c.234.019.471.017.706.053l.7.12c.47.087.949.147,1.421.255a21.462,21.462,0,0,1,2.819.9,21.745,21.745,0,0,1,2.759,1.311c.447.262.877.567,1.32.849a10.9,10.9,0,0,1,1.28.948,25.056,25.056,0,0,1,2.41,2.194,25.978,25.978,0,0,1,2.088,2.635,22.958,22.958,0,0,1,3.077,6.251,24.255,24.255,0,0,1,.186,14.318,22.421,22.421,0,0,1-2.915,6.263,25.1,25.1,0,0,1-2.022,2.641,24,24,0,0,1-2.354,2.2,10.47,10.47,0,0,1-1.255.952c-.436.284-.856.591-1.3.853a21.894,21.894,0,0,1-5.522,2.231c-.47.108-.947.17-1.415.258l-.7.123c-.234.036-.47.035-.7.054l-1.4.09c-.462.012-.923-.034-1.379-.046a18.433,18.433,0,0,1-2.681-.31A20.738,20.738,0,0,1,114,92.978a23.073,23.073,0,0,1-5.583-6.445,24.079,24.079,0,0,1-2.572-6.109,19.314,19.314,0,0,1-.543-2.393c-.064-.35-.14-.673-.183-.971s-.063-.571-.09-.816a5.24,5.24,0,0,0-.26-1.492,5.108,5.108,0,0,0-.08,1.515q0,.377.009.837c.018.308.067.64.107,1a17.257,17.257,0,0,0,.4,2.491,23.445,23.445,0,0,0,2.4,6.459,23.683,23.683,0,0,0,5.677,6.949,21.754,21.754,0,0,0,9.485,4.639,19.645,19.645,0,0,0,2.856.38c.487.022.977.075,1.472.071l1.495-.072c.25-.017.5-.015.754-.049l.753-.119c.5-.087,1.014-.149,1.52-.259a23.135,23.135,0,0,0,5.956-2.33c.477-.278.933-.6,1.4-.9a11.59,11.59,0,0,0,1.359-1.012A25.325,25.325,0,0,0,142.889,92a26.568,26.568,0,0,0,2.2-2.834,24.04,24.04,0,0,0,3.172-6.749,26.031,26.031,0,0,0-.2-15.464,24.669,24.669,0,0,0-3.345-6.737,27.481,27.481,0,0,0-2.268-2.826,26.393,26.393,0,0,0-2.61-2.345,11.934,11.934,0,0,0-1.385-1.008c-.479-.3-.944-.623-1.427-.9a23.628,23.628,0,0,0-6.015-2.31c-.509-.109-1.022-.169-1.527-.255l-.756-.117c-.251-.033-.505-.03-.757-.046l-1.5-.068c-.495,0-.985.052-1.47.075a19.3,19.3,0,0,0-2.846.389,21.157,21.157,0,0,0-9.365,4.666A23.559,23.559,0,0,0,105.057,68.9a17.249,17.249,0,0,0-.34,2.492c-.03.364-.07.7-.08,1s.008.585.012.837a5.143,5.143,0,0,0,.119,1.515" transform="translate(1.906 0.917)" fill="#1a2e35"/>
    <path id="Trazado_240" data-name="Trazado 240" d="M119.624,78A4.737,4.737,0,0,0,123.9,82.92a4.309,4.309,0,0,0,4.6-4.248,4.739,4.739,0,0,0-4.268-4.919A4.311,4.311,0,0,0,119.624,78" transform="translate(2.179 1.343)" fill="#1a2e35"/>
    <path id="Trazado_241" data-name="Trazado 241" d="M118.116,66.027c.55.635,3.928-2,8.716-1.9,4.78.022,8.286,2.742,8.807,2.117.257-.275-.3-1.415-1.827-2.643a11.77,11.77,0,0,0-7.049-2.469,11.039,11.039,0,0,0-6.939,2.3c-1.475,1.194-1.978,2.316-1.708,2.6" transform="translate(2.15 1.114)" fill="#1a2e35"/>
    <path id="Trazado_242" data-name="Trazado 242" d="M137.906,89.639c.112.181,1.608-.568,3.418-2.624a19.318,19.318,0,0,0,4.423-9.875,20.445,20.445,0,0,0-1.466-10.929c-1.151-2.585-2.364-3.818-2.521-3.685-.216.159.617,1.623,1.414,4.157a23.344,23.344,0,0,1,.9,10.158A22.233,22.233,0,0,1,140.4,86.18c-1.46,2.131-2.659,3.233-2.5,3.459" transform="translate(2.512 1.139)" fill="#fff"/>
    <path id="Trazado_243" data-name="Trazado 243" d="M132.148,92.781a.692.692,0,0,0,.595.542,1.864,1.864,0,0,0,1.288-.221,2.067,2.067,0,0,0,.924-.989.759.759,0,0,0-.063-.832c-.362-.331-1.02-.135-1.639.191-.61.344-1.141.8-1.1,1.308" transform="translate(2.407 1.66)" fill="#fff"/>
    <path id="Trazado_244" data-name="Trazado 244" d="M162.1,137.661s-8.778-23.267-10.041-24.477-14.244-12.089-14.244-12.089a6.9,6.9,0,0,0-3.983.544c-1.273.747-4.366,5.627-5.6,7.631a2.431,2.431,0,0,0-.281,1.848l1.406,4.612s-1.688,2.661-1.289,4.586a13.106,13.106,0,0,0,1.395,3.593,7.482,7.482,0,0,0-.59,5.4,7.275,7.275,0,0,0,3.566,3.894s.99,4.772,1.126,5.714,4.9,3.088,5.4,2.953,3.969-1.621,3.969-1.621,1.6,7.8,3.614,9.549a10.32,10.32,0,0,0,4.641,2.146l2.456,12.446,15.463-11.744Z" transform="translate(2.33 1.84)" fill="#ffc09d"/>
    <path id="Trazado_245" data-name="Trazado 245" d="M140.751,130.089a30.255,30.255,0,0,0-4.2,1.33,41.894,41.894,0,0,0-4.14,1.511,19.585,19.585,0,0,0,4.247-1.164,24.281,24.281,0,0,0,4.09-1.677" transform="translate(2.412 2.37)" fill="#ff9b6c"/>
    <path id="Trazado_246" data-name="Trazado 246" d="M140.685,120.584a7.664,7.664,0,0,0-1.728.24c-1.057.2-2.508.534-4.094.97s-3,.9-4.021,1.27a7.708,7.708,0,0,0-1.617.683,8.88,8.88,0,0,0,1.688-.436c1.031-.3,2.457-.726,4.037-1.163s3.017-.8,4.06-1.072a9.146,9.146,0,0,0,1.675-.493" transform="translate(2.354 2.196)" fill="#ff9b6c"/>
    <path id="Trazado_247" data-name="Trazado 247" d="M142.355,113.161a8.211,8.211,0,0,0-1.916-.051,32.332,32.332,0,0,0-4.593.512,32.723,32.723,0,0,0-4.486,1.155,8.289,8.289,0,0,0-1.784.731,12.8,12.8,0,0,0,1.852-.483c1.136-.318,2.714-.718,4.478-1.044s3.378-.508,4.55-.614a12.751,12.751,0,0,0,1.9-.207" transform="translate(2.36 2.06)" fill="#ff9b6c"/>
    <path id="Trazado_248" data-name="Trazado 248" d="M132.639,114.414a6.827,6.827,0,0,0,.38-3.418,3.455,3.455,0,0,0,2.824-1.01c.81,1.026,1.9,2.443,2.712,3.47Z" transform="translate(2.416 2.004)" fill="#375a64"/>
    <path id="Trazado_249" data-name="Trazado 249" d="M8.965,150.3c-.131.012,1.041,13.566,2.617,30.27s2.96,30.239,3.091,30.227-1.041-13.563-2.617-30.272S9.1,150.284,8.965,150.3" transform="translate(0.163 2.738)" fill="#1a2e35"/>
    <path id="Trazado_250" data-name="Trazado 250" d="M98.019,118.3l-4.271-6.819-22.483,18.16L49.287,108.2l-7,8.862,26.6,28.509Z" transform="translate(0.77 1.971)" fill="#375a64"/>
    <path id="Trazado_251" data-name="Trazado 251" d="M18.012,241.359H122.663c1.17-12.79,7.537-53.957,7.537-53.957l4.516-53.554-3.726-7.778L93.859,115.449S94.236,127,73.308,128.768s-23.554-14.149-23.554-14.149L6.072,129.541l12.077,111.5Z" transform="translate(0.111 2.088)" fill="#375a64"/>
    <path id="Trazado_252" data-name="Trazado 252" d="M71.526,131.063a6.412,6.412,0,0,0,.189,1.095c.151.706.394,1.732.753,3.017a65.18,65.18,0,0,0,3.817,10.2l.158.334.217-.3c1.782-2.466,3.77-5.185,5.881-8.028,4.121-5.551,7.936-10.513,10.716-14.091l3.289-4.24.883-1.163a2,2,0,0,0,.282-.426,2.094,2.094,0,0,0-.356.366c-.253.293-.568.659-.953,1.107-.817.969-1.986,2.383-3.408,4.147-2.849,3.526-6.71,8.459-10.834,14.016-2.113,2.845-4.092,5.575-5.855,8.057l.375.033A73.153,73.153,0,0,1,72.722,135.1c-.394-1.269-.677-2.282-.871-2.975a6.832,6.832,0,0,0-.326-1.061" transform="translate(1.303 2.14)" fill="#1a2e35"/>
    <path id="Trazado_253" data-name="Trazado 253" d="M43.345,118.077a1.6,1.6,0,0,0,.2.4c.175.3.387.666.642,1.108.575.951,1.431,2.314,2.55,3.959A106.747,106.747,0,0,0,56.4,135.707c2.329,2.527,4.649,4.81,6.759,6.732l.155.141.144-.149a28.789,28.789,0,0,0,5.185-7.35,24.8,24.8,0,0,0,1.006-2.345,4.3,4.3,0,0,0,.266-.869,4.943,4.943,0,0,0-.391.818c-.241.537-.6,1.319-1.11,2.28a30.526,30.526,0,0,1-5.261,7.166l.3-.007c-2.081-1.938-4.379-4.223-6.7-6.739a123.838,123.838,0,0,1-9.738-12.031c-1.152-1.615-2.048-2.947-2.67-3.866l-.718-1.059a1.627,1.627,0,0,0-.278-.352" transform="translate(0.79 2.151)" fill="#1a2e35"/>
    <path id="Trazado_254" data-name="Trazado 254" d="M70.689,241c.022-10.74.035-22.542.035-36.051,0-39.106-.107-70.8-.238-70.8s-.238,31.691-.238,70.8c0,13.511.013,25.314.036,36.055l.406,0" transform="translate(1.28 2.444)" fill="#1a2e35"/>
    <path id="Trazado_255" data-name="Trazado 255" d="M59.5,230.571c.03.128,9.137-1.848,20.34-4.414s20.266-4.751,20.236-4.879-9.135,1.848-20.342,4.415-20.264,4.75-20.234,4.878" transform="translate(1.084 4.031)" fill="#1a2e35"/>
    <path id="Trazado_256" data-name="Trazado 256" d="M0,260.563,16.166,214.5,7.312,129.261c-2.057.157-4.569,3.711-7.312,9.461Z" transform="translate(0 2.355)" fill="#375a64"/>
  </g>
</svg>
