<svg id="Punteria" xmlns="http://www.w3.org/2000/svg" xmlns:xlink="http://www.w3.org/1999/xlink" width="92.551" height="92.552" viewBox="0 0 92.551 92.552">
  <defs>
    <clipPath id="clip-path">
      <rect id="Rectángulo_110" data-name="Rectángulo 110" width="92.551" height="92.552" fill="#002f87"/>
    </clipPath>
  </defs>
  <g id="Grupo_73" data-name="Grupo 73" clip-path="url(#clip-path)">
    <path id="Trazado_318" data-name="Trazado 318" d="M59.22,52.439A6.78,6.78,0,1,0,66,59.22a6.788,6.788,0,0,0-6.781-6.781m0,11.013a4.232,4.232,0,1,1,4.232-4.232,4.237,4.237,0,0,1-4.232,4.232" transform="translate(-12.944 -12.944)" fill="#002f87"/>
    <path id="Trazado_319" data-name="Trazado 319" d="M91.276,45H86.032A39.827,39.827,0,0,0,47.549,6.518V1.274a1.275,1.275,0,0,0-2.549,0V6.518A39.826,39.826,0,0,0,6.518,45H1.274a1.274,1.274,0,0,0,0,2.548H6.518A39.825,39.825,0,0,0,45,86.032v5.244a1.275,1.275,0,1,0,2.549,0V86.032A39.826,39.826,0,0,0,86.032,47.549h5.243a1.274,1.274,0,1,0,0-2.548m-7.793,0H74.551a28.344,28.344,0,0,0-27-27V9.067A37.275,37.275,0,0,1,83.483,45M57.1,47.549h3.787A14.685,14.685,0,0,1,47.549,60.884V56.877a1.275,1.275,0,0,0-2.549,0v4.008A14.685,14.685,0,0,1,31.666,47.549H35.65a1.274,1.274,0,1,0,0-2.548H31.666A14.684,14.684,0,0,1,45,31.667v3.766a1.275,1.275,0,0,0,2.549,0V31.667A14.684,14.684,0,0,1,60.883,45H57.1a1.274,1.274,0,0,0,0,2.548M45,29.1A17.243,17.243,0,0,0,29.1,45H20.547A25.8,25.8,0,0,1,45,20.549ZM29.1,47.549A17.242,17.242,0,0,0,45,63.445V72A25.8,25.8,0,0,1,20.547,47.549Zm18.444,15.9a17.242,17.242,0,0,0,15.9-15.9H72A25.8,25.8,0,0,1,47.549,72ZM63.445,45a17.244,17.244,0,0,0-15.9-15.9V20.549A25.793,25.793,0,0,1,72,45ZM45,9.067V18A28.342,28.342,0,0,0,18,45H9.067A37.275,37.275,0,0,1,45,9.067M9.067,47.549H18a28.34,28.34,0,0,0,27,27v8.932A37.274,37.274,0,0,1,9.067,47.549M47.549,83.483V74.551a28.342,28.342,0,0,0,27-27h8.932A37.275,37.275,0,0,1,47.549,83.483" fill="#002f87"/>
  </g>
</svg>
