<svg id="Calendario" xmlns="http://www.w3.org/2000/svg" xmlns:xlink="http://www.w3.org/1999/xlink" width="88.218" height="74.282" viewBox="0 0 88.218 74.282">
  <defs>
    <clipPath id="clip-path">
      <rect id="Rectángulo_105" data-name="Rectángulo 105" width="88.218" height="74.282" fill="#002f87"/>
    </clipPath>
  </defs>
  <g id="Grupo_63" data-name="Grupo 63" clip-path="url(#clip-path)">
    <path id="Trazado_290" data-name="Trazado 290" d="M86.8,5.257H80.458V1.415a1.416,1.416,0,0,0-2.833,0V5.257H72.694V1.415a1.416,1.416,0,0,0-2.832,0V5.257H64.933V1.415a1.417,1.417,0,0,0-2.834,0V5.257H57.17V1.415a1.416,1.416,0,0,0-2.833,0V5.257H49.406V1.415a1.416,1.416,0,0,0-2.832,0V5.257H41.645V1.415a1.417,1.417,0,0,0-2.834,0V5.257h-4.93V1.415a1.416,1.416,0,0,0-2.831,0V5.257H26.119V1.415a1.416,1.416,0,0,0-2.831,0V5.257H18.357V1.415a1.417,1.417,0,0,0-2.834,0V5.257h-4.93V1.415a1.416,1.416,0,0,0-2.831,0V5.257H1.416A1.416,1.416,0,0,0,0,6.673V72.867a1.414,1.414,0,0,0,1.416,1.415H86.8a1.414,1.414,0,0,0,1.415-1.415V6.673A1.416,1.416,0,0,0,86.8,5.257M85.387,71.451H2.831V8.09H7.762v3.578a1.416,1.416,0,0,0,2.831,0V8.09h4.93v3.578a1.417,1.417,0,0,0,2.834,0V8.09h4.931v3.578a1.416,1.416,0,0,0,2.831,0V8.09H31.05v3.578a1.416,1.416,0,0,0,2.831,0V8.09h4.93v3.578a1.417,1.417,0,0,0,2.834,0V8.09h4.929v3.578a1.416,1.416,0,0,0,2.832,0V8.09h4.931v3.578a1.416,1.416,0,0,0,2.833,0V8.09H62.1v3.578a1.417,1.417,0,0,0,2.834,0V8.09h4.929v3.578a1.416,1.416,0,0,0,2.832,0V8.09h4.931v3.578a1.416,1.416,0,0,0,2.833,0V8.09h4.93Z" fill="#002f87"/>
    <path id="Trazado_291" data-name="Trazado 291" d="M62.14,30.988H54.271A1.414,1.414,0,0,0,52.855,32.4v7.871a1.415,1.415,0,0,0,1.416,1.415H62.14a1.416,1.416,0,0,0,1.418-1.415V32.4a1.416,1.416,0,0,0-1.418-1.416m-1.415,7.871H55.687V33.82h5.037Z" transform="translate(-14.335 -8.404)" fill="#002f87"/>
    <path id="Trazado_292" data-name="Trazado 292" d="M83.575,30.988H75.707A1.416,1.416,0,0,0,74.289,32.4v7.871a1.417,1.417,0,0,0,1.418,1.415h7.869a1.415,1.415,0,0,0,1.416-1.415V32.4a1.414,1.414,0,0,0-1.416-1.416M82.16,38.859H77.123V33.82H82.16Z" transform="translate(-20.148 -8.404)" fill="#002f87"/>
    <path id="Trazado_293" data-name="Trazado 293" d="M105.012,30.988H97.141A1.415,1.415,0,0,0,95.726,32.4v7.871a1.416,1.416,0,0,0,1.415,1.415h7.871a1.415,1.415,0,0,0,1.415-1.415V32.4a1.414,1.414,0,0,0-1.415-1.416M103.6,38.859H98.559V33.82H103.6Z" transform="translate(-25.961 -8.404)" fill="#002f87"/>
    <path id="Trazado_294" data-name="Trazado 294" d="M19.268,52.588H11.4A1.416,1.416,0,0,0,9.98,54v7.871A1.416,1.416,0,0,0,11.4,63.29h7.872a1.416,1.416,0,0,0,1.415-1.415V54a1.416,1.416,0,0,0-1.415-1.415m-1.418,7.87H12.812V55.419h5.039Z" transform="translate(-2.707 -14.262)" fill="#002f87"/>
    <path id="Trazado_295" data-name="Trazado 295" d="M40.7,52.588H32.832A1.415,1.415,0,0,0,31.417,54v7.871a1.415,1.415,0,0,0,1.415,1.415H40.7a1.416,1.416,0,0,0,1.416-1.415V54A1.416,1.416,0,0,0,40.7,52.588m-1.418,7.87H34.248V55.419h5.039Z" transform="translate(-8.52 -14.262)" fill="#002f87"/>
    <path id="Trazado_296" data-name="Trazado 296" d="M62.14,52.588H54.271A1.415,1.415,0,0,0,52.855,54v7.871a1.415,1.415,0,0,0,1.416,1.415H62.14a1.416,1.416,0,0,0,1.418-1.415V54a1.416,1.416,0,0,0-1.418-1.415m-1.415,7.87H55.687V55.419h5.037Z" transform="translate(-14.335 -14.262)" fill="#002f87"/>
    <path id="Trazado_297" data-name="Trazado 297" d="M83.575,52.588H75.707A1.417,1.417,0,0,0,74.289,54v7.871a1.417,1.417,0,0,0,1.418,1.415h7.869a1.415,1.415,0,0,0,1.416-1.415V54a1.415,1.415,0,0,0-1.416-1.415m-1.415,7.87H77.123V55.419H82.16Z" transform="translate(-20.148 -14.262)" fill="#002f87"/>
    <path id="Trazado_298" data-name="Trazado 298" d="M105.012,52.588H97.141A1.416,1.416,0,0,0,95.726,54v7.871a1.416,1.416,0,0,0,1.415,1.415h7.871a1.415,1.415,0,0,0,1.415-1.415V54a1.415,1.415,0,0,0-1.415-1.415m-1.416,7.87H98.559V55.419H103.6Z" transform="translate(-25.961 -14.262)" fill="#002f87"/>
    <path id="Trazado_299" data-name="Trazado 299" d="M19.268,74.187H11.4A1.416,1.416,0,0,0,9.98,75.6v7.871A1.417,1.417,0,0,0,11.4,84.891h7.872a1.416,1.416,0,0,0,1.415-1.418V75.6a1.416,1.416,0,0,0-1.415-1.415m-1.418,7.871H12.812V77.021h5.039Z" transform="translate(-2.707 -20.12)" fill="#002f87"/>
    <path id="Trazado_300" data-name="Trazado 300" d="M40.7,74.187H32.832A1.415,1.415,0,0,0,31.417,75.6v7.871a1.415,1.415,0,0,0,1.415,1.418H40.7a1.417,1.417,0,0,0,1.416-1.418V75.6A1.416,1.416,0,0,0,40.7,74.187m-1.418,7.871H34.248V77.021h5.039Z" transform="translate(-8.52 -20.12)" fill="#002f87"/>
    <path id="Trazado_301" data-name="Trazado 301" d="M62.14,74.187H54.271A1.415,1.415,0,0,0,52.855,75.6v7.871a1.416,1.416,0,0,0,1.416,1.418H62.14a1.417,1.417,0,0,0,1.418-1.418V75.6a1.416,1.416,0,0,0-1.418-1.415m-1.415,7.871H55.687V77.021h5.037Z" transform="translate(-14.335 -20.12)" fill="#002f87"/>
    <path id="Trazado_302" data-name="Trazado 302" d="M83.575,74.187H75.707A1.417,1.417,0,0,0,74.289,75.6v7.871a1.417,1.417,0,0,0,1.418,1.418h7.869a1.416,1.416,0,0,0,1.416-1.418V75.6a1.415,1.415,0,0,0-1.416-1.415M82.16,82.058H77.123V77.021H82.16Z" transform="translate(-20.148 -20.12)" fill="#002f87"/>
  </g>
</svg>
