<svg xmlns="http://www.w3.org/2000/svg" xmlns:xlink="http://www.w3.org/1999/xlink" width="375" height="77" viewBox="0 0 375 77">
  <defs>
    <clipPath id="clip-path">
      <rect id="Rect치ngulo_122" data-name="Rect치ngulo 122" width="17.913" height="10.933" fill="#009345"/>
    </clipPath>
  </defs>
  <g id="libro-verdeTel" transform="translate(0 -462)">
    <rect id="Rect치ngulo_113" data-name="Rect치ngulo 113" width="375" height="77" transform="translate(0 462)" fill="#d6de23"/>
    <text id="En_caso_de_reaseguradora_" data-name="En caso de 
reaseguradora
" transform="translate(202 497)" fill="#009345" font-size="20" font-family="Poppins-Bold, Poppins" font-weight="700"><tspan x="-56.25" y="0">En caso de </tspan><tspan x="-77.8" y="14">reaseguradora</tspan><tspan x="0" y="28"></tspan></text>
    <g id="Grupo_82" data-name="Grupo 82" transform="translate(-640.621 178.964)">
      <path id="Trazado_237" data-name="Trazado 237" d="M519.032,30.08A30.08,30.08,0,1,1,488.952,0a30.08,30.08,0,0,1,30.08,30.08" transform="translate(240.128 291.036)" fill="#37b34a"/>
      <path id="Trazado_238" data-name="Trazado 238" d="M511.728,43.725l-4.985,21.046-.076.043-.008.036-.148.085c-.019.06-.026.1-.03.1s-.038.018-.1.057a.634.634,0,0,1-.038.128l-.1.06a1.133,1.133,0,0,1-.038.128s-.038.021-.1.06c-.023.078-.038.124-.038.128s-.038.021-.1.06a.737.737,0,0,1-.038.128l-.1.06c-.023.078-.034.124-.038.128l-.1.057a.715.715,0,0,1-.038.131s-.034.021-.1.057c-.023.082-.034.128-.038.131l-.1.057c-.023.082-.034.128-.038.131l-.1.057a.7.7,0,0,1-.038.131s-.034.021-.1.057c-.023.082-.034.128-.038.131l-.1.057a.706.706,0,0,1-.038.131s-.034.021-.1.057c-.023.082-.034.128-.038.131s-.038.021-.1.053a.964.964,0,0,1-.034.135s-.038.018-.1.053a.7.7,0,0,1-.038.135l-.1.053a1.372,1.372,0,0,1-.038.135s-.038.018-.1.053a.818.818,0,0,1-.038.135l-.1.053c-.023.082-.034.131-.038.135s-.038.018-.1.053a1.221,1.221,0,0,1-.034.135s-.038.018-.1.053a.841.841,0,0,1-.038.135l-.1.053a1.134,1.134,0,0,1-.038.131s-.038.021-.1.053a.6.6,0,0,1-.038.135s-.034.021-.1.053a1.366,1.366,0,0,1-.038.135s-.038.021-.1.053a.979.979,0,0,1-.034.135s-.038.021-.1.053a.709.709,0,0,1-.038.135s-.038.021-.1.053a.973.973,0,0,1-.034.135s-.038.021-.1.053c-.019.085-.034.131-.034.135s-.038.018-.1.053a1.356,1.356,0,0,1-.038.135s-.038.018-.1.053a.967.967,0,0,1-.034.135l-.1.05a.7.7,0,0,1-.038.139l-.1.05a1.132,1.132,0,0,1-.034.139l-.1.05c-.019.085-.034.135-.034.139l-.1.05c-.023.085-.034.135-.038.139l-.1.05a1.1,1.1,0,0,1-.034.139l-.1.05a.812.812,0,0,1-.038.139l-.1.05a1.156,1.156,0,0,1-.034.139l-.1.05c-.019.085-.034.135-.034.139s-.038.018-.106.046a1.133,1.133,0,0,1-.034.142l-.1.046a1.121,1.121,0,0,1-.034.142l-.1.046a1.031,1.031,0,0,1-.038.139s-.038.021-.1.05a.827.827,0,0,1-.034.139l-.1.05a.817.817,0,0,1-.034.139l-.106.05a.83.83,0,0,1-.034.139l-.1.05a.95.95,0,0,1-.034.139l-.1.05c-.023.085-.034.135-.034.139s-.042.018-.106.05a1.131,1.131,0,0,1-.034.139l-.1.046a1.119,1.119,0,0,1-.034.142s-.038.018-.106.046a1.116,1.116,0,0,1-.034.142l-.1.046a1.1,1.1,0,0,1-.034.142s-.038.018-.106.046c-.019.089-.03.139-.03.142l-.106.046a1.129,1.129,0,0,1-.034.142l-.1.046a1.112,1.112,0,0,1-.034.142s-.038.018-.106.046a1.12,1.12,0,0,1-.034.142l-.1.046a1.105,1.105,0,0,1-.034.142s-.038.014-.106.043c-.019.092-.03.142-.03.146s-.042.014-.106.043a1.09,1.09,0,0,1-.034.146s-.038.014-.106.043a.821.821,0,0,1-.03.146s-.042.014-.106.043a1.093,1.093,0,0,1-.034.146s-.038.014-.1.043a1.066,1.066,0,0,1-.034.146s-.038.014-.106.043l-.03.142-.106.046a.941.941,0,0,1-.034.142s-.038.018-.106.046a.75.75,0,0,1-.03.142s-.042.018-.106.043a.945.945,0,0,1-.034.146s-.038.018-.106.043a.84.84,0,0,1-.03.146s-.038.018-.106.043c-.019.092-.03.142-.03.146s-.042.018-.106.043a1.066,1.066,0,0,1-.034.146s-.038.018-.106.043a.859.859,0,0,1-.03.146s-.042.018-.106.043c-.019.092-.03.142-.03.146s-.042.014-.11.043a.837.837,0,0,1-.03.146l-.106.043c-.019.092-.026.142-.03.146s-.042.014-.106.043a1.088,1.088,0,0,1-.034.146l-.106.039a.852.852,0,0,1-.03.149s-.042.014-.106.039c-.019.1-.03.146-.03.149l-.11.039a.962.962,0,0,1-.03.149l-.106.039c-.019.092-.026.146-.03.149l-.11.039a.958.958,0,0,1-.03.149l-.106.039a.955.955,0,0,1-.03.149s-.042.014-.106.039c-.019.092-.03.146-.03.149l-.11.039a.757.757,0,0,1-.03.146s-.038.018-.106.043a1.481,1.481,0,0,1-.03.146s-.042.018-.11.039a.754.754,0,0,1-.03.149.92.92,0,0,1-.106.039,1.414,1.414,0,0,1-.03.149l-.11.039c-.015.1-.026.149-.026.149l-.11.039a.756.756,0,0,1-.03.149s-.042.014-.106.039c-.019.1-.026.146-.03.149l-.11.039c-.015.1-.026.146-.026.149l-.11.039c-.019.1-.026.146-.03.149l-.11.039c-.015.1-.027.146-.027.149l-.11.039a.962.962,0,0,1-.03.149l-.106.036c-.019.1-.026.149-.03.153l-.11.036c-.015.1-.026.149-.026.153l-.11.036c-.019.1-.026.149-.03.153l-.11.036c-.015.1-.026.149-.026.153l-.11.035a.965.965,0,0,1-.03.153l-.11.036a1.379,1.379,0,0,1-.026.153s-.042.011-.11.036c-.015.1-.026.149-.026.153s-.042.011-.11.036c-.019.1-.026.149-.03.153s-.042.011-.11.036a1.408,1.408,0,0,1-.026.153s-.042.011-.11.032a.773.773,0,0,1-.03.153l-.11.036a1.066,1.066,0,0,1-.027.153l-.11.036c-.015.1-.026.153-.026.153s-.042.014-.113.036a1.046,1.046,0,0,1-.027.153l-.11.036a1.205,1.205,0,0,1-.027.153l-.11.036a.85.85,0,0,1-.03.153l-.11.036a1.2,1.2,0,0,1-.026.153l-.11.036c-.015.1-.027.149-.027.153s-.042.014-.113.035a1.368,1.368,0,0,1-.027.153s-.042.014-.11.032a1.351,1.351,0,0,1-.027.156s-.042.014-.113.032c-.011.1-.023.153-.023.156s-.045.011-.113.032a1.392,1.392,0,0,1-.026.156s-.042.011-.11.032c-.015.1-.027.153-.027.156s-.042.011-.113.032a1.388,1.388,0,0,1-.026.156s-.042.011-.11.032a1.336,1.336,0,0,1-.027.156s-.042.011-.113.032c-.011.1-.023.153-.023.156s-.045.011-.113.032a1.343,1.343,0,0,1-.027.156s-.042.011-.113.032c-.011.1-.023.153-.023.156s-.045.011-.113.032c-.015.092-.023.142-.026.153h-.026c-17.461,0-31.617-13.3-31.617-29.7a28.078,28.078,0,0,1,.17-3.1c.023,0,.049,0,.079,0a1.062,1.062,0,0,1-.015-.149l.17-.007a.624.624,0,0,1-.015-.149l.17-.007c-.015-.1-.019-.149-.019-.149l.17-.007a1.064,1.064,0,0,1-.015-.149l.17-.007a1.042,1.042,0,0,1-.015-.153s.064,0,.17,0a.644.644,0,0,1-.015-.153s.064,0,.17,0c-.015-.1-.019-.149-.019-.153s.064,0,.174,0a.865.865,0,0,1-.019-.153s.064,0,.17,0a1.049,1.049,0,0,1-.015-.153s.064,0,.17,0a.644.644,0,0,1-.015-.153s.064,0,.17,0a.642.642,0,0,1-.015-.153s.064,0,.17,0a.823.823,0,0,1-.019-.153l.17-.007a.963.963,0,0,1-.015-.149l.17-.007a1,1,0,0,1-.015-.149l.17-.007a.619.619,0,0,1-.015-.149l.17-.007c-.015-.1-.019-.146-.019-.149l.174-.007a.824.824,0,0,1-.019-.149l.17-.007a1.058,1.058,0,0,1-.015-.149l.17-.007a.617.617,0,0,1-.015-.149l.17-.007c-.015-.1-.019-.146-.019-.149l.174-.007a.817.817,0,0,1-.019-.149l.174-.007a.867.867,0,0,1-.019-.149l.17-.007a1.07,1.07,0,0,1-.015-.149l.17-.007a.629.629,0,0,1-.015-.149l.17-.007a.834.834,0,0,1-.019-.153s.064,0,.174,0a.843.843,0,0,1-.019-.153s.064,0,.174,0a.83.83,0,0,1-.019-.153s.064,0,.17,0a.642.642,0,0,1-.015-.153s.064,0,.17,0a.843.843,0,0,1-.019-.153s.068,0,.174,0a.852.852,0,0,1-.019-.153l.174-.007a.8.8,0,0,1-.019-.149l.174-.007a.53.53,0,0,1-.019-.149l.17-.007c-.015-.092-.019-.146-.019-.149l.174-.007a.829.829,0,0,1-.019-.149l.174-.007a.822.822,0,0,1-.019-.149l.174-.007a.822.822,0,0,1-.019-.149l.174-.007a.543.543,0,0,1-.019-.149l.17-.007a.834.834,0,0,1-.019-.149l.174-.007a.832.832,0,0,1-.019-.149l.174-.007a.837.837,0,0,1-.019-.149l.174-.007a.542.542,0,0,1-.019-.149l.17-.007a.829.829,0,0,1-.019-.149l.174-.007a.809.809,0,0,1-.019-.149l.174-.007a.854.854,0,0,1-.019-.149s.064-.007.174-.007a.846.846,0,0,1-.019-.153s.064,0,.174,0a.712.712,0,0,1-.023-.153s.068,0,.174,0a.833.833,0,0,1-.019-.153l.174-.007a.8.8,0,0,1-.019-.149l.174-.007a.78.78,0,0,1-.019-.149l.174-.007a.532.532,0,0,1-.019-.149l.174-.007a.662.662,0,0,1-.023-.149l.174-.007a.789.789,0,0,1-.019-.149l.174-.007a.8.8,0,0,1-.019-.149l.174-.007a.8.8,0,0,1-.019-.149l.174-.007a.665.665,0,0,1-.023-.149l.178-.007a.7.7,0,0,1-.023-.149l.174-.007a.829.829,0,0,1-.019-.149l.174-.007a.816.816,0,0,1-.019-.149l.174-.007a.7.7,0,0,1-.023-.149l.178-.007a.688.688,0,0,1-.023-.149l.178-.007a.694.694,0,0,1-.023-.149l.174-.007a.835.835,0,0,1-.019-.149l.174-.007a.84.84,0,0,1-.019-.149s.064-.007.174-.007a.7.7,0,0,1-.023-.149s.068-.007.178-.007a.706.706,0,0,1-.023-.149l.129-.007-.015-.075s.038,0,.1,0l-.015-.075a5.96,5.96,0,0,1,2.356.3.338.338,0,0,0,.064.032l4.64-1.467s11.747,1.073,13.838,5.918c.045-.043.083-.082.129-.121s.1-.1.159-.149.1-.1.159-.149.1-.1.155-.149l.159-.149c.053-.05.1-.1.159-.146s.1-.1.159-.149.1-.1.159-.149.1-.1.155-.149.106-.1.159-.149a7.384,7.384,0,0,1,.7-.593c3.9-3.108,12.178-3.865,12.178-3.865l4.743,1.5c.057-.032.1-.053.125-.067a5.982,5.982,0,0,1,2.36-.3" transform="translate(240.128 264.345)" fill="#009345"/>
      <path id="Trazado_239" data-name="Trazado 239" d="M492.34,44.211l4.8-1.618s13.528,1.313,14.182,7.484v6.171Z" transform="translate(219.28 264.515)" fill="#fff"/>
      <path id="Trazado_240" data-name="Trazado 240" d="M561.353,44.211l-4.8-1.618s-13.527,1.313-14.182,7.484v6.171Z" transform="translate(188.115 264.515)" fill="#fff"/>
      <path id="Trazado_241" data-name="Trazado 241" d="M526.656,46.091c-.807.43-16.349,9.143-16.349,9.143a4.708,4.708,0,0,1-5.271,0s-15.542-8.712-16.349-9.143a5.624,5.624,0,0,0-2.366-.323l5,22.48s12.961,8.228,14.036,8.874a3.537,3.537,0,0,0,4.625,0c1.076-.645,14.036-8.874,14.036-8.874l5-22.48a5.624,5.624,0,0,0-2.366.323" transform="translate(222.833 262.482)" fill="#d6de23"/>
      <path id="Trazado_242" data-name="Trazado 242" d="M540.026,68.913l-.656,22.01c-.547.343-.929.581-1.078.67a3.537,3.537,0,0,1-4.625,0c-.128-.076-.419-.257-.837-.518l-.868-22.143,1.381.774a4.714,4.714,0,0,0,5.271,0l1.413-.793" transform="translate(194.634 248.087)" fill="#79aa2b"/>
      <path id="Trazado_243" data-name="Trazado 243" d="M516.511,56.041s-3.164-3.1-6.5-3.414c0,0,4.727,1.51,6.5,3.414" transform="translate(208.299 258.287)" fill="#b0bdc8"/>
      <path id="Trazado_244" data-name="Trazado 244" d="M510.011,48.475s6.171,1.575,7.878,4c0,0-1.247-2.823-7.878-4" transform="translate(208.298 260.87)" fill="#b0bdc8"/>
      <path id="Trazado_245" data-name="Trazado 245" d="M561.854,46.757s-8.053,1.313-10.5,5.165c0,0,3.151-3.414,10.5-5.165" transform="translate(182.558 261.938)" fill="#b0bdc8"/>
      <path id="Trazado_246" data-name="Trazado 246" d="M557.129,56.059a9.3,9.3,0,0,1,5.117-2.768s-4.5,1.542-5.117,2.768" transform="translate(178.979 257.875)" fill="#b0bdc8"/>
    </g>
    <g id="Grupo_98" data-name="Grupo 98" transform="translate(303.4 495)">
      <g id="Grupo_95" data-name="Grupo 95" transform="translate(0 0)" clip-path="url(#clip-path)">
        <path id="Trazado_290" data-name="Trazado 290" d="M17.359.533A1.846,1.846,0,0,0,16.057,0a1.868,1.868,0,0,0-1.324.555L8.957,6.429,3.18.555A1.856,1.856,0,0,0,.555.533,1.856,1.856,0,0,0,.533,3.159l7.1,7.22a1.857,1.857,0,0,0,2.648,0l7.1-7.217a1.857,1.857,0,0,0-.02-2.628" transform="translate(0 0)" fill="#009345"/>
      </g>
    </g>
  </g>
</svg>
