<svg xmlns="http://www.w3.org/2000/svg" xmlns:xlink="http://www.w3.org/1999/xlink" width="375" height="77" viewBox="0 0 375 77">
  <defs>
    <clipPath id="clip-path">
      <rect id="Rectángulo_122" data-name="Rectángulo 122" width="17.913" height="10.933" fill="#16246d"/>
    </clipPath>
  </defs>
  <g id="libro-azulTel" transform="translate(0 -308)">
    <rect id="Rectángulo_110" data-name="Rectángulo 110" width="375" height="77" transform="translate(0 308)" fill="#00adee"/>
    <g id="Grupo_53" data-name="Grupo 53" transform="translate(57.379 316)">
      <path id="Trazado_217" data-name="Trazado 217" d="M60.156,30.078A30.078,30.078,0,1,1,30.077,0,30.078,30.078,0,0,1,60.156,30.078" transform="translate(0.001)" fill="#2b388f"/>
      <path id="Trazado_218" data-name="Trazado 218" d="M50.28,43.74,45.538,65.055l-.072.043-.007.036-.14.086c-.018.061-.025.1-.029.1s-.036.018-.1.058a.661.661,0,0,1-.036.13l-.094.061a1.246,1.246,0,0,1-.036.13s-.036.022-.094.061c-.022.079-.036.126-.036.13s-.036.022-.1.061a.775.775,0,0,1-.036.13l-.094.061c-.022.079-.032.126-.036.13l-.1.058a.762.762,0,0,1-.036.133s-.032.022-.094.058c-.022.083-.032.13-.036.133l-.094.058c-.022.083-.032.13-.036.133l-.1.058a.761.761,0,0,1-.036.133s-.032.022-.094.058c-.022.083-.032.13-.036.133l-.1.058a.761.761,0,0,1-.036.133s-.032.022-.094.058c-.022.083-.032.13-.036.133s-.036.022-.1.054a1.039,1.039,0,0,1-.032.137s-.036.018-.1.054a.752.752,0,0,1-.036.137l-.094.054c-.022.086-.032.133-.036.137s-.036.018-.1.054a.877.877,0,0,1-.036.137l-.094.054c-.022.083-.032.133-.036.137s-.036.018-.1.054a1.268,1.268,0,0,1-.032.137s-.036.018-.1.054a.878.878,0,0,1-.036.137L42.707,69a1.182,1.182,0,0,1-.036.133s-.036.022-.1.054a.652.652,0,0,1-.036.137s-.032.022-.094.054c-.022.086-.032.133-.036.137s-.036.022-.1.054a1.039,1.039,0,0,1-.032.137s-.036.022-.1.054a.751.751,0,0,1-.036.137s-.036.022-.1.054a1.041,1.041,0,0,1-.032.137s-.036.022-.1.054c-.018.086-.032.133-.032.137s-.036.018-.1.054c-.022.086-.032.133-.036.137s-.036.018-.1.054a1.039,1.039,0,0,1-.032.137l-.1.05a.744.744,0,0,1-.036.14l-.1.05a1.22,1.22,0,0,1-.032.14l-.1.05c-.018.086-.032.137-.032.14l-.1.05c-.022.086-.032.137-.036.14l-.1.05a1.221,1.221,0,0,1-.032.14l-.1.05a.861.861,0,0,1-.036.14l-.1.05a1.221,1.221,0,0,1-.032.14l-.1.05c-.018.086-.032.137-.032.14s-.036.018-.1.047a1.186,1.186,0,0,1-.032.144l-.1.047a1.186,1.186,0,0,1-.032.144l-.1.047a1.1,1.1,0,0,1-.036.14s-.036.022-.1.05a.866.866,0,0,1-.032.14l-.1.05a.867.867,0,0,1-.032.14l-.1.05a.867.867,0,0,1-.032.14l-.1.05a1.017,1.017,0,0,1-.032.14l-.1.05c-.022.086-.032.137-.032.14s-.04.018-.1.05a1.221,1.221,0,0,1-.032.14l-.1.047a1.188,1.188,0,0,1-.032.144s-.036.018-.1.047a1.187,1.187,0,0,1-.032.144l-.1.047a1.185,1.185,0,0,1-.032.144s-.036.018-.1.047c-.018.09-.029.14-.029.144l-.1.047a1.185,1.185,0,0,1-.032.144l-.1.047a1.187,1.187,0,0,1-.032.144s-.036.018-.1.047a1.186,1.186,0,0,1-.032.144l-.1.047a1.186,1.186,0,0,1-.032.144s-.036.014-.1.043c-.018.094-.029.144-.029.147s-.04.014-.1.043a1.157,1.157,0,0,1-.032.147s-.036.014-.1.043a.906.906,0,0,1-.029.148s-.04.014-.1.043a1.158,1.158,0,0,1-.032.148s-.036.014-.1.043a1.158,1.158,0,0,1-.032.147s-.036.014-.1.043l-.029.144-.1.047a1,1,0,0,1-.032.144s-.036.018-.1.047a.8.8,0,0,1-.029.144s-.04.018-.1.043a.99.99,0,0,1-.032.147s-.036.018-.1.043a.906.906,0,0,1-.029.147s-.036.018-.1.043c-.018.094-.029.144-.029.148s-.04.018-.1.043a1.161,1.161,0,0,1-.032.147s-.036.018-.1.043a.907.907,0,0,1-.029.147s-.04.018-.1.043c-.018.094-.029.144-.029.148s-.04.014-.1.043a.907.907,0,0,1-.029.148s-.036.014-.1.043c-.018.094-.025.144-.029.148s-.04.014-.1.043a1.16,1.16,0,0,1-.032.147l-.1.04a.907.907,0,0,1-.029.151s-.04.014-.1.04c-.018.1-.029.148-.029.151l-.1.04a1.023,1.023,0,0,1-.029.151l-.1.04c-.018.094-.025.147-.029.151l-.1.04a1.023,1.023,0,0,1-.029.151l-.1.04a1.023,1.023,0,0,1-.029.151s-.04.014-.1.04c-.018.094-.029.147-.029.151l-.1.04a.8.8,0,0,1-.029.147s-.036.018-.1.043c-.018.094-.025.147-.029.147s-.04.018-.1.04a.808.808,0,0,1-.029.151.848.848,0,0,1-.1.04,1.508,1.508,0,0,1-.029.151l-.1.04c-.014.1-.025.151-.025.151l-.1.04a.809.809,0,0,1-.029.151s-.04.014-.1.04c-.018.1-.025.147-.029.151l-.1.04c-.014.1-.025.147-.025.151l-.1.04c-.018.1-.025.148-.029.151l-.1.04c-.014.1-.025.147-.025.151l-.1.04a1.022,1.022,0,0,1-.029.151l-.1.036c-.018.1-.025.151-.029.155l-.1.036c-.014.1-.025.151-.025.155l-.1.036c-.018.1-.025.151-.029.155l-.1.036c-.014.1-.025.151-.025.155l-.1.036a1.017,1.017,0,0,1-.029.155l-.1.036a1.493,1.493,0,0,1-.025.155s-.04.011-.1.036c-.014.1-.025.151-.025.155s-.04.011-.1.036c-.018.1-.025.151-.029.155s-.04.011-.1.036a1.491,1.491,0,0,1-.025.155s-.04.011-.1.032a.813.813,0,0,1-.029.155l-.1.036a1.134,1.134,0,0,1-.025.155l-.1.036c-.014.1-.025.155-.025.155s-.04.014-.108.036a1.134,1.134,0,0,1-.025.155l-.1.036a1.292,1.292,0,0,1-.025.155l-.1.036a.906.906,0,0,1-.029.155l-.1.036a1.293,1.293,0,0,1-.025.155l-.1.036c-.014.1-.025.151-.025.155s-.04.014-.108.036a1.494,1.494,0,0,1-.025.155s-.04.014-.1.032a1.471,1.471,0,0,1-.025.158s-.04.014-.108.032c-.011.1-.022.155-.022.158s-.043.011-.108.032a1.475,1.475,0,0,1-.025.158s-.04.011-.1.032c-.014.1-.025.155-.025.158s-.04.011-.108.032a1.475,1.475,0,0,1-.025.158s-.04.011-.1.032a1.472,1.472,0,0,1-.025.158s-.04.011-.108.032c-.011.1-.022.155-.022.158s-.043.011-.108.032a1.474,1.474,0,0,1-.025.158s-.04.011-.108.032c-.011.1-.022.155-.022.158s-.043.011-.108.032c-.014.094-.022.144-.025.155h-.025A30.1,30.1,0,0,1,.162,54.2c.022,0,.047,0,.076,0a1.15,1.15,0,0,1-.014-.151l.162-.007a.677.677,0,0,1-.014-.151l.162-.007c-.014-.1-.018-.151-.018-.151l.162-.007a1.15,1.15,0,0,1-.014-.151l.162-.007a1.127,1.127,0,0,1-.014-.155s.061,0,.162,0a.691.691,0,0,1-.014-.155s.061,0,.162,0c-.014-.1-.018-.151-.018-.155s.061,0,.165,0a.907.907,0,0,1-.018-.155s.061,0,.162,0a1.126,1.126,0,0,1-.014-.155s.061,0,.162,0a.691.691,0,0,1-.014-.155s.061,0,.162,0a.691.691,0,0,1-.014-.155s.061,0,.162,0a.907.907,0,0,1-.018-.155L2,52.291a1.059,1.059,0,0,1-.014-.151l.162-.007a1.059,1.059,0,0,1-.014-.151l.162-.007a.666.666,0,0,1-.014-.151l.162-.007c-.014-.1-.018-.147-.018-.151l.165-.007a.887.887,0,0,1-.018-.151l.162-.007a1.1,1.1,0,0,1-.014-.151l.162-.007a.666.666,0,0,1-.014-.151l.162-.007c-.014-.1-.018-.147-.018-.151l.165-.007a.887.887,0,0,1-.018-.151l.165-.007a.926.926,0,0,1-.018-.151l.162-.007a1.15,1.15,0,0,1-.014-.151l.162-.007A.677.677,0,0,1,3.6,50.4l.162-.007a.907.907,0,0,1-.018-.155s.061,0,.165,0a.907.907,0,0,1-.018-.155s.061,0,.165,0a.907.907,0,0,1-.018-.155s.061,0,.162,0a.69.69,0,0,1-.014-.155s.061,0,.162,0a.907.907,0,0,1-.018-.155s.065,0,.165,0a.907.907,0,0,1-.018-.155l.165-.007a.853.853,0,0,1-.018-.151l.165-.007a.571.571,0,0,1-.018-.151l.162-.007c-.014-.094-.018-.147-.018-.151l.165-.007a.888.888,0,0,1-.018-.151l.165-.007a.888.888,0,0,1-.018-.151l.165-.007a.887.887,0,0,1-.018-.151l.165-.007a.582.582,0,0,1-.018-.151l.162-.007a.887.887,0,0,1-.018-.151l.165-.007a.887.887,0,0,1-.018-.151l.165-.007a.887.887,0,0,1-.018-.151l.165-.007a.582.582,0,0,1-.018-.151l.162-.007a.888.888,0,0,1-.018-.151l.165-.007a.888.888,0,0,1-.018-.151l.165-.007a.926.926,0,0,1-.018-.151,1.572,1.572,0,0,1,.165-.007.907.907,0,0,1-.018-.155s.061,0,.165,0a.762.762,0,0,1-.022-.155s.065,0,.165,0a.907.907,0,0,1-.018-.155l.165-.007a.853.853,0,0,1-.018-.151l.165-.007a.853.853,0,0,1-.018-.151l.165-.007a.571.571,0,0,1-.018-.151l.165-.007a.716.716,0,0,1-.022-.151l.165-.007a.853.853,0,0,1-.018-.151l.165-.007A.853.853,0,0,1,7.85,45.8l.165-.007A.853.853,0,0,1,8,45.643l.165-.007a.717.717,0,0,1-.022-.151l.169-.007a.745.745,0,0,1-.022-.151l.165-.007a.887.887,0,0,1-.018-.151l.165-.007a.888.888,0,0,1-.018-.151L8.749,45a.746.746,0,0,1-.022-.151l.169-.007a.745.745,0,0,1-.022-.151l.169-.007a.746.746,0,0,1-.022-.151l.165-.007a.888.888,0,0,1-.018-.151l.165-.007a.887.887,0,0,1-.018-.151,1.57,1.57,0,0,1,.165-.007.746.746,0,0,1-.022-.151s.065-.007.169-.007a.746.746,0,0,1-.022-.151l.122-.007-.014-.076s.036,0,.094,0L9.8,43.74a5.345,5.345,0,0,1,2.241.306.314.314,0,0,0,.061.032l4.414-1.486s11.174,1.086,13.163,5.994c.043-.043.079-.083.122-.122s.1-.1.151-.151.1-.1.151-.151.1-.1.148-.151l.151-.151c.05-.05.1-.1.151-.147s.1-.1.151-.151.1-.1.151-.151.1-.1.147-.151.1-.1.151-.151a7.158,7.158,0,0,1,.669-.6C35.526,43.358,43.4,42.592,43.4,42.592l4.511,1.522c.054-.032.094-.054.119-.068a5.365,5.365,0,0,1,2.245-.306" transform="translate(0 -27.269)" fill="#16246d"/>
      <path id="Trazado_219" data-name="Trazado 219" d="M33.467,44.127l4.552-1.534s12.825,1.245,13.446,7.1V55.54Z" transform="translate(-21.427 -27.27)" fill="#fff"/>
      <path id="Trazado_220" data-name="Trazado 220" d="M101.5,44.127l-4.552-1.534s-12.825,1.245-13.446,7.1V55.54Z" transform="translate(-53.458 -27.27)" fill="#fff"/>
      <path id="Trazado_221" data-name="Trazado 221" d="M65.691,46.074c-.765.408-15.5,8.668-15.5,8.668a7.091,7.091,0,0,1-2.5.765,7.091,7.091,0,0,1-2.5-.765s-14.735-8.26-15.5-8.668a5.332,5.332,0,0,0-2.243-.306L32.192,67.08s12.288,7.8,13.308,8.413a7.249,7.249,0,0,0,2.192.816,7.249,7.249,0,0,0,2.192-.816c1.02-.612,13.308-8.413,13.308-8.413l4.742-21.313a5.332,5.332,0,0,0-2.243.306" transform="translate(-17.574 -29.295)" fill="#00adee"/>
      <path id="Trazado_222" data-name="Trazado 222" d="M80.736,68.913,80.114,89.78c-.518.325-.881.55-1.022.635a7.224,7.224,0,0,1-2.192.816,7.227,7.227,0,0,1-2.192-.816c-.121-.072-.4-.243-.794-.491L73.09,68.93l1.31.734a7.113,7.113,0,0,0,2.5.764,7.093,7.093,0,0,0,2.5-.764l1.339-.752" transform="translate(-46.795 -44.121)" fill="#131749"/>
      <path id="Trazado_223" data-name="Trazado 223" d="M57.3,55.864s-3-2.939-6.162-3.237c0,0,4.481,1.432,6.162,3.237" transform="translate(-32.742 -33.694)" fill="#b0bdc8"/>
      <path id="Trazado_224" data-name="Trazado 224" d="M51.139,48.475s5.851,1.494,7.469,3.8c0,0-1.183-2.677-7.469-3.8" transform="translate(-32.741 -31.036)" fill="#b0bdc8"/>
      <path id="Trazado_225" data-name="Trazado 225" d="M102.437,46.757S94.8,48,92.478,51.654c0,0,2.987-3.237,9.959-4.9" transform="translate(-59.208 -29.936)" fill="#b0bdc8"/>
      <path id="Trazado_226" data-name="Trazado 226" d="M98.257,55.915a8.819,8.819,0,0,1,4.851-2.624s-4.27,1.462-4.851,2.624" transform="translate(-62.908 -34.119)" fill="#b0bdc8"/>
    </g>
    <text id="Documentación" transform="translate(202.379 352)" fill="#16246d" font-size="20" font-family="Poppins-Bold, Poppins" font-weight="700"><tspan x="-82.88" y="0">Documentación</tspan></text>
    <g id="Grupo_96" data-name="Grupo 96" transform="translate(303.4 341)">
      <g id="Grupo_95" data-name="Grupo 95" transform="translate(0 0)" clip-path="url(#clip-path)">
        <path id="Trazado_290" data-name="Trazado 290" d="M17.359.533A1.846,1.846,0,0,0,16.057,0a1.868,1.868,0,0,0-1.324.555L8.957,6.429,3.18.555A1.856,1.856,0,0,0,.555.533,1.856,1.856,0,0,0,.533,3.159l7.1,7.22a1.857,1.857,0,0,0,2.648,0l7.1-7.217a1.857,1.857,0,0,0-.02-2.628" transform="translate(0 0)" fill="#16246d"/>
      </g>
    </g>
  </g>
</svg>
