<svg xmlns="http://www.w3.org/2000/svg" width="347" height="167.214" viewBox="0 0 347 167.214">
  <g id="libro3" transform="translate(-1386 -312.209)">
    <rect id="Rectángulo_87" data-name="Rectángulo 87" width="222" height="2" transform="translate(1511 461)" fill="#009345"/>
    <text id="En_caso_de_reaseguradora_" data-name="En caso de 
reaseguradora
" transform="translate(1647 429)" fill="#009345" font-size="22" font-family="Poppins-Bold, Poppins" font-weight="700"><tspan x="-61.875" y="0">En caso de </tspan><tspan x="-85.58" y="20">reaseguradora</tspan><tspan x="0" y="40"></tspan></text>
    <g id="Grupo_55" data-name="Grupo 55" transform="translate(252.128 60.586)">
      <path id="Trazado_237" data-name="Trazado 237" d="M626.086,83.607A83.607,83.607,0,1,1,542.479,0a83.607,83.607,0,0,1,83.607,83.607" transform="translate(675 251.623)" fill="#37b34a"/>
      <path id="Trazado_238" data-name="Trazado 238" d="M598.632,45.782l-13.18,59.25s-.08.05-.2.12l-.02.1s-.15.09-.39.24c-.05.17-.07.28-.08.29s-.1.05-.27.16a1.841,1.841,0,0,1-.1.36s-.09.06-.26.17a3.45,3.45,0,0,1-.1.36s-.1.06-.26.17c-.06.22-.1.35-.1.36s-.1.06-.27.17a2.156,2.156,0,0,1-.1.36s-.09.06-.26.17c-.06.22-.09.35-.1.36l-.27.16a2.122,2.122,0,0,1-.1.37s-.09.06-.26.16c-.06.23-.09.36-.1.37s-.1.06-.26.16c-.06.23-.09.36-.1.37l-.27.16a2.115,2.115,0,0,1-.1.37s-.09.06-.26.16c-.06.23-.09.36-.1.37l-.27.16a2.115,2.115,0,0,1-.1.37s-.09.06-.26.16c-.06.23-.09.36-.1.37s-.1.06-.27.15a2.883,2.883,0,0,1-.09.38s-.1.05-.27.15a2.089,2.089,0,0,1-.1.38s-.09.05-.26.15c-.06.24-.09.37-.1.38s-.1.05-.27.15a2.439,2.439,0,0,1-.1.38s-.09.05-.26.15c-.06.23-.09.37-.1.38s-.1.05-.27.15a3.514,3.514,0,0,1-.09.38s-.1.05-.27.15a2.435,2.435,0,0,1-.1.38s-.09.05-.26.15a3.292,3.292,0,0,1-.1.37s-.1.06-.27.15a1.813,1.813,0,0,1-.1.38s-.09.06-.26.15c-.06.24-.09.37-.1.38s-.1.06-.27.15a2.9,2.9,0,0,1-.09.38s-.1.06-.27.15a2.083,2.083,0,0,1-.1.38s-.1.06-.27.15a2.883,2.883,0,0,1-.09.38s-.1.06-.27.15c-.05.24-.09.37-.09.38s-.1.05-.27.15c-.06.24-.09.37-.1.38s-.1.05-.27.15a2.9,2.9,0,0,1-.09.38s-.1.05-.27.14a2.073,2.073,0,0,1-.1.39s-.1.05-.27.14a3.385,3.385,0,0,1-.09.39s-.1.05-.27.14c-.05.24-.09.38-.09.39s-.1.05-.27.14c-.06.24-.09.38-.1.39s-.1.05-.27.14a3.394,3.394,0,0,1-.09.39s-.1.05-.27.14a2.391,2.391,0,0,1-.1.39s-.1.05-.27.14a3.384,3.384,0,0,1-.09.39s-.1.05-.27.14c-.05.24-.09.38-.09.39s-.1.05-.28.13a3.3,3.3,0,0,1-.09.4s-.1.05-.27.13a3.3,3.3,0,0,1-.09.4s-.1.05-.27.13a3.07,3.07,0,0,1-.1.39s-.1.06-.27.14a2.417,2.417,0,0,1-.09.39s-.1.05-.27.14a2.4,2.4,0,0,1-.09.39l-.28.14a2.4,2.4,0,0,1-.09.39s-.1.05-.27.14a2.834,2.834,0,0,1-.09.39s-.1.05-.27.14c-.06.24-.09.38-.09.39s-.11.05-.28.14a3.4,3.4,0,0,1-.09.39s-.1.05-.27.13a3.288,3.288,0,0,1-.09.4s-.1.05-.28.13a3.288,3.288,0,0,1-.09.4s-.1.05-.27.13a3.3,3.3,0,0,1-.09.4s-.1.05-.28.13c-.05.25-.08.39-.08.4s-.11.05-.28.13a3.3,3.3,0,0,1-.09.4s-.1.05-.27.13a3.309,3.309,0,0,1-.09.4s-.1.05-.28.13a3.287,3.287,0,0,1-.09.4s-.1.05-.27.13a3.287,3.287,0,0,1-.09.4s-.1.04-.28.12c-.05.26-.08.4-.08.41s-.11.04-.28.12a3.22,3.22,0,0,1-.09.41s-.1.04-.28.12a2.519,2.519,0,0,1-.08.41s-.11.04-.28.12a3.235,3.235,0,0,1-.09.41s-.1.04-.27.12a3.214,3.214,0,0,1-.09.41s-.1.04-.28.12l-.08.4s-.11.05-.28.13a2.788,2.788,0,0,1-.09.4s-.1.05-.28.13a2.234,2.234,0,0,1-.08.4s-.11.05-.28.12a2.752,2.752,0,0,1-.09.41s-.1.05-.28.12a2.514,2.514,0,0,1-.08.41s-.1.05-.28.12c-.05.26-.08.4-.08.41s-.11.05-.28.12a3.213,3.213,0,0,1-.09.41s-.1.05-.28.12a2.522,2.522,0,0,1-.08.41s-.11.05-.28.12c-.05.26-.08.4-.08.41s-.11.04-.29.12a2.526,2.526,0,0,1-.08.41s-.1.04-.28.12c-.05.26-.07.4-.08.41s-.11.04-.28.12a3.213,3.213,0,0,1-.09.41l-.28.11a2.519,2.519,0,0,1-.08.42s-.11.04-.28.11c-.05.27-.08.41-.08.42s-.11.04-.29.11a2.841,2.841,0,0,1-.08.42l-.28.11c-.05.26-.07.41-.08.42s-.11.04-.29.11a2.836,2.836,0,0,1-.08.42l-.28.11a2.836,2.836,0,0,1-.08.42s-.11.04-.28.11c-.05.26-.08.41-.08.42s-.11.04-.29.11a2.239,2.239,0,0,1-.08.41s-.1.05-.28.12c-.05.26-.07.41-.08.41s-.11.05-.29.11a2.254,2.254,0,0,1-.08.42,2.355,2.355,0,0,1-.28.11,4.178,4.178,0,0,1-.08.42s-.11.04-.29.11c-.04.27-.07.42-.07.42s-.11.04-.29.11a2.249,2.249,0,0,1-.08.42s-.11.04-.28.11c-.05.27-.07.41-.08.42s-.11.04-.29.11c-.04.27-.07.41-.07.42s-.11.04-.29.11c-.05.27-.07.41-.08.42s-.11.04-.29.11c-.04.27-.07.41-.07.42s-.11.04-.29.11a2.844,2.844,0,0,1-.08.42l-.28.1c-.05.27-.07.42-.08.43s-.11.04-.29.1c-.04.27-.07.42-.07.43s-.11.04-.29.1c-.05.27-.07.42-.08.43s-.11.04-.29.1c-.04.27-.07.42-.07.43s-.11.04-.29.1a2.822,2.822,0,0,1-.08.43s-.11.04-.29.1a4.159,4.159,0,0,1-.07.43s-.11.03-.29.1c-.04.27-.07.42-.07.43s-.11.03-.29.1c-.05.27-.07.42-.08.43s-.11.03-.29.1a4.138,4.138,0,0,1-.07.43s-.11.03-.29.09a2.258,2.258,0,0,1-.08.43s-.11.04-.29.1a3.147,3.147,0,0,1-.07.43s-.11.04-.29.1c-.04.28-.07.43-.07.43s-.11.04-.3.1a3.159,3.159,0,0,1-.07.43s-.11.04-.29.1a3.612,3.612,0,0,1-.07.43s-.11.04-.29.1a2.515,2.515,0,0,1-.08.43s-.11.04-.29.1a3.586,3.586,0,0,1-.07.43s-.11.04-.29.1c-.04.27-.07.42-.07.43s-.11.04-.3.1a4.158,4.158,0,0,1-.07.43s-.11.04-.29.09a4.124,4.124,0,0,1-.07.44s-.11.04-.3.09c-.03.28-.06.43-.06.44s-.12.03-.3.09a4.086,4.086,0,0,1-.07.44s-.11.03-.29.09c-.04.28-.07.43-.07.44s-.11.03-.3.09a4.085,4.085,0,0,1-.07.44s-.11.03-.29.09a4.1,4.1,0,0,1-.07.44s-.11.03-.3.09c-.03.28-.06.43-.06.44s-.12.03-.3.09a4.085,4.085,0,0,1-.07.44s-.11.03-.3.09c-.03.28-.06.43-.06.44s-.12.03-.3.09c-.04.26-.06.4-.07.43h-.07a83.674,83.674,0,0,1-83.15-92.34c.06,0,.13-.01.21-.01a3.2,3.2,0,0,1-.04-.42s.17-.01.45-.02a1.881,1.881,0,0,1-.04-.42s.17-.01.45-.02c-.04-.27-.05-.42-.05-.42s.17-.01.45-.02a3.189,3.189,0,0,1-.04-.42s.17-.01.45-.02a3.127,3.127,0,0,1-.04-.43s.17,0,.45-.01a1.919,1.919,0,0,1-.04-.43s.17,0,.45-.01c-.04-.27-.05-.42-.05-.43s.17-.01.46-.01a2.518,2.518,0,0,1-.05-.43s.17-.01.45-.01a3.127,3.127,0,0,1-.04-.43s.17-.01.45-.01a1.921,1.921,0,0,1-.04-.43s.17-.01.45-.01a1.921,1.921,0,0,1-.04-.43s.17-.01.45-.01a2.524,2.524,0,0,1-.05-.43s.17-.01.45-.02a2.948,2.948,0,0,1-.04-.42s.17-.01.45-.02a2.948,2.948,0,0,1-.04-.42s.17-.01.45-.02a1.85,1.85,0,0,1-.04-.42s.17-.01.45-.02c-.04-.27-.05-.41-.05-.42s.17-.01.46-.02a2.47,2.47,0,0,1-.05-.42s.17-.01.45-.02a3.063,3.063,0,0,1-.04-.42s.17-.01.45-.02a1.85,1.85,0,0,1-.04-.42s.17-.01.45-.02c-.04-.27-.05-.41-.05-.42s.18-.01.46-.02a2.468,2.468,0,0,1-.05-.42s.17-.01.46-.02a2.575,2.575,0,0,1-.05-.42s.17-.01.45-.02a3.189,3.189,0,0,1-.04-.42s.17-.01.45-.02a1.881,1.881,0,0,1-.04-.42s.17-.01.45-.02a2.522,2.522,0,0,1-.05-.43s.17,0,.46-.01a2.518,2.518,0,0,1-.05-.43s.17-.01.46-.01a2.518,2.518,0,0,1-.05-.43s.17-.01.45-.01a1.919,1.919,0,0,1-.04-.43s.17-.01.45-.01a2.518,2.518,0,0,1-.05-.43s.18-.01.46-.01a2.518,2.518,0,0,1-.05-.43s.17-.01.46-.02a2.373,2.373,0,0,1-.05-.42s.17-.01.46-.02a1.588,1.588,0,0,1-.05-.42s.17-.01.45-.02c-.04-.26-.05-.41-.05-.42s.18-.01.46-.02a2.47,2.47,0,0,1-.05-.42s.18-.01.46-.02a2.47,2.47,0,0,1-.05-.42s.17-.01.46-.02a2.47,2.47,0,0,1-.05-.42s.17-.01.46-.02a1.618,1.618,0,0,1-.05-.42s.17-.01.45-.02a2.47,2.47,0,0,1-.05-.42s.18-.01.46-.02a2.466,2.466,0,0,1-.05-.42s.17-.01.46-.02a2.468,2.468,0,0,1-.05-.42s.17-.01.46-.02a1.618,1.618,0,0,1-.05-.42s.17-.01.45-.02a2.466,2.466,0,0,1-.05-.42s.18-.01.46-.02a2.468,2.468,0,0,1-.05-.42s.18-.01.46-.02a2.575,2.575,0,0,1-.05-.42,4.364,4.364,0,0,1,.46-.02,2.518,2.518,0,0,1-.05-.43s.17-.01.46-.01a2.117,2.117,0,0,1-.06-.43s.18-.01.46-.01a2.522,2.522,0,0,1-.05-.43s.18-.01.46-.02a2.367,2.367,0,0,1-.05-.42s.17-.01.46-.02a2.367,2.367,0,0,1-.05-.42s.17-.01.46-.02a1.588,1.588,0,0,1-.05-.42s.17-.01.46-.02a1.989,1.989,0,0,1-.06-.42s.18-.01.46-.02a2.367,2.367,0,0,1-.05-.42s.18-.01.46-.02a2.373,2.373,0,0,1-.05-.42s.17-.01.46-.02a2.373,2.373,0,0,1-.05-.42s.17-.01.46-.02a1.989,1.989,0,0,1-.06-.42s.18-.01.47-.02a2.075,2.075,0,0,1-.06-.42s.18-.01.46-.02a2.47,2.47,0,0,1-.05-.42s.17-.01.46-.02a2.466,2.466,0,0,1-.05-.42s.17-.01.46-.02a2.075,2.075,0,0,1-.06-.42s.18-.01.47-.02a2.075,2.075,0,0,1-.06-.42s.18-.01.47-.02a2.073,2.073,0,0,1-.06-.42s.18-.01.46-.02a2.468,2.468,0,0,1-.05-.42s.17-.01.46-.02a2.468,2.468,0,0,1-.05-.42,4.364,4.364,0,0,1,.46-.02,2.073,2.073,0,0,1-.06-.42s.18-.02.47-.02a2.073,2.073,0,0,1-.06-.42s.13-.01.34-.02l-.04-.21s.1,0,.26-.01l-.04-.21s4.11-.28,6.23.85a.872.872,0,0,0,.17.09l12.27-4.13s31.06,3.02,36.59,16.66c.12-.12.22-.23.34-.34.14-.14.27-.28.42-.42s.27-.28.42-.42c.13-.14.27-.28.41-.42l.42-.42c.14-.14.27-.28.42-.41s.27-.29.42-.42.27-.29.42-.42c.13-.14.27-.29.41-.42s.28-.29.42-.42a19.9,19.9,0,0,1,1.86-1.67c10.3-8.75,32.2-10.88,32.2-10.88l12.54,4.23c.15-.09.26-.15.33-.19,2.13-1.13,6.24-.85,6.24-.85" transform="translate(675 251.623)" fill="#009345"/>
      <path id="Trazado_239" data-name="Trazado 239" d="M492.34,46.857l12.654-4.264s35.65,3.46,37.376,19.723V78.58Z" transform="translate(675 251.623)" fill="#fff"/>
      <path id="Trazado_240" data-name="Trazado 240" d="M592.4,46.857l-12.654-4.264s-35.65,3.46-37.376,19.723V78.58Z" transform="translate(675 251.623)" fill="#fff"/>
      <path id="Trazado_241" data-name="Trazado 241" d="M592.618,46.638c-2.126,1.134-43.085,24.094-43.085,24.094s-4.11,2.126-6.945,2.126-6.945-2.126-6.945-2.126-40.959-22.96-43.085-24.094-6.236-.85-6.236-.85L499.5,105.03s34.156,21.684,36.991,23.385a20.151,20.151,0,0,0,6.094,2.268,20.151,20.151,0,0,0,6.094-2.268c2.835-1.7,36.991-23.385,36.991-23.385l13.181-59.242s-4.11-.284-6.236.85" transform="translate(675 251.623)" fill="#d6de23"/>
      <path id="Trazado_242" data-name="Trazado 242" d="M553.215,68.913l-1.73,58c-1.441.9-2.448,1.53-2.841,1.765a20.079,20.079,0,0,1-6.094,2.268,20.088,20.088,0,0,1-6.094-2.268c-.337-.2-1.1-.676-2.206-1.365l-2.288-58.356L535.6,71s4.116,2.123,6.949,2.123S549.492,71,549.492,71l3.723-2.089" transform="translate(675 251.623)" fill="#79aa2b"/>
      <path id="Trazado_243" data-name="Trazado 243" d="M527.14,61.624s-8.339-8.17-17.128-9c0,0,12.457,3.98,17.128,9" transform="translate(675 251.623)" fill="#b0bdc8"/>
      <path id="Trazado_244" data-name="Trazado 244" d="M510.011,48.475s16.263,4.152,20.762,10.554c0,0-3.287-7.44-20.762-10.554" transform="translate(675 251.623)" fill="#b0bdc8"/>
      <path id="Trazado_245" data-name="Trazado 245" d="M579.032,46.757s-21.223,3.46-27.682,13.611c0,0,8.3-9,27.682-13.611" transform="translate(675 251.623)" fill="#b0bdc8"/>
      <path id="Trazado_246" data-name="Trazado 246" d="M557.129,60.586a24.514,24.514,0,0,1,13.485-7.295s-11.87,4.065-13.485,7.295" transform="translate(675 251.623)" fill="#b0bdc8"/>
    </g>
  </g>
</svg>
