<svg xmlns="http://www.w3.org/2000/svg" xmlns:xlink="http://www.w3.org/1999/xlink" width="375" height="77" viewBox="0 0 375 77">
  <defs>
    <clipPath id="clip-path">
      <rect id="Rectángulo_122" data-name="Rectángulo 122" width="17.913" height="10.933" fill="#e2780e"/>
    </clipPath>
  </defs>
  <g id="libro-naranjaTel" transform="translate(0 -385)">
    <rect id="Rectángulo_112" data-name="Rectángulo 112" width="375" height="77" transform="translate(0 385)" fill="#ffc77d"/>
    <text id="Información" transform="translate(202.379 428)" fill="#e2780e" font-size="20" font-family="Poppins-Bold, Poppins" font-weight="700"><tspan x="-63.43" y="0">Información</tspan></text>
    <g id="Grupo_93" data-name="Grupo 93" transform="translate(25.808 -104)">
      <path id="Trazado_227" data-name="Trazado 227" d="M289.6,30.08A30.08,30.08,0,1,1,259.516,0,30.08,30.08,0,0,1,289.6,30.08" transform="translate(-196.865 497)" fill="#f6921e"/>
      <path id="Trazado_228" data-name="Trazado 228" d="M278.658,44.724l-3.471,20.661-.072.044-.007.037-.141.088c-.018.062-.025.1-.029.106s-.036.018-.1.058a.677.677,0,0,1-.036.131l-.094.062a1.287,1.287,0,0,1-.036.131s-.036.022-.094.062c-.022.08-.036.128-.036.131s-.036.022-.1.062a.8.8,0,0,1-.036.131l-.094.062c-.022.08-.033.128-.036.131l-.1.058a.78.78,0,0,1-.036.135s-.033.022-.094.058c-.022.084-.033.131-.036.135l-.094.058c-.022.084-.033.131-.036.135l-.1.058a.778.778,0,0,1-.036.135s-.033.022-.094.058c-.022.084-.033.131-.036.135l-.1.058a.78.78,0,0,1-.036.135s-.033.022-.094.058c-.022.084-.033.131-.036.135s-.036.022-.1.055a1.053,1.053,0,0,1-.033.139s-.036.018-.1.055a.769.769,0,0,1-.036.139l-.094.055c-.022.088-.033.135-.036.139s-.036.018-.1.055a.906.906,0,0,1-.036.139l-.094.055c-.022.084-.033.135-.036.139s-.036.018-.1.055a1.29,1.29,0,0,1-.033.139s-.036.018-.1.055a.9.9,0,0,1-.036.139l-.094.055a1.206,1.206,0,0,1-.036.135s-.036.022-.1.055a.663.663,0,0,1-.036.139s-.033.022-.094.055c-.022.088-.033.135-.036.139s-.036.022-.1.055a1.072,1.072,0,0,1-.033.139s-.036.022-.1.055a.772.772,0,0,1-.036.139s-.036.022-.1.055a1.071,1.071,0,0,1-.033.139s-.036.022-.1.055c-.018.088-.033.135-.033.139s-.036.018-.1.055c-.022.088-.033.135-.036.139s-.036.018-.1.055a1.071,1.071,0,0,1-.033.139l-.1.051a.757.757,0,0,1-.036.142l-.1.051a1.26,1.26,0,0,1-.033.142l-.1.051c-.018.088-.033.139-.033.142l-.1.051c-.022.088-.033.139-.036.142l-.1.051a1.253,1.253,0,0,1-.033.142l-.1.051a.882.882,0,0,1-.036.142l-.1.051a1.251,1.251,0,0,1-.033.142l-.1.051c-.018.088-.033.139-.033.142s-.036.018-.1.047a1.214,1.214,0,0,1-.033.146l-.1.047a1.219,1.219,0,0,1-.033.146l-.1.047a1.13,1.13,0,0,1-.036.142s-.036.022-.1.051a.883.883,0,0,1-.033.142l-.1.051a.889.889,0,0,1-.033.142l-.1.051a.883.883,0,0,1-.033.142l-.1.051a1.032,1.032,0,0,1-.033.142l-.1.051c-.022.088-.033.139-.033.142s-.04.018-.1.051a1.255,1.255,0,0,1-.033.142l-.1.047a1.218,1.218,0,0,1-.033.146s-.036.018-.1.047a1.2,1.2,0,0,1-.033.146l-.1.047a1.222,1.222,0,0,1-.033.146s-.036.018-.1.047c-.018.091-.029.142-.029.146l-.1.047a1.21,1.21,0,0,1-.033.146l-.1.047a1.2,1.2,0,0,1-.033.146s-.036.018-.1.047a1.219,1.219,0,0,1-.033.146l-.1.047a1.226,1.226,0,0,1-.033.146s-.036.015-.1.044c-.018.095-.029.146-.029.15s-.04.015-.1.044a1.189,1.189,0,0,1-.033.15s-.036.015-.1.044a.928.928,0,0,1-.029.15s-.04.015-.1.044a1.175,1.175,0,0,1-.033.15s-.036.015-.1.044a1.188,1.188,0,0,1-.033.15s-.036.015-.1.044l-.029.146-.1.047a1.037,1.037,0,0,1-.033.146s-.036.018-.1.047a.823.823,0,0,1-.029.146s-.04.018-.1.044a1.014,1.014,0,0,1-.033.15s-.036.018-.1.044a.93.93,0,0,1-.029.15s-.036.018-.1.044c-.018.095-.029.146-.029.15s-.04.018-.1.044a1.188,1.188,0,0,1-.033.15s-.036.018-.1.044a.925.925,0,0,1-.029.15s-.04.018-.1.044c-.018.095-.029.146-.029.15s-.04.015-.1.044a.925.925,0,0,1-.029.15s-.036.015-.1.044c-.018.095-.025.146-.029.15s-.04.015-.1.044a1.187,1.187,0,0,1-.033.15l-.1.04a.931.931,0,0,1-.029.153s-.04.015-.1.04c-.018.1-.029.15-.029.153l-.1.04a1.044,1.044,0,0,1-.029.153l-.1.04c-.018.095-.025.15-.029.153l-.1.04a1.039,1.039,0,0,1-.029.153l-.1.04a1.036,1.036,0,0,1-.029.153s-.04.015-.1.04c-.018.095-.029.15-.029.153l-.1.04a.827.827,0,0,1-.029.15s-.036.018-.1.044c-.018.095-.025.15-.029.15s-.04.018-.1.04a.819.819,0,0,1-.029.153.845.845,0,0,1-.1.04,1.556,1.556,0,0,1-.029.153l-.1.04c-.014.1-.025.153-.025.153l-.1.04a.826.826,0,0,1-.029.153s-.04.015-.1.04c-.018.1-.025.15-.029.153l-.1.04c-.014.1-.025.15-.025.153l-.1.04c-.018.1-.025.15-.029.153l-.1.04c-.014.1-.025.15-.025.153l-.1.04a1.051,1.051,0,0,1-.029.153l-.1.036c-.018.1-.025.153-.029.157l-.1.037c-.014.1-.025.153-.025.157l-.1.036c-.018.1-.025.153-.029.157l-.1.036c-.014.1-.025.153-.025.157l-.1.037a1.043,1.043,0,0,1-.029.157l-.1.036a1.525,1.525,0,0,1-.025.157s-.04.011-.1.036c-.014.1-.025.153-.025.157s-.04.011-.1.036c-.018.1-.025.153-.029.157s-.04.011-.1.036a1.537,1.537,0,0,1-.025.157s-.04.011-.1.033a.834.834,0,0,1-.029.157l-.1.036a1.156,1.156,0,0,1-.025.157l-.1.037c-.014.1-.025.157-.025.157s-.04.015-.108.036a1.148,1.148,0,0,1-.025.157l-.1.036a1.31,1.31,0,0,1-.025.157l-.1.036a.925.925,0,0,1-.029.157l-.1.037a1.33,1.33,0,0,1-.025.157l-.1.037c-.014.1-.025.153-.025.157s-.04.015-.108.037a1.526,1.526,0,0,1-.025.157s-.04.015-.1.033a1.5,1.5,0,0,1-.025.161s-.04.015-.108.033c-.011.1-.022.157-.022.161s-.043.011-.108.033a1.486,1.486,0,0,1-.025.161s-.04.011-.1.033c-.014.1-.025.157-.025.161s-.04.011-.108.033a1.523,1.523,0,0,1-.025.161s-.04.011-.1.033a1.511,1.511,0,0,1-.025.161s-.04.011-.108.033c-.011.1-.022.157-.022.161s-.043.011-.108.033a1.516,1.516,0,0,1-.025.161s-.04.011-.108.033c-.011.1-.022.157-.022.161s-.043.011-.108.033c-.014.095-.022.146-.025.157h-.025a30.368,30.368,0,0,1-30.217-30.516,31.006,31.006,0,0,1,.163-3.19c.022,0,.047,0,.076,0a1.178,1.178,0,0,1-.014-.153l.163-.007a.694.694,0,0,1-.014-.153l.163-.007c-.014-.1-.018-.153-.018-.153l.163-.007a1.179,1.179,0,0,1-.014-.153l.163-.007a1.154,1.154,0,0,1-.014-.157s.061,0,.163,0a.706.706,0,0,1-.014-.157s.061,0,.163,0c-.014-.1-.018-.153-.018-.157s.061,0,.166,0a.925.925,0,0,1-.018-.157s.061,0,.163,0a1.152,1.152,0,0,1-.014-.157s.061,0,.163,0a.706.706,0,0,1-.014-.157s.061,0,.163,0a.708.708,0,0,1-.014-.157s.061,0,.163,0a.927.927,0,0,1-.018-.157l.163-.007a1.081,1.081,0,0,1-.014-.153l.163-.007a1.09,1.09,0,0,1-.014-.153l.163-.007a.683.683,0,0,1-.014-.153l.163-.007c-.014-.1-.018-.15-.018-.153l.166-.007a.911.911,0,0,1-.018-.153l.163-.007a1.138,1.138,0,0,1-.014-.153l.163-.007a.681.681,0,0,1-.014-.153l.163-.007c-.014-.1-.018-.15-.018-.153l.166-.007a.909.909,0,0,1-.018-.153l.166-.007a.947.947,0,0,1-.018-.153l.163-.007a1.175,1.175,0,0,1-.014-.153l.163-.007a.693.693,0,0,1-.014-.153l.163-.007a.925.925,0,0,1-.018-.157s.061,0,.166,0a.925.925,0,0,1-.018-.157s.061,0,.166,0a.931.931,0,0,1-.018-.157s.061,0,.163,0a.709.709,0,0,1-.014-.157s.061,0,.163,0a.931.931,0,0,1-.018-.157s.065,0,.166,0a.929.929,0,0,1-.018-.157l.166-.007a.878.878,0,0,1-.018-.153l.166-.007a.585.585,0,0,1-.018-.153l.163-.007c-.014-.095-.018-.15-.018-.153l.166-.007a.911.911,0,0,1-.018-.153l.166-.007a.909.909,0,0,1-.018-.153l.166-.007a.9.9,0,0,1-.018-.153l.166-.007a.6.6,0,0,1-.018-.153l.163-.007a.908.908,0,0,1-.018-.153l.166-.007a.909.909,0,0,1-.018-.153l.166-.007a.911.911,0,0,1-.018-.153l.166-.007a.6.6,0,0,1-.018-.153l.163-.007a.907.907,0,0,1-.018-.153l.166-.007a.911.911,0,0,1-.018-.153l.166-.007A.949.949,0,0,1,236,47.3a1.563,1.563,0,0,1,.166-.007.927.927,0,0,1-.018-.157s.061,0,.166,0a.782.782,0,0,1-.022-.157s.065,0,.166,0a.929.929,0,0,1-.018-.157l.166-.007a.872.872,0,0,1-.018-.153l.166-.007a.872.872,0,0,1-.018-.153l.166-.007a.585.585,0,0,1-.018-.153l.166-.007a.732.732,0,0,1-.022-.153l.166-.007a.875.875,0,0,1-.018-.153l.166-.007a.877.877,0,0,1-.018-.153l.166-.007a.872.872,0,0,1-.018-.153l.166-.007a.733.733,0,0,1-.022-.153l.17-.007a.764.764,0,0,1-.022-.153l.166-.007a.909.909,0,0,1-.018-.153l.166-.007a.907.907,0,0,1-.018-.153l.166-.007a.762.762,0,0,1-.022-.153l.17-.007a.762.762,0,0,1-.022-.153l.17-.007a.762.762,0,0,1-.022-.153l.166-.007a.911.911,0,0,1-.018-.153l.166-.007a.912.912,0,0,1-.018-.153,1.562,1.562,0,0,1,.166-.007.765.765,0,0,1-.022-.153,1.686,1.686,0,0,1,.17-.007.763.763,0,0,1-.022-.153l.123-.007-.014-.077s.036,0,.094,0l-.014-.077a5.321,5.321,0,0,1,2.252.31.314.314,0,0,0,.061.033l4.435-1.508s11.226,1.1,13.225,6.081c.043-.044.079-.084.123-.124s.1-.1.152-.153.1-.1.152-.153.1-.1.148-.153l.152-.153c.051-.051.1-.1.152-.15s.1-.106.152-.153.1-.106.152-.153.1-.106.148-.153.1-.106.152-.153a7.215,7.215,0,0,1,.672-.61c3.723-3.194,11.639-3.971,11.639-3.971l4.533,1.544c.054-.033.094-.055.119-.069.77-.412.962.033.962.033" transform="translate(-196.865 469.077)" fill="#e2780e"/>
      <path id="Trazado_229" data-name="Trazado 229" d="M262.9,44.205l4.784-1.612s13.48,1.308,14.133,7.458V56.2Z" transform="translate(-218.554 469.517)" fill="#fff"/>
      <path id="Trazado_230" data-name="Trazado 230" d="M331.85,44.205l-4.785-1.612s-13.48,1.308-14.132,7.458V56.2Z" transform="translate(-250.976 469.517)" fill="#fff"/>
      <path id="Trazado_231" data-name="Trazado 231" d="M294.182,46.09c-.746.429-15.117,9.11-15.117,9.11a4.1,4.1,0,0,1-4.874,0s-14.371-8.682-15.117-9.11a4.85,4.85,0,0,0-2.188-.321l4.625,22.4s11.984,8.2,12.979,8.842a6.739,6.739,0,0,0,2.138.858,6.74,6.74,0,0,0,2.138-.858c.995-.643,12.979-8.842,12.979-8.842l4.625-22.4a4.85,4.85,0,0,0-2.188.321" transform="translate(-213.936 466.84)" fill="#ffc77d"/>
      <path id="Trazado_232" data-name="Trazado 232" d="M310.562,68.913l-.654,21.932c-.545.341-.926.579-1.074.667a3.525,3.525,0,0,1-4.608,0c-.127-.076-.417-.256-.834-.516l-.865-22.065,1.376.772a4.7,4.7,0,0,0,5.252,0l1.408-.79" transform="translate(-243.854 452.271)" fill="#cc6100"/>
      <path id="Trazado_233" data-name="Trazado 233" d="M287.052,56.029s-3.153-3.089-6.476-3.4c0,0,4.71,1.5,6.476,3.4" transform="translate(-229.713 463.252)" fill="#b0bdc8"/>
      <path id="Trazado_234" data-name="Trazado 234" d="M280.575,48.475s6.149,1.57,7.85,3.991c0,0-1.243-2.813-7.85-3.991" transform="translate(-229.739 465.905)" fill="#b0bdc8"/>
      <path id="Trazado_235" data-name="Trazado 235" d="M332.381,46.757s-8.025,1.308-10.467,5.147c0,0,3.14-3.4,10.467-5.147" transform="translate(-256.408 466.989)" fill="#b0bdc8"/>
    </g>
    <g id="Grupo_97" data-name="Grupo 97" transform="translate(303.4 418)">
      <g id="Grupo_95" data-name="Grupo 95" transform="translate(0 0)" clip-path="url(#clip-path)">
        <path id="Trazado_290" data-name="Trazado 290" d="M17.359.533A1.846,1.846,0,0,0,16.057,0a1.868,1.868,0,0,0-1.324.555L8.957,6.429,3.18.555A1.856,1.856,0,0,0,.555.533,1.856,1.856,0,0,0,.533,3.159l7.1,7.22a1.857,1.857,0,0,0,2.648,0l7.1-7.217a1.857,1.857,0,0,0-.02-2.628" transform="translate(0 0)" fill="#e2780e"/>
      </g>
    </g>
  </g>
</svg>
