<svg xmlns="http://www.w3.org/2000/svg" width="310" height="167.214" viewBox="0 0 310 167.214">
  <g id="libro2" transform="translate(-945 -312.209)">
    <rect id="Rect치ngulo_86" data-name="Rect치ngulo 86" width="208" height="2" transform="translate(1047 461)" fill="#e2780e"/>
    <text id="Informaci칩n" transform="translate(1185 454)" fill="#e2780e" font-size="22" font-family="Poppins-Bold, Poppins" font-weight="700"><tspan x="-69.773" y="0">Informaci칩n</tspan></text>
    <g id="Grupo_54" data-name="Grupo 54" transform="translate(40.564 60.586)">
      <path id="Trazado_227" data-name="Trazado 227" d="M396.65,83.607A83.607,83.607,0,1,1,313.043,0,83.607,83.607,0,0,1,396.65,83.607" transform="translate(675 251.623)" fill="#f6921e"/>
      <path id="Trazado_228" data-name="Trazado 228" d="M369.2,45.782l-13.18,59.25s-.08.05-.2.12l-.02.1s-.15.09-.39.24c-.05.17-.07.28-.08.29s-.1.05-.27.16a1.834,1.834,0,0,1-.1.36s-.09.06-.26.17a3.474,3.474,0,0,1-.1.36s-.1.06-.26.17c-.06.22-.1.35-.1.36s-.1.06-.27.17a2.158,2.158,0,0,1-.1.36s-.09.06-.26.17c-.06.22-.09.35-.1.36l-.27.16a2.114,2.114,0,0,1-.1.37s-.09.06-.26.16c-.06.23-.09.36-.1.37s-.1.06-.26.16c-.06.23-.09.36-.1.37l-.27.16a2.114,2.114,0,0,1-.1.37s-.09.06-.26.16c-.06.23-.09.36-.1.37l-.27.16a2.118,2.118,0,0,1-.1.37s-.09.06-.26.16c-.06.23-.09.36-.1.37s-.1.06-.27.15a2.9,2.9,0,0,1-.09.38s-.1.05-.27.15a2.089,2.089,0,0,1-.1.38s-.09.05-.26.15c-.06.24-.09.37-.1.38s-.1.05-.27.15a2.441,2.441,0,0,1-.1.38s-.09.05-.26.15c-.06.23-.09.37-.1.38s-.1.05-.27.15a3.518,3.518,0,0,1-.09.38s-.1.05-.27.15a2.445,2.445,0,0,1-.1.38s-.09.05-.26.15a3.287,3.287,0,0,1-.1.37s-.1.06-.27.15a1.811,1.811,0,0,1-.1.38s-.09.06-.26.15c-.06.24-.09.37-.1.38s-.1.06-.27.15a2.887,2.887,0,0,1-.09.38s-.1.06-.27.15a2.088,2.088,0,0,1-.1.38s-.1.06-.27.15a2.9,2.9,0,0,1-.09.38s-.1.06-.27.15c-.05.24-.09.37-.09.38s-.1.05-.27.15c-.06.24-.09.37-.1.38s-.1.05-.27.15a2.889,2.889,0,0,1-.09.38s-.1.05-.27.14a2.065,2.065,0,0,1-.1.39s-.1.05-.27.14a3.4,3.4,0,0,1-.09.39s-.1.05-.27.14c-.05.24-.09.38-.09.39s-.1.05-.27.14c-.06.24-.09.38-.1.39s-.1.05-.27.14a3.406,3.406,0,0,1-.09.39s-.1.05-.27.14a2.4,2.4,0,0,1-.1.39s-.1.05-.27.14a3.389,3.389,0,0,1-.09.39s-.1.05-.27.14c-.05.24-.09.38-.09.39s-.1.05-.28.13a3.3,3.3,0,0,1-.09.4s-.1.05-.27.13a3.292,3.292,0,0,1-.09.4s-.1.05-.27.13a3.08,3.08,0,0,1-.1.39s-.1.06-.27.14a2.406,2.406,0,0,1-.09.39s-.1.05-.27.14a2.41,2.41,0,0,1-.09.39l-.28.14a2.414,2.414,0,0,1-.09.39s-.1.05-.27.14a2.826,2.826,0,0,1-.09.39s-.1.05-.27.14c-.06.24-.09.38-.09.39s-.11.05-.28.14a3.407,3.407,0,0,1-.09.39s-.1.05-.27.13a3.293,3.293,0,0,1-.09.4s-.1.05-.28.13a3.293,3.293,0,0,1-.09.4s-.1.05-.27.13a3.294,3.294,0,0,1-.09.4s-.1.05-.28.13c-.05.25-.08.39-.08.4s-.11.05-.28.13a3.305,3.305,0,0,1-.09.4s-.1.05-.27.13a3.291,3.291,0,0,1-.09.4s-.1.05-.28.13a3.291,3.291,0,0,1-.09.4s-.1.05-.27.13a3.305,3.305,0,0,1-.09.4s-.1.04-.28.12c-.05.26-.08.4-.08.41s-.11.04-.28.12a3.217,3.217,0,0,1-.09.41s-.1.04-.28.12a2.525,2.525,0,0,1-.08.41s-.11.04-.28.12a3.218,3.218,0,0,1-.09.41s-.1.04-.27.12a3.218,3.218,0,0,1-.09.41s-.1.04-.28.12l-.08.4s-.11.05-.28.13a2.781,2.781,0,0,1-.09.4s-.1.05-.28.13a2.236,2.236,0,0,1-.08.4s-.11.05-.28.12a2.759,2.759,0,0,1-.09.41s-.1.05-.28.12a2.518,2.518,0,0,1-.08.41s-.1.05-.28.12c-.05.26-.08.4-.08.41s-.11.05-.28.12a3.219,3.219,0,0,1-.09.41s-.1.05-.28.12a2.516,2.516,0,0,1-.08.41s-.11.05-.28.12c-.05.26-.08.4-.08.41s-.11.04-.29.12a2.518,2.518,0,0,1-.08.41s-.1.04-.28.12c-.05.26-.07.4-.08.41s-.11.04-.28.12a3.23,3.23,0,0,1-.09.41l-.28.11a2.515,2.515,0,0,1-.08.42s-.11.04-.28.11c-.05.27-.08.41-.08.42s-.11.04-.29.11a2.848,2.848,0,0,1-.08.42l-.28.11c-.05.26-.07.41-.08.42s-.11.04-.29.11a2.838,2.838,0,0,1-.08.42l-.28.11a2.841,2.841,0,0,1-.08.42s-.11.04-.28.11c-.05.26-.08.41-.08.42s-.11.04-.29.11a2.235,2.235,0,0,1-.08.41s-.1.05-.28.12c-.05.26-.07.41-.08.41s-.11.05-.29.11a2.247,2.247,0,0,1-.08.42,2.353,2.353,0,0,1-.28.11,4.2,4.2,0,0,1-.08.42s-.11.04-.29.11c-.04.27-.07.42-.07.42s-.11.04-.29.11a2.246,2.246,0,0,1-.08.42s-.11.04-.28.11c-.05.27-.07.41-.08.42s-.11.04-.29.11c-.04.27-.07.41-.07.42s-.11.04-.29.11c-.05.27-.07.41-.08.42s-.11.04-.29.11c-.04.27-.07.41-.07.42s-.11.04-.29.11a2.839,2.839,0,0,1-.08.42l-.28.1c-.05.27-.07.42-.08.43s-.11.04-.29.1c-.04.27-.07.42-.07.43s-.11.04-.29.1c-.05.27-.07.42-.08.43s-.11.04-.29.1c-.04.27-.07.42-.07.43s-.11.04-.29.1a2.834,2.834,0,0,1-.08.43s-.11.04-.29.1a4.148,4.148,0,0,1-.07.43s-.11.03-.29.1c-.04.27-.07.42-.07.43s-.11.03-.29.1c-.05.27-.07.42-.08.43s-.11.03-.29.1a4.149,4.149,0,0,1-.07.43s-.11.03-.29.09a2.263,2.263,0,0,1-.08.43s-.11.04-.29.1a3.153,3.153,0,0,1-.07.43s-.11.04-.29.1c-.04.28-.07.43-.07.43s-.11.04-.3.1a3.157,3.157,0,0,1-.07.43s-.11.04-.29.1a3.594,3.594,0,0,1-.07.43s-.11.04-.29.1a2.517,2.517,0,0,1-.08.43s-.11.04-.29.1a3.6,3.6,0,0,1-.07.43s-.11.04-.29.1c-.04.27-.07.42-.07.43s-.11.04-.3.1a4.148,4.148,0,0,1-.07.43s-.11.04-.29.09a4.1,4.1,0,0,1-.07.44s-.11.04-.3.09c-.03.28-.06.43-.06.44s-.12.03-.3.09a4.1,4.1,0,0,1-.07.44s-.11.03-.29.09c-.04.28-.07.43-.07.44s-.11.03-.3.09a4.094,4.094,0,0,1-.07.44s-.11.03-.29.09a4.1,4.1,0,0,1-.07.44s-.11.03-.3.09c-.03.28-.06.43-.06.44s-.12.03-.3.09a4.094,4.094,0,0,1-.07.44s-.11.03-.3.09c-.03.28-.06.43-.06.44s-.12.03-.3.09c-.04.26-.06.4-.07.43h-.07a83.674,83.674,0,0,1-83.15-92.34c.06,0,.13-.01.21-.01a3.2,3.2,0,0,1-.04-.42s.17-.01.45-.02a1.881,1.881,0,0,1-.04-.42s.17-.01.45-.02c-.04-.27-.05-.42-.05-.42s.17-.01.45-.02a3.2,3.2,0,0,1-.04-.42s.17-.01.45-.02a3.129,3.129,0,0,1-.04-.43s.17,0,.45-.01a1.92,1.92,0,0,1-.04-.43s.17,0,.45-.01c-.04-.27-.05-.42-.05-.43s.17-.01.46-.01a2.52,2.52,0,0,1-.05-.43s.17-.01.45-.01a3.134,3.134,0,0,1-.04-.43s.17-.01.45-.01a1.92,1.92,0,0,1-.04-.43s.17-.01.45-.01a1.92,1.92,0,0,1-.04-.43s.17-.01.45-.01a2.523,2.523,0,0,1-.05-.43s.17-.01.45-.02a2.944,2.944,0,0,1-.04-.42s.17-.01.45-.02a2.941,2.941,0,0,1-.04-.42s.17-.01.45-.02a1.85,1.85,0,0,1-.04-.42s.17-.01.45-.02c-.04-.27-.05-.41-.05-.42s.17-.01.46-.02a2.465,2.465,0,0,1-.05-.42s.17-.01.45-.02a3.066,3.066,0,0,1-.04-.42s.17-.01.45-.02a1.851,1.851,0,0,1-.04-.42s.17-.01.45-.02c-.04-.27-.05-.41-.05-.42s.18-.01.46-.02a2.469,2.469,0,0,1-.05-.42s.17-.01.46-.02a2.577,2.577,0,0,1-.05-.42s.17-.01.45-.02a3.2,3.2,0,0,1-.04-.42s.17-.01.45-.02a1.881,1.881,0,0,1-.04-.42s.17-.01.45-.02a2.521,2.521,0,0,1-.05-.43s.17,0,.46-.01a2.519,2.519,0,0,1-.05-.43s.17-.01.46-.01a2.52,2.52,0,0,1-.05-.43s.17-.01.45-.01a1.92,1.92,0,0,1-.04-.43s.17-.01.45-.01a2.519,2.519,0,0,1-.05-.43s.18-.01.46-.01a2.52,2.52,0,0,1-.05-.43s.17-.01.46-.02a2.372,2.372,0,0,1-.05-.42s.17-.01.46-.02a1.588,1.588,0,0,1-.05-.42s.17-.01.45-.02c-.04-.26-.05-.41-.05-.42s.18-.01.46-.02a2.469,2.469,0,0,1-.05-.42s.18-.01.46-.02a2.467,2.467,0,0,1-.05-.42s.17-.01.46-.02a2.465,2.465,0,0,1-.05-.42s.17-.01.46-.02a1.619,1.619,0,0,1-.05-.42s.17-.01.45-.02a2.467,2.467,0,0,1-.05-.42s.18-.01.46-.02a2.466,2.466,0,0,1-.05-.42s.17-.01.46-.02a2.469,2.469,0,0,1-.05-.42s.17-.01.46-.02a1.619,1.619,0,0,1-.05-.42s.17-.01.45-.02a2.466,2.466,0,0,1-.05-.42s.18-.01.46-.02a2.469,2.469,0,0,1-.05-.42s.18-.01.46-.02a2.574,2.574,0,0,1-.05-.42,4.365,4.365,0,0,1,.46-.02,2.519,2.519,0,0,1-.05-.43s.17-.01.46-.01a2.119,2.119,0,0,1-.06-.43s.18-.01.46-.01a2.521,2.521,0,0,1-.05-.43s.18-.01.46-.02a2.368,2.368,0,0,1-.05-.42s.17-.01.46-.02a2.369,2.369,0,0,1-.05-.42s.17-.01.46-.02a1.588,1.588,0,0,1-.05-.42s.17-.01.46-.02a1.99,1.99,0,0,1-.06-.42s.18-.01.46-.02a2.372,2.372,0,0,1-.05-.42s.18-.01.46-.02a2.372,2.372,0,0,1-.05-.42s.17-.01.46-.02a2.37,2.37,0,0,1-.05-.42s.17-.01.46-.02a1.992,1.992,0,0,1-.06-.42s.18-.01.47-.02a2.073,2.073,0,0,1-.06-.42s.18-.01.46-.02a2.467,2.467,0,0,1-.05-.42s.17-.01.46-.02a2.466,2.466,0,0,1-.05-.42s.17-.01.46-.02a2.073,2.073,0,0,1-.06-.42s.18-.01.47-.02a2.071,2.071,0,0,1-.06-.42s.18-.01.47-.02a2.071,2.071,0,0,1-.06-.42s.18-.01.46-.02a2.469,2.469,0,0,1-.05-.42s.17-.01.46-.02a2.467,2.467,0,0,1-.05-.42,4.364,4.364,0,0,1,.46-.02,2.074,2.074,0,0,1-.06-.42s.18-.02.47-.02a2.073,2.073,0,0,1-.06-.42s.13-.01.34-.02l-.04-.21s.1,0,.26-.01l-.04-.21s4.11-.28,6.23.85a.872.872,0,0,0,.17.09l12.27-4.13s31.06,3.02,36.59,16.66c.12-.12.22-.23.34-.34.14-.14.27-.28.42-.42s.27-.28.42-.42c.13-.14.27-.28.41-.42l.42-.42c.14-.14.27-.28.42-.41s.27-.29.42-.42.27-.29.42-.42c.13-.14.27-.29.41-.42s.28-.29.42-.42a19.9,19.9,0,0,1,1.86-1.67c10.3-8.75,32.2-10.88,32.2-10.88l12.54,4.23c.15-.09.26-.15.33-.19,2.13-1.13,6.24-.85,6.24-.85" transform="translate(675 251.623)" fill="#e2780e"/>
      <path id="Trazado_229" data-name="Trazado 229" d="M262.9,46.857l12.653-4.264s35.65,3.46,37.377,19.723V78.58Z" transform="translate(675 251.623)" fill="#fff"/>
      <path id="Trazado_230" data-name="Trazado 230" d="M362.963,46.857l-12.654-4.264s-35.65,3.46-37.376,19.723V78.58Z" transform="translate(675 251.623)" fill="#fff"/>
      <path id="Trazado_231" data-name="Trazado 231" d="M363.182,46.638C361.056,47.772,320.1,70.732,320.1,70.732s-4.11,2.126-6.945,2.126-6.945-2.126-6.945-2.126-40.959-22.96-43.085-24.094-6.236-.85-6.236-.85l13.181,59.242s34.156,21.684,36.991,23.385a20.151,20.151,0,0,0,6.094,2.268,20.151,20.151,0,0,0,6.094-2.268c2.835-1.7,36.991-23.385,36.991-23.385l13.181-59.242s-4.11-.284-6.236.85" transform="translate(675 251.623)" fill="#ffc77d"/>
      <path id="Trazado_232" data-name="Trazado 232" d="M323.779,68.913l-1.73,58c-1.441.9-2.448,1.53-2.841,1.765a20.079,20.079,0,0,1-6.094,2.268,20.089,20.089,0,0,1-6.094-2.268c-.337-.2-1.1-.676-2.206-1.365l-2.288-58.356c2.261,1.269,3.64,2.041,3.64,2.041s4.115,2.123,6.948,2.123S320.056,71,320.056,71l3.723-2.089" transform="translate(675 251.623)" fill="#cc6100"/>
      <path id="Trazado_233" data-name="Trazado 233" d="M297.7,61.624s-8.339-8.17-17.128-9c0,0,12.457,3.98,17.128,9" transform="translate(675 251.623)" fill="#b0bdc8"/>
      <path id="Trazado_234" data-name="Trazado 234" d="M280.575,48.475s16.263,4.152,20.762,10.554c0,0-3.287-7.44-20.762-10.554" transform="translate(675 251.623)" fill="#b0bdc8"/>
      <path id="Trazado_235" data-name="Trazado 235" d="M349.6,46.757s-21.223,3.46-27.682,13.611c0,0,8.3-9,27.682-13.611" transform="translate(675 251.623)" fill="#b0bdc8"/>
    </g>
  </g>
</svg>
