<svg xmlns="http://www.w3.org/2000/svg" width="320" height="167.214" viewBox="0 0 320 167.214">
  <g id="libro1" transform="translate(-539 -312.209)">
    <g id="Grupo_53" data-name="Grupo 53" transform="translate(-135.999 60.586)">
      <path id="Trazado_217" data-name="Trazado 217" d="M167.214,83.607A83.608,83.608,0,1,1,83.606,0a83.608,83.608,0,0,1,83.608,83.607" transform="translate(675 251.623)" fill="#2b388f"/>
      <path id="Trazado_218" data-name="Trazado 218" d="M139.76,45.782l-13.18,59.25s-.08.05-.2.12l-.02.1s-.15.09-.39.24c-.05.17-.07.28-.08.29s-.1.05-.27.16a1.836,1.836,0,0,1-.1.36s-.09.06-.26.17a3.464,3.464,0,0,1-.1.36s-.1.06-.26.17c-.06.22-.1.35-.1.36s-.1.06-.27.17a2.156,2.156,0,0,1-.1.36s-.09.06-.26.17c-.06.22-.09.35-.1.36l-.27.16a2.116,2.116,0,0,1-.1.37s-.09.06-.26.16c-.06.23-.09.36-.1.37s-.1.06-.26.16c-.06.23-.09.36-.1.37l-.27.16a2.116,2.116,0,0,1-.1.37s-.09.06-.26.16c-.06.23-.09.36-.1.37l-.27.16a2.116,2.116,0,0,1-.1.37s-.09.06-.26.16c-.06.23-.09.36-.1.37s-.1.06-.27.15a2.892,2.892,0,0,1-.09.38s-.1.05-.27.15a2.087,2.087,0,0,1-.1.38s-.09.05-.26.15c-.06.24-.09.37-.1.38s-.1.05-.27.15a2.44,2.44,0,0,1-.1.38s-.09.05-.26.15c-.06.23-.09.37-.1.38s-.1.05-.27.15a3.524,3.524,0,0,1-.09.38s-.1.05-.27.15a2.441,2.441,0,0,1-.1.38s-.09.05-.26.15a3.29,3.29,0,0,1-.1.37s-.1.06-.27.15a1.813,1.813,0,0,1-.1.38s-.09.06-.26.15c-.06.24-.09.37-.1.38s-.1.06-.27.15a2.891,2.891,0,0,1-.09.38s-.1.06-.27.15a2.087,2.087,0,0,1-.1.38s-.1.06-.27.15a2.89,2.89,0,0,1-.09.38s-.1.06-.27.15c-.05.24-.09.37-.09.38s-.1.05-.27.15c-.06.24-.09.37-.1.38s-.1.05-.27.15a2.89,2.89,0,0,1-.09.38s-.1.05-.27.14a2.069,2.069,0,0,1-.1.39s-.1.05-.27.14a3.394,3.394,0,0,1-.09.39s-.1.05-.27.14c-.05.24-.09.38-.09.39s-.1.05-.27.14c-.06.24-.09.38-.1.39s-.1.05-.27.14a3.4,3.4,0,0,1-.09.39s-.1.05-.27.14a2.393,2.393,0,0,1-.1.39s-.1.05-.27.14a3.393,3.393,0,0,1-.09.39s-.1.05-.27.14c-.05.24-.09.38-.09.39s-.1.05-.28.13a3.3,3.3,0,0,1-.09.4s-.1.05-.27.13a3.3,3.3,0,0,1-.09.4s-.1.05-.27.13a3.071,3.071,0,0,1-.1.39s-.1.06-.27.14a2.409,2.409,0,0,1-.09.39s-.1.05-.27.14a2.408,2.408,0,0,1-.09.39l-.28.14a2.408,2.408,0,0,1-.09.39s-.1.05-.27.14a2.83,2.83,0,0,1-.09.39s-.1.05-.27.14c-.06.24-.09.38-.09.39s-.11.05-.28.14a3.4,3.4,0,0,1-.09.39s-.1.05-.27.13a3.3,3.3,0,0,1-.09.4s-.1.05-.28.13a3.3,3.3,0,0,1-.09.4s-.1.05-.27.13a3.3,3.3,0,0,1-.09.4s-.1.05-.28.13c-.05.25-.08.39-.08.4s-.11.05-.28.13a3.3,3.3,0,0,1-.09.4s-.1.05-.27.13a3.3,3.3,0,0,1-.09.4s-.1.05-.28.13a3.3,3.3,0,0,1-.09.4s-.1.05-.27.13a3.3,3.3,0,0,1-.09.4s-.1.04-.28.12c-.05.26-.08.4-.08.41s-.11.04-.28.12a3.222,3.222,0,0,1-.09.41s-.1.04-.28.12a2.52,2.52,0,0,1-.08.41s-.11.04-.28.12a3.222,3.222,0,0,1-.09.41s-.1.04-.27.12a3.222,3.222,0,0,1-.09.41s-.1.04-.28.12l-.08.4s-.11.05-.28.13a2.786,2.786,0,0,1-.09.4s-.1.05-.28.13a2.232,2.232,0,0,1-.08.4s-.11.05-.28.12a2.752,2.752,0,0,1-.09.41s-.1.05-.28.12a2.52,2.52,0,0,1-.08.41s-.1.05-.28.12c-.05.26-.08.4-.08.41s-.11.05-.28.12a3.223,3.223,0,0,1-.09.41s-.1.05-.28.12a2.519,2.519,0,0,1-.08.41s-.11.05-.28.12c-.05.26-.08.4-.08.41s-.11.04-.29.12a2.519,2.519,0,0,1-.08.41s-.1.04-.28.12c-.05.26-.07.4-.08.41s-.11.04-.28.12a3.223,3.223,0,0,1-.09.41l-.28.11a2.517,2.517,0,0,1-.08.42s-.11.04-.28.11c-.05.27-.08.41-.08.42s-.11.04-.29.11a2.842,2.842,0,0,1-.08.42l-.28.11c-.05.26-.07.41-.08.42s-.11.04-.29.11a2.842,2.842,0,0,1-.08.42l-.28.11a2.844,2.844,0,0,1-.08.42s-.11.04-.28.11c-.05.26-.08.41-.08.42s-.11.04-.29.11a2.237,2.237,0,0,1-.08.41s-.1.05-.28.12c-.05.26-.07.41-.08.41s-.11.05-.29.11a2.247,2.247,0,0,1-.08.42,2.352,2.352,0,0,1-.28.11,4.191,4.191,0,0,1-.08.42s-.11.04-.29.11c-.04.27-.07.42-.07.42s-.11.04-.29.11a2.247,2.247,0,0,1-.08.42s-.11.04-.28.11c-.05.27-.07.41-.08.42s-.11.04-.29.11c-.04.27-.07.41-.07.42s-.11.04-.29.11c-.05.27-.07.41-.08.42s-.11.04-.29.11c-.04.27-.07.41-.07.42s-.11.04-.29.11a2.841,2.841,0,0,1-.08.42l-.28.1c-.05.27-.07.42-.08.43s-.11.04-.29.1c-.04.27-.07.42-.07.43s-.11.04-.29.1c-.05.27-.07.42-.08.43s-.11.04-.29.1c-.04.27-.07.42-.07.43s-.11.04-.29.1a2.828,2.828,0,0,1-.08.43s-.11.04-.29.1a4.15,4.15,0,0,1-.07.43s-.11.03-.29.1c-.04.27-.07.42-.07.43s-.11.03-.29.1c-.05.27-.07.42-.08.43s-.11.03-.29.1a4.149,4.149,0,0,1-.07.43s-.11.03-.29.09a2.262,2.262,0,0,1-.08.43s-.11.04-.29.1a3.154,3.154,0,0,1-.07.43s-.11.04-.29.1c-.04.28-.07.43-.07.43s-.11.04-.3.1a3.153,3.153,0,0,1-.07.43s-.11.04-.29.1a3.594,3.594,0,0,1-.07.43s-.11.04-.29.1a2.519,2.519,0,0,1-.08.43s-.11.04-.29.1a3.6,3.6,0,0,1-.07.43s-.11.04-.29.1c-.04.27-.07.42-.07.43s-.11.04-.3.1a4.149,4.149,0,0,1-.07.43s-.11.04-.29.09a4.094,4.094,0,0,1-.07.44s-.11.04-.3.09c-.03.28-.06.43-.06.44s-.12.03-.3.09a4.1,4.1,0,0,1-.07.44s-.11.03-.29.09c-.04.28-.07.43-.07.44s-.11.03-.3.09a4.1,4.1,0,0,1-.07.44s-.11.03-.29.09a4.093,4.093,0,0,1-.07.44s-.11.03-.3.09c-.03.28-.06.43-.06.44s-.12.03-.3.09a4.1,4.1,0,0,1-.07.44s-.11.03-.3.09c-.03.28-.06.43-.06.44s-.12.03-.3.09c-.04.26-.06.4-.07.43H83.6A83.673,83.673,0,0,1,.45,74.852c.06,0,.13-.01.21-.01a3.2,3.2,0,0,1-.04-.42s.17-.01.45-.02a1.881,1.881,0,0,1-.04-.42s.17-.01.45-.02c-.04-.27-.05-.42-.05-.42s.17-.01.45-.02a3.2,3.2,0,0,1-.04-.42s.17-.01.45-.02a3.132,3.132,0,0,1-.04-.43s.17,0,.45-.01a1.919,1.919,0,0,1-.04-.43s.17,0,.45-.01c-.04-.27-.05-.42-.05-.43s.17-.01.46-.01a2.521,2.521,0,0,1-.05-.43s.17-.01.45-.01a3.131,3.131,0,0,1-.04-.43s.17-.01.45-.01a1.92,1.92,0,0,1-.04-.43s.17-.01.45-.01a1.919,1.919,0,0,1-.04-.43s.17-.01.45-.01a2.521,2.521,0,0,1-.05-.43s.17-.01.45-.02a2.943,2.943,0,0,1-.04-.42s.17-.01.45-.02a2.943,2.943,0,0,1-.04-.42s.17-.01.45-.02a1.85,1.85,0,0,1-.04-.42s.17-.01.45-.02c-.04-.27-.05-.41-.05-.42s.17-.01.46-.02a2.467,2.467,0,0,1-.05-.42s.17-.01.45-.02a3.063,3.063,0,0,1-.04-.42s.17-.01.45-.02a1.851,1.851,0,0,1-.04-.42s.17-.01.45-.02c-.04-.27-.05-.41-.05-.42s.18-.01.46-.02a2.467,2.467,0,0,1-.05-.42s.17-.01.46-.02a2.574,2.574,0,0,1-.05-.42s.17-.01.45-.02a3.2,3.2,0,0,1-.04-.42s.17-.01.45-.02a1.881,1.881,0,0,1-.04-.42s.17-.01.45-.02a2.521,2.521,0,0,1-.05-.43s.17,0,.46-.01a2.521,2.521,0,0,1-.05-.43s.17-.01.46-.01a2.521,2.521,0,0,1-.05-.43s.17-.01.45-.01a1.919,1.919,0,0,1-.04-.43s.17-.01.45-.01a2.521,2.521,0,0,1-.05-.43s.18-.01.46-.01a2.521,2.521,0,0,1-.05-.43s.17-.01.46-.02a2.37,2.37,0,0,1-.05-.42s.17-.01.46-.02a1.587,1.587,0,0,1-.05-.42s.17-.01.45-.02c-.04-.26-.05-.41-.05-.42s.18-.01.46-.02a2.467,2.467,0,0,1-.05-.42s.18-.01.46-.02a2.467,2.467,0,0,1-.05-.42s.17-.01.46-.02a2.467,2.467,0,0,1-.05-.42s.17-.01.46-.02a1.618,1.618,0,0,1-.05-.42s.17-.01.45-.02a2.467,2.467,0,0,1-.05-.42s.18-.01.46-.02a2.467,2.467,0,0,1-.05-.42s.17-.01.46-.02a2.467,2.467,0,0,1-.05-.42s.17-.01.46-.02a1.618,1.618,0,0,1-.05-.42s.17-.01.45-.02a2.467,2.467,0,0,1-.05-.42s.18-.01.46-.02a2.467,2.467,0,0,1-.05-.42s.18-.01.46-.02a2.574,2.574,0,0,1-.05-.42,4.365,4.365,0,0,1,.46-.02,2.521,2.521,0,0,1-.05-.43s.17-.01.46-.01a2.118,2.118,0,0,1-.06-.43s.18-.01.46-.01a2.521,2.521,0,0,1-.05-.43s.18-.01.46-.02a2.37,2.37,0,0,1-.05-.42s.17-.01.46-.02a2.37,2.37,0,0,1-.05-.42s.17-.01.46-.02a1.587,1.587,0,0,1-.05-.42s.17-.01.46-.02a1.992,1.992,0,0,1-.06-.42s.18-.01.46-.02a2.37,2.37,0,0,1-.05-.42s.18-.01.46-.02a2.37,2.37,0,0,1-.05-.42s.17-.01.46-.02a2.37,2.37,0,0,1-.05-.42s.17-.01.46-.02a1.992,1.992,0,0,1-.06-.42s.18-.01.47-.02a2.072,2.072,0,0,1-.06-.42s.18-.01.46-.02a2.467,2.467,0,0,1-.05-.42s.17-.01.46-.02a2.467,2.467,0,0,1-.05-.42s.17-.01.46-.02a2.073,2.073,0,0,1-.06-.42s.18-.01.47-.02a2.073,2.073,0,0,1-.06-.42s.18-.01.47-.02a2.073,2.073,0,0,1-.06-.42s.18-.01.46-.02a2.467,2.467,0,0,1-.05-.42s.17-.01.46-.02a2.467,2.467,0,0,1-.05-.42,4.364,4.364,0,0,1,.46-.02,2.073,2.073,0,0,1-.06-.42s.18-.02.47-.02a2.073,2.073,0,0,1-.06-.42s.13-.01.34-.02L27.01,46s.1,0,.26-.01l-.04-.21s4.11-.28,6.23.85a.872.872,0,0,0,.17.09l12.27-4.13s31.06,3.02,36.59,16.66c.12-.12.22-.23.34-.34.14-.14.27-.28.42-.42s.27-.28.42-.42c.13-.14.27-.28.41-.42l.42-.42c.14-.14.27-.28.42-.41s.27-.29.42-.42.27-.29.42-.42c.13-.14.27-.29.41-.42s.28-.29.42-.42a19.9,19.9,0,0,1,1.86-1.67c10.3-8.75,32.2-10.88,32.2-10.88l12.54,4.23c.15-.09.26-.15.33-.19,2.13-1.13,6.24-.85,6.24-.85" transform="translate(675 251.623)" fill="#16246d"/>
      <path id="Trazado_219" data-name="Trazado 219" d="M33.467,46.857l12.654-4.264s35.65,3.46,37.376,19.723V78.58Z" transform="translate(675 251.623)" fill="#fff"/>
      <path id="Trazado_220" data-name="Trazado 220" d="M133.527,46.857l-12.654-4.264S85.223,46.053,83.5,62.316V78.58Z" transform="translate(675 251.623)" fill="#fff"/>
      <path id="Trazado_221" data-name="Trazado 221" d="M133.746,46.638c-2.126,1.134-43.085,24.094-43.085,24.094s-4.11,2.126-6.945,2.126-6.945-2.126-6.945-2.126S35.812,47.772,33.686,46.638s-6.236-.85-6.236-.85L40.631,105.03s34.156,21.684,36.991,23.385a20.151,20.151,0,0,0,6.094,2.268,20.151,20.151,0,0,0,6.094-2.268c2.835-1.7,36.991-23.385,36.991-23.385l13.181-59.242s-4.11-.284-6.236.85" transform="translate(675 251.623)" fill="#00adee"/>
      <path id="Trazado_222" data-name="Trazado 222" d="M94.343,68.913l-1.73,58c-1.441.9-2.448,1.53-2.841,1.765a20.079,20.079,0,0,1-6.094,2.268,20.088,20.088,0,0,1-6.094-2.268c-.337-.2-1.1-.676-2.206-1.365L73.09,68.961C75.351,70.23,76.73,71,76.73,71s4.115,2.123,6.948,2.123S90.62,71,90.62,71l3.723-2.089" transform="translate(675 251.623)" fill="#131749"/>
      <path id="Trazado_223" data-name="Trazado 223" d="M68.268,61.624s-8.339-8.17-17.128-9c0,0,12.457,3.98,17.128,9" transform="translate(675 251.623)" fill="#b0bdc8"/>
      <path id="Trazado_224" data-name="Trazado 224" d="M51.139,48.475S67.4,52.627,71.9,59.029c0,0-3.287-7.44-20.762-10.554" transform="translate(675 251.623)" fill="#b0bdc8"/>
      <path id="Trazado_225" data-name="Trazado 225" d="M120.16,46.757s-21.223,3.46-27.682,13.611c0,0,8.3-9,27.682-13.611" transform="translate(675 251.623)" fill="#b0bdc8"/>
      <path id="Trazado_226" data-name="Trazado 226" d="M98.257,60.586a24.514,24.514,0,0,1,13.485-7.295s-11.87,4.065-13.485,7.295" transform="translate(675 251.623)" fill="#b0bdc8"/>
    </g>
    <rect id="Rect치ngulo_85" data-name="Rect치ngulo 85" width="208" height="2" transform="translate(650 461)" fill="#2b388f"/>
    <text id="Certificaci칩n" transform="translate(785 454)" fill="#16246d" font-size="22" font-family="Poppins-Bold, Poppins" font-weight="700"><tspan x="-73.227" y="0">Certificaci칩n</tspan></text>
  </g>
</svg>
