<svg id="mano" xmlns="http://www.w3.org/2000/svg" width="44.242" height="44.242" viewBox="0 0 44.242 44.242">
  <path id="Trazado_115" data-name="Trazado 115" d="M22.121,63.378A22.121,22.121,0,1,1,44.242,41.257,22.146,22.146,0,0,1,22.121,63.378" transform="translate(0 -19.136)" fill="#fff"/>
  <path id="Trazado_116" data-name="Trazado 116" d="M28.15,65.5A18.212,18.212,0,1,1,46.362,47.288,18.233,18.233,0,0,1,28.15,65.5" transform="translate(-6.029 -25.167)" fill="#b4dade"/>
  <path id="Trazado_117" data-name="Trazado 117" d="M59.6,52.67l.366.19-.2.392-.2.393-.131-.068-.236-.122a1.1,1.1,0,0,0-1.481.47L56.34,56.577l-.61,1.176-.393-.2-.393-.2,1.986-3.829A1.985,1.985,0,0,1,59.6,52.67" transform="translate(-33.335 -39.345)" fill="#4d73aa"/>
  <path id="Trazado_118" data-name="Trazado 118" d="M30.592,67.124c-.263-1.375-.59-3.086,1.5-7.109L35.1,54.207a1.91,1.91,0,0,1,1.025-.894,1.652,1.652,0,0,1,1.332.051l-.2.393-.2.391a.77.77,0,0,0-.617-.007,1.018,1.018,0,0,0-.548.473l-3.012,5.809C31.017,64,31.2,65.571,31.428,66.785c.011.058.022.116.033.172.047.246.091.478.12.721a.443.443,0,0,1-.046.256l-.99,1.908-.392-.2-.393-.2.925-1.784c-.025-.17-.058-.344-.093-.527" transform="translate(-18.055 -39.801)" fill="#4d73aa"/>
  <path id="Trazado_119" data-name="Trazado 119" d="M50.638,52.489l.616.319-.407.785-.616-.319c-.374-.194-1.008.162-1.224.581l-1.615,3.113-.785-.407,1.614-3.113a1.95,1.95,0,0,1,2.416-.958" transform="translate(-28.276 -39.28)" fill="#4d73aa"/>
  <path id="Trazado_120" data-name="Trazado 120" d="M57.309,63.474a9.761,9.761,0,0,1-5.557,3.766l-.824,1.589-.785-.407.922-1.779a.457.457,0,0,1,.316-.232c2.311-.4,4.422-2.065,6.276-4.937l1.375-2.129a2.245,2.245,0,0,0,.2-1.628,1.985,1.985,0,0,0-.9-1.085l-1.2,2.5-.8-.382,5.663-11.81a.817.817,0,0,0-.363-1.078l-.407-.211a.821.821,0,0,0-1.105.35l-4.258,8.212-.392-.2-.393-.2,4.258-8.212a1.705,1.705,0,0,1,2.3-.728l.407.211a1.7,1.7,0,0,1,.755,2.243v0l-.005.011-4.039,8.519a2.853,2.853,0,0,1,1.326,1.6,2.53,2.53,0,0,1,.078.334,3.024,3.024,0,0,1-.022,1.063" transform="translate(-30.422 -34.631)" fill="#4d73aa"/>
</svg>
