<svg id="medidor" xmlns="http://www.w3.org/2000/svg" xmlns:xlink="http://www.w3.org/1999/xlink" width="408.328" height="304.58" viewBox="0 0 408.328 304.58">
  <defs>
    <style>
      .cls-1 {
        fill: none;
      }

      .cls-2 {
        clip-path: url(#clip-path);
      }

      .cls-3 {
        fill: #fff;
      }

      .cls-4 {
        fill: #ccc;
      }

      .cls-5 {
        fill: #ebebeb;
      }

      .cls-6 {
        fill: #ff4230;
      }

      .cls-7 {
        fill: #d91907;
      }

      .cls-8 {
        fill: #ffc400;
      }

      .cls-9 {
        fill: #f59700;
      }

      .cls-10 {
        fill: #00b81e;
      }

      .cls-11 {
        fill: #009619;
      }

      .cls-12 {
        fill: #231f20;
      }

      .cls-13 {
        fill: #656d78;
      }

      .cls-14 {
        fill: #494e57;
      }
    </style>
    <clipPath id="clip-path">
      <rect id="rectangulo" class="cls-1" width="408.328" height="304.58"/>
    </clipPath>
  </defs>
  <g id="Grupo_55" data-name="Grupo 55" class="cls-2">
    <g id="base">
      <path id="Trazado_257" data-name="Trazado 257" class="cls-3" d="M390.179,163.13a51.88,51.88,0,0,0,6.2-72.542A249.213,249.213,0,0,0,26.8,74.148c-5.093,5.15-10.1,10.686-14.857,16.44a51.88,51.88,0,0,0,6.2,72.542L168.459,291.414a55,55,0,0,0,71.409,0Z" transform="translate(0)"/>
      <path id="Trazado_258" data-name="Trazado 258" class="cls-4" d="M.125,111.874a51.455,51.455,0,0,0,18.007,36.69L168.443,276.848a55,55,0,0,0,71.408,0L390.163,148.564a51.459,51.459,0,0,0,18.007-36.69Z" transform="translate(0.016 14.566)"/>
      <path id="Trazado_259" data-name="Trazado 259" class="cls-5" d="M384.212,156.531c18.231-15.559,21-42.977,5.781-61.489a241.588,241.588,0,0,0-373.409,0C1.36,113.554,4.135,140.972,22.365,156.531L172.553,284.711a47.345,47.345,0,0,0,61.472,0Z" transform="translate(0.876 0.882)"/>
    </g>
    <g id="alto">
      <path id="Trazado_260" data-name="Trazado 260" class="cls-6" d="M24.565,98.771a32.983,32.983,0,0,0,8.975,49.556l.618.357c14.108,8.145,31.784,4.543,42.228-7.96a163.914,163.914,0,0,1,69.607-48.9L123.184,29.157A230.71,230.71,0,0,0,24.565,98.771" transform="translate(2.216 3.796)"/>
      <path id="Trazado_263" data-name="Trazado 263" class="cls-7" d="M24.565,98.771a32.983,32.983,0,0,0,8.975,49.556l.618.357a32.4,32.4,0,0,0,6.953,2.9,32.678,32.678,0,0,1-1.963-44.723,214.271,214.271,0,0,1,89.641-62.3l-5.6-15.4A230.71,230.71,0,0,0,24.565,98.771" transform="translate(2.216 3.796)"/>
    </g>
    <g id="medio">
      <path id="Trazado_262" data-name="Trazado 262" class="cls-8" d="M189.718,16.861a229.521,229.521,0,0,0-78.764,13.9l22.809,62.665a163.457,163.457,0,0,1,111.91,0l22.809-62.665a229.521,229.521,0,0,0-78.764-13.9" transform="translate(14.446 2.195)"/>
      <path id="Trazado_264" data-name="Trazado 264" class="cls-9" d="M189.718,16.861a229.521,229.521,0,0,0-78.764,13.9l5.6,15.4a213.583,213.583,0,0,1,146.318,0l5.6-15.4a229.521,229.521,0,0,0-78.764-13.9" transform="translate(14.446 2.195)"/>
    </g>
    <g id="bajo">
      <path id="Trazado_261" data-name="Trazado 261" class="cls-10" d="M351.581,98.771a230.7,230.7,0,0,0-98.619-69.614L230.153,91.822a163.894,163.894,0,0,1,69.607,48.9c10.444,12.5,28.119,16.105,42.229,7.96l.617-.357a32.982,32.982,0,0,0,8.975-49.556" transform="translate(29.966 3.796)"/>
      <path id="Trazado_265" data-name="Trazado 265" class="cls-11" d="M349.6,98.771A230.7,230.7,0,0,0,250.98,29.157l-5.6,15.4a214.26,214.26,0,0,1,89.64,62.3,32.677,32.677,0,0,1-1.962,44.723,32.406,32.406,0,0,0,6.954-2.9l.617-.357A32.982,32.982,0,0,0,349.6,98.771" transform="translate(31.948 3.796)"/>
    </g>
    <g id="alto-frase">
      <path id="Trazado_266" data-name="Trazado 266" class="cls-3" d="M64.525,108.929l1.016,3.588-2.085,1.721L59,98.462l2.085-1.722L75.733,104.1l-2.084,1.722-3.332-1.675ZM68.033,103l-6.039-3.029,1.835,6.5Z" transform="translate(7.681 12.596)"/>
      <path id="Trazado_267" data-name="Trazado 267" class="cls-3" d="M76.326,103.6,66.771,92.029l1.952-1.614,8.024,9.713,5.279-4.36,1.53,1.854Z" transform="translate(8.694 11.772)"/>
      <path id="Trazado_268" data-name="Trazado 268" class="cls-3" d="M79.974,84.8l8.078,9.78L86.1,96.189l-8.079-9.781-3.508,2.9-1.476-1.787,8.969-7.408L83.483,81.9Z" transform="translate(9.509 10.43)"/>
      <path id="Trazado_269" data-name="Trazado 269" class="cls-3" d="M100.238,81.525a8.227,8.227,0,0,1-8.671,7.162,7.871,7.871,0,0,1-7.052-8.536,8.225,8.225,0,0,1,8.67-7.163,7.877,7.877,0,0,1,7.054,8.538m-7.412-6.056a5.259,5.259,0,0,0-5.808,4.8,5.6,5.6,0,0,0,4.907,5.94,5.262,5.262,0,0,0,5.808-4.8,5.6,5.6,0,0,0-4.907-5.94" transform="translate(10.998 9.499)"/>
    </g>
    <g id="medio-frase">
      <path id="Trazado_270" data-name="Trazado 270" class="cls-12" d="M154.532,60.494H152v-15h3.949l4.529,9.422,4.53-9.422h3.926v15H166.4V48.775l-5.237,10.41h-1.417l-5.215-10.41Z" transform="translate(19.79 5.923)"/>
      <path id="Trazado_271" data-name="Trazado 271" class="cls-12" d="M181.2,45.491v2.382H173.2v3.97h7.189V54.1H173.2v4.014h8.264v2.381h-10.8v-15Z" transform="translate(22.221 5.923)"/>
      <path id="Trazado_272" data-name="Trazado 272" class="cls-12" d="M194.44,47.455a6.993,6.993,0,0,1,2.168,5.462,7.35,7.35,0,0,1-2.1,5.537q-2.1,2.039-6.439,2.039h-4.98v-15h5.151a8.931,8.931,0,0,1,6.2,1.964m-.387,5.527q0-5.152-5.9-5.151h-2.533V58.112h2.811a6.057,6.057,0,0,0,4.176-1.3,4.882,4.882,0,0,0,1.448-3.831" transform="translate(23.838 5.923)"/>
      <rect id="Rectángulo_87" data-name="Rectángulo 87" class="cls-12" width="2.533" height="15.002" transform="translate(223.707 51.414)"/>
      <path id="Trazado_273" data-name="Trazado 273" class="cls-12" d="M216.529,58.465a8.231,8.231,0,0,1-11.248,0,7.879,7.879,0,0,1,0-11.075,8.228,8.228,0,0,1,11.248,0,7.876,7.876,0,0,1,0,11.075m-1.857-9.39a5.261,5.261,0,0,0-7.533,0,5.6,5.6,0,0,0,0,7.7,5.258,5.258,0,0,0,7.533,0,5.6,5.6,0,0,0,0-7.7" transform="translate(26.432 5.881)"/>
    </g>
    <g id="bajo-frase">
      <path id="Trazado_274" data-name="Trazado 274" class="cls-12" d="M266.261,83.826l-5.038-4.213L270.846,68.1l4.479,3.744a8.454,8.454,0,0,1,1.783,1.967,3.61,3.61,0,0,1,.625,1.811,3.823,3.823,0,0,1-.888,2.67,3.093,3.093,0,0,1-2.535,1.293,5.024,5.024,0,0,1-.67-.07c-.11-.025-.3-.077-.57-.154a3.937,3.937,0,0,1,.9,2.387,3.5,3.5,0,0,1-.887,2.35,4.035,4.035,0,0,1-2.6,1.436q-1.865.258-4.22-1.711m-1.595-4.383,3.046,2.546a4.225,4.225,0,0,0,1.919,1.033,1.774,1.774,0,0,0,1.637-.8q1.278-1.531-1.173-3.583L267.3,76.3Zm4.13-4.94,2.471,2.065q2.107,1.763,3.3.33a1.761,1.761,0,0,0,.48-1.613,3.588,3.588,0,0,0-1.278-1.683l-2.486-2.08Z" transform="translate(34.011 8.867)"/>
      <path id="Trazado_275" data-name="Trazado 275" class="cls-12" d="M275.394,86.526l-3.341,1.655-2.075-1.735,14.695-7.268,2.075,1.735L282.2,96.661l-2.075-1.735,1.036-3.582Zm6.475,2.363,1.873-6.491-6.054,2.994Z" transform="translate(35.151 10.309)"/>
      <path id="Trazado_276" data-name="Trazado 276" class="cls-12" d="M290.742,87.67l1.459-1.745,5.6,4.68-6.346,7.59a5.283,5.283,0,0,1-3.54,2.16,4.661,4.661,0,0,1-3.457-1.184,6.084,6.084,0,0,1-2.242-4.279l2.384-.609a4.22,4.22,0,0,0,1.3,2.9,2.35,2.35,0,0,0,1.719.571,2.634,2.634,0,0,0,1.816-1.084l4.969-5.944Z" transform="translate(36.744 11.188)"/>
      <path id="Trazado_277" data-name="Trazado 277" class="cls-12" d="M300.927,110.073a8.228,8.228,0,0,1-8.628-7.214,7.877,7.877,0,0,1,7.1-8.5,8.228,8.228,0,0,1,8.628,7.214,7.878,7.878,0,0,1-7.1,8.5m4.6-8.394a5.26,5.26,0,0,0-5.779-4.832,5.6,5.6,0,0,0-4.942,5.911,5.259,5.259,0,0,0,5.779,4.832,5.6,5.6,0,0,0,4.942-5.911" transform="translate(38.052 12.283)"/>
    </g>
    <g id="aguja">
      <path id="Trazado_278" data-name="Trazado 278" class="cls-13" d="M222.957,233.391,185.3,34.264,150.8,233.959a36.694,36.694,0,1,0,72.153-.568" transform="translate(19.561 4.461)"/>
      <path id="Trazado_279" data-name="Trazado 279" class="cls-14" d="M183.182,276.915a36.555,36.555,0,0,0,35.736-43.524L181.26,34.264Z" transform="translate(23.6 4.461)"/>
      <path id="Trazado_280" data-name="Trazado 280" class="cls-4" d="M203.16,218.463a18.343,18.343,0,1,1-18.487-18.2,18.343,18.343,0,0,1,18.487,18.2" transform="translate(21.675 26.075)"/>
      <path id="Trazado_281" data-name="Trazado 281" class="cls-3" d="M198.573,218.022a14.23,14.23,0,1,1-14.341-14.117,14.229,14.229,0,0,1,14.341,14.117" transform="translate(22.149 26.549)"/>
    </g>
  </g>
</svg>
