<svg id="Grupo_58" data-name="Grupo 58" xmlns="http://www.w3.org/2000/svg" xmlns:xlink="http://www.w3.org/1999/xlink" width="372.801" height="641.375" viewBox="0 0 372.801 641.375">
  <defs>
    <clipPath id="clip-path">
      <rect id="Rectángulo_84" data-name="Rectángulo 84" width="372.801" height="641.375" fill="none"/>
    </clipPath>
  </defs>
  <g id="Grupo_57" data-name="Grupo 57" clip-path="url(#clip-path)">
    <path id="Trazado_247" data-name="Trazado 247" d="M59.654,5.465l2.37-.135a45.888,45.888,0,0,1,48.084,39.507c3.054,22.022,6.146,46.388,6.683,58.265,1.114,24.6-23.254,29.836-23.254,29.836l.875,10A29.906,29.906,0,0,1,34.849,148.4L26.115,57.13c-3.672-25.4,8.048-48.7,33.539-51.664" transform="translate(36.045 7.439)" fill="#ffc09d"/>
    <path id="Trazado_248" data-name="Trazado 248" d="M72.914,62.521S57.27,64.37,40.162,54.947c0,0,8.594,17.255,32.993,13.631Z" transform="translate(56.871 77.807)" fill="#ff9b6c"/>
    <path id="Trazado_249" data-name="Trazado 249" d="M61.745,32.837a3.512,3.512,0,0,1-3.18,3.735,3.365,3.365,0,0,1-3.8-2.955,3.52,3.52,0,0,1,3.177-3.74,3.367,3.367,0,0,1,3.805,2.96" transform="translate(77.525 42.275)" fill="#1a2e35"/>
    <path id="Trazado_250" data-name="Trazado 250" d="M66.729,28.675c-.408.483-3.18-1.334-6.958-1.1-3.776.172-6.436,2.276-6.871,1.836-.215-.193.181-1.046,1.338-1.993a9.636,9.636,0,0,1,5.467-2.037,9.267,9.267,0,0,1,5.574,1.45c1.21.826,1.653,1.631,1.45,1.848" transform="translate(74.829 35.916)" fill="#1a2e35"/>
    <path id="Trazado_251" data-name="Trazado 251" d="M48.224,33.8a3.514,3.514,0,0,1-3.182,3.735,3.362,3.362,0,0,1-3.8-2.957,3.52,3.52,0,0,1,3.179-3.738,3.365,3.365,0,0,1,3.8,2.96" transform="translate(58.379 43.634)" fill="#1a2e35"/>
    <path id="Trazado_252" data-name="Trazado 252" d="M51.378,29.85c-.408.483-3.184-1.331-6.961-1.1-3.774.174-6.434,2.276-6.871,1.836-.213-.193.179-1.044,1.341-1.993a9.629,9.629,0,0,1,5.467-2.037A9.258,9.258,0,0,1,49.926,28c1.21.824,1.653,1.628,1.452,1.846" transform="translate(53.089 37.579)" fill="#1a2e35"/>
    <path id="Trazado_253" data-name="Trazado 253" d="M51.673,57.567c-.031-.213,2.3-.754,6.071-1.459.959-.155,1.86-.4,1.986-1.065a4.931,4.931,0,0,0-.809-2.822Q57.36,48.8,55.648,45.037c-4.564-10.229-7.927-18.661-7.511-18.843s4.446,7.966,9.009,18.2Q58.8,48.177,60.3,51.621c.428,1.073,1.126,2.281.718,3.755a2.423,2.423,0,0,1-1.505,1.505,6.508,6.508,0,0,1-1.624.321c-3.817.423-6.192.58-6.219.365" transform="translate(68.114 37.088)" fill="#1a2e35"/>
    <path id="Trazado_254" data-name="Trazado 254" d="M53.338,23.189c-.314,1.049-4.115.778-8.514,1.568-4.417.7-7.917,2.2-8.558,1.317-.288-.428.28-1.428,1.669-2.505a15.047,15.047,0,0,1,13-2.2c1.667.563,2.532,1.322,2.4,1.819" transform="translate(51.252 29.382)" fill="#1a2e35"/>
    <path id="Trazado_255" data-name="Trazado 255" d="M65.319,24.323c-.616.9-3.269.155-6.4.295-3.136.027-5.745.908-6.407.046-.292-.42.075-1.3,1.186-2.184a9.286,9.286,0,0,1,10.321-.273c1.155.819,1.568,1.682,1.3,2.116" transform="translate(74.222 29.415)" fill="#1a2e35"/>
    <path id="Trazado_256" data-name="Trazado 256" d="M110.643,35.552s-7.369-15.02-15-18.185c-9.236-3.832-12.537,6.253-21.237,4.354s-17.521-5.581-25.893,1.541c-9.162,7.8-4.383,12.621-4.346,23.564.145,44.356-7.212,57.325-10.705,36.629-.384-2.269-6.82-3.718-8.314-13.305-1.938-12.43-3.291-27.584-1.01-36.615,1.921-7.613,5.888-13.025,13.206-19.162C48.9,4.687,65.463,3.542,76.787,4.027s33.774,12.191,33.856,31.524" transform="translate(32.492 5.572)" fill="#1a2e35"/>
    <path id="Trazado_257" data-name="Trazado 257" d="M37.5,40.1a6.683,6.683,0,0,0-7.574-6.016c-4.559.7-9.51,3.6-8.664,13.051C22.771,63.913,39.3,58.946,39.287,58.46c-.01-.329-1.092-11.343-1.783-18.357" transform="translate(29.978 48.162)" fill="#ffc09d"/>
    <path id="Trazado_258" data-name="Trazado 258" d="M31.667,49.274c-.08-.046-.275.232-.747.5a2.939,2.939,0,0,1-2.182.239c-1.831-.49-3.576-3.17-3.926-6.187a9.673,9.673,0,0,1,.442-4.257,3.385,3.385,0,0,1,2-2.438,1.493,1.493,0,0,1,1.8.645c.266.449.191.792.283.814.051.039.333-.314.138-1a1.873,1.873,0,0,0-.754-.991,2.211,2.211,0,0,0-1.655-.283A4.124,4.124,0,0,0,24.24,39.2a9.979,9.979,0,0,0-.594,4.764c.411,3.373,2.426,6.381,4.912,6.864a3.147,3.147,0,0,0,2.633-.684c.483-.461.536-.846.476-.87" transform="translate(33.385 51.366)" fill="#ff9b6c"/>
    <path id="Trazado_259" data-name="Trazado 259" d="M115.49,22.934c-2.583-1.942-6.134-2.22-8.7-4.185-4.668-3.576-4.866-11.711-10.345-13.839C93.193,3.65,89.54,5.2,86.073,4.843,80.465,4.261,78.3.023,69.776,0,58.709-.03,55.157,8.218,55.157,8.218a12.757,12.757,0,0,0-12.742,1.2C37.4,12.8,37.078,19.593,37.078,19.593s-1.754-.882-7.067,3.315c-3.38,2.67-6.139,8.427-7.366,12.554-1.829,6.151.843,12.643,3.462,18.5,1.418,3.17,3.175,6.661,6.465,7.768,4.013,1.353,8.427-1.785,10-5.719s4.047-7.891,5.953-11.672c3.305-6.567,6.688-12.689,3.909-16.893a19.152,19.152,0,0,1,11.822-.07c3.851,1.276,7.214,3.747,11.039,5.1s8.676,1.273,11.28-1.839c1.928,4.668,8.922,6.185,12.612,2.735,3,4.953,10.1,7.241,15.054,4.247s5.881-11.2,1.254-14.685" transform="translate(31.211 -0.001)" fill="#1a2e35"/>
    <path id="Trazado_260" data-name="Trazado 260" d="M23.036,21.124c.152-.075.824,1.474,1.945,3.844a8.262,8.262,0,0,0,2.769,3.4,7.342,7.342,0,0,0,5.2.6,12.608,12.608,0,0,0,5.035-2.129,20.068,20.068,0,0,0,3.283-3.163c1.694-2.022,2.679-3.363,2.807-3.269a14.6,14.6,0,0,1-2.254,3.709,17.954,17.954,0,0,1-3.286,3.465,12.772,12.772,0,0,1-5.4,2.37,8,8,0,0,1-5.885-.807,8.469,8.469,0,0,1-2.911-3.875,16.979,16.979,0,0,1-1.3-4.143" transform="translate(32.601 28.89)" fill="#375a64"/>
    <path id="Trazado_261" data-name="Trazado 261" d="M23.295,31.584a13.885,13.885,0,0,0,3.322,1.841,9.394,9.394,0,0,0,4.011.343,11.475,11.475,0,0,0,4.617-1.756,23.065,23.065,0,0,0,6.318-6.656c1.343-1.993,2.16-3.257,2.288-3.182.111.065-.483,1.442-1.689,3.559a20.4,20.4,0,0,1-6.381,7.122,11.637,11.637,0,0,1-5.05,1.831,9.38,9.38,0,0,1-4.356-.6c-2.377-.974-3.177-2.481-3.08-2.505" transform="translate(32.975 31.394)" fill="#375a64"/>
    <path id="Trazado_262" data-name="Trazado 262" d="M45.722,41.737a21.359,21.359,0,0,0-.952,5.651c-.237,1.981.606,3.38,1.834,4.955a7.062,7.062,0,0,0,5.443,2.513h.06a7.847,7.847,0,0,0,7.741-6.678l.664-4.165c-3.945-1.068-14.5-2-14.791-2.276" transform="translate(63.34 59.101)" fill="#ff9b6c"/>
    <path id="Trazado_263" data-name="Trazado 263" d="M56.428,53.969c-.024-.08-.5.022-1.343.14a11.614,11.614,0,0,1-3.549.027,6.918,6.918,0,0,1-4.322-2.522,8.692,8.692,0,0,1-1.7-5.9,8.6,8.6,0,0,1,.9-3.409l-.519.259c3.776.568,7.079,1.022,9.442,1.3a16,16,0,0,0,3.805.271,16.276,16.276,0,0,0-3.706-.908c-2.334-.457-5.617-1.039-9.386-1.657l-.353-.058-.167.319a9.784,9.784,0,0,0,.954,10.387,7.458,7.458,0,0,0,4.95,2.638A9.848,9.848,0,0,0,55.17,54.5c.846-.244,1.276-.476,1.259-.532" transform="translate(62.97 58.782)" fill="#1a2e35"/>
    <path id="Trazado_264" data-name="Trazado 264" d="M196.726,304.216l-8.065-28.306c-.2-11.691-4.361-108.451-4.545-112.449L196.16,98.993,139.589,76.12,130.828,62.6,105.373,81.965l-35.7-20.713L58.649,77.937,8.925,95.528c-.587,0-4.327,1.377-8.925,4.325V266.82a25.2,25.2,0,0,0,4.909-9.089c3.9-12.414,10.1-40.285,14.175-59.292l4.076,41.268-5.323,75.569a17.052,17.052,0,0,0,17.48,18.243l156.269-4.615c3.912-.109,5.738-5.057,6.388-10.4a36.247,36.247,0,0,0-1.249-14.293" transform="translate(0 86.735)" fill="#e1e1e1"/>
    <path id="Trazado_265" data-name="Trazado 265" d="M29.82,407.952h74.211l-6.6-134.015,4.863,1.056s18.5,82.515,28.7,132.959h72.3l-19.42-186.639-7.594-56.47L14.282,177.865a208.594,208.594,0,0,0-4.552,61.345c.459,5.972,9.944,84.936,20.089,168.741" transform="translate(12.978 233.423)" fill="#375a64"/>
    <path id="Trazado_266" data-name="Trazado 266" d="M67.682,223.629a11.479,11.479,0,0,1-2.479,1.4,28.554,28.554,0,0,1-7.357,2.576,15.457,15.457,0,0,1-5.472.039,11.255,11.255,0,0,1-5.721-2.747,13.58,13.58,0,0,1-3.469-6.067c-.7-2.307-1.1-4.706-1.592-7.144-1.894-9.785-3.177-18.717-3.924-25.2-.377-3.242-.623-5.871-.759-7.693a12.281,12.281,0,0,1-.075-2.841,12.617,12.617,0,0,1,.561,2.786c.312,2.063.7,4.615,1.155,7.63.971,6.439,2.389,15.325,4.276,25.078.959,4.822,1.611,9.734,4.627,12.609,3.008,2.824,7.195,3.122,10.254,2.67a33.322,33.322,0,0,0,7.3-2.143,13.393,13.393,0,0,1,2.675-.949" transform="translate(52.09 249.15)" fill="#1a2e35"/>
    <path id="Trazado_267" data-name="Trazado 267" d="M44.676,176.873c-.019-.056.384-.309,1.22-.362a5.341,5.341,0,0,1,3.324,1.068,5.942,5.942,0,0,1,2.5,4.588A5.888,5.888,0,0,1,41.7,185.929a5.93,5.93,0,0,1-1.133-5.1,5.318,5.318,0,0,1,1.8-2.991c.662-.51,1.136-.582,1.157-.529.162.162-1.672,1-2.085,3.687a5.185,5.185,0,0,0,1.128,4.17,4.813,4.813,0,0,0,8-3,5.191,5.191,0,0,0-1.892-3.883c-2.08-1.754-4.011-1.177-4-1.406" transform="translate(57.218 249.933)" fill="#1a2e35"/>
    <path id="Trazado_268" data-name="Trazado 268" d="M108.083,198.13a6.4,6.4,0,0,1-2.022.316,37.924,37.924,0,0,1-5.571.063,53.949,53.949,0,0,1-33.349-14.047,37.8,37.8,0,0,1-3.846-4.03c-.829-1.022-1.254-1.611-1.186-1.667.167-.147,2.073,2.037,5.62,5.03a59.9,59.9,0,0,0,32.829,13.827c4.617.447,7.514.285,7.526.507" transform="translate(87.937 253.128)" fill="#1a2e35"/>
    <path id="Trazado_269" data-name="Trazado 269" d="M42.18,176.3c.128.065-.879,2.469-3.083,6.057a68.06,68.06,0,0,1-10.3,12.778,68.081,68.081,0,0,1-13.066,9.942c-3.648,2.1-6.079,3.042-6.142,2.911-.089-.181,2.191-1.4,5.675-3.668a85.326,85.326,0,0,0,12.655-10.087,85.312,85.312,0,0,0,10.435-12.365c2.365-3.416,3.648-5.666,3.827-5.569" transform="translate(13.573 249.645)" fill="#1a2e35"/>
    <path id="Trazado_270" data-name="Trazado 270" d="M89.512,76.874S100.9,86.867,102.8,94.482s42.8,96.269,42.8,96.269l20.331,5.484,5.419,11.256c6.422,13.339,2.938,29.6-8.857,38.548a23.877,23.877,0,0,1-2.177,1.481c-10.983,6.528-30.725,6.272-42.232-7.3-10.9-12.851-42.776-59.087-42.776-59.087V124.574Z" transform="translate(106.649 108.856)" fill="#e1e1e1"/>
    <path id="Trazado_271" data-name="Trazado 271" d="M112.461,137.823l29.232-17.255,14.083,17.255-2.914,8.352-37.683,27.97A25.066,25.066,0,0,1,106.44,159c-1.761-10.481,6.021-21.172,6.021-21.172" transform="translate(150.355 170.728)" fill="#ffc09d"/>
    <path id="Trazado_272" data-name="Trazado 272" d="M121.826,124.209c0,.273-2.479.063-6.146,1.237a27.25,27.25,0,0,0-12.143,8.415,55.52,55.52,0,0,0-7.726,12.972c-1.607,3.566-2.561,5.813-2.771,5.736-.181-.065.416-2.433,1.785-6.144a46.052,46.052,0,0,1,7.562-13.539,25.681,25.681,0,0,1,13-8.466c3.955-.964,6.477-.345,6.439-.21" transform="translate(131.701 175.43)" fill="#1a2e35"/>
    <path id="Trazado_273" data-name="Trazado 273" d="M120.908,150.125c-.271-.539-2.431-12.96,7.019-21.058s17.954-10.933,23.083-13.228,15.794-11.206,17.683-9.046,2.7,5.4,0,9.314-18.161,9.8-16,14.757c.882,2.034,5.745,2.387,5.745,2.387s18.628,1.215,26.458.541,14.849.809,14.443,3.508-1.889,4.185-8.369,4.726-17.009.135-17.548,1.619,1.619,2.431,5.4,2.16,21.6-.271,22.812,1.756a4.016,4.016,0,0,1-2.16,5.8l-4.185,1.486s2.431,3.373.406,5.265-6.615,1.213-6.615,1.213l-23.624-.674s-1.348,1.423-.674,2.4,19.169-.374,19.3,1.65,1.754,2.969-3.781,4.32-19.437,1.351-24.431,0-25.919-2.3-25.919-2.3Z" transform="translate(170.642 150.749)" fill="#ffc09d"/>
    <path id="Trazado_274" data-name="Trazado 274" d="M76.265,69.116c.14.162-1.8,2.054-4.909,5.107S63.98,81.529,59.464,86.4c-.952,1.036-1.882,2.054-2.781,3.035l-.6.655-.539-.691c-3.5-4.489-6.523-8.478-8.637-11.372s-3.317-4.7-3.17-4.813,1.616,1.476,3.938,4.209,5.492,6.605,9.038,11.056l-1.138-.034,2.781-3.071A161.026,161.026,0,0,1,70.633,73.441c3.312-2.868,5.5-4.477,5.632-4.325" transform="translate(61.917 97.856)" fill="#1a2e35"/>
    <path id="Trazado_275" data-name="Trazado 275" d="M5.058,91.263a12.708,12.708,0,0,1,.807,3.054c.43,1.984.952,4.871,1.527,8.451,1.155,7.161,2.377,17.108,3.395,28.115s1.764,20.986,2.324,28.2q.362,5.027.616,8.55a12.914,12.914,0,0,1,.043,3.158,12.716,12.716,0,0,1-.628-3.095c-.309-2-.681-4.912-1.094-8.512-.831-7.2-1.747-17.166-2.762-28.164S7.218,110.1,6.336,102.918q-.616-5-1.051-8.5a12.808,12.808,0,0,1-.227-3.151" transform="translate(7.102 129.231)" fill="#1a2e35"/>
    <path id="Trazado_276" data-name="Trazado 276" d="M76.637,89.182a18.978,18.978,0,0,1,.534,3.839c.251,2.481.515,6.079.749,10.527.493,8.9.751,21.206.783,34.786,0,13.428,0,25.571,0,34.774,0,4.218.007,7.751.01,10.536a19.116,19.116,0,0,1-.169,3.873,19.189,19.189,0,0,1-.418-3.854c-.176-2.486-.341-6.086-.488-10.536-.3-8.9-.411-21.206-.44-34.788s-.121-25.861-.341-34.75c-.106-4.216-.2-7.748-.268-10.531a19.183,19.183,0,0,1,.051-3.875" transform="translate(108.392 126.285)" fill="#1a2e35"/>
    <path id="Trazado_277" data-name="Trazado 277" d="M47.465,314.571A15.028,15.028,0,0,1,47.3,312.1q-.062-2.631-.167-7.084c-.126-6.3-.3-15.158-.517-26.045-.519-22.119-1.23-52.435-2.015-85.926-.768-33.568-1.225-63.965-1.186-85.97,0-11,.114-19.9.256-26.054q.13-4.454.21-7.084a15.018,15.018,0,0,1,.176-2.467,15.453,15.453,0,0,1,.128,2.472q.025,2.631.072,7.084c.053,6.3.13,15.156.225,26.045.232,21.993.858,52.375,1.626,85.941s1.4,63.943,1.573,85.946c.106,11,.1,19.9.039,26.057q-.072,4.454-.116,7.086a15.085,15.085,0,0,1-.143,2.469" transform="translate(61.479 101.207)" fill="#1a2e35"/>
    <path id="Trazado_278" data-name="Trazado 278" d="M121.31,167.316c-.036.087-.7-.07-1.827-.546a20.291,20.291,0,0,1-4.446-2.675,23.954,23.954,0,0,1-6.013-31.157,20.371,20.371,0,0,1,3.131-4.139c.87-.86,1.425-1.252,1.491-1.184.2.184-1.771,2.051-3.684,5.832a24.332,24.332,0,0,0,5.755,29.826c3.184,2.8,5.711,3.8,5.593,4.042" transform="translate(149.702 180.697)" fill="#1a2e35"/>
    <path id="Trazado_279" data-name="Trazado 279" d="M125.936,116.642a24.354,24.354,0,0,1-3.779,2.213c-2.476,1.343-6.1,3.208-10.606,5.448-9.014,4.487-21.616,10.394-35.765,16.388s-27.173,10.925-36.668,14.274c-4.745,1.677-8.606,2.981-11.293,3.822a24.126,24.126,0,0,1-4.221,1.174,24.386,24.386,0,0,1,4.025-1.727l11.121-4.269c9.389-3.6,22.314-8.683,36.446-14.661s26.772-11.727,35.893-15.963l10.8-5.013a24.537,24.537,0,0,1,4.042-1.686" transform="translate(33.425 165.157)" fill="#1a2e35"/>
    <path id="Trazado_280" data-name="Trazado 280" d="M144.215,113.883c.176.174-1.094,1.4-2.718,3.539a10.091,10.091,0,0,0-1.865,4.146c-.355,1.7-.331,3.7-.621,5.871a14.3,14.3,0,0,1-5.637,9.507c-2.356,1.694-4.177,1.957-4.214,1.8-.1-.237,1.537-.855,3.547-2.633a14.7,14.7,0,0,0,4.81-8.886,59.172,59.172,0,0,1,.756-5.963,10.234,10.234,0,0,1,2.39-4.511c1.952-2.1,3.433-2.991,3.552-2.873" transform="translate(182.89 161.248)" fill="#ff9b6c"/>
    <path id="Trazado_281" data-name="Trazado 281" d="M137.13,125.248c.034-.416,7.879-.1,17.519.7s17.432,1.788,17.4,2.2-7.876.1-17.521-.7-17.427-1.79-17.393-2.206" transform="translate(194.181 177.095)" fill="#ff9b6c"/>
    <path id="Trazado_282" data-name="Trazado 282" d="M68.828,72.694c.188.087-1.1,3.351-3.334,8.558q-.873,2.011-1.843,4.25a47.665,47.665,0,0,1-2.324,4.919,3.162,3.162,0,0,1-3.112,1.512,7.824,7.824,0,0,1-2.928-1.5q-2.53-1.736-5.2-3.568c-7.118-4.907-13.51-9.42-18.1-12.747s-7.364-5.472-7.246-5.644,3.109,1.662,7.85,4.764,11.232,7.478,18.35,12.385q2.66,1.845,5.182,3.593a6.851,6.851,0,0,0,2.324,1.295,1.74,1.74,0,0,0,1.747-.894c1.674-3.049,3.071-6.337,4.33-8.809,2.484-5.093,4.115-8.2,4.3-8.113" transform="translate(35.032 96.945)" fill="#1a2e35"/>
  </g>
</svg>
