<svg xmlns="http://www.w3.org/2000/svg" xmlns:xlink="http://www.w3.org/1999/xlink" width="108.557" height="72.11" viewBox="0 0 108.557 72.11">
  <defs>
    <clipPath id="clip-path">
      <rect id="Rectángulo_102" data-name="Rectángulo 102" width="108.557" height="72.11" transform="translate(0 0)" fill="#002f87"/>
    </clipPath>
  </defs>
  <g id="Personas" transform="translate(0 0)" clip-path="url(#clip-path)">
    <path id="Trazado_283" data-name="Trazado 283" d="M45.836,44.7a22.123,22.123,0,0,0-7.747-3.845L30,38.589V37.152a13.6,13.6,0,0,0,8.861-12.727V13.594a13.559,13.559,0,0,0-.235-2.468c0-.04-.012-.08-.019-.12a13.591,13.591,0,0,0-26.933,2.58V24.425a13.607,13.607,0,0,0,8.5,12.6v1.491l-8.363,2.347A22.11,22.11,0,0,0,4.065,44.7C1.369,46.822,0,49.012,0,51.215V62.4A9.719,9.719,0,0,0,9.709,72.11H40.191A9.72,9.72,0,0,0,49.9,62.4V51.215c0-2.2-1.37-4.391-4.065-6.512M25.266,2.973a10.636,10.636,0,0,1,10.16,7.535c-4.446,2.318-6.667,1.883-8.11,1.22a6.834,6.834,0,0,1-2.119-1.7,6.731,6.731,0,0,0-3.483-2.288c-1.942-.441-4.005.139-6.232,1.719a10.638,10.638,0,0,1,9.784-6.487M14.645,24.425V14.135c2.559-2.649,4.773-3.865,6.407-3.494a4.014,4.014,0,0,1,1.99,1.437,9.591,9.591,0,0,0,3.029,2.349,8.564,8.564,0,0,0,3.646.791,14.592,14.592,0,0,0,6.169-1.626V24.425a10.621,10.621,0,0,1-21.242,0M25.266,38.019a13.6,13.6,0,0,0,1.758-.127v1.824c0,.033.007.064.009.1s.007.094.015.141a1.322,1.322,0,0,0,.035.154c.011.041.023.082.038.122a1.266,1.266,0,0,0,.064.146c.019.039.039.076.061.113s.056.083.086.123.058.074.09.109.064.064.1.1.076.067.118.1.072.048.109.07a1.478,1.478,0,0,0,.141.077c.04.018.08.033.121.048s.064.029.1.039l2.437.683c.014.234.024.469.024.707,0,4.465-2.572,8.237-5.622,8.237S19.329,47,19.329,42.538c0-.238.011-.473.025-.708l2.71-.76c.028-.008.052-.022.08-.031.05-.018.1-.036.149-.059s.083-.043.123-.067a1.412,1.412,0,0,0,.122-.079c.039-.029.075-.059.111-.091a1.4,1.4,0,0,0,.1-.1c.031-.033.059-.068.087-.1s.06-.082.087-.126.042-.074.061-.112a1.194,1.194,0,0,0,.064-.146c.015-.04.027-.081.039-.123a1.542,1.542,0,0,0,.034-.153,1.34,1.34,0,0,0,.015-.142c0-.033.009-.064.009-.1v-1.8a13.571,13.571,0,0,0,2.118.182M46.926,62.4a6.743,6.743,0,0,1-6.735,6.735H9.709A6.743,6.743,0,0,1,2.975,62.4V51.215c0-1.548,1.592-3.124,2.928-4.173a19.132,19.132,0,0,1,6.712-3.321l3.746-1.051c.055,6.121,3.884,11.078,8.586,11.078s8.537-4.957,8.592-11.077l3.746,1.05A19.137,19.137,0,0,1,44,47.042c1.335,1.049,2.928,2.627,2.928,4.173Z" fill="#002f87"/>
    <path id="Trazado_284" data-name="Trazado 284" d="M104.494,44.7c-.124-.1-.262-.179-.389-.274C111.1,6.754,88.819,1.252,88.729,1.239,82.605-.785,78.32.862,77.453,1.25,75.288,1.868,55.474,8.6,62.125,44.429c-.127.095-.266.177-.39.274-2.7,2.121-4.063,4.311-4.063,6.512V62.4a9.718,9.718,0,0,0,9.707,9.709h31.47a9.718,9.718,0,0,0,9.708-9.709V51.215c0-2.2-1.367-4.391-4.063-6.512m-3.105-1.986a23.471,23.471,0,0,0-4.642-1.859l-8.362-2.347V36.955a13.615,13.615,0,0,0,8.323-12.53V13.594a13.467,13.467,0,0,0-.538-3.779c0-.02-.016-.037-.023-.057,4.409,5.2,8.342,14.97,5.242,32.959m-12.16-.179c0,4.465-2.572,8.237-5.62,8.237-.119,0-.238-.005-.355-.016a1.283,1.283,0,0,0-.277,0c-3.12.3-5.976-3.582-5.976-8.221,0-.237.011-.473.025-.708l2.708-.76c.026-.007.049-.021.074-.029a1.591,1.591,0,0,0,.159-.062,2.169,2.169,0,0,0,.244-.146c.038-.028.074-.059.11-.091s.068-.063.1-.1a1.292,1.292,0,0,0,.094-.114c.027-.036.054-.073.078-.112s.049-.087.072-.132.037-.079.053-.121a1.406,1.406,0,0,0,.048-.156c.01-.039.02-.077.027-.117a1.4,1.4,0,0,0,.018-.183c0-.024.008-.047.008-.071V37.81a12.711,12.711,0,0,0,4.591,0v1.829c0,.03.007.058.009.087a1.364,1.364,0,0,0,.016.158c.008.047.019.092.031.137s.026.093.043.139.038.09.059.134.042.082.066.121.054.081.083.12.058.074.09.108a1.215,1.215,0,0,0,.1.1,1.184,1.184,0,0,0,.109.09,1.363,1.363,0,0,0,.126.082c.039.022.077.045.119.064a1.37,1.37,0,0,0,.154.061c.026.009.05.022.077.03l2.71.76c.014.235.024.47.024.708M72.493,16.557a32.625,32.625,0,0,0,7.347.862A22.645,22.645,0,0,0,93.7,13.11c.007.162.034.322.034.484V24.425a10.621,10.621,0,0,1-21.242,0ZM78.292,4.1a1.484,1.484,0,0,0,.337-.119c.145-.072,3.671-1.735,9.306.119a16.855,16.855,0,0,1,7.434,4.788,1.452,1.452,0,0,0-1.687.31c-8.5,8.492-22.061,4.046-22.2,4-.022-.008-.045-.01-.068-.016a1.343,1.343,0,0,0-.18-.041c-.041-.007-.082-.01-.123-.013s-.07-.01-.107-.01-.042.005-.064.006c-.041,0-.081.007-.121.012a1.663,1.663,0,0,0-.174.03.955.955,0,0,0-.1.03,1.343,1.343,0,0,0-.177.067.828.828,0,0,0-.083.045,1.376,1.376,0,0,0-.16.1c-.028.02-.053.043-.08.065a1.675,1.675,0,0,0-.131.122c-.025.027-.047.056-.07.085a1.382,1.382,0,0,0-.106.145c-.018.029-.033.061-.049.092a1.5,1.5,0,0,0-.081.177c0,.012-.011.022-.015.035s-.009.042-.015.064a1.521,1.521,0,0,0-.042.18c-.007.045-.011.09-.014.135s-.009.064-.009.1v9.819a13.613,13.613,0,0,0,8.325,12.53v1.556l-8.363,2.347a23.42,23.42,0,0,0-4.643,1.859C59.019,9.058,77.494,4.288,78.292,4.1m27.292,58.3a6.743,6.743,0,0,1-6.735,6.735H67.379A6.743,6.743,0,0,1,60.645,62.4V51.215c0-1.546,1.592-3.124,2.928-4.173a19.125,19.125,0,0,1,6.714-3.321l3.745-1.051c.055,6.121,3.885,11.078,8.588,11.078.165,0,.331-.005.494-.016.164.011.33.016.5.016,4.7,0,8.533-4.957,8.588-11.078l3.747,1.051a19.141,19.141,0,0,1,6.712,3.321c1.336,1.049,2.928,2.627,2.928,4.173Z" fill="#002f87"/>
  </g>
</svg>
