<svg xmlns="http://www.w3.org/2000/svg" xmlns:xlink="http://www.w3.org/1999/xlink" width="288.273" height="286.229" viewBox="0 0 288.273 286.229">
  <defs>
    <clipPath id="clip-path">
      <rect id="Rectángulo_83" data-name="Rectángulo 83" width="236.884" height="141.703" fill="none"/>
    </clipPath>
  </defs>
  <g id="Persona2" transform="translate(-57.731 -132.001)">
    <path id="Trazado_218" data-name="Trazado 218" d="M43.633,11.831H241.639a43.634,43.634,0,0,1,43.633,43.633V216.715a43.633,43.633,0,0,1-43.633,43.632H43.633A43.633,43.633,0,0,1,0,216.715V55.464A43.634,43.634,0,0,1,43.633,11.831" transform="translate(59.231 133.169)" fill="#e96247" stroke="#fff" stroke-width="3"/>
    <path id="Trazado_219" data-name="Trazado 219" d="M127.274,18.9c-1.253,3.239.9,6.777,3.309,9.277s5.333,4.879,6.091,8.269c.636,2.846-.418,5.808-.162,8.711.262,2.973,1.862,5.638,2.771,8.479,1.647,5.142.985,10.761-.484,15.955a29.488,29.488,0,0,1-5.939,11.756c-2.948,3.305-7.188,5.644-11.616,5.562a4.56,4.56,0,0,1-3.433-1.242,5.484,5.484,0,0,1-.992-3.047,297.187,297.187,0,0,1-.009-67.144" transform="translate(71.652 133.672)" fill="#1a2e35"/>
    <path id="Trazado_220" data-name="Trazado 220" d="M126.211,83.617c9.638-.421,18.544,8.808,17.78,18.425,9.76,2.375,16.654,13.119,14.745,22.981-.629,3.256-2.077,6.356-2.277,9.666-.218,3.61,1.063,7.118,1.76,10.669a33.612,33.612,0,0,1-1.926,19.233c-1.523,3.667-4.355,7.455-8.324,7.567a8.172,8.172,0,0,1-6.688-3.909,20.654,20.654,0,0,1-2.687-7.572c-1.72-8.656-2.236-17.557-4.611-26.056s-6.989-16.877-14.679-21.209c-4.247-2.392-9.346-3.523-12.719-7.042-3.533-3.688-4.345-9.534-2.5-14.3a18.23,18.23,0,0,1,10.864-10.139" transform="translate(70.379 140.857)" fill="#1a2e35"/>
    <path id="Trazado_221" data-name="Trazado 221" d="M63.87,28.508c-.119-4.119,3.691-7.3,7.526-8.81s8.1-2.078,11.514-4.378c3.026-2.037,5.061-5.215,7.623-7.811a25.364,25.364,0,0,1,42.658,11.637c1.472,5.865.467,12.8-4.158,16.7-5.367,4.524-13.323,3.519-20.2,2.112s-14.66-2.8-20.4,1.242c-3.462,2.436-5.446,6.4-7.563,10.063S76.1,56.671,72.1,58.05s-9.438-1-9.594-5.232" transform="translate(65.987 132)" fill="#1a2e35"/>
    <path id="Trazado_222" data-name="Trazado 222" d="M79,27.407a6.892,6.892,0,0,0-6.151,7l4.112,93.083c.172,10.993,16.241,17.17,28.011,16.9,11.886-.276,12.27-6.106,12.417-16.565.249-17.474.228-24.032.235-23.933,0,0,15.014-2.528,18.082-22.13,1.526-9.749,1-25.727.15-38.787-.767-11.755-8.588-26.161-20.3-24.9Z" transform="translate(67.105 133.946)" fill="#ffc09d"/>
    <path id="Trazado_223" data-name="Trazado 223" d="M127.145,51.866a2.513,2.513,0,0,1-2.418,2.541,2.4,2.4,0,0,1-2.6-2.261,2.514,2.514,0,0,1,2.415-2.542,2.406,2.406,0,0,1,2.6,2.262" transform="translate(72.433 137.361)" fill="#1a2e35"/>
    <path id="Trazado_224" data-name="Trazado 224" d="M127.563,48.307c-.311.328-2.218-1.076-4.922-1.064-2.7-.025-4.684,1.371-4.978,1.04-.145-.146.172-.739,1.034-1.37a6.9,6.9,0,0,1,3.984-1.238,6.625,6.625,0,0,1,3.919,1.255c.833.636,1.116,1.228.963,1.375" transform="translate(71.946 136.937)" fill="#1a2e35"/>
    <path id="Trazado_225" data-name="Trazado 225" d="M103.694,51.866a2.514,2.514,0,0,1-2.418,2.542,2.4,2.4,0,0,1-2.6-2.262,2.513,2.513,0,0,1,2.416-2.541,2.406,2.406,0,0,1,2.6,2.261" transform="translate(69.898 137.362)" fill="#1a2e35"/>
    <path id="Trazado_226" data-name="Trazado 226" d="M103.574,48.816c-.311.328-2.221-1.076-4.923-1.063-2.7-.027-4.683,1.37-4.978,1.039-.144-.147.168-.739,1.035-1.37a6.9,6.9,0,0,1,3.984-1.239,6.636,6.636,0,0,1,3.919,1.257c.83.636,1.115,1.228.963,1.375" transform="translate(69.353 136.992)" fill="#1a2e35"/>
    <path id="Trazado_227" data-name="Trazado 227" d="M111.631,68.836c-.013-.154,1.667-.448,4.39-.8.69-.073,1.343-.212,1.459-.683a3.526,3.526,0,0,0-.467-2.047q-.979-2.5-2.054-5.253c-2.851-7.48-4.919-13.632-4.616-13.745s2.861,5.861,5.712,13.341q1.031,2.766,1.968,5.284a4,4,0,0,1,.366,2.71,1.74,1.74,0,0,1-1.135,1.013,4.714,4.714,0,0,1-1.171.165c-2.741.153-4.442.17-4.452.016" transform="translate(71.155 137.005)" fill="#1a2e35"/>
    <path id="Trazado_228" data-name="Trazado 228" d="M115.814,96.192a49.848,49.848,0,0,1-26.26-6.942s6.4,13.447,26.006,11.57Z" transform="translate(68.911 141.647)" fill="#ff9b6c"/>
    <path id="Trazado_229" data-name="Trazado 229" d="M111.27,72.7a4.875,4.875,0,0,0-4.373-1.8,4.444,4.444,0,0,0-3.068,1.654,2.819,2.819,0,0,0-.207,3.225,3.27,3.27,0,0,0,3.547.888,10.222,10.222,0,0,0,3.452-2.07,2.98,2.98,0,0,0,.771-.8.9.9,0,0,0-.007-1.006" transform="translate(70.387 139.661)" fill="#ff9b6c"/>
    <path id="Trazado_230" data-name="Trazado 230" d="M104.367,68.342c.44-.027.452,2.909,2.97,4.986s5.64,1.749,5.665,2.159c.041.185-.7.573-2.017.611a7.307,7.307,0,0,1-4.728-1.636,6.366,6.366,0,0,1-2.3-4.182c-.114-1.227.212-1.955.412-1.938" transform="translate(70.465 139.387)" fill="#1a2e35"/>
    <path id="Trazado_231" data-name="Trazado 231" d="M104.9,44.48c-.265.736-2.966.393-6.138.782-3.18.326-5.737,1.26-6.159.6-.188-.315.256-1.007,1.289-1.722a10.762,10.762,0,0,1,9.368-1.055c1.166.466,1.754,1.044,1.64,1.393" transform="translate(69.236 136.59)" fill="#1a2e35"/>
    <path id="Trazado_232" data-name="Trazado 232" d="M126.579,41.261c-.474.615-2.339-.018-4.579-.043-2.239-.1-4.137.422-4.575-.219-.192-.311.105-.927.933-1.511a6.632,6.632,0,0,1,7.375.213c.793.629,1.055,1.261.845,1.561" transform="translate(71.918 136.158)" fill="#1a2e35"/>
    <path id="Trazado_233" data-name="Trazado 233" d="M66.062,92.287a17.4,17.4,0,0,0,20.7-19.243c-.609-4.812-3.2-9.709-1.536-14.264,2.206-6.022,10.649-7.875,12.889-13.886,1.3-3.494.133-7.579,1.609-11,1.387-3.219,4.774-5.073,8.07-6.265s6.831-2.015,9.6-4.165,4.493-6.212,2.708-9.228a185.681,185.681,0,0,0-42.821,10.4c-3.2,1.195-6.558,2.63-8.448,5.473-2,3.007-1.9,6.893-1.736,10.5.821,17.6-1.857,34.079-1.036,51.675" transform="translate(66.355 133.538)" fill="#1a2e35"/>
    <path id="Trazado_234" data-name="Trazado 234" d="M113.23,2.581a1.891,1.891,0,0,1,.761.229,8.2,8.2,0,0,1,1.853,1.121,9.753,9.753,0,0,1,3.566,6.1,9.748,9.748,0,0,1-1.631,6.875,8.2,8.2,0,0,1-1.445,1.613c-.393.327-.638.469-.66.441a26.58,26.58,0,0,0,1.764-2.277,9.98,9.98,0,0,0,1.4-6.567,9.98,9.98,0,0,0-3.257-5.872,26.64,26.64,0,0,0-2.352-1.663" transform="translate(71.47 132.278)" fill="#375a64"/>
    <path id="Trazado_235" data-name="Trazado 235" d="M155.671,127.442a14.953,14.953,0,0,0,.56-2.073,9.555,9.555,0,0,0-.958-5.642,13,13,0,0,0-6.186-5.763,24.725,24.725,0,0,0-4.815-1.716c-1.73-.445-3.56-.816-5.394-1.406a12.273,12.273,0,0,1-4.948-2.7,8.217,8.217,0,0,1-2.334-4.706c-.3-1.646-.4-3.209-.769-4.6a9.118,9.118,0,0,0-1.783-3.528,10.167,10.167,0,0,0-4.74-3.226c-1.324-.4-2.11-.4-2.1-.458a2.076,2.076,0,0,1,.564-.012,8.729,8.729,0,0,1,1.6.254,10.053,10.053,0,0,1,4.992,3.18A9.433,9.433,0,0,1,131.29,98.7c.4,1.447.519,3.031.828,4.626a7.717,7.717,0,0,0,2.205,4.4,11.834,11.834,0,0,0,4.732,2.56c1.793.578,3.613.952,5.359,1.408a24.732,24.732,0,0,1,4.909,1.787,13.246,13.246,0,0,1,6.318,6.063,9.485,9.485,0,0,1,.812,5.857,7.065,7.065,0,0,1-.5,1.545,2.042,2.042,0,0,1-.281.49" transform="translate(72.44 141.901)" fill="#375a64"/>
    <path id="Trazado_236" data-name="Trazado 236" d="M62.27,87.559a1.467,1.467,0,0,1-.32-.1,4.555,4.555,0,0,1-.892-.435,6.525,6.525,0,0,1-2.444-2.889,9.681,9.681,0,0,1-.638-5.952,18.981,18.981,0,0,1,3.561-7.117c1.719-2.395,3.893-4.818,5.378-7.913a12.171,12.171,0,0,0,1.3-5.05,16.535,16.535,0,0,0-1.152-5.452A16.714,16.714,0,0,1,65.9,46.723a13.239,13.239,0,0,1,6.369-10.7,15.194,15.194,0,0,1,6.456-1.842,27.209,27.209,0,0,0,6.466-1.129,8.382,8.382,0,0,0,4.542-4.091,31.62,31.62,0,0,0,2.153-5.78,31.007,31.007,0,0,1,2.21-5.6,20.959,20.959,0,0,1,7.347-8.258,15.9,15.9,0,0,1,9.3-2.412,11.915,11.915,0,0,1,7.319,3,11.677,11.677,0,0,1,3.276,5.026,9.421,9.421,0,0,1,.454,3.77,5.938,5.938,0,0,1-.229,1.305c-.038-.007.075-.453.114-1.313a9.778,9.778,0,0,0-.552-3.691A11.484,11.484,0,0,0,110.72,7.322a15.521,15.521,0,0,0-9.024,2.41,20.546,20.546,0,0,0-7.128,8.1,30.643,30.643,0,0,0-2.154,5.513,31.866,31.866,0,0,1-2.184,5.888,10.134,10.134,0,0,1-1.98,2.616,8.6,8.6,0,0,1-2.857,1.742,27.56,27.56,0,0,1-6.6,1.166,14.656,14.656,0,0,0-6.229,1.762,12.7,12.7,0,0,0-6.11,10.225,16.275,16.275,0,0,0,1.113,5.741,16.98,16.98,0,0,1,1.155,5.625,12.623,12.623,0,0,1-1.373,5.249c-1.546,3.167-3.758,5.586-5.48,7.946a18.837,18.837,0,0,0-3.575,6.944,9.531,9.531,0,0,0,.527,5.792,6.582,6.582,0,0,0,2.3,2.883c.714.481,1.168.593,1.149.637" transform="translate(65.476 132.744)" fill="#375a64"/>
    <path id="Trazado_237" data-name="Trazado 237" d="M77.932,100.994c-9.925-2.656-18.5-12.381-21.981-22.048s-3.482-20.234-2.59-30.47c.647-7.42,1.947-15.263,6.875-20.849C67.663,19.208,75.7,14.911,86.92,15.26" transform="translate(64.945 133.647)" fill="#1a2e35"/>
    <path id="Trazado_238" data-name="Trazado 238" d="M135.834,113.965l-9.253-2.325a5.271,5.271,0,0,0,1.836-6.455,8.473,8.473,0,0,0-7.071-5.241l-42.2-4.764a3.386,3.386,0,0,0-3.539,2.081q-2.811,7.131-.192,11.748l-.2,0-8.128,1.618-13.748,121.6,90.284-4.221Z" transform="translate(64.997 142.286)" fill="#f5f5f5"/>
    <path id="Trazado_239" data-name="Trazado 239" d="M120.048,110.663a9.793,9.793,0,0,1-1.694.325c-1.1.178-2.69.377-4.667.567a109.644,109.644,0,0,1-15.5.335,109.376,109.376,0,0,1-15.4-1.872c-1.948-.386-3.515-.74-4.588-1.026a9.843,9.843,0,0,1-1.653-.492,9.944,9.944,0,0,1,1.7.273c1.086.218,2.662.512,4.612.844a132.129,132.129,0,0,0,15.354,1.7,132.068,132.068,0,0,0,15.442-.166c1.974-.137,3.571-.273,4.673-.382a9.832,9.832,0,0,1,1.722-.1" transform="translate(67.505 143.727)" fill="#1a2e35"/>
    <path id="Trazado_240" data-name="Trazado 240" d="M171.673,190.662,213.679,116.9l5.061-12.8s13.091-28.151,14.005-31.016c1.055-3.311,2.9-3.6,4.1-3.125,1.861.735,2.457,3.507,1.639,6.376-.283.992-5.373,16.454-5.373,16.454a38.354,38.354,0,0,1,4.343-3.223c3.223-2.166,9.137-2.1,14.6-.152s6.827,2.976,6.17,5.135a2.873,2.873,0,0,1-1.752,1.739,5.681,5.681,0,0,1-4.046.089c-8.8-3-12.7.967-12.7.967l-.662,1.674s6.611-2.118,10.374.877a5.481,5.481,0,0,1,1.372,1.6,7.272,7.272,0,0,1,2.69,12.252c-.9.836-2.265,1.445-3.338.845a3.869,3.869,0,0,1-1.261-1.453,5.871,5.871,0,0,0-.6-.836l-2.511,4.43s-6.173,9.649-8.384,14.153L208.5,207.925a20.4,20.4,0,1,1-36.829-17.263" transform="translate(77.498 139.543)" fill="#ffc09d"/>
    <path id="Trazado_241" data-name="Trazado 241" d="M211.927,113.562c1.483.965,3.529.309,4.867-.848s2.244-2.734,3.495-3.984c3.741-3.74,10-4.09,13.56-8,.5-.546.936-1.375.509-1.975-.4-.557-1.23-.484-1.9-.351l-17.185,3.4" transform="translate(82.139 142.626)" fill="#ffc09d"/>
    <path id="Trazado_242" data-name="Trazado 242" d="M215.271,101.852a7.053,7.053,0,0,1,1.821-.558c1.185-.3,2.907-.691,5.037-1.159l7.5-1.593,2.17-.447a3.467,3.467,0,0,1,2.624.086,1.478,1.478,0,0,1,.561,1.56,3.047,3.047,0,0,1-.673,1.265,11.532,11.532,0,0,1-1.936,1.711c-2.862,1.978-6,2.792-8.5,4.1a13.2,13.2,0,0,0-3.263,2.225c-.884.855-1.58,1.831-2.314,2.663a6.163,6.163,0,0,1-4.554,2.555c-1.319-.025-1.856-.645-1.814-.655a5.12,5.12,0,0,0,1.8.267,5.971,5.971,0,0,0,4.03-2.622c.676-.829,1.339-1.837,2.272-2.8a13.594,13.594,0,0,1,3.422-2.453c2.584-1.4,5.706-2.263,8.345-4.1a10.792,10.792,0,0,0,1.756-1.538c.48-.546.649-1.2.3-1.384-.347-.257-1.137-.1-1.872.051l-2.176.413-7.537,1.383c-2.147.379-3.889.669-5.1.848a7.019,7.019,0,0,1-1.9.177" transform="translate(82.139 142.578)" fill="#ff9b6c"/>
    <path id="Trazado_243" data-name="Trazado 243" d="M232.022,96.719a7.228,7.228,0,0,1,1.972-2.657,5.575,5.575,0,0,1,3.321-1.091,14.256,14.256,0,0,1,4.381.738,22.816,22.816,0,0,0,4.5,1.019,7.345,7.345,0,0,0,3.775-.583,2.865,2.865,0,0,0,1.608-2.011,1.7,1.7,0,0,0-.02-.944c-.063,0-.058.336-.224.882a2.7,2.7,0,0,1-1.56,1.662,7.278,7.278,0,0,1-3.526.4,25.157,25.157,0,0,1-4.373-1.048,13.9,13.9,0,0,0-4.583-.711,5.854,5.854,0,0,0-3.585,1.331,5.2,5.2,0,0,0-1.495,2.092,1.8,1.8,0,0,0-.191.92" transform="translate(84.309 141.857)" fill="#ff9b6c"/>
    <path id="Trazado_244" data-name="Trazado 244" d="M232.623,74.693a18.3,18.3,0,0,0-1.033,3.069c-.654,2.121-1.434,4.648-2.3,7.441l-2.408,7.411a18.262,18.262,0,0,0-.922,3.1,14.531,14.531,0,0,0,1.351-2.946c.739-1.86,1.671-4.461,2.594-7.37s1.656-5.573,2.121-7.518a14.535,14.535,0,0,0,.593-3.188" transform="translate(83.655 140.074)" fill="#ff9b6c"/>
    <path id="Trazado_245" data-name="Trazado 245" d="M234.167,100.459a3.925,3.925,0,0,0,1.012-.061,3.005,3.005,0,0,1,2.419.648,1.614,1.614,0,0,1,.389,1.545,8.541,8.541,0,0,1-.788,1.957,3.631,3.631,0,0,0-.409,2.544,3.088,3.088,0,0,0,1.968,1.982,3.5,3.5,0,0,0,2.761-.274,4.381,4.381,0,0,0,1.836-1.788,14.22,14.22,0,0,0,1.209-3.986,8.365,8.365,0,0,0,.03-2.8,1.883,1.883,0,0,0-.389-.956c-.054.024.083.358.141.991a9.922,9.922,0,0,1-.23,2.688,15.253,15.253,0,0,1-1.283,3.784,3.472,3.472,0,0,1-3.864,1.734,2.486,2.486,0,0,1-1.572-1.55,3.1,3.1,0,0,1,.345-2.121,8.528,8.528,0,0,0,.773-2.114,2.089,2.089,0,0,0-.6-1.962,3.138,3.138,0,0,0-2.768-.567,2.629,2.629,0,0,0-.977.309" transform="translate(84.543 142.73)" fill="#ff9b6c"/>
    <path id="Trazado_246" data-name="Trazado 246" d="M240.728,108.315c-.028-.014-.218.287-.194.9a2.815,2.815,0,0,0,1.289,2.166,3.754,3.754,0,0,0,3.729.039,6.144,6.144,0,0,0,2.821-3.592,7.441,7.441,0,0,0,0-4.562,7.11,7.11,0,0,0-2.056-3.1,6.7,6.7,0,0,0-2.138-1.288,1.93,1.93,0,0,0-.892-.192,11.746,11.746,0,0,1,2.719,1.813,7.009,7.009,0,0,1,1.8,2.949,7.083,7.083,0,0,1-.048,4.185,5.709,5.709,0,0,1-2.489,3.268,3.332,3.332,0,0,1-3.211.094,2.674,2.674,0,0,1-1.277-1.805c-.1-.544,0-.862-.054-.874" transform="translate(85.231 142.666)" fill="#ff9b6c"/>
    <path id="Trazado_247" data-name="Trazado 247" d="M228.638,114.5a2.644,2.644,0,0,0-1.487-.454,6.106,6.106,0,0,0-3.852.92l.472.318a17.974,17.974,0,0,0,.319-2.175c.38-4.278-.984-7.578-1.122-7.492-.193.043.851,3.321.48,7.438-.062.742-.163,1.455-.281,2.109l-.132.722.6-.4a6.4,6.4,0,0,1,3.494-1.048c.931,0,1.483.148,1.506.066" transform="translate(83.33 143.417)" fill="#ff9b6c"/>
    <path id="Trazado_248" data-name="Trazado 248" d="M235.977,89.917c-.168.025.073,1.329,1.248,2.347s2.49,1.1,2.493.926c.039-.184-1.058-.509-2.068-1.411-1.028-.881-1.5-1.926-1.673-1.863" transform="translate(84.733 141.719)" fill="#ff9b6c"/>
    <path id="Trazado_249" data-name="Trazado 249" d="M117.63,247.522l43.928.431-7.39-31.879,2.469,6.014a30.279,30.279,0,0,0,28.01,18.781c13.892,0,23.494-10.337,29.372-22.924,13.743-29.43,26.986-76.823,26.986-76.823l-26.794-23.535c-19.383,36.671-37.6,68.523-37.6,68.523s-5.261-15.993-9.325-30.258S163.246,134.084,157,126.968c-9.6-10.941-23.284-13.664-35.991-16.936l-.474,59.214Z" transform="translate(71.946 143.894)" fill="#e8505b"/>
    <path id="Trazado_250" data-name="Trazado 250" d="M78.456,203.611l80,15.583,3.9,30.734H39.688A24.168,24.168,0,0,1,15.27,223.859c1.766-22.4,3.683-50,5.139-61.663,1.136-9.1,4.764-18.5,9.062-26.6,6.19-11.658,26.83-26.633,44.926-27.371l3.426,76.207" transform="translate(60.874 143.698)" fill="#e8505b"/>
    <g id="Grupo_55" data-name="Grupo 55" transform="translate(76.067 251.923)" opacity="0.4">
      <g id="Grupo_54" data-name="Grupo 54">
        <g id="Grupo_53" data-name="Grupo 53" clip-path="url(#clip-path)">
          <path id="Trazado_251" data-name="Trazado 251" d="M117.63,247.522l43.928.431-7.39-31.879,2.469,6.014a30.279,30.279,0,0,0,28.01,18.781c13.892,0,23.494-10.337,29.372-22.924,13.743-29.43,26.986-76.823,26.986-76.823l-26.794-23.535c-19.383,36.671-37.6,68.523-37.6,68.523s-5.261-15.993-9.325-30.258S163.246,134.084,157,126.968c-9.6-10.941-23.284-13.664-35.991-16.936l-.474,59.214Z" transform="translate(-4.121 -108.03)"/>
          <path id="Trazado_252" data-name="Trazado 252" d="M78.456,203.611l72.16,13.237a7.533,7.533,0,0,1,6.013,5.858l5.727,27.221H39.688A24.168,24.168,0,0,1,15.27,223.859c1.766-22.4,3.683-50,5.139-61.663,1.136-9.1,4.764-18.5,9.062-26.6,6.19-11.658,26.83-26.633,44.926-27.371l3.426,76.207" transform="translate(-15.194 -108.225)"/>
        </g>
      </g>
    </g>
    <path id="Trazado_253" data-name="Trazado 253" d="M59.393,199.1a3.482,3.482,0,0,1-.037-.732c0-.54,0-1.234.008-2.1.011-1.89.025-4.506.044-7.707.009-6.507-.114-15.5-.619-25.411-.249-4.959-.574-9.677-.917-13.965a57.426,57.426,0,0,0-1.608-11.255,16.009,16.009,0,0,0-3.527-6.687,23.451,23.451,0,0,0-2.111-1.851,8.594,8.594,0,0,1,2.272,1.694,15.661,15.661,0,0,1,3.758,6.728A55.362,55.362,0,0,1,58.4,149.14c.373,4.291.715,9.015.964,13.981.506,9.927.564,18.931.451,25.443-.055,3.256-.145,5.891-.228,7.709-.048.862-.085,1.556-.115,2.094a3.511,3.511,0,0,1-.08.729" transform="translate(64.703 145.986)" fill="#1a2e35"/>
    <path id="Trazado_254" data-name="Trazado 254" d="M152.223,212.277a12.342,12.342,0,0,0-2.913-2.358,18.259,18.259,0,0,0-4.087-1.633c-1.658-.471-3.595-.837-5.732-1.275-8.548-1.742-20.352-4.17-33.433-6.612s-24.975-4.417-33.589-5.8l-10.2-1.637L59.5,192.5a6.291,6.291,0,0,1-.961-.2,6.159,6.159,0,0,1,.977.085l2.787.357c2.418.32,5.914.812,10.23,1.455,8.631,1.28,20.538,3.186,33.631,5.636s24.884,4.935,33.412,6.779c2.129.464,4.069.86,5.739,1.365a17.854,17.854,0,0,1,4.11,1.75,9.511,9.511,0,0,1,2.194,1.776,5.561,5.561,0,0,1,.468.567.822.822,0,0,1,.137.208" transform="translate(65.559 152.785)" fill="#1a2e35"/>
    <path id="Trazado_255" data-name="Trazado 255" d="M60.727,192.3c.025.1-1.475.45-3.756,1.377a31.5,31.5,0,0,0-3.871,1.909,30.789,30.789,0,0,0-8.05,6.765,31.319,31.319,0,0,0-2.548,3.485c-1.308,2.087-1.907,3.5-2,3.462a3.934,3.934,0,0,1,.347-1.026,20.311,20.311,0,0,1,1.308-2.647,27.4,27.4,0,0,1,2.488-3.614,28.554,28.554,0,0,1,8.2-6.886,27.111,27.111,0,0,1,3.987-1.828,20.329,20.329,0,0,1,2.832-.833,3.9,3.9,0,0,1,1.072-.164" transform="translate(63.608 152.785)" fill="#1a2e35"/>
    <path id="Trazado_256" data-name="Trazado 256" d="M152.66,217.012a3.86,3.86,0,0,1-.165-.761c-.093-.561-.214-1.292-.363-2.2-.307-1.913-.711-4.686-1.178-8.118-.934-6.864-2.067-16.368-3.015-26.893s-1.526-20.085-1.829-27c-.154-3.461-.25-6.261-.29-8.2-.014-.921-.025-1.662-.034-2.229a3.917,3.917,0,0,1,.027-.779,3.974,3.974,0,0,1,.09.775c.037.566.084,1.305.143,2.225.115,2,.276,4.779.472,8.184.409,6.911,1.054,16.453,2,26.974s2.015,20.021,2.846,26.893c.413,3.386.751,6.15.994,8.139.106.915.192,1.651.256,2.215a3.866,3.866,0,0,1,.051.778" transform="translate(74.989 147.222)" fill="#1a2e35"/>
    <path id="Trazado_257" data-name="Trazado 257" d="M176.527,201.1c-.032.023-.259-.236-.644-.729a20.563,20.563,0,0,1-1.474-2.2,29.122,29.122,0,0,1-3.932-16.8,20.493,20.493,0,0,1,.345-2.624,3.144,3.144,0,0,1,.254-.94c.1.017-.121,1.377-.192,3.585a32.866,32.866,0,0,0,3.881,16.584c1.043,1.948,1.843,3.069,1.762,3.128" transform="translate(77.65 151.219)" fill="#1a2e35"/>
    <path id="Trazado_258" data-name="Trazado 258" d="M62.082,156.147c0,.02-.14.05-.414.088a10.282,10.282,0,0,1-1.2.116A18.505,18.505,0,0,1,56.022,156a32.117,32.117,0,0,1-6.3-1.975c-2.3-.951-4.734-2.176-7.287-3.444a54.425,54.425,0,0,0-7.374-3.088,25.139,25.139,0,0,0-6.367-1.244,20.765,20.765,0,0,0-5.944.672c-.008-.019.124-.081.381-.182a9.02,9.02,0,0,1,1.149-.386,15.018,15.018,0,0,1,4.428-.512,24.135,24.135,0,0,1,6.512,1.145,51.027,51.027,0,0,1,7.471,3.078c2.557,1.271,4.974,2.5,7.237,3.472A34.205,34.205,0,0,0,56.1,155.6a28.06,28.06,0,0,0,5.978.543" transform="translate(61.69 147.764)" fill="#fafafa"/>
    <path id="Trazado_259" data-name="Trazado 259" d="M71.888,152.709a38.635,38.635,0,0,1-6.519,1.4,38.85,38.85,0,0,1-6.616.836,38.659,38.659,0,0,1,6.52-1.4,38.607,38.607,0,0,1,6.615-.834" transform="translate(65.582 148.503)" fill="#fafafa"/>
    <path id="Trazado_260" data-name="Trazado 260" d="M62.013,174.174a10.283,10.283,0,0,1-1.611.7c-1.054.406-2.59.962-4.511,1.583a115.594,115.594,0,0,1-15.311,3.786c-3.037.532-5.952.919-8.609,1.183a34.577,34.577,0,0,1-7.112.194,12.158,12.158,0,0,1-4.619-1.318,7.068,7.068,0,0,1-1.1-.714c-.233-.188-.348-.294-.337-.309.034-.047.527.345,1.536.822A12.889,12.889,0,0,0,24.9,181.21a36.821,36.821,0,0,0,7.019-.316c2.643-.293,5.54-.694,8.564-1.223a140.5,140.5,0,0,0,15.289-3.608c1.93-.57,3.483-1.066,4.558-1.405a10.215,10.215,0,0,1,1.685-.484" transform="translate(61.264 150.826)" fill="#fafafa"/>
    <path id="Trazado_261" data-name="Trazado 261" d="M71.5,179.458a31.84,31.84,0,0,1-6.035.389,31.82,31.82,0,0,1-6.044-.188,31.921,31.921,0,0,1,6.035-.389,31.824,31.824,0,0,1,6.044.188" transform="translate(65.655 151.376)" fill="#fafafa"/>
    <path id="Trazado_262" data-name="Trazado 262" d="M18.867,228.555a2.326,2.326,0,0,1,.117-.588l.445-1.663c.1-.368.215-.767.336-1.2.139-.433.326-.892.509-1.391a32.571,32.571,0,0,1,1.372-3.34q.432-.911.9-1.9c.32-.658.73-1.3,1.114-1.989a48.1,48.1,0,0,1,2.724-4.227,55.021,55.021,0,0,1,7.77-8.494,54.988,54.988,0,0,1,9.49-6.519,48.027,48.027,0,0,1,4.565-2.112c.735-.285,1.428-.6,2.123-.828l2.007-.63a32.465,32.465,0,0,1,3.5-.9c.519-.112,1-.234,1.447-.311l1.234-.166,1.708-.211a2.313,2.313,0,0,1,.6-.034,2.387,2.387,0,0,1-.585.15l-1.685.317-1.219.215c-.442.093-.915.229-1.428.356a35.387,35.387,0,0,0-3.448.971l-1.977.66c-.685.235-1.367.56-2.091.851-1.462.555-2.93,1.35-4.5,2.138a56.75,56.75,0,0,0-9.363,6.487,56.725,56.725,0,0,0-7.719,8.372c-1,1.443-1.988,2.787-2.74,4.156-.388.676-.8,1.308-1.132,1.954l-.927,1.866a35.625,35.625,0,0,0-1.439,3.28c-.2.491-.4.941-.551,1.366q-.206.635-.381,1.177c-.221.655-.4,1.192-.547,1.626a2.417,2.417,0,0,1-.229.558" transform="translate(61.27 152.759)" fill="#fafafa"/>
    <path id="Trazado_263" data-name="Trazado 263" d="M70.683,194.279A19.843,19.843,0,0,0,66.131,200a27.922,27.922,0,0,0-2.548,7.522,76.823,76.823,0,0,0-1.048,9.742,68.979,68.979,0,0,1-1.136,9.809,26.763,26.763,0,0,1-2.777,7.587,16.969,16.969,0,0,1-3.379,4.272,11.166,11.166,0,0,1-1.165.916,1.716,1.716,0,0,1-.442.267,19.566,19.566,0,0,0,4.629-5.654,27.456,27.456,0,0,0,2.614-7.5,73.384,73.384,0,0,0,1.079-9.739,72.082,72.082,0,0,1,1.1-9.809,27.141,27.141,0,0,1,2.709-7.61,17.13,17.13,0,0,1,3.322-4.316,11.439,11.439,0,0,1,1.151-.934,1.752,1.752,0,0,1,.438-.275" transform="translate(65.029 153)" fill="#fafafa"/>
    <path id="Trazado_264" data-name="Trazado 264" d="M86.092,240.431c-.16-.006.024-9.554.41-21.324s.828-21.313.987-21.308-.024,9.552-.41,21.326-.828,21.311-.987,21.305" transform="translate(68.531 153.381)" fill="#fafafa"/>
    <path id="Trazado_265" data-name="Trazado 265" d="M113.422,238.267a7.249,7.249,0,0,1-.492-1.383,16.212,16.212,0,0,1-.451-1.663c-.146-.655-.347-1.4-.467-2.235a39.791,39.791,0,0,1-.588-5.916,41.331,41.331,0,0,1,2.2-14.348,39.67,39.67,0,0,1,2.335-5.468c.366-.765.778-1.412,1.115-1.993a16.566,16.566,0,0,1,.927-1.451,7.07,7.07,0,0,1,.884-1.172c.1.062-1.1,1.781-2.562,4.8a44.475,44.475,0,0,0-2.2,5.454,43.922,43.922,0,0,0-2.173,14.17,44.348,44.348,0,0,0,.46,5.862c.492,3.318,1.116,5.314,1.006,5.345" transform="translate(71.275 153.903)" fill="#fafafa"/>
    <path id="Trazado_266" data-name="Trazado 266" d="M70.331,124.723c-.042.094-1.755-.675-4.628-1.6a52.427,52.427,0,0,0-23.28-2.056c-2.992.409-4.812.867-4.838.767a5.813,5.813,0,0,1,1.257-.409,33.957,33.957,0,0,1,3.52-.762,47.08,47.08,0,0,1,23.472,2.073,34.515,34.515,0,0,1,3.332,1.367,5.831,5.831,0,0,1,1.166.624" transform="translate(63.294 144.974)" fill="#fafafa"/>
    <path id="Trazado_267" data-name="Trazado 267" d="M148.864,166.411a31.712,31.712,0,0,1-4.111-.064c-2.534-.1-6.035-.233-9.9-.33s-7.371-.134-9.907-.162a31.479,31.479,0,0,1-4.109-.141,4.108,4.108,0,0,1,1.1-.134c.709-.05,1.736-.1,3.005-.134,2.539-.076,6.049-.1,9.925-.006s7.38.3,9.912.5c1.265.1,2.289.2,3,.284a4.066,4.066,0,0,1,1.091.188" transform="translate(72.293 149.876)" fill="#fafafa"/>
    <path id="Trazado_268" data-name="Trazado 268" d="M167.772,162.574c.033.1-1.391.575-3.549,1.64a34.771,34.771,0,0,0-13.847,12.342c-1.3,2.023-1.941,3.382-2.034,3.339a3.7,3.7,0,0,1,.363-.994,22.468,22.468,0,0,1,1.324-2.56,31.225,31.225,0,0,1,14.02-12.5,22.138,22.138,0,0,1,2.694-1.023,3.752,3.752,0,0,1,1.029-.248" transform="translate(75.265 149.572)" fill="#fafafa"/>
    <path id="Trazado_269" data-name="Trazado 269" d="M159.82,130.536a16.585,16.585,0,0,0-5.632.789,38.9,38.9,0,0,0-5.68,2.526,46.1,46.1,0,0,1-7.025,3.156,28.622,28.622,0,0,1-13.886.906,26.319,26.319,0,0,1-4.1-1.108,7.261,7.261,0,0,1-1.422-.628c.037-.111,2.083.771,5.586,1.334a29.775,29.775,0,0,0,13.64-1.053,49.419,49.419,0,0,0,6.963-3.082,35.643,35.643,0,0,1,5.8-2.442,13.011,13.011,0,0,1,4.209-.6,6.935,6.935,0,0,1,1.151.11c.262.042.4.073.393.093" transform="translate(72.427 146.087)" fill="#fafafa"/>
    <path id="Trazado_270" data-name="Trazado 270" d="M154.57,197.645a6.737,6.737,0,0,1-1.29.6c-.421.183-.942.39-1.562.59s-1.314.464-2.111.664a41.314,41.314,0,0,1-5.641,1.175,42.792,42.792,0,0,1-14.067-.422,41.219,41.219,0,0,1-5.56-1.51c-.783-.247-1.463-.548-2.068-.79s-1.115-.474-1.524-.68a6.593,6.593,0,0,1-1.251-.679c.047-.1,1.87.779,4.97,1.762A46.737,46.737,0,0,0,130,199.73a45.838,45.838,0,0,0,13.9.418,46.968,46.968,0,0,0,5.6-1.042c3.153-.8,5.027-1.564,5.067-1.46" transform="translate(72.148 153.249)" fill="#fafafa"/>
    <path id="Trazado_271" data-name="Trazado 271" d="M175.1,232.163a2.06,2.06,0,0,1-.43-.352c-.26-.255-.68-.6-1.139-1.117a26.386,26.386,0,0,1-3.506-4.7,38.279,38.279,0,0,1-4.937-18.556A74.427,74.427,0,0,1,167.6,188.3c.6-2.4,1.134-4.323,1.521-5.648l.463-1.521a2.059,2.059,0,0,1,.2-.52,2.036,2.036,0,0,1-.088.551c-.1.419-.215.93-.358,1.548L168,188.4a80.065,80.065,0,0,0-2.333,19.025,39.3,39.3,0,0,0,4.713,18.366,29.582,29.582,0,0,0,3.32,4.757c.9,1.039,1.438,1.581,1.4,1.619" transform="translate(77.075 151.523)" fill="#fafafa"/>
    <path id="Trazado_272" data-name="Trazado 272" d="M214.436,195.216a22.18,22.18,0,0,0-5.861-3.3,47.117,47.117,0,0,0-7.1-1.843,80.121,80.121,0,0,1-8.828-2.034A36.323,36.323,0,0,1,178.61,179.6a32.8,32.8,0,0,1-3.317-3.73c-.361-.465-.607-.852-.783-1.107s-.254-.4-.237-.411a12.936,12.936,0,0,1,1.2,1.377,41.134,41.134,0,0,0,3.422,3.575,37.741,37.741,0,0,0,13.939,8.191,87.731,87.731,0,0,0,8.757,2.063,43.817,43.817,0,0,1,7.135,1.982,17.082,17.082,0,0,1,4.368,2.434,9.447,9.447,0,0,1,1.026.892c.224.216.334.336.32.35" transform="translate(78.069 150.846)" fill="#fafafa"/>
    <path id="Trazado_273" data-name="Trazado 273" d="M225.436,161.306a8.2,8.2,0,0,1-1.187-1.029c-.362-.348-.812-.769-1.362-1.227s-1.14-1.017-1.859-1.559a52.09,52.09,0,0,0-5.146-3.64,51.227,51.227,0,0,0-14.14-6.051,52.187,52.187,0,0,0-6.188-1.209c-.888-.146-1.7-.194-2.411-.269s-1.325-.115-1.827-.137a8.272,8.272,0,0,1-1.564-.147,8.16,8.16,0,0,1,1.57-.078c.506-.012,1.126-.01,1.843.041s1.539.064,2.438.186a46.268,46.268,0,0,1,6.27,1.1,48.081,48.081,0,0,1,14.292,6.116,46.529,46.529,0,0,1,5.124,3.776c.708.566,1.289,1.147,1.816,1.636s.962.931,1.3,1.305a8.151,8.151,0,0,1,1.028,1.189" transform="translate(79.742 147.776)" fill="#fafafa"/>
    <path id="Trazado_274" data-name="Trazado 274" d="M135.958,113.907a8.092,8.092,0,0,1-2.1,1.014,39.865,39.865,0,0,1-10.94,2.55,8.11,8.11,0,0,1-2.335.021c-.013-.174,3.524-.471,7.764-1.47,4.245-.978,7.548-2.276,7.614-2.114" transform="translate(72.265 144.311)" fill="#fafafa"/>
    <path id="Trazado_275" data-name="Trazado 275" d="M173.593,259.515a3.086,3.086,0,0,1-3.385,3.912h0a3.085,3.085,0,0,1-2.535-2.17l-.934-3.488.136.047c.585,2.092-1.428,4.011-3.591,3.8-1.46-.035-2.714-2.122-3.125-3.236a6.03,6.03,0,0,1-5.63-2.7l-6.506-10.148-12.044-8.81,7.283-26.029,25.927,16.779c1.016.79,1.171,1.126,2.791,2.625l16.731,15.385c-1.9,1.14-3.507,1.053-6.138,0s-14.192-8.848-14.192-8.848Z" transform="translate(73.93 154.774)" fill="#ffc09d"/>
    <path id="Trazado_276" data-name="Trazado 276" d="M149.913,235.427c.024-.032.3.132.772.453l.854.6a5.239,5.239,0,0,1,1.07.933,4.883,4.883,0,0,1,.88,1.5q.3.869.634,1.814l1.416,4.168c.991,2.962,1.856,5.655,2.454,7.61a18.8,18.8,0,0,1,.854,3.2,18.878,18.878,0,0,1-1.243-3.078c-.7-1.924-1.623-4.592-2.612-7.551-.483-1.472-.944-2.873-1.372-4.178q-.3-.951-.583-1.828a4.655,4.655,0,0,0-.745-1.4,5.39,5.39,0,0,0-.951-.936l-.8-.675c-.432-.377-.659-.6-.635-.632" transform="translate(75.435 157.447)" fill="#ff9b6c"/>
    <path id="Trazado_277" data-name="Trazado 277" d="M165.076,256.183a4.492,4.492,0,0,1-.371-1.074q-.347-1.238-.833-2.967c-.7-2.505-1.65-5.971-2.856-9.747s-2.473-7.153-3.984-9.234a7.891,7.891,0,0,0-2.125-2.119c-.605-.381-1-.491-.98-.547.006-.02.106,0,.295.045a3.694,3.694,0,0,1,.8.307,7.269,7.269,0,0,1,2.34,2.07c1.652,2.1,2.985,5.523,4.206,9.3,1.211,3.8,2.1,7.286,2.7,9.822.3,1.269.519,2.3.657,3.015a4.233,4.233,0,0,1,.152,1.127" transform="translate(75.869 156.914)" fill="#ff9b6c"/>
    <path id="Trazado_278" data-name="Trazado 278" d="M171.052,257.94a5.161,5.161,0,0,1-.452-1.162l-1.026-3.231c-.842-2.735-1.968-6.524-3.176-10.719l-3.042-10.746a5.253,5.253,0,0,0-1.774-2.708,7.054,7.054,0,0,0-1.074-.573c0-.016.117-.023.328.023a2.823,2.823,0,0,1,.872.363,5.213,5.213,0,0,1,2.032,2.757c.913,2.74,1.987,6.526,3.211,10.723,1.209,4.2,2.272,8,3.014,10.766q.5,1.936.85,3.281a5.237,5.237,0,0,1,.236,1.226" transform="translate(76.581 156.73)" fill="#ff9b6c"/>
  </g>
</svg>
