<svg id="personajeTel" xmlns="http://www.w3.org/2000/svg" xmlns:xlink="http://www.w3.org/1999/xlink" width="108.075" height="185.934" viewBox="0 0 108.075 185.934">
  <defs>
    <clipPath id="clip-path">
      <rect id="Rectángulo_84" data-name="Rectángulo 84" width="108.075" height="185.934" fill="none"/>
    </clipPath>
  </defs>
  <g id="Grupo_57" data-name="Grupo 57" clip-path="url(#clip-path)">
    <path id="Trazado_247" data-name="Trazado 247" d="M35.369,5.315l.687-.039A13.3,13.3,0,0,1,50,16.729c.885,6.384,1.782,13.448,1.937,16.891.323,7.131-6.741,8.649-6.741,8.649l.254,2.9A8.67,8.67,0,0,1,28.178,46.75L25.646,20.292C24.582,12.93,27.979,6.174,35.369,5.315" transform="translate(-7.626 -1.574)" fill="#ffc09d"/>
    <path id="Trazado_248" data-name="Trazado 248" d="M49.657,57.143a17.311,17.311,0,0,1-9.495-2.2s2.491,5,9.565,3.952Z" transform="translate(-12.032 -16.462)" fill="#ff9b6c"/>
    <path id="Trazado_249" data-name="Trazado 249" d="M56.776,30.719a1.018,1.018,0,0,1-.922,1.083.976.976,0,0,1-1.1-.857,1.021,1.021,0,0,1,.921-1.084.976.976,0,0,1,1.1.858" transform="translate(-16.402 -8.944)" fill="#1a2e35"/>
    <path id="Trazado_250" data-name="Trazado 250" d="M56.869,26.323c-.118.14-.922-.387-2.017-.32-1.095.05-1.866.66-1.992.532-.062-.056.053-.3.388-.578a2.793,2.793,0,0,1,1.585-.59,2.686,2.686,0,0,1,1.616.42c.351.24.479.473.42.536" transform="translate(-15.832 -7.599)" fill="#1a2e35"/>
    <path id="Trazado_251" data-name="Trazado 251" d="M43.255,31.679a1.019,1.019,0,0,1-.922,1.083.975.975,0,0,1-1.1-.857,1.02,1.02,0,0,1,.922-1.084.975.975,0,0,1,1.1.858" transform="translate(-12.351 -9.232)" fill="#1a2e35"/>
    <path id="Trazado_252" data-name="Trazado 252" d="M41.517,27.5c-.118.14-.923-.386-2.018-.32-1.094.05-1.865.66-1.992.532-.062-.056.052-.3.389-.578a2.791,2.791,0,0,1,1.585-.59,2.684,2.684,0,0,1,1.615.421c.351.239.479.472.421.535" transform="translate(-11.232 -7.951)" fill="#1a2e35"/>
    <path id="Trazado_253" data-name="Trazado 253" d="M49.137,35.287a7.281,7.281,0,0,1,1.76-.423c.278-.045.539-.116.576-.309a1.43,1.43,0,0,0-.235-.818l-.949-2.082a36.518,36.518,0,0,1-2.178-5.462,36.8,36.8,0,0,1,2.612,5.275q.479,1.1.915,2.1a1.621,1.621,0,0,1,.208,1.088.7.7,0,0,1-.436.436,1.887,1.887,0,0,1-.471.093,7.163,7.163,0,0,1-1.8.106" transform="translate(-14.411 -7.847)" fill="#1a2e35"/>
    <path id="Trazado_254" data-name="Trazado 254" d="M41.164,21.457c-.091.3-1.193.226-2.468.455-1.28.2-2.3.639-2.481.382-.083-.124.081-.414.484-.726a4.362,4.362,0,0,1,3.77-.637c.483.163.734.383.7.527" transform="translate(-10.843 -6.216)" fill="#1a2e35"/>
    <path id="Trazado_255" data-name="Trazado 255" d="M56.156,21.8c-.179.26-.948.045-1.855.085-.909.008-1.666.263-1.857.013-.085-.122.022-.378.344-.633a2.692,2.692,0,0,1,2.992-.079c.335.237.455.487.377.614" transform="translate(-15.703 -6.223)" fill="#1a2e35"/>
    <path id="Trazado_256" data-name="Trazado 256" d="M48.369,13.1s-2.136-4.354-4.348-5.272c-2.678-1.111-3.634,1.813-6.157,1.262s-5.079-1.618-7.506.447C27.7,11.8,29.088,13.2,29.1,16.369c.042,12.859-2.091,16.619-3.1,10.619-.111-.658-1.977-1.078-2.41-3.857-.562-3.6-.954-8-.293-10.615A10.162,10.162,0,0,1,27.12,6.961c3.349-2.808,8.151-3.14,11.434-3S48.346,7.5,48.369,13.1" transform="translate(-6.874 -1.179)" fill="#1a2e35"/>
    <path id="Trazado_257" data-name="Trazado 257" d="M25.906,35.778a1.938,1.938,0,0,0-2.2-1.744c-1.322.2-2.757,1.043-2.512,3.784.436,4.863,5.229,3.423,5.224,3.282,0-.1-.317-3.288-.517-5.322" transform="translate(-6.343 -10.19)" fill="#ffc09d"/>
    <path id="Trazado_258" data-name="Trazado 258" d="M25.922,40.043c-.023-.013-.08.067-.216.146a.852.852,0,0,1-.632.069,2.1,2.1,0,0,1-1.138-1.794,2.8,2.8,0,0,1,.128-1.234.981.981,0,0,1,.579-.707.433.433,0,0,1,.521.187c.077.13.055.23.082.236s.1-.091.04-.289a.543.543,0,0,0-.219-.287.641.641,0,0,0-.48-.082,1.2,1.2,0,0,0-.817.833A2.893,2.893,0,0,0,23.6,38.5a2.209,2.209,0,0,0,1.424,1.99.912.912,0,0,0,.763-.2c.14-.134.155-.245.138-.252" transform="translate(-7.063 -10.868)" fill="#ff9b6c"/>
    <path id="Trazado_259" data-name="Trazado 259" d="M49.132,6.648C48.383,6.085,47.354,6,46.61,5.435c-1.353-1.037-1.411-3.395-3-4.012-.943-.366-2,.085-3.007-.02C38.978,1.235,38.349.006,35.88,0a4.483,4.483,0,0,0-4.238,2.383,3.7,3.7,0,0,0-3.694.348A4.111,4.111,0,0,0,26.4,5.679s-.508-.256-2.049.961a8.033,8.033,0,0,0-2.136,3.639c-.53,1.783.244,3.665,1,5.363a3.724,3.724,0,0,0,1.874,2.252,2.522,2.522,0,0,0,2.9-1.658c.454-1.141,1.173-2.288,1.726-3.384.958-1.9,1.939-3.679,1.133-4.9a5.552,5.552,0,0,1,3.427-.02c1.116.37,2.091,1.086,3.2,1.479a2.99,2.99,0,0,0,3.27-.533,2.389,2.389,0,0,0,3.656.793,3.335,3.335,0,0,0,4.364,1.231,2.709,2.709,0,0,0,.364-4.257" transform="translate(-6.603 0)" fill="#1a2e35"/>
    <path id="Trazado_260" data-name="Trazado 260" d="M23.026,20.611a5.954,5.954,0,0,1,.564,1.114,2.4,2.4,0,0,0,.8.985,2.128,2.128,0,0,0,1.509.174,3.655,3.655,0,0,0,1.46-.617,5.818,5.818,0,0,0,.952-.917,7.438,7.438,0,0,1,.814-.948,4.233,4.233,0,0,1-.653,1.075,5.2,5.2,0,0,1-.953,1,3.7,3.7,0,0,1-1.566.687,2.32,2.32,0,0,1-1.706-.234,2.455,2.455,0,0,1-.844-1.123,4.922,4.922,0,0,1-.378-1.2" transform="translate(-6.897 -6.112)" fill="#375a64"/>
    <path id="Trazado_261" data-name="Trazado 261" d="M23.289,24.9a4.025,4.025,0,0,0,.963.534,2.723,2.723,0,0,0,1.163.1,3.326,3.326,0,0,0,1.338-.509,6.686,6.686,0,0,0,1.832-1.93,5.338,5.338,0,0,1,.663-.922,3.836,3.836,0,0,1-.49,1.032,5.914,5.914,0,0,1-1.85,2.065,3.374,3.374,0,0,1-1.464.531,2.719,2.719,0,0,1-1.263-.173c-.689-.282-.921-.719-.893-.726" transform="translate(-6.977 -6.642)" fill="#375a64"/>
    <path id="Trazado_262" data-name="Trazado 262" d="M45.018,41.737a6.192,6.192,0,0,0-.276,1.638,1.864,1.864,0,0,0,.532,1.437,2.047,2.047,0,0,0,1.578.728h.018A2.275,2.275,0,0,0,49.113,43.6l.193-1.208c-1.144-.31-4.2-.581-4.288-.66" transform="translate(-13.401 -12.504)" fill="#ff9b6c"/>
    <path id="Trazado_263" data-name="Trazado 263" d="M47.936,45.123c-.007-.023-.144.006-.389.041a3.367,3.367,0,0,1-1.029.008,2.005,2.005,0,0,1-1.253-.731,2.52,2.52,0,0,1-.493-1.711,2.494,2.494,0,0,1,.262-.988l-.151.075c1.095.165,2.052.3,2.737.378a4.637,4.637,0,0,0,1.1.078,4.718,4.718,0,0,0-1.074-.263c-.677-.132-1.628-.3-2.721-.48l-.1-.017-.048.092a2.836,2.836,0,0,0,.277,3.011,2.162,2.162,0,0,0,1.435.765,2.855,2.855,0,0,0,1.082-.1c.245-.071.37-.138.365-.154" transform="translate(-13.323 -12.437)" fill="#1a2e35"/>
    <path id="Trazado_264" data-name="Trazado 264" d="M57.031,131.687l-2.338-8.206c-.058-3.389-1.264-31.44-1.317-32.6l3.492-18.689-16.4-6.631-2.54-3.919-7.379,5.613-10.349-6L17,66.089l-14.415,5.1A9.142,9.142,0,0,0,0,72.442v48.4a7.306,7.306,0,0,0,1.423-2.635c1.13-3.6,2.928-11.679,4.109-17.189l1.182,11.964L5.171,134.893a4.943,4.943,0,0,0,5.067,5.289l45.3-1.338c1.134-.032,1.663-1.466,1.852-3.014a10.508,10.508,0,0,0-.362-4.144" transform="translate(0 -18.351)" fill="#e1e1e1"/>
    <path id="Trazado_265" data-name="Trazado 265" d="M15.153,235.32H36.666l-1.914-38.851,1.41.306s5.364,23.921,8.319,38.545H65.441l-5.63-54.106-2.2-16.371-46.961,3.775A60.471,60.471,0,0,0,9.329,186.4c.133,1.731,2.883,24.623,5.824,48.918" transform="translate(-2.746 -49.386)" fill="#375a64"/>
    <path id="Trazado_266" data-name="Trazado 266" d="M45.743,189.772a3.327,3.327,0,0,1-.719.4,8.278,8.278,0,0,1-2.133.747,4.481,4.481,0,0,1-1.586.011,3.263,3.263,0,0,1-1.659-.8,3.937,3.937,0,0,1-1.006-1.759c-.2-.669-.319-1.364-.462-2.071-.549-2.837-.921-5.426-1.137-7.305-.109-.94-.181-1.7-.22-2.23a3.56,3.56,0,0,1-.022-.824,3.657,3.657,0,0,1,.162.808c.09.6.2,1.338.335,2.212.282,1.867.693,4.443,1.24,7.27.278,1.4.467,2.822,1.341,3.655a3.572,3.572,0,0,0,2.973.774,9.66,9.66,0,0,0,2.117-.621,3.883,3.883,0,0,1,.775-.275" transform="translate(-11.021 -52.713)" fill="#1a2e35"/>
    <path id="Trazado_267" data-name="Trazado 267" d="M41.645,176.61c-.006-.016.111-.09.354-.105a1.548,1.548,0,0,1,.964.31,1.723,1.723,0,0,1,.726,1.33,1.707,1.707,0,0,1-2.907,1.091,1.719,1.719,0,0,1-.328-1.479,1.542,1.542,0,0,1,.523-.867c.192-.148.329-.169.335-.153a1.94,1.94,0,0,0-.6,1.069,1.5,1.5,0,0,0,.327,1.209,1.4,1.4,0,0,0,2.318-.87,1.5,1.5,0,0,0-.548-1.126,1.943,1.943,0,0,0-1.158-.408" transform="translate(-12.106 -52.879)" fill="#1a2e35"/>
    <path id="Trazado_268" data-name="Trazado 268" d="M75.431,184.374a1.853,1.853,0,0,1-.586.092,11,11,0,0,1-1.615.018,15.64,15.64,0,0,1-9.668-4.072,10.958,10.958,0,0,1-1.115-1.168c-.24-.3-.364-.467-.344-.483.048-.043.6.59,1.629,1.458a17.366,17.366,0,0,0,9.517,4.008c1.338.13,2.178.083,2.182.147" transform="translate(-18.605 -53.555)" fill="#1a2e35"/>
    <path id="Trazado_269" data-name="Trazado 269" d="M19.034,176.3a7.346,7.346,0,0,1-.894,1.756,19.727,19.727,0,0,1-6.774,6.587,7.359,7.359,0,0,1-1.78.844,18.521,18.521,0,0,1,1.645-1.063A24.736,24.736,0,0,0,14.9,181.5a24.731,24.731,0,0,0,3.025-3.585,18.583,18.583,0,0,1,1.109-1.614" transform="translate(-2.872 -52.818)" fill="#1a2e35"/>
    <path id="Trazado_270" data-name="Trazado 270" d="M79.431,76.874s3.3,2.9,3.854,5.1,12.408,27.908,12.408,27.908l5.894,1.59,1.571,3.263a9.086,9.086,0,0,1-2.568,11.175,6.924,6.924,0,0,1-.631.429,10.04,10.04,0,0,1-12.243-2.117c-3.159-3.725-12.4-17.129-12.4-17.129V90.7Z" transform="translate(-22.564 -23.031)" fill="#e1e1e1"/>
    <path id="Trazado_271" data-name="Trazado 271" d="M108,125.57l8.474-5,4.083,5-.845,2.421L108.789,136.1a7.266,7.266,0,0,1-2.533-4.392c-.511-3.038,1.745-6.138,1.745-6.138" transform="translate(-31.811 -36.121)" fill="#ffc09d"/>
    <path id="Trazado_272" data-name="Trazado 272" d="M101.361,123.981c0,.079-.719.018-1.782.359a7.9,7.9,0,0,0-3.52,2.44,16.1,16.1,0,0,0-2.24,3.76,9.487,9.487,0,0,1-.8,1.663,6.636,6.636,0,0,1,.518-1.781,13.35,13.35,0,0,1,2.192-3.925,7.445,7.445,0,0,1,3.769-2.454,3.312,3.312,0,0,1,1.867-.061" transform="translate(-27.864 -37.116)" fill="#1a2e35"/>
    <path id="Trazado_273" data-name="Trazado 273" d="M120.623,119.117a6.6,6.6,0,0,1,2.035-6.1,23.028,23.028,0,0,1,6.692-3.835c1.487-.665,4.579-3.248,5.126-2.622a2.047,2.047,0,0,1,0,2.7c-.782,1.135-5.265,2.84-4.639,4.278.256.59,1.666.692,1.666.692s5.4.352,7.67.157,4.3.235,4.187,1.017-.548,1.213-2.426,1.37-4.931.039-5.087.469.469.7,1.565.626,6.261-.078,6.613.509a1.164,1.164,0,0,1-.626,1.682l-1.213.431s.7.978.118,1.526-1.918.352-1.918.352l-6.849-.2s-.391.413-.2.7,5.557-.109,5.6.478.508.861-1.1,1.252a21.494,21.494,0,0,1-7.082,0,70.817,70.817,0,0,0-7.514-.665Z" transform="translate(-36.103 -31.894)" fill="#ffc09d"/>
    <path id="Trazado_274" data-name="Trazado 274" d="M53.159,69.109a11.211,11.211,0,0,1-1.423,1.481c-.9.887-2.138,2.118-3.447,3.531l-.806.88-.174.19-.156-.2c-1.014-1.3-1.891-2.458-2.5-3.3a7.02,7.02,0,0,1-.919-1.4,7.091,7.091,0,0,1,1.142,1.22c.672.792,1.592,1.915,2.62,3.205l-.33-.01.806-.89a46.679,46.679,0,0,1,3.559-3.461,8.429,8.429,0,0,1,1.633-1.254" transform="translate(-13.1 -20.704)" fill="#1a2e35"/>
    <path id="Trazado_275" data-name="Trazado 275" d="M5.028,91.263a3.684,3.684,0,0,1,.234.885c.125.575.276,1.412.443,2.45.335,2.076.689,4.96.984,8.151s.511,6.084.674,8.176l.179,2.479a3.744,3.744,0,0,1,.013.915,3.686,3.686,0,0,1-.182-.9c-.09-.581-.2-1.424-.317-2.468-.241-2.087-.506-4.976-.8-8.165s-.6-6.067-.855-8.148q-.179-1.449-.3-2.465a3.713,3.713,0,0,1-.066-.913" transform="translate(-1.503 -27.342)" fill="#1a2e35"/>
    <path id="Trazado_276" data-name="Trazado 276" d="M76.573,89.182a5.5,5.5,0,0,1,.155,1.113c.073.719.149,1.762.217,3.052.143,2.58.218,6.147.227,10.084,0,3.893,0,7.413,0,10.081,0,1.223,0,2.247,0,3.054a5.542,5.542,0,0,1-.049,1.123A5.564,5.564,0,0,1,77,116.572c-.051-.721-.1-1.764-.141-3.054-.087-2.581-.119-6.147-.127-10.085s-.035-7.5-.1-10.074c-.031-1.222-.057-2.246-.078-3.053a5.561,5.561,0,0,1,.015-1.123" transform="translate(-22.933 -26.718)" fill="#1a2e35"/>
    <path id="Trazado_277" data-name="Trazado 277" d="M44.59,141.946a4.357,4.357,0,0,1-.047-.716q-.018-.763-.048-2.054c-.036-1.825-.088-4.394-.15-7.55-.151-6.412-.357-15.2-.584-24.91-.223-9.731-.355-18.543-.344-24.923,0-3.189.033-5.77.074-7.553q.038-1.291.061-2.054a4.354,4.354,0,0,1,.051-.715,4.48,4.48,0,0,1,.037.717q.007.763.021,2.054c.015,1.825.038,4.394.065,7.55.067,6.376.249,15.183.471,24.914s.406,18.537.456,24.916c.031,3.189.029,5.77.011,7.554q-.021,1.291-.034,2.054a4.372,4.372,0,0,1-.041.716" transform="translate(-13.007 -21.413)" fill="#1a2e35"/>
    <path id="Trazado_278" data-name="Trazado 278" d="M110.239,139.119c-.011.025-.2-.02-.53-.158a5.882,5.882,0,0,1-1.289-.775,6.944,6.944,0,0,1-1.743-9.032,5.906,5.906,0,0,1,.908-1.2c.252-.249.413-.363.432-.343.059.053-.513.595-1.068,1.691a7.054,7.054,0,0,0,1.668,8.647c.923.811,1.656,1.1,1.621,1.172" transform="translate(-31.673 -38.231)" fill="#1a2e35"/>
    <path id="Trazado_279" data-name="Trazado 279" d="M53.271,116.636a7.06,7.06,0,0,1-1.1.642c-.718.389-1.768.93-3.075,1.579-2.613,1.3-6.267,3.013-10.368,4.751s-7.877,3.167-10.63,4.138c-1.376.486-2.495.864-3.274,1.108a6.993,6.993,0,0,1-1.224.34,7.072,7.072,0,0,1,1.167-.5L28,127.456c2.722-1.044,6.469-2.517,10.566-4.25s7.761-3.4,10.405-4.628l3.132-1.453a7.112,7.112,0,0,1,1.172-.489" transform="translate(-7.072 -34.943)" fill="#1a2e35"/>
    <path id="Trazado_280" data-name="Trazado 280" d="M133.522,113.876c.051.05-.317.4-.788,1.026a2.925,2.925,0,0,0-.541,1.2c-.1.493-.1,1.072-.18,1.7a4.145,4.145,0,0,1-1.634,2.756,2.08,2.08,0,0,1-1.222.522c-.028-.069.445-.248,1.028-.763a4.261,4.261,0,0,0,1.395-2.576,17.154,17.154,0,0,1,.219-1.729,2.967,2.967,0,0,1,.693-1.308c.566-.61,1-.867,1.03-.833" transform="translate(-38.694 -34.116)" fill="#ff9b6c"/>
    <path id="Trazado_281" data-name="Trazado 281" d="M137.13,125.117a29.618,29.618,0,0,1,5.079.2,29.648,29.648,0,0,1,5.043.639,29.664,29.664,0,0,1-5.079-.2,29.715,29.715,0,0,1-5.042-.639" transform="translate(-41.083 -37.468)" fill="#ff9b6c"/>
    <path id="Trazado_282" data-name="Trazado 282" d="M37.521,69.689a16.1,16.1,0,0,1-.967,2.481L36.02,73.4a13.817,13.817,0,0,1-.674,1.426.917.917,0,0,1-.9.438,2.268,2.268,0,0,1-.849-.435L32.087,73.8c-2.063-1.423-3.917-2.731-5.246-3.7a16.031,16.031,0,0,1-2.1-1.636,16.046,16.046,0,0,1,2.276,1.381c1.374.9,3.256,2.168,5.32,3.59l1.5,1.041a1.986,1.986,0,0,0,.674.375.5.5,0,0,0,.506-.259c.485-.884.89-1.837,1.255-2.554a16.092,16.092,0,0,1,1.247-2.352" transform="translate(-7.412 -20.511)" fill="#1a2e35"/>
  </g>
</svg>
