<svg xmlns="http://www.w3.org/2000/svg" xmlns:xlink="http://www.w3.org/1999/xlink" width="29.028" height="29.027" viewBox="0 0 29.028 29.027">
  <defs>
    <clipPath id="clip-path">
      <rect id="Rectángulo_138" data-name="Rectángulo 138" width="29.028" height="29.027" fill="none"/>
    </clipPath>
  </defs>
  <g id="engrane" transform="translate(-171.673 -384.3)">
    <g id="Grupo_103" data-name="Grupo 103" transform="translate(171.673 384.3)">
      <g id="Grupo_101" data-name="Grupo 101" transform="translate(0 0)" clip-path="url(#clip-path)">
        <path id="Trazado_401" data-name="Trazado 401" d="M18.591,14.445a4.127,4.127,0,1,0,4.111,4.1,4.118,4.118,0,0,0-4.111-4.1m-.043,7.162a3.035,3.035,0,1,1,3.06-3.009,3.071,3.071,0,0,1-3.06,3.009" transform="translate(-4.06 -4.059)" fill="#fff"/>
        <path id="Trazado_402" data-name="Trazado 402" d="M17.064,26.4a6.443,6.443,0,0,1-6.236-6.192c-.015-.412-.1-.8-.613-.757-.472.041-.489.429-.478.814a7.506,7.506,0,0,0,7.121,7.217c.057,0,.114,0,.17.008.377.029.719-.056.75-.489.034-.472-.315-.588-.714-.6" transform="translate(-2.736 -5.466)" fill="#fff"/>
        <path id="Trazado_403" data-name="Trazado 403" d="M23.39,10.547a7.042,7.042,0,0,0-3.317-.818c-.349,0-.606.143-.628.5s.209.544.561.576c.188.017.377.027.564.046a6.4,6.4,0,0,1,5.8,5.777,1.7,1.7,0,0,0,.067.612,2.837,2.837,0,0,0,.535.545,5.08,5.08,0,0,0,.514-.567c.063-.091.012-.257.012-.538a7.438,7.438,0,0,0-4.1-6.138" transform="translate(-5.464 -2.734)" fill="#fff"/>
        <path id="Trazado_404" data-name="Trazado 404" d="M28.227,11.421a2.8,2.8,0,0,0-.453,0,1.768,1.768,0,0,1-1.943-1.147c-.6-1.222-1.048-2.222.366-3.422.562-.478.517-.73-.023-1.255-.894-.869-1.8-1.729-2.689-2.6-1.148-1.12-1.088-1.16-2.178.029a1.582,1.582,0,0,1-1.416.528,2.228,2.228,0,0,1-2.285-2.49C17.6.065,17.54,0,16.552,0H12.416c-.907,0-.979.089-1,1.013A3.292,3.292,0,0,1,11.26,2.34a2.356,2.356,0,0,1-3.689.524c-.145-.149-1.089-.769-1.416-.454Q4.422,4.083,2.693,5.759a.6.6,0,0,0-.027.942,5.784,5.784,0,0,1,.656.7,2.059,2.059,0,0,1,.411.943,3.751,3.751,0,0,1-1.028,2.622c-.515.6-1.2.435-1.846.452-.725.019-.856.14-.858.869,0,1.3,0,2.606,0,3.91,0,1.406,0,1.437,1.394,1.394a1.678,1.678,0,0,1,1.545.751,3.974,3.974,0,0,1,.812,2.424c-.014.705-.613,1.005-.994,1.45-.408.476-.423.7.035,1.148,1,.975,2.01,1.943,3.015,2.914.828.8.866.791,1.669-.009a2.614,2.614,0,0,1,.963-.74,2.343,2.343,0,0,1,2.981,2.286c0,.132,0,.265,0,.4.013.656.155.807.8.81q2.267.008,4.533,0c.718,0,.832-.134.854-.874a4.1,4.1,0,0,1,.12-1.393c.452-1.094,2.856-1.972,3.675-.658a3.662,3.662,0,0,0,.467.492A.628.628,0,0,0,22.9,26.6c1.124-1.093,2.255-2.178,3.376-3.274a3.907,3.907,0,0,0,.388-.545c-.169-.229-.322-.433-.471-.639-.3-.418-.783-.807-.866-1.266a3.459,3.459,0,0,1,.9-2.711c.495-.65,1.181-.568,1.858-.559.057,0,.114,0,.17,0,.616-.018.769-.164.771-.782q.009-2.295,0-4.59c0-.658-.146-.8-.8-.812m-.348,5.1c-1.8-.223-2.7.856-3.3,2.287-.592,1.411-.748,2.8.515,3.8l-2.68,3a2.861,2.861,0,0,0-3.7-.99,2.912,2.912,0,0,0-2.182,3.276H12.511a2.894,2.894,0,0,0-2.1-3.236,2.9,2.9,0,0,0-3.805.956L3.923,22.627c1.272-1.009,1.131-2.409.52-3.837-.6-1.4-1.479-2.491-3.282-2.263V12.519c1.744.213,2.672-.835,3.279-2.269s.761-2.83-.528-3.859L6.6,3.413a2.905,2.905,0,0,0,3.8.97A2.89,2.89,0,0,0,12.5,1.143h4a2.91,2.91,0,0,0,2.089,3.219,2.889,2.889,0,0,0,3.8-.914l2.677,2.973c-1.215.963-1.1,2.36-.493,3.792s1.5,2.521,3.306,2.292Z" transform="translate(0 0)" fill="#fff"/>
      </g>
    </g>
  </g>
</svg>
