<svg xmlns="http://www.w3.org/2000/svg" xmlns:xlink="http://www.w3.org/1999/xlink" width="130" height="105.016" viewBox="0 0 130 105.016">
  <defs>
    <clipPath id="clip-path">
      <rect id="Rect치ngulo_108" data-name="Rect치ngulo 108" width="64.65" height="51.008" fill="none"/>
    </clipPath>
  </defs>
  <g id="pc-amarilla" transform="translate(-58.437 146.289)">
    <g id="Grupo_86" data-name="Grupo 86" transform="translate(58.437 -146.289)">
      <path id="Trazado_355" data-name="Trazado 355" d="M467.878,80.715l6.731,10.605H446.455l6.74-10.605Z" transform="translate(-395.534 8.852)" fill="#d8a412"/>
      <rect id="Rect치ngulo_107" data-name="Rect치ngulo 107" width="120.315" height="4.872" transform="translate(4.846 79.974)" fill="#d8a412"/>
      <path id="Trazado_356" data-name="Trazado 356" d="M526.875,6.558H406.539V8.494h-3.613V79.262H523.262q0-.97-.026-1.935h3.639Z" transform="translate(-401.715 -1.713)" fill="#f9c931"/>
      <path id="Trazado_357" data-name="Trazado 357" d="M528.072,2.347H405.678a3.807,3.807,0,0,0-3.8,3.8V88.2a3.807,3.807,0,0,0,3.8,3.8h48.194l-6.7,10.548h-3.311a2.408,2.408,0,1,0,0,4.815h46.022a2.408,2.408,0,0,0,0-4.815h-3.31L479.878,92h48.194a3.807,3.807,0,0,0,3.8-3.8V6.151a3.807,3.807,0,0,0-3.8-3.8M406.69,7.162H527.061V77.529H406.69Zm74.183,95.385h-28L459.575,92h14.6Zm-74.183-20.2H527.061v4.841H406.69Z" transform="translate(-401.875 -2.347)" fill="#231f20"/>
      <g id="Grupo_79" data-name="Grupo 79" transform="translate(8.216 24.333)" opacity="0.5">
        <g id="Grupo_78" data-name="Grupo 78" transform="translate(0 0)">
          <g id="Grupo_77" data-name="Grupo 77" clip-path="url(#clip-path)">
            <path id="Trazado_358" data-name="Trazado 358" d="M472.688,52.867c-2.3.892-3.83,2.425-3.492,5.241H462.77c.329-2.677-1.089-4.266-3.36-5.178s-4.4-.764-6.09,1.529l-4.294-4.772c2.035-1.614,1.81-3.854.832-6.142-.96-2.246-2.367-3.986-5.252-3.621V33.511c2.791.342,4.277-1.336,5.248-3.63.964-2.277,1.213-4.5-.812-6.15L409.014,74.739H456l17.663-22.177a7.6,7.6,0,0,0-.976.3" transform="translate(-409.015 -23.731)" fill="#231f20"/>
          </g>
        </g>
      </g>
      <path id="Trazado_359" data-name="Trazado 359" d="M459.413,29.269a6.6,6.6,0,1,0,6.579,6.565,6.59,6.59,0,0,0-6.579-6.565m-.069,11.461a4.856,4.856,0,1,1,4.9-4.815,4.915,4.915,0,0,1-4.9,4.815" transform="translate(-394.58 1.505)" fill="#fff"/>
      <path id="Trazado_360" data-name="Trazado 360" d="M459.8,45.4a10.312,10.312,0,0,1-9.979-9.91c-.024-.659-.164-1.284-.981-1.212-.756.066-.782.686-.765,1.3a12.012,12.012,0,0,0,11.4,11.55c.091,0,.182,0,.272.013.6.047,1.151-.09,1.2-.782.054-.755-.5-.941-1.143-.961" transform="translate(-395.254 2.222)" fill="#fff"/>
      <path id="Trazado_361" data-name="Trazado 361" d="M464.093,25.862a11.269,11.269,0,0,0-5.308-1.309c-.56,0-.971.229-1.006.808s.334.871.9.922c.3.026.6.044.9.074a10.245,10.245,0,0,1,9.278,9.245,2.7,2.7,0,0,0,.106.979,4.574,4.574,0,0,0,.856.872,8.031,8.031,0,0,0,.824-.907c.1-.145.017-.412.017-.861a11.9,11.9,0,0,0-6.568-9.823" transform="translate(-393.863 0.831)" fill="#fff"/>
      <path id="Trazado_362" data-name="Trazado 362" d="M483.505,33.1a4.481,4.481,0,0,0-.725,0,2.831,2.831,0,0,1-3.11-1.835c-.968-1.955-1.675-3.556.587-5.477.9-.765.826-1.168-.037-2.008-1.431-1.39-2.875-2.767-4.3-4.159-1.837-1.793-1.741-1.857-3.486.047a2.531,2.531,0,0,1-2.267.845c-2.444-.219-3.653-1.53-3.657-3.985,0-1.605-.1-1.709-1.686-1.709q-3.31,0-6.619,0c-1.451,0-1.566.143-1.6,1.621a5.268,5.268,0,0,1-.247,2.123,3.77,3.77,0,0,1-5.9.839c-.231-.238-1.743-1.231-2.267-.726q-2.773,2.677-5.541,5.358a.957.957,0,0,0-.043,1.507,9.254,9.254,0,0,1,1.051,1.122,3.3,3.3,0,0,1,.658,1.508,6.008,6.008,0,0,1-1.645,4.2c-.824.965-1.922.7-2.955.724-1.16.03-1.37.224-1.373,1.391,0,2.086,0,4.171,0,6.257,0,2.251,0,2.3,2.231,2.231a2.686,2.686,0,0,1,2.473,1.2,6.359,6.359,0,0,1,1.3,3.88c-.023,1.129-.98,1.609-1.591,2.321-.654.762-.677,1.122.056,1.837,1.6,1.56,3.216,3.109,4.824,4.663,1.325,1.282,1.384,1.266,2.671-.014a4.184,4.184,0,0,1,1.542-1.184,3.749,3.749,0,0,1,4.77,3.658c0,.212,0,.423,0,.635.021,1.05.247,1.292,1.281,1.3q3.628.012,7.254,0c1.149,0,1.331-.215,1.367-1.4a6.552,6.552,0,0,1,.192-2.23c.724-1.75,4.571-3.156,5.881-1.053a5.859,5.859,0,0,0,.747.788,1,1,0,0,0,1.641.012c1.8-1.749,3.609-3.485,5.4-5.24a6.25,6.25,0,0,0,.62-.872c-.27-.367-.515-.693-.754-1.023-.483-.67-1.253-1.291-1.386-2.026a5.535,5.535,0,0,1,1.444-4.338c.792-1.04,1.889-.909,2.973-.9.091,0,.182,0,.273,0,.986-.029,1.231-.262,1.235-1.251q.014-3.673,0-7.345c0-1.053-.234-1.277-1.276-1.3m-.557,8.157c-2.874-.357-4.326,1.369-5.287,3.66-.948,2.259-1.2,4.479.825,6.08L474.2,55.8c-1.632-2.228-3.693-2.447-5.924-1.583-2.3.891-3.83,2.424-3.492,5.241h-6.426c.329-2.677-1.089-4.266-3.36-5.179s-4.4-.763-6.09,1.53l-4.294-4.773c2.035-1.614,1.81-3.854.832-6.141-.96-2.247-2.367-3.987-5.252-3.621V34.859c2.791.341,4.277-1.336,5.248-3.631s1.217-4.529-.845-6.176l4.3-4.766c1.684,2.279,3.8,2.471,6.08,1.552s3.713-2.482,3.369-5.185h6.4c-.292,2.614,1.065,4.239,3.342,5.151s4.4.816,6.075-1.462l4.285,4.758c-1.945,1.541-1.76,3.777-.789,6.068s2.4,4.034,5.29,3.668Z" transform="translate(-396.755 -0.468)" fill="#fff"/>
    </g>
  </g>
</svg>
