<svg xmlns="http://www.w3.org/2000/svg" xmlns:xlink="http://www.w3.org/1999/xlink" width="130" height="105.015" viewBox="0 0 130 105.015">
  <defs>
    <clipPath id="clip-path">
      <rect id="Rect치ngulo_106" data-name="Rect치ngulo 106" width="64.386" height="50.8" fill="none"/>
    </clipPath>
  </defs>
  <g id="pc-azul" transform="translate(81.695 142.08)">
    <g id="Grupo_85" data-name="Grupo 85" transform="translate(-81.695 -142.08)">
      <path id="Trazado_347" data-name="Trazado 347" d="M331.659,80.715l6.7,10.562H310.324l6.713-10.562Z" transform="translate(-259.345 8.914)" fill="#386193"/>
      <rect id="Rect치ngulo_105" data-name="Rect치ngulo 105" width="120.354" height="4.852" transform="translate(4.827 79.989)" fill="#386193"/>
      <path id="Trazado_348" data-name="Trazado 348" d="M390.769,6.558H270.409V8.487h-3.614V78.965h120.36q0-.966-.026-1.927h3.64Z" transform="translate(-265.588 -1.733)" fill="#4d73aa"/>
      <path id="Trazado_349" data-name="Trazado 349" d="M391.939,2.347H269.546a3.807,3.807,0,0,0-3.8,3.8V88.2a3.807,3.807,0,0,0,3.8,3.8h48.193l-6.7,10.548h-3.311a2.408,2.408,0,0,0,0,4.815h46.021a2.408,2.408,0,1,0,0-4.815h-3.31L343.745,92h48.194a3.807,3.807,0,0,0,3.8-3.8V6.151a3.807,3.807,0,0,0-3.8-3.8M270.557,7.162h120.37V77.528H270.557Zm74.182,95.384h-28L323.441,92h14.6Zm-74.182-20.2h120.37v4.841H270.557Z" transform="translate(-265.742 -2.347)" fill="#231f20"/>
      <g id="Grupo_76" data-name="Grupo 76" transform="translate(8.183 24.426)" opacity="0.5">
        <g id="Grupo_75" data-name="Grupo 75" transform="translate(0 0)">
          <g id="Grupo_74" data-name="Grupo 74" clip-path="url(#clip-path)">
            <path id="Trazado_350" data-name="Trazado 350" d="M336.3,52.749c-2.294.888-3.815,2.416-3.478,5.22h-6.4c.328-2.667-1.084-4.249-3.346-5.157s-4.383-.761-6.065,1.523l-4.277-4.752c2.027-1.608,1.8-3.839.829-6.117-.956-2.237-2.357-3.969-5.231-3.606V33.471c2.78.34,4.259-1.33,5.226-3.615.96-2.268,1.208-4.486-.809-6.125l-39.864,50.8h46.8l17.591-22.086a7.56,7.56,0,0,0-.972.3" transform="translate(-272.883 -23.731)" fill="#231f20"/>
          </g>
        </g>
      </g>
      <path id="Trazado_351" data-name="Trazado 351" d="M323.254,29.269a6.578,6.578,0,1,0,6.552,6.539,6.563,6.563,0,0,0-6.552-6.539m-.069,11.414a4.836,4.836,0,1,1,4.877-4.8,4.895,4.895,0,0,1-4.877,4.8" transform="translate(-258.422 1.523)" fill="#fff"/>
      <path id="Trazado_352" data-name="Trazado 352" d="M323.618,45.355a10.27,10.27,0,0,1-9.938-9.87c-.024-.657-.164-1.279-.977-1.207-.753.065-.779.683-.762,1.3a11.963,11.963,0,0,0,11.35,11.5c.091,0,.181,0,.27.013.6.047,1.146-.089,1.2-.779.054-.752-.5-.937-1.138-.957" transform="translate(-259.099 2.242)" fill="#fff"/>
      <path id="Trazado_353" data-name="Trazado 353" d="M327.935,25.857a11.223,11.223,0,0,0-5.286-1.3c-.558,0-.967.228-1,.8s.332.867.893.918c.3.026.6.044.9.073a10.2,10.2,0,0,1,9.241,9.207,2.689,2.689,0,0,0,.105.975,4.556,4.556,0,0,0,.853.869,7.993,7.993,0,0,0,.82-.9c.1-.144.017-.41.017-.857a11.855,11.855,0,0,0-6.541-9.783" transform="translate(-257.703 0.845)" fill="#fff"/>
      <path id="Trazado_354" data-name="Trazado 354" d="M347.19,33.027a4.464,4.464,0,0,0-.722,0,2.819,2.819,0,0,1-3.1-1.828c-.964-1.947-1.668-3.542.584-5.455.895-.762.823-1.163-.037-2-1.426-1.384-2.864-2.756-4.286-4.142-1.83-1.785-1.734-1.849-3.472.047a2.521,2.521,0,0,1-2.257.841c-2.434-.218-3.638-1.524-3.642-3.968,0-1.6-.1-1.7-1.679-1.7q-3.3,0-6.592,0c-1.445,0-1.56.142-1.6,1.615a5.249,5.249,0,0,1-.246,2.114,3.755,3.755,0,0,1-5.88.835c-.23-.237-1.736-1.226-2.257-.723Q309.25,21.332,306.493,24a.953.953,0,0,0-.042,1.5,9.223,9.223,0,0,1,1.046,1.117,3.281,3.281,0,0,1,.655,1.5,5.983,5.983,0,0,1-1.639,4.179c-.82.961-1.914.693-2.943.721-1.155.03-1.364.223-1.367,1.385,0,2.078,0,4.154,0,6.231,0,2.241,0,2.291,2.222,2.222a2.675,2.675,0,0,1,2.463,1.2,6.333,6.333,0,0,1,1.295,3.864c-.023,1.124-.976,1.6-1.585,2.311-.651.759-.674,1.117.056,1.83,1.6,1.554,3.2,3.1,4.8,4.644,1.32,1.277,1.38,1.261,2.66-.014a4.167,4.167,0,0,1,1.535-1.179,3.734,3.734,0,0,1,4.751,3.643c0,.211,0,.422,0,.633.021,1.046.246,1.287,1.275,1.29q3.613.012,7.225,0c1.145,0,1.326-.214,1.361-1.392a6.525,6.525,0,0,1,.191-2.221c.721-1.743,4.553-3.143,5.857-1.049a5.843,5.843,0,0,0,.744.785,1,1,0,0,0,1.634.011c1.791-1.742,3.595-3.471,5.38-5.218a6.229,6.229,0,0,0,.618-.869c-.269-.366-.513-.69-.751-1.019-.481-.667-1.248-1.286-1.381-2.018A5.513,5.513,0,0,1,344,43.774c.788-1.036,1.882-.905,2.961-.892.091,0,.181,0,.272,0,.982-.029,1.226-.261,1.23-1.246q.014-3.658,0-7.315c0-1.049-.233-1.272-1.271-1.295m-.555,8.123c-2.862-.355-4.309,1.364-5.265,3.645-.944,2.249-1.193,4.461.822,6.055l-4.272,4.782c-1.625-2.218-3.678-2.437-5.9-1.577-2.294.887-3.815,2.414-3.478,5.22h-6.4c.328-2.667-1.084-4.249-3.346-5.158s-4.383-.76-6.065,1.524l-4.277-4.753c2.027-1.608,1.8-3.839.829-6.116-.956-2.238-2.357-3.971-5.231-3.606V34.778c2.78.339,4.259-1.33,5.226-3.616s1.212-4.51-.841-6.151l4.285-4.746c1.678,2.27,3.786,2.461,6.055,1.546s3.7-2.472,3.355-5.163h6.375c-.291,2.6,1.061,4.222,3.329,5.13s4.383.812,6.05-1.456l4.267,4.738c-1.937,1.534-1.753,3.762-.786,6.044s2.387,4.018,5.269,3.653Z" transform="translate(-260.529 -0.527)" fill="#fff"/>
    </g>
  </g>
</svg>
