<svg xmlns="http://www.w3.org/2000/svg" xmlns:xlink="http://www.w3.org/1999/xlink" width="130" height="105.016" viewBox="0 0 130 105.016">
  <defs>
    <clipPath id="clip-path">
      <rect id="Rect치ngulo_104" data-name="Rect치ngulo 104" width="64.093" height="50.569" fill="none"/>
    </clipPath>
  </defs>
  <g id="pc-naranja" transform="translate(237.334 146.241)">
    <g id="Grupo_84" data-name="Grupo 84" transform="translate(-237.334 -146.241)">
      <path id="Trazado_339" data-name="Trazado 339" d="M195.34,80.715l6.673,10.514H174.1l6.682-10.514Z" transform="translate(-123.058 8.985)" fill="#e96247"/>
      <rect id="Rect치ngulo_103" data-name="Rect치ngulo 103" width="120.399" height="4.83" transform="translate(4.805 80.008)" fill="#e96247"/>
      <path id="Trazado_340" data-name="Trazado 340" d="M254.575,6.558H134.186v1.92h-3.614V78.636H250.96q0-.962-.026-1.919h3.642Z" transform="translate(-129.372 -1.755)" fill="#e96247"/>
      <path id="Trazado_341" data-name="Trazado 341" d="M255.717,2.347H133.323a3.807,3.807,0,0,0-3.8,3.8V88.2a3.807,3.807,0,0,0,3.8,3.8h48.194l-6.7,10.548h-3.311a2.408,2.408,0,1,0,0,4.815h46.022a2.408,2.408,0,0,0,0-4.815h-3.31L207.523,92h48.194a3.807,3.807,0,0,0,3.8-3.8V6.151a3.807,3.807,0,0,0-3.8-3.8M134.335,7.162H254.706V77.529H134.335Zm74.183,95.385h-28L187.22,92h14.6Zm-74.183-20.2H254.706v4.841H134.335Z" transform="translate(-129.52 -2.347)" fill="#231f20"/>
      <g id="Grupo_73" data-name="Grupo 73" transform="translate(8.146 24.531)" opacity="0.5">
        <g id="Grupo_72" data-name="Grupo 72">
          <g id="Grupo_71" data-name="Grupo 71" clip-path="url(#clip-path)">
            <path id="Trazado_342" data-name="Trazado 342" d="M199.787,52.617c-2.285.884-3.8,2.4-3.463,5.2h-6.368c.325-2.654-1.081-4.23-3.333-5.133s-4.363-.757-6.038,1.516l-4.256-4.73c2.017-1.6,1.793-3.821.824-6.089-.951-2.227-2.345-3.951-5.207-3.59V33.427c2.768.339,4.241-1.324,5.2-3.6.956-2.257,1.2-4.466-.8-6.1L136.66,74.3h46.582l17.511-21.986a7.453,7.453,0,0,0-.966.3" transform="translate(-136.661 -23.731)" fill="#231f20"/>
          </g>
        </g>
      </g>
      <path id="Trazado_343" data-name="Trazado 343" d="M187,29.269a6.548,6.548,0,1,0,6.522,6.509A6.533,6.533,0,0,0,187,29.269m-.068,11.362a4.814,4.814,0,1,1,4.855-4.774,4.873,4.873,0,0,1-4.855,4.774" transform="translate(-122.169 1.543)" fill="#fff"/>
      <path id="Trazado_344" data-name="Trazado 344" d="M187.342,45.3a10.223,10.223,0,0,1-9.893-9.825c-.024-.654-.163-1.273-.973-1.2-.749.065-.776.68-.759,1.291a11.908,11.908,0,0,0,11.3,11.45c.09,0,.18,0,.269.013.6.047,1.141-.089,1.19-.776.054-.748-.5-.933-1.133-.952" transform="translate(-122.85 2.266)" fill="#fff"/>
      <path id="Trazado_345" data-name="Trazado 345" d="M191.684,25.851a11.172,11.172,0,0,0-5.262-1.3c-.556,0-.963.227-1,.8s.331.864.889.914c.3.026.6.043.9.073a10.156,10.156,0,0,1,9.2,9.165,2.677,2.677,0,0,0,.1.971,4.534,4.534,0,0,0,.849.865,7.962,7.962,0,0,0,.817-.9c.1-.144.017-.408.017-.853a11.8,11.8,0,0,0-6.511-9.738" transform="translate(-121.448 0.861)" fill="#fff"/>
      <path id="Trazado_346" data-name="Trazado 346" d="M210.762,32.944a4.443,4.443,0,0,0-.719,0,2.807,2.807,0,0,1-3.083-1.819c-.959-1.938-1.661-3.526.582-5.43.891-.759.819-1.158-.036-1.99-1.419-1.378-2.851-2.743-4.266-4.124-1.822-1.777-1.726-1.841-3.456.047a2.509,2.509,0,0,1-2.247.837c-2.423-.217-3.622-1.517-3.625-3.95,0-1.591-.1-1.694-1.671-1.694q-3.282,0-6.562,0c-1.438,0-1.552.141-1.588,1.607a5.224,5.224,0,0,1-.245,2.1,3.738,3.738,0,0,1-5.853.832c-.229-.236-1.728-1.221-2.247-.72q-2.75,2.654-5.494,5.312a.949.949,0,0,0-.042,1.494,9.175,9.175,0,0,1,1.041,1.112,3.267,3.267,0,0,1,.652,1.5,5.956,5.956,0,0,1-1.631,4.16c-.817.957-1.9.69-2.929.717-1.15.03-1.357.222-1.361,1.379,0,2.068,0,4.135,0,6.2,0,2.231,0,2.28,2.212,2.212a2.663,2.663,0,0,1,2.451,1.192,6.3,6.3,0,0,1,1.289,3.846c-.023,1.119-.972,1.595-1.578,2.3-.648.755-.671,1.112.056,1.822,1.588,1.547,3.188,3.082,4.783,4.623,1.314,1.271,1.373,1.255,2.648-.014a4.148,4.148,0,0,1,1.529-1.174,3.717,3.717,0,0,1,4.729,3.626c0,.21,0,.42,0,.63.021,1.041.245,1.281,1.27,1.284q3.6.012,7.192,0c1.14,0,1.32-.213,1.355-1.386a6.5,6.5,0,0,1,.191-2.211c.717-1.735,4.532-3.129,5.83-1.044a5.812,5.812,0,0,0,.74.781,1,1,0,0,0,1.627.011c1.783-1.734,3.578-3.455,5.356-5.195a6.2,6.2,0,0,0,.615-.865c-.268-.364-.511-.687-.747-1.014-.479-.664-1.242-1.28-1.375-2.009a5.488,5.488,0,0,1,1.432-4.3c.785-1.031,1.873-.9,2.948-.887.09,0,.18,0,.27,0,.978-.029,1.221-.26,1.224-1.24q.014-3.641,0-7.282c0-1.044-.232-1.266-1.265-1.289m-.552,8.086c-2.849-.354-4.289,1.357-5.241,3.629-.94,2.239-1.187,4.441.818,6.027l-4.252,4.76c-1.617-2.208-3.662-2.426-5.873-1.57-2.284.883-3.8,2.4-3.462,5.2h-6.371c.326-2.654-1.079-4.23-3.331-5.134s-4.363-.756-6.038,1.517L172.2,50.724c2.018-1.6,1.794-3.821.825-6.088-.951-2.228-2.346-3.952-5.207-3.59V34.687c2.767.338,4.24-1.324,5.2-3.6s1.207-4.49-.837-6.123l4.265-4.725c1.67,2.26,3.769,2.45,6.027,1.539s3.681-2.46,3.34-5.14h6.346c-.29,2.592,1.056,4.2,3.314,5.107s4.363.809,6.023-1.45l4.248,4.717c-1.928,1.527-1.745,3.745-.783,6.016s2.376,4,5.245,3.637Z" transform="translate(-124.202 -0.592)" fill="#fff"/>
    </g>
  </g>
</svg>
