<svg id="personaje2" xmlns="http://www.w3.org/2000/svg" xmlns:xlink="http://www.w3.org/1999/xlink" width="183.068" height="359.233" viewBox="0 0 183.068 359.233">
  <defs>
    <clipPath id="clip-path">
      <rect id="Rectángulo_93" data-name="Rectángulo 93" width="183.068" height="359.233" fill="none"/>
    </clipPath>
  </defs>
  <g id="Grupo_98" data-name="Grupo 98" clip-path="url(#clip-path)">
    <path id="Trazado_374" data-name="Trazado 374" d="M134.258,289.8H77.67l2.458-48.513-.082-.622C77.1,248.849,71.464,265.4,64.626,289.8H14.734c12.12-67.031,27.454-127.9,27.454-127.9l50.206-2.476-1.039,7.729,29.178-7.729s26.362,35.635,24.144,72.832c-.408,6.833-4.687,29.468-10.419,57.543" transform="translate(17.109 69.433)" fill="#1a2e35"/>
    <path id="Trazado_375" data-name="Trazado 375" d="M81.328,14.966A24.934,24.934,0,0,0,72.066,36.1c.3,3.877,1.371,8.3-1.151,11.264-2.5,2.931-7.4,2.847-9.8,5.863-2.818,3.55-.458,8.834-1.467,13.253a8.974,8.974,0,0,1-9.543,6.668,35.006,35.006,0,0,0,17.363,7.534l4.858-6.236c-1.842,2.183-1.352,5.663.432,7.894s4.536,3.447,7.258,4.311a44.437,44.437,0,0,0,38.946-6.331" transform="translate(-7.826 6.518)" fill="#1a2e35"/>
    <path id="Trazado_376" data-name="Trazado 376" d="M105.258,55.75c-.972-2.973-2.6-5.729-3.256-8.788-1.4-6.573,1.8-13.973-1.391-19.892-2.27-4.212-7.107-6.275-11.681-7.683s-9.48-2.6-12.891-5.959c-2.5-2.462-3.923-5.853-6.417-8.323C66.07,1.585,60.826.392,55.835.086,50.709-.228,45.409.264,40.8,2.526s-8.438,6.51-9.261,11.579c-.4,2.472-.1,5.063-.876,7.443-.857,2.617-2.913,4.653-4.179,7.1a13.168,13.168,0,0,0,3.293,15.788L64.968,89.89c7.393,2.792,25.307-.586,31.02-6.045s11.724-20.584,9.271-28.1" transform="translate(41.156 0)" fill="#1a2e35"/>
    <path id="Trazado_377" data-name="Trazado 377" d="M40.928,33.248c1.451-10.32,9.3-22.517,19.549-20.63l31.64,10.636a6.1,6.1,0,0,1,4.967,6.585l-9.324,74.7c.052.016,2.331,1.925,3.857,1.341a.429.429,0,0,1,.511.642c-3.8,5.517-21.737,29.638-40.223,22.273-4.13-1.645.432-14.657-.052-19.479L52.4,97c.409-6.288.607-8.863.6-8.805,0,0-13.08-3.217-14.5-20.716-.7-8.7.81-22.763,2.422-34.23" transform="translate(30.934 5.411)" fill="#ffc09d"/>
    <path id="Trazado_378" data-name="Trazado 378" d="M72.87,38.555a2.225,2.225,0,0,0,1.965,2.4,2.127,2.127,0,0,0,2.439-1.823,2.223,2.223,0,0,0-1.962-2.4,2.129,2.129,0,0,0-2.442,1.825" transform="translate(1.194 15.988)" fill="#1a2e35"/>
    <path id="Trazado_379" data-name="Trazado 379" d="M57.86,39.5a2.224,2.224,0,0,0,1.965,2.4,2.127,2.127,0,0,0,2.439-1.823,2.223,2.223,0,0,0-1.962-2.4A2.13,2.13,0,0,0,57.86,39.5" transform="translate(37.751 16.398)" fill="#1a2e35"/>
    <path id="Trazado_380" data-name="Trazado 380" d="M69.88,33.607c.241.406,2.3-.9,4.886-.523,2.585.333,4.239,2.148,4.576,1.82.164-.144-.037-.843-.752-1.659A5.969,5.969,0,0,0,75,31.339a5.906,5.906,0,0,0-3.959.87c-.906.594-1.278,1.214-1.157,1.4" transform="translate(3.39 13.626)" fill="#1a2e35"/>
    <path id="Trazado_381" data-name="Trazado 381" d="M53.25,35.059c.3.373,2.336-1.1,5.112-.98,2.778.075,4.747,1.688,5.065,1.335.155-.155-.136-.818-1-1.547A6.738,6.738,0,0,0,58.4,32.35a6.554,6.554,0,0,0-4.09,1.232c-.884.669-1.206,1.309-1.057,1.477" transform="translate(43.21 14.087)" fill="#1a2e35"/>
    <path id="Trazado_382" data-name="Trazado 382" d="M70.511,51.634c.022-.135-1.441-.505-3.821-1-.6-.109-1.171-.274-1.242-.7a3.105,3.105,0,0,1,.544-1.774l2.159-4.5c3.009-6.412,5.237-11.7,4.978-11.823s-2.91,4.981-5.919,11.394c-.726,1.583-1.423,3.091-2.084,4.535a3.527,3.527,0,0,0-.5,2.366,1.534,1.534,0,0,0,.933.968,4.167,4.167,0,0,0,1.024.224c2.409.316,3.907.442,3.928.307" transform="translate(17.244 13.866)" fill="#1a2e35"/>
    <path id="Trazado_383" data-name="Trazado 383" d="M52.9,66.54a44.1,44.1,0,0,0,23.626-4.4S69.776,73.828,52.6,70.881Z" transform="translate(31.034 27.064)" fill="#ff9b6c"/>
    <path id="Trazado_384" data-name="Trazado 384" d="M67.726,51.01A3.764,3.764,0,0,0,66.5,49.554a3.012,3.012,0,0,0-2.064-.208,4.821,4.821,0,0,0-2.7,1.375,2.9,2.9,0,0,0-.682,2.855c.267,1,1.756,1.545,2.773,1.724a4.561,4.561,0,0,0,2.973-.626,2.622,2.622,0,0,0,1.522-1.97,3.2,3.2,0,0,0-.594-1.7" transform="translate(27.305 21.454)" fill="#ff9b6c"/>
    <path id="Trazado_385" data-name="Trazado 385" d="M69.55,48.139c-.386-.052-.59,2.537-2.949,4.2s-5.092,1.171-5.141,1.532c-.049.159.577.55,1.74.672a6.476,6.476,0,0,0,4.279-1.133,5.63,5.63,0,0,0,2.305-3.539c.182-1.074-.057-1.738-.235-1.737" transform="translate(24.993 20.965)" fill="#1a2e35"/>
    <path id="Trazado_386" data-name="Trazado 386" d="M52.665,28.176c.185.666,2.591.543,5.363,1.1,2.785.5,4.978,1.489,5.395.936.187-.266-.159-.906-1.024-1.6a9.517,9.517,0,0,0-8.2-1.547c-1.059.336-1.615.805-1.537,1.121" transform="translate(44.006 11.633)" fill="#1a2e35"/>
    <path id="Trazado_387" data-name="Trazado 387" d="M69.026,27.467c.438.579,2.36.161,4.619.307,2.265.079,4.144.686,4.628.152.214-.26-.046-.825-.843-1.4a7.1,7.1,0,0,0-3.685-1.176,7,7,0,0,0-3.765.807c-.841.5-1.146,1.032-.955,1.313" transform="translate(5.714 11.035)" fill="#1a2e35"/>
    <path id="Trazado_388" data-name="Trazado 388" d="M80.394,25.979c-1.6-2.456-4.464-3.721-7.2-4.776a159.251,159.251,0,0,0-36.647-9.331c-1.56,2.571-.118,6.069,2.238,7.944s5.379,2.611,8.2,3.663,5.706,2.679,6.866,5.454c1.235,2.951.192,6.445,1.278,9.456,1.865,5.179,9.091,6.849,10.929,12.038,1.388,3.925-.884,8.1-1.453,12.226A14.879,14.879,0,0,0,79.211,79.588Q80.5,57.3,81.784,35.01c.179-3.1.3-6.431-1.39-9.031" transform="translate(49.653 5.17)" fill="#1a2e35"/>
    <path id="Trazado_389" data-name="Trazado 389" d="M60.231,60.037c-2.347-2.1-5.288-3.923-6.224-6.932-1.362-4.383,2.158-9.533-.109-13.525-2.067-3.64-8.159-3.457-10.082-7.176-1.5-2.9.223-5.475-.347-8.026s-4.19-4.789-6.787-4.483L16.389,49.305c-1.885,9.866-3.781,15.117-1.662,20.89,1.161,3.165,2.676,6.252,3.131,9.594s-.4,7.127-3.129,9.1c12.133.95,23.5-5.4,34.012-11.54l11.121-6.5a8.114,8.114,0,0,0,3.055-2.545c1.631-2.7-.337-6.168-2.684-8.271" transform="translate(99.753 8.652)" fill="#1a2e35"/>
    <path id="Trazado_390" data-name="Trazado 390" d="M87.964,81.064a5.771,5.771,0,0,1-1.3.248,11.025,11.025,0,0,1-3.778-.267,11.708,11.708,0,0,1-5.273-2.838,11.5,11.5,0,0,1-3.47-7.093,11.855,11.855,0,0,1,.4-4.653,18.906,18.906,0,0,1,2.252-4.51,17.854,17.854,0,0,0,2.324-4.678,6.028,6.028,0,0,0-.65-5.145c-1.1-1.479-3.154-1.84-5.054-2.607A5.567,5.567,0,0,1,70.828,47.6a5.425,5.425,0,0,1-.834-3.181c.026-2.222.972-4.253,1.38-6.321a6.892,6.892,0,0,0,.019-3.1,4.324,4.324,0,0,0-1.75-2.46c-1.753-1.25-3.988-1.451-6.138-1.641a13.153,13.153,0,0,1-6.253-1.839,11.784,11.784,0,0,1-4.281-4.64,19.414,19.414,0,0,1-1.579-5.815,27.22,27.22,0,0,0-1.19-5.455,12.112,12.112,0,0,0-2.854-4.3A13.621,13.621,0,0,0,31.439,6.618a16.642,16.642,0,0,0-4.674,3.559,22.008,22.008,0,0,0-2.888,4.14A1.153,1.153,0,0,1,23.992,14c.095-.2.21-.512.421-.89a15.92,15.92,0,0,1,2.149-3.119,16.523,16.523,0,0,1,4.7-3.727,14.231,14.231,0,0,1,7.736-1.713A14.462,14.462,0,0,1,47.755,8.43a12.7,12.7,0,0,1,3.028,4.5,27.474,27.474,0,0,1,1.252,5.574,18.892,18.892,0,0,0,1.539,5.61,11.116,11.116,0,0,0,4.042,4.357A12.477,12.477,0,0,0,63.57,30.2c2.129.191,4.52.372,6.483,1.764a5.043,5.043,0,0,1,2.023,2.855,7.581,7.581,0,0,1-.011,3.417c-.446,2.189-1.359,4.154-1.378,6.2a4.766,4.766,0,0,0,.708,2.783A4.894,4.894,0,0,0,73.675,48.9c.907.383,1.882.646,2.821,1.045a5.749,5.749,0,0,1,2.495,1.793,6.639,6.639,0,0,1,.732,5.7,18.289,18.289,0,0,1-2.429,4.829,18.617,18.617,0,0,0-2.228,4.358,11.387,11.387,0,0,0-.422,4.441,11.144,11.144,0,0,0,3.247,6.862,11.6,11.6,0,0,0,5.066,2.855,13.129,13.129,0,0,0,5.007.286" transform="translate(60.831 1.968)" fill="#375a64"/>
    <path id="Trazado_391" data-name="Trazado 391" d="M64.668,60.154a2.574,2.574,0,0,1,.4.992,4.353,4.353,0,0,1-.521,3.009,4.614,4.614,0,0,1-1.553,1.632,4.822,4.822,0,0,1-2.591.69A6.061,6.061,0,0,1,55.089,63.1a8.118,8.118,0,0,1-.866-3.7,11.335,11.335,0,0,1,.854-4.009c.963-2.626,2.71-5.184,2.748-8.253a5.605,5.605,0,0,0-1.407-4.172,6.132,6.132,0,0,0-4.411-1.377c-1.662-.056-3.474.156-5.254-.544a4.569,4.569,0,0,1-2.159-1.82,6.482,6.482,0,0,1-.887-2.677,21.461,21.461,0,0,1,.438-5.395,11.85,11.85,0,0,0-.28-5,12.627,12.627,0,0,0-5.647-7.412c-2.63-1.586-5.673-1.757-8.415-1.921a24.818,24.818,0,0,1-7.68-1.212,15.97,15.97,0,0,1-5.436-3.421,15.863,15.863,0,0,1-2.979-3.823,11.506,11.506,0,0,1-1.444-3.851,22.223,22.223,0,0,0,1.682,3.714A16.159,16.159,0,0,0,16.955,11.9a15.811,15.811,0,0,0,5.339,3.24,24.668,24.668,0,0,0,7.541,1.1c2.74.144,5.9.277,8.712,1.945a13.239,13.239,0,0,1,5.985,7.786,12.539,12.539,0,0,1,.312,5.278,21.1,21.1,0,0,0-.434,5.218,4.522,4.522,0,0,0,2.614,3.93c1.532.62,3.295.451,5,.5a6.766,6.766,0,0,1,4.871,1.591,6.241,6.241,0,0,1,1.583,4.665,11.907,11.907,0,0,1-1.111,4.52c-.587,1.375-1.243,2.651-1.741,3.928a10.8,10.8,0,0,0-.856,3.8,7.636,7.636,0,0,0,.765,3.468,5.641,5.641,0,0,0,4.876,3.207,4.5,4.5,0,0,0,2.41-.584,4.373,4.373,0,0,0,1.489-1.483,4.329,4.329,0,0,0,.619-2.845,10.335,10.335,0,0,0-.26-1.016" transform="translate(100.313 1.968)" fill="#1a2e35"/>
    <path id="Trazado_392" data-name="Trazado 392" d="M126.9,62.987l4.75,17.528,1.86,3.009s1.173,9.651,1.157,11.7-3.335,12.548-3.335,12.548l5.327,9.863-16.8,5.263s-3.9-8.949-5.072-10.008-1.889-3.925-2.061-5.843-1.919-13.33-1.919-13.33-6.49-12.882-3.415-13.32a10.508,10.508,0,0,1,2.277.187s3.864,8.449,5.024,8.693l1.718-.86s-2.631-12.716-2.66-15.064.56-3.966,2.379-4.124c0,0,1.316.632,1.4,1.233s2.617,14.764,3.405,14.549.5-1.5.5-1.5-3.475-17.2-3.2-18.158A2.667,2.667,0,0,1,121.1,63.2l2.89,9.509s-1.128-7.92.218-9.236a2.2,2.2,0,0,1,2.692-.487" transform="translate(-106.564 27.319)" fill="#ffc09d"/>
    <path id="Trazado_393" data-name="Trazado 393" d="M109.787,97.271c.139.01.136-1.457.834-3.754a14.687,14.687,0,0,1,5.591-7.575l.235-.161-.043-.261c-.208-1.26-.425-2.581-.647-3.942l-.014-.083-.049-.079c-.261-.418-.527-.912-.771-1.4a15.205,15.205,0,0,1-1.579-5.066,5.43,5.43,0,0,1,.178-2.313,1.662,1.662,0,0,1,1.325-1.189l-.271-.121c1.845,2,3.392,3.646,4.492,4.78a10.667,10.667,0,0,0,1.812,1.7,10.886,10.886,0,0,0-1.5-1.985c-1.006-1.217-2.475-2.934-4.262-4.986l-.112-.128-.161.006a2.378,2.378,0,0,0-2.06,1.639,6.1,6.1,0,0,0-.268,2.669,15.482,15.482,0,0,0,1.629,5.373c.26.52.525,1.013.823,1.486l-.063-.161c.235,1.358.464,2.677.682,3.936l.191-.421a14.431,14.431,0,0,0-5.657,8.136,12.512,12.512,0,0,0-.4,2.861,2.922,2.922,0,0,0,.067,1.036" transform="translate(-95.318 30.795)" fill="#ff9b6c"/>
    <path id="Trazado_394" data-name="Trazado 394" d="M126.577,79.555c-.059-.218-2.6.353-5.354,1.944s-4.536,3.483-4.378,3.643c.168.188,2.139-1.372,4.809-2.894,2.66-1.537,5-2.453,4.924-2.693" transform="translate(-111.229 34.628)" fill="#ff9b6c"/>
    <path id="Trazado_395" data-name="Trazado 395" d="M86.724,92.621a5.339,5.339,0,0,0-.141,1.1c-.06.814-.138,1.869-.235,3.177-.211,2.76-.356,6.763-.452,11.71-.184,9.9.278,23.571,1.268,38.627S89,175.923,89.191,185.8c.111,4.938.148,8.938.112,11.7,0,1.311,0,2.367,0,3.184a5.549,5.549,0,0,0,.059,1.113,5.277,5.277,0,0,0,.113-1.107c.042-.817.095-1.872.159-3.183.139-2.763.194-6.768.162-11.715-.033-9.9-.791-23.554-1.777-38.61S86.477,118.5,86.5,108.616c.017-4.938.07-8.936.178-11.7.032-1.311.056-2.367.075-3.183a5.37,5.37,0,0,0-.033-1.114" transform="translate(-29.988 40.338)" fill="#1a2e35"/>
    <path id="Trazado_396" data-name="Trazado 396" d="M102.346,106.591l6.335,23.387L120.9,88.028a14.85,14.85,0,0,1,9.651-9.839L140.4,75.96,129.5,159.874l-2.44,6.3a16.781,16.781,0,0,1-8.548,8.556c-10.2,4.617-23.079-.491-25.77-11.361L78.654,113.114Z" transform="translate(-70.238 33.082)" fill="#375a64"/>
    <path id="Trazado_397" data-name="Trazado 397" d="M109.048,105.193l-7.628,95.486-62.535.521L33,207.191l1.672-76.773L56.346,75.736c2.578,4.891,7.516,6.549,13.474,6.092,4.058-.312,11.447-1.065,14.751-3.442l8.51-8Z" transform="translate(26.653 30.656)" fill="#fff"/>
    <path id="Trazado_398" data-name="Trazado 398" d="M31.984,67.236l6.588,7.791,32.9,13L51.26,185.749l15.39,37.823A94.455,94.455,0,0,1,70.681,235.8l9.482,37.1s-38.228,15.278-46.63,10.429S16.08,227.048,12.969,215.846s-3.418-46.634-1.24-64.37,5.911-43.874,7.779-52.9S31.984,67.236,31.984,67.236" transform="translate(88.087 29.282)" fill="#375a64"/>
    <path id="Trazado_399" data-name="Trazado 399" d="M109.732,69.21l-4.753,7.367L85.152,81.588s-5.217,26.116-5.217,33.272,2.951,86.488,2.951,90.222-14.314,54.452-13.069,57.564S86,267.937,86,267.937s5.6-43.874,5.6-58.809.623-51.651,3.734-69.7,14.315-62.854,14.315-62.854Z" transform="translate(-26.778 30.142)" fill="#375a64"/>
    <path id="Trazado_400" data-name="Trazado 400" d="M75.419,215.233a1.358,1.358,0,0,0,.029-.372c0-.293,0-.652,0-1.091q-.024-1.535-.06-4.19c-.083-3.708-.2-8.953-.35-15.406-.3-13.007-.83-30.978-1.153-50.822-.023-2.481-.057-4.932-.036-7.344-.014-2.39.251-4.757.431-7.1.375-4.667.746-9.164,1.183-13.439s.923-8.329,1.565-12.086a51.391,51.391,0,0,1,2.9-10.155,131.635,131.635,0,0,1,6.519-13.919q1.268-2.328,2-3.678c.211-.385.382-.7.523-.956a1.348,1.348,0,0,0,.158-.339,1.306,1.306,0,0,0-.228.3c-.158.247-.352.547-.59.917-.507.813-1.24,2.023-2.136,3.609a118.065,118.065,0,0,0-6.771,13.863,51.245,51.245,0,0,0-3.027,10.244c-.675,3.781-1.189,7.845-1.644,12.127s-.846,8.784-1.23,13.449c-.184,2.327-.455,4.7-.446,7.152-.024,2.425.009,4.879.033,7.363.323,19.858.937,37.823,1.385,50.829.253,6.45.458,11.692.6,15.4q.133,2.649.21,4.186c.03.438.055.8.075,1.087a1.289,1.289,0,0,0,.053.37" transform="translate(-10.934 32.377)" fill="#1a2e35"/>
    <path id="Trazado_401" data-name="Trazado 401" d="M39.225,185.464A5.994,5.994,0,0,0,39.4,184.3c.082-.768.179-1.9.274-3.365.181-2.927.359-7.172.273-12.419-.04-2.623-.151-5.5-.349-8.574a38.782,38.782,0,0,1,1.167-9.631,162.888,162.888,0,0,1,7.157-21.283c2.994-7.4,6.1-14.352,8.971-20.653a85.849,85.849,0,0,0,3.831-9.094,79.407,79.407,0,0,0,2.028-8.355c1-5.155,1.54-9.365,1.895-12.275.171-1.456.287-2.588.35-3.358a6.212,6.212,0,0,0,.056-1.177,6.861,6.861,0,0,0-.214,1.158c-.126.838-.291,1.947-.5,3.335-.448,2.893-1.074,7.086-2.139,12.2A82.338,82.338,0,0,1,60.1,99.078a88.022,88.022,0,0,1-3.869,8.989c-2.911,6.286-6.041,13.24-9.042,20.663a157.021,157.021,0,0,0-7.135,21.412,38.95,38.95,0,0,0-1.111,9.843c.227,3.068.369,5.927.445,8.541.158,5.228.066,9.464-.02,12.39q-.078,2.1-.125,3.369a7.136,7.136,0,0,0-.014,1.179" transform="translate(62.142 32.278)" fill="#1a2e35"/>
    <path id="Trazado_402" data-name="Trazado 402" d="M88.963,93.424a4.919,4.919,0,0,0-.129,1.019c-.056.754-.129,1.728-.218,2.937-.2,2.549-.33,6.247-.418,10.818-.169,9.144.257,21.78,1.171,35.69s1.7,26.5,1.873,35.632c.1,4.562.136,8.257.1,10.809,0,1.212,0,2.186,0,2.941A5.107,5.107,0,0,0,91.4,194.3a4.981,4.981,0,0,0,.106-1.022c.037-.754.086-1.73.146-2.94.128-2.554.179-6.255.149-10.825-.03-9.146-.731-21.764-1.642-35.673s-1.427-26.508-1.4-35.637c.016-4.562.065-8.257.165-10.808.027-1.212.05-2.188.067-2.941a4.991,4.991,0,0,0-.03-1.029" transform="translate(-35.302 40.688)" fill="#1a2e35"/>
    <path id="Trazado_403" data-name="Trazado 403" d="M18.674,133.335a10.176,10.176,0,0,0,.131-2.047c.019-1.315.1-3.218.263-5.56a95.014,95.014,0,0,1,9.416-35.212c1.026-2.112,1.906-3.8,2.545-4.95a10.084,10.084,0,0,0,.909-1.839,10.24,10.24,0,0,0-1.176,1.682c-.723,1.105-1.682,2.762-2.782,4.853A84.691,84.691,0,0,0,18.506,125.7c-.092,2.361-.088,4.275-.011,5.594a10.122,10.122,0,0,0,.179,2.044" transform="translate(124.661 36.465)" fill="#1a2e35"/>
    <path id="Trazado_404" data-name="Trazado 404" d="M27.653,204.59s-7.206,5.436-8.785,7.582-5.485,9.807-8.4,12.04a2.2,2.2,0,0,0,3.483,1.493,24.856,24.856,0,0,0,7.6-6.6c1.23-1.866,2.512-.771,2.584.86S22.8,232.627,22.8,232.627,19.354,244.9,20.286,246.27a2.236,2.236,0,0,0,3.5.162c.469-.642,4.351-10.9,4.351-10.9l1-5.576s-2,17.663-.883,19.046a1.93,1.93,0,0,0,3.1.144c.772-.7,1.578-8.508,1.578-8.508l1.814-10.422-.329,19.865s.21,1.881,1.685,1.949,2.465-2.106,2.465-2.106L40.7,229.462s-.686,11.379.076,11.974c1.022.8,1.957.534,2.293-.339.685-1.776,1.682-12.008,1.682-12.008l.939-19.483,1-9.388-18.23-1.191Z" transform="translate(121.346 86.679)" fill="#ffc09d"/>
    <path id="Trazado_405" data-name="Trazado 405" d="M16.684,81.716s8.484,10.567,10.89,20.719c4.065,17.15,13.165,72.4,12.232,83.362s-8.648,73.9-8.648,73.9L3.109,253.326l5.066-71.82-7.95-46.46" transform="translate(142.872 35.589)" fill="#375a64"/>
    <path id="Trazado_406" data-name="Trazado 406" d="M0,135.045s.022.279.1.818c.088.567.212,1.361.373,2.394.347,2.132.854,5.23,1.506,9.216,1.348,8.039,3.295,19.654,5.712,34.075l0-.062C6.3,200.839,4.522,225.549,2.526,253.3l-.022.306.3.069,28.047,6.382.4.092.047-.409c.639-5.455,1.316-11.237,2-17.093,1.322-11.326,2.613-22.383,3.86-33.063q.932-8.008,1.83-15.722.448-3.852.886-7.623a51.464,51.464,0,0,0-.134-7.542c-.79-9.869-2.156-19.163-3.434-27.856-1.308-8.691-2.65-16.764-3.949-24.122s-2.57-14-3.811-19.8a60.484,60.484,0,0,0-2.086-8.022,50.634,50.634,0,0,0-2.861-6.355,72.533,72.533,0,0,0-5.092-8.171c-.646-.89-1.151-1.56-1.5-2s-.553-.65-.553-.65.161.24.491.7c.342.482.821,1.16,1.443,2.041a78.619,78.619,0,0,1,4.958,8.218,51.5,51.5,0,0,1,2.782,6.341A60.541,60.541,0,0,1,28.145,107c1.2,5.807,2.43,12.45,3.7,19.81s2.577,15.435,3.856,24.121c1.25,8.688,2.594,17.987,3.362,27.815a51.149,51.149,0,0,1,.121,7.435q-.446,3.766-.9,7.618-.9,7.7-1.848,15.715c-1.252,10.674-2.547,21.728-3.874,33.048-.683,5.853-1.359,11.635-2,17.087l.451-.317L2.964,252.974l.278.376c1.919-27.756,3.629-52.471,4.967-71.827l0-.032-.006-.03c-2.515-14.405-4.541-26.006-5.943-34.036C1.553,143.449,1,140.358.62,138.232c-.191-1.028-.339-1.817-.444-2.382-.1-.534-.177-.805-.177-.805" transform="translate(143.098 35.589)" fill="#1a2e35"/>
    <path id="Trazado_407" data-name="Trazado 407" d="M72.038,141.605a13,13,0,0,1-2.112-3.348,55.907,55.907,0,0,1-2.69-9.278,63.332,63.332,0,0,1-1.169-9.608,33.93,33.93,0,0,0-.189-4.031,16.013,16.013,0,0,0-.339,4.041,48.016,48.016,0,0,0,.965,9.746,43.674,43.674,0,0,0,2.943,9.351c1.1,2.333,2.561,3.221,2.591,3.127" transform="translate(16.945 50.233)" fill="#1a2e35"/>
  </g>
</svg>
