<svg id="persona" xmlns="http://www.w3.org/2000/svg" xmlns:xlink="http://www.w3.org/1999/xlink" width="136.289" height="335.642" viewBox="0 0 136.289 335.642">
  <defs>
    <clipPath id="clip-path">
      <rect id="Rectángulo_83" data-name="Rectángulo 83" width="136.289" height="335.642" fill="none"/>
    </clipPath>
  </defs>
  <g id="Grupo_53" data-name="Grupo 53" transform="translate(0)" clip-path="url(#clip-path)">
    <path id="Trazado_217" data-name="Trazado 217" d="M70.721,16.447c-.366-6.457-4.336-10.428-9.9-13.725A20.175,20.175,0,0,0,42.2,1.877c-3.9,1.859-7.323,5.035-11.612,5.588-7.065.911-13.751-5.634-20.683-4a9.483,9.483,0,0,0-7.072,9.285,9.483,9.483,0,0,0,7.746,8.731C5.958,22.153,3.339,28,5.05,32.354s6.564,6.873,11.238,6.974,9.164-1.805,13.206-4.152,7.817-5.168,12.032-7.186S50.593,24.794,55.11,26c6.115,1.627,10.447,7.4,12.042,13.524s.908,12.591-.042,18.847-2.155,12.566-1.561,18.867a2.346,2.346,0,0,0,.884,1.944c.94.519,2.017-.369,2.709-1.189A92.882,92.882,0,0,0,86.6,46.367c2.134-6.706,3.311-13.234.749-19.79s-11.192-12.8-16.626-10.131" transform="translate(44.424 0)" fill="#1a2e35"/>
    <path id="Trazado_218" data-name="Trazado 218" d="M80.8,47,70.457,110.782c-1.93,11.911-9.671,23.42-28.363,19.51-15.962-4.616-14.776-16.1-12.7-30.256h0S11.839,95.469,13.411,77.613c.76-8.63,3.772-26.275,6.683-42.207A33.389,33.389,0,0,1,56.288,8.2l1.721.173C76.455,11.327,84.254,28.641,80.8,47" transform="translate(40.306 0.65)" fill="#ffc09d"/>
    <path id="Trazado_219" data-name="Trazado 219" d="M40.207,93.491a43.3,43.3,0,0,0,23.911-4.53s-7,13.266-24.636,9.871Z" transform="translate(29.495 7.195)" fill="#ff9b6c"/>
    <path id="Trazado_220" data-name="Trazado 220" d="M59.939,50.039a2.559,2.559,0,0,0,2.2,2.817,2.451,2.451,0,0,0,2.857-2.033A2.561,2.561,0,0,0,62.8,48a2.451,2.451,0,0,0-2.859,2.034" transform="translate(6.511 3.88)" fill="#1a2e35"/>
    <path id="Trazado_221" data-name="Trazado 221" d="M58.182,41.976c.282.364,2.355-.87,5.1-.587,2.741.243,4.611,1.855,4.942,1.55.161-.135-.1-.766-.912-1.492A7.016,7.016,0,0,0,63.393,39.8a6.739,6.739,0,0,0-4.1.882c-.908.562-1.254,1.134-1.113,1.3" transform="translate(5.169 3.216)" fill="#1a2e35"/>
    <path id="Trazado_222" data-name="Trazado 222" d="M36.183,51.556a2.559,2.559,0,0,0,2.2,2.817,2.447,2.447,0,0,0,2.856-2.032,2.561,2.561,0,0,0-2.2-2.818,2.45,2.45,0,0,0-2.858,2.033" transform="translate(55.946 4.003)" fill="#1a2e35"/>
    <path id="Trazado_223" data-name="Trazado 223" d="M33.3,44.955c.283.364,2.358-.869,5.1-.587,2.74.243,4.611,1.856,4.942,1.55.161-.134-.1-.765-.913-1.492a7.015,7.015,0,0,0-3.913-1.652,6.752,6.752,0,0,0-4.1.882c-.9.562-1.253,1.134-1.113,1.3" transform="translate(56.935 3.457)" fill="#1a2e35"/>
    <path id="Trazado_224" data-name="Trazado 224" d="M57.187,64.368c.028-.155-1.645-.62-4.371-1.251-.692-.143-1.34-.348-1.411-.838a3.591,3.591,0,0,1,.676-2.028q1.244-2.44,2.606-5.121c3.637-7.3,6.345-13.327,6.05-13.471s-3.484,5.655-7.12,12.953q-1.32,2.7-2.522,5.161a4.072,4.072,0,0,0-.639,2.711A1.761,1.761,0,0,0,51.5,63.624a4.775,4.775,0,0,0,1.172.285c2.764.428,4.486.614,4.512.459" transform="translate(21.064 3.369)" fill="#1a2e35"/>
    <path id="Trazado_225" data-name="Trazado 225" d="M30.8,34.905c.2.773,2.968.694,6.144,1.405,3.191.647,5.689,1.849,6.183,1.224.223-.3-.159-1.047-1.135-1.874a10.95,10.95,0,0,0-9.391-2c-1.228.357-1.881.882-1.8,1.247" transform="translate(59.808 2.695)" fill="#1a2e35"/>
    <path id="Trazado_226" data-name="Trazado 226" d="M57.175,34.745c.419.672,2.373.216,4.646.414,2.281.118,4.151.84,4.659.232.226-.3-.014-.95-.794-1.625a6.754,6.754,0,0,0-7.5-.519c-.866.559-1.194,1.173-1.012,1.5" transform="translate(7.983 2.617)" fill="#1a2e35"/>
    <path id="Trazado_227" data-name="Trazado 227" d="M8.768,56.182c.318-.1,12.618-2.392,11,9.761S6.287,73.967,6.312,73.616,8.768,56.182,8.768,56.182" transform="translate(109.55 4.525)" fill="#ffc09d"/>
    <path id="Trazado_228" data-name="Trazado 228" d="M9.277,69.189c.059-.031.192.176.529.388a2.136,2.136,0,0,0,1.578.243c1.347-.3,2.7-2.2,3.048-4.378a7.056,7.056,0,0,0-.189-3.111A2.463,2.463,0,0,0,12.866,60.5a1.087,1.087,0,0,0-1.326.414c-.208.318-.163.571-.23.584-.038.025-.233-.239-.069-.727a1.362,1.362,0,0,1,.579-.7,1.612,1.612,0,0,1,1.212-.153,3,3,0,0,1,1.962,2.178,7.249,7.249,0,0,1,.283,3.485c-.4,2.44-1.962,4.565-3.785,4.838A2.286,2.286,0,0,1,9.6,69.835c-.337-.349-.364-.63-.32-.646" transform="translate(110.909 4.841)" fill="#ff9b6c"/>
    <path id="Trazado_229" data-name="Trazado 229" d="M16.356,19.013a23.4,23.4,0,0,1,8.354-7.873A39.928,39.928,0,0,1,48.579,5.218,32.513,32.513,0,0,1,70.407,16.075a34.325,34.325,0,0,1,7.652,18.179,50.427,50.427,0,0,1-1.871,19.789c-.8,2.816-1.883,5.714-4.107,7.617-1.389,1.189-3.636,1.839-4.968.585a4.872,4.872,0,0,1-1.136-2.955c-1.4-9.645-2.7-19.994,1.659-28.711a28.121,28.121,0,0,0-7.621-8.563,14.56,14.56,0,0,0-10.926-2.63c-5.605,1.127-9.484,6.078-14.192,9.321a25.888,25.888,0,0,1-23.4,2.852Z" transform="translate(45.5 0.412)" fill="#1a2e35"/>
    <path id="Trazado_230" data-name="Trazado 230" d="M48.4,69.645a12.226,12.226,0,0,0,.91,3.35,4.114,4.114,0,0,0,2.511,2.257,3.688,3.688,0,0,0,3.4-1.026A5.888,5.888,0,0,0,56.8,70.934c.179-1.1-.049-2.515-1.109-2.872a2.8,2.8,0,0,0-1.381.017q-3.1.559-6.2,1.122" transform="translate(27.435 5.498)" fill="#ff9b6c"/>
    <path id="Trazado_231" data-name="Trazado 231" d="M50.3,74.861a8.445,8.445,0,0,0,3.127.261,4.451,4.451,0,0,0,2.742-1.612,4.688,4.688,0,0,0,.857-3.723,4.217,4.217,0,0,0-.32-.959c-.176-.284-.137-.265-.391-.28-.245.014-.659.111-.99.168L54.3,68.9c-1.327.239-2.525.44-3.533.593-2.017.308-3.279.427-3.307.286s1.182-.517,3.163-1.01c.991-.246,2.174-.522,3.49-.812l1.012-.221a10.262,10.262,0,0,1,1.134-.212,1.358,1.358,0,0,1,.842.2,1.594,1.594,0,0,1,.526.63,5.024,5.024,0,0,1,.416,1.218,5.476,5.476,0,0,1-1.132,4.535,4.994,4.994,0,0,1-3.392,1.738,4.7,4.7,0,0,1-2.5-.422c-.537-.268-.762-.518-.729-.57" transform="translate(26.84 5.461)" fill="#1a2e35"/>
    <path id="Trazado_232" data-name="Trazado 232" d="M21.221,5.5a3.25,3.25,0,0,0-.241.8,8.144,8.144,0,0,0-.08,2.4,11.217,11.217,0,0,0,4.409,7.467c2.99,2.373,7.717,3.327,12.589,2.582,4.936-.676,9.867-3.047,15.027-5.17,5.134-2.125,10.447-3.556,15.192-2.687a19.185,19.185,0,0,1,10.835,6.2,25.652,25.652,0,0,1,4.63,7.251c.778,1.9,1.048,3.007,1.128,2.985a3.3,3.3,0,0,0-.151-.817,20.622,20.622,0,0,0-.689-2.282,24.349,24.349,0,0,0-4.5-7.513,19.526,19.526,0,0,0-11.128-6.546c-4.958-.946-10.441.531-15.617,2.672-5.2,2.144-10.053,4.491-14.835,5.182-4.729.761-9.262-.11-12.143-2.306a11.117,11.117,0,0,1-4.441-7.059A12.266,12.266,0,0,1,21.221,5.5" transform="translate(29.042 0.445)" fill="#375a64"/>
    <path id="Trazado_233" data-name="Trazado 233" d="M19.636,40.937a8.64,8.64,0,0,0-.476-3.358,20.892,20.892,0,0,0-3.687-7.319A20.71,20.71,0,0,0,12.311,27a7.648,7.648,0,0,0-3.333-1.749,4.043,4.043,0,0,0-2.538.286c-.547.281-.749.564-.718.6A4.672,4.672,0,0,1,8.854,25.8c1.911.49,4.059,2.544,5.992,4.947a24.254,24.254,0,0,1,3.777,7c.681,1.939.881,3.213,1.013,3.193" transform="translate(110.431 2.036)" fill="#375a64"/>
    <path id="Trazado_234" data-name="Trazado 234" d="M22.994,50.769a9.4,9.4,0,0,0-.69-3.346A22.663,22.663,0,0,0,11.887,34.966a9.378,9.378,0,0,0-3.171-1.271A32.513,32.513,0,0,0,11.6,35.45a26.632,26.632,0,0,1,6.039,5.29,26.647,26.647,0,0,1,4.138,6.879,32.223,32.223,0,0,0,1.217,3.151" transform="translate(103.851 2.724)" fill="#375a64"/>
    <path id="Trazado_235" data-name="Trazado 235" d="M111.091,113.167S98.057,129.98,94.924,136.3s-25.609,76.093-25.609,76.093l9.747,4.1Z" transform="translate(-49.723 9.153)" fill="#0a609b"/>
    <path id="Trazado_236" data-name="Trazado 236" d="M90.62,99.238V90.81l-47.358,15.4-12.69,20.306L20.8,154.876l27.414-41.2Z" transform="translate(23.191 7.344)" fill="#ececec"/>
    <path id="Trazado_237" data-name="Trazado 237" d="M104.953,106.925s20.094,24.037,19.659,39.662c-.429,15.387-21.3,108.894-21.3,108.894l5.052,16.71,5.47,55.693H0l7.922-114.1c1.265-.075,24.96-65.391,24.96-65.391l26.478-36.771,43.608-15.711Z" transform="translate(11.671 7.757)" fill="#1b75bb"/>
    <path id="Trazado_238" data-name="Trazado 238" d="M128.326,179.823s-7.962-.316-12.12,1.54-7.676.929-10.616,6.682-6.376,8.351-7.1,17.074,8.7,28.921,14.918,31.759,14.917-57.055,14.917-57.055" transform="translate(-98.45 14.542)" fill="#0a609b"/>
    <path id="Trazado_239" data-name="Trazado 239" d="M113.54,179.386S67,223.072,61.076,227.251s-6.8,30.6-14.09,31.1-30.924-16.977-30.924-16.977l70.016-65.957Z" transform="translate(5.388 14.187)" fill="#0a609b"/>
    <path id="Trazado_240" data-name="Trazado 240" d="M89.186,215.278s10.121,12.953,11.281,16.2,2.284,5.4,1.047,6.486a3.156,3.156,0,0,1-3.549.742c-1.651-.628-9.785-11.362-9.785-11.362s10.79,15.392,11.281,18.046c.494,2.67-1.622,3.942-4.1,3.478s-7.185-7.42-7.185-7.42,6.678,7.729,5.269,9.043a3.961,3.961,0,0,1-4.886.541C86.71,250.1,81.995,244,81.995,244s3.246,3.478,1.468,4.328-1.932.945-3.478-.339-15.191-14.642-15.191-14.642l8.621-5.888Z" transform="translate(-35.798 17.411)" fill="#ffc09d"/>
    <path id="Trazado_241" data-name="Trazado 241" d="M69.907,222.6a18.433,18.433,0,0,0,1.588,2.17l3.947,5.14c1.551,2,3,3.784,4.1,5.036a14.268,14.268,0,0,0,1.86,1.947,18.345,18.345,0,0,0-1.616-2.149L75.8,229.635c-1.55-2-2.977-3.8-4.054-5.064a14.185,14.185,0,0,0-1.834-1.972" transform="translate(-20.671 18.003)" fill="#ff9b6c"/>
    <path id="Trazado_242" data-name="Trazado 242" d="M76.87,228.342a83.068,83.068,0,0,0,5.4,6.715A82.955,82.955,0,0,0,88,241.483a82.7,82.7,0,0,0-5.4-6.715,82.934,82.934,0,0,0-5.736-6.426" transform="translate(-34.8 18.468)" fill="#ff9b6c"/>
    <path id="Trazado_243" data-name="Trazado 243" d="M81.719,231.94a83.547,83.547,0,0,0,5.655,6.508,83.22,83.22,0,0,0,5.986,6.205,83.235,83.235,0,0,0-5.655-6.508,82.99,82.99,0,0,0-5.986-6.205" transform="translate(-45.399 18.759)" fill="#ff9b6c"/>
    <path id="Trazado_244" data-name="Trazado 244" d="M113.414,120.024c-6.535-1.387-14.84-1.965-21.158,1.618L57.721,152.8S9.05,207.4,7.138,210.443s-4.475,21.013,2.9,30.171,15.652,5.637,25.117,3.478c7.49-1.707,59.822-40.159,81.334-56.131a41.068,41.068,0,0,0,15.291-22.3,49.721,49.721,0,0,0,1.732-17.753" transform="translate(-2.948 9.62)" fill="#1b75bb"/>
    <path id="Trazado_245" data-name="Trazado 245" d="M133.681,147.916s.012.3.057.9.086,1.474.1,2.632a50.071,50.071,0,0,1-1.014,10.059,52.734,52.734,0,0,1-1.889,7.06,40.2,40.2,0,0,1-3.767,7.814,41.474,41.474,0,0,1-6.251,7.756,79.832,79.832,0,0,1-8.765,6.973c-12.677,9.339-27.793,20.433-44.814,32.415-4.26,2.99-8.642,6.029-13.156,9.076s-9.149,6.131-14.038,8.965a37.065,37.065,0,0,1-3.769,1.932,10.94,10.94,0,0,1-2.019.605l-2.1.509a58.3,58.3,0,0,1-8.5,1.681,14.369,14.369,0,0,1-8.43-1.536A17.288,17.288,0,0,1,9.1,238.63a30.2,30.2,0,0,1-3.56-14.121,45.588,45.588,0,0,1,.3-7.236q.219-1.788.591-3.536a11.2,11.2,0,0,1,1.158-3.289c1.413-1.857,3-3.648,4.514-5.429l4.571-5.279L25.644,189.5c11.818-13.351,22.737-25.686,32.378-36.578l-.013.014,34.486-31.2-.018.013a22.062,22.062,0,0,1,8.845-2.581,37.2,37.2,0,0,1,6.767.061c1.819.176,3.19.409,4.108.564l1.035.189c.231.042.35.056.35.056s-.462-.116-1.375-.3-2.286-.425-4.108-.619a36.679,36.679,0,0,0-6.793-.114,22.166,22.166,0,0,0-8.935,2.561l-.01.005-.01.008-34.582,31.1-.008.006-.007.008c-9.684,10.853-20.636,23.159-32.431,36.535l-8.984,10.238q-2.27,2.617-4.575,5.278c-1.524,1.8-3.082,3.541-4.553,5.475a6.1,6.1,0,0,0-.438.819c-.12.283-.2.574-.307.86-.2.576-.324,1.166-.475,1.752-.254,1.181-.451,2.376-.6,3.579a45.959,45.959,0,0,0-.3,7.307,30.6,30.6,0,0,0,3.622,14.336,17.715,17.715,0,0,0,6.4,6.285,14.825,14.825,0,0,0,8.682,1.588,58.646,58.646,0,0,0,8.568-1.7l2.093-.509a11.4,11.4,0,0,0,2.085-.627,37.326,37.326,0,0,0,3.819-1.959c4.912-2.85,9.537-5.951,14.061-8.991s8.9-6.1,13.153-9.093c17.014-12,32.112-23.126,44.766-32.5a79.824,79.824,0,0,0,8.776-7.025,41.58,41.58,0,0,0,6.265-7.828,40.2,40.2,0,0,0,3.755-7.875,52.364,52.364,0,0,0,1.859-7.1,48.619,48.619,0,0,0,.933-10.093,29.859,29.859,0,0,0-.249-3.528" transform="translate(-3.118 9.615)" fill="#1a2e35"/>
    <path id="Trazado_246" data-name="Trazado 246" d="M18.665,151.636a.9.9,0,0,0,.2-.126l.549-.408c.471-.374,1.205-.878,2.068-1.628,1.774-1.443,4.21-3.685,7.122-6.549s6.281-6.371,10.108-10.17c1.927-1.884,3.951-3.865,6.158-5.792A63.73,63.73,0,0,1,52,121.387c1.042-.754,2.179-1.331,3.239-1.977l.148-.09-.036-.156q-.268-1.175-.526-2.311l-.15.261,26.444-8.325,7.828-2.512,2.1-.7.543-.191a.679.679,0,0,0,.179-.078.734.734,0,0,0-.192.038l-.554.152-2.127.623-7.867,2.383L54.542,116.69l-.2.061.045.2q.256,1.133.523,2.311l.112-.246c-1.073.653-2.226,1.238-3.276,2a63.2,63.2,0,0,0-7.174,5.621c-2.215,1.94-4.235,3.932-6.159,5.828-3.817,3.822-7.158,7.352-10.04,10.239s-5.277,5.159-7.012,6.64c-.843.77-1.559,1.294-2.01,1.689l-.522.442a.934.934,0,0,0-.169.163" transform="translate(24.344 8.517)" fill="#1a2e35"/>
    <path id="Trazado_247" data-name="Trazado 247" d="M81.291,184.18a12.8,12.8,0,0,0,.971-1.758l2.487-4.936c2.079-4.179,4.917-9.968,8.022-16.375s5.893-12.225,7.887-16.444c.968-2.075,1.761-3.773,2.338-5.009l.614-1.372a2.308,2.308,0,0,0,.187-.492,2.309,2.309,0,0,0-.268.453l-.69,1.335-2.467,4.946-8,16.387c-3.075,6.393-5.858,12.179-7.9,16.433l-2.358,5c-.547,1.175-.853,1.862-.815,1.834" transform="translate(-55.373 11.144)" fill="#1a2e35"/>
    <path id="Trazado_248" data-name="Trazado 248" d="M87.442,269.132a2.391,2.391,0,0,0-.31.011l-.887.065-3.4.278-12.562,1.083-42.35,3.782.235.272c.879-3.545,1.8-7.253,2.736-11.033.428-1.732.853-3.448,1.268-5.122l-.191.167,47.421-5.5-.146-.075c2.785,4.934,4.931,8.917,6.332,11.686.7,1.385,1.21,2.469,1.513,3.218a6.164,6.164,0,0,1,.3.864,1.569,1.569,0,0,1,.042.306,2.3,2.3,0,0,0-.263-1.2c-.28-.763-.769-1.861-1.446-3.26-1.359-2.8-3.465-6.8-6.217-11.76l-.049-.085-.1.011-47.439,5.355-.153.017-.038.15-1.269,5.123c-.935,3.78-1.853,7.488-2.73,11.034l-.075.3.309-.029,42.457-3.971,12.511-1.208,3.354-.34.861-.1a1.773,1.773,0,0,0,.284-.043" transform="translate(18.928 20.448)" fill="#1a2e35"/>
    <path id="Trazado_249" data-name="Trazado 249" d="M87.052,268.043l-2.034,5.3-55.911,3.336V273.34Z" transform="translate(17.775 21.679)"/>
  </g>
</svg>
