<svg xmlns="http://www.w3.org/2000/svg" xmlns:xlink="http://www.w3.org/1999/xlink" width="177.943" height="177.942" viewBox="0 0 177.943 177.942">
  <defs>
    <filter id="Trazado_178" x="0" y="0" width="177.943" height="177.942" filterUnits="userSpaceOnUse">
      <feOffset dy="6" input="SourceAlpha"/>
      <feGaussianBlur stdDeviation="3" result="blur"/>
      <feFlood flood-opacity="0.161"/>
      <feComposite operator="in" in2="blur"/>
      <feComposite in="SourceGraphic"/>
    </filter>
  </defs>
  <g id="circulo1" transform="translate(-249 -236.418)">
    <g transform="matrix(1, 0, 0, 1, 249, 236.42)" filter="url(#Trazado_178)">
      <path id="Trazado_178-2" data-name="Trazado 178" d="M420.371,79.971A79.971,79.971,0,1,0,340.4,159.942a79.971,79.971,0,0,0,79.971-79.971" transform="translate(-251.43 3)" fill="#e96247"/>
    </g>
    <path id="Trazado_179" data-name="Trazado 179" d="M425.649,93.892A71.328,71.328,0,1,0,354.32,165.22a71.329,71.329,0,0,0,71.329-71.329" transform="translate(-15.996 225.497)" fill="#fff"/>
    <path id="Trazado_186" data-name="Trazado 186" d="M76.968,3.037H51.011V5.955H53.47c3.747,0,7.495.016,11.242-.007,1.209-.007,1.957.381,2.156,1.7.517,3.442,2,4.935,5.4,5.441a1.753,1.753,0,0,1,1.74,1.959q-.009,7.5,0,14.99c0,1.2-.6,1.743-1.79,1.913-3.285.472-4.9,2.081-5.333,5.333-.185,1.4-.943,1.81-2.225,1.8-3.955-.028-7.911-.01-11.866-.009h-1.8v2.905H76.966V40.1q0-12.8,0-25.608c0-.468-.008-.938.015-1.4.05-1.014.54-1.889,1.577-1.649a2.328,2.328,0,0,1,1.342,1.7c.172,2.015.066,4.054.066,6.084q0,23.11,0,46.219c0,2.438-.264,2.708-2.664,2.708q-37.316,0-74.633,0c-2.4,0-2.669-.274-2.669-2.7Q0,34.058,0,2.673C0,.28.283,0,2.7,0Q40.018,0,77.335,0c2.335,0,2.626.291,2.631,2.586,0,1.3-.022,2.6.007,3.9.024,1.1-.213,2.086-1.515,2.082-1.332,0-1.489-1.06-1.489-2.12,0-1.084,0-2.168,0-3.415M47.8,41.969V3.088H32.1V4.905q0,9.995,0,19.99a3.045,3.045,0,0,1-.139,1.524A2.333,2.333,0,0,1,30.5,27.485c-.424.027-1.007-.59-1.3-1.058a2.829,2.829,0,0,1-.112-1.376q-.008-7.184,0-14.368V8.962c-4.265,0-8.271-.017-12.276.031a1.292,1.292,0,0,0-.967.7,9.042,9.042,0,0,1-6.788,6.319v13a9.014,9.014,0,0,1,6.825,6.453,1.02,1.02,0,0,0,.756.574c4.1.036,8.191.025,12.457.025,0-1.67-.012-3.167,0-4.663.01-.934.375-1.679,1.4-1.73,1.125-.056,1.569.707,1.588,1.706.037,1.925.016,3.852.018,5.778,0,1.589,0,3.179,0,4.8Zm3.157-5.889c4.162,0,8.164.021,12.164-.036a1.44,1.44,0,0,0,1.048-.808,8.923,8.923,0,0,1,5.905-5.968,1.717,1.717,0,0,0,.878-1.3c.071-3.641.013-7.284.059-10.925.011-.855-.346-1.141-1.094-1.379a8.2,8.2,0,0,1-5.606-5.607,1.322,1.322,0,0,0-1.529-1.115c-2.5.053-4.994.018-7.492.018H50.952ZM3.09,41.952H29V39.079H27.247c-4.006,0-8.011-.019-12.017.009a1.854,1.854,0,0,1-2.154-1.878,5.482,5.482,0,0,0-5.244-5.243,1.864,1.864,0,0,1-1.882-2.154q.033-7.257,0-14.514a1.919,1.919,0,0,1,1.969-2.236A5.442,5.442,0,0,0,13.068,7.9a1.912,1.912,0,0,1,2.245-1.957c4.005.036,8.011.012,12.017.012H29V3.1H3.09ZM32.2,65.067H47.767V45.121H32.2ZM76.87,62.406H75.123q-9.76,0-19.52-.006a3.674,3.674,0,0,1-1.679-.171,1.985,1.985,0,0,1-1.008-1.344,2.074,2.074,0,0,1,1.009-1.36,3.172,3.172,0,0,1,1.527-.136q9.838-.01,19.676,0H76.82V56.708H50.982V65.09H76.87ZM29.023,50.945H3.1v2.68c1.751,0,3.406.007,5.061,0,1.026-.006,1.995.216,2.026,1.423.034,1.3-.942,1.566-2.049,1.554-1.652-.019-3.3,0-5,0v2.694H29V56.6H27.248c-4.32,0-8.64.011-12.96-.009-1.527-.007-2.464-.9-1.885-1.864a2.705,2.705,0,0,1,1.973-1.052c4.318-.094,8.639-.046,12.959-.052.55,0,1.1-.048,1.688-.075Zm-25.94-3.2H28.951V45.132H3.083Zm47.885.01H76.833V45.125H50.968Zm-.028,5.779H76.873V50.966H50.94ZM29.025,62.5H3.092v2.563H29.025Z" transform="translate(298 283.314)" fill="#e96247"/>
  </g>
</svg>
