<svg id="mujer" xmlns="http://www.w3.org/2000/svg" xmlns:xlink="http://www.w3.org/1999/xlink" width="442.784" height="455.994" viewBox="0 0 442.784 455.994">
  <defs>
    <clipPath id="clip-path">
      <rect id="Rect치ngulo_91" data-name="Rect치ngulo 91" width="442.784" height="455.994" fill="none"/>
    </clipPath>
    <clipPath id="clip-path-3">
      <rect id="Rect치ngulo_89" data-name="Rect치ngulo 89" width="117.65" height="8.597" fill="none"/>
    </clipPath>
  </defs>
  <g id="Grupo_61" data-name="Grupo 61" clip-path="url(#clip-path)">
    <g id="Grupo_60" data-name="Grupo 60">
      <g id="Grupo_59" data-name="Grupo 59" clip-path="url(#clip-path)">
        <path id="Trazado_175" data-name="Trazado 175" d="M207.477,216.845l29.558-19.762c9.842-2.317,20.889,4.733,22.934,14.635,9.778-2.046,20.143,4.8,23.51,14.2s.413,20.358-6.075,27.955-16.043,12.1-25.842,14.044c-14.1,2.8-30.579-.284-39.022-11.914-7.927-10.92-6.669-25.761-5.064-39.158" transform="translate(-14.522 -13.843)" fill="#1a2e35"/>
        <path id="Trazado_176" data-name="Trazado 176" d="M278.823,308.723l-53.041,24.268-30.675,25.448S70.855,242.774,75.62,240.5c3.557-1.695,47.135-15.99,47.135-15.99l19.384-5.64,80.117,15.367,29.055,6.364Z" transform="translate(-5.314 -15.409)" fill="#652d90"/>
        <path id="Trazado_177" data-name="Trazado 177" d="M276.212,471.553H53.162L65.669,371.022l8.38-130.368,59.086-19.643,54.736,120.676v.569l53.452-103.727c16.822,3.775,28.306,5.562,40.36,13.325l-6.371,78.289Z" transform="translate(-3.743 -15.559)" fill="#01cc9b"/>
        <path id="Trazado_178" data-name="Trazado 178" d="M71.215,187.377a27.043,27.043,0,0,1,15.432-23.8c-3.375-11.8-7.1-24.2-4.491-36.2,5.906-27.1,30.333-30.83,42.609-30.648l40.375,25.764c10.8,12.256-2.767,79.474-7.635,95.067a48.754,48.754,0,0,1-34.125,32.158c-11.285,2.8-24.188,1.015-32.8-6.8s-11.352-22.2-4.351-31.478a27.043,27.043,0,0,1-15.014-24.066" transform="translate(-5.013 -6.809)" fill="#1a2e35"/>
        <path id="Trazado_179" data-name="Trazado 179" d="M74.676,240.682s-12.353-.141-30.239,32c-20.078,36.081-32.914,81.883-32.914,81.883L60.967,381.55Z" transform="translate(-0.811 -16.944)" fill="#01cc9b"/>
        <path id="Trazado_180" data-name="Trazado 180" d="M169.027,297.175a31.888,31.888,0,0,1-15.266,23.961c-4.03,2.381-8.628,3.884-12.158,6.956-3.4,2.963-5.5,7.11-7.515,11.147-14.978,30.023-29.988,60.122-41.548,91.618-2.586,7.045-5.038,14.239-9.176,20.5S73.1,462.958,65.732,464.38s-15.892-1.971-18.826-8.879l93.279-174.058Z" transform="translate(-3.302 -19.814)" fill="#00a57a"/>
        <path id="Trazado_181" data-name="Trazado 181" d="M275.492,89.576a15.789,15.789,0,0,0-12.366-24.2l-24.957,3.653q3.632,21.085,7.264,42.168c.7,4.035,1.511,8.321,4.318,11.3,2.658,2.823,6.716,3.969,10.594,3.941a21.61,21.61,0,0,0,15.148-36.867" transform="translate(-16.767 -4.603)" fill="#1a2e35"/>
        <path id="Trazado_182" data-name="Trazado 182" d="M193.487,249.046c-20.848-.045-43.391-22.009-43.8-42.854L147.461,91.964c-1.73-33.678,16.427-62.757,50.141-63.555l3.12.108A60.286,60.286,0,0,1,258.865,86c1.338,29.2.191,55.566-.545,71.18C256.8,189.5,226.6,194.666,226.6,194.666c-.073,0,2.6,28.452-1.842,36.845-9.951,18.8-17.873,17.183-31.267,17.535" transform="translate(-10.373 -2)" fill="#ffc19d"/>
        <path id="Trazado_183" data-name="Trazado 183" d="M229.711,206.247s-20.425.489-41.674-13.91c0,0,9.647,24.486,42.017,22.693Z" transform="translate(-13.238 -13.541)" fill="#ff9c6a"/>
        <path id="Trazado_184" data-name="Trazado 184" d="M250.658,117.914a4.622,4.622,0,0,1-4.615,4.506,4.419,4.419,0,0,1-4.615-4.33,4.62,4.62,0,0,1,4.609-4.508,4.424,4.424,0,0,1,4.621,4.332" transform="translate(-16.997 -7.996)" fill="#1a2e35"/>
        <path id="Trazado_185" data-name="Trazado 185" d="M257.315,103.443c-.593.581-4-2.13-8.972-2.289-4.962-.231-8.7,2.2-9.216,1.573-.255-.279.366-1.346,1.994-2.447a12.674,12.674,0,0,1,7.4-2,12.183,12.183,0,0,1,7.116,2.573c1.486,1.226,1.967,2.332,1.675,2.594" transform="translate(-16.831 -6.918)" fill="#1a2e35"/>
        <path id="Trazado_186" data-name="Trazado 186" d="M201.992,117.915a4.62,4.62,0,0,1-4.615,4.5,4.419,4.419,0,0,1-4.616-4.329,4.624,4.624,0,0,1,4.611-4.508,4.424,4.424,0,0,1,4.62,4.333" transform="translate(-13.57 -7.996)" fill="#1a2e35"/>
        <path id="Trazado_187" data-name="Trazado 187" d="M204.875,103.789c-.594.582-4.008-2.128-8.974-2.288-4.961-.23-8.7,2.2-9.216,1.573-.254-.279.36-1.345,1.995-2.446a12.675,12.675,0,0,1,7.4-2.005A12.192,12.192,0,0,1,203.2,101.2c1.484,1.225,1.966,2.333,1.676,2.593" transform="translate(-13.139 -6.942)" fill="#1a2e35"/>
        <path id="Trazado_188" data-name="Trazado 188" d="M223.94,142.783c-.013-.284,3.094-.71,8.122-1.177,1.274-.086,2.484-.3,2.727-1.155.33-.906-.153-2.293-.717-3.791q-1.63-4.668-3.417-9.793c-4.734-13.939-8.114-25.382-7.552-25.569s4.858,10.962,9.592,24.9q1.705,5.157,3.257,9.846c.43,1.459,1.2,3.123.485,5a3.182,3.182,0,0,1-2.15,1.783,8.6,8.6,0,0,1-2.166.225c-5.047.1-8.172.011-8.181-.272" transform="translate(-15.702 -7.131)" fill="#1a2e35"/>
        <path id="Trazado_189" data-name="Trazado 189" d="M220.672,156.615a7.174,7.174,0,0,0-4.834-5.884,7.444,7.444,0,0,0-4.7.22,5.766,5.766,0,0,0-3.215,3.263,2.61,2.61,0,0,0-.161.733,3.444,3.444,0,0,0-.5,1.31c-.407,2.734,0,5.931,2.154,7.91a6.568,6.568,0,0,0,4.521,1.959,6.131,6.131,0,0,0,4.321-1.756,9.059,9.059,0,0,0,2.414-7.755" transform="translate(-14.581 -10.592)" fill="#ff9c6a"/>
        <path id="Trazado_190" data-name="Trazado 190" d="M206.365,150.689c.777-.231,2.027,5.019,7.4,7.686s10.832.767,11.047,1.492c.151.312-1.008,1.314-3.355,1.937a13.44,13.44,0,0,1-9.151-.948,11.707,11.707,0,0,1-5.871-6.524c-.72-2.149-.441-3.589-.074-3.643" transform="translate(-14.502 -10.608)" fill="#1a2e35"/>
        <path id="Trazado_191" data-name="Trazado 191" d="M205.909,85.409c-.537,1.335-5.476.522-11.331,1.023-5.866.383-10.626,1.926-11.358.689-.325-.593.539-1.835,2.486-3.077a19.77,19.77,0,0,1,17.285-1.3c2.11.935,3.151,2.035,2.918,2.668" transform="translate(-12.894 -5.726)" fill="#1a2e35"/>
        <path id="Trazado_192" data-name="Trazado 192" d="M256,83.671c-.914,1.1-4.3-.192-8.411-.39-4.108-.341-7.629.5-8.391-.714-.331-.585.257-1.7,1.816-2.712a12.19,12.19,0,0,1,13.539.89c1.414,1.21,1.851,2.389,1.446,2.926" transform="translate(-16.833 -5.506)" fill="#1a2e35"/>
        <path id="Trazado_193" data-name="Trazado 193" d="M147.071,121.833c-.543-.257-21.992-7.343-22.054,14.79s22.173,17.629,22.214,16.995-.16-31.785-.16-31.785" transform="translate(-8.801 -8.487)" fill="#ffc19d"/>
        <path id="Trazado_194" data-name="Trazado 194" d="M140.917,145.754c-.1-.072-.387.269-1.039.566a3.858,3.858,0,0,1-2.882.051c-2.335-.865-4.295-4.583-4.391-8.573a12.75,12.75,0,0,1,1.1-5.517c.68-1.617,1.731-2.745,2.909-2.952a1.965,1.965,0,0,1,2.273,1.064c.295.619.152,1.061.271,1.1.061.056.476-.37.3-1.285a2.459,2.459,0,0,0-.867-1.389,2.908,2.908,0,0,0-2.131-.57c-1.707.113-3.248,1.68-4.037,3.421a13.073,13.073,0,0,0-1.354,6.165c.129,4.46,2.4,8.641,5.6,9.574a4.133,4.133,0,0,0,3.529-.575c.687-.546.805-1.039.728-1.08" transform="translate(-9.227 -9.027)" fill="#ff9c6a"/>
        <path id="Trazado_195" data-name="Trazado 195" d="M174.162,64.925c-2.615-2.6-6.431-3.547-10.09-3.992a51.561,51.561,0,0,0-28.062,4.537c-4.56,2.155-8.954,5.151-11.415,9.553s-2.5,10.438.973,14.1a15.515,15.515,0,0,0,12.411,28.146c.777,7.335,9.007,11.578,15.232,7.623A15.829,15.829,0,0,0,157.2,121.3c4.24-5.432,4.665-15.736,3.493-22.526,4.433.046,8.616-2.511,11.343-6.007a28.549,28.549,0,0,0,5.015-12.184c1.067-5.432,1.041-11.759-2.885-15.661" transform="translate(-8.324 -4.264)" fill="#1a2e35"/>
        <path id="Trazado_196" data-name="Trazado 196" d="M215.088,24.762c-1.819-5.28-6.375-9.121-11.054-12.171A78.116,78.116,0,0,0,162.842.008c-7.64-.117-15.618,1.022-21.907,5.363s-10.371,12.527-8.1,19.823c-11.229,1.021-20.894,11.174-21.361,22.439S119.8,69.817,130.9,71.763c-3.845,10.493,4.511,21.765,15.62,20.545a23.96,23.96,0,0,0,7.815-2.217c9.4-4.552,16.86-18.282,19.8-28.3,6,3.026,13.4,2.344,19.439-.589s10.894-7.873,14.964-13.217c5.08-6.673,9.274-15.3,6.542-23.225" transform="translate(-7.847 0)" fill="#1a2e35"/>
        <path id="Trazado_197" data-name="Trazado 197" d="M203.536,32.87c1.433-4.157-.09-15.479,3.286-18.3,24.277-20.254,26.4-1.019,37.851-1.195,6.015-.093,12.3.8,17.249,4.223s8.166,9.863,6.377,15.607a19.15,19.15,0,0,1,16.819,17.668,19.15,19.15,0,0,1-15.3,19c3.028,8.262-3.552,17.137-12.3,16.177a18.892,18.892,0,0,1-6.153-1.746c-7.4-3.585-13.276-14.395-15.594-22.282-4.722,2.383-10.547,1.845-15.306-.464s-8.577-6.2-11.782-10.407c-4-5.254-7.3-12.044-5.151-18.287" transform="translate(-14.281 -0.373)" fill="#1a2e35"/>
        <path id="Trazado_198" data-name="Trazado 198" d="M235.312,234.085l-8.735-15.778-33.67,43.062-46.922-57.916-6.862,17.661,36.4,63.674,15.443-20.932,3.663.535,12.739,22.13Z" transform="translate(-9.794 -14.323)" fill="#fff"/>
        <path id="Trazado_199" data-name="Trazado 199" d="M164.281,270.23a11.387,11.387,0,0,0,1,1.6c.672,1.009,1.645,2.472,2.806,4.315a125.615,125.615,0,0,1,8.154,15.087l.246.545.324-.508.97-1.518c3.957-5.983,8.009-11.1,10.733-14.949,1.377-1.917,2.457-3.493,3.172-4.6a11.735,11.735,0,0,0,1.044-1.766,13.1,13.1,0,0,0-1.252,1.623l-3.334,4.473c-2.814,3.776-6.921,8.841-10.907,14.865l-.977,1.532.571.037a107.79,107.79,0,0,0-8.372-15.061c-1.215-1.818-2.247-3.247-2.981-4.214a10.5,10.5,0,0,0-1.2-1.456" transform="translate(-11.565 -18.897)" fill="#1a2e35"/>
        <path id="Trazado_200" data-name="Trazado 200" d="M123.017,95.4a4.256,4.256,0,0,0-.884.954,15.337,15.337,0,0,0-1.832,3.041,17.221,17.221,0,0,0,5.342,21.156,15.394,15.394,0,0,0,3.056,1.807,4.246,4.246,0,0,0,1.232.419,33.835,33.835,0,0,1-4-2.588,17.451,17.451,0,0,1-5.2-20.609,33.9,33.9,0,0,1,2.3-4.179" transform="translate(-8.356 -6.716)" fill="#375a64"/>
        <path id="Trazado_201" data-name="Trazado 201" d="M198.828,266.8a1.832,1.832,0,0,0,.165.456c.152.342.338.764.568,1.28.512,1.112,1.287,2.725,2.322,4.732A155.3,155.3,0,0,0,211.32,289.1l.276.407.234-.434,7.753-14.342,13.953-26.112c1.731-3.3,3.144-6,4.163-7.948l1.1-2.176a4.25,4.25,0,0,0,.346-.78,4.213,4.213,0,0,0-.461.718l-1.21,2.119c-1.063,1.921-2.538,4.587-4.345,7.85L219.01,274.425,211.3,288.79l.51-.027A177.844,177.844,0,0,1,202.2,273.1c-1.031-1.94-1.861-3.5-2.469-4.646-.263-.5-.479-.907-.653-1.238a1.844,1.844,0,0,0-.255-.413" transform="translate(-13.997 -16.735)" fill="#1a2e35"/>
        <path id="Trazado_202" data-name="Trazado 202" d="M335.271,347.823l17.965,51.471L380.143,368l35.8,22.23-45.534,60.919c-12.332,17.576-32.683,23.09-43.8,20.436-22.668-5.408-34.728-34.748-34.728-34.748L292,408.718l4.839-41.686Z" transform="translate(-20.548 -24.487)" fill="#01cc9b"/>
        <path id="Trazado_203" data-name="Trazado 203" d="M329.92,290.947s-69.162,75.136-83.344,88.9c-6.772,6.573-21.07,15.378-21.07,15.378l21.443,2.5Z" transform="translate(-15.876 -20.483)" fill="#e1e1e1"/>
        <g id="Grupo_58" data-name="Grupo 58" transform="translate(217.272 382.568)" opacity="0.3">
          <g id="Grupo_57" data-name="Grupo 57">
            <g id="Grupo_56" data-name="Grupo 56" clip-path="url(#clip-path-3)">
              <path id="Trazado_204" data-name="Trazado 204" d="M351.376,411.687s-28.36,6.6-47.712,7.667-69.938.733-69.938.733l9.963-8.548Z" transform="translate(-233.726 -411.54)"/>
            </g>
          </g>
        </g>
        <path id="Trazado_205" data-name="Trazado 205" d="M331.7,438.357a53.854,53.854,0,0,1-.087-7.058,31.809,31.809,0,0,1,18.423-26.619,53.877,53.877,0,0,1,6.636-2.4,1.432,1.432,0,0,0-.494.046c-.318.059-.795.119-1.391.274a28.347,28.347,0,0,0-4.943,1.667,31.142,31.142,0,0,0-18.691,27.007,28.3,28.3,0,0,0,.181,5.213c.064.612.177,1.079.233,1.4a1.422,1.422,0,0,0,.131.479" transform="translate(-23.31 -28.319)" fill="#1a2e35"/>
        <path id="Trazado_206" data-name="Trazado 206" d="M123.853,331.383S96.685,398.647,84.368,422.92c-12.762,25.151-31.733,67.29-69.742,45.26-31.1-18.026-2.927-112.675-2.927-112.675l27.985,12.638,41.4-66.226Z" transform="translate(0 -21.255)" fill="#01cc9b"/>
        <path id="Trazado_207" data-name="Trazado 207" d="M114.3,216.937a3.539,3.539,0,0,1,4.882-2.1c2.883,1.367,7.131,4.614,8.136,12.056,1.555,11.523-.591,19.656,2.108,22.673s36.57,5.41,39.19,10.356c2.527,4.77,1.035,9.072,1.147,11.509a3.534,3.534,0,0,0,1.02,2.316c1.538,1.573,4.14,5.128,1.649,9.4a3.668,3.668,0,0,0-.129,3.5c.992,2,1.776,5.46-1.716,9.032a3.779,3.779,0,0,0-.79,1.139c-1.015,2.372-4.971,10.8-10.618,12.523a42.416,42.416,0,0,1-13.008,1.415,3.5,3.5,0,0,0-2.423.857c-2.857,2.486-12.343,8.55-15.153,12.224,0,0-34.967-24.44-37.156-25.595,0,0,15.757-24.04,16.549-35.064.843-11.746,8.24-25.449,6.248-36.464-.87-4.814-.561-7.866.064-9.777" transform="translate(-6.438 -15.101)" fill="#ffc19d"/>
        <path id="Trazado_208" data-name="Trazado 208" d="M125.725,331.35a.932.932,0,0,0-.191-.164l-.593-.439-2.328-1.663-8.8-6.166L83.125,301.634l-.258-.179-.172.264c-4.5,6.926-9.387,14.543-14.422,22.523L38.818,371.451l-8.986,14.267L27.4,389.6l-.619,1.019a1.806,1.806,0,0,0-.192.36,1.988,1.988,0,0,0,.248-.323c.171-.25.393-.575.674-.984.6-.909,1.455-2.188,2.539-3.818,2.188-3.327,5.328-8.158,9.161-14.159,7.689-11.987,18.037-28.72,29.616-47.107,5.033-7.978,9.9-15.6,14.385-22.537l-.429.086L113.6,323.229l8.9,6.021,2.383,1.582.622.4a.935.935,0,0,0,.22.12" transform="translate(-1.872 -21.222)" fill="#1a2e35"/>
        <path id="Trazado_209" data-name="Trazado 209" d="M8.058,409.43a5.115,5.115,0,0,0,.675-1.119l1.652-3.139a55.18,55.18,0,0,1,6.269-9.779,25.005,25.005,0,0,1,9.1-6.975,33.805,33.805,0,0,1,4.6-1.4,4.289,4.289,0,0,0-1.31.068,15.548,15.548,0,0,0-3.462.911,23.716,23.716,0,0,0-9.426,6.981,47.539,47.539,0,0,0-6.183,9.991c-.649,1.354-1.142,2.464-1.469,3.237a5.047,5.047,0,0,0-.447,1.229" transform="translate(-0.567 -27.244)" fill="#1a2e35"/>
        <path id="Trazado_210" data-name="Trazado 210" d="M282.022,257.559a31.826,31.826,0,0,0,5.2-8.552,59.189,59.189,0,0,1,23.653,18.268c5.573,7.309,8.077,18.395,10.853,26.295,1.881,5.353,14.233,77.385,14.233,77.385L287.02,391.005l-6.141-107.051c0-.2-4.3-8.759-9.018-18.089a38.423,38.423,0,0,0,10.161-8.306" transform="translate(-19.139 -17.53)" fill="#01cc9b"/>
        <path id="Trazado_211" data-name="Trazado 211" d="M335.49,280.3l123.991-3.038L351.619,402.233l-114.454,3.119Z" transform="translate(-16.696 -19.519)" fill="#1a2e35"/>
        <path id="Trazado_212" data-name="Trazado 212" d="M398.341,330.031a5.738,5.738,0,0,1,6.234-5.771c1.826.131,4.213.359,7.14.753,7.568,1.02,29.727,12.828,30.18,17.318.667,6.586-2.74,9.008-2.74,9.008s4.2,5.97,2.422,10.734c-1.525,4.084-8.181,5.287-8.181,5.287s4.71,5.868-.488,9.759c-1.8,1.348-5.422,3.935-6.268,4.82a15.834,15.834,0,0,1-1.495,3.466,13.381,13.381,0,0,1-9.85,5.232l-1.269.073a9.739,9.739,0,0,1-6.746-2.188c-8.574-7.022-32.81-27.329-33.128-32.749,0,0-4.623-3.85-2.621-7.664s9.012-1.889,9.012-1.889a5.808,5.808,0,0,1-1.563-6.725c1.771-4.006,14.319-3.233,20-2.3,4.521.743,17.129,3.222,17.129,3.222s-16.673-6.341-17.579-9.249a4.456,4.456,0,0,1-.189-1.139" transform="translate(-26.12 -22.827)" fill="#ffc19d"/>
        <path id="Trazado_213" data-name="Trazado 213" d="M374.387,358.161a12.07,12.07,0,0,0,1.665,1.086c1.091.668,2.7,1.584,4.718,2.662,4.028,2.17,9.725,4.916,16.149,7.64s12.344,4.941,16.651,6.47c2.154.766,3.9,1.362,5.12,1.755a11.992,11.992,0,0,0,1.909.551,12.2,12.2,0,0,0-1.828-.781l-5.049-1.941c-4.264-1.633-10.145-3.916-16.56-6.631s-12.12-5.393-16.19-7.457c-2.038-1.024-3.676-1.88-4.8-2.481a12.159,12.159,0,0,0-1.785-.874" transform="translate(-26.357 -25.214)" fill="#ff9c6a"/>
        <path id="Trazado_214" data-name="Trazado 214" d="M380.435,347.7a10.828,10.828,0,0,0,1.831.456c1.182.275,2.9.647,4.991,1.2,4.2,1.063,9.912,2.859,16.159,5.05,3.122,1.105,6.126,2.082,8.787,3.123s5.025,2.083,6.988,3,3.522,1.718,4.6,2.275a12.631,12.631,0,0,0,1.693.834c.011-.018-.123-.121-.389-.3s-.664-.433-1.185-.746c-1.044-.624-2.578-1.489-4.525-2.46s-4.3-2.063-6.968-3.137-5.671-2.072-8.794-3.178a157.294,157.294,0,0,0-16.258-4.888c-2.118-.5-3.852-.8-5.051-1.007a10.915,10.915,0,0,0-1.878-.218" transform="translate(-26.783 -24.477)" fill="#ff9c6a"/>
        <path id="Trazado_215" data-name="Trazado 215" d="M419.522,341.642a13.44,13.44,0,0,0,2.665,1.535c1.691.862,4.076,1.948,6.7,3.14s4.972,2.33,6.654,3.191a18.055,18.055,0,0,0,2.764,1.332,12.83,12.83,0,0,0-2.551-1.721,73.116,73.116,0,0,0-6.608-3.372c-2.634-1.2-5.04-2.215-6.774-2.971a16.946,16.946,0,0,0-2.853-1.135" transform="translate(-29.534 -24.051)" fill="#ff9c6a"/>
        <path id="Trazado_216" data-name="Trazado 216" d="M382.565,369.059a9.257,9.257,0,0,0,1.123,1.36c.764.839,1.9,2.027,3.35,3.443,2.886,2.852,7.13,6.516,11.689,10.667,1.133,1.037,2.206,2.108,3.331,3.057a37.464,37.464,0,0,0,3.374,2.556,23.261,23.261,0,0,0,6.466,3.08,14.4,14.4,0,0,0,4.791.59,8.526,8.526,0,0,0,1.305-.138c.3-.049.449-.085.445-.106-.007-.062-.632.02-1.754,0a15.735,15.735,0,0,1-4.662-.771,23.976,23.976,0,0,1-6.27-3.135,38.863,38.863,0,0,1-3.3-2.543c-1.1-.937-2.159-2-3.306-3.052-4.579-4.168-8.853-7.766-11.809-10.528-1.486-1.37-2.663-2.507-3.479-3.292a9.847,9.847,0,0,0-1.3-1.191" transform="translate(-26.932 -25.982)" fill="#ff9c6a"/>
        <path id="Trazado_217" data-name="Trazado 217" d="M380.3,275.827l54.425-.685a1.309,1.309,0,0,1,1.011,2.159l-11.858,13.877-53.718,1.628a1.309,1.309,0,0,1-1.071-2.065l10.158-14.36a1.311,1.311,0,0,1,1.052-.553" transform="translate(-25.967 -19.37)" fill="#e1e1e1"/>
        <path id="Trazado_218" data-name="Trazado 218" d="M370.115,293.361a1.909,1.909,0,0,1-1.562-3.012l10.158-14.36a1.9,1.9,0,0,1,1.535-.807l54.425-.685a1.909,1.909,0,0,1,1.475,3.149l-12.031,14.079Zm9.577-16.68-10.158,14.36a.7.7,0,0,0-.05.735.689.689,0,0,0,.613.383l53.452-1.62,11.685-13.673a.709.709,0,0,0-.548-1.169l-54.425.685-.055,0a.714.714,0,0,0-.514.3" transform="translate(-25.921 -19.325)" fill="#1a2e35"/>
      </g>
    </g>
  </g>
</svg>
