<svg xmlns="http://www.w3.org/2000/svg" xmlns:xlink="http://www.w3.org/1999/xlink" width="536.495" height="148.03" viewBox="0 0 536.495 148.03">
  <defs>
    <filter id="Uni贸n_1" x="0" y="0" width="536.495" height="148.03" filterUnits="userSpaceOnUse">
      <feOffset dy="8" input="SourceAlpha"/>
      <feGaussianBlur stdDeviation="3" result="blur"/>
      <feFlood flood-opacity="0.161"/>
      <feComposite operator="in" in2="blur"/>
      <feComposite in="SourceGraphic"/>
    </filter>
  </defs>
  <g transform="matrix(1, 0, 0, 1, 0, 0)" filter="url(#Uni贸n_1)">
    <g id="Uni贸n_1-2" data-name="Uni贸n 1" transform="translate(9 1)" fill="#fff3cf">
      <path d="M 491.4884338378906 129.0298614501953 L 25.37990379333496 129.0298614501953 L 25.37990379333496 75.20505523681641 L 25.37990379333496 74.62579345703125 L 24.8774356842041 74.33759307861328 L 2.010131597518921 61.22270584106445 L 24.8774356842041 48.10725784301758 L 25.37990379333496 47.81905746459961 L 25.37990379333496 47.23978805541992 L 25.37990379333496 0.9999897480010986 L 491.4884338378906 0.9999897480010986 L 491.4884338378906 46.30678939819336 L 491.4884338378906 46.88605499267578 L 491.9909057617188 47.17425537109375 L 516.4847412109375 61.22270202636719 L 491.9909057617188 75.27052307128906 L 491.4884338378906 75.55872344970703 L 491.4884338378906 76.13799285888672 L 491.4884338378906 129.0298614501953 Z" stroke="none"/>
      <path d="M 490.4884338378906 128.0298614501953 L 490.4884338378906 74.97945404052734 L 514.474853515625 61.22267150878906 L 490.4884338378906 47.46532440185547 L 490.4884338378906 1.999989748001099 L 26.37990379333496 1.999989748001099 L 26.37990379333496 48.39832305908203 L 4.020126819610596 61.22270584106445 L 26.37990379333496 74.04652404785156 L 26.37990379333496 128.0298614501953 L 490.4884338378906 128.0298614501953 M 492.4884338378906 130.0298614501953 L 24.37990379333496 130.0298614501953 L 24.37990379333496 75.20505523681641 L 0.0001031901047099382 61.22272491455078 L 24.37990379333496 47.23978805541992 L 24.37990379333496 -1.023762979457388e-05 L 492.4884338378906 -1.023762979457388e-05 L 492.4884338378906 46.30678939819336 L 518.4947509765625 61.22272491455078 L 492.4884338378906 76.13799285888672 L 492.4884338378906 130.0298614501953 Z" stroke="none" fill="red"/>
    </g>
  </g>
</svg>
