<svg xmlns="http://www.w3.org/2000/svg" xmlns:xlink="http://www.w3.org/1999/xlink" width="536.495" height="148.03" viewBox="0 0 536.495 148.03">
  <defs>
    <filter id="Unión_4" x="0" y="0" width="536.495" height="148.03" filterUnits="userSpaceOnUse">
      <feOffset dy="8" input="SourceAlpha"/>
      <feGaussianBlur stdDeviation="3" result="blur"/>
      <feFlood flood-opacity="0.161"/>
      <feComposite operator="in" in2="blur"/>
      <feComposite in="SourceGraphic"/>
    </filter>
    <clipPath id="clip-path">
      <rect id="Rectángulo_94" data-name="Rectángulo 94" width="65.506" height="84.159" fill="none"/>
    </clipPath>
  </defs>
  <g id="Grupo_124" data-name="Grupo 124" transform="translate(-693.107 -317.316)">
    <g transform="matrix(1, 0, 0, 1, 693.11, 317.32)" filter="url(#Unión_4)">
      <g id="Unión_4-2" data-name="Unión 4" transform="translate(9 1)" fill="#fff3cf">
        <path d="M 491.4884338378906 129.0298614501953 L 25.37990379333496 129.0298614501953 L 25.37990379333496 79.53999328613281 L 25.37990379333496 78.96072387695312 L 24.8774356842041 78.67252349853516 L 2.010128021240234 65.55763244628906 L 24.8774356842041 52.44212341308594 L 25.37990379333496 52.15392303466797 L 25.37990379333496 51.57465744018555 L 25.37990379333496 0.9999897480010986 L 491.4884338378906 0.9999897480010986 L 491.4884338378906 50.64165496826172 L 491.4884338378906 51.22092437744141 L 491.9909057617188 51.50912475585938 L 516.4847412109375 65.55763244628906 L 491.9909057617188 79.60545349121094 L 491.4884338378906 79.89365386962891 L 491.4884338378906 80.47292327880859 L 491.4884338378906 129.0298614501953 Z" stroke="none"/>
        <path d="M 490.4884338378906 128.0298614501953 L 490.4884338378906 79.31439208984375 L 514.474853515625 65.55760192871094 L 490.4884338378906 51.80018997192383 L 490.4884338378906 1.999989748001099 L 26.37990379333496 1.999989748001099 L 26.37990379333496 52.73318862915039 L 4.020061492919922 65.55760192871094 L 26.37990379333496 78.38145446777344 L 26.37990379333496 128.0298614501953 L 490.4884338378906 128.0298614501953 M 492.4884338378906 130.0298614501953 L 24.37990379333496 130.0298614501953 L 24.37990379333496 79.53999328613281 L 0.0001031901047099382 65.55765533447266 L 24.37990379333496 51.57465744018555 L 24.37990379333496 -1.023762979457388e-05 L 492.4884338378906 -1.023762979457388e-05 L 492.4884338378906 50.64165496826172 L 518.4947509765625 65.55765533447266 L 492.4884338378906 80.47292327880859 L 492.4884338378906 130.0298614501953 Z" stroke="none" fill="red"/>
      </g>
    </g>
    <g id="Grupo_66" data-name="Grupo 66" transform="translate(928.576 341.071)">
      <g id="Grupo_65" data-name="Grupo 65" clip-path="url(#clip-path)">
        <path id="Trazado_175" data-name="Trazado 175" d="M.058,273.243H65.534a20.086,20.086,0,0,0-2.767-9.881H2.826a20.123,20.123,0,0,0-2.768,9.881" transform="translate(-0.044 -199.248)" fill="#3d3d3d"/>
        <path id="Trazado_176" data-name="Trazado 176" d="M.014,303.952l-.005.141L0,304.278v9.838H65.506v-9.838l-.011-.185-.005-.141Z" transform="translate(0 -229.957)" fill="#e96247"/>
        <path id="Trazado_177" data-name="Trazado 177" d="M55.4,222.1c-.5-.039-1.007-.076-1.519-.076h-5.5a6.983,6.983,0,0,1-13.965,0h-5.5c-.511,0-1.016.037-1.518.076a20.27,20.27,0,0,0-15.89,9.845l-.08.141H71.369l-.081-.141A20.264,20.264,0,0,0,55.4,222.1" transform="translate(-8.646 -167.977)" fill="#e96247"/>
        <path id="Trazado_178" data-name="Trazado 178" d="M105.9,222.029h-.048a6.983,6.983,0,0,0,13.966,0h-.048a23.749,23.749,0,0,1-13.87,0" transform="translate(-80.084 -167.977)" fill="#fff"/>
        <path id="Trazado_179" data-name="Trazado 179" d="M17.8,31.395V33.16a5.6,5.6,0,0,0,5.694,5.475h.334A22.853,22.853,0,0,0,39.28,54.052a23.754,23.754,0,0,0,13.87,0A22.837,22.837,0,0,0,68.6,38.635h.338a5.593,5.593,0,0,0,5.69-5.475V31.395a5.53,5.53,0,0,0-4.479-5.336,20.673,20.673,0,0,0,.154-2.4l-.011-.229A14.218,14.218,0,0,0,70.2,21.61v0a21.473,21.473,0,0,0-3.658-10.124A21.777,21.777,0,0,0,62.9,7.4,21.5,21.5,0,0,0,49.223,2.075l-.267-.208a.833.833,0,0,0-.64-.291,1.306,1.306,0,0,0-.888.474h-.073C46.09.781,45.14,0,44.325,0h0a19.545,19.545,0,0,0-5.586,2.228c-.259.195-.55.444-.858.717A21.611,21.611,0,0,0,22.4,23.662c0,.15.012.3.015.444a17.251,17.251,0,0,0,.073,1.953,5.506,5.506,0,0,0-4.69,5.336m51.757-2.147a2.251,2.251,0,0,1,1.733,2.147V33.16a2.281,2.281,0,0,1-2.011,2.221,21.36,21.36,0,0,0,.178-2.639,19.943,19.943,0,0,0-.188-2.549c.1-.315.2-.627.288-.946m-42.983.64c.07-.434.165-.858.261-1.28,2.732-1.939,6.226-4.957,7.559-7.333,0,0,22.08,5.175,30.124,5.766.232.019.45.028.658.03a18.7,18.7,0,0,1,.686,2.817,17.22,17.22,0,0,1,.126,4.907,18.1,18.1,0,0,1-.7,3.36,20.112,20.112,0,0,1-38.134,0,17.6,17.6,0,0,1-.578-8.267m-5.425,1.507a2.267,2.267,0,0,1,1.962-2.2c0,.43.019.853.03,1.28a18.64,18.64,0,0,0-.159,2.268,21.217,21.217,0,0,0,.178,2.639,2.282,2.282,0,0,1-2.011-2.221Z" transform="translate(-13.463)" fill="#e96247"/>
        <path id="Trazado_180" data-name="Trazado 180" d="M93.471,121.366c0-2.741-3.6-4.965-8.036-4.965-.274,0-.547.01-.811.026l-9.577-.026H64.541c-4.439,0-8.037,2.224-8.037,4.965s3.6,4.964,8.037,4.964a11.773,11.773,0,0,0,4.517-.858l0,0a8.335,8.335,0,0,0,1.257-.659l4.942-2.588,4.316,2.535v0a10.8,10.8,0,0,0,5.859,1.574c4.438,0,8.036-2.221,8.036-4.964m-28.929,2.364c-3.374,0-5.437-1.531-5.437-2.364S61.167,119,64.541,119s5.434,1.531,5.434,2.365-2.064,2.364-5.434,2.364M80,121.366c0-.834,2.064-2.365,5.437-2.365s5.437,1.531,5.437,2.365-2.064,2.364-5.437,2.364S80,122.2,80,121.366" transform="translate(-42.748 -88.064)" fill="#3d3d3d"/>
      </g>
    </g>
  </g>
</svg>
