<svg xmlns="http://www.w3.org/2000/svg" xmlns:xlink="http://www.w3.org/1999/xlink" width="393.906" height="381.912" viewBox="0 0 393.906 381.912">
  <defs>
    <clipPath id="clip-path">
      <rect id="Rectángulo_84" data-name="Rectángulo 84" width="54.645" height="59.943" fill="none"/>
    </clipPath>
  </defs>
  <g id="Grupo_61" data-name="Grupo 61" transform="translate(-1497 -187.089)">
    <path id="Trazado_249" data-name="Trazado 249" d="M268.336,165.329c3.8-17.8,26.473-64.723,32.5-73.748H344.46a11.9,11.9,0,0,1,11.433,8.542c2.345,8.017,4.791,17.954,3.776,22.409-.57,2.5-9.806,29.98-15.073,46.116a124.656,124.656,0,0,0-5.243,23.683l-5.756,47.54L250.4,238.045s15.087-59.37,17.934-72.716" transform="translate(1526.828 197.997)" fill="#375a64"/>
    <path id="Trazado_250" data-name="Trazado 250" d="M264.461,165.329c3.8-17.8,10.673-41.335,13.255-51.872,2.4-9.784,6.777-14.329,14.316-19.5a13.564,13.564,0,0,1,7.67-2.373h41.914A10.323,10.323,0,0,1,351.192,98c3.323,8.185,5.7,19.714,4.6,24.529-.57,2.5-9.806,29.98-15.072,46.116a124.572,124.572,0,0,0-5.244,23.683l-5.756,47.54-83.194-1.826s15.088-59.37,17.934-72.716" transform="translate(1526.366 197.997)" fill="#1a2e35"/>
    <rect id="Rectángulo_82" data-name="Rectángulo 82" width="8.015" height="88.254" transform="translate(1762.368 465.063)" fill="#e1e1e1"/>
    <rect id="Rectángulo_83" data-name="Rectángulo 83" width="15.029" height="63.559" transform="translate(1759.028 483.184)" fill="#e1e1e1"/>
    <path id="Trazado_251" data-name="Trazado 251" d="M333.622,235.651s-48.651,15.566-83.783,15.566-75.649-15.566-75.649-15.566H335.824" transform="translate(1517.749 215.159)" fill="#e1e1e1"/>
    <path id="Trazado_252" data-name="Trazado 252" d="M343.719,216.535v12.2a10.276,10.276,0,0,1-10.276,10.276H181.468a10.276,10.276,0,0,1-.123-20.551Z" transform="translate(1517.392 212.882)" fill="#1a2e35"/>
    <path id="Trazado_253" data-name="Trazado 253" d="M325.658,326.129s-32.017-30.391-77.375-29.723-76.19,29.723-76.19,29.723l4.446,5.009s36.168-20.706,74.411-19.036S321.8,331.138,321.8,331.138Z" transform="translate(1517.5 222.395)" fill="#1a2e35"/>
    <path id="Trazado_254" data-name="Trazado 254" d="M301.161,326.9c-7.707,10.118,3.731,21.556,13.849,13.849,7.705-10.118-3.731-21.554-13.849-13.849" transform="translate(1532.573 225.727)" fill="#375a64"/>
    <path id="Trazado_255" data-name="Trazado 255" d="M232.421,333.342a9.453,9.453,0,1,0,9.453-9.453,9.452,9.452,0,0,0-9.453,9.453" transform="translate(1524.686 225.67)" fill="#375a64"/>
    <path id="Trazado_256" data-name="Trazado 256" d="M161.5,333.342a9.453,9.453,0,1,0,9.453-9.453,9.452,9.452,0,0,0-9.453,9.453" transform="translate(1516.238 225.67)" fill="#375a64"/>
    <path id="Trazado_257" data-name="Trazado 257" d="M277.63,175.239l-1.042,4.518H180.855a3.862,3.862,0,0,1-1.606-7.375c6.08-2.78,22.812-8.832,52.681-8.482,42.35.5,45.7,7.161,45.7,7.161Z" transform="translate(1518.083 206.61)" fill="#1a2e35"/>
    <path id="Trazado_258" data-name="Trazado 258" d="M205.88,174.744c.182,1.463,16.011,55.221,16.011,55.221h16.366l-15.805-55.221Z" transform="translate(1521.524 207.904)" fill="#1a2e35"/>
    <path id="Trazado_259" data-name="Trazado 259" d="M178.98,178.1c0,.152,21.534.275,48.092.275s48.1-.123,48.1-.275-21.53-.275-48.1-.275-48.092.123-48.092.275" transform="translate(1518.32 208.27)" fill="#375a64"/>
    <path id="Trazado_260" data-name="Trazado 260" d="M176.847,236.621a2.2,2.2,0,0,0,.373.153l1.111.4,4.29,1.483c3.72,1.307,9.161,3.032,15.938,4.976,3.407.907,7.114,2,11.173,2.862,2.027.438,4.1,1,6.278,1.378l6.706,1.227a169.752,169.752,0,0,0,30.241,2.123c2.693-.065,5.355-.1,7.967-.347l3.893-.292,1.923-.144,1.9-.226,7.42-.909,7.067-1.168c2.308-.347,4.53-.828,6.695-1.269l6.294-1.3c4.031-.971,7.8-1.825,11.212-2.7l9.19-2.458c2.7-.745,5.006-1.451,6.9-2l4.349-1.3,1.128-.35a2.294,2.294,0,0,0,.378-.138,2.2,2.2,0,0,0-.4.083l-1.142.3-4.377,1.2-6.921,1.908-9.2,2.378c-3.418.851-7.186,1.681-11.216,2.632l-6.289,1.271c-2.163.431-4.384.9-6.687,1.243l-7.056,1.149-7.4.892-1.895.223-1.918.142-3.881.288c-2.605.25-5.259.278-7.943.342A172.152,172.152,0,0,1,222.8,248.6q-3.435-.618-6.692-1.2c-2.173-.37-4.246-.921-6.27-1.349-4.055-.84-7.762-1.909-11.171-2.791-6.782-1.894-12.236-3.56-15.975-4.8l-4.321-1.383-1.129-.347a2.121,2.121,0,0,0-.391-.1" transform="translate(1518.066 215.274)" fill="#1a2e35"/>
    <path id="Trazado_261" data-name="Trazado 261" d="M234.138,264.613a51.5,51.5,0,0,0,7.514.275,51.5,51.5,0,0,0,7.514-.275,51.477,51.477,0,0,0-7.514-.275,51.477,51.477,0,0,0-7.514.275" transform="translate(1524.89 218.576)" fill="#1a2e35"/>
    <path id="Trazado_262" data-name="Trazado 262" d="M260.579,216.444c0,.161,16.185.291,36.144.291s36.148-.13,36.148-.291-16.18-.291-36.148-.291-36.144.13-36.144.291" transform="translate(1528.04 212.836)" fill="#375a64"/>
    <path id="Trazado_263" data-name="Trazado 263" d="M167.29,40.969c-.882-3.644-2.026-7.677-2.026-7.677l-.825-3.636a4.308,4.308,0,0,0-.6.453,2.786,2.786,0,0,1-1.186.741,2.225,2.225,0,0,1-2.155-1.31,5.446,5.446,0,0,1-.008-5.382,5.375,5.375,0,0,1,4.462-2.593,3.945,3.945,0,0,1,1.295-.823c3.26-1.278,7.437,1.629,7.437,1.629l-.111-1.312s-1.892-3.613-8.673-3.42a4.174,4.174,0,0,1-2.809-.937,2.121,2.121,0,0,1-.859-1.593c-.006-1.651,1.161-2.075,5.391-2.253S175,13.911,176.8,16.12a28.381,28.381,0,0,1,2.359,3.189s-.311-11.9-.3-12.652c.03-2.18,1.031-3.987,2.484-4.1.933-.072,2.167.528,2.209,3.069.037,2.2,3.273,24.687,3.273,24.687l.849,10.03-.644,8.386-14.462-.494-.856-.629a11.646,11.646,0,0,1-4.427-6.638" transform="translate(1516.034 187.392)" fill="#ffc09d"/>
    <path id="Trazado_264" data-name="Trazado 264" d="M184.32,37.239A3.119,3.119,0,0,1,181.1,35.6c-.692-1.1-.994-2.394-1.606-3.538-1.83-3.42-6.133-5.018-7.8-8.52-.232-.488-.366-1.163.059-1.49.394-.3.961-.072,1.4.167l11.3,6.09" transform="translate(1517.426 189.697)" fill="#ffc09d"/>
    <path id="Trazado_265" data-name="Trazado 265" d="M184.49,28.342a5.176,5.176,0,0,0-1.155-.783c-.767-.463-1.887-1.111-3.278-1.9l-4.9-2.732-1.424-.781a2.546,2.546,0,0,0-1.852-.506,1.068,1.068,0,0,0-.72.968,2.226,2.226,0,0,0,.2,1.03,8.422,8.422,0,0,0,.994,1.613c1.585,2,3.606,3.245,5.077,4.7a9.76,9.76,0,0,1,1.814,2.26c.439.789.719,1.619,1.058,2.36a4.557,4.557,0,0,0,2.647,2.769c.928.266,1.434-.049,1.406-.066a3.741,3.741,0,0,1-1.312-.2,4.416,4.416,0,0,1-2.267-2.7c-.3-.725-.548-1.573-1-2.445a10.03,10.03,0,0,0-1.876-2.452c-1.512-1.538-3.513-2.813-4.971-4.669a7.95,7.95,0,0,1-.9-1.454c-.222-.486-.2-.98.078-1.033.3-.1.817.175,1.3.441l1.434.759,4.978,2.594c1.422.73,2.58,1.309,3.386,1.694a5.126,5.126,0,0,0,1.288.534" transform="translate(1517.388 189.661)" fill="#ff9b6c"/>
    <path id="Trazado_266" data-name="Trazado 266" d="M173.706,21.176a5.333,5.333,0,0,0-.82-2.281,4.128,4.128,0,0,0-2.093-1.482,10.5,10.5,0,0,0-3.217-.43,16.679,16.679,0,0,1-3.358-.261A5.405,5.405,0,0,1,161.7,15.5a2.117,2.117,0,0,1-.7-1.753,1.227,1.227,0,0,1,.213-.655c.044.012-.03.246-.029.664a2,2,0,0,0,.742,1.5A5.361,5.361,0,0,0,164.3,16.3a18.384,18.384,0,0,0,3.277.213,10.181,10.181,0,0,1,3.354.494,4.311,4.311,0,0,1,2.225,1.7,3.832,3.832,0,0,1,.607,1.784,1.3,1.3,0,0,1-.06.683" transform="translate(1516.177 188.648)" fill="#ff9b6c"/>
    <path id="Trazado_267" data-name="Trazado 267" d="M176.893,5.47a13.412,13.412,0,0,1,.077,2.366c.011,1.622.026,3.557.041,5.694.048,2.138.091,4.071.128,5.694a13.406,13.406,0,0,1-.008,2.366,10.665,10.665,0,0,1-.325-2.35c-.126-1.457-.232-3.476-.265-5.708s.012-4.249.1-5.709a10.541,10.541,0,0,1,.255-2.354" transform="translate(1518.028 187.74)" fill="#ff9b6c"/>
    <path id="Trazado_268" data-name="Trazado 268" d="M170.843,23.056a2.877,2.877,0,0,1-.695-.261,2.192,2.192,0,0,0-1.826-.071,1.168,1.168,0,0,0-.6.995,6.288,6.288,0,0,0,.139,1.537,2.65,2.65,0,0,1-.247,1.866,2.237,2.237,0,0,1-1.793.959,2.575,2.575,0,0,1-1.872-.788,3.241,3.241,0,0,1-.908-1.646,10.4,10.4,0,0,1-.008-3.044,6.085,6.085,0,0,1,.567-1.964c.237-.431.459-.6.473-.584.032.029-.133.233-.307.661a7.238,7.238,0,0,0-.4,1.927,11.227,11.227,0,0,0,.1,2.92,2.563,2.563,0,0,0,2.337,2.046,1.79,1.79,0,0,0,1.425-.742,2.25,2.25,0,0,0,.2-1.556,6.263,6.263,0,0,1-.1-1.644,1.511,1.511,0,0,1,.833-1.24,2.3,2.3,0,0,1,2.055.2c.424.236.631.4.618.428" transform="translate(1516.408 189.477)" fill="#ff9b6c"/>
    <path id="Trazado_269" data-name="Trazado 269" d="M164.568,26.979c.022,0,.092.248-.054.673a2.032,2.032,0,0,1-1.356,1.234,2.753,2.753,0,0,1-2.614-.779,4.534,4.534,0,0,1-1.218-3.119,5.4,5.4,0,0,1,.958-3.185,5.117,5.117,0,0,1,2.088-1.723,4.851,4.851,0,0,1,1.765-.438,1.4,1.4,0,0,1,.664.059,8.421,8.421,0,0,0-2.282.678,5.063,5.063,0,0,0-1.877,1.67,5.152,5.152,0,0,0-.845,2.933,4.205,4.205,0,0,0,1.053,2.82,2.443,2.443,0,0,0,2.225.76,1.933,1.933,0,0,0,1.271-.985c.181-.359.181-.6.222-.6" transform="translate(1515.979 189.428)" fill="#ff9b6c"/>
    <path id="Trazado_270" data-name="Trazado 270" d="M171.446,33.761a1.927,1.927,0,0,1,1.135,0,4.5,4.5,0,0,1,2.5,1.474l-.4.121a13.525,13.525,0,0,1,.234-1.588,10.056,10.056,0,0,1,2.359-4.989,25.461,25.461,0,0,0-1.9,5.09c-.112.532-.191,1.052-.246,1.534l-.059.533-.337-.413a4.731,4.731,0,0,0-2.223-1.487c-.649-.2-1.068-.216-1.067-.279" transform="translate(1517.422 190.517)" fill="#ff9b6c"/>
    <path id="Trazado_272" data-name="Trazado 272" d="M248.991,83.931s-4.971-7.9-17.917-6.655c-9.094.873-36.609-2.354-36.609-2.354l-6.181-35.13L164.99,41.363l7,48.8a14.679,14.679,0,0,0,12.269,12.421l53.31,5.784Z" transform="translate(1516.654 191.828)" fill="#41749e"/>
    <path id="Trazado_273" data-name="Trazado 273" d="M185.349,82.123a18.292,18.292,0,0,0,4.008-4.954,18.285,18.285,0,0,0,2.587-5.825c-.162-.064-1.259,2.555-3.084,5.521-1.808,2.973-3.642,5.143-3.511,5.259" transform="translate(1519.078 195.587)" fill="#1a2e35"/>
    <path id="Trazado_274" data-name="Trazado 274" d="M161.177,295.475l9.246,27.829s-25.181,18.745-23.974,24.054l54.6-15.99-12.628-43.953Z" transform="translate(1514.44 221.325)" fill="#1a2e35"/>
    <g id="Grupo_55" data-name="Grupo 55" transform="translate(1660.847 508.741)" opacity="0.3">
      <g id="Grupo_54" data-name="Grupo 54">
        <g id="Grupo_53" data-name="Grupo 53" clip-path="url(#clip-path)">
          <path id="Trazado_275" data-name="Trazado 275" d="M161.177,295.475l9.246,27.829s-25.181,18.745-23.974,24.054l54.6-15.99-12.628-43.953Z" transform="translate(-146.407 -287.416)"/>
        </g>
      </g>
    </g>
    <path id="Trazado_276" data-name="Trazado 276" d="M182.567,312.954a2.323,2.323,0,0,1,2.287,2.093,2.234,2.234,0,0,1-2.055,2.285,2.449,2.449,0,0,1-2.411-2.229c.06-1.139,1.284-2.375,2.4-2.14" transform="translate(1518.488 224.365)" fill="#e1e1e1"/>
    <path id="Trazado_277" data-name="Trazado 277" d="M201.066,327.156l-1.446-4.38-51.812,16.969s-2.122,1.769-1.345,3.4Z" transform="translate(1514.426 225.537)"/>
    <path id="Trazado_278" data-name="Trazado 278" d="M178.927,300.4l1.152,29.3s-29.4,11.011-29.713,16.448l56.9-.192.078-45.731Z" transform="translate(1514.911 222.851)" fill="#1a2e35"/>
    <path id="Trazado_279" data-name="Trazado 279" d="M207.266,341.58l-.172-4.61-54.487,1.908s-2.529,1.11-2.237,2.894Z" transform="translate(1514.909 227.228)" fill="#1a2e35"/>
    <path id="Trazado_280" data-name="Trazado 280" d="M226.311,178.164s-66.711,15.471-75.175,27.273c-7.156,9.978,11.161,120.326,11.161,120.326l38.587-2.749-4.921-96.74,76.4-24.287-11.544-29.338Z" transform="translate(1514.806 207.654)" fill="#375a64"/>
    <path id="Trazado_281" data-name="Trazado 281" d="M240.777,180.863s-69.712,16.94-76.76,28.976c-3.29,5.618-1.133,24.058.1,32.763.828,5.864,13.155,87.928,13.155,87.928H207.4l-.658-92.689,72.433-14.6s38.882,2.962,40.393-13.621l-16.226-21.993-38.306-18.933Z" transform="translate(1516.33 207.183)" fill="#375a64"/>
    <path id="Trazado_282" data-name="Trazado 282" d="M246.092,177.665s-.346.081-1.013.264l-2.957.824-11.369,3.179c-4.935,1.383-10.976,3.069-17.957,5.147-6.971,2.1-14.894,4.577-23.472,7.827q-6.443,2.407-13.307,5.484l-3.457,1.567a34.092,34.092,0,0,0-3.4,1.887,22.262,22.262,0,0,0-3.168,2.387,11.454,11.454,0,0,0-2.537,3.169c-2.354,10.683-.928,22.359.814,34.3.763,6.013,1.741,12.145,2.665,18.421s1.895,12.678,2.869,19.2c1.952,13.042,3.973,26.544,6.043,40.373q.588,3.926,1.171,7.813l.032.218h.222l30.135,0h.255l0-.254c-.271-35.134-.517-66.945-.715-92.689l-.158.194L258.245,226.5l14.049-2.885,3.658-.767c.825-.176,1.245-.28,1.245-.28s-.428.066-1.256.223l-3.67.712-14.07,2.783L206.71,236.581l-.158.031v.162c.167,25.744.374,57.555.6,92.689l.252-.254-30.135,0,.254.218q-.583-3.883-1.171-7.811c-2.073-13.828-4.1-27.329-6.053-40.369q-1.467-9.78-2.882-19.2c-.928-6.274-1.911-12.407-2.68-18.414q-.608-4.5-1.2-8.89a78.371,78.371,0,0,1-.761-8.677q-.156-4.292.009-8.464c.056-1.388.138-2.763.255-4.124a10.2,10.2,0,0,1,.8-3.887,11.064,11.064,0,0,1,2.439-3.051,21.89,21.89,0,0,1,3.107-2.348,33.356,33.356,0,0,1,3.351-1.87l3.441-1.569q6.841-3.075,13.276-5.506c8.558-3.267,16.467-5.766,23.427-7.892,6.97-2.1,13-3.816,17.929-5.23l11.342-3.272,2.943-.873c.663-.2,1-.314,1-.314" transform="translate(1516.324 208.252)" fill="#1a2e35"/>
    <path id="Trazado_283" data-name="Trazado 283" d="M247.591,6.335c.172-4.735-3.036-5.374-5.507-4.829a8.377,8.377,0,0,0-10.3.562,7.45,7.45,0,0,0-11.018,6.488,6.4,6.4,0,0,0-6.385,3.512,6.4,6.4,0,0,0,1.323,7.167,6.2,6.2,0,0,0-3.75,7.1,6.2,6.2,0,0,0,6.682,4.445l29.052-19.347c1.742-1.834-.189-2.564-.1-5.092" transform="translate(1522.228 187.088)" fill="#1a2e35"/>
    <path id="Trazado_284" data-name="Trazado 284" d="M217.242,30.859A25.389,25.389,0,0,1,241.7,6.627l1.315-.047c14.2.325,21.853,12.562,21.137,26.746l-.374,47.251-.093,8.972-32.461,7.717-.329-18.7s-13.7-1.634-14.348-15.246c-.316-6.574.138-20.163.691-32.458" transform="translate(1522.783 187.872)" fill="#ffc09d"/>
    <path id="Trazado_285" data-name="Trazado 285" d="M229.26,71.51a33.052,33.052,0,0,0,17.657-5.857s-3.849,9.95-17.48,9.207Z" transform="translate(1524.309 194.909)" fill="#ff9b6c"/>
    <path id="Trazado_286" data-name="Trazado 286" d="M220.374,39.216a1.946,1.946,0,0,0,1.945,1.9,1.86,1.86,0,0,0,1.942-1.825,1.947,1.947,0,0,0-1.943-1.9,1.863,1.863,0,0,0-1.944,1.826" transform="translate(1523.251 191.542)" fill="#1a2e35"/>
    <path id="Trazado_287" data-name="Trazado 287" d="M219.875,34.991c.25.245,1.684-.9,3.777-.967,2.089-.1,3.664.923,3.881.659.107-.118-.154-.566-.84-1.03a5.34,5.34,0,0,0-3.118-.842,5.13,5.13,0,0,0-3,1.087c-.626.516-.827.983-.7,1.092" transform="translate(1523.187 190.996)" fill="#1a2e35"/>
    <path id="Trazado_288" data-name="Trazado 288" d="M236.458,39.079a1.945,1.945,0,0,0,1.945,1.895,1.859,1.859,0,0,0,1.942-1.824,1.947,1.947,0,0,0-1.943-1.9,1.863,1.863,0,0,0-1.944,1.826" transform="translate(1525.167 191.526)" fill="#1a2e35"/>
    <path id="Trazado_289" data-name="Trazado 289" d="M237.754,34.094c.251.245,1.687-.9,3.778-.966,2.089-.1,3.664.923,3.881.658.107-.118-.152-.566-.84-1.028a5.332,5.332,0,0,0-3.118-.842,5.133,5.133,0,0,0-3,1.086c-.624.517-.827.983-.705,1.092" transform="translate(1525.317 190.89)" fill="#1a2e35"/>
    <path id="Trazado_290" data-name="Trazado 290" d="M232.657,49.8a13.767,13.767,0,0,0-3.42-.492c-.536-.036-1.046-.124-1.149-.486a2.726,2.726,0,0,1,.3-1.6q.685-1.966,1.436-4.125c1.989-5.872,3.408-10.692,3.17-10.769s-2.041,4.617-4.029,10.488q-.717,2.172-1.369,4.147a3.093,3.093,0,0,0-.2,2.107,1.34,1.34,0,0,0,.906.75,3.613,3.613,0,0,0,.912.094,13.7,13.7,0,0,0,3.445-.118" transform="translate(1524.072 190.939)" fill="#1a2e35"/>
    <path id="Trazado_291" data-name="Trazado 291" d="M238.322,49.037c-.341-.008-.264,2.264-2.151,3.946s-4.314,1.516-4.321,1.834c-.026.144.555.424,1.578.414a5.654,5.654,0,0,0,3.611-1.4,4.937,4.937,0,0,0,1.659-3.3c.053-.951-.22-1.506-.376-1.487" transform="translate(1524.618 192.929)" fill="#1a2e35"/>
    <path id="Trazado_292" data-name="Trazado 292" d="M237.539,28.754c.269.535,2.054-.017,4.245-.059,2.189-.092,4.031.349,4.237-.2.088-.262-.3-.744-1.08-1.18a6.541,6.541,0,0,0-3.279-.741,6.285,6.285,0,0,0-3.183.939c-.732.481-1.06.985-.94,1.24" transform="translate(1525.293 190.253)" fill="#1a2e35"/>
    <path id="Trazado_293" data-name="Trazado 293" d="M220.117,29.828c.346.492,1.81.066,3.543.125,1.736,0,3.185.468,3.546-.013.159-.235-.05-.722-.67-1.2a5.142,5.142,0,0,0-5.712-.09c-.635.461-.86.94-.707,1.18" transform="translate(1523.215 190.403)" fill="#1a2e35"/>
    <path id="Trazado_294" data-name="Trazado 294" d="M218.135,24.738s3.288-8.655,7.33-10.792c4.893-2.586,7.23,2.8,11.926,1.307s9.367-3.976,14.346-.48c5.45,3.825,3.064,6.729,3.606,12.76,2.2,24.449,6.921,31.218,7.782,19.634.1-1.269,3.568-2.4,3.9-7.759.428-6.95.4-15.368-1.326-20.228-1.45-4.1-3.914-6.875-8.261-9.88-6.862-4.743-16.05-4.523-22.265-3.674s-17.984,8.454-17.036,19.111" transform="translate(1522.978 187.701)" fill="#1a2e35"/>
    <path id="Trazado_295" data-name="Trazado 295" d="M257.548,42.787a3.7,3.7,0,0,1,3.864-3.7c2.548.151,5.426,1.493,5.445,6.747.034,9.32-9.331,7.431-9.348,7.165-.011-.182.019-6.307.039-10.207" transform="translate(1527.674 191.743)" fill="#ffc09d"/>
    <path id="Trazado_296" data-name="Trazado 296" d="M259.311,49.158c.04-.03.163.113.438.238a1.628,1.628,0,0,0,1.214.02c.983-.365,1.806-1.932,1.845-3.611a5.351,5.351,0,0,0-.463-2.323,1.872,1.872,0,0,0-1.225-1.241.824.824,0,0,0-.956.449c-.124.261-.065.447-.114.462-.026.024-.2-.156-.126-.541a1.038,1.038,0,0,1,.364-.585,1.23,1.23,0,0,1,.9-.241,2.281,2.281,0,0,1,1.7,1.439,5.52,5.52,0,0,1,.573,2.6c-.054,1.879-1.008,3.639-2.355,4.034a1.739,1.739,0,0,1-1.486-.242c-.289-.229-.339-.438-.307-.454" transform="translate(1527.888 192.065)" fill="#ff9b6c"/>
    <path id="Trazado_297" data-name="Trazado 297" d="M260.794,29.126a8.837,8.837,0,0,1-3.88,1.961c-1.45.2-3.146-.581-3.445-2.016-.133-.645,0-1.4-.444-1.888-.53-.58-1.462-.358-2.238-.247a5.949,5.949,0,0,1-6.321-4.041c-.654,1.058-2.266,1.07-3.334.433a13.337,13.337,0,0,1-2.632-2.622,3.834,3.834,0,0,0-3.252-1.485,9.228,9.228,0,0,1-2.008.519c-1.229-.066-1.876-1.476-2.1-2.683s-.424-2.619-1.483-3.241c-.981-.577-2.212-.179-3.332.026s-2.581-.007-2.909-1.1a2.211,2.211,0,0,1,.357-1.7,6.034,6.034,0,0,1,7.035-2.536,8.178,8.178,0,0,1,14.959-2.117,8.3,8.3,0,0,1,13.367,2.553,6.164,6.164,0,0,1,6.355,1.907,6.164,6.164,0,0,1,.733,6.6,5.714,5.714,0,0,1,3.3,4.436c.1,1.925-1.706,3.912-3.582,3.47a3.332,3.332,0,0,1-5.641,3.525" transform="translate(1523.606 187.371)" fill="#1a2e35"/>
    <path id="Trazado_298" data-name="Trazado 298" d="M263.466,22.866a2.232,2.232,0,0,1-.516,1.81,2.994,2.994,0,0,1-1.826,1.18,3.228,3.228,0,0,1-2.681-.677l.392-.073a9.3,9.3,0,0,1-1.776,2.387,5.348,5.348,0,0,1-1.659,1.115,3.63,3.63,0,0,1-1.868.242,3.666,3.666,0,0,1-2.742-1.446,5.38,5.38,0,0,1-.823-1.91,1.836,1.836,0,0,1-.1-.75c.04-.01.128.243.3.688a6.287,6.287,0,0,0,.923,1.74,3.8,3.8,0,0,0,5.6-.067,9.38,9.38,0,0,0,1.7-2.239l.153-.28.238.207a2.832,2.832,0,0,0,2.27.636,2.752,2.752,0,0,0,1.654-.948,4.508,4.508,0,0,0,.767-1.614" transform="translate(1526.763 189.812)" fill="#375a64"/>
    <path id="Trazado_299" data-name="Trazado 299" d="M229.589,80.214l-4.166,8.415,15,84.923-8.293,10.232,79.649,37.587s6.073-34.376,3.025-57.606c-3.025-23.042-10.9-49.108-19.6-69.334-3.5-8.14-13.741-16.035-22.049-19.743-.543-.243-1.095-.448-1.657-.639l-8.76-4.03L230.667,87.9Z" transform="translate(1523.852 195.429)" fill="#41749e"/>
    <path id="Trazado_300" data-name="Trazado 300" d="M225.67,89.126a4.111,4.111,0,0,0,.074.746c.079.534.182,1.24.312,2.123.283,1.842.723,4.5,1.307,7.783,1.158,6.564,2.91,15.6,4.988,25.555s4.069,18.943,5.542,25.442c.74,3.205,1.343,5.818,1.775,7.688q.317,1.3.509,2.084a4.143,4.143,0,0,0,.212.72,4.083,4.083,0,0,0-.11-.742c-.105-.529-.243-1.229-.415-2.105-.393-1.878-.942-4.5-1.616-7.723-1.39-6.565-3.291-15.546-5.393-25.469-2.077-9.95-3.884-18.972-5.133-25.516-.612-3.232-1.111-5.866-1.467-7.751-.17-.876-.306-1.577-.407-2.107a4.125,4.125,0,0,0-.177-.729" transform="translate(1523.881 197.705)" fill="#1a2e35"/>
    <path id="Trazado_301" data-name="Trazado 301" d="M294.022,193.194a3.086,3.086,0,0,0-.459-.469l-1.383-1.271c-.6-.553-1.345-1.218-2.24-1.953s-1.888-1.608-3.05-2.492c-2.282-1.821-5.1-3.867-8.3-6.012-3.228-2.116-6.864-4.315-10.8-6.406-3.949-2.069-7.817-3.829-11.387-5.3-3.582-1.438-6.86-2.605-9.651-3.46-1.384-.461-2.664-.793-3.777-1.111s-2.083-.564-2.877-.748l-1.83-.423a3.164,3.164,0,0,0-.647-.114,3.157,3.157,0,0,0,.621.215l1.8.516c.787.214,1.746.481,2.848.83s2.373.7,3.747,1.181c2.769.9,6.022,2.1,9.582,3.553,3.548,1.488,7.394,3.254,11.327,5.316,3.92,2.083,7.548,4.259,10.779,6.347,3.212,2.116,6.038,4.124,8.342,5.9,1.172.863,2.182,1.709,3.089,2.426s1.674,1.353,2.293,1.882l1.446,1.2a3.085,3.085,0,0,0,.527.392" transform="translate(1525.305 206.556)" fill="#1a2e35"/>
    <path id="Trazado_302" data-name="Trazado 302" d="M252.632,164.011c-.068.125,7.435,4.341,16.757,9.417s16.936,9.092,17,8.966-7.433-4.34-16.758-9.417-16.933-9.091-17-8.966" transform="translate(1527.093 206.625)" fill="#1a2e35"/>
    <path id="Trazado_303" data-name="Trazado 303" d="M281,109.555c-4.79,20.695-19.426,39.242-38.918,47.682A461.666,461.666,0,0,0,281,109.555" transform="translate(1525.836 200.138)" fill="#1f4763"/>
    <path id="Trazado_304" data-name="Trazado 304" d="M289.462,114.367s-37.473,51.009-43.333,51.009H191.381V144.636l41.405-9.765s20.389-42.19,24.9-47.6,16.573-12.676,25.589-4.563,6.19,31.659,6.19,31.659" transform="translate(1519.797 196.508)" fill="#41749e"/>
    <path id="Trazado_305" data-name="Trazado 305" d="M196.645,141.589l-8.967-.72s-.2-3.328-2.154-4.5-1.763-3.72-2.937-3.524a5.094,5.094,0,0,1-1.958-.011l-7.441-6.255-6.266-4.112-4.9-.979s-2.937.783,0,3.524l3.134,1.763,2.741,2.741-6.265-3.075a2.13,2.13,0,0,0-1.849-.015,26.582,26.582,0,0,0-4.81,2.7,1.357,1.357,0,0,0,0,1.958l-2.741,2.35s-.588,3.132,2.545,2.349l2.546-.588,3.328,3.329s-11.357-2.35-12.139-1.958-1.763,2.154,0,3.721,8.615,1.174,10.182,2.741,11.922,11.023,14.468,11.611,23.439,5.691,23.439,5.691Z" transform="translate(1514.573 201.559)" fill="#ffc09d"/>
    <path id="Trazado_306" data-name="Trazado 306" d="M151.736,132.57a13.14,13.14,0,0,0,1.541-1.092c.469-.342,1.03-.75,1.661-1.181.316-.217.651-.435,1-.648a2.266,2.266,0,0,1,1.05-.431,6.379,6.379,0,0,1,2.188.909c.675.365,1.272.711,1.774,1a8.63,8.63,0,0,0,1.657.912,5.848,5.848,0,0,0-1.462-1.218c-.48-.336-1.065-.72-1.736-1.112-.337-.2-.688-.4-1.069-.594a3.22,3.22,0,0,0-1.335-.415,1.157,1.157,0,0,0-.408.048,3.158,3.158,0,0,0-.342.139c-.2.1-.4.214-.579.327-.363.229-.7.461-1.014.692-.627.46-1.169.9-1.614,1.284-.892.76-1.375,1.323-1.315,1.377" transform="translate(1515.074 202.419)" fill="#ff9b6c"/>
    <path id="Trazado_307" data-name="Trazado 307" d="M176.312,130.957c-.088.12.847.924,1.929,1.971s1.977,1.918,2.088,1.814a6.689,6.689,0,0,0-1.731-2.183,5.8,5.8,0,0,0-2.286-1.6" transform="translate(1518.001 202.686)" fill="#ff9b6c"/>
    <path id="Trazado_308" data-name="Trazado 308" d="M257.711,86.4a24.845,24.845,0,0,0-2.168,3.158c-1.3,2.14-3.119,5.333-5.317,9.476-4.413,8.278-10.487,20.267-17.606,34.872l.143-.115c-12.21,2.869-26.281,6.174-41.412,9.729l-.195.046v.2c0,6.672,0,13.63,0,20.74v.259h2.742l46.531-.021,5.295,0a4.124,4.124,0,0,0,.687-.03,2.565,2.565,0,0,0,.671-.226,7.651,7.651,0,0,0,1.145-.685,22.554,22.554,0,0,0,1.994-1.643,96.407,96.407,0,0,0,6.827-7.137c4.2-4.783,7.928-9.392,11.3-13.62,6.728-8.471,11.99-15.465,15.609-20.311,1.785-2.424,3.176-4.31,4.132-5.608.457-.636.808-1.124,1.056-1.471s.346-.511.346-.511-.139.159-.387.48l-1.1,1.44c-.974,1.285-2.39,3.151-4.21,5.549-3.666,4.808-8.972,11.768-15.733,20.2-3.39,4.211-7.131,8.8-11.338,13.565a95.977,95.977,0,0,1-6.81,7.082,21.713,21.713,0,0,1-1.956,1.606,7.307,7.307,0,0,1-1.071.641,2.146,2.146,0,0,1-1.167.209l-5.295,0-46.531-.02h-2.486l.257.256c0-7.11,0-14.067,0-20.74l-.195.246,41.4-9.8.1-.022.045-.092c7.075-14.621,13.094-26.637,17.438-34.943,2.164-4.159,3.951-7.366,5.21-9.525.649-1.068,1.126-1.9,1.514-2.412.366-.528.543-.814.543-.814" transform="translate(1519.77 197.38)" fill="#1a2e35"/>
    <path id="Trazado_309" data-name="Trazado 309" d="M255.493,83.636c.035.088,1.281-.417,3.381-.894a27.089,27.089,0,0,1,3.729-.564,26.493,26.493,0,0,1,9.147.864,26.959,26.959,0,0,1,3.558,1.252c1.973.861,3.1,1.59,3.153,1.51a3.315,3.315,0,0,0-.753-.572,17.6,17.6,0,0,0-2.248-1.269,23.4,23.4,0,0,0-3.58-1.378,24.633,24.633,0,0,0-9.317-.88,23.458,23.458,0,0,0-3.775.684,17.5,17.5,0,0,0-2.445.825,3.343,3.343,0,0,0-.848.422" transform="translate(1527.434 196.808)" fill="#1a2e35"/>
    <path id="Trazado_310" data-name="Trazado 310" d="M235.841,138.279a18.864,18.864,0,0,0-6.869-8.617c-.1.119,1.788,1.734,3.675,4.116,1.9,2.37,3.055,4.572,3.194,4.5" transform="translate(1524.275 202.533)" fill="#1a2e35"/>
    <path id="Trazado_311" data-name="Trazado 311" d="M237.049,131.976a10.85,10.85,0,0,0-7.636-2.732c-.012.153,1.811.348,3.909,1.109,2.105.743,3.639,1.749,3.727,1.623" transform="translate(1524.328 202.475)" fill="#1a2e35"/>
    <path id="Trazado_312" data-name="Trazado 312" d="M253.925,177.024c.182,1.463,16.012,46.633,16.012,46.633H286.3L270.5,177.024Z" transform="translate(1527.247 208.175)" fill="#1a2e35"/>
    <path id="Trazado_313" data-name="Trazado 313" d="M227.485,174.575c6.235-2.817,22.928-8.74,52.49-8.395,28.936.339,39.665,3.558,43.558,5.563a3.972,3.972,0,0,1,2.141,3.542v4.733a2.119,2.119,0,0,1-2.122,2.12l-94.653-.1a3.865,3.865,0,0,1-3.863-3.825,4.023,4.023,0,0,1,2.449-3.637" transform="translate(1523.806 206.882)" fill="#1a2e35"/>
    <path id="Trazado_314" data-name="Trazado 314" d="M227.493,174.6a2.586,2.586,0,0,0-.506.236,4.173,4.173,0,0,0-1.229,1.084,3.75,3.75,0,0,0-.787,2.528,3.958,3.958,0,0,0,3.892,3.738l2.38.017,5.4.03,13.152.057,34.237.1,20.217.039,10.693.016,5.47.007,2.762,0a2.884,2.884,0,0,0,1.483-.263,2.4,2.4,0,0,0,1.084-1.114,3.044,3.044,0,0,0,.235-1.486V175.44a4.334,4.334,0,0,0-.882-2.741,4.155,4.155,0,0,0-1.072-.988,11.759,11.759,0,0,0-1.255-.631,47.653,47.653,0,0,0-10.373-2.791,165.994,165.994,0,0,0-20.145-1.99c-6.443-.294-12.57-.4-18.309-.311s-11.074.483-15.923,1.014a117.817,117.817,0,0,0-22.624,4.55,52.855,52.855,0,0,0-7.9,3.047s.181-.057.522-.195l1.515-.6c1.333-.525,3.322-1.249,5.928-2.031a121.716,121.716,0,0,1,22.6-4.358c4.839-.5,10.164-.865,15.887-.941s11.845.056,18.274.365a166.957,166.957,0,0,1,20.073,2.016,47.277,47.277,0,0,1,10.238,2.76c3.949,1.063,2.783,6.063,2.681,9.216a1.824,1.824,0,0,1-.823.845,2.289,2.289,0,0,1-1.219.2l-2.762,0-5.469,0-10.694-.007-20.217,0-34.236.026-13.153.029-5.4.018c-1.647-.04-3.236.242-4.358-.571a3.77,3.77,0,0,1-1.742-2.919,3.649,3.649,0,0,1,.708-2.445,4.869,4.869,0,0,1,1.641-1.391" transform="translate(1523.797 206.857)" fill="#375a64"/>
    <rect id="Rectángulo_85" data-name="Rectángulo 85" width="11.635" height="195.453" transform="translate(1794.668 373.042)" fill="#375a64"/>
    <path id="Trazado_315" data-name="Trazado 315" d="M266.013,361.681s.013-.351.019-1.017.011-1.663.019-2.952c.009-2.6.022-6.414.039-11.33.019-9.842.048-24.081.083-41.735.029-35.28.069-84.195.114-138.782l-.274.272h11.635l-.275-.272c.087,91.528.162,169.155.188,195.817l.087-.086-8.741.049-2.167.02c-.481.007-.727.017-.727.017s.225.011.7.017l2.146.02,8.792.049h.087v-.086c.026-26.662.1-104.288.188-195.817v-.272H265.738v.272c.045,54.667.085,103.651.114,138.982.035,17.627.063,31.846.083,41.672.017,4.888.03,8.682.039,11.267q.012,1.91.019,2.916c.006.654.019.979.019.979" transform="translate(1528.655 206.813)" fill="#1a2e35"/>
    <rect id="Rectángulo_86" data-name="Rectángulo 86" width="11.226" height="198.158" transform="translate(1524.407 370.38)" fill="#375a64"/>
    <rect id="Rectángulo_87" data-name="Rectángulo 87" width="11.226" height="205.224" transform="translate(1641.833 363.314)" fill="#375a64"/>
    <path id="Trazado_316" data-name="Trazado 316" d="M24.518,362.028s.012-.355.019-1.03.01-1.683.018-2.988c.009-2.632.021-6.493.038-11.47.019-9.961.046-24.375.079-42.247.028-35.713.067-85.227.111-140.484l-.265.275H35.744l-.265-.276c.085,92.651.157,171.23.181,198.218l.084-.087-8.434.05-2.091.02c-.463.007-.7.017-.7.017s.217.011.673.017l2.071.02,8.482.05h.084v-.088c.025-26.989.1-105.568.181-198.218v-.275H24.253v.274c.044,55.337.083,104.923.111,140.688.034,17.842.062,32.235.079,42.182.017,4.949.029,8.788.038,11.406.008,1.288.015,2.274.018,2.951s.019.991.019.991" transform="translate(1499.889 206.568)" fill="#1a2e35"/>
    <rect id="Rectángulo_88" data-name="Rectángulo 88" width="393.802" height="12.208" transform="translate(1497.104 361.516)" fill="#375a64"/>
    <path id="Trazado_317" data-name="Trazado 317" d="M.071,168.1c0-.447.022-3.928.071-12.208l-.071.065,392.941.206h.02l-.291-.271V168.1l.291-.271-278.271.111-83.927.083-22.8.039-5.932.019c-1.338.007-2.035.019-2.035.019s.668.013,1.993.019l5.894.019,22.726.039,83.86.083,278.487.111h.291V155.619h-.311L.071,155.825H0v.066c.019,4.186.032,7.242.041,9.26S.071,168.1.071,168.1" transform="translate(1497 205.625)" fill="#1a2e35"/>
    <path id="Trazado_318" data-name="Trazado 318" d="M190.686,167.718a32.637,32.637,0,0,0,.271-5.928,32.627,32.627,0,0,0-.271-5.928,32.625,32.625,0,0,0-.271,5.928,32.635,32.635,0,0,0,.271,5.928" transform="translate(1519.682 205.654)" fill="#1a2e35"/>
    <path id="Trazado_319" data-name="Trazado 319" d="M74.757,105.233l60.485-.286a2.206,2.206,0,0,1,1.93,1.248l12.9,50.452,45.614-.076a2.575,2.575,0,0,1,2.444,2.566A2.607,2.607,0,0,1,195.664,162l-46.541-.369L86.1,161.7,72.79,110.387c-1.149-3.831-.831-5.214,1.966-5.154" transform="translate(1505.596 199.589)" fill="#e1e1e1"/>
    <path id="Trazado_320" data-name="Trazado 320" d="M107.592,128.081c1.539,1.892,1.575,4.637.082,6.132s-3.953,1.172-5.49-.72-1.575-4.638-.082-6.132,3.952-1.173,5.49.72" transform="translate(1509.032 202.147)" fill="#fff"/>
    <path id="Trazado_321" data-name="Trazado 321" d="M125.28,105c-.156.043,3.23,12.75,7.559,28.378s7.967,28.268,8.123,28.225-3.23-12.747-7.561-28.381-7.966-28.264-8.12-28.222" transform="translate(1511.923 199.596)" fill="#1a2e35"/>
  </g>
</svg>
