<svg id="Grupo_64" data-name="Grupo 64" xmlns="http://www.w3.org/2000/svg" xmlns:xlink="http://www.w3.org/1999/xlink" width="311.999" height="579.468" viewBox="0 0 311.999 579.468">
  <defs>
    <clipPath id="clip-path">
      <rect id="Rectángulo_83" data-name="Rectángulo 83" width="311.999" height="579.468" fill="none"/>
    </clipPath>
    <clipPath id="clip-path-3">
      <rect id="Rectángulo_80" data-name="Rectángulo 80" width="66.861" height="39.712" fill="none"/>
    </clipPath>
    <clipPath id="clip-path-4">
      <rect id="Rectángulo_81" data-name="Rectángulo 81" width="18.514" height="72.11" fill="none"/>
    </clipPath>
  </defs>
  <g id="Grupo_63" data-name="Grupo 63" clip-path="url(#clip-path)">
    <g id="Grupo_62" data-name="Grupo 62">
      <g id="Grupo_61" data-name="Grupo 61" clip-path="url(#clip-path)">
        <path id="Trazado_220" data-name="Trazado 220" d="M112.008,413.193c21.77-87.55,42.948-174.059,42.948-174.059L172.6,413.193h61.76L230.437,219.7c0-29.708-29.723-79.372-29.723-79.372L84.67,141.923,45.078,413.193Z" transform="translate(53.412 166.275)" fill="#1a2e35"/>
        <path id="Trazado_221" data-name="Trazado 221" d="M98.86,238.077a3.591,3.591,0,0,0,.492-.9c.282-.607.7-1.5,1.2-2.676a94.773,94.773,0,0,0,3.485-10.208,103.712,103.712,0,0,0,3.356-35.321c-.234-3.478-.708-6.847-1.245-10.09-.592-3.253-1.418-6.308-2.239-9.2-1.652-5.792-3.373-10.924-4.853-15.222s-2.76-7.745-3.673-10.116c-.43-1.077-.789-1.973-1.086-2.718a3.462,3.462,0,0,0-.457-.92,3.544,3.544,0,0,0,.24,1c.243.765.535,1.685.885,2.788.843,2.589,1.964,6.039,3.328,10.223,1.379,4.322,3.02,9.474,4.6,15.248.791,2.886,1.591,5.934,2.152,9.115.518,3.2.979,6.544,1.21,9.983a109.5,109.5,0,0,1-3,35.03c-1.1,4.392-2.314,7.852-3.122,10.256a27.513,27.513,0,0,0-1.274,3.734" transform="translate(111.175 166.716)" fill="#375a64"/>
        <path id="Trazado_222" data-name="Trazado 222" d="M110.705,157.731a4.2,4.2,0,0,0-.072.693c-.028.527-.063,1.154-.1,1.914-.076,1.779-.179,4.169-.308,7.145-.218,6.209-.522,14.846-.885,25.172l.3-.439-18.08,7.367.5.039c-4.654-2.834-9.594-5.842-14.682-8.938q-.482-.292-.955-.581l.271.435c-1.106-11.943-2.146-23.162-3.044-32.852l-.5.546,27.034-.256,7.706-.131,2.067-.057a4.369,4.369,0,0,0,.749-.057,22.309,22.309,0,0,0-2.607-.114l-7.59-.131-27.359-.256-.546,0,.048.551c.859,9.692,1.851,20.916,2.908,32.863l.024.286.247.149q.472.288.955.581c5.093,3.087,10.04,6.087,14.7,8.91l.238.146.258-.107c6.456-2.681,12.541-5.207,18.032-7.488l.3-.122,0-.317c.16-10.459.295-19.209.391-25.5.02-2.932.037-5.285.05-7.038a20.04,20.04,0,0,0-.05-2.41" transform="translate(86.026 186.294)" fill="#375a64"/>
        <path id="Trazado_223" data-name="Trazado 223" d="M140.034,153.089c-.028.044.083.889.31,2.432.256,1.663.594,3.874,1.016,6.618.931,5.755,2.222,13.732,3.765,23.267l.188-.474-13.658,10.129.476-.09-16.6-4.621-.85-.234.4.389c-3.177-10.824-6.159-20.992-8.735-29.771l-.369.627c10.026-2.39,18.451-4.4,24.53-5.851l6.987-1.726c1.628-.411,2.515-.649,2.545-.695a19.742,19.742,0,0,0-2.388.428c-1.735.363-4.051.846-6.93,1.444-6.185,1.346-14.761,3.207-24.964,5.425l-.518.114.149.513c2.537,8.79,5.475,18.971,8.6,29.808l.087.306.308.085.848.234,16.612,4.584.26.072.216-.162c4.855-3.657,9.441-7.11,13.583-10.227l.243-.181-.055-.293c-1.77-9.629-3.249-17.687-4.317-23.5-.518-2.681-.933-4.84-1.245-6.463a17.1,17.1,0,0,0-.489-2.191" transform="translate(124.689 181.384)" fill="#375a64"/>
        <path id="Trazado_224" data-name="Trazado 224" d="M77.735,182.076c-.068.308,8.882,2.51,19.985,4.923s20.16,4.116,20.228,3.81-8.879-2.51-19.987-4.923-20.158-4.116-20.225-3.81" transform="translate(92.107 215.697)" fill="#375a64"/>
        <path id="Trazado_225" data-name="Trazado 225" d="M104.465,187c0,.144,1.969.238,5.128,0a84.592,84.592,0,0,0,12.216-1.916,82.931,82.931,0,0,0,11.829-3.612c2.945-1.171,4.669-2.113,4.612-2.242-.07-.157-1.9.518-4.883,1.486s-7.145,2.2-11.811,3.258-8.941,1.794-12.05,2.226-5.047.631-5.041.8" transform="translate(123.779 212.341)" fill="#375a64"/>
        <path id="Trazado_226" data-name="Trazado 226" d="M129.968,10.256c-1.621,4.678,3.922,8.663,8.748,9.771s10.673,1.8,12.884,6.229c1.916,3.841-.026,8.722,1.717,12.646,3.321,7.464,16.73,5.9,19.358,13.64,1.8,5.309-3.179,10.782-2.556,16.354.538,4.8,4.934,8.067,8.79,10.972s7.911,6.917,7.3,11.707c-.7,5.534-7.457,9.367-6.839,14.91.61,5.456,7.968,8,9.028,13.387,1.256,6.391-6.747,10.5-9.319,16.485-1.964,4.573-.752,10.461-4.07,14.169-3.4,3.8-9.437,3.054-14.425,2q-24.868-5.27-49.737-10.544c3.363-7.861.2-17.062-4.593-24.141S95.084,104.778,90.965,97.284,85.5,79.766,90.887,73.13" transform="translate(103.489 12.152)" fill="#1a2e35"/>
        <path id="Trazado_227" data-name="Trazado 227" d="M66.912,35.325c.284.035.033-3.2,1.63-7.855a7.858,7.858,0,0,1,1.99-3.227c.979-.931,2.257-.341,3.068,1,1.61,2.652,2.154,6.367,2.191,10.079-.037,3.714-.581,7.431-2.191,10.083-.811,1.342-2.089,1.931-3.07,1a7.926,7.926,0,0,1-1.99-3.229c-1.595-4.656-1.344-7.887-1.628-7.852a6.069,6.069,0,0,0-.17,2.2,21,21,0,0,0,.935,5.956,8.51,8.51,0,0,0,2.167,3.751,2.672,2.672,0,0,0,2.646.618,4.351,4.351,0,0,0,2.1-1.781c1.907-3.044,2.434-6.854,2.5-10.745-.063-3.889-.588-7.7-2.5-10.741a4.351,4.351,0,0,0-2.1-1.781,2.672,2.672,0,0,0-2.646.618,8.492,8.492,0,0,0-2.167,3.749,21.023,21.023,0,0,0-.935,5.958,6.069,6.069,0,0,0,.17,2.2" transform="translate(79.077 26.855)" fill="#1a2e35"/>
        <path id="Trazado_228" data-name="Trazado 228" d="M118.325,103.506c9-15.2,11.576-35.456,13.85-52.977,1.071-8.246,2.952-19.985-2.847-25.144-6.212-5.526-6.81-14.044-13.946-18.307S98.563,2.461,91.831,7.34" transform="translate(108.809 4.48)" fill="#1a2e35"/>
        <path id="Trazado_229" data-name="Trazado 229" d="M119.7,152.8h0a24.4,24.4,0,0,1-26.313-23.315c-.551-13.28-1.033-26.7-1.033-26.7s-20.129-1.827-21.648-21.74-.985-65.892-.985-65.892a69.4,69.4,0,0,1,70.15,4.306l-1.038,70.1.111,37.709c-.1,12.648-6.635,24.532-19.244,25.537" transform="translate(82.503 9.043)" fill="#c98a7b"/>
        <path id="Trazado_230" data-name="Trazado 230" d="M99.574,65.71c3.424-4.267,9-5.978,13.6-3.011a11.574,11.574,0,0,1,3.9,14.462,15.25,15.25,0,0,1-9.749,7.418,7.647,7.647,0,0,0-5.965,8.252c.588,5,8.91,6.85,12.675,10.977,5.858,6.419,18.676,9.1,27.309,10.1,8.486.977,7.461,1.062,12.377-5.923,3.574-5.084,4.687-9.97,4.8-16.183q.393-22.03.784-44.056c.094-5.294.181-10.656-1.051-15.805s-3.944-10.149-8.375-13.046c-4.855-3.175-10.99-3.428-16.513-5.2-6.9-2.211-12.777-6.771-19.24-10.053S99.74-1.587,93.271,1.684c-4.645,2.349-7.748,7-12.264,9.585-6.428,3.682-15.2,2.875-18.294,12.351a16.058,16.058,0,0,0,.135,10.127c4.4,12.873,20.378,18.021,31.856,12.417.232,2.183-1.9,7.046.415,13.933.741,2.2,1.012,5.561,4.455,5.613" transform="translate(73.414 0)" fill="#1a2e35"/>
        <path id="Trazado_231" data-name="Trazado 231" d="M80.88,41.005c-.083.031-.081.378.277.861a2.968,2.968,0,0,0,2.22,1.1c2.231.2,5.067-2.2,5.15-5.51a5.753,5.753,0,0,0-1.479-4.21,5.939,5.939,0,0,0-3.122-1.787c-2.052-.422-3.231.336-3.146.465.05.227,1.228-.1,2.871.5A5,5,0,0,1,87.1,37.391c-.063,2.6-2.139,4.5-3.734,4.571-1.667.1-2.349-1.084-2.491-.957" transform="translate(95.709 37.126)" fill="#ae4f32"/>
        <path id="Trazado_232" data-name="Trazado 232" d="M66.8,28.071c-.059.352,5.943,1.628,13.4,2.849s13.553,1.927,13.61,1.573-5.941-1.628-13.4-2.849S66.852,27.719,66.8,28.071" transform="translate(79.144 33.154)" fill="#1a2e35"/>
        <path id="Trazado_233" data-name="Trazado 233" d="M132.552,82.176c-1,2.537-4.293,3.5-6.922,2.777s-4.724-2.652-6.692-4.538-4.027-3.845-6.633-4.636c-5.314-1.612-11.814,1.931-16.282-1.366-4.068-3-3.537-9.795-7.533-12.893-2.119-1.645-5.075-1.855-7.234-3.45-4.038-2.985-3.371-9.646.022-13.347s8.5-5.2,13.334-6.542l42.8,18.242Z" transform="translate(92.982 45.24)" fill="#1a2e35"/>
        <path id="Trazado_234" data-name="Trazado 234" d="M79.953,22.924c-.011.02.109.107.356.262a10.908,10.908,0,0,0,1.132.634,22.906,22.906,0,0,0,4.687,1.691A54.127,54.127,0,0,0,93.9,26.745a78.441,78.441,0,0,1,10.214,1.411c3.651.863,7.719,2.416,10.568,5.772,2.891,3.349,3.968,8.169,6.2,12.825a16.625,16.625,0,0,0,4.984,6.275,26.119,26.119,0,0,0,7.45,3.671c5.259,1.763,11.047,2.821,15.427,6.535a11.049,11.049,0,0,1,3.95,7,48.23,48.23,0,0,1,.007,8.313c-.072,2.77.135,5.748,1.595,8.206a15.215,15.215,0,0,0,5.772,5.569c4.477,2.635,9.168,4.031,12.913,6.419a15.134,15.134,0,0,1,4.608,4.25,11.209,11.209,0,0,1,1.746,5.451c.205,3.747-.78,7.145-1.392,10.123a26.436,26.436,0,0,0-.714,7.863,11.148,11.148,0,0,0,1.427,4.785,5.6,5.6,0,0,0,1.082,1.366,11.868,11.868,0,0,1-2.006-6.185,27.041,27.041,0,0,1,.918-7.665c.671-2.958,1.748-6.36,1.6-10.341a12.1,12.1,0,0,0-1.82-5.936,16.107,16.107,0,0,0-4.872-4.617c-3.889-2.521-8.593-3.966-12.869-6.533a14.062,14.062,0,0,1-5.307-5.143c-1.289-2.183-1.488-4.87-1.411-7.579a48.644,48.644,0,0,0,0-8.539,12.343,12.343,0,0,0-4.383-7.791c-4.746-4-10.741-5.032-15.862-6.753a25.025,25.025,0,0,1-7.114-3.456,15.433,15.433,0,0,1-4.656-5.816c-2.191-4.442-3.317-9.395-6.454-12.993s-7.435-5.139-11.182-5.969a75.253,75.253,0,0,0-10.352-1.239,58.852,58.852,0,0,1-7.726-1,34.934,34.934,0,0,1-6.288-2.1" transform="translate(94.735 27.151)" fill="#375a64"/>
        <path id="Trazado_235" data-name="Trazado 235" d="M85.231,26.266c0,.14,1.536,0,4.167.6A18.941,18.941,0,0,1,99,32.6a17.348,17.348,0,0,1,3.821,6.688c.839,2.652.793,5.718.782,8.941.022,3.2-.131,6.793,1.479,10.219a10.416,10.416,0,0,0,3.736,4.2,45.219,45.219,0,0,0,4.936,2.639,12.824,12.824,0,0,1,4.256,3.026,7.639,7.639,0,0,1,1.671,4.584c.234,3.321-.492,7.022,1.145,10.2a16.81,16.81,0,0,0,6.657,6.6c2.513,1.5,4.949,2.6,7.016,3.843a17.33,17.33,0,0,1,4.936,4.088,11.216,11.216,0,0,1,2.126,4.309,9.984,9.984,0,0,1-.074,4.127,2.5,2.5,0,0,0,.437-1.023,7.473,7.473,0,0,0,.131-3.2,11.291,11.291,0,0,0-2.043-4.647,17.524,17.524,0,0,0-5.034-4.431c-2.091-1.331-4.527-2.491-6.93-3.979a15.9,15.9,0,0,1-6.146-6.2c-1.42-2.757-.754-6.164-.955-9.782A8.9,8.9,0,0,0,119,67.492a13.983,13.983,0,0,0-4.66-3.358c-3.363-1.623-6.734-3.131-8.119-6.247-1.451-3-1.385-6.467-1.427-9.662-.024-3.212,0-6.4-.946-9.253a18.081,18.081,0,0,0-4.177-7,18.724,18.724,0,0,0-10.166-5.6,13.051,13.051,0,0,0-3.17-.238,3.542,3.542,0,0,0-1.1.131" transform="translate(100.989 30.947)" fill="#375a64"/>
        <path id="Trazado_236" data-name="Trazado 236" d="M77.795,66.395l5.178-10.658,44.993-1.7,7.059,13.839h-56.5" transform="translate(92.178 64.03)" fill="#e8505b"/>
        <path id="Trazado_237" data-name="Trazado 237" d="M15.34,150.906c.323-1.617-11.9-65.142-15.272-82.589A3.693,3.693,0,0,1,3.7,63.926H93.775a3.7,3.7,0,0,1,3.6,2.843l18.447,77.764,45.463,3.391-1.6,2.982Z" transform="translate(0 75.745)" fill="#375a64"/>
        <path id="Trazado_238" data-name="Trazado 238" d="M16.731,142.923,2.156,65.906l88.551.535,19.45,76.591Z" transform="translate(2.554 78.091)" fill="#ececec"/>
        <path id="Trazado_239" data-name="Trazado 239" d="M16.768,143.007h-.046L2.138,65.947l-.013-.066,88.621.535h.042l19.459,76.633.017.068ZM2.258,65.992,16.812,142.9l93.312.109L90.7,66.526Z" transform="translate(2.518 78.061)" fill="#1a2e35"/>
        <path id="Trazado_240" data-name="Trazado 240" d="M8.866,101.708c0,.315,25.913.568,57.869.568s57.873-.253,57.873-.568-25.906-.568-57.873-.568-57.869.253-57.869.568" transform="translate(10.505 119.839)" fill="#1a2e35"/>
        <path id="Trazado_241" data-name="Trazado 241" d="M72,152.892,19.871,115.157,21.809,112a25.161,25.161,0,0,1,12.185-10.223l8.152,1.464,48.332,7.363Z" transform="translate(23.545 120.596)" fill="#e8505b"/>
        <path id="Trazado_242" data-name="Trazado 242" d="M152.04,149.989l-43.309-17.21L118.4,96.907l35.3,12Z" transform="translate(128.834 114.824)" fill="#e8505b"/>
        <path id="Trazado_243" data-name="Trazado 243" d="M50.459,204.331c-10.791-5.362-13.564-18.239-8.294-29.076l44.877-95.91a17.358,17.358,0,0,1,4.516-6.19C109.2,57.835,128.68,60.444,128.68,60.444l46.8-1.226s36.765,0,50.558,28.976c1.009,2.122,22.38,44.508,36.468,72.438A24.162,24.162,0,1,1,218.887,181.4l-15.309-34.124-9.638,48.88,13.874,40.285L91.771,238.031l8.923-53.888,2.818-38.423L79.977,194.253a21.952,21.952,0,0,1-29.518,10.079" transform="translate(46.891 70.166)" fill="#e8505b"/>
        <g id="Grupo_57" data-name="Grupo 57" transform="translate(170.704 230.107)" opacity="0.2">
          <g id="Grupo_56" data-name="Grupo 56">
            <g id="Grupo_55" data-name="Grupo 55" clip-path="url(#clip-path-3)">
              <path id="Trazado_244" data-name="Trazado 244" d="M144.342,140.6c-8.785,6.577-21.724,4.385-32.55,2.585s-21.292-6.95-28.349-15.355c-3.168-3.773-5.694-8.493-5.266-13.4s4.77-9.644,9.662-9.056c5.609.675,8.311,6.961,11.012,11.921,8.536,15.681,27.787,24.722,45.306,21.276,0,0,1.75.861.186,2.032" transform="translate(-78.13 -105.318)"/>
            </g>
          </g>
        </g>
        <g id="Grupo_60" data-name="Grupo 60" transform="translate(146.746 189.866)" opacity="0.2">
          <g id="Grupo_59" data-name="Grupo 59">
            <g id="Grupo_58" data-name="Grupo 58" clip-path="url(#clip-path-4)">
              <path id="Trazado_245" data-name="Trazado 245" d="M85.679,86.9c-2.733,22.076-1.512,20.4-6.116,42.159-2.266,10.7-5.016,21.875-12.4,29.948l3.657-46.088Z" transform="translate(-67.165 -86.9)"/>
            </g>
          </g>
        </g>
        <path id="Trazado_246" data-name="Trazado 246" d="M181.26,153.468l3.325-9.688-8.646-5.759L69.49,129.242l-7.505,14.1,3.231,11.717Z" transform="translate(73.445 153.137)" fill="#e8505b"/>
        <path id="Trazado_247" data-name="Trazado 247" d="M116.354,63.4a15.874,15.874,0,0,1,7.394,23.7c-.922,1.363-2.115,2.753-2.03,4.4.208,3.931,6.559,4.038,8.563,7.424,1.337,2.266.188,5.283-1.7,7.112s-4.385,2.882-6.55,4.379-4.132,3.769-4.02,6.4c-2.22-.061-3.533-2.749-3.192-4.944s1.735-4.055,2.729-6.041,1.553-4.516.275-6.334c-1.453-2.067-4.411-2.152-6.767-3.065a9.44,9.44,0,0,1-5-12.152c1.429-3.194,4.754-6.424,3.135-9.524-.9-1.73-2.978-2.392-4.684-3.336a12.19,12.19,0,0,1-1.582-20.291" transform="translate(116.373 60.569)" fill="#1a2e35"/>
        <path id="Trazado_248" data-name="Trazado 248" d="M114.774,101.662c-.135.068.747,2.159,2.36,5.449s3.976,7.774,6.826,12.589,5.65,9.041,7.759,12.039,3.518,4.774,3.644,4.689-1.04-2.032-2.974-5.134-4.608-7.381-7.45-12.174-5.3-9.2-7.092-12.382-2.928-5.15-3.072-5.075" transform="translate(135.978 120.455)" fill="#1a2e35"/>
        <path id="Trazado_249" data-name="Trazado 249" d="M119.59,110.087c-.286-.033-.666,3.7.736,8.029,1.372,4.337,3.852,7.156,4.066,6.963.28-.194-1.682-3.179-2.982-7.311-1.341-4.116-1.479-7.686-1.82-7.682" transform="translate(141.377 130.44)" fill="#1a2e35"/>
        <path id="Trazado_250" data-name="Trazado 250" d="M41.632,157.026c.284.131,9.362-18.864,20.274-42.426s19.526-42.776,19.24-42.907-9.36,18.86-20.274,42.428-19.526,42.773-19.24,42.9" transform="translate(49.321 84.947)" fill="#1a2e35"/>
        <path id="Trazado_251" data-name="Trazado 251" d="M66.932,65.915c-.068.181,1.958.9,4.848,2.7A30.156,30.156,0,0,1,85.846,90.045c.5,3.369.354,5.51.548,5.519.118.017.559-2.124.251-5.617a28.135,28.135,0,0,0-14.46-22.028c-3.083-1.671-5.224-2.119-5.255-2" transform="translate(79.304 78.082)" fill="#1a2e35"/>
        <path id="Trazado_252" data-name="Trazado 252" d="M110.3,176.11c.306.068,5.526-22.168,11.656-49.658S132.808,76.61,132.5,76.54,126.977,98.7,120.844,126.2s-10.852,49.837-10.546,49.9" transform="translate(130.673 90.691)" fill="#1a2e35"/>
        <path id="Trazado_253" data-name="Trazado 253" d="M31.346,112.838l-21.158-9.1H38.374l-6.159,7.979" transform="translate(12.071 122.915)" fill="#c98a7b"/>
        <path id="Trazado_254" data-name="Trazado 254" d="M39.78,114.315c.258.2,2.36-2.143,5.132-4.824s5.165-4.726,4.973-4.99c-.173-.247-2.934,1.414-5.766,4.173s-4.582,5.462-4.339,5.641" transform="translate(47.108 123.792)" fill="#1a2e35"/>
        <path id="Trazado_255" data-name="Trazado 255" d="M57.626,164a19.813,19.813,0,0,0,1.781-2.941c1.086-1.927,2.6-4.748,4.435-8.248,3.673-7,8.558-16.767,13.9-27.571s10.249-20.555,13.881-27.567l4.3-8.307a19.7,19.7,0,0,0,1.47-3.107A20.28,20.28,0,0,0,95.54,89.15c-1.138,1.9-2.718,4.678-4.625,8.143-3.819,6.924-8.84,16.627-14.191,27.44-5.268,10.732-10.033,20.442-13.6,27.713-1.667,3.408-3.05,6.238-4.11,8.405A19.8,19.8,0,0,0,57.626,164" transform="translate(68.272 102.204)" fill="#1a2e35"/>
        <path id="Trazado_256" data-name="Trazado 256" d="M76.779,108.255c-.039.007-.026.267.033.763a16.847,16.847,0,0,0,.365,2.152,28.154,28.154,0,0,0,2.888,7.5c3.188,6.013,10.085,13.07,19.592,17.387,9.506,4.285,18.919,5.591,25.581,6.384,3.354.378,6.072.6,7.953.723a14.419,14.419,0,0,0,2.932.074,14.632,14.632,0,0,0-2.886-.516l-7.894-1.079c-6.616-.992-15.9-2.421-25.214-6.622-9.284-4.221-16.079-10.988-19.365-16.752-3.389-5.779-3.716-10.092-3.985-10.011" transform="translate(90.948 128.268)" fill="#1a2e35"/>
        <path id="Trazado_257" data-name="Trazado 257" d="M87.451,134.056c-.022.315,14.374,1.577,32.148,2.825s32.21,2,32.231,1.689-14.37-1.577-32.151-2.825-32.207-2-32.229-1.689" transform="translate(103.619 158.757)" fill="#1a2e35"/>
        <path id="Trazado_258" data-name="Trazado 258" d="M80.418,130.068c-.291-.074-1.7,4.75-2.333,10.894-.655,6.144-.284,11.154.013,11.143.33,0,.47-4.962,1.119-11.023.627-6.063,1.523-10.942,1.2-11.014" transform="translate(92.089 154.115)" fill="#1a2e35"/>
        <path id="Trazado_259" data-name="Trazado 259" d="M76.3,126.888c-.14-.024-.6,1.639-.968,4.4a55.657,55.657,0,0,0,1.512,21.569c.749,2.681,1.433,4.263,1.569,4.219.343-.1-1.691-6.649-2.246-15.01-.616-8.353.485-15.124.133-15.174" transform="translate(88.745 150.347)" fill="#1a2e35"/>
        <path id="Trazado_260" data-name="Trazado 260" d="M77.742,61.521c.015.315,10.411-.015,23.214-.734s23.169-1.558,23.153-1.872-10.411.015-23.219.736-23.169,1.556-23.149,1.87" transform="translate(92.115 69.666)" fill="#1a2e35"/>
      </g>
    </g>
  </g>
</svg>
