<svg id="Grupo_54" data-name="Grupo 54" xmlns="http://www.w3.org/2000/svg" xmlns:xlink="http://www.w3.org/1999/xlink" width="402.863" height="665" viewBox="0 0 402.863 665">
  <defs>
    <clipPath id="clip-path">
      <rect id="Rectángulo_79" data-name="Rectángulo 79" width="402.863" height="665" fill="none"/>
    </clipPath>
  </defs>
  <g id="Grupo_53" data-name="Grupo 53" clip-path="url(#clip-path)">
    <path id="Trazado_175" data-name="Trazado 175" d="M61.918,488.939,84.431,373.913l35.8-145.329,4.376,157.134,8.781,103.222H193.7c-1.991-129-5.041-322.728-5.407-322.715L117.063,151.21,54.111,163.391,2.948,488.939Z" transform="translate(3.432 176.061)" fill="#1a2e35"/>
    <path id="Trazado_176" data-name="Trazado 176" d="M38.8,73.3C32.5,60.863,30.515,38.544,37.737,26.177S59.565,4.891,73.3.822c2.294-.68,4.781-1.208,7.051-.45s4.112,3.26,3.337,5.526C86.357,3.93,89.093,1.93,92.261.945s6.9-.792,9.445,1.333,3.253,6.452.907,8.794a11,11,0,0,1,11.642,1.818A11,11,0,0,1,117.214,24.3,34.1,34.1,0,0,1,110.208,35.3c-2.721,2.907-2.991,5.727-2.208,9.631" transform="translate(38.58 0)" fill="#1a2e35"/>
    <path id="Trazado_177" data-name="Trazado 177" d="M86.827,170.2c-.383-5.963-1.346-59.946-1.338-60.193,0,0,20.038-2.48,20.9-22.41.42-9.627-.333-29.524-1.223-47.52A37.162,37.162,0,0,0,69.2,4.772l-1.924-.061C46.494,5.278,35.365,23.244,36.508,44l2.844,115.509" transform="translate(42.415 5.485)" fill="#ffc09d"/>
    <path id="Trazado_178" data-name="Trazado 178" d="M72.933,57.925s-12.59.346-25.721-8.482c0,0,5.984,12.471,25.935,11.3Z" transform="translate(54.971 57.569)" fill="#ff9b6c"/>
    <path id="Trazado_179" data-name="Trazado 179" d="M69.705,28.7a2.85,2.85,0,0,1-2.835,2.788,2.725,2.725,0,0,1-2.855-2.66,2.849,2.849,0,0,1,2.833-2.788,2.726,2.726,0,0,1,2.857,2.66" transform="translate(74.536 30.324)" fill="#1a2e35"/>
    <path id="Trazado_180" data-name="Trazado 180" d="M72.12,27.206c-.364.359-2.472-1.3-5.536-1.39-3.06-.132-5.357,1.374-5.677.989-.158-.171.221-.831,1.223-1.513a7.819,7.819,0,0,1,4.56-1.251,7.511,7.511,0,0,1,4.391,1.569c.92.753,1.219,1.435,1.039,1.6" transform="translate(70.876 27.987)" fill="#1a2e35"/>
    <path id="Trazado_181" data-name="Trazado 181" d="M55.518,28.909A2.854,2.854,0,0,1,52.683,31.7a2.725,2.725,0,0,1-2.857-2.658,2.851,2.851,0,0,1,2.833-2.79,2.729,2.729,0,0,1,2.859,2.66" transform="translate(58.015 30.562)" fill="#1a2e35"/>
    <path id="Trazado_182" data-name="Trazado 182" d="M58.2,27.037c-.366.361-2.476-1.3-5.536-1.39-3.06-.132-5.357,1.374-5.679.989-.158-.171.219-.829,1.225-1.513a7.817,7.817,0,0,1,4.558-1.251,7.513,7.513,0,0,1,4.394,1.569c.918.753,1.216,1.435,1.039,1.6" transform="translate(54.664 27.79)" fill="#1a2e35"/>
    <path id="Trazado_183" data-name="Trazado 183" d="M57.3,49.749c-.009-.175,1.907-.446,5-.742.786-.056,1.53-.19,1.68-.721a3.987,3.987,0,0,0-.45-2.333q-1.016-2.876-2.13-6.03C58.46,31.339,56.35,24.292,56.7,24.177s3.019,6.746,5.969,15.328q1.062,3.175,2.03,6.062A4.538,4.538,0,0,1,65,48.651a1.964,1.964,0,0,1-1.322,1.1,5.337,5.337,0,0,1-1.333.143c-3.112.071-5.039.026-5.045-.149" transform="translate(65.971 28.148)" fill="#1a2e35"/>
    <path id="Trazado_184" data-name="Trazado 184" d="M53.056,36.841c.5-.013.4,3.311,3.175,5.761s6.324,2.195,6.337,2.66c.039.21-.812.621-2.307.615a8.293,8.293,0,0,1-5.3-2.032,7.212,7.212,0,0,1-2.448-4.824c-.084-1.394.312-2.205.539-2.18" transform="translate(61.135 42.895)" fill="#1a2e35"/>
    <path id="Trazado_185" data-name="Trazado 185" d="M60.229,21.134c-.329.822-3.374.333-6.982.656-3.617.249-6.547,1.21-7,.448-.2-.364.329-1.132,1.526-1.9a12.191,12.191,0,0,1,10.653-.84c1.3.571,1.948,1.247,1.805,1.638" transform="translate(53.797 21.712)" fill="#1a2e35"/>
    <path id="Trazado_186" data-name="Trazado 186" d="M71.279,23.187c-.561.68-2.649-.108-5.186-.223-2.532-.2-4.7.322-5.173-.42-.208-.361.154-1.048,1.112-1.677a7.517,7.517,0,0,1,8.348.519c.874.742,1.147,1.47.9,1.8" transform="translate(70.867 23.104)" fill="#1a2e35"/>
    <path id="Trazado_187" data-name="Trazado 187" d="M44.3,30.124c-.335-.158-13.573-4.478-13.562,9.166S44.446,50.11,44.47,49.718,44.3,30.124,44.3,30.124" transform="translate(35.791 34.176)" fill="#ffc09d"/>
    <path id="Trazado_188" data-name="Trazado 188" d="M38.435,42.181c-.061-.043-.238.167-.638.351a2.374,2.374,0,0,1-1.777.039c-1.441-.528-2.658-2.816-2.727-5.275a7.9,7.9,0,0,1,.662-3.4,2.747,2.747,0,0,1,1.788-1.827,1.212,1.212,0,0,1,1.4.651c.184.381.1.654.169.677.039.035.294-.229.182-.792a1.517,1.517,0,0,0-.537-.855,1.786,1.786,0,0,0-1.314-.346,3.344,3.344,0,0,0-2.483,2.117,8.053,8.053,0,0,0-.82,3.8c.091,2.749,1.5,5.32,3.472,5.889a2.551,2.551,0,0,0,2.175-.364c.422-.338.493-.643.446-.667" transform="translate(37.653 36.547)" fill="#ff9b6c"/>
    <path id="Trazado_189" data-name="Trazado 189" d="M115.1,16.01C116.691,33.7,94.9,41.086,85.34,31.195c-4.422-4.573-8.279-10.291-14.3-12.352A16.194,16.194,0,0,0,58.6,20.152l-.115.058c-5.619,2.922-8.941,9.432-9.811,15.707-1.214,8.746.186,16.46-2.084,24.492a5.432,5.432,0,0,1-1.684,3.1c-1.651,1.19-4.037.145-5.4-1.368-2.177-2.426-2.948-5.779-3.422-9a56.1,56.1,0,0,1,.818-22.107A38.219,38.219,0,0,1,48,12.084a36.181,36.181,0,0,1,25.665-8.8A44.448,44.448,0,0,1,99.14,13.3c3.353,2.7,6.417,5.93,8.071,9.9" transform="translate(41.192 3.779)" fill="#1a2e35"/>
    <path id="Trazado_190" data-name="Trazado 190" d="M73.387,4.684a3.99,3.99,0,0,1,1.887.08,9.365,9.365,0,0,1,4.508,2.508,11.582,11.582,0,0,1,3.387,6.872,13.1,13.1,0,0,1-2.61,8.991,17.153,17.153,0,0,1-7.383,5.757,23.213,23.213,0,0,1-7.443,1.654,28.9,28.9,0,0,1-5.108-.156,5.692,5.692,0,0,1-1.835-.377c.013-.193,2.666.193,6.883-.208A24.242,24.242,0,0,0,72.8,28a16.714,16.714,0,0,0,6.913-5.484,12.4,12.4,0,0,0,2.5-8.274,11.144,11.144,0,0,0-2.954-6.452,9.771,9.771,0,0,0-4.086-2.636,17.567,17.567,0,0,1-1.781-.474" transform="translate(68.453 5.376)" fill="#375a64"/>
    <path id="Trazado_191" data-name="Trazado 191" d="M69.828,1.789c0-.052.5-.152,1.3.229a4.306,4.306,0,0,1,2.128,2.913,7.94,7.94,0,0,1-1.039,5.223,22.8,22.8,0,0,1-3.738,5.22,23.6,23.6,0,0,1-9.757,6.186c-2.84.931-4.714.9-4.716.8-.032-.186,1.781-.42,4.465-1.5a25.9,25.9,0,0,0,9.248-6.21A24.071,24.071,0,0,0,71.362,9.7,7.546,7.546,0,0,0,72.529,5.07a4.152,4.152,0,0,0-1.608-2.7c-.638-.439-1.108-.493-1.093-.58" transform="translate(62.881 2.023)" fill="#375a64"/>
    <path id="Trazado_192" data-name="Trazado 192" d="M127.25,94.139l93.833-8.9,14.856-3.567S269.874,75.6,273.06,74.6c3.682-1.154,5.123.344,5.454,1.729.519,2.16-1.619,4.472-4.749,5.558-1.08.377-18.38,5.619-18.38,5.619a42.709,42.709,0,0,1,5.7,1.889c4.026,1.545,7.738,6.963,9.458,13.172s1.651,8.1-.729,8.885a3.19,3.19,0,0,1-2.7-.483,6.31,6.31,0,0,1-2.664-3.619c-2.889-9.911-8.982-10.921-8.982-10.921l-1.944.467s6.145,4.656,5.824,9.986a6.093,6.093,0,0,1-.58,2.268,8.073,8.073,0,0,1-9.415,10.263c-1.335-.286-2.76-1.136-2.9-2.493a4.292,4.292,0,0,1,.515-2.073,6.645,6.645,0,0,0,.374-1.08l-5.627.545s-12.707.55-18.211,1.413l-88.446,22.89a22.652,22.652,0,1,1-7.815-44.48" transform="translate(124.271 86.383)" fill="#ffc09d"/>
    <path id="Trazado_193" data-name="Trazado 193" d="M160.522,82.834c.069,1.963,1.972,3.4,3.876,3.881s3.915.294,5.85.634c5.785,1.013,10.1,6.48,15.925,7.214.812.1,1.846-.026,2.119-.8.253-.714-.346-1.426-.894-1.95q-7.029-6.72-14.06-13.445" transform="translate(186.903 91.249)" fill="#ffc09d"/>
    <path id="Trazado_194" data-name="Trazado 194" d="M173.369,78.372a7.73,7.73,0,0,1,1.669,1.3c1.026.887,2.485,2.2,4.268,3.837,1.846,1.716,3.943,3.664,6.231,5.792l1.79,1.688c.526.578,1.472,1.1,1.6,2.439a1.636,1.636,0,0,1-1.058,1.5,3.358,3.358,0,0,1-1.58.2,12.663,12.663,0,0,1-2.79-.667c-3.623-1.34-6.365-3.669-9.153-5.1a14.674,14.674,0,0,0-4.1-1.545c-1.342-.258-2.671-.266-3.9-.4a6.852,6.852,0,0,1-5.229-2.506c-.818-1.216-.6-2.1-.561-2.067a5.689,5.689,0,0,0,.9,1.8,6.639,6.639,0,0,0,4.954,1.989c1.184.084,2.524.043,3.991.279a15.1,15.1,0,0,1,4.413,1.543c2.922,1.454,5.7,3.74,9.053,4.965a11.967,11.967,0,0,0,2.519.613c.8.089,1.506-.175,1.45-.608.011-.478-.634-1.1-1.24-1.669s-1.188-1.151-1.764-1.712c-2.229-2.19-4.27-4.2-6.067-5.967-1.716-1.71-3.093-3.106-4.026-4.091a7.709,7.709,0,0,1-1.37-1.61" transform="translate(186.874 91.247)" fill="#ff9b6c"/>
    <path id="Trazado_195" data-name="Trazado 195" d="M174.481,84.9a8,8,0,0,1,3.673.1,6.207,6.207,0,0,1,3.112,2.322,15.922,15.922,0,0,1,2.125,4.452,25.24,25.24,0,0,0,1.944,4.738,8.144,8.144,0,0,0,2.937,3.058,3.182,3.182,0,0,0,2.855.177c.621-.3.864-.6.844-.619-.037-.061-.342.16-.944.359a3,3,0,0,1-2.506-.359,8.066,8.066,0,0,1-2.615-2.946,27.667,27.667,0,0,1-1.838-4.643,15.425,15.425,0,0,0-2.279-4.619,6.489,6.489,0,0,0-3.5-2.407,5.766,5.766,0,0,0-2.857-.024c-.654.171-.972.377-.957.413" transform="translate(203.156 98.176)" fill="#ff9b6c"/>
    <path id="Trazado_196" data-name="Trazado 196" d="M197.023,77.552a20.362,20.362,0,0,0-3.446,1.019l-8.229,2.664c-3.106.952-5.913,1.816-8.27,2.539a20.193,20.193,0,0,0-3.407,1.143,16.268,16.268,0,0,0,3.539-.654c2.162-.515,5.121-1.329,8.352-2.346s6.121-2.052,8.186-2.87a16.136,16.136,0,0,0,3.275-1.5" transform="translate(202.214 90.282)" fill="#ff9b6c"/>
    <path id="Trazado_197" data-name="Trazado 197" d="M175.956,86.947c-.039.039.24.335.7.881a3.334,3.334,0,0,1,.952,2.61,1.78,1.78,0,0,1-1.154,1.34,9.454,9.454,0,0,1-2.281.535,4.022,4.022,0,0,0-2.571,1.251,3.424,3.424,0,0,0-.545,3.052,3.879,3.879,0,0,0,2.011,2.335,4.855,4.855,0,0,0,2.8.528,15.783,15.783,0,0,0,4.391-1.446,9.219,9.219,0,0,0,2.567-1.762c.511-.548.651-.95.621-.963-.056-.032-.273.3-.812.76a10.989,10.989,0,0,1-2.589,1.506,16.95,16.95,0,0,1-4.257,1.249,3.852,3.852,0,0,1-4.041-2.4,2.752,2.752,0,0,1,.4-2.418A3.434,3.434,0,0,1,174.3,92.96a9.507,9.507,0,0,0,2.413-.645,2.322,2.322,0,0,0,1.4-1.8,3.492,3.492,0,0,0-1.251-2.879c-.539-.5-.874-.721-.9-.69" transform="translate(199.006 101.234)" fill="#ff9b6c"/>
    <path id="Trazado_198" data-name="Trazado 198" d="M173.238,94.341c0-.035-.4-.015-.944.4a3.129,3.129,0,0,0-1.147,2.556,4.169,4.169,0,0,0,2.344,3.413,6.827,6.827,0,0,0,5.065.271,8.263,8.263,0,0,0,4.147-2.911,7.88,7.88,0,0,0,1.509-3.848,7.462,7.462,0,0,0-.195-2.764c-.175-.632-.355-.948-.394-.933a13.064,13.064,0,0,1,.087,3.627,7.771,7.771,0,0,1-1.53,3.517,7.875,7.875,0,0,1-3.835,2.628,6.342,6.342,0,0,1-4.556-.177,3.706,3.706,0,0,1-2.136-2.857,2.973,2.973,0,0,1,.827-2.312c.433-.435.784-.55.76-.608" transform="translate(199.273 105.4)" fill="#ff9b6c"/>
    <path id="Trazado_199" data-name="Trazado 199" d="M167.674,94.285a2.933,2.933,0,0,0-.537-1.641,6.772,6.772,0,0,0-3.292-2.913l.011.632a19.967,19.967,0,0,0,2.179-1.1c4.132-2.385,6.259-5.731,6.093-5.8-.162-.147-2.474,2.894-6.452,5.184-.714.416-1.426.779-2.1,1.089l-.74.342.753.29a7.11,7.11,0,0,1,3.182,2.506c.6.842.809,1.441.9,1.411" transform="translate(189.601 97.174)" fill="#ff9b6c"/>
    <path id="Trazado_200" data-name="Trazado 200" d="M179.42,84.386c-.132-.136-1.16.913-1.335,2.632-.193,1.718.591,2.963.749,2.857.19-.082-.214-1.288-.037-2.781.143-1.5.794-2.586.623-2.708" transform="translate(207.317 98.241)" fill="#ff9b6c"/>
    <path id="Trazado_201" data-name="Trazado 201" d="M227.271,162.23l-61.2-14.127s3.166,112.2,3.156,113.26,5.052,2.825,4.619,10.967l-4.4,9.685-134.2,1.8L31.629,174.848,19.383,90.354,47.535,72.936l9.908-13.445,38.707,40.83,9.627-34.844L105.5,55.108l9.569,10.385L166.68,80.377l68.188,31.792,46.1-3.521,11.971,40.337Z" transform="translate(22.569 64.165)" fill="#0c8f5a"/>
    <path id="Trazado_202" data-name="Trazado 202" d="M57.323,81.692a6.233,6.233,0,0,1,2.77,3.091,12.461,12.461,0,0,1,.842,4.712,17.748,17.748,0,0,0,.913,6.419l.461,1.121.485-1.119a61.443,61.443,0,0,0,3.026-9.926c1.632-7.012,2.675-13.432,3.372-18.085s.963-7.554.812-7.575-.714,2.831-1.6,7.443-2.063,10.995-3.684,17.958a68.272,68.272,0,0,1-2.872,9.761l.946,0a17.873,17.873,0,0,1-1-6.045,12.348,12.348,0,0,0-1.138-4.935,5.633,5.633,0,0,0-2.21-2.47c-.69-.37-1.119-.394-1.128-.355" transform="translate(66.739 70.245)" fill="#1a2e35"/>
    <path id="Trazado_203" data-name="Trazado 203" d="M34.371,62.294a8.855,8.855,0,0,0,1.307,1.881c.9,1.162,2.229,2.822,3.889,4.857,3.322,4.069,7.971,9.64,13.159,15.748,2.963,3.454,5.766,6.722,8.263,9.64l.638.747.238-.948c1.173-4.7,2.13-8.679,2.766-11.467.26-1.4,1.041-2.2,1.8-2.216a1.649,1.649,0,0,1,1.037.3c.054.019-.149-.571-1.05-.617a1.938,1.938,0,0,0-1.424.582,4.226,4.226,0,0,0-.944,1.79c-.814,2.766-1.9,6.692-3.164,11.374l.874-.2c-2.47-2.939-5.244-6.233-8.175-9.714-5.188-6.108-9.932-11.6-13.41-15.534-1.738-1.97-3.16-3.55-4.162-4.625a9.274,9.274,0,0,0-1.643-1.6" transform="translate(40.013 72.528)" fill="#1a2e35"/>
    <path id="Trazado_204" data-name="Trazado 204" d="M66.478,221.675a7.057,7.057,0,0,0,.11-1.452c.024-1.067.054-2.448.093-4.164.067-3.617.069-8.85-.009-15.317-.149-12.932-.764-30.8-2.229-50.486s-3.53-37.454-5.3-50.265c-.885-6.406-1.667-11.584-2.268-15.148-.294-1.69-.53-3.052-.712-4.1a6.969,6.969,0,0,0-.325-1.418,6.907,6.907,0,0,0,.1,1.452c.128,1.058.294,2.431.5,4.132.47,3.721,1.119,8.876,1.913,15.187,1.571,12.828,3.5,30.58,4.972,50.248s2.2,37.5,2.556,50.418c.152,6.359.277,11.553.366,15.3.05,1.714.089,3.1.119,4.162a7.074,7.074,0,0,0,.117,1.452" transform="translate(64.991 92.358)" fill="#1a2e35"/>
    <path id="Trazado_205" data-name="Trazado 205" d="M65.956,167.592c.307.058,1.173-4.262,1-9.629-.156-5.357-.831-9.629-1.115-9.608-.338.024-.164,4.346-.013,9.634.171,5.285-.182,9.556.126,9.6" transform="translate(76.438 172.737)" fill="#1a2e35"/>
    <path id="Trazado_206" data-name="Trazado 206" d="M40.387,142.7a22.9,22.9,0,0,0,3.452,1.3c2.247.779,5.526,1.809,9.6,3a316.827,316.827,0,0,0,32.325,7.51,316.848,316.848,0,0,0,32.941,4.086c4.238.29,7.67.452,10.045.5a22.974,22.974,0,0,0,3.692-.035,23.679,23.679,0,0,0-3.669-.4l-10-.851c-8.441-.777-20.076-2.147-32.809-4.4s-24.119-4.989-32.309-7.168c-3.948-1.08-7.216-1.972-9.685-2.647a23.359,23.359,0,0,0-3.582-.883" transform="translate(47.024 166.137)" fill="#1a2e35"/>
    <path id="Trazado_207" data-name="Trazado 207" d="M87.844,147.265c.312,0,.506-15.923.437-35.558s-.377-35.558-.688-35.556-.509,15.919-.437,35.56.377,35.556.688,35.554" transform="translate(101.463 88.666)" fill="#1a2e35"/>
    <path id="Trazado_208" data-name="Trazado 208" d="M44.451,70.678S27.539,85.183,26.429,93.393c-.857,6.35-17.488,65.98-24.981,92.673a38.944,38.944,0,0,0,1.415,25.176L24.47,264.705l34.961-20.682L41.951,193.879l14.475-42.545Z" transform="translate(0 82.294)" fill="#0c8f5a"/>
    <path id="Trazado_209" data-name="Trazado 209" d="M11.306,262.472a3.149,3.149,0,0,0,.658-.314l1.866-1.03c1.7-.974,4.069-2.329,7.069-4.047L46.49,242.164l.305-.18-.117-.338L29.314,191.464l0,.377,6.374-17.109,14.451-38.945-.017.041c4.433-9.3,8.268-18.284,9.335-26.9a37.721,37.721,0,0,0-.359-12.084,35.656,35.656,0,0,0-3.511-9.722,40.4,40.4,0,0,0-9.03-11.4,32.259,32.259,0,0,0-3.037-2.407,7.706,7.706,0,0,0-1.121-.725,7.629,7.629,0,0,0,1.017.864c.686.543,1.69,1.366,2.911,2.521a41.7,41.7,0,0,1,8.692,11.441,35.336,35.336,0,0,1,3.324,9.573,37.232,37.232,0,0,1,.24,11.822c-1.112,8.432-4.941,17.284-9.408,26.563l-.009.017-.009.024c-4.474,11.986-9.382,25.139-14.527,38.917-2.177,5.863-4.316,11.612-6.361,17.116l-.069.188.065.188c6.616,18.836,12.64,35.991,17.6,50.1l.188-.517c-10.586,6.357-19.271,11.571-25.4,15.246l-6.95,4.249-1.8,1.136a3.169,3.169,0,0,0-.593.426" transform="translate(13.164 84.525)" fill="#1a2e35"/>
    <path id="Trazado_210" data-name="Trazado 210" d="M66.471,78.494c-2.372.061-4.768,1.472-5.2,3.8s-.108,4.775-.716,7.069-2.695,4.526-5.017,4.043A6.186,6.186,0,0,1,52.221,90.8a81.131,81.131,0,0,1-10.9-20.1C41.38,70.859,53.3,84.455,53.3,84.455a39.9,39.9,0,0,1,2.692-10.014c.4-1.032.859-2.8,1.866-3.26,1.628-.745,3.781,1.636,4.857,3.065a28.664,28.664,0,0,0,3.757,4.039" transform="translate(48.107 82.31)" fill="#024427"/>
    <path id="Trazado_211" data-name="Trazado 211" d="M70.243,68.7c-.4,7.476-1.565,15.315-4.365,22.256A4.98,4.98,0,0,1,64.706,92.9a1.792,1.792,0,0,1-2.1.3c-.465-.31-1.957-4.075-2.145-4.6-1.11-3.091-5.595-3.376-5.595-3.376s1.783-7.95,2.928-10.3a2.861,2.861,0,0,1,2.79-1.8,4.641,4.641,0,0,1,3.076,3.528c.677,5.556.6,8.1,1.409,10.038,2.106-5.909,3.809-13.029,5.2-18.191" transform="translate(63.88 79.755)" fill="#024427"/>
    <path id="Trazado_212" data-name="Trazado 212" d="M47.68,149.357c-2.231-1.193-2.506-4.621-1.035-6.677a7.215,7.215,0,0,1,6.757-2.571,15.293,15.293,0,0,1,6.846,3.086c2.052,1.483,3.948,3.184,6.1,4.508,5.3,3.262,11.763,4,17.988,4.1s12.519-.353,18.631.833,12.218,4.335,15.166,9.82c0,0-53.2-3.872-70.456-13.1" transform="translate(53.246 163.06)" fill="#024427"/>
    <path id="Trazado_213" data-name="Trazado 213" d="M50.152,212.329c7.556-4.939,10.856-9.688,13.938-14.365a.561.561,0,0,1-.017-.47.774.774,0,0,1,.53-.32,75.345,75.345,0,0,0,4.08-7.151c-4.344-2.824-10.019-7.1-3.846-7.976,7.6-1.082,13.027-4.775,13.8-6.8s-1.757-3.837-3.759-2.545c-1.617,1.045-4.855,1.946-7.313,2.524a18.232,18.232,0,0,1-6.192.394c-1.286-.143-5.816-3.249-10.657-5.523a3.765,3.765,0,0,0-2.205-.29l-1.851-.128a5.744,5.744,0,0,1-4.7-3.082l-7.019-13.508L13.73,165.64l16.787,23.3s11.568,15.371,19.635,23.388" transform="translate(15.986 178.253)" fill="#ffc09d"/>
    <path id="Trazado_214" data-name="Trazado 214" d="M28.537,195.953c.052.115,2.009-.6,4.891-2.307a44.291,44.291,0,0,0,17.228-19.269c1.381-3.058,1.868-5.08,1.749-5.119-.344-.171-2.985,7.8-9.768,15.287-6.686,7.573-14.308,11.086-14.1,11.408" transform="translate(33.222 197.071)" fill="#375a64"/>
    <path id="Trazado_215" data-name="Trazado 215" d="M59.412,218.538c.015.035.216-.028.593-.186a7.044,7.044,0,0,0,1.5-.957,12.7,12.7,0,0,0,3.463-5.5,89.811,89.811,0,0,0,2.355-9.272c.777-3.5,1.589-7.359,2.383-11.421,1.6-8.123,2.811-15.521,3.591-20.89.385-2.684.667-4.861.829-6.37a9.48,9.48,0,0,0,.139-2.359,9.557,9.557,0,0,0-.571,2.292q-.487,2.6-1.184,6.309c-.978,5.329-2.316,12.692-3.909,20.8-.809,4.037-1.582,7.88-2.292,11.421-.751,3.5-1.29,6.694-2.093,9.231a13.332,13.332,0,0,1-3.006,5.435c-1.065,1.028-1.851,1.372-1.8,1.467" transform="translate(69.174 188.136)" fill="#375a64"/>
    <path id="Trazado_216" data-name="Trazado 216" d="M62.084,165.986c0-.063-.357-.13-.959.069a3.83,3.83,0,0,0-1.775,5.716A4.366,4.366,0,0,0,63.9,173.5a4.512,4.512,0,0,0,3.177-3.679,4.162,4.162,0,0,0-1.361-3.718c-1.8-1.545-3.413-1.091-3.329-.989-.041.188,1.418.113,2.766,1.554a3.433,3.433,0,0,1,.9,2.982,3.579,3.579,0,0,1-2.441,2.762,3.418,3.418,0,0,1-3.422-1.253,2.92,2.92,0,0,1-.322-3c.8-1.805,2.3-2.006,2.218-2.171" transform="translate(68.311 192.086)" fill="#375a64"/>
    <path id="Trazado_217" data-name="Trazado 217" d="M81.818,161.426c-.106-.024-.634,1.857-.567,4.984a26.838,26.838,0,0,0,11.188,20.8c2.573,1.781,4.433,2.376,4.472,2.275.089-.18-1.623-1.026-3.993-2.911a29.387,29.387,0,0,1-10.869-20.206c-.268-3.015-.03-4.913-.229-4.937" transform="translate(94.598 187.956)" fill="#375a64"/>
    <path id="Trazado_218" data-name="Trazado 218" d="M121.848,102.8c.314-.061-.361-4.846-1.089-10.752s-1.255-10.709-1.573-10.692c-.3.015-.29,4.883.455,10.83s1.911,10.672,2.208,10.614" transform="translate(138.557 94.723)" fill="#1a2e35"/>
    <path id="Trazado_219" data-name="Trazado 219" d="M201.728,79.844a3.088,3.088,0,0,0,.147.762c.149.576.338,1.292.569,2.177.561,2.006,1.333,4.766,2.3,8.227,2.078,7.181,5,17.252,8.486,29.31l.346-.608c-12.237,3.039-26.983,5.508-42.709,8.406-7.835,1.457-15.4,3.05-22.364,4.783l.253,0c-17.631-3.989-32.907-7.443-43.9-9.93-5.37-1.171-9.69-2.115-12.785-2.788l-3.43-.7a5.969,5.969,0,0,0-1.2-.18,5.844,5.844,0,0,0,1.158.366l3.389.874c3.08.749,7.374,1.8,12.713,3.1l43.815,10.32.126.028.13-.03c6.945-1.7,14.484-3.275,22.308-4.729,15.7-2.894,30.478-5.428,42.735-8.573l.493-.128-.145-.48c-3.651-12.01-6.7-22.044-8.874-29.195-1.076-3.43-1.935-6.164-2.558-8.151-.288-.868-.522-1.571-.71-2.136a3.121,3.121,0,0,0-.292-.719" transform="translate(101.81 92.966)" fill="#1a2e35"/>
  </g>
</svg>
