<svg xmlns="http://www.w3.org/2000/svg" width="430.607" height="529.501" viewBox="0 0 430.607 529.501">
  <g id="Grupo_60" data-name="Grupo 60" transform="translate(-70.394 -550.499)">
    <path id="Trazado_175" data-name="Trazado 175" d="M262.379,407.316h-58.3c-6.84-21.377-38.33-104.791-45.284-138.348-2.345-11.312-3.7-22.2-1.362-31.611,5.415-21.813,15.254-34.676,28.244-62.373l3.274.771,97.878-.771,3.824,5.885c8.414,22.661,14.164,36.189,16.532,52.764,2.727,19.09-2.06,46.748-12.668,74.672-15.59,41.039-26.486,76.469-32.136,99.011" transform="translate(-72.2 672.65)" fill="#1a2e35"/>
    <path id="Trazado_176" data-name="Trazado 176" d="M148.235,464.821H128.081c12.695-97.943,29.638-228.666,48.242-372.215h19.754c-18.7,145.5-35.54,276.519-47.841,372.215" transform="translate(87.434 615.145)" fill="#375a64"/>
    <path id="Trazado_177" data-name="Trazado 177" d="M85.51,464.822c-8.594-98.67-19.959-229.153-32.421-372.217H72.846c12.783,144.939,24.318,275.719,32.83,372.217Z" transform="translate(305.175 615.144)" fill="#375a64"/>
    <path id="Trazado_178" data-name="Trazado 178" d="M286.4,407.329,254.284,5A5.171,5.171,0,0,0,249.056.244L5.1,3.773A5.171,5.171,0,0,0,.028,9.407l36.2,402.325a5.17,5.17,0,0,0,5.225,4.705l239.865-3.529a5.168,5.168,0,0,0,5.077-5.58" transform="translate(214.571 550.67)" fill="#e1e1e1"/>
    <path id="Trazado_179" data-name="Trazado 179" d="M286.826,407.5c-.022,0,.025.292-.032.858a5.142,5.142,0,0,1-4.235,4.573c-1.644.16-3.608.078-5.806.134l-38.57.486L96.333,415.494l-47,.664-6.159.087a7.914,7.914,0,0,1-2.951-.255,4.805,4.805,0,0,1-2.3-1.707,5,5,0,0,1-.942-2.744L36.7,408.4q-.28-3.143-.565-6.315Q35,389.4,33.818,376.238c-3.143-35.073-6.5-72.55-10.037-111.986S16.525,183.42,12.672,140.506Q9.779,108.321,6.789,75.051q-1.5-16.62-3.011-33.476-.759-8.428-1.521-16.909-.382-4.241-.764-8.494l-.384-4.257L.918,9.784a5.1,5.1,0,0,1,.143-1.96A4.742,4.742,0,0,1,3.482,4.894a4.675,4.675,0,0,1,1.875-.5l2.119-.041,8.531-.122,16.979-.246q16.925-.247,33.62-.489l65.729-.956q32.318-.474,63.438-.929,15.545-.229,30.757-.452l15.12-.222q3.757-.056,7.492-.11a4.8,4.8,0,0,1,5.067,3.756c6.354,78.923,12.075,149.995,16.88,209.682,4.824,59.694,8.728,108,11.428,141.4,1.367,16.684,2.43,29.64,3.152,38.437.368,4.386.65,7.733.841,9.995s.318,3.4.318,3.4-.061-1.156-.228-3.41-.423-5.614-.754-10c-.683-8.8-1.69-21.762-2.985-38.451-2.634-33.4-6.442-81.716-11.148-141.418C266.956,154.5,261.294,83.385,255,4.417a5.569,5.569,0,0,0-2.116-3.3,5.708,5.708,0,0,0-3.759-1.1l-7.492.107-15.12.216q-15.209.214-30.757.436l-63.44.907Q100,2.142,66.593,2.62l-33.618.486-16.981.245q-4.259.061-8.529.124l-2.153.041A5.6,5.6,0,0,0,.21,7.584a5.989,5.989,0,0,0-.173,2.28L.229,12l.382,4.257q.385,4.254.766,8.494Q2.138,33.228,2.9,41.654,4.416,58.508,5.912,75.131q3,33.24,5.9,65.452c3.87,42.913,7.6,84.307,11.16,123.743S29.918,341.233,33.088,376.3q1.19,13.151,2.338,25.846.285,3.174.571,6.317l.284,3.135a5.689,5.689,0,0,0,1.078,3.092,5.5,5.5,0,0,0,2.634,1.949,8.57,8.57,0,0,0,3.189.29l6.159-.1q24.516-.374,47-.72l141.846-2.226,38.566-.65c2.207-.071,4.142,0,5.826-.18a5.164,5.164,0,0,0,3.444-2.289,5.055,5.055,0,0,0,.815-2.411,3.637,3.637,0,0,0-.014-.863" transform="translate(214.145 550.5)" fill="#1a2e35"/>
    <path id="Trazado_180" data-name="Trazado 180" d="M271.921,400.7,241.581,6.353,6.092,9.888,40.223,403.436Z" transform="translate(218.734 554.935)" fill="#fff"/>
    <path id="Trazado_181" data-name="Trazado 181" d="M272.4,400.868l-231.7,2.4.345.312C31.9,297.781,19.994,160.115,7.016,10.02l-.435.481L8.7,10.469,242.07,6.935l-.414-.379c18.027,231.179,30.458,390.6,30.747,394.312-.282-3.709-12.382-163.158-29.928-394.375l-.031-.385-.385.005L8.682,9.586l-2.114.031-.475.008.042.472c13.055,150.088,25.029,287.749,34.231,393.54l.027.316.318,0,231.692-3.08" transform="translate(218.253 554.764)" fill="#1a2e35"/>
    <path id="Trazado_182" data-name="Trazado 182" d="M37.448,116.427c0,.245,34.856.441,77.843.441,43,0,77.849-.2,77.849-.441s-34.848-.442-77.849-.442c-42.986,0-77.843.2-77.843.442" transform="translate(244.271 631.465)" fill="#1a2e35"/>
    <path id="Trazado_183" data-name="Trazado 183" d="M36.906,125.032c0,.245,34.511.442,77.072.442,42.576,0,77.078-.2,77.078-.442s-34.5-.441-77.078-.441c-42.56,0-77.072.2-77.072.441" transform="translate(247.275 637.472)" fill="#1a2e35"/>
    <path id="Trazado_184" data-name="Trazado 184" d="M36.906,134.359c0,.245,16.777.441,37.468.441s37.471-.2,37.471-.441-16.773-.441-37.471-.441-37.468.2-37.468.441" transform="translate(326.486 643.982)" fill="#1a2e35"/>
    <path id="Trazado_185" data-name="Trazado 185" d="M43.547,109.324H86.858a6.094,6.094,0,1,0,0-12.189H43.547a6.094,6.094,0,1,0,0,12.189" transform="translate(344.455 618.306)" fill="#ececec"/>
    <path id="Trazado_186" data-name="Trazado 186" d="M32.871,187.6c0,.244,34.856.441,77.843.441,43,0,77.849-.2,77.849-.441s-34.848-.442-77.849-.442c-42.986,0-77.843.2-77.843.442" transform="translate(256.62 681.151)" fill="#1a2e35"/>
    <path id="Trazado_187" data-name="Trazado 187" d="M32.328,196.211c0,.245,34.511.441,77.072.441,42.576,0,77.078-.2,77.078-.441s-34.5-.442-77.078-.442c-42.56,0-77.072.2-77.072.442" transform="translate(259.627 687.159)" fill="#1a2e35"/>
    <path id="Trazado_188" data-name="Trazado 188" d="M32.328,205.536c0,.245,16.777.441,37.468.441s37.471-.2,37.471-.441S90.493,205.1,69.8,205.1s-37.468.2-37.468.441" transform="translate(338.838 693.669)" fill="#1a2e35"/>
    <path id="Trazado_189" data-name="Trazado 189" d="M38.969,180.5H82.28a6.094,6.094,0,1,0,0-12.189H38.969a6.094,6.094,0,1,0,0,12.189" transform="translate(356.807 667.993)" fill="#ececec"/>
    <path id="Trazado_190" data-name="Trazado 190" d="M44.489,51.818c0,.245,34.856.441,77.843.441,43,0,77.849-.2,77.849-.441s-34.848-.441-77.849-.441c-42.986,0-77.843.2-77.843.441" transform="translate(225.274 586.364)" fill="#1a2e35"/>
    <path id="Trazado_191" data-name="Trazado 191" d="M43.946,60.425c0,.245,34.511.441,77.072.441,42.576,0,77.08-.2,77.08-.441s-34.5-.441-77.08-.441c-42.56,0-77.072.2-77.072.441" transform="translate(228.279 592.372)" fill="#1a2e35"/>
    <path id="Trazado_192" data-name="Trazado 192" d="M43.947,69.751c0,.245,16.777.442,37.468.442s37.471-.2,37.471-.442-16.773-.442-37.471-.442-37.468.2-37.468.442" transform="translate(307.489 598.882)" fill="#1a2e35"/>
    <path id="Trazado_194" data-name="Trazado 194" d="M50.588,44.716H93.9a6.094,6.094,0,1,0,0-12.189H50.588a6.094,6.094,0,1,0,0,12.189" transform="translate(325.458 573.206)" fill="#ececec"/>
    <path id="Trazado_195" data-name="Trazado 195" d="M223.659,64.292c-3.394-3.208-5.879-7.73-5.466-12.382s4.423-9.064,9.088-8.837a11.452,11.452,0,0,1,16.164-13.912c-.6-2.194.856-4.87,3.384-6.315,1.977-1.129,9.747-1.357,12.257,3.05L270.5,62.966a24.276,24.276,0,0,1,1.758,34.381,11.983,11.983,0,0,1-11.679,19.015c-.516,6.5-7.58,11.65-13.929,10.153s-10.363-9.265-7.915-15.311c-5.344,2.155-11.7-1.88-13.632-7.308s-.384-11.533,2.272-16.646a12.666,12.666,0,0,1-3.712-22.956" transform="translate(-147.426 565.963)" fill="#1a2e35"/>
    <path id="Trazado_196" data-name="Trazado 196" d="M230.269,28.188c-5.1,2.048-5.884,6.346-6.728,9.942-1.815,7.741,1.574,18.781,6.274,25.192s9.586,9.5,17.514,10.1q-.851-18.077-1.7-36.155Z" transform="translate(-125.07 570.177)" fill="#00cabc"/>
    <path id="Trazado_197" data-name="Trazado 197" d="M182.886,62.63a12.531,12.531,0,0,1,.019-16.067c-2.481-2.715-1.963-7.2.165-10.2s5.468-4.863,8.692-6.631c1.255-8.524,10.28-15.075,18.774-13.627,3.916-6.7,13.123-8.334,20.7-6.675a19.837,19.837,0,0,0,5.6.827,31.97,31.97,0,0,0,4.077-.851c7.488-1.532,15.356,3.277,18.782,10.11a14.108,14.108,0,0,0,1.829,3.165c1.068,1.2,2.6,1.839,3.94,2.729a12.1,12.1,0,0,1,5.233,8.611c.324,2.926-.4,6.106,1.021,8.687.711,1.294,1.9,2.3,2.481,3.656,1.674,3.936-2.515,8.365-1.4,12.494.228.844.667,1.613.961,2.435a7.464,7.464,0,0,1-.1,5.237c-.513,1.28-1.4,2.479-1.384,3.856A12.046,12.046,0,0,0,273.1,73.4c.683,2.466-4.053,12.472-6.12,13.978l-64.5,4.984a12.089,12.089,0,0,1-10.042-9.747,4.424,4.424,0,0,0-.764-2.333,5.182,5.182,0,0,0-1.839-1.026c-4.308-1.946-5.2-7.619-5.082-12.345a5.752,5.752,0,0,0-.171-1.968,7.189,7.189,0,0,0-1.688-2.314" transform="translate(-79.219 556.664)" fill="#1a2e35"/>
    <path id="Trazado_198" data-name="Trazado 198" d="M182.262,54.983c-.971-11.409,5.3-25.024,16.262-31.384,6.913-4.011,12.491-4.413,16.222-5.109a26.2,26.2,0,0,1,15.44,2.153c3.613.593,17.465,11.64,19.027,24.547,1.734,14.338,3.286,31.913,2.2,42.749-2.187,21.79-18.579,25.488-18.579,25.488,0-.032,3.987,35.7,3.987,35.7l-30.057,28.266-15.225-40.6Z" transform="translate(-60.098 563.141)" fill="#ffc09d"/>
    <path id="Trazado_199" data-name="Trazado 199" d="M192.088,45.508a2.774,2.774,0,0,1-2.51,2.948,2.652,2.652,0,0,1-3-2.333,2.774,2.774,0,0,1,2.5-2.948,2.655,2.655,0,0,1,3,2.333" transform="translate(-7.908 580.626)" fill="#1a2e35"/>
    <path id="Trazado_200" data-name="Trazado 200" d="M197.243,40.179c-.323.38-2.51-1.051-5.49-.871-2.978.136-5.077,1.795-5.422,1.448-.168-.153.146-.825,1.058-1.572a7.606,7.606,0,0,1,4.315-1.606,7.312,7.312,0,0,1,4.395,1.144c.956.65,1.3,1.285,1.145,1.457" transform="translate(-12.609 576.724)" fill="#1a2e35"/>
    <path id="Trazado_201" data-name="Trazado 201" d="M194.2,63.728c-.024-.168,1.81-.594,4.789-1.151.757-.122,1.469-.316,1.567-.842a3.871,3.871,0,0,0-.637-2.224q-1.233-2.7-2.584-5.666c-3.6-8.067-6.252-14.722-5.925-14.863s3.508,6.283,7.108,14.352q1.3,2.988,2.489,5.7A4.416,4.416,0,0,1,201.572,62a1.919,1.919,0,0,1-1.187,1.185,5.187,5.187,0,0,1-1.282.253c-3.012.336-4.885.457-4.906.289" transform="translate(-25.643 577.709)" fill="#1a2e35"/>
    <path id="Trazado_202" data-name="Trazado 202" d="M222.413,76.725a55.232,55.232,0,0,1-29.456-6.04s8.573,14.777,30.068,11.513Z" transform="translate(-49.678 599.843)" fill="#ff9b6c"/>
    <path id="Trazado_203" data-name="Trazado 203" d="M198.815,33.1c-.458.756-2.768.4-5.422.776-2.664.292-4.821,1.2-5.446.582-.278-.3-.029-1.029.854-1.817a8.056,8.056,0,0,1,4.232-1.773,7.955,7.955,0,0,1,4.524.681c1.043.542,1.455,1.185,1.258,1.55" transform="translate(-16.825 572)" fill="#1a2e35"/>
    <path id="Trazado_204" data-name="Trazado 204" d="M202.635,47.821a2.771,2.771,0,0,0,2.927,2.532,2.652,2.652,0,0,0,2.61-2.759,2.775,2.775,0,0,0-2.924-2.534,2.655,2.655,0,0,0-2.613,2.761" transform="translate(-51.256 581.953)" fill="#1a2e35"/>
    <path id="Trazado_205" data-name="Trazado 205" d="M203.918,42.594c.377.328,2.321-1.42,5.293-1.695,2.965-.318,5.291,1.005,5.578.61.144-.177-.268-.793-1.282-1.394A7.614,7.614,0,0,0,209,39.18a7.324,7.324,0,0,0-4.17,1.8c-.846.79-1.094,1.469-.91,1.615" transform="translate(-59.984 577.824)" fill="#1a2e35"/>
    <path id="Trazado_206" data-name="Trazado 206" d="M204.22,35.809c.649.618,2.875-.3,5.629-.594,2.742-.382,5.133-.032,5.6-.788.2-.365-.229-1.007-1.311-1.549a8.532,8.532,0,0,0-4.685-.669,8.435,8.435,0,0,0-4.364,1.783c-.909.786-1.161,1.511-.873,1.817" transform="translate(-61.087 572.934)" fill="#1a2e35"/>
    <path id="Trazado_207" data-name="Trazado 207" d="M235.36,54.031c-.1-1.608-2.174-5.293-3.775-5.449-4.279-.416-11.9.363-11.355,11.138.751,14.726,15.381,10.936,15.386,10.511,0-.329.076-10.649-.256-16.2" transform="translate(-108.544 584.355)" fill="#ffc09d"/>
    <path id="Trazado_208" data-name="Trazado 208" d="M229.618,62.984c-.066-.044-.248.192-.671.414a2.568,2.568,0,0,1-1.915.136c-1.586-.491-3.021-2.9-3.226-5.546a8.47,8.47,0,0,1,.53-3.71,2.964,2.964,0,0,1,1.831-2.067,1.309,1.309,0,0,1,1.549.625c.219.4.139.7.219.722.042.036.3-.262.155-.863a1.643,1.643,0,0,0-.627-.895,1.946,1.946,0,0,0-1.438-.3,3.606,3.606,0,0,0-2.562,2.42,8.706,8.706,0,0,0-.681,4.15c.245,2.963,1.905,5.661,4.067,6.169a2.755,2.755,0,0,0,2.326-.509c.436-.385.5-.72.445-.744" transform="translate(-106.882 586.43)" fill="#ff9b6c"/>
    <path id="Trazado_209" data-name="Trazado 209" d="M259.139,47.971c-3.082-1.686-5.126-4.1-5.147-7.618-1.937.7-4.087-1.722-5.337-3.36s-2.708-2.42-2.741-4.479a2.337,2.337,0,0,0-.216-1.187,2.505,2.505,0,0,0-1.664-.846,9.879,9.879,0,0,1-6.892-6.475,20.9,20.9,0,0,1-9.991,2.252,7.985,7.985,0,0,1-13.527.2,7.153,7.153,0,0,1-4.578,3.805,21.2,21.2,0,0,1-6.086.688,8.457,8.457,0,0,1-5,9.884c-.514.192-1.11.387-1.323.891-.221.526.09,1.107.323,1.628A6.657,6.657,0,0,1,193,52.072a4.963,4.963,0,0,1,.005,7.789c-.516.355-1.192.785-1.075,1.4a1.405,1.405,0,0,0,.36.608,9.639,9.639,0,0,1,2.6,4.729c.239,1.81-.871,3.923-2.686,4.108a4.726,4.726,0,0,1,2.058,3.116c.1,1.279-1.122,2.657-2.343,2.265-.518-.166-7.932-1.182-8.281-1.6-4.493-5.413.382-11.965.385-19a45.711,45.711,0,0,1,5.206-20.256,33.451,33.451,0,0,1,4.814-7.4A44.483,44.483,0,0,1,201.8,21.4c3.585-2.53,7.276-5.064,11.481-6.317,7.835-2.337,16.257.068,23.865,3.06a34.651,34.651,0,0,1,8.271,4.25,31.367,31.367,0,0,1,7.249,8.405c2.9,4.527,5.374,9.448,6.206,14.76" transform="translate(-66.747 560.375)" fill="#1a2e35"/>
    <path id="Trazado_210" data-name="Trazado 210" d="M274.592,46.452a5.658,5.658,0,0,0-.886-1.533c-.341-.47-.815-1.014-1.275-1.72a6.888,6.888,0,0,1-.988-2.7,21.5,21.5,0,0,1-.151-3.644,16.216,16.216,0,0,0-.375-4.364,12.277,12.277,0,0,0-2.211-4.522,12.062,12.062,0,0,0-1.934-1.977,18.108,18.108,0,0,0-2.426-1.591,9.148,9.148,0,0,1-2.352-1.8,11.931,11.931,0,0,1-1.559-2.688,19.786,19.786,0,0,0-9.879-9.526,17.568,17.568,0,0,0-3.622-1.122,15.91,15.91,0,0,0-3.894-.207,18.286,18.286,0,0,0-1.975.277c-.652.141-1.292.318-1.937.472a9.5,9.5,0,0,1-3.933.239c-1.333-.182-2.654-.579-4.035-.837a25.854,25.854,0,0,0-8.531-.272,22.481,22.481,0,0,0-4.271,1.053,14.543,14.543,0,0,0-7.118,5.332q-.252.382-.5.757l.229-.107a17.11,17.11,0,0,0-19.02,13.815l.107-.155a46.835,46.835,0,0,0-5,3.033,15.57,15.57,0,0,0-3.987,4.019,10.118,10.118,0,0,0-1.612,5.2,6.968,6.968,0,0,0,1.7,4.892l0-.248a12.208,12.208,0,0,0-2.936,7.76,12.512,12.512,0,0,0,1.968,7.222,12.039,12.039,0,0,0,1.065,1.4,15.519,15.519,0,0,1,1.092,1.253,3.149,3.149,0,0,1,.611,1.411,9.049,9.049,0,0,1,.049,1.532,24.258,24.258,0,0,0,.491,5.576,11.708,11.708,0,0,0,1.7,4.165,7.236,7.236,0,0,0,2.433,2.252c.79.455,1.472.61,1.863.861a3.3,3.3,0,0,1,.562.411,1.7,1.7,0,0,0-.533-.46c-.389-.272-1.075-.447-1.837-.908a7.2,7.2,0,0,1-2.352-2.247,11.65,11.65,0,0,1-1.632-4.118,24.235,24.235,0,0,1-.44-5.527,9.164,9.164,0,0,0-.042-1.577A3.442,3.442,0,0,0,184.574,64a16.534,16.534,0,0,0-1.1-1.284,11.713,11.713,0,0,1-1.029-1.369,12.2,12.2,0,0,1-1.883-7.049,11.874,11.874,0,0,1,2.877-7.524l.11-.126-.112-.122a6.586,6.586,0,0,1-1.591-4.636A9.734,9.734,0,0,1,183.4,36.9,15.159,15.159,0,0,1,187.3,33a46.374,46.374,0,0,1,4.958-3l.092-.051.015-.1a16.69,16.69,0,0,1,18.528-13.44l.143.024.087-.131c.161-.241.323-.486.486-.73a14.1,14.1,0,0,1,6.9-5.167,21.916,21.916,0,0,1,4.179-1.034,25.546,25.546,0,0,1,8.387.26c1.355.25,2.686.649,4.06.834a10.19,10.19,0,0,0,2.072.092,12.091,12.091,0,0,0,2.017-.345c.654-.158,1.291-.335,1.927-.474a17.71,17.71,0,0,1,1.917-.272,15.412,15.412,0,0,1,3.79.194,17.135,17.135,0,0,1,3.542,1.085,19.466,19.466,0,0,1,9.723,9.317,12.19,12.19,0,0,0,1.618,2.754,9.461,9.461,0,0,0,2.442,1.853,17.863,17.863,0,0,1,2.4,1.552,11.84,11.84,0,0,1,1.9,1.917,12.034,12.034,0,0,1,2.192,4.412,15.969,15.969,0,0,1,.4,4.3,21.192,21.192,0,0,0,.194,3.675,6.931,6.931,0,0,0,1.048,2.744c.479.71.965,1.243,1.314,1.7a8.789,8.789,0,0,1,.742,1.085c.146.256.205.4.216.394" transform="translate(-79.611 556.575)" fill="#375a64"/>
    <path id="Trazado_211" data-name="Trazado 211" d="M200.249,11.9c.025.032.375-.246,1.07-.64a9.909,9.909,0,0,1,3.152-1.129,9.318,9.318,0,0,1,4.88.413,9.618,9.618,0,0,1,4.644,3.722,8.235,8.235,0,0,1,.832,1.622,1.846,1.846,0,0,1-.014,1.557l-.329.521.584-.2a6.1,6.1,0,0,1,4.585.267,5.877,5.877,0,0,1,2.659,2.573A6.432,6.432,0,0,1,223.034,23c.056.588.029.915.063.917.012,0,.031-.078.053-.234a3.96,3.96,0,0,0,.034-.691,6.153,6.153,0,0,0-3.367-5.291,6.422,6.422,0,0,0-4.89-.34l.255.319a2.259,2.259,0,0,0,.065-1.931,8.475,8.475,0,0,0-.878-1.72,9.873,9.873,0,0,0-4.875-3.863,9.4,9.4,0,0,0-5.079-.338,9.2,9.2,0,0,0-3.184,1.291,6.2,6.2,0,0,0-.749.557c-.161.141-.241.219-.231.231" transform="translate(-62.218 557.217)" fill="#375a64"/>
    <path id="Trazado_212" data-name="Trazado 212" d="M215.49,21.766a2.279,2.279,0,0,0,.548.5,9.517,9.517,0,0,0,1.732,1.054,7.011,7.011,0,0,0,2.99.7,5.268,5.268,0,0,0,3.59-1.324l-.329-.029c.153.188.307.382.469.577s.355.365.535.548a8.94,8.94,0,0,0,3.817,2.068,9.124,9.124,0,0,0,3.534.228,8.253,8.253,0,0,0,2.287-.667,3.027,3.027,0,0,0,.744-.457,12.8,12.8,0,0,1-3.067.813,9.362,9.362,0,0,1-3.393-.312,8.8,8.8,0,0,1-3.619-2c-.17-.175-.348-.341-.509-.518s-.3-.367-.443-.543l-.156-.2-.173.165a4.958,4.958,0,0,1-3.289,1.255,7.078,7.078,0,0,1-2.866-.582c-1.547-.667-2.357-1.348-2.4-1.284" transform="translate(-100.323 565.691)" fill="#375a64"/>
    <path id="Trazado_213" data-name="Trazado 213" d="M217.9,30.9c-.015.005,0,.1.053.268a2.5,2.5,0,0,0,.37.693,3.931,3.931,0,0,0,2.466,1.433,7.506,7.506,0,0,0,4.177-.71,23.854,23.854,0,0,0,2.269-1.056,4.035,4.035,0,0,0,1.921-1.975c.027-.083.054-.166.078-.243l-.341.127a16.92,16.92,0,0,0,4.524,2.357,7.613,7.613,0,0,0,4.16.178,5.471,5.471,0,0,0,2.476-1.313,3.28,3.28,0,0,0,.5-.577c.1-.144.141-.224.129-.233-.032-.025-.246.272-.742.683a5.727,5.727,0,0,1-2.435,1.136,7.481,7.481,0,0,1-3.967-.263,17.251,17.251,0,0,1-4.395-2.335l-.245-.17-.1.3c-.02.065-.042.134-.064.2a3.647,3.647,0,0,1-1.72,1.751c-.727.411-1.5.74-2.211,1.058a7.41,7.41,0,0,1-3.967.778,3.922,3.922,0,0,1-2.384-1.233,6.473,6.473,0,0,1-.557-.852" transform="translate(-109.688 570.676)" fill="#375a64"/>
    <path id="Trazado_214" data-name="Trazado 214" d="M197.009,55a41.492,41.492,0,0,1,9.859,3.549c.263,1.5-2.211,4.826-3.612,5.432a5.293,5.293,0,0,1-4.755-.542,6.472,6.472,0,0,1-2.264-4c-.272-1.5.341-2.975.771-4.439" transform="translate(-38.997 588.89)" fill="#ff9b6c"/>
    <path id="Trazado_215" data-name="Trazado 215" d="M204.114,64.4a9.742,9.742,0,0,1-3.3-.632,5.66,5.66,0,0,1-2.6-2.328,5.732,5.732,0,0,1-.525-4.169,5.585,5.585,0,0,1,.846-1.831l-.491.153c5.249,1.763,9.265,2.95,9.334,2.746s-3.829-1.734-9.052-3.568l-.3-.105-.192.258a6.262,6.262,0,0,0-1,2.129,6.353,6.353,0,0,0,.679,4.8,6.014,6.014,0,0,0,3.065,2.5c2.187.766,3.6.117,3.542.053" transform="translate(-40.273 588.66)" fill="#1a2e35"/>
    <path id="Trazado_216" data-name="Trazado 216" d="M219.228,63.747a4.72,4.72,0,1,0,4.719-4.719,4.718,4.718,0,0,0-4.719,4.719" transform="translate(-99.93 591.705)" fill="#375a64"/>
    <path id="Trazado_217" data-name="Trazado 217" d="M63.361,131.429s14.678-6.4,18.961-9.137,6.507-3.425,11.3-4.281,17.47-2.226,20.553,0,16.955,7.894,16.955,7.894l-18.365,9.986s-3.009,12.413-6.644,13.54-3.009.752-6.9,0-16.675-6.9-17.052-6.645-13.5,7.356-13.5,7.356Z" transform="translate(262.277 632.035)" fill="#ffc09d"/>
    <path id="Trazado_218" data-name="Trazado 218" d="M43.412,125.931H86.974l2.1-1.443a.575.575,0,0,0-.02-.963l-2.078-1.3H43.412Z" transform="translate(337.962 635.823)" fill="#1a2e35"/>
    <path id="Trazado_219" data-name="Trazado 219" d="M79.609,123.358s-2.08-2.489-6.14-.08a77.356,77.356,0,0,0-6.792,4.495,27.528,27.528,0,0,1-2.754-.825L58.141,129.7l-.62,3.44s7.366,2.479,9.7,1.24,10.878-7.743,11.841-9.069.543-1.954.543-1.954" transform="translate(323.625 635.822)" fill="#ffc09d"/>
    <path id="Trazado_220" data-name="Trazado 220" d="M73.3,140.955l2.686-1.7-.965-3.717s-5.644-.759-6.264-3.855,0-3.029,0-3.029l7.3,1.24-3.372-2.826s-6.127-.754-5.644-4.335l1.178-1.685a53.333,53.333,0,0,1,7.913,2.1c2.34,1.032,8.944,5.571,8.944,5.571l-5.507-5.23a11.987,11.987,0,0,1-4.021-2.4,2.153,2.153,0,0,1,1.734-3.619,19.381,19.381,0,0,1,5.867,1.265c2.34,1.1,9.361,6.266,10.394,8.949s.895,3.634-.757,5.329a33.811,33.811,0,0,1-5.712,3.967,10.289,10.289,0,0,1-3.442,3.787s-1.172,5.189-8.254,8.205" transform="translate(293.03 632.497)" fill="#ffc09d"/>
    <path id="Trazado_221" data-name="Trazado 221" d="M75.551,149.146a3.454,3.454,0,0,0,.766-.278,15.617,15.617,0,0,0,5.069-3.467,11.286,11.286,0,0,0,2.673-4.4l-.132.173a9.813,9.813,0,0,0,3.591-3.875l-.121.124c1.185-.666,2.4-1.4,3.63-2.243a10.413,10.413,0,0,0,3.388-3.315,3.633,3.633,0,0,0,.146-2.622,7.925,7.925,0,0,0-.993-2.432,20.944,20.944,0,0,0-3.726-3.846,46.775,46.775,0,0,0-4.479-3.345,12.783,12.783,0,0,0-2.6-1.394,17.251,17.251,0,0,0-2.916-.72c-.494-.082-.99-.149-1.491-.2a5.218,5.218,0,0,0-1.632-.027A2.614,2.614,0,0,0,74.7,119.95a2.5,2.5,0,0,0,.744,1.654,8.238,8.238,0,0,0,1.267,1.024,13.792,13.792,0,0,0,2.89,1.452l-.16-.1c.708.676,1.474,1.4,2.241,2.133q1.651,1.564,3.265,3.1l.554-.683c-2.746-1.851-5.412-3.654-8.195-5.191a19.73,19.73,0,0,0-4.451-1.552c-1.481-.372-2.939-.689-4.384-.97l-.261-.051-.153.219-1.173,1.688-.059.083-.01.1a3.146,3.146,0,0,0,.56,2.206,4.694,4.694,0,0,0,1.647,1.381,11.671,11.671,0,0,0,3.792,1.177l-.194-.085q1.752,1.452,3.386,2.805l.287-.62-5.456-.893c-.431-.071-.856-.139-1.274-.209l-.312-.049-.156-.025-.078-.014-.042-.007a.379.379,0,0,0-.187.027c-.477.338-.341.584-.414.812a10.044,10.044,0,0,0,.265,2.449,3.593,3.593,0,0,0,1.216,2.017,7.166,7.166,0,0,0,1.808,1.116,13.961,13.961,0,0,0,3.51.968l-.165-.148c.408,1.464.747,2.69,1.029,3.7l.056-.146c-.844.571-1.493,1.007-1.994,1.345a3.223,3.223,0,0,0-.62.475,3.4,3.4,0,0,0,.693-.36c.518-.311,1.19-.712,2.061-1.234l.083-.049-.024-.1c-.245-1.021-.542-2.257-.9-3.734l-.029-.126-.138-.024a13.823,13.823,0,0,1-3.364-1.015c-1.121-.538-2.418-1.375-2.668-2.8a9.6,9.6,0,0,1-.219-2.28,1.315,1.315,0,0,1,.044-.245c.027-.09.066-.027-.076-.216l-.008-.031,0-.022c-.015-.214.025.278,0,.229l-.039,0,.034.005.076.014.156.029.311.054,1.267.224,5.432.956,1.287.226-1-.847q-1.623-1.37-3.359-2.837l-.08-.068-.115-.017a10.975,10.975,0,0,1-3.508-1.116,2.839,2.839,0,0,1-1.781-2.795l-.07.178c.389-.554.783-1.111,1.184-1.681l-.414.168c1.421.284,2.873.608,4.33.981A18.952,18.952,0,0,1,76.9,124.1c2.695,1.5,5.381,3.318,8.1,5.157l.555-.683q-1.612-1.533-3.262-3.1c-.769-.73-1.533-1.457-2.245-2.131l-.066-.063-.1-.036A12.954,12.954,0,0,1,77.2,121.9a7.263,7.263,0,0,1-1.136-.915,1.6,1.6,0,0,1-.491-1.08,1.74,1.74,0,0,1,1.336-1.785,4.59,4.59,0,0,1,1.347.039c.487.051.971.115,1.448.194a16.343,16.343,0,0,1,2.764.669,12.023,12.023,0,0,1,2.442,1.3,47.084,47.084,0,0,1,4.415,3.259,20.5,20.5,0,0,1,3.6,3.654,7.339,7.339,0,0,1,.914,2.192,2.934,2.934,0,0,1-.075,2.128,9.964,9.964,0,0,1-3.126,3.084c-1.19.842-2.393,1.586-3.546,2.257l-.076.044-.044.08a9.378,9.378,0,0,1-3.293,3.7l-.1.056-.034.117a11.073,11.073,0,0,1-2.464,4.243,15.008,15.008,0,0,1-2.822,2.421c-1.7,1.124-2.747,1.525-2.715,1.6" transform="translate(292.847 632.321)" fill="#ff9b6c"/>
    <path id="Trazado_222" data-name="Trazado 222" d="M96.745,137.091a8.568,8.568,0,0,0-1.406-2.863,26.839,26.839,0,0,0-11.564-9.942,8.626,8.626,0,0,0-3.043-.961c-.114.261,4.508,1.883,8.969,5.765,4.5,3.827,6.8,8.154,7.044,8" transform="translate(267.159 636.575)" fill="#ff9b6c"/>
    <path id="Trazado_223" data-name="Trazado 223" d="M73.153,124.641c-.022.155.834.284,2.043.815a7.851,7.851,0,0,1,3.586,3.5,24.411,24.411,0,0,1,1.8,4.933c.367,1.319.63,2.138.752,2.112a5.507,5.507,0,0,0-.143-2.248,16.832,16.832,0,0,0-1.63-5.22,7.488,7.488,0,0,0-4.135-3.654,3.844,3.844,0,0,0-2.272-.234" transform="translate(295.386 637.454)" fill="#ff9b6c"/>
    <path id="Trazado_224" data-name="Trazado 224" d="M70.709,123.979c-.139.192,1.352,1.5,1.926,3.836.645,2.287.469,4.286.73,4.316.216.065.824-2.029.122-4.558a6.582,6.582,0,0,0-1.6-2.883c-.613-.608-1.122-.8-1.182-.711" transform="translate(307.132 637.03)" fill="#ff9b6c"/>
    <path id="Trazado_225" data-name="Trazado 225" d="M198.972,198.077l-3.809,5.656-14.432,21.19c.766,7.9,1.087,17.064,1.618,27.242.521,10.226,1.1,21.487,1.713,33.576.655,12.09,1.357,25.009,2.09,38.549.822,13.528,1.527,27.712,2.877,42.216,1.36,11.695,2.494,14.916,1.622,26.1-.292-.026-.584-.048-.876-.07.852-11.085-.273-14.23-1.637-25.936-1.355-14.564-2.05-28.723-2.854-42.263-.708-13.542-1.386-26.464-2.017-38.558-.576-12.092-1.112-23.355-1.6-33.584s-.761-19.414-1.476-27.325l-.008-.093.054-.078c6.29-9.046,11.265-16.2,14.69-21.129,1.7-2.415,3.012-4.283,3.923-5.578.436-.606.774-1.075,1.024-1.423a3.62,3.62,0,0,1,.367-.469,3.659,3.659,0,0,1-.306.511c-.236.357-.554.839-.964,1.464" transform="translate(-5.208 687.391)" fill="#375a64"/>
    <path id="Trazado_226" data-name="Trazado 226" d="M240.482,94.7S226.422,98.437,226,116.952c-.372,16.38-8.01,62.416-8.22,79.036s1.686,29.142,22.737,32.681c17,2.858,35.019-35.345,35.019-35.345l-17.3-14.991,7.213-30.034s4.794-10.309-6.568-31.98-18.4-21.62-18.4-21.62" transform="translate(-144.319 616.607)" fill="#00cabc"/>
    <path id="Trazado_227" data-name="Trazado 227" d="M240.1,78.438l8.129,10.732,25.856,5.561s19.035,40.49,18.149,59.106-2.9,27.858-2.9,27.858L289.508,203s8.03,17.728,4.459,25.412-13.618,14.773-13.618,14.773L186.5,244.371s-6.685,3.841-10.2-6.2,2.073-83.327,2.073-83.327L160.087,107.7l29.6-16.14L195.1,77.278l35.413,9.032Z" transform="translate(-65.72 604.445)" fill="#00cabc"/>
    <path id="Trazado_228" data-name="Trazado 228" d="M241.217,78.366,249.345,89.1,275.2,94.659s19.035,40.49,18.149,59.106-2.9,27.858-2.9,27.858l.168,21.307s8.03,17.729,4.459,25.412-13.618,14.775-13.618,14.775L187.614,244.3s-6.685,3.841-10.2-6.2,2.073-83.327,2.073-83.327L161.2,107.63l29.6-16.14,5.412-14.284,35.413,9.032Z" transform="translate(-68.721 604.395)" fill="#00cabc"/>
    <path id="Trazado_229" data-name="Trazado 229" d="M217.767,148.941l3.907-5.733,20.224,8.748-1.9,6.551s-6.894,7.755-13.7,5.171-8.013-10.256-8.013-10.256Z" transform="translate(-110.68 650.468)" fill="#ffc09d"/>
    <path id="Trazado_230" data-name="Trazado 230" d="M226.165,141.586s-2.826-3.714-4.938-4.536a30.033,30.033,0,0,0-3.05-1.056s1.055-3.872-2.934-4.223a5.584,5.584,0,0,1-2.815,1.291,2.234,2.234,0,0,0-2.581,1.876c-.352,1.527-1.291,5.75,0,7.745s3.637,3.989,2.581,9.385c0,0,1.408,5.984,4.459,7.509s4.575,1.408,4.575,1.408,2.815,3.4,5.162,2.933,3.4-.586,3.4-.586,1.876,2.9,5.984.63a4.573,4.573,0,0,0,4.575.307c1.1-.593,6.453-5.982,6.687-10.088s.075-6.93-.937-8.448c-1.506-2.258-3.693-.212-3.693-.212s-.531-3.894-2.056-5.419-2.7-1.29-2.7-1.29.469-4.693-3.167-5.045-3.286,3.989-3.4,6.335l-.117,2.345s-1.46-3.445-5.035-.861" transform="translate(-101.58 642.484)" fill="#ffc09d"/>
    <path id="Trazado_231" data-name="Trazado 231" d="M226.275,141.707c-.014.07.46-.311,1.389-.652a2.8,2.8,0,0,1,1.773-.063,3.064,3.064,0,0,1,1.7,1.647l.309.672.042-.734c.058-1,.149-2.121.192-3.366a9.668,9.668,0,0,1,.671-3.838c.528-1.307,2.357-1.52,3.664-.812,1.336.742,1.759,2.637,1.644,4.335l-.027.379.426-.017a3.849,3.849,0,0,1,3.029,2.123,14.03,14.03,0,0,1,1.284,4.31l.109.684.525-.458c.723-.633,1.832-1.039,2.566-.436a4.447,4.447,0,0,1,1.3,2.832,21.054,21.054,0,0,1,.187,3.539,16.643,16.643,0,0,1-.311,3.607,17.464,17.464,0,0,1-3.951,6.392c-.438.484-.9.954-1.375,1.4-.241.219-.486.431-.732.62a3.059,3.059,0,0,1-.788.38,4.155,4.155,0,0,1-3.525-.528l-.239-.153-.231.126a5.063,5.063,0,0,1-3.661.684,3.25,3.25,0,0,1-1.739-1.17l-.177-.241-.243.042-2.438.421c-.387.059-.846.16-1.17.189a2.464,2.464,0,0,1-1.01-.117,9.08,9.08,0,0,1-3.561-2.676l-.136-.153-.233-.005a9.479,9.479,0,0,1-3.236-.844,5.779,5.779,0,0,1-2.666-1.837,16.42,16.42,0,0,1-2.7-5.894l0,.171a9.939,9.939,0,0,0-.9-7.078c-.565-1.021-1.34-1.887-1.854-2.747a5.967,5.967,0,0,1-.523-2.905,18.613,18.613,0,0,1,.324-2.96,5.58,5.58,0,0,1,.815-2.532,1.767,1.767,0,0,1,1.039-.5,13.6,13.6,0,0,0,1.357-.146,6.47,6.47,0,0,0,2.343-1.289l-.209.066a2.987,2.987,0,0,1,2.471,1.318,3.792,3.792,0,0,1,.263,2.559l-.046.216.214.07q1.123.377,2.131.712a6.462,6.462,0,0,1,1.785.762,15.21,15.21,0,0,1,2.352,2.007c.593.6,1.024,1.087,1.316,1.409a2.949,2.949,0,0,0,.46.477,2.364,2.364,0,0,0-.363-.555c-.262-.352-.666-.863-1.235-1.5a14.292,14.292,0,0,0-2.333-2.138,6.672,6.672,0,0,0-1.846-.852l-2.155-.773.166.285a4.241,4.241,0,0,0-.256-2.931,3.517,3.517,0,0,0-2.875-1.639l-.112-.008-.1.075a5.972,5.972,0,0,1-2.121,1.134c-.659.143-1.922-.075-2.717.79a2.985,2.985,0,0,0-.7,1.413c-.11.47-.219.951-.312,1.443a19.081,19.081,0,0,0-.367,3.067,6.6,6.6,0,0,0,.586,3.282c.594,1,1.313,1.8,1.834,2.764a9.168,9.168,0,0,1,.771,6.544l-.019.09.022.082a17.049,17.049,0,0,0,2.839,6.242,6.066,6.066,0,0,0,1.352,1.268,10.79,10.79,0,0,0,1.635.825,9.877,9.877,0,0,0,3.637.92l-.368-.156a9.83,9.83,0,0,0,3.968,2.961,3.33,3.33,0,0,0,1.369.153c.479-.051.812-.131,1.226-.2l2.386-.411-.421-.2a4.085,4.085,0,0,0,2.247,1.542,5.908,5.908,0,0,0,4.322-.764l-.469-.027a5.021,5.021,0,0,0,4.318.642,3.773,3.773,0,0,0,1.026-.508c.29-.221.552-.45.808-.683.5-.472.973-.959,1.426-1.46a18.156,18.156,0,0,0,4.12-6.755,17.136,17.136,0,0,0,.324-3.816,21.757,21.757,0,0,0-.219-3.678,5.145,5.145,0,0,0-1.627-3.332,2.269,2.269,0,0,0-1.931-.368,3.865,3.865,0,0,0-1.617.88l.632.226a14.6,14.6,0,0,0-1.406-4.554,5.062,5.062,0,0,0-1.569-1.732,3.291,3.291,0,0,0-2.218-.7l.4.362a7.293,7.293,0,0,0-.34-2.793,3.7,3.7,0,0,0-1.674-2.134,3.926,3.926,0,0,0-2.534-.385,2.6,2.6,0,0,0-1.9,1.481,9.912,9.912,0,0,0-.65,4.069c-.014,1.229-.078,2.355-.107,3.359l.352-.063a3.326,3.326,0,0,0-1.958-1.771,2.942,2.942,0,0,0-1.921.151,4.32,4.32,0,0,0-1.324.83" transform="translate(-101.69 642.364)" fill="#ff9b6c"/>
    <path id="Trazado_232" data-name="Trazado 232" d="M226.389,138.92c.012.114.43.2,1.085.048a4.385,4.385,0,0,0,3.26-3.751c.058-.669-.083-1.071-.2-1.068-.25-.008-.357,1.552-1.518,2.871-1.144,1.333-2.674,1.656-2.63,1.9" transform="translate(-114.169 644.144)" fill="#ff9b6c"/>
    <path id="Trazado_233" data-name="Trazado 233" d="M221.7,148.456c.251.09,1.311-2.661,3.243-5.677,1.912-3.036,4.033-5.07,3.86-5.264-.132-.187-2.613,1.632-4.6,4.787-2.007,3.136-2.713,6.1-2.5,6.154" transform="translate(-104.2 646.485)" fill="#ff9b6c"/>
    <path id="Trazado_234" data-name="Trazado 234" d="M225.643,137.51c-.144.024.08,1.129-.3,2.834a22.657,22.657,0,0,1-2.814,6.251,23.793,23.793,0,0,0-1.695,3.532,29.574,29.574,0,0,0-.788,3.074,4.066,4.066,0,0,1-1.5,2.241c.009.048.326.053.785-.241a3.587,3.587,0,0,0,1.313-1.8c.336-.891.508-1.922.958-2.98a29.859,29.859,0,0,1,1.7-3.391,18.408,18.408,0,0,0,2.659-6.575c.239-1.863-.228-2.98-.318-2.941" transform="translate(-96.125 646.49)" fill="#ff9b6c"/>
    <path id="Trazado_235" data-name="Trazado 235" d="M214.522,154.8a7.912,7.912,0,0,0,2.359-1.937,9.434,9.434,0,0,0,1.9-2.8,13.408,13.408,0,0,0,.815-4.033c.54-5.724-.1-10.363-.326-10.333-.258.019-.022,4.62-.555,10.251a14.356,14.356,0,0,1-.689,3.812,10.2,10.2,0,0,1-1.617,2.691,15.31,15.31,0,0,0-1.887,2.347" transform="translate(-83.064 645.225)" fill="#ff9b6c"/>
    <path id="Trazado_236" data-name="Trazado 236" d="M211.429,153.374c.121.042.506-.683,1.431-1.668a17.349,17.349,0,0,0,1.566-1.883,6.081,6.081,0,0,0,1.014-2.944,22.654,22.654,0,0,0-.555-5.395,11.806,11.806,0,0,0-.338-2.182c-.114-.02-.35.841-.284,2.243a42.456,42.456,0,0,1,.3,5.252c-.1,2.016-1.381,3.381-2.187,4.519-.837,1.129-1.06,2.026-.944,2.058" transform="translate(-73.442 647.741)" fill="#ff9b6c"/>
    <path id="Trazado_237" data-name="Trazado 237" d="M231.915,162.039a17.116,17.116,0,0,1,2.68-3.464,16.288,16.288,0,0,1,3.936-2.61,38.169,38.169,0,0,1,5.507-2.009,58.982,58.982,0,0,0,5.666-1.9,18.635,18.635,0,0,0,4.284-2.435,11.006,11.006,0,0,0,2.306-2.4c.441-.654.594-1.065.55-1.09a22.256,22.256,0,0,1-3.228,2.987A20.415,20.415,0,0,1,249.4,151.3c-1.674.659-3.595,1.2-5.617,1.812a33.76,33.76,0,0,0-5.614,2.126,15.282,15.282,0,0,0-4.009,2.892,9.666,9.666,0,0,0-1.905,2.737,2.542,2.542,0,0,0-.338,1.173" transform="translate(-149.635 652.505)" fill="#1a2e35"/>
    <path id="Trazado_238" data-name="Trazado 238" d="M216.979,146.562c-1.014.1-15.688,5.266-15.688,5.266s-5.982-2.017-11.43-.436-33.133,7.809-33.133,7.809l-35.6-46.074s-14.306-24.084-27.94-25.571l10.839,67.853s28.95,38.257,42.908,43.053,63.012-13.333,64.282-20.153l16.371-10.229Z" transform="translate(115.186 611.62)" fill="#00cabc"/>
    <path id="Trazado_239" data-name="Trazado 239" d="M218.509,188.846a7.812,7.812,0,0,0,1.812-.628,32.773,32.773,0,0,0,4.605-2.481,54.55,54.55,0,0,0,12.5-11.81c2.112-2.62,3.984-5.218,5.649-7.6a42.175,42.175,0,0,0,4.123-6.583,7.987,7.987,0,0,0,.537-5.232,4.641,4.641,0,0,0-.577-1.326c-.182-.275-.306-.4-.328-.384a16.008,16.008,0,0,1,.571,1.786,8.069,8.069,0,0,1-.773,4.9,47.164,47.164,0,0,1-4.216,6.364c-1.7,2.35-3.58,4.919-5.673,7.514a60.424,60.424,0,0,1-12.162,11.849c-3.581,2.489-6.144,3.467-6.069,3.627" transform="translate(-118.001 657.166)" fill="#1a2e35"/>
    <path id="Trazado_240" data-name="Trazado 240" d="M226.564,118.065c-.256.014-.149,5.3-.428,11.807-.26,6.507-.8,11.768-.547,11.8a12.647,12.647,0,0,0,.7-3.411c.3-2.126.591-5.081.728-8.356s.085-6.242-.037-8.385a12.634,12.634,0,0,0-.419-3.457" transform="translate(-109.053 632.917)" fill="#1a2e35"/>
    <path id="Trazado_241" data-name="Trazado 241" d="M225.738,95.906c-.019.205,2.085.1,5.074,1.353,3,1.2,6.577,4.113,9.414,8.185a39.949,39.949,0,0,1,5.486,11.426c.934,3.131,1.151,5.162,1.309,5.145a4.524,4.524,0,0,0-.024-1.442,12.325,12.325,0,0,0-.224-1.676,21.153,21.153,0,0,0-.457-2.192,35.733,35.733,0,0,0-5.368-11.771,27.226,27.226,0,0,0-4.841-5.293,17.554,17.554,0,0,0-5.065-2.963c-.4-.141-.764-.3-1.127-.4l-1.046-.216a6.428,6.428,0,0,0-1.688-.214,4.458,4.458,0,0,0-1.443.058" transform="translate(-129.378 617.402)" fill="#1a2e35"/>
    <path id="Trazado_242" data-name="Trazado 242" d="M162.145,95.879a2.824,2.824,0,0,0,.285.744c.263.562.579,1.238.963,2.048.436.88.956,1.961,1.5,3.248s1.233,2.712,1.842,4.357a115.151,115.151,0,0,1,3.956,11.65,124.28,124.28,0,0,1,3.089,14.734,124.122,124.122,0,0,1,1.092,15.018,114.981,114.981,0,0,1-.594,12.289c-.131,1.751-.4,3.316-.571,4.7s-.368,2.567-.545,3.534c-.143.883-.263,1.62-.362,2.233a2.743,2.743,0,0,0-.066.793,2.708,2.708,0,0,0,.241-.754c.144-.606.318-1.333.526-2.207.228-.959.481-2.138.693-3.522s.533-2.95.7-4.7a102.316,102.316,0,0,0,.786-12.362,105.945,105.945,0,0,0-4.209-29.974,103.2,103.2,0,0,0-4.164-11.664c-.647-1.64-1.375-3.062-1.97-4.328s-1.155-2.337-1.639-3.194c-.441-.783-.808-1.435-1.116-1.978-.26-.447-.411-.674-.44-.659" transform="translate(49.993 617.429)" fill="#1a2e35"/>
    <path id="Trazado_243" data-name="Trazado 243" d="M187.562,87.793a2.664,2.664,0,0,0,.684.372c.46.214,1.141.533,2.034.908,1.778.764,4.386,1.808,7.658,3a223.028,223.028,0,0,0,26.34,7.655l.426.1.1-.43c.194-.818.411-1.695.655-2.574,1.267-4.592,2.79-8.94,3.741-13.124l-.732.168c3.705,4.517,7.044,8.523,10.036,11.635l.231.241.221-.241a33.647,33.647,0,0,0,3.09-4.164q1.218-1.847,2.134-3.237c1.178-1.768,1.97-2.634,1.922-2.681a2.721,2.721,0,0,0-.64.577,22.6,22.6,0,0,0-1.564,1.9c-.644.854-1.394,1.922-2.264,3.157a35.284,35.284,0,0,1-3.131,4.006l.453,0c-2.887-3.133-6.179-7.191-9.839-11.72l-.537-.664-.2.832c-.966,4.109-2.5,8.444-3.78,13.078-.246.886-.467,1.776-.664,2.61l.528-.331A266.013,266.013,0,0,1,198.139,91.5c-3.291-1.112-5.923-2.067-7.736-2.736a21.688,21.688,0,0,0-2.841-.971" transform="translate(-63.6 608.214)" fill="#1a2e35"/>
    <path id="Trazado_244" data-name="Trazado 244" d="M197.586,243.366a1.5,1.5,0,0,0,.382-.187c.241-.144.62-.335,1.073-.647a13.007,13.007,0,0,0,3.3-3.495,20.677,20.677,0,0,0,2.747-7.091,50.847,50.847,0,0,0,.92-10.029c.012-14.867.219-35.433-1.381-58.094-.812-11.329-2.092-22.088-3.77-31.789a220.463,220.463,0,0,0-5.906-25.468,154.2,154.2,0,0,0-8.444-22.538,1.587,1.587,0,0,0,.121.411c.114.312.256.7.431,1.168q.634,1.628,1.735,4.459c.812,1.912,1.588,4.333,2.559,7.118,1.022,2.768,1.932,6,3,9.557a231.2,231.2,0,0,1,5.7,25.43c1.628,9.679,2.88,20.411,3.69,31.716,1.6,22.61,1.489,43.168,1.639,58.026a51.743,51.743,0,0,1-.779,9.932,20.761,20.761,0,0,1-2.556,7.008,14.422,14.422,0,0,1-4.463,4.512" transform="translate(-21.721 609.157)" fill="#1a2e35"/>
    <path id="Trazado_245" data-name="Trazado 245" d="M172.736,167.428a12.787,12.787,0,0,0,2.435-.234c1.559-.2,3.805-.572,6.566-1.111a156.665,156.665,0,0,0,21.2-5.789,156.364,156.364,0,0,0,20.176-8.714c2.493-1.3,4.481-2.413,5.824-3.231a12.937,12.937,0,0,0,2.046-1.336,12.776,12.776,0,0,0-2.213,1.036c-1.392.725-3.418,1.747-5.938,2.973a192.525,192.525,0,0,1-20.188,8.439,192.587,192.587,0,0,1-21.036,6.009c-2.734.616-4.957,1.083-6.5,1.386a12.843,12.843,0,0,0-2.376.572" transform="translate(-23.299 653.12)" fill="#1a2e35"/>
    <path id="Trazado_246" data-name="Trazado 246" d="M234.154,148.268l-.031,0c.066-.053.148-.1.211-.151Z" transform="translate(-130.889 653.897)"/>
    <path id="Trazado_247" data-name="Trazado 247" d="M234.325,155.867c.548-2.961,3.029-5.289,5.831-6.395a21.624,21.624,0,0,1,8.908-1.041,71.732,71.732,0,0,0,10.531-.222c-2.973,2.355-8.166,3.371-12.218,5.074a19.8,19.8,0,0,0-6.393,3.69,25.072,25.072,0,0,1-2.155,2.157,3.158,3.158,0,0,1-2.851.672c-1.465-.508-1.938-2.408-1.654-3.934" transform="translate(-156.362 653.959)" fill="#00897c"/>
    <path id="Trazado_248" data-name="Trazado 248" d="M159.567,107.533c5.077,5.655,8.73,12.649,9.443,20.215a36.056,36.056,0,0,1-5,21.849l-.07-.267c1.657-14.544.525-28-4.374-41.8" transform="translate(60.883 625.565)" fill="#00897c"/>
  </g>
</svg>
