<svg xmlns="http://www.w3.org/2000/svg" width="139.109" height="106.21" viewBox="0 0 139.109 106.21">
  <path id="Trazado_261" data-name="Trazado 261" d="M58.71,30.2c6.773,0,13.181,0,19.588-.005.612,0,1.225-.078,2.124-.139,0-5.272.3-10.425-.072-15.527C79.81,7.2,86.1,1.543,91.467.4a14.8,14.8,0,0,1,16.672,8.155,7.294,7.294,0,0,1,.513,1.253,9.8,9.8,0,0,0,5.144,6.476,18.515,18.515,0,0,1,8.06,9.922c5.186,13.6,10.485,27.15,15.489,40.812A29.3,29.3,0,1,1,81.459,84.524c-.213-.785-.42-1.572-.677-2.538H58.6c-1.03,2.732-1.8,5.44-3.029,7.926a29.2,29.2,0,0,1-37.354,14.071C3.988,98.082-3.51,82.217,1.611,67.71c4.993-14.143,10.523-28.1,15.909-42.1a17.531,17.531,0,0,1,7.9-9.379c2.809-1.521,4.114-3.7,5.119-6.508C32.556,4.09,36.8,1,42.634.147a14.144,14.144,0,0,1,16.075,13.92c0,5.24,0,10.481,0,16.131m51.033,25.538a21.161,21.161,0,1,0,21.175,21.191,21.124,21.124,0,0,0-21.175-21.191m-80.372,0A21.161,21.161,0,1,0,50.547,76.925,21.14,21.14,0,0,0,29.371,55.736M16.858,50.167c12.681-4.846,23.664-2.832,33.6,6.107,0-8.268.294-16.112-.094-23.922-.3-6.067-5.321-10.686-11.482-11.571A13.062,13.062,0,0,0,25.1,28.7c-2.828,6.929-5.377,13.973-8.239,21.47m105.466,0C119.3,42.393,116.718,35,113.563,27.855c-2.471-5.6-8.807-8.194-14.8-6.8a13.162,13.162,0,0,0-10.15,12.52c-.124,6.051-.035,12.107-.04,18.16,0,1.392,0,2.784,0,4.67,10.063-9.094,20.978-11.035,33.746-6.237M80.266,38.562h-21.4V62.1h21.4Zm.078,32.044H58.695c.054,1.052.1,1.918.146,2.831h21.5ZM50.457,16.3c.293-4.89-1.171-7.29-4.986-8.007a5.672,5.672,0,0,0-6.687,3.689L50.457,16.3m50.04-4.354A6.044,6.044,0,0,0,92.9,8.491c-3.573,1.068-4.8,3.529-4.073,7.761l11.668-4.3" transform="translate(0.001 0.001)" fill="#e4b41c"/>
</svg>
