<svg xmlns="http://www.w3.org/2000/svg" xmlns:xlink="http://www.w3.org/1999/xlink" width="355.494" height="712" viewBox="0 0 355.494 712">
  <defs>
    <clipPath id="clip-path">
      <rect id="Rect치ngulo_90" data-name="Rect치ngulo 90" width="355.494" height="712" fill="none"/>
    </clipPath>
    <clipPath id="clip-path-3">
      <rect id="Rect치ngulo_88" data-name="Rect치ngulo 88" width="19.448" height="52.829" fill="none"/>
    </clipPath>
  </defs>
  <g id="hombre" transform="translate(0)">
    <g id="Grupo_61" data-name="Grupo 61" transform="translate(0)" clip-path="url(#clip-path)">
      <g id="Grupo_60" data-name="Grupo 60">
        <g id="Grupo_59" data-name="Grupo 59" clip-path="url(#clip-path)">
          <path id="Trazado_175" data-name="Trazado 175" d="M152.21,403.925,147.29,265.639s-6.027,75.876-10.905,138.286H51.291L52.943,240.85l8.149-63.239,186.226,15.322c-.03,1.583-2.847,102.119-5.9,210.992Zm-44.9-208.7c-.391,0-.722,2.21-.736,4.941s.293,4.944.686,4.944.722-2.21.738-4.939-.3-4.944-.689-4.947m5.959.957c-.391-.038-.935,2.035-1.217,4.635s-.194,4.736.2,4.775.938-2.037,1.22-4.635.191-4.739-.2-4.775m34.535,5.373a4.775,4.775,0,0,0-2.379-1.991c-.705-.252-1.129-.211-1.146-.131-.107.2,1.622.55,2.633,2.565a3.405,3.405,0,0,1-.172,3.459,4.04,4.04,0,0,1-3.9,1.72,3.657,3.657,0,0,1-2.8-3.033,2.979,2.979,0,0,1,1.586-2.978c2.018-1.154,3.6-.279,3.648-.487.044-.063-.232-.383-.957-.626a4.41,4.41,0,0,0-3.175.273,3.976,3.976,0,0,0-2.409,3.938,4.832,4.832,0,0,0,3.828,4.239,5.256,5.256,0,0,0,5.3-2.4,4.282,4.282,0,0,0-.057-4.548m5.97-2.562a9.313,9.313,0,0,0-.4,2.592c-.17,1.671-.369,4.1-.582,7.091-.429,5.991-.922,14.274-1.381,23.43-.4,8.135-.714,15.571-.894,21.269-3.156-.943-5.759-1.7-7.591-2.2a13.373,13.373,0,0,0-3.109-.692,13.2,13.2,0,0,0,2.918,1.225c1.911.7,4.69,1.665,8.124,2.825l.654.221.047-.678c.4-5.762.853-13.465,1.274-21.909.459-9.153.793-17.444.965-23.446.085-3,.129-5.434.129-7.113a9.214,9.214,0,0,0-.148-2.617m34.658-1.887c-.4.093-.016,2.7-.17,5.887-.12,3.188-.727,5.759-.336,5.882.35.131,1.624-2.415,1.758-5.827.159-3.413-.894-6.046-1.252-5.942m5.483,5.6c-.358,3.109-.334,5.666.057,5.707s1-2.45,1.359-5.559.334-5.666-.057-5.707-1,2.447-1.359,5.559" transform="translate(-32.081 308.075)" fill="#1a2e35"/>
          <path id="Trazado_176" data-name="Trazado 176" d="M68.747,135.242l-9.836,12.295V126.379H27.928s-3.443,48.453-2.707,58.782c.26,3.612,1.843,9.579,3.793,15.8a18.188,18.188,0,0,0,30.034,7.52,104.654,104.654,0,0,0,9.7-10.782C82.518,180,105.4,136.869,105.4,136.869L81.534,122.455Z" transform="translate(181.412 212.404)" fill="#ffc09d"/>
          <path id="Trazado_177" data-name="Trazado 177" d="M68.576,126.307c.15.139-1.447,2.158-4.047,5.406s-6.232,7.7-10.372,12.532-8.051,9.079-11.086,11.961c-3.016,2.9-5.149,4.411-5.264,4.266-.134-.17,1.728-1.928,4.531-4.988,2.819-3.041,6.579-7.375,10.714-12.188,8.193-9.686,15.174-17.315,15.524-16.99" transform="translate(183.541 219.069)" fill="#ff9b6c"/>
          <path id="Trazado_178" data-name="Trazado 178" d="M65.031,60.363l-1.4,112.549c-.238,19.142,3.322,47.3,33.6,46.3,26.2-2.852,33.154-27.66,33.359-45.519.1-8.474.194-15.538.262-16.41,0,0,28.683-2.338,31.106-30.671,1.17-13.692,1.282-42.09,1.088-67.779A52.963,52.963,0,0,0,113.927,6.44l-2.737-.2C81.561,5.808,64.643,30.731,65.031,60.363" transform="translate(18.387 10.815)" fill="#ffc09d"/>
          <path id="Trazado_179" data-name="Trazado 179" d="M111.551,70.107S93.6,69.85,75.425,56.494c0,0,7.5,21.37,35.978,20.884Z" transform="translate(37.69 97.992)" fill="#ff9b6c"/>
          <path id="Trazado_180" data-name="Trazado 180" d="M98.763,32.894c-.563.574-3.834-2.059-8.581-2.188-4.742-.2-8.291,2.2-8.792,1.592-.243-.273.342-1.321,1.89-2.406a11.873,11.873,0,0,1,7.055-2,11.441,11.441,0,0,1,6.812,2.478c1.427,1.19,1.892,2.272,1.616,2.527" transform="translate(34.234 48.363)" fill="#1a2e35"/>
          <path id="Trazado_181" data-name="Trazado 181" d="M88.089,36.28a3.841,3.841,0,0,1-3.976,3.6,3.678,3.678,0,0,1-3.7-3.744,3.842,3.842,0,0,1,3.973-3.6,3.673,3.673,0,0,1,3.7,3.744" transform="translate(47.51 56.435)" fill="#1a2e35"/>
          <path id="Trazado_182" data-name="Trazado 182" d="M72.869,64.914c0-.249,2.74-.52,7.17-.76,1.121-.033,2.19-.178,2.434-.924.323-.785-.057-2.018-.5-3.35Q80.7,55.725,79.3,51.165c-3.689-12.4-6.27-22.56-5.773-22.7s3.9,9.79,7.588,22.185C82,53.7,82.842,56.615,83.643,59.4c.328,1.293.946,2.781.257,4.408A2.792,2.792,0,0,1,81.953,65.3a7.475,7.475,0,0,1-1.909.126c-4.435-.085-7.178-.265-7.175-.514" transform="translate(72.019 49.363)" fill="#1a2e35"/>
          <path id="Trazado_183" data-name="Trazado 183" d="M99.763,24.588c-.459,1.053-4.258.26-8.808.495-4.556.137-8.291,1.236-8.819.224-.232-.484.476-1.455,2.021-2.393a14.371,14.371,0,0,1,6.661-1.876,14.215,14.215,0,0,1,6.768,1.329c1.605.809,2.376,1.72,2.177,2.22" transform="translate(31.214 36.472)" fill="#1a2e35"/>
          <path id="Trazado_184" data-name="Trazado 184" d="M83.015,27.266c-.5.859-4.2-.1-8.69-.232-4.49-.219-8.215.435-8.688-.462-.208-.427.531-1.195,2.095-1.879a15.669,15.669,0,0,1,6.639-1.1,16.144,16.144,0,0,1,6.6,1.627c1.545.8,2.261,1.633,2.043,2.043" transform="translate(93.046 40.904)" fill="#1a2e35"/>
          <path id="Trazado_185" data-name="Trazado 185" d="M119.094,34.659c-.468-.246-19.065-7.186-19.861,12.248s18.877,16.221,18.934,15.666.927-27.914.927-27.914" transform="translate(-34.895 57.684)" fill="#ffc09d"/>
          <path id="Trazado_186" data-name="Trazado 186" d="M109.991,51.044c-.082-.066-.347.224-.93.462a3.392,3.392,0,0,1-2.535-.052c-2.021-.837-3.615-4.167-3.569-7.673a11.2,11.2,0,0,1,1.149-4.807,3.917,3.917,0,0,1,2.653-2.5,1.729,1.729,0,0,1,1.961,1.012c.238.552.1.935.2.974.052.052.429-.309.306-1.118a2.167,2.167,0,0,0-.714-1.247,2.551,2.551,0,0,0-1.851-.572c-1.5.041-2.91,1.365-3.662,2.869a11.484,11.484,0,0,0-1.395,5.368c-.036,3.921,1.818,7.668,4.594,8.595a3.637,3.637,0,0,0,3.117-.388c.621-.457.741-.886.675-.924" transform="translate(-32.351 61.609)" fill="#ff9b6c"/>
          <path id="Trazado_187" data-name="Trazado 187" d="M88.974,54.647c.211-.489-3.6-1.63-6.27-5.2a21.76,21.76,0,0,1-2.691-5.075c-.566-1.411-1-2.3-1.206-2.231s-.148,1.017.164,2.551a14.339,14.339,0,0,0,2.5,5.685,11.623,11.623,0,0,0,4.966,3.8c1.482.6,2.486.64,2.538.473" transform="translate(51.33 73.087)" fill="#1a2e35"/>
          <path id="Trazado_188" data-name="Trazado 188" d="M211.913,44.215a4.6,4.6,0,0,0-2.155-2.68c-2.218-1.31-4.775-1.135-7.244-1.176a40.92,40.92,0,0,1-21.308-6.475,95.461,95.461,0,0,0-9.915-12.018C162.7,13.011,155.636,6.984,148.327,4.042,138.873.235,123.059-1.307,113.2,1.28S94.491,11.865,93.121,21.964c-5.529-4.673-13.831-4.635-20.564-1.928l-.167-.074c-7.5,2.674-11.761,10.6-13.974,18.242s-3.156,15.825-7.206,22.68c-.848,1.433-1.851,3.15-1.113,4.641a3.164,3.164,0,0,0,3.312,1.444A9.284,9.284,0,0,0,56.9,65.389q-1.255,3-2.508,6.008a17.728,17.728,0,0,0,8.157-.544C64.141,78,66.041,86.171,67.882,91.017c3.137-.008,6.005.216,7.938,1.952,2.625,2.363,3.8,6.806,8.165,5.119,2.22-.859,4.247-5.518,4.991-7.783A110.571,110.571,0,0,0,93.764,43.5a35.606,35.606,0,0,1,10.976-7.922l-.336.3c7.919-2.751,16.875-5.455,24.389-1.739,5.827,2.885,9.251,8.931,13.61,13.758a44.486,44.486,0,0,0,31.7,14.644c.418,7.979-.252,19.254.167,27.233l6.713-12.781.005.066c.55-.935,1-1.879,1.441-2.825l.15-.287v-.036a50.6,50.6,0,0,1,2.245-4.539c.025.025.052.046.077.068,4.323,3.815,10.692-2.015,7.282-6.664a11.246,11.246,0,0,0-2.409-2.423,7.878,7.878,0,0,0,7.512,1.947,6.186,6.186,0,0,0,4.375-6.117,5.263,5.263,0,0,0-3.137-4.222,17.745,17.745,0,0,0,10.107-2.226c2-1.138,3.954-3.011,3.276-5.521" transform="translate(7.149 0)" fill="#1a2e35"/>
          <path id="Trazado_189" data-name="Trazado 189" d="M131.664,9.221a24.679,24.679,0,0,0-2.844,2.6,20.335,20.335,0,0,0-4.351,9.41,35.67,35.67,0,0,0-.722,7.2c-.014,2.611.2,5.406.4,8.351a74.543,74.543,0,0,1,.213,9.295,32.822,32.822,0,0,1-.64,4.9,10.2,10.2,0,0,1-2,4.755,4.28,4.28,0,0,1-4,1.345,6.375,6.375,0,0,1-3.6-2.035c-1.824-2.127-2.278-4.826-2.732-7.206l.6.071a23.78,23.78,0,0,1-3.448,5.937,8.442,8.442,0,0,1-5.513,3,5.437,5.437,0,0,1-2.923-.511,4.723,4.723,0,0,1-1.985-1.955,4.866,4.866,0,0,1-.6-2.513,3.508,3.508,0,0,1,.911-2.2l.3.268a18.311,18.311,0,0,1-6.09,4.569,16.9,16.9,0,0,1-1.887.733,3.363,3.363,0,0,1-.675.167,3.371,3.371,0,0,1,.64-.273c.421-.172,1.047-.424,1.829-.82a18.856,18.856,0,0,0,5.877-4.638l.3.271a3.632,3.632,0,0,0-.189,4.211,4.228,4.228,0,0,0,1.794,1.728,4.93,4.93,0,0,0,2.65.432,7.9,7.9,0,0,0,5.116-2.852,23.461,23.461,0,0,0,3.322-5.811l.407-.908.186.979c.454,2.376.938,4.969,2.6,6.888a5.733,5.733,0,0,0,3.221,1.818,3.607,3.607,0,0,0,3.4-1.14,9.666,9.666,0,0,0,1.849-4.449,32.684,32.684,0,0,0,.634-4.8,75.842,75.842,0,0,0-.175-9.215c-.183-2.942-.372-5.751-.336-8.4a35.328,35.328,0,0,1,.815-7.3,20.066,20.066,0,0,1,4.616-9.483,11.55,11.55,0,0,1,3.035-2.428" transform="translate(-22.476 15.994)" fill="#375a64"/>
          <path id="Trazado_190" data-name="Trazado 190" d="M144.718,46.891c.008.008-.071.074-.227.194l-.708.517a9.673,9.673,0,0,1-1.2.768,14.788,14.788,0,0,1-1.726.908,25.134,25.134,0,0,1-12.13,2.182,32.1,32.1,0,0,1-17.1-6.317c-5.663-4.072-10.632-10.069-14.7-16.938-2.062-3.432-3.741-6.948-5.595-10.2A37.509,37.509,0,0,0,85,9.379a19.347,19.347,0,0,0-8.165-4.955,13.836,13.836,0,0,0-4.307-.5,15.3,15.3,0,0,0-3.943.757,16.4,16.4,0,0,0-9.106,7.706,19.5,19.5,0,0,0-1.463,4.249.93.93,0,0,1,.022-.3c.036-.235.079-.52.134-.87a14.278,14.278,0,0,1,1.075-3.2,16.14,16.14,0,0,1,3.175-4.3A16.552,16.552,0,0,1,68.433,4.24,15.735,15.735,0,0,1,72.5,3.415a14.345,14.345,0,0,1,4.482.479,19.814,19.814,0,0,1,8.444,5.048A37.9,37.9,0,0,1,91.9,17.686c1.873,3.273,3.555,6.782,5.6,10.181,4.033,6.817,8.931,12.748,14.485,16.785a31.925,31.925,0,0,0,16.776,6.341,25.5,25.5,0,0,0,12-1.95,40.88,40.88,0,0,0,3.965-2.152" transform="translate(52.147 5.902)" fill="#375a64"/>
          <path id="Trazado_191" data-name="Trazado 191" d="M87.1,14.758a4.4,4.4,0,0,1-1.017.708,21.86,21.86,0,0,1-3.008,1.529,29.087,29.087,0,0,1-4.766,1.564,33.366,33.366,0,0,1-6.093.809,33.526,33.526,0,0,1-6.136-.418,29.217,29.217,0,0,1-4.857-1.255,21.984,21.984,0,0,1-3.1-1.334,4.408,4.408,0,0,1-1.058-.64c.055-.112,1.619.692,4.307,1.529a33.2,33.2,0,0,0,4.8,1.1A36.237,36.237,0,0,0,72.2,18.7a36.136,36.136,0,0,0,5.98-.741,33.1,33.1,0,0,0,4.725-1.4c2.628-1.006,4.137-1.911,4.2-1.8" transform="translate(112.342 25.582)" fill="#375a64"/>
          <path id="Trazado_192" data-name="Trazado 192" d="M82.939,32.894c-.563.574-3.834-2.059-8.584-2.188-4.739-.2-8.288,2.2-8.789,1.592-.246-.273.342-1.321,1.89-2.406a11.873,11.873,0,0,1,7.055-2,11.466,11.466,0,0,1,6.812,2.478c1.427,1.19,1.892,2.272,1.616,2.527" transform="translate(93.333 48.363)" fill="#1a2e35"/>
          <path id="Trazado_193" data-name="Trazado 193" d="M73.578,36.28a3.843,3.843,0,0,1-3.976,3.6,3.673,3.673,0,0,1-3.694-3.744,3.838,3.838,0,0,1,3.971-3.6,3.673,3.673,0,0,1,3.7,3.744" transform="translate(101.693 56.435)" fill="#1a2e35"/>
          <path id="Trazado_194" data-name="Trazado 194" d="M53.1,186.7a6.765,6.765,0,0,0,.241,2.111,40.714,40.714,0,0,0,1.447,5.614A59.4,59.4,0,0,0,63.7,211.495a62.375,62.375,0,0,0,14.05,13.6,45.355,45.355,0,0,0,5.108,3.137,7.842,7.842,0,0,0,2.021.908c.115-.186-2.611-1.72-6.577-4.728a70.7,70.7,0,0,1-13.561-13.618,67.749,67.749,0,0,1-9.09-16.632c-1.693-4.548-2.324-7.5-2.546-7.454" transform="translate(125.497 323.845)" fill="#375a64"/>
          <path id="Trazado_195" data-name="Trazado 195" d="M106.531,216.795a6.984,6.984,0,0,0,2.182.342,34.109,34.109,0,0,0,6.021-.112,39.488,39.488,0,0,0,18.425-6.814,36.7,36.7,0,0,0,12.278-14.731,29.626,29.626,0,0,0,1.884-5.436,6.074,6.074,0,0,0,.3-2.081c-.227-.057-.84,2.88-3.005,7.159a38.9,38.9,0,0,1-12.215,14.11,41.671,41.671,0,0,1-17.783,6.94c-4.941.708-8.075.4-8.086.624" transform="translate(-83.468 326.027)" fill="#375a64"/>
          <path id="Trazado_196" data-name="Trazado 196" d="M185.525,82.975,152.85,70.161,92.66,66.754,64.368,77.511l38.768,21.526,33.427-1.225Z" transform="translate(-6.049 115.787)" fill="#ffc09d"/>
          <path id="Trazado_197" data-name="Trazado 197" d="M238.069,390.459c-2.956.509-200.172,8.885-200.172,8.885l6.927-177.325.569-34.816L56.6,81.731s29.478-10.137,44.518-14.977c0,0,15.83,16.5,45.927,16.052,29.426-.435,35.574-7.069,35.574-7.069l41.139,15.77S253,102,258.039,114.939c4.9,12.6,13.878,84.555,13.878,84.555H229.274l.807,127.11Z" transform="translate(-20.054 115.788)" fill="#0c8f5a"/>
          <path id="Trazado_198" data-name="Trazado 198" d="M153.184,99.992l-6.114,44.7-29.582,13.211L95.619,139.271v-41.5Z" transform="translate(-59.167 169.589)" fill="#05492c"/>
          <path id="Trazado_199" data-name="Trazado 199" d="M96.3,103.648c0,.372,12.295.673,27.458.673s27.46-.3,27.46-.673-12.292-.673-27.46-.673-27.458.3-27.458.673" transform="translate(-59.076 178.615)" fill="#1a2e35"/>
          <path id="Trazado_200" data-name="Trazado 200" d="M67.756,91.131a5.542,5.542,0,0,0-.314,1.176c-.2.883-.465,2.015-.788,3.426a112.82,112.82,0,0,1-3.927,12.582c-1.963,5.3-4.739,11.507-8.133,18.488-3.21,7.113-6.114,15.3-9.153,24.165l-.03.09v.1c.071,10.621.15,22.248.23,34.4.287,27.116.547,51.658.736,69.575.156,8.8.282,15.97.369,21.078.071,2.4.126,4.3.167,5.729a11.635,11.635,0,0,0,.145,1.993,11.76,11.76,0,0,0,.112-2c.019-1.43.044-3.339.074-5.737.011-5.108.022-12.281.038-21.086-.093-17.917-.219-42.454-.358-69.567-.112-12.144-.216-23.769-.312-34.387l-.03.191c2.978-8.849,5.83-17.064,8.931-24.119a198.663,198.663,0,0,0,7.908-18.661,96.82,96.82,0,0,0,3.615-12.748c.293-1.512.5-2.68.6-3.476a5.74,5.74,0,0,0,.118-1.211" transform="translate(163.546 158.071)" fill="#1a2e35"/>
          <path id="Trazado_201" data-name="Trazado 201" d="M120.323,83.544a22.435,22.435,0,0,0,.038,3.785c.1,2.663.227,6.125.383,10.3.353,8.917.823,20.813,1.343,33.963.593,13.153,1.132,25.048,1.537,33.966.241,4.167.438,7.627.591,10.29a21.051,21.051,0,0,0,.391,3.765,21.372,21.372,0,0,0,.107-3.785c-.047-2.666-.109-6.131-.183-10.3-.219-8.7-.613-20.717-1.165-33.985s-1.154-25.273-1.717-33.958c-.282-4.345-.555-7.859-.79-10.282a20.481,20.481,0,0,0-.533-3.752" transform="translate(-98.102 144.911)" fill="#1a2e35"/>
          <g id="Grupo_58" data-name="Grupo 58" transform="translate(211.83 255.645)" opacity="0.3">
            <g id="Grupo_57" data-name="Grupo 57">
              <g id="Grupo_56" data-name="Grupo 56" clip-path="url(#clip-path-3)">
                <path id="Trazado_202" data-name="Trazado 202" d="M64.788,93.487c.957,19.459-6.377,38.308-19.363,52.829,4.012-18.294,14.031-35.322,19.363-52.829" transform="translate(-45.423 -93.487)"/>
              </g>
            </g>
          </g>
          <path id="Trazado_203" data-name="Trazado 203" d="M126.018,203.591c-9.218-.782-17.531-6.248-23.668-13.17a111.907,111.907,0,0,1-15.9-23.017c-5.718-11.209-8.554-23.41-9.322-36.186,11.491,30.791,28.335,55.164,48.886,72.373" transform="translate(18.555 227.604)" fill="#05492c"/>
          <path id="Trazado_204" data-name="Trazado 204" d="M73.977,126.307a3.8,3.8,0,0,0,.164,1.135c.194.881.429,1.936.708,3.2.3,1.395.733,3.082,1.329,5.018.577,1.939,1.187,4.165,2.073,6.557a152.511,152.511,0,0,0,6.806,16.56,174.412,174.412,0,0,0,10.848,19.06,171.665,171.665,0,0,0,13.377,17.389A143.7,143.7,0,0,0,122,207.843c1.876,1.728,3.714,3.128,5.3,4.389,1.567,1.282,2.975,2.311,4.162,3.1,1.072.733,1.963,1.34,2.71,1.849a3.9,3.9,0,0,0,.993.572c.025-.036-.268-.306-.845-.782-.7-.561-1.548-1.231-2.56-2.037-1.135-.85-2.494-1.931-4.009-3.26-1.534-1.307-3.317-2.748-5.144-4.507a159.149,159.149,0,0,1-12.431-12.721,184.087,184.087,0,0,1-13.2-17.315,188.488,188.488,0,0,1-10.856-18.871A170.216,170.216,0,0,1,79.1,141.916c-.935-2.36-1.6-4.553-2.24-6.464-.662-1.9-1.159-3.566-1.534-4.936-.372-1.242-.681-2.275-.941-3.134a3.946,3.946,0,0,0-.413-1.075" transform="translate(18.082 219.086)" fill="#1a2e35"/>
          <path id="Trazado_205" data-name="Trazado 205" d="M60.824,106.011a9.568,9.568,0,0,0,.23,1.81c.23,1.3.53,3.011.908,5.149.38,2.24.908,4.969,1.709,8.094.777,3.131,1.529,6.735,2.754,10.613q.865,2.929,1.808,6.117c.64,2.125,1.463,4.282,2.231,6.544,1.482,4.548,3.47,9.254,5.48,14.239a258.824,258.824,0,0,0,15.994,31.075,258.158,258.158,0,0,0,20.4,28.387c3.522,4.061,6.809,7.971,10.186,11.362,1.665,1.715,3.21,3.429,4.813,4.966s3.15,2.992,4.624,4.392c2.9,2.855,5.762,5.166,8.2,7.279,2.417,2.138,4.608,3.848,6.429,5.207l4.173,3.15a9.693,9.693,0,0,0,1.507,1.028,9.992,9.992,0,0,0-1.351-1.233l-4.017-3.333c-1.769-1.417-3.908-3.178-6.276-5.36-2.382-2.16-5.2-4.509-8.04-7.394q-2.178-2.125-4.55-4.433c-1.575-1.55-3.1-3.276-4.739-5-3.328-3.407-6.568-7.329-10.052-11.387a268.9,268.9,0,0,1-20.211-28.305,268.412,268.412,0,0,1-16-30.87c-2.032-4.947-4.047-9.617-5.565-14.129-.788-2.245-1.633-4.386-2.294-6.492s-1.277-4.135-1.876-6.071c-1.277-3.845-2.086-7.419-2.929-10.525-.864-3.1-1.46-5.805-1.917-8.026-.473-2.117-.853-3.809-1.14-5.094a9.858,9.858,0,0,0-.484-1.764" transform="translate(36.93 183.881)" fill="#1a2e35"/>
          <path id="Trazado_206" data-name="Trazado 206" d="M76.713,92.927C64.558,111.4,15.339,186.243.786,208.377a3.417,3.417,0,0,0,3.292,5.264l87.44-11a3.425,3.425,0,0,0,2.335-1.375L177.372,87.2a3.424,3.424,0,0,0-3.016-5.436L84.389,88.42a10.065,10.065,0,0,0-7.676,4.507" transform="translate(176.864 141.807)" fill="#e1e1e1"/>
          <path id="Trazado_207" data-name="Trazado 207" d="M77.16,93.293a5.943,5.943,0,0,1,.7-1.05,9.751,9.751,0,0,1,2.828-2.382,12.308,12.308,0,0,1,5.827-1.414q3.552-.3,8.135-.67c12.316-.965,30.02-2.354,51.863-4.069q8.216-.632,17.187-1.318,4.483-.345,9.144-.7c.807-.046,1.485-.15,2.412-.15a3.9,3.9,0,0,1,2.516,1.045,4.017,4.017,0,0,1,.664,5.135c-7.618,10.446-15.754,21.606-24.313,33.345-17.146,23.446-35.987,49.214-55.766,76.261-1.272,1.712-2.4,3.325-3.776,5.105a4.158,4.158,0,0,1-1.553,1.053,6.786,6.786,0,0,1-1.7.334l-3.085.388-12.234,1.537-23.919,3L6.874,214.39c-.938.1-1.717.249-2.776.309a4.019,4.019,0,0,1-2.9-1.206A4.148,4.148,0,0,1,0,210.616a4.8,4.8,0,0,1,1.053-2.8q2.925-4.43,5.764-8.737,5.685-8.61,11.028-16.7c7.121-10.769,13.755-20.8,19.817-29.968,12.12-18.253,21.942-33.044,28.778-43.334,3.391-5.053,6.041-9,7.884-11.742.886-1.291,1.575-2.3,2.081-3.033a7.9,7.9,0,0,1,.752-1.006,7.831,7.831,0,0,1-.626,1.088l-1.961,3.112c-1.791,2.781-4.362,6.776-7.657,11.893-6.743,10.35-16.432,25.229-28.393,43.589-6.013,9.2-12.6,19.262-19.664,30.066q-5.312,8.1-10.968,16.741-2.83,4.319-5.74,8.756a3.457,3.457,0,0,0-.829,2.076,2.839,2.839,0,0,0,.82,1.944,2.694,2.694,0,0,0,1.947.807c.741-.041,1.75-.208,2.617-.306l45.208-5.732,23.916-3.019,12.232-1.542,3.085-.388a5.685,5.685,0,0,0,1.356-.249,2.678,2.678,0,0,0,1.009-.684q1.825-2.482,3.667-4.977c19.812-27.023,38.686-52.769,55.859-76.193,8.584-11.693,16.744-22.806,24.381-33.208a2.811,2.811,0,0,0-.457-3.607,2.711,2.711,0,0,0-1.761-.741c-.648-.005-1.529.1-2.275.137q-4.66.336-9.144.656-8.967.636-17.195,1.225c-21.86,1.518-39.574,2.748-51.9,3.607-3.054.2-5.775.38-8.146.536a12.176,12.176,0,0,0-5.715,1.239,11.533,11.533,0,0,0-3.667,3.175" transform="translate(176.418 141.44)" fill="#1a2e35"/>
          <path id="Trazado_208" data-name="Trazado 208" d="M171.263,83.764a10.085,10.085,0,0,1-1.832.273l-5.308.536c-4.766.421-11.46,1.017-19.76,1.753l-67.2,5.485L77.7,91.5c-4.206,6.248-8.545,12.738-12.9,19.44C47.07,138.2,31.582,163.252,19.884,181.079c-5.816,8.934-10.651,16.082-14.017,21L1.92,207.7a14.829,14.829,0,0,1-1.457,1.9,14.922,14.922,0,0,1,1.214-2.067q1.378-2.141,3.716-5.767c3.292-5.136,7.927-12.363,13.624-21.245,11.471-17.958,26.818-43.091,44.565-70.376,4.359-6.708,8.715-13.2,12.94-19.445l.194-.284.342-.025c26.779-1.988,50.275-3.73,67.234-4.991l19.793-1.326c2.22-.123,3.987-.222,5.324-.293a9.95,9.95,0,0,1,1.854-.016" transform="translate(182.974 145.243)" fill="#1a2e35"/>
          <path id="Trazado_209" data-name="Trazado 209" d="M20.271,89.717h0l.036-.011Z" transform="translate(279.753 155.599)" fill="#fff"/>
          <path id="Trazado_210" data-name="Trazado 210" d="M24.791,91.036a1.767,1.767,0,0,0-2.163-1.3,4.7,4.7,0,0,0-2.346,1.318,2.341,2.341,0,0,0-.427,3c.875,1.08,2.669.681,3.722-.224a3.056,3.056,0,0,0,1.214-2.787" transform="translate(277.399 155.584)" fill="#fff"/>
          <path id="Trazado_211" data-name="Trazado 211" d="M30.427,120.04s-3.451-8.225,5.308-9.289,31.748,0,31.748,0S80.053,112.08,77.4,121.1c0,0,7.433,6.634,3.451,13.8s-5.573,5.043-5.573,5.043,1.061,8.756-5.573,10.082c0,0-7.192,8.493-13.815,7.963s-34.751-14.067-36.607-16.719-4.512-4.165-2.921-7.124c0,0-3.448-7.766,3.982-8.947,0,0,.53-6.486,10.085-5.16" transform="translate(230.92 191.285)" fill="#ffc09d"/>
          <path id="Trazado_212" data-name="Trazado 212" d="M59.446,117.209c0,.2-2.264.35-5.918.424s-8.7.082-14.266,0c-5.559-.186-10.613.03-14.329-.853-3.779-.875-5.259-3.093-5.081-3.139.153-.186,1.747,1.581,5.294,2.13,3.473.585,8.576.227,14.14.4,5.568.085,10.61.243,14.258.432s5.9.4,5.9.6" transform="translate(241.8 197.086)" fill="#ff9b6c"/>
          <path id="Trazado_213" data-name="Trazado 213" d="M66.279,128.333a4.419,4.419,0,0,1-1.9.656,20.432,20.432,0,0,1-5.472.339,38.623,38.623,0,0,1-7.979-1.447c-2.94-.812-6.062-1.939-9.36-2.953a41.942,41.942,0,0,0-9.421-1.942c-2.866-.129-5.967-.052-8.023-1.622a4.6,4.6,0,0,1-1.914-2.735,3.767,3.767,0,0,1,.334-2.483c.692-1.266,1.633-1.34,1.608-1.269.074.115-.678.38-1.091,1.5a3.429,3.429,0,0,0,1.643,4.135c1.786,1.22,4.441,1.08,7.517,1.135a39.152,39.152,0,0,1,9.771,1.89l9.308,3.055a44.329,44.329,0,0,0,7.7,1.712c4.468.55,7.236-.221,7.285.03" transform="translate(228.696 199.231)" fill="#ff9b6c"/>
          <path id="Trazado_214" data-name="Trazado 214" d="M64.445,131.984c-.052.191-2.313-.235-5.909-1.143s-8.524-2.316-13.9-4.074-10.186-3.544-13.624-4.939-5.51-2.385-5.439-2.57c.15-.386,8.792,2.622,19.516,6.123,10.714,3.517,19.467,6.2,19.358,6.6" transform="translate(221.13 206.8)" fill="#ff9b6c"/>
          <path id="Trazado_215" data-name="Trazado 215" d="M55.616,135.552c-.027.178-1.92.1-4.9-.563a58.665,58.665,0,0,1-11.2-3.946c-4.217-1.917-7.9-3.878-10.564-5.291s-4.282-2.352-4.2-2.54c.186-.432,7.069,2.6,15.363,6.505,8.28,3.971,15.56,5.455,15.5,5.836" transform="translate(232.212 213.644)" fill="#ff9b6c"/>
          <path id="Trazado_216" data-name="Trazado 216" d="M75.733,130.261s17.878,71.629,40.217,98.066c21.633,25.6,55.539,13.834,67.278-19.292s32.659-108.794,32.659-108.794L190.2,80.6,145.811,166.62l-20-58.64Z" transform="translate(-67.488 139.803)" fill="#ffc09d"/>
          <path id="Trazado_217" data-name="Trazado 217" d="M88.391,142.913l18.838-27.3s6.254-1.452,8.026-2.488c2.136-1.25,4.236-12.095,4.192-14.211s3.653-7.066,2.155-8.458-6.546-1.5-6.273-3.533c.057-.435,3.744-4.958.82-8.28-1.056-1.2-5.313-2.256-5.313-2.256l.306-10.419s-5.628-12.3-11.378-7.848c0,0-21.682,16.656-23.867,19.317s-10.525,37.346-12,43.854" transform="translate(58.818 99.117)" fill="#ffc09d"/>
          <path id="Trazado_218" data-name="Trazado 218" d="M63.67,121.681a9.707,9.707,0,0,1,.29-1.84c.282-1.315.654-3.049,1.116-5.215,1.015-4.52,2.532-11.059,4.586-19.114,1.039-4.025,2.185-8.433,3.629-13.134.383-1.173.752-2.363,1.252-3.571A8.046,8.046,0,0,1,77.1,75.664c1.974-1.739,4.053-3.443,6.2-5.182,4.291-3.473,8.846-7.055,13.6-10.75,1.225-.864,2.234-1.985,3.968-2.617a5.431,5.431,0,0,1,4.889,1.162,22.329,22.329,0,0,1,5.778,7.8l.066.129-.005.167c-.03,1.009-.06,2.1-.093,3.188-.071,2.436-.142,4.854-.213,7.23l-.506-.664a24.988,24.988,0,0,1,3.82,1.285,5.572,5.572,0,0,1,1.851,1.209,5.252,5.252,0,0,1,1.05,1.925,6.468,6.468,0,0,1-.331,4.146,12.393,12.393,0,0,1-.85,1.791l-.479.818-.1.172c.025-.03.008-.109.019-.038a.288.288,0,0,0,.03.175c.055.238.563.558,1.072.76.522.219,1.1.391,1.682.569s1.179.35,1.78.588a3.509,3.509,0,0,1,1.808,1.272,2.982,2.982,0,0,1,.049,2.218,13.871,13.871,0,0,1-.637,1.75c-.47,1.1-1,2.149-1.381,3.18a4.333,4.333,0,0,0-.328,1.463,15.386,15.386,0,0,1-.17,1.777c-.164,1.138-.375,2.245-.6,3.336a44.054,44.054,0,0,1-1.769,6.3,7.929,7.929,0,0,1-1.654,2.9,9.707,9.707,0,0,1-2.937,1.291c-1.911.593-3.768,1.058-5.578,1.479l.3-.205c-5.814,8.267-10.564,15.015-13.952,19.831q-2.424,3.363-3.869,5.368a13.7,13.7,0,0,1-1.433,1.818,13.928,13.928,0,0,1,1.192-1.985l3.645-5.524c3.3-4.873,7.922-11.712,13.585-20.08l.107-.159.194-.049c1.777-.435,3.626-.922,5.48-1.52a9.3,9.3,0,0,0,2.538-1.1,7.375,7.375,0,0,0,1.324-2.472,44.136,44.136,0,0,0,1.668-6.134c.213-1.072.41-2.16.561-3.26a14.324,14.324,0,0,0,.148-1.613A5.694,5.694,0,0,1,119,97.527c.421-1.132.943-2.179,1.389-3.246a12.741,12.741,0,0,0,.572-1.586,1.92,1.92,0,0,0,.055-1.283,2.8,2.8,0,0,0-1.157-.692c-.528-.205-1.1-.369-1.69-.547s-1.19-.353-1.808-.607a3.023,3.023,0,0,1-1.777-1.463,1.558,1.558,0,0,1-.126-.73,1.03,1.03,0,0,1,.12-.487l.131-.235.468-.8a11.4,11.4,0,0,0,.763-1.613,5.181,5.181,0,0,0,.287-3.314,3.876,3.876,0,0,0-.782-1.427,4.539,4.539,0,0,0-1.395-.864,24.128,24.128,0,0,0-3.6-1.2l-.522-.137.016-.531c.068-2.376.139-4.794.208-7.23.033-1.091.066-2.179.1-3.188l.06.3a21.281,21.281,0,0,0-5.36-7.3,4.116,4.116,0,0,0-3.711-.963,15.585,15.585,0,0,0-3.555,2.39c-4.758,3.673-9.328,7.23-13.626,10.667-2.149,1.72-4.239,3.407-6.194,5.1a6.946,6.946,0,0,0-2.289,2.718c-.479,1.127-.861,2.311-1.25,3.459-1.477,4.641-2.674,9.035-3.768,13.038-2.084,7.927-3.776,14.378-4.991,19-.561,2.141-1.012,3.856-1.354,5.157a10.132,10.132,0,0,1-.547,1.777" transform="translate(59.041 98.721)" fill="#ff9b6c"/>
          <path id="Trazado_219" data-name="Trazado 219" d="M102.217,64.539c-.008.23-2.2.055-5.619.386a40.208,40.208,0,0,0-5.928,1.354A27.2,27.2,0,0,1,83,66.344a14.471,14.471,0,0,0-12.079,3.919c-2.426,2.409-2.669,4.723-2.915,4.638-.115.057-.224-2.467,2.223-5.283a14.025,14.025,0,0,1,5.185-3.64,15.774,15.774,0,0,1,7.676-.965,29.376,29.376,0,0,0,7.334.06,32.712,32.712,0,0,1,6.1-1.091c3.574-.093,5.7.421,5.693.558" transform="translate(67.437 110.959)" fill="#ff9b6c"/>
          <path id="Trazado_220" data-name="Trazado 220" d="M71.683,67.573c-.32.164-1.2-1.1-1.083-2.9s1.124-2.956,1.422-2.754c.328.189-.016,1.381-.087,2.833-.1,1.449.1,2.677-.252,2.825" transform="translate(90.301 107.356)" fill="#ff9b6c"/>
          <path id="Trazado_221" data-name="Trazado 221" d="M94.493,70.337c.019.342-7.419.662-16.331-1.28-2.229-.481-4.263-1.1-6-.76a6.523,6.523,0,0,0-3.889,2.565c-1.641,2.3-1.906,4.222-2.144,4.143-.107,0-.23-1.972,1.367-4.682a7.191,7.191,0,0,1,4.419-3.232c2.16-.479,4.389.213,6.53.659,8.751,1.911,16.06,2.19,16.049,2.587" transform="translate(80.324 116.091)" fill="#ff9b6c"/>
          <path id="Trazado_222" data-name="Trazado 222" d="M89.117,74.065c0,.172-1.548.325-4.014.019-2.467-.273-5.775-1.124-9.388-1.832a21.218,21.218,0,0,0-5.053-.506,6.078,6.078,0,0,0-3.64,1.315c-1.783,1.5-1.575,3.21-1.775,3.186-.077.014-.263-.364-.224-1.1a4.56,4.56,0,0,1,1.354-2.77,6.645,6.645,0,0,1,4.178-1.851,19.177,19.177,0,0,1,5.406.418c3.716.73,6.932,1.712,9.3,2.215,2.363.533,3.858.714,3.853.911" transform="translate(88.582 122.215)" fill="#ff9b6c"/>
          <path id="Trazado_223" data-name="Trazado 223" d="M73.666,74.665c.227.17-1.611,2.1-4.993,2.089l.667-.577c-.068.593-.131,1.162-.2,1.745-.489,3.858-1.181,6.938-1.548,6.883s-.265-3.2.222-7.036c.079-.58.159-1.143.241-1.731l.085-.613.582.036c2.83.175,4.775-1.088,4.944-.8" transform="translate(97.574 129.434)" fill="#ff9b6c"/>
          <path id="Trazado_224" data-name="Trazado 224" d="M137.814,72.23S101.2,81.1,101.272,129.661c.077,48.371,11.059,72.548,11.059,72.548l67.5-36.739-15.062-37.816Z" transform="translate(-101.272 125.286)" fill="#0c8f5a"/>
          <path id="Trazado_225" data-name="Trazado 225" d="M100.949,195.749a6.646,6.646,0,0,0,1.4-.613c1.023-.517,2.319-1.176,3.916-1.988,3.536-1.865,8.4-4.43,14.389-7.583,12.289-6.623,29.145-15.7,48.134-25.932l.544-.3-.221-.574c-1.157-3.024-2.379-6.224-3.621-9.464-4.312-11.206-8.42-21.874-12.166-31.606-1.881-4.843-3.67-9.453-5.349-13.777a83.236,83.236,0,0,0-5.343-11.786c-3.8-6.951-8.288-11.86-12.18-14.1a14.8,14.8,0,0,0-4.747-1.9,8.9,8.9,0,0,0-1.318-.172c-.3-.014-.454-.011-.457.014a18.118,18.118,0,0,1,6.227,2.529c3.692,2.316,7.952,7.186,11.592,14.11a85.5,85.5,0,0,1,5.122,11.715c1.638,4.337,3.385,8.961,5.223,13.823,3.714,9.743,7.785,20.424,12.062,31.641,1.244,3.243,2.469,6.44,3.631,9.464l.323-.87c-18.9,10.391-35.675,19.615-47.909,26.342-5.9,3.312-10.7,6.005-14.181,7.963l-3.8,2.21a6.593,6.593,0,0,0-1.277.845" transform="translate(-89.887 131.746)" fill="#1a2e35"/>
        </g>
      </g>
    </g>
  </g>
</svg>
