<svg id="hombre-pensando3" xmlns="http://www.w3.org/2000/svg" xmlns:xlink="http://www.w3.org/1999/xlink" width="378.321" height="757.719" viewBox="0 0 378.321 757.719">
  <defs>
    <clipPath id="clip-path">
      <rect id="Rect치ngulo_90" data-name="Rect치ngulo 90" width="378.321" height="757.718" fill="none"/>
    </clipPath>
    <clipPath id="clip-path-3">
      <rect id="Rect치ngulo_88" data-name="Rect치ngulo 88" width="20.697" height="56.221" fill="none"/>
    </clipPath>
  </defs>
  <g id="Grupo_61" data-name="Grupo 61" transform="translate(0)" clip-path="url(#clip-path)">
    <g id="Grupo_60" data-name="Grupo 60">
      <g id="Grupo_59" data-name="Grupo 59" clip-path="url(#clip-path)">
        <path id="Trazado_175" data-name="Trazado 175" d="M158.69,418.457l-5.235-147.166s-6.414,80.748-11.606,147.166H51.291l1.758-173.546,8.672-67.3L259.9,193.916c-.032,1.685-3.03,108.676-6.28,224.54Zm-47.781-222.1c-.416,0-.768,2.351-.783,5.259s.311,5.261.73,5.261.768-2.351.786-5.256-.314-5.261-.733-5.264m6.341,1.018c-.416-.041-1,2.165-1.3,4.933s-.207,5.04.21,5.081,1-2.168,1.3-4.933.2-5.043-.212-5.081M154,203.089a5.082,5.082,0,0,0-2.532-2.119c-.751-.268-1.2-.224-1.219-.14-.114.212,1.726.585,2.8,2.73a3.624,3.624,0,0,1-.183,3.681,4.3,4.3,0,0,1-4.153,1.83,3.892,3.892,0,0,1-2.98-3.227,3.171,3.171,0,0,1,1.688-3.169c2.148-1.228,3.83-.3,3.882-.518.047-.067-.247-.407-1.019-.666a4.693,4.693,0,0,0-3.379.291,4.232,4.232,0,0,0-2.564,4.191,5.143,5.143,0,0,0,4.074,4.511,5.594,5.594,0,0,0,5.643-2.555,4.557,4.557,0,0,0-.061-4.84m6.353-2.727a9.91,9.91,0,0,0-.431,2.759c-.18,1.778-.393,4.359-.62,7.546-.457,6.376-.981,15.191-1.47,24.934-.431,8.658-.76,16.57-.952,22.635-3.358-1-6.129-1.807-8.079-2.34a14.229,14.229,0,0,0-3.309-.736,14.046,14.046,0,0,0,3.105,1.3c2.034.745,4.991,1.772,8.646,3.006l.7.236.049-.722c.425-6.132.908-14.33,1.356-23.316.489-9.74.844-18.564,1.027-24.952.09-3.2.137-5.782.137-7.569a9.806,9.806,0,0,0-.157-2.785m36.883-2.008c-.425.1-.017,2.872-.18,6.266-.128,3.393-.774,6.129-.358,6.26.373.14,1.729-2.57,1.871-6.2.169-3.632-.952-6.434-1.333-6.324m5.835,5.963c-.381,3.309-.355,6.03.061,6.073s1.062-2.608,1.446-5.916.355-6.03-.061-6.073-1.062,2.6-1.446,5.916" transform="translate(-30.847 339.261)" fill="#1a2e35"/>
        <path id="Trazado_176" data-name="Trazado 176" d="M71.548,136.063,61.081,149.147V126.631H28.109s-3.664,51.565-2.881,62.556c.276,3.844,1.961,10.194,4.036,16.818a19.356,19.356,0,0,0,31.962,8,111.371,111.371,0,0,0,10.322-11.475c14.655-18.843,39-64.739,39-64.739L85.156,122.455Z" transform="translate(194.674 233.906)" fill="#ffc09d"/>
        <path id="Trazado_177" data-name="Trazado 177" d="M70.553,126.308c.16.148-1.539,2.3-4.307,5.753s-6.632,8.2-11.038,13.337-8.567,9.662-11.8,12.729c-3.21,3.091-5.48,4.694-5.6,4.54-.143-.18,1.839-2.052,4.822-5.308,3-3.236,7-7.849,11.4-12.97,8.719-10.308,16.148-18.427,16.521-18.081" transform="translate(197.753 241.245)" fill="#ff9b6c"/>
        <path id="Trazado_178" data-name="Trazado 178" d="M65.121,63.838,63.634,183.614c-.253,20.371,3.536,50.343,35.76,49.274,27.885-3.035,35.283-29.436,35.5-48.442.1-9.019.207-16.535.279-17.464,0,0,30.524-2.488,33.1-32.64,1.246-14.571,1.365-44.793,1.158-72.131A56.364,56.364,0,0,0,117.157,6.453l-2.913-.212c-31.531-.46-49.536,26.063-49.123,57.6" transform="translate(23.652 11.91)" fill="#ffc09d"/>
        <path id="Trazado_179" data-name="Trazado 179" d="M113.871,70.981s-19.105-.274-38.446-14.487c0,0,7.977,22.743,38.289,22.225Z" transform="translate(44.953 107.911)" fill="#ff9b6c"/>
        <path id="Trazado_180" data-name="Trazado 180" d="M99.882,33.215c-.6.611-4.08-2.191-9.132-2.328-5.046-.212-8.824,2.343-9.356,1.694-.259-.291.364-1.406,2.011-2.561a12.635,12.635,0,0,1,7.508-2.13,12.176,12.176,0,0,1,7.249,2.637c1.519,1.266,2.014,2.418,1.72,2.689" transform="translate(41.655 53.259)" fill="#1a2e35"/>
        <path id="Trazado_181" data-name="Trazado 181" d="M88.581,36.52a4.088,4.088,0,0,1-4.231,3.827,3.914,3.914,0,0,1-3.935-3.984,4.089,4.089,0,0,1,4.228-3.827,3.909,3.909,0,0,1,3.937,3.984" transform="translate(55.724 62.148)" fill="#1a2e35"/>
        <path id="Trazado_182" data-name="Trazado 182" d="M72.869,67.255c0-.265,2.916-.553,7.63-.809,1.193-.035,2.331-.189,2.59-.984.343-.835-.061-2.148-.533-3.565Q81.2,57.476,79.71,52.623c-3.926-13.195-6.673-24.009-6.143-24.163s4.15,10.418,8.076,23.61c.94,3.254,1.839,6.353,2.692,9.318.349,1.376,1.007,2.96.274,4.691a2.971,2.971,0,0,1-2.072,1.589A7.955,7.955,0,0,1,80.5,67.8c-4.72-.09-7.639-.282-7.636-.547" transform="translate(81.322 54.36)" fill="#1a2e35"/>
        <path id="Trazado_183" data-name="Trazado 183" d="M100.9,24.817c-.489,1.12-4.531.276-9.374.527-4.848.146-8.824,1.315-9.385.239-.247-.515.506-1.548,2.151-2.546a15.294,15.294,0,0,1,7.089-2,15.128,15.128,0,0,1,7.2,1.414c1.708.861,2.529,1.83,2.317,2.363" transform="translate(38.489 40.164)" fill="#1a2e35"/>
        <path id="Trazado_184" data-name="Trazado 184" d="M84.133,27.5c-.53.914-4.473-.1-9.248-.247-4.778-.233-8.742.463-9.246-.492-.221-.454.565-1.272,2.229-2A16.675,16.675,0,0,1,74.934,23.6a17.181,17.181,0,0,1,7.025,1.732c1.644.856,2.407,1.737,2.174,2.174" transform="translate(103.233 45.045)" fill="#1a2e35"/>
        <path id="Trazado_185" data-name="Trazado 185" d="M120.371,34.749c-.5-.262-20.29-7.648-21.136,13.034s20.089,17.263,20.15,16.672.987-29.707.987-29.707" transform="translate(-30.765 63.524)" fill="#ffc09d"/>
        <path id="Trazado_186" data-name="Trazado 186" d="M110.529,52.041c-.087-.07-.37.239-.989.492a3.61,3.61,0,0,1-2.7-.055c-2.151-.89-3.847-4.435-3.8-8.166a11.921,11.921,0,0,1,1.222-5.116,4.169,4.169,0,0,1,2.823-2.657,1.84,1.84,0,0,1,2.087,1.077c.253.588.1,1,.212,1.036.055.055.457-.329.326-1.19a2.305,2.305,0,0,0-.759-1.327,2.715,2.715,0,0,0-1.97-.608c-1.6.044-3.1,1.452-3.9,3.053a12.221,12.221,0,0,0-1.484,5.713c-.038,4.173,1.935,8.16,4.889,9.147a3.87,3.87,0,0,0,3.318-.413c.661-.486.789-.943.719-.984" transform="translate(-27.904 67.845)" fill="#ff9b6c"/>
        <path id="Trazado_187" data-name="Trazado 187" d="M89.634,55.45c.224-.521-3.827-1.734-6.673-5.535a23.157,23.157,0,0,1-2.864-5.4c-.6-1.5-1.059-2.445-1.283-2.375s-.157,1.083.175,2.715a15.26,15.26,0,0,0,2.66,6.05,12.369,12.369,0,0,0,5.285,4.042c1.577.64,2.645.681,2.7.5" transform="translate(59.679 80.485)" fill="#1a2e35"/>
        <path id="Trazado_188" data-name="Trazado 188" d="M222.32,47.054a4.893,4.893,0,0,0-2.293-2.852c-2.36-1.394-5.081-1.208-7.709-1.251a43.547,43.547,0,0,1-22.676-6.891A101.6,101.6,0,0,0,179.09,23.27C169.949,13.847,162.429,7.433,154.65,4.3,144.59.25,127.761-1.391,117.273,1.362S97.358,12.627,95.9,23.374c-5.884-4.973-14.719-4.933-21.884-2.052l-.178-.079C65.856,24.09,61.322,32.521,58.968,40.658S55.61,57.5,51.3,64.794c-.9,1.525-1.97,3.352-1.184,4.939a3.368,3.368,0,0,0,3.524,1.537,9.88,9.88,0,0,0,3.713-1.682q-1.336,3.2-2.669,6.394a18.866,18.866,0,0,0,8.681-.579c1.694,7.61,3.716,16.3,5.675,21.459,3.338-.009,6.391.23,8.448,2.078,2.794,2.514,4.045,7.243,8.69,5.448,2.363-.914,4.519-5.873,5.311-8.282a117.671,117.671,0,0,0,5.1-49.813,37.892,37.892,0,0,1,11.681-8.431l-.358.323c8.428-2.928,17.958-5.806,25.956-1.851,6.2,3.07,9.845,9.5,14.484,14.641a47.342,47.342,0,0,0,33.74,15.584c.445,8.492-.268,20.49.178,28.982l7.144-13.6.006.07c.585-1,1.068-2,1.534-3.006l.16-.306v-.038a53.847,53.847,0,0,1,2.389-4.831c.026.026.055.049.082.073,4.6,4.06,11.379-2.145,7.75-7.092a11.969,11.969,0,0,0-2.564-2.578,8.383,8.383,0,0,0,7.994,2.072,6.583,6.583,0,0,0,4.656-6.51,5.6,5.6,0,0,0-3.338-4.493,18.884,18.884,0,0,0,10.756-2.369c2.124-1.211,4.208-3.2,3.486-5.876" transform="translate(10.808 0)" fill="#1a2e35"/>
        <path id="Trazado_189" data-name="Trazado 189" d="M134.335,9.221a26.263,26.263,0,0,0-3.027,2.768A21.641,21.641,0,0,0,126.678,22a37.961,37.961,0,0,0-.768,7.665c-.015,2.779.21,5.753.422,8.888a79.334,79.334,0,0,1,.227,9.892,34.929,34.929,0,0,1-.681,5.218,10.856,10.856,0,0,1-2.127,5.061,4.555,4.555,0,0,1-4.258,1.432,6.784,6.784,0,0,1-3.83-2.165c-1.941-2.264-2.424-5.136-2.907-7.668l.634.076a25.306,25.306,0,0,1-3.67,6.318,8.984,8.984,0,0,1-5.867,3.2,5.787,5.787,0,0,1-3.111-.544,5.026,5.026,0,0,1-2.113-2.081,5.179,5.179,0,0,1-.64-2.674,3.733,3.733,0,0,1,.969-2.346l.32.285A19.487,19.487,0,0,1,92.8,57.416a17.985,17.985,0,0,1-2.008.78,3.58,3.58,0,0,1-.719.178,3.585,3.585,0,0,1,.681-.291c.448-.183,1.115-.451,1.947-.873a20.067,20.067,0,0,0,6.254-4.936l.32.288a3.865,3.865,0,0,0-.2,4.482,4.5,4.5,0,0,0,1.909,1.839,5.247,5.247,0,0,0,2.82.46,8.408,8.408,0,0,0,5.445-3.035,24.967,24.967,0,0,0,3.536-6.184l.434-.966.2,1.042c.483,2.529,1,5.288,2.768,7.331a6.1,6.1,0,0,0,3.428,1.935,3.838,3.838,0,0,0,3.617-1.214,10.287,10.287,0,0,0,1.967-4.735,34.785,34.785,0,0,0,.675-5.113,80.705,80.705,0,0,0-.186-9.807c-.195-3.131-.4-6.12-.358-8.934a37.6,37.6,0,0,1,.867-7.764A21.354,21.354,0,0,1,131.1,11.805a12.292,12.292,0,0,1,3.23-2.584" transform="translate(-18.136 17.613)" fill="#375a64"/>
        <path id="Trazado_190" data-name="Trazado 190" d="M150.286,49.684c.009.009-.076.079-.242.207l-.754.55a10.294,10.294,0,0,1-1.278.818,15.733,15.733,0,0,1-1.836.966,26.748,26.748,0,0,1-12.909,2.322,34.166,34.166,0,0,1-18.2-6.722C109.038,43.491,103.75,37.109,99.426,29.8c-2.194-3.652-3.981-7.395-5.954-10.855a39.916,39.916,0,0,0-6.74-9.181,20.589,20.589,0,0,0-8.69-5.273,14.724,14.724,0,0,0-4.583-.53,16.285,16.285,0,0,0-4.2.806,17.448,17.448,0,0,0-9.691,8.2,20.752,20.752,0,0,0-1.557,4.522.989.989,0,0,1,.023-.314c.038-.25.084-.553.143-.925a15.2,15.2,0,0,1,1.144-3.4A17.176,17.176,0,0,1,62.7,8.267a17.614,17.614,0,0,1,6.4-3.972,16.746,16.746,0,0,1,4.327-.879,15.266,15.266,0,0,1,4.77.509A21.086,21.086,0,0,1,87.186,9.3,40.334,40.334,0,0,1,94.074,18.6c1.993,3.483,3.783,7.217,5.957,10.834,4.292,7.255,9.5,13.567,15.415,17.862A33.975,33.975,0,0,0,133.3,54.049a27.135,27.135,0,0,0,12.767-2.075,43.5,43.5,0,0,0,4.22-2.29" transform="translate(59.221 6.5)" fill="#375a64"/>
        <path id="Trazado_191" data-name="Trazado 191" d="M89.032,14.758a4.685,4.685,0,0,1-1.083.754,23.262,23.262,0,0,1-3.2,1.627A30.956,30.956,0,0,1,79.675,18.8a35.509,35.509,0,0,1-6.484.861,35.68,35.68,0,0,1-6.53-.445,31.094,31.094,0,0,1-5.168-1.336,23.4,23.4,0,0,1-3.3-1.42,4.691,4.691,0,0,1-1.126-.681c.058-.119,1.723.736,4.583,1.627a35.336,35.336,0,0,0,5.113,1.17,38.563,38.563,0,0,0,6.405.378,38.456,38.456,0,0,0,6.364-.789,35.227,35.227,0,0,0,5.029-1.493c2.8-1.071,4.4-2.034,4.47-1.918" transform="translate(123.219 28.172)" fill="#375a64"/>
        <path id="Trazado_192" data-name="Trazado 192" d="M84.058,33.215c-.6.611-4.08-2.191-9.135-2.328-5.043-.21-8.821,2.343-9.353,1.694-.262-.291.364-1.406,2.011-2.561a12.635,12.635,0,0,1,7.508-2.13,12.2,12.2,0,0,1,7.249,2.637c1.519,1.266,2.014,2.418,1.72,2.689" transform="translate(103.532 53.259)" fill="#1a2e35"/>
        <path id="Trazado_193" data-name="Trazado 193" d="M74.071,36.52a4.09,4.09,0,0,1-4.231,3.827,3.909,3.909,0,0,1-3.932-3.984,4.084,4.084,0,0,1,4.225-3.827,3.909,3.909,0,0,1,3.937,3.984" transform="translate(112.455 62.148)" fill="#1a2e35"/>
        <path id="Trazado_194" data-name="Trazado 194" d="M53.1,186.7a7.2,7.2,0,0,0,.256,2.247,43.329,43.329,0,0,0,1.539,5.975,63.216,63.216,0,0,0,9.478,18.162A66.379,66.379,0,0,0,79.33,227.556a48.263,48.263,0,0,0,5.436,3.338,8.34,8.34,0,0,0,2.151.966c.122-.2-2.779-1.83-7-5.032a75.234,75.234,0,0,1-14.431-14.492,72.1,72.1,0,0,1-9.673-17.7c-1.8-4.839-2.474-7.98-2.709-7.933" transform="translate(136.963 356.628)" fill="#375a64"/>
        <path id="Trazado_195" data-name="Trazado 195" d="M106.531,218.646a7.434,7.434,0,0,0,2.322.364,36.291,36.291,0,0,0,6.408-.119,42.024,42.024,0,0,0,19.609-7.252,39.056,39.056,0,0,0,13.066-15.677,31.524,31.524,0,0,0,2.005-5.785,6.464,6.464,0,0,0,.317-2.215c-.242-.061-.893,3.064-3.2,7.619a41.4,41.4,0,0,1-13,15.016,44.346,44.346,0,0,1-18.925,7.386c-5.259.754-8.594.425-8.605.664" transform="translate(-81.987 359.031)" fill="#375a64"/>
        <path id="Trazado_196" data-name="Trazado 196" d="M193.3,84.016,158.531,70.38,94.476,66.754,64.368,78.2l41.257,22.909,35.574-1.3Z" transform="translate(-2.304 127.508)" fill="#ffc09d"/>
        <path id="Trazado_197" data-name="Trazado 197" d="M250.922,411.244C247.776,411.786,37.9,420.7,37.9,420.7l7.371-188.711.605-37.052L57.8,82.693S89.168,71.9,105.173,66.754c0,0,16.847,17.557,48.876,17.083,31.316-.463,37.858-7.523,37.858-7.523L235.687,93.1s31.13,11.163,36.487,24.937c5.215,13.41,14.769,89.984,14.769,89.984H241.563l.859,135.272Z" transform="translate(-18.908 127.509)" fill="#002f87"/>
        <path id="Trazado_198" data-name="Trazado 198" d="M156.881,100.134l-6.507,47.575-31.482,14.059L95.619,141.936V97.771Z" transform="translate(-56.826 186.757)" fill="#002f87"/>
        <path id="Trazado_199" data-name="Trazado 199" d="M96.3,103.691c0,.4,13.084.716,29.221.716s29.224-.32,29.224-.716-13.081-.716-29.224-.716-29.221.32-29.221.716" transform="translate(-56.685 196.696)" fill="#1a2e35"/>
        <path id="Trazado_200" data-name="Trazado 200" d="M69.191,91.131a5.9,5.9,0,0,0-.335,1.251c-.215.94-.495,2.145-.838,3.646a120.066,120.066,0,0,1-4.179,13.39c-2.089,5.637-5.043,12.246-8.655,19.675-3.417,7.569-6.507,16.279-9.74,25.717l-.032.1v.111c.076,11.3.16,23.677.244,36.6.306,28.857.582,54.975.783,74.043.166,9.368.3,17,.393,22.431.076,2.549.134,4.578.178,6.1a12.38,12.38,0,0,0,.154,2.121,12.513,12.513,0,0,0,.119-2.13c.02-1.522.047-3.553.079-6.105.012-5.436.023-13.069.041-22.44-.1-19.067-.233-45.18-.381-74.034-.119-12.924-.23-25.295-.332-36.595l-.032.2c3.169-9.417,6.2-18.159,9.5-25.667a211.408,211.408,0,0,0,8.416-19.859,103.033,103.033,0,0,0,3.847-13.567c.311-1.609.535-2.852.64-3.7a6.111,6.111,0,0,0,.125-1.289" transform="translate(176.963 174.073)" fill="#1a2e35"/>
        <path id="Trazado_201" data-name="Trazado 201" d="M120.326,83.544a23.873,23.873,0,0,0,.041,4.028c.1,2.835.242,6.519.407,10.957.375,9.49.876,22.149,1.429,36.144.632,14,1.2,26.657,1.636,36.147.256,4.435.466,8.116.629,10.951a22.4,22.4,0,0,0,.416,4.007A22.747,22.747,0,0,0,125,181.75c-.049-2.837-.116-6.525-.195-10.965-.233-9.26-.652-22.047-1.24-36.167s-1.228-26.9-1.828-36.138c-.3-4.624-.591-8.364-.841-10.942a21.8,21.8,0,0,0-.567-3.993" transform="translate(-96.678 159.581)" fill="#1a2e35"/>
        <g id="Grupo_58" data-name="Grupo 58" transform="translate(225.432 272.06)" opacity="0.3">
          <g id="Grupo_57" data-name="Grupo 57">
            <g id="Grupo_56" data-name="Grupo 56" clip-path="url(#clip-path-3)">
              <path id="Trazado_202" data-name="Trazado 202" d="M66.031,93.487c1.019,20.709-6.786,40.768-20.607,56.221,4.269-19.469,14.932-37.59,20.607-56.221" transform="translate(-45.423 -93.487)"/>
            </g>
          </g>
        </g>
        <path id="Trazado_203" data-name="Trazado 203" d="M129.157,208.238c-9.81-.832-18.657-6.65-25.187-14.015a119.094,119.094,0,0,1-16.917-24.495c-6.085-11.929-9.1-24.914-9.921-38.51,12.228,32.768,30.155,58.706,52.025,77.02" transform="translate(24.7 250.644)" fill="#021964"/>
        <path id="Trazado_204" data-name="Trazado 204" d="M73.978,126.307a4.049,4.049,0,0,0,.175,1.208c.207.937.457,2.06.754,3.408.323,1.484.78,3.28,1.414,5.34.614,2.063,1.263,4.432,2.206,6.979a162.31,162.31,0,0,0,7.243,17.624,185.612,185.612,0,0,0,11.545,20.284,182.687,182.687,0,0,0,14.236,18.506,152.919,152.919,0,0,0,13.529,13.424c2,1.839,3.952,3.329,5.637,4.671,1.668,1.365,3.166,2.459,4.429,3.3,1.141.78,2.089,1.426,2.884,1.967a4.153,4.153,0,0,0,1.056.608c.026-.038-.285-.326-.9-.832-.748-.6-1.647-1.31-2.724-2.168-1.208-.905-2.654-2.055-4.266-3.469-1.633-1.391-3.53-2.925-5.474-4.8a169.359,169.359,0,0,1-13.229-13.538A195.91,195.91,0,0,1,98.449,180.4,200.6,200.6,0,0,1,86.9,160.315a181.136,181.136,0,0,1-7.462-17.4c-1-2.512-1.705-4.845-2.383-6.88-.7-2.025-1.234-3.795-1.633-5.253-.4-1.321-.725-2.421-1-3.335a4.2,4.2,0,0,0-.439-1.144" transform="translate(23.992 241.264)" fill="#1a2e35"/>
        <path id="Trazado_205" data-name="Trazado 205" d="M60.825,106.011a10.179,10.179,0,0,0,.244,1.926c.244,1.382.565,3.2.966,5.48.4,2.383.966,5.288,1.819,8.614.826,3.332,1.627,7.168,2.93,11.294q.921,3.117,1.924,6.51c.681,2.261,1.557,4.557,2.375,6.964,1.577,4.84,3.693,9.848,5.832,15.153a275.449,275.449,0,0,0,17.021,33.071,274.74,274.74,0,0,0,21.71,30.21c3.748,4.322,7.246,8.483,10.84,12.092,1.772,1.825,3.417,3.649,5.122,5.285s3.352,3.184,4.921,4.674c3.082,3.038,6.132,5.5,8.725,7.747,2.573,2.276,4.9,4.095,6.842,5.541q2.763,2.086,4.441,3.352a10.318,10.318,0,0,0,1.6,1.094,10.632,10.632,0,0,0-1.438-1.312l-4.275-3.547c-1.883-1.507-4.159-3.382-6.679-5.7-2.535-2.3-5.529-4.8-8.556-7.869q-2.318-2.261-4.842-4.717c-1.676-1.65-3.3-3.486-5.043-5.317-3.542-3.626-6.99-7.8-10.7-12.118A286.17,286.17,0,0,1,95.1,194.31a285.641,285.641,0,0,1-17.03-32.853c-2.162-5.264-4.307-10.235-5.922-15.037-.838-2.389-1.737-4.668-2.442-6.909s-1.359-4.4-2-6.46c-1.359-4.092-2.22-7.9-3.117-11.2-.92-3.3-1.554-6.178-2.04-8.541-.5-2.252-.908-4.054-1.214-5.422a10.49,10.49,0,0,0-.515-1.877" transform="translate(43.207 202.496)" fill="#1a2e35"/>
        <path id="Trazado_206" data-name="Trazado 206" d="M81.625,93.644C68.69,113.3,16.31,192.952.823,216.507a3.636,3.636,0,0,0,3.5,5.6l93.055-11.7a3.645,3.645,0,0,0,2.485-1.464L188.748,87.55a3.644,3.644,0,0,0-3.21-5.785L89.794,88.848a10.711,10.711,0,0,0-8.169,4.8" transform="translate(188.235 156.162)" fill="#e1e1e1"/>
        <path id="Trazado_207" data-name="Trazado 207" d="M82.114,94.048a6.326,6.326,0,0,1,.742-1.117A10.377,10.377,0,0,1,85.866,90.4a13.1,13.1,0,0,1,6.2-1.5q3.78-.314,8.658-.713c13.107-1.027,31.948-2.506,55.194-4.33q8.744-.672,18.29-1.4,4.771-.367,9.732-.742c.858-.049,1.58-.16,2.567-.16a4.153,4.153,0,0,1,2.677,1.112,4.274,4.274,0,0,1,.707,5.465c-8.108,11.117-16.765,22.993-25.874,35.486-18.247,24.951-38.3,52.374-59.346,81.158-1.353,1.822-2.555,3.539-4.019,5.433A4.425,4.425,0,0,1,99,211.318a7.22,7.22,0,0,1-1.8.355l-3.283.413-13.02,1.635q-12.925,1.62-25.455,3.19L7.315,222.92c-1,.108-1.828.265-2.954.329a4.277,4.277,0,0,1-3.085-1.283A4.414,4.414,0,0,1,0,218.9a5.112,5.112,0,0,1,1.12-2.98q3.112-4.714,6.135-9.3,6.05-9.163,11.737-17.775c7.578-11.46,14.638-22.137,21.09-31.892,12.9-19.425,23.351-35.166,30.626-46.117,3.609-5.378,6.428-9.574,8.39-12.5.943-1.374,1.676-2.445,2.215-3.227a8.406,8.406,0,0,1,.8-1.071,8.329,8.329,0,0,1-.666,1.158l-2.087,3.312c-1.906,2.96-4.642,7.211-8.148,12.656C64.037,122.189,53.726,138.023,41,157.562c-6.4,9.787-13.407,20.5-20.927,32Q14.417,198.18,8.4,207.374q-3.012,4.6-6.108,9.318a3.679,3.679,0,0,0-.882,2.209,3.021,3.021,0,0,0,.873,2.069,2.867,2.867,0,0,0,2.072.858c.789-.044,1.862-.221,2.785-.326l48.11-6.1L80.7,212.191l13.017-1.641L97,210.136a6.05,6.05,0,0,0,1.443-.265,2.85,2.85,0,0,0,1.074-.728q1.943-2.641,3.9-5.3c21.084-28.758,41.17-56.157,59.445-81.085,9.135-12.444,17.819-24.271,25.947-35.341a2.992,2.992,0,0,0-.486-3.838,2.885,2.885,0,0,0-1.874-.789c-.69-.006-1.627.1-2.421.145q-4.959.358-9.731.7-9.542.677-18.3,1.3c-23.264,1.615-42.115,2.925-55.231,3.838-3.251.212-6.146.4-8.669.57a12.957,12.957,0,0,0-6.082,1.318,12.274,12.274,0,0,0-3.9,3.379" transform="translate(187.745 155.758)" fill="#1a2e35"/>
        <path id="Trazado_208" data-name="Trazado 208" d="M182.23,83.766a10.736,10.736,0,0,1-1.95.291l-5.649.57c-5.072.448-12.2,1.083-21.029,1.865L82.092,92.331l.57-.329c-4.476,6.65-9.094,13.555-13.73,20.688-18.869,29.005-35.352,55.668-47.8,74.639-6.19,9.507-11.335,17.115-14.917,22.35l-4.2,5.977a15.783,15.783,0,0,1-1.551,2.025,15.879,15.879,0,0,1,1.292-2.2q1.467-2.279,3.955-6.137c3.5-5.465,8.436-13.157,14.5-22.609,12.208-19.111,28.54-45.858,47.427-74.9C72.273,104.7,76.909,97.8,81.405,91.146l.207-.3.364-.026c28.5-2.116,53.5-3.969,71.552-5.311L174.591,84.1c2.363-.131,4.243-.236,5.666-.311a10.587,10.587,0,0,1,1.973-.017" transform="translate(194.752 159.946)" fill="#1a2e35"/>
        <path id="Trazado_209" data-name="Trazado 209" d="M20.271,89.718h0l.038-.012Z" transform="translate(299.018 171.351)" fill="#fff"/>
        <path id="Trazado_210" data-name="Trazado 210" d="M25.132,91.122a1.88,1.88,0,0,0-2.3-1.388,5.007,5.007,0,0,0-2.5,1.4,2.491,2.491,0,0,0-.454,3.19c.931,1.149,2.84.725,3.961-.239a3.252,3.252,0,0,0,1.292-2.965" transform="translate(296.462 171.334)" fill="#fff"/>
        <path id="Trazado_211" data-name="Trazado 211" d="M31.381,120.667s-3.673-8.754,5.649-9.886,33.787,0,33.787,0S84.194,112.2,81.369,121.8c0,0,7.91,7.06,3.673,14.687s-5.931,5.366-5.931,5.366,1.129,9.318-5.931,10.73c0,0-7.654,9.039-14.7,8.474S21.5,146.084,19.52,143.261s-4.8-4.432-3.108-7.581c0,0-3.67-8.265,4.237-9.522,0,0,.565-6.9,10.733-5.491" transform="translate(246.746 210.649)" fill="#ffc09d"/>
        <path id="Trazado_212" data-name="Trazado 212" d="M61.989,117.439c0,.215-2.41.373-6.3.451s-9.254.087-15.182,0c-5.916-.2-11.294.032-15.249-.908-4.022-.931-5.6-3.291-5.407-3.341.163-.2,1.86,1.682,5.634,2.267,3.7.623,9.126.242,15.048.431,5.925.09,11.291.259,15.173.46s6.283.428,6.28.643" transform="translate(258.601 217.038)" fill="#ff9b6c"/>
        <path id="Trazado_213" data-name="Trazado 213" d="M69.114,129.2a4.7,4.7,0,0,1-2.025.7,21.745,21.745,0,0,1-5.823.361,41.1,41.1,0,0,1-8.492-1.54c-3.128-.864-6.452-2.063-9.961-3.143a44.633,44.633,0,0,0-10.025-2.066c-3.05-.137-6.35-.055-8.538-1.726a4.891,4.891,0,0,1-2.037-2.91,4.009,4.009,0,0,1,.355-2.642c.736-1.347,1.737-1.426,1.711-1.35.079.122-.722.4-1.161,1.595a3.649,3.649,0,0,0,1.749,4.4c1.9,1.3,4.726,1.15,8,1.208a41.667,41.667,0,0,1,10.4,2.011l9.906,3.251a47.175,47.175,0,0,0,8.192,1.822c4.755.585,7.7-.236,7.753.032" transform="translate(244.802 219.399)" fill="#ff9b6c"/>
        <path id="Trazado_214" data-name="Trazado 214" d="M66.941,132.8c-.055.2-2.462-.25-6.289-1.216s-9.071-2.465-14.8-4.336-10.84-3.772-14.5-5.256-5.864-2.538-5.788-2.736c.16-.41,9.356,2.791,20.77,6.516,11.4,3.742,20.717,6.6,20.6,7.028" transform="translate(236.97 227.734)" fill="#ff9b6c"/>
        <path id="Trazado_215" data-name="Trazado 215" d="M57.6,136.347c-.029.189-2.043.108-5.218-.6a62.428,62.428,0,0,1-11.923-4.2c-4.487-2.04-8.4-4.127-11.242-5.631s-4.557-2.5-4.467-2.7c.2-.46,7.523,2.765,16.349,6.923,8.812,4.226,16.559,5.806,16.5,6.21" transform="translate(248.712 235.272)" fill="#ff9b6c"/>
        <path id="Trazado_216" data-name="Trazado 216" d="M75.733,133.45s19.026,76.228,42.8,104.363c23.022,27.248,59.1,14.722,71.6-20.531S224.886,101.5,224.886,101.5L197.546,80.6l-47.234,91.544-21.288-62.4Z" transform="translate(-66.959 153.955)" fill="#ffc09d"/>
        <path id="Trazado_217" data-name="Trazado 217" d="M89.964,148.42l20.048-29.058s6.655-1.545,8.541-2.648c2.273-1.33,4.508-12.872,4.461-15.124s3.888-7.52,2.293-9-6.967-1.595-6.676-3.76c.061-.463,3.984-5.276.873-8.812-1.123-1.278-5.654-2.4-5.654-2.4l.326-11.088s-5.989-13.093-12.109-8.352c0,0-23.074,17.726-25.4,20.557s-11.2,39.744-12.776,46.67" transform="translate(66.697 109.15)" fill="#ffc09d"/>
        <path id="Trazado_218" data-name="Trazado 218" d="M63.67,125.84a10.33,10.33,0,0,1,.308-1.959c.3-1.4.7-3.245,1.187-5.55,1.08-4.81,2.695-11.769,4.88-20.342,1.106-4.284,2.325-8.975,3.862-13.977.407-1.248.8-2.514,1.333-3.8a8.563,8.563,0,0,1,2.721-3.344c2.1-1.851,4.313-3.664,6.594-5.515,4.566-3.7,9.414-7.508,14.469-11.44,1.3-.92,2.378-2.113,4.223-2.785a5.78,5.78,0,0,1,5.2,1.237,23.762,23.762,0,0,1,6.149,8.306l.07.137-.006.178c-.032,1.074-.064,2.232-.1,3.393-.076,2.593-.151,5.166-.227,7.694l-.538-.707a26.593,26.593,0,0,1,4.065,1.368,5.93,5.93,0,0,1,1.97,1.286,5.589,5.589,0,0,1,1.118,2.049,6.883,6.883,0,0,1-.352,4.412,13.193,13.193,0,0,1-.905,1.906l-.509.87-.1.183c.026-.032.009-.116.02-.041a.307.307,0,0,0,.032.186c.058.253.6.594,1.141.809.556.233,1.173.416,1.79.605s1.254.373,1.894.626a3.734,3.734,0,0,1,1.924,1.353,3.174,3.174,0,0,1,.052,2.36,14.767,14.767,0,0,1-.678,1.863c-.5,1.176-1.059,2.287-1.47,3.384a4.611,4.611,0,0,0-.349,1.557,16.378,16.378,0,0,1-.18,1.892c-.175,1.211-.4,2.389-.64,3.55a46.882,46.882,0,0,1-1.883,6.7,8.437,8.437,0,0,1-1.761,3.088,10.331,10.331,0,0,1-3.125,1.374c-2.034.632-4.01,1.126-5.937,1.574l.32-.218c-6.187,8.8-11.242,15.98-14.848,21.1q-2.58,3.579-4.118,5.713a14.578,14.578,0,0,1-1.525,1.935,14.823,14.823,0,0,1,1.269-2.113l3.879-5.878c3.51-5.186,8.431-12.464,14.458-21.369l.113-.169.207-.052c1.892-.463,3.859-.981,5.832-1.618a9.9,9.9,0,0,0,2.7-1.17,7.849,7.849,0,0,0,1.409-2.631,46.971,46.971,0,0,0,1.775-6.527c.227-1.141.437-2.3.6-3.469a15.242,15.242,0,0,0,.157-1.717,6.06,6.06,0,0,1,.416-2.008c.448-1.2,1-2.319,1.478-3.454a13.562,13.562,0,0,0,.608-1.688,2.043,2.043,0,0,0,.058-1.365,2.978,2.978,0,0,0-1.231-.736c-.562-.218-1.176-.393-1.8-.582s-1.266-.375-1.924-.646a3.217,3.217,0,0,1-1.892-1.557,1.659,1.659,0,0,1-.134-.777,1.1,1.1,0,0,1,.128-.518l.14-.25.5-.856a12.131,12.131,0,0,0,.812-1.717,5.514,5.514,0,0,0,.306-3.527,4.124,4.124,0,0,0-.832-1.519,4.831,4.831,0,0,0-1.484-.92,25.678,25.678,0,0,0-3.827-1.28L112.9,78.6l.017-.565c.073-2.529.148-5.1.221-7.694.035-1.161.07-2.319.1-3.393l.064.317a22.647,22.647,0,0,0-5.7-7.77,4.381,4.381,0,0,0-3.949-1.024c-1.237.4-2.509,1.612-3.783,2.543-5.064,3.908-9.926,7.694-14.5,11.352-2.287,1.83-4.511,3.626-6.591,5.43a7.392,7.392,0,0,0-2.436,2.893c-.509,1.2-.917,2.459-1.33,3.681-1.571,4.938-2.846,9.615-4.01,13.876-2.218,8.436-4.019,15.3-5.311,20.217-.6,2.279-1.077,4.1-1.441,5.488a10.783,10.783,0,0,1-.582,1.892" transform="translate(66.919 108.714)" fill="#ff9b6c"/>
        <path id="Trazado_219" data-name="Trazado 219" d="M104.417,64.575c-.009.244-2.343.058-5.98.41a42.793,42.793,0,0,0-6.309,1.441c-2.555.565-5.369.274-8.16.07a15.4,15.4,0,0,0-12.854,4.17c-2.581,2.564-2.84,5.026-3.1,4.936-.122.061-.239-2.625,2.366-5.622a14.926,14.926,0,0,1,5.518-3.873,16.787,16.787,0,0,1,8.169-1.027,31.263,31.263,0,0,0,7.8.064,34.812,34.812,0,0,1,6.49-1.161c3.8-.1,6.071.448,6.059.594" transform="translate(76.131 122.191)" fill="#ff9b6c"/>
        <path id="Trazado_220" data-name="Trazado 220" d="M71.753,67.938c-.34.175-1.272-1.173-1.152-3.091s1.2-3.146,1.513-2.931c.349.2-.017,1.47-.093,3.015-.108,1.542.1,2.849-.268,3.006" transform="translate(100.632 118.223)" fill="#ff9b6c"/>
        <path id="Trazado_221" data-name="Trazado 221" d="M96.318,70.555c.02.364-7.9.7-17.379-1.362-2.372-.512-4.537-1.173-6.388-.809a6.942,6.942,0,0,0-4.138,2.73c-1.746,2.447-2.028,4.493-2.282,4.409-.114,0-.244-2.1,1.455-4.982a7.653,7.653,0,0,1,4.7-3.44c2.3-.509,4.671.227,6.949.7,9.312,2.034,17.091,2.331,17.08,2.753" transform="translate(89.724 127.843)" fill="#ff9b6c"/>
        <path id="Trazado_222" data-name="Trazado 222" d="M90.665,74.3c0,.183-1.647.346-4.272.02-2.625-.291-6.146-1.2-9.99-1.95a22.581,22.581,0,0,0-5.378-.538,6.468,6.468,0,0,0-3.873,1.4c-1.9,1.6-1.676,3.417-1.889,3.39-.081.015-.279-.387-.239-1.176A4.853,4.853,0,0,1,66.464,72.5a7.072,7.072,0,0,1,4.447-1.97,20.409,20.409,0,0,1,5.753.445c3.955.777,7.377,1.822,9.9,2.357,2.514.567,4.106.76,4.1.969" transform="translate(98.445 134.587)" fill="#ff9b6c"/>
        <path id="Trazado_223" data-name="Trazado 223" d="M74.07,74.668c.242.18-1.714,2.232-5.314,2.223l.71-.614c-.073.631-.14,1.237-.212,1.857-.521,4.106-1.257,7.383-1.647,7.325s-.282-3.411.236-7.488c.084-.617.169-1.216.256-1.842l.09-.652.62.038c3.012.186,5.081-1.158,5.262-.847" transform="translate(108.166 142.536)" fill="#ff9b6c"/>
        <path id="Trazado_224" data-name="Trazado 224" d="M140.16,72.23s-38.97,9.443-38.888,61.119c.081,51.477,11.769,77.206,11.769,77.206l71.837-39.1-16.029-40.244Z" transform="translate(-101.272 137.969)" fill="#002f87"/>
        <path id="Trazado_225" data-name="Trazado 225" d="M100.949,203.441a7.076,7.076,0,0,0,1.493-.652c1.088-.55,2.468-1.251,4.167-2.116,3.763-1.985,8.943-4.714,15.313-8.07,13.078-7.048,31.016-16.71,51.224-27.6l.579-.314-.236-.611c-1.231-3.219-2.532-6.623-3.853-10.072-4.589-11.926-8.96-23.278-12.947-33.635-2-5.154-3.905-10.06-5.692-14.661a88.574,88.574,0,0,0-5.686-12.543c-4.039-7.4-8.821-12.621-12.962-15a15.749,15.749,0,0,0-5.052-2.023,9.474,9.474,0,0,0-1.4-.183c-.32-.015-.483-.012-.486.015a19.282,19.282,0,0,1,6.626,2.692c3.929,2.465,8.463,7.648,12.336,15.016a90.989,90.989,0,0,1,5.451,12.467c1.743,4.615,3.6,9.537,5.558,14.711,3.952,10.369,8.285,21.736,12.837,33.673,1.324,3.451,2.628,6.853,3.865,10.072l.343-.925c-20.115,11.059-37.966,20.874-50.986,28.033-6.28,3.524-11.384,6.391-15.092,8.474l-4.039,2.351a7.017,7.017,0,0,0-1.359.9" transform="translate(-89.177 145.083)" fill="#1a2e35"/>
      </g>
    </g>
  </g>
</svg>
