<svg xmlns="http://www.w3.org/2000/svg" width="120" height="134.38" viewBox="0 0 120 134.38">
  <g id="icon5" transform="translate(-1502 -3080)">
    <path id="Trazado_372" data-name="Trazado 372" d="M17.89,120.23c-2.943,0-5.548.039-8.151-.008-5.648-.1-9.689-3.934-9.7-9.547q-.08-47.752,0-95.5C.056,9.478,4.166,5.72,10.08,5.712c20.99-.027,41.981.014,62.97-.066a8.58,8.58,0,0,0,4.344-1.251A27.55,27.55,0,0,1,107.85,50.308a4.449,4.449,0,0,0-2.294,4.43c.147,3.054.028,6.12.038,9.181.005,1.775-.551,3.231-2.55,3.287-2.187.062-2.728-1.458-2.711-3.351.026-3.142.007-6.284.007-9.377l-12.615.8v2.784q0,25.45,0,50.9c0,7.658-3.6,11.272-11.216,11.274q-25.057.01-50.114,0H23.248a30.989,30.989,0,0,0,.064,5.547c.454,2.39,2.282,3.343,4.664,3.333,4.81-.02,9.621,0,14.431,0q25.975,0,51.95,0c4.625,0,5.974-1.328,5.977-5.889q.011-16.4,0-32.8c0-.7-.25-1.583.08-2.06.663-.958,1.643-2.341,2.5-2.345.878,0,2.521,1.421,2.529,2.234.13,12.677.261,25.362-.093,38.032-.131,4.669-4.456,8.043-9.2,8.054q-34.371.079-68.742.006c-5.415-.012-9.339-4.043-9.517-9.489-.045-1.389-.007-2.782-.007-4.626M69.994,10.96h-2.57q-28.2,0-56.4,0c-4.465,0-5.754,1.292-5.755,5.777q-.009,27.938,0,55.876,0,18.625.01,37.251c.006,3.411,1.458,5.082,4.588,5.088q33.972.052,67.944,0c2.92,0,4.622-1.64,4.629-4.555q.071-27.807-.024-55.614a2.6,2.6,0,0,0-1.178-1.962A29.1,29.1,0,0,1,69.36,42.72c-16.249,0-32.331-.009-48.413.01-2.457,0-3.464-1.206-3.422-3.576.049-2.8,0-5.6.012-8.395.011-3.718.685-4.394,4.461-4.4q19.937-.013,39.874,0h2.651A79.116,79.116,0,0,1,66.473,18.4a79.446,79.446,0,0,1,3.521-7.444m44.691,16.764a22.3,22.3,0,1,0-22.49,22.143,22.256,22.256,0,0,0,22.49-22.143M64.648,31.833H22.956v5.491H64.648Z" transform="translate(1501.999 3080)"/>
    <path id="Trazado_373" data-name="Trazado 373" d="M59.94,98.826c7.423,0,14.846.011,22.269-.008,1.88-.005,3.718.176,3.748,2.569.029,2.35-1.724,2.705-3.648,2.7q-22.531-.018-45.063,0c-1.957,0-3.685-.451-3.647-2.731.035-2.115,1.688-2.557,3.548-2.55,7.6.029,15.195.012,22.793.012" transform="translate(1486.036 3033.05)"/>
    <path id="Trazado_374" data-name="Trazado 374" d="M59.777,175.214H38.292c-.611,0-1.223.008-1.834-.011-1.746-.056-2.924-.924-2.878-2.693s1.277-2.553,3.016-2.552q7.205.006,14.41,0,15.2,0,30.392.005c1.983,0,4.3-.4,4.564,2.555.178,1.956-1.206,2.7-4.7,2.7q-10.742,0-21.484,0" transform="translate(1486.045 2999.254)"/>
    <path id="Trazado_375" data-name="Trazado 375" d="M59.777,151.522H38.292c-.611,0-1.223.008-1.834-.011-1.746-.056-2.924-.924-2.878-2.693s1.277-2.553,3.016-2.552q7.205.006,14.41,0,15.2,0,30.392.005c1.983,0,4.3-.4,4.564,2.555.178,1.956-1.206,2.7-4.7,2.7q-10.742,0-21.484,0" transform="translate(1486.045 3010.511)"/>
    <path id="Trazado_376" data-name="Trazado 376" d="M59.714,127.772q-10.871,0-21.74-.01a5.142,5.142,0,0,1-2.551-.287c-.778-.494-1.744-1.551-1.682-2.284a4,4,0,0,1,1.829-2.451c.631-.415,1.691-.224,2.559-.225q21.739-.014,43.48,0a5.5,5.5,0,0,1,2.565.228c.789.46,1.782,1.461,1.757,2.2a3.955,3.955,0,0,1-1.67,2.544c-.6.436-1.679.277-2.545.279q-11,.025-22,.009" transform="translate(1485.97 3021.809)"/>
    <path id="Trazado_377" data-name="Trazado 377" d="M176.264,31.55c0,2.707-.009,5.415,0,8.122.008,1.835-.723,3.158-2.687,3.126-1.808-.029-2.556-1.308-2.56-3.012q-.02-8.515,0-17.029c.006-1.7.752-2.962,2.581-2.985,2-.025,2.671,1.312,2.663,3.133-.012,2.882,0,5.764,0,8.646" transform="translate(1420.748 3070.606)"/>
    <path id="Trazado_378" data-name="Trazado 378" d="M176.291,73.941a2.878,2.878,0,1,1-2.878-2.878,2.878,2.878,0,0,1,2.878,2.878" transform="translate(1420.973 3046.236)"/>
    <path id="Trazado_379" data-name="Trazado 379" d="M196.7,143.377a2.878,2.878,0,1,1-2.878-2.878,2.878,2.878,0,0,1,2.878,2.878" transform="translate(1411.278 3013.244)"/>
  </g>
</svg>
