<svg xmlns="http://www.w3.org/2000/svg" width="153.068" height="151.277" viewBox="0 0 153.068 151.277">
  <g id="icono11" transform="translate(-1471.378 -1674.777)">
    <path id="Trazado_456" data-name="Trazado 456" d="M59.1,69.085C63.406,58.7,70.257,51.242,80.963,47.842a30.441,30.441,0,0,1,22.178,1.343A31.746,31.746,0,0,1,120.7,86.958c-4.872,16.9-19.429,24.648-40.353,21.575.794,3.8,1.951,7.624,2.344,11.522,1.97,19.527-13.448,37.488-33.032,38.379-6.554.3-13.269.636-19.691-.4C5.674,154.094-7.106,128.3,4.106,106.364,10.269,94.3,16.724,82.395,22.968,70.376c2.34-4.5,2.136-9.156.117-13.741a26.062,26.062,0,0,0-2.433-4.785c-1.947-2.706-1.139-5,1.064-6.735,2.118-1.671,4.641-2.827,7.474-4.5.037-.68.117-2.134.2-3.656,2.911,0,5.681.171,8.414-.071a7.029,7.029,0,0,0,4.071-1.563,62.476,62.476,0,0,1,27.3-15.976c1.036-.288,2.1-.483,3.454-.79l1.016,4.618A58.28,58.28,0,0,0,45.512,38.69c3.534,1.121,6.6,1.991,9.579,3.076a19.375,19.375,0,0,1,5.3,2.572c3.3,2.565,3.624,4.225,1.611,7.847-2.414,4.343-4.249,8.76-3.444,13.868.16,1.014.36,2.022.541,3.033M41.661,70.867c-3.785,0-7.575-.1-11.352.07a3.8,3.8,0,0,0-2.782,1.5c-6.7,12.551-13.656,24.988-19.791,37.815C-.841,128.185,10.2,149.487,29.79,153.006c5.616,1.009,11.505.716,17.266.662,23.464-.221,38.057-24.07,27.458-44.954-6.124-12.065-12.537-23.986-18.955-35.9a4.426,4.426,0,0,0-3.147-1.86c-3.57-.235-7.166-.087-10.751-.088m60.328,14.549c0-4.48.074-8.72-.089-12.951-.021-.555-1.242-1.513-1.921-1.525-6.479-.116-12.961-.126-19.439.011A2.756,2.756,0,0,0,78.5,72.684c-.191,3.668-.168,7.357.008,11.027a2.51,2.51,0,0,0,1.821,1.63c7.062.118,14.127.074,21.656.074M90.4,104.343a28.27,28.27,0,0,0,9.938-13.89h-19.9c1.018,4.945,5.179,10.771,9.965,13.89m9.674-38.566A24.883,24.883,0,0,0,90.028,51.926,28.608,28.608,0,0,0,80.1,65.777ZM34.842,41.157l-1.069,1.082c1.219,4.149,2.395,8.313,3.708,12.432a2.54,2.54,0,0,0,1.608,1.416c4.976,1.087,6.566.194,8.281-4.61a12.605,12.605,0,0,0,1.021-4.315c-.022-1-.794-2.624-1.577-2.872-3.928-1.243-7.97-2.124-11.973-3.132m72.252,29.708V85.14c9.086,1.248,10.825-.439,9.808-9.439-.546-4.835-.546-4.835-5.514-4.835h-4.294m-33.755.007a72.227,72.227,0,0,0-7.256.089,3.293,3.293,0,0,0-2.041,1.862c-1.428,3.336.272,6.113,1.817,8.932,2.249,4.1,3.031,4.48,7.48,3.23ZM29.4,65.707H53.436v-4.5H29.4Zm84.714,24.6c-2.769,0-4.841-.078-6.9.045a2.551,2.551,0,0,0-1.872.964c-2.042,3.945-3.948,7.961-5.918,12,6.26-2.351,11.028-6.489,14.69-13M99.423,52.952c1.97,4,3.86,7.887,5.8,11.742.233.463.745,1.091,1.151,1.109,2.386.105,4.778.052,7.672.052a27.353,27.353,0,0,0-14.626-12.9m-18.413.023a27.52,27.52,0,0,0-14.6,12.92c2.814,0,5,.093,7.163-.06a2.562,2.562,0,0,0,1.7-1.276c1.942-3.761,3.77-7.58,5.736-11.584M70.442,90.61c3.355,4.631,3.673,11.378,11.07,12.606-1.113-1.686-2.15-3.087-3-4.593a21.189,21.189,0,0,1-2.431-5.065c-.729-2.943-2.33-3.864-5.637-2.948M29.449,45.716c-1.729,1.325-4.37,2.6-4.23,3.384a16.231,16.231,0,0,0,3.132,6.578c.547.729,2.515.392,4.151.577L29.449,45.716M51.156,55.894c3.97,1.493,4.413-1.851,5.576-4.073,1.862-3.56,1.081-4.759-2.986-4.973l-2.59,9.046" transform="translate(1471.378 1667.321)" fill="#f9c931"/>
    <path id="Trazado_457" data-name="Trazado 457" d="M163.094,188.785c-2.5.165-4.511.843-5.776-2.255-.5-1.233-3.241-2.18-4.938-2.145a3.691,3.691,0,0,0-3.674,4.259,30.2,30.2,0,0,0,3.813,9.5c.637,1.01,3.474.632,5.524.919v4.553c-3.54-.237-7.172-.356-7.466,4.836h7.472v4.732H142.37l4.461-9.427h-7.772v-4.879h7.753a66.678,66.678,0,0,1-2.659-6.574c-1.148-4.029-.447-7.742,2.825-10.614A9.131,9.131,0,0,1,157,179.954c3.706,1.521,5.783,4.367,6.09,8.831" transform="translate(1415.523 1602.812)" fill="#f9c931"/>
    <path id="Trazado_458" data-name="Trazado 458" d="M140.52,9.563,145,9.84v4.569l-4.432.294v4.514L145,19.6v4.525l-4.051.41c1.721,4.127,5.026,4.757,8.849,4.768v4.389a11.006,11.006,0,0,1-12.378-5.325c-1.519-2.913-2.88-5.1-6.735-3.92V19.575l4.485-.3V14.756l-4.5-.359V9.781h4.7c2.38-6.824,6.911-10.349,14.445-9.7v4.1a62.805,62.805,0,0,0-6.683,2.338c-.938.442-1.493,1.7-2.606,3.046" transform="translate(1418.894 1674.777)" fill="#f9c931"/>
    <path id="Trazado_459" data-name="Trazado 459" d="M229.045,83.094l5.332,7.024,5.46-7,3.763,2.837-7.482,10.448,5.511.6v4.458l-4.553.349v4.513l4.495.324v4.54l-4.462.305c-.123,1.45-.244,2.886-.382,4.516H232.17c-.147-1.5-.289-2.943-.444-4.522l-4.448-.274v-4.543l4.4-.3v-4.533l-4.433-.367v-4.48l4.712-.408c-.9-4.412-4.819-6.773-6.567-10.712l3.652-2.773" transform="translate(1380.845 1641.401)" fill="#f9c931"/>
    <path id="Trazado_460" data-name="Trazado 460" d="M179.757,185.709c-.386-.842-.6-1.283-.792-1.735-.34-.814-.665-1.636-1.124-2.771a57.165,57.165,0,0,0,32.629-35.609l4.674,1.328c-5.988,18.321-17.678,31.043-35.388,38.788" transform="translate(1399.945 1616.297)" fill="#f9c931"/>
    <path id="Trazado_461" data-name="Trazado 461" d="M207.9,50.986l-3.388,1.758c-5.051-5.7-9.643-11.535-14.916-16.664-5.387-5.24-12.213-8.428-19.555-10.834.492-1.607.915-2.983,1.42-4.629,16.252,5.29,28.126,15.323,36.439,30.368" transform="translate(1403.078 1666.495)" fill="#f9c931"/>
    <path id="Trazado_462" data-name="Trazado 462" d="M48.866,135.261h9.54c.111-1.656.208-3.092.314-4.677h4.24c.123.157.357.32.341.452-.388,3.157.908,4.852,3.945,6.143a9.7,9.7,0,0,1,5.714,8.238,91.978,91.978,0,0,1,.063,9.29H68.692c-1.112-4.445,1.619-10.352-3.63-13.03-3.138-1.6-7.184-1.425-11.233-2.119,0,3.632-.233,6.4.059,9.119.365,3.4,3.138,5.721,6.739,6.144,8.864,1.042,12.645,5.264,12.666,14.154.007,3.27,0,6.542,0,10.166H63.707l-.449,4.813H58.765c-.1-1.478-.209-3.017-.316-4.556-7.9-3.674-10.784-6.841-9.242-19.543h4.258c1.021,4.461-1.714,10.457,3.772,13.138,3.091,1.511,7.044,1.258,10.856,1.838,0-3.728.3-6.709-.081-9.6-.409-3.121-3.214-5.161-6.6-5.5-8.539-.847-12.526-5.274-12.543-13.934-.007-3.37,0-6.741,0-10.54" transform="translate(1451.774 1622.326)" fill="#f9c931"/>
  </g>
</svg>
