<svg xmlns="http://www.w3.org/2000/svg" width="120" height="120.092" viewBox="0 0 120 120.092">
  <g id="icon4" transform="translate(-1502 -2631.999)">
    <path id="Trazado_364" data-name="Trazado 364" d="M60.017,153.548q-27.684,0-55.367,0c-4.287,0-5.565-1.844-4.019-5.757C2.267,143.649,4,139.543,5.5,135.355c.891-2.483,2.309-3.587,5.032-3.523,5.619.132,5.595.017,6.366-5.612q3.182-23.233,6.414-46.458c1.352-9.621,8.824-16.429,18.583-16.58q18.06-.28,36.128,0A18.745,18.745,0,0,1,96.662,79.712q3.52,25.08,6.881,50.181c.214,1.606.755,2.043,2.32,2.034,8.076-.049,6.83-.841,9.941,6.882q1.882,4.673,3.709,9.368c1.305,3.351-.046,5.362-3.66,5.364q-27.918.023-55.836.008m36.964-21.781a9.49,9.49,0,0,0,0-.992Q93.543,105.8,90.086,80.826c-.935-6.674-5.74-10.9-12.528-10.947q-17.6-.11-35.2,0C35.595,69.93,30.836,74.213,29.9,80.9q-2.774,19.859-5.488,39.726c-.505,3.677-.973,7.359-1.473,11.144Zm14.788,15.062c-.848-2.155-1.708-3.986-2.284-5.9-.556-1.851-1.514-2.443-3.5-2.437-25.483.078-50.967.051-76.45.051-5.394,0-10.788-.021-16.181.027-.7.007-1.835.17-2.036.6-1.134,2.438-2.046,4.98-3.1,7.66Z" transform="translate(1502 2598.541)" fill="#f9c931"/>
    <path id="Trazado_365" data-name="Trazado 365" d="M217.572,69.6c-.608-.537-2.011-1.2-2.325-2.212-.321-1.031.021-3.023.772-3.506a111.832,111.832,0,0,1,11.008-6.134c1.451-.716,2.94,0,3.8,1.461s.733,3.152-.635,4c-3.574,2.208-7.327,4.125-11.02,6.136a7.369,7.369,0,0,1-1.6.257" transform="translate(1387.829 2601.504)" fill="#f9c931"/>
    <path id="Trazado_366" data-name="Trazado 366" d="M8.865,57.011a23.35,23.35,0,0,1,2.493.926c2.957,1.575,5.911,3.158,8.828,4.805,2.17,1.226,2.8,3.072,1.77,4.845-.985,1.7-2.808,2.135-4.889,1.032-3.1-1.642-6.165-3.342-9.215-5.071-1.521-.862-2.389-2.282-1.591-3.9.536-1.09,1.78-1.833,2.605-2.632" transform="translate(1498.838 2601.744)" fill="#f9c931"/>
    <path id="Trazado_367" data-name="Trazado 367" d="M68.614,27.089c-.553.643-1.214,2.1-2.2,2.378-1.1.306-3.086-.041-3.672-.844a89.5,89.5,0,0,1-6.033-9.749,2.962,2.962,0,0,1,1.187-4.1c1.418-.916,3.109-.943,4.033.408,2.284,3.343,4.279,6.883,6.369,10.357a7.073,7.073,0,0,1,.32,1.547" transform="translate(1472.118 2624.504)" fill="#f9c931"/>
    <path id="Trazado_368" data-name="Trazado 368" d="M185.627,17.276a9.863,9.863,0,0,1-.538,2.155c-1.868,3.152-3.716,6.322-5.725,9.384a3.266,3.266,0,0,1-5.657-3.225,91.754,91.754,0,0,1,6.026-9.73,3.964,3.964,0,0,1,3.478-.9c1.017.269,1.746,1.628,2.416,2.318" transform="translate(1410.031 2624.109)" fill="#f9c931"/>
    <path id="Trazado_369" data-name="Trazado 369" d="M120.76,8.369c0-1.712-.076-3.43.02-5.136A3.085,3.085,0,0,1,124.05,0a3.038,3.038,0,0,1,3.293,3.2q.151,5.25-.007,10.506a3.129,3.129,0,0,1-3.368,3.127,3.089,3.089,0,0,1-3.171-3.094c-.12-1.782-.026-3.579-.026-5.369h-.011" transform="translate(1437.927 2632)" fill="#f9c931"/>
    <path id="Trazado_370" data-name="Trazado 370" d="M125.217,130.778h-6.853c-.63-9-1.254-17.926-1.895-27.069h10.655c-.636,9.03-1.268,17.994-1.908,27.069" transform="translate(1440.188 2576.96)" fill="#f9c931"/>
    <path id="Trazado_371" data-name="Trazado 371" d="M122.238,169.775a4.942,4.942,0,0,1,4.95,4.888,4.962,4.962,0,1,1-4.95-4.888" transform="translate(1439.766 2541.898)" fill="#f9c931"/>
  </g>
</svg>
