<svg xmlns="http://www.w3.org/2000/svg" xmlns:xlink="http://www.w3.org/1999/xlink" width="294.705" height="348.507" viewBox="0 0 294.705 348.507"><defs><clipPath id="a"><rect width="294.705" height="348.507" fill="none"/></clipPath><clipPath id="c"><rect width="112.757" height="25.43" fill="none"/></clipPath></defs><g clip-path="url(#a)"><g clip-path="url(#a)"><path d="M214.549,175.892c-1.4.466-49.976,8.85-49.976,8.85l-.173,1.333-46.115-10.183s-9.068,14.225-10.466,38.91c-.806,14.247,5.555,45.511,11.611,72.517h81.128c6.552-17.875,13.624-38.088,16.683-52.44,6.055-28.41-2.692-58.987-2.692-58.987" transform="translate(37.483 61.188)" fill="#1c262a"/><path d="M102.553,160.817a3.33,3.33,0,0,1,1.573-2.612c13.979-9.252,24.512-29.756,25.574-47.115.028-.988.059-1.991.092-3v-.012c.807-24.82,4.463-54.922,7.744-62.946,6.06-14.821,26.585-16.212,26.585-16.212,27.249-1.95,32.114,18.987,34.865,38.057,1.71,11.859,8.3,54.223,8.3,54.223l-5.007,1.937a61.648,61.648,0,0,1-36.456,38.127c-5.023,1.891-9.276,2.651-11.271,1.024a68.55,68.55,0,0,1-28.675,17.406,35.631,35.631,0,0,1-13.592,1.8c-2.975-.278-6.11-1.26-7.884-3.665a6.834,6.834,0,0,1,5.861-10.881c-1.032-3.349-7.827-2.363-7.711-6.135" transform="translate(35.675 10.016)" fill="#1c262a"/><path d="M151,35.023,152.7,33.4l18.421,7.424a5.141,5.141,0,0,1,4.856,4.978l-.162,60.023a16.826,16.826,0,0,1-3.25,10.84l-2.588,3.415c-5.9,7.788-18.035,7.148-22.7-1.434a6.532,6.532,0,0,1-.651-1.551,12.194,12.194,0,0,1-.274-1.342c-.549-4.829-.58-9.016-.58-9.016-.329-5.3-.437-7.478-.438-7.428,0,0-11.283-1.3-14.333-15.781-1.516-7.2-1.231-17.113-.8-26.866.59-13.5,9.953-21.651,20.8-21.637" transform="translate(45.173 11.619)" fill="#fbb08b"/><path d="M148.344,57.118a1.874,1.874,0,0,0,1.9,1.8,1.792,1.792,0,0,0,1.845-1.785,1.875,1.875,0,0,0-1.9-1.8,1.794,1.794,0,0,0-1.848,1.786" transform="translate(51.604 19.248)" fill="#1c262a"/><path d="M134.216,57.5a1.874,1.874,0,0,0,1.9,1.8,1.792,1.792,0,0,0,1.845-1.785,1.875,1.875,0,0,0-1.9-1.8,1.794,1.794,0,0,0-1.848,1.786" transform="translate(46.69 19.381)" fill="#1c262a"/><path d="M131.548,54.076c.244.233,1.611-.888,3.626-.984,2.011-.124,3.542.838,3.748.581.1-.116-.158-.545-.824-.981a5.151,5.151,0,0,0-3.017-.766,4.949,4.949,0,0,0-2.871,1.088c-.594.507-.783.958-.663,1.062" transform="translate(45.75 18.061)" fill="#1c262a"/><path d="M146.721,54.336c.268.206,1.512-1.05,3.506-1.351,1.988-.332,3.61.469,3.789.191.089-.124-.21-.524-.921-.89a5.143,5.143,0,0,0-3.079-.454,4.957,4.957,0,0,0-2.744,1.378c-.539.565-.681,1.035-.551,1.125" transform="translate(51.024 18.009)" fill="#1c262a"/><path d="M142.83,68.9a13.38,13.38,0,0,0-3.3-.426c-.516-.028-1.01-.105-1.113-.453a2.617,2.617,0,0,1,.267-1.542q.633-1.9,1.325-3.994c1.833-5.684,3.134-10.348,2.9-10.419s-1.9,4.478-3.735,10.162q-.659,2.1-1.26,4.014a2.991,2.991,0,0,0-.166,2.033,1.3,1.3,0,0,0,.884.71,3.528,3.528,0,0,0,.88.077,13.109,13.109,0,0,0,3.317-.162" transform="translate(47.874 18.112)" fill="#1c262a"/><path d="M141.341,83.9a37.18,37.18,0,0,0,19.291-6.2s-4.409,10.354-19.09,9.72Z" transform="translate(49.168 27.029)" fill="#f58459"/><path d="M142.346,68.518a3.637,3.637,0,0,1,3.188-1.512,3.322,3.322,0,0,1,2.349,1.113,2.1,2.1,0,0,1,.28,2.394,2.439,2.439,0,0,1-2.608.8A7.645,7.645,0,0,1,142.9,69.9a2.223,2.223,0,0,1-.6-.566.675.675,0,0,1-.035-.751" transform="translate(49.455 23.307)" fill="#f58459"/><path d="M147.525,65.369c-.329,0-.222,2.185-2.018,3.831s-4.134,1.522-4.135,1.829c-.024.139.54.4,1.526.376a5.453,5.453,0,0,0,3.459-1.4,4.748,4.748,0,0,0,1.551-3.205c.038-.918-.233-1.448-.383-1.427" transform="translate(49.179 22.74)" fill="#1c262a"/><path d="M145.283,48.41c.279.512,2.232-.05,4.614-.127,2.382-.125,4.372.271,4.608-.263.1-.255-.3-.714-1.147-1.121a8.019,8.019,0,0,0-7.026.3c-.806.477-1.173.97-1.049,1.214" transform="translate(50.531 16.082)" fill="#1c262a"/><path d="M131.77,47.683c.377.439,1.741-.105,3.41-.21,1.663-.164,3.1.152,3.4-.342.132-.24-.115-.687-.753-1.089a4.948,4.948,0,0,0-5.486.445c-.566.5-.736.981-.569,1.2" transform="translate(45.817 15.798)" fill="#1c262a"/><path d="M170.574,71.671s-10.319,3.212-16.16-22.257c-2-8.709-10.07-15.761-10.07-15.761l3.274-.985s20.35,5.732,20.693,5.99,5.134,10.524,5.134,10.524Z" transform="translate(50.213 11.364)" fill="#1c262a"/><path d="M161.917,61.978c-.051-1.088,1.077-3.713,2.142-3.934,2.845-.592,8.024-.62,8.438,6.66.565,9.95-9.543,8.465-9.577,8.18-.026-.222-.824-7.15-1-10.906" transform="translate(56.326 20.109)" fill="#fbb08b"/><path d="M164.76,68.127c.042-.034.181.112.481.229a1.734,1.734,0,0,0,1.3-.047c1.03-.445,1.82-2.165,1.767-3.96a5.716,5.716,0,0,0-.627-2.456,2,2,0,0,0-1.379-1.256.885.885,0,0,0-1,.534c-.119.286-.043.481-.1.5-.026.027-.222-.154-.166-.569a1.105,1.105,0,0,1,.357-.647,1.308,1.308,0,0,1,.944-.307,2.438,2.438,0,0,1,1.9,1.44,5.906,5.906,0,0,1,.759,2.74c.05,2.008-.869,3.943-2.285,4.441a1.868,1.868,0,0,1-1.6-.174c-.322-.228-.387-.447-.353-.468" transform="translate(57.312 20.923)" fill="#f58459"/><path d="M163.429,66.3a14.757,14.757,0,0,1-1.491-.3,9.009,9.009,0,0,1-3.544-2.057,12.336,12.336,0,0,1-1.848-2.165,16.586,16.586,0,0,1-1.5-2.909,62.169,62.169,0,0,1-2.143-7.237c-.7-2.595-1.457-5.046-2.289-7.226a41.612,41.612,0,0,0-2.593-5.622,29.918,29.918,0,0,0-2.279-3.5c-.294-.395-.55-.681-.713-.883a2.281,2.281,0,0,0-.266-.294,2.183,2.183,0,0,0,.224.328c.15.212.392.507.671.91a34.075,34.075,0,0,1,2.2,3.526,43.467,43.467,0,0,1,2.529,5.618c.815,2.174,1.565,4.619,2.262,7.208a59.618,59.618,0,0,0,2.174,7.261,16.579,16.579,0,0,0,1.547,2.938,12.267,12.267,0,0,0,1.9,2.181,8.818,8.818,0,0,0,3.642,2.018,5.538,5.538,0,0,0,1.518.2" transform="translate(50.358 11.866)" fill="#1c262a"/><path d="M175.838,109.676a2.864,2.864,0,0,0,.108-.481c.062-.35.146-.818.251-1.414.212-1.278.514-3.1.895-5.4l-.24-.035c-.05.361-.106.762-.163,1.175l.011-.036c-.063.133-.136.288-.209.446l.249.092A95.817,95.817,0,0,0,179.931,88a96.988,96.988,0,0,0,.608-10.362,47.433,47.433,0,0,0-.984-11.36,17.917,17.917,0,0,0-1.81-4.517,24.672,24.672,0,0,0-2.751-3.832c-2.024-2.337-4.2-4.348-6.195-6.344L158.116,41.074l-7.23-7.057q-1.264-1.213-1.983-1.9l-.523-.487a.948.948,0,0,0-.19-.155,1.036,1.036,0,0,0,.158.187l.491.519c.464.473,1.107,1.13,1.922,1.964l7.129,7.16,10.616,10.581c1.983,2,4.158,4.025,6.15,6.336a19.635,19.635,0,0,1,4.46,8.173,47.485,47.485,0,0,1,.983,11.244,99.831,99.831,0,0,1-3.615,26.31l.249.092.2-.449.008-.019,0-.019c.051-.414.1-.815.147-1.178l-.241-.034c-.334,2.314-.6,4.138-.782,5.42-.08.6-.143,1.072-.189,1.425a2.843,2.843,0,0,0-.043.491" transform="translate(51.551 10.948)" fill="#344952"/><path d="M158.746,114.658s-8.807-7.115-23.5-11.326c-7.106-2.035-42.017-28.4-42.017-28.4l-28.2-51.188L52.914,28.932s8.334,48.285,25.662,64.884c17.158,16.436,54.935,48.446,54.935,48.446Z" transform="translate(18.407 8.259)" fill="#fbb08b"/><path d="M179.008,197.116a42.83,42.83,0,0,1-4.681.752c-2.89.43-6.867,1.123-11.2,2.159s-8.191,2.228-10.964,3.155a43.159,43.159,0,0,1-4.513,1.453,4.5,4.5,0,0,1,1.132-.6c.745-.345,1.843-.8,3.213-1.325a91.32,91.32,0,0,1,22.267-5.34c1.46-.154,2.645-.245,3.465-.276a4.493,4.493,0,0,1,1.279.019" transform="translate(51.363 68.556)" fill="#344952"/><path d="M148.716,94.238s-11.736-4.491-21.176-8.617c-10.6-4.631-17.613-8.439-17.613-8.439-1.274.737-19.008,28.569-19.008,28.569L133,137.162l17.01-41.575Z" transform="translate(31.628 26.849)" fill="#ee594b"/><path d="M231.035,162.656a17.35,17.35,0,0,0,.439-14.4c-3.2-8.269-39.83-50.17-39.83-50.17s-14.4,6.75-13.638,19.884l7.863,12.52,21.6,24.859Z" transform="translate(61.913 34.12)" fill="#fbb08b"/><path d="M184.946,177.014l22.04-38.989s21.16,10.362,21.625,10.737-22.156,27.666-37.358,38.924l-5.466-2.828Z" transform="translate(64.337 48.015)" fill="#fbb08b"/><path d="M182.76,91.859l-9.222-3.108-31.568.921-5.249.969s-1.737,29.1-1.476,29.629,12.375,10.511,12.886,11.036,25.537-7.884,25.537-7.884l16.5-29.607Z" transform="translate(47.038 30.874)" fill="#fbb08b"/><path d="M184.106,88.751c1.314,0,23.109,3.688,29.056,8.617,6.3,5.223,21.8,26.786,21.8,26.786L205.957,141.73l-4.643,31.752s11.869,28.441,13.446,40.5c0,0-66.848,52.009-102.737-1.621,0,0,11.352-19.988,12.944-34.559.2-1.814-7.11-27.891-7.074-34.8C117.954,131.9,121.2,109.9,121.2,109.9l11.576-19.192,18.946-1.084,9.738,18.065Z" transform="translate(38.969 30.874)" fill="#ee594b"/><path d="M124.015,102.8c.123.055-.867,2.278-2.139,5.983a95.457,95.457,0,0,0-3.688,14.823,78.821,78.821,0,0,0-1.088,15.22c.147,3.912.716,6.281.582,6.311a7.331,7.331,0,0,1-.481-1.647,37.426,37.426,0,0,1-.639-4.633,67.926,67.926,0,0,1,.872-15.374,79.683,79.683,0,0,1,3.934-14.882c.72-1.837,1.329-3.312,1.829-4.294a7.322,7.322,0,0,1,.817-1.507" transform="translate(40.506 35.761)" fill="#1c262a"/><path d="M166.394,160.649s9.269-2.5,10.2-1.975,7.854,4.176,7.854,4.176a35.3,35.3,0,0,0,3.267,3.54s2.376,2.255,4.015,2.329a7.266,7.266,0,0,0,2.605-.279l5.472,11.209s-2.866,3.7-4.878,3.662-13.185-4.732-13.185-4.732l-2.7-.589s-10.135,1.465-10.965-1.582l-.093-.869,9.957-1.948,3.789.22-6.712-1.733s-9.489.462-10.384.307-2.035-1.413-1.743-2.2l1.958-.461s-2.3-1.251-2.371-2.624l8.773-2.376s-5.66-2.108-4.867-4.076" transform="translate(56.525 55.173)" fill="#fbb08b"/><path d="M163.474,167.639a3.6,3.6,0,0,0,.806-.2c.509-.15,1.252-.353,2.173-.592,1.841-.479,4.4-1.085,7.237-1.713a8.891,8.891,0,0,1,1.03-.2,3.186,3.186,0,0,1,.976.067c.631.174,1.274.395,1.863.592,1.189.406,2.244.811,3.115,1.187s1.553.724,2.015.983a4.688,4.688,0,0,0,.727.4,2.454,2.454,0,0,0-.642-.534,14.946,14.946,0,0,0-1.979-1.113c-.865-.414-1.919-.852-3.11-1.28-.6-.213-1.209-.431-1.9-.627a3.5,3.5,0,0,0-1.1-.084,9.181,9.181,0,0,0-1.084.2c-2.843.631-5.4,1.283-7.227,1.837-.914.275-1.648.523-2.146.721a2.863,2.863,0,0,0-.753.354" transform="translate(56.868 57.228)" fill="#f58459"/><path d="M168.835,163.867c.034.062.7-.322,1.87-.681a10.512,10.512,0,0,1,9.074,1.34c1.015.681,1.542,1.241,1.593,1.192a5.041,5.041,0,0,0-1.423-1.43,9.836,9.836,0,0,0-9.338-1.379,5.01,5.01,0,0,0-1.775.958" transform="translate(58.732 56.46)" fill="#f58459"/><path d="M183.929,107.162a7.085,7.085,0,0,1,.061,1.607c-.005,1.034-.044,2.527-.119,4.371-.146,3.689-.449,8.781-.945,14.394s-1.1,10.681-1.6,14.337c-.251,1.828-.474,3.3-.651,4.323a7.146,7.146,0,0,1-.342,1.572,7.044,7.044,0,0,1,.071-1.607c.116-1.173.26-2.626.43-4.347.379-3.669.9-8.736,1.394-14.34s.876-10.682,1.15-14.36c.135-1.724.248-3.18.341-4.355a7.079,7.079,0,0,1,.212-1.595" transform="translate(62.724 37.278)" fill="#1c262a"/><path d="M68.359,32.293l.05-5.681s.669-5.877-1.13-10.544S57.691,0,57.691,0c-2.949-.081-3.178,3.243-1.868,8.74,1.693,7.1-10.9,17.427-10.9,18.064,0,.844,10.953,12,10.953,12l12.471-5.348Z" transform="translate(15.628 0)" fill="#fbb08b"/><path d="M58.021,9.475c.206.1-1.63,3.079-1.971,7.242-.4,4.16.873,7.416.652,7.477a5.191,5.191,0,0,1-.892-2.084,15.6,15.6,0,0,1,.964-10.743,5.182,5.182,0,0,1,1.247-1.892" transform="translate(19.228 3.295)" fill="#f58459"/><path d="M45.528,126.033a5.916,5.916,0,0,1-.526-.91q-.522-1-1.386-2.67c-1.209-2.4-2.9-5.755-4.976-9.874l-16.181-32.7-.009-.018h.629C16.771,92.6,11.062,104.126,6.892,112.548c-2.077,4.118-3.77,7.473-4.978,9.869-.578,1.112-1.038,2-1.386,2.667a6.012,6.012,0,0,1-.526.91,5.86,5.86,0,0,1,.4-.972Q.877,124,1.669,122.3c1.159-2.421,2.783-5.809,4.777-9.968,4.124-8.446,9.768-20,16-32.778l.314-.643.317.643.008.019c6.233,12.775,11.875,24.338,16,32.788,1.994,4.162,3.616,7.552,4.777,9.974.528,1.136.949,2.043,1.267,2.728a5.862,5.862,0,0,1,.4.972" transform="translate(0 27.45)" fill="#1c262a"/><path d="M10.815,131.06c-.193-.031,1.487-11.6,3.748-25.833S18.816,79.472,19.007,79.5,17.519,91.1,15.256,105.338,11,131.091,10.815,131.06" transform="translate(3.757 27.657)" fill="#1c262a"/><path d="M119.549,73.687c-2.294-.97-3.278,3.518-1,4.482.024.011.035.012.039.011.026.022.057.049.1.084a2.843,2.843,0,0,1,.65.593c.523.774.457,1.572-.237,1.919-1.632.815-3.964.311-5.594-.306-2.853-1.081-6.588-4.108-9.546-6.1-9.2-6.187-18.7-13.272-29.436-13.918a17.066,17.066,0,0,0-7.549.911,15.974,15.974,0,0,0-5.734-.949c-5.72-.119-11.377,1.856-16.586,4.643-8.173,4.372-15.552,10.775-23.7,15.17a10.5,10.5,0,0,1-1.74.6A8.369,8.369,0,0,1,15.55,81c-.908-.21-1.632-.621-1.1-1.861a2.172,2.172,0,0,1,.632-.737,1.791,1.791,0,0,1,.359-.244c2.239-.988,1.26-5.436-1.027-4.468-4.561,1.93-5.358,9.988-.217,11.693,4.111,1.364,8.008-.625,11.569-2.919,4.789-3.084,9.485-6.39,14.277-9.47,5.373-3.453,10.922-6.621,16.989-7.624,2.67-.442,5.843-.674,8.544.319a1.959,1.959,0,0,0,2.8.008,16,16,0,0,1,6.533-.565c6.069.464,11.774,3.32,17.141,6.677,4.926,3.08,9.734,6.441,14.607,9.652,3.568,2.351,6.928,4.585,11.121,4.274,2.936-.218,5.724-2.029,5.631-6.125a6.581,6.581,0,0,0-3.866-5.921" transform="translate(3.708 21.01)" fill="#ee594b"/><g transform="translate(14.368 81.406)" opacity="0.3"><g clip-path="url(#c)"><path d="M119.549,73.687c-2.294-.97-3.278,3.518-1,4.482.024.011.035.012.039.011.026.022.057.049.1.084a2.843,2.843,0,0,1,.65.593c.523.774.457,1.572-.237,1.919-1.632.815-3.964.311-5.594-.306-2.853-1.081-6.588-4.108-9.546-6.1-9.2-6.187-18.7-13.272-29.436-13.918a17.066,17.066,0,0,0-7.549.911,15.974,15.974,0,0,0-5.734-.949c-5.72-.119-11.377,1.856-16.586,4.643-8.173,4.372-15.552,10.775-23.7,15.17a10.5,10.5,0,0,1-1.74.6A8.369,8.369,0,0,1,15.55,81c-.908-.21-1.632-.621-1.1-1.861a2.172,2.172,0,0,1,.632-.737,1.791,1.791,0,0,1,.359-.244c2.239-.988,1.26-5.436-1.027-4.468-4.561,1.93-5.358,9.988-.217,11.693,4.111,1.364,8.008-.625,11.569-2.919,4.789-3.084,9.485-6.39,14.277-9.47,5.373-3.453,10.922-6.621,16.989-7.624,2.67-.442,5.843-.674,8.544.319a1.959,1.959,0,0,0,2.8.008,16,16,0,0,1,6.533-.565c6.069.464,11.774,3.32,17.141,6.677,4.926,3.08,9.734,6.441,14.607,9.652,3.568,2.351,6.928,4.585,11.121,4.274,2.936-.218,5.724-2.029,5.631-6.125a6.581,6.581,0,0,0-3.866-5.921" transform="translate(-10.66 -60.396)" fill="#040504"/></g></g><path d="M0,113.842l11.031,11.031H33.9l11.631-10.992Z" transform="translate(0.001 39.602)" fill="#ee594b"/><path d="M40.136,116.9c0,.194-8.32.35-18.583.35s-18.584-.156-18.584-.35,8.319-.35,18.584-.35,18.583.156,18.583.35" transform="translate(1.032 40.544)" fill="#1c262a"/><path d="M17.249,81.686h-.261a.752.752,0,0,1-.752-.752V76.318a.751.751,0,0,1,.752-.751h.261a.751.751,0,0,1,.752.751v4.616a.752.752,0,0,1-.752.752" transform="translate(5.648 26.288)" fill="#ee594b"/><path d="M117.865,126.2a6.241,6.241,0,0,1-.538-.933q-.53-1.025-1.417-2.736c-1.237-2.454-2.969-5.894-5.1-10.118-4.271-8.632-10.117-20.449-16.576-33.5l-.009-.019h.629L78.274,112.38c-2.127,4.222-3.86,7.659-5.1,10.112q-.886,1.71-1.417,2.734a6.24,6.24,0,0,1-.538.933,6.177,6.177,0,0,1,.41-.995q.487-1.047,1.3-2.791c1.187-2.477,2.852-5.948,4.9-10.211l16.4-33.579.314-.643.315.643.009.019c6.388,13.089,12.169,24.938,16.391,33.592,2.043,4.266,3.708,7.739,4.9,10.218l1.3,2.794a6.174,6.174,0,0,1,.41.995" transform="translate(24.775 27.112)" fill="#1c262a"/><path d="M82.3,131.354c-.191-.031,1.533-11.881,3.851-26.465S90.5,78.5,90.693,78.531,89.161,90.41,86.842,105,82.49,131.384,82.3,131.354" transform="translate(28.624 27.319)" fill="#1c262a"/><path d="M71.221,113.712l11.3,11.3h23.425l11.917-11.261Z" transform="translate(24.776 39.557)" fill="#ee594b"/><path d="M112.339,116.841c0,.194-8.525.35-19.039.35s-19.04-.156-19.04-.35,8.523-.35,19.04-.35,19.039.156,19.039.35" transform="translate(25.833 40.524)" fill="#1c262a"/><path d="M88.91,80.77h-.3a.752.752,0,0,1-.752-.752V75.25a.752.752,0,0,1,.752-.752h.3a.752.752,0,0,1,.752.752v4.767a.752.752,0,0,1-.752.752" transform="translate(30.561 25.916)" fill="#ee594b"/><path d="M60.44,78.413l-5.805,8-6.441-8,2.184-14.544.2-37.666,5.913.093.741,37.216Z" transform="translate(16.765 9.115)" fill="#ee594b"/><path d="M60.4,52.985a6.351,6.351,0,1,1-6.35-6.458,6.405,6.405,0,0,1,6.35,6.458" transform="translate(16.592 16.185)" fill="#ee594b"/><path d="M53.639,31.174a8,8,0,1,1,8-8,8.008,8.008,0,0,1-8,8m0-14.649a6.65,6.65,0,1,0,6.65,6.65,6.658,6.658,0,0,0-6.65-6.65" transform="translate(15.877 5.28)" fill="#ee594b"/><path d="M47.273,24.519s3.359,3.666,5.606,3.111c2.02-.5,2.578-2.464,1.763-4.267,0,0,1.764,2.12,3.526.115s.27-4.58.27-4.58,1.275.147,1.776-2.215-1.595-5-1.595-5a5.386,5.386,0,0,0,1.136-5.236C58.739,3.41,54.836.637,53.4.485c-.244-.027-3.076-.846-3.705,1.693s-.173,3.411-.173,3.411-2.585.729-1.576,5.675c0,0-3.25,1.216-1.772,5.794,0,0-2.542,4.561-2.162,6.762A8.673,8.673,0,0,0,45.93,27.7" transform="translate(15.297 0.118)" fill="#fbb08b"/><path d="M45.975,27.794c-.018.016-.226-.17-.553-.588a8.393,8.393,0,0,1-1.156-2.011,5.59,5.59,0,0,1-.416-1.655,6.742,6.742,0,0,1,.283-2.008,22.985,22.985,0,0,1,1.86-4.507l-.02.2a6.556,6.556,0,0,1-.322-3.263,3.913,3.913,0,0,1,2.233-2.9l-.193.346a9.517,9.517,0,0,1-.182-3.173,3.441,3.441,0,0,1,1.965-2.886l-.2.478a3.967,3.967,0,0,1-.182-1.768,10.971,10.971,0,0,1,.267-1.673,3.007,3.007,0,0,1,.869-1.64A2.841,2.841,0,0,1,52.008.081a7.121,7.121,0,0,1,1.833.212A7.035,7.035,0,0,1,55.52,1.1a13.636,13.636,0,0,1,2.81,2.388A7.518,7.518,0,0,1,60.4,7.7a5.781,5.781,0,0,1-1.491,4.312l.024-.461a8.235,8.235,0,0,1,1.719,4.16,4.629,4.629,0,0,1-.411,2.188,2.045,2.045,0,0,1-1.8,1.407l.313-.478a5.227,5.227,0,0,1,.616,2.5,3.7,3.7,0,0,1-.845,2.312A2.5,2.5,0,0,1,56.422,24.7a3.027,3.027,0,0,1-1.937-1.077l.438-.275a3.751,3.751,0,0,1,.182,2.756,2.837,2.837,0,0,1-1.778,1.71,2.961,2.961,0,0,1-2.13-.12,7.653,7.653,0,0,1-1.533-.863,13.809,13.809,0,0,1-1.813-1.577,2.774,2.774,0,0,1-.535-.643c.047-.051.815.825,2.511,1.981a7.627,7.627,0,0,0,1.493.771,2.59,2.59,0,0,0,1.867.061,2.4,2.4,0,0,0,1.473-1.476,3.27,3.27,0,0,0-.214-2.386l-.694-1.495,1.132,1.22a2.514,2.514,0,0,0,1.577.857,1.943,1.943,0,0,0,1.611-.877,3.726,3.726,0,0,0,.131-4.118l-.264-.489.578.011c.412.007.906-.472,1.127-1.039a3.992,3.992,0,0,0,.34-1.876,7.618,7.618,0,0,0-1.595-3.769l-.175-.237.2-.224a5.1,5.1,0,0,0,1.279-3.762,6.844,6.844,0,0,0-1.9-3.8,13.1,13.1,0,0,0-2.657-2.262A6.364,6.364,0,0,0,53.651.981,6.456,6.456,0,0,0,52.043.788a2.142,2.142,0,0,0-1.355.489,2.315,2.315,0,0,0-.662,1.274,10.593,10.593,0,0,0-.26,1.568,3.754,3.754,0,0,0,.1,1.406l.129.35L49.657,6a2.867,2.867,0,0,0-1.512,2.336,9.018,9.018,0,0,0,.144,2.955l.046.244-.237.1A3.361,3.361,0,0,0,46.2,14.075a6.094,6.094,0,0,0,.257,2.995l.031.106-.051.1c-1.635,3.084-2.857,5.966-1.911,7.823a13.219,13.219,0,0,0,1.445,2.7" transform="translate(15.252 0.026)" fill="#f58459"/><path d="M54.219,19.33c-.1.044-.411-.558-1-1.437a17.634,17.634,0,0,0-2.787-3.053A8.2,8.2,0,0,0,48.664,13.5a7.1,7.1,0,0,0-1.7-.577c-.993-.245-1.429.447-1.515.341-.032-.026.016-.2.247-.442a1.6,1.6,0,0,1,1.336-.4,6.17,6.17,0,0,1,1.93.488,7.5,7.5,0,0,1,1.968,1.41,12.425,12.425,0,0,1,2.731,3.314c.5.993.644,1.663.562,1.7" transform="translate(15.806 4.316)" fill="#f58459"/><path d="M57.462,16.1c-.09.057-.549-.55-1.382-1.434s-2.065-2.025-3.46-3.285A9.649,9.649,0,0,0,48.7,8.971c-1.146-.325-1.918-.307-1.921-.425a3.308,3.308,0,0,1,2.035-.071,8.625,8.625,0,0,1,4.293,2.375,26.862,26.862,0,0,1,3.362,3.487c.759,1,1.073,1.714.995,1.762" transform="translate(16.272 2.916)" fill="#f58459"/><path d="M57.791,11.347c-.166.084-1.626-2.332-4.2-4.674a7.438,7.438,0,0,0-3.721-2.016c-1.086-.206-1.8-.1-1.818-.214-.022-.075.679-.376,1.887-.288a6.877,6.877,0,0,1,4.147,2,18.088,18.088,0,0,1,2.932,3.471c.619.995.86,1.681.778,1.724" transform="translate(16.714 1.439)" fill="#f58459"/><path d="M140.641,276.341l4.705-37.372c1.2-9.713,2.173-17.582,2.848-23.055.321-2.7.57-4.808.744-6.272.075-.7.135-1.239.178-1.634.036-.368.039-.559.039-.559s-.045.186-.1.551c-.058.394-.137.933-.239,1.626-.2,1.46-.489,3.562-.86,6.258-.722,5.466-1.763,13.326-3.045,23.028-1.365,10.544-3.037,23.267-4.866,37.429Z" transform="translate(48.717 72.165)" fill="#344952"/></g></g></svg>