<svg xmlns="http://www.w3.org/2000/svg" width="148.07" height="148.241" viewBox="0 0 148.07 148.241">
  <path id="tabla" d="M148.06,58.874a4.9,4.9,0,0,0-2.663-5c-9.932-6-19.736-12.208-29.71-18.131a3.936,3.936,0,0,1-2.22-4.1c.105-4.521.068-9.046.022-13.569-.052-5.038-3.023-7.968-8.116-8.005-5.346-.039-10.693-.1-16.036.032a5.615,5.615,0,0,1-4.881-2.182c-1.28-1.433-3.572-2.178-5.556-2.7a17.95,17.95,0,0,0-5.219-.077,4.551,4.551,0,0,1-3.575-1.616A11.781,11.781,0,0,0,63.873.337,79.23,79.23,0,0,0,49.4.325a9.7,9.7,0,0,0-5.751,2.887,4.917,4.917,0,0,1-4.367,1.931,12.633,12.633,0,0,0-4.6.07c-2.138.7-4.474,1.583-6,3.113a4.754,4.754,0,0,1-3.825,1.755c-5.344-.067-10.691-.034-16.036-.022C2.715,10.074.006,12.778.006,18.912Q0,79.207.006,139.5c0,5.924,2.772,8.729,8.636,8.73q48.111.015,96.222,0c5.862,0,8.624-2.808,8.632-8.735.015-10.072,0-20.143,0-30.313,22.505-9.455,33.449-26.489,34.56-50.31M86.483,15c6.56,0,13.006-.11,19.44.124a3.774,3.774,0,0,1,2.52,2.676,160.6,160.6,0,0,1-.059,18.172c-.115,1.543-2.509,2.916-3.856,4.367l-.9-.551c0-5.184.009-10.367,0-15.551-.01-3.866-.429-4.3-4.21-4.309-4.2-.015-8.4,0-12.934,0ZM32.241,12.467c.067-.872,1.8-2.169,2.888-2.3a59.562,59.562,0,0,1,8.3-.1A3.218,3.218,0,0,0,47.012,7.5a4.113,4.113,0,0,1,2.969-2.27,121.112,121.112,0,0,1,13.534,0,4.113,4.113,0,0,1,2.972,2.267,3.214,3.214,0,0,0,3.581,2.569c2.77-.052,5.541-.008,8.312-.007,2.01,0,3.041.99,3.043,3.015,0,3.784,0,7.568,0,11.681H32.1c0-4.165-.173-8.243.137-12.283m.19,17.324q24.517,0,49.034,0c4.53,0,4.651-.117,5.053-4.74H98.694c0,5.8.277,11.547-.187,17.232-.122,1.483-2.552,2.776-3.922,4.156l-.3-.828a30.744,30.744,0,0,0-5.384-.963c-21.484-.067-42.968-.044-64.453-.042-.822,0-1.836-.27-2.421.11A4.448,4.448,0,0,0,19.935,47.2c-.087.663,1.137,1.758,2.009,2.206.738.38,1.811.123,2.735.123q29.759,0,59.518,0h4.028c-4.38,3.537-8.37,5.272-13.5,5.057-9.646-.4-19.321-.174-28.982-.042A4.865,4.865,0,0,0,42.221,56.2c-1.066,1.584.686,3.186,3.421,3.192q14.8.033,29.605.01h3.611c.146,1.646.276,3.115.437,4.94H73.566q-13.878,0-27.755-.009c-1.866,0-3.793.11-3.761,2.508s1.987,2.442,3.834,2.439c11.3-.019,22.6-.009,34.1-.009.374,1.58.719,3.039,1.169,4.942H77.648q-15.881,0-31.763-.008c-1.844,0-3.8.039-3.835,2.436s1.892,2.515,3.76,2.512q16.653-.031,33.306-.009c4.343,0,4.343,0,5.446,4.94q-18.708,0-37.324,0c-.925,0-2.031-.307-2.732.093A12.8,12.8,0,0,0,41.989,86.7c.823.765,1.564,2.046,2.486,2.193a41.416,41.416,0,0,0,6.46.121c10.691,0,21.386.163,32.07-.085,3.824-.089,6.635.642,7.939,5.027h-3q-20.662,0-41.324,0a6.444,6.444,0,0,0-2.73.165c-.791.405-1.818,1.443-1.765,2.13A4.039,4.039,0,0,0,43.9,98.721c.567.4,1.591.16,2.412.161,14.391.006,28.783.047,43.174-.056,1.61-.012,3.213-.851,5.372-1.463,3.049,1.585,4.1,4.687,3.947,8.928-.331,8.911-.1,17.842-.1,26.955H15.059V25.074H26.821c.787,4.715.787,4.717,5.61,4.717m76.225,81.922c-.256,9.142-.075,18.3-.089,27.445-.006,3.623-.509,4.144-4.081,4.145q-47.8.014-95.6.041c-2.919.006-4-1.079-3.994-4q.081-60.137.041-120.273c0-3.579.509-4.068,4.142-4.078,5.933-.017,11.866,0,17.929,0v4.941c-4.433,0-8.821.105-13.2-.037-2.947-.1-3.976,1.1-3.972,4.01q.086,55.2.043,110.4c0,3.582.492,4.057,4.151,4.058q42.71.011,85.421,0c3.752,0,4.173-.451,4.178-4.344q.016-13.107,0-26.213v-3.05c4.449.749,5.128,3.3,5.025,6.957m7.525-9.156a5.206,5.206,0,0,1-5.171.089c-17.491-8.754-25.894-23.275-27-42.409a3.824,3.824,0,0,1,1.566-2.85Q98.6,49.158,111.8,41.234a4.048,4.048,0,0,1,3.474.043Q128.36,49.1,141.243,57.261a7.192,7.192,0,0,1,1.888,2.537c-1.52,19.876-9.847,34.134-26.95,42.759" transform="translate(0 0)" fill="#002f87"/>
</svg>
