<svg id="Grupo_30" data-name="Grupo 30" xmlns="http://www.w3.org/2000/svg" xmlns:xlink="http://www.w3.org/1999/xlink" width="546.704" height="151.468" viewBox="0 0 546.704 151.468">
  <defs>
    <clipPath id="clip-path">
      <rect id="Rectángulo_46" data-name="Rectángulo 46" width="546.704" height="151.468" fill="none"/>
    </clipPath>
  </defs>
  <g id="Grupo_29" data-name="Grupo 29" clip-path="url(#clip-path)">
    <path id="Trazado_114" data-name="Trazado 114" d="M70.3,131.3V20.169A20.169,20.169,0,0,1,90.469,0H526.535A20.169,20.169,0,0,1,546.7,20.169V131.3a20.169,20.169,0,0,1-20.168,20.168H90.469A20.169,20.169,0,0,1,70.3,131.3" fill="#d9edef"/>
    <path id="Trazado_115" data-name="Trazado 115" d="M56.244,131.626a56.245,56.245,0,0,1,0-112.49c31.955,0,56.244,26.173,56.244,56.245a56.308,56.308,0,0,1-56.244,56.245" fill="#fff"/>
    <path id="Trazado_116" data-name="Trazado 116" d="M56.244,121.688A46.306,46.306,0,1,1,102.55,75.381a46.359,46.359,0,0,1-46.306,46.307" fill="#b4dade"/>
    <path id="Trazado_117" data-name="Trazado 117" d="M66.79,53.014l.931.483-.517,1-.518,1-.332-.172-.6-.311A2.8,2.8,0,0,0,61.99,56.2l-3.5,6.746-1.55,2.99-1-.517-1-.518,5.049-9.736a5.048,5.048,0,0,1,6.8-2.154" fill="#4d73aa"/>
    <path id="Trazado_118" data-name="Trazado 118" d="M31.876,88.607c-.668-3.5-1.5-7.846,3.8-18.074l7.659-14.769a4.857,4.857,0,0,1,2.6-2.274,4.2,4.2,0,0,1,3.386.13l-.518,1-.517,1a1.957,1.957,0,0,0-1.568-.018,2.587,2.587,0,0,0-1.393,1.2L37.675,71.568c-4.72,9.1-4.252,13.091-3.674,16.178.027.148.055.294.083.438.119.626.232,1.216.305,1.833a1.125,1.125,0,0,1-.118.65l-2.516,4.851-1-.518-1-.517,2.352-4.537c-.063-.431-.148-.875-.236-1.339" fill="#4d73aa"/>
    <path id="Trazado_119" data-name="Trazado 119" d="M56.855,52.72l1.566.812-1.035,1.995-1.566-.812c-.951-.494-2.562.413-3.113,1.476l-4.1,7.915-2-1.035,4.1-7.915c1.1-2.114,4.028-3.534,6.144-2.436" fill="#4d73aa"/>
    <path id="Trazado_120" data-name="Trazado 120" d="M68.362,92.472c-4.247,5.3-8.984,8.516-14.13,9.576l-2.094,4.039-1.995-1.035,2.345-4.524a1.162,1.162,0,0,1,.8-.589c5.875-1.028,11.243-5.251,15.957-12.553l3.5-5.412a5.709,5.709,0,0,0,.5-4.14,5.047,5.047,0,0,0-2.292-2.759l-3.05,6.36-2.027-.972,14.4-30.028a2.078,2.078,0,0,0-.924-2.742l-1.034-.536a2.087,2.087,0,0,0-2.81.89L64.681,68.926l-1-.518-1-.517L73.513,47.012a4.336,4.336,0,0,1,5.839-1.851l1.035.536a4.317,4.317,0,0,1,1.92,5.7l0,.005-.013.027-10.27,21.66a7.254,7.254,0,0,1,3.371,4.079,6.434,6.434,0,0,1,.2.849,7.689,7.689,0,0,1-.056,2.7" fill="#4d73aa"/>
  </g>
</svg>
