<svg xmlns="http://www.w3.org/2000/svg" xmlns:xlink="http://www.w3.org/1999/xlink" width="305.504" height="543.23" viewBox="0 0 305.504 543.23">
  <defs>
    <clipPath id="clip-path">
      <rect id="Rectángulo_18" data-name="Rectángulo 18" width="305.504" height="543.23" fill="none"/>
    </clipPath>
    <clipPath id="clip-path-2">
      <rect id="Rectángulo_14" data-name="Rectángulo 14" width="75.518" height="23.706" transform="translate(37.796 474.003)" fill="none"/>
    </clipPath>
    <clipPath id="clip-path-3">
      <rect id="Rectángulo_15" data-name="Rectángulo 15" width="94.006" height="35.03" transform="translate(55.1 393.916)" fill="none"/>
    </clipPath>
    <clipPath id="clip-path-4">
      <rect id="Rectángulo_16" data-name="Rectángulo 16" width="127.804" height="30.898" transform="translate(88.735 380.304)" fill="none"/>
    </clipPath>
    <clipPath id="clip-path-5">
      <rect id="Rectángulo_17" data-name="Rectángulo 17" width="61.973" height="128.096" transform="translate(60.924 202.329)" fill="none"/>
    </clipPath>
  </defs>
  <g id="Grupo_24" data-name="Grupo 24" clip-path="url(#clip-path)">
    <path id="Trazado_45" data-name="Trazado 45" d="M268.922,305.817a7.711,7.711,0,0,0-3.644-6.051c-32.379-21.43-56.779-68.925-59.239-109.132-.066-2.29-.138-4.614-.214-6.955v-.029h0c-1.872-57.49-10.338-127.217-17.938-145.8C173.849,3.518,126.305.294,126.305.294,63.189-4.222,51.916,44.275,45.545,88.448c-3.962,27.469-19.227,125.6-19.227,125.6l11.6,4.489c13.667,40.5,44.443,73.252,84.443,88.315,11.636,4.381,21.486,6.14,26.109,2.371a158.773,158.773,0,0,0,66.418,40.321c10.194,3.1,20.877,5.173,31.486,4.181,6.888-.645,14.153-2.92,18.26-8.488a15.83,15.83,0,0,0-13.575-25.2c2.391-7.759,18.131-5.476,17.862-14.214" fill="#1a2e35"/>
    <path id="Trazado_46" data-name="Trazado 46" d="M134.7,18.145l-3.949-3.764-42.672,17.2A11.911,11.911,0,0,0,76.835,43.11l.375,139.034c-.055,9.428,1.835,17.593,7.527,25.109l5.993,7.912c13.665,18.04,41.774,16.556,52.592-3.322a15.139,15.139,0,0,0,1.509-3.6,28.21,28.21,0,0,0,.635-3.109c1.27-11.187,1.342-20.885,1.342-20.885.761-12.282,1.011-17.321,1.013-17.206,0,0,26.136-3.005,33.2-36.553,3.513-16.685,2.851-39.638,1.863-62.23C181.519,37,159.833,18.114,134.7,18.145" fill="#ffc09d"/>
    <path id="Trazado_47" data-name="Trazado 47" d="M147.821,167.047A86.15,86.15,0,0,1,103.136,152.7s10.214,23.981,44.22,22.513Z" fill="#ff9b6c"/>
    <path id="Trazado_48" data-name="Trazado 48" d="M125.895,129.9c.761-.006.516,5.06,4.673,8.873s9.576,3.526,9.579,4.236c.055.322-1.251.924-3.533.871a12.626,12.626,0,0,1-8.011-3.249,10.992,10.992,0,0,1-3.594-7.424c-.087-2.127.541-3.354.886-3.307" fill="#1a2e35"/>
    <path id="Trazado_49" data-name="Trazado 49" d="M77.687,102.445s23.9,7.44,37.43-51.555c4.625-20.173,23.325-36.509,23.325-36.509L130.858,12.1S83.72,25.379,82.927,25.974,71.035,50.353,71.035,50.353Z" fill="#1a2e35"/>
    <path id="Trazado_50" data-name="Trazado 50" d="M83.577,100.248c.12-2.518-2.493-8.6-4.962-9.115C72.026,89.765,60.028,89.7,59.071,106.56c-1.308,23.05,22.1,19.608,22.182,18.949.061-.514,1.908-16.564,2.324-25.261" fill="#ffc09d"/>
    <path id="Trazado_51" data-name="Trazado 51" d="M74.707,116.377c-.1-.08-.417.258-1.113.531a4.021,4.021,0,0,1-3.006-.109c-2.384-1.032-4.215-5.014-4.091-9.175a13.28,13.28,0,0,1,1.45-5.686c.8-1.646,1.956-2.763,3.195-2.91a2.05,2.05,0,0,1,2.308,1.234c.272.663.1,1.115.219,1.16.061.063.517-.357.385-1.318a2.565,2.565,0,0,0-.825-1.5,3.039,3.039,0,0,0-2.187-.713c-1.785.023-3.477,1.568-4.4,3.337a13.66,13.66,0,0,0-1.757,6.345c-.116,4.654,2.015,9.135,5.293,10.287a4.313,4.313,0,0,0,3.707-.4c.746-.528.9-1.037.819-1.083" fill="#ff9b6c"/>
    <path id="Trazado_52" data-name="Trazado 52" d="M93.9,91.162a33.6,33.6,0,0,0,3.453-.7,20.824,20.824,0,0,0,8.209-4.763,28.609,28.609,0,0,0,4.281-5.015,38.53,38.53,0,0,0,3.483-6.737c2.041-4.965,3.349-10.753,4.965-16.762s3.375-11.69,5.3-16.738A96.331,96.331,0,0,1,129.6,27.427a69.429,69.429,0,0,1,5.28-8.1c.68-.916,1.273-1.578,1.652-2.044a5.116,5.116,0,0,1,.614-.68,5.043,5.043,0,0,1-.518.757c-.347.49-.908,1.174-1.556,2.109a78.662,78.662,0,0,0-5.092,8.167,100.9,100.9,0,0,0-5.858,13.012c-1.889,5.036-3.622,10.7-5.238,16.7s-2.941,11.8-5.034,16.817a38.426,38.426,0,0,1-3.585,6.807,28.512,28.512,0,0,1-4.412,5.052,20.433,20.433,0,0,1-8.435,4.671,12.727,12.727,0,0,1-3.517.467" fill="#1a2e35"/>
    <path id="Trazado_53" data-name="Trazado 53" d="M62.4,189.512a6.409,6.409,0,0,1-.25-1.114c-.144-.811-.336-1.9-.581-3.276-.49-2.959-1.188-7.17-2.074-12.515l.557-.08c.116.837.245,1.765.378,2.723l-.024-.086c.145.311.313.671.482,1.035l-.578.212A221.958,221.958,0,0,1,52.914,139.3a224.5,224.5,0,0,1-1.409-24c.081-8.425.021-17.374,2.278-26.313a41.557,41.557,0,0,1,4.193-10.464,57.1,57.1,0,0,1,6.374-8.875c4.688-5.416,9.737-10.072,14.348-14.7l24.747-24.347,16.748-16.349,4.591-4.407L126,8.725a2.244,2.244,0,0,1,.439-.359,2.344,2.344,0,0,1-.363.435L124.933,10l-4.452,4.548L103.968,31.137,79.38,55.644c-4.593,4.643-9.633,9.324-14.246,14.677C60.52,75.65,56.548,81.958,54.8,89.253,52.588,98,52.624,106.908,52.527,115.3a229.548,229.548,0,0,0,1.315,23.9A232.1,232.1,0,0,0,60.9,176.243l-.579.213c-.165-.366-.327-.728-.468-1.041l-.019-.044-.006-.043c-.119-.959-.234-1.889-.339-2.727l.557-.08c.774,5.362,1.384,9.586,1.812,12.555.185,1.389.329,2.483.438,3.3a6.574,6.574,0,0,1,.1,1.137" fill="#375a64"/>
    <path id="Trazado_54" data-name="Trazado 54" d="M44.248,82.951a3.992,3.992,0,0,1,.4-.975L46,79.27c1.168-2.349,3.012-5.672,5.429-9.695s5.486-8.7,9.119-13.736c3.678-5,7.931-10.351,12.707-15.7,4.809-5.319,9.677-10.117,14.26-14.306,4.621-4.148,8.935-7.711,12.691-10.527,3.743-2.831,6.85-5.018,9.062-6.429l2.547-1.623a3.913,3.913,0,0,1,.927-.506,4.05,4.05,0,0,1-.809.682L109.5,9.218c-2.136,1.512-5.168,3.785-8.839,6.68S92.73,22.386,88.166,26.553c-4.526,4.209-9.347,9-14.131,14.294-4.752,5.318-9.005,10.62-12.709,15.566-3.658,4.98-6.793,9.585-9.267,13.553s-4.426,7.215-5.7,9.5l-1.516,2.608a4.067,4.067,0,0,1-.593.877" fill="#375a64"/>
    <path id="Trazado_55" data-name="Trazado 55" d="M70.655,180.787c.807-1.163,6.18-11.54,6.18-11.54l30.475,26.269s29.873,25.02,29.873,23.4l4.767-24.068,5.871-21.9,10.96,16.562s34.436,67.513,34.436,68.323S214.53,328.52,214.53,328.52l-4.586,28.328-.54,100.361-64.209-2.7-12.68-20.234L110.662,305.588Z" fill="#fff"/>
    <path id="Trazado_56" data-name="Trazado 56" d="M142.592,435.6h70.849L234.327,543.23H92.377Z" fill="#1a2e35"/>
    <path id="Trazado_57" data-name="Trazado 57" d="M59.03,197.54,17.668,213.064l38.208,170.12s-2.253,45.961-10.364,69.392S18.3,543.23,18.3,543.23H145.35s5.4-92.318,3.249-125.281S147.346,322.8,134.73,290.362,71.463,178.211,71.463,178.211Z" fill="#ff735d"/>
    <path id="Trazado_58" data-name="Trazado 58" d="M149.693,174.851l18.743,15.48,51.456,7.66s24.357,88.222,19.851,122.918,1.777,94.718,1.777,94.718l22.56,127.6H214.53S200.4,394,199.557,395.8s-3.547-73-8.954-97.328-32.63-100.495-32.63-100.495Z" fill="#ff735d"/>
    <path id="Trazado_59" data-name="Trazado 59" d="M284.777,394.449s20.727-9.462,20.727-27.937-12.616-44.608-15.32-54.521-63.984-115.352-70.292-114l-6.309,1.352L246.026,341.73l-44.158,10.814L220.7,406.755Z" fill="#ff735d"/>
    <path id="Trazado_60" data-name="Trazado 60" d="M221.544,348.436l9.1-29.428,1.558-20.054,21.41-14.242s5.739.668,3.958,5.119-10.459,12.461-10.459,12.461L242,316.574l8.32-14.505,12.153-6.008,12.017.89s2.225,5.341-3.338,5.564H265.14l-9.123,7.343-5.7,13.8,8.592-13.352,12.685-4.507,8.011,2.059s2.225,3.561-1.781,4.006-6.675.445-6.675.445l-7.344,4.268-6.453,13.534,11.349-9.346,14.687-1.754s2.448,3.534-1.335,4.87a122.772,122.772,0,0,0-11.349,5.34l-8.234,10.014Z" fill="#ffc09d"/>
    <path id="Trazado_61" data-name="Trazado 61" d="M149.106,435.6a3.422,3.422,0,0,1-.212-.665c-.131-.5-.3-1.151-.519-1.976l-1.907-7.618-6.92-28.038c-2.929-11.835-6.436-25.923-10.456-41.531-2.021-7.8-4.156-15.988-6.49-24.438q-1.729-6.344-3.679-12.849c-.647-2.166-1.379-4.317-2.071-6.5a56.96,56.96,0,0,0-2.653-6.332c-7.565-15.214-15.313-29.546-22.312-42.772L72.814,227.268l-.148-.277.23-.205c1.414-1.261,2.8-2.463,4.2-3.6a21.578,21.578,0,0,1,2.168-1.6,2.271,2.271,0,0,1,.326-.174l.2-.078c.068-.022-.024,0-.047.031s.019-.057-.114.152a.358.358,0,0,0,.088.384.309.309,0,0,0,.107.066v0c-.1-.015-.37-.029-.559-.036L78,221.92c-3.352-.018-6.5.032-9.42.073l-.218,0-.076-.2c-2.946-7.617-5.281-13.656-6.905-17.856l-1.79-4.747-.44-1.228a1.762,1.762,0,0,1-.123-.426,1.694,1.694,0,0,1,.2.394c.135.314.306.707.518,1.2l1.94,4.687,7.172,17.751-.294-.2c2.923-.072,6.067-.153,9.437-.164l1.279.014a5.08,5.08,0,0,1,.721.055l.08.022a.3.3,0,0,1,.121.078.391.391,0,0,1,.1.4c-.118.223-.1.135-.13.173a1.1,1.1,0,0,1-.2.09l-.1.046a1.665,1.665,0,0,0-.243.134,21.456,21.456,0,0,0-2.064,1.55c-1.369,1.128-2.748,2.339-4.142,3.6l.082-.482c5.617,10.369,12.12,22.376,19.245,35.53,7.043,13.213,14.8,27.515,22.392,42.776a57.991,57.991,0,0,1,2.7,6.448c.7,2.2,1.432,4.366,2.08,6.54q1.942,6.521,3.67,12.879c2.324,8.463,4.44,16.658,6.435,24.47,3.97,15.628,7.4,29.736,10.24,41.6,2.774,11.824,5.023,21.415,6.6,28.119l1.714,7.664c.175.835.313,1.5.418,2a3.42,3.42,0,0,1,.107.69" fill="#1a2e35"/>
    <path id="Trazado_62" data-name="Trazado 62" d="M214.53,335.534a9,9,0,0,1,.015-1.587c.061-1.134.143-2.639.246-4.525q.092-1.488.2-3.265,0-1.8.008-3.892c.006-2.792.067-5.97-.205-9.476a197.434,197.434,0,0,0-10.672-53.657,185.491,185.491,0,0,0-8.656-21.3l-.011-.023-.007-.018a182.864,182.864,0,0,0-9.992-19.47c-3.3-5.733-6.34-10.726-8.887-14.857l-6.022-9.637-1.6-2.577a5,5,0,0,1-.51-.92,4.708,4.708,0,0,1,.654.824l1.741,2.488c1.5,2.186,3.645,5.4,6.272,9.486s5.737,9.047,9.1,14.763a175.542,175.542,0,0,1,10.179,19.519l-.018-.04a180.066,180.066,0,0,1,8.759,21.422,189.7,189.7,0,0,1,10.419,53.964c.226,3.524.113,6.718.051,9.52q-.051,2.091-.1,3.9-.16,1.779-.3,3.27c-.185,1.884-.332,3.387-.443,4.519a8.866,8.866,0,0,1-.226,1.566" fill="#1a2e35"/>
    <path id="Trazado_63" data-name="Trazado 63" d="M286.3,393.666a7.986,7.986,0,0,1-1.266.347l-3.706.851-13.966,3.051L218.544,408.28l-.422.09-.14-.411c-4.106-12.108-8.613-25.4-13.335-39.324l-4.9-14.494-.184-.543.558-.131,36.732-8.635,15.827-3.694,7.135-1.658a33.382,33.382,0,0,1,6.693-1.148,25.239,25.239,0,0,1,11.33,2.3,28.459,28.459,0,0,1,7.269,4.754,25.431,25.431,0,0,1,3.661,4.048l.777,1.182a1.746,1.746,0,0,1,.236.419,34.65,34.65,0,0,0-4.923-5.366,28.84,28.84,0,0,0-7.24-4.539,24.887,24.887,0,0,0-11.079-2.109,32.871,32.871,0,0,0-6.538,1.193l-7.121,1.717-15.806,3.794-36.713,8.752.374-.674c1.571,4.644,3.224,9.527,4.9,14.491,4.7,13.934,9.179,27.233,13.263,39.348l-.562-.321,48.9-9.992,14.024-2.779,3.737-.7a8.043,8.043,0,0,1,1.3-.188" fill="#1a2e35"/>
    <path id="Trazado_64" data-name="Trazado 64" d="M47.616,464.348l67.634,6.211-11.639,20.7L32.355,484.3Z" fill="#ff735d"/>
    <path id="Trazado_65" data-name="Trazado 65" d="M47.616,464.348a1.959,1.959,0,0,1-.245.393c-.2.289-.454.638-.758,1.064l-2.954,4.017-11.02,14.7-.249-.571,68.756,6.545,2.515.246-.51.266c4.068-7.221,8-14.194,11.659-20.694l.393.751-48.371-4.651-14.094-1.44-3.788-.424a9.459,9.459,0,0,1-1.334-.2,7.546,7.546,0,0,1,1.265.039l3.732.267L66.66,465.8l48.636,4.257.778.068-.384.683c-3.649,6.506-7.566,13.486-11.621,20.715l-.168.3-.341-.034-2.515-.245L32.32,484.659l-.643-.065.395-.507,11.384-14.6q1.941-2.445,3.071-3.865a11.221,11.221,0,0,1,1.089-1.276" fill="#1a2e35"/>
    <path id="Trazado_66" data-name="Trazado 66" d="M229.716,471.3l10.57,19.968,22.726-4.641-12.05-18.4Z" fill="#ff735d"/>
    <path id="Trazado_67" data-name="Trazado 67" d="M229.716,471.3a8.891,8.891,0,0,1,1.4-.29l4.229-.726c3.678-.62,9.048-1.519,15.549-2.5l.281-.043.159.242c3.532,5.352,7.676,11.634,12.113,18.359l.428.648-.762.156-1.137.232-21.6,4.342-.339.068-.157-.3c-3.185-6.109-5.756-11.227-7.518-14.745l-2.017-4.056a9.813,9.813,0,0,1-.631-1.381,16.188,16.188,0,0,1,.89,1.493l2.281,4.062c1.939,3.474,4.653,8.34,7.8,14.2l-.495-.235,21.574-4.477,1.137-.232-.335.8c-4.39-6.757-8.49-13.067-11.985-18.444l.44.2c-6.282.865-11.536,1.5-15.284,1.959l-4.386.521a14.978,14.978,0,0,1-1.64.151" fill="#1a2e35"/>
    <g id="Grupo_14" data-name="Grupo 14" opacity="0.3">
      <g id="Grupo_13" data-name="Grupo 13">
        <g id="Grupo_12" data-name="Grupo 12" clip-path="url(#clip-path-2)">
          <path id="Trazado_68" data-name="Trazado 68" d="M40.623,485.111,37.8,491.264l70.289,6.446L113.313,474l-9.7,17.261Z"/>
        </g>
      </g>
    </g>
    <g id="Grupo_17" data-name="Grupo 17" opacity="0.3">
      <g id="Grupo_16" data-name="Grupo 16">
        <g id="Grupo_15" data-name="Grupo 15" clip-path="url(#clip-path-3)">
          <path id="Trazado_69" data-name="Trazado 69" d="M55.1,393.916s11.031,23.122,25.364,29.892c19.547,9.235,68.514,3.2,68.514,3.2l.127-14.037L92.377,416.2Z"/>
        </g>
      </g>
    </g>
    <path id="Trazado_70" data-name="Trazado 70" d="M20.279,211.959S.453,213.311,0,265.129s60.38,138.782,70.743,147.344,22.207,14.322,53.436,9.692c39.171-5.807,66.422-11.044,66.422-11.044L185.2,363.809l-69.842-3.154-56.775-116.7s-18.925-34.245-38.3-31.992" fill="#ff735d"/>
    <g id="Grupo_20" data-name="Grupo 20" opacity="0.3">
      <g id="Grupo_19" data-name="Grupo 19">
        <g id="Grupo_18" data-name="Grupo 18" clip-path="url(#clip-path-4)">
          <path id="Trazado_71" data-name="Trazado 71" d="M202.221,383.686c-7.676-3.2-16.242-3.269-24.557-3.291l-33.067-.088c-7.132-.019-14.356-.027-21.262,1.754s-13.574,5.58-17.323,11.648l-17.277,14.28a114.415,114.415,0,0,0,66.644-3.906c5.347-1.994,10.608-4.408,16.246-5.293,14.929-2.343,30.057,6.323,44.914,3.558.008-8.315-6.643-15.463-14.318-18.662"/>
        </g>
      </g>
    </g>
    <path id="Trazado_72" data-name="Trazado 72" d="M90.221,335.534s13.406,5.306,19.829,6.423,14.243,3.631,24.577,7.82a165.432,165.432,0,0,1,16.383,7.541l10.428,36.306s-17.316,10.892-36.865,10.334-36.866,5.757-39.379,4-2.793-4.834,0-6.23,14.633-3.073,14.633-3.073l10.223-4.189s-34.91,3.072-37.7,1.676-5.586-3.352-4.468-6.424a4.388,4.388,0,0,1,3.91-3.072s-7.541.28-7.262-2.793a9.612,9.612,0,0,1,4.19-6.423c1.117-.559,15.763-6.513,15.763-6.513l18.829-3.744-18.088-.723-15.8,4.4s-6.3.713-4.9-4.593,20.674-11.171,20.674-11.171l24.577-1.691s-18.991-2.778-20.946-8.643,1.4-9.216,1.4-9.216" fill="#ffc09d"/>
    <path id="Trazado_73" data-name="Trazado 73" d="M151.01,357.318h1.212l47.967-2.119,14.341,41.878-53.092-3.452Z" fill="#ffc09d"/>
    <path id="Trazado_74" data-name="Trazado 74" d="M109.152,381.138c0,.158-2.249.229-5.864.45s-8.6.641-14.056,1.464-10.344,1.9-13.861,2.767-5.685,1.46-5.734,1.309c-.041-.126,2.048-.976,5.539-2.027a104.219,104.219,0,0,1,28.085-4.257c3.645-.031,5.893.162,5.891.294" fill="#ff9b6c"/>
    <path id="Trazado_75" data-name="Trazado 75" d="M73.246,270.368a14.281,14.281,0,0,1-1.583-2.3c-.969-1.508-2.35-3.7-4.132-6.361a233.211,233.211,0,0,0-14.858-20.087C46.411,234.142,40.1,227.907,34.988,224.1c-5.067-3.89-8.766-5.41-8.67-5.61a14.2,14.2,0,0,1,2.59,1.055,25.444,25.444,0,0,1,2.885,1.569A37.366,37.366,0,0,1,35.43,223.5c5.295,3.7,11.75,9.922,18.051,17.448A185.869,185.869,0,0,1,68.157,261.3c1.708,2.72,3,4.98,3.859,6.555a14.246,14.246,0,0,1,1.23,2.508" fill="#1a2e35"/>
    <path id="Trazado_76" data-name="Trazado 76" d="M104.305,339.4a12.041,12.041,0,0,1-1.077-2.327l-2.619-6.457c-2.2-5.456-5.276-12.974-8.855-21.2s-6.988-15.6-9.483-20.931c-1.171-2.515-2.157-4.63-2.942-6.316a11.948,11.948,0,0,1-.968-2.374,12.145,12.145,0,0,1,1.334,2.19c.8,1.44,1.912,3.549,3.245,6.174,2.67,5.251,6.189,12.593,9.779,20.837s6.562,15.821,8.585,21.352c1.013,2.766,1.8,5.016,2.308,6.583a12.028,12.028,0,0,1,.693,2.469" fill="#1a2e35"/>
    <path id="Trazado_77" data-name="Trazado 77" d="M136.623,219.283a4.76,4.76,0,0,1-1.213-.531l-3.289-1.737-11.6-6.42.68-.343c-.566,5.214-1.524,11.306-2.483,17.8-.388,2.643-.752,5.22-1.05,7.685l-.116.952-.727-.619c-6.207-5.281-11.6-9.927-15.426-13.278l-4.46-3.97a9.816,9.816,0,0,1-1.533-1.531,9.854,9.854,0,0,1,1.764,1.257l4.658,3.737c3.941,3.212,9.421,7.759,15.661,13l-.843.333c.285-2.483.642-5.07,1.03-7.718.961-6.5,1.968-12.577,2.618-17.75l.088-.694.593.351,11.413,6.748c1.249.771,2.295,1.419,3.164,1.956a4.745,4.745,0,0,1,1.073.776" fill="#1a2e35"/>
    <path id="Trazado_78" data-name="Trazado 78" d="M154.348,189.512a13.764,13.764,0,0,1,.094,2.747c-.035,1.971-.08,4.479-.134,7.476-.16,6.311-.453,15.025-.841,24.648-.009.236-.019.472-.028.7l-.069,1.683-.9-1.419-11.534-18.18.722-.088c-1.272,3.5-2.335,6.423-3.158,8.684a19.076,19.076,0,0,1-1.318,3.153,19.021,19.021,0,0,1,.889-3.3c.735-2.29,1.685-5.253,2.822-8.8l.258-.8.465.716c3.226,4.959,7.292,11.21,11.739,18.048l-.968.263c.009-.229.019-.465.028-.7.389-9.622.8-18.332,1.149-24.635.188-2.992.345-5.495.469-7.462a13.741,13.741,0,0,1,.315-2.731" fill="#1a2e35"/>
    <path id="Trazado_79" data-name="Trazado 79" d="M217.766,217.49a7.683,7.683,0,0,1-1.607-.853l.227-.16c1.279,4.529,4.885,19.312,8.971,36.855,2.49,10.69,4.687,20.381,6.226,27.407.717,3.376,1.312,6.18,1.769,8.333a17.777,17.777,0,0,1,.509,3.088,17.942,17.942,0,0,1-.908-2.995c-.541-2.134-1.246-4.912-2.1-8.257-1.724-6.983-4.036-16.647-6.526-27.338-4.086-17.542-7.384-32.4-8.238-37.025l-.068-.365.295.205a7.668,7.668,0,0,1,1.445,1.105" fill="#1a2e35"/>
    <path id="Trazado_80" data-name="Trazado 80" d="M154.348,417.221a6.06,6.06,0,0,1-1.244.41l-3.619.978c-3.152.814-7.744,1.886-13.474,2.945a166.751,166.751,0,0,1-20.323,2.456,94.323,94.323,0,0,1-25.021-1.671,50.265,50.265,0,0,1-12.317-4.3,43.156,43.156,0,0,1-5.34-3.218,37.518,37.518,0,0,1-4.4-4.067,161.906,161.906,0,0,1-12.654-16.1c-3.354-4.76-5.934-8.7-7.687-11.444l-1.977-3.184a5.909,5.909,0,0,1-.62-1.155,6.375,6.375,0,0,1,.8,1.039l2.14,3.073c1.856,2.669,4.527,6.543,7.951,11.237a173.772,173.772,0,0,0,12.753,15.87A37.19,37.19,0,0,0,73.6,414a42.756,42.756,0,0,0,5.216,3.112,49.888,49.888,0,0,0,12.079,4.2,95.821,95.821,0,0,0,24.744,1.73,179.617,179.617,0,0,0,20.244-2.22c5.726-.962,10.331-1.92,13.507-2.611l3.662-.785a6.151,6.151,0,0,1,1.3-.2" fill="#1a2e35"/>
    <g id="Grupo_23" data-name="Grupo 23" opacity="0.3">
      <g id="Grupo_22" data-name="Grupo 22">
        <g id="Grupo_21" data-name="Grupo 21" clip-path="url(#clip-path-5)">
          <path id="Trazado_81" data-name="Trazado 81" d="M60.924,202.329l5.363,25.451,4.368-2.717-2.518,6.05,54.76,99.312-7.109-22.679L73.161,227.079l6.745-5.4H68.574Z"/>
        </g>
      </g>
    </g>
    <path id="Trazado_82" data-name="Trazado 82" d="M146.677,118.575s11.374,3.482,15.493,1.158-3.84-17.59-8.731-27.343" fill="#ffc09d"/>
    <path id="Trazado_83" data-name="Trazado 83" d="M146.677,118.575a37.894,37.894,0,0,0,11.191,2.5,12.971,12.971,0,0,0,2.968-.224,5.685,5.685,0,0,0,1.489-.509,2.6,2.6,0,0,0,1.245-1.3,6.158,6.158,0,0,0,.307-3.135,18.156,18.156,0,0,0-.6-2.881,62.738,62.738,0,0,0-4.384-10.61c-1.7-3.412-3.535-6.741-5.449-10.03,1.493,3.5,3.1,6.947,4.619,10.418a89.648,89.648,0,0,1,4.006,10.556,19.589,19.589,0,0,1,.551,2.693,5.052,5.052,0,0,1-.177,2.476,1.344,1.344,0,0,1-.682.719,5.323,5.323,0,0,1-1.189.436,11.844,11.844,0,0,1-2.693.3,33.507,33.507,0,0,1-5.6-.419c-1.871-.263-3.736-.605-5.6-.993" fill="#855a4c"/>
    <path id="Trazado_84" data-name="Trazado 84" d="M133.958,87.683c-.128,5.285-2.563,9.512-5.438,9.442s-5.1-4.41-4.975-9.694,2.564-9.512,5.439-9.443,5.1,4.41,4.974,9.695" fill="#1d262d"/>
    <path id="Trazado_85" data-name="Trazado 85" d="M174.553,88.668c-.128,5.284-2.564,9.512-5.439,9.442s-5.1-4.41-4.974-9.695,2.563-9.512,5.438-9.442,5.1,4.41,4.975,9.695" fill="#1d262d"/>
    <path id="Trazado_86" data-name="Trazado 86" d="M115.35,63.234s12.487-13.106,24.528,3.16a54.385,54.385,0,0,0-24.528-3.16" fill="#564242"/>
    <path id="Trazado_87" data-name="Trazado 87" d="M157.117,68.538S169.6,55.432,181.644,71.7a54.379,54.379,0,0,0-24.527-3.16" fill="#564242"/>
  </g>
</svg>
