<svg xmlns="http://www.w3.org/2000/svg" xmlns:xlink="http://www.w3.org/1999/xlink" width="186.132" height="330.969" viewBox="0 0 186.132 330.969">
  <defs>
    <clipPath id="clip-path">
      <rect id="Rectángulo_18" data-name="Rectángulo 18" width="186.132" height="330.969" fill="none"/>
    </clipPath>
    <clipPath id="clip-path-2">
      <rect id="Rectángulo_14" data-name="Rectángulo 14" width="46.01" height="14.443" fill="none"/>
    </clipPath>
    <clipPath id="clip-path-3">
      <rect id="Rectángulo_15" data-name="Rectángulo 15" width="57.274" height="21.342" fill="none"/>
    </clipPath>
    <clipPath id="clip-path-4">
      <rect id="Rectángulo_16" data-name="Rectángulo 16" width="77.866" height="18.825" fill="none"/>
    </clipPath>
    <clipPath id="clip-path-5">
      <rect id="Rectángulo_17" data-name="Rectángulo 17" width="37.757" height="78.044" fill="none"/>
    </clipPath>
  </defs>
  <g id="Grupo_24" data-name="Grupo 24" clip-path="url(#clip-path)">
    <path id="Trazado_45" data-name="Trazado 45" d="M174.127,186.323a4.7,4.7,0,0,0-2.22-3.687c-19.727-13.056-34.593-41.993-36.092-66.49-.04-1.4-.084-2.811-.13-4.237v-.018h0c-1.141-35.026-6.3-77.508-10.929-88.832C116.2,2.144,87.236.179,87.236.179c-38.454-2.751-45.322,26.8-49.2,53.709-2.414,16.736-11.714,76.523-11.714,76.523l7.068,2.735a87,87,0,0,0,51.448,53.807c7.089,2.669,13.091,3.741,15.907,1.445a96.734,96.734,0,0,0,40.466,24.566c6.211,1.889,12.72,3.152,19.183,2.547,4.2-.393,8.623-1.779,11.125-5.171a9.645,9.645,0,0,0-8.271-15.356c1.457-4.727,11.047-3.336,10.883-8.66" transform="translate(-10.283 0)" fill="#1a2e35"/>
    <path id="Trazado_46" data-name="Trazado 46" d="M112.092,16.674l-2.406-2.293-26,10.477a7.257,7.257,0,0,0-6.852,7.026l.228,84.708c-.034,5.744,1.118,10.719,4.586,15.3l3.651,4.82c8.326,10.991,25.451,10.087,32.042-2.024a9.223,9.223,0,0,0,.919-2.19,17.186,17.186,0,0,0,.387-1.894c.774-6.816.818-12.724.818-12.724.464-7.483.616-10.553.617-10.483,0,0,15.924-1.831,20.229-22.27,2.14-10.166,1.737-24.15,1.135-37.914-.833-19.047-14.045-30.555-29.356-30.536" transform="translate(-30.022 -5.619)" fill="#ffc09d"/>
    <path id="Trazado_47" data-name="Trazado 47" d="M130.361,161.44a52.488,52.488,0,0,1-27.225-8.744s6.223,14.611,26.942,13.716Z" transform="translate(-40.299 -59.664)" fill="#ff9b6c"/>
    <path id="Trazado_48" data-name="Trazado 48" d="M125.546,129.9c.464,0,.314,3.083,2.847,5.406s5.834,2.148,5.836,2.581c.034.2-.762.563-2.153.531a7.692,7.692,0,0,1-4.881-1.98,6.7,6.7,0,0,1-2.19-4.523c-.053-1.3.33-2.043.54-2.015" transform="translate(-48.843 -50.756)" fill="#1a2e35"/>
    <path id="Trazado_49" data-name="Trazado 49" d="M75.088,67.144s14.563,4.533,22.8-31.41C100.71,23.443,112.1,13.49,112.1,13.49l-4.621-1.39s-28.719,8.09-29.2,8.453-7.245,14.853-7.245,14.853Z" transform="translate(-27.756 -4.728)" fill="#1a2e35"/>
    <path id="Trazado_50" data-name="Trazado 50" d="M73.981,96.472c.073-1.534-1.519-5.241-3.023-5.553-4.014-.833-11.324-.874-11.907,9.4-.8,14.043,13.467,11.946,13.515,11.545.037-.313,1.162-10.092,1.416-15.391" transform="translate(-23.061 -35.395)" fill="#ffc09d"/>
    <path id="Trazado_51" data-name="Trazado 51" d="M70.869,109.153c-.059-.049-.254.157-.678.324a2.45,2.45,0,0,1-1.831-.066c-1.452-.629-2.568-3.055-2.492-5.59a8.091,8.091,0,0,1,.883-3.464A2.827,2.827,0,0,1,68.7,98.583a1.249,1.249,0,0,1,1.406.752c.166.4.06.679.133.707.037.038.315-.218.235-.8a1.563,1.563,0,0,0-.5-.913,1.851,1.851,0,0,0-1.332-.434,3.445,3.445,0,0,0-2.679,2.033,8.323,8.323,0,0,0-1.07,3.866c-.071,2.835,1.228,5.566,3.225,6.267a2.628,2.628,0,0,0,2.259-.245c.455-.322.547-.632.5-.66" transform="translate(-25.352 -38.249)" fill="#ff9b6c"/>
    <path id="Trazado_52" data-name="Trazado 52" d="M93.9,62.029A20.47,20.47,0,0,0,96,61.6a12.687,12.687,0,0,0,5-2.9,17.43,17.43,0,0,0,2.608-3.055,23.475,23.475,0,0,0,2.122-4.1,88.118,88.118,0,0,0,3.025-10.212c.986-3.663,2.056-7.122,3.23-10.2a58.691,58.691,0,0,1,3.659-7.934,42.3,42.3,0,0,1,3.217-4.934c.414-.558.776-.961,1.007-1.245a3.116,3.116,0,0,1,.374-.414,3.073,3.073,0,0,1-.316.461c-.211.3-.553.715-.948,1.285a47.924,47.924,0,0,0-3.1,4.976,61.474,61.474,0,0,0-3.569,7.928c-1.151,3.068-2.207,6.518-3.191,10.174a84.445,84.445,0,0,1-3.067,10.246,23.411,23.411,0,0,1-2.184,4.147,17.372,17.372,0,0,1-2.688,3.078,12.449,12.449,0,0,1-5.139,2.846,7.754,7.754,0,0,1-2.143.285" transform="translate(-36.69 -6.488)" fill="#1a2e35"/>
    <path id="Trazado_53" data-name="Trazado 53" d="M58.14,118.731a3.9,3.9,0,0,1-.152-.679c-.088-.494-.2-1.156-.354-2-.3-1.8-.724-4.368-1.264-7.625l.339-.049.23,1.659-.015-.052.294.631-.352.129a135.23,135.23,0,0,1-4.5-22.607,136.779,136.779,0,0,1-.858-14.623c.049-5.133.013-10.585,1.388-16.032a25.319,25.319,0,0,1,2.555-6.375A34.788,34.788,0,0,1,59.331,45.7c2.856-3.3,5.932-6.136,8.742-8.954L83.15,21.917l10.2-9.961,2.8-2.685.738-.687a1.367,1.367,0,0,1,.267-.219,1.428,1.428,0,0,1-.221.265l-.694.732-2.712,2.771L83.469,22.239,68.488,37.17c-2.8,2.829-5.869,5.681-8.68,8.942a27.692,27.692,0,0,0-6.294,11.535c-1.35,5.326-1.328,10.757-1.387,15.869a139.854,139.854,0,0,0,.8,14.564,141.407,141.407,0,0,0,4.3,22.566l-.353.13-.285-.634-.012-.027,0-.026c-.072-.584-.143-1.151-.207-1.661l.339-.049c.472,3.267.843,5.84,1.1,7.649.113.846.2,1.513.267,2.01a4,4,0,0,1,.06.693" transform="translate(-20.125 -3.269)" fill="#375a64"/>
    <path id="Trazado_54" data-name="Trazado 54" d="M44.246,53.176a2.432,2.432,0,0,1,.247-.594l.819-1.649c.712-1.431,1.835-3.456,3.308-5.907s3.342-5.3,5.556-8.369c2.241-3.048,4.832-6.306,7.742-9.563,2.93-3.241,5.9-6.164,8.688-8.716,2.815-2.527,5.444-4.7,7.732-6.414s4.173-3.057,5.521-3.917l1.552-.989a2.384,2.384,0,0,1,.565-.308,2.467,2.467,0,0,1-.493.416L84,8.253c-1.3.921-3.149,2.306-5.385,4.07S73.784,16.276,71,18.815c-2.758,2.564-5.695,5.485-8.609,8.709-2.9,3.24-5.486,6.47-7.743,9.484-2.229,3.034-4.139,5.84-5.646,8.257s-2.7,4.4-3.474,5.788l-.924,1.589a2.478,2.478,0,0,1-.361.534" transform="translate(-17.288 -2.637)" fill="#375a64"/>
    <path id="Trazado_55" data-name="Trazado 55" d="M70.655,176.278c.492-.709,3.765-7.031,3.765-7.031l18.567,16s18.2,15.244,18.2,14.257l2.9-14.664,3.577-13.342,6.678,10.091s20.981,41.133,20.981,41.627,12.985,43.065,12.985,43.065l-2.794,17.259-.329,61.146-39.12-1.644-7.725-12.328L95.03,252.314Z" transform="translate(-27.608 -66.131)" fill="#fff"/>
    <path id="Trazado_56" data-name="Trazado 56" d="M122.972,435.6h43.166l12.725,65.573H92.377Z" transform="translate(-36.095 -170.207)" fill="#1a2e35"/>
    <path id="Trazado_57" data-name="Trazado 57" d="M42.868,189.987l-25.2,9.458L40.947,303.093s-1.373,28-6.314,42.278S18.05,400.6,18.05,400.6H95.46s3.291-56.246,1.979-76.329-.763-57.968-8.45-77.734-38.546-68.329-38.546-68.329Z" transform="translate(-6.904 -69.634)" fill="#ff735d"/>
    <path id="Trazado_58" data-name="Trazado 58" d="M149.693,174.851l11.419,9.431,31.35,4.667s14.84,53.75,12.094,74.889,1.083,57.708,1.083,57.708l13.745,77.744H189.2s-8.609-90.921-9.122-89.823-2.161-44.474-5.455-59.3-19.88-61.228-19.88-61.228Z" transform="translate(-58.491 -68.321)" fill="#ff735d"/>
    <path id="Trazado_59" data-name="Trazado 59" d="M252.381,317.68s12.628-5.765,12.628-17.021-7.686-27.178-9.334-33.218-38.983-70.28-42.826-69.456l-3.844.824,19.766,86.751-26.9,6.589,11.476,33.029Z" transform="translate(-78.878 -77.358)" fill="#ff735d"/>
    <path id="Trazado_60" data-name="Trazado 60" d="M221.544,323.537l5.547-17.929.949-12.218,13.044-8.677s3.5.407,2.411,3.119-6.372,7.592-6.372,7.592l-3.118,8.7,5.069-8.837,7.4-3.66,7.321.542s1.356,3.254-2.034,3.39h-3.661l-5.558,4.474-3.473,8.406,5.235-8.135,7.728-2.746,4.881,1.254s1.356,2.17-1.085,2.441-4.067.271-4.067.271l-4.474,2.6-3.932,8.246,6.915-5.694,8.948-1.069s1.491,2.153-.813,2.967a74.8,74.8,0,0,0-6.915,3.253l-5.017,6.1Z" transform="translate(-86.566 -111.248)" fill="#ffc09d"/>
    <path id="Trazado_61" data-name="Trazado 61" d="M113.909,342.583a2.086,2.086,0,0,1-.129-.405l-.316-1.2-1.162-4.641-4.216-17.082c-1.785-7.211-3.921-15.794-6.37-25.3-1.231-4.753-2.532-9.741-3.954-14.889q-1.054-3.865-2.241-7.828c-.394-1.32-.84-2.63-1.262-3.96a34.7,34.7,0,0,0-1.616-3.858c-4.609-9.269-9.33-18-13.594-26.059l-11.62-21.7-.09-.169.14-.125c.861-.768,1.708-1.5,2.558-2.19a13.148,13.148,0,0,1,1.321-.972,1.385,1.385,0,0,1,.2-.106l.121-.048c.041-.013-.015,0-.029.019s.012-.035-.069.093a.218.218,0,0,0,.054.234.188.188,0,0,0,.065.04v0c-.059-.009-.225-.018-.341-.022l-.768-.015c-2.042-.011-3.961.02-5.739.044l-.133,0-.046-.121L60.463,201.44l-1.091-2.892L59.1,197.8a1.074,1.074,0,0,1-.075-.26,1.032,1.032,0,0,1,.124.24c.082.191.186.431.316.73l1.182,2.856,4.37,10.815-.179-.119c1.781-.044,3.7-.093,5.75-.1l.779.009a3.1,3.1,0,0,1,.439.034l.049.013a.183.183,0,0,1,.074.048.238.238,0,0,1,.06.245c-.072.136-.063.082-.079.105a.672.672,0,0,1-.12.055l-.062.028a1.014,1.014,0,0,0-.148.082,13.072,13.072,0,0,0-1.258.944c-.834.687-1.674,1.425-2.524,2.193l.05-.294,11.725,21.647c4.291,8.05,9.02,16.764,13.643,26.062a35.333,35.333,0,0,1,1.645,3.928c.424,1.338.872,2.66,1.267,3.985q1.183,3.973,2.236,7.847c1.416,5.156,2.705,10.149,3.921,14.909,2.419,9.522,4.51,18.117,6.239,25.343,1.69,7.2,3.06,13.047,4.019,17.132l1.044,4.669c.107.509.191.911.255,1.219a2.084,2.084,0,0,1,.065.42" transform="translate(-23.064 -77.186)" fill="#1a2e35"/>
    <path id="Trazado_62" data-name="Trazado 62" d="M196.518,278.8a5.488,5.488,0,0,1,.009-.967c.037-.691.087-1.608.15-2.757q.056-.907.123-1.989,0-1.1,0-2.371c0-1.7.041-3.637-.125-5.773a120.288,120.288,0,0,0-6.5-32.691,113.01,113.01,0,0,0-5.274-12.977l-.007-.014,0-.011a111.413,111.413,0,0,0-6.088-11.862c-2.009-3.493-3.863-6.535-5.415-9.052l-3.669-5.871-.977-1.57a3.045,3.045,0,0,1-.311-.561,2.868,2.868,0,0,1,.4.5l1.061,1.516c.913,1.332,2.221,3.289,3.821,5.779s3.5,5.512,5.542,8.995a106.945,106.945,0,0,1,6.2,11.892l-.011-.024a109.716,109.716,0,0,1,5.337,13.052,115.576,115.576,0,0,1,6.348,32.878c.138,2.147.069,4.093.031,5.8q-.031,1.274-.058,2.378-.1,1.084-.18,1.992c-.113,1.148-.2,2.064-.27,2.753a5.4,5.4,0,0,1-.138.954" transform="translate(-65.814 -74.369)" fill="#1a2e35"/>
    <path id="Trazado_63" data-name="Trazado 63" d="M252.413,372.037a4.868,4.868,0,0,1-.771.211l-2.258.518-8.509,1.859-29.745,6.315-.257.055-.085-.25-8.124-23.959-2.982-8.831-.112-.331.34-.08,22.379-5.261,9.643-2.251,4.347-1.01a20.338,20.338,0,0,1,4.078-.7,15.377,15.377,0,0,1,6.9,1.4,17.339,17.339,0,0,1,4.429,2.9,15.494,15.494,0,0,1,2.231,2.466l.473.72a1.064,1.064,0,0,1,.144.255,21.114,21.114,0,0,0-3-3.269,17.571,17.571,0,0,0-4.411-2.765,15.163,15.163,0,0,0-6.75-1.285,20.03,20.03,0,0,0-3.983.727l-4.339,1.046-9.63,2.312-22.368,5.332.228-.411c.957,2.829,1.964,5.8,2.988,8.829l8.081,23.973-.342-.2,29.792-6.088,8.544-1.693,2.277-.426a4.9,4.9,0,0,1,.791-.115" transform="translate(-77.979 -132.191)" fill="#1a2e35"/>
    <path id="Trazado_64" data-name="Trazado 64" d="M41.653,464.348l41.207,3.784-7.091,12.615-43.413-4.24Z" transform="translate(-12.643 -181.439)" fill="#ff735d"/>
    <path id="Trazado_65" data-name="Trazado 65" d="M41.388,464.343a1.193,1.193,0,0,1-.149.239l-.462.648-1.8,2.447-6.714,8.955-.152-.348L74,480.272l1.532.15-.311.162,7.1-12.608.239.458L53.1,465.6l-8.587-.877-2.308-.258a5.758,5.758,0,0,1-.813-.122,4.61,4.61,0,0,1,.771.024l2.274.163,8.558.7,29.632,2.594.474.041-.234.416L75.783,480.9l-.1.182-.208-.021-1.532-.149-41.872-4.194-.392-.04.241-.309,6.936-8.894,1.871-2.355a6.836,6.836,0,0,1,.663-.777" transform="translate(-12.377 -181.433)" fill="#1a2e35"/>
    <path id="Trazado_66" data-name="Trazado 66" d="M229.716,470.093l6.44,12.166L250,479.431l-7.342-11.212Z" transform="translate(-89.759 -182.951)" fill="#ff735d"/>
    <path id="Trazado_67" data-name="Trazado 67" d="M229.714,469.9a5.406,5.406,0,0,1,.855-.177l2.577-.442c2.241-.378,5.513-.925,9.473-1.526l.171-.026.1.147,7.38,11.185.261.395-.464.1-.693.141-13.161,2.645-.207.041-.1-.184c-1.941-3.722-3.507-6.84-4.58-8.984l-1.229-2.471a5.983,5.983,0,0,1-.384-.841,9.858,9.858,0,0,1,.542.91l1.39,2.475c1.181,2.117,2.835,5.081,4.754,8.651l-.3-.143,13.144-2.728.693-.141-.2.49-7.3-11.237.268.121c-3.827.527-7.028.916-9.312,1.194l-2.672.317a9.118,9.118,0,0,1-1,.092" transform="translate(-89.757 -182.761)" fill="#1a2e35"/>
    <g id="Grupo_14" data-name="Grupo 14" transform="translate(23.028 288.792)" opacity="0.3">
      <g id="Grupo_13" data-name="Grupo 13">
        <g id="Grupo_12" data-name="Grupo 12" clip-path="url(#clip-path-2)">
          <path id="Trazado_68" data-name="Trazado 68" d="M39.519,480.771,37.8,484.52l42.824,3.927L83.806,474,77.894,484.52Z" transform="translate(-37.796 -474.003)"/>
        </g>
      </g>
    </g>
    <g id="Grupo_17" data-name="Grupo 17" transform="translate(33.571 239.998)" opacity="0.3">
      <g id="Grupo_16" data-name="Grupo 16">
        <g id="Grupo_15" data-name="Grupo 15" clip-path="url(#clip-path-3)">
          <path id="Trazado_69" data-name="Trazado 69" d="M55.1,393.916S61.821,408,70.553,412.128c11.909,5.627,41.743,1.95,41.743,1.95l.077-8.552-34.562,1.966Z" transform="translate(-55.1 -393.916)"/>
        </g>
      </g>
    </g>
    <path id="Trazado_70" data-name="Trazado 70" d="M12.355,211.917S.276,212.741,0,244.312s36.787,84.555,43.1,89.771,13.53,8.726,32.557,5.9c23.865-3.538,40.468-6.729,40.468-6.729l-3.294-28.825-42.552-1.922-34.591-71.1s-11.53-20.864-23.335-19.492" transform="translate(0 -82.779)" fill="#ff735d"/>
    <g id="Grupo_20" data-name="Grupo 20" transform="translate(54.063 231.705)" opacity="0.3">
      <g id="Grupo_19" data-name="Grupo 19">
        <g id="Grupo_18" data-name="Grupo 18" clip-path="url(#clip-path-4)">
          <path id="Trazado_71" data-name="Trazado 71" d="M157.878,382.364c-4.677-1.949-9.9-1.992-14.962-2.005l-20.146-.054c-4.345-.012-8.747-.016-12.954,1.069s-8.27,3.4-10.554,7.1l-10.526,8.7a69.708,69.708,0,0,0,40.6-2.38c3.258-1.215,6.463-2.686,9.9-3.225,9.1-1.428,18.313,3.852,27.364,2.168,0-5.066-4.047-9.421-8.723-11.37" transform="translate(-88.735 -380.304)"/>
        </g>
      </g>
    </g>
    <path id="Trazado_72" data-name="Trazado 72" d="M80.1,335.534s8.168,3.233,12.081,3.913a76.338,76.338,0,0,1,14.974,4.764,100.79,100.79,0,0,1,9.982,4.594l6.353,22.12s-10.55,6.636-22.46,6.3-22.461,3.508-23.992,2.435-1.7-2.945,0-3.8,8.915-1.872,8.915-1.872l6.228-2.552s-21.269,1.872-22.971,1.021-3.4-2.042-2.722-3.914a2.673,2.673,0,0,1,2.382-1.872s-4.594.171-4.424-1.7A5.856,5.856,0,0,1,67,361.057c.681-.341,9.6-3.968,9.6-3.968l11.472-2.281-11.02-.44-9.627,2.682s-3.841.434-2.985-2.8,12.6-6.806,12.6-6.806l14.974-1.03s-11.57-1.693-12.762-5.266a5.511,5.511,0,0,1,.851-5.615" transform="translate(-25.131 -131.106)" fill="#ffc09d"/>
    <path id="Trazado_73" data-name="Trazado 73" d="M151.01,356.49h.738l29.224-1.291,8.737,25.515-32.347-2.1Z" transform="translate(-59.005 -138.79)" fill="#ffc09d"/>
    <path id="Trazado_74" data-name="Trazado 74" d="M93.712,381.022a25.971,25.971,0,0,1-3.573.274c-2.2.133-5.239.391-8.564.892s-6.3,1.16-8.445,1.686a25.852,25.852,0,0,1-3.494.8,16.159,16.159,0,0,1,3.375-1.235,63.5,63.5,0,0,1,17.111-2.594,16.186,16.186,0,0,1,3.589.179" transform="translate(-27.21 -148.809)" fill="#ff9b6c"/>
    <path id="Trazado_75" data-name="Trazado 75" d="M54.909,250.093a8.7,8.7,0,0,1-.964-1.4c-.59-.919-1.432-2.255-2.517-3.876a142.086,142.086,0,0,0-9.052-12.238A69.438,69.438,0,0,0,31.6,221.9a58.259,58.259,0,0,0-5.282-3.418,8.651,8.651,0,0,1,1.578.643,15.5,15.5,0,0,1,1.758.956,22.768,22.768,0,0,1,2.216,1.455,62.053,62.053,0,0,1,11,10.63,113.241,113.241,0,0,1,8.942,12.4c1.041,1.657,1.825,3.034,2.351,3.994a8.679,8.679,0,0,1,.749,1.528" transform="translate(-10.283 -85.368)" fill="#1a2e35"/>
    <path id="Trazado_76" data-name="Trazado 76" d="M94.165,316.108a7.334,7.334,0,0,1-.656-1.418l-1.6-3.934c-1.339-3.324-3.214-7.9-5.4-12.916s-4.258-9.507-5.778-12.752l-1.792-3.848a7.28,7.28,0,0,1-.59-1.446,7.4,7.4,0,0,1,.813,1.334c.488.877,1.165,2.162,1.977,3.762,1.627,3.2,3.771,7.672,5.958,12.7s4,9.639,5.231,13.009c.617,1.685,1.1,3.056,1.406,4.011a7.329,7.329,0,0,1,.422,1.5" transform="translate(-30.616 -109.325)" fill="#1a2e35"/>
    <path id="Trazado_77" data-name="Trazado 77" d="M120.516,215.442a2.9,2.9,0,0,1-.739-.324l-2-1.058-7.069-3.911.414-.209c-.345,3.177-.929,6.888-1.513,10.843-.236,1.61-.458,3.18-.64,4.682l-.071.58-.443-.377c-3.782-3.218-7.069-6.048-9.4-8.09l-2.717-2.419a5.981,5.981,0,0,1-.934-.933,6,6,0,0,1,1.075.766l2.838,2.277c2.4,1.957,5.74,4.727,9.542,7.92l-.514.2c.174-1.513.391-3.089.628-4.7.586-3.962,1.2-7.663,1.6-10.814l.054-.423.361.214,6.953,4.111,1.928,1.192a2.891,2.891,0,0,1,.654.473" transform="translate(-37.277 -81.841)" fill="#1a2e35"/>
    <path id="Trazado_78" data-name="Trazado 78" d="M147.636,189.512a8.386,8.386,0,0,1,.057,1.674c-.021,1.2-.049,2.729-.082,4.555-.1,3.845-.276,9.154-.512,15.017-.005.144-.012.288-.017.427l-.042,1.025-.548-.865-7.027-11.076.44-.054c-.775,2.132-1.423,3.913-1.924,5.291a11.622,11.622,0,0,1-.8,1.921,11.588,11.588,0,0,1,.542-2.011c.448-1.4,1.027-3.2,1.719-5.361l.157-.489.283.436,7.152,11-.59.16c.005-.14.012-.283.017-.428.237-5.862.487-11.169.7-15.009.115-1.823.21-3.348.286-4.546a8.372,8.372,0,0,1,.192-1.664" transform="translate(-53.598 -74.05)" fill="#1a2e35"/>
    <path id="Trazado_79" data-name="Trazado 79" d="M217.086,216.978a4.682,4.682,0,0,1-.979-.52l.138-.1c.779,2.759,2.976,11.766,5.466,22.454,1.517,6.513,2.856,12.417,3.793,16.7l1.078,5.077a10.828,10.828,0,0,1,.31,1.881,10.931,10.931,0,0,1-.553-1.825c-.33-1.3-.759-2.993-1.276-5.031-1.05-4.254-2.459-10.142-3.976-16.656-2.489-10.688-4.5-19.738-5.019-22.558l-.041-.222.18.125a4.672,4.672,0,0,1,.88.673" transform="translate(-84.41 -84.47)" fill="#1a2e35"/>
    <path id="Trazado_80" data-name="Trazado 80" d="M111.884,402.233a3.7,3.7,0,0,1-.758.25l-2.2.6c-1.92.5-4.718,1.149-8.209,1.794a101.6,101.6,0,0,1-12.382,1.5,57.467,57.467,0,0,1-15.244-1.018,30.623,30.623,0,0,1-7.5-2.623,26.294,26.294,0,0,1-3.253-1.961,22.856,22.856,0,0,1-2.679-2.478,98.645,98.645,0,0,1-7.71-9.811c-2.043-2.9-3.615-5.3-4.683-6.972l-1.2-1.94a3.6,3.6,0,0,1-.378-.7,3.885,3.885,0,0,1,.486.633l1.3,1.872c1.131,1.626,2.758,3.986,4.844,6.846a105.877,105.877,0,0,0,7.77,9.669,22.658,22.658,0,0,0,2.61,2.389,26.047,26.047,0,0,0,3.178,1.9,30.394,30.394,0,0,0,7.359,2.556A58.38,58.38,0,0,0,88.3,405.779a109.44,109.44,0,0,0,12.334-1.353c3.489-.586,6.294-1.17,8.229-1.591l2.231-.478a3.747,3.747,0,0,1,.789-.124" transform="translate(-17.846 -148.036)" fill="#1a2e35"/>
    <g id="Grupo_23" data-name="Grupo 23" transform="translate(37.118 123.271)" opacity="0.3">
      <g id="Grupo_22" data-name="Grupo 22">
        <g id="Grupo_21" data-name="Grupo 21" clip-path="url(#clip-path-5)">
          <path id="Trazado_81" data-name="Trazado 81" d="M60.924,202.329l3.267,15.506,2.661-1.655-1.534,3.686,33.363,60.507L94.35,266.556,68.38,217.409l4.109-3.288h-6.9Z" transform="translate(-60.924 -202.329)"/>
        </g>
      </g>
    </g>
    <path id="Trazado_82" data-name="Trazado 82" d="M146.677,108.344s6.93,2.121,9.439.706-2.34-10.717-5.319-16.659" transform="translate(-57.312 -36.1)" fill="#ffc09d"/>
    <path id="Trazado_83" data-name="Trazado 83" d="M146.677,108.344a23.087,23.087,0,0,0,6.818,1.523,7.9,7.9,0,0,0,1.808-.136,3.463,3.463,0,0,0,.907-.31,1.584,1.584,0,0,0,.759-.789,3.752,3.752,0,0,0,.187-1.91,11.062,11.062,0,0,0-.368-1.755,38.223,38.223,0,0,0-2.671-6.464c-1.033-2.079-2.154-4.107-3.32-6.111.91,2.133,1.888,4.233,2.814,6.347a54.621,54.621,0,0,1,2.441,6.431,11.937,11.937,0,0,1,.336,1.641,3.078,3.078,0,0,1-.108,1.509.819.819,0,0,1-.416.438,3.243,3.243,0,0,1-.724.266,7.216,7.216,0,0,1-1.641.182,20.414,20.414,0,0,1-3.41-.255c-1.14-.16-2.276-.369-3.412-.605" transform="translate(-57.312 -36.1)" fill="#855a4c"/>
    <path id="Trazado_84" data-name="Trazado 84" d="M129.887,83.894c-.078,3.22-1.562,5.8-3.313,5.753s-3.109-2.687-3.031-5.906,1.562-5.8,3.314-5.753,3.108,2.687,3.03,5.907" transform="translate(-48.272 -30.473)" fill="#1d262d"/>
    <path id="Trazado_85" data-name="Trazado 85" d="M170.482,84.879c-.078,3.219-1.562,5.8-3.314,5.753s-3.108-2.687-3.03-5.907,1.562-5.8,3.313-5.753,3.109,2.687,3.031,5.907" transform="translate(-64.134 -30.857)" fill="#1d262d"/>
    <path id="Trazado_86" data-name="Trazado 86" d="M115.35,61.284s7.608-7.985,14.944,1.925a33.135,33.135,0,0,0-14.944-1.925" transform="translate(-45.072 -22.758)" fill="#564242"/>
    <path id="Trazado_87" data-name="Trazado 87" d="M157.117,66.588s7.607-7.985,14.943,1.925a33.131,33.131,0,0,0-14.943-1.925" transform="translate(-61.392 -24.83)" fill="#564242"/>
  </g>
</svg>
