<svg id="Grupo_100" data-name="Grupo 100" xmlns="http://www.w3.org/2000/svg" xmlns:xlink="http://www.w3.org/1999/xlink" width="438.106" height="623.183" viewBox="0 0 438.106 623.183">
  <defs>
    <clipPath id="clip-path">
      <rect id="Rectángulo_118" data-name="Rectángulo 118" width="438.106" height="623.183" fill="none"/>
    </clipPath>
    <clipPath id="clip-path-3">
      <rect id="Rectángulo_109" data-name="Rectángulo 109" width="16.285" height="35.246" fill="none"/>
    </clipPath>
    <clipPath id="clip-path-4">
      <rect id="Rectángulo_110" data-name="Rectángulo 110" width="50.972" height="32.655" fill="none"/>
    </clipPath>
    <clipPath id="clip-path-5">
      <rect id="Rectángulo_111" data-name="Rectángulo 111" width="10.246" height="25.64" fill="none"/>
    </clipPath>
    <clipPath id="clip-path-6">
      <rect id="Rectángulo_112" data-name="Rectángulo 112" width="8.133" height="48.888" fill="none"/>
    </clipPath>
    <clipPath id="clip-path-7">
      <rect id="Rectángulo_113" data-name="Rectángulo 113" width="31.107" height="38.425" fill="none"/>
    </clipPath>
    <clipPath id="clip-path-8">
      <rect id="Rectángulo_114" data-name="Rectángulo 114" width="30.301" height="37.482" fill="none"/>
    </clipPath>
    <clipPath id="clip-path-9">
      <rect id="Rectángulo_115" data-name="Rectángulo 115" width="36.524" height="14.935" fill="none"/>
    </clipPath>
    <clipPath id="clip-path-10">
      <rect id="Rectángulo_116" data-name="Rectángulo 116" width="32.115" height="64.329" fill="none"/>
    </clipPath>
  </defs>
  <g id="Grupo_99" data-name="Grupo 99" clip-path="url(#clip-path)">
    <g id="Grupo_98" data-name="Grupo 98">
      <g id="Grupo_97" data-name="Grupo 97" clip-path="url(#clip-path)">
        <path id="Trazado_284" data-name="Trazado 284" d="M105.85,224.146l-6.7,18.983s-31.023,28.48-35.6,66.629-4.577,46.463-4.577,46.463l9.608,111.267H275.391s6.851-89.938,4.309-115.371-17.307-54.211-17.307-54.211l-15.767-38.149-.466-19.2Z" transform="translate(40.96 155.696)" fill="#1a2e35"/>
        <path id="Trazado_285" data-name="Trazado 285" d="M82.892,236.5a9.173,9.173,0,0,0,1.449.317q1.548.272,4.182.739l15.411,2.528c13.023,2.084,31.03,4.848,50.957,7.639,19.937,2.776,38.025,5.009,51.152,6.318,6.56.673,11.879,1.117,15.558,1.379l4.24.266a9.246,9.246,0,0,0,1.481.032,9.291,9.291,0,0,0-1.468-.21l-4.223-.43c-3.669-.368-8.975-.9-15.523-1.657-13.1-1.466-31.166-3.8-51.1-6.572-19.92-2.789-37.939-5.455-50.984-7.382-6.462-.94-11.72-1.708-15.453-2.252l-4.208-.574a9.152,9.152,0,0,0-1.476-.141" transform="translate(57.578 164.269)" fill="#375a64"/>
        <path id="Trazado_286" data-name="Trazado 286" d="M152.15,276.223a8.859,8.859,0,0,0,.758,1.861c.534,1.174,1.371,2.845,2.459,4.88a141.123,141.123,0,0,0,20.986,29.241c1.579,1.683,2.894,3.01,3.837,3.891a8.672,8.672,0,0,0,1.518,1.313,8.763,8.763,0,0,0-1.273-1.552l-3.62-4.07c-3.032-3.455-7.083-8.351-11.176-14.047s-7.424-11.1-9.727-15.08l-2.7-4.733a8.865,8.865,0,0,0-1.064-1.7" transform="translate(105.681 191.869)" fill="#375a64"/>
        <path id="Trazado_287" data-name="Trazado 287" d="M10.633,108.973S6.39,180.255,5.117,188.318s5.516,18.244,5.516,18.244,15.7,1.7,26.307-17.821l6.789-15.275a97.266,97.266,0,0,1-3.818-40.308c2.545-22.913,3.818-33.521,3.818-33.521Z" transform="translate(3.444 69.21)" fill="#ffc09d"/>
        <path id="Trazado_288" data-name="Trazado 288" d="M19.928,59.866c-1.862,17.205-1.622,32.082,6.855,35.119.712.254,6.4.476,7.155.559,9.756,1.056,19.3-13.206,21.318-31.855S51,29.068,41.246,28.01a64.606,64.606,0,0,0-7.021-.683c-8.748,1.559-12.469,15.638-14.3,32.538" transform="translate(13.187 18.966)" fill="#375a64"/>
        <path id="Trazado_289" data-name="Trazado 289" d="M6.016,93.884s-7.153,2.374-5.858,9.281,5.858,19.147,5.858,19.147l8.885,9.853,32.272-9.853a19.9,19.9,0,0,0,2.2-9.649c-.217-5.4.014-18.78.014-18.78a32,32,0,0,1-5.843-12.3C42.465,76,41.684,69.514,41.455,67.518a.586.586,0,0,0-.708-.51,8.327,8.327,0,0,0-6.268,5.723c-1.727,5.4-1.295,6.907-1.295,6.907Z" transform="translate(0 46.535)" fill="#ffc09d"/>
        <path id="Trazado_290" data-name="Trazado 290" d="M19.492,72.317l4.614-7.37,4.84,3.735L19.972,86.423l-2.449-7.436Z" transform="translate(12.172 45.114)" fill="#375a64"/>
        <path id="Trazado_291" data-name="Trazado 291" d="M31.284,71.335s-5.048-7.627-9.734-3.994-3.606,5.8,0,12.467c0,0-9.193-1.262-7.031,8.471,0,0-9.115-1.791-8.883,6.045,0,0-7.521,6.214-4.276,10.9s15.682,13.7,19.108,12.618,3.845-5.768,3.845-5.768,4.086-1.442,5.348-3.425S29.3,103.6,29.3,103.6s3.6-3.113,4.506-3.989,0-5.385,0-5.385L28.94,88.641s7.031,3.786,8.653,2.7,3.425-1.983,1.983-4.326-6.814-7.766-6.814-7.766Z" transform="translate(0.38 46.095)" fill="#ffc09d"/>
        <path id="Trazado_292" data-name="Trazado 292" d="M21.449,101.094a25.2,25.2,0,0,0-2.147-3.1,28.057,28.057,0,0,0-6.221-6.743,65.184,65.184,0,0,1-7.167-5.507,36.211,36.211,0,0,1-2.361-2.876c-.092.019.31,1.508,1.906,3.3,1.547,1.828,4.253,3.7,7.089,5.785a33.993,33.993,0,0,1,6.26,6.419,11.9,11.9,0,0,0,2.64,2.723" transform="translate(2.46 57.556)" fill="#ff9b6c"/>
        <path id="Trazado_293" data-name="Trazado 293" d="M23.589,96c.186-.158-2.9-4.1-6.885-8.815-2-2.323-3.7-4.56-5.211-5.968C10.017,79.78,8.846,79.2,8.794,79.3c-.073.114.932.846,2.25,2.35,1.347,1.471,2.959,3.755,4.987,6.1,3.987,4.711,7.372,8.4,7.558,8.246" transform="translate(6.106 55.076)" fill="#ff9b6c"/>
        <path id="Trazado_294" data-name="Trazado 294" d="M20.3,83.294c.191-.205-1.762-2.044-3.9-4.453-2.179-2.4-3.135-4.848-3.366-4.781-.256.034.413,2.84,2.7,5.357,2.225,2.5,4.431,4.03,4.569,3.877" transform="translate(9.019 51.442)" fill="#ff9b6c"/>
        <path id="Trazado_295" data-name="Trazado 295" d="M29.943,84.968A6.33,6.33,0,0,0,26.937,86.2a17.162,17.162,0,0,0-5.367,5.713,32.664,32.664,0,0,0-3.06,7.18,10.98,10.98,0,0,0-.722,3.144A12.669,12.669,0,0,0,19.1,99.3a46.873,46.873,0,0,1,3.228-6.933,19.607,19.607,0,0,1,4.964-5.653C28.847,85.551,30,85.1,29.943,84.968" transform="translate(12.338 59.008)" fill="#ff9b6c"/>
        <path id="Trazado_296" data-name="Trazado 296" d="M17.455,59.491c-2.018,18.649,3.094,34.5,11.418,35.4S45.583,81.4,47.6,62.754s-3.094-34.5-11.418-35.4S19.474,40.842,17.455,59.491" transform="translate(11.819 18.974)" fill="#1a2e35"/>
        <path id="Trazado_297" data-name="Trazado 297" d="M30.351,94.081C22.552,90.17,17.9,75.827,19.675,59.4,21.442,43.068,28.987,30.1,37.387,27.844,44,31.618,47.76,45.87,45.98,62.3c-1.767,16.329-8.414,29.39-15.629,31.783" transform="translate(13.404 19.341)" fill="#e1e1e1"/>
        <path id="Trazado_298" data-name="Trazado 298" d="M25.648,72.126c.244.015.868-7.139,1.393-15.977s.756-16.018.513-16.031S26.687,47.256,26.16,56.1s-.756,16.016-.512,16.029" transform="translate(17.748 27.867)" fill="#fff"/>
        <path id="Trazado_299" data-name="Trazado 299" d="M27.346,65.247A20.91,20.91,0,0,0,28.21,60.8c.393-2.766.8-6.607,1.037-10.866s.242-8.124.153-10.917a21,21,0,0,0-.375-4.511,25.52,25.52,0,0,0-.249,4.513c-.071,2.784-.18,6.626-.41,10.866s-.542,8.071-.776,10.846a25.654,25.654,0,0,0-.244,4.514" transform="translate(18.962 23.97)" fill="#fff"/>
        <path id="Trazado_300" data-name="Trazado 300" d="M31.453,71.4a2.392,2.392,0,0,0,.049.537c.063.4.141.908.237,1.537q.361,2.123,1,5.877l.01.056.042.044c.988,1.027,2.093,2.2,3.286,3.532a31.606,31.606,0,0,1,3.586,4.54,2.219,2.219,0,0,1,.288,1.371,2.13,2.13,0,0,1-.817,1.186,14.363,14.363,0,0,1-1.39.964,1.964,1.964,0,0,1-1.5.168,28.255,28.255,0,0,1-6.972-2.822l-1.649-.849,1.21,1.4c1.532,1.771,3.16,3.655,4.847,5.606l-.069-.12c.532,1.695.781,3.806-.18,5.392a15.043,15.043,0,0,1-4.538,3.906l-.381.241.259.366c1.039,1.459,1.674,3.681.056,4.884a19.72,19.72,0,0,1-5.292,3l.591.4v-.132l0,.007c-.12.119.273-.285-.283.354-1.144-.663-.327-.261-.578-.375v.007l-.008.2-.041.432a7.9,7.9,0,0,1-.154.861,6.8,6.8,0,0,1-.6,1.635,4.435,4.435,0,0,1-1.056,1.325,2.631,2.631,0,0,1-1.435.671,8.369,8.369,0,0,1-3.433-.981,31.165,31.165,0,0,1-3.335-1.851,57.079,57.079,0,0,1-5.855-4.25,36.122,36.122,0,0,1-5.023-4.882,4.385,4.385,0,0,1-1.168-2.9,6.765,6.765,0,0,1,.829-3.06,17.757,17.757,0,0,1,4.076-4.97l.142-.127.008-.205a6.675,6.675,0,0,1,.566-3.006,4.524,4.524,0,0,1,2.045-2.04,9.978,9.978,0,0,1,5.785-.612l.527.08-.083-.535c-.09-.588-.207-1.171-.278-1.747a9.569,9.569,0,0,1,.01-1.708A4.726,4.726,0,0,1,16,81.881c1.446-1.542,3.769-1.852,5.679-1.688l.617.053L22,79.715a51.522,51.522,0,0,1-2.566-5.1,7.2,7.2,0,0,1-.554-2.466,3.951,3.951,0,0,1,.663-2.2,10.012,10.012,0,0,1,3.169-2.91A4.278,4.278,0,0,1,26.2,66.98a11.6,11.6,0,0,1,4.069,3.05c.4.434.685.788.881,1.02a2.086,2.086,0,0,0,.305.347,1.471,1.471,0,0,0-.229-.4,13,13,0,0,0-.817-1.088,14.093,14.093,0,0,0-1.532-1.6,8.829,8.829,0,0,0-2.545-1.662,4.65,4.65,0,0,0-3.806,0l-.939.573c-.281.227-.569.461-.864.7a9.137,9.137,0,0,0-1.606,1.757,4.47,4.47,0,0,0-.781,2.476,7.644,7.644,0,0,0,.558,2.677,51.01,51.01,0,0,0,2.542,5.2l.33-.476a9.677,9.677,0,0,0-3.257.188,5.97,5.97,0,0,0-3.03,1.661,5.447,5.447,0,0,0-1.417,3.327,10.4,10.4,0,0,0-.024,1.852c.069.613.186,1.227.281,1.849l.444-.456a10.681,10.681,0,0,0-6.289.644,5.33,5.33,0,0,0-2.417,2.394A7.475,7.475,0,0,0,5.392,94.4l.149-.33a18.445,18.445,0,0,0-4.306,5.219,7.6,7.6,0,0,0-.932,3.46A5.439,5.439,0,0,0,.664,104.6a7.966,7.966,0,0,0,.986,1.574A36.616,36.616,0,0,0,6.8,111.193a57.826,57.826,0,0,0,5.945,4.32,31.965,31.965,0,0,0,3.432,1.9,9.033,9.033,0,0,0,3.86,1.059,4.369,4.369,0,0,0,3.208-2.462,7.692,7.692,0,0,0,.676-1.847,9.216,9.216,0,0,0,.168-.954l.044-.485.008-.256v-.053l0-.014c-.251-.117.568.283-.578-.381-.558.635-.166.234-.286.354l0,.037,0,.085,0,.125,0,.649.588-.252a20.274,20.274,0,0,0,5.552-3.184,4.108,4.108,0,0,0,1.02-1.362,3.409,3.409,0,0,0,.215-1.7,6.556,6.556,0,0,0-1.2-2.945l-.12.6a15.612,15.612,0,0,0,4.8-4.2,5.619,5.619,0,0,0,.751-3.091,9.927,9.927,0,0,0-.53-2.986l-.022-.064-.049-.056-4.887-5.57-.439.547a28.5,28.5,0,0,0,7.209,2.83,2.6,2.6,0,0,0,1.942-.281A14.68,14.68,0,0,0,39.53,90.54a2.7,2.7,0,0,0,1-1.545,2.75,2.75,0,0,0-.363-1.734,30.861,30.861,0,0,0-3.733-4.6c-1.222-1.313-2.352-2.471-3.367-3.479l.053.1c-.507-2.5-.9-4.459-1.19-5.87-.136-.619-.246-1.115-.332-1.51a2.033,2.033,0,0,0-.144-.5" transform="translate(0.21 46.008)" fill="#ff9b6c"/>
        <path id="Trazado_301" data-name="Trazado 301" d="M184.6,287.621l64-79.464s34.036,28.658,34.936,29.558-53.236,53.563-88,73.951L184.6,304.43Z" transform="translate(128.223 144.589)" fill="#ffc09d"/>
        <path id="Trazado_302" data-name="Trazado 302" d="M156.871,240.895s20.207-3.191,22.067-1.861,15.687,10.635,15.687,10.635a75.364,75.364,0,0,0,6.116,8.241s4.52,5.318,7.977,5.85a15.467,15.467,0,0,0,5.582,0l9.041,24.992s-6.912,7.178-11.168,6.646-26.853-13.026-26.853-13.026l-5.584-1.862s-21.8.8-22.865-5.848V272.8l21.537-1.861,7.975,1.33-13.825-5.2s-20.207-1.181-22.067-1.713S146.5,261.9,147.3,260.3l4.253-.53s-4.589-3.174-4.426-6.1l19.127-3.035s-11.51-5.757-9.383-9.744" transform="translate(102.194 165.812)" fill="#ffc09d"/>
        <path id="Trazado_303" data-name="Trazado 303" d="M148.439,252.62a7.823,7.823,0,0,0,1.752-.244c1.115-.2,2.733-.464,4.738-.761,4.009-.593,9.57-1.295,15.721-1.983a19.765,19.765,0,0,1,2.227-.188,6.759,6.759,0,0,1,2.052.368c1.3.512,2.61,1.125,3.813,1.678,2.423,1.13,4.567,2.23,6.326,3.223a47.546,47.546,0,0,1,4.045,2.542,9.648,9.648,0,0,0,1.451,1,5.3,5.3,0,0,0-1.239-1.274,31.963,31.963,0,0,0-3.94-2.81c-1.737-1.074-3.871-2.24-6.294-3.42-1.227-.588-2.462-1.19-3.877-1.761a7.507,7.507,0,0,0-2.317-.427,19.3,19.3,0,0,0-2.344.188c-6.165.688-11.727,1.49-15.728,2.244-2,.378-3.61.735-4.709,1.04a6.147,6.147,0,0,0-1.678.58" transform="translate(103.108 172.658)" fill="#ff9b6c"/>
        <path id="Trazado_304" data-name="Trazado 304" d="M158.081,247.178c.058.139,1.559-.524,4.115-1.017a22.416,22.416,0,0,1,18.919,4.9c1.993,1.673,2.984,2.979,3.1,2.886a10.744,10.744,0,0,0-2.689-3.354,20.971,20.971,0,0,0-19.468-5.047,10.742,10.742,0,0,0-3.979,1.627" transform="translate(109.805 170.128)" fill="#ff9b6c"/>
        <path id="Trazado_305" data-name="Trazado 305" d="M6.565,185.688S2.672,192.7,2.672,199.33s3.876,18.222,3.876,18.222l4.821,4.555S8.2,236.6,26.559,240.743s121.1-54.919,121.1-54.919l2.862-78.432s-14.909,6.212-25.675,16.98-72.06,55.909-72.06,55.909-2.491-15.992-5.252-14.935S6.565,185.688,6.565,185.688" transform="translate(1.856 74.596)" fill="#e1e1e1"/>
        <path id="Trazado_306" data-name="Trazado 306" d="M94.633,118.587l55.6-11.827,14.474-14.875,63.941-.61,7.7,14,47.91,29.136s-12.066,79.8-16.467,89.1S228.5,335.422,228.5,335.422L89.114,318.793l-1.193-64.406-4.03-31.164a92.389,92.389,0,0,1-.4-20.1c2.608-29.149,11.14-84.534,11.14-84.534" transform="translate(57.74 63.401)" fill="#e1e1e1"/>
        <path id="Trazado_307" data-name="Trazado 307" d="M227.481,290.824l45.687,31.333L289.133,299.4l-4.265-3.793s23.574-19.486,22.152-33.235-26.28-49.1-26.28-49.1-53.258-87.186-69.764-96.534c-2.31-1.308-22.345,47.08-22.345,66.043s3.793,18.963,3.793,18.963,16.119,15.645,23.7,29.866,20.466,29.708,29,35.4Z" transform="translate(131.026 81.07)" fill="#e1e1e1"/>
        <path id="Trazado_308" data-name="Trazado 308" d="M248.165,198.869a3.377,3.377,0,0,0-1.232-.124,22.874,22.874,0,0,0-3.359.186,32.971,32.971,0,0,0-10.61,3.218,35.07,35.07,0,0,0-9.009,6.467,15.241,15.241,0,0,0-2.915,3.543c.21.242,4.613-5.419,12.316-9.22a38.271,38.271,0,0,1,10.308-3.389c2.754-.478,4.5-.53,4.5-.681" transform="translate(153.536 138.045)" fill="#1a2e35"/>
        <path id="Trazado_309" data-name="Trazado 309" d="M233.7,189.71a13.7,13.7,0,0,0-3.4,2.889,31.5,31.5,0,0,0-5.891,9.024,32.191,32.191,0,0,0-2.557,10.469,13.963,13.963,0,0,0,.185,4.457c.151-.005.114-1.7.437-4.4a37.564,37.564,0,0,1,2.745-10.178,36.651,36.651,0,0,1,5.546-8.959c1.752-2.071,3.03-3.189,2.932-3.3" transform="translate(154.066 131.773)" fill="#1a2e35"/>
        <path id="Trazado_310" data-name="Trazado 310" d="M125.705,160.432a11.737,11.737,0,0,0-.413,2.308,22.948,22.948,0,0,0-.268,2.74c-.051,1.071-.169,2.293-.112,3.645a42.549,42.549,0,0,0,.208,4.421c.09,1.593.383,3.271.652,5.041a58.264,58.264,0,0,0,8.515,21.544c1.015,1.476,1.949,2.9,2.971,4.125a42.7,42.7,0,0,0,2.871,3.369c.883,1.027,1.806,1.837,2.576,2.584a22.934,22.934,0,0,0,2.067,1.817,11.941,11.941,0,0,0,1.879,1.4c.122-.142-2.517-2.2-6.058-6.219-.88-1.01-1.835-2.12-2.755-3.4-.985-1.227-1.883-2.649-2.866-4.118a61.017,61.017,0,0,1-8.4-21.254c-.286-1.742-.6-3.394-.724-4.964-.2-1.561-.266-3.023-.314-4.362-.161-5.353.354-8.661.169-8.682" transform="translate(86.755 111.439)" fill="#1a2e35"/>
        <path id="Trazado_311" data-name="Trazado 311" d="M127.41,172.362a8.16,8.16,0,0,0,1.085-.813c.7-.547,1.684-1.407,3.03-2.425,2.639-2.1,6.58-5,11.567-8.441s11.039-7.421,17.736-11.937A215.184,215.184,0,0,0,182,132.965l-.651-.075c.71,1.015,1.435,2.128,2.12,3.279a48.467,48.467,0,0,1,5.835,15.458l.254,1.344.558-1.246a215.718,215.718,0,0,0,12.518-36.954c1.139-4.728,1.9-8.536,2.359-11.164.244-1.31.381-2.332.486-3.02a5.544,5.544,0,0,0,.114-1.054,5.649,5.649,0,0,0-.263,1.029c-.159.752-.366,1.745-.627,2.989-.544,2.606-1.393,6.389-2.6,11.086a229.964,229.964,0,0,1-12.764,36.733l.812.1a48.934,48.934,0,0,0-5.919-15.748c-.7-1.171-1.435-2.306-2.161-3.34l-.28-.4-.373.325a223.527,223.527,0,0,1-21.034,15.779c-6.663,4.55-12.688,8.576-17.634,12.1s-8.849,6.494-11.43,8.68c-1.317,1.061-2.269,1.964-2.933,2.554a8.165,8.165,0,0,0-.971.944" transform="translate(88.501 69.138)" fill="#1a2e35"/>
        <path id="Trazado_312" data-name="Trazado 312" d="M129.434,100.414a3.4,3.4,0,0,0-.464.7c-.28.475-.7,1.173-1.2,2.1-1.025,1.84-2.449,4.553-4.108,8A136.319,136.319,0,0,0,113.332,140l-.261,1.168.949-.737a62.541,62.541,0,0,0,12.366-12.8l-.791-.234c.551,9.79,1.052,18.732,1.464,26.07l.005.081.037.068,7.4,13.272q1.291,2.25,2.079,3.623a7.956,7.956,0,0,0,.79,1.237,7.667,7.667,0,0,0-.61-1.335l-1.915-3.713-7.133-13.418.041.149c-.361-7.341-.8-16.287-1.285-26.08l-.061-1.239-.73,1a62.866,62.866,0,0,1-12.188,12.632l.688.43a145.654,145.654,0,0,1,9.993-28.731c1.584-3.472,2.928-6.218,3.867-8.1.434-.88.788-1.595,1.069-2.164a3.437,3.437,0,0,0,.327-.774" transform="translate(78.541 69.749)" fill="#1a2e35"/>
        <path id="Trazado_313" data-name="Trazado 313" d="M82.906,183.831c.242.024,1.717-13.415,3.291-30.01s2.654-30.074,2.411-30.1-1.715,13.411-3.291,30.013-2.654,30.071-2.411,30.093" transform="translate(57.564 85.941)" fill="#1a2e35"/>
        <path id="Trazado_314" data-name="Trazado 314" d="M24.548,173.971a14.3,14.3,0,0,0,2.969-2.833,44.944,44.944,0,0,0,5.675-8.122,44.79,44.79,0,0,0,3.76-9.17,14.155,14.155,0,0,0,.776-4.028c-.276-.078-1.613,6.068-5.313,12.776-3.638,6.736-8.083,11.188-7.868,11.378" transform="translate(17.046 104.065)" fill="#1a2e35"/>
        <path id="Trazado_315" data-name="Trazado 315" d="M29.463,177.736c.049.036.342-.307.834-.961a21.059,21.059,0,0,0,1.822-2.942,30.629,30.629,0,0,0,2.311-22.281A21.115,21.115,0,0,0,33.25,148.3c-.346-.741-.563-1.134-.619-1.11-.144.059.547,1.72,1.193,4.518a34.663,34.663,0,0,1,.681,11.115,34.6,34.6,0,0,1-2.949,10.737c-1.2,2.6-2.223,4.089-2.095,4.177" transform="translate(20.457 102.239)" fill="#1a2e35"/>
        <path id="Trazado_316" data-name="Trazado 316" d="M211.409,145.6a8.166,8.166,0,0,0-.915,1.7l-2.242,4.745c-2,4.189-4.586,9.624-7.448,15.635-2.916,6.107-5.482,11.678-7.222,15.76-.873,2.042-1.552,3.7-1.988,4.867a8,8,0,0,0-.6,1.839,8.271,8.271,0,0,0,.915-1.7q.915-1.937,2.242-4.747c1.995-4.187,4.584-9.624,7.45-15.636,2.913-6.106,5.479-11.674,7.221-15.758.871-2.04,1.552-3.7,1.988-4.865a8.116,8.116,0,0,0,.6-1.839" transform="translate(132.661 101.134)" fill="#1a2e35"/>
        <path id="Trazado_317" data-name="Trazado 317" d="M106.147,200.462a9.788,9.788,0,0,0,.5,2.061c.371,1.31.963,3.189,1.735,5.5,1.544,4.618,3.882,10.934,6.828,17.76s5.948,12.857,8.254,17.146c1.151,2.145,2.115,3.864,2.815,5.033a9.734,9.734,0,0,0,1.159,1.774,9.9,9.9,0,0,0-.857-1.939c-.685-1.379-1.544-3.1-2.562-5.155-2.159-4.353-5.055-10.407-8-17.211s-5.358-13.062-7.05-17.617c-.795-2.147-1.462-3.955-2-5.4a9.766,9.766,0,0,0-.824-1.952" transform="translate(73.724 139.244)" fill="#1a2e35"/>
        <path id="Trazado_318" data-name="Trazado 318" d="M106.732,217.223a11.571,11.571,0,0,0,1.352,3.137,64.5,64.5,0,0,0,9.454,13.44,11.67,11.67,0,0,0,2.5,2.333c.193-.18-3.274-4.038-6.931-9.259-3.677-5.2-6.138-9.771-6.372-9.651" transform="translate(74.128 150.885)" fill="#1a2e35"/>
        <path id="Trazado_319" data-name="Trazado 319" d="M112.583,269.223a7.5,7.5,0,0,0,.192-1.308q.142-1.416.378-3.764c.29-3.272.766-8,1.379-13.838,1.281-11.667,3.264-27.778,6.667-45.36a424.047,424.047,0,0,1,10.973-44.5c.835-2.813,1.656-5.338,2.383-7.553.707-2.223,1.337-4.13,1.881-5.679q.75-2.242,1.2-3.586a7.4,7.4,0,0,0,.361-1.273,7.352,7.352,0,0,0-.529,1.212q-.511,1.327-1.356,3.532c-.593,1.534-1.273,3.427-2.025,5.636-.771,2.2-1.635,4.718-2.51,7.524a379.678,379.678,0,0,0-11.245,44.523c-3.408,17.619-5.3,33.77-6.421,45.465-.534,5.852-.915,10.593-1.1,13.874-.088,1.574-.158,2.83-.212,3.777a7.533,7.533,0,0,0-.014,1.322" transform="translate(78.189 98.885)" fill="#1a2e35"/>
        <path id="Trazado_320" data-name="Trazado 320" d="M111.7,230.292c.259-.095-1.435-3.5-1.079-7.994.276-4.5,2.433-7.633,2.189-7.763-.083-.061-.744.627-1.466,1.976a14.771,14.771,0,0,0-.819,11.62c.527,1.437,1.083,2.21,1.174,2.161" transform="translate(76.202 149.017)" fill="#1a2e35"/>
        <path id="Trazado_321" data-name="Trazado 321" d="M112.68,230.631c.244-.014.376-1.1.3-2.432s-.339-2.395-.583-2.381-.376,1.1-.3,2.432.341,2.395.583,2.381" transform="translate(77.849 156.857)" fill="#1a2e35"/>
        <path id="Trazado_322" data-name="Trazado 322" d="M220.07,209.32a10,10,0,0,0,2.027.691c1.318.375,3.211.976,5.521,1.79,2.322.781,5.021,1.895,7.99,3.179,2.947,1.339,6.138,2.918,9.4,4.736a139.58,139.58,0,0,1,15.977,10.527c1.952,1.485,3.515,2.711,4.582,3.576a10,10,0,0,0,1.727,1.266,10.07,10.07,0,0,0-1.5-1.527c-1-.947-2.508-2.252-4.42-3.806a115.067,115.067,0,0,0-15.931-10.807c-3.289-1.832-6.518-3.4-9.507-4.709-3.011-1.256-5.755-2.315-8.119-3.027-2.35-.744-4.282-1.256-5.633-1.532a10.005,10.005,0,0,0-2.113-.358" transform="translate(152.864 145.387)" fill="#1a2e35"/>
        <path id="Trazado_323" data-name="Trazado 323" d="M221.121,209.455c.005.154,2.32.081,6.021.407a62.9,62.9,0,0,1,14.152,2.981A76.909,76.909,0,0,1,254.5,218.8c3.235,1.839,5.157,3.127,5.238,3.008a5.761,5.761,0,0,0-1.246-1.052c-.83-.641-2.084-1.5-3.674-2.491a63.975,63.975,0,0,0-13.247-6.263,54.316,54.316,0,0,0-14.387-2.766,37.2,37.2,0,0,0-4.445.014,5.752,5.752,0,0,0-1.62.2" transform="translate(153.594 145.301)" fill="#1a2e35"/>
        <g id="Grupo_75" data-name="Grupo 75" transform="translate(324.992 252.794)" opacity="0.3">
          <g id="Grupo_74" data-name="Grupo 74">
            <g id="Grupo_73" data-name="Grupo 73" clip-path="url(#clip-path-3)">
              <path id="Trazado_324" data-name="Trazado 324" d="M207.674,149.175a36.251,36.251,0,0,1-15.9,35.246c3.991-10.168,10.915-24.784,15.9-35.246" transform="translate(-191.779 -149.175)"/>
            </g>
          </g>
        </g>
        <g id="Grupo_78" data-name="Grupo 78" transform="translate(225.142 201.71)" opacity="0.3">
          <g id="Grupo_77" data-name="Grupo 77">
            <g id="Grupo_76" data-name="Grupo 76" clip-path="url(#clip-path-4)">
              <path id="Trazado_325" data-name="Trazado 325" d="M183.829,130.525a38.548,38.548,0,0,1-8.693,11.559q.084-4.631.169-9.264-21.223,9.433-42.448,18.864l45.565-32.655c2.488,4.186,2.92,7.311,5.408,11.5" transform="translate(-132.857 -119.031)"/>
            </g>
          </g>
        </g>
        <g id="Grupo_81" data-name="Grupo 81" transform="translate(195.679 197.126)" opacity="0.3">
          <g id="Grupo_80" data-name="Grupo 80">
            <g id="Grupo_79" data-name="Grupo 79" clip-path="url(#clip-path-5)">
              <path id="Trazado_326" data-name="Trazado 326" d="M117.53,125.188c1.817-2.852,6.834-8.863,6.834-8.863.161,4.448.549,10.535.71,14.984l.641,10.656c-.658-3.713-1.147-10.885-1.8-14.6q-3.948,3.739-7.9,7.482c-1.193-3.164-.3-6.811,1.517-9.663" transform="translate(-115.471 -116.325)"/>
            </g>
          </g>
        </g>
        <g id="Grupo_84" data-name="Grupo 84" transform="translate(137.806 216.904)" opacity="0.3">
          <g id="Grupo_83" data-name="Grupo 83">
            <g id="Grupo_82" data-name="Grupo 82" clip-path="url(#clip-path-6)">
              <path id="Trazado_327" data-name="Trazado 327" d="M89.453,128l-5.409,48.888c-2.359-15.9-6.687-24.547,5.409-48.888" transform="translate(-81.32 -127.996)"/>
            </g>
          </g>
        </g>
        <g id="Grupo_87" data-name="Grupo 87" transform="translate(23.516 254.679)" opacity="0.3">
          <g id="Grupo_86" data-name="Grupo 86">
            <g id="Grupo_85" data-name="Grupo 85" clip-path="url(#clip-path-7)">
              <path id="Trazado_328" data-name="Trazado 328" d="M15.562,182.99c2.034-1.686,6.529-2.737,8.849-4,10.527-5.718,16.107-16.19,20.21-27.444l.363-1.261c-.42,15.092-9.986,31.222-23.757,37.41a8.065,8.065,0,0,1-4.516.954c-1.54-.252-3-1.618-2.818-3.169a4.094,4.094,0,0,1,1.669-2.493" transform="translate(-13.877 -150.287)"/>
            </g>
          </g>
        </g>
        <g id="Grupo_90" data-name="Grupo 90" transform="translate(213.19 292.767)" opacity="0.3">
          <g id="Grupo_89" data-name="Grupo 89">
            <g id="Grupo_88" data-name="Grupo 88" clip-path="url(#clip-path-8)">
              <path id="Trazado_329" data-name="Trazado 329" d="M156.106,209.294c-17.421-5.78-25.823-22.188-30.29-36.531a57.816,57.816,0,0,0,2.218,18.432c1.886,5.924,5.328,11.488,10.385,15.1s11.825,5.064,17.687,2.994" transform="translate(-125.804 -172.763)"/>
            </g>
          </g>
        </g>
        <g id="Grupo_93" data-name="Grupo 93" transform="translate(376.323 355.534)" opacity="0.3">
          <g id="Grupo_92" data-name="Grupo 92">
            <g id="Grupo_91" data-name="Grupo 91" clip-path="url(#clip-path-9)">
              <path id="Trazado_330" data-name="Trazado 330" d="M222.07,210.1a50.61,50.61,0,0,1,35.272,11.384c.717.595,1.491,1.454,1.183,2.334a1.623,1.623,0,0,1-1.72.913,4.874,4.874,0,0,1-1.923-.8A151.631,151.631,0,0,0,222.07,209.8" transform="translate(-222.07 -209.803)"/>
            </g>
          </g>
        </g>
        <g id="Grupo_96" data-name="Grupo 96" transform="translate(166.595 320.84)" opacity="0.3">
          <g id="Grupo_95" data-name="Grupo 95">
            <g id="Grupo_94" data-name="Grupo 94" clip-path="url(#clip-path-10)">
              <path id="Trazado_331" data-name="Trazado 331" d="M98.993,190.3c1.12-1.373,3.4-1.186,4.792-.086a10.33,10.33,0,0,1,2.771,4.464q10.346,25.681,20.693,51.364l3.174,7.617q-10.849-18.182-21.7-36.366c-4.328-7.256-8.734-14.714-10.239-23.026-.246-1.356-.366-2.9.505-3.965" transform="translate(-98.308 -189.329)"/>
            </g>
          </g>
        </g>
        <path id="Trazado_332" data-name="Trazado 332" d="M232.609,33.161c-12.838-17.91-34.1-28.393-55.775-32.367-9.119-1.671-15.1-.459-24.186,1.379S135.2,8.291,129.383,15.515c-6.9,8.58-12.864,18.3-14.758,29.149-1.945,11.144-3.9,22.362-3.771,33.674s2.461,22.843,8.505,32.4l28.326,6.807c15.785,1.549,31.791,3.093,47.432.468s31.145-9.959,40.262-22.938c12.664-18.032,10.068-44.009-2.771-61.918" transform="translate(76.997 0)" fill="#1a2e35"/>
        <path id="Trazado_333" data-name="Trazado 333" d="M129.969,86.187c.053.071-.512.676-1.806,1.393a14.063,14.063,0,0,1-6.028,1.617,15.347,15.347,0,0,1-8.988-2.427,15.311,15.311,0,0,1-4.209-20.737,15.337,15.337,0,0,1,7.329-5.741,14.114,14.114,0,0,1,6.182-.863,4.377,4.377,0,0,1,2.2.58c0,.342-3.313-.583-7.932,1.407a14.776,14.776,0,0,0-6.46,5.477,14.1,14.1,0,0,0,3.771,18.57,14.777,14.777,0,0,0,8.085,2.523c5.028.031,7.719-2.113,7.853-1.8" transform="translate(74.025 41.238)" fill="#e1e1e1"/>
        <path id="Trazado_334" data-name="Trazado 334" d="M213.613,75.666c-.3-6.509-3.279-13.076-8.666-16.739s-13.23-3.823-18.182.412l-4.843,5.077c-7.246,2.552-12.193,10.29-11.827,17.965a20.3,20.3,0,0,0,12.989,17.473,22.471,22.471,0,0,0,21.683-3.8,25.194,25.194,0,0,0,8.846-20.391" transform="translate(118.137 39.016)" fill="#1a2e35"/>
        <path id="Trazado_335" data-name="Trazado 335" d="M199.944,91.936c-.2-.11,1.9-1.817,1.9-5.6-.007-3.681-2.361-8.658-5.733-13.3a38.854,38.854,0,0,0-10.89-9.936c-3.242-2.015-5.506-2.822-5.419-3.05.037-.137,2.447.337,5.914,2.186A34.6,34.6,0,0,1,197.246,72.2a33.988,33.988,0,0,1,4.181,7.339,15.5,15.5,0,0,1,1.418,6.829,8.092,8.092,0,0,1-1.574,4.459c-.707.888-1.278,1.174-1.327,1.11" transform="translate(124.895 41.698)" fill="#375a64"/>
        <path id="Trazado_336" data-name="Trazado 336" d="M186.123,98.346c-.466-.058,2.035-8.593-.068-19-1.951-10.439-7.47-17.412-7.06-17.639.122-.1,1.659,1.473,3.513,4.492A39.943,39.943,0,0,1,187.7,92.863c-.586,3.494-1.423,5.531-1.573,5.484" transform="translate(124.318 42.861)" fill="#375a64"/>
        <path id="Trazado_337" data-name="Trazado 337" d="M142.092,159.794c.834-10.039,1.595-18.254,1.591-18.209,0,0-23.191-4.064-27.732-34.411-2.257-15.092-1.279-39.795.175-59.981,1.308-18.171,18.37-41.937,40.822-40.583L167,6.089l37.215,17.617a10.662,10.662,0,0,1,9.441,10.9L205.5,164.414,136.3,237.27l-3.97-20.554Z" transform="translate(79.613 4.23)" fill="#ffc09d"/>
        <path id="Trazado_338" data-name="Trazado 338" d="M147.774,65.73a6.386,6.386,0,0,0-1.952-4.072,6.529,6.529,0,0,0-7.871-.956,8.745,8.745,0,0,0-3.837,7.978,7.943,7.943,0,0,0,5.465,3.654,9.309,9.309,0,0,0,1.063.1,7.13,7.13,0,0,0,4.921-1.593,6.362,6.362,0,0,0,2.211-5.113" transform="translate(93.139 41.537)" fill="#ff9b6c"/>
        <path id="Trazado_339" data-name="Trazado 339" d="M120.229,43.926a3.887,3.887,0,0,0,3.713,3.955,3.717,3.717,0,0,0,4.038-3.467,3.889,3.889,0,0,0-3.71-3.957,3.72,3.72,0,0,0-4.042,3.469" transform="translate(83.511 28.097)" fill="#1a2e35"/>
        <path id="Trazado_340" data-name="Trazado 340" d="M119.494,38.887c.478.512,3.442-1.64,7.624-1.593,4.177-.012,7.228,2.167,7.687,1.659.225-.225-.259-1.144-1.586-2.128a10.668,10.668,0,0,0-6.148-1.956A10.244,10.244,0,0,0,121,36.77c-1.293.974-1.739,1.888-1.5,2.117" transform="translate(82.96 24.221)" fill="#1a2e35"/>
        <path id="Trazado_341" data-name="Trazado 341" d="M138.091,71.134c.022-.237-2.574-.71-6.782-1.286-1.066-.12-2.076-.341-2.249-1.071-.244-.774.212-1.922.741-3.159l3.232-8.105c4.489-11.537,7.75-21.03,7.283-21.2s-4.484,9.032-8.973,20.569q-1.622,4.27-3.1,8.153c-.415,1.212-1.122,2.581-.591,4.187a2.683,2.683,0,0,0,1.742,1.578,7.274,7.274,0,0,0,1.812.268c4.238.266,6.867.308,6.885.071" transform="translate(88.537 25.218)" fill="#1a2e35"/>
        <path id="Trazado_342" data-name="Trazado 342" d="M132.025,90.335a77.084,77.084,0,0,0,40.681-10.463s-11,20.908-41.3,17.8Z" transform="translate(91.273 55.48)" fill="#ff9b6c"/>
        <path id="Trazado_343" data-name="Trazado 343" d="M146.487,58.63c-.68-.046-.729,4.494-4.643,7.682s-8.743,2.644-8.783,3.277c-.066.285,1.069.893,3.111.966a11.3,11.3,0,0,0,7.329-2.481,9.834,9.834,0,0,0,3.6-6.441c.19-1.9-.3-3.027-.617-3" transform="translate(92.424 40.725)" fill="#1a2e35"/>
        <path id="Trazado_344" data-name="Trazado 344" d="M120.674,28.8c.727.956,3.618,0,7.082-.019,3.464-.137,6.392.695,7.077-.293.3-.48-.154-1.435-1.427-2.345A10.253,10.253,0,0,0,122,26.4c-1.232.966-1.644,1.94-1.324,2.406" transform="translate(83.75 17.044)" fill="#1a2e35"/>
        <path id="Trazado_345" data-name="Trazado 345" d="M151.166,44.556a3.886,3.886,0,0,1-3.925,3.743,3.716,3.716,0,0,1-3.84-3.686,3.887,3.887,0,0,1,3.921-3.745,3.719,3.719,0,0,1,3.843,3.687" transform="translate(99.609 28.388)" fill="#1a2e35"/>
        <path id="Trazado_346" data-name="Trazado 346" d="M158.094,40.9c-.5.485-3.345-1.828-7.524-2.012-4.17-.244-7.338,1.764-7.766,1.232-.212-.237.322-1.129,1.7-2.039a10.687,10.687,0,0,1,6.248-1.613,10.253,10.253,0,0,1,5.958,2.234c1.239,1.046,1.632,1.981,1.384,2.2" transform="translate(99.162 25.323)" fill="#1a2e35"/>
        <path id="Trazado_347" data-name="Trazado 347" d="M157.592,37.548c-.778.913-3.611-.2-7.07-.41-3.45-.329-6.421.341-7.05-.683-.273-.5.232-1.425,1.554-2.264a10.256,10.256,0,0,1,11.378.881c1.178,1.032,1.534,2.028,1.188,2.476" transform="translate(99.609 22.833)" fill="#1a2e35"/>
        <path id="Trazado_348" data-name="Trazado 348" d="M166.675,56.274c.025-2.257,2.683-7.555,4.914-7.882,5.96-.874,16.682-.3,16.646,14.814-.047,20.662-20.783,16.351-20.818,15.76-.027-.464-.83-14.9-.742-22.693" transform="translate(115.77 33.436)" fill="#ffc09d"/>
        <path id="Trazado_349" data-name="Trazado 349" d="M171.9,68.307c.09-.066.359.253.966.534a3.605,3.605,0,0,0,2.691.061c2.186-.795,4.032-4.257,4.14-7.982a11.884,11.884,0,0,0-.995-5.157A4.149,4.149,0,0,0,176,53a1.833,1.833,0,0,0-2.127.979c-.278.578-.147.991-.258,1.025-.058.053-.442-.346-.275-1.2a2.3,2.3,0,0,1,.817-1.295,2.724,2.724,0,0,1,1.991-.522c1.595.115,3.025,1.584,3.754,3.213a12.235,12.235,0,0,1,1.234,5.763c-.142,4.164-2.283,8.055-5.272,8.91a3.858,3.858,0,0,1-3.291-.556c-.639-.51-.746-.973-.674-1.01" transform="translate(119.393 36.098)" fill="#ff9b6c"/>
        <path id="Trazado_350" data-name="Trazado 350" d="M198.236,78.58l-5.575,5.091c-21.2-23.057-61.877-80-59.62-76.615,0,0,15.877-5.375,32.486-1.442s47.92,14.372,46.166,34.145S198.236,78.58,198.236,78.58" transform="translate(92.35 2.899)" fill="#1a2e35"/>
        <path id="Trazado_351" data-name="Trazado 351" d="M169.261,88.8c-.061.063.422.737,1.613,1.612a14.086,14.086,0,0,0,5.774,2.371,15.338,15.338,0,0,0,9.224-1.264,15.308,15.308,0,0,0,6.816-20.032,15.348,15.348,0,0,0-6.541-6.628,14.059,14.059,0,0,0-6.021-1.64,4.395,4.395,0,0,0-2.261.291c-.044.341,3.359-.156,7.688,2.4a14.768,14.768,0,0,1,5.711,6.257,14.1,14.1,0,0,1-6.1,17.938,14.777,14.777,0,0,1-8.339,1.474c-4.992-.608-7.389-3.077-7.561-2.783" transform="translate(117.568 43.912)" fill="#e1e1e1"/>
        <path id="Trazado_352" data-name="Trazado 352" d="M205.972,97.988a43.77,43.77,0,0,1,.1-4.794,72.19,72.19,0,0,0-.9-12.959c-1.581-10.827-6.9-25.473-17.065-38.836s-22.3-22.886-31.271-29.207c-4.509-3.167-8.263-5.587-10.866-7.243a33.822,33.822,0,0,1-3.991-2.672,4.159,4.159,0,0,1,1.142.5c.722.378,1.79.929,3.13,1.7,2.7,1.515,6.543,3.813,11.149,6.89,9.154,6.141,21.513,15.621,31.83,29.178s15.58,28.527,16.926,39.542a62.791,62.791,0,0,1,.461,13.128c-.064,1.549-.3,2.739-.4,3.549a4.171,4.171,0,0,1-.253,1.22" transform="translate(98.623 1.578)" fill="#375a64"/>
        <path id="Trazado_353" data-name="Trazado 353" d="M149.678,2.054a4.366,4.366,0,0,1,1.178.471c.752.346,1.844.891,3.235,1.623,2.781,1.466,6.755,3.693,11.483,6.743a174.573,174.573,0,0,1,15.98,11.628c5.714,4.733,11.976,10.146,17.18,17.1a46.913,46.913,0,0,1,6.2,11.023,43.643,43.643,0,0,1,2.654,11.483,68.419,68.419,0,0,1-1.315,19.766c-1.118,5.528-2.4,9.9-3.32,12.9-.461,1.5-.847,2.659-1.124,3.438a4.258,4.258,0,0,1-.49,1.169,35.666,35.666,0,0,1,1.085-4.757c.754-3.042,1.886-7.438,2.869-12.937a70.425,70.425,0,0,0,1-19.449,43.1,43.1,0,0,0-2.649-11.117A46.341,46.341,0,0,0,197.6,40.462c-5.074-6.789-11.237-12.183-16.875-16.943a195.74,195.74,0,0,0-15.7-11.8c-4.633-3.138-8.512-5.487-11.2-7.1a38.157,38.157,0,0,1-4.145-2.572" transform="translate(103.968 1.422)" fill="#375a64"/>
        <path id="Trazado_354" data-name="Trazado 354" d="M195.766,79.083a19.078,19.078,0,0,1-2.525-2.776l-6.47-7.883c-5.413-6.7-12.813-16-20.917-26.331S150.47,22.354,145.258,15.5c-2.457-3.276-4.509-6.014-6.118-8.16a19.254,19.254,0,0,1-2.093-3.113A18.922,18.922,0,0,1,139.567,7l6.467,7.88c5.413,6.7,12.818,16.006,20.928,26.345s15.387,19.744,20.6,26.6l6.114,8.158a19.034,19.034,0,0,1,2.089,3.108" transform="translate(95.192 2.935)" fill="#e1e1e1"/>
        <path id="Trazado_355" data-name="Trazado 355" d="M140.119,58.217c.095.239,1.788-.361,3.837.112,2.061.42,3.354,1.666,3.538,1.488.215-.107-.971-1.849-3.35-2.35-2.374-.53-4.176.564-4.025.751" transform="translate(97.323 39.817)" fill="#ff9b6c"/>
        <path id="Trazado_356" data-name="Trazado 356" d="M152.81,42.764c-.025.236,1.717.6,3.887.466s3.857-.707,3.8-.937-1.762-.068-3.857.056-3.813.166-3.835.415" transform="translate(106.144 29.293)" fill="#ff9b6c"/>
        <path id="Trazado_357" data-name="Trazado 357" d="M153.365,43.428c-.032.247,1.164.6,2.61,1.059s2.632.842,2.747.622-.954-.986-2.483-1.464-2.847-.454-2.874-.217" transform="translate(106.53 30.051)" fill="#ff9b6c"/>
        <path id="Trazado_358" data-name="Trazado 358" d="M116.04,41.171c-.083.229.9.8,2.2,1.278s2.422.678,2.506.449-.9-.8-2.2-1.278-2.423-.678-2.506-.449" transform="translate(80.6 28.532)" fill="#ff9b6c"/>
        <path id="Trazado_359" data-name="Trazado 359" d="M116.221,44.214c.08.23,1.162.066,2.42-.366s2.213-.969,2.134-1.2-1.162-.066-2.42.366-2.213.969-2.134,1.2" transform="translate(80.726 29.551)" fill="#ff9b6c"/>
      </g>
    </g>
  </g>
</svg>
