<svg xmlns="http://www.w3.org/2000/svg" xmlns:xlink="http://www.w3.org/1999/xlink" width="358" height="519" viewBox="0 0 358 519">
  <defs>
    <filter id="Rect치ngulo_87" x="0" y="0" width="358" height="519" filterUnits="userSpaceOnUse">
      <feOffset dy="10" input="SourceAlpha"/>
      <feGaussianBlur stdDeviation="3" result="blur"/>
      <feFlood flood-opacity="0.161"/>
      <feComposite operator="in" in2="blur"/>
      <feComposite in="SourceGraphic"/>
    </filter>
  </defs>
  <g id="Grupo_64" data-name="Grupo 64" transform="translate(-781 -262)">
    <g transform="matrix(1, 0, 0, 1, 781, 262)" filter="url(#Rect치ngulo_87)">
      <rect id="Rect치ngulo_87-2" data-name="Rect치ngulo 87" width="340" height="500" rx="10" transform="translate(9)" fill="#f9c931"/>
    </g>
    <path id="Trazado_219" data-name="Trazado 219" d="M81.728,0c15.78,6.051,21.2,14.479,21,32.756,9.7-.43,17.893-4.726,26.658-10.341-1.117,4-2,7.171-2.968,10.65h9.36v153.9h-3.9q-56.009,0-112.02,0c-12.776,0-19.842-7.1-19.847-19.949q-.014-56.934,0-113.87c0-13.037,7.025-19.98,20.176-19.99,12.323-.009,24.647-.063,36.97.052a4.877,4.877,0,0,0,4.729-2.609c5.869-9.257,11.868-18.431,17.83-27.63C80.37,1.948,81.073.96,81.728,0M51.137,144.222c.952-2.254,1.535-3.582,2.079-4.925q8.374-20.688,16.736-41.381Q82.536,66.792,95.1,35.663c4.707-11.725-.018-23.523-11.372-28L22.093,102.884c17.145,8.251,26.772,21.719,29.044,41.338m-6.267,7.236c1.24-23.527-10.677-37.68-31.457-46.017L56.19,39.262c-1.554-.083-2.489-.175-3.424-.176q-16.816-.016-33.633,0c-8.551.022-13.19,4.7-13.194,13.319q-.024,50.08,0,100.159c0,.892.145,1.783.27,3.221,4.778-4,9.958-4.46,15.362-4.363,7.609.137,15.225.035,23.3.035m10.4-1.06a5.339,5.339,0,0,0,1.3.2,73.289,73.289,0,0,0,30.808-11.707,7.313,7.313,0,0,0,2.536-3.79q14.393-48.313,28.619-96.675c.288-.98.427-2,.606-2.873-5.4,1.119-10.413,2.425-15.507,3.1-2.682.357-3.947,1.284-4.958,3.8Q77.639,94.89,56.387,147.236c-.406,1.006-.724,2.047-1.114,3.161m74.7,6.989h-4.482q-52.294,0-104.587,0a41.741,41.741,0,0,0-4.431.089,11.88,11.88,0,0,0-10.415,9.995A11.614,11.614,0,0,0,12.8,179.852a16.323,16.323,0,0,0,6.092,1.134q53.955.1,107.912.039c1.056,0,2.113-.144,3.112-.217v-8.731H17.937V166.2H129.969Zm-.089-6.068V38.273c-2.268.905-5.129,1.193-5.538,2.35-2.529,7.142-4.5,14.479-6.727,21.968l6.41.294v5.492c-2.853.254-6.312-.441-7.93.973-1.809,1.581-1.949,5.073-2.993,8.278h10.93v5.816h-5.288c-8.211,0-8.213,0-9.526,8.215a3.374,3.374,0,0,0,.145.709h14.61v5.866c-4.924,0-9.59-.077-14.249.059-1.034.03-2.646.557-2.958,1.293a64.039,64.039,0,0,0-2.247,7.717H124v5.72c-6.365,0-12.5-.059-18.634.057-1.034.019-2.661.537-2.972,1.267a62.253,62.253,0,0,0-2.223,7.618h23.819v5.847c-7.858,0-15.475.055-23.088-.038-1.9-.024-2.97.466-3.358,2.45-.395,2.02-1.069,3.986-1.77,6.512h28.275V142.6h-3.777c-8.251,0-16.5-.02-24.753.023a7.834,7.834,0,0,0-3.558.539c-4.7,2.555-9.289,5.3-14.235,8.159Z" transform="translate(878 405.999)" fill="#c09409"/>
  </g>
</svg>
