<svg xmlns="http://www.w3.org/2000/svg" xmlns:xlink="http://www.w3.org/1999/xlink" width="112.96" height="112.96" viewBox="0 0 112.96 112.96">
  <defs>
    <filter id="Trazado_178" x="0" y="0" width="112.96" height="112.96" filterUnits="userSpaceOnUse">
      <feOffset dy="6" input="SourceAlpha"/>
      <feGaussianBlur stdDeviation="3" result="blur"/>
      <feFlood flood-opacity="0.161"/>
      <feComposite operator="in" in2="blur"/>
      <feComposite in="SourceGraphic"/>
    </filter>
  </defs>
  <g id="Grupo_64" data-name="Grupo 64" transform="translate(-77.846 -163.507)">
    <g transform="matrix(1, 0, 0, 1, 77.85, 163.51)" filter="url(#Trazado_178)">
      <path id="Trazado_178-2" data-name="Trazado 178" d="M355.388,47.48a47.48,47.48,0,1,0-47.48,47.48,47.48,47.48,0,0,0,47.48-47.48" transform="translate(-251.43 3)" fill="#e96247"/>
    </g>
    <path id="Trazado_179" data-name="Trazado 179" d="M367.69,64.912a42.349,42.349,0,1,0-42.349,42.349A42.349,42.349,0,0,0,367.69,64.912" transform="translate(-190.805 149.075)" fill="#fff"/>
    <path id="Trazado_186" data-name="Trazado 186" d="M45.7,1.8H30.286V3.536h1.46c2.225,0,4.45.009,6.674,0,.718,0,1.162.226,1.28,1.01a3.283,3.283,0,0,0,3.206,3.231,1.041,1.041,0,0,1,1.033,1.163q-.005,4.45,0,8.9c0,.713-.359,1.035-1.063,1.136a3.269,3.269,0,0,0-3.166,3.167c-.11.832-.56,1.075-1.321,1.07-2.348-.017-4.7-.006-7.045-.005H30.275v1.725H45.7V23.808q0-7.6,0-15.2c0-.278,0-.557.009-.834.03-.6.32-1.122.936-.979a1.382,1.382,0,0,1,.8,1.008c.1,1.2.039,2.407.039,3.612q0,13.721,0,27.441c0,1.447-.157,1.608-1.581,1.608H1.585C.16,40.46,0,40.3,0,38.855Q0,20.221,0,1.587C0,.166.168,0,1.6,0H45.915c1.386,0,1.559.173,1.562,1.535,0,.773-.013,1.545,0,2.318.014.655-.127,1.238-.9,1.236-.791,0-.884-.629-.884-1.259s0-1.287,0-2.027M28.377,24.917V1.833H19.059V2.912q0,5.934,0,11.868a1.808,1.808,0,0,1-.082.9,1.385,1.385,0,0,1-.866.632c-.252.016-.6-.35-.774-.628a1.679,1.679,0,0,1-.066-.817q0-4.265,0-8.53V5.321c-2.532,0-4.911-.01-7.289.019a.767.767,0,0,0-.574.418A5.368,5.368,0,0,1,5.372,9.51v7.719a5.352,5.352,0,0,1,4.052,3.831.606.606,0,0,0,.449.341c2.431.022,4.863.015,7.4.015,0-.991-.007-1.88,0-2.769.006-.554.223-1,.834-1.027.668-.033.931.42.943,1.013.022,1.143.01,2.287.011,3.431,0,.944,0,1.887,0,2.853Zm1.874-3.5c2.471,0,4.847.013,7.222-.022a.855.855,0,0,0,.622-.48A5.3,5.3,0,0,1,41.6,17.376a1.02,1.02,0,0,0,.521-.771c.042-2.162.008-4.325.035-6.487.006-.508-.206-.677-.649-.819A4.867,4.867,0,0,1,38.18,5.97a.785.785,0,0,0-.908-.662c-1.482.031-2.965.011-4.448.011H30.251ZM1.834,24.907H17.218V23.2H16.177c-2.378,0-4.756-.011-7.135.005a1.1,1.1,0,0,1-1.279-1.115,3.255,3.255,0,0,0-3.113-3.113A1.107,1.107,0,0,1,3.534,17.7q.02-4.309,0-8.617A1.139,1.139,0,0,1,4.7,7.754,3.231,3.231,0,0,0,7.759,4.69,1.135,1.135,0,0,1,9.092,3.529c2.378.021,4.756.007,7.134.007h.992V1.842H1.834ZM19.116,38.632H28.36V26.789H19.116Zm26.523-1.58H44.6q-5.795,0-11.589,0a2.181,2.181,0,0,1-1-.1,1.179,1.179,0,0,1-.6-.8,1.232,1.232,0,0,1,.6-.807,1.883,1.883,0,0,1,.906-.081q5.841-.006,11.682,0h1V33.669H30.269v4.977h15.37Zm-28.407-6.8H1.841v1.591c1.039,0,2.022,0,3,0,.609,0,1.184.128,1.2.845.02.771-.559.93-1.216.923-.981-.011-1.962,0-2.971,0v1.6H17.218V33.6h-1.04c-2.565,0-5.13.007-7.694-.005-.907,0-1.463-.534-1.119-1.106a1.606,1.606,0,0,1,1.172-.625c2.564-.056,5.129-.027,7.694-.031.327,0,.653-.028,1-.045Zm-15.4-1.9H17.189V26.8H1.83Zm28.43.006H45.617V26.791H30.26Zm-.017,3.431h15.4V30.259h-15.4ZM17.232,37.1H1.836v1.521h15.4Z" transform="translate(110.594 192.569)" fill="#e96247"/>
  </g>
</svg>
