<svg xmlns="http://www.w3.org/2000/svg" xmlns:xlink="http://www.w3.org/1999/xlink" width="177.943" height="177.942" viewBox="0 0 177.943 177.942">
  <defs>
    <filter id="Trazado_180" x="0" y="0" width="177.943" height="177.942" filterUnits="userSpaceOnUse">
      <feOffset dy="6" input="SourceAlpha"/>
      <feGaussianBlur stdDeviation="3" result="blur"/>
      <feFlood flood-opacity="0.161"/>
      <feComposite operator="in" in2="blur"/>
      <feComposite in="SourceGraphic"/>
    </filter>
  </defs>
  <g id="circulo2" transform="translate(-669.355 -240.418)">
    <g id="circulo2-2" data-name="circulo2" transform="translate(6 4)">
      <g transform="matrix(1, 0, 0, 1, 663.35, 236.42)" filter="url(#Trazado_180)">
        <path id="Trazado_180-2" data-name="Trazado 180" d="M420.371,79.971A79.971,79.971,0,1,0,340.4,159.942a79.971,79.971,0,0,0,79.971-79.971" transform="translate(-251.43 3)" fill="#e96247"/>
      </g>
      <path id="Trazado_181" data-name="Trazado 181" d="M425.649,93.892A71.328,71.328,0,1,0,354.32,165.22a71.329,71.329,0,0,0,71.329-71.329" transform="translate(398.008 225.437)" fill="#fff"/>
      <path id="Trazado_187" data-name="Trazado 187" d="M15.788,5.552c0-1.144-.051-2.078.011-3.005a2.49,2.49,0,1,1,4.978.053c.041.922.008,1.846.008,2.854H53.76c0-1.018-.034-1.943.008-2.864A2.475,2.475,0,0,1,56.146,0a2.524,2.524,0,0,1,2.6,2.554c.062.926.011,1.86.011,3,2.273,0,4.4-.006,6.518,0,5.708.019,9.258,3.551,9.261,9.271q.017,27.992,0,55.985c0,5.706-3.581,9.275-9.275,9.277q-27.992.01-55.985,0C3.592,80.083.012,76.5.008,70.8q-.016-27.992,0-55.985c0-5.712,3.559-9.243,9.27-9.263,2.077-.007,4.155,0,6.509,0M5.016,29.575v1.6q0,19.78,0,39.561c0,3.029,1.334,4.337,4.413,4.337q27.833.005,55.667,0c3.143,0,4.429-1.3,4.43-4.479q0-19.7,0-39.4V29.575ZM15.8,10.6c-2.717,0-5.21-.075-7.7.028a3.178,3.178,0,0,0-3,2.925c-.111,3.577-.035,7.16-.035,10.826H69.481c0-3.653.092-7.236-.043-10.811a2.9,2.9,0,0,0-2.674-2.863c-2.619-.2-5.264-.056-8-.056,0,.616,0,1.08,0,1.543s.024.942-.023,1.406A2.488,2.488,0,0,1,56.2,16.038a2.441,2.441,0,0,1-2.43-2.522c-.046-.922-.008-1.849-.008-2.861H20.785c0,1,.037,1.927-.008,2.849a2.432,2.432,0,0,1-2.417,2.533,2.463,2.463,0,0,1-2.55-2.423c-.075-.928-.014-1.867-.014-3.011" transform="translate(715 279)" fill="#e96247"/>
      <path id="Trazado_188" data-name="Trazado 188" d="M186.543,214.29v1.681c0,2.774-1.051,4.623-3.236,5.506v.084q3.53,1.45,3.53,6.3v2.227c0,4.539-2.606,7.229-7.145,7.229s-7.145-2.606-7.145-7.061v-1.807l4.287-.21v1.471c0,2.4.883,3.489,2.732,3.489,1.891,0,2.816-1.219,2.816-3.4v-2.27c0-2.606-.967-3.783-3.236-3.783H177.3v-4.119h1.849c2.059,0,2.942-1.093,2.942-3.573v-1.6c0-2.1-.925-3.278-2.648-3.278s-2.564,1.093-2.564,3.488v1.471l-4.287-.21v-1.807c0-4.455,2.564-7.061,6.977-7.061s6.977,2.69,6.977,7.229" transform="translate(572.58 108.092)" fill="#e96247"/>
    </g>
  </g>
</svg>
