<svg xmlns="http://www.w3.org/2000/svg" xmlns:xlink="http://www.w3.org/1999/xlink" width="112.96" height="112.96" viewBox="0 0 112.96 112.96">
  <defs>
    <filter id="Trazado_182" x="0" y="0" width="112.96" height="112.96" filterUnits="userSpaceOnUse">
      <feOffset dy="6" input="SourceAlpha"/>
      <feGaussianBlur stdDeviation="3" result="blur"/>
      <feFlood flood-opacity="0.161"/>
      <feComposite operator="in" in2="blur"/>
      <feComposite in="SourceGraphic"/>
    </filter>
  </defs>
  <g id="Grupo_63" data-name="Grupo 63" transform="translate(-138.303 -1092.507)">
    <g transform="matrix(1, 0, 0, 1, 138.3, 1092.51)" filter="url(#Trazado_182)">
      <path id="Trazado_182-2" data-name="Trazado 182" d="M355.388,47.48a47.48,47.48,0,1,0-47.48,47.48,47.48,47.48,0,0,0,47.48-47.48" transform="translate(-251.43 3)" fill="#f9c931"/>
    </g>
    <path id="Trazado_183" data-name="Trazado 183" d="M367.689,64.912a42.349,42.349,0,1,0-42.349,42.349,42.349,42.349,0,0,0,42.349-42.349" transform="translate(-130.612 1078.039)" fill="#fff"/>
    <path id="Trazado_189" data-name="Trazado 189" d="M44.819,20.245c0,3.5.044,7-.01,10.5-.082,5.279-2.337,9.647-5.885,13.4C34.451,48.876,28.9,52,23.028,54.63a1.95,1.95,0,0,1-1.426-.019c-5.5-2.47-10.7-5.435-15-9.741a29.1,29.1,0,0,1-2.4-2.733A17.933,17.933,0,0,1,0,30.71c.089-7.5.135-15,.227-22.5C.245,6.868.857,6.519,2.6,6.165c3.91-.794,7.853-1.509,11.674-2.628A39.177,39.177,0,0,0,21.025.376,2.212,2.212,0,0,1,23.417.33a44.6,44.6,0,0,0,19.113,6.1c1.579.132,2.071.661,2.079,2.252.02,3.856.006,7.711.006,11.567h.2M41.2,9.849a3.915,3.915,0,0,0-.458-.133A49.693,49.693,0,0,1,22.792,3.98a1.526,1.526,0,0,0-1.141.112c-1.562.7-3.064,1.54-4.652,2.167A56.488,56.488,0,0,1,4.563,9.374c-.518.078-.947.114-.95.846q-.054,10.393-.165,20.786a13.125,13.125,0,0,0,2.847,8.141,33.229,33.229,0,0,0,3.914,4.381,43.827,43.827,0,0,0,11.6,7.4,1.535,1.535,0,0,0,1.172-.042c1.788-.89,3.582-1.782,5.3-2.8a31.985,31.985,0,0,0,9.887-8.411,14.753,14.753,0,0,0,3.165-8.5c.086-3.891.127-7.784.1-11.675-.019-3.21-.159-6.419-.246-9.657" transform="translate(172.566 1115.445)" fill="#f9c931"/>
  </g>
</svg>
