<svg id="Grupo_106" data-name="Grupo 106" xmlns="http://www.w3.org/2000/svg" xmlns:xlink="http://www.w3.org/1999/xlink" width="70" height="70" viewBox="0 0 70 70">
  <defs>
    <clipPath id="clip-path">
      <rect id="Rectángulo_128" data-name="Rectángulo 128" width="70" height="70" fill="none"/>
    </clipPath>
  </defs>
  <g id="Grupo_105" data-name="Grupo 105" clip-path="url(#clip-path)">
    <path id="Trazado_363" data-name="Trazado 363" d="M32.148,17.8A32.148,32.148,0,1,0,64.3,49.949,32.148,32.148,0,0,0,32.148,17.8" transform="translate(0 -12.097)" fill="#be1e2d"/>
    <path id="Trazado_364" data-name="Trazado 364" d="M76.252,26.646a33.2,33.2,0,0,0-5.023-11.938A33.448,33.448,0,0,0,56.553,2.624,33.231,33.231,0,0,0,50.284.678a33.659,33.659,0,0,0-13.44,0A33.215,33.215,0,0,0,24.906,5.7,33.453,33.453,0,0,0,12.822,20.377a33.21,33.21,0,0,0-1.946,6.269,33.642,33.642,0,0,0,0,13.44A33.2,33.2,0,0,0,15.9,52.024,33.448,33.448,0,0,0,30.575,64.108a33.23,33.23,0,0,0,6.269,1.946,33.659,33.659,0,0,0,13.44,0,33.216,33.216,0,0,0,11.938-5.023A33.453,33.453,0,0,0,74.307,46.355a33.21,33.21,0,0,0,1.946-6.269,33.642,33.642,0,0,0,0-13.44m-3.463,6.72A29.226,29.226,0,1,1,43.564,4.14,29.226,29.226,0,0,1,72.79,33.366" transform="translate(-6.93)" fill="#1a1e1e"/>
    <path id="Trazado_365" data-name="Trazado 365" d="M86.781,73.654,97.618,62.817A2.07,2.07,0,1,0,94.69,59.89L83.853,70.726,73.016,59.89a2.07,2.07,0,1,0-2.928,2.928L80.925,73.654,70.089,84.491a2.07,2.07,0,0,0,2.928,2.928L83.853,76.582,94.69,87.419a2.07,2.07,0,0,0,2.928-2.928Z" transform="translate(-47.219 -40.288)" fill="#fff"/>
  </g>
</svg>
