<svg id="Grupo_104" data-name="Grupo 104" xmlns="http://www.w3.org/2000/svg" xmlns:xlink="http://www.w3.org/1999/xlink" width="70" height="70" viewBox="0 0 70 70">
  <defs>
    <clipPath id="clip-path">
      <rect id="Rectángulo_126" data-name="Rectángulo 126" width="70" height="70" fill="none"/>
    </clipPath>
  </defs>
  <g id="Grupo_103" data-name="Grupo 103" clip-path="url(#clip-path)">
    <path id="Trazado_360" data-name="Trazado 360" d="M32.148,17.8A32.148,32.148,0,1,0,64.3,49.949,32.148,32.148,0,0,0,32.148,17.8" transform="translate(0 -12.097)" fill="#0c8f5a"/>
    <path id="Trazado_361" data-name="Trazado 361" d="M76.252,26.646a33.2,33.2,0,0,0-5.023-11.938A33.453,33.453,0,0,0,56.553,2.624,33.327,33.327,0,0,0,24.906,5.7,33.453,33.453,0,0,0,12.822,20.377a33.21,33.21,0,0,0-1.946,6.269,33.642,33.642,0,0,0,0,13.44A33.2,33.2,0,0,0,15.9,52.024,33.448,33.448,0,0,0,30.575,64.108a33.231,33.231,0,0,0,6.269,1.946,33.659,33.659,0,0,0,13.44,0,33.215,33.215,0,0,0,11.938-5.023A33.454,33.454,0,0,0,74.307,46.355a33.21,33.21,0,0,0,1.946-6.269,33.642,33.642,0,0,0,0-13.44m-3.463,6.72A29.226,29.226,0,1,1,43.564,4.14,29.226,29.226,0,0,1,72.79,33.366" transform="translate(-6.93)" fill="#1a1e1e"/>
    <path id="Trazado_362" data-name="Trazado 362" d="M77.475,88.857h-.036a2.071,2.071,0,0,1-1.626-.835l-6.57-8.843a2.07,2.07,0,0,1,3.324-2.469l4.966,6.685L94.3,62.377A2.07,2.07,0,1,1,97.54,64.96L79.093,88.078a2.07,2.07,0,0,1-1.618.779" transform="translate(-46.78 -41.861)" fill="#fff"/>
  </g>
</svg>
