<svg xmlns="http://www.w3.org/2000/svg" xmlns:xlink="http://www.w3.org/1999/xlink" width="177.943" height="177.942" viewBox="0 0 177.943 177.942">
  <defs>
    <filter id="Trazado_184" x="0" y="0" width="177.943" height="177.942" filterUnits="userSpaceOnUse">
      <feOffset dy="6" input="SourceAlpha"/>
      <feGaussianBlur stdDeviation="3" result="blur"/>
      <feFlood flood-opacity="0.161"/>
      <feComposite operator="in" in2="blur"/>
      <feComposite in="SourceGraphic"/>
    </filter>
  </defs>
  <g id="Grupo_66" data-name="Grupo 66" transform="translate(-1492.658 -236.418)">
    <g transform="matrix(1, 0, 0, 1, 1492.66, 236.42)" filter="url(#Trazado_184)">
      <path id="Trazado_184-2" data-name="Trazado 184" d="M420.371,79.971A79.971,79.971,0,1,0,340.4,159.942a79.971,79.971,0,0,0,79.971-79.971" transform="translate(-251.43 3)" fill="#002f87"/>
    </g>
    <path id="Trazado_185" data-name="Trazado 185" d="M425.649,93.892A71.328,71.328,0,1,0,354.32,165.22a71.329,71.329,0,0,0,71.329-71.329" transform="translate(1228.008 225.437)" fill="#fff"/>
    <path id="Trazado_190" data-name="Trazado 190" d="M18.815,39.545c.236,2.916.236,2.917,3.121,2.917q5.27,0,10.539,0c2.088,0,2.288-.21,2.308-2.354q.01-1.054.011-2.108c0-1.722,0-3.444,0-5.435,2.168,1.18,3.994,2.21,5.853,3.176a4.036,4.036,0,0,0,5.37-1.154,2.3,2.3,0,0,1,2.249-1.037q16.336.034,32.672.012c1.873,0,2.146-.259,2.147-2.046q.01-14.759,0-29.518C83.084.309,82.763,0,81.036,0Q59.731,0,38.427,0c-1.85,0-2.094.236-2.1,2.078-.009,5.572,0,11.144-.007,16.716,0,.474-.045.947-.09,1.838C34.188,17.7,31.52,17.227,28.578,17.4c-1.35.081-2.709.013-4.064.014-5.237,0-7.186,1.32-9.083,6.192a8.919,8.919,0,0,0-.717,2.445c-.222,2.844-.4,5.7-.459,8.547-.072,3.609.97,4.687,4.56,4.943m20-36.951H80.487V31.072H78.71c-9.689,0-19.379-.019-29.068.018-1.71.007-3.382.182-3.731-2.445l7.142-10.623L51.01,16.635,43.648,27.508a5.178,5.178,0,0,1-.492-.163c-4.343-2.193-4.343-2.193-4.343-7.025ZM16.8,29.578a18.943,18.943,0,0,1,.7-4.282c1.394-4.523,2.674-5.405,7.368-5.405,1.756,0,3.512.028,5.267-.007a4.017,4.017,0,0,1,4.006,2.18,15.831,15.831,0,0,0,8.728,7.989,3.135,3.135,0,0,1,.771.463,1.731,1.731,0,0,1,.518,2.4,1.63,1.63,0,0,1-2.351.613c-2.121-1.135-4.245-2.269-6.323-3.479-.336-.2-.4-.81-.666-1.182-.384-.546-.773-1.419-1.261-1.493C32.553,27.223,32.3,28.113,32.3,29q-.009,4.591-.026,9.182c0,.539,0,1.077,0,1.7H21.38c0-2.948,0-5.8,0-8.649,0-1.1,0-2.207,0-3.311,0-.875-.375-1.618-1.283-1.423a1.96,1.96,0,0,0-1.129,1.4,30.894,30.894,0,0,0-.058,3.907c0,1,.015,2.007,0,3.01-.017.873.236,2.077-1.061,2.1-1.336.018-1.053-1.209-1.065-2.067-.025-1.756-.091-3.518.028-5.266" transform="translate(1532.936 280.999)" fill="#002f87"/>
    <path id="Trazado_191" data-name="Trazado 191" d="M17.879,387.549a13.144,13.144,0,0,0-8.143-1.472C3.788,386.825.188,390.8.07,396.746q-.048,2.406-.07,4.812c-.017,1.942.279,2.233,2.275,2.237q4.661.009,9.321,0v.037c3.257,0,6.515-.035,9.771.018,1.233.02,1.757-.5,1.754-1.678-.005-1.955-.045-3.911.009-5.865.112-4.052-1.8-6.87-5.251-8.76m2.731,13.624H2.51c.382-3.926-1.133-8.255,3.218-10.944a10.474,10.474,0,0,1,11.524-.154c4.5,2.621,3.189,6.979,3.358,11.1" transform="translate(1545 -45.709)" fill="#002f87"/>
    <path id="Trazado_192" data-name="Trazado 192" d="M358.83,395.759a8.583,8.583,0,0,0-3.484-7,13.188,13.188,0,0,0-16.057.005,8.448,8.448,0,0,0-3.454,6.709c-.042,2.055-.093,4.109-.119,6.164-.024,1.884.3,2.218,2.138,2.224,3.157.01,6.314,0,9.471,0,0,.012,0,.025,0,.037,3.257,0,6.514-.035,9.771.018,1.24.02,1.744-.51,1.738-1.689-.009-2.155,0-4.311,0-6.466m-2.648,5.5H338.251c.373-3.7-1.108-7.71,2.625-10.571a10.532,10.532,0,0,1,12-.576c3.763,2.369,3.732,4.384,3.3,11.148" transform="translate(1260.821 -45.773)" fill="#002f87"/>
    <path id="Trazado_193" data-name="Trazado 193" d="M191.121,395.531a8.289,8.289,0,0,0-3.067-6.451,13.178,13.178,0,0,0-16.668-.134,8.536,8.536,0,0,0-3.25,6.828c0,1.908-.044,3.816-.064,5.724-.022,2.138.19,2.364,2.279,2.368,3.113.007,6.225,0,9.338,0v.03c3.213,0,6.427-.049,9.638.023,1.328.03,1.823-.5,1.807-1.763-.027-2.209,0-4.419-.015-6.628m-2.495,5.729H170.555c.333-3.753-1.131-7.885,2.78-10.639a10.412,10.412,0,0,1,11.6-.688c4.851,2.549,3.565,7.058,3.69,11.328" transform="translate(1402.729 -45.781)" fill="#002f87"/>
    <path id="Trazado_195" data-name="Trazado 195" d="M33.505,296.1a6.409,6.409,0,1,0,6.339-6.483,6.428,6.428,0,0,0-6.339,6.483m10.287-.076a3.883,3.883,0,1,1-3.772-3.9,3.85,3.85,0,0,1,3.772,3.9" transform="translate(1516.639 35.847)" fill="#002f87"/>
    <path id="Trazado_196" data-name="Trazado 196" d="M375.69,289.609a6.411,6.411,0,1,0,6.36,6.462,6.445,6.445,0,0,0-6.36-6.462m.006,10.347a3.908,3.908,0,0,1-3.932-3.916,3.882,3.882,0,1,1,7.764.044,3.923,3.923,0,0,1-3.832,3.872" transform="translate(1232.448 35.849)" fill="#002f87"/>
    <path id="Trazado_197" data-name="Trazado 197" d="M201.592,295.981a6.375,6.375,0,1,0,6.415-6.374,6.367,6.367,0,0,0-6.415,6.374m10.277-.034a3.9,3.9,0,1,1-7.8.151,3.9,3.9,0,1,1,7.8-.151" transform="translate(1374.355 35.851)" fill="#002f87"/>
    <path id="Trazado_199" data-name="Trazado 199" d="M56.405,27.354a6.985,6.985,0,1,0-7.028-6.947,7,7,0,0,0,7.028,6.947m.012-11.493a4.509,4.509,0,1,1-4.509,4.455,4.464,4.464,0,0,1,4.509-4.455" transform="translate(1503.202 269.671)" fill="#002f87"/>
  </g>
</svg>
