<svg id="Grupo_150" data-name="Grupo 150" xmlns="http://www.w3.org/2000/svg" xmlns:xlink="http://www.w3.org/1999/xlink" width="408.544" height="608.264" viewBox="0 0 408.544 608.264">
  <defs>
    <clipPath id="clip-path">
      <rect id="Rectángulo_151" data-name="Rectángulo 151" width="408.544" height="608.264" fill="none"/>
    </clipPath>
    <clipPath id="clip-path-3">
      <rect id="Rectángulo_142" data-name="Rectángulo 142" width="15.895" height="34.402" fill="none"/>
    </clipPath>
    <clipPath id="clip-path-4">
      <rect id="Rectángulo_143" data-name="Rectángulo 143" width="49.752" height="31.873" fill="none"/>
    </clipPath>
    <clipPath id="clip-path-5">
      <rect id="Rectángulo_144" data-name="Rectángulo 144" width="9.999" height="25.026" fill="none"/>
    </clipPath>
    <clipPath id="clip-path-6">
      <rect id="Rectángulo_145" data-name="Rectángulo 145" width="7.938" height="47.718" fill="none"/>
    </clipPath>
    <clipPath id="clip-path-7">
      <rect id="Rectángulo_146" data-name="Rectángulo 146" width="29.576" height="36.584" fill="none"/>
    </clipPath>
    <clipPath id="clip-path-8">
      <rect id="Rectángulo_147" data-name="Rectángulo 147" width="35.651" height="14.577" fill="none"/>
    </clipPath>
    <clipPath id="clip-path-9">
      <rect id="Rectángulo_148" data-name="Rectángulo 148" width="35.65" height="14.579" fill="none"/>
    </clipPath>
    <clipPath id="clip-path-10">
      <rect id="Rectángulo_149" data-name="Rectángulo 149" width="31.345" height="62.789" fill="none"/>
    </clipPath>
  </defs>
  <g id="Grupo_149" data-name="Grupo 149" clip-path="url(#clip-path)">
    <g id="Grupo_148" data-name="Grupo 148">
      <g id="Grupo_147" data-name="Grupo 147" clip-path="url(#clip-path)">
        <path id="Trazado_366" data-name="Trazado 366" d="M217.678,224.146l6.543,18.529s30.281,27.8,34.748,65.034,4.468,45.351,4.468,45.351l-9.378,108.6H52.194s-6.686-87.785-4.2-112.609S64.882,296.14,64.882,296.14L80.269,258.9l.457-18.744Z" transform="translate(66.645 146.602)" fill="#1a2e35"/>
        <path id="Trazado_367" data-name="Trazado 367" d="M212.333,236.5a8.955,8.955,0,0,1-1.414.309l-4.082.721L191.794,240c-12.711,2.035-30.287,4.732-49.737,7.456s-37.115,4.889-49.927,6.166c-6.4.657-11.595,1.09-15.186,1.346l-4.138.26a9.009,9.009,0,0,1-1.446.031,9.07,9.07,0,0,1,1.432-.205l4.122-.42c3.581-.359,8.76-.883,15.151-1.618,12.787-1.431,30.42-3.707,49.873-6.414s37.031-5.324,49.764-7.205c6.307-.918,11.439-1.667,15.083-2.2l4.107-.561a8.933,8.933,0,0,1,1.441-.137" transform="translate(78.179 154.674)" fill="#375a64"/>
        <path id="Trazado_368" data-name="Trazado 368" d="M169.465,276.223a8.645,8.645,0,0,1-.739,1.816c-.521,1.146-1.338,2.777-2.4,4.764a137.747,137.747,0,0,1-20.484,28.541c-1.542,1.642-2.825,2.938-3.745,3.8a8.471,8.471,0,0,1-1.482,1.282,8.55,8.55,0,0,1,1.242-1.515l3.533-3.973c2.959-3.373,6.914-8.151,10.908-13.71s7.246-10.836,9.494-14.719q1.563-2.742,2.633-4.62a8.659,8.659,0,0,1,1.039-1.662" transform="translate(6.494 180.662)" fill="#375a64"/>
        <path id="Trazado_369" data-name="Trazado 369" d="M269.641,285.718l-62.467-77.561s-33.221,27.972-34.1,28.85,51.962,52.281,85.895,72.181l10.672-7.063Z" transform="translate(-147.353 136.144)" fill="#ffc09d"/>
        <path id="Trazado_370" data-name="Trazado 370" d="M200.469,240.842s-19.723-3.115-21.539-1.816-15.311,10.381-15.311,10.381a73.559,73.559,0,0,1-5.969,8.044s-4.411,5.19-7.786,5.71a15.1,15.1,0,0,1-5.448,0l-8.824,24.394s6.747,7.007,10.9,6.487,26.21-12.715,26.21-12.715l5.45-1.818s21.279.779,22.318-5.708v-1.818l-21.02-1.816-7.786,1.3,13.494-5.076s19.723-1.153,21.539-1.672,3.894-3.373,3.115-4.931l-4.152-.518s4.479-3.1,4.32-5.953l-18.669-2.962s11.234-5.619,9.158-9.511" transform="translate(-25.712 156.127)" fill="#ffc09d"/>
        <path id="Trazado_371" data-name="Trazado 371" d="M178.026,252.523a7.637,7.637,0,0,1-1.71-.238c-1.088-.2-2.668-.453-4.625-.743-3.913-.579-9.34-1.264-15.345-1.935a19.286,19.286,0,0,0-2.173-.184,6.6,6.6,0,0,0-2,.359c-1.265.5-2.547,1.1-3.722,1.637-2.365,1.1-4.458,2.177-6.175,3.146a46.134,46.134,0,0,0-3.948,2.481,9.423,9.423,0,0,1-1.416.981,5.176,5.176,0,0,1,1.209-1.244,31.291,31.291,0,0,1,3.844-2.742c1.7-1.049,3.78-2.187,6.145-3.338,1.2-.574,2.4-1.161,3.784-1.719a7.327,7.327,0,0,1,2.261-.417,18.841,18.841,0,0,1,2.288.184c6.017.672,11.446,1.454,15.351,2.19,1.952.369,3.523.718,4.6,1.016a6,6,0,0,1,1.637.566" transform="translate(4.066 162.573)" fill="#ff9b6c"/>
        <path id="Trazado_372" data-name="Trazado 372" d="M172.064,247.124c-.056.136-1.522-.511-4.016-.992a21.88,21.88,0,0,0-18.466,4.787c-1.945,1.633-2.913,2.908-3.029,2.817a10.487,10.487,0,0,1,2.625-3.273,20.467,20.467,0,0,1,19-4.926,10.485,10.485,0,0,1,3.885,1.588" transform="translate(-5.918 160.191)" fill="#ff9b6c"/>
        <path id="Trazado_373" data-name="Trazado 373" d="M256.682,117.933,202.412,106.39,188.284,91.87l-62.41-.6-7.516,13.661L71.593,133.374s11.778,77.894,16.074,86.965,38.349,109.238,38.349,109.238L262.07,313.345l1.164-62.864,3.933-30.418a90.18,90.18,0,0,0,.389-19.62c-2.546-28.451-10.874-82.51-10.874-82.51" transform="translate(22.211 59.698)" fill="#e1e1e1"/>
        <path id="Trazado_374" data-name="Trazado 374" d="M254.794,286.655,210.2,317.239l-15.583-22.211,4.163-3.7s-23.009-19.02-21.622-32.439S202.81,210.96,202.81,210.96s51.983-85.1,68.094-94.223c2.254-1.277,21.81,45.953,21.81,64.461s-3.7,18.509-3.7,18.509-15.733,15.27-23.137,29.151-19.976,29-28.3,34.55Z" transform="translate(-177.1 76.335)" fill="#e1e1e1"/>
        <path id="Trazado_375" data-name="Trazado 375" d="M9.022,280.939,47.2,188.959s39.738,17.52,40.827,18.115-35.191,64.767-62.174,93.394l-12.225-3.783Z" transform="translate(305.569 123.588)" fill="#ffc09d"/>
        <path id="Trazado_376" data-name="Trazado 376" d="M51.525,242.128s18.056-8.527,20.163-7.791S89.3,240,89.3,240a73.516,73.516,0,0,0,7.987,6.046s5.69,3.743,9.074,3.295a15.146,15.146,0,0,0,5.232-1.53l15.316,20.935s-4.509,8.619-8.639,9.287-28.727-4.846-28.727-4.846l-5.74-.213S63.6,279.7,60.778,273.76l-.509-1.743,19.665-7.645,7.837-.939-14.377-1.083s-19.253,4.431-21.142,4.443-4.684-2.145-4.373-3.859l3.839-1.664s-5.169-1.715-5.819-4.5l17.086-8.085s-12.359-2.238-11.459-6.557" transform="translate(205.719 153.238)" fill="#ffc09d"/>
        <path id="Trazado_377" data-name="Trazado 377" d="M67.862,255.043a7.566,7.566,0,0,0,1.575-.71c.989-.493,2.433-1.183,4.231-2.01,3.593-1.656,8.609-3.837,14.183-6.166a19.512,19.512,0,0,1,2.034-.786,6.589,6.589,0,0,1,2.023-.218c1.356.124,2.752.339,4.031.526,2.582.4,4.891.837,6.81,1.287a46.333,46.333,0,0,1,4.487,1.272,9.764,9.764,0,0,0,1.633.546,5.115,5.115,0,0,0-1.508-.857,31.322,31.322,0,0,0-4.461-1.551c-1.92-.529-4.239-1.039-6.833-1.479-1.312-.213-2.633-.44-4.115-.587a7.333,7.333,0,0,0-2.288.235,18.763,18.763,0,0,0-2.144.819c-5.586,2.334-10.578,4.608-14.119,6.411-1.77.9-3.181,1.679-4.127,2.266a6.024,6.024,0,0,0-1.413,1" transform="translate(187.43 159.782)" fill="#ff9b6c"/>
        <path id="Trazado_378" data-name="Trazado 378" d="M68.8,245.72c.091.114,1.318-.918,3.576-2.081a21.877,21.877,0,0,1,19.066-.59c2.326,1.021,3.612,1.975,3.7,1.856A10.463,10.463,0,0,0,91.7,242.5a20.462,20.462,0,0,0-19.619.609A10.446,10.446,0,0,0,68.8,245.72" transform="translate(199.617 157.159)" fill="#ff9b6c"/>
        <path id="Trazado_379" data-name="Trazado 379" d="M68.158,265.539l51.386,16.833,8.72-25.692-5.037-2.383s16.746-24.715,11.646-37.2-38.074-38.8-38.074-38.8S23.014,111.211,4.99,106.977c-2.522-.592-8.03,50.228-2.835,67.993s8.75,16.724,8.75,16.724,19.387,10.239,30.39,21.484S68.608,235.4,78.162,238.391Z" transform="translate(272.704 69.964)" fill="#e1e1e1"/>
        <path id="Trazado_380" data-name="Trazado 380" d="M133.815,160.432a11.612,11.612,0,0,1,.4,2.253,22.392,22.392,0,0,1,.261,2.675c.05,1.045.165,2.238.109,3.558a41.527,41.527,0,0,1-.2,4.315c-.088,1.555-.374,3.192-.637,4.921a56.868,56.868,0,0,1-8.312,21.028c-.991,1.441-1.9,2.832-2.9,4.026a41.674,41.674,0,0,1-2.8,3.288c-.862,1-1.763,1.793-2.514,2.522a22.4,22.4,0,0,1-2.018,1.773,11.658,11.658,0,0,1-1.834,1.368c-.119-.139,2.456-2.15,5.913-6.07.858-.986,1.791-2.069,2.689-3.316.961-1.2,1.838-2.585,2.8-4.019a59.555,59.555,0,0,0,8.2-20.745c.28-1.7.589-3.313.706-4.845.2-1.523.26-2.951.306-4.258.157-5.225-.346-8.454-.165-8.474" transform="translate(86.43 104.93)" fill="#1a2e35"/>
        <path id="Trazado_381" data-name="Trazado 381" d="M192.194,170.618a7.963,7.963,0,0,1-1.059-.794c-.681-.534-1.644-1.373-2.957-2.367-2.575-2.051-6.423-4.876-11.291-8.239s-10.774-7.243-17.311-11.651a210.035,210.035,0,0,1-20.662-15.4l.635-.073c-.693.991-1.4,2.077-2.069,3.2a47.306,47.306,0,0,0-5.695,15.088l-.248,1.312-.544-1.216a210.38,210.38,0,0,1-12.217-36.07c-1.113-4.615-1.861-8.331-2.3-10.9-.238-1.279-.372-2.276-.475-2.948a5.411,5.411,0,0,1-.111-1.029,5.344,5.344,0,0,1,.256,1c.155.734.357,1.7.612,2.918.531,2.544,1.36,6.236,2.541,10.821a224.458,224.458,0,0,0,12.458,35.853l-.792.1a47.763,47.763,0,0,1,5.778-15.371c.68-1.143,1.4-2.251,2.109-3.26l.273-.39.364.318a218.175,218.175,0,0,0,20.53,15.4c6.5,4.441,12.384,8.371,17.212,11.81s8.637,6.338,11.157,8.472c1.285,1.035,2.215,1.917,2.863,2.493a7.97,7.97,0,0,1,.948.921" transform="translate(24.681 65.1)" fill="#1a2e35"/>
        <path id="Trazado_382" data-name="Trazado 382" d="M109.288,100.414a3.317,3.317,0,0,1,.453.683c.273.463.681,1.145,1.171,2.048,1,1.8,2.39,4.444,4.009,7.812A133.054,133.054,0,0,1,125,139.056l.255,1.14-.926-.719a60.917,60.917,0,0,1-12.07-12.493l.772-.228c-.538,9.555-1.027,18.284-1.429,25.446l0,.079-.036.066L104.342,165.3q-1.26,2.2-2.03,3.536a7.762,7.762,0,0,1-.771,1.207,7.482,7.482,0,0,1,.6-1.3l1.869-3.624c1.707-3.212,4.081-7.676,6.962-13.1l-.04.146c.352-7.165.782-15.9,1.254-25.456l.06-1.209.713.981a61.359,61.359,0,0,0,11.9,12.329l-.672.42a142.169,142.169,0,0,0-9.754-28.043c-1.547-3.389-2.858-6.069-3.775-7.906-.423-.858-.769-1.556-1.044-2.112a3.354,3.354,0,0,1-.319-.756" transform="translate(115.335 65.675)" fill="#1a2e35"/>
        <path id="Trazado_383" data-name="Trazado 383" d="M76.939,182.392c-.237.023-1.676-13.093-3.212-29.291s-2.59-29.354-2.354-29.376,1.674,13.09,3.212,29.295,2.59,29.351,2.354,29.373" transform="translate(213.573 80.922)" fill="#1a2e35"/>
        <path id="Trazado_384" data-name="Trazado 384" d="M179.461,145.6a7.97,7.97,0,0,1,.893,1.662l2.188,4.631,7.271,15.26c2.845,5.961,5.349,11.4,7.048,15.383.852,1.993,1.515,3.616,1.942,4.75a7.849,7.849,0,0,1,.584,1.795,8.069,8.069,0,0,1-.893-1.662q-.893-1.891-2.188-4.633c-1.947-4.087-4.474-9.393-7.271-15.262-2.843-5.96-5.348-11.395-7.046-15.381-.852-1.991-1.517-3.614-1.942-4.749a8.034,8.034,0,0,1-.586-1.795" transform="translate(-87.675 95.227)" fill="#1a2e35"/>
        <path id="Trazado_385" data-name="Trazado 385" d="M115.391,200.462a9.555,9.555,0,0,1-.486,2.011c-.362,1.279-.94,3.113-1.694,5.367-1.507,4.507-3.789,10.672-6.664,17.334s-5.806,12.549-8.057,16.736c-1.123,2.094-2.064,3.771-2.747,4.913a9.607,9.607,0,0,1-1.131,1.732,9.54,9.54,0,0,1,.837-1.892c.668-1.346,1.507-3.03,2.5-5.032,2.107-4.249,4.934-10.158,7.807-16.8s5.23-12.749,6.881-17.2c.776-2.1,1.427-3.861,1.95-5.27a9.532,9.532,0,0,1,.8-1.905" transform="translate(136.66 131.111)" fill="#1a2e35"/>
        <path id="Trazado_386" data-name="Trazado 386" d="M108.179,217.223a11.3,11.3,0,0,1-1.32,3.062A62.96,62.96,0,0,1,97.631,233.4a11.391,11.391,0,0,1-2.436,2.278c-.189-.175,3.2-3.942,6.765-9.038,3.589-5.08,5.991-9.537,6.219-9.42" transform="translate(142.909 142.072)" fill="#1a2e35"/>
        <path id="Trazado_387" data-name="Trazado 387" d="M125.841,266.186a7.321,7.321,0,0,1-.187-1.277q-.139-1.382-.369-3.674c-.283-3.194-.748-7.809-1.346-13.507-1.25-11.388-3.186-27.113-6.507-44.274a413.893,413.893,0,0,0-10.71-43.439c-.815-2.746-1.616-5.21-2.326-7.372-.69-2.17-1.305-4.031-1.836-5.543q-.732-2.188-1.171-3.5a7.227,7.227,0,0,1-.352-1.242,7.175,7.175,0,0,1,.516,1.183q.5,1.3,1.323,3.447c.579,1.5,1.242,3.344,1.977,5.5.753,2.15,1.6,4.6,2.45,7.344a370.586,370.586,0,0,1,10.976,43.457c3.326,17.2,5.171,32.962,6.267,44.376.521,5.711.893,10.339,1.075,13.542.086,1.537.154,2.762.207,3.687a7.351,7.351,0,0,1,.013,1.29" transform="translate(115.572 93.109)" fill="#1a2e35"/>
        <path id="Trazado_388" data-name="Trazado 388" d="M99.274,229.915c-.253-.093,1.4-3.419,1.054-7.8-.27-4.39-2.375-7.45-2.137-7.577.081-.06.726.612,1.431,1.929a14.417,14.417,0,0,1,.8,11.342c-.514,1.4-1.057,2.157-1.146,2.109" transform="translate(144.942 140.314)" fill="#1a2e35"/>
        <path id="Trazado_389" data-name="Trazado 389" d="M100.856,230.516c-.237-.013-.367-1.077-.291-2.374s.331-2.337.569-2.324.367,1.077.291,2.374-.331,2.337-.569,2.324" transform="translate(140.795 147.695)" fill="#1a2e35"/>
        <g id="Grupo_125" data-name="Grupo 125" transform="translate(94.51 246.742)" opacity="0.3">
          <g id="Grupo_124" data-name="Grupo 124">
            <g id="Grupo_123" data-name="Grupo 123" clip-path="url(#clip-path-3)">
              <path id="Trazado_390" data-name="Trazado 390" d="M180.628,149.175a35.383,35.383,0,0,0,15.515,34.4c-3.9-9.924-10.654-24.19-15.515-34.4" transform="translate(-180.247 -149.175)"/>
            </g>
          </g>
        </g>
        <g id="Grupo_128" data-name="Grupo 128" transform="translate(158.113 196.881)" opacity="0.3">
          <g id="Grupo_127" data-name="Grupo 127">
            <g id="Grupo_126" data-name="Grupo 126" clip-path="url(#clip-path-4)">
              <path id="Trazado_391" data-name="Trazado 391" d="M121.325,130.25a37.625,37.625,0,0,0,8.485,11.282q-.082-4.521-.165-9.043,20.714,9.207,41.432,18.413L126.6,119.029c-2.428,4.086-2.85,7.136-5.278,11.221" transform="translate(-121.323 -119.031)"/>
            </g>
          </g>
        </g>
        <g id="Grupo_131" data-name="Grupo 131" transform="translate(226.624 192.407)" opacity="0.3">
          <g id="Grupo_130" data-name="Grupo 130">
            <g id="Grupo_129" data-name="Grupo 129" clip-path="url(#clip-path-5)">
              <path id="Trazado_392" data-name="Trazado 392" d="M111.929,124.976c-1.773-2.784-6.671-8.651-6.671-8.651-.157,4.342-.536,10.283-.693,14.625l-.625,10.4c.642-3.624,1.12-10.624,1.762-14.246l7.708,7.3c1.164-3.088.293-6.648-1.48-9.431" transform="translate(-103.94 -116.325)"/>
            </g>
          </g>
        </g>
        <g id="Grupo_134" data-name="Grupo 134" transform="translate(285.173 211.711)" opacity="0.3">
          <g id="Grupo_133" data-name="Grupo 133">
            <g id="Grupo_132" data-name="Grupo 132" clip-path="url(#clip-path-6)">
              <path id="Trazado_393" data-name="Trazado 393" d="M69.789,128l5.28,47.718c2.3-15.523,6.527-23.959-5.28-47.718" transform="translate(-69.789 -127.996)"/>
            </g>
          </g>
        </g>
        <g id="Grupo_137" data-name="Grupo 137" transform="translate(189.957 285.758)" opacity="0.3">
          <g id="Grupo_136" data-name="Grupo 136">
            <g id="Grupo_135" data-name="Grupo 135" clip-path="url(#clip-path-7)">
              <path id="Trazado_394" data-name="Trazado 394" d="M114.272,208.419c17.005-5.642,25.2-21.656,29.564-35.656a56.431,56.431,0,0,1-2.165,17.991c-1.841,5.783-5.2,11.213-10.136,14.742s-11.542,4.942-17.263,2.923" transform="translate(-114.272 -172.763)"/>
            </g>
          </g>
        </g>
        <path id="Trazado_395" data-name="Trazado 395" d="M209.5,198.865a3.3,3.3,0,0,1,1.2-.121,22.326,22.326,0,0,1,3.278.182,32.182,32.182,0,0,1,10.356,3.141,34.229,34.229,0,0,1,8.793,6.312,14.876,14.876,0,0,1,2.845,3.459c-.205.237-4.5-5.29-12.022-9a37.345,37.345,0,0,0-10.063-3.308c-2.686-.466-4.393-.518-4.39-.665" transform="translate(-173.969 129.982)" fill="#1a2e35"/>
        <path id="Trazado_396" data-name="Trazado 396" d="M210.273,189.71a13.368,13.368,0,0,1,3.316,2.82,30.745,30.745,0,0,1,5.749,8.808,31.42,31.42,0,0,1,2.5,10.219,13.628,13.628,0,0,1-.18,4.35c-.147,0-.111-1.662-.427-4.292a36.664,36.664,0,0,0-2.68-9.934,35.773,35.773,0,0,0-5.414-8.745c-1.71-2.021-2.957-3.113-2.861-3.225" transform="translate(-161.138 124.076)" fill="#1a2e35"/>
        <path id="Trazado_397" data-name="Trazado 397" d="M254.635,209.319a9.759,9.759,0,0,1-1.978.675c-1.287.366-3.136.953-5.389,1.747-2.266.762-4.9,1.849-7.8,3.1-2.878,1.307-5.991,2.848-9.177,4.623a136.423,136.423,0,0,0-15.6,10.275c-1.9,1.449-3.429,2.646-4.471,3.49a9.756,9.756,0,0,1-1.686,1.236,9.723,9.723,0,0,1,1.467-1.49c.978-.925,2.448-2.2,4.314-3.715a112.316,112.316,0,0,1,15.55-10.548c3.21-1.788,6.361-3.321,9.279-4.6,2.939-1.226,5.617-2.259,7.925-2.954,2.294-.726,4.18-1.226,5.5-1.5a9.767,9.767,0,0,1,2.063-.349" transform="translate(-191.022 136.895)" fill="#1a2e35"/>
        <path id="Trazado_398" data-name="Trazado 398" d="M247.286,209.448c0,.151-2.264.079-5.877.4a61.412,61.412,0,0,0-13.813,2.909,75.068,75.068,0,0,0-12.892,5.819c-3.158,1.795-5.033,3.052-5.113,2.936a5.625,5.625,0,0,1,1.216-1.027c.81-.625,2.034-1.461,3.586-2.431a62.44,62.44,0,0,1,12.93-6.113,53.014,53.014,0,0,1,14.044-2.7,36.29,36.29,0,0,1,4.337.013,5.615,5.615,0,0,1,1.581.2" transform="translate(-185.413 136.814)" fill="#1a2e35"/>
        <g id="Grupo_140" data-name="Grupo 140" transform="translate(24.654 347.022)" opacity="0.3">
          <g id="Grupo_139" data-name="Grupo 139">
            <g id="Grupo_138" data-name="Grupo 138" clip-path="url(#clip-path-8)">
              <path id="Trazado_399" data-name="Trazado 399" d="M246.188,210.089A49.4,49.4,0,0,0,211.76,221.2c-.7.581-1.456,1.419-1.155,2.278a1.584,1.584,0,0,0,1.679.892,4.757,4.757,0,0,0,1.877-.786A148,148,0,0,1,246.188,209.8" transform="translate(-210.537 -209.803)"/>
            </g>
          </g>
        </g>
        <path id="Trazado_400" data-name="Trazado 400" d="M44.549,176.593a3.3,3.3,0,0,0-1.2-.121,22.323,22.323,0,0,0-3.278.182A32.181,32.181,0,0,0,29.712,179.8a34.229,34.229,0,0,0-8.793,6.312,14.877,14.877,0,0,0-2.845,3.459c.205.237,4.5-5.29,12.022-9a37.417,37.417,0,0,1,10.063-3.31c2.686-.466,4.393-.516,4.39-.663" transform="translate(334.107 115.415)" fill="#1a2e35"/>
        <path id="Trazado_401" data-name="Trazado 401" d="M37.905,167.437a13.367,13.367,0,0,0-3.316,2.82,30.745,30.745,0,0,0-5.749,8.808,31.42,31.42,0,0,0-2.5,10.219,13.627,13.627,0,0,0,.18,4.35c.147,0,.111-1.662.427-4.292a36.65,36.65,0,0,1,2.68-9.934,35.742,35.742,0,0,1,5.414-8.745c1.71-2.021,2.957-3.113,2.861-3.225" transform="translate(327.151 109.509)" fill="#1a2e35"/>
        <path id="Trazado_402" data-name="Trazado 402" d="M7.176,187.047a9.761,9.761,0,0,0,1.978.675c1.287.366,3.136.953,5.389,1.747,2.266.763,4.9,1.849,7.8,3.1,2.876,1.307,5.991,2.848,9.177,4.623a136.42,136.42,0,0,1,15.6,10.275c1.9,1.449,3.429,2.646,4.471,3.49a9.756,9.756,0,0,0,1.685,1.236,9.781,9.781,0,0,0-1.467-1.489c-.978-.925-2.448-2.2-4.314-3.717a112.317,112.317,0,0,0-15.55-10.548c-3.211-1.788-6.361-3.321-9.279-4.6-2.939-1.224-5.617-2.259-7.925-2.954-2.294-.726-4.18-1.226-5.5-1.5a9.762,9.762,0,0,0-2.063-.349" transform="translate(343.402 122.329)" fill="#1a2e35"/>
        <path id="Trazado_403" data-name="Trazado 403" d="M11.2,187.176c0,.151,2.264.079,5.877.4a61.39,61.39,0,0,1,13.813,2.909A75.065,75.065,0,0,1,43.785,196.3c3.158,1.795,5.033,3.052,5.113,2.936a5.623,5.623,0,0,0-1.216-1.027c-.81-.625-2.034-1.462-3.586-2.431a62.445,62.445,0,0,0-12.93-6.113,53.016,53.016,0,0,0-14.043-2.7,36.323,36.323,0,0,0-4.339.013,5.614,5.614,0,0,0-1.581.2" transform="translate(341.113 122.248)" fill="#1a2e35"/>
        <g id="Grupo_143" data-name="Grupo 143" transform="translate(353.886 310.182)" opacity="0.3">
          <g id="Grupo_142" data-name="Grupo 142">
            <g id="Grupo_141" data-name="Grupo 141" clip-path="url(#clip-path-9)">
              <path id="Trazado_404" data-name="Trazado 404" d="M11.492,187.817a49.4,49.4,0,0,1,34.427,11.112c.7.581,1.456,1.419,1.155,2.278a1.584,1.584,0,0,1-1.679.892,4.756,4.756,0,0,1-1.877-.786,148,148,0,0,0-32.026-13.783" transform="translate(-11.491 -187.529)"/>
            </g>
          </g>
        </g>
        <g id="Grupo_146" data-name="Grupo 146" transform="translate(233.667 313.159)" opacity="0.3">
          <g id="Grupo_145" data-name="Grupo 145">
            <g id="Grupo_144" data-name="Grupo 144" clip-path="url(#clip-path-10)">
              <path id="Trazado_405" data-name="Trazado 405" d="M117.454,190.277c-1.093-1.34-3.321-1.158-4.678-.084a10.082,10.082,0,0,0-2.7,4.357q-10.1,25.066-20.2,50.134l-3.1,7.435q10.589-17.747,21.175-35.5c4.226-7.083,8.527-14.362,10-22.475.24-1.323.357-2.83-.493-3.87" transform="translate(-86.776 -189.329)"/>
            </g>
          </g>
        </g>
        <path id="Trazado_406" data-name="Trazado 406" d="M110.106,32.368C122.638,14.886,143.39,4.654,164.547.775c8.9-1.631,14.736-.448,23.607,1.346s17.033,5.971,22.707,13.022c6.739,8.374,12.556,17.862,14.405,28.451,1.9,10.877,3.808,21.827,3.68,32.868s-2.4,22.3-8.3,31.629L193,114.736c-15.406,1.512-31.028,3.019-46.3.457s-30.4-9.721-39.3-22.389c-12.362-17.6-9.827-42.956,2.7-60.436" transform="translate(15.317 0)" fill="#1a2e35"/>
        <path id="Trazado_407" data-name="Trazado 407" d="M95.041,85.545c-.051.069.5.66,1.763,1.36a13.726,13.726,0,0,0,5.883,1.578,14.98,14.98,0,0,0,8.773-2.369,14.944,14.944,0,0,0,4.109-20.241,14.97,14.97,0,0,0-7.154-5.6,13.775,13.775,0,0,0-6.034-.842,4.273,4.273,0,0,0-2.152.566c0,.334,3.234-.569,7.743,1.373a14.423,14.423,0,0,1,6.305,5.346,13.76,13.76,0,0,1-3.68,18.125,14.423,14.423,0,0,1-7.891,2.463c-4.908.03-7.534-2.063-7.665-1.755" transform="translate(133.467 38.83)" fill="#e1e1e1"/>
        <path id="Trazado_408" data-name="Trazado 408" d="M158.57,75.2c.291-6.353,3.2-12.763,8.459-16.339s12.913-3.732,17.746.4l4.727,4.956c7.074,2.491,11.9,10.043,11.544,17.535a19.813,19.813,0,0,1-12.678,17.055A21.933,21.933,0,0,1,167.2,95.1a24.59,24.59,0,0,1-8.634-19.9" transform="translate(-54.761 36.737)" fill="#1a2e35"/>
        <path id="Trazado_409" data-name="Trazado 409" d="M171.128,91.172c.2-.108-1.856-1.773-1.859-5.467.007-3.593,2.3-8.451,5.6-12.978a37.924,37.924,0,0,1,10.629-9.7c3.164-1.967,5.374-2.754,5.29-2.977-.036-.134-2.388.329-5.773,2.134a33.776,33.776,0,0,0-11.249,9.721,33.174,33.174,0,0,0-4.081,7.164,15.131,15.131,0,0,0-1.384,6.666,7.9,7.9,0,0,0,1.537,4.352c.69.867,1.247,1.146,1.3,1.083" transform="translate(-60.573 39.263)" fill="#375a64"/>
        <path id="Trazado_410" data-name="Trazado 410" d="M169.445,97.469c.455-.056-1.987-8.388.066-18.544,1.905-10.189,7.291-17,6.891-17.217-.117-.1-1.619,1.437-3.429,4.385a38.987,38.987,0,0,0-5.063,26.023c.572,3.411,1.389,5.4,1.535,5.352" transform="translate(-44.836 40.357)" fill="#375a64"/>
        <path id="Trazado_411" data-name="Trazado 411" d="M172.933,156.114c-.814-9.8-1.556-17.817-1.553-17.773,0,0,22.636-3.966,27.068-33.587,2.2-14.731,1.249-38.842-.169-58.545C197,28.473,180.348,5.277,158.434,6.6l-9.809-.509L112.3,23.284a10.4,10.4,0,0,0-9.213,10.637l7.959,126.7,67.541,71.112,3.875-20.062Z" transform="translate(38.287 3.982)" fill="#ffc09d"/>
        <path id="Trazado_412" data-name="Trazado 412" d="M122.568,65.588a6.233,6.233,0,0,1,1.905-3.975,6.373,6.373,0,0,1,7.683-.933,8.536,8.536,0,0,1,3.745,7.787,7.756,7.756,0,0,1-5.334,3.566,9.089,9.089,0,0,1-1.037.1,6.959,6.959,0,0,1-4.8-1.555,6.2,6.2,0,0,1-2.159-4.99" transform="translate(69.905 39.111)" fill="#ff9b6c"/>
        <path id="Trazado_413" data-name="Trazado 413" d="M116.264,43.843A3.794,3.794,0,0,1,112.64,47.7a3.628,3.628,0,0,1-3.942-3.384,3.8,3.8,0,0,1,3.619-3.862,3.631,3.631,0,0,1,3.947,3.386" transform="translate(112.491 26.456)" fill="#1a2e35"/>
        <path id="Trazado_414" data-name="Trazado 414" d="M122.9,38.791c-.466.5-3.359-1.6-7.442-1.555-4.077-.012-7.055,2.116-7.5,1.619-.222-.22.251-1.116,1.547-2.077a10.412,10.412,0,0,1,6-1.909,10,10,0,0,1,5.928,1.856c1.264.951,1.7,1.843,1.467,2.066" transform="translate(107.112 22.806)" fill="#1a2e35"/>
        <path id="Trazado_415" data-name="Trazado 415" d="M118.146,70.3c-.022-.232,2.512-.693,6.62-1.255,1.04-.117,2.026-.332,2.195-1.045.238-.756-.207-1.876-.723-3.083l-3.154-7.911c-4.382-11.261-7.564-20.527-7.109-20.7s4.377,8.816,8.758,20.077q1.583,4.168,3.025,7.958c.405,1.183,1.095,2.519.577,4.087a2.619,2.619,0,0,1-1.7,1.54,7.1,7.1,0,0,1-1.768.261c-4.137.26-6.7.3-6.72.069" transform="translate(88.269 23.745)" fill="#1a2e35"/>
        <path id="Trazado_416" data-name="Trazado 416" d="M159.576,90.084a75.239,75.239,0,0,1-39.707-10.212s10.736,20.408,40.316,17.376Z" transform="translate(50.091 52.24)" fill="#ff9b6c"/>
        <path id="Trazado_417" data-name="Trazado 417" d="M122.17,58.63c.663-.045.711,4.387,4.532,7.5s8.533,2.58,8.573,3.2c.065.278-1.044.872-3.037.943a11.029,11.029,0,0,1-7.154-2.422,9.6,9.6,0,0,1-3.516-6.287c-.185-1.851.3-2.954.6-2.931" transform="translate(72.257 38.347)" fill="#1a2e35"/>
        <path id="Trazado_418" data-name="Trazado 418" d="M122.945,28.7c-.71.933-3.531,0-6.912-.018-3.381-.134-6.239.678-6.907-.286-.294-.468.151-1.4,1.393-2.289a10.008,10.008,0,0,1,11.135.245c1.2.943,1.6,1.894,1.292,2.349" transform="translate(105.145 16.048)" fill="#1a2e35"/>
        <path id="Trazado_419" data-name="Trazado 419" d="M131.87,44.467a3.793,3.793,0,0,0,3.831,3.654,3.627,3.627,0,0,0,3.748-3.6,3.794,3.794,0,0,0-3.827-3.655,3.631,3.631,0,0,0-3.751,3.6" transform="translate(50.976 26.729)" fill="#1a2e35"/>
        <path id="Trazado_420" data-name="Trazado 420" d="M131.3,40.795c.493.473,3.265-1.785,7.344-1.963,4.071-.238,7.162,1.722,7.58,1.2.207-.232-.314-1.1-1.659-1.99a10.431,10.431,0,0,0-6.1-1.575,10.007,10.007,0,0,0-5.816,2.18c-1.209,1.021-1.593,1.934-1.351,2.145" transform="translate(45.226 23.844)" fill="#1a2e35"/>
        <path id="Trazado_421" data-name="Trazado 421" d="M131.992,37.436c.759.892,3.525-.2,6.9-.4,3.368-.321,6.267.332,6.881-.667.266-.485-.227-1.391-1.517-2.21a10.008,10.008,0,0,0-11.1.86c-1.151,1.007-1.5,1.98-1.161,2.417" transform="translate(44.584 21.499)" fill="#1a2e35"/>
        <path id="Trazado_422" data-name="Trazado 422" d="M176.181,56.079c-.025-2.2-2.618-7.374-4.8-7.693-5.817-.853-16.282-.293-16.248,14.46.046,20.168,20.285,15.96,20.32,15.383.026-.453.81-14.544.724-22.149" transform="translate(-24.248 31.483)" fill="#ffc09d"/>
        <path id="Trazado_423" data-name="Trazado 423" d="M169.374,67.916c-.088-.064-.351.246-.943.521a3.519,3.519,0,0,1-2.627.06c-2.134-.776-3.935-4.155-4.041-7.791a11.6,11.6,0,0,1,.971-5.033,4.049,4.049,0,0,1,2.637-2.7,1.788,1.788,0,0,1,2.076.956c.271.564.144.968.251,1,.056.051.432-.337.268-1.169a2.244,2.244,0,0,0-.8-1.264,2.659,2.659,0,0,0-1.944-.509c-1.556.112-2.952,1.547-3.664,3.136a11.943,11.943,0,0,0-1.2,5.625c.139,4.064,2.228,7.862,5.146,8.7a3.766,3.766,0,0,0,3.212-.543c.624-.5.728-.949.658-.986" transform="translate(-26.08 33.99)" fill="#ff9b6c"/>
        <path id="Trazado_424" data-name="Trazado 424" d="M134.623,76.8l5.442,4.969c20.694-22.5,60.4-78.083,58.193-74.781,0,0-15.5-5.247-31.708-1.408s-46.773,14.028-45.061,33.327S134.623,76.8,134.623,76.8" transform="translate(9.367 2.73)" fill="#1a2e35"/>
        <path id="Trazado_425" data-name="Trazado 425" d="M182,88.191c.06.061-.41.72-1.575,1.573a13.748,13.748,0,0,1-5.635,2.314,14.972,14.972,0,0,1-9-1.234,14.941,14.941,0,0,1-6.653-19.552,14.981,14.981,0,0,1,6.385-6.469,13.723,13.723,0,0,1,5.877-1.6,4.289,4.289,0,0,1,2.206.284c.043.332-3.278-.152-7.5,2.347a14.415,14.415,0,0,0-5.574,6.107,13.759,13.759,0,0,0,5.956,17.508,14.423,14.423,0,0,0,8.14,1.439c4.873-.594,7.212-3,7.38-2.716" transform="translate(-34.348 41.347)" fill="#e1e1e1"/>
        <path id="Trazado_426" data-name="Trazado 426" d="M131.239,95.7a41.857,41.857,0,0,0-.1-4.679,70.434,70.434,0,0,1,.875-12.648c1.545-10.568,6.737-24.864,16.658-37.906S170.442,18.125,179.2,11.955c4.4-3.091,8.065-5.453,10.6-7.069a33.155,33.155,0,0,0,3.9-2.608,4.078,4.078,0,0,0-1.116.491c-.7.369-1.747.906-3.055,1.659-2.632,1.479-6.385,3.722-10.88,6.725-8.937,5.994-21,15.247-31.068,28.479s-15.207,27.844-16.521,38.6a61.171,61.171,0,0,0-.45,12.814c.063,1.512.294,2.673.385,3.464a4.144,4.144,0,0,0,.246,1.191" transform="translate(-0.925 1.486)" fill="#375a64"/>
        <path id="Trazado_427" data-name="Trazado 427" d="M194.9,2.054a4.262,4.262,0,0,0-1.15.46c-.734.337-1.8.87-3.158,1.585-2.714,1.431-6.593,3.6-11.208,6.581a170.392,170.392,0,0,0-15.6,11.35c-5.577,4.62-11.689,9.9-16.769,16.693a45.855,45.855,0,0,0-6.052,10.76,42.661,42.661,0,0,0-2.589,11.208,66.724,66.724,0,0,0,1.284,19.293c1.092,5.4,2.344,9.661,3.24,12.594.45,1.465.827,2.6,1.1,3.356a4.155,4.155,0,0,0,.478,1.141,34.818,34.818,0,0,0-1.059-4.643c-.736-2.969-1.841-7.26-2.8-12.627a68.739,68.739,0,0,1-.979-18.983,42.067,42.067,0,0,1,2.585-10.851,45.232,45.232,0,0,1,5.9-10.427C153.08,32.916,159.1,27.652,164.6,23.005A191.047,191.047,0,0,1,179.925,11.49c4.522-3.063,8.308-5.356,10.933-6.925A37.244,37.244,0,0,0,194.9,2.054" transform="translate(-14.858 1.339)" fill="#375a64"/>
        <path id="Trazado_428" data-name="Trazado 428" d="M125.516,77.291a18.626,18.626,0,0,0,2.465-2.709l6.315-7.695c5.283-6.535,12.506-15.617,20.416-25.7s15.015-19.266,20.1-25.955c2.4-3.2,4.4-5.87,5.969-7.964a18.753,18.753,0,0,0,2.044-3.038,18.465,18.465,0,0,0-2.46,2.7l-6.312,7.691c-5.285,6.535-12.511,15.622-20.427,25.714s-15.019,19.271-20.107,25.959l-5.968,7.963a18.572,18.572,0,0,0-2.039,3.034" transform="translate(18.109 2.764)" fill="#e1e1e1"/>
        <path id="Trazado_429" data-name="Trazado 429" d="M135.8,58.2c-.093.233-1.745-.352-3.745.109-2.011.41-3.273,1.626-3.454,1.452-.21-.1.948-1.8,3.27-2.294,2.317-.518,4.076.551,3.928.733" transform="translate(60.059 37.491)" fill="#ff9b6c"/>
        <path id="Trazado_430" data-name="Trazado 430" d="M148.788,42.75c.025.23-1.676.587-3.8.455s-3.765-.69-3.712-.915,1.72-.066,3.765.055,3.722.162,3.743.405" transform="translate(26.075 27.582)" fill="#ff9b6c"/>
        <path id="Trazado_431" data-name="Trazado 431" d="M147.07,43.424c.033.241-1.136.587-2.547,1.034s-2.569.822-2.681.607.931-.963,2.423-1.429,2.779-.443,2.805-.212" transform="translate(26.874 28.295)" fill="#ff9b6c"/>
        <path id="Trazado_432" data-name="Trazado 432" d="M109.1,41.168c.081.223-.88.782-2.15,1.247s-2.364.662-2.446.438.882-.782,2.15-1.247,2.365-.662,2.446-.438" transform="translate(126.582 26.866)" fill="#ff9b6c"/>
        <path id="Trazado_433" data-name="Trazado 433" d="M109.134,44.174c-.078.225-1.135.065-2.362-.357s-2.16-.946-2.082-1.171,1.135-.065,2.362.357,2.16.946,2.082,1.171" transform="translate(126.251 27.825)" fill="#ff9b6c"/>
      </g>
    </g>
  </g>
</svg>
