<svg id="Grupo_56" data-name="Grupo 56" xmlns="http://www.w3.org/2000/svg" xmlns:xlink="http://www.w3.org/1999/xlink" width="296.1" height="421.187" viewBox="0 0 296.1 421.187">
  <defs>
    <clipPath id="clip-path">
      <rect id="Rectángulo_118" data-name="Rectángulo 118" width="296.1" height="421.187" fill="none"/>
    </clipPath>
    <clipPath id="clip-path-3">
      <rect id="Rectángulo_109" data-name="Rectángulo 109" width="11.007" height="23.822" fill="none"/>
    </clipPath>
    <clipPath id="clip-path-4">
      <rect id="Rectángulo_110" data-name="Rectángulo 110" width="34.45" height="22.07" fill="none"/>
    </clipPath>
    <clipPath id="clip-path-5">
      <rect id="Rectángulo_111" data-name="Rectángulo 111" width="6.925" height="17.329" fill="none"/>
    </clipPath>
    <clipPath id="clip-path-6">
      <rect id="Rectángulo_112" data-name="Rectángulo 112" width="5.497" height="33.042" fill="none"/>
    </clipPath>
    <clipPath id="clip-path-7">
      <rect id="Rectángulo_113" data-name="Rectángulo 113" width="21.024" height="25.97" fill="none"/>
    </clipPath>
    <clipPath id="clip-path-8">
      <rect id="Rectángulo_114" data-name="Rectángulo 114" width="20.48" height="25.332" fill="none"/>
    </clipPath>
    <clipPath id="clip-path-9">
      <rect id="Rectángulo_115" data-name="Rectángulo 115" width="24.685" height="10.094" fill="none"/>
    </clipPath>
    <clipPath id="clip-path-10">
      <rect id="Rectángulo_116" data-name="Rectángulo 116" width="21.705" height="43.478" fill="none"/>
    </clipPath>
  </defs>
  <g id="Grupo_99" data-name="Grupo 99" clip-path="url(#clip-path)">
    <g id="Grupo_98" data-name="Grupo 98">
      <g id="Grupo_97" data-name="Grupo 97" clip-path="url(#clip-path)">
        <path id="Trazado_284" data-name="Trazado 284" d="M176.85,224.146l4.531,12.83s20.968,19.248,24.061,45.032,3.094,31.4,3.094,31.4l-6.494,75.2H62.263s-4.631-60.786-2.913-77.975S71.048,274,71.048,274L81.7,248.214l.315-12.979Z" transform="translate(20.027 32.575)" fill="#1a2e35"/>
        <path id="Trazado_285" data-name="Trazado 285" d="M180.507,236.495a6.189,6.189,0,0,1-.979.214l-2.827.5-10.416,1.709c-8.8,1.409-20.972,3.277-34.44,5.163s-25.7,3.386-34.572,4.27c-4.434.455-8.029.755-10.515.932l-2.866.18a6.24,6.24,0,0,1-1,.022,6.289,6.289,0,0,1,.992-.142l2.854-.291c2.48-.249,6.066-.612,10.491-1.12,8.855-.991,21.064-2.567,34.534-4.442S157.4,239.8,166.222,238.5l10.444-1.522,2.844-.388a6.2,6.2,0,0,1,1-.1" transform="translate(20.654 34.369)" fill="#375a64"/>
        <path id="Trazado_286" data-name="Trazado 286" d="M172.122,276.223a5.986,5.986,0,0,1-.512,1.258c-.361.794-.927,1.923-1.662,3.3a95.379,95.379,0,0,1-14.184,19.763c-1.067,1.137-1.956,2.034-2.593,2.63a5.856,5.856,0,0,1-1.026.888,5.923,5.923,0,0,1,.86-1.049l2.446-2.751c2.049-2.335,4.788-5.644,7.553-9.494s5.018-7.5,6.574-10.192l1.823-3.2a5.994,5.994,0,0,1,.719-1.151" transform="translate(-50.281 40.143)" fill="#375a64"/>
        <path id="Trazado_287" data-name="Trazado 287" d="M27.326,105.947s2.868,48.177,3.728,53.627S27.326,171.9,27.326,171.9s-10.61,1.148-17.78-12.044L4.958,149.535a65.738,65.738,0,0,0,2.58-27.243c-1.72-15.486-2.58-22.656-2.58-22.656Z" transform="translate(259.259 14.48)" fill="#ffc09d"/>
        <path id="Trazado_288" data-name="Trazado 288" d="M43.116,49.311c1.259,11.629,1.1,21.683-4.633,23.736-.481.172-4.326.322-4.836.378C27.054,74.139,20.6,64.5,19.24,51.9s2.875-23.4,9.468-24.114a43.664,43.664,0,0,1,4.745-.462c5.912,1.054,8.427,10.569,9.663,21.991" transform="translate(230.602 3.968)" fill="#375a64"/>
        <path id="Trazado_289" data-name="Trazado 289" d="M29.314,85.168s4.834,1.6,3.959,6.273a107.607,107.607,0,0,1-3.959,12.941l-6,6.659L1.5,104.382A13.448,13.448,0,0,1,.01,97.861C.156,94.214,0,85.168,0,85.168A21.626,21.626,0,0,0,3.95,76.852c.73-3.773,1.258-8.155,1.412-9.5A.4.4,0,0,1,5.841,67a5.628,5.628,0,0,1,4.237,3.868c1.167,3.647.875,4.668.875,4.668Z" transform="translate(262.72 9.736)" fill="#ffc09d"/>
        <path id="Trazado_290" data-name="Trazado 290" d="M23.913,69.928l-3.119-4.981-3.271,2.524,6.066,11.99,1.655-5.026Z" transform="translate(250.786 9.439)" fill="#375a64"/>
        <path id="Trazado_291" data-name="Trazado 291" d="M6.508,69.723s3.412-5.155,6.579-2.7,2.437,3.918,0,8.426c0,0,6.213-.853,4.752,5.725,0,0,6.161-1.211,6,4.085,0,0,5.083,4.2,2.89,7.367s-10.6,9.26-12.915,8.528-2.6-3.9-2.6-3.9S8.457,96.282,7.6,94.942s.244-3.411.244-3.411-2.436-2.1-3.045-2.7,0-3.64,0-3.64l3.289-3.776S3.34,83.977,2.244,83.246-.071,81.906.9,80.322a50.261,50.261,0,0,1,4.605-5.249Z" transform="translate(268.191 9.644)" fill="#ffc09d"/>
        <path id="Trazado_292" data-name="Trazado 292" d="M3.546,95.184A17.028,17.028,0,0,1,5,93.085a18.963,18.963,0,0,1,4.2-4.557,44.057,44.057,0,0,0,4.844-3.722,24.472,24.472,0,0,0,1.6-1.944,4.568,4.568,0,0,1-1.288,2.232A30.351,30.351,0,0,1,9.561,89,22.974,22.974,0,0,0,5.33,93.343a8.043,8.043,0,0,1-1.784,1.841" transform="translate(276.394 12.042)" fill="#ff9b6c"/>
        <path id="Trazado_293" data-name="Trazado 293" d="M8.8,90.584a48.007,48.007,0,0,1,4.653-5.958c1.355-1.57,2.5-3.082,3.522-4.034A4.627,4.627,0,0,1,18.8,79.3c.049.077-.63.572-1.521,1.589-.911.994-2,2.538-3.371,4.125A48.045,48.045,0,0,1,8.8,90.584" transform="translate(267.235 11.523)" fill="#ff9b6c"/>
        <path id="Trazado_294" data-name="Trazado 294" d="M12.992,80.3c-.129-.139,1.191-1.381,2.637-3.01A37.495,37.495,0,0,0,17.9,74.059c.173.023-.279,1.92-1.823,3.62A10.046,10.046,0,0,1,12.992,80.3" transform="translate(263.291 10.763)" fill="#ff9b6c"/>
        <path id="Trazado_295" data-name="Trazado 295" d="M17.763,84.963a4.278,4.278,0,0,1,2.032.834,11.6,11.6,0,0,1,3.627,3.861A22.077,22.077,0,0,1,25.49,94.51a7.421,7.421,0,0,1,.488,2.125,8.563,8.563,0,0,1-.886-1.985,31.68,31.68,0,0,0-2.182-4.686,13.252,13.252,0,0,0-3.355-3.821c-1.051-.787-1.829-1.089-1.792-1.181" transform="translate(249.761 12.346)" fill="#ff9b6c"/>
        <path id="Trazado_296" data-name="Trazado 296" d="M37.687,49.062c1.364,12.6-2.091,23.315-7.717,23.924S18.677,63.871,17.313,51.267,19.4,27.953,25.03,27.343s11.293,9.115,12.657,21.719" transform="translate(238.627 3.97)" fill="#1a2e35"/>
        <path id="Trazado_297" data-name="Trazado 297" d="M30.158,72.611c5.271-2.643,8.417-12.337,7.216-23.437C36.179,38.134,31.08,29.368,25.4,27.844c-4.47,2.551-7.011,12.183-5.808,23.287,1.195,11.036,5.687,19.863,10.563,21.481" transform="translate(236.369 4.047)" fill="#e1e1e1"/>
        <path id="Trazado_298" data-name="Trazado 298" d="M26.9,61.751c-.165.01-.586-4.825-.941-10.8a98.856,98.856,0,0,1-.347-10.835c.165-.01.586,4.824.943,10.8s.511,10.825.346,10.834" transform="translate(239.866 5.83)" fill="#fff"/>
        <path id="Trazado_299" data-name="Trazado 299" d="M28.721,55.283a14.133,14.133,0,0,1-.584-3c-.266-1.869-.543-4.466-.7-7.344s-.164-5.491-.1-7.378a14.2,14.2,0,0,1,.253-3.049,17.248,17.248,0,0,1,.168,3.05c.048,1.882.121,4.478.277,7.344s.367,5.455.525,7.33a17.338,17.338,0,0,1,.165,3.051" transform="translate(236.081 5.015)" fill="#fff"/>
        <path id="Trazado_300" data-name="Trazado 300" d="M6.457,69.725a1.617,1.617,0,0,1-.033.363c-.042.273-.1.614-.16,1.039Q6.02,72.561,5.587,75.1l-.007.038-.029.03c-.668.694-1.414,1.49-2.221,2.387A21.361,21.361,0,0,0,.907,80.621a1.5,1.5,0,0,0-.195.927,1.439,1.439,0,0,0,.552.8A9.708,9.708,0,0,0,2.2,83a1.328,1.328,0,0,0,1.011.113,19.1,19.1,0,0,0,4.712-1.907l1.114-.574-.818.945L4.948,85.368l.047-.081a4.574,4.574,0,0,0,.121,3.644,10.167,10.167,0,0,0,3.067,2.64l.258.163-.175.247c-.7.986-1.132,2.488-.038,3.3A13.328,13.328,0,0,0,11.8,97.31l-.4.268v-.085c.081.08-.184-.192.191.239.773-.448.221-.176.391-.253v0l.006.136.027.292a5.34,5.34,0,0,0,.1.582,4.594,4.594,0,0,0,.4,1.105,3,3,0,0,0,.714.9,1.778,1.778,0,0,0,.97.454,5.657,5.657,0,0,0,2.32-.663,21.065,21.065,0,0,0,2.254-1.251,38.579,38.579,0,0,0,3.957-2.872,24.413,24.413,0,0,0,3.395-3.3,2.963,2.963,0,0,0,.789-1.957,4.572,4.572,0,0,0-.56-2.068,12,12,0,0,0-2.755-3.359l-.1-.086-.006-.139a4.512,4.512,0,0,0-.383-2.032,3.058,3.058,0,0,0-1.382-1.379,6.744,6.744,0,0,0-3.91-.413l-.356.054.056-.362c.061-.4.14-.791.188-1.181a6.467,6.467,0,0,0-.007-1.154A3.194,3.194,0,0,0,16.9,76.81a4.7,4.7,0,0,0-3.838-1.141l-.417.036.195-.358A34.819,34.819,0,0,0,14.578,71.9a4.867,4.867,0,0,0,.375-1.666,2.67,2.67,0,0,0-.448-1.484,6.767,6.767,0,0,0-2.142-1.967,2.892,2.892,0,0,0-2.354-.042A7.842,7.842,0,0,0,7.259,68.8c-.273.293-.463.533-.6.689a1.41,1.41,0,0,1-.206.235.994.994,0,0,1,.155-.273,8.783,8.783,0,0,1,.552-.735A9.525,9.525,0,0,1,8.2,67.636a5.967,5.967,0,0,1,1.72-1.124,3.143,3.143,0,0,1,2.572,0l.635.387c.19.153.385.312.584.471A6.175,6.175,0,0,1,14.8,68.558a3.021,3.021,0,0,1,.528,1.673,5.166,5.166,0,0,1-.377,1.81,34.477,34.477,0,0,1-1.718,3.515l-.223-.322a6.541,6.541,0,0,1,2.2.127,4.035,4.035,0,0,1,2.048,1.122,3.682,3.682,0,0,1,.957,2.248,7.025,7.025,0,0,1,.016,1.252c-.047.415-.126.829-.19,1.25l-.3-.308a7.219,7.219,0,0,1,4.25.435,3.6,3.6,0,0,1,1.633,1.618,5.052,5.052,0,0,1,.449,2.292l-.1-.223a12.466,12.466,0,0,1,2.91,3.528,5.135,5.135,0,0,1,.63,2.339,3.676,3.676,0,0,1-.244,1.248,5.384,5.384,0,0,1-.667,1.064,24.747,24.747,0,0,1-3.477,3.395,39.081,39.081,0,0,1-4.018,2.919,21.6,21.6,0,0,1-2.319,1.285,6.105,6.105,0,0,1-2.609.716,2.953,2.953,0,0,1-2.168-1.664,5.2,5.2,0,0,1-.457-1.248,6.228,6.228,0,0,1-.113-.645l-.03-.328-.006-.173v-.045c.17-.079-.384.191.391-.258.377.429.112.158.194.239l0,.025v.142l0,.439-.4-.171A13.7,13.7,0,0,1,7.838,95.7a2.777,2.777,0,0,1-.689-.921A2.3,2.3,0,0,1,7,93.635a4.431,4.431,0,0,1,.813-1.991l.081.409a10.552,10.552,0,0,1-3.241-2.837,3.8,3.8,0,0,1-.507-2.089,6.71,6.71,0,0,1,.358-2.018l.015-.044.033-.038,3.3-3.765.3.37a19.262,19.262,0,0,1-4.872,1.913,1.758,1.758,0,0,1-1.313-.19A9.921,9.921,0,0,1,1,82.662a1.822,1.822,0,0,1-.676-1.045,1.859,1.859,0,0,1,.245-1.172,20.859,20.859,0,0,1,2.523-3.111c.826-.888,1.59-1.67,2.276-2.351l-.036.066c.342-1.687.612-3.013.8-3.967.092-.418.166-.754.224-1.02a1.373,1.373,0,0,1,.1-.338" transform="translate(268.242 9.626)" fill="#ff9b6c"/>
        <path id="Trazado_301" data-name="Trazado 301" d="M251.47,261.864l-43.254-53.707s-23,19.369-23.612,19.977,35.98,36.2,59.478,49.981l7.389-4.891Z" transform="translate(-166.794 30.251)" fill="#ffc09d"/>
        <path id="Trazado_302" data-name="Trazado 302" d="M192.047,240.186s-13.657-2.157-14.914-1.258-10.6,7.188-10.6,7.188a50.931,50.931,0,0,1-4.133,5.57s-3.055,3.594-5.391,3.954a10.454,10.454,0,0,1-3.773,0l-6.11,16.891s4.672,4.852,7.548,4.492,18.149-8.8,18.149-8.8l3.774-1.259s14.735.539,15.454-3.953v-1.259l-14.556-1.258-5.39.9,9.344-3.515s13.657-.8,14.914-1.158,2.7-2.335,2.157-3.414l-2.875-.358s3.1-2.145,2.992-4.122l-12.927-2.051s7.779-3.891,6.342-6.586" transform="translate(-71.039 34.691)" fill="#ffc09d"/>
        <path id="Trazado_303" data-name="Trazado 303" d="M176.911,251.306a5.29,5.29,0,0,1-1.184-.165c-.754-.135-1.847-.314-3.2-.514-2.71-.4-6.468-.875-10.625-1.34a13.358,13.358,0,0,0-1.5-.127,4.569,4.569,0,0,0-1.387.248c-.876.346-1.764.761-2.577,1.134-1.638.764-3.087,1.507-4.276,2.178a32.128,32.128,0,0,0-2.734,1.718,6.522,6.522,0,0,1-.98.679,3.583,3.583,0,0,1,.837-.861,21.6,21.6,0,0,1,2.663-1.9c1.174-.726,2.616-1.514,4.254-2.311.829-.4,1.664-.8,2.62-1.19a5.073,5.073,0,0,1,1.566-.289,13.034,13.034,0,0,1,1.584.127c4.167.465,7.926,1.007,10.63,1.516,1.351.255,2.44.5,3.183.7a4.154,4.154,0,0,1,1.134.392" transform="translate(-50.822 36.124)" fill="#ff9b6c"/>
        <path id="Trazado_304" data-name="Trazado 304" d="M175.748,246.447c-.039.094-1.054-.354-2.781-.687a15.15,15.15,0,0,0-12.786,3.315c-1.347,1.13-2.017,2.013-2.1,1.951a7.261,7.261,0,0,1,1.818-2.267,14.173,14.173,0,0,1,13.158-3.411,7.262,7.262,0,0,1,2.689,1.1" transform="translate(-60.703 35.594)" fill="#ff9b6c"/>
        <path id="Trazado_305" data-name="Trazado 305" d="M99.964,160.31s2.631,4.742,2.631,9.22-2.619,12.316-2.619,12.316l-3.258,3.079s2.138,9.8-10.267,12.6S4.606,160.4,4.606,160.4L2.672,107.392s10.077,4.2,17.353,11.476,48.7,37.787,48.7,37.787,1.684-10.808,3.549-10.094S99.964,160.31,99.964,160.31" transform="translate(190.444 15.607)" fill="#e1e1e1"/>
        <path id="Trazado_306" data-name="Trazado 306" d="M211.287,109.734l-37.579-7.993-9.782-10.054-43.216-.412-5.2,9.459L83.125,120.426s8.155,53.937,11.129,60.218,26.554,75.641,26.554,75.641l94.209-11.239.806-43.529,2.724-21.063a62.439,62.439,0,0,0,.269-13.586c-1.763-19.7-7.529-57.134-7.529-57.134" transform="translate(-18.171 13.265)" fill="#e1e1e1"/>
        <path id="Trazado_307" data-name="Trazado 307" d="M242.429,234.388l-30.878,21.177-10.79-15.379,2.883-2.563s-15.933-13.17-14.972-22.462,17.762-33.187,17.762-33.187,36-58.926,47.151-65.244c1.561-.884,15.1,31.82,15.1,44.636s-2.563,12.816-2.563,12.816-10.894,10.574-16.021,20.185-13.832,20.079-19.6,23.924Z" transform="translate(-188.631 16.962)" fill="#e1e1e1"/>
        <path id="Trazado_308" data-name="Trazado 308" d="M221.037,198.825a2.282,2.282,0,0,1,.833-.084,15.462,15.462,0,0,1,2.27.126,22.283,22.283,0,0,1,7.171,2.175,23.7,23.7,0,0,1,6.089,4.371,10.3,10.3,0,0,1,1.97,2.395c-.142.164-3.118-3.663-8.324-6.232a25.866,25.866,0,0,0-6.967-2.291c-1.861-.323-3.043-.358-3.041-.46" transform="translate(-196.431 28.882)" fill="#1a2e35"/>
        <path id="Trazado_309" data-name="Trazado 309" d="M221.8,189.708a9.253,9.253,0,0,1,2.3,1.953,21.287,21.287,0,0,1,3.981,6.1,21.758,21.758,0,0,1,1.728,7.076,9.439,9.439,0,0,1-.125,3.012c-.1,0-.077-1.151-.3-2.972A25.389,25.389,0,0,0,227.534,198a24.771,24.771,0,0,0-3.749-6.055c-1.184-1.4-2.048-2.156-1.981-2.233" transform="translate(-187.782 27.57)" fill="#1a2e35"/>
        <path id="Trazado_310" data-name="Trazado 310" d="M139.057,160.432a7.938,7.938,0,0,1,.279,1.56,15.5,15.5,0,0,1,.181,1.852c.034.724.115,1.55.076,2.464a28.747,28.747,0,0,1-.141,2.988c-.061,1.077-.259,2.21-.441,3.407a39.379,39.379,0,0,1-5.755,14.561c-.686,1-1.317,1.961-2.008,2.788a28.861,28.861,0,0,1-1.94,2.277c-.6.694-1.221,1.242-1.741,1.747a15.5,15.5,0,0,1-1.4,1.228,8.068,8.068,0,0,1-1.27.947c-.082-.1,1.7-1.489,4.095-4.2.594-.683,1.24-1.433,1.862-2.3.665-.829,1.272-1.79,1.937-2.783a41.239,41.239,0,0,0,5.677-14.365c.194-1.177.409-2.294.489-3.355.137-1.055.18-2.043.212-2.948.109-3.618-.239-5.854-.115-5.868" transform="translate(13.448 23.315)" fill="#1a2e35"/>
        <path id="Trazado_311" data-name="Trazado 311" d="M180.253,148.756a5.508,5.508,0,0,1-.733-.55c-.472-.37-1.138-.951-2.048-1.639-1.783-1.42-4.447-3.376-7.818-5.7s-7.461-5.015-11.987-8.068a145.444,145.444,0,0,1-14.307-10.665l.44-.05c-.48.686-.97,1.439-1.433,2.216a32.758,32.758,0,0,0-3.943,10.448l-.172.908-.377-.842a145.8,145.8,0,0,1-8.461-24.976c-.77-3.2-1.287-5.769-1.594-7.545-.165-.885-.258-1.576-.329-2.041a3.751,3.751,0,0,1-.077-.712,3.815,3.815,0,0,1,.178.7c.108.509.247,1.18.424,2.02.368,1.762.941,4.318,1.759,7.493a155.425,155.425,0,0,0,8.627,24.826l-.549.066a33.073,33.073,0,0,1,4-10.644c.471-.791.97-1.559,1.46-2.257l.189-.27.252.22a151.076,151.076,0,0,0,14.216,10.664c4.5,3.075,8.575,5.8,11.918,8.178s5.981,4.389,7.725,5.866c.89.717,1.534,1.327,1.983,1.726a5.522,5.522,0,0,1,.656.638" transform="translate(-30.08 14.465)" fill="#1a2e35"/>
        <path id="Trazado_312" data-name="Trazado 312" d="M118.437,100.414a2.3,2.3,0,0,1,.314.473c.189.321.472.793.811,1.418.693,1.244,1.655,3.077,2.776,5.409a92.133,92.133,0,0,1,6.982,19.457l.176.789-.641-.5a42.27,42.27,0,0,1-8.357-8.651l.535-.158c-.372,6.617-.711,12.66-.99,17.62l0,.055-.025.046-5,8.97q-.873,1.52-1.405,2.449a5.375,5.375,0,0,1-.534.836,5.182,5.182,0,0,1,.412-.9l1.294-2.509,4.821-9.069-.028.1c.244-4.962.542-11.008.868-17.627l.041-.837.494.679A42.491,42.491,0,0,0,129.213,127l-.465.291a98.442,98.442,0,0,0-6.754-19.418c-1.071-2.347-1.979-4.2-2.614-5.475-.293-.594-.533-1.078-.723-1.463a2.322,2.322,0,0,1-.221-.523" transform="translate(37.1 14.593)" fill="#1a2e35"/>
        <path id="Trazado_313" data-name="Trazado 313" d="M86.749,164.349c-.164.016-1.16-9.066-2.224-20.283s-1.794-20.326-1.63-20.341,1.159,9.064,2.224,20.285,1.794,20.324,1.63,20.339" transform="translate(114.412 17.981)" fill="#1a2e35"/>
        <path id="Trazado_314" data-name="Trazado 314" d="M33.467,166.141a9.661,9.661,0,0,1-2.007-1.915,30.41,30.41,0,0,1-6.377-11.687,9.567,9.567,0,0,1-.525-2.722c.187-.053,1.09,4.1,3.591,8.635,2.459,4.553,5.463,7.561,5.318,7.69" transform="translate(234.521 21.773)" fill="#1a2e35"/>
        <path id="Trazado_315" data-name="Trazado 315" d="M33.561,167.834c-.033.024-.231-.207-.563-.649a14.233,14.233,0,0,1-1.231-1.988A20.7,20.7,0,0,1,30.2,150.137a14.271,14.271,0,0,1,.8-2.2c.234-.5.38-.766.418-.75.1.04-.37,1.163-.806,3.053a22.963,22.963,0,0,0,1.532,14.769c.814,1.76,1.5,2.764,1.416,2.823" transform="translate(228.8 21.391)" fill="#1a2e35"/>
        <path id="Trazado_316" data-name="Trazado 316" d="M190.991,145.6a5.517,5.517,0,0,1,.618,1.151l1.515,3.207c1.349,2.831,3.1,6.5,5.034,10.567,1.971,4.128,3.705,7.892,4.881,10.652.59,1.38,1.049,2.5,1.343,3.289a5.408,5.408,0,0,1,.405,1.243,5.59,5.59,0,0,1-.618-1.151q-.618-1.309-1.515-3.208c-1.348-2.83-3.1-6.5-5.035-10.568-1.969-4.127-3.7-7.89-4.88-10.65-.589-1.379-1.049-2.5-1.343-3.288a5.489,5.489,0,0,1-.405-1.243" transform="translate(-127.435 21.159)" fill="#1a2e35"/>
        <path id="Trazado_317" data-name="Trazado 317" d="M120.529,200.462a6.615,6.615,0,0,1-.337,1.393c-.251.885-.651,2.156-1.173,3.717-1.043,3.121-2.624,7.39-4.615,12s-4.02,8.69-5.579,11.588c-.778,1.45-1.429,2.611-1.9,3.4a6.579,6.579,0,0,1-.783,1.2,6.7,6.7,0,0,1,.58-1.31c.463-.932,1.043-2.1,1.732-3.484,1.459-2.942,3.417-7.033,5.406-11.632s3.622-8.828,4.765-11.907c.537-1.451.988-2.673,1.35-3.649a6.6,6.6,0,0,1,.557-1.319" transform="translate(54.002 29.133)" fill="#1a2e35"/>
        <path id="Trazado_318" data-name="Trazado 318" d="M115.714,217.222a7.821,7.821,0,0,1-.914,2.12,43.594,43.594,0,0,1-6.39,9.084A7.888,7.888,0,0,1,106.723,230c-.131-.121,2.213-2.729,4.684-6.258s4.148-6.6,4.306-6.523" transform="translate(58.149 31.568)" fill="#1a2e35"/>
        <path id="Trazado_319" data-name="Trazado 319" d="M129.742,228.1a5.07,5.07,0,0,1-.129-.884q-.1-.957-.255-2.544c-.2-2.212-.518-5.407-.932-9.353-.866-7.886-2.206-18.774-4.506-30.657a286.6,286.6,0,0,0-7.416-30.079c-.565-1.9-1.119-3.608-1.61-5.1s-.9-2.791-1.271-3.838q-.507-1.515-.811-2.424a5,5,0,0,1-.244-.86,4.971,4.971,0,0,1,.357.819q.345.9.916,2.387c.4,1.037.86,2.316,1.369,3.809s1.105,3.189,1.7,5.085a256.615,256.615,0,0,1,7.6,30.091c2.3,11.908,3.58,22.824,4.34,30.728.361,3.955.618,7.159.744,9.377.06,1.064.107,1.913.143,2.553a5.091,5.091,0,0,1,.009.893" transform="translate(37.422 20.689)" fill="#1a2e35"/>
        <path id="Trazado_320" data-name="Trazado 320" d="M110.466,225.184c-.175-.064.97-2.367.73-5.4-.187-3.04-1.645-5.159-1.48-5.247.056-.041.5.424.991,1.335a9.983,9.983,0,0,1,.553,7.854c-.356.971-.732,1.493-.794,1.46" transform="translate(58.639 31.178)" fill="#1a2e35"/>
        <path id="Trazado_321" data-name="Trazado 321" d="M112.292,229.071c-.165-.009-.254-.746-.2-1.644s.229-1.618.394-1.609.254.746.2,1.644-.23,1.618-.394,1.609" transform="translate(55.036 32.818)" fill="#1a2e35"/>
        <path id="Trazado_322" data-name="Trazado 322" d="M251.989,209.315a6.758,6.758,0,0,1-1.37.467c-.891.253-2.17.66-3.732,1.209-1.569.528-3.394,1.28-5.4,2.149-1.992.9-4.148,1.972-6.354,3.2a94.345,94.345,0,0,0-10.8,7.115c-1.319,1-2.375,1.833-3.1,2.417a6.753,6.753,0,0,1-1.167.856,6.811,6.811,0,0,1,1.016-1.032c.677-.64,1.7-1.522,2.987-2.572a77.766,77.766,0,0,1,10.767-7.3c2.223-1.238,4.4-2.3,6.425-3.183,2.035-.849,3.89-1.564,5.487-2.046,1.589-.5,2.894-.849,3.807-1.035a6.765,6.765,0,0,1,1.428-.242" transform="translate(-207.942 30.418)" fill="#1a2e35"/>
        <path id="Trazado_323" data-name="Trazado 323" d="M247.223,209.366c0,.1-1.568.055-4.069.275a42.509,42.509,0,0,0-9.565,2.015,51.98,51.98,0,0,0-8.927,4.029c-2.186,1.243-3.485,2.113-3.54,2.033a3.9,3.9,0,0,1,.842-.711c.561-.433,1.409-1.011,2.483-1.684a43.24,43.24,0,0,1,8.953-4.233,36.711,36.711,0,0,1,9.724-1.869,25.135,25.135,0,0,1,3,.009,3.887,3.887,0,0,1,1.095.136" transform="translate(-204.38 30.4)" fill="#1a2e35"/>
        <g id="Grupo_75" data-name="Grupo 75" transform="translate(65.443 170.854)" opacity="0.3">
          <g id="Grupo_74" data-name="Grupo 74">
            <g id="Grupo_73" data-name="Grupo 73" clip-path="url(#clip-path-3)">
              <path id="Trazado_324" data-name="Trazado 324" d="M192.042,149.175A24.5,24.5,0,0,0,202.785,173c-2.7-6.872-7.377-16.75-10.743-23.822" transform="translate(-191.778 -149.175)"/>
            </g>
          </g>
        </g>
        <g id="Grupo_78" data-name="Grupo 78" transform="translate(109.484 136.328)" opacity="0.3">
          <g id="Grupo_77" data-name="Grupo 77">
            <g id="Grupo_76" data-name="Grupo 76" clip-path="url(#clip-path-4)">
              <path id="Trazado_325" data-name="Trazado 325" d="M132.857,126.8a26.053,26.053,0,0,0,5.876,7.812q-.057-3.13-.115-6.262l28.689,12.75-30.8-22.07c-1.681,2.829-1.973,4.941-3.655,7.77" transform="translate(-132.857 -119.03)"/>
            </g>
          </g>
        </g>
        <g id="Grupo_81" data-name="Grupo 81" transform="translate(156.923 133.23)" opacity="0.3">
          <g id="Grupo_80" data-name="Grupo 80">
            <g id="Grupo_79" data-name="Grupo 79" clip-path="url(#clip-path-5)">
              <path id="Trazado_326" data-name="Trazado 326" d="M121,122.315c-1.228-1.928-4.619-5.99-4.619-5.99-.109,3.006-.371,7.121-.48,10.127l-.433,7.2c.444-2.509.775-7.356,1.22-9.865l5.337,5.057A7.511,7.511,0,0,0,121,122.315" transform="translate(-115.469 -116.325)"/>
            </g>
          </g>
        </g>
        <g id="Grupo_84" data-name="Grupo 84" transform="translate(197.465 146.598)" opacity="0.3">
          <g id="Grupo_83" data-name="Grupo 83">
            <g id="Grupo_82" data-name="Grupo 82" clip-path="url(#clip-path-6)">
              <path id="Trazado_327" data-name="Trazado 327" d="M81.32,128l3.656,33.042C86.57,150.289,89.5,144.448,81.32,128" transform="translate(-81.319 -127.996)"/>
            </g>
          </g>
        </g>
        <g id="Grupo_87" data-name="Grupo 87" transform="translate(259.182 172.128)" opacity="0.3">
          <g id="Grupo_86" data-name="Grupo 86">
            <g id="Grupo_85" data-name="Grupo 85" clip-path="url(#clip-path-7)">
              <path id="Trazado_328" data-name="Trazado 328" d="M33.762,172.39c-1.374-1.14-4.413-1.85-5.981-2.7-7.115-3.864-10.886-10.942-13.659-18.549l-.245-.852c.284,10.2,6.749,21.1,16.056,25.284a5.451,5.451,0,0,0,3.052.645,2.155,2.155,0,0,0,1.9-2.142,2.767,2.767,0,0,0-1.128-1.685" transform="translate(-13.877 -150.287)"/>
            </g>
          </g>
        </g>
        <g id="Grupo_90" data-name="Grupo 90" transform="translate(131.533 197.87)" opacity="0.3">
          <g id="Grupo_89" data-name="Grupo 89">
            <g id="Grupo_88" data-name="Grupo 88" clip-path="url(#clip-path-8)">
              <path id="Trazado_329" data-name="Trazado 329" d="M125.8,197.453c11.774-3.907,17.452-15,20.472-24.69a39.075,39.075,0,0,1-1.5,12.458,19.8,19.8,0,0,1-7.019,10.208,13.356,13.356,0,0,1-11.954,2.024" transform="translate(-125.804 -172.763)"/>
            </g>
          </g>
        </g>
        <g id="Grupo_93" data-name="Grupo 93" transform="translate(17.071 240.292)" opacity="0.3">
          <g id="Grupo_92" data-name="Grupo 92">
            <g id="Grupo_91" data-name="Grupo 91" clip-path="url(#clip-path-9)">
              <path id="Trazado_330" data-name="Trazado 330" d="M246.755,210a34.206,34.206,0,0,0-23.839,7.694c-.484.4-1.008.983-.8,1.577a1.1,1.1,0,0,0,1.163.617,3.293,3.293,0,0,0,1.3-.544,102.482,102.482,0,0,1,22.176-9.544" transform="translate(-222.07 -209.802)"/>
            </g>
          </g>
        </g>
        <g id="Grupo_96" data-name="Grupo 96" transform="translate(161.799 216.844)" opacity="0.3">
          <g id="Grupo_95" data-name="Grupo 95">
            <g id="Grupo_94" data-name="Grupo 94" clip-path="url(#clip-path-10)">
              <path id="Trazado_331" data-name="Trazado 331" d="M119.551,189.985a2.4,2.4,0,0,0-3.239-.058,6.981,6.981,0,0,0-1.873,3.017q-6.992,17.357-13.986,34.715l-2.145,5.148q7.332-12.289,14.664-24.579c2.925-4.9,5.9-9.945,6.92-15.563a3.289,3.289,0,0,0-.341-2.68" transform="translate(-98.308 -189.329)"/>
            </g>
          </g>
        </g>
        <path id="Trazado_332" data-name="Trazado 332" d="M118.319,22.413c8.677-12.1,23.047-19.19,37.7-21.876,6.163-1.129,10.2-.31,16.346.932s11.8,4.135,15.724,9.017c4.666,5.8,8.694,12.368,9.975,19.7,1.315,7.532,2.635,15.114,2.548,22.759s-1.663,15.439-5.748,21.9l-19.144,4.6c-10.669,1.047-21.486,2.09-32.058.316s-21.05-6.731-27.212-15.5c-8.559-12.187-6.8-29.744,1.873-41.848" transform="translate(-31.471 0)" fill="#1a2e35"/>
        <path id="Trazado_333" data-name="Trazado 333" d="M106.572,77.494c-.035.048.346.457,1.221.941a9.5,9.5,0,0,0,4.074,1.093,10.373,10.373,0,0,0,6.075-1.64,10.348,10.348,0,0,0,2.845-14.015,10.366,10.366,0,0,0-4.954-3.88,9.539,9.539,0,0,0-4.178-.583,2.958,2.958,0,0,0-1.49.392c0,.231,2.239-.394,5.361.951a9.987,9.987,0,0,1,4.366,3.7A9.528,9.528,0,0,1,117.344,77a9.987,9.987,0,0,1-5.464,1.705c-3.4.021-5.217-1.428-5.307-1.215" transform="translate(51.655 8.628)" fill="#e1e1e1"/>
        <path id="Trazado_334" data-name="Trazado 334" d="M170.093,69.346a14.474,14.474,0,0,1,5.857-11.314c3.641-2.477,8.942-2.584,12.288.278l3.273,3.431a12.522,12.522,0,0,1,7.993,12.142,13.72,13.72,0,0,1-8.779,11.809,15.187,15.187,0,0,1-14.654-2.566,17.028,17.028,0,0,1-5.979-13.782" transform="translate(-98.211 8.163)" fill="#1a2e35"/>
        <path id="Trazado_335" data-name="Trazado 335" d="M181.781,81.594a6.56,6.56,0,0,1-1.287-3.785c0-2.488,1.6-5.851,3.875-8.986a26.26,26.26,0,0,1,7.36-6.715c2.191-1.362,3.721-1.907,3.663-2.062a10.557,10.557,0,0,0-4,1.477,23.388,23.388,0,0,0-7.789,6.731,22.972,22.972,0,0,0-2.826,4.96,10.477,10.477,0,0,0-.959,4.616,5.469,5.469,0,0,0,1.064,3.013c.478.6.864.794.9.75" transform="translate(-105.229 8.724)" fill="#375a64"/>
        <path id="Trazado_336" data-name="Trazado 336" d="M180.361,86.469c.315-.039-1.376-5.808.046-12.84,1.318-7.055,5.049-11.768,4.771-11.922a10.429,10.429,0,0,0-2.374,3.036A27,27,0,0,0,179.3,82.763a10.463,10.463,0,0,0,1.063,3.706" transform="translate(-94.078 8.967)" fill="#375a64"/>
        <path id="Trazado_337" data-name="Trazado 337" d="M162.982,109.973c-.564-6.785-1.078-12.337-1.075-12.307,0,0,15.674-2.747,18.743-23.257,1.526-10.2.865-26.9-.118-40.539-.884-12.281-12.415-28.343-27.59-27.428l-6.792-.353L121,18a7.206,7.206,0,0,0-6.381,7.366l5.512,87.733L166.9,162.336l2.684-13.892Z" transform="translate(-16.725 0.885)" fill="#ffc09d"/>
        <path id="Trazado_338" data-name="Trazado 338" d="M134.1,63.808a4.316,4.316,0,0,1,1.319-2.752,4.413,4.413,0,0,1,5.32-.646,5.91,5.91,0,0,1,2.593,5.392,5.368,5.368,0,0,1-3.694,2.469,6.293,6.293,0,0,1-.718.069,4.819,4.819,0,0,1-3.326-1.077,4.3,4.3,0,0,1-1.495-3.455" transform="translate(-0.821 8.69)" fill="#ff9b6c"/>
        <path id="Trazado_339" data-name="Trazado 339" d="M125.467,42.8a2.627,2.627,0,0,1-2.509,2.673,2.512,2.512,0,0,1-2.729-2.343,2.629,2.629,0,0,1,2.507-2.674,2.514,2.514,0,0,1,2.732,2.344" transform="translate(32.932 5.878)" fill="#1a2e35"/>
        <path id="Trazado_340" data-name="Trazado 340" d="M129.817,37.585c-.323.346-2.326-1.109-5.153-1.077-2.823-.008-4.885,1.465-5.2,1.121-.152-.152.175-.773,1.072-1.439a7.21,7.21,0,0,1,4.155-1.322,6.924,6.924,0,0,1,4.1,1.285c.874.659,1.175,1.276,1.016,1.431" transform="translate(29.451 5.067)" fill="#1a2e35"/>
        <path id="Trazado_341" data-name="Trazado 341" d="M129,59.845c-.015-.16,1.74-.48,4.584-.869.72-.081,1.4-.23,1.52-.724a3.676,3.676,0,0,0-.5-2.135l-2.184-5.478c-3.034-7.8-5.238-14.214-4.923-14.331s3.031,6.1,6.065,13.9q1.1,2.886,2.095,5.51a4.181,4.181,0,0,1,.4,2.83,1.814,1.814,0,0,1-1.177,1.066,4.916,4.916,0,0,1-1.224.181c-2.864.18-4.641.208-4.653.048" transform="translate(13.934 5.276)" fill="#1a2e35"/>
        <path id="Trazado_342" data-name="Trazado 342" d="M158.9,86.943A52.1,52.1,0,0,1,131.4,79.872S138.835,94,159.317,91.9Z" transform="translate(-13.715 11.608)" fill="#ff9b6c"/>
        <path id="Trazado_343" data-name="Trazado 343" d="M133.5,58.63c.459-.031.492,3.037,3.138,5.192s5.909,1.787,5.936,2.215c.045.192-.723.6-2.1.653a7.637,7.637,0,0,1-4.954-1.677,6.646,6.646,0,0,1-2.435-4.353c-.128-1.282.206-2.046.417-2.03" transform="translate(1.126 8.521)" fill="#1a2e35"/>
        <path id="Trazado_344" data-name="Trazado 344" d="M130.2,27.421c-.491.646-2.445,0-4.786-.013-2.341-.093-4.32.47-4.783-.2-.2-.324.1-.97.964-1.585a6.93,6.93,0,0,1,7.71.17c.833.653,1.111,1.311.895,1.626" transform="translate(27.738 3.566)" fill="#1a2e35"/>
        <path id="Trazado_345" data-name="Trazado 345" d="M143.4,43.36a2.627,2.627,0,0,0,2.653,2.53,2.512,2.512,0,0,0,2.6-2.491A2.627,2.627,0,0,0,146,40.868a2.514,2.514,0,0,0-2.6,2.492" transform="translate(-16.791 5.939)" fill="#1a2e35"/>
        <path id="Trazado_346" data-name="Trazado 346" d="M142.806,39.46c.341.328,2.261-1.236,5.085-1.36,2.819-.165,4.959,1.192,5.249.833.143-.16-.218-.763-1.149-1.378a7.223,7.223,0,0,0-4.223-1.09,6.929,6.929,0,0,0-4.027,1.51c-.837.707-1.1,1.339-.936,1.485" transform="translate(-20.577 5.298)" fill="#1a2e35"/>
        <path id="Trazado_347" data-name="Trazado 347" d="M143.486,36.032c.526.617,2.441-.137,4.778-.277,2.332-.222,4.34.23,4.765-.462.184-.336-.157-.963-1.05-1.53a6.932,6.932,0,0,0-7.69.6c-.8.7-1.037,1.371-.8,1.673" transform="translate(-21.219 4.777)" fill="#1a2e35"/>
        <path id="Trazado_348" data-name="Trazado 348" d="M181.24,53.636c-.017-1.526-1.813-5.106-3.321-5.327-4.028-.591-11.275-.2-11.251,10.012.032,13.965,14.046,11.051,14.07,10.652.018-.314.561-10.071.5-15.337" transform="translate(-76.035 6.996)" fill="#ffc09d"/>
        <path id="Trazado_349" data-name="Trazado 349" d="M178.131,63.011c-.061-.045-.243.171-.653.361a2.437,2.437,0,0,1-1.819.041c-1.478-.537-2.725-2.877-2.8-5.394a8.032,8.032,0,0,1,.672-3.485,2.8,2.8,0,0,1,1.826-1.87,1.239,1.239,0,0,1,1.437.662c.188.391.1.67.174.693.039.036.3-.234.186-.81a1.554,1.554,0,0,0-.552-.875,1.841,1.841,0,0,0-1.346-.353,3.421,3.421,0,0,0-2.537,2.172,8.269,8.269,0,0,0-.834,3.9c.1,2.814,1.543,5.444,3.563,6.022a2.608,2.608,0,0,0,2.224-.376c.432-.345.5-.657.456-.683" transform="translate(-78.907 7.552)" fill="#ff9b6c"/>
        <path id="Trazado_350" data-name="Trazado 350" d="M142.094,54.462l3.768,3.441c14.329-15.583,41.821-54.068,40.295-51.781,0,0-10.731-3.633-21.956-.975S131.813,14.86,133,28.224s9.1,26.238,9.1,26.238" transform="translate(-42.39 0.607)" fill="#1a2e35"/>
        <path id="Trazado_351" data-name="Trazado 351" d="M186.069,80.51c.041.042-.285.5-1.09,1.089a9.52,9.52,0,0,1-3.9,1.6,10.366,10.366,0,0,1-6.234-.854,10.346,10.346,0,0,1-4.606-13.539,10.373,10.373,0,0,1,4.421-4.479,9.5,9.5,0,0,1,4.069-1.109,2.97,2.97,0,0,1,1.528.2c.03.23-2.27-.105-5.2,1.625a9.981,9.981,0,0,0-3.86,4.229,9.527,9.527,0,0,0,4.124,12.123,9.987,9.987,0,0,0,5.636,1c3.374-.411,4.994-2.08,5.11-1.881" transform="translate(-83.826 9.187)" fill="#e1e1e1"/>
        <path id="Trazado_352" data-name="Trazado 352" d="M142.529,66.963a29.6,29.6,0,0,0-.069-3.24,48.787,48.787,0,0,1,.607-8.758A59.549,59.549,0,0,1,154.6,28.717a94.857,94.857,0,0,1,21.135-19.74c3.048-2.141,5.585-3.776,7.344-4.9a22.855,22.855,0,0,0,2.7-1.806,2.811,2.811,0,0,0-.772.34c-.488.255-1.209.628-2.115,1.149-1.823,1.024-4.422,2.577-7.535,4.657a89.41,89.41,0,0,0-21.513,19.72c-6.973,9.163-10.53,19.28-11.44,26.725a42.44,42.44,0,0,0-.312,8.873c.044,1.047.2,1.851.268,2.4a2.818,2.818,0,0,0,.171.825" transform="translate(-52.294 0.33)" fill="#375a64"/>
        <path id="Trazado_353" data-name="Trazado 353" d="M188.979,2.052a2.95,2.95,0,0,0-.8.318c-.509.234-1.246.6-2.186,1.1-1.88.991-4.565,2.5-7.761,4.557a117.984,117.984,0,0,0-10.8,7.859,68.548,68.548,0,0,0-11.611,11.559,31.706,31.706,0,0,0-4.19,7.45,29.5,29.5,0,0,0-1.794,7.761,46.241,46.241,0,0,0,.889,13.359c.756,3.736,1.623,6.69,2.244,8.721.311,1.015.573,1.8.759,2.324a2.878,2.878,0,0,0,.331.79,24.1,24.1,0,0,0-.733-3.215c-.51-2.056-1.275-5.027-1.939-8.743a47.6,47.6,0,0,1-.678-13.145,29.129,29.129,0,0,1,1.79-7.513,31.321,31.321,0,0,1,4.085-7.22,70.505,70.505,0,0,1,11.405-11.451,132.293,132.293,0,0,1,10.613-7.974c3.131-2.121,5.753-3.709,7.571-4.8a25.79,25.79,0,0,0,2.8-1.739" transform="translate(-64.309 0.298)" fill="#375a64"/>
        <path id="Trazado_354" data-name="Trazado 354" d="M137.046,54.819a12.894,12.894,0,0,0,1.707-1.876l4.373-5.328c3.658-4.525,8.66-10.814,14.137-17.8s10.4-13.341,13.92-17.972c1.661-2.214,3.048-4.065,4.135-5.515a13.011,13.011,0,0,0,1.414-2.1,12.789,12.789,0,0,0-1.7,1.871l-4.371,5.326C167,15.95,161.994,22.242,156.513,29.23S146.113,42.574,142.59,47.2l-4.132,5.514a12.866,12.866,0,0,0-1.412,2.1" transform="translate(-37.593 0.614)" fill="#e1e1e1"/>
        <path id="Trazado_355" data-name="Trazado 355" d="M145.111,57.927a16.046,16.046,0,0,0-2.593.076,16.148,16.148,0,0,0-2.391,1.006c-.145-.072.656-1.25,2.264-1.589,1.6-.358,2.822.381,2.72.507" transform="translate(-9.489 8.331)" fill="#ff9b6c"/>
        <path id="Trazado_356" data-name="Trazado 356" d="M158.009,42.572a7.376,7.376,0,0,1-5.2-.318,8.4,8.4,0,0,1,2.607.038,8.371,8.371,0,0,1,2.592.281" transform="translate(-36.927 6.129)" fill="#ff9b6c"/>
        <path id="Trazado_357" data-name="Trazado 357" d="M156.99,43.374c.022.167-.787.407-1.764.716s-1.779.569-1.857.42.645-.667,1.678-.99,1.924-.307,1.943-.147" transform="translate(-36.544 6.287)" fill="#ff9b6c"/>
        <path id="Trazado_358" data-name="Trazado 358" d="M119.221,41.14c.056.155-.609.542-1.489.864s-1.637.458-1.694.3.61-.542,1.489-.864,1.638-.458,1.694-.3" transform="translate(43.977 5.97)" fill="#ff9b6c"/>
        <path id="Trazado_359" data-name="Trazado 359" d="M119.3,43.672c-.054.156-.786.045-1.636-.247s-1.5-.655-1.442-.811.786-.045,1.636.247,1.5.655,1.442.811" transform="translate(43.694 6.183)" fill="#ff9b6c"/>
      </g>
    </g>
  </g>
</svg>
