<svg xmlns="http://www.w3.org/2000/svg" width="656.1" height="671.937" viewBox="0 0 656.1 671.937">
  <g id="CirculoAzul" transform="translate(-890.778 -242.087)">
    <path id="Trazado_342" data-name="Trazado 342" d="M568.872,229.062a36.051,36.051,0,0,1-19.718-61.993,284.8,284.8,0,0,0-70.095-95.693,36.389,36.389,0,0,1-52.975-32.152,35.948,35.948,0,0,1,.376-5.153A287.832,287.832,0,0,0,319.421,0a36.428,36.428,0,0,1-32.345,19.644A36.428,36.428,0,0,1,254.733,0,288.762,288.762,0,0,0,205.17,10.035c.158-.346.3-.7.457-1.044a263.087,263.087,0,0,0-136.816,89.2q-7.312,8.5-13.983,17.595a284.932,284.932,0,0,0-27.812,46.9A40.551,40.551,0,0,1,41,193.3,40.9,40.9,0,0,1,4.39,233.809,282.982,282.982,0,0,0,4.976,336.3a36.276,36.276,0,0,1,31.4,35.806A35.966,35.966,0,0,1,24.5,398.8a285.139,285.139,0,0,0,67.87,94.343,36.392,36.392,0,0,1,55.7,30.608,35.886,35.886,0,0,1-1.085,8.761,288.039,288.039,0,0,0,107.747,34.454,36.452,36.452,0,0,1,64.69,0,288.032,288.032,0,0,0,108.315-34.77,35.87,35.87,0,0,1-1.013-8.445,36.4,36.4,0,0,1,55.318-30.85,285.145,285.145,0,0,0,66.13-90.826A35.907,35.907,0,0,1,537.777,376.8a36.273,36.273,0,0,1,30.439-35.663,282.964,282.964,0,0,0,.656-112.078" transform="translate(931.847 288.5)" fill="#253e66"/>
    <path id="Trazado_218" data-name="Trazado 218" d="M822.166,386.555a320.238,320.238,0,0,0-26.984-116.985,321.838,321.838,0,0,0-29.171-52.65,325.6,325.6,0,0,0-38.183-46.451c-56.435-57.2-134.7-91.711-214.578-95.365l-.073,1.364c79.5,4.542,156.68,39.763,211.741,96.855a321.065,321.065,0,0,1,37.147,46.248A316.732,316.732,0,0,1,790.2,271.726a314.17,314.17,0,0,1,25.186,115.066,322.9,322.9,0,0,1-17.833,116.249,317.383,317.383,0,0,1-58.775,101.633,317.487,317.487,0,0,1-91.238,73.575,322.528,322.528,0,0,1-111.6,35.308,317.519,317.519,0,0,1-116.6-7.443,313.163,313.163,0,0,1-55.178-19.7,309.22,309.22,0,0,1-50.6-29.38,312.589,312.589,0,0,1-80.789-83.769l-2.051-3.029-1.935-3.1-3.869-6.209c-2.522-4.175-4.882-8.445-7.293-12.683-4.554-8.621-8.939-17.343-12.711-26.339A311.344,311.344,0,0,1,186.962,466.3a329.277,329.277,0,0,1-7.472-58.006,322.533,322.533,0,0,1,40.939-169.112,332.527,332.527,0,0,1,33.532-48.4,376.373,376.373,0,0,1,41.636-42,404.459,404.459,0,0,1,47.534-35.467A300.773,300.773,0,0,1,387.2,90.1l-3.78,24.914,51.789-39.4-64.361-9.6L386.664,86.7A304.155,304.155,0,0,0,340.507,109a385.685,385.685,0,0,0-49.359,34.492,380.432,380.432,0,0,0-43.615,41.745A345.3,345.3,0,0,0,211.845,234.2,324.21,324.21,0,0,0,170.6,347.939a329.731,329.731,0,0,0,2.971,121.292,325.023,325.023,0,0,0,18.475,58.148c3.9,9.412,8.437,18.542,13.156,27.566,2.493,4.438,4.942,8.906,7.552,13.276l4.013,6.5,2.008,3.248,2.134,3.167a339.464,339.464,0,0,0,38.37,47.443A330.2,330.2,0,0,0,305.83,668a322.1,322.1,0,0,0,53.051,29.969A328.235,328.235,0,0,0,804.934,505.6a329.894,329.894,0,0,0,17.232-119.045" transform="translate(724.425 176.072)" fill="#f6921e"/>
    <path id="Trazado_220" data-name="Trazado 220" d="M541.743,234.7a20.49,20.49,0,1,1,20.49-20.49,20.491,20.491,0,0,1-20.49,20.49" transform="translate(975.524 266.424)" fill="#07b2e6"/>
    <path id="Trazado_221" data-name="Trazado 221" d="M542.451,348.962a22.2,22.2,0,1,1,22.2-22.2,22.2,22.2,0,0,1-22.2,22.2" transform="translate(974.816 344.85)" fill="#0bb2d9"/>
    <path id="Trazado_222" data-name="Trazado 222" d="M476.6,443.356a25.613,25.613,0,1,1,25.613-25.613A25.613,25.613,0,0,1,476.6,443.356" transform="translate(925.806 406.803)" fill="#0fb2cc"/>
    <path id="Trazado_223" data-name="Trazado 223" d="M370.677,482.174A27.32,27.32,0,1,1,398,454.853a27.319,27.319,0,0,1-27.32,27.32" transform="translate(849.659 431.851)" fill="#13b2bf"/>
    <path id="Trazado_224" data-name="Trazado 224" d="M265.147,448.187a29.028,29.028,0,1,1,29.028-29.028,29.027,29.027,0,0,1-29.028,29.028" transform="translate(773.787 405.388)" fill="#16b3b3"/>
    <path id="Trazado_225" data-name="Trazado 225" d="M198.2,358.174a30.735,30.735,0,1,1,30.735-30.735A30.734,30.734,0,0,1,198.2,358.174" transform="translate(725.211 339.286)" fill="#1ab3a6"/>
    <path id="Trazado_226" data-name="Trazado 226" d="M198.9,251.6a32.443,32.443,0,1,1,32.443-32.443A32.443,32.443,0,0,1,198.9,251.6" transform="translate(724.503 261.471)" fill="#22b38c"/>
    <path id="Trazado_228" data-name="Trazado 228" d="M365.725,104.547A15.368,15.368,0,1,1,381.092,89.18a15.367,15.367,0,0,1-15.368,15.368" transform="translate(854.612 181.587)" fill="#00b1ff"/>
    <path id="Trazado_229" data-name="Trazado 229" d="M472.671,135.962a17.075,17.075,0,1,1,17.075-17.075,17.075,17.075,0,0,1-17.075,17.075" transform="translate(929.07 201.398)" fill="#04b1f2"/>
  </g>
</svg>
