<svg xmlns="http://www.w3.org/2000/svg" width="46.857" height="54.326" viewBox="0 0 46.857 54.326">
  <g id="Mano" transform="translate(-406.072 -690.082)">
    <path id="Trazado_117" data-name="Trazado 117" d="M65.423,52.949l.824.427-.457.882-.458.883-.294-.152-.53-.275a2.475,2.475,0,0,0-3.331,1.056l-3.1,5.968-1.371,2.645-.883-.457-.883-.458,4.466-8.613a4.465,4.465,0,0,1,6.012-1.905" transform="translate(373.406 644.51)" fill="#4d73aa"/>
    <path id="Trazado_118" data-name="Trazado 118" d="M31.632,84.521C31.041,81.429,30.3,77.581,35,68.533l6.775-13.065a4.3,4.3,0,0,1,2.3-2.012,3.716,3.716,0,0,1,3,.115l-.458.885-.457.88a1.731,1.731,0,0,0-1.387-.016,2.289,2.289,0,0,0-1.232,1.063L36.762,69.448C32.586,77.5,33,81.029,33.512,83.76c.024.131.049.26.073.387.105.554.205,1.076.27,1.621a1,1,0,0,1-.1.575l-2.226,4.291-.882-.458-.883-.457,2.081-4.013c-.056-.381-.131-.774-.209-1.184" transform="translate(376.312 644.424)" fill="#4d73aa"/>
    <path id="Trazado_119" data-name="Trazado 119" d="M55.673,52.676l1.385.718-.916,1.765-1.385-.718c-.841-.437-2.266.365-2.754,1.306l-3.631,7-1.765-.916,3.63-7c.97-1.87,3.563-3.126,5.435-2.155" transform="translate(374.368 644.523)" fill="#4d73aa"/>
    <path id="Trazado_120" data-name="Trazado 120" d="M66.26,86.957c-3.757,4.69-7.947,7.533-12.5,8.471L51.908,99l-1.765-.916,2.074-4a1.028,1.028,0,0,1,.711-.521c5.2-.909,9.946-4.645,14.116-11.1l3.093-4.788a5.05,5.05,0,0,0,.443-3.662,4.465,4.465,0,0,0-2.028-2.441l-2.7,5.626-1.793-.86L76.8,49.77a1.838,1.838,0,0,0-.817-2.426l-.915-.474a1.846,1.846,0,0,0-2.486.787L63,66.128l-.882-.458-.883-.457L65,57.966l5.82-11.224A3.836,3.836,0,0,1,75.982,45.1l.916.474a3.819,3.819,0,0,1,1.7,5.044l0,0-.012.024-4.112,8.671L69.5,69.812a6.417,6.417,0,0,1,2.982,3.608,5.692,5.692,0,0,1,.176.751,6.8,6.8,0,0,1-.05,2.39" transform="translate(373.96 645.407)" fill="#4d73aa"/>
  </g>
</svg>
