<svg id="Persona" xmlns="http://www.w3.org/2000/svg" xmlns:xlink="http://www.w3.org/1999/xlink" width="377.873" height="330.688" viewBox="0 0 377.873 330.688">
  <defs>
    <clipPath id="clip-path">
      <rect id="Rect치ngulo_91" data-name="Rect치ngulo 91" width="377.873" height="330.688" fill="none"/>
    </clipPath>
    <clipPath id="clip-path-3">
      <rect id="Rect치ngulo_89" data-name="Rect치ngulo 89" width="58.819" height="104.612" fill="none"/>
    </clipPath>
  </defs>
  <g id="Grupo_65" data-name="Grupo 65" clip-path="url(#clip-path)">
    <g id="Grupo_64" data-name="Grupo 64">
      <g id="Grupo_63" data-name="Grupo 63" clip-path="url(#clip-path)">
        <path id="Trazado_290" data-name="Trazado 290" d="M152.151,79.963l11.5,14.288L211.608,107.6l-7.163,77.464c-2.211,30.364-5.317,37.806-7.459,57.993v16.46H60.775L41.759,102.265l46.97-10.8,10.106-11.5Z" transform="translate(33.603 64.345)" fill="#e96247"/>
        <path id="Trazado_291" data-name="Trazado 291" d="M130,100.446l-5.867,77.574L117.861,217.4,71.813,88.887l37.146,44.027Z" transform="translate(57.786 71.526)" fill="#fff"/>
        <path id="Trazado_292" data-name="Trazado 292" d="M123.417,224.989a2.737,2.737,0,0,0-.18-.377c-.141-.265-.332-.623-.577-1.081L120.4,219.4c-1.994-3.6-4.86-8.767-8.394-15.143-7.145-12.783-16.991-30.4-27.868-49.863-5.392-9.6-10.53-18.758-15.192-27.058l-.054.3,6.612-5.585.244-.206-.274-.161-9.42-5.555.1.2c1.029-9.173,1.87-16.663,2.456-21.885.276-2.581.493-4.6.642-6q.1-1,.153-1.566c.033-.354.033-.538.033-.538s-.042.179-.092.531c-.051.377-.121.9-.211,1.561-.175,1.4-.428,3.414-.751,5.988-.628,5.219-1.527,12.7-2.631,21.866l-.014.128.112.069c2.929,1.743,6.071,3.615,9.4,5.6l-.031-.366q-3.192,2.677-6.629,5.564l-.152.128.1.173c4.651,8.305,9.778,17.466,15.158,27.076,10.927,19.433,20.822,37.027,28,49.789,3.595,6.342,6.508,11.483,8.538,15.062,1.007,1.756,1.794,3.126,2.344,4.084.263.446.469.8.621,1.056a2.554,2.554,0,0,0,.227.35" transform="translate(52.897 69.472)" fill="#1a2e35"/>
        <path id="Trazado_293" data-name="Trazado 293" d="M97.7,223.745a2.013,2.013,0,0,0,.132-.365c.085-.269.195-.626.337-1.083.294-.984.715-2.388,1.251-4.181,1.072-3.664,2.608-8.917,4.5-15.4,1.868-6.515,4.183-14.225,6.564-22.88,2.218-8.688,4.335-18.3,6.574-28.395,3.037-13.84,5.782-26.8,8.063-37.77l.04-.191-.182-.063-6.275-2.2.027.377,7.637-4.048.143-.076-.058-.148c-2.4-6.029-4.337-10.889-5.683-14.273-.67-1.653-1.193-2.945-1.561-3.851-.175-.417-.312-.747-.417-.993a1.969,1.969,0,0,0-.157-.332,1.892,1.892,0,0,0,.11.35c.092.251.213.587.37,1.012.346.913.839,2.216,1.471,3.885,1.312,3.4,3.2,8.278,5.533,14.331l.083-.224-7.663,4-.419.218.446.159,6.264,2.225-.144-.254c-2.326,10.956-5.1,23.91-8.134,37.748-2.238,10.088-4.342,19.711-6.531,28.386-2.344,8.623-4.633,16.377-6.454,22.9-1.83,6.5-3.312,11.77-4.346,15.446-.5,1.8-.886,3.216-1.157,4.207-.123.462-.217.827-.289,1.1a2.226,2.226,0,0,0-.081.379" transform="translate(78.615 70.715)" fill="#1a2e35"/>
        <path id="Trazado_294" data-name="Trazado 294" d="M142.395,95.278s10.548,5.133,17.98,28.776c5.4,17.179,27.359,76.336,27.359,76.336l24.32-7.092s17.9,22.291,13.847,30.061S192.222,247.2,192.222,247.2H157.529a28.509,28.509,0,0,1-9.919-14.455l-19.837-66.8Z" transform="translate(102.817 76.668)" fill="#e96247"/>
        <path id="Trazado_295" data-name="Trazado 295" d="M75.361,92.321A42.739,42.739,0,0,0,60.094,108c-6.06,10.772-54.409,89.462-58.418,108.122-5.983,27.868,5.973,33.423,5.973,33.423h16.71l41.354-.235,5.219-32.365-18.386-3.923,34.074-37.792,2.258,3.853,6.666-53.942Z" transform="translate(0 74.289)" fill="#e96247"/>
        <path id="Trazado_296" data-name="Trazado 296" d="M135.675,113.283c-.143-.013-1.375,13.371-2.752,29.886s-2.379,29.92-2.236,29.932,1.375-13.367,2.752-29.889,2.379-29.916,2.236-29.929" transform="translate(105.15 91.157)" fill="#1a2e35"/>
        <path id="Trazado_297" data-name="Trazado 297" d="M43.111,104.985c-.143.018,1.763,16.715,4.254,37.288s4.627,37.249,4.77,37.231-1.763-16.71-4.255-37.292-4.625-37.245-4.768-37.227" transform="translate(34.685 84.479)" fill="#1a2e35"/>
        <path id="Trazado_298" data-name="Trazado 298" d="M51.59,196.735a7.543,7.543,0,0,0-.469-.594c-.3-.393-.742-.973-1.24-1.769a28.877,28.877,0,0,1-3.2-7.239,35.3,35.3,0,0,1-1.153-5.354,25.176,25.176,0,0,1-.271-6.241,14.738,14.738,0,0,1,2.3-6.407A17.378,17.378,0,0,1,52.8,164c.15-.094.309-.186.442-.26l.554-.3-.6-.177A130.054,130.054,0,0,0,27.654,158.5c-3.31-.282-5.992-.408-7.845-.466-.928-.033-1.648-.036-2.135-.042a3.961,3.961,0,0,0-.745.022,4.038,4.038,0,0,0,.742.081l2.128.139c1.85.119,4.524.3,7.823.628a138.567,138.567,0,0,1,25.432,4.9l-.047-.478c-.161.087-.316.179-.475.278a17.739,17.739,0,0,0-5.4,5.293,15.123,15.123,0,0,0-2.353,6.63,25.2,25.2,0,0,0,.319,6.358,34.639,34.639,0,0,0,1.227,5.4,27.47,27.47,0,0,0,3.382,7.242,16.5,16.5,0,0,0,1.33,1.725,2.822,2.822,0,0,0,.549.527" transform="translate(13.622 127.13)" fill="#1a2e35"/>
        <path id="Trazado_299" data-name="Trazado 299" d="M97.746,192.728c.143,0,.258-6.663.258-14.88s-.116-14.881-.258-14.881-.258,6.661-.258,14.881.116,14.88.258,14.88" transform="translate(78.447 131.136)" fill="#1a2e35"/>
        <path id="Trazado_300" data-name="Trazado 300" d="M54.7,147.5a6.715,6.715,0,0,0,.031-.706c.009-.489.022-1.148.038-1.987.02-1.752.049-4.246.085-7.387l-.153.153,41.208.106c-.114-.116.262.258-.256-.26v2.572q0,1.28,0,2.541,0,2.523,0,4.966l.254-.254-29.331.115-8.688.072-2.353.034c-.249.005-.451.011-.619.016a1.288,1.288,0,0,0-.22.016,6.64,6.64,0,0,0,.774.032l2.3.034c2.063.016,4.99.042,8.628.072l29.51.116h.253V147.5q0-2.442.005-4.966v-5.113c-.518-.518-.144-.143-.262-.258l-41.208.1h-.155l0,.153c.036,3.178.065,5.7.085,7.477.016.825.029,1.473.038,1.953a4.881,4.881,0,0,0,.031.65" transform="translate(43.889 110.354)" fill="#1a2e35"/>
        <path id="Trazado_301" data-name="Trazado 301" d="M133.45,122.322c.139.031,1.491-5.719,3.017-12.839s2.651-12.92,2.512-12.949-1.491,5.717-3.017,12.84-2.651,12.916-2.512,12.947" transform="translate(107.375 77.68)" fill="#1a2e35"/>
        <g id="Grupo_62" data-name="Grupo 62" transform="translate(115.211 185.775)" opacity="0.3">
          <g id="Grupo_61" data-name="Grupo 61">
            <g id="Grupo_60" data-name="Grupo 60" clip-path="url(#clip-path-3)">
              <path id="Trazado_302" data-name="Trazado 302" d="M122.659,207.553,63.84,117.338l8.489-8.2-4.851-6.2,9.408,5.576-6.621,5.575Z" transform="translate(-63.84 -102.941)"/>
            </g>
          </g>
        </g>
        <path id="Trazado_303" data-name="Trazado 303" d="M206.712,162.584V167.6l-66.761.209v-5.221Z" transform="translate(112.616 130.828)" fill="#992c1a"/>
        <path id="Trazado_304" data-name="Trazado 304" d="M165.29,99.7A9.884,9.884,0,0,1,156,95.546c2.4.368,4.979.709,7.139-.393s3.382-4.284,1.689-6.02c-1.321-1.354-3.5-1.121-5.387-1.26a11.654,11.654,0,0,1-9.913-7.607c-1.6-4.591-.135-9.6.439-14.425a39.729,39.729,0,0,0-16.63-36.668L103.1,11.7C92.132,25.73,88.714,44.645,90.988,62.311s9.767,34.269,18.774,49.634c2.624,4.476,5.419,8.919,9.123,12.553s8.428,6.435,13.589,6.971a14.017,14.017,0,0,0-2.238-12.654,30.5,30.5,0,0,0,22.485-8.054q-3.24-2.482-6.479-4.968a23.669,23.669,0,0,0,19.048-6.1" transform="translate(72.679 9.412)" fill="#1a2e35"/>
        <path id="Trazado_305" data-name="Trazado 305" d="M67.034,49.937c.532-12.636,8.4-23.212,20.561-26.686L125.5,12.42c16.451-2.252,28.05,17.731,29.6,34.262,1.725,18.366,3.017,37.763,1.26,51.56-3.534,27.743-24.587,31.909-24.587,31.909,0-.042.7,25,.919,33.069l-19.281,40.313L76.052,151.967,66.946,50.275c-.023-.471.061.292.088-.337" transform="translate(53.867 9.854)" fill="#d39c8c"/>
        <path id="Trazado_306" data-name="Trazado 306" d="M115.249,45.384a3.544,3.544,0,0,1-3.3,3.68,3.39,3.39,0,0,1-3.748-3.081,3.541,3.541,0,0,1,3.3-3.678,3.387,3.387,0,0,1,3.752,3.079" transform="translate(87.058 34.031)" fill="#1a2e35"/>
        <path id="Trazado_307" data-name="Trazado 307" d="M120.255,38.955c-.424.475-3.169-1.428-6.979-1.3-3.808.072-6.544,2.119-6.971,1.664-.209-.2.213-1.047,1.4-1.971a9.708,9.708,0,0,1,5.562-1.9,9.318,9.318,0,0,1,5.571,1.612c1.2.863,1.622,1.686,1.413,1.9" transform="translate(85.5 28.519)" fill="#1a2e35"/>
        <path id="Trazado_308" data-name="Trazado 308" d="M97.4,45.386a3.542,3.542,0,0,1-3.3,3.678,3.391,3.391,0,0,1-3.748-3.081,3.545,3.545,0,0,1,3.3-3.68A3.391,3.391,0,0,1,97.4,45.386" transform="translate(72.693 34.03)" fill="#1a2e35"/>
        <path id="Trazado_309" data-name="Trazado 309" d="M100.2,39.526c-.426.475-3.173-1.428-6.981-1.3-3.806.072-6.544,2.119-6.97,1.664-.209-.2.208-1.047,1.4-1.971a9.713,9.713,0,0,1,5.562-1.9,9.353,9.353,0,0,1,5.573,1.61c1.2.864,1.621,1.687,1.413,1.9" transform="translate(69.365 28.979)" fill="#1a2e35"/>
        <path id="Trazado_310" data-name="Trazado 310" d="M102.264,68.485c-.023-.215,2.332-.7,6.154-1.307.969-.13,1.884-.352,2.028-1.021a4.954,4.954,0,0,0-.738-2.864q-1.481-3.487-3.106-7.32C102.284,45.55,99.124,36.965,99.545,36.8s4.266,8.141,8.587,18.567q1.562,3.855,2.985,7.367c.4,1.1,1.074,2.33.623,3.8A2.442,2.442,0,0,1,110.182,68a6.592,6.592,0,0,1-1.644.282c-3.857.327-6.251.417-6.273.2" transform="translate(80.072 29.606)" fill="#1a2e35"/>
        <path id="Trazado_311" data-name="Trazado 311" d="M82.765,72.714s9.527,18.709,37.081,15.275l-.179-6.5a69.589,69.589,0,0,1-36.9-8.78" transform="translate(66.599 58.512)" fill="#8a503f"/>
        <path id="Trazado_312" data-name="Trazado 312" d="M100.81,32.326c-.343,1.047-4.163.673-8.616,1.35-4.468.587-8.033,2.007-8.653,1.1-.28-.437.319-1.431,1.745-2.478A15.161,15.161,0,0,1,98.444,30.43c1.662.612,2.512,1.4,2.366,1.9" transform="translate(67.17 23.89)" fill="#1a2e35"/>
        <path id="Trazado_313" data-name="Trazado 313" d="M118.934,32.62c-.644.886-3.3.069-6.454.123-3.16-.056-5.811.762-6.455-.125-.282-.431.112-1.312,1.256-2.167a9.34,9.34,0,0,1,10.4,0c1.144.854,1.538,1.734,1.254,2.166" transform="translate(85.246 23.233)" fill="#1a2e35"/>
        <path id="Trazado_314" data-name="Trazado 314" d="M104.708,65.476c-.011-.579-3.858-.285-6.849-3.364s-2.888-7.208-3.427-7.2c-.247-.034-.677.971-.588,2.707a9.62,9.62,0,0,0,2.644,6.024,8.374,8.374,0,0,0,5.724,2.573c1.621.02,2.539-.484,2.5-.745" transform="translate(75.505 44.189)" fill="#1a2e35"/>
        <path id="Trazado_315" data-name="Trazado 315" d="M74.4,15.809C78.664,9.035,88.74,1.962,96.625.583c8.991-1.572,14.407-.031,20.319,5.367,0,0,4.6,4.44,8.912,5.277s7.915.128,13.059,2.758c7.026,3.593,10.1,12.988,13.36,20.176,4.046,8.933,9.81,17.153,12.449,26.6s1.234,21.05-6.724,26.778c1.364-7.235,2.5-15.2-.48-21.746a19,19,0,0,1-.482,7.838c-1.491-4.25-3.059-8.635-6.145-11.916-2.911-3.1-6.934-4.943-9.933-7.951-4.4-4.421-6.434-11.16-11.786-14.367-5.567-3.339-12.611-1.673-19.1-1.642A36.6,36.6,0,0,1,81.61,24.039l1.615-.135A45.365,45.365,0,0,1,74.4,15.809" transform="translate(59.868 0)" fill="#1a2e35"/>
        <path id="Trazado_316" data-name="Trazado 316" d="M52.686,77.262c2.478-8.121,6.829-15.553,9.552-23.6,2.651-7.832,3.747-16.2,7.267-23.683C74.243,19.916,83.1,6.876,96.892,7.6l.942.828a29.5,29.5,0,0,1,13.9,1.66l.211,10.754,2.644,2.323c-1.11,2.135-2.158,4.2-3.174,6.226A67.945,67.945,0,0,1,107.9,41.224a30.636,30.636,0,0,1-6.618,10.061c-23.764,56.889-2.211,60.484-12.916,93.089l-6.733-18.666a33.277,33.277,0,0,1-13.319-14.347q-.593,2.956-1.187,5.914a34.287,34.287,0,0,1-9.281-21.189q-1.546,2.84-3.09,5.676c-4.887-6.941-4.548-16.379-2.07-24.5" transform="translate(40.975 6.089)" fill="#1a2e35"/>
        <path id="Trazado_317" data-name="Trazado 317" d="M82.062,45.731c-.37-.926-17.545-6.574-17.256,11.5.283,17.561,17.9,13.6,17.919,13.095s-.662-24.6-.662-24.6" transform="translate(52.145 35.543)" fill="#d39c8c"/>
        <path id="Trazado_318" data-name="Trazado 318" d="M75.213,61.2c-.078-.054-.3.22-.814.467a3.065,3.065,0,0,1-2.287.09c-1.868-.644-3.487-3.561-3.633-6.724a10.125,10.125,0,0,1,.772-4.394,3.539,3.539,0,0,1,2.256-2.393,1.558,1.558,0,0,1,1.823.8c.244.485.139.837.233.866.051.043.372-.3.217-1.023a1.949,1.949,0,0,0-.713-1.086,2.3,2.3,0,0,0-1.7-.415,4.3,4.3,0,0,0-3.144,2.783,10.4,10.4,0,0,0-.966,4.916c.18,3.535,2.056,6.811,4.607,7.5a3.273,3.273,0,0,0,2.788-.518c.536-.444.621-.839.559-.87" transform="translate(54.112 38.12)" fill="#8a503f"/>
        <path id="Trazado_319" data-name="Trazado 319" d="M72.381,56.8a3.456,3.456,0,1,0,.827.236" transform="translate(55.037 45.679)" fill="#fff"/>
        <path id="Trazado_320" data-name="Trazado 320" d="M73.371,57.1a4.748,4.748,0,0,1,1.644,2.314,2.975,2.975,0,0,1-.606,2.774,3.072,3.072,0,0,1-5.448-1.565,2.978,2.978,0,0,1,.958-2.675,4.726,4.726,0,0,1,2.624-1.085c.009-.045-.274-.175-.828-.171a3.59,3.59,0,0,0-2.167.83,3.511,3.511,0,0,0-1.319,3.205,3.773,3.773,0,0,0,6.746,1.938,3.514,3.514,0,0,0,.585-3.416,3.584,3.584,0,0,0-1.4-1.853c-.466-.3-.776-.337-.789-.3" transform="translate(54.875 45.619)" fill="#1a2e35"/>
        <path id="Trazado_321" data-name="Trazado 321" d="M93.085,27.428c-.348.139-1.971-5.813-6.863-11.335-4.815-5.6-10.491-8.006-10.307-8.334.051-.125,1.53.294,3.7,1.483a28.476,28.476,0,0,1,12.5,14.317c.884,2.314,1.1,3.835.969,3.869" transform="translate(61.084 6.226)" fill="#375a64"/>
        <path id="Trazado_322" data-name="Trazado 322" d="M184.574,192.555l6.944-8.163s9.2,0,13.795-4.367,13.1-8.507,9.655-16.323c0,0,4.133-4.829.8-10.117l-.114-1.379s10.346-4.369,7.358-9.657-8.736-2.989-8.736-2.989,11.3-7.634,13.335-9.725c5.443-5.589-.41-9.355-6.466-6.008-10.018,5.539-43.883,21.481-46.182,32.977v5.008s-9.426,11.545-9.426,12.234c0,.516.383,10.635,5.643,18.7,1.788,2.739,13.391-.189,13.391-.189" transform="translate(133.207 98.627)" fill="#d39c8c"/>
        <path id="Trazado_323" data-name="Trazado 323" d="M269.436,101.6c.415-.518-51.428,83.048-51.428,83.048l-2.353,28.038h-80.9l7.506-31.918s13.984-37.489,13.827-37.925c-.309-.852,26.172-42.513,26.172-42.513Z" transform="translate(108.433 80.73)" fill="#fff"/>
        <path id="Trazado_324" data-name="Trazado 324" d="M269.582,101.691s-.543-.027-1.586-.052l-4.607-.1-17.558-.312-63.424-1.02-.117,0-.061.1c-6.932,10.927-14.553,22.9-22.45,35.841-.98,1.622-1.967,3.257-2.916,4.938-.236.422-.471.843-.688,1.29a2.867,2.867,0,0,0-.155.366.421.421,0,0,0-.027.18c.02.132-.005.083-.013.094l-.009,0-.025.083-.215.68q-.476,1.372-.955,2.75l-4.055,11.153q-4.177,11.277-8.556,23.084l-.007.014,0,.016c-2.277,9.682-4.665,19.835-7.1,30.171-.137.585-.274,1.171-.41,1.745l-.074.319h.327l80.9-.022h.218l.018-.218q1.226-14.713,2.335-28.039l-.033.1,37.277-60.305c4.465-7.266,7.969-12.967,10.364-16.865,1.18-1.942,2.086-3.434,2.7-4.45.3-.5.523-.881.682-1.146a2.748,2.748,0,0,0,.215-.4c-.973,1.563-20.608,33.11-51.614,82.932l-.029.043,0,.054q-1.126,13.308-2.371,28.036l.236-.217-80.9-.022.253.318c.134-.576.273-1.16.408-1.747,2.431-10.334,4.817-20.489,7.094-30.171l-.011.031q4.369-11.794,8.549-23.089,2.047-5.655,4.046-11.162.482-1.386.956-2.761l.22-.7.027-.09a1.1,1.1,0,0,0,.022-.177l0-.088c.182-.078-.264.061-.155.025a.4.4,0,0,1,.139-.02c.069.007.016.041.029.034l.011-.032a2.911,2.911,0,0,1,.128-.3c.2-.422.439-.843.671-1.26.942-1.671,1.927-3.306,2.9-4.927,7.879-12.938,15.484-24.928,22.394-35.864l-.179.1,63.5.83,17.534.2c2,.016,3.537.031,4.584.038s1.559-.005,1.559-.005" transform="translate(108.288 80.636)" fill="#1a2e35"/>
        <path id="Trazado_325" data-name="Trazado 325" d="M150.586,125.595a3.542,3.542,0,0,0,.722.032c.525,0,1.213,0,2.07-.009,1.857-.036,4.441-.083,7.61-.144,6.426-.146,15.3-.388,25.1-.549s18.68-.141,25.1.063c3.211.087,5.806.222,7.6.323.857.051,1.543.088,2.066.119a3.684,3.684,0,0,0,.724.005,4.093,4.093,0,0,0-.715-.11c-.522-.052-1.206-.126-2.059-.215-1.792-.164-4.387-.354-7.6-.489-6.425-.3-15.311-.361-25.121-.213s-18.68.458-25.1.7c-3.167.126-5.75.231-7.6.307l-2.066.108a3.783,3.783,0,0,0-.72.07" transform="translate(121.174 100.048)" fill="#1a2e35"/>
        <path id="Trazado_326" data-name="Trazado 326" d="M145.076,148.376c.016.143,11.46-1.108,25.554-2.79s25.511-3.164,25.495-3.306-11.458,1.108-25.556,2.792-25.509,3.162-25.493,3.3" transform="translate(116.74 114.481)" fill="#1a2e35"/>
        <path id="Trazado_327" data-name="Trazado 327" d="M195.444,154.217l-15.138-.964c-1.592-.1-3.34-.272-4.449-1.418-1.381-1.428-.706-4.665,1.036-5.62l17.345-4.18" transform="translate(140.916 114.293)" fill="#d39c8c"/>
        <path id="Trazado_328" data-name="Trazado 328" d="M194.352,142.037a7.729,7.729,0,0,0-1.341.231l-3.664.8-12.4,2.9-.036.007-.027.016a3.605,3.605,0,0,0-1.455,1.675,4.91,4.91,0,0,0-.448,2.211,3.148,3.148,0,0,0,.893,2.222,4.5,4.5,0,0,0,2.034,1.07,24.928,24.928,0,0,0,4.167.428l7.013.392,4.73.218a11.071,11.071,0,0,0,1.738.009,11.206,11.206,0,0,0-1.725-.211l-4.719-.383-7.006-.5a25.48,25.48,0,0,1-4.068-.442,4.011,4.011,0,0,1-1.807-.951,2.645,2.645,0,0,1-.734-1.868,3.9,3.9,0,0,1,1.63-3.422l-.061.023c4.883-1.213,9.18-2.279,12.358-3.07l3.627-.951a7.84,7.84,0,0,0,1.3-.406" transform="translate(140.802 114.289)" fill="#8a503f"/>
        <path id="Trazado_329" data-name="Trazado 329" d="M189.392,139.025a74.575,74.575,0,0,0-13.447,3.79,2.984,2.984,0,0,0-1.989,3.469,2.41,2.41,0,0,0,1,1.85,4.808,4.808,0,0,0,2.122.587c4.357.415,8.531-.182,12.867-.781s10.343,0,12.855,1.326" transform="translate(139.953 111.871)" fill="#d39c8c"/>
        <path id="Trazado_330" data-name="Trazado 330" d="M202.908,149.267a1.761,1.761,0,0,0-.43-.256,9.6,9.6,0,0,0-1.334-.516,24.356,24.356,0,0,0-5.167-.892,32.224,32.224,0,0,0-3.626-.076,39.757,39.757,0,0,0-4.135.426,55.52,55.52,0,0,1-9.408.621,20.284,20.284,0,0,1-2.44-.224,2.288,2.288,0,0,1-1.781-1.121c-.57-1.307-.374-3.091.807-3.808a9.763,9.763,0,0,1,1.9-.818q.975-.352,1.888-.677c1.222-.424,2.371-.789,3.425-1.1,2.106-.632,3.837-1.052,5.037-1.335a16.275,16.275,0,0,0,1.859-.462,1.748,1.748,0,0,0-.5.042c-.323.04-.8.115-1.4.226-1.215.22-2.965.59-5.1,1.178-1.068.291-2.227.641-3.461,1.047q-.926.317-1.906.657a9.808,9.808,0,0,0-2.01.854,2.944,2.944,0,0,0-1.28,1.985,4.236,4.236,0,0,0,.287,2.442,2.211,2.211,0,0,0,.913.969,4.082,4.082,0,0,0,1.222.431,21.093,21.093,0,0,0,2.519.236,53.287,53.287,0,0,0,9.493-.67c1.449-.2,2.8-.417,4.091-.467a32.278,32.278,0,0,1,3.582.013,27.4,27.4,0,0,1,5.136.718c1.191.3,1.794.623,1.817.579" transform="translate(139.843 111.867)" fill="#8a503f"/>
        <path id="Trazado_331" data-name="Trazado 331" d="M199.876,132.074l-11.933,6.656c-1.8,1.005-3.685,2.084-4.761,3.846s-.989,4.416.74,5.546c1.355.886,3.14.554,4.712.155a115.555,115.555,0,0,0,13.122-4.171" transform="translate(146.836 106.277)" fill="#d39c8c"/>
        <path id="Trazado_332" data-name="Trazado 332" d="M201.872,144.108a12.5,12.5,0,0,0-1.677.522c-1.07.359-2.617.882-4.542,1.476s-4.234,1.26-6.82,1.9a7.37,7.37,0,0,1-3.983.226,2.778,2.778,0,0,1-1.538-1.256,3.8,3.8,0,0,1-.453-2.056,5.268,5.268,0,0,1,1.917-3.709,18.526,18.526,0,0,1,3.427-2.292l6.168-3.5,4.136-2.4a11.731,11.731,0,0,0,1.483-.942,11.286,11.286,0,0,0-1.581.765l-4.217,2.258c-1.794.984-3.9,2.135-6.221,3.407a18.518,18.518,0,0,0-3.537,2.333,7.021,7.021,0,0,0-1.449,1.77,5.161,5.161,0,0,0-.644,2.29,4.3,4.3,0,0,0,.525,2.337,3.281,3.281,0,0,0,1.821,1.478,7.72,7.72,0,0,0,4.264-.244c2.588-.673,4.894-1.377,6.813-2.018s3.449-1.216,4.5-1.635c.523-.211.929-.379,1.2-.5a1.521,1.521,0,0,0,.406-.209" transform="translate(146.722 106.277)" fill="#8a503f"/>
        <path id="Trazado_333" data-name="Trazado 333" d="M36.91,191.175l5.67-1.6,18.023-1.68,5.039-6.7-3.512-14.457-22.519-5.356c-10.4,7.4-7.594,19.727-2.7,29.8" transform="translate(26.173 129.858)" fill="#d39c8c"/>
        <path id="Trazado_334" data-name="Trazado 334" d="M70.071,157.827a15.53,15.53,0,0,1,6.325.5,8.4,8.4,0,0,1,5.012,6.562c.581,4.636.765,8.4,1.1,12.712a4.061,4.061,0,0,1-1.178,3.05c-1.417,1.447-3.994.964-5.457-.437s-2.122-3.414-2.828-5.315-1.453-6.445-2.554-6.842c-3.137-1.132-7.406,4.273-9.767,1.621l-4.279-10.438c6.63-.648,7-.76,13.629-1.409" transform="translate(45.418 126.917)" fill="#d39c8c"/>
        <path id="Trazado_335" data-name="Trazado 335" d="M70.191,157.865a.816.816,0,0,0-.244,0l-.707.043-2.718.224-9.978.958-.251.025.1.235L60.624,169.8l.014.034.027.033a2.44,2.44,0,0,0,2.056.8,6.474,6.474,0,0,0,2.117-.639,23.113,23.113,0,0,1,4.014-1.745l.529-.085.527,0a4.131,4.131,0,0,1,.511.1c.182.034.224.107.35.235a7.028,7.028,0,0,1,.886,2.041c.467,1.487.765,3.059,1.33,4.618a18.922,18.922,0,0,0,1.843,4.055,6.324,6.324,0,0,0,1.536,1.626,5.166,5.166,0,0,0,2.043.855,3.922,3.922,0,0,0,2.187-.189,3.525,3.525,0,0,0,1.615-1.437,4.264,4.264,0,0,0,.661-2c.016-.727-.083-1.325-.117-1.983-.191-2.568-.359-5.013-.585-7.3-.11-1.142-.231-2.245-.365-3.3a8.85,8.85,0,0,0-.781-3,8.022,8.022,0,0,0-7.444-4.837,18.926,18.926,0,0,0-2.516.047c-.287.025-.505.051-.651.072a.694.694,0,0,0-.218.047,7.289,7.289,0,0,0,.875-.014,23.721,23.721,0,0,1,2.5.049,8.557,8.557,0,0,1,3.745,1.005,8.336,8.336,0,0,1,3.38,3.783,8.573,8.573,0,0,1,.718,2.9q.181,1.581.334,3.294c.2,2.278.357,4.719.536,7.291.029.628.126,1.328.106,1.918a3.782,3.782,0,0,1-.594,1.763,3.04,3.04,0,0,1-1.386,1.236,3.435,3.435,0,0,1-1.909.153,4.922,4.922,0,0,1-3.239-2.27,18.516,18.516,0,0,1-1.785-3.947c-.541-1.492-.848-3.077-1.325-4.589a7.259,7.259,0,0,0-.987-2.218,1.193,1.193,0,0,0-.258-.244.83.83,0,0,0-.33-.148,4.65,4.65,0,0,0-.615-.125c-.206,0-.413-.009-.617,0l-.6.1a22.97,22.97,0,0,0-4.109,1.792,6.12,6.12,0,0,1-1.947.606,1.957,1.957,0,0,1-1.668-.635l.042.067L56.737,159.2l-.155.26c4.21-.431,7.61-.854,9.962-1.126l2.707-.325.7-.1a.807.807,0,0,0,.238-.051" transform="translate(45.298 126.88)" fill="#8a503f"/>
        <path id="Trazado_336" data-name="Trazado 336" d="M50.011,161.014s2.234-.7,5.257,1.505c0,0,1.13-4.972,5.1-5.95,2.882-.709,6.547,2.247,6.547,2.247s2.487-4.974,9.119-2.9c5.484,1.714,16.995,35.74,17.984,38.021,1.132,2.611-3.521,5.883-6.089,3.248-2.689-2.763-11.73-17.877-11.73-17.877l6.01,21.2a4.045,4.045,0,0,1-.06,2.1c-.642,2.157-4.889,4.68-7.886.621-3.73-5.055-7.533-15.47-7.533-15.47l-3.665-7.993s6.843,21.178,4.356,23.105-5.679,1.184-7.96-3.79-10.57-20.725-10.57-20.725l-3.936-2.074,1.449,4.975s7.542,3.938,5.844,7.461-5.253,2.476-8.744.828-6.533-9.828-8.4-13.194c-1.668-3.01-1.828-11.866,5.324-12.2a5.47,5.47,0,0,1,4.095,1.631l.356.357s1.171-4.411,5.134-5.114" transform="translate(27.482 125.055)" fill="#d39c8c"/>
        <path id="Trazado_337" data-name="Trazado 337" d="M50.069,161.077s-.161.025-.475.094a2.944,2.944,0,0,0-.576.177,4.374,4.374,0,0,0-.767.348,7.669,7.669,0,0,0-3.395,4.476l.135-.038a5.879,5.879,0,0,0-3.665-2,6.654,6.654,0,0,0-4.855,1.487,7.985,7.985,0,0,0-2.362,5.457,12.486,12.486,0,0,0,.211,3.335,8.027,8.027,0,0,0,.527,1.682c.245.559.547,1.045.8,1.6,1.059,2.158,2.079,4.494,3.384,6.829a22.418,22.418,0,0,0,2.285,3.422,8.19,8.19,0,0,0,1.568,1.474,12.622,12.622,0,0,0,1.967.962,9.6,9.6,0,0,0,4.4.91,3.75,3.75,0,0,0,2.16-.956,4.633,4.633,0,0,0,.769-.931l.294-.527c.072-.195.134-.4.2-.6a3.4,3.4,0,0,0-.482-2.4,8.4,8.4,0,0,0-1.57-1.888,20.621,20.621,0,0,0-4.062-2.864l.106.128c-.444-1.529-.942-3.239-1.446-4.975l-.312.256c1.209.637,2.564,1.353,3.936,2.077l-.094-.094q2.945,5.679,6.1,11.761l3.122,6.194q.763,1.586,1.539,3.192a10.914,10.914,0,0,0,2.081,3,4.736,4.736,0,0,0,3.42,1.483,4.344,4.344,0,0,0,1.853-.536,4.711,4.711,0,0,0,.81-.538,1.741,1.741,0,0,0,.475-.949,12.389,12.389,0,0,0-.07-3.79c-.168-1.245-.4-2.483-.659-3.719-1.063-4.941-2.483-9.888-4.052-14.878l-.48.186c1.16,2.528,2.407,5.25,3.665,7.993l-.007-.018c.836,2.247,1.814,4.622,2.875,6.982.787,1.74,1.619,3.452,2.536,5.113q.69,1.243,1.46,2.438a9.718,9.718,0,0,0,1.841,2.209,4.545,4.545,0,0,0,2.711,1.052,4.882,4.882,0,0,0,2.767-.837,4.117,4.117,0,0,0,1.763-2.281,4.313,4.313,0,0,0,.119-1.449,7.047,7.047,0,0,0-.314-1.373c-1.992-7.018-3.934-13.853-5.809-20.451l-.449.195q3.451,5.728,6.914,11.108c1.164,1.785,2.328,3.541,3.566,5.219a7.646,7.646,0,0,0,2.229,2.256,3.729,3.729,0,0,0,3.142.027,4.5,4.5,0,0,0,2.3-2.092,2.793,2.793,0,0,0,.245-1.581,15.021,15.021,0,0,0-.505-1.429q-1.012-2.761-1.994-5.436c-1.317-3.562-2.62-7-3.936-10.279s-2.629-6.419-3.978-9.377a73.869,73.869,0,0,0-4.292-8.253,13.129,13.129,0,0,0-2.738-3.348,2.976,2.976,0,0,0-.951-.511l-1-.256a10.275,10.275,0,0,0-2.005-.213,6.993,6.993,0,0,0-6.185,3.487l.2-.043a12.242,12.242,0,0,0-4.34-2.2,4.955,4.955,0,0,0-2.2-.07,5.544,5.544,0,0,0-1.857.8,7.541,7.541,0,0,0-2.339,2.61,11.046,11.046,0,0,0-1.061,2.646l.1-.038a7.746,7.746,0,0,0-3.938-1.57,3.348,3.348,0,0,0-1.357.119s.108-.022.332-.047a4.859,4.859,0,0,1,1.02,0,7.806,7.806,0,0,1,3.864,1.61l.081.058.025-.1A10.976,10.976,0,0,1,56.467,160a7.41,7.41,0,0,1,2.3-2.527,5.352,5.352,0,0,1,1.792-.758,4.767,4.767,0,0,1,2.1.083,12.065,12.065,0,0,1,4.23,2.178l.123.094.078-.137a6.719,6.719,0,0,1,5.95-3.3,10.089,10.089,0,0,1,1.94.217l.971.253a2.694,2.694,0,0,1,.852.466,12.9,12.9,0,0,1,2.642,3.272,74.182,74.182,0,0,1,4.239,8.226q2,4.437,3.941,9.374,1.954,4.921,3.905,10.279l1.982,5.441c.162.453.383.947.482,1.352a2.359,2.359,0,0,1-.213,1.31,4.044,4.044,0,0,1-2.063,1.861,3.27,3.27,0,0,1-2.759-.016,7.357,7.357,0,0,1-2.061-2.122c-1.222-1.664-2.382-3.416-3.541-5.2-2.306-3.573-4.6-7.285-6.89-11.1l-.955-1.588.505,1.783c1.868,6.6,3.8,13.429,5.788,20.443a6.57,6.57,0,0,1,.3,1.29A3.8,3.8,0,0,1,82,202.448a3.622,3.622,0,0,1-1.55,1.982,4.39,4.39,0,0,1-2.467.751,4.029,4.029,0,0,1-2.4-.94,9.2,9.2,0,0,1-1.734-2.092q-.755-1.172-1.438-2.4c-.908-1.644-1.732-3.346-2.516-5.075-1.056-2.348-2.034-4.719-2.862-6.948l0-.009,0-.009c-1.26-2.743-2.508-5.465-3.667-7.993l-.48.186c1.566,4.972,2.987,9.915,4.048,14.825.258,1.227.487,2.454.653,3.682a12.128,12.128,0,0,1,.085,3.613,1.329,1.329,0,0,1-.316.684,4.222,4.222,0,0,1-.72.476,3.835,3.835,0,0,1-1.637.476,4.237,4.237,0,0,1-3.059-1.341c-1.691-1.639-2.429-3.987-3.528-6.057q-1.589-3.143-3.135-6.2-3.159-6.067-6.121-11.754l-.031-.061-.063-.032-3.94-2.068-.458-.24.146.494c.509,1.736,1.009,3.445,1.456,4.974l.025.085.081.043a20.352,20.352,0,0,1,3.978,2.788,8.139,8.139,0,0,1,1.5,1.79,3,3,0,0,1,.442,2.11,3.636,3.636,0,0,1-3.073,2.714A9.271,9.271,0,0,1,45,190.033a12.642,12.642,0,0,1-1.9-.92,7.892,7.892,0,0,1-1.5-1.4,22.408,22.408,0,0,1-2.258-3.358c-1.3-2.312-2.332-4.636-3.405-6.8-.254-.54-.581-1.07-.8-1.585a7.829,7.829,0,0,1-.516-1.615,12.2,12.2,0,0,1-.222-3.256,7.75,7.75,0,0,1,2.245-5.3,6.456,6.456,0,0,1,4.672-1.465,5.714,5.714,0,0,1,3.575,1.917l.092.1.043-.137a6.74,6.74,0,0,1,5.055-5.136" transform="translate(27.424 124.992)" fill="#8a503f"/>
        <path id="Trazado_338" data-name="Trazado 338" d="M48.118,163.165a24.6,24.6,0,0,0,1.9,6.632c.688,1.778,1.366,3.359,1.868,4.5a8.32,8.32,0,0,0,.9,1.812,43.355,43.355,0,0,0-2.285-6.5c-.684-1.77-1.272-3.38-1.673-4.555a9.838,9.838,0,0,0-.707-1.891" transform="translate(38.702 131.296)" fill="#8a503f"/>
        <path id="Trazado_339" data-name="Trazado 339" d="M54.633,161.983c-.137.067,1.126,2.85,2.523,6.345a42.3,42.3,0,0,0,2.74,6.266,8.064,8.064,0,0,0-.572-1.926c-.41-1.166-.982-2.777-1.687-4.533s-1.422-3.313-1.983-4.418a7.413,7.413,0,0,0-1.02-1.734" transform="translate(43.954 130.344)" fill="#8a503f"/>
      </g>
    </g>
  </g>
</svg>
