<svg id="Persona1" xmlns="http://www.w3.org/2000/svg" xmlns:xlink="http://www.w3.org/1999/xlink" width="332.079" height="392.399" viewBox="0 0 332.079 392.399">
  <defs>
    <clipPath id="clip-path">
      <rect id="Rectángulo_79" data-name="Rectángulo 79" width="332.079" height="392.399" fill="none"/>
    </clipPath>
    <clipPath id="clip-path-3">
      <rect id="Rectángulo_74" data-name="Rectángulo 74" width="19.506" height="26.337" fill="none"/>
    </clipPath>
    <clipPath id="clip-path-4">
      <rect id="Rectángulo_75" data-name="Rectángulo 75" width="42.137" height="18.185" fill="none"/>
    </clipPath>
    <clipPath id="clip-path-5">
      <rect id="Rectángulo_76" data-name="Rectángulo 76" width="64.018" height="55.441" fill="none"/>
    </clipPath>
  </defs>
  <g id="Grupo_64" data-name="Grupo 64" clip-path="url(#clip-path)">
    <g id="Grupo_63" data-name="Grupo 63">
      <g id="Grupo_62" data-name="Grupo 62" clip-path="url(#clip-path)">
        <path id="Trazado_176" data-name="Trazado 176" d="M97.158,53.594l-1.1,88.443c-.187,15.041,2.612,37.172,26.406,36.383,20.593-2.241,26.054-21.734,26.214-35.77.075-6.657.153-12.211.2-12.894,0,0,22.542-1.838,24.445-24.1.918-10.759,1.008-33.074.854-53.262a41.619,41.619,0,0,0-38.6-41.172l-2.15-.156c-23.282-.339-36.578,19.246-36.273,42.53" transform="translate(20.313 2.339)" fill="#ffc09d"/>
        <path id="Trazado_177" data-name="Trazado 177" d="M144.618,110.9s-14.107-.2-28.388-10.7c0,0,5.889,16.794,28.271,16.41Z" transform="translate(24.581 21.192)" fill="#ff9b6c"/>
        <path id="Trazado_178" data-name="Trazado 178" d="M131.516,53.394c-.442.451-3.013-1.619-6.744-1.718-3.724-.156-6.515,1.729-6.907,1.249-.193-.214.268-1.036,1.483-1.891a9.35,9.35,0,0,1,5.546-1.573,8.991,8.991,0,0,1,5.351,1.948c1.123.935,1.488,1.785,1.271,1.984" transform="translate(24.918 10.459)" fill="#1a2e35"/>
        <path id="Trazado_179" data-name="Trazado 179" d="M129.53,59.59a3.019,3.019,0,0,1-3.124,2.825,2.886,2.886,0,0,1-2.9-2.94,3.019,3.019,0,0,1,3.121-2.828,2.888,2.888,0,0,1,2.908,2.943" transform="translate(26.118 11.98)" fill="#1a2e35"/>
        <path id="Trazado_180" data-name="Trazado 180" d="M136.839,79.127c0-.2,2.154-.408,5.633-.6.882-.027,1.722-.139,1.913-.726a4.463,4.463,0,0,0-.395-2.635q-1-3.264-2.1-6.847c-2.9-9.743-4.93-17.728-4.536-17.842s3.063,7.692,5.962,17.434q1.039,3.6,1.988,6.879a5.09,5.09,0,0,1,.2,3.466,2.2,2.2,0,0,1-1.531,1.173,5.9,5.9,0,0,1-1.5.1c-3.485-.067-5.639-.207-5.637-.4" transform="translate(28.939 10.676)" fill="#1a2e35"/>
        <path id="Trazado_181" data-name="Trazado 181" d="M130.24,41.62c-.36.827-3.346.2-6.922.388-3.579.109-6.515.973-6.93.177-.183-.38.373-1.142,1.588-1.88a11.294,11.294,0,0,1,5.236-1.473,11.18,11.18,0,0,1,5.317,1.043c1.262.637,1.868,1.352,1.711,1.746" transform="translate(24.607 8.21)" fill="#1a2e35"/>
        <path id="Trazado_182" data-name="Trazado 182" d="M159.447,47.342c-.391.675-3.3-.074-6.829-.183-3.528-.173-6.455.343-6.828-.362-.164-.336.418-.941,1.648-1.477a12.311,12.311,0,0,1,5.218-.861,12.7,12.7,0,0,1,5.186,1.277c1.214.634,1.778,1.284,1.605,1.606" transform="translate(30.827 9.4)" fill="#1a2e35"/>
        <path id="Trazado_183" data-name="Trazado 183" d="M100.2,60.09c-.368-.193-14.981-5.647-15.606,9.624S99.428,82.463,99.472,82.026s.728-21.935.728-21.935" transform="translate(17.887 12.475)" fill="#ffc09d"/>
        <path id="Trazado_184" data-name="Trazado 184" d="M94.369,75.2c-.065-.052-.274.176-.732.363a2.667,2.667,0,0,1-1.99-.041c-1.588-.658-2.842-3.275-2.8-6.031a8.8,8.8,0,0,1,.9-3.777,3.078,3.078,0,0,1,2.085-1.96,1.355,1.355,0,0,1,1.54.794c.188.435.078.735.158.766.041.04.339-.242.241-.878a1.693,1.693,0,0,0-.561-.981,2.015,2.015,0,0,0-1.455-.449,3.742,3.742,0,0,0-2.876,2.255,9.044,9.044,0,0,0-1.1,4.218c-.028,3.081,1.43,6.025,3.611,6.753a2.847,2.847,0,0,0,2.448-.3c.489-.357.584-.7.532-.726" transform="translate(18.564 13.324)" fill="#ff9b6c"/>
        <path id="Trazado_185" data-name="Trazado 185" d="M135.275,84.569c.167-.385-2.825-1.282-4.928-4.089a17.122,17.122,0,0,1-2.113-3.987c-.446-1.108-.783-1.805-.947-1.754s-.118.8.127,2.006a11.278,11.278,0,0,0,1.966,4.467,9.142,9.142,0,0,0,3.9,2.986c1.167.472,1.955.5,2,.371" transform="translate(26.9 15.806)" fill="#1a2e35"/>
        <path id="Trazado_186" data-name="Trazado 186" d="M207.183,34.744a3.6,3.6,0,0,0-1.694-2.106c-1.743-1.03-3.751-.893-5.692-.924a32.134,32.134,0,0,1-16.744-5.089,74.919,74.919,0,0,0-7.792-9.442c-6.748-6.959-12.3-11.694-18.045-14.007-7.43-2.99-19.855-4.2-27.6-2.17S114.91,9.322,113.834,17.259c-4.346-3.673-10.867-3.642-16.159-1.514l-.132-.058c-5.893,2.1-9.241,8.327-10.98,14.336S84.084,42.458,80.9,47.843c-.665,1.127-1.456,2.476-.875,3.648a2.483,2.483,0,0,0,2.6,1.133,7.29,7.29,0,0,0,2.744-1.241L83.4,56.1a13.926,13.926,0,0,0,6.41-.429A136.732,136.732,0,0,0,94,71.522c2.464-.007,4.719.168,6.237,1.534,2.064,1.856,2.988,5.347,6.417,4.022,1.745-.675,3.338-4.337,3.922-6.114a86.9,86.9,0,0,0,3.763-36.782,27.914,27.914,0,0,1,8.625-6.225l-.264.237c6.223-2.161,13.261-4.287,19.166-1.367,4.579,2.267,7.271,7.018,10.695,10.81a34.959,34.959,0,0,0,24.914,11.508c.33,6.269-.2,15.13.132,21.4L182.88,60.5l0,.051c.431-.735.789-1.477,1.134-2.219l.119-.225v-.028a39.226,39.226,0,0,1,1.764-3.567c.021.018.04.036.061.053,3.4,3,8.4-1.585,5.722-5.237a8.816,8.816,0,0,0-1.894-1.9,6.2,6.2,0,0,0,5.9,1.53,4.862,4.862,0,0,0,3.438-4.807,4.134,4.134,0,0,0-2.464-3.317,13.963,13.963,0,0,0,7.941-1.751c1.568-.894,3.106-2.366,2.574-4.338" transform="translate(16.882 0)" fill="#1a2e35"/>
        <path id="Trazado_187" data-name="Trazado 187" d="M119.388,16.357a19.087,19.087,0,0,0-2.234,2.043,15.972,15.972,0,0,0-3.419,7.395,28.2,28.2,0,0,0-.569,5.66c-.008,2.051.156,4.247.314,6.563a58.925,58.925,0,0,1,.167,7.3,25.781,25.781,0,0,1-.5,3.854,8.035,8.035,0,0,1-1.571,3.737,3.365,3.365,0,0,1-3.144,1.056,5,5,0,0,1-2.828-1.6c-1.433-1.672-1.791-3.793-2.147-5.662l.468.056a18.654,18.654,0,0,1-2.709,4.667,6.634,6.634,0,0,1-4.333,2.359,4.269,4.269,0,0,1-2.3-.4,3.708,3.708,0,0,1-1.56-1.536,3.816,3.816,0,0,1-.472-1.975,2.769,2.769,0,0,1,.715-1.732l.236.211a14.352,14.352,0,0,1-4.784,3.59,12.59,12.59,0,0,1-1.483.575,2.474,2.474,0,0,1-.532.132,2.843,2.843,0,0,1,.5-.214c.332-.136.824-.334,1.438-.646a14.8,14.8,0,0,0,4.617-3.643l.236.211a2.856,2.856,0,0,0-.147,3.31,3.339,3.339,0,0,0,1.41,1.36,3.884,3.884,0,0,0,2.081.338,6.217,6.217,0,0,0,4.021-2.241,18.417,18.417,0,0,0,2.61-4.566l.32-.715.148.772c.356,1.867.737,3.9,2.044,5.41a4.5,4.5,0,0,0,2.531,1.43,2.835,2.835,0,0,0,2.671-.9,7.6,7.6,0,0,0,1.451-3.5,25.338,25.338,0,0,0,.5-3.774A59.47,59.47,0,0,0,113,38.047c-.143-2.314-.293-4.52-.265-6.6a27.923,27.923,0,0,1,.641-5.734A15.749,15.749,0,0,1,117,18.264a9.045,9.045,0,0,1,2.384-1.907" transform="translate(18.336 3.459)" fill="#375a64"/>
        <path id="Trazado_188" data-name="Trazado 188" d="M182.448,40.211c0,.007-.056.058-.178.153-.151.109-.334.242-.557.406a7.59,7.59,0,0,1-.943.6,12.185,12.185,0,0,1-1.356.714,19.752,19.752,0,0,1-9.533,1.714,25.23,25.23,0,0,1-13.441-4.963,43.714,43.714,0,0,1-11.548-13.309c-1.62-2.7-2.94-5.461-4.4-8.015a29.5,29.5,0,0,0-4.977-6.781A15.207,15.207,0,0,0,129.1,6.838a10.893,10.893,0,0,0-3.385-.389,11.966,11.966,0,0,0-3.1.595,12.887,12.887,0,0,0-7.157,6.056,15.5,15.5,0,0,0-1.15,3.339.812.812,0,0,1,.018-.234c.029-.184.063-.408.105-.682a11.2,11.2,0,0,1,.846-2.515,12.7,12.7,0,0,1,2.493-3.38A13.054,13.054,0,0,1,122.5,6.695a12.3,12.3,0,0,1,3.2-.648,11.261,11.261,0,0,1,3.521.376,15.577,15.577,0,0,1,6.637,3.966,29.755,29.755,0,0,1,5.086,6.873c1.473,2.571,2.794,5.329,4.4,8A43.735,43.735,0,0,0,156.722,38.45,25.079,25.079,0,0,0,169.9,43.434a20.05,20.05,0,0,0,9.427-1.533,31.119,31.119,0,0,0,3.117-1.691" transform="translate(24.175 1.277)" fill="#375a64"/>
        <path id="Trazado_189" data-name="Trazado 189" d="M176.346,26.167a3.467,3.467,0,0,1-.8.556,17.237,17.237,0,0,1-2.366,1.2,23.008,23.008,0,0,1-3.745,1.23,24.245,24.245,0,0,1-9.608.308,22.753,22.753,0,0,1-3.816-.989,17.19,17.19,0,0,1-2.438-1.047,3.472,3.472,0,0,1-.832-.5c.044-.088,1.273.545,3.385,1.2a26.566,26.566,0,0,0,3.776.863,28.682,28.682,0,0,0,4.728.281,28.522,28.522,0,0,0,4.7-.584,26.251,26.251,0,0,0,3.713-1.1c2.066-.791,3.253-1.5,3.3-1.416" transform="translate(32.303 5.533)" fill="#375a64"/>
        <path id="Trazado_190" data-name="Trazado 190" d="M159.585,54.555c-.442.451-3.013-1.62-6.744-1.719-3.724-.156-6.515,1.73-6.907,1.25-.193-.214.268-1.037,1.483-1.891a9.35,9.35,0,0,1,5.546-1.574,9,9,0,0,1,5.351,1.948c1.123.935,1.488,1.785,1.271,1.986" transform="translate(30.854 10.704)" fill="#1a2e35"/>
        <path id="Trazado_191" data-name="Trazado 191" d="M155.11,60.484a3.019,3.019,0,0,1-3.124,2.825,2.885,2.885,0,0,1-2.9-2.939,3.019,3.019,0,0,1,3.121-2.828,2.888,2.888,0,0,1,2.908,2.941" transform="translate(31.528 12.169)" fill="#1a2e35"/>
        <path id="Trazado_192" data-name="Trazado 192" d="M277.381,128.691c0-6.469-6.182-6.469-6.182-6.469-2.355-3.094-5-1.97-5-1.97L256.184,127C254.712,129.535,245,139.1,245,139.1c-2.65-1.969-2.65-5.907-5.825-10.689s-10.367-4.22-10.367-4.22,5.593,12.658,6.182,20.535-4.3,29.845-4.3,29.845l28.3,7.953s1.786-12.052,4.957-13.025c3.816-1.171,5.94-6.8,5.94-6.8,4.125-8.357,12.5-20.5,13.679-26.691s-6.182-7.314-6.182-7.314" transform="translate(48.389 25.389)" fill="#ffc09d"/>
        <path id="Trazado_193" data-name="Trazado 193" d="M103.942,115.636c18.023,11.326,36.188,15.587,54.586,8.253l27.656,7.064,33.3,236.991L53.862,314.121,61.723,271.9,81.5,120.2Z" transform="translate(11.391 24.455)" fill="#375a64"/>
        <path id="Trazado_194" data-name="Trazado 194" d="M163.084,128.278s21.509,8.931,29.719,24.577,21.4,59.561,21.4,59.561l24.3-44.635,45.107,11.532s-33.575,92.611-42,101.043c-9.228,9.23-34.377,18.537-46.691,11.354s-14.82-34.447-14.82-34.447Z" transform="translate(34.49 27.129)" fill="#375a64"/>
        <path id="Trazado_195" data-name="Trazado 195" d="M164.347,197.334c-.125,0-.225-8.075-.225-18.032s.1-18.034.225-18.034.225,8.072.225,18.034-.1,18.032-.225,18.032" transform="translate(34.709 34.106)" fill="#1a2e35"/>
        <path id="Trazado_196" data-name="Trazado 196" d="M172.371,136.852a26.708,26.708,0,0,1-1.049,2.978c-.677,1.826-1.576,4.359-2.456,7.195s-1.566,5.436-2.039,7.325a26.8,26.8,0,0,1-.817,3.049,3.137,3.137,0,0,1,.084-.847c.081-.54.224-1.318.423-2.274.395-1.913,1.038-4.537,1.919-7.386s1.835-5.377,2.59-7.178c.377-.9.7-1.623.935-2.115a3.084,3.084,0,0,1,.41-.746" transform="translate(35.107 28.942)" fill="#1a2e35"/>
        <path id="Trazado_197" data-name="Trazado 197" d="M89.972,187.552l4.991-68.495s-37.55,3.483-49.976,29.975c-10.471,22.324-39.374,89.49-42.469,98.679-9.079,26.962,5.1,64.031,63.572,61.884l6.666-36.655Z" transform="translate(0 25.179)" fill="#375a64"/>
        <path id="Trazado_198" data-name="Trazado 198" d="M39.561,254.917a4.444,4.444,0,0,1,.305-.658q.356-.685.953-1.843c.867-1.631,2.085-3.923,3.582-6.74l1.2-2.229a6.622,6.622,0,0,1,1.718-2.207,4.663,4.663,0,0,1,2.887-.83,13.094,13.094,0,0,1,3.114.5A31.957,31.957,0,0,1,59.6,243.29a16.7,16.7,0,0,1,3.017,1.923l.348.3a1.119,1.119,0,0,1,.294.464,3.863,3.863,0,0,1,.19.944,14.673,14.673,0,0,1,.041,1.86c-.091,2.476-.4,4.862-.708,7.164s-.668,4.51-1.019,6.612c-.708,4.2-1.414,7.976-2.02,11.141l-1.467,7.488q-.253,1.279-.4,2.035a5.846,5.846,0,0,1-.151.709,3.475,3.475,0,0,1,.062-.723c.062-.471.168-1.163.319-2.052.32-1.817.772-4.373,1.327-7.515.566-3.172,1.239-6.948,1.923-11.15.34-2.1.682-4.309.992-6.6s.6-4.678.694-7.117a14.111,14.111,0,0,0-.039-1.8,3.475,3.475,0,0,0-.162-.831.687.687,0,0,0-.178-.292l-.331-.288a16.442,16.442,0,0,0-2.932-1.873,31.86,31.86,0,0,0-6.187-2.367,12.842,12.842,0,0,0-3.013-.51,4.294,4.294,0,0,0-2.66.735,6.283,6.283,0,0,0-1.636,2.075q-.636,1.152-1.221,2.212c-1.548,2.788-2.809,5.057-3.707,6.672q-.645,1.132-1.027,1.8a4.522,4.522,0,0,1-.385.614" transform="translate(8.366 50.843)" fill="#1a2e35"/>
        <path id="Trazado_199" data-name="Trazado 199" d="M17.149,225.528a1.655,1.655,0,0,1,.441-.015l1.261.048c1.093.053,2.675.147,4.628.327a60.139,60.139,0,0,1,6.818.993,34.917,34.917,0,0,1,8.02,2.657,31.426,31.426,0,0,1,7.056,4.656,18.828,18.828,0,0,1,4.284,5.413,11.977,11.977,0,0,1,1.3,4.467,7.887,7.887,0,0,1,.025,1.266,1.6,1.6,0,0,1-.036.44c-.05,0-.033-.611-.162-1.686a12.583,12.583,0,0,0-1.407-4.341A19.088,19.088,0,0,0,45.1,234.5a32.06,32.06,0,0,0-6.977-4.561,35.813,35.813,0,0,0-7.911-2.657,66.4,66.4,0,0,0-6.765-1.081c-1.941-.222-3.518-.362-4.607-.47l-1.254-.132a1.637,1.637,0,0,1-.435-.076" transform="translate(3.627 47.692)" fill="#1a2e35"/>
        <path id="Trazado_200" data-name="Trazado 200" d="M51.653,222.671a16.049,16.049,0,0,1-.934,2.7c-.642,1.639-1.6,3.876-2.7,6.324L45.2,237.955a20.284,20.284,0,0,1-1.226,2.572,16.1,16.1,0,0,1,.933-2.7c.643-1.639,1.6-3.877,2.7-6.325,1.072-2.384,2.043-4.541,2.817-6.263a19.86,19.86,0,0,1,1.227-2.572" transform="translate(9.299 47.092)" fill="#1a2e35"/>
        <path id="Trazado_201" data-name="Trazado 201" d="M67.5,181.557c-.125,0-.225-4.342-.225-9.7s.1-9.7.225-9.7.225,4.341.225,9.7-.1,9.7-.225,9.7" transform="translate(14.228 34.295)" fill="#1a2e35"/>
        <g id="Grupo_55" data-name="Grupo 55" transform="translate(35.063 293.473)" opacity="0.3">
          <g id="Grupo_54" data-name="Grupo 54">
            <g id="Grupo_53" data-name="Grupo 53" clip-path="url(#clip-path-3)">
              <path id="Trazado_202" data-name="Trazado 202" d="M48.448,242.242c-9.877,3.445-16.556,12.409-19.253,22.517-.282,1.06-.471,2.313.237,3.149a2.485,2.485,0,0,0,3.1.253,7.258,7.258,0,0,0,2.2-2.532c4.76-7.615,9.406-14.67,13.715-23.387" transform="translate(-28.943 -242.242)"/>
            </g>
          </g>
        </g>
        <g id="Grupo_58" data-name="Grupo 58" transform="translate(11.137 269.433)" opacity="0.3">
          <g id="Grupo_57" data-name="Grupo 57">
            <g id="Grupo_56" data-name="Grupo 56" clip-path="url(#clip-path-4)">
              <path id="Trazado_203" data-name="Trazado 203" d="M40.372,226.9a39.823,39.823,0,0,0-17-4.459,25.786,25.786,0,0,0-6.874.6c-3.082.648-6.628,2.2-7.3,4.419,7.09-2.221,17.525-.757,24.785.829A26.626,26.626,0,0,1,51.33,240.583,24.756,24.756,0,0,0,40.372,226.9" transform="translate(-9.192 -222.399)"/>
            </g>
          </g>
        </g>
        <path id="Trazado_204" data-name="Trazado 204" d="M65.411,158.358a5.532,5.532,0,0,1-.344-1.081c-.184-.7-.486-1.713-.893-2.945a47.526,47.526,0,0,0-10.2-17.342c-.88-.955-1.616-1.708-2.141-2.211a5.421,5.421,0,0,1-.778-.826,5.475,5.475,0,0,1,.9.7c.563.465,1.337,1.187,2.252,2.12a42.826,42.826,0,0,1,10.277,17.465,30.89,30.89,0,0,1,.76,3,5.453,5.453,0,0,1,.174,1.122" transform="translate(10.796 28.329)" fill="#1a2e35"/>
        <path id="Trazado_205" data-name="Trazado 205" d="M81.707,300.868,39.866,199.917c-1.909-4.606.486-8.341,5.349-8.341h8.419c3.436,0,5.776-1.891,6-4.846l.279-3.712c.223-2.954,2.567-4.846,6.007-4.846h40a14,14,0,0,1,9.262,4.1l3.247,3.145a13.987,13.987,0,0,0,9.256,4.1h50.947c4.864,0,10.312,3.735,12.167,8.341l41.479,103.013Z" transform="translate(8.292 37.681)" fill="#ff735d"/>
        <path id="Trazado_206" data-name="Trazado 206" d="M81.707,300.868,39.866,199.917c-1.909-4.606.486-8.341,5.349-8.341h8.419c3.436,0,5.776-1.891,6-4.846l.279-3.712c.223-2.954,2.567-4.846,6.007-4.846h40a14,14,0,0,1,9.262,4.1l3.247,3.145a13.987,13.987,0,0,0,9.256,4.1h50.947c4.864,0,10.312,3.735,12.167,8.341l41.479,103.013Z" transform="translate(8.292 37.681)" fill="#e59225"/>
        <path id="Trazado_207" data-name="Trazado 207" d="M71.375,263.206,55.594,202.193c-1.038-4.017,1.592-8.048,5.254-8.048H184.54a5.64,5.64,0,0,1,5.268,4.544l22.971,91.834c1.009,4.032-.6,6.451-4.269,6.405l-124.452.038a5.645,5.645,0,0,1-5.2-4.507Z" transform="translate(11.709 41.059)" fill="#adadad"/>
        <path id="Trazado_208" data-name="Trazado 208" d="M76.812,295.043,70.09,198.96a5.893,5.893,0,0,1,5.878-6.3H204.127V295.043Z" transform="translate(14.82 40.744)" fill="#d3d3d3"/>
        <path id="Trazado_209" data-name="Trazado 209" d="M74.452,297.242,89.7,198.189a7.1,7.1,0,0,1,6.968-5.532H226.315a7.009,7.009,0,0,1,6.546,9.763l-27.995,90.648Z" transform="translate(15.746 40.744)" fill="#fafafa"/>
        <path id="Trazado_210" data-name="Trazado 210" d="M74.288,296.732l31.443-92.769a9.307,9.307,0,0,1,8.745-6.45H248.131a6.531,6.531,0,0,1,5.969,8.666l-29.245,90.6Z" transform="translate(15.711 41.771)" fill="#faaf40"/>
        <g id="Grupo_61" data-name="Grupo 61" transform="translate(92.725 283.108)" opacity="0.3">
          <g id="Grupo_60" data-name="Grupo 60">
            <g id="Grupo_59" data-name="Grupo 59" clip-path="url(#clip-path-5)">
              <path id="Trazado_211" data-name="Trazado 211" d="M138.435,273.551s-5.046.23-7.373.389a68.674,68.674,0,0,1-32.475-5.761c-3.145-1.4-6.472-3.379-7.423-6.689-1.065-3.706,1.335-7.562,4.261-10.073s6.484-4.3,9.024-7.2,3.743-7.6,1.241-10.529l-.692.506c-1.809,4.581-6.844,6.79-11.012,9.411a38.865,38.865,0,0,0-16.321,21.332c-1.468,4.8-1.86,10.405,1.053,14.5,2.066,2.9,5.448,4.553,8.788,5.792,10.111,3.75,20.919,3.89,31.7,3.9,3.407,0,13.864-.139,13.864-.139,3.288-.9,4.372-2.606,6.352-5.38,1.816-2.547,1.42-8.061-.99-10.057" transform="translate(-76.538 -233.686)"/>
            </g>
          </g>
        </g>
        <path id="Trazado_212" data-name="Trazado 212" d="M142.913,273.937,108.054,268.7l-13.535-7.787a6.108,6.108,0,0,1-3.111-4.916c0-.039,0-.078,0-.115a6.179,6.179,0,0,1,3.83-5.9c4.295-1.809,11.1-4.216,14-9.3,4.17-7.3,0-8.818,0-8.818L80.119,243.5,59.512,257.524l-4.146,23.385,28.752,9.39s32.039,1.806,40.88.814,8.84-5.109,8.84-5.109c1.64-.514,4.96-3.429,4.959-6.143,4.291-4.026,4.115-5.924,4.115-5.924" transform="translate(11.709 49.035)" fill="#ffc09d"/>
        <path id="Trazado_213" data-name="Trazado 213" d="M90.826,274.9a6.875,6.875,0,0,1,1.437.275c.91.22,2.235.514,3.877.841a81.984,81.984,0,0,0,26.018,1.015c1.662-.2,3.006-.388,3.931-.537a6.905,6.905,0,0,1,1.453-.162,6.86,6.86,0,0,1-1.41.389c-.915.22-2.255.472-3.918.726a70.784,70.784,0,0,1-26.161-1.02c-1.639-.382-2.955-.739-3.85-1.029a6.981,6.981,0,0,1-1.376-.5" transform="translate(19.208 58.136)" fill="#ff9b6c"/>
        <path id="Trazado_214" data-name="Trazado 214" d="M93.453,270.453a7.182,7.182,0,0,1,1.459.279c.924.224,2.27.516,3.939.837a84.709,84.709,0,0,0,13.177,1.456,89.485,89.485,0,0,0,13.249-.608c1.688-.2,3.052-.4,3.991-.55a7.22,7.22,0,0,1,1.476-.166,7.132,7.132,0,0,1-1.432.394c-.929.222-2.289.48-3.977.738a74.939,74.939,0,0,1-13.324.785,71.727,71.727,0,0,1-13.244-1.638c-1.667-.376-3-.732-3.914-1.025a7.167,7.167,0,0,1-1.4-.5" transform="translate(19.764 57.195)" fill="#ff9b6c"/>
        <path id="Trazado_215" data-name="Trazado 215" d="M278.574,180.911l-61.937,12.234a7.9,7.9,0,0,1-9.28-6.22L190.423,101.2a7.9,7.9,0,0,1,6.219-9.281l39.281-7.758,36.6,25.335,12.274,62.14a7.9,7.9,0,0,1-6.22,9.28" transform="translate(40.24 17.798)" fill="#ececec"/>
        <path id="Trazado_216" data-name="Trazado 216" d="M227.954,84.157l4.766,24.128a7.347,7.347,0,0,0,8.631,5.785l23.2-4.578Z" transform="translate(48.209 17.798)" fill="#f5f5f5"/>
        <path id="Trazado_217" data-name="Trazado 217" d="M232.5,105.917s.85,5.912,7.893,6.52a7.27,7.27,0,0,0,.8.021c3.137-.057,23.778-.448,23.688-.906-.1-.5-1.281-6.483-1.281-6.483l-23.2,4.582s-5.832.946-7.9-3.734" transform="translate(49.169 22.221)" fill="#e1e1e1"/>
        <path id="Trazado_218" data-name="Trazado 218" d="M278.612,180.951s.112-.038.334-.1a6.558,6.558,0,0,0,.975-.317,7.841,7.841,0,0,0,4.9-8.354c-.453-2.509-1.07-5.4-1.706-8.639l-10.741-53.973.078.118L235.839,84.374l.164.035-22.664,4.482-11.857,2.344-3.008.595a20.276,20.276,0,0,0-2.96.7,7.686,7.686,0,0,0-4.289,4.016,7.581,7.581,0,0,0-.621,4.106c.218,1.391.54,2.814.8,4.212q.832,4.211,1.651,8.363,1.639,8.3,3.226,16.349c2.112,10.719,4.149,21.059,6.091,30.91l2.832,14.394q.689,3.5,1.357,6.9.334,1.7.663,3.368a18.177,18.177,0,0,0,.789,3.238,7.74,7.74,0,0,0,4.514,4.309,7.647,7.647,0,0,0,3.072.446,29.179,29.179,0,0,0,3.067-.522l11.694-2.295,35.294-6.9,9.6-1.854,2.5-.47c.563-.1.854-.145.854-.145s-.285.071-.846.19l-2.49.515-9.584,1.936-35.266,7.038-11.688,2.324a29.23,29.23,0,0,1-3.115.535,8.011,8.011,0,0,1-3.215-.46,8.1,8.1,0,0,1-4.736-4.506,18.384,18.384,0,0,1-.817-3.309q-.331-1.67-.668-3.367-.674-3.395-1.368-6.893-1.387-7-2.852-14.39l-6.117-30.9q-1.59-8.039-3.232-16.349-.821-4.151-1.652-8.362c-.267-1.413-.581-2.79-.809-4.244a8.016,8.016,0,0,1,.658-4.347,8.127,8.127,0,0,1,4.541-4.251,20.59,20.59,0,0,1,3.03-.718L201.4,90.8l11.857-2.341,22.667-4.47.09-.017.075.052,36.581,25.356.063.044.015.075c4.4,22.445,8.041,41.025,10.585,54,.622,3.248,1.22,6.126,1.66,8.66a7.927,7.927,0,0,1-1.781,6.118,7.837,7.837,0,0,1-3.264,2.313,6,6,0,0,1-.99.292c-.225.051-.34.07-.34.07" transform="translate(40.201 17.758)" fill="#1a2e35"/>
        <path id="Trazado_219" data-name="Trazado 219" d="M264.551,109.491a3.082,3.082,0,0,1-.588.162l-1.7.378-6.271,1.311-9.311,1.886-5.51,1.089a7.584,7.584,0,0,1-7.889-3.826,8.774,8.774,0,0,1-.92-2.879c-.372-1.908-.732-3.751-1.075-5.507-.672-3.5-1.281-6.658-1.794-9.33l-1.17-6.3c-.122-.709-.221-1.279-.3-1.717a3.18,3.18,0,0,1-.074-.6,3.116,3.116,0,0,1,.162.588c.1.432.222,1,.379,1.7.32,1.531.766,3.661,1.311,6.271.54,2.665,1.18,5.819,1.889,9.311.35,1.755.718,3.6,1.1,5.5a8.321,8.321,0,0,0,.881,2.749,7.159,7.159,0,0,0,7.423,3.607l5.5-1.061,9.33-1.793,6.3-1.169,1.717-.3a3.1,3.1,0,0,1,.6-.073" transform="translate(48.208 17.798)" fill="#1a2e35"/>
        <path id="Trazado_220" data-name="Trazado 220" d="M233.618,103.8a77.074,77.074,0,0,1-7.747,1.781,71.7,71.7,0,0,1-7.688,1.342,77.061,77.061,0,0,1,7.749-1.781,71.655,71.655,0,0,1,7.687-1.342" transform="translate(46.142 21.949)" fill="#1a2e35"/>
        <path id="Trazado_221" data-name="Trazado 221" d="M253.67,109.528c.024.122-10.743,2.351-24.047,4.979s-24.112,4.659-24.135,4.537,10.74-2.35,24.048-4.979,24.11-4.659,24.134-4.537" transform="translate(43.458 23.162)" fill="#1a2e35"/>
        <path id="Trazado_222" data-name="Trazado 222" d="M255.632,119.462c.024.124-10.743,2.351-24.047,4.979s-24.112,4.659-24.135,4.537,10.741-2.35,24.048-4.979,24.11-4.659,24.134-4.537" transform="translate(43.873 25.263)" fill="#1a2e35"/>
        <path id="Trazado_223" data-name="Trazado 223" d="M209.412,138.914c-.024-.122,10.743-2.352,24.047-4.979s24.112-4.659,24.135-4.537-10.741,2.35-24.048,4.979-24.11,4.659-24.134,4.537" transform="translate(44.288 27.365)" fill="#1a2e35"/>
        <path id="Trazado_224" data-name="Trazado 224" d="M259.556,139.332c.024.122-10.743,2.352-24.047,4.979s-24.112,4.659-24.135,4.537,10.741-2.35,24.048-4.979,24.11-4.659,24.134-4.537" transform="translate(44.703 29.466)" fill="#1a2e35"/>
        <path id="Trazado_225" data-name="Trazado 225" d="M261.518,149.267c.024.122-10.743,2.352-24.047,4.978s-24.112,4.661-24.135,4.538,10.741-2.35,24.048-4.979,24.11-4.659,24.134-4.537" transform="translate(45.118 31.567)" fill="#1a2e35"/>
        <path id="Trazado_226" data-name="Trazado 226" d="M256.56,111.979s4.575-5.791,8.1-2.553,2.507,4.9-.843,10.024c0,0,7.477-.393,5.08,7.288,0,0,7.451-.825,6.735,5.46,0,0,5.626,5.5,2.7,9.055s-13.538,9.955-16.218,8.854-2.7-4.9-2.7-4.9-3.189-1.437-4.069-3.116.631-4.034.631-4.034-2.688-2.746-3.353-3.513.365-4.329.365-4.329l4.291-4.164s-5.908,2.568-7.14,1.588-2.619-1.826-1.3-3.613a59.831,59.831,0,0,1,6.005-5.784Z" transform="translate(52.512 22.934)" fill="#ffc09d"/>
        <path id="Trazado_227" data-name="Trazado 227" d="M257.964,141.5a20.493,20.493,0,0,1,1.936-2.351,22.617,22.617,0,0,1,5.459-5,52.753,52.753,0,0,0,6.135-3.945,29.172,29.172,0,0,0,2.092-2.152,5.456,5.456,0,0,1-1.755,2.526,36.235,36.235,0,0,1-6.091,4.172,27.447,27.447,0,0,0-5.469,4.738,9.587,9.587,0,0,1-2.307,2.011" transform="translate(54.555 27.081)" fill="#ff9b6c"/>
        <path id="Trazado_228" data-name="Trazado 228" d="M254.547,135.974c-.139-.139,2.607-3.105,6.133-6.623,1.77-1.731,3.288-3.415,4.594-4.446a5.531,5.531,0,0,1,2.3-1.358c.052.1-.806.617-1.967,1.737-1.182,1.092-2.634,2.819-4.423,4.571-3.525,3.518-6.5,6.259-6.635,6.119" transform="translate(53.832 26.126)" fill="#ff9b6c"/>
        <path id="Trazado_229" data-name="Trazado 229" d="M255.708,124.189c-.141-.177,1.556-1.524,3.438-3.317,1.915-1.783,2.849-3.687,3.03-3.616.2.045-.525,2.256-2.532,4.125-1.959,1.863-3.837,2.94-3.936,2.808" transform="translate(54.077 24.797)" fill="#ff9b6c"/>
        <path id="Trazado_230" data-name="Trazado 230" d="M256.6,111.988a1.83,1.83,0,0,1-.076.428c-.078.32-.174.722-.294,1.221l-1.2,4.657-.011.044-.039.034c-.863.758-1.832,1.631-2.88,2.618a25.44,25.44,0,0,0-3.19,3.407,1.783,1.783,0,0,0-.325,1.083,1.711,1.711,0,0,0,.575,1.009,11.658,11.658,0,0,0,1.053.87,1.59,1.59,0,0,0,1.191.236,22.86,22.86,0,0,0,5.8-1.8l1.383-.573-1.067,1.043c-1.352,1.321-2.789,2.725-4.277,4.18l.064-.092a5.455,5.455,0,0,0-.219,4.348,12.112,12.112,0,0,0,3.384,3.448l.291.219-.234.276c-.934,1.1-1.6,2.847-.374,3.923a15.875,15.875,0,0,0,4.052,2.773l-.5.279.007-.084s0-.039,0-.024v.007c.088.1-.2-.248.2.3.964-.454.28-.188.489-.262v0l-.007.164,0,.349a6.512,6.512,0,0,0,.065.7,5.494,5.494,0,0,0,.371,1.354,3.568,3.568,0,0,0,.76,1.138,2.131,2.131,0,0,0,1.109.637,6.773,6.773,0,0,0,2.826-.557,25.163,25.163,0,0,0,2.807-1.262,46.1,46.1,0,0,0,5-3.021,29.057,29.057,0,0,0,4.369-3.586,3.534,3.534,0,0,0,1.135-2.249,5.453,5.453,0,0,0-.46-2.517,14.32,14.32,0,0,0-2.94-4.273l-.107-.111.008-.165a5.39,5.39,0,0,0-.253-2.456,3.649,3.649,0,0,0-1.5-1.78,8.042,8.042,0,0,0-4.611-.882l-.43.027.1-.424c.113-.468.246-.928.343-1.387a7.811,7.811,0,0,0,.107-1.374,3.812,3.812,0,0,0-.771-2.431,5.607,5.607,0,0,0-4.452-1.742h-.5l.268-.407a41.815,41.815,0,0,0,2.408-3.928,5.794,5.794,0,0,0,.612-1.944,3.192,3.192,0,0,0-.384-1.812,8.1,8.1,0,0,0-2.35-2.554,3.451,3.451,0,0,0-2.8-.286,9.359,9.359,0,0,0-3.478,2.177c-.354.322-.6.588-.778.761a1.72,1.72,0,0,1-.269.259,1.177,1.177,0,0,1,.212-.309,10.152,10.152,0,0,1,.729-.819,11.442,11.442,0,0,1,1.34-1.182,7.117,7.117,0,0,1,2.16-1.165,3.753,3.753,0,0,1,3.06.258l.715.523c.212.2.428.409.648.619a7.419,7.419,0,0,1,1.174,1.52,3.621,3.621,0,0,1,.46,2.045,6.169,6.169,0,0,1-.63,2.114,40.887,40.887,0,0,1-2.4,4.01l-.234-.4a7.806,7.806,0,0,1,2.607.372,4.811,4.811,0,0,1,2.322,1.54,4.39,4.39,0,0,1,.915,2.771,8.35,8.35,0,0,1-.105,1.491c-.1.489-.234.973-.351,1.467l-.327-.4a8.615,8.615,0,0,1,5.014.944,4.3,4.3,0,0,1,1.78,2.087,6.03,6.03,0,0,1,.306,2.772l-.1-.276a14.888,14.888,0,0,1,3.109,4.49,6.133,6.133,0,0,1,.516,2.845,4.423,4.423,0,0,1-.416,1.461,6.417,6.417,0,0,1-.9,1.2,29.561,29.561,0,0,1-4.478,3.69,46.36,46.36,0,0,1-5.072,3.071,25.588,25.588,0,0,1-2.888,1.3,7.264,7.264,0,0,1-3.175.59,3.531,3.531,0,0,1-2.413-2.2,6.24,6.24,0,0,1-.418-1.531,7.018,7.018,0,0,1-.07-.779l0-.393.011-.207,0-.041,0-.011c.21-.076-.475.189.491-.268.406.549.117.2.206.305v.029l0,.069-.008.1-.047.522-.456-.244a16.4,16.4,0,0,1-4.249-2.935,3.323,3.323,0,0,1-.728-1.165,2.747,2.747,0,0,1-.058-1.38,5.3,5.3,0,0,1,1.167-2.286l.056.5a12.635,12.635,0,0,1-3.573-3.7,4.556,4.556,0,0,1-.395-2.537,8.068,8.068,0,0,1,.63-2.365l.022-.05.044-.042,4.306-4.148.316.471a23.109,23.109,0,0,1-5.987,1.788,2.106,2.106,0,0,1-1.543-.359,12.048,12.048,0,0,1-1.088-.922,2.18,2.18,0,0,1-.7-1.31,2.231,2.231,0,0,1,.408-1.37,24.877,24.877,0,0,1,3.315-3.448c1.071-.974,2.057-1.827,2.943-2.571l-.048.078,1.353-4.641c.151-.487.273-.88.368-1.191a1.623,1.623,0,0,1,.15-.393" transform="translate(52.471 22.905)" fill="#ff9b6c"/>
        <rect id="Rectángulo_77" data-name="Rectángulo 77" width="14.25" height="17.758" transform="translate(243.444 118.889) rotate(-11.903)" fill="#fff"/>
        <path id="Trazado_231" data-name="Trazado 231" d="M209.438,106.948l.313-.864.5.221,0,1.367-.368-.071-.472-.459Z" transform="translate(44.288 22.435)" fill="#00cabc"/>
        <path id="Trazado_232" data-name="Trazado 232" d="M210.387,99.321c.107.018.19.029.274.045a1.284,1.284,0,0,1,1.083,1.006c.2.848.371,1.7.536,2.559.018.1-.069.223-.126.325-.155.281-.447.458-.376.887a2.971,2.971,0,0,1-2.811,3.366l-.325.008a.188.188,0,0,0-.022.034.632.632,0,0,0,.36.8,7.334,7.334,0,0,1,.764.548,3.7,3.7,0,0,1,.27-.457.359.359,0,0,1,.263-.148c.069.012.121.151.174.239.028.047.025.12.063.15.173.143.355.274.583.446,0-.362.011-.671,0-.98,0-.048-.073-.1-.122-.141a2.306,2.306,0,0,1-.395-.293c-.056-.065-.018-.21-.023-.317.1,0,.25-.056.3-.006a1.207,1.207,0,0,0,1.1.253,2.262,2.262,0,0,1,2.5,1.713c.107.431.187.869.28,1.3.031.15.027.3-.15.334-.193.042-.256-.1-.288-.257-.076-.367-.154-.733-.231-1.1a1.854,1.854,0,0,0-2.263-1.522c-.068.012-.136.029-.239.051-.006.361-.012.732-.018,1.1,0,.087,0,.174,0,.26-.018.267-.188.349-.407.19-.308-.224-.608-.458-.985-.743a2.221,2.221,0,0,0-.045.5c.056.353.138.7.214,1.05.034.159,0,.309-.17.311a.353.353,0,0,1-.254-.217c-.1-.343-.145-.7-.236-1.044a2.328,2.328,0,0,0-.242-.442c-.223.4-.391.721-.581,1.029a.409.409,0,0,1-.264.2c-.071,0-.179-.118-.224-.207-.19-.39-.365-.787-.542-1.178a1.869,1.869,0,0,0-1.715,2.31c.079.385.159.768.241,1.152.034.155.016.293-.158.331s-.245-.087-.276-.24c-.079-.384-.162-.767-.241-1.151a2.293,2.293,0,0,1,1.735-2.79.929.929,0,0,0,.766-.951.24.24,0,0,0-.191-.26,2.982,2.982,0,0,1-1.99-1.954.375.375,0,0,0-.222-.194.914.914,0,0,1-.683-.716c-.187-.878-.374-1.757-.554-2.636a.97.97,0,0,1,.454-1.055.543.543,0,0,0,.194-.251,2.432,2.432,0,0,1,1.864-1.654c1.021-.223,2.046-.433,3.07-.647.353-.074.442.015.388.379-.033.222-.065.443-.1.678m-2.148,2.336h0c-.46.1-.922.188-1.38.293a1.094,1.094,0,0,0-.874,1.329c.105.556.227,1.11.348,1.662a3.3,3.3,0,0,0,.159.551,2.532,2.532,0,0,0,4.825-1.447c-.105-.6-.236-1.2-.373-1.791a1.1,1.1,0,0,0-1.376-.876c-.443.088-.886.185-1.329.279m.372,7.992.4-.726-.71-.508c-.032.17-.1.3-.065.391.092.268.225.521.371.842" transform="translate(43.247 20.776)"/>
        <path id="Trazado_233" data-name="Trazado 233" d="M207.983,101.114c.443-.093.886-.191,1.329-.28a1.106,1.106,0,0,1,1.376.877c.137.594.268,1.19.373,1.791a2.532,2.532,0,0,1-4.824,1.447,3.2,3.2,0,0,1-.16-.551c-.121-.552-.242-1.106-.348-1.662a1.094,1.094,0,0,1,.873-1.329c.458-.105.919-.2,1.38-.293h0" transform="translate(43.504 21.319)" fill="#ffc09d"/>
        <path id="Trazado_234" data-name="Trazado 234" d="M207.958,107.872c-.145-.321-.279-.574-.371-.842-.033-.093.034-.222.065-.391l.71.508-.4.726" transform="translate(43.9 22.553)" fill="#00cabc"/>
      </g>
    </g>
  </g>
</svg>
