<svg id="Persona2" xmlns="http://www.w3.org/2000/svg" xmlns:xlink="http://www.w3.org/1999/xlink" width="370.333" height="598.573" viewBox="0 0 370.333 598.573">
  <defs>
    <clipPath id="clip-path">
      <rect id="Rect치ngulo_88" data-name="Rect치ngulo 88" width="370.334" height="598.573" fill="none"/>
    </clipPath>
    <clipPath id="clip-path-3">
      <rect id="Rect치ngulo_86" data-name="Rect치ngulo 86" width="29.482" height="15.818" fill="none"/>
    </clipPath>
  </defs>
  <g id="Grupo_71" data-name="Grupo 71" clip-path="url(#clip-path)">
    <g id="Grupo_70" data-name="Grupo 70">
      <g id="Grupo_69" data-name="Grupo 69" clip-path="url(#clip-path)">
        <path id="Trazado_235" data-name="Trazado 235" d="M117.846,27.421c.927-5.972,6.312-10.565,12.184-12.006s12.093-.236,17.787,1.795c6.39,2.278,12.5,5.667,17.113,10.647s7.593,11.67,7.233,18.445c-.34,6.35-3.508,12.72-1.739,18.83,1.343,4.64,5.271,8.023,9.208,10.823s8.2,5.423,10.85,9.459,3.085,10.049-.494,13.292c-3.185,2.887-8.9,3.216-10.24,7.3-.83,2.533.581,5.18,1.359,7.727,1.644,5.4.369,11.412-2.6,16.2s-7.5,8.452-12.413,11.228c-8.608,4.86-19.342,7.133-28.432,3.25a27.314,27.314,0,0,1-11.205-9.2c-4.782-6.588-6.919-14.8-7.42-22.929s.54-16.261,1.577-24.339" transform="translate(144.265 18.097)" fill="#1a2e35"/>
        <path id="Trazado_236" data-name="Trazado 236" d="M116.427,116.376a25.038,25.038,0,0,0,31.69-24.7c-.165-7.255-3.445-14.651-1.19-21.548,1.548-4.738,5.518-8.427,6.85-13.232,1.986-7.169-2.347-14.413-6.486-20.592-2.656-3.966-5.367-7.994-9.068-11.007s-8.608-4.913-13.276-3.921" transform="translate(142.528 25.845)" fill="#1a2e35"/>
        <path id="Trazado_237" data-name="Trazado 237" d="M94.869,21.517c.4,5.478-3.214,10.369-6.857,14.477s-7.7,8.392-8.487,13.828c-1.395,9.631,8.036,18.574,6.09,28.111-1.043,5.111-5.227,9.215-5.972,14.379-.723,4.993,1.955,9.88,5.271,13.683s7.36,6.971,10.294,11.074c0,0,6.108,10.022,24.913,3.608" transform="translate(97.18 26.341)" fill="#1a2e35"/>
        <path id="Trazado_238" data-name="Trazado 238" d="M170.622,44.2c.142-4.967-4.453-8.806-9.077-10.625s-9.762-2.5-13.886-5.28c-3.65-2.456-6.1-6.288-9.19-9.419A30.587,30.587,0,0,0,87.026,32.914c-1.775,7.073-.563,15.436,5.013,20.138C98.51,58.508,108.1,57.3,116.4,55.6s17.678-3.372,24.6,1.5c4.175,2.936,6.57,7.713,9.121,12.135s5.756,8.935,10.583,10.6,11.381-1.208,11.568-6.31" transform="translate(105.608 12.028)" fill="#1a2e35"/>
        <path id="Trazado_239" data-name="Trazado 239" d="M153.671,31.982a8.313,8.313,0,0,1,7.418,8.447l-4.958,112.252c-.209,13.256-19.586,20.7-33.781,20.376-14.333-.334-14.8-7.364-14.975-19.978-.3-21.072-.274-28.981-.282-28.861,0,0-18.1-3.047-21.806-26.686-1.839-11.757-1.208-31.025-.18-46.775.925-14.175,10.356-31.548,24.479-30.022Z" transform="translate(102.971 25.271)" fill="#ddb3ac"/>
        <path id="Trazado_240" data-name="Trazado 240" d="M86.441,42.681a3.032,3.032,0,0,0,2.916,3.065,2.9,2.9,0,0,0,3.129-2.727,3.032,3.032,0,0,0-2.911-3.065,2.9,2.9,0,0,0-3.134,2.727" transform="translate(105.817 48.905)" fill="#1a2e35"/>
        <path id="Trazado_241" data-name="Trazado 241" d="M86.117,39.292c.376.4,2.673-1.3,5.936-1.281,3.258-.031,5.647,1.65,6,1.252.173-.176-.209-.89-1.25-1.65A8.3,8.3,0,0,0,92,36.12a7.991,7.991,0,0,0-4.726,1.512c-1.005.767-1.346,1.481-1.161,1.659" transform="translate(105.365 44.218)" fill="#1a2e35"/>
        <path id="Trazado_242" data-name="Trazado 242" d="M100.06,42.94A3.031,3.031,0,0,0,102.976,46a2.9,2.9,0,0,0,3.129-2.727,3.032,3.032,0,0,0-2.914-3.065,2.9,2.9,0,0,0-3.132,2.727" transform="translate(122.49 49.222)" fill="#1a2e35"/>
        <path id="Trazado_243" data-name="Trazado 243" d="M100.867,40.02c.376.4,2.678-1.3,5.936-1.283,3.258-.029,5.649,1.653,6,1.254.173-.176-.2-.89-1.248-1.653a8.342,8.342,0,0,0-4.8-1.492,8,8,0,0,0-4.726,1.515c-1,.767-1.343,1.481-1.161,1.659" transform="translate(123.422 45.106)" fill="#1a2e35"/>
        <path id="Trazado_244" data-name="Trazado 244" d="M100.066,64.816c.016-.185-2.011-.54-5.3-.968-.832-.089-1.619-.256-1.759-.823a4.25,4.25,0,0,1,.563-2.469q1.181-3.019,2.476-6.334c3.441-9.021,5.934-16.439,5.569-16.575s-3.45,7.066-6.888,16.088q-1.244,3.336-2.375,6.375a4.825,4.825,0,0,0-.438,3.267A2.1,2.1,0,0,0,93.283,64.6a5.677,5.677,0,0,0,1.415.2c3.305.187,5.356.2,5.369.02" transform="translate(112.334 46.086)" fill="#1a2e35"/>
        <path id="Trazado_245" data-name="Trazado 245" d="M94.445,71.819a60.115,60.115,0,0,0,31.668-8.372s-8.02,16.23-31.668,13.968Z" transform="translate(115.618 77.671)" fill="#724940"/>
        <path id="Trazado_246" data-name="Trazado 246" d="M100.208,36.044c.32.887,3.576.474,7.4.943,3.835.394,6.917,1.519,7.427.727.229-.38-.309-1.217-1.555-2.077a12.973,12.973,0,0,0-11.3-1.272c-1.406.563-2.115,1.257-1.977,1.679" transform="translate(122.653 41.148)" fill="#1a2e35"/>
        <path id="Trazado_247" data-name="Trazado 247" d="M86.361,36.146c.649.743,3.2-.02,6.261-.051,3.063-.122,5.658.512,6.257-.262.262-.376-.145-1.119-1.277-1.822a9.547,9.547,0,0,0-5.089-1.226,9.418,9.418,0,0,0-5,1.479c-1.083.758-1.441,1.519-1.154,1.882" transform="translate(105.606 40.132)" fill="#1a2e35"/>
        <path id="Trazado_248" data-name="Trazado 248" d="M159.159,112.5a20.982,20.982,0,0,1-24.964-23.2c.734-5.805,3.863-11.71,1.853-17.2-2.662-7.262-12.842-9.5-15.545-16.744-1.57-4.213-.16-9.141-1.939-13.269-1.675-3.881-5.758-6.117-9.733-7.553S100.592,32.1,97.256,29.5s-5.42-7.491-3.267-11.128a223.9,223.9,0,0,1,51.639,12.547c3.857,1.439,7.909,3.172,10.189,6.6,2.413,3.628,2.3,8.314,2.093,12.665q-1.485,31.831-2.969,63.658" transform="translate(113.984 22.497)" fill="#1a2e35"/>
        <path id="Trazado_249" data-name="Trazado 249" d="M171.781,38.541a1.84,1.84,0,0,1,.394.968,3.613,3.613,0,0,1-.912,2.84,5.929,5.929,0,0,1-4.228,2.137,13.66,13.66,0,0,1-5.99-1.793,16.654,16.654,0,0,0-6.895-2.035,35.987,35.987,0,0,0-8.343.758,55.988,55.988,0,0,1-9.435,1.217,13.587,13.587,0,0,1-9.68-3.532c-2.651-2.513-4.159-5.712-5.572-8.641a43.335,43.335,0,0,0-4.511-8.109,13.242,13.242,0,0,0-13.639-4.976,13.827,13.827,0,0,0-8.227,6.085,32.313,32.313,0,0,0-1.73,3.5,2.957,2.957,0,0,1,.178-1.016,12.835,12.835,0,0,1,1.143-2.729,13.957,13.957,0,0,1,8.421-6.681,13.778,13.778,0,0,1,7.591.151A14.16,14.16,0,0,1,117.5,21.65a43.413,43.413,0,0,1,4.706,8.29c1.415,2.916,2.9,5.979,5.325,8.265a12.432,12.432,0,0,0,8.843,3.227,57.213,57.213,0,0,0,9.239-1.13,36.121,36.121,0,0,1,8.61-.658,17.315,17.315,0,0,1,7.2,2.271,13.347,13.347,0,0,0,5.589,1.886,5.5,5.5,0,0,0,3.886-1.766,3.467,3.467,0,0,0,1.025-2.5c-.029-.645-.218-.965-.147-.992" transform="translate(113.851 19.677)" fill="#375a64"/>
        <path id="Trazado_250" data-name="Trazado 250" d="M143.57,35.292c-.307.26-3.919-5.765-11.19-9.862-7.209-4.217-14.23-4.3-14.161-4.693,0-.138,1.728-.325,4.5.053a29.355,29.355,0,0,1,18.536,10.643c1.724,2.2,2.435,3.79,2.315,3.859" transform="translate(144.72 25.177)" fill="#375a64"/>
        <path id="Trazado_251" data-name="Trazado 251" d="M149.51,28.417c.036.022-.078.258-.331.7a7.07,7.07,0,0,1-1.521,1.6,10.323,10.323,0,0,1-7.82,1.739c-3.5-.529-7.08-2.929-10.227-6.1-3.2-3.114-6.165-7.126-10.514-9.6a18.57,18.57,0,0,0-13.563-1.726,17.883,17.883,0,0,0-9.471,6.134,19.657,19.657,0,0,0-3.605,6.877c-.512,1.784-.612,2.827-.718,2.816-.04,0-.051-.265-.031-.765a12.492,12.492,0,0,1,.3-2.164,18.74,18.74,0,0,1,13.247-13.97,19.412,19.412,0,0,1,14.435,1.748c4.655,2.665,7.611,6.786,10.707,9.862,3.038,3.145,6.379,5.451,9.591,6.043a10.187,10.187,0,0,0,7.4-1.281,15,15,0,0,0,2.124-1.919" transform="translate(112.256 16.278)" fill="#375a64"/>
        <path id="Trazado_252" data-name="Trazado 252" d="M117.2,111.257a3.186,3.186,0,0,0,1.052.289,18.389,18.389,0,0,0,3.1.314,24.183,24.183,0,0,0,11.177-2.52A25.845,25.845,0,0,0,144.447,97.3a29.774,29.774,0,0,0,2.017-20.592c-.847-3.594-1.917-7.008-2.077-10.354a16.432,16.432,0,0,1,2.338-9.181c1.484-2.751,3.032-5.5,3.659-8.374a19.654,19.654,0,0,0,.229-8.014,21.1,21.1,0,0,0-4.88-10.356,15.423,15.423,0,0,0-2.269-2.149c-.574-.427-.887-.629-.916-.592-.089.107,1.119,1,2.765,3.089a21.656,21.656,0,0,1,4.322,10.162,18.991,18.991,0,0,1-.38,7.582c-.636,2.676-2.115,5.236-3.672,8.045a24.39,24.39,0,0,0-1.988,4.6,16.413,16.413,0,0,0-.578,5.256c.158,3.592,1.257,7.08,2.084,10.609a28.834,28.834,0,0,1-1.817,19.709,25.262,25.262,0,0,1-21.926,14.577c-2.658.082-4.135-.185-4.153-.056" transform="translate(143.478 33.889)" fill="#375a64"/>
        <path id="Trazado_253" data-name="Trazado 253" d="M149.155,19.676c.089-.122-1.286-1.292-4.035-2.086a15.831,15.831,0,0,0-18.708,8.583c-1.192,2.6-1.2,4.406-1.05,4.419.227.051.589-1.637,1.931-3.963a16.331,16.331,0,0,1,17.6-8.074c2.638.5,4.153,1.328,4.262,1.121" transform="translate(153.385 20.811)" fill="#375a64"/>
        <path id="Trazado_254" data-name="Trazado 254" d="M128.407,31.659a14.478,14.478,0,0,0-.1-1.537,7.887,7.887,0,0,1,1.041-4.15,11.389,11.389,0,0,1,4.9-4.6,10.234,10.234,0,0,1,8.643-.22,15.953,15.953,0,0,1,7.729,7.4,23.821,23.821,0,0,1,2.4,12.246A81.338,81.338,0,0,1,150.809,54.8c-1.023,4.846-2.089,10-1.813,15.4.3,5.42,2.122,10.411,4,15a130.266,130.266,0,0,1,5.138,13.276,29.1,29.1,0,0,1,1.07,12.549,36.864,36.864,0,0,1-3.278,10.578,84.427,84.427,0,0,1-8.665,13.723c-1.081,1.443-1.962,2.618-2.665,3.554a6.469,6.469,0,0,0-.867,1.29,6.549,6.549,0,0,0,1.088-1.112c.676-.758,1.655-1.895,2.876-3.4a75.984,75.984,0,0,0,9.126-13.625,37.237,37.237,0,0,0,3.539-10.845,30.076,30.076,0,0,0-.979-13.069,125.785,125.785,0,0,0-5.109-13.443c-1.853-4.564-3.594-9.408-3.875-14.56-.429-10.371,3.774-19.964,3.919-29.286A24.83,24.83,0,0,0,151.643,28a16.889,16.889,0,0,0-8.383-7.767,11.047,11.047,0,0,0-9.368.44,11.774,11.774,0,0,0-5.029,5.051,7.735,7.735,0,0,0-.836,4.417,5.015,5.015,0,0,0,.38,1.519" transform="translate(156.661 23.745)" fill="#375a64"/>
        <path id="Trazado_255" data-name="Trazado 255" d="M96.319,55.589A15.677,15.677,0,0,0,98.35,59.57a5.3,5.3,0,0,0,3.759,2.182,4.745,4.745,0,0,0,4.012-2.191A7.572,7.572,0,0,0,107.24,55c-.064-1.439-.723-3.156-2.153-3.325a3.577,3.577,0,0,0-1.737.385l-7.516,3.049" transform="translate(117.319 63.243)" fill="#724940"/>
        <path id="Trazado_256" data-name="Trazado 256" d="M100.107,62.2c.038-.236,1.688.434,4.008-.5a5.723,5.723,0,0,0,3.032-2.754,6.031,6.031,0,0,0,.1-4.915,5.348,5.348,0,0,0-.654-1.123c-.3-.314-.245-.3-.567-.251-.307.082-.8.314-1.206.472-.418.171-.83.338-1.234.5-1.608.649-3.065,1.219-4.295,1.677-2.462.921-4.021,1.4-4.095,1.234s1.355-.963,3.721-2.106c1.183-.572,2.6-1.23,4.184-1.944.4-.178.8-.358,1.217-.545a13.851,13.851,0,0,1,1.372-.565,1.752,1.752,0,0,1,1.114.033,2.053,2.053,0,0,1,.83.654,6.5,6.5,0,0,1,.845,1.426,7.049,7.049,0,0,1-.229,6.014A6.438,6.438,0,0,1,104.43,62.6a6.079,6.079,0,0,1-3.256.127c-.747-.2-1.1-.452-1.068-.527" transform="translate(116.531 62.816)" fill="#1a2e35"/>
        <path id="Trazado_257" data-name="Trazado 257" d="M135.027,186.1c.058.26.1.574.158.847-.1-.925-.209-1.717-.158-.847" transform="translate(165.282 227.366)" fill="#1a2e35"/>
        <path id="Trazado_258" data-name="Trazado 258" d="M144.974,199.636l3.339,29.477,26.97,24.637s2.282-3.7,1.05-6.777,6.159,4,6.159,4V267.91s4.617,1.848,6.159-2.155,2.462-18.474,2.462-18.474l-2.155-1.539a7.868,7.868,0,0,0,2.155-6.775,24.073,24.073,0,0,0,1.539-12.315,36.9,36.9,0,0,0-2.771-10.778L167.79,191.22Z" transform="translate(177.475 234.089)" fill="#ddb3ac"/>
        <path id="Trazado_259" data-name="Trazado 259" d="M151.07,207.764c-.238.178,3.043,4.869,7.958,9.907,4.9,5.056,9.5,8.465,9.686,8.232.209-.256-4.021-4.019-8.872-9.023-4.864-4.984-8.512-9.319-8.772-9.115" transform="translate(184.922 254.333)" fill="#724940"/>
        <path id="Trazado_260" data-name="Trazado 260" d="M159.585,210.19c-.22.225,2.656,3.536,6.419,7.4s7,6.819,7.233,6.606-2.645-3.525-6.421-7.4-7.011-6.83-7.231-6.606" transform="translate(195.347 257.296)" fill="#724940"/>
        <path id="Trazado_261" data-name="Trazado 261" d="M161.223,207.156c-.214.251,2.362,2.693,5.1,6.065,2.758,3.356,4.637,6.366,4.927,6.208.265-.131-1.21-3.47-4.048-6.926-2.818-3.467-5.8-5.58-5.979-5.347" transform="translate(197.351 253.575)" fill="#724940"/>
        <path id="Trazado_262" data-name="Trazado 262" d="M162.624,204.024c-.216.245,1.746,2.269,4,4.882s3.984,4.84,4.257,4.664c.258-.16-1.074-2.727-3.4-5.4s-4.664-4.373-4.858-4.141" transform="translate(199.062 249.737)" fill="#724940"/>
        <path id="Trazado_263" data-name="Trazado 263" d="M83.923,50.1c-.145.316-4.557-1.4-9.86-3.826s-9.484-4.649-9.342-4.96,4.555,1.4,9.86,3.83,9.484,4.646,9.342,4.955" transform="translate(79.227 50.53)" fill="#375a64"/>
        <path id="Trazado_264" data-name="Trazado 264" d="M84.7,68.958c-2.222-.089-7.618,3.129-11.951,9.095-.073.091-.151.169-.222.262-3.085,4.01-5.981-7.435-6.5-11.695a4.464,4.464,0,0,0-6.034-3.463L45.673,69.852l-4.179.142a4.253,4.253,0,0,0-2.727,5.049l6.842,22.6.149,6.17L74.421,107.7l.44-15.454c.429-1.786,1-3.892,1.762-6.3a19.613,19.613,0,0,1,3.154-6.032,36.925,36.925,0,0,1,5.151-5.654c.153-.1.325-.238.469-.316a2.669,2.669,0,0,0,.818-.71A2.492,2.492,0,0,0,84.7,68.958" transform="translate(47.291 76.962)" fill="#ddb3ac"/>
        <path id="Trazado_265" data-name="Trazado 265" d="M131.425,76.275S114.7,73.07,90.662,51.238,54.79-.159,51.93.068,36.4-5.157,14.09,47.25s-12.6,64.15-7.876,63.919,36.608-10.1,56.741-8.385,46.227,11.441,46.227,11.441Z" transform="translate(0 0.001)" fill="#8bc53f"/>
        <path id="Trazado_266" data-name="Trazado 266" d="M109.41,66.757,104.043,77.7l-2.4,4.9a14.083,14.083,0,0,1-18.169,6.753L47.486,77.951,66.894,29.989l36.139,17.96a14.082,14.082,0,0,1,6.377,18.808" transform="translate(58.132 36.712)" fill="#1a2e35"/>
        <path id="Trazado_267" data-name="Trazado 267" d="M101.324,58.5,90.6,81.078l-5.725-1.415L48.649,110.88l-10.939-20S59.356,80.825,63.188,72.9s-.9-9.571-.9-9.571l9.982-12.013Z" transform="translate(46.164 62.815)" fill="#1a2e35"/>
        <path id="Trazado_268" data-name="Trazado 268" d="M14.354,47.45C2.492,75.831-2.068,100.953,4.169,103.557s20.905-18.289,32.767-46.67S53.357,3.387,47.12.78,26.215,19.069,14.354,47.45" transform="translate(1.685 0.686)" fill="#1a2e35"/>
        <path id="Trazado_269" data-name="Trazado 269" d="M82.264,61.353l-9.744-2.76,5.654-11.532,7.371,4.3Z" transform="translate(88.778 57.611)" fill="#375a64"/>
        <g id="Grupo_68" data-name="Grupo 68" transform="translate(115.008 118.244)" opacity="0.3">
          <g id="Grupo_67" data-name="Grupo 67">
            <g id="Grupo_66" data-name="Grupo 66" clip-path="url(#clip-path-3)">
              <path id="Trazado_270" data-name="Trazado 270" d="M51.708,53.163,78.134,68.98l3.056-6.435Z" transform="translate(-51.708 -53.162)"/>
            </g>
          </g>
        </g>
        <path id="Trazado_271" data-name="Trazado 271" d="M83.823,53.245c-.133.316-5.007-1.421-10.883-3.879S62.4,44.657,62.534,44.341s5,1.421,10.885,3.879,10.536,4.709,10.4,5.024" transform="translate(76.549 54.237)" fill="#375a64"/>
        <path id="Trazado_272" data-name="Trazado 272" d="M81.191,55.974c-.047.167-1.2-.067-3.047-.581-.923-.256-2.017-.583-3.227-.963-1.2-.4-2.456-.988-3.8-1.55-5.354-2.3-9.457-4.591-9.333-4.878.147-.34,4.513,1.455,9.818,3.737,1.33.556,2.567,1.177,3.728,1.624s2.213.841,3.087,1.2c1.748.718,2.816,1.248,2.771,1.412" transform="translate(75.636 58.714)" fill="#375a64"/>
        <path id="Trazado_273" data-name="Trazado 273" d="M31.971,19.524s-14.7-8.55-22.055,11.2,7.943,22.524,7.943,22.524A130.122,130.122,0,0,0,31.971,19.524" transform="translate(9.692 21.647)" fill="#fafafa"/>
        <path id="Trazado_274" data-name="Trazado 274" d="M46.8,7.855a21.787,21.787,0,0,1-.46,3.746C45.951,14,45.4,17.481,44.6,21.758c-.552,2.111-1.154,4.417-1.8,6.888q-.49,1.858-1.016,3.837c-.173.661-.351,1.328-.532,2.006-.2.672-.46,1.335-.694,2.015-.963,2.716-1.975,5.565-3.025,8.516q-.394,1.108-.8,2.233c-.26.754-.638,1.466-.954,2.211q-1,2.215-2.022,4.488T31.73,58.442c-.349.73-.634,1.486-1.028,2.18s-.767,1.39-1.145,2.077c-1.519,2.74-2.987,5.385-4.384,7.9-.358.625-.681,1.261-1.054,1.853q-.584.877-1.154,1.73-1.138,1.7-2.209,3.307c-1.428,2.122-2.758,4.1-3.977,5.914-2.669,3.425-4.911,6.132-6.45,8.012a22.016,22.016,0,0,1-2.507,2.827,22.137,22.137,0,0,1,2.126-3.125l6.134-8.25,3.823-5.956q1.031-1.6,2.135-3.31.554-.851,1.119-1.728c.365-.592.678-1.228,1.025-1.853,1.368-2.516,2.8-5.153,4.293-7.887l1.13-2.068c.387-.689.667-1.441,1.012-2.166q.988-2.2,2.006-4.459t2.015-4.455c.316-.738.694-1.446.954-2.193s.536-1.481.8-2.213c1.063-2.923,2.093-5.745,3.072-8.434.238-.674.507-1.328.712-2,.187-.669.371-1.332.556-1.984q.55-1.958,1.068-3.8c.694-2.444,1.343-4.726,1.937-6.813.885-4.195,1.608-7.609,2.122-10.04A22.233,22.233,0,0,1,46.8,7.855" transform="translate(9.571 9.616)" fill="#1a2e35"/>
        <path id="Trazado_275" data-name="Trazado 275" d="M47.035,61.19a3.271,3.271,0,0,0-1.717,4.1c1.1,3.118,2.878,8.007,4.21,10.97a8.25,8.25,0,0,0,1.635,2.64,2.753,2.753,0,0,0,2.785.767,2.984,2.984,0,0,0,1.664-2.636,8.752,8.752,0,0,0-.6-3.258c-.939-2.914-2.558-7.273-3.941-10.818a3.042,3.042,0,0,0-4.039-1.762" transform="translate(55.242 74.607)" fill="#ddb3ac"/>
        <path id="Trazado_276" data-name="Trazado 276" d="M45.08,63.774a3.272,3.272,0,0,0-1.719,4.1c1.1,3.116,2.878,8,4.21,10.967a8.25,8.25,0,0,0,1.635,2.64,2.753,2.753,0,0,0,2.785.767,2.981,2.981,0,0,0,1.664-2.636,8.752,8.752,0,0,0-.6-3.258c-.939-2.914-2.558-7.273-3.941-10.818a3.041,3.041,0,0,0-4.037-1.762" transform="translate(52.846 77.771)" fill="#ddb3ac"/>
        <path id="Trazado_277" data-name="Trazado 277" d="M43.092,65.4a2.792,2.792,0,0,0-1.555,3.548c1,2.7,2.607,6.933,3.81,9.5a7.162,7.162,0,0,0,1.479,2.286,2.29,2.29,0,0,0,4.026-1.619,7.291,7.291,0,0,0-.538-2.82c-.85-2.524-2.315-6.3-3.568-9.371A2.793,2.793,0,0,0,43.092,65.4" transform="translate(50.637 79.796)" fill="#ddb3ac"/>
        <path id="Trazado_278" data-name="Trazado 278" d="M40.614,65.948a2.8,2.8,0,0,0-1.561,3.565c1,2.711,2.618,6.966,3.828,9.544a7.133,7.133,0,0,0,1.486,2.3,2.3,2.3,0,0,0,4.046-1.626,7.362,7.362,0,0,0-.543-2.834c-.854-2.536-2.324-6.328-3.585-9.413a2.8,2.8,0,0,0-3.67-1.532" transform="translate(47.595 80.47)" fill="#ddb3ac"/>
        <path id="Trazado_279" data-name="Trazado 279" d="M50.357,75.329c-.3.122-1.6-2.32-2.909-5.458s-2.137-5.783-1.842-5.905,1.6,2.32,2.909,5.458,2.137,5.783,1.842,5.905" transform="translate(55.757 78.3)" fill="#724940"/>
        <path id="Trazado_280" data-name="Trazado 280" d="M48.445,78.388c-.3.118-1.695-2.7-3.118-6.294s-2.338-6.606-2.044-6.73,1.69,2.7,3.118,6.3,2.342,6.615,2.044,6.728" transform="translate(52.918 80.012)" fill="#724940"/>
        <path id="Trazado_281" data-name="Trazado 281" d="M46.019,77.815c-.276.147-1.817-2.22-3.145-5.418s-1.935-5.956-1.635-6.05,1.388,2.46,2.7,5.6,2.367,5.714,2.077,5.865" transform="translate(50.391 81.218)" fill="#724940"/>
        <path id="Trazado_282" data-name="Trazado 282" d="M87.5,195.471c-.14.049-.954-1.866-1.948-5.076a91.273,91.273,0,0,1-3.917-25.89c0-3.361.211-5.431.358-5.429.173,0,.251,2.073.46,5.4s.594,7.911,1.352,12.938,1.748,9.52,2.536,12.758,1.323,5.242,1.159,5.294" transform="translate(99.934 194.74)" fill="#375a64"/>
        <path id="Trazado_283" data-name="Trazado 283" d="M88.3,160.115c-.027-.056.36-.351,1.2-.538a5.811,5.811,0,0,1,6.75,4.878,6.3,6.3,0,0,1-2.98,5.881,5.8,5.8,0,0,1-6.539-.6,5.635,5.635,0,0,1-2.2-4.911,8.769,8.769,0,0,1,1.043-3.425c.394-.738.683-1.1.75-1.065s-.078.472-.336,1.243a10.519,10.519,0,0,0-.638,3.276,4.874,4.874,0,0,0,2.037,4.037,4.8,4.8,0,0,0,5.294.449,5.343,5.343,0,0,0,2.511-4.791,4.792,4.792,0,0,0-2.493-3.734c-2.482-1.4-4.391-.478-4.4-.7" transform="translate(103.449 195.228)" fill="#375a64"/>
        <path id="Trazado_284" data-name="Trazado 284" d="M135.89,177.894a5.246,5.246,0,0,1-1.639.678,25.506,25.506,0,0,1-4.717,1.065,34.563,34.563,0,0,1-7.186.254,37.154,37.154,0,0,1-16.688-5.3,34.415,34.415,0,0,1-5.725-4.35,25.24,25.24,0,0,1-3.238-3.59c-.674-.921-1.014-1.45-.95-1.5.171-.136,1.693,1.873,4.733,4.48a39.043,39.043,0,0,0,5.725,4.041,39.436,39.436,0,0,0,16.23,5.149,39.006,39.006,0,0,0,7.006,0c3.988-.374,6.388-1.139,6.45-.93" transform="translate(117.2 202.173)" fill="#375a64"/>
        <path id="Trazado_285" data-name="Trazado 285" d="M175.648,212.006a9.012,9.012,0,0,1-.914,1.283q-1.041,1.328-2.771,3.541c-2.329,3.138-5.7,7.673-9.746,13.37-8.109,11.381-19.061,27.284-31.043,44.926-11.922,17.636-22.709,33.6-30.589,45.255l-9.29,13.706-2.562,3.7a8.791,8.791,0,0,1-.952,1.252,8.906,8.906,0,0,1,.776-1.368l2.4-3.81c2.189-3.372,5.251-8.092,9.015-13.888,7.665-11.693,18.347-27.785,30.34-45.436s23.038-33.49,31.31-44.771c4.126-5.645,7.591-10.122,10.024-13.189l2.929-3.427a8.824,8.824,0,0,1,1.074-1.145" transform="translate(107.455 259.533)" fill="#375a64"/>
        <path id="Trazado_286" data-name="Trazado 286" d="M120.006,107.039c.187,0,.178-2.34.807-6.021A41.815,41.815,0,0,1,125.7,87.413c2.747-4.976,6.524-8.674,9.92-10.1,3.41-1.468,5.823-.689,5.827-.927a3.361,3.361,0,0,0-1.608-.438,9.913,9.913,0,0,0-4.52.623c-3.7,1.312-7.8,5.182-10.6,10.28a37.4,37.4,0,0,0-4.7,14.052c-.436,3.792-.138,6.148-.013,6.139" transform="translate(146.645 92.904)" fill="#1a2e35"/>
        <path id="Trazado_287" data-name="Trazado 287" d="M165.743,74.014l-48.892,7.578-8.71,7.542S77.367,149.053,76.8,161.146c-.625,13.37,6.55,36.316,6.55,36.316L76.313,250.4c-1.041,6.079,2.909,11.915,5.563,11.915l84.459-11.326c11.014-2.164,15.534-7.918,14.853-14.293l-1.257-11.8L216,104.087c2.135,7.142-1.2-19.253-17.306-25.171-6.822-2.507-22.589-7.071-32.954-4.9" transform="translate(93.212 89.911)" fill="#b7b6dd"/>
        <path id="Trazado_288" data-name="Trazado 288" d="M159.09,78.9s-15.049,11.6-29.295,24.789-52.237,39.57-52.237,39.57L74.942,88.072,46.279,84.193S32.269,153.009,41.159,172s19.515,19.8,49.063,10.3,37.989-13.719,37.989-13.719Z" transform="translate(46.77 96.587)" fill="#b7b6dd"/>
        <path id="Trazado_289" data-name="Trazado 289" d="M105.05,82.583a3.947,3.947,0,0,0-.678.854c-.474.7-1.054,1.546-1.753,2.573-1.5,2.249-3.641,5.523-6.185,9.637-5.029,8.221-11.915,19.86-16.406,34.032S75.369,157.718,77.5,167.2a51.161,51.161,0,0,0,3.541,10.925,31.173,31.173,0,0,0,1.41,2.785,3.764,3.764,0,0,0,.578.923c.091-.044-.569-1.39-1.584-3.879a57.584,57.584,0,0,1-3.158-10.912c-1.9-9.393-1.6-23.016,2.825-37.028s11.163-25.64,16.01-33.952c2.411-4.032,4.395-7.349,5.872-9.818.627-1.072,1.148-1.96,1.572-2.687a4.023,4.023,0,0,0,.485-.976" transform="translate(93.254 101.095)" fill="#1a2e35"/>
        <path id="Trazado_290" data-name="Trazado 290" d="M135.957,75.914S120.735,95.852,119.9,114.141s27.315,127.953,27.315,127.953L171.9,342.2l30.72-11.332s-7.149-71.272-8.508-80.122c-2.834-18.439-14.989-54.379-16.65-75.162s-9.364-60.8-13.172-70.169-3.952-30.024-28.332-29.5" transform="translate(146.761 92.921)" fill="#b7b6dd"/>
        <path id="Trazado_291" data-name="Trazado 291" d="M120.471,97.639a3.866,3.866,0,0,0,.047,1.074c.1.83.216,1.837.358,3.054.36,2.645.961,6.459,1.8,11.154,1.677,9.391,4.362,22.293,7.562,36.486,3.223,14.193,6.343,26.99,8.732,36.223,1.194,4.615,2.2,8.341,2.929,10.907l.876,2.943a3.807,3.807,0,0,0,.38,1.008,3.847,3.847,0,0,0-.16-1.065c-.18-.812-.4-1.8-.667-3-.649-2.767-1.521-6.479-2.578-10.987-2.189-9.446-5.14-22.193-8.405-36.283-3.2-14.184-6-27.046-7.883-36.385-.885-4.544-1.613-8.285-2.155-11.074-.227-1.2-.414-2.2-.567-3.016a3.867,3.867,0,0,0-.274-1.041" transform="translate(147.454 119.528)" fill="#1a2e35"/>
        <path id="Trazado_292" data-name="Trazado 292" d="M127.88,223.6c-4.846-4.862-5.863-12.242-6.621-19.064q-3.627-32.555-7.251-65.109c-1.508-13.532-2.931-27.724,2.173-40.347.767-1.9,1.9-3.926,3.863-4.48a5.007,5.007,0,0,1,5.078,2.1c1.177,1.55,4.473,3.788,4.953,5.674,4.929,19.348,7.068,38.4,12,57.751,1.3,5.113,3,4.918,1.871,10.073-1.637,7.484-8.65,28.972-8.65,28.972s1,7.8,1.3,12.362A11.826,11.826,0,0,1,127.88,223.6" transform="translate(137.851 115.639)" fill="#a2a2cc"/>
        <path id="Trazado_293" data-name="Trazado 293" d="M121.512,105.757a6.977,6.977,0,0,0,1.67,1.21,38,38,0,0,0,4.962,2.658,17.75,17.75,0,0,0,8.263,1.67c3.283-.176,6.579-1.786,9.591-3.777,3.034-2,5.741-4.084,8.519-5.358a12.494,12.494,0,0,1,7.76-1.266,8.759,8.759,0,0,1,4.74,2.38c.885.927,1.181,1.613,1.274,1.566a3.692,3.692,0,0,0-.943-1.859,8.681,8.681,0,0,0-4.909-2.874,12.969,12.969,0,0,0-8.356,1.1c-2.94,1.286-5.732,3.4-8.7,5.358s-6.041,3.47-9.05,3.683a17.723,17.723,0,0,1-7.88-1.37c-4.322-1.755-6.837-3.316-6.937-3.125" transform="translate(148.751 122.2)" fill="#fafafa"/>
        <path id="Trazado_294" data-name="Trazado 294" d="M78.683,102.525c-.033.02.118.3.44.821a12.2,12.2,0,0,0,1.659,2.1,18.555,18.555,0,0,0,8.516,4.815,30.4,30.4,0,0,0,14.517.2c5.394-1.121,10.981-3.4,16.877-5.436a55.9,55.9,0,0,1,31.343-2.106c7.989,1.793,12.451,4.431,12.551,4.181.018-.033-.249-.207-.778-.507s-1.308-.743-2.362-1.214a48.846,48.846,0,0,0-9.228-3.243,53.722,53.722,0,0,0-14.437-1.55,55.9,55.9,0,0,0-17.455,3.365c-5.95,2.06-11.468,4.339-16.733,5.487a30.292,30.292,0,0,1-14.09.047,19.027,19.027,0,0,1-8.412-4.355c-1.655-1.555-2.306-2.671-2.409-2.6" transform="translate(96.316 123.103)" fill="#fafafa"/>
        <path id="Trazado_295" data-name="Trazado 295" d="M70.771,97.081c-.12-.009-.443,1.735-.234,4.58a28.043,28.043,0,0,0,10.127,19.213c2.229,1.782,3.85,2.5,3.908,2.393.1-.16-1.352-1.117-3.381-3a31.939,31.939,0,0,1-9.855-18.7c-.407-2.738-.374-4.477-.565-4.488" transform="translate(86.267 118.845)" fill="#fafafa"/>
        <path id="Trazado_296" data-name="Trazado 296" d="M113.044,89.173c-23.1,23.183-42.945,48.957-51.452,80.556,13.189-4.322,25.66-8.512,33.9-11.942,0,0-2.478-13.02-.979-20.692,1.831-9.373,1.824-17.235,18.527-47.922" transform="translate(75.4 109.164)" fill="#a2a2cc"/>
        <path id="Trazado_297" data-name="Trazado 297" d="M60.215,107.9c.242.256-2.611,2.92-4.613,7.166-2.06,4.219-2.351,8.112-2.7,8.083-.287.04-.518-4.1,1.657-8.585,2.133-4.5,5.509-6.915,5.658-6.664" transform="translate(64.537 132.07)" fill="#1a2e35"/>
        <path id="Trazado_298" data-name="Trazado 298" d="M55.688,410.908h71.77l35.7-53.4c3.278,17.1,6.808,36.606,9.793,53.4H238.6c-1.1-1.168-1.73-1.828-1.73-1.828L221.761,287.873C231.6,264.9,235.169,241.961,232.3,227.7c.169,1.492.247,3.341-.158-.847-2.444-25.24-24.244-43.8-24.244-43.8L200.6,152.438l-93.325,13.127,3.532,51.259Z" transform="translate(68.172 186.612)" fill="#1a2e35"/>
      </g>
    </g>
  </g>
</svg>
